<svg xmlns="http://www.w3.org/2000/svg" xmlns:xlink="http://www.w3.org/1999/xlink" width="780" height="220" viewBox="0 0 780 220">
    <defs>
        <path id="vdxru60p8a" d="M0 0H780V220H0z"/>
        <path id="22sg1b381c" d="M0 216L775.146 216 775.146 0.144 0 0.144z"/>
        <path id="q271ciz8be" d="M0 216L775.146 216 775.146 0.144 0 0.144z"/>
        <path id="riv2m4x2ng" d="M0 216L775.146 216 775.146 0.144 0 0.144z"/>
    </defs>
    <g fill="none" fill-rule="evenodd">
        <g>
            <g>
                <g>
                    <g>
                        <g transform="translate(-760 -5478) translate(0 2554) translate(320 636) translate(60 2151) translate(380 137)">
                            <mask id="93tjf9l1zb" fill="#fff">
                                <use xlink:href="#vdxru60p8a"/>
                            </mask>
                            <use fill="#F8F9FB" xlink:href="#vdxru60p8a"/>
                            <g mask="url(#93tjf9l1zb)">
                                <g>
                                    <g transform="translate(0 -1) translate(0 .856)">
                                        <path fill="#FFF" d="M137.393 84.911c0 31.125-25.231 56.357-56.357 56.357-31.125 0-56.357-25.232-56.357-56.357S49.91 28.554 81.036 28.554c31.126 0 56.357 25.232 56.357 56.357"/>
                                        <path stroke="#C5C8CF" stroke-width=".75" d="M137.393 84.911c0 31.125-25.231 56.357-56.357 56.357-31.125 0-56.357-25.232-56.357-56.357S49.91 28.554 81.036 28.554c31.126 0 56.357 25.232 56.357 56.357z"/>
                                        <path fill="#007CF7" d="M54.428 93.86L50.089 90.392 50.089 79.17 54.428 75.702z"/>
                                        <path fill="#6FB6FB" d="M62.144 93.86L66.483 90.392 66.483 79.17 62.144 75.702z"/>
                                        <path fill="#0065C7" d="M62.144 75.702L58.286 78.236 62.144 80.832zM54.428 75.702L58.285 78.236 54.428 80.832zM62.144 88.731L58.286 91.264 62.144 93.861zM54.428 88.731L58.285 91.264 54.428 93.861z"/>
                                        <path fill="#273A5B" d="M94.502 88.806L92.327 82.154 90.379 82.154 88.203 88.808 86.242 82.154 84.194 82.154 87.223 91.543 89.134 91.543 91.307 84.793 93.497 91.543 95.427 91.543 98.455 82.154 96.444 82.154zM111.045 82.853c-.624-.662-1.524-.998-2.674-.998-.602 0-1.19.154-1.748.462-.464.257-.833.57-1.1.936v-1.1h-1.884v9.39h1.958v-5.18c0-.74.223-1.382.663-1.912.44-.531.973-.788 1.626-.788 1.404 0 2.103.695 2.138 2.12v5.76h1.959V85.67c0-1.207-.315-2.154-.938-2.817"/>
                                        <mask id="h36woq3uad" fill="#fff">
                                            <use xlink:href="#22sg1b381c"/>
                                        </mask>
                                        <path fill="#273A5B" d="M99.681 91.543L101.638 91.543 101.638 81.863 99.681 81.863zM99.593 80.076L101.726 80.076 101.726 77.945 99.593 77.945zM86.439 77.935L73.963 77.935 73.963 79.829 79.216 79.829 79.216 91.629 81.186 91.629 81.186 79.829 86.439 79.829z" mask="url(#h36woq3uad)"/>
                                    </g>
                                    <text font-family="NotoSansCJKkr-Medium, Noto Sans CJK KR" font-size="12" font-weight="400" transform="translate(0 -1)">
                                        <tspan x="4.674" y="162.932" fill="#000">Check </tspan> <tspan x="42.462" y="162.932" fill="#000" letter-spacing="-.131">r</tspan> <tspan x="47.107" y="162.932" fill="#000" letter-spacing="-.181">e</tspan> <tspan x="53.526" y="162.932" fill="#000">al</tspan> <tspan x="64.002" y="162.932" fill="#000" letter-spacing="-.337">-</tspan> <tspan x="67.613" y="162.932" fill="#000">time inspe</tspan> <tspan x="127.625" y="162.932" fill="#000" letter-spacing="-.132">c</tspan> <tspan x="133.565" y="162.932" fill="#000">tion</tspan>
                                    </text>
                                    <text font-family="NotoSansCJKkr-Medium, Noto Sans CJK KR" font-size="12" font-weight="400" transform="translate(0 -1)">
                                        <tspan x="19.302" y="178.928" fill="#000">&amp; main</tspan> <tspan x="59.598" y="178.928" fill="#000" letter-spacing="-.204">t</tspan> <tspan x="63.942" y="178.928" fill="#000">enan</tspan> <tspan x="92.598" y="178.928" fill="#000" letter-spacing="-.312">c</tspan> <tspan x="98.178" y="178.928" fill="#000">e </tspan> <tspan x="107.658" y="178.928" fill="#000" letter-spacing="-.264">s</tspan> <tspan x="112.89" y="178.928" fill="#000" letter-spacing="-.288">t</tspan> <tspan x="117.066" y="178.928" fill="#000" letter-spacing="-.204">a</tspan> <tspan x="123.558" y="178.928" fill="#000">tus</tspan>
                                    </text>
                                    <text font-family="NotoSansCJKkr-Medium, Noto Sans CJK KR" font-size="12" font-weight="400" transform="translate(0 -1)">
                                        <tspan x="597.08" y="162.932" fill="#000">Inspe</tspan> <tspan x="628.376" y="162.932" fill="#000" letter-spacing="-.133">c</tspan> <tspan x="634.315" y="162.932" fill="#000">tion i</tspan> <tspan x="663.511" y="162.932" fill="#000" letter-spacing="-.205">t</tspan> <tspan x="667.854" y="162.932" fill="#000">em &amp; main</tspan> <tspan x="728.934" y="162.932" fill="#000" letter-spacing="-.203">t</tspan> <tspan x="733.279" y="162.932" fill="#000">enan</tspan> <tspan x="761.935" y="162.932" fill="#000" letter-spacing="-.312">c</tspan> <tspan x="767.515" y="162.932" fill="#000">e</tspan>
                                    </text>
                                    <text font-family="NotoSansCJKkr-Medium, Noto Sans CJK KR" font-size="12" font-weight="400" transform="translate(0 -1)">
                                        <tspan x="626.588" y="178.932" fill="#000">p</tspan> <tspan x="634.148" y="178.932" fill="#000" letter-spacing="-.132">r</tspan> <tspan x="638.792" y="178.932" fill="#000">o</tspan> <tspan x="646.16" y="178.932" fill="#000" letter-spacing="-.312">c</tspan> <tspan x="651.74" y="178.932" fill="#000">ess visuali</tspan> <tspan x="709.844" y="178.932" fill="#000" letter-spacing="-.276">z</tspan> <tspan x="715.172" y="178.932" fill="#000" letter-spacing="-.204">a</tspan> <tspan x="721.664" y="178.932" fill="#000">tion</tspan>
                                    </text>
                                    <text font-family="NotoSansCJKkr-Medium, Noto Sans CJK KR" font-size="12" font-weight="400" transform="translate(0 -1)">
                                        <tspan x="613.286" y="200.531" fill="#000">Issue </tspan> <tspan x="645.434" y="200.531" fill="#000" letter-spacing="-.612">T</tspan> <tspan x="651.53" y="200.531" fill="#000" letter-spacing="-.132">r</tspan> <tspan x="656.174" y="200.531" fill="#000">ouble Memo (TM) </tspan>
                                    </text>
                                    <text font-family="NotoSansCJKkr-Medium, Noto Sans CJK KR" font-size="12" font-weight="400" transform="translate(0 -1)">
                                        <tspan x="153.515" y="110.552" fill="#000">Inspe</tspan> <tspan x="184.811" y="110.552" fill="#000" letter-spacing="-.133">c</tspan> <tspan x="190.749" y="110.552" fill="#000">tion &amp; main</tspan> <tspan x="256.797" y="110.552" fill="#000" letter-spacing="-.203">t</tspan> <tspan x="261.143" y="110.552" fill="#000">enan</tspan> <tspan x="289.799" y="110.552" fill="#000" letter-spacing="-.312">c</tspan> <tspan x="295.379" y="110.552" fill="#000">e d</tspan> <tspan x="312.419" y="110.552" fill="#000" letter-spacing="-.204">a</tspan> <tspan x="318.911" y="110.552" fill="#000" letter-spacing="-.288">t</tspan> <tspan x="323.087" y="110.552" fill="#000">a</tspan>
                                    </text>
                                    <text font-family="NotoSansCJKkr-Medium, Noto Sans CJK KR" font-size="12" font-weight="400" transform="translate(0 -1)">
                                        <tspan x="219.515" y="132.152" fill="#000">TM d</tspan> <tspan x="247.055" y="132.152" fill="#000" letter-spacing="-.204">a</tspan> <tspan x="253.547" y="132.152" fill="#000" letter-spacing="-.288">t</tspan> <tspan x="257.723" y="132.152" fill="#000">a</tspan>
                                    </text>
                                    <text font-family="NotoSansCJKkr-Medium, Noto Sans CJK KR" font-size="12" font-weight="400" letter-spacing="-.132" transform="translate(0 -1)">
                                        <tspan x="183.251" y="64.016" fill="#000">R</tspan> <tspan x="190.847" y="64.016" fill="#000">esponse </tspan> <tspan x="241.043" y="64.016" fill="#000" letter-spacing="-.204">t</tspan> <tspan x="245.387" y="64.016" fill="#000">o TM d</tspan> <tspan x="282.995" y="64.016" fill="#000" letter-spacing="-.204">a</tspan> <tspan x="289.487" y="64.016" fill="#000" letter-spacing="-.288">t</tspan> <tspan x="293.663" y="64.016" fill="#000">a</tspan>
                                    </text>
                                    <g>
                                        <path stroke="#C5C8CF" stroke-width=".75" d="M466.013 5.538L295.406 5.538" transform="translate(0 -1) translate(147 73.856)"/>
                                        <path fill="#C5C8CF" d="M460.037 5.538L460.037 0.776 464.161 3.157 468.285 5.538 464.161 7.919 460.037 10.3z" transform="translate(0 -1) translate(147 73.856)"/>
                                        <path stroke="#C5C8CF" stroke-width=".75" d="M293.554 18.602L464.161 18.602" transform="translate(0 -1) translate(147 73.856)"/>
                                        <path fill="#C5C8CF" d="M299.529 18.602L299.529 23.366 295.405 20.985 291.281 18.602 295.405 16.221 299.529 13.841z" transform="translate(0 -1) translate(147 73.856)"/>
                                        <path stroke="#C5C8CF" stroke-width=".75" d="M185.622 5.538L5.016 5.538" transform="translate(0 -1) translate(147 73.856)"/>
                                        <path fill="#C5C8CF" d="M179.647 5.538L179.647 0.776 183.77 3.157 187.894 5.538 183.77 7.919 179.647 10.3z" transform="translate(0 -1) translate(147 73.856)"/>
                                        <path stroke="#C5C8CF" stroke-width=".75" d="M3.164 18.602L183.77 18.602" transform="translate(0 -1) translate(147 73.856)"/>
                                        <path fill="#C5C8CF" d="M9.14 18.602L9.14 23.366 5.016 20.985 0.892 18.602 5.016 16.221 9.14 13.841z" transform="translate(0 -1) translate(147 73.856)"/>
                                    </g>
                                    <text font-family="NotoSansCJKkr-Medium, Noto Sans CJK KR" font-size="12" font-weight="400" transform="translate(0 -1)">
                                        <tspan x="453.063" y="110.552" fill="#000">Inspe</tspan> <tspan x="484.36" y="110.552" fill="#000" letter-spacing="-.133">c</tspan> <tspan x="490.298" y="110.552" fill="#000">tion &amp; main</tspan> <tspan x="556.346" y="110.552" fill="#000" letter-spacing="-.203">t</tspan> <tspan x="560.692" y="110.552" fill="#000">enan</tspan> <tspan x="589.347" y="110.552" fill="#000" letter-spacing="-.311">c</tspan> <tspan x="594.929" y="110.552" fill="#000">e</tspan>
                                    </text>
                                    <text font-family="NotoSansCJKkr-Medium, Noto Sans CJK KR" font-size="12" font-weight="400" letter-spacing="-.264" transform="translate(0 -1)">
                                        <tspan x="496.24" y="126.548" fill="#000">s</tspan> <tspan x="501.471" y="126.548" fill="#000" letter-spacing="-.288">t</tspan> <tspan x="505.647" y="126.548" fill="#000" letter-spacing="-.204">a</tspan> <tspan x="512.139" y="126.548" fill="#000">tus </tspan> <tspan x="532.792" y="126.548" fill="#000" letter-spacing=".264">d</tspan> <tspan x="540.615" y="126.548" fill="#000" letter-spacing=".06">a</tspan> <tspan x="547.371" y="126.548" fill="#000" letter-spacing="-.024">ta</tspan>
                                    </text>
                                    <text font-family="NotoSansCJKkr-Medium, Noto Sans CJK KR" font-size="12" font-weight="400" transform="translate(0 -1)">
                                        <tspan x="504.904" y="148.148" fill="#000">TM d</tspan> <tspan x="532.443" y="148.148" fill="#000" letter-spacing="-.204">a</tspan> <tspan x="538.936" y="148.148" fill="#000" letter-spacing="-.288">t</tspan> <tspan x="543.111" y="148.148" fill="#000">a</tspan>
                                    </text>
                                    <text font-family="NotoSansCJKkr-Medium, Noto Sans CJK KR" font-size="12" font-weight="400" transform="translate(0 -1)">
                                        <tspan x="455.62" y="28.004" fill="#000">Inspe</tspan> <tspan x="486.916" y="28.004" fill="#000" letter-spacing="-.133">c</tspan> <tspan x="492.854" y="28.004" fill="#000">tion needed i</tspan> <tspan x="567.698" y="28.004" fill="#000" letter-spacing="-.204">t</tspan> <tspan x="572.042" y="28.004" fill="#000">ems,</tspan>
                                    </text>
                                    <text font-family="NotoSansCJKkr-Medium, Noto Sans CJK KR" font-size="12" font-weight="400" transform="translate(0 -1)">
                                        <tspan x="476.043" y="44" fill="#000">main</tspan> <tspan x="505.18" y="44" fill="#000" letter-spacing="-.204">t</tspan> <tspan x="509.524" y="44" fill="#000">enan</tspan> <tspan x="538.179" y="44" fill="#000" letter-spacing="-.311">c</tspan> <tspan x="543.761" y="44" fill="#000">e d</tspan> <tspan x="560.801" y="44" fill="#000" letter-spacing=".06">a</tspan> <tspan x="567.557" y="44" fill="#000" letter-spacing="-.024">ta</tspan>
                                    </text>
                                    <text font-family="NotoSansCJKkr-Medium, Noto Sans CJK KR" font-size="12" font-weight="400" letter-spacing="-.132" transform="translate(0 -1)">
                                        <tspan x="468.639" y="65.6" fill="#000">R</tspan> <tspan x="476.236" y="65.6" fill="#000">esponse </tspan> <tspan x="526.432" y="65.6" fill="#000" letter-spacing="-.204">t</tspan> <tspan x="530.775" y="65.6" fill="#000">o TM d</tspan> <tspan x="568.384" y="65.6" fill="#000" letter-spacing="-.204">a</tspan> <tspan x="574.875" y="65.6" fill="#000" letter-spacing="-.288">t</tspan> <tspan x="579.052" y="65.6" fill="#000">a</tspan>
                                    </text>
                                    <g transform="translate(0 -1) translate(0 .856)">
                                        <path fill="#FFF" d="M741.024 84.911c0 31.125-25.232 56.357-56.357 56.357s-56.358-25.232-56.358-56.357 25.233-56.357 56.358-56.357c31.125 0 56.357 25.232 56.357 56.357"/>
                                        <path stroke="#C5C8CF" stroke-width=".75" d="M741.024 84.911c0 31.125-25.232 56.357-56.357 56.357s-56.358-25.232-56.358-56.357 25.233-56.357 56.358-56.357c31.125 0 56.357 25.232 56.357 56.357z"/>
                                        <mask id="b41v2uvkef" fill="#fff">
                                            <use xlink:href="#q271ciz8be"/>
                                        </mask>
                                        <path fill="#273A5B" d="M690.408 92.708L692.369 92.708 692.369 83.004 690.408 83.004zM690.32 81.214L692.457 81.214 692.457 79.076 690.32 79.076zM715.851 83.303L713.907 89.967 711.728 83.303 709.776 83.303 707.596 89.967 705.66 83.39 705.633 83.303 703.581 83.303 706.588 92.626 706.616 92.709 708.531 92.709 710.706 85.949 712.9 92.709 714.833 92.709 717.866 83.303zM697.158 85.32c.444-.38.982-.572 1.6-.572.753 0 1.36.201 1.802.597.398.355.652.865.726 1.445h-4.98c.163-.626.456-1.133.852-1.47m1.637-2.388c-1.353 0-2.48.483-3.35 1.436-.854.937-1.306 2.198-1.306 3.647 0 1.41.44 2.561 1.344 3.517.895.945 2.047 1.425 3.425 1.425.941 0 1.798-.227 2.545-.674.597-.357 1.167-.9 1.562-1.492l.058-.086-1.407-1.3-.078.118c-.663.998-1.588 1.548-2.606 1.548-.835 0-1.464-.23-1.978-.72-.536-.514-.81-1.119-.857-1.896h7.218l.006-.115c.005-.098.005-.193.005-.193 0-1.635-.428-2.967-1.24-3.854-.826-.904-1.95-1.36-3.34-1.36M682.745 89.827L678.642 79.079 676.475 79.079 681.733 92.631 681.764 92.707 683.723 92.707 689.097 79.244 689.163 79.079 686.996 79.079z" mask="url(#b41v2uvkef)"/>
                                        <path fill="#6FB6FB" d="M664.578 78.518L660.17 75.972 657.741 77.374 664.563 84.197z" mask="url(#b41v2uvkef)"/>
                                        <path fill="#007CF7" d="M664.563 87.835L668.869 83.345 668.869 80.993 664.577 78.517z" mask="url(#b41v2uvkef)"/>
                                        <path fill="#0065C7" d="M655.751 93.512L660.169 96.062 662.6 94.658 655.773 87.837z" mask="url(#b41v2uvkef)"/>
                                        <path fill="#BFDCFF" d="M651.471 81.621L651.471 80.993 657.742 77.374 661.99 81.621z" mask="url(#b41v2uvkef)"/>
                                        <path fill="#DEEDFF" d="M651.471 81.621L651.471 88.497 658.348 81.621z" mask="url(#b41v2uvkef)"/>
                                        <path fill="#007CF7" d="M655.773 84.196L651.469 88.497 651.469 91.038 655.655 93.455 655.769 93.521z" mask="url(#b41v2uvkef)"/>
                                        <path fill="#6FB6FB" d="M668.867 91.039L662.599 94.657 658.347 90.412 668.868 90.412z" mask="url(#b41v2uvkef)"/>
                                        <path fill="#007CF7" d="M660.13 83.28c-1.49 0-2.696 1.207-2.696 2.695 0 1.49 1.207 2.697 2.696 2.697s2.695-1.207 2.695-2.697c0-1.488-1.206-2.695-2.695-2.695" mask="url(#b41v2uvkef)"/>
                                        <path fill="#FFF" d="M661.49 83.843c-.428 0-.773.347-.773.773 0 .427.345.773.772.773.428 0 .773-.346.773-.773 0-.426-.345-.773-.773-.773" mask="url(#b41v2uvkef)"/>
                                        <path fill="#BFDCFF" d="M661.989 90.412L664.563 87.836 668.868 83.346 668.868 90.412z" mask="url(#b41v2uvkef)"/>
                                    </g>
                                    <text font-family="NotoSansCJKkr-Bold, Noto Sans CJK KR" font-size="18" font-weight="bold" transform="translate(0 -1)">
                                        <tspan x="331.263" y="140.345" fill="#092E6E">Inspe</tspan> <tspan x="379.701" y="140.345" fill="#092E6E" letter-spacing="-.216">c</tspan> <tspan x="388.755" y="140.345" fill="#092E6E">tion &amp;</tspan>
                                    </text>
                                    <text font-family="NotoSansCJKkr-Bold, Noto Sans CJK KR" font-size="18" font-weight="bold" transform="translate(0 -1)">
                                        <tspan x="307.305" y="162.341" fill="#092E6E">Main</tspan> <tspan x="350.325" y="162.341" fill="#092E6E" letter-spacing="-.342">t</tspan> <tspan x="357.201" y="162.341" fill="#092E6E">enan</tspan> <tspan x="401.373" y="162.341" fill="#092E6E" letter-spacing="-.54">c</tspan> <tspan x="409.779" y="162.341" fill="#092E6E">e D</tspan> <tspan x="437.175" y="162.341" fill="#092E6E" letter-spacing="-.342">a</tspan> <tspan x="447.129" y="162.341" fill="#092E6E" letter-spacing="-.416">t</tspan> <tspan x="453.859" y="162.341" fill="#092E6E">a</tspan>
                                    </text>
                                    <text font-family="NotoSansCJKkr-Bold, Noto Sans CJK KR" font-size="18" font-weight="bold" transform="translate(0 -1)">
                                        <tspan x="298.701" y="184.337" fill="#092E6E">Mana</tspan> <tspan x="346.887" y="184.337" fill="#092E6E" letter-spacing="-.344">g</tspan> <tspan x="356.947" y="184.337" fill="#092E6E">ement se</tspan> <tspan x="437.767" y="184.337" fill="#092E6E" letter-spacing=".252">r</tspan> <tspan x="446.119" y="184.337" fill="#092E6E" letter-spacing="-.144">v</tspan> <tspan x="456.199" y="184.337" fill="#092E6E">er</tspan>
                                    </text>
                                    <g transform="translate(0 -1) translate(0 .856)">
                                        <path fill="#E6E8EB" d="M365.649 79.718L365.649 111.059 403.481 111.059 403.481 79.428z"/>
                                        <path stroke="#000" stroke-width=".565" d="M365.649 79.718L365.649 111.059 403.481 111.059 403.481 79.428z"/>
                                        <path fill="#FFF" d="M364.406 79.666c-1.382 0-2.507-1.125-2.507-2.507v-6.155c0-1.382 1.125-2.507 2.507-2.507h40.176c1.383 0 2.508 1.125 2.508 2.507v6.155c0 1.382-1.125 2.507-2.508 2.507h-40.176z"/>
                                        <path fill="#000" d="M404.582 68.214h-40.176c-1.534 0-2.789 1.256-2.789 2.79v6.155c0 1.534 1.255 2.789 2.789 2.789h40.176c1.534 0 2.789-1.255 2.789-2.79v-6.154c0-1.534-1.255-2.79-2.789-2.79m0 .564c1.227 0 2.225.998 2.225 2.226v6.155c0 1.227-.998 2.225-2.225 2.225h-40.176c-1.226 0-2.224-.998-2.224-2.225v-6.155c0-1.228.998-2.226 2.224-2.226h40.176"/>
                                        <path fill="#FFF" d="M364.406 93.92c-1.382 0-2.507-1.124-2.507-2.506v-6.155c0-1.382 1.125-2.507 2.507-2.507h40.176c1.383 0 2.508 1.125 2.508 2.507v6.155c0 1.382-1.125 2.507-2.508 2.507h-40.176z"/>
                                        <path fill="#000" d="M404.582 82.47h-40.176c-1.534 0-2.789 1.255-2.789 2.789v6.154c0 1.536 1.255 2.79 2.789 2.79h40.176c1.534 0 2.789-1.254 2.789-2.79v-6.154c0-1.534-1.255-2.79-2.789-2.79m0 .565c1.227 0 2.225.998 2.225 2.225v6.154c0 1.228-.998 2.226-2.225 2.226h-40.176c-1.226 0-2.224-.998-2.224-2.226v-6.154c0-1.227.998-2.225 2.224-2.225h40.176"/>
                                        <path fill="#FFF" d="M364.406 108.096c-1.382 0-2.507-1.125-2.507-2.507v-6.155c0-1.382 1.125-2.507 2.507-2.507h40.176c1.383 0 2.508 1.125 2.508 2.507v6.155c0 1.382-1.125 2.507-2.508 2.507h-40.176z"/>
                                        <path fill="#000" d="M404.582 96.644h-40.176c-1.534 0-2.789 1.255-2.789 2.79v6.154c0 1.535 1.255 2.79 2.789 2.79h40.176c1.534 0 2.789-1.255 2.789-2.79v-6.154c0-1.534-1.255-2.79-2.789-2.79m0 .564c1.227 0 2.225.999 2.225 2.225v6.155c0 1.228-.998 2.226-2.225 2.226h-40.176c-1.226 0-2.224-.998-2.224-2.225v-6.156c0-1.227.998-2.225 2.224-2.225h40.176"/>
                                        <path fill="#0A51B7" d="M390.099 75.686c-.885 0-1.604-.72-1.604-1.605s.719-1.606 1.604-1.606c.885 0 1.605.722 1.605 1.607 0 .884-.72 1.605-1.605 1.605"/>
                                        <path fill="#000" d="M390.099 72.194c-1.042 0-1.887.845-1.887 1.887 0 1.043.845 1.887 1.887 1.887 1.043 0 1.888-.844 1.888-1.887 0-1.042-.845-1.887-1.888-1.887m0 .564c.729 0 1.323.593 1.323 1.323s-.594 1.323-1.323 1.323c-.73 0-1.322-.594-1.322-1.323 0-.73.593-1.323 1.322-1.323"/>
                                        <path fill="#0A51B7" d="M395.92 75.686c-.884 0-1.604-.72-1.604-1.605s.72-1.606 1.605-1.606 1.604.722 1.604 1.607c0 .884-.72 1.605-1.604 1.605"/>
                                        <path fill="#000" d="M395.92 72.194c-1.042 0-1.887.845-1.887 1.887 0 1.043.845 1.887 1.887 1.887 1.043 0 1.888-.844 1.888-1.887 0-1.042-.845-1.887-1.888-1.887m0 .564c.729 0 1.323.593 1.323 1.323s-.594 1.323-1.323 1.323c-.73 0-1.322-.594-1.322-1.323 0-.73.593-1.323 1.322-1.323"/>
                                        <path fill="#0A51B7" d="M401.742 75.686c-.885 0-1.605-.72-1.605-1.605s.72-1.606 1.605-1.606 1.604.722 1.604 1.607c0 .884-.719 1.605-1.604 1.605"/>
                                        <path fill="#000" d="M401.742 72.194c-1.043 0-1.888.845-1.888 1.887 0 1.043.845 1.887 1.888 1.887 1.042 0 1.887-.844 1.887-1.887 0-1.042-.845-1.887-1.887-1.887m0 .564c.73 0 1.322.593 1.322 1.323s-.593 1.323-1.322 1.323c-.729 0-1.323-.594-1.323-1.323 0-.73.594-1.323 1.323-1.323"/>
                                        <path fill="#0A51B7" d="M390.099 89.941c-.885 0-1.604-.72-1.604-1.605s.719-1.606 1.604-1.606c.885 0 1.605.721 1.605 1.606 0 .884-.72 1.605-1.605 1.605"/>
                                        <path fill="#000" d="M390.099 86.448c-1.042 0-1.887.846-1.887 1.888 0 1.042.845 1.887 1.887 1.887 1.043 0 1.888-.845 1.888-1.887s-.845-1.888-1.888-1.888m0 .564c.729 0 1.323.594 1.323 1.324 0 .73-.594 1.323-1.323 1.323-.73 0-1.322-.594-1.322-1.323 0-.73.593-1.324 1.322-1.324"/>
                                        <path fill="#0A51B7" d="M395.92 89.941c-.884 0-1.604-.72-1.604-1.605s.72-1.606 1.605-1.606 1.604.721 1.604 1.606c0 .884-.72 1.605-1.604 1.605"/>
                                        <path fill="#000" d="M395.92 86.448c-1.042 0-1.887.846-1.887 1.888 0 1.042.845 1.887 1.887 1.887 1.043 0 1.888-.845 1.888-1.887s-.845-1.888-1.888-1.888m0 .564c.729 0 1.323.594 1.323 1.324 0 .73-.594 1.323-1.323 1.323-.73 0-1.322-.594-1.322-1.323 0-.73.593-1.324 1.322-1.324"/>
                                        <path fill="#0A51B7" d="M401.742 89.941c-.885 0-1.605-.72-1.605-1.605s.72-1.606 1.605-1.606 1.604.721 1.604 1.606c0 .884-.719 1.605-1.604 1.605"/>
                                        <path fill="#000" d="M401.742 86.448c-1.043 0-1.888.846-1.888 1.888 0 1.042.845 1.887 1.888 1.887 1.042 0 1.887-.845 1.887-1.887s-.845-1.888-1.887-1.888m0 .564c.73 0 1.322.594 1.322 1.324 0 .73-.593 1.323-1.322 1.323-.729 0-1.323-.594-1.323-1.323 0-.73.594-1.324 1.323-1.324"/>
                                        <path fill="#0A51B7" d="M390.099 104.116c-.885 0-1.604-.72-1.604-1.605s.719-1.605 1.604-1.605c.885 0 1.605.72 1.605 1.605 0 .884-.72 1.605-1.605 1.605"/>
                                        <path fill="#000" d="M390.099 100.624c-1.042 0-1.887.845-1.887 1.887 0 1.043.845 1.887 1.887 1.887 1.043 0 1.888-.844 1.888-1.887 0-1.042-.845-1.887-1.888-1.887m0 .564c.729 0 1.323.594 1.323 1.323 0 .73-.594 1.323-1.323 1.323-.73 0-1.322-.593-1.322-1.323 0-.729.593-1.323 1.322-1.323"/>
                                        <path fill="#0A51B7" d="M395.92 104.116c-.884 0-1.604-.72-1.604-1.605s.72-1.605 1.605-1.605 1.604.72 1.604 1.605c0 .884-.72 1.605-1.604 1.605"/>
                                        <path fill="#000" d="M395.92 100.624c-1.042 0-1.887.845-1.887 1.887 0 1.043.845 1.887 1.887 1.887 1.043 0 1.888-.844 1.888-1.887 0-1.042-.845-1.887-1.888-1.887m0 .564c.729 0 1.323.594 1.323 1.323 0 .73-.594 1.323-1.323 1.323-.73 0-1.322-.593-1.322-1.323 0-.729.593-1.323 1.322-1.323"/>
                                        <path fill="#0A51B7" d="M401.742 104.116c-.885 0-1.605-.72-1.605-1.605s.72-1.605 1.605-1.605 1.604.72 1.604 1.605c0 .884-.719 1.605-1.604 1.605"/>
                                        <path fill="#000" d="M401.742 100.624c-1.043 0-1.888.845-1.888 1.887 0 1.043.845 1.887 1.888 1.887 1.042 0 1.887-.844 1.887-1.887 0-1.042-.845-1.887-1.887-1.887m0 .564c.73 0 1.322.594 1.322 1.323 0 .73-.593 1.323-1.322 1.323-.729 0-1.323-.593-1.323-1.323 0-.729.594-1.323 1.323-1.323"/>
                                        <g>
                                            <path fill="#FFF" d="M1.452 0.983L1.452 7.178" transform="translate(365 70)"/>
                                            <path stroke="#000" stroke-width=".565" d="M1.452 0.983L1.452 7.178" transform="translate(365 70)"/>
                                        </g>
                                        <g>
                                            <path fill="#FFF" d="M0.653 0.983L0.653 7.178" transform="translate(369 70)"/>
                                            <path stroke="#000" stroke-width=".565" d="M0.653 0.983L0.653 7.178" transform="translate(369 70)"/>
                                        </g>
                                        <g>
                                            <path fill="#FFF" d="M0.855 0.983L0.855 7.178" transform="translate(372 70)"/>
                                            <path stroke="#000" stroke-width=".565" d="M0.855 0.983L0.855 7.178" transform="translate(372 70)"/>
                                        </g>
                                        <g>
                                            <path fill="#FFF" d="M1.056 0.983L1.056 7.178" transform="translate(375 70)"/>
                                            <path stroke="#000" stroke-width=".565" d="M1.056 0.983L1.056 7.178" transform="translate(375 70)"/>
                                        </g>
                                        <g>
                                            <path fill="#FFF" d="M1.257 0.983L1.257 7.178" transform="translate(378 70)"/>
                                            <path stroke="#000" stroke-width=".565" d="M1.257 0.983L1.257 7.178" transform="translate(378 70)"/>
                                        </g>
                                        <g>
                                            <path fill="#FFF" d="M1.458 0.983L1.458 7.178" transform="translate(381 70)"/>
                                            <path stroke="#000" stroke-width=".565" d="M1.458 0.983L1.458 7.178" transform="translate(381 70)"/>
                                        </g>
                                        <g>
                                            <path fill="#FFF" d="M1.053 0.983L1.053 7.178" transform="translate(367 70)"/>
                                            <path stroke="#000" stroke-width=".565" d="M1.053 0.983L1.053 7.178" transform="translate(367 70)"/>
                                        </g>
                                        <g>
                                            <path fill="#FFF" d="M1.254 0.983L1.254 7.178" transform="translate(370 70)"/>
                                            <path stroke="#000" stroke-width=".565" d="M1.254 0.983L1.254 7.178" transform="translate(370 70)"/>
                                        </g>
                                        <g>
                                            <path fill="#FFF" d="M1.455 0.983L1.455 7.178" transform="translate(373 70)"/>
                                            <path stroke="#000" stroke-width=".565" d="M1.455 0.983L1.455 7.178" transform="translate(373 70)"/>
                                        </g>
                                        <g>
                                            <path fill="#FFF" d="M0.656 0.983L0.656 7.178" transform="translate(377 70)"/>
                                            <path stroke="#000" stroke-width=".565" d="M0.656 0.983L0.656 7.178" transform="translate(377 70)"/>
                                        </g>
                                        <g>
                                            <path fill="#FFF" d="M0.857 0.983L0.857 7.178" transform="translate(380 70)"/>
                                            <path stroke="#000" stroke-width=".565" d="M0.857 0.983L0.857 7.178" transform="translate(380 70)"/>
                                        </g>
                                        <g>
                                            <path fill="#FFF" d="M1.452 0.238L1.452 6.433" transform="translate(365 85)"/>
                                            <path stroke="#000" stroke-width=".565" d="M1.452 0.238L1.452 6.433" transform="translate(365 85)"/>
                                        </g>
                                        <g>
                                            <path fill="#FFF" d="M0.653 0.238L0.653 6.433" transform="translate(369 85)"/>
                                            <path stroke="#000" stroke-width=".565" d="M0.653 0.238L0.653 6.433" transform="translate(369 85)"/>
                                        </g>
                                        <g>
                                            <path fill="#FFF" d="M0.855 0.238L0.855 6.433" transform="translate(372 85)"/>
                                            <path stroke="#000" stroke-width=".565" d="M0.855 0.238L0.855 6.433" transform="translate(372 85)"/>
                                        </g>
                                        <g>
                                            <path fill="#FFF" d="M1.056 0.238L1.056 6.433" transform="translate(375 85)"/>
                                            <path stroke="#000" stroke-width=".565" d="M1.056 0.238L1.056 6.433" transform="translate(375 85)"/>
                                        </g>
                                        <g>
                                            <path fill="#FFF" d="M1.257 0.238L1.257 6.433" transform="translate(378 85)"/>
                                            <path stroke="#000" stroke-width=".565" d="M1.257 0.238L1.257 6.433" transform="translate(378 85)"/>
                                        </g>
                                        <g>
                                            <path fill="#FFF" d="M1.458 0.238L1.458 6.433" transform="translate(381 85)"/>
                                            <path stroke="#000" stroke-width=".565" d="M1.458 0.238L1.458 6.433" transform="translate(381 85)"/>
                                        </g>
                                        <g>
                                            <path fill="#FFF" d="M1.053 0.238L1.053 6.433" transform="translate(367 85)"/>
                                            <path stroke="#000" stroke-width=".565" d="M1.053 0.238L1.053 6.433" transform="translate(367 85)"/>
                                        </g>
                                        <g>
                                            <path fill="#FFF" d="M1.254 0.238L1.254 6.433" transform="translate(370 85)"/>
                                            <path stroke="#000" stroke-width=".565" d="M1.254 0.238L1.254 6.433" transform="translate(370 85)"/>
                                        </g>
                                        <g>
                                            <path fill="#FFF" d="M1.455 0.238L1.455 6.433" transform="translate(373 85)"/>
                                            <path stroke="#000" stroke-width=".565" d="M1.455 0.238L1.455 6.433" transform="translate(373 85)"/>
                                        </g>
                                        <g>
                                            <path fill="#FFF" d="M0.656 0.238L0.656 6.433" transform="translate(377 85)"/>
                                            <path stroke="#000" stroke-width=".565" d="M0.656 0.238L0.656 6.433" transform="translate(377 85)"/>
                                        </g>
                                        <g>
                                            <path fill="#FFF" d="M0.857 0.238L0.857 6.433" transform="translate(380 85)"/>
                                            <path stroke="#000" stroke-width=".565" d="M0.857 0.238L0.857 6.433" transform="translate(380 85)"/>
                                        </g>
                                        <g>
                                            <path fill="#FFF" d="M1.452 0.493L1.452 6.688" transform="translate(365 99)"/>
                                            <path stroke="#000" stroke-width=".565" d="M1.452 0.493L1.452 6.688" transform="translate(365 99)"/>
                                        </g>
                                        <g>
                                            <path fill="#FFF" d="M0.653 0.493L0.653 6.688" transform="translate(369 99)"/>
                                            <path stroke="#000" stroke-width=".565" d="M0.653 0.493L0.653 6.688" transform="translate(369 99)"/>
                                        </g>
                                        <g>
                                            <path fill="#FFF" d="M0.855 0.493L0.855 6.688" transform="translate(372 99)"/>
                                            <path stroke="#000" stroke-width=".565" d="M0.855 0.493L0.855 6.688" transform="translate(372 99)"/>
                                        </g>
                                        <g>
                                            <path fill="#FFF" d="M1.056 0.493L1.056 6.688" transform="translate(375 99)"/>
                                            <path stroke="#000" stroke-width=".565" d="M1.056 0.493L1.056 6.688" transform="translate(375 99)"/>
                                        </g>
                                        <g>
                                            <path fill="#FFF" d="M1.257 0.493L1.257 6.688" transform="translate(378 99)"/>
                                            <path stroke="#000" stroke-width=".565" d="M1.257 0.493L1.257 6.688" transform="translate(378 99)"/>
                                        </g>
                                        <g>
                                            <path fill="#FFF" d="M1.458 0.493L1.458 6.688" transform="translate(381 99)"/>
                                            <path stroke="#000" stroke-width=".565" d="M1.458 0.493L1.458 6.688" transform="translate(381 99)"/>
                                        </g>
                                        <g>
                                            <path fill="#FFF" d="M1.053 0.493L1.053 6.688" transform="translate(367 99)"/>
                                            <path stroke="#000" stroke-width=".565" d="M1.053 0.493L1.053 6.688" transform="translate(367 99)"/>
                                        </g>
                                        <g>
                                            <path fill="#FFF" d="M1.254 0.493L1.254 6.688" transform="translate(370 99)"/>
                                            <path stroke="#000" stroke-width=".565" d="M1.254 0.493L1.254 6.688" transform="translate(370 99)"/>
                                        </g>
                                        <g>
                                            <path fill="#FFF" d="M1.455 0.493L1.455 6.688" transform="translate(373 99)"/>
                                            <path stroke="#000" stroke-width=".565" d="M1.455 0.493L1.455 6.688" transform="translate(373 99)"/>
                                        </g>
                                        <g>
                                            <path fill="#FFF" d="M0.656 0.493L0.656 6.688" transform="translate(377 99)"/>
                                            <path stroke="#000" stroke-width=".565" d="M0.656 0.493L0.656 6.688" transform="translate(377 99)"/>
                                        </g>
                                        <g>
                                            <path fill="#FFF" d="M0.857 0.493L0.857 6.688" transform="translate(380 99)"/>
                                            <path stroke="#000" stroke-width=".565" d="M0.857 0.493L0.857 6.688" transform="translate(380 99)"/>
                                        </g>
                                        <path fill="#E6E8EB" d="M399.29 99.628s.188-1.193 1.878-2.007c1.689-.813 5.93-1.964 11.108-1.25 5.18.716 6.54 2 6.54 2l.623 1.378-.001 15.146s-.684 1.814-4.158 2.565c-3.472.752-10.388 1.002-13.705-.531 0 0-2.097-.876-2.285-2.191v-15.11z"/>
                                        <path stroke="#000" stroke-width=".565" d="M419.44 99.493s-.779-3.346-10.378-3.346c-9.6 0-9.772 3.417-9.772 3.417v15.211s1.055 3.44 10.07 3.44c9.012 0 10.078-3.44 10.078-3.44l.002-15.282z"/>
                                        <path stroke="#000" stroke-width=".565" d="M399.29 104.942s1.126 3.296 10.205 3.21c9.079-.087 9.944-3.21 9.944-3.21M399.29 109.9s1.126 3.296 10.205 3.21c9.079-.088 9.944-3.21 9.944-3.21M399.29 99.984s1.126 3.297 10.205 3.21c9.079-.087 9.944-3.21 9.944-3.21"/>
                                    </g>
                                </g>
                            </g>
                        </g>
                    </g>
                </g>
            </g>
        </g>
    </g>
</svg>
