<svg xmlns="http://www.w3.org/2000/svg" xmlns:xlink="http://www.w3.org/1999/xlink" width="780" height="514" viewBox="0 0 780 514">
    <defs>
        <path id="prefix__a" d="M0 447L731.391 447 731.391 0.687 0 0.687z"/>
        <path id="prefix__c" d="M0.445 7.352L0.445 20.384 11.732 26.901 23.018 20.384 23.018 7.352 11.732 0.836z"/>
        <path id="prefix__e" d="M0.665 13.384L11.732 19.704 11.732 6.869 0.665 0.479z"/>
        <path id="prefix__g" d="M.445 7.352v13.032L11.732 26.9l11.286-6.516V7.352L11.732.836.445 7.352zm.389 12.809V7.575l10.898-6.292L22.63 7.575v12.586l-10.898 6.291L.834 20.161z"/>
        <path id="prefix__i" d="M0.253 0.687L698.39 0.687 698.39 447 0.253 447z"/>
    </defs>
    <g fill="none" fill-rule="evenodd">
        <path fill="#F8F9FB" d="M0 0H780V514H0z"/>
        <g>
            <g transform="translate(24 29) translate(0 .313)">
                <path fill="#000" d="M16.784 303.832v1.02H15.25v3.705h-1.236v-7.94h1.236v3.215h1.535zm-7.148 6.404h6.044v1.008H8.388v-3.503h1.248v2.495zm.168-4.546c.947 0 1.678-.647 1.678-1.643 0-.983-.73-1.631-1.678-1.631s-1.667.648-1.667 1.631c0 .996.72 1.643 1.667 1.643zm0 1.068c-1.63 0-2.879-1.127-2.879-2.711 0-1.582 1.248-2.697 2.88-2.697 1.641 0 2.89 1.115 2.89 2.697 0 1.584-1.249 2.711-2.89 2.711zM25.57 303.52v-2.892h1.234v7.917H25.57v-4.006h-1.967v-1.02h1.967zm1.51 6.716v1.009h-7.292v-3.384h1.235v2.375h6.057zm-3.418-3.226c-1.199-.409-2.075-1.26-2.53-2.327-.48 1.175-1.392 2.124-2.675 2.567l-.636-.971c1.68-.589 2.662-2.015 2.662-3.478v-.373h-2.29v-.995h5.793v.995h-2.255v.373c0 1.33.923 2.685 2.542 3.25l-.61.959z"/>
                <mask id="prefix__b" fill="#fff">
                    <use xlink:href="#prefix__a"/>
                </mask>
                <path fill="#000" d="M39.922 308.509h1.235v-7.88h-1.235v7.88zm1.547 1.727v1.008h-7.388v-3.455h1.247v2.447h6.141zm-3.179-3.178c-1.247-.408-2.158-1.247-2.639-2.315-.479 1.152-1.39 2.075-2.685 2.507l-.649-.96c1.716-.575 2.687-1.978 2.687-3.442v-.396h-2.351v-.995h5.925v.995h-2.314v.396c0 1.38.983 2.699 2.65 3.238l-.624.972zM53.264 303.712v1.019h-1.535v3.718h-1.236v-7.843h1.236v3.106h1.535zm-7.148 6.524h6.044v1.008h-7.292v-3.586h1.248v2.578zm3.478-4.005c-1.403.299-2.675.37-5.002.37h-.875v-5.096h4.82v1.007h-3.585v3.07c2.05-.012 3.214-.071 4.522-.348l.12.997zM65.361 311.471h1.247v-10.877h-1.247v10.877zm-5.829-3.598c1.715-.012 3.214-.096 4.93-.371l.132 1.007c-1.86.324-3.479.384-5.386.384h-.923V304.6h3.778v-2.016h-3.802v-1.008h5.05v4.019h-3.779v2.278zM77.564 306.926c-1.762-.36-3.285-1.487-3.993-2.975-.707 1.488-2.231 2.616-3.993 2.975l-.53-1.02c2.135-.395 3.874-2.062 3.874-3.777v-.816h1.309v.816c0 1.727 1.739 3.394 3.874 3.777l-.54 1.02zm-8.851 3.13h9.81v-1.02h-9.81v1.02zM88.473 307.334h-7.508v-5.842h7.424v.996h-6.165v1.391h5.925v.973h-5.925v1.486h6.249v.996zm-8.72 2.782h9.824v-1.007h-9.823v1.007zM101.828 306.794h1.248v-6.188h-1.248v6.188zm-5.912-1.992h2.723v-2.53h-2.723v2.53zm4.27 3.611c.095.888 1.487 1.858 3.49 2.075l-.408.936c-1.715-.204-3.059-.901-3.718-1.836-.66.948-2.028 1.632-3.754 1.836l-.408-.936c2.027-.204 3.43-1.152 3.526-2.075h-3.106v-.947h3.106v-.972h1.26v.972h3.105v.947h-3.093zm-5.482-2.626h5.134v-4.498h-5.134v4.498zM7.938 322.17h2.494v-3.538H7.938v3.538zm-1.236-3.538H5.106v-.995h8.144v.995h-1.595v3.538h1.572v1.008H5.143v-1.008h1.559v-3.538zm-2.411 7.483h9.835v-1.019H4.291v1.019zM25.153 325.156L25.153 326.176 15.342 326.176 15.342 325.156 19.612 325.156 19.612 323.309 16.53 323.309 16.53 319.819 22.766 319.819 22.766 318.368 16.507 318.368 16.507 317.372 23.99 317.372 23.99 320.802 17.742 320.802 17.742 322.313 24.23 322.313 24.23 323.309 20.847 323.309 20.847 325.156zM34.455 327.447h1.175v-10.83h-1.175v10.83zm-2.207-10.627h1.163v10.123h-1.163v-5.529h-1.596v-1.007h1.596v-3.587zm-2.543 2.687c0 1.752.66 3.587 2.111 4.498l-.696.959c-.983-.6-1.631-1.654-2.003-2.866-.384 1.331-1.091 2.47-2.135 3.106l-.754-.935c1.535-.912 2.278-2.855 2.278-4.702v-1.955h1.199v1.895zM46.274 322.926c-1.763-.36-3.286-1.487-3.994-2.975-.707 1.488-2.23 2.615-3.993 2.975l-.529-1.02c2.135-.396 3.874-2.063 3.874-3.778v-.815h1.308v.815c0 1.728 1.738 3.395 3.874 3.778l-.54 1.02zm-8.852 3.13h9.811v-1.02h-9.81v1.02zM59.882 327.435h1.187v-10.83h-1.187v10.83zm-2.206-10.59h1.163v10.087h-1.163v-5.254h-2.135v-1.007h2.135v-3.826zm-4.271 7.064c1.344-.013 2.268-.072 3.335-.3l.108 1.02c-1.224.239-2.279.3-3.934.3h-.731v-7.04h4.101v1.007h-2.879v5.013zM70.526 327.471h1.247v-10.866h-1.247v10.866zm-6.116-6.248c0 1.703.659 2.722 1.595 2.722.947 0 1.607-1.019 1.607-2.722 0-1.68-.66-2.7-1.607-2.7-.936 0-1.595 1.02-1.595 2.7zm4.39 0c0 2.35-1.176 3.825-2.795 3.825-1.608 0-2.782-1.475-2.782-3.825 0-2.327 1.174-3.815 2.782-3.815 1.619 0 2.795 1.488 2.795 3.815zM82.897 316.593v10.866H81.65v-5.865h-2.075v-1.02h2.075v-3.981h1.247zm-7.279 7.328c1.727-.012 2.963-.072 4.378-.311l.108.995c-1.549.275-2.903.324-4.87.324h-.852v-7.376h5.025v1.019H75.62v2.027h3.344v.983H75.62v2.339zM93.784 320.851h2.255v-1.331h-2.255v1.331zm3.742 5.384v1.008h-7.304v-3.394h1.248v2.386h6.056zm-7.508-4.376h2.554v-1.764h-2.554v1.764zm3.766 1.006h-4.989v-5.528h1.224v1.786h2.553v-1.786h1.212v1.186h2.255v-1.894h1.235v8h-1.235v-2.771h-2.255v1.007zM109.31 320.287v1.02h-1.487v3.777h-1.236v-8.48h1.236v3.683h1.487zm-6.692 1.067c.863 0 1.415-.299 1.415-.803 0-.516-.552-.827-1.415-.827-.864 0-1.415.311-1.415.827 0 .504.55.803 1.415.803zm-.564 4.881h6.14v1.008h-7.375v-2.698h1.235v1.69zm3.658-7.735h-6.188v-.912h2.482v-1.019h1.247v1.02h2.459v.911zm.396 4.941c-2.267.432-4.846.48-6.717.492l-.144-.984c.804 0 1.763-.012 2.759-.036v-.743c-1.212-.144-1.967-.732-1.967-1.619 0-1.032 1.02-1.667 2.579-1.667 1.559 0 2.579.635 2.579 1.667 0 .875-.744 1.475-1.944 1.62v.682c.936-.059 1.883-.13 2.759-.263l.096.851z" mask="url(#prefix__b)"/>
                <path fill="#C5C8CF" d="M123.667 229.852L165.496 229.852 165.496 229.102 123.667 229.102z" mask="url(#prefix__b)"/>
                <path fill="#C5C8CF" d="M159.52 229.477L159.52 224.714 163.644 227.096 167.768 229.477 163.644 231.858 159.52 234.239z" mask="url(#prefix__b)"/>
                <path fill="#000" d="M205.413 306.914l-.348-1.187c-.299-.959-.563-1.943-.839-2.938h-.048c-.252 1.007-.528 1.98-.816 2.938l-.359 1.187h2.41zm.336 1.092h-3.07l-.756 2.518h-1.415l2.926-8.827h1.607l2.927 8.827h-1.476l-.743-2.518zM210.526 305.848h1.331c1.283 0 1.98-.528 1.98-1.596 0-1.067-.697-1.44-1.98-1.44h-1.33v3.036zm3.43 4.677l-2.003-3.562h-1.427v3.562h-1.392v-8.827h2.891c1.823 0 3.19.647 3.19 2.554 0 1.367-.73 2.183-1.846 2.53l2.158 3.743h-1.57zM229.134 303.832v1.02h-1.535v3.706h-1.236v-7.941h1.236v3.215h1.535zm-7.148 6.404h6.044v1.008h-7.292v-3.502h1.248v2.494zm.168-4.545c.947 0 1.678-.648 1.678-1.643 0-.984-.731-1.631-1.678-1.631-.948 0-1.667.647-1.667 1.631 0 .995.719 1.643 1.667 1.643zm0 1.067c-1.631 0-2.88-1.127-2.88-2.71s1.249-2.698 2.88-2.698c1.642 0 2.89 1.115 2.89 2.698s-1.248 2.71-2.89 2.71zM237.919 303.52v-2.89h1.235v7.915h-1.235v-4.006h-1.967v-1.018h1.967zm1.51 6.716v1.009h-7.291v-3.384h1.235v2.375h6.057zm-3.417-3.226c-1.2-.407-2.075-1.26-2.53-2.327-.481 1.177-1.392 2.124-2.675 2.567l-.636-.97c1.679-.588 2.662-2.016 2.662-3.48v-.372h-2.29v-.995h5.793v.995h-2.255v.373c0 1.33.923 2.687 2.542 3.25l-.611.959zM252.272 308.51h1.235v-7.88h-1.235v7.88zm1.546 1.726v1.008h-7.387v-3.454h1.247v2.446h6.14zm-3.178-3.177c-1.247-.409-2.159-1.248-2.639-2.315-.48 1.151-1.391 2.074-2.686 2.506l-.648-.959c1.716-.576 2.687-1.978 2.687-3.442v-.396h-2.351v-.996h5.925v.996h-2.315v.396c0 1.38.984 2.698 2.651 3.238l-.624.972zM265.614 303.712v1.02h-1.535v3.717h-1.236v-7.843h1.236v3.106h1.535zm-7.148 6.524h6.044v1.008h-7.292v-3.586h1.248v2.578zm3.478-4.005c-1.403.3-2.675.372-5.002.372h-.875v-5.097h4.821v1.007h-3.586v3.07c2.051-.012 3.214-.071 4.522-.348l.12.996zM200.808 316.618v10.817h-1.175v-5.588h-1.235v5.085h-1.164v-10.11h1.164v4.018h1.235v-4.222h1.175zm-7.735 7.027h1.87v-4.856h-1.87v4.856zm-1.152.984h4.174v-6.824h-4.174v6.824zM211.273 321.163h-7.46v-4.029h1.247v3.022h6.213v1.007zm1.126 2.4h-2.41v3.897h-1.236v-3.898h-2.517v3.898H205v-3.898h-2.4v-1.007h9.8v1.007zM222.972 326.345v.972h-7.4v-2.843h5.817v-.888h-5.83v-.96h7.054v2.759h-5.818v.96h6.177zm-6.356-5.445c.935 0 1.63-.588 1.63-1.475 0-.888-.695-1.476-1.63-1.476-.96 0-1.643.588-1.643 1.476 0 .887.684 1.475 1.643 1.475zm2.758-.984c-.228 1.176-1.32 1.992-2.758 1.992-1.631 0-2.831-1.032-2.831-2.483 0-1.452 1.2-2.483 2.83-2.483 1.428 0 2.507.792 2.748 1.966h2.002v-2.302h1.248v5.48h-1.248v-2.17h-1.991zM235.439 327.436h1.176v-10.83h-1.176v10.83zm-2.182-10.615h1.163v10.099h-1.163v-5.493h-1.595v-1.007h1.595v-3.599zm-2.591 2.771c0 1.847.696 3.719 2.207 4.594l-.72.899c-1.019-.6-1.69-1.667-2.074-2.926-.384 1.367-1.08 2.53-2.123 3.19l-.744-.912c1.535-.958 2.255-2.914 2.255-4.845v-.779h-1.906v-1.02h4.892v1.02h-1.787v.779zM248.411 320.396h-1.535v2.746h-1.236v-6.536h1.236v2.77h1.535v1.02zm-8.659 3.274h7.124v3.779h-1.236v-2.784h-5.888v-.995zm4.401-.96c-1.212-.395-2.075-1.222-2.543-2.253-.479 1.137-1.379 2.026-2.65 2.47l-.648-.972c1.715-.577 2.662-1.955 2.662-3.442v-.191h-2.302v-1.009h5.817v1.009h-2.267v.19c0 1.368.912 2.699 2.567 3.25l-.636.949zM252.327 316.954L253.286 316.954 249.952 328.683 248.992 328.683zM263.028 321.607c-1.799-.288-3.274-1.199-3.982-2.447-.696 1.26-2.195 2.16-3.994 2.447l-.48-.996c2.207-.312 3.814-1.643 3.814-3.07v-.576h1.308v.576c0 1.403 1.631 2.758 3.813 3.07l-.479.996zm.9 2.026h-4.306v3.827h-1.236v-3.827h-4.246v-1.006h9.787v1.006zM272.917 319.34v-2.722h1.235v6.452h-1.235v-2.722h-1.919v-1.007h1.919zm.048 6.069c0-.708-.888-1.091-2.411-1.091-1.547 0-2.422.383-2.422 1.09 0 .708.875 1.092 2.422 1.092 1.523 0 2.411-.384 2.411-1.091zm1.235 0c0 1.295-1.391 2.05-3.646 2.05-2.267 0-3.658-.755-3.658-2.05 0-1.283 1.391-2.05 3.658-2.05 2.255 0 3.646.767 3.646 2.05zm-3.19-2.686c-1.199-.42-2.063-1.272-2.519-2.315-.479 1.187-1.391 2.147-2.675 2.603l-.635-.983c1.679-.601 2.65-2.04 2.65-3.527v-.156h-2.29v-.995h5.793v.995h-2.255v.144c0 1.355.923 2.699 2.542 3.262l-.611.972z" mask="url(#prefix__b)"/>
                <path fill="#FFF" d="M289.637 229.599c0 31.125-25.232 56.357-56.357 56.357s-56.358-25.232-56.358-56.357 25.233-56.356 56.358-56.356c31.125 0 56.357 25.23 56.357 56.356" mask="url(#prefix__b)"/>
                <path fill="#C5C8CF" d="M233.28 173.617c-30.87 0-55.983 25.113-55.983 55.981 0 30.87 25.113 55.983 55.982 55.983 30.87 0 55.982-25.113 55.982-55.983 0-30.868-25.113-55.98-55.982-55.98m0 112.713c-31.282 0-56.732-25.45-56.732-56.733 0-31.282 25.45-56.73 56.732-56.73s56.732 25.448 56.732 56.73c0 31.283-25.45 56.733-56.732 56.733" mask="url(#prefix__b)"/>
                <path fill="#273A5B" d="M231.54 230.174L226.944 222.829 226.909 222.774 225 222.774 225 236.414 226.963 236.414 226.963 228.336 226.898 226.408 230.933 232.801 230.968 232.858 232.111 232.858 236.182 226.409 236.117 228.339 236.117 236.414 238.08 236.414 238.08 222.774 236.171 222.774zM246.356 232.362c-.016.662-.289 1.248-.812 1.743-.543.513-1.167.773-1.855.773-.482 0-.907-.143-1.264-.424-.353-.278-.525-.613-.525-1.028 0-.462.214-.84.652-1.157.446-.32 1.01-.482 1.68-.482.9 0 1.615.194 2.124.575m-2.42-5.719c-1.428 0-2.705.624-3.695 1.806l-.072.085 1.375 1.374.083-.105c.415-.517 1.268-1.384 2.332-1.384.726 0 1.26.184 1.728.596.45.4.67.868.67 1.436v.192c-.649-.32-1.457-.48-2.406-.48-1.22 0-2.21.29-2.947.866-.745.583-1.123 1.377-1.123 2.36 0 .93.358 1.716 1.062 2.336.698.616 1.58.928 2.615.928 1.143 0 2.083-.478 2.8-1.422v1.186h1.887v-5.835c0-1.214-.385-2.187-1.143-2.888-.746-.687-1.84-1.05-3.166-1.05M258.187 227.251L258.187 227.006 255.808 227.006 252.011 230.855 252.011 222.776 251.772 222.776 250.048 224.265 250.048 236.416 252.011 236.416 252.011 233.409 253.274 232.162 256.092 236.416 258.356 236.416 258.356 236.185 254.649 230.772z" mask="url(#prefix__b)"/>
                <path fill="#273A5B" d="M260.392 230.496c.163-.625.456-1.13.852-1.469.443-.379.98-.57 1.597-.57.752 0 1.359.2 1.802.597.396.354.65.862.724 1.442h-4.975zm7.063 1.355c0-1.632-.428-2.963-1.24-3.849-.824-.902-1.946-1.359-3.336-1.359-1.352 0-2.478.482-3.347 1.434-.853.936-1.304 2.196-1.304 3.644 0 1.41.439 2.557 1.343 3.513.893.945 2.045 1.423 3.42 1.423.94 0 1.797-.225 2.543-.673.597-.357 1.167-.9 1.56-1.492l.059-.085-1.407-1.298-.078.117c-.662.998-1.586 1.546-2.602 1.546-.835 0-1.463-.228-1.976-.718-.544-.52-.81-1.108-.856-1.894h7.19l.03-.309z" mask="url(#prefix__b)"/>
                <path fill="#6FB6FB" d="M200.523 230.199L199.105 231.017 199.115 234.611 207.804 229.598 204.684 227.797zM216.502 231.018L215.084 230.2 210.925 227.797 207.805 229.599 216.503 234.622z" mask="url(#prefix__b)"/>
                <path fill="#BFDCFF" d="M216.504 231.018L216.504 234.622 207.805 239.644 207.805 236.04 209.223 235.221z" mask="url(#prefix__b)"/>
                <path fill="#007CF7" d="M199.106 231.018L199.106 234.622 207.804 239.644 207.804 236.04 206.387 235.221z" mask="url(#prefix__b)"/>
                <path fill="#6FB6FB" d="M215.084 223.758L207.804 219.555 200.522 223.758 199.105 224.577 199.115 228.17 207.809 223.154 216.503 228.18 216.502 224.577z" mask="url(#prefix__b)"/>
                <path fill="#BFDCFF" d="M216.504 224.576L216.504 228.18 207.805 233.202 207.805 229.598 209.223 228.78z" mask="url(#prefix__b)"/>
                <path fill="#007CF7" d="M199.106 224.576L199.106 228.18 207.804 233.202 207.804 229.598 206.387 228.78z" mask="url(#prefix__b)"/>
                <path fill="#092E6E" d="M432.294 96.418v1.944h-2.196v5.367h-2.377V91.664h2.377v4.754h2.196zm-10.623 2.683c1.225 0 2.179-.811 2.179-2.162 0-1.349-.954-2.16-2.18-2.16-1.241 0-2.178.811-2.178 2.16 0 1.351.937 2.162 2.179 2.162zm.108 6.967h8.912v1.891H419.4v-5.474h2.378v3.583zm-.108-4.916c-2.538 0-4.501-1.781-4.501-4.213 0-2.448 1.963-4.212 4.5-4.212 2.52 0 4.484 1.764 4.484 4.212 0 2.432-1.963 4.213-4.483 4.213zM445.09 95.95v-4.286h2.378v12.1h-2.377v-5.888h-2.593V95.95h2.593zm2.756 10.118v1.891h-11.308v-5.203h2.377v3.312h8.93zm-5.401-4.447c-1.82-.594-3.062-1.782-3.764-3.277-.738 1.638-2.034 2.953-3.98 3.601l-1.187-1.89c2.719-.883 3.907-3.06 3.907-5.15v-.233h-3.26v-1.89h8.913v1.89h-3.222v.215c0 1.962 1.134 3.998 3.745 4.88l-1.152 1.854zM466.582 103.656h2.395V91.664h-2.395v11.992zm2.81 2.412v1.891h-11.453v-5.383h2.377v3.492h9.076zm-5.06-4.464c-1.837-.577-3.098-1.765-3.853-3.242-.739 1.62-2.071 2.9-3.998 3.529l-1.206-1.854c2.754-.865 3.961-3.043 3.961-5.113v-.199h-3.331v-1.872h9.021v1.872h-3.278v.199c0 1.943 1.207 3.978 3.89 4.861l-1.206 1.819zM487.013 96.184v1.945h-2.196v5.528h-2.377V91.664h2.377v4.52h2.196zm-10.515 9.885h8.912v1.89h-11.29v-5.563h2.378v3.673zm4.879-5.654c-2.034.45-3.925.54-7.597.54h-1.387v-7.976h7.418v1.89h-5.06v4.178c2.953-.018 4.592-.127 6.393-.504l.233 1.872zM432.258 118.306v1.963h-1.98v5.4h-2.376v-12.423h2.376v5.06h1.98zm-10.658 9.362h9.2v1.89h-11.577v-4.985h2.377v3.095zm1.98-7.561c.27-1.548.342-2.755.36-3.745h-6.176v-1.891h8.516v1.026c0 1.153 0 2.79-.377 4.88l-2.323-.27zm3.565 2.629c-3.421.63-7.274.702-10.12.719l-.215-1.89c.918 0 1.944 0 3.025-.018v-3.222h2.322v3.132c1.639-.072 3.295-.198 4.844-.414l.144 1.693zM445.019 129.883h2.377v-16.637h-2.377v16.637zm-8.103-5.816c2.521-.018 4.609-.143 6.95-.54l.252 1.927c-2.7.468-5.131.576-8.138.576h-1.495v-6.824h5.384v-2.647h-5.401v-1.89h7.832v6.409h-5.384v2.989zM469.121 113.246v16.637h-2.377v-9.525h-3.186v-1.909h3.186v-5.203h2.377zm-7.688 3.691c0 3.133 1.206 6.176 3.943 7.401l-1.404 1.89c-1.819-.882-3.026-2.503-3.709-4.502-.72 2.125-1.963 3.854-3.818 4.79l-1.476-1.909c2.808-1.296 4.07-4.519 4.07-7.67v-2.394h2.394v2.394zM474.733 124.086h3.259v-3.674h-3.259v3.674zm10.948-10.84v16.637h-2.377v-8.895h-2.971v4.989h-7.958v-11.416h2.358v3.998h3.259v-3.998h2.341v4.519h2.971v-5.834h2.377z" mask="url(#prefix__b)"/>
                <path fill="#E6E8EB" d="M429.83 41.288L429.83 72.628 467.662 72.628 467.662 40.997z" mask="url(#prefix__b)"/>
                <path fill="#000" d="M430.112 72.346h37.268V41.282l-37.268.287v30.777zm37.832.564h-38.396V41.008l38.396-.295V72.91z" mask="url(#prefix__b)"/>
                <path fill="#FFF" d="M468.763 41.518h-40.176c-1.534 0-2.79-1.255-2.79-2.79v-6.154c0-1.535 1.256-2.79 2.79-2.79h40.176c1.534 0 2.789 1.255 2.789 2.79v6.155c0 1.534-1.255 2.789-2.79 2.789" mask="url(#prefix__b)"/>
                <path fill="#000" d="M468.763 29.783h-40.176c-1.534 0-2.79 1.256-2.79 2.79v6.155c0 1.534 1.256 2.79 2.79 2.79h40.176c1.534 0 2.79-1.256 2.79-2.79v-6.155c0-1.534-1.256-2.79-2.79-2.79m0 .564c1.228 0 2.225.998 2.225 2.226v6.155c0 1.227-.997 2.225-2.225 2.225h-40.176c-1.226 0-2.224-.998-2.224-2.225v-6.155c0-1.228.998-2.226 2.224-2.226h40.176" mask="url(#prefix__b)"/>
                <path fill="#FFF" d="M468.763 55.773h-40.176c-1.534 0-2.79-1.256-2.79-2.79V46.83c0-1.535 1.256-2.79 2.79-2.79h40.176c1.534 0 2.789 1.255 2.789 2.79v6.154c0 1.535-1.255 2.79-2.79 2.79" mask="url(#prefix__b)"/>
                <path fill="#000" d="M468.763 44.04h-40.176c-1.534 0-2.79 1.254-2.79 2.788v6.154c0 1.536 1.256 2.79 2.79 2.79h40.176c1.534 0 2.79-1.254 2.79-2.79v-6.154c0-1.534-1.256-2.789-2.79-2.789m0 .564c1.228 0 2.225.998 2.225 2.225v6.154c0 1.228-.997 2.226-2.225 2.226h-40.176c-1.226 0-2.224-.998-2.224-2.226v-6.154c0-1.227.998-2.225 2.224-2.225h40.176" mask="url(#prefix__b)"/>
                <path fill="#FFF" d="M468.763 69.947h-40.176c-1.534 0-2.79-1.255-2.79-2.789v-6.155c0-1.535 1.256-2.789 2.79-2.789h40.176c1.534 0 2.789 1.254 2.789 2.79v6.154c0 1.534-1.255 2.79-2.79 2.79" mask="url(#prefix__b)"/>
                <path fill="#000" d="M468.763 58.214h-40.176c-1.534 0-2.79 1.255-2.79 2.789v6.155c0 1.535 1.256 2.789 2.79 2.789h40.176c1.534 0 2.79-1.254 2.79-2.79v-6.154c0-1.534-1.256-2.79-2.79-2.79m0 .565c1.228 0 2.225.998 2.225 2.225v6.155c0 1.227-.997 2.225-2.225 2.225h-40.176c-1.226 0-2.224-.998-2.224-2.225v-6.155c0-1.227.998-2.225 2.224-2.225h40.176" mask="url(#prefix__b)"/>
                <path fill="#0A51B7" d="M456.167 35.65c0 1.043-.845 1.888-1.888 1.888-1.042 0-1.886-.845-1.886-1.888 0-1.042.844-1.887 1.886-1.887 1.043 0 1.888.845 1.888 1.887" mask="url(#prefix__b)"/>
                <path fill="#000" d="M454.28 33.764c-1.043 0-1.888.845-1.888 1.887 0 1.043.845 1.887 1.887 1.887 1.043 0 1.888-.844 1.888-1.887 0-1.042-.845-1.887-1.888-1.887m0 .564c.73 0 1.323.594 1.323 1.323 0 .73-.594 1.323-1.323 1.323s-1.322-.593-1.322-1.323.593-1.323 1.322-1.323" mask="url(#prefix__b)"/>
                <path fill="#0A51B7" d="M461.988 35.65c0 1.043-.845 1.888-1.888 1.888-1.042 0-1.886-.845-1.886-1.888 0-1.042.844-1.887 1.886-1.887 1.043 0 1.888.845 1.888 1.887" mask="url(#prefix__b)"/>
                <path fill="#000" d="M460.102 33.764c-1.043 0-1.888.845-1.888 1.887 0 1.043.845 1.887 1.888 1.887 1.042 0 1.887-.844 1.887-1.887 0-1.042-.845-1.887-1.887-1.887m0 .564c.729 0 1.322.594 1.322 1.323 0 .73-.593 1.323-1.322 1.323-.73 0-1.323-.593-1.323-1.323s.593-1.323 1.323-1.323" mask="url(#prefix__b)"/>
                <path fill="#0A51B7" d="M467.81 35.65c0 1.043-.845 1.888-1.887 1.888-1.043 0-1.887-.845-1.887-1.888 0-1.042.844-1.887 1.887-1.887 1.042 0 1.887.845 1.887 1.887" mask="url(#prefix__b)"/>
                <path fill="#000" d="M465.922 33.764c-1.042 0-1.887.845-1.887 1.887 0 1.043.845 1.887 1.887 1.887 1.043 0 1.888-.844 1.888-1.887 0-1.042-.845-1.887-1.888-1.887m0 .564c.73 0 1.323.594 1.323 1.323 0 .73-.593 1.323-1.323 1.323s-1.322-.593-1.322-1.323.593-1.323 1.322-1.323" mask="url(#prefix__b)"/>
                <path fill="#0A51B7" d="M456.167 49.905c0 1.043-.845 1.888-1.888 1.888-1.042 0-1.886-.845-1.886-1.888 0-1.042.844-1.887 1.886-1.887 1.043 0 1.888.845 1.888 1.887" mask="url(#prefix__b)"/>
                <path fill="#000" d="M454.28 48.018c-1.043 0-1.888.846-1.888 1.889 0 1.04.845 1.886 1.887 1.886 1.043 0 1.888-.845 1.888-1.886 0-1.043-.845-1.89-1.888-1.89m0 .565c.73 0 1.323.594 1.323 1.325 0 .728-.594 1.322-1.323 1.322s-1.322-.594-1.322-1.322c0-.731.593-1.325 1.322-1.325" mask="url(#prefix__b)"/>
                <path fill="#0A51B7" d="M461.988 49.905c0 1.043-.845 1.888-1.888 1.888-1.042 0-1.886-.845-1.886-1.888 0-1.042.844-1.887 1.886-1.887 1.043 0 1.888.845 1.888 1.887" mask="url(#prefix__b)"/>
                <path fill="#000" d="M460.102 48.018c-1.043 0-1.888.846-1.888 1.889 0 1.04.845 1.886 1.888 1.886 1.042 0 1.887-.845 1.887-1.886 0-1.043-.845-1.89-1.887-1.89m0 .565c.729 0 1.322.594 1.322 1.325 0 .728-.593 1.322-1.322 1.322-.73 0-1.323-.594-1.323-1.322 0-.731.593-1.325 1.323-1.325" mask="url(#prefix__b)"/>
                <path fill="#0A51B7" d="M467.81 49.905c0 1.043-.845 1.888-1.887 1.888-1.043 0-1.887-.845-1.887-1.888 0-1.042.844-1.887 1.887-1.887 1.042 0 1.887.845 1.887 1.887" mask="url(#prefix__b)"/>
                <path fill="#000" d="M465.922 48.018c-1.042 0-1.887.846-1.887 1.889 0 1.04.845 1.886 1.887 1.886 1.043 0 1.888-.845 1.888-1.886 0-1.043-.845-1.89-1.888-1.89m0 .565c.73 0 1.323.594 1.323 1.325 0 .728-.593 1.322-1.323 1.322s-1.322-.594-1.322-1.322c0-.731.593-1.325 1.322-1.325" mask="url(#prefix__b)"/>
                <path fill="#0A51B7" d="M456.167 64.081c0 1.042-.845 1.887-1.888 1.887-1.042 0-1.886-.845-1.886-1.887 0-1.043.844-1.888 1.886-1.888 1.043 0 1.888.845 1.888 1.888" mask="url(#prefix__b)"/>
                <path fill="#000" d="M454.28 62.193c-1.043 0-1.888.845-1.888 1.887 0 1.043.845 1.887 1.887 1.887 1.043 0 1.888-.844 1.888-1.887 0-1.042-.845-1.887-1.888-1.887m0 .564c.73 0 1.323.594 1.323 1.323 0 .73-.594 1.323-1.323 1.323s-1.322-.593-1.322-1.323c0-.729.593-1.323 1.322-1.323" mask="url(#prefix__b)"/>
                <path fill="#0A51B7" d="M461.988 64.081c0 1.042-.845 1.887-1.888 1.887-1.042 0-1.886-.845-1.886-1.887 0-1.043.844-1.888 1.886-1.888 1.043 0 1.888.845 1.888 1.888" mask="url(#prefix__b)"/>
                <path fill="#000" d="M460.102 62.193c-1.043 0-1.888.845-1.888 1.887 0 1.043.845 1.887 1.888 1.887 1.042 0 1.887-.844 1.887-1.887 0-1.042-.845-1.887-1.887-1.887m0 .564c.729 0 1.322.594 1.322 1.323 0 .73-.593 1.323-1.322 1.323-.73 0-1.323-.593-1.323-1.323 0-.729.593-1.323 1.323-1.323" mask="url(#prefix__b)"/>
                <path fill="#0A51B7" d="M467.81 64.081c0 1.042-.845 1.887-1.887 1.887-1.043 0-1.887-.845-1.887-1.887 0-1.043.844-1.888 1.887-1.888 1.042 0 1.887.845 1.887 1.888" mask="url(#prefix__b)"/>
                <path fill="#000" d="M465.922 62.193c-1.042 0-1.887.845-1.887 1.887 0 1.043.845 1.887 1.887 1.887 1.043 0 1.888-.844 1.888-1.887 0-1.042-.845-1.887-1.888-1.887m0 .564c.73 0 1.323.594 1.323 1.323 0 .73-.593 1.323-1.323 1.323s-1.322-.593-1.322-1.323c0-.729.593-1.323 1.322-1.323" mask="url(#prefix__b)"/>
                <path fill="#FFF" d="M430.633 32.553L430.633 38.749" mask="url(#prefix__b)"/>
                <path fill="#000" d="M430.351 38.749L430.915 38.749 430.915 32.553 430.351 32.553z" mask="url(#prefix__b)"/>
                <path fill="#FFF" d="M433.834 32.553L433.834 38.749" mask="url(#prefix__b)"/>
                <path fill="#000" d="M433.552 38.749L434.116 38.749 434.116 32.553 433.552 32.553z" mask="url(#prefix__b)"/>
                <path fill="#FFF" d="M437.035 32.553L437.035 38.749" mask="url(#prefix__b)"/>
                <path fill="#000" d="M436.753 38.749L437.317 38.749 437.317 32.553 436.753 32.553z" mask="url(#prefix__b)"/>
                <path fill="#FFF" d="M440.236 32.553L440.236 38.749" mask="url(#prefix__b)"/>
                <path fill="#000" d="M439.955 38.749L440.519 38.749 440.519 32.553 439.955 32.553z" mask="url(#prefix__b)"/>
                <path fill="#FFF" d="M443.438 32.553L443.438 38.749" mask="url(#prefix__b)"/>
                <path fill="#000" d="M443.156 38.749L443.72 38.749 443.72 32.553 443.156 32.553z" mask="url(#prefix__b)"/>
                <path fill="#FFF" d="M446.639 32.553L446.639 38.749" mask="url(#prefix__b)"/>
                <path fill="#000" d="M446.357 38.749L446.921 38.749 446.921 32.553 446.357 32.553z" mask="url(#prefix__b)"/>
                <path fill="#FFF" d="M432.233 32.553L432.233 38.749" mask="url(#prefix__b)"/>
                <path fill="#000" d="M431.952 38.749L432.516 38.749 432.516 32.553 431.952 32.553z" mask="url(#prefix__b)"/>
                <path fill="#FFF" d="M435.435 32.553L435.435 38.749" mask="url(#prefix__b)"/>
                <path fill="#000" d="M435.153 38.749L435.717 38.749 435.717 32.553 435.153 32.553z" mask="url(#prefix__b)"/>
                <path fill="#FFF" d="M438.636 32.553L438.636 38.749" mask="url(#prefix__b)"/>
                <path fill="#000" d="M438.354 38.749L438.918 38.749 438.918 32.553 438.354 32.553z" mask="url(#prefix__b)"/>
                <path fill="#FFF" d="M441.837 32.553L441.837 38.749" mask="url(#prefix__b)"/>
                <path fill="#000" d="M441.555 38.749L442.119 38.749 442.119 32.553 441.555 32.553z" mask="url(#prefix__b)"/>
                <path fill="#FFF" d="M445.038 32.553L445.038 38.749" mask="url(#prefix__b)"/>
                <path fill="#000" d="M444.756 38.749L445.32 38.749 445.32 32.553 444.756 32.553z" mask="url(#prefix__b)"/>
                <path fill="#FFF" d="M430.633 46.808L430.633 53.004" mask="url(#prefix__b)"/>
                <path fill="#000" d="M430.351 53.004L430.915 53.004 430.915 46.808 430.351 46.808z" mask="url(#prefix__b)"/>
                <path fill="#FFF" d="M433.834 46.808L433.834 53.004" mask="url(#prefix__b)"/>
                <path fill="#000" d="M433.552 53.004L434.116 53.004 434.116 46.808 433.552 46.808z" mask="url(#prefix__b)"/>
                <path fill="#FFF" d="M437.035 46.808L437.035 53.004" mask="url(#prefix__b)"/>
                <path fill="#000" d="M436.753 53.004L437.317 53.004 437.317 46.808 436.753 46.808z" mask="url(#prefix__b)"/>
                <path fill="#FFF" d="M440.236 46.808L440.236 53.004" mask="url(#prefix__b)"/>
                <path fill="#000" d="M439.955 53.004L440.519 53.004 440.519 46.808 439.955 46.808z" mask="url(#prefix__b)"/>
                <path fill="#FFF" d="M443.438 46.808L443.438 53.004" mask="url(#prefix__b)"/>
                <path fill="#000" d="M443.156 53.004L443.72 53.004 443.72 46.808 443.156 46.808z" mask="url(#prefix__b)"/>
                <path fill="#FFF" d="M446.639 46.808L446.639 53.004" mask="url(#prefix__b)"/>
                <path fill="#000" d="M446.357 53.004L446.921 53.004 446.921 46.808 446.357 46.808z" mask="url(#prefix__b)"/>
                <path fill="#FFF" d="M432.233 46.808L432.233 53.004" mask="url(#prefix__b)"/>
                <path fill="#000" d="M431.952 53.004L432.516 53.004 432.516 46.808 431.952 46.808z" mask="url(#prefix__b)"/>
                <path fill="#FFF" d="M435.435 46.808L435.435 53.004" mask="url(#prefix__b)"/>
                <path fill="#000" d="M435.153 53.004L435.717 53.004 435.717 46.808 435.153 46.808z" mask="url(#prefix__b)"/>
                <path fill="#FFF" d="M438.636 46.808L438.636 53.004" mask="url(#prefix__b)"/>
                <path fill="#000" d="M438.354 53.004L438.918 53.004 438.918 46.808 438.354 46.808z" mask="url(#prefix__b)"/>
                <path fill="#FFF" d="M441.837 46.808L441.837 53.004" mask="url(#prefix__b)"/>
                <path fill="#000" d="M441.555 53.004L442.119 53.004 442.119 46.808 441.555 46.808z" mask="url(#prefix__b)"/>
                <path fill="#FFF" d="M445.038 46.808L445.038 53.004" mask="url(#prefix__b)"/>
                <path fill="#000" d="M444.756 53.004L445.32 53.004 445.32 46.808 444.756 46.808z" mask="url(#prefix__b)"/>
                <path fill="#FFF" d="M430.633 61.063L430.633 67.258" mask="url(#prefix__b)"/>
                <path fill="#000" d="M430.351 67.259L430.915 67.259 430.915 61.063 430.351 61.063z" mask="url(#prefix__b)"/>
                <path fill="#FFF" d="M433.834 61.063L433.834 67.258" mask="url(#prefix__b)"/>
                <path fill="#000" d="M433.552 67.259L434.116 67.259 434.116 61.063 433.552 61.063z" mask="url(#prefix__b)"/>
                <path fill="#FFF" d="M437.035 61.063L437.035 67.258" mask="url(#prefix__b)"/>
                <path fill="#000" d="M436.753 67.259L437.317 67.259 437.317 61.063 436.753 61.063z" mask="url(#prefix__b)"/>
                <path fill="#FFF" d="M440.236 61.063L440.236 67.258" mask="url(#prefix__b)"/>
                <path fill="#000" d="M439.955 67.259L440.519 67.259 440.519 61.063 439.955 61.063z" mask="url(#prefix__b)"/>
                <path fill="#FFF" d="M443.438 61.063L443.438 67.258" mask="url(#prefix__b)"/>
                <path fill="#000" d="M443.156 67.259L443.72 67.259 443.72 61.063 443.156 61.063z" mask="url(#prefix__b)"/>
                <path fill="#FFF" d="M446.639 61.063L446.639 67.258" mask="url(#prefix__b)"/>
                <path fill="#000" d="M446.357 67.259L446.921 67.259 446.921 61.063 446.357 61.063z" mask="url(#prefix__b)"/>
                <path fill="#FFF" d="M432.233 61.063L432.233 67.258" mask="url(#prefix__b)"/>
                <path fill="#000" d="M431.952 67.259L432.516 67.259 432.516 61.063 431.952 61.063z" mask="url(#prefix__b)"/>
                <path fill="#FFF" d="M435.435 61.063L435.435 67.258" mask="url(#prefix__b)"/>
                <path fill="#000" d="M435.153 67.259L435.717 67.259 435.717 61.063 435.153 61.063z" mask="url(#prefix__b)"/>
                <path fill="#FFF" d="M438.636 61.063L438.636 67.258" mask="url(#prefix__b)"/>
                <path fill="#000" d="M438.354 67.259L438.918 67.259 438.918 61.063 438.354 61.063z" mask="url(#prefix__b)"/>
                <path fill="#FFF" d="M441.837 61.063L441.837 67.258" mask="url(#prefix__b)"/>
                <path fill="#000" d="M441.555 67.259L442.119 67.259 442.119 61.063 441.555 61.063z" mask="url(#prefix__b)"/>
                <path fill="#FFF" d="M445.038 61.063L445.038 67.258" mask="url(#prefix__b)"/>
                <path fill="#000" d="M444.756 67.259L445.32 67.259 445.32 61.063 444.756 61.063z" mask="url(#prefix__b)"/>
                <path fill="#E6E8EB" d="M463.47 61.197s.189-1.193 1.879-2.007c1.689-.813 5.93-1.964 11.108-1.249 5.18.715 6.54 2 6.54 2l.623 1.377-.001 15.146s-.684 1.815-4.158 2.566c-3.472.751-10.388 1.001-13.706-.532 0 0-2.096-.876-2.284-2.19v-15.11z" mask="url(#prefix__b)"/>
                <path fill="#000" d="M463.753 76.293c.143.334 1.614 3.209 9.787 3.209 8.157 0 9.648-2.865 9.797-3.21V61.105c-.105-.295-1.354-3.106-10.095-3.106-9.134 0-9.487 3.121-9.49 3.153v15.141zm9.787 3.773c-9.117 0-10.294-3.49-10.34-3.638l-.011-.083V61.134c.007-.165.297-3.699 10.053-3.699 9.712 0 10.619 3.418 10.654 3.564l.006.064-.013 15.366c-.046.148-1.233 3.637-10.35 3.637z" mask="url(#prefix__b)"/>
                <path fill="#000" d="M473.33 70.006c-8.862 0-10.078-3.263-10.127-3.403l.535-.182-.267.09.266-.093c.011.03 1.204 3.024 9.595 3.024l.341-.002c8.678-.083 9.667-2.978 9.677-3.007l.542.154c-.038.136-1.028 3.329-10.213 3.417l-.35.002M473.326 74.963c-8.857 0-10.074-3.262-10.123-3.402l.534-.185c.011.03 1.263 3.115 9.936 3.02 8.678-.082 9.667-2.976 9.676-3.005l.543.154c-.038.136-1.028 3.328-10.213 3.416l-.353.002M473.326 65.048c-8.857 0-10.074-3.263-10.123-3.403l.534-.185c.011.03 1.204 3.024 9.591 3.024l.345-.002c8.678-.083 9.667-2.978 9.676-3.007l.543.154c-.038.136-1.028 3.329-10.213 3.417l-.353.002" mask="url(#prefix__b)"/>
                <path fill="#FFF" d="M113.089 229.599c0 31.125-25.231 56.357-56.356 56.357-31.126 0-56.358-25.232-56.358-56.357s25.232-56.356 56.358-56.356c31.125 0 56.356 25.23 56.356 56.356" mask="url(#prefix__b)"/>
                <path fill="#C5C8CF" d="M56.732 173.617C25.863 173.617.75 198.73.75 229.598c0 30.87 25.113 55.983 55.982 55.983 30.868 0 55.981-25.113 55.981-55.983 0-30.868-25.113-55.98-55.98-55.98m0 112.713C25.45 286.331 0 260.881 0 229.598c0-31.282 25.45-56.73 56.732-56.73s56.731 25.448 56.731 56.73c0 31.283-25.449 56.733-56.73 56.733" mask="url(#prefix__b)"/>
                <path fill="#231916" d="M81.065 227.714l-.027-.484c.164-.01.33-.014.498-.014v.484c-.159 0-.317.005-.47.014M57.246 227.713c-.166-.01-.328-.017-.514-.013-.15 0-.298.003-.442.009l-.02-.484c.165-.007.331-.007.508-.01.168 0 .332.006.493.014l-.025.484zm-2.835.27l-.127-.466c.308-.085.641-.153.988-.203l.07.48c-.328.047-.64.11-.93.19zm4.697.057c-.29-.093-.599-.168-.917-.223l.082-.477c.34.059.671.139.984.239l-.149.46zm20.094.013l-.146-.461c.317-.101.646-.183.98-.243l.086.476c-.313.057-.622.134-.92.228zm-44.924.079c-.295-.112-.598-.203-.904-.272l.105-.472c.33.073.655.17.971.29l-.172.454zm18.417.608l-.265-.406c.28-.183.582-.345.897-.482l.193.443c-.29.128-.568.277-.825.445zm24.8.119l-.267-.406c.284-.184.581-.35.885-.493l.207.438c-.284.133-.562.289-.826.46zm-16.72.034c-.255-.188-.523-.354-.799-.494l.221-.432c.3.153.59.333.864.535l-.287.39zm-24.827.132c-.264-.184-.535-.352-.809-.5l.23-.426c.29.156.58.335.856.53l-.277.396zm15.375.987l-.383-.297c.213-.273.444-.526.687-.752l.33.355c-.225.208-.438.442-.634.694zm24.77.097l-.375-.307c.21-.256.447-.503.706-.733l.322.364c-.24.212-.46.439-.653.676zm-13.944.094c-.23-.27-.445-.497-.653-.697l.336-.35c.22.21.443.45.685.73l-.368.317zm-24.767.078c-.22-.235-.452-.46-.687-.665l.32-.365c.247.217.49.452.72.698l-.353.332zm12.877 1.365l-.39-.286c.16-.221.313-.458.45-.704l.056-.098.424.236-.062.107c-.142.254-.304.508-.478.745zm24.712.07l-.37-.311c.2-.24.375-.493.524-.751l.435.21-.008.019c-.169.295-.362.57-.58.833zm-11.579 0c-.213-.246-.42-.503-.628-.763l.378-.302c.205.255.408.506.618.75l-.368.316zm-24.715.044c-.233-.236-.457-.488-.668-.75l.377-.304c.2.248.415.488.636.714l-.345.34zm1.543 1.282c-.273-.181-.544-.383-.807-.6l.311-.374c.248.207.505.399.763.57l-.267.404zm33.241.017l-.268-.405c.267-.175.52-.37.751-.574l.321.363c-.248.22-.519.427-.804.616zm-24.647.01l-.279-.393c.255-.182.497-.385.718-.604l.342.344c-.24.238-.503.458-.78.654zm16.04.029c-.262-.19-.515-.403-.774-.652l.336-.35c.242.234.478.433.722.609l-.284.393zm6.788.838l-.152-.461c.3-.1.596-.218.88-.355l.21.438c-.303.145-.618.272-.938.378zm-29.619.007c-.317-.11-.63-.243-.93-.395l.217-.432c.282.143.575.267.872.368l-.159.459zm4.97.015l-.145-.463c.306-.095.602-.212.877-.345l.211.436c-.296.145-.615.27-.944.372zM66.67 234c-.332-.102-.65-.228-.945-.376l.216-.433c.271.135.565.25.871.346l-.142.463zm-21.657.313l-.032-.485c.328-.02.647-.057.947-.11l.084.477c-.318.056-.655.095-.999.118zm24.651.004l-.03-.485c.316-.02.633-.06.94-.12l.091.477c-.327.062-.663.105-1 .128zm-1.006.006c-.349-.015-.686-.048-1-.098l.073-.48c.298.048.618.079.95.094l-.023.484zm-24.65.003c-.334-.015-.673-.056-1.007-.12l.092-.476c.311.06.627.097.937.112l-.023.484zM32.395 227.717c-.153-.011-.31-.017-.469-.017v-.484c.17 0 .338.006.503.017l-.034.484z" mask="url(#prefix__b)"/>
                <path fill="#0A51B7" d="M81.536 234.333c-2.698 0-5.215-1.35-6.41-3.438-.91-1.587-3.26-3.195-5.992-3.195-2.286 0-4.309 1.085-6.012 3.225-1.483 1.865-2.988 3.408-6.39 3.408-3.015 0-5.113-1.125-6.413-3.44-.89-1.589-3.089-3.193-5.99-3.193-2.998 0-5.054 2.021-6.012 3.225-1.483 1.865-2.988 3.408-6.39 3.408v-.484c3.192 0 4.557-1.398 6.011-3.225 1.013-1.273 3.19-3.408 6.391-3.408 3.31 0 5.522 1.853 6.412 3.44 1.207 2.148 3.166 3.193 5.99 3.193 3.193 0 4.558-1.398 6.012-3.225 1.8-2.262 3.95-3.408 6.391-3.408 2.917 0 5.433 1.729 6.411 3.438 1.111 1.941 3.464 3.195 5.991 3.195v.484z" mask="url(#prefix__b)"/>
            </g>
            <g transform="translate(24 29) translate(45 217.313)">
                <mask id="prefix__d" fill="#fff">
                    <use xlink:href="#prefix__c"/>
                </mask>
                <path fill="#FFF" d="M-1.977 29.322L25.44 29.322 25.44 -1.587 -1.977 -1.587z" mask="url(#prefix__d)"/>
            </g>
            <g transform="translate(24 29) translate(45 224.313)">
                <mask id="prefix__f" fill="#fff">
                    <use xlink:href="#prefix__e"/>
                </mask>
                <path fill="#0A51B7" d="M-1.758 22.126L14.154 22.126 14.154 -1.944 -1.758 -1.944z" mask="url(#prefix__f)"/>
            </g>
            <g transform="translate(24 29) translate(45 217.313)">
                <mask id="prefix__h" fill="#fff">
                    <use xlink:href="#prefix__g"/>
                </mask>
                <path fill="#000" d="M-1.977 29.322L25.44 29.322 25.44 -1.587 -1.977 -1.587z" mask="url(#prefix__h)"/>
            </g>
            <g transform="translate(24 29) translate(33 .313)">
                <mask id="prefix__j" fill="#fff">
                    <use xlink:href="#prefix__i"/>
                </mask>
                <path fill="#000" d="M23.538 243.703L23.925 243.703 23.925 230.868 23.538 230.868z" mask="url(#prefix__j)"/>
                <path fill="#000" d="M23.635 231.036L12.569 224.646 12.762 224.31 23.828 230.7z" mask="url(#prefix__j)"/>
                <path fill="#000" d="M23.828 231.036L23.635 230.7 34.671 224.329 34.864 224.665zM47.212 211.958L46.433 211.958 46.433 208.635 43.11 208.635 43.11 207.855 47.212 207.855zM1.032 211.958L.253 211.958.253 207.855 4.355 207.855 4.355 208.635 1.032 208.635zM4.356 253.692L.253 253.692.253 249.59 1.032 249.59 1.032 252.913 4.356 252.913zM47.212 253.692L43.11 253.692 43.11 252.913 46.433 252.913 46.433 249.59 47.212 249.59zM595.553 134.736l-.348-1.187c-.3-.96-.564-1.944-.84-2.94h-.048c-.252 1.008-.528 1.98-.815 2.94l-.36 1.187h2.41zm.336 1.091h-3.07l-.756 2.518h-1.416l2.927-8.827h1.606l2.928 8.827h-1.477l-.742-2.518zM600.666 133.668h1.33c1.283 0 1.981-.527 1.981-1.595 0-1.067-.698-1.439-1.981-1.439h-1.33v3.034zm3.43 4.678l-2.004-3.563h-1.426v3.563h-1.393v-8.827h2.891c1.824 0 3.191.647 3.191 2.554 0 1.367-.732 2.183-1.847 2.531l2.158 3.742h-1.57zM619.273 131.653v1.02h-1.535v3.706h-1.235v-7.94h1.235v3.214h1.535zm-7.148 6.404h6.044v1.008h-7.29v-3.502h1.246v2.494zm.168-4.546c.947 0 1.68-.646 1.68-1.642 0-.984-.733-1.63-1.68-1.63-.948 0-1.666.646-1.666 1.63 0 .996.718 1.642 1.666 1.642zm0 1.07c-1.63 0-2.879-1.129-2.879-2.712 0-1.583 1.248-2.698 2.88-2.698 1.641 0 2.89 1.115 2.89 2.698s-1.249 2.711-2.89 2.711zM628.059 131.342v-2.891h1.236v7.916h-1.236v-4.005h-1.967v-1.02h1.967zm1.512 6.716v1.008h-7.293v-3.382h1.236v2.374h6.057zm-3.418-3.226c-1.2-.408-2.076-1.26-2.531-2.327-.481 1.175-1.391 2.123-2.674 2.566l-.637-.971c1.68-.588 2.664-2.015 2.664-3.478v-.372h-2.291v-.995h5.793v.995h-2.256v.372c0 1.33.924 2.687 2.543 3.25l-.611.96zM642.412 136.331h1.234v-7.88h-1.234v7.88zm1.547 1.727v1.007h-7.389v-3.454h1.248v2.447h6.141zm-3.18-3.179c-1.246-.407-2.158-1.246-2.636-2.315-.481 1.153-1.393 2.076-2.688 2.507l-.648-.96c1.716-.575 2.687-1.978 2.687-3.441v-.397h-2.351v-.994h5.925v.994h-2.314v.397c0 1.379.982 2.699 2.65 3.238l-.625.971zM655.754 131.533v1.02h-1.535v3.718h-1.235v-7.843h1.235v3.105h1.535zm-7.148 6.524h6.044v1.008h-7.291v-3.586h1.247v2.578zm3.478-4.004c-1.402.298-2.674.371-5.002.371h-.875v-5.098h4.822v1.008h-3.586v3.07c2.05-.012 3.213-.072 4.522-.348l.119.997zM667.828 139.293h1.246v-10.865h-1.246v10.865zm-3.67-8.18c0 1.991 1.104 3.983 2.807 4.75l-.721.984c-1.246-.588-2.195-1.787-2.685-3.251-.493 1.572-1.452 2.855-2.76 3.49l-.731-1.031c1.727-.78 2.854-2.854 2.854-4.942v-1.774h1.236v1.774zM681.195 132.11h-1.535v2.65h-1.236v-6.333h1.236v2.662h1.535v1.02zm-8.66 3.13h7.125v4.041h-1.236v-3.047h-5.889v-.995zm4.14-6.153c0 2.805-1.86 4.76-5.052 5.612l-.504-.97c2.543-.649 4.031-1.992 4.246-3.647h-3.73v-.995h5.04zM692.258 133.98h-1.547v5.29h-1.234v-10.843h1.234v4.534h1.547v1.02zm-6.715.337c.852 0 1.426-.409 1.426-1.069 0-.671-.574-1.08-1.426-1.08-.851 0-1.44.409-1.44 1.08 0 .66.589 1.069 1.44 1.069zm3.2-3.636h-6.438v-.995h2.613v-1.224h1.236v1.225h2.59v.994zm-2.59 5.541c.925-.048 1.847-.107 2.712-.24l.096.912c-2.314.409-4.822.433-6.682.433l-.167-1.02c.828 0 1.798 0 2.806-.035v-1.058c-1.2-.202-1.978-.934-1.978-1.965 0-1.224 1.054-2.028 2.603-2.028 1.535 0 2.59.804 2.59 2.028 0 1.03-.78 1.775-1.98 1.965v1.008zM603.06 153.253v1.02h-1.534v3.706h-1.236v-7.94h1.236v3.214h1.535zm-7.147 6.404h6.043v1.008h-7.29v-3.502h1.246v2.494zm.168-4.545c.947 0 1.678-.648 1.678-1.643 0-.984-.731-1.631-1.678-1.631-.948 0-1.667.647-1.667 1.63 0 .996.719 1.644 1.667 1.644zm0 1.068c-1.632 0-2.88-1.128-2.88-2.711s1.248-2.698 2.88-2.698c1.641 0 2.89 1.115 2.89 2.698s-1.249 2.71-2.89 2.71zM611.846 152.941v-2.89h1.236v7.915h-1.236v-4.005h-1.967v-1.02h1.967zm1.512 6.716v1.008h-7.293v-3.382h1.236v2.374h6.057zm-3.418-3.226c-1.2-.408-2.076-1.26-2.531-2.327-.481 1.176-1.391 2.123-2.674 2.566l-.637-.97c1.68-.588 2.664-2.016 2.664-3.479v-.372h-2.291v-.995h5.793v.995h-2.256v.372c0 1.331.924 2.687 2.543 3.25l-.611.96zM626.2 157.931h1.234v-7.88H626.2v7.88zm1.546 1.726v1.008h-7.389v-3.454h1.248v2.446h6.141zm-3.18-3.178c-1.246-.408-2.158-1.248-2.636-2.315-.481 1.151-1.393 2.075-2.688 2.507l-.648-.959c1.717-.576 2.687-1.98 2.687-3.442v-.396h-2.351v-.996h5.925v.996h-2.314v.396c0 1.378.982 2.698 2.65 3.238l-.625.971zM639.541 153.133v1.02h-1.535v3.717h-1.235v-7.843h1.235v3.106h1.535zm-7.148 6.524h6.044v1.008h-7.291v-3.586h1.247v2.578zm3.478-4.005c-1.402.299-2.674.372-5.002.372h-.875v-5.098h4.822v1.008h-3.586v3.07c2.051-.012 3.213-.072 4.522-.348l.119.996zM653.223 159.777v.995h-7.328v-2.914h5.793v-.899h-5.82v-.984h7.054v2.807h-5.793v.995h6.094zm-4.043-7.304c-.672 1.656-2.266 2.758-4.652 3.298l-.432-1.008c2.566-.55 3.897-1.738 4.065-3.25h-3.477v-.995h4.844c0 .348-.024.684-.084.995h2.244v-1.474h1.234v5.492h-1.234v-.983h-2.651v-.959h2.65v-1.116h-2.507zM664.982 155.531h-1.596v5.338h-1.248v-10.83h1.248v4.45h1.596v1.042zm-5.529.492c.275-1.679.3-2.938.3-3.849h-4.294v-.997h5.503v.72c0 .948 0 2.316-.298 4.235l-1.21-.109zm-1.21 1.487c1.126-.047 2.264-.108 3.32-.25l.06.91c-2.23.372-4.713.42-6.608.42l-.133-1.02c.661 0 1.391-.012 2.147-.023v-3.263h1.213v3.226zM677.08 155.855h1.234v-5.816h-1.234v5.816zm-4.619 3.886h4.631v-1.223h-4.631v1.223zm0-3.382v1.2h4.631v-1.2h1.222v4.378h-7.076v-4.378h1.223zm-1.654-3.31c0 .912.683 1.499 1.668 1.499.97 0 1.666-.587 1.666-1.499 0-.9-.696-1.499-1.666-1.499-.985 0-1.668.599-1.668 1.499zm4.533 0c0 1.487-1.211 2.518-2.865 2.518-1.657 0-2.879-1.031-2.879-2.518 0-1.487 1.222-2.519 2.879-2.519 1.654 0 2.865 1.032 2.865 2.519zM689.402 150.04v6.667h-1.234v-1.847h-1.944v-.996h1.944v-1.27h-1.944v-.996h1.944v-1.559h1.234zm-7.328 7.207h7.328v3.646h-1.234v-2.639h-6.094v-1.007zm4.113-1.199c-1.306.227-2.41.263-4.533.263h-.79v-3.358h3.452v-1.295h-3.477v-.996h4.702v3.238h-3.467v1.404c1.81 0 2.807-.048 3.982-.252l.131.996z" mask="url(#prefix__j)"/>
                <path fill="#FFF" d="M698.016 57.419c0 31.125-25.232 56.357-56.357 56.357S585.3 88.544 585.3 57.419s25.233-56.357 56.358-56.357c31.125 0 56.357 25.232 56.357 56.357" mask="url(#prefix__j)"/>
                <path fill="#C5C8CF" d="M641.658 1.437c-30.869 0-55.982 25.113-55.982 55.981 0 30.87 25.113 55.983 55.982 55.983 30.87 0 55.982-25.112 55.982-55.982S672.527 1.437 641.658 1.437m0 112.715c-31.282 0-56.732-25.45-56.732-56.733 0-31.282 25.45-56.732 56.732-56.732s56.732 25.45 56.732 56.732-25.45 56.733-56.732 56.733" mask="url(#prefix__j)"/>
                <path fill="#273A5B" d="M647.399 65.216L649.36 65.216 649.36 55.513 647.399 55.513zM647.312 53.722L649.449 53.722 649.449 51.584 647.312 51.584zM672.842 55.812L670.898 62.474 668.719 55.812 666.767 55.812 664.587 62.474 662.651 55.898 662.624 55.812 660.572 55.812 663.579 65.133 663.606 65.216 665.522 65.216 667.697 58.456 669.891 65.216 671.823 65.216 674.857 55.812zM654.15 57.827c.443-.379.981-.57 1.6-.57.752 0 1.358.201 1.801.596.398.355.652.865.726 1.446h-4.98c.163-.627.456-1.134.852-1.472m1.637-2.386c-1.353 0-2.48.483-3.35 1.435-.854.937-1.306 2.198-1.306 3.647 0 1.41.44 2.561 1.344 3.517.895.945 2.047 1.425 3.425 1.425.941 0 1.798-.226 2.544-.673.598-.358 1.167-.902 1.563-1.493l.058-.086-1.407-1.299-.079.117c-.662.998-1.587 1.548-2.605 1.548-.835 0-1.464-.229-1.978-.72-.536-.514-.812-1.119-.858-1.895h7.22l.005-.115c.005-.099.005-.194.005-.194 0-1.634-.429-2.967-1.24-3.853-.826-.904-1.95-1.36-3.34-1.36M639.736 62.335L635.632 51.587 633.466 51.587 638.724 65.139 638.755 65.216 640.714 65.216 646.088 51.752 646.154 51.587 643.987 51.587z" mask="url(#prefix__j)"/>
                <path fill="#6FB6FB" d="M621.569 51.025L617.161 48.48 614.732 49.881 621.554 56.704z" mask="url(#prefix__j)"/>
                <path fill="#007CF7" d="M621.555 60.344L625.859 55.853 625.859 53.502 621.569 51.025z" mask="url(#prefix__j)"/>
                <path fill="#0065C7" d="M612.742 66.019L617.159 68.57 619.591 67.165 612.764 60.346z" mask="url(#prefix__j)"/>
                <path fill="#BFDCFF" d="M608.462 54.13L608.462 53.502 614.733 49.882 618.981 54.13z" mask="url(#prefix__j)"/>
                <path fill="#DEEDFF" d="M608.462 54.13L608.462 61.006 615.339 54.13z" mask="url(#prefix__j)"/>
                <path fill="#007CF7" d="M612.765 56.704L608.461 61.006 608.461 63.547 612.647 65.963 612.761 66.03z" mask="url(#prefix__j)"/>
                <path fill="#6FB6FB" d="M625.858 63.548L619.59 67.166 615.338 62.92 625.858 62.92z" mask="url(#prefix__j)"/>
                <path fill="#007CF7" d="M617.121 55.788c-1.489 0-2.696 1.207-2.696 2.696 0 1.49 1.207 2.696 2.696 2.696 1.488 0 2.695-1.207 2.695-2.696s-1.207-2.696-2.695-2.696" mask="url(#prefix__j)"/>
                <path fill="#FFF" d="M618.48 56.352c-.427 0-.772.346-.772.772 0 .428.346.774.773.774.427 0 .773-.346.773-.774 0-.426-.346-.772-.774-.772" mask="url(#prefix__j)"/>
                <path fill="#BFDCFF" d="M618.981 62.92L621.554 60.344 625.859 55.854 625.859 62.92z" mask="url(#prefix__j)"/>
                <path fill="#000" d="M357.108 274.949h1.175v-8.119h-1.175v8.119zm-2.123-4.484h-1.523v-1.02h1.523v-2.412h1.163v7.606h-1.163v-4.174zm3.598 5.984v1.008h-7.46v-3.467h1.248v2.459h6.212zm-4.833-3.261c-.911-.42-1.56-1.165-1.919-2.077-.395 1.008-1.079 1.883-2.087 2.352l-.683-.936c1.439-.695 2.159-2.146 2.159-3.441v-1.512h1.199v1.512c0 1.269.659 2.541 2.003 3.166l-.672.936zM369.155 266.807v10.865h-1.247v-6.297h-2.315v-1.005h2.315v-3.563h1.247zm-5.073 2.686c0 2.015 1.032 3.982 2.686 4.75l-.73.996c-1.225-.614-2.1-1.8-2.568-3.25-.479 1.535-1.367 2.793-2.602 3.429l-.779-.984c1.69-.826 2.746-2.914 2.746-4.941v-1.788h1.247v1.788zM382.621 277.648h1.187v-10.83h-1.187v10.83zm-2.207-10.589h1.163v10.086h-1.163v-5.254h-2.135v-1.006h2.135v-3.826zm-4.27 7.064c1.343-.014 2.267-.072 3.335-.301l.107 1.02c-1.224.24-2.278.301-3.934.301h-.731v-7.041h4.101v1.007h-2.878v5.014zM393.265 277.684h1.247v-10.865h-1.247v10.865zm-6.117-6.248c0 1.703.66 2.722 1.595 2.722.947 0 1.608-1.019 1.608-2.722 0-1.68-.661-2.7-1.608-2.7-.935 0-1.595 1.02-1.595 2.7zm4.39 0c0 2.351-1.176 3.826-2.795 3.826-1.607 0-2.782-1.475-2.782-3.826 0-2.327 1.175-3.815 2.782-3.815 1.619 0 2.795 1.488 2.795 3.815zM405.636 266.807v10.865h-1.247v-5.865h-2.075v-1.02h2.075v-3.98h1.247zm-7.28 7.328c1.727-.012 2.963-.072 4.378-.312l.108.996c-1.548.275-2.902.324-4.87.324h-.851v-7.377h5.025v1.02h-3.79v2.027h3.346v.982h-3.345v2.34zM453.81 270.26v1.02h-1.438v3.68h-1.249v-8.13h1.249v3.43h1.438zm-7.207 6.189h6.115v1.008h-7.363v-3.215h1.248v2.207zm1.75-5.11c.216-1.163.252-2.015.264-2.686h-4.233v-1.006h5.445v.623c0 .732 0 1.799-.264 3.203l-1.212-.133zm2.195 1.57c-2.255.398-4.808.458-6.692.458l-.132-1.007c.649 0 1.392 0 2.159-.024v-2.22h1.224v2.183c1.126-.047 2.29-.12 3.357-.287l.084.898zM462.572 277.684h1.247v-10.877h-1.247v10.877zm-5.829-3.598c1.715-.012 3.214-.096 4.93-.371l.132 1.008c-1.86.322-3.479.382-5.386.382h-.923v-4.292h3.777v-2.016h-3.801v-1.008h5.049v4.018h-3.778v2.279zM477.344 277.648h1.187v-10.83h-1.187v10.83zm-2.206-10.589h1.163v10.086h-1.163v-5.254h-2.135v-1.006h2.135v-3.826zm-4.271 7.064c1.344-.014 2.268-.072 3.335-.301l.108 1.02c-1.223.24-2.279.301-3.934.301h-.731v-7.041h4.101v1.007h-2.879v5.014zM487.988 277.684h1.247v-10.865h-1.247v10.865zm-6.116-6.248c0 1.703.659 2.722 1.595 2.722.947 0 1.607-1.019 1.607-2.722 0-1.68-.66-2.7-1.607-2.7-.936 0-1.595 1.02-1.595 2.7zm4.39 0c0 2.351-1.176 3.826-2.795 3.826-1.608 0-2.782-1.475-2.782-3.826 0-2.327 1.174-3.815 2.782-3.815 1.619 0 2.795 1.488 2.795 3.815zM500.36 266.807v10.865h-1.248v-5.865h-2.075v-1.02h2.075v-3.98h1.247zm-7.28 7.328c1.726-.012 2.962-.072 4.377-.312l.108.996c-1.548.275-2.902.324-4.869.324h-.852v-7.377h5.025v1.02h-3.789v2.027h3.345v.982h-3.345v2.34z" mask="url(#prefix__j)"/>
                <path fill="#C5C8CF" d="M409.227 229.89L256.637 229.89 256.637 229.14 408.477 229.14 408.477 144.207 409.227 144.207z" mask="url(#prefix__j)"/>
                <path fill="#C5C8CF" d="M408.852 150.545L404.09 150.545 406.471 146.421 408.852 142.297 411.233 146.421 413.614 150.545z" mask="url(#prefix__j)"/>
                <path fill="#000" d="M287.886 213.926l-.348-1.187c-.3-.96-.563-1.944-.84-2.938h-.047c-.252 1.006-.528 1.979-.816 2.938l-.36 1.187h2.41zm.336 1.092h-3.07l-.756 2.517h-1.415l2.926-8.826h1.607l2.927 8.826h-1.476l-.743-2.517zM292.999 212.857h1.331c1.283 0 1.98-.527 1.98-1.594 0-1.068-.697-1.439-1.98-1.439h-1.331v3.033zm3.43 4.678l-2.003-3.563h-1.427v3.563h-1.392v-8.826h2.891c1.823 0 3.19.646 3.19 2.554 0 1.367-.731 2.182-1.846 2.53l2.158 3.742h-1.571zM311.607 210.844v1.02h-1.535v3.705h-1.236v-7.94h1.236v3.215h1.535zm-7.148 6.404h6.044v1.008h-7.292v-3.502h1.248v2.494zm.168-4.545c.947 0 1.678-.648 1.678-1.644 0-.983-.73-1.631-1.678-1.631s-1.667.648-1.667 1.63c0 .997.72 1.645 1.667 1.645zm0 1.067c-1.63 0-2.879-1.127-2.879-2.711 0-1.582 1.248-2.697 2.88-2.697 1.641 0 2.89 1.115 2.89 2.697 0 1.584-1.249 2.71-2.89 2.71zM320.393 210.531v-2.89h1.235v7.915h-1.235v-4.005h-1.967v-1.02h1.967zm1.51 6.717v1.008h-7.291v-3.383h1.235v2.375h6.057zm-3.417-3.227c-1.2-.408-2.075-1.26-2.53-2.326-.481 1.176-1.392 2.123-2.675 2.566l-.636-.972c1.679-.586 2.662-2.014 2.662-3.477v-.373h-2.29v-.994h5.793v.994h-2.255v.373c0 1.33.923 2.686 2.542 3.25l-.611.96zM334.745 215.521h1.235v-7.881h-1.235v7.881zm1.547 1.727v1.008h-7.388v-3.455h1.247v2.447h6.141zm-3.179-3.178c-1.247-.408-2.158-1.248-2.638-2.316-.48 1.152-1.391 2.076-2.686 2.508l-.648-.959c1.715-.576 2.686-1.981 2.686-3.444v-.394h-2.35v-.996h5.924v.996h-2.314v.394c0 1.379.983 2.7 2.65 3.239l-.624.972zM348.088 210.723v1.02h-1.535v3.718h-1.236v-7.843h1.236v3.105h1.535zm-7.148 6.525h6.044v1.008h-7.292v-3.586h1.248v2.578zm3.478-4.005c-1.403.298-2.675.37-5.002.37h-.875v-5.095h4.82v1.006h-3.585v3.07c2.05-.012 3.214-.072 4.522-.348l.12.997zM360.557 218.447h1.187v-10.83h-1.187v10.83zm-2.206-10.59h1.163v10.086h-1.163v-5.254h-2.135v-1.005h2.135v-3.827zm-4.271 7.065c1.344-.014 2.268-.072 3.335-.301l.107 1.02c-1.223.24-2.278.3-3.933.3h-.732V208.9h4.102v1.008h-2.879v5.014zM371.201 218.482h1.247v-10.865h-1.247v10.865zm-6.116-6.248c0 1.704.659 2.723 1.595 2.723.947 0 1.607-1.019 1.607-2.723 0-1.679-.66-2.699-1.607-2.699-.936 0-1.595 1.02-1.595 2.699zm4.39 0c0 2.352-1.176 3.827-2.795 3.827-1.608 0-2.783-1.475-2.783-3.827 0-2.326 1.175-3.814 2.783-3.814 1.619 0 2.795 1.488 2.795 3.814zM383.572 207.606v10.864h-1.247v-5.864h-2.075v-1.018h2.075v-3.982h1.247zm-7.279 7.328c1.726-.012 2.962-.072 4.377-.313l.108.996c-1.548.276-2.902.325-4.869.325h-.852v-7.377h5.025v1.02h-3.789v2.026h3.345v.983h-3.345v2.34z" mask="url(#prefix__j)"/>
                <path fill="#FFF" d="M571.722 365.469c0 31.125-25.231 56.357-56.356 56.357-31.126 0-56.358-25.232-56.358-56.357s25.232-56.357 56.358-56.357c31.125 0 56.356 25.232 56.356 56.357" mask="url(#prefix__j)"/>
                <path fill="#C5C8CF" d="M515.365 309.486c-30.869 0-55.982 25.113-55.982 55.982 0 30.87 25.113 55.983 55.982 55.983 30.868 0 55.981-25.113 55.981-55.983 0-30.869-25.113-55.982-55.98-55.982m0 112.715c-31.283 0-56.733-25.45-56.733-56.733 0-31.282 25.45-56.732 56.732-56.732s56.731 25.45 56.731 56.732c0 31.283-25.449 56.733-56.73 56.733" mask="url(#prefix__j)"/>
                <path fill="#000" d="M468.957 446.977h1.235v-10.83h-1.235v10.83zm-1.955-9.692c0 3.227-1.295 5.961-5.013 7.76l-.66-.983c2.843-1.367 4.186-3.273 4.401-5.769h-3.861v-1.008h5.133zM474.768 445.766h6.225v1.008h-7.472v-3.082h1.247v2.074zm-1.955-5.744c2.052-.252 3.454-1.272 3.55-2.387h-3.166v-.984h8v.984h-3.191c.096 1.115 1.524 2.135 3.563 2.387l-.456.982c-1.883-.24-3.346-1.115-3.934-2.314-.576 1.199-2.027 2.074-3.898 2.314l-.468-.982zm9.295 1.883v.994h-9.822v-.994h4.269v-1.657h1.235v1.657h4.318zM489.06 438.594c0 .768.995 1.21 2.53 1.21 1.525 0 2.52-.442 2.52-1.21s-.995-1.211-2.52-1.211c-1.534 0-2.53.443-2.53 1.21zm.084 7.172h6.284v1.008h-7.531v-3.203h1.248v2.195zm-1.392-7.172c0-1.355 1.512-2.207 3.839-2.207 2.315 0 3.837.852 3.837 2.207s-1.522 2.207-3.837 2.207c-2.327 0-3.839-.852-3.839-2.207zm8.755 2.938v1.007h-4.197v2.05h-1.26v-2.05h-4.365v-1.007h9.822zM503.423 438.64c.06.23.096.47.096.733 0 .264-.036.504-.11.73h2.065v-1.462h-2.051zm2.11 6.226c0-.72-.887-1.127-2.434-1.127-1.535 0-2.435.408-2.435 1.127 0 .744.9 1.14 2.435 1.14 1.547 0 2.434-.396 2.434-1.14zm1.224 0c0 1.332-1.403 2.11-3.658 2.11s-3.646-.778-3.646-2.11c0-1.32 1.39-2.098 3.646-2.098 2.255 0 3.658.779 3.658 2.098zm-6.045-3.934c.936 0 1.63-.623 1.63-1.56 0-.946-.694-1.571-1.63-1.571-.96 0-1.655.625-1.655 1.572 0 .936.696 1.559 1.655 1.559zm2.147.168c-.503.553-1.271.875-2.147.875-1.62 0-2.83-1.078-2.83-2.602 0-1.535 1.21-2.615 2.83-2.615.888 0 1.644.336 2.147.877h2.615v-1.5h1.235v6.393h-1.235V441.1h-2.615zM522.105 439.576v1.02h-1.44v3.681h-1.247v-8.13h1.247v3.43h1.44zm-7.209 6.19h6.117v1.007h-7.364v-3.215h1.247v2.207zm1.752-5.11c.216-1.164.251-2.016.264-2.687h-4.235v-1.006h5.447v.623c0 .732 0 1.8-.265 3.203l-1.212-.133zm2.194 1.57c-2.255.397-4.808.457-6.692.457l-.131-1.007c.648 0 1.39 0 2.158-.024v-2.219h1.223v2.182c1.128-.047 2.292-.119 3.359-.287l.083.898zM530.866 447h1.247v-10.877h-1.247V447zm-5.829-3.598c1.715-.011 3.214-.095 4.93-.371l.132 1.008c-1.86.322-3.479.383-5.386.383h-.923v-4.293h3.777v-2.016h-3.801v-1.008h5.049v4.018h-3.778v2.279zM545.242 447h1.247v-10.865h-1.247V447zm-3.67-8.18c0 1.993 1.104 3.983 2.807 4.75l-.72.985c-1.247-.588-2.195-1.787-2.686-3.25-.493 1.57-1.452 2.853-2.759 3.488l-.732-1.031c1.728-.78 2.855-2.854 2.855-4.942v-1.773h1.235v1.773zM557.47 442.455c-1.763-.359-3.286-1.486-3.994-2.975-.707 1.49-2.231 2.616-3.993 2.975l-.53-1.02c2.136-.396 3.875-2.062 3.875-3.777v-.816h1.308v.816c0 1.727 1.738 3.395 3.874 3.777l-.54 1.02zm-8.852 3.131h9.81v-1.02h-9.81v1.02zM567.646 442.646h1.175v-6.512h-1.175v6.512zm-2.086-2.841h-1.284v-.996h1.284v-2.495h1.151v6.237h-1.151v-2.746zm-2.723 6.056h4.785v-1.764h-4.785v1.764zm-1.224.984h7.208v-3.73h-7.208v3.73zm3.155-5.013c-1.236.227-2.267.264-3.946.264h-.708v-5.278h4.078v.996h-2.89v1.127h2.494v.948h-2.494v1.222c1.367-.011 2.278-.072 3.345-.263l.121.984z" mask="url(#prefix__j)"/>
                <path fill="#C5C8CF" d="M515.74 309.111L514.99 309.111 514.99 287.424 331.976 287.424 331.976 309.111 331.226 309.111 331.226 286.674 515.74 286.674z" mask="url(#prefix__j)"/>
                <path fill="#C5C8CF" d="M425.096 287.049L425.846 287.049 425.846 144.782 425.096 144.782z" mask="url(#prefix__j)"/>
                <path fill="#C5C8CF" d="M425.471 150.835L420.709 150.835 423.09 146.711 425.471 142.587 427.852 146.711 430.233 150.835zM331.602 309.486c-30.87 0-55.982 25.113-55.982 55.982 0 30.87 25.113 55.983 55.982 55.983s55.982-25.113 55.982-55.983c0-30.869-25.113-55.982-55.982-55.982m0 112.715c-31.282 0-56.732-25.45-56.732-56.733 0-31.282 25.45-56.732 56.732-56.732s56.732 25.45 56.732 56.732c0 31.283-25.45 56.733-56.732 56.733" mask="url(#prefix__j)"/>
                <path fill="#000" d="M287.728 442.24h-1.654v-.996h1.654v-1.295h-1.654v-1.008h1.654v-2.795h1.236v8.264h-1.236v-2.17zm1.488 3.525v1.008h-7.305v-3.058h1.248v2.05h6.057zm-6.154-3.67c.792 0 1.332-.419 1.332-1.126 0-.698-.54-1.14-1.332-1.14-.779 0-1.319.442-1.319 1.14 0 .707.54 1.126 1.32 1.126zm0 .971c-1.463 0-2.482-.85-2.482-2.097 0-1.26 1.02-2.1 2.483-2.1 1.476 0 2.495.84 2.495 2.1 0 1.246-1.02 2.097-2.495 2.097zm2.964-4.7h-6.01v-.983h2.435v-1.26h1.236v1.26h2.339v.982zM301.023 438.785v1.02h-1.535v2.818h-1.236v-6.477h1.236v2.64h1.535zm-2.639 6.141c0-.707-.876-1.08-2.386-1.08-1.512 0-2.387.373-2.387 1.08 0 .695.875 1.08 2.387 1.08 1.51 0 2.386-.385 2.386-1.08zm1.223 0c0 1.283-1.379 2.05-3.609 2.05-2.232 0-3.61-.767-3.61-2.05 0-1.295 1.378-2.05 3.61-2.05 2.23 0 3.61.755 3.61 2.05zm-2.818-2.723c-1.21-.383-2.075-1.164-2.542-2.17-.48 1.15-1.392 2.074-2.687 2.518l-.624-.97c1.703-.589 2.65-1.98 2.65-3.456v-.215h-2.302v-.996h5.817v.996h-2.267v.203c0 1.344.9 2.604 2.554 3.131l-.599.96zM313.097 447h1.247v-10.865h-1.247V447zm-3.67-8.18c0 1.993 1.103 3.983 2.806 4.75l-.719.985c-1.247-.588-2.196-1.787-2.687-3.25-.492 1.57-1.451 2.853-2.759 3.488l-.731-1.031c1.727-.78 2.854-2.854 2.854-4.942v-1.773h1.236v1.773zM324.209 438.941h-2.195v-.996h2.195v-1.81h1.235v5.564h-1.235v-2.758zm1.606 6.932v.972h-7.399v-2.806h5.805v-.866h-5.829v-.959h7.052v2.735h-5.804v.924h6.175zm-3.597-4.354c-1.175-.396-2.039-1.199-2.494-2.207-.481 1.127-1.38 2.004-2.652 2.447l-.634-.97c1.69-.553 2.637-1.909 2.637-3.395v-.912h1.236v.912c0 1.367.935 2.64 2.554 3.166l-.647.96zM342.904 438.82v1.02h-1.535v2.806h-1.236v-6.512h1.236v2.686h1.535zm-2.639 6.117c0-.672-.876-1.055-2.386-1.055-1.512 0-2.387.383-2.387 1.055 0 .695.875 1.07 2.387 1.07 1.51 0 2.386-.375 2.386-1.07zm1.223 0c0 1.283-1.367 2.04-3.609 2.04-2.232 0-3.61-.757-3.61-2.04 0-1.27 1.378-2.027 3.61-2.027 2.242 0 3.61.756 3.61 2.027zm-2.926-2.865c-1.163-.42-2.027-1.248-2.482-2.268-.48 1.176-1.367 2.112-2.615 2.567l-.66-.983c1.703-.588 2.626-2.064 2.626-3.623V436.7h1.248v1.162c0 1.393.923 2.711 2.531 3.238l-.648.973zM353.2 436.147v10.817h-1.175v-5.529h-1.212v5.026h-1.15v-10.112h1.15v4.079h1.212v-4.281h1.175zm-7.676 7.22c1.392-.012 2.327-.06 3.431-.252l.107 1.008c-1.247.226-2.302.264-3.994.264h-.73v-7.053h4.317v.996h-3.13v1.858h2.938v.973h-2.939v2.207zM366.342 444.266h1.175v-8.119h-1.175v8.119zm-2.123-4.485h-1.524v-1.019h1.524v-2.412h1.163v7.605h-1.163v-4.174zm3.597 5.985v1.007h-7.46v-3.466h1.248v2.459h6.212zm-4.833-3.262c-.911-.42-1.559-1.164-1.919-2.076-.395 1.008-1.079 1.883-2.086 2.351l-.684-.935c1.439-.696 2.159-2.147 2.159-3.442v-1.511h1.199v1.511c0 1.27.66 2.541 2.003 3.166l-.672.936zM377.082 442.588h1.235v-6.43h-1.235v6.43zm.071 2.289c0-.707-.899-1.102-2.434-1.102-1.535 0-2.435.395-2.435 1.102 0 .721.9 1.103 2.435 1.103 1.535 0 2.434-.382 2.434-1.103zm1.236 0c0 1.309-1.404 2.076-3.67 2.076-2.267 0-3.67-.767-3.67-2.076 0-1.295 1.403-2.063 3.67-2.063 2.266 0 3.67.768 3.67 2.063zm-3.023-2.889c-1.235-.42-2.146-1.259-2.626-2.328-.492 1.199-1.403 2.147-2.698 2.615l-.624-.984c1.703-.6 2.662-2.098 2.662-3.609v-1.055h1.26v1.055c0 1.451.959 2.795 2.626 3.334l-.6.972z" mask="url(#prefix__j)"/>
                <path fill="#0A51B7" d="M317.007 363.031v-12.85s-.127-1.008.722-1.008c.848 0 .737 1.364.737 1.364l.222 12.494" mask="url(#prefix__j)"/>
                <path fill="#000" d="M318.688 363.33c-.163 0-.296-.13-.3-.294l-.221-12.494c.015-.202.006-.748-.203-.974-.062-.066-.135-.096-.236-.096-.183 0-.259.062-.3.11-.142.161-.135.483-.125.561l.002 12.888c0 .165-.134.3-.298.3-.166 0-.298-.135-.298-.3v-12.85c-.007-.028-.07-.61.27-.996.127-.14.358-.31.75-.31.268 0 .5.1.675.288.423.46.368 1.304.36 1.398l.222 12.465c.004.165-.127.301-.293.304h-.005z" mask="url(#prefix__j)"/>
                <path fill="#FFF" d="M312.598 366.147v-1.424s.1-1.692 1.724-1.692h34.923s1.36.265 1.36 2.123v.993" mask="url(#prefix__j)"/>
                <path fill="#000" d="M350.903 366.147h-.598v-.993c0-1.572-1.074-1.82-1.12-1.83l-34.864.006c-1.327 0-1.422 1.353-1.425 1.41v1.407h-.597v-1.424c.04-.7.514-1.99 2.022-1.99h34.924c.611.113 1.658.757 1.658 2.42v.994z" mask="url(#prefix__j)"/>
                <path fill="#FFF" d="M311.014 378.38V367.84s.1-1.691 1.724-1.691h38.09s1.36.265 1.36 2.122v10.11" mask="url(#prefix__j)"/>
                <path fill="#000" d="M352.487 378.38h-.598v-10.11c0-1.573-1.074-1.82-1.12-1.83l-38.032.006c-1.327 0-1.422 1.353-1.425 1.41v10.525h-.597v-10.542c.04-.7.514-1.99 2.022-1.99h38.092c.611.113 1.658.758 1.658 2.42v10.112z" mask="url(#prefix__j)"/>
                <path fill="#E6E8EB" d="M309.604 381.331v-1.429s-.032-1.52 1.56-1.52h41.075s1.358.132 1.358 1.474v1.342l-43.993.133z" mask="url(#prefix__j)"/>
                <path fill="#000" d="M352.209 378.679h-41.046c-.396 0-.704.109-.915.323-.347.35-.345.89-.345.896v1.134l43.395-.131v-1.044c0-1.06-1.044-1.174-1.089-1.178zm-42.903 2.952v-1.728c-.001-.026-.011-.782.511-1.316.328-.335.781-.505 1.346-.505h41.075c.593.057 1.658.498 1.658 1.775v1.639l-44.59.135z" mask="url(#prefix__j)"/>
                <path fill="#FFF" d="M313.334 368.8L349.867 368.8" mask="url(#prefix__j)"/>
                <path fill="#000" d="M349.867 369.099h-36.533c-.165 0-.299-.134-.299-.3 0-.164.134-.298.3-.298h36.532c.165 0 .3.134.3.299 0 .165-.135.299-.3.299" mask="url(#prefix__j)"/>
                <path fill="#E6E8EB" d="M337.04 359.03c-.887 0-1.607-.722-1.607-1.608 0-.887.72-1.608 1.607-1.608s1.607.721 1.607 1.608c0 .886-.72 1.607-1.607 1.607" mask="url(#prefix__j)"/>
                <path fill="#000" d="M337.04 356.113c-.722 0-1.309.587-1.309 1.31 0 .72.587 1.307 1.309 1.307s1.309-.587 1.309-1.308c0-.722-.587-1.309-1.309-1.309m0 3.215c-1.051 0-1.906-.856-1.906-1.906 0-1.05.855-1.907 1.906-1.907s1.906.856 1.906 1.907c0 1.05-.855 1.906-1.906 1.906" mask="url(#prefix__j)"/>
                <path fill="#E6E8EB" d="M330.16 355.756c-.533 0-1.029-.262-1.328-.701-.323-.473-.369-1.09-.118-1.61 1.522-3.19 4.791-5.251 8.326-5.251 3.534 0 6.802 2.059 8.325 5.249.185.387.208.824.065 1.229-.144.406-.436.73-.824.916-.21.103-.45.156-.692.156-.614-.001-1.184-.361-1.452-.917-.99-2.077-3.12-3.42-5.422-3.42-2.303 0-4.43 1.345-5.424 3.422-.245.523-.754.876-1.327.922l-.13.005z" mask="url(#prefix__j)"/>
                <path fill="#000" d="M337.04 348.492c-3.421 0-6.583 1.995-8.057 5.082-.205.424-.168.927.096 1.312.242.356.644.57 1.075.571l.123-.005c.454-.037.868-.324 1.069-.75 1.044-2.184 3.278-3.593 5.694-3.593 2.417 0 4.651 1.408 5.691 3.59.305.63 1.144.908 1.745.62.317-.15.555-.416.671-.747.118-.329.099-.685-.052-1-1.473-3.086-4.635-5.08-8.055-5.08zm-6.875 7.562h-.006c-.632 0-1.22-.31-1.574-.832-.384-.56-.438-1.292-.141-1.907 1.573-3.293 4.947-5.42 8.596-5.42 3.648 0 7.022 2.126 8.595 5.418.219.461.247.98.077 1.458-.171.482-.518.867-.977 1.087-.249.12-.533.185-.821.185-.728 0-1.403-.427-1.722-1.086-.942-1.975-2.964-3.25-5.152-3.25-2.187 0-4.21 1.276-5.154 3.251-.289.618-.893 1.037-1.574 1.091l-.147.005z" mask="url(#prefix__j)"/>
                <path fill="#E6E8EB" d="M349.418 352.346c-.614-.001-1.186-.361-1.454-.917-2.002-4.182-6.29-6.883-10.926-6.883-4.637 0-8.926 2.702-10.927 6.885-.272.553-.825.894-1.443.894-.24 0-.474-.052-.693-.158-.792-.381-1.134-1.338-.761-2.134 2.531-5.287 7.958-8.702 13.824-8.702 5.864 0 11.292 3.419 13.826 8.708.241.503.208 1.083-.088 1.555-.294.469-.8.75-1.356.752h-.002z" mask="url(#prefix__j)"/>
                <path fill="#000" d="M349.418 352.047h.002c.451-.001.863-.23 1.103-.612.241-.384.268-.858.072-1.267-2.486-5.186-7.807-8.538-13.557-8.538-5.753 0-11.073 3.35-13.555 8.532-.302.646-.024 1.425.622 1.736.624.3 1.43.024 1.738-.6 2.049-4.282 6.444-7.051 11.195-7.051 4.75 0 9.145 2.769 11.195 7.053.219.452.685.746 1.185.747m.003.598h-.003c-.729-.001-1.405-.427-1.724-1.086-1.952-4.08-6.135-6.714-10.656-6.714-4.522 0-8.705 2.636-10.657 6.715-.323.657-.98 1.063-1.713 1.063-.288 0-.564-.062-.823-.186-.94-.452-1.344-1.587-.902-2.531 2.581-5.391 8.114-8.874 14.095-8.874 5.979 0 11.512 3.485 14.096 8.878.285.595.246 1.283-.105 1.843-.349.558-.951.89-1.608.892" mask="url(#prefix__j)"/>
                <path fill="#E6E8EB" d="M497.725 354.88L497.725 381.397 529.734 381.397 529.734 354.635z" mask="url(#prefix__j)"/>
                <path fill="#000" d="M497.964 381.157h31.53v-26.282l-31.53.242v26.04zm32.009.48h-32.488v-26.995l32.488-.248v27.242z" mask="url(#prefix__j)"/>
                <path fill="#FFF" d="M530.665 355.075h-33.992c-1.298 0-2.361-1.062-2.361-2.36v-5.208c0-1.298 1.063-2.36 2.361-2.36h33.992c1.298 0 2.359 1.062 2.359 2.36v5.208c0 1.298-1.061 2.36-2.359 2.36" mask="url(#prefix__j)"/>
                <path fill="#000" d="M530.665 345.147h-33.992c-1.298 0-2.361 1.062-2.361 2.36v5.207c0 1.298 1.063 2.36 2.361 2.36h33.992c1.298 0 2.36-1.062 2.36-2.36v-5.207c0-1.298-1.062-2.36-2.36-2.36m0 .478c1.038 0 1.882.844 1.882 1.882v5.207c0 1.038-.844 1.884-1.882 1.884h-33.992c-1.038 0-1.882-.846-1.882-1.884v-5.207c0-1.038.844-1.882 1.882-1.882h33.992" mask="url(#prefix__j)"/>
                <path fill="#FFF" d="M530.665 367.136h-33.992c-1.298 0-2.361-1.062-2.361-2.36v-5.207c0-1.3 1.063-2.361 2.361-2.361h33.992c1.298 0 2.359 1.062 2.359 2.36v5.208c0 1.298-1.061 2.36-2.359 2.36" mask="url(#prefix__j)"/>
                <path fill="#000" d="M530.665 357.208h-33.992c-1.298 0-2.361 1.062-2.361 2.36v5.207c0 1.299 1.063 2.361 2.361 2.361h33.992c1.298 0 2.36-1.062 2.36-2.361v-5.207c0-1.298-1.062-2.36-2.36-2.36m0 .478c1.038 0 1.882.844 1.882 1.882v5.207c0 1.038-.844 1.883-1.882 1.883h-33.992c-1.038 0-1.882-.845-1.882-1.883v-5.207c0-1.038.844-1.882 1.882-1.882h33.992" mask="url(#prefix__j)"/>
                <path fill="#FFF" d="M530.665 379.129h-33.992c-1.298 0-2.361-1.062-2.361-2.36v-5.207c0-1.3 1.063-2.361 2.361-2.361h33.992c1.298 0 2.359 1.062 2.359 2.36v5.208c0 1.298-1.061 2.36-2.359 2.36" mask="url(#prefix__j)"/>
                <path fill="#000" d="M530.665 369.201h-33.992c-1.298 0-2.361 1.062-2.361 2.36v5.207c0 1.298 1.063 2.361 2.361 2.361h33.992c1.298 0 2.36-1.063 2.36-2.36v-5.209c0-1.297-1.062-2.359-2.36-2.359m0 .478c1.038 0 1.882.844 1.882 1.881v5.208c0 1.038-.844 1.883-1.882 1.883h-33.992c-1.038 0-1.882-.845-1.882-1.883v-5.208c0-1.037.844-1.88 1.882-1.88h33.992" mask="url(#prefix__j)"/>
                <path fill="#0A51B7" d="M520.008 350.111c0 .882-.715 1.597-1.597 1.597s-1.597-.715-1.597-1.597c0-.883.715-1.598 1.597-1.598s1.597.715 1.597 1.598" mask="url(#prefix__j)"/>
                <path fill="#000" d="M518.411 348.514c-.882 0-1.597.715-1.597 1.598 0 .88.715 1.596 1.597 1.596s1.597-.715 1.597-1.596c0-.883-.715-1.598-1.597-1.598m0 .479c.617 0 1.12.5 1.12 1.119 0 .617-.503 1.119-1.12 1.119-.617 0-1.119-.502-1.119-1.12 0-.617.502-1.118 1.12-1.118" mask="url(#prefix__j)"/>
                <path fill="#0A51B7" d="M524.934 350.111c0 .882-.716 1.597-1.598 1.597-.881 0-1.596-.715-1.596-1.597 0-.883.715-1.598 1.596-1.598.882 0 1.598.715 1.598 1.598" mask="url(#prefix__j)"/>
                <path fill="#000" d="M523.336 348.514c-.882 0-1.597.715-1.597 1.598 0 .88.715 1.596 1.597 1.596.883 0 1.598-.715 1.598-1.596 0-.883-.715-1.598-1.598-1.598m0 .479c.617 0 1.119.5 1.119 1.119 0 .617-.502 1.119-1.12 1.119-.616 0-1.118-.502-1.118-1.12 0-.617.502-1.118 1.119-1.118" mask="url(#prefix__j)"/>
                <path fill="#0A51B7" d="M529.858 350.111c0 .882-.715 1.597-1.597 1.597s-1.596-.715-1.596-1.597c0-.883.714-1.598 1.596-1.598.882 0 1.597.715 1.597 1.598" mask="url(#prefix__j)"/>
                <path fill="#000" d="M528.262 348.514c-.882 0-1.597.715-1.597 1.598 0 .88.715 1.596 1.597 1.596s1.597-.715 1.597-1.596c0-.883-.715-1.598-1.597-1.598m0 .479c.617 0 1.119.5 1.119 1.119 0 .617-.502 1.119-1.12 1.119-.616 0-1.118-.502-1.118-1.12 0-.617.502-1.118 1.119-1.118" mask="url(#prefix__j)"/>
                <path fill="#0A51B7" d="M520.008 362.172c0 .882-.715 1.597-1.597 1.597s-1.597-.715-1.597-1.597.715-1.597 1.597-1.597 1.597.715 1.597 1.597" mask="url(#prefix__j)"/>
                <path fill="#000" d="M518.411 360.574c-.882 0-1.597.715-1.597 1.598 0 .881.715 1.596 1.597 1.596s1.597-.715 1.597-1.596c0-.883-.715-1.598-1.597-1.598m0 .48c.617 0 1.12.5 1.12 1.118 0 .617-.503 1.12-1.12 1.12-.617 0-1.119-.503-1.119-1.12 0-.618.502-1.119 1.12-1.119" mask="url(#prefix__j)"/>
                <path fill="#0A51B7" d="M524.934 362.172c0 .882-.716 1.597-1.598 1.597-.881 0-1.596-.715-1.596-1.597s.715-1.597 1.596-1.597c.882 0 1.598.715 1.598 1.597" mask="url(#prefix__j)"/>
                <path fill="#000" d="M523.336 360.574c-.882 0-1.597.715-1.597 1.598 0 .881.715 1.596 1.597 1.596.883 0 1.598-.715 1.598-1.596 0-.883-.715-1.598-1.598-1.598m0 .48c.617 0 1.119.5 1.119 1.118 0 .617-.502 1.12-1.12 1.12-.616 0-1.118-.503-1.118-1.12 0-.618.502-1.119 1.119-1.119" mask="url(#prefix__j)"/>
                <path fill="#0A51B7" d="M529.858 362.172c0 .882-.715 1.597-1.597 1.597s-1.596-.715-1.596-1.597.714-1.597 1.596-1.597c.882 0 1.597.715 1.597 1.597" mask="url(#prefix__j)"/>
                <path fill="#000" d="M528.262 360.574c-.882 0-1.597.715-1.597 1.598 0 .881.715 1.596 1.597 1.596s1.597-.715 1.597-1.596c0-.883-.715-1.598-1.597-1.598m0 .48c.617 0 1.119.5 1.119 1.118 0 .617-.502 1.12-1.12 1.12-.616 0-1.118-.503-1.118-1.12 0-.618.502-1.119 1.119-1.119" mask="url(#prefix__j)"/>
                <path fill="#0A51B7" d="M520.008 374.165c0 .882-.715 1.597-1.597 1.597s-1.597-.715-1.597-1.597.715-1.597 1.597-1.597 1.597.715 1.597 1.597" mask="url(#prefix__j)"/>
                <path fill="#000" d="M518.411 372.568c-.882 0-1.597.715-1.597 1.597s.715 1.596 1.597 1.596 1.597-.714 1.597-1.596c0-.882-.715-1.597-1.597-1.597m0 .477c.617 0 1.12.502 1.12 1.12 0 .617-.503 1.12-1.12 1.12-.617 0-1.119-.503-1.119-1.12 0-.618.502-1.12 1.12-1.12" mask="url(#prefix__j)"/>
                <path fill="#0A51B7" d="M524.934 374.165c0 .882-.716 1.597-1.598 1.597-.881 0-1.596-.715-1.596-1.597s.715-1.597 1.596-1.597c.882 0 1.598.715 1.598 1.597" mask="url(#prefix__j)"/>
                <path fill="#000" d="M523.336 372.568c-.882 0-1.597.715-1.597 1.597s.715 1.596 1.597 1.596c.883 0 1.598-.714 1.598-1.596 0-.882-.715-1.597-1.598-1.597m0 .477c.617 0 1.119.502 1.119 1.12 0 .617-.502 1.12-1.12 1.12-.616 0-1.118-.503-1.118-1.12 0-.618.502-1.12 1.119-1.12" mask="url(#prefix__j)"/>
                <path fill="#0A51B7" d="M529.858 374.165c0 .882-.715 1.597-1.597 1.597s-1.596-.715-1.596-1.597.714-1.597 1.596-1.597c.882 0 1.597.715 1.597 1.597" mask="url(#prefix__j)"/>
                <path fill="#000" d="M528.262 372.568c-.882 0-1.597.715-1.597 1.597s.715 1.596 1.597 1.596 1.597-.714 1.597-1.596c0-.882-.715-1.597-1.597-1.597m0 .477c.617 0 1.119.502 1.119 1.12 0 .617-.502 1.12-1.12 1.12-.616 0-1.118-.503-1.118-1.12 0-.618.502-1.12 1.119-1.12" mask="url(#prefix__j)"/>
                <path fill="#FFF" d="M498.404 347.49L498.404 352.732" mask="url(#prefix__j)"/>
                <path fill="#000" d="M498.165 352.732L498.644 352.732 498.644 347.49 498.165 347.49z" mask="url(#prefix__j)"/>
                <path fill="#FFF" d="M501.112 347.49L501.112 352.732" mask="url(#prefix__j)"/>
                <path fill="#000" d="M500.873 352.732L501.352 352.732 501.352 347.49 500.873 347.49z" mask="url(#prefix__j)"/>
                <path fill="#FFF" d="M503.821 347.49L503.821 352.732" mask="url(#prefix__j)"/>
                <path fill="#000" d="M503.582 352.732L504.061 352.732 504.061 347.49 503.582 347.49z" mask="url(#prefix__j)"/>
                <path fill="#FFF" d="M506.529 347.49L506.529 352.732" mask="url(#prefix__j)"/>
                <path fill="#000" d="M506.29 352.732L506.769 352.732 506.769 347.49 506.29 347.49z" mask="url(#prefix__j)"/>
                <path fill="#FFF" d="M509.238 347.49L509.238 352.732" mask="url(#prefix__j)"/>
                <path fill="#000" d="M508.999 352.732L509.478 352.732 509.478 347.49 508.999 347.49z" mask="url(#prefix__j)"/>
                <path fill="#FFF" d="M511.946 347.49L511.946 352.732" mask="url(#prefix__j)"/>
                <path fill="#000" d="M511.707 352.732L512.186 352.732 512.186 347.49 511.707 347.49z" mask="url(#prefix__j)"/>
                <path fill="#FFF" d="M499.759 347.49L499.759 352.732" mask="url(#prefix__j)"/>
                <path fill="#000" d="M499.519 352.732L499.998 352.732 499.998 347.49 499.519 347.49z" mask="url(#prefix__j)"/>
                <path fill="#FFF" d="M502.467 347.49L502.467 352.732" mask="url(#prefix__j)"/>
                <path fill="#000" d="M502.227 352.732L502.706 352.732 502.706 347.49 502.227 347.49z" mask="url(#prefix__j)"/>
                <path fill="#FFF" d="M505.175 347.49L505.175 352.732" mask="url(#prefix__j)"/>
                <path fill="#000" d="M504.935 352.732L505.414 352.732 505.414 347.49 504.935 347.49z" mask="url(#prefix__j)"/>
                <path fill="#FFF" d="M507.884 347.49L507.884 352.732" mask="url(#prefix__j)"/>
                <path fill="#000" d="M507.644 352.732L508.123 352.732 508.123 347.49 507.644 347.49z" mask="url(#prefix__j)"/>
                <path fill="#FFF" d="M510.592 347.49L510.592 352.732" mask="url(#prefix__j)"/>
                <path fill="#000" d="M510.352 352.732L510.831 352.732 510.831 347.49 510.352 347.49z" mask="url(#prefix__j)"/>
                <path fill="#FFF" d="M498.404 359.551L498.404 364.793" mask="url(#prefix__j)"/>
                <path fill="#000" d="M498.165 364.793L498.644 364.793 498.644 359.551 498.165 359.551z" mask="url(#prefix__j)"/>
                <path fill="#FFF" d="M501.112 359.551L501.112 364.793" mask="url(#prefix__j)"/>
                <path fill="#000" d="M500.873 364.793L501.352 364.793 501.352 359.551 500.873 359.551z" mask="url(#prefix__j)"/>
                <path fill="#FFF" d="M503.821 359.551L503.821 364.793" mask="url(#prefix__j)"/>
                <path fill="#000" d="M503.582 364.793L504.061 364.793 504.061 359.551 503.582 359.551z" mask="url(#prefix__j)"/>
                <path fill="#FFF" d="M506.529 359.551L506.529 364.793" mask="url(#prefix__j)"/>
                <path fill="#000" d="M506.29 364.793L506.769 364.793 506.769 359.551 506.29 359.551z" mask="url(#prefix__j)"/>
                <path fill="#FFF" d="M509.238 359.551L509.238 364.793" mask="url(#prefix__j)"/>
                <path fill="#000" d="M508.999 364.793L509.478 364.793 509.478 359.551 508.999 359.551z" mask="url(#prefix__j)"/>
                <path fill="#FFF" d="M511.946 359.551L511.946 364.793" mask="url(#prefix__j)"/>
                <path fill="#000" d="M511.707 364.793L512.186 364.793 512.186 359.551 511.707 359.551z" mask="url(#prefix__j)"/>
                <path fill="#FFF" d="M499.759 359.551L499.759 364.793" mask="url(#prefix__j)"/>
                <path fill="#000" d="M499.519 364.793L499.998 364.793 499.998 359.551 499.519 359.551z" mask="url(#prefix__j)"/>
                <path fill="#FFF" d="M502.467 359.551L502.467 364.793" mask="url(#prefix__j)"/>
                <path fill="#000" d="M502.227 364.793L502.706 364.793 502.706 359.551 502.227 359.551z" mask="url(#prefix__j)"/>
                <path fill="#FFF" d="M505.175 359.551L505.175 364.793" mask="url(#prefix__j)"/>
                <path fill="#000" d="M504.935 364.793L505.414 364.793 505.414 359.551 504.935 359.551z" mask="url(#prefix__j)"/>
                <path fill="#FFF" d="M507.884 359.551L507.884 364.793" mask="url(#prefix__j)"/>
                <path fill="#000" d="M507.644 364.793L508.123 364.793 508.123 359.551 507.644 359.551z" mask="url(#prefix__j)"/>
                <path fill="#FFF" d="M510.592 359.551L510.592 364.793" mask="url(#prefix__j)"/>
                <path fill="#000" d="M510.352 364.793L510.831 364.793 510.831 359.551 510.352 359.551z" mask="url(#prefix__j)"/>
                <path fill="#FFF" d="M498.404 371.611L498.404 376.853" mask="url(#prefix__j)"/>
                <path fill="#000" d="M498.165 376.854L498.644 376.854 498.644 371.612 498.165 371.612z" mask="url(#prefix__j)"/>
                <path fill="#FFF" d="M501.112 371.611L501.112 376.853" mask="url(#prefix__j)"/>
                <path fill="#000" d="M500.873 376.854L501.352 376.854 501.352 371.612 500.873 371.612z" mask="url(#prefix__j)"/>
                <path fill="#FFF" d="M503.821 371.611L503.821 376.853" mask="url(#prefix__j)"/>
                <path fill="#000" d="M503.582 376.854L504.061 376.854 504.061 371.612 503.582 371.612z" mask="url(#prefix__j)"/>
                <path fill="#FFF" d="M506.529 371.611L506.529 376.853" mask="url(#prefix__j)"/>
                <path fill="#000" d="M506.29 376.854L506.769 376.854 506.769 371.612 506.29 371.612z" mask="url(#prefix__j)"/>
                <path fill="#FFF" d="M509.238 371.611L509.238 376.853" mask="url(#prefix__j)"/>
                <path fill="#000" d="M508.999 376.854L509.478 376.854 509.478 371.612 508.999 371.612z" mask="url(#prefix__j)"/>
                <path fill="#FFF" d="M511.946 371.611L511.946 376.853" mask="url(#prefix__j)"/>
                <path fill="#000" d="M511.707 376.854L512.186 376.854 512.186 371.612 511.707 371.612z" mask="url(#prefix__j)"/>
                <path fill="#FFF" d="M499.759 371.611L499.759 376.853" mask="url(#prefix__j)"/>
                <path fill="#000" d="M499.519 376.854L499.998 376.854 499.998 371.612 499.519 371.612z" mask="url(#prefix__j)"/>
                <path fill="#FFF" d="M502.467 371.611L502.467 376.853" mask="url(#prefix__j)"/>
                <path fill="#000" d="M502.227 376.854L502.706 376.854 502.706 371.612 502.227 371.612z" mask="url(#prefix__j)"/>
                <path fill="#FFF" d="M505.175 371.611L505.175 376.853" mask="url(#prefix__j)"/>
                <path fill="#000" d="M504.935 376.854L505.414 376.854 505.414 371.612 504.935 371.612z" mask="url(#prefix__j)"/>
                <path fill="#FFF" d="M507.884 371.611L507.884 376.853" mask="url(#prefix__j)"/>
                <path fill="#000" d="M507.644 376.854L508.123 376.854 508.123 371.612 507.644 371.612z" mask="url(#prefix__j)"/>
                <path fill="#FFF" d="M510.592 371.611L510.592 376.853" mask="url(#prefix__j)"/>
                <path fill="#000" d="M510.352 376.854L510.831 376.854 510.831 371.612 510.352 371.612z" mask="url(#prefix__j)"/>
                <path fill="#E6E8EB" d="M526.188 371.726s.159-1.01 1.589-1.698c1.43-.69 5.015-1.661 9.397-1.057 4.383.605 5.534 1.693 5.534 1.693l.528 1.165-.001 12.814s-.58 1.535-3.519 2.17c-2.938.636-8.79.848-11.596-.45 0 0-1.774-.741-1.933-1.853v-12.784z" mask="url(#prefix__j)"/>
                <path fill="#000" d="M526.427 384.498c.12.282 1.365 2.714 8.279 2.714 6.902 0 8.163-2.423 8.289-2.715v-12.85c-.09-.25-1.144-2.627-8.54-2.627-7.728 0-8.027 2.64-8.03 2.667l.002 12.811zm8.279 3.192c-7.714 0-8.708-2.953-8.747-3.078l-.011-.07v-12.87c.007-.14.252-3.13 8.507-3.13 8.217 0 8.985 2.893 9.013 3.016l.007.053-.012 13.001c-.04.126-1.044 3.078-8.757 3.078z" mask="url(#prefix__j)"/>
                <path fill="#000" d="M534.526 379.178c-7.495 0-8.524-2.76-8.564-2.88l.451-.155c.01.025 1.024 2.623 8.406 2.556 7.343-.07 8.18-2.52 8.186-2.543l.46.129c-.032.116-.869 2.818-8.642 2.892h-.297M534.526 383.372c-7.495 0-8.524-2.76-8.564-2.879l.451-.156c.01.025 1.024 2.642 8.406 2.556 7.343-.07 8.18-2.519 8.186-2.543l.46.13c-.032.115-.869 2.817-8.642 2.891l-.297.001M534.526 374.983c-7.495 0-8.524-2.76-8.564-2.879l.451-.156c.01.025 1.018 2.557 8.115 2.557h.291c7.343-.07 8.18-2.52 8.186-2.544l.46.13c-.032.115-.869 2.817-8.642 2.891l-.297.001M162.273 134.757h-1.163v-6.104h1.162v2.578h1.14v-2.77h1.174v6.645h-1.174v-2.868h-1.14v2.519zm1.14 2.542c0-.671-.913-1.043-2.436-1.043s-2.435.372-2.435 1.043c0 .66.912 1.032 2.435 1.032 1.523 0 2.435-.372 2.435-1.032zm1.234 0c0 1.236-1.415 1.979-3.67 1.979s-3.67-.743-3.67-1.98c0-1.245 1.416-1.99 3.67-1.99 2.255 0 3.67.745 3.67 1.99zm-4.45-2.961c-.959-.373-1.63-1.092-2.038-1.955-.397.995-1.103 1.834-2.147 2.29l-.648-.947c1.451-.66 2.183-2.015 2.183-3.251v-1.367h1.2v1.367c0 1.2.707 2.386 2.11 2.939l-.66.924zM176.455 131.686v1.02h-1.535v3.718h-1.236v-7.988h1.236v3.25h1.535zm-7.137 6.38h6.033v1.008h-7.268v-3.418h1.235v2.41zm2.903-3.334c-1.2-.42-2.075-1.282-2.555-2.338-.468 1.189-1.367 2.11-2.638 2.566l-.672-.959c1.74-.587 2.662-2.05 2.662-3.633v-1.26h1.248v1.27c0 1.44.935 2.808 2.58 3.372l-.625.982zM188.275 137.252c0-.672-.959-1.068-2.555-1.068-1.606 0-2.59.396-2.59 1.068 0 .684.984 1.079 2.59 1.079 1.596 0 2.555-.395 2.555-1.079zm-.348-4.63c.276-1.067.288-1.847.288-2.663h-6.212v-.994h7.435v.91c0 .864 0 1.764-.3 2.879l-1.21-.132zm1.583 4.63c0 1.259-1.487 2.026-3.79 2.026-2.339 0-3.813-.767-3.813-2.026 0-1.248 1.474-2.016 3.813-2.016 2.303 0 3.79.768 3.79 2.016zm1.128-3.85v.995h-9.762v-.995h3.837v-1.992h1.248v1.992h4.677zM199.64 131.17v-2.722h1.235v6.452h-1.235v-2.722h-1.92v-1.007h1.92zm.048 6.07c0-.71-.888-1.091-2.411-1.091-1.547 0-2.422.382-2.422 1.09 0 .708.875 1.092 2.422 1.092 1.523 0 2.41-.384 2.41-1.091zm1.235 0c0 1.295-1.391 2.05-3.646 2.05-2.267 0-3.658-.755-3.658-2.05 0-1.283 1.39-2.05 3.658-2.05 2.255 0 3.646.767 3.646 2.05zm-3.19-2.687c-1.2-.42-2.063-1.272-2.52-2.315-.478 1.188-1.39 2.147-2.674 2.603l-.635-.983c1.679-.6 2.65-2.04 2.65-3.526v-.156h-2.29v-.996h5.793v.996h-2.255v.143c0 1.356.923 2.699 2.542 3.263l-.611.97zM213.98 134.625h1.248v-6.188h-1.248v6.188zm-5.913-1.99h2.723v-2.531h-2.723v2.531zm4.27 3.609c.096.888 1.487 1.86 3.49 2.074l-.408.936c-1.715-.203-3.059-.899-3.718-1.834-.66.947-2.027 1.631-3.754 1.834l-.408-.936c2.027-.203 3.431-1.15 3.526-2.074h-3.106v-.947h3.106v-.972h1.26v.972h3.106v.947h-3.094zm-5.482-2.627h5.134v-4.497h-5.134v4.497zM228.44 131.242h-2.195v-.994h2.195v-1.812h1.235v5.566h-1.235v-2.76zm1.606 6.934v.97h-7.399v-2.806h5.805v-.864h-5.829v-.959h7.052v2.735h-5.804v.924h6.175zm-3.597-4.355c-1.176-.395-2.039-1.199-2.494-2.206-.48 1.127-1.38 2.002-2.652 2.446l-.635-.97c1.691-.553 2.638-1.908 2.638-3.396v-.91h1.236v.91c0 1.367.935 2.64 2.554 3.166l-.647.96zM239.408 139.303h1.247v-10.866h-1.247v10.866zm-5.864-3.574h2.746v-2.65h-2.746v2.65zm0-6.393v2.758h2.746v-2.758h1.235v7.389h-5.205v-7.389h1.224zM242.808 139.975c.815-.336 1.295-.936 1.308-1.644-.05.012-.084.012-.133.012-.491 0-.923-.311-.923-.888 0-.54.432-.886.959-.886.672 0 1.067.563 1.067 1.486 0 1.26-.731 2.232-1.966 2.699l-.312-.78zM157.843 148.227h-1.535v2.746h-1.236v-6.537h1.236v2.77h1.535v1.02zm-8.66 3.273h7.125v3.78h-1.236v-2.783h-5.888v-.997zm4.402-.96c-1.212-.395-2.075-1.221-2.543-2.252-.48 1.138-1.38 2.025-2.65 2.47l-.648-.972c1.715-.577 2.662-1.955 2.662-3.442v-.191h-2.302v-1.008h5.817v1.008h-2.266v.19c0 1.368.91 2.698 2.566 3.25l-.636.948zM162.046 154.15h4.594v-1.199h-4.594v1.199zm4.594-3.38h1.223v4.376h-7.04v-4.376h1.223v1.222h4.594v-1.222zm-3.143-3.311c0-.924-.695-1.512-1.631-1.512-.959 0-1.642.588-1.642 1.512 0 .912.683 1.523 1.642 1.523.936 0 1.631-.611 1.631-1.523zm4.366-3.01v5.805h-1.235v-2.303h-2.003c-.216 1.223-1.319 2.051-2.759 2.051-1.631 0-2.83-1.045-2.83-2.543 0-1.488 1.199-2.531 2.83-2.531 1.428 0 2.519.804 2.759 2.015h2.003v-2.494h1.235zM180.007 149.738h-1.691v5.541h-1.236v-10.83h1.236v4.27h1.69v1.02zm-6.285-2.148c0 1.68 1.067 3.6 2.71 4.378l-.683.971c-1.212-.576-2.135-1.775-2.627-3.142-.48 1.511-1.44 2.806-2.686 3.418l-.707-.983c1.654-.79 2.757-2.842 2.757-4.642v-1.043h-2.362v-1.02h5.889v1.02h-2.291v1.043zM192.055 155.291h1.235v-10.842h-1.235v10.842zm-5.805-8.107c0 .767.672 1.257 1.607 1.257.948 0 1.608-.49 1.608-1.257 0-.756-.66-1.248-1.608-1.248-.935 0-1.607.492-1.607 1.248zm-1.188 0c0-1.332 1.176-2.268 2.795-2.268 1.62 0 2.795.936 2.795 2.268 0 1.341-1.175 2.277-2.795 2.277-1.619 0-2.795-.936-2.795-2.277zm6.37 3.597c-.948.192-1.944.299-2.903.371v3.803h-1.235v-3.73c-1.02.035-1.98.048-2.818.048l-.145-1.019c1.955 0 4.678-.037 7.017-.385l.084.912zM203.047 155.266h1.248v-10.83h-1.248v10.83zm-3.586-7.375c0 1.703 1.056 3.466 2.734 4.197l-.659.959c-1.235-.539-2.182-1.654-2.675-3.01-.479 1.44-1.426 2.615-2.686 3.192l-.684-.95c1.703-.767 2.735-2.601 2.735-4.388v-.623h-2.399v-.997h2.399v-1.607h1.235v1.607h2.351v.997h-2.351v.623zM212.074 149.51h5.157v-3.215h-5.157v3.215zm7.508 3.429v1.008h-9.811v-1.008h4.27v-2.447h-3.178v-5.179h7.58v5.179h-3.167v2.447h4.306zM228.524 155.279h1.235v-10.83h-1.235v10.83zm-5.853-3.791c1.535-.011 3.154-.144 4.857-.492l.132 1.031c-1.859.385-3.61.518-5.289.518h-.924v-7.041h1.224v5.984zM240.847 144.424v10.867H239.6v-5.865h-2.075v-1.02h2.075v-3.982h1.247zm-7.28 7.328c1.727-.012 2.963-.072 4.378-.31l.108.994c-1.548.275-2.902.324-4.87.324h-.851v-7.375h5.025v1.019h-3.79v2.026h3.346v.984h-3.345v2.338zM250.58 151.08h1.235v-6.631h-1.235v6.631zm.071 2.207c0-.672-.875-1.031-2.434-1.031-1.547 0-2.435.359-2.435 1.031 0 .66.888 1.02 2.435 1.02 1.559 0 2.434-.36 2.434-1.02zm1.236 0c0 1.26-1.391 2.004-3.67 2.004s-3.658-.744-3.658-2.004 1.379-2.002 3.658-2.002 3.67.742 3.67 2.002zm-2.29-3.105c-1.703.275-3.167.324-5.242.324h-.912v-3.203h3.718v-1.199h-3.741v-.997h4.953v3.131h-3.706v1.26c1.859 0 3.214-.06 4.785-.324l.145 1.008z" mask="url(#prefix__j)"/>
                <path fill="#FFF" d="M256.637 57.419c0 31.125-25.232 56.357-56.357 56.357s-56.358-25.232-56.358-56.357S169.155 1.062 200.28 1.062c31.125 0 56.357 25.232 56.357 56.357" mask="url(#prefix__j)"/>
                <path fill="#C5C8CF" d="M200.28 1.437c-30.87 0-55.983 25.113-55.983 55.981 0 30.87 25.113 55.983 55.982 55.983 30.87 0 55.982-25.112 55.982-55.982S231.148 1.437 200.28 1.437m0 112.715c-31.282 0-56.732-25.45-56.732-56.733 0-31.282 25.45-56.732 56.732-56.732s56.732 25.45 56.732 56.732-25.45 56.733-56.732 56.733" mask="url(#prefix__j)"/>
                <path fill="#007CF7" d="M173.672 66.368L169.332 62.901 169.332 51.678 173.672 48.211z" mask="url(#prefix__j)"/>
                <path fill="#6FB6FB" d="M181.387 66.368L185.726 62.901 185.726 51.678 181.387 48.211z" mask="url(#prefix__j)"/>
                <path fill="#0065C7" d="M181.387 48.211L177.53 50.744 181.387 53.34zM173.672 48.211L177.529 50.744 173.672 53.34zM181.387 61.239L177.53 63.773 181.387 66.368zM173.672 61.239L177.529 63.773 173.672 66.368z" mask="url(#prefix__j)"/>
                <path fill="#273A5B" d="M213.746 61.313L211.571 54.661 209.622 54.661 207.446 61.316 205.485 54.661 203.438 54.661 206.466 64.05 208.378 64.05 210.551 57.3 212.74 64.05 214.671 64.05 217.699 54.661 215.688 54.661zM230.29 55.362c-.626-.664-1.525-1-2.675-1-.603 0-1.19.155-1.749.463-.464.256-.833.57-1.1.936v-1.1h-1.884v9.39h1.96v-5.18c0-.739.221-1.383.662-1.913.441-.53.972-.788 1.625-.788 1.404 0 2.103.696 2.14 2.122v5.758h1.957v-5.87c0-1.209-.315-2.157-.937-2.818M218.924 64.051L220.881 64.051 220.881 54.371 218.924 54.371zM218.836 52.585L220.969 52.585 220.969 50.453 218.836 50.453z" mask="url(#prefix__j)"/>
                <path fill="#273A5B" d="M205.683 50.442L193.208 50.442 193.208 52.336 198.46 52.336 198.46 64.136 200.43 64.136 200.43 52.336 205.683 52.336z" mask="url(#prefix__j)"/>
                <path fill="#C5C8CF" d="M269.21 56.87L368.816 56.87 368.816 56.12 269.21 56.12z" mask="url(#prefix__j)"/>
                <path fill="#C5C8CF" d="M275.185 56.495L275.185 61.257 271.062 58.876 266.938 56.495 271.062 54.114 275.185 51.733z" mask="url(#prefix__j)"/>
                <path fill="#000" d="M295.71 71.66v1.02h-1.535v3.707h-1.236v-7.94h1.236v3.213h1.535zm-7.148 6.405h6.044v1.007h-7.292V75.57h1.248v2.495zm.168-4.546c.947 0 1.678-.647 1.678-1.642 0-.985-.731-1.63-1.678-1.63-.948 0-1.667.645-1.667 1.63 0 .995.719 1.642 1.667 1.642zm0 1.068c-1.631 0-2.879-1.127-2.879-2.71 0-1.584 1.248-2.699 2.879-2.699 1.642 0 2.89 1.115 2.89 2.7 0 1.582-1.248 2.71-2.89 2.71zM304.495 71.349v-2.89h1.235v7.915h-1.235v-4.005h-1.967v-1.02h1.967zm1.511 6.717v1.007h-7.292V75.69h1.235v2.375h6.057zm-3.418-3.227c-1.199-.407-2.075-1.26-2.53-2.327-.48 1.176-1.392 2.123-2.675 2.566l-.636-.97c1.68-.588 2.662-2.016 2.662-3.48v-.37h-2.29v-.996h5.793v.996h-2.255v.37c0 1.333.923 2.689 2.542 3.25l-.61.96zM318.848 76.338h1.235v-7.879h-1.235v7.879zm1.547 1.727v1.007h-7.388v-3.453h1.247v2.446h6.141zm-3.179-3.178c-1.247-.408-2.158-1.247-2.639-2.315-.479 1.152-1.39 2.074-2.685 2.506l-.649-.959c1.716-.576 2.687-1.978 2.687-3.441v-.397h-2.351v-.995h5.925v.995h-2.315v.397c0 1.379.984 2.698 2.651 3.238l-.624.971zM332.19 71.541v1.02h-1.536v3.717h-1.236v-7.843h1.236v3.106h1.536zm-7.149 6.524h6.045v1.007h-7.293v-3.586h1.248v2.579zm3.478-4.005c-1.403.299-2.675.372-5.002.372h-.875v-5.098h4.822v1.008h-3.587v3.07c2.051-.012 3.214-.072 4.522-.348l.12.996zM345.87 78.186v.994h-7.328v-2.915h5.793v-.897h-5.818v-.986h7.053v2.807h-5.793v.997h6.093zm-4.042-7.306c-.672 1.657-2.267 2.76-4.653 3.3l-.432-1.009c2.566-.55 3.898-1.739 4.065-3.25h-3.477v-.996h4.845c0 .349-.024.684-.084.996h2.243v-1.475h1.235v5.493h-1.235v-.982h-2.65v-.96h2.65V70.88h-2.507zM357.63 73.94h-1.596v5.337h-1.247v-10.83h1.247v4.45h1.596v1.042zm-5.53.492c.276-1.68.3-2.94.3-3.85h-4.293v-.996h5.504v.72c0 .947 0 2.315-.3 4.234l-1.21-.109zm-1.21 1.486c1.127-.047 2.266-.108 3.32-.252l.062.913c-2.231.37-4.714.42-6.61.42l-.131-1.02c.66 0 1.39-.013 2.147-.025v-3.261h1.212v3.225zM313.699 95.265h1.187v-10.83h-1.187v10.83zm-2.207-10.591h1.163v10.087h-1.163v-5.253h-2.135V88.5h2.135v-3.826zm-4.27 7.064c1.343-.011 2.267-.072 3.335-.3l.107 1.02c-1.224.239-2.278.3-3.934.3h-.731v-7.04h4.102v1.007h-2.879v5.013zM324.343 95.301h1.247V84.435h-1.247v10.866zm-6.116-6.249c0 1.703.659 2.722 1.594 2.722.948 0 1.608-1.019 1.608-2.722 0-1.679-.66-2.698-1.608-2.698-.935 0-1.594 1.019-1.594 2.698zm4.389 0c0 2.35-1.176 3.826-2.795 3.826-1.607 0-2.782-1.476-2.782-3.826 0-2.327 1.175-3.814 2.782-3.814 1.619 0 2.795 1.487 2.795 3.814zM336.714 84.422v10.867h-1.247v-5.865h-2.075v-1.02h2.075v-3.982h1.247zm-7.28 7.328c1.727-.012 2.963-.071 4.378-.311l.108.995c-1.548.276-2.902.324-4.87.324h-.851v-7.376h5.025V86.4h-3.79v2.027h3.346v.984h-3.345v2.338z" mask="url(#prefix__j)"/>
                <path fill="#C5C8CF" d="M471.881 50.789L571.487 50.789 571.487 50.039 471.881 50.039z" mask="url(#prefix__j)"/>
                <path fill="#C5C8CF" d="M565.512 50.414L565.512 45.651 569.636 48.033 573.76 50.414 569.636 52.795 565.512 55.176zM470.03 63.854L569.636 63.854 569.636 63.104 470.03 63.104z" mask="url(#prefix__j)"/>
                <path fill="#C5C8CF" d="M476.005 63.478L476.005 68.242 471.881 65.859 467.757 63.478 471.881 61.097 476.005 58.717z" mask="url(#prefix__j)"/>
                <path fill="#000" d="M502.049 78.644v1.02h-1.535v3.706h-1.236v-7.94h1.236v3.214h1.535zm-7.148 6.404h6.044v1.008h-7.292v-3.502h1.248v2.495zm.168-4.546c.947 0 1.678-.646 1.678-1.642 0-.984-.731-1.632-1.678-1.632-.948 0-1.667.648-1.667 1.632 0 .996.719 1.642 1.667 1.642zm0 1.069c-1.631 0-2.88-1.127-2.88-2.712 0-1.581 1.249-2.697 2.88-2.697 1.642 0 2.89 1.115 2.89 2.697 0 1.585-1.248 2.712-2.89 2.712zM510.834 78.332v-2.891h1.235v7.916h-1.235v-4.005h-1.967v-1.02h1.967zm1.511 6.717v1.008h-7.292v-3.383h1.235v2.375h6.057zm-3.418-3.227c-1.199-.408-2.075-1.26-2.53-2.326-.481 1.175-1.392 2.123-2.675 2.566l-.636-.971c1.679-.588 2.662-2.015 2.662-3.478v-.373h-2.29v-.994h5.793v.994h-2.255v.373c0 1.33.923 2.686 2.542 3.25l-.611.959zM525.187 83.321h1.235v-7.88h-1.235v7.88zm1.546 1.728v1.008h-7.387v-3.455h1.247v2.447h6.14zm-3.178-3.179c-1.247-.407-2.159-1.247-2.639-2.314-.479 1.151-1.391 2.075-2.686 2.507l-.648-.96c1.716-.576 2.687-1.979 2.687-3.443v-.395h-2.351v-.995h5.925v.995h-2.315v.395c0 1.38.984 2.699 2.651 3.238l-.624.972zM538.528 78.524v1.02h-1.535v3.717h-1.236v-7.843h1.236v3.106h1.535zm-7.148 6.524h6.044v1.008h-7.292V82.47h1.248v2.578zm3.478-4.005c-1.403.3-2.675.371-5.002.371h-.875v-5.097h4.821v1.007h-3.586v3.07c2.051-.012 3.214-.07 4.522-.348l.12.997zM550.613 81.606h1.248v-6.188h-1.248v6.188zm-5.912-1.991h2.723v-2.53h-2.723v2.53zm4.27 3.611c.095.887 1.487 1.858 3.49 2.075l-.408.935c-1.715-.204-3.059-.9-3.718-1.836-.66.949-2.027 1.632-3.754 1.836l-.408-.935c2.027-.204 3.431-1.153 3.526-2.075h-3.106v-.948h3.106v-.971h1.26v.971h3.105v.948h-3.093zm-5.482-2.626h5.134v-4.498h-5.134V80.6zM505.644 97.522h-1.655v-.995h1.655v-1.294h-1.655v-1.008h1.655V91.43h1.235v8.263h-1.235v-2.17zm1.487 3.526v1.008h-7.304V99h1.248v2.05h6.056zm-6.153-3.67c.792 0 1.332-.418 1.332-1.127 0-.696-.54-1.14-1.332-1.14-.78 0-1.32.444-1.32 1.14 0 .709.54 1.127 1.32 1.127zm0 .972c-1.463 0-2.482-.851-2.482-2.099 0-1.258 1.019-2.099 2.482-2.099 1.476 0 2.495.84 2.495 2.1 0 1.247-1.02 2.098-2.495 2.098zm2.963-4.701h-6.01v-.984h2.436v-1.259h1.235v1.26h2.339v.983zM518.938 94.068v1.02h-1.534v2.818h-1.236V91.43h1.236v2.64h1.534zm-2.639 6.141c0-.707-.875-1.079-2.385-1.079-1.512 0-2.387.372-2.387 1.08 0 .694.875 1.08 2.387 1.08 1.51 0 2.385-.386 2.385-1.08zm1.224 0c0 1.283-1.38 2.05-3.61 2.05-2.231 0-3.61-.767-3.61-2.05 0-1.295 1.379-2.05 3.61-2.05 2.23 0 3.61.755 3.61 2.05zm-2.818-2.723c-1.212-.384-2.076-1.163-2.543-2.17-.48 1.15-1.392 2.074-2.687 2.518l-.624-.97c1.704-.589 2.65-1.98 2.65-3.456v-.215H509.2v-.996h5.816v.996h-2.265v.203c0 1.344.899 2.604 2.553 3.131l-.6.96zM532.583 91.418v10.83h-1.176v-5.541h-1.283v5.014h-1.163V91.646h1.163v4.053h1.283v-4.281h1.176zm-7.664 7.244c1.247-.012 2.231-.072 3.347-.3l.107 1.019c-1.307.252-2.423.301-3.945.301h-.72v-6.969h4.006v1.008h-2.795v4.941zM536.786 100.316c0 .66.887 1.008 2.471 1.008 1.583 0 2.482-.348 2.482-1.008 0-.659-.899-1.007-2.482-1.007-1.584 0-2.47.348-2.47 1.007zm-.097-6.535c0 .707.984 1.115 2.591 1.115 1.608 0 2.58-.408 2.58-1.115 0-.72-.972-1.128-2.58-1.128-1.607 0-2.59.407-2.59 1.128zm6.297 6.535c0 1.248-1.39 1.955-3.729 1.955-2.327 0-3.73-.707-3.73-1.955 0-1.246 1.403-1.967 3.73-1.967 2.338 0 3.73.721 3.73 1.967zm.156-6.535c0 1.295-1.51 2.086-3.862 2.086-2.362 0-3.86-.79-3.86-2.086 0-1.309 1.498-2.1 3.86-2.1 2.351 0 3.862.791 3.862 2.1zm-8.767 3.813h9.8V96.6h-9.8v.995zM503.009 117.168v.996h-7.328v-2.914h5.793v-.9h-5.818v-.983h7.053v2.806h-5.793v.995h6.093zm-4.042-7.303c-.672 1.655-2.267 2.758-4.653 3.297l-.432-1.007c2.566-.551 3.898-1.739 4.065-3.25h-3.478v-.995h4.846c0 .348-.024.684-.084.995h2.243v-1.475h1.235v5.493h-1.235v-.984h-2.651v-.958h2.65v-1.116h-2.506zM514.769 112.923h-1.596v5.337h-1.247v-10.83h1.247v4.449h1.596v1.044zm-5.53.49c.276-1.677.3-2.936.3-3.848h-4.293v-.996h5.504v.72c0 .947 0 2.315-.3 4.234l-1.21-.11zm-1.21 1.489c1.127-.048 2.266-.108 3.32-.251l.062.91c-2.231.373-4.714.42-6.61.42l-.131-1.02c.66 0 1.39-.012 2.147-.023v-3.262h1.212v3.226zM527.238 118.248h1.187v-10.83h-1.187v10.83zm-2.207-10.59h1.163v10.086h-1.163v-5.253h-2.135v-1.008h2.135v-3.825zm-4.27 7.064c1.343-.012 2.267-.072 3.335-.3l.107 1.019c-1.223.241-2.278.3-3.933.3h-.732v-7.04h4.102v1.008h-2.879v5.013zM537.881 118.283h1.247v-10.865h-1.247v10.865zm-6.116-6.248c0 1.703.659 2.723 1.594 2.723.948 0 1.608-1.02 1.608-2.723 0-1.679-.66-2.698-1.608-2.698-.935 0-1.594 1.019-1.594 2.698zm4.389 0c0 2.352-1.175 3.826-2.795 3.826-1.607 0-2.782-1.474-2.782-3.826 0-2.326 1.175-3.813 2.782-3.813 1.62 0 2.795 1.487 2.795 3.813zM550.252 107.406v10.865h-1.247v-5.864h-2.075v-1.02h2.075v-3.98h1.247zm-7.279 7.328c1.726-.013 2.962-.072 4.377-.312l.108.996c-1.548.275-2.902.323-4.869.323h-.852v-7.376h5.025v1.02h-3.789v2.027h3.345v.982h-3.345v2.34zM491.745 22.555l-.348-1.187c-.299-.96-.563-1.944-.839-2.94h-.048c-.252 1.008-.528 1.98-.816 2.94l-.359 1.187h2.41zm.336 1.09h-3.07l-.756 2.519h-1.415l2.926-8.827h1.607l2.927 8.827h-1.476l-.743-2.518zM496.858 21.486h1.331c1.283 0 1.98-.527 1.98-1.595 0-1.067-.697-1.439-1.98-1.439h-1.33v3.034zm3.43 4.678l-2.003-3.563h-1.427v3.563h-1.392v-8.827h2.891c1.823 0 3.19.647 3.19 2.554 0 1.367-.73 2.183-1.846 2.531l2.158 3.742h-1.57zM515.466 19.472v1.02h-1.535v3.706h-1.236v-7.94h1.236v3.214h1.535zm-7.148 6.404h6.044v1.008h-7.292v-3.502h1.248v2.494zm.168-4.546c.947 0 1.678-.646 1.678-1.642 0-.984-.731-1.631-1.678-1.631-.948 0-1.667.647-1.667 1.63 0 .997.719 1.643 1.667 1.643zm0 1.069c-1.631 0-2.88-1.128-2.88-2.711s1.249-2.698 2.88-2.698c1.642 0 2.89 1.115 2.89 2.698s-1.248 2.71-2.89 2.71zM524.251 19.16v-2.89h1.235v7.915h-1.235V20.18h-1.967v-1.02h1.967zm1.511 6.716v1.008h-7.292v-3.382h1.235v2.374h6.057zm-3.418-3.226c-1.199-.408-2.075-1.26-2.53-2.327-.481 1.175-1.392 2.123-2.675 2.566l-.636-.97c1.679-.589 2.662-2.016 2.662-3.479v-.372h-2.29v-.995h5.793v.995h-2.255v.372c0 1.331.923 2.687 2.542 3.25l-.611.96zM538.604 24.149h1.235v-7.88h-1.235v7.88zm1.546 1.727v1.008h-7.387V23.43h1.247v2.446h6.14zm-3.178-3.179c-1.247-.407-2.159-1.246-2.639-2.314-.479 1.152-1.391 2.075-2.686 2.507l-.648-.96c1.716-.576 2.687-1.979 2.687-3.442v-.396h-2.351v-.994h5.925v.994h-2.315v.396c0 1.379.984 2.7 2.651 3.239l-.624.97zM551.946 19.352v1.02h-1.535v3.718h-1.236v-7.843h1.236v3.105h1.535zm-7.148 6.524h6.044v1.008h-7.292v-3.586h1.248v2.578zm3.478-4.004c-1.403.298-2.675.37-5.002.37h-.875v-5.097h4.821v1.008h-3.586v3.07c2.051-.012 3.214-.072 4.522-.348l.12.997zM513.074 43.076h1.187v-10.83h-1.187v10.83zm-2.207-10.591h1.163v10.087h-1.163v-5.254h-2.135v-1.006h2.135v-3.827zm-4.27 7.064c1.343-.012 2.267-.071 3.335-.299l.107 1.02c-1.224.239-2.278.298-3.934.298h-.731v-7.039h4.102v1.007h-2.879v5.013zM523.718 43.111h1.247V32.246h-1.247v10.865zm-6.116-6.248c0 1.703.659 2.723 1.594 2.723.948 0 1.608-1.02 1.608-2.723 0-1.679-.66-2.699-1.608-2.699-.935 0-1.594 1.02-1.594 2.699zm4.389 0c0 2.351-1.176 3.826-2.795 3.826-1.607 0-2.782-1.475-2.782-3.826 0-2.327 1.175-3.814 2.782-3.814 1.619 0 2.795 1.487 2.795 3.814zM536.089 32.233V43.1h-1.247v-5.865h-2.075v-1.02h2.075v-3.98h1.247zm-7.28 7.328c1.727-.013 2.963-.07 4.378-.31l.108.994c-1.548.276-2.902.323-4.87.323h-.851v-7.375h5.025v1.02h-3.79v2.026h3.346v.983h-3.345v2.34z" mask="url(#prefix__j)"/>
            </g>
        </g>
    </g>
</svg>
