<svg xmlns="http://www.w3.org/2000/svg" xmlns:xlink="http://www.w3.org/1999/xlink" width="780" height="380" viewBox="0 0 780 380">
    <defs>
        <path id="okfquvftra" d="M0 0H780V380H0z"/>
        <path id="kdektfc4vc" d="M0 373L757.098 373 757.098 0.315 0 0.315z"/>
        <path id="ogc3ckx5de" d="M0 373L757.098 373 757.098 0.315 0 0.315z"/>
    </defs>
    <g fill="none" fill-rule="evenodd">
        <g>
            <g>
                <g>
                    <g>
                        <g transform="translate(-760 -5323) translate(0 2554) translate(319 636) translate(61 1996) translate(380 137)">
                            <mask id="us2dv9sd8b" fill="#fff">
                                <use xlink:href="#okfquvftra"/>
                            </mask>
                            <use fill="#F8F9FB" xlink:href="#okfquvftra"/>
                            <g mask="url(#us2dv9sd8b)">
                                <g>
                                    <text font-family="NotoSansCJKkr-Medium, Noto Sans CJK KR" font-size="12" font-weight="400" transform="translate(1 -2)">
                                        <tspan x="15.188" y="246.105" fill="#000">Con</tspan> <tspan x="37.795" y="246.105" fill="#000" letter-spacing="-.264">s</tspan> <tspan x="43.028" y="246.105" fill="#000">tru</tspan> <tspan x="60.127" y="246.105" fill="#000" letter-spacing="-.132">c</tspan> <tspan x="66.067" y="246.105" fill="#000">t virtual s</tspan> <tspan x="119.54" y="246.105" fill="#000" letter-spacing="-.18">p</tspan> <tspan x="126.74" y="246.105" fill="#000">a</tspan> <tspan x="133.639" y="246.105" fill="#000" letter-spacing="-.312">c</tspan> <tspan x="139.22" y="246.105" fill="#000">e</tspan>
                                    </text>
                                    <text font-family="NotoSansCJKkr-Medium, Noto Sans CJK KR" font-size="12" font-weight="400" transform="translate(1 -2)">
                                        <tspan x="41.9" y="262.101" fill="#000">in digi</tspan> <tspan x="76.915" y="262.101" fill="#000" letter-spacing="-.287">t</tspan> <tspan x="81.093" y="262.101" fill="#000">al twin</tspan>
                                    </text>
                                    <path stroke="#C5C8CF" stroke-width=".75" d="M177.801 168.814L145.972 168.814" transform="translate(1 -2)"/>
                                    <path fill="#C5C8CF" d="M171.825 168.814L171.825 164.052 175.949 166.433 180.073 168.814 175.949 171.195 171.825 173.577z" transform="translate(1 -2)"/>
                                    <text font-family="NotoSansCJKkr-Medium, Noto Sans CJK KR" font-size="12" font-weight="400" transform="translate(1 -2)">
                                        <tspan x="172.76" y="246.105" fill="#000">Moni</tspan> <tspan x="201.02" y="246.105" fill="#000" letter-spacing="-.204">t</tspan> <tspan x="205.364" y="246.105" fill="#000">oring </tspan> <tspan x="238.208" y="246.105" fill="#000" letter-spacing="-.036">o</tspan> <tspan x="245.504" y="246.105" fill="#000">f p</tspan> <tspan x="259.904" y="246.105" fill="#000" letter-spacing="-.132">r</tspan> <tspan x="264.548" y="246.105" fill="#000">odu</tspan> <tspan x="286.916" y="246.105" fill="#000" letter-spacing="-.132">c</tspan> <tspan x="292.856" y="246.105" fill="#000">tion</tspan>
                                    </text>
                                    <text font-family="NotoSansCJKkr-Medium, Noto Sans CJK KR" font-size="12" font-weight="400" transform="translate(1 -2)">
                                        <tspan x="200.132" y="262.101" fill="#000">p</tspan> <tspan x="207.692" y="262.101" fill="#000" letter-spacing="-.132">r</tspan> <tspan x="212.336" y="262.101" fill="#000">o</tspan> <tspan x="219.704" y="262.101" fill="#000" letter-spacing="-.312">c</tspan> <tspan x="225.284" y="262.101" fill="#000">ess, </tspan> <tspan x="249.86" y="262.101" fill="#000" letter-spacing="-.264">f</tspan> <tspan x="253.472" y="262.101" fill="#000">acility</tspan>
                                    </text>
                                    <text font-family="NotoSansCJKkr-Medium, Noto Sans CJK KR" font-size="12" font-weight="400" transform="translate(1 -2)">
                                        <tspan x="182.768" y="278.097" fill="#000">and </tspan> <tspan x="207.416" y="278.097" fill="#000" letter-spacing="-.072">w</tspan> <tspan x="217.208" y="278.097" fill="#000">or</tspan> <tspan x="229.484" y="278.097" fill="#000" letter-spacing="-.288">k</tspan> <tspan x="235.808" y="278.097" fill="#000">er</tspan> <tspan x="247.496" y="278.097" fill="#000" letter-spacing="-.265">&apos;</tspan> <tspan x="250.543" y="278.097" fill="#000">s lo</tspan> <tspan x="269.947" y="278.097" fill="#000" letter-spacing="-.132">c</tspan> <tspan x="275.887" y="278.097" fill="#000" letter-spacing="-.204">a</tspan> <tspan x="282.379" y="278.097" fill="#000">tion</tspan>
                                    </text>
                                    <text font-family="NotoSansCJKkr-Bold, Noto Sans CJK KR" font-size="18" font-weight="bold" transform="translate(1 -2)">
                                        <tspan x="431.797" y="196.871" fill="#092E6E">Digi</tspan> <tspan x="466.339" y="196.871" fill="#092E6E" letter-spacing="-.412">t</tspan> <tspan x="473.073" y="196.871" fill="#092E6E">al </tspan> <tspan x="493.467" y="196.871" fill="#092E6E" letter-spacing="-.54">T</tspan> <tspan x="503.637" y="196.871" fill="#092E6E">win</tspan>
                                    </text>
                                    <text font-family="NotoSansCJKkr-Bold, Noto Sans CJK KR" font-size="18" font-weight="bold" transform="translate(1 -2)">
                                        <tspan x="426.487" y="218.867" fill="#092E6E">Mana</tspan> <tspan x="474.673" y="218.867" fill="#092E6E" letter-spacing="-.344">g</tspan> <tspan x="484.733" y="218.867" fill="#092E6E">ement</tspan>
                                    </text>
                                    <text font-family="NotoSansCJKkr-Bold, Noto Sans CJK KR" font-size="18" font-weight="bold" transform="translate(1 -2)">
                                        <tspan x="455.305" y="240.863" fill="#092E6E">Se</tspan> <tspan x="476.995" y="240.863" fill="#092E6E" letter-spacing=".25">r</tspan> <tspan x="485.345" y="240.863" fill="#092E6E" letter-spacing="-.142">v</tspan> <tspan x="495.427" y="240.863" fill="#092E6E">er</tspan>
                                    </text>
                                    <path fill="#E6E8EB" d="M461.706 137.097L461.706 168.437 499.539 168.437 499.539 136.807z" transform="translate(1 -2)"/>
                                    <path stroke="#000" stroke-width=".565" d="M461.706 137.097L461.706 168.437 499.539 168.437 499.539 136.807z" transform="translate(1 -2)"/>
                                    <g transform="translate(1 -2) translate(0 .685)">
                                        <path fill="#FFF" d="M460.463 136.36c-1.382 0-2.507-1.125-2.507-2.508v-6.154c0-1.383 1.125-2.508 2.507-2.508h40.176c1.383 0 2.507 1.125 2.507 2.508v6.154c0 1.383-1.124 2.508-2.507 2.508h-40.176z"/>
                                        <path fill="#000" d="M500.639 124.908h-40.176c-1.534 0-2.789 1.256-2.789 2.79v6.155c0 1.534 1.255 2.79 2.789 2.79h40.176c1.534 0 2.79-1.256 2.79-2.79v-6.156c0-1.533-1.256-2.789-2.79-2.789m0 .564c1.227 0 2.225.998 2.225 2.225v6.156c0 1.227-.998 2.225-2.225 2.225h-40.176c-1.226 0-2.224-.998-2.224-2.225v-6.156c0-1.227.998-2.225 2.224-2.225h40.176"/>
                                        <path fill="#FFF" d="M460.463 150.615c-1.382 0-2.507-1.125-2.507-2.508v-6.154c0-1.383 1.125-2.508 2.507-2.508h40.176c1.383 0 2.507 1.125 2.507 2.508v6.154c0 1.383-1.124 2.508-2.507 2.508h-40.176z"/>
                                        <path fill="#000" d="M500.639 139.164h-40.176c-1.534 0-2.789 1.254-2.789 2.79v6.153c0 1.536 1.255 2.79 2.789 2.79h40.176c1.534 0 2.79-1.254 2.79-2.79v-6.154c0-1.535-1.256-2.789-2.79-2.789m0 .564c1.227 0 2.225.998 2.225 2.225v6.154c0 1.227-.998 2.225-2.225 2.225h-40.176c-1.226 0-2.224-.998-2.224-2.225v-6.154c0-1.227.998-2.225 2.224-2.225h40.176"/>
                                        <path fill="#FFF" d="M460.463 164.79c-1.382 0-2.507-1.125-2.507-2.507v-6.155c0-1.382 1.125-2.507 2.507-2.507h40.176c1.383 0 2.507 1.125 2.507 2.507v6.155c0 1.382-1.124 2.507-2.507 2.507h-40.176z"/>
                                        <path fill="#000" d="M500.639 153.338h-40.176c-1.534 0-2.789 1.256-2.789 2.79v6.155c0 1.534 1.255 2.789 2.789 2.789h40.176c1.534 0 2.79-1.255 2.79-2.79v-6.154c0-1.534-1.256-2.79-2.79-2.79m0 .564c1.227 0 2.225.998 2.225 2.226v6.155c0 1.227-.998 2.225-2.225 2.225h-40.176c-1.226 0-2.224-.998-2.224-2.225v-6.155c0-1.228.998-2.226 2.224-2.226h40.176"/>
                                        <path fill="#0A51B7" d="M486.156 132.38c-.885 0-1.605-.72-1.605-1.604 0-.885.72-1.606 1.605-1.606s1.605.72 1.605 1.606c0 .884-.72 1.605-1.605 1.605"/>
                                        <path fill="#000" d="M486.156 128.889c-1.042 0-1.888.844-1.888 1.887 0 1.043.846 1.887 1.888 1.887 1.042 0 1.887-.844 1.887-1.887 0-1.043-.845-1.887-1.887-1.887m0 .564c.73 0 1.323.593 1.323 1.323 0 .729-.594 1.323-1.323 1.323s-1.323-.594-1.323-1.323c0-.73.594-1.323 1.323-1.323"/>
                                        <path fill="#0A51B7" d="M491.977 132.38c-.885 0-1.605-.72-1.605-1.604 0-.885.72-1.606 1.605-1.606s1.605.72 1.605 1.606c0 .884-.72 1.605-1.605 1.605"/>
                                        <path fill="#000" d="M491.977 128.889c-1.042 0-1.887.844-1.887 1.887 0 1.043.845 1.887 1.887 1.887s1.888-.844 1.888-1.887c0-1.043-.846-1.887-1.888-1.887m0 .564c.73 0 1.323.593 1.323 1.323 0 .729-.594 1.323-1.323 1.323s-1.323-.594-1.323-1.323c0-.73.594-1.323 1.323-1.323"/>
                                        <path fill="#0A51B7" d="M497.799 132.38c-.885 0-1.605-.72-1.605-1.604 0-.885.72-1.606 1.605-1.606s1.605.72 1.605 1.606c0 .884-.72 1.605-1.605 1.605"/>
                                        <path fill="#000" d="M497.8 128.889c-1.043 0-1.889.844-1.889 1.887 0 1.043.846 1.887 1.888 1.887 1.042 0 1.887-.844 1.887-1.887 0-1.043-.845-1.887-1.887-1.887m0 .564c.73 0 1.323.593 1.323 1.323 0 .729-.594 1.323-1.323 1.323s-1.323-.594-1.323-1.323c0-.73.594-1.323 1.323-1.323"/>
                                        <path fill="#0A51B7" d="M486.156 146.636c-.885 0-1.605-.721-1.605-1.605 0-.885.72-1.606 1.605-1.606s1.605.72 1.605 1.606c0 .884-.72 1.605-1.605 1.605"/>
                                        <path fill="#000" d="M486.156 143.143c-1.042 0-1.888.846-1.888 1.888 0 1.042.846 1.887 1.888 1.887 1.042 0 1.887-.845 1.887-1.887s-.845-1.888-1.887-1.888m0 .564c.73 0 1.323.594 1.323 1.324 0 .729-.594 1.323-1.323 1.323s-1.323-.594-1.323-1.323c0-.73.594-1.324 1.323-1.324"/>
                                        <path fill="#0A51B7" d="M491.977 146.636c-.885 0-1.605-.721-1.605-1.605 0-.885.72-1.606 1.605-1.606s1.605.72 1.605 1.606c0 .884-.72 1.605-1.605 1.605"/>
                                        <path fill="#000" d="M491.977 143.143c-1.042 0-1.887.846-1.887 1.888 0 1.042.845 1.887 1.887 1.887s1.888-.845 1.888-1.887-.846-1.888-1.888-1.888m0 .564c.73 0 1.323.594 1.323 1.324 0 .729-.594 1.323-1.323 1.323s-1.323-.594-1.323-1.323c0-.73.594-1.324 1.323-1.324"/>
                                        <path fill="#0A51B7" d="M497.799 146.636c-.885 0-1.605-.721-1.605-1.605 0-.885.72-1.606 1.605-1.606s1.605.72 1.605 1.606c0 .884-.72 1.605-1.605 1.605"/>
                                        <path fill="#000" d="M497.8 143.143c-1.043 0-1.889.846-1.889 1.888 0 1.042.846 1.887 1.888 1.887 1.042 0 1.887-.845 1.887-1.887s-.845-1.888-1.887-1.888m0 .564c.73 0 1.323.594 1.323 1.324 0 .729-.594 1.323-1.323 1.323s-1.323-.594-1.323-1.323c0-.73.594-1.324 1.323-1.324"/>
                                        <path fill="#0A51B7" d="M486.156 160.81c-.885 0-1.605-.72-1.605-1.605s.72-1.605 1.605-1.605 1.605.72 1.605 1.606c0 .883-.72 1.605-1.605 1.605"/>
                                        <path fill="#000" d="M486.156 157.318c-1.042 0-1.888.845-1.888 1.887 0 1.043.846 1.887 1.888 1.887 1.042 0 1.887-.844 1.887-1.887 0-1.042-.845-1.887-1.887-1.887m0 .564c.73 0 1.323.593 1.323 1.323s-.594 1.323-1.323 1.323-1.323-.594-1.323-1.323c0-.73.594-1.323 1.323-1.323"/>
                                        <path fill="#0A51B7" d="M491.977 160.81c-.885 0-1.605-.72-1.605-1.605s.72-1.605 1.605-1.605 1.605.72 1.605 1.606c0 .883-.72 1.605-1.605 1.605"/>
                                        <path fill="#000" d="M491.977 157.318c-1.042 0-1.887.845-1.887 1.887 0 1.043.845 1.887 1.887 1.887s1.888-.844 1.888-1.887c0-1.042-.846-1.887-1.888-1.887m0 .564c.73 0 1.323.593 1.323 1.323s-.594 1.323-1.323 1.323-1.323-.594-1.323-1.323c0-.73.594-1.323 1.323-1.323"/>
                                        <path fill="#0A51B7" d="M497.799 160.81c-.885 0-1.605-.72-1.605-1.605s.72-1.605 1.605-1.605 1.605.72 1.605 1.606c0 .883-.72 1.605-1.605 1.605"/>
                                        <path fill="#000" d="M497.8 157.318c-1.043 0-1.889.845-1.889 1.887 0 1.043.846 1.887 1.888 1.887 1.042 0 1.887-.844 1.887-1.887 0-1.042-.845-1.887-1.887-1.887m0 .564c.73 0 1.323.593 1.323 1.323s-.594 1.323-1.323 1.323-1.323-.594-1.323-1.323c0-.73.594-1.323 1.323-1.323"/>
                                        <g>
                                            <path fill="#FFF" d="M0.51 0.678L0.51 6.873" transform="translate(462 127)"/>
                                            <path stroke="#000" stroke-width=".565" d="M0.51 0.678L0.51 6.873" transform="translate(462 127)"/>
                                        </g>
                                        <g>
                                            <path fill="#FFF" d="M0.711 0.678L0.711 6.873" transform="translate(465 127)"/>
                                            <path stroke="#000" stroke-width=".565" d="M0.711 0.678L0.711 6.873" transform="translate(465 127)"/>
                                        </g>
                                        <g>
                                            <path fill="#FFF" d="M0.912 0.678L0.912 6.873" transform="translate(468 127)"/>
                                            <path stroke="#000" stroke-width=".565" d="M0.912 0.678L0.912 6.873" transform="translate(468 127)"/>
                                        </g>
                                        <g>
                                            <path fill="#FFF" d="M1.113 0.678L1.113 6.873" transform="translate(471 127)"/>
                                            <path stroke="#000" stroke-width=".565" d="M1.113 0.678L1.113 6.873" transform="translate(471 127)"/>
                                        </g>
                                        <g>
                                            <path fill="#FFF" d="M1.314 0.678L1.314 6.873" transform="translate(474 127)"/>
                                            <path stroke="#000" stroke-width=".565" d="M1.314 0.678L1.314 6.873" transform="translate(474 127)"/>
                                        </g>
                                        <g>
                                            <path fill="#FFF" d="M0.515 0.678L0.515 6.873" transform="translate(478 127)"/>
                                            <path stroke="#000" stroke-width=".565" d="M0.515 0.678L0.515 6.873" transform="translate(478 127)"/>
                                        </g>
                                        <g>
                                            <path fill="#FFF" d="M1.11 0.678L1.11 6.873" transform="translate(463 127)"/>
                                            <path stroke="#000" stroke-width=".565" d="M1.11 0.678L1.11 6.873" transform="translate(463 127)"/>
                                        </g>
                                        <g>
                                            <path fill="#FFF" d="M1.311 0.678L1.311 6.873" transform="translate(466 127)"/>
                                            <path stroke="#000" stroke-width=".565" d="M1.311 0.678L1.311 6.873" transform="translate(466 127)"/>
                                        </g>
                                        <g>
                                            <path fill="#FFF" d="M0.512 0.678L0.512 6.873" transform="translate(470 127)"/>
                                            <path stroke="#000" stroke-width=".565" d="M0.512 0.678L0.512 6.873" transform="translate(470 127)"/>
                                        </g>
                                        <g>
                                            <path fill="#FFF" d="M0.714 0.678L0.714 6.873" transform="translate(473 127)"/>
                                            <path stroke="#000" stroke-width=".565" d="M0.714 0.678L0.714 6.873" transform="translate(473 127)"/>
                                        </g>
                                        <g>
                                            <path fill="#FFF" d="M0.915 0.678L0.915 6.873" transform="translate(476 127)"/>
                                            <path stroke="#000" stroke-width=".565" d="M0.915 0.678L0.915 6.873" transform="translate(476 127)"/>
                                        </g>
                                        <g>
                                            <path fill="#FFF" d="M0.51 0.933L0.51 7.128" transform="translate(462 141)"/>
                                            <path stroke="#000" stroke-width=".565" d="M0.51 0.933L0.51 7.128" transform="translate(462 141)"/>
                                        </g>
                                        <g>
                                            <path fill="#FFF" d="M0.711 0.933L0.711 7.128" transform="translate(465 141)"/>
                                            <path stroke="#000" stroke-width=".565" d="M0.711 0.933L0.711 7.128" transform="translate(465 141)"/>
                                        </g>
                                        <g>
                                            <path fill="#FFF" d="M0.912 0.933L0.912 7.128" transform="translate(468 141)"/>
                                            <path stroke="#000" stroke-width=".565" d="M0.912 0.933L0.912 7.128" transform="translate(468 141)"/>
                                        </g>
                                        <g>
                                            <path fill="#FFF" d="M1.113 0.933L1.113 7.128" transform="translate(471 141)"/>
                                            <path stroke="#000" stroke-width=".565" d="M1.113 0.933L1.113 7.128" transform="translate(471 141)"/>
                                        </g>
                                        <g>
                                            <path fill="#FFF" d="M1.314 0.933L1.314 7.128" transform="translate(474 141)"/>
                                            <path stroke="#000" stroke-width=".565" d="M1.314 0.933L1.314 7.128" transform="translate(474 141)"/>
                                        </g>
                                        <g>
                                            <path fill="#FFF" d="M0.515 0.933L0.515 7.128" transform="translate(478 141)"/>
                                            <path stroke="#000" stroke-width=".565" d="M0.515 0.933L0.515 7.128" transform="translate(478 141)"/>
                                        </g>
                                        <g>
                                            <path fill="#FFF" d="M1.11 0.933L1.11 7.128" transform="translate(463 141)"/>
                                            <path stroke="#000" stroke-width=".565" d="M1.11 0.933L1.11 7.128" transform="translate(463 141)"/>
                                        </g>
                                        <g>
                                            <path fill="#FFF" d="M1.311 0.933L1.311 7.128" transform="translate(466 141)"/>
                                            <path stroke="#000" stroke-width=".565" d="M1.311 0.933L1.311 7.128" transform="translate(466 141)"/>
                                        </g>
                                        <g>
                                            <path fill="#FFF" d="M0.512 0.933L0.512 7.128" transform="translate(470 141)"/>
                                            <path stroke="#000" stroke-width=".565" d="M0.512 0.933L0.512 7.128" transform="translate(470 141)"/>
                                        </g>
                                        <g>
                                            <path fill="#FFF" d="M0.714 0.933L0.714 7.128" transform="translate(473 141)"/>
                                            <path stroke="#000" stroke-width=".565" d="M0.714 0.933L0.714 7.128" transform="translate(473 141)"/>
                                        </g>
                                        <g>
                                            <path fill="#FFF" d="M0.915 0.933L0.915 7.128" transform="translate(476 141)"/>
                                            <path stroke="#000" stroke-width=".565" d="M0.915 0.933L0.915 7.128" transform="translate(476 141)"/>
                                        </g>
                                        <g>
                                            <path fill="#FFF" d="M0.51 0.188L0.51 6.383" transform="translate(462 156)"/>
                                            <path stroke="#000" stroke-width=".565" d="M0.51 0.188L0.51 6.383" transform="translate(462 156)"/>
                                        </g>
                                        <g>
                                            <path fill="#FFF" d="M0.711 0.188L0.711 6.383" transform="translate(465 156)"/>
                                            <path stroke="#000" stroke-width=".565" d="M0.711 0.188L0.711 6.383" transform="translate(465 156)"/>
                                        </g>
                                        <g>
                                            <path fill="#FFF" d="M0.912 0.188L0.912 6.383" transform="translate(468 156)"/>
                                            <path stroke="#000" stroke-width=".565" d="M0.912 0.188L0.912 6.383" transform="translate(468 156)"/>
                                        </g>
                                        <g>
                                            <path fill="#FFF" d="M1.113 0.188L1.113 6.383" transform="translate(471 156)"/>
                                            <path stroke="#000" stroke-width=".565" d="M1.113 0.188L1.113 6.383" transform="translate(471 156)"/>
                                        </g>
                                        <g>
                                            <path fill="#FFF" d="M1.314 0.188L1.314 6.383" transform="translate(474 156)"/>
                                            <path stroke="#000" stroke-width=".565" d="M1.314 0.188L1.314 6.383" transform="translate(474 156)"/>
                                        </g>
                                        <g>
                                            <path fill="#FFF" d="M0.515 0.188L0.515 6.383" transform="translate(478 156)"/>
                                            <path stroke="#000" stroke-width=".565" d="M0.515 0.188L0.515 6.383" transform="translate(478 156)"/>
                                        </g>
                                        <g>
                                            <path fill="#FFF" d="M1.11 0.188L1.11 6.383" transform="translate(463 156)"/>
                                            <path stroke="#000" stroke-width=".565" d="M1.11 0.188L1.11 6.383" transform="translate(463 156)"/>
                                        </g>
                                        <g>
                                            <path fill="#FFF" d="M1.311 0.188L1.311 6.383" transform="translate(466 156)"/>
                                            <path stroke="#000" stroke-width=".565" d="M1.311 0.188L1.311 6.383" transform="translate(466 156)"/>
                                        </g>
                                        <g>
                                            <path fill="#FFF" d="M0.512 0.188L0.512 6.383" transform="translate(470 156)"/>
                                            <path stroke="#000" stroke-width=".565" d="M0.512 0.188L0.512 6.383" transform="translate(470 156)"/>
                                        </g>
                                        <g>
                                            <path fill="#FFF" d="M0.714 0.188L0.714 6.383" transform="translate(473 156)"/>
                                            <path stroke="#000" stroke-width=".565" d="M0.714 0.188L0.714 6.383" transform="translate(473 156)"/>
                                        </g>
                                        <g>
                                            <path fill="#FFF" d="M0.915 0.188L0.915 6.383" transform="translate(476 156)"/>
                                            <path stroke="#000" stroke-width=".565" d="M0.915 0.188L0.915 6.383" transform="translate(476 156)"/>
                                        </g>
                                        <path fill="#E6E8EB" d="M495.348 156.322s.186-1.193 1.876-2.007c1.69-.813 5.93-1.964 11.11-1.249 5.179.715 6.54 2 6.54 2l.622 1.377v15.146s-.685 1.814-4.159 2.565c-3.472.751-10.388 1.002-13.705-.53 0 0-2.098-.878-2.284-2.192v-15.11z"/>
                                        <path stroke="#000" stroke-width=".565" d="M515.496 156.188s-.778-3.346-10.377-3.346c-9.6 0-9.772 3.415-9.772 3.415v15.213s1.055 3.439 10.069 3.439c9.013 0 10.08-3.44 10.08-3.44v-15.281z"/>
                                        <path stroke="#000" stroke-width=".565" d="M495.348 161.637s1.125 3.296 10.204 3.209c9.08-.086 9.944-3.21 9.944-3.21M495.348 166.594s1.125 3.297 10.204 3.21c9.08-.087 9.944-3.21 9.944-3.21M495.348 156.679s1.125 3.297 10.204 3.21c9.08-.087 9.944-3.21 9.944-3.21"/>
                                        <path fill="#FFF" d="M137.394 168.129c0 31.125-25.232 56.357-56.357 56.357S24.68 199.254 24.68 168.129s25.232-56.356 56.357-56.356 56.357 25.23 56.357 56.356"/>
                                        <path stroke="#C5C8CF" stroke-width=".75" d="M137.394 168.129c0 31.125-25.232 56.357-56.357 56.357S24.68 199.254 24.68 168.129s25.232-56.356 56.357-56.356 56.357 25.23 56.357 56.356z"/>
                                        <path fill="#E6E8EB" d="M81.135 153.616L81.135 162.08 68.792 162.08 68.792 153.616 63.431 153.616 63.431 178.316 68.191 178.316 68.792 178.316 81.135 178.316 91.518 178.316 98.643 178.316 98.643 156.813 92.774 153.616 92.774 156.766 86.98 153.616 86.98 156.766z"/>
                                        <path stroke="#000" stroke-width=".779" d="M81.135 153.616L81.135 162.08 68.792 162.08 68.792 153.616 63.431 153.616 63.431 178.316 68.191 178.316 68.792 178.316 81.135 178.316 91.518 178.316 98.643 178.316 98.643 156.813 92.774 153.616 92.774 156.766 86.98 153.616 86.98 156.766z"/>
                                        <mask id="kn85rjgjed" fill="#fff">
                                            <use xlink:href="#kdektfc4vc"/>
                                        </mask>
                                        <path fill="#FFF" d="M63.432 178.316L68.777 178.316 68.777 153.616 63.432 153.616z" mask="url(#kn85rjgjed)"/>
                                        <path stroke="#000" stroke-width=".779" d="M63.432 178.316L68.777 178.316 68.777 153.616 63.432 153.616z" mask="url(#kn85rjgjed)"/>
                                        <g mask="url(#kn85rjgjed)">
                                            <g>
                                                <path fill="#FFF" d="M0.431 0.531L5.62 0.531" transform="translate(63 156)"/>
                                                <path stroke="#000" stroke-width=".779" d="M0.431 0.531L5.62 0.531" transform="translate(63 156)"/>
                                            </g>
                                        </g>
                                        <path fill="#FFF" d="M68.776 178.316L91.711 178.316 91.711 162.08 68.776 162.08z" mask="url(#kn85rjgjed)"/>
                                        <path stroke="#000" stroke-width=".776" d="M68.776 178.316L91.711 178.316 91.711 162.08 68.776 162.08z" mask="url(#kn85rjgjed)"/>
                                        <path fill="#E6E8EB" d="M74.468 172.048h-2.346c-.374 0-.677-.303-.677-.676v-2.346c0-.374.303-.677.677-.677h2.346c.374 0 .676.303.676.677v2.346c0 .373-.302.676-.676.676" mask="url(#kn85rjgjed)"/>
                                        <path stroke="#000" stroke-width=".779" d="M74.468 172.048h-2.346c-.374 0-.677-.303-.677-.676v-2.346c0-.374.303-.677.677-.677h2.346c.374 0 .676.303.676.677v2.346c0 .373-.302.676-.676.676z" mask="url(#kn85rjgjed)"/>
                                        <path fill="#E6E8EB" d="M81.31 172.048h-2.347c-.373 0-.676-.303-.676-.676v-2.346c0-.374.303-.677.676-.677h2.347c.374 0 .676.303.676.677v2.346c0 .373-.302.676-.676.676" mask="url(#kn85rjgjed)"/>
                                        <path stroke="#000" stroke-width=".779" d="M81.31 172.048h-2.347c-.373 0-.676-.303-.676-.676v-2.346c0-.374.303-.677.676-.677h2.347c.374 0 .676.303.676.677v2.346c0 .373-.302.676-.676.676z" mask="url(#kn85rjgjed)"/>
                                        <path fill="#E6E8EB" d="M88.153 172.048h-2.346c-.374 0-.676-.303-.676-.676v-2.346c0-.374.302-.677.676-.677h2.346c.374 0 .677.303.677.677v2.346c0 .373-.303.676-.677.676" mask="url(#kn85rjgjed)"/>
                                        <path stroke="#000" stroke-width=".779" d="M88.153 172.048h-2.346c-.374 0-.676-.303-.676-.676v-2.346c0-.374.302-.677.676-.677h2.346c.374 0 .677.303.677.677v2.346c0 .373-.303.676-.677.676z" mask="url(#kn85rjgjed)"/>
                                        <g mask="url(#kn85rjgjed)">
                                            <g>
                                                <path fill="#FFF" d="M0.777 1.059L23.518 1.059" transform="translate(68 164)"/>
                                                <path stroke="#000" stroke-width=".779" d="M0.777 1.059L23.518 1.059" transform="translate(68 164)"/>
                                            </g>
                                        </g>
                                        <path stroke="#000" stroke-width=".779" d="M100.435 143.434L104.147 143.434 104.147 147.147M61.68 143.434L57.968 143.434 57.968 147.147M61.68 188.492L57.968 188.492 57.968 184.779M100.435 188.492L104.147 188.492 104.147 184.779" mask="url(#kn85rjgjed)"/>
                                        <path fill="#0A51B7" d="M63.432 157.211L68.777 157.211 68.777 153.616 63.432 153.616z" mask="url(#kn85rjgjed)"/>
                                        <path stroke="#000" stroke-width=".779" d="M63.432 157.211L68.777 157.211 68.777 153.616 63.432 153.616z" mask="url(#kn85rjgjed)"/>
                                        <path fill="#FFF" d="M300.941 168.246c0 31.125-25.232 56.357-56.357 56.357s-56.357-25.232-56.357-56.357 25.232-56.357 56.357-56.357 56.357 25.232 56.357 56.357" mask="url(#kn85rjgjed)"/>
                                        <path stroke="#C5C8CF" stroke-width=".75" d="M300.941 168.246c0 31.125-25.232 56.357-56.357 56.357s-56.357-25.232-56.357-56.357 25.232-56.357 56.357-56.357 56.357 25.232 56.357 56.357z" mask="url(#kn85rjgjed)"/>
                                        <path fill="#007CF7" d="M217.976 177.195L213.637 173.728 213.637 162.505 217.976 159.037z" mask="url(#kn85rjgjed)"/>
                                        <path fill="#6FB6FB" d="M225.692 177.195L230.031 173.728 230.031 162.505 225.692 159.037z" mask="url(#kn85rjgjed)"/>
                                        <path fill="#0065C7" d="M225.692 159.038L221.834 161.571 225.692 164.167zM217.976 159.038L221.834 161.571 217.976 164.167zM225.692 172.066L221.834 174.6 225.692 177.195zM217.976 172.066L221.834 174.6 217.976 177.195z" mask="url(#kn85rjgjed)"/>
                                        <path fill="#273A5B" d="M258.051 172.141L255.876 165.489 253.927 165.489 251.751 172.143 249.791 165.489 247.743 165.489 250.771 174.878 252.682 174.878 254.855 168.128 257.046 174.878 258.976 174.878 262.004 165.489 259.993 165.489zM274.594 166.19c-.625-.665-1.524-1-2.674-1-.602 0-1.191.155-1.748.463-.464.256-.833.57-1.1.936v-1.1h-1.885v9.388h1.959v-5.18c0-.738.223-1.382.663-1.911.44-.53.973-.788 1.626-.788 1.404 0 2.103.696 2.138 2.121v5.758h1.959v-5.87c0-1.209-.315-2.156-.938-2.817M263.229 174.878L265.186 174.878 265.186 165.198 263.229 165.198zM263.141 163.412L265.274 163.412 265.274 161.28 263.141 161.28z" mask="url(#kn85rjgjed)"/>
                                        <path fill="#273A5B" d="M249.987 161.269L237.512 161.269 237.512 163.163 242.765 163.163 242.765 174.964 244.734 174.964 244.734 163.163 249.987 163.163z" mask="url(#kn85rjgjed)"/>
                                    </g>
                                    <text font-family="NotoSansCJKkr-Medium, Noto Sans CJK KR" font-size="12" font-weight="400" transform="translate(1 -2)">
                                        <tspan x="528.437" y="266.675" fill="#000">D</tspan> <tspan x="536.824" y="266.675" fill="#000" letter-spacing="-.204">a</tspan> <tspan x="543.317" y="266.675" fill="#000" letter-spacing="-.288">t</tspan> <tspan x="547.492" y="266.675" fill="#000">a f</tspan> <tspan x="561.232" y="266.675" fill="#000" letter-spacing="-.132">r</tspan> <tspan x="565.876" y="266.675" fill="#000">om senso</tspan> <tspan x="620.404" y="266.675" fill="#000" letter-spacing="-.072">r</tspan> <tspan x="625.168" y="266.675" fill="#000">s</tspan>
                                    </text>
                                    <text font-family="NotoSansCJKkr-Medium, Noto Sans CJK KR" font-size="12" font-weight="400" transform="translate(1 -2)">
                                        <tspan x="528.328" y="60.311" fill="#000">Mana</tspan> <tspan x="559.577" y="60.311" fill="#000" letter-spacing="-.204">g</tspan> <tspan x="566.105" y="60.311" fill="#000">ement d</tspan> <tspan x="613.468" y="60.311" fill="#000" letter-spacing="-.204">a</tspan> <tspan x="619.961" y="60.311" fill="#000" letter-spacing="-.288">t</tspan> <tspan x="624.136" y="60.311" fill="#000">a</tspan>
                                    </text>
                                    <text font-family="NotoSansCJKkr-Medium, Noto Sans CJK KR" font-size="12" font-weight="400" transform="translate(1 -2)">
                                        <tspan x="647.513" y="325.355" fill="#000">D</tspan> <tspan x="655.9" y="325.355" fill="#000" letter-spacing="-.204">a</tspan> <tspan x="662.393" y="325.355" fill="#000" letter-spacing="-.288">t</tspan> <tspan x="666.568" y="325.355" fill="#000">a </tspan> <tspan x="676.168" y="325.355" fill="#000" letter-spacing="-.312">c</tspan> <tspan x="681.749" y="325.355" fill="#000">olle</tspan> <tspan x="703.048" y="325.355" fill="#000" letter-spacing="-.132">c</tspan> <tspan x="708.989" y="325.355" fill="#000">tion </tspan> <tspan x="734.74" y="325.355" fill="#000" letter-spacing="-.036">o</tspan> <tspan x="742.037" y="325.355" fill="#000">f</tspan>
                                    </text>
                                    <text font-family="NotoSansCJKkr-Medium, Noto Sans CJK KR" font-size="12" font-weight="400" transform="translate(1 -2)">
                                        <tspan x="665.777" y="341.351" fill="#000">equipment</tspan>
                                    </text>
                                    <text font-family="NotoSansCJKkr-Medium, Noto Sans CJK KR" font-size="12" font-weight="400" transform="translate(1 -2)">
                                        <tspan x="642.26" y="357.36" fill="#000">&amp; </tspan> <tspan x="653.42" y="357.36" fill="#000" letter-spacing="-.073">w</tspan> <tspan x="663.211" y="357.36" fill="#000">or</tspan> <tspan x="675.487" y="357.36" fill="#000" letter-spacing="-.288">k</tspan> <tspan x="681.811" y="357.36" fill="#000">er</tspan> <tspan x="693.499" y="357.36" fill="#000" letter-spacing="-.265">&apos;</tspan> <tspan x="696.546" y="357.36" fill="#000">s lo</tspan> <tspan x="715.95" y="357.36" fill="#000" letter-spacing="-.131">c</tspan> <tspan x="721.891" y="357.36" fill="#000" letter-spacing="-.205">a</tspan> <tspan x="728.382" y="357.36" fill="#000">tion</tspan>
                                    </text>
                                    <text font-family="NotoSansCJKkr-Medium, Noto Sans CJK KR" font-size="12" font-weight="400" transform="translate(1 -2)">
                                        <tspan x="642.014" y="153.543" fill="#000">P</tspan> <tspan x="649.778" y="153.543" fill="#000" letter-spacing="-.132">r</tspan> <tspan x="654.422" y="153.543" fill="#000">odu</tspan> <tspan x="676.79" y="153.543" fill="#000" letter-spacing="-.132">c</tspan> <tspan x="682.73" y="153.543" fill="#000">tion p</tspan> <tspan x="716.042" y="153.543" fill="#000" letter-spacing="-.132">r</tspan> <tspan x="720.686" y="153.543" fill="#000">o</tspan> <tspan x="728.054" y="153.543" fill="#000" letter-spacing="-.312">c</tspan> <tspan x="733.634" y="153.543" fill="#000">ess</tspan>
                                    </text>
                                    <g>
                                        <text fill="#000" font-family="NotoSansCJKkr-Medium, Noto Sans CJK KR" font-size="12" font-weight="400" transform="translate(1 -2) translate(309 18.685)">
                                            <tspan x="328.556" y="150.858">mana</tspan> <tspan x="361.148" y="150.858" letter-spacing="-.205">g</tspan> <tspan x="367.675" y="150.858">ement sy</tspan> <tspan x="419.767" y="150.858" letter-spacing="-.264">s</tspan> <tspan x="424.998" y="150.858" letter-spacing="-.204">t</tspan> <tspan x="429.342" y="150.858">em</tspan>
                                        </text>
                                        <path stroke="#C5C8CF" stroke-width=".75" d="M333.606 229.136L252.223 229.136 252.223 143.241 252.223 57.347 333.606 57.347M227.957 143.241L252.223 143.241" transform="translate(1 -2) translate(309 18.685)"/>
                                        <path fill="#C5C8CF" d="M234.01 143.241L234.01 148.003 229.886 145.622 225.762 143.241 229.886 140.86 234.01 138.478z" transform="translate(1 -2) translate(309 18.685)"/>
                                        <path fill="#FFF" d="M446.32 57.031c0 31.126-25.231 56.357-56.356 56.357-31.126 0-56.358-25.23-56.358-56.357 0-31.125 25.232-56.356 56.358-56.356 31.125 0 56.356 25.231 56.356 56.356" transform="translate(1 -2) translate(309 18.685)"/>
                                        <path stroke="#C5C8CF" stroke-width=".75" d="M446.32 57.031c0 31.126-25.231 56.357-56.356 56.357-31.126 0-56.358-25.23-56.358-56.357 0-31.125 25.232-56.356 56.358-56.356 31.125 0 56.356 25.231 56.356 56.356z" transform="translate(1 -2) translate(309 18.685)"/>
                                        <path fill="#E6E8EB" d="M372.323 46.443L372.323 72.959 404.332 72.959 404.332 46.197z" transform="translate(1 -2) translate(309 18.685)"/>
                                        <path stroke="#000" stroke-width=".478" d="M372.323 46.443L372.323 72.959 404.332 72.959 404.332 46.197z" transform="translate(1 -2) translate(309 18.685)"/>
                                        <path fill="#FFF" d="M371.27 46.398c-1.17 0-2.12-.95-2.12-2.12V39.07c0-1.17.95-2.12 2.12-2.12h33.993c1.17 0 2.12.95 2.12 2.12v5.207c0 1.17-.95 2.121-2.12 2.121H371.27z" transform="translate(1 -2) translate(309 18.685)"/>
                                        <path fill="#000" d="M405.263 36.71h-33.992c-1.298 0-2.36 1.062-2.36 2.36v5.207c0 1.299 1.062 2.361 2.36 2.361h33.992c1.298 0 2.36-1.062 2.36-2.361V39.07c0-1.298-1.062-2.36-2.36-2.36m0 .478c1.038 0 1.882.844 1.882 1.882v5.207c0 1.038-.844 1.883-1.882 1.883h-33.992c-1.038 0-1.882-.845-1.882-1.883V39.07c0-1.038.844-1.882 1.882-1.882h33.992" transform="translate(1 -2) translate(309 18.685)"/>
                                        <path fill="#FFF" d="M371.27 58.459c-1.17 0-2.12-.951-2.12-2.12v-5.208c0-1.17.95-2.121 2.12-2.121h33.993c1.17 0 2.12.951 2.12 2.121v5.208c0 1.169-.95 2.12-2.12 2.12H371.27z" transform="translate(1 -2) translate(309 18.685)"/>
                                        <path fill="#000" d="M405.263 48.772h-33.992c-1.298 0-2.36 1.062-2.36 2.358v5.207c0 1.3 1.062 2.361 2.36 2.361h33.992c1.298 0 2.36-1.062 2.36-2.36V51.13c0-1.297-1.062-2.358-2.36-2.358m0 .477c1.038 0 1.882.844 1.882 1.881v5.207c0 1.038-.844 1.883-1.882 1.883h-33.992c-1.038 0-1.882-.844-1.882-1.883V51.13c0-1.037.844-1.882 1.882-1.882h33.992" transform="translate(1 -2) translate(309 18.685)"/>
                                        <path fill="#FFF" d="M371.27 70.452c-1.17 0-2.12-.95-2.12-2.12v-5.208c0-1.17.95-2.12 2.12-2.12h33.993c1.17 0 2.12.95 2.12 2.12v5.208c0 1.17-.95 2.12-2.12 2.12H371.27z" transform="translate(1 -2) translate(309 18.685)"/>
                                        <path fill="#000" d="M405.263 60.764h-33.992c-1.298 0-2.36 1.062-2.36 2.36v5.208c0 1.297 1.062 2.36 2.36 2.36h33.992c1.298 0 2.36-1.063 2.36-2.36v-5.208c0-1.298-1.062-2.36-2.36-2.36m0 .479c1.038 0 1.882.843 1.882 1.88v5.209c0 1.037-.844 1.882-1.882 1.882h-33.992c-1.038 0-1.882-.845-1.882-1.882v-5.208c0-1.038.844-1.881 1.882-1.881h33.992" transform="translate(1 -2) translate(309 18.685)"/>
                                        <path fill="#0A51B7" d="M393.01 43.031c-.75 0-1.358-.608-1.358-1.357s.608-1.358 1.357-1.358c.75 0 1.357.61 1.357 1.358 0 .75-.608 1.357-1.357 1.357" transform="translate(1 -2) translate(309 18.685)"/>
                                        <path fill="#000" d="M393.01 40.077c-.883 0-1.598.715-1.598 1.597s.715 1.597 1.597 1.597 1.597-.715 1.597-1.597-.715-1.597-1.597-1.597m0 .478c.617 0 1.12.501 1.12 1.12 0 .616-.503 1.118-1.12 1.118-.617 0-1.119-.502-1.119-1.119 0-.618.502-1.119 1.12-1.119" transform="translate(1 -2) translate(309 18.685)"/>
                                        <path fill="#0A51B7" d="M397.934 43.031c-.749 0-1.357-.608-1.357-1.357s.608-1.358 1.357-1.358 1.358.61 1.358 1.358c0 .75-.609 1.357-1.358 1.357" transform="translate(1 -2) translate(309 18.685)"/>
                                        <path fill="#000" d="M397.934 40.077c-.882 0-1.597.715-1.597 1.597s.715 1.597 1.597 1.597c.883 0 1.598-.715 1.598-1.597s-.715-1.597-1.598-1.597m0 .478c.617 0 1.119.501 1.119 1.12 0 .616-.502 1.118-1.119 1.118s-1.119-.502-1.119-1.119c0-.618.502-1.119 1.119-1.119" transform="translate(1 -2) translate(309 18.685)"/>
                                        <path fill="#0A51B7" d="M402.86 43.031c-.75 0-1.357-.608-1.357-1.357s.608-1.358 1.357-1.358 1.357.61 1.357 1.358c0 .75-.608 1.357-1.357 1.357" transform="translate(1 -2) translate(309 18.685)"/>
                                        <path fill="#000" d="M402.86 40.077c-.882 0-1.597.715-1.597 1.597s.715 1.597 1.597 1.597 1.597-.715 1.597-1.597-.715-1.597-1.597-1.597m0 .478c.617 0 1.119.501 1.119 1.12 0 .616-.502 1.118-1.12 1.118-.616 0-1.118-.502-1.118-1.119 0-.618.502-1.119 1.119-1.119" transform="translate(1 -2) translate(309 18.685)"/>
                                        <path fill="#0A51B7" d="M393.01 55.093c-.75 0-1.358-.61-1.358-1.358 0-.75.608-1.358 1.357-1.358.75 0 1.357.609 1.357 1.358 0 .749-.608 1.358-1.357 1.358" transform="translate(1 -2) translate(309 18.685)"/>
                                        <path fill="#000" d="M393.01 52.138c-.883 0-1.598.715-1.598 1.597s.715 1.597 1.597 1.597 1.597-.715 1.597-1.597-.715-1.597-1.597-1.597m0 .478c.617 0 1.12.5 1.12 1.119 0 .617-.503 1.119-1.12 1.119-.617 0-1.119-.502-1.119-1.12 0-.617.502-1.118 1.12-1.118" transform="translate(1 -2) translate(309 18.685)"/>
                                        <path fill="#0A51B7" d="M397.934 55.093c-.749 0-1.357-.61-1.357-1.358 0-.75.608-1.358 1.357-1.358s1.358.609 1.358 1.358c0 .749-.609 1.358-1.358 1.358" transform="translate(1 -2) translate(309 18.685)"/>
                                        <path fill="#000" d="M397.934 52.138c-.882 0-1.597.715-1.597 1.597s.715 1.597 1.597 1.597c.883 0 1.598-.715 1.598-1.597s-.715-1.597-1.598-1.597m0 .478c.617 0 1.119.5 1.119 1.119 0 .617-.502 1.119-1.119 1.119s-1.119-.502-1.119-1.12c0-.617.502-1.118 1.119-1.118" transform="translate(1 -2) translate(309 18.685)"/>
                                        <path fill="#0A51B7" d="M402.86 55.093c-.75 0-1.357-.61-1.357-1.358 0-.75.608-1.358 1.357-1.358s1.357.609 1.357 1.358c0 .749-.608 1.358-1.357 1.358" transform="translate(1 -2) translate(309 18.685)"/>
                                        <path fill="#000" d="M402.86 52.138c-.882 0-1.597.715-1.597 1.597s.715 1.597 1.597 1.597 1.597-.715 1.597-1.597-.715-1.597-1.597-1.597m0 .478c.617 0 1.119.5 1.119 1.119 0 .617-.502 1.119-1.12 1.119-.616 0-1.118-.502-1.118-1.12 0-.617.502-1.118 1.119-1.118" transform="translate(1 -2) translate(309 18.685)"/>
                                        <path fill="#0A51B7" d="M393.01 67.086c-.75 0-1.358-.61-1.358-1.358 0-.75.608-1.358 1.357-1.358.75 0 1.357.609 1.357 1.358 0 .749-.608 1.358-1.357 1.358" transform="translate(1 -2) translate(309 18.685)"/>
                                        <path fill="#000" d="M393.01 64.13c-.883 0-1.598.716-1.598 1.599 0 .88.715 1.595 1.597 1.595s1.597-.714 1.597-1.595c0-.883-.715-1.598-1.597-1.598m0 .478c.617 0 1.12.502 1.12 1.12 0 .617-.503 1.119-1.12 1.119-.617 0-1.119-.502-1.119-1.12 0-.617.502-1.12 1.12-1.12" transform="translate(1 -2) translate(309 18.685)"/>
                                        <path fill="#0A51B7" d="M397.934 67.086c-.749 0-1.357-.61-1.357-1.358 0-.75.608-1.358 1.357-1.358s1.358.609 1.358 1.358c0 .749-.609 1.358-1.358 1.358" transform="translate(1 -2) translate(309 18.685)"/>
                                        <path fill="#000" d="M397.934 64.13c-.882 0-1.597.716-1.597 1.599 0 .88.715 1.595 1.597 1.595.883 0 1.598-.714 1.598-1.595 0-.883-.715-1.598-1.598-1.598m0 .478c.617 0 1.119.502 1.119 1.12 0 .617-.502 1.119-1.119 1.119s-1.119-.502-1.119-1.12c0-.617.502-1.12 1.119-1.12" transform="translate(1 -2) translate(309 18.685)"/>
                                        <path fill="#0A51B7" d="M402.86 67.086c-.75 0-1.357-.61-1.357-1.358 0-.75.608-1.358 1.357-1.358s1.357.609 1.357 1.358c0 .749-.608 1.358-1.357 1.358" transform="translate(1 -2) translate(309 18.685)"/>
                                        <path fill="#000" d="M402.86 64.13c-.882 0-1.597.716-1.597 1.599 0 .88.715 1.595 1.597 1.595s1.597-.714 1.597-1.595c0-.883-.715-1.598-1.597-1.598m0 .478c.617 0 1.119.502 1.119 1.12 0 .617-.502 1.119-1.12 1.119-.616 0-1.118-.502-1.118-1.12 0-.617.502-1.12 1.119-1.12" transform="translate(1 -2) translate(309 18.685)"/>
                                        <g>
                                            <path fill="#FFF" d="M1.002 0.053L1.002 5.295" transform="translate(1 -2) translate(309 18.685) translate(372 39)"/>
                                            <path stroke="#000" stroke-width=".478" d="M1.002 0.053L1.002 5.295" transform="translate(1 -2) translate(309 18.685) translate(372 39)"/>
                                        </g>
                                        <g>
                                            <path fill="#FFF" d="M0.71 0.053L0.71 5.295" transform="translate(1 -2) translate(309 18.685) translate(375 39)"/>
                                            <path stroke="#000" stroke-width=".478" d="M0.71 0.053L0.71 5.295" transform="translate(1 -2) translate(309 18.685) translate(375 39)"/>
                                        </g>
                                        <g>
                                            <path fill="#FFF" d="M1.419 0.053L1.419 5.295" transform="translate(1 -2) translate(309 18.685) translate(377 39)"/>
                                            <path stroke="#000" stroke-width=".478" d="M1.419 0.053L1.419 5.295" transform="translate(1 -2) translate(309 18.685) translate(377 39)"/>
                                        </g>
                                        <g>
                                            <path fill="#FFF" d="M1.127 0.053L1.127 5.295" transform="translate(1 -2) translate(309 18.685) translate(380 39)"/>
                                            <path stroke="#000" stroke-width=".478" d="M1.127 0.053L1.127 5.295" transform="translate(1 -2) translate(309 18.685) translate(380 39)"/>
                                        </g>
                                        <g>
                                            <path fill="#FFF" d="M0.836 0.053L0.836 5.295" transform="translate(1 -2) translate(309 18.685) translate(383 39)"/>
                                            <path stroke="#000" stroke-width=".478" d="M0.836 0.053L0.836 5.295" transform="translate(1 -2) translate(309 18.685) translate(383 39)"/>
                                        </g>
                                        <g>
                                            <path fill="#FFF" d="M0.544 0.053L0.544 5.295" transform="translate(1 -2) translate(309 18.685) translate(386 39)"/>
                                            <path stroke="#000" stroke-width=".478" d="M0.544 0.053L0.544 5.295" transform="translate(1 -2) translate(309 18.685) translate(386 39)"/>
                                        </g>
                                        <g>
                                            <path fill="#FFF" d="M1.357 0.053L1.357 5.295" transform="translate(1 -2) translate(309 18.685) translate(373 39)"/>
                                            <path stroke="#000" stroke-width=".478" d="M1.357 0.053L1.357 5.295" transform="translate(1 -2) translate(309 18.685) translate(373 39)"/>
                                        </g>
                                        <g>
                                            <path fill="#FFF" d="M1.065 0.053L1.065 5.295" transform="translate(1 -2) translate(309 18.685) translate(376 39)"/>
                                            <path stroke="#000" stroke-width=".478" d="M1.065 0.053L1.065 5.295" transform="translate(1 -2) translate(309 18.685) translate(376 39)"/>
                                        </g>
                                        <g>
                                            <path fill="#FFF" d="M0.774 0.053L0.774 5.295" transform="translate(1 -2) translate(309 18.685) translate(379 39)"/>
                                            <path stroke="#000" stroke-width=".478" d="M0.774 0.053L0.774 5.295" transform="translate(1 -2) translate(309 18.685) translate(379 39)"/>
                                        </g>
                                        <g>
                                            <path fill="#FFF" d="M1.482 0.053L1.482 5.295" transform="translate(1 -2) translate(309 18.685) translate(381 39)"/>
                                            <path stroke="#000" stroke-width=".478" d="M1.482 0.053L1.482 5.295" transform="translate(1 -2) translate(309 18.685) translate(381 39)"/>
                                        </g>
                                        <g>
                                            <path fill="#FFF" d="M1.19 0.053L1.19 5.295" transform="translate(1 -2) translate(309 18.685) translate(384 39)"/>
                                            <path stroke="#000" stroke-width=".478" d="M1.19 0.053L1.19 5.295" transform="translate(1 -2) translate(309 18.685) translate(384 39)"/>
                                        </g>
                                        <g>
                                            <path fill="#FFF" d="M1.002 0.113L1.002 5.355" transform="translate(1 -2) translate(309 18.685) translate(372 51)"/>
                                            <path stroke="#000" stroke-width=".478" d="M1.002 0.113L1.002 5.355" transform="translate(1 -2) translate(309 18.685) translate(372 51)"/>
                                        </g>
                                        <g>
                                            <path fill="#FFF" d="M0.71 0.113L0.71 5.355" transform="translate(1 -2) translate(309 18.685) translate(375 51)"/>
                                            <path stroke="#000" stroke-width=".478" d="M0.71 0.113L0.71 5.355" transform="translate(1 -2) translate(309 18.685) translate(375 51)"/>
                                        </g>
                                        <g>
                                            <path fill="#FFF" d="M1.419 0.113L1.419 5.355" transform="translate(1 -2) translate(309 18.685) translate(377 51)"/>
                                            <path stroke="#000" stroke-width=".478" d="M1.419 0.113L1.419 5.355" transform="translate(1 -2) translate(309 18.685) translate(377 51)"/>
                                        </g>
                                        <g>
                                            <path fill="#FFF" d="M1.127 0.113L1.127 5.355" transform="translate(1 -2) translate(309 18.685) translate(380 51)"/>
                                            <path stroke="#000" stroke-width=".478" d="M1.127 0.113L1.127 5.355" transform="translate(1 -2) translate(309 18.685) translate(380 51)"/>
                                        </g>
                                        <g>
                                            <path fill="#FFF" d="M0.836 0.113L0.836 5.355" transform="translate(1 -2) translate(309 18.685) translate(383 51)"/>
                                            <path stroke="#000" stroke-width=".478" d="M0.836 0.113L0.836 5.355" transform="translate(1 -2) translate(309 18.685) translate(383 51)"/>
                                        </g>
                                        <g>
                                            <path fill="#FFF" d="M0.544 0.113L0.544 5.355" transform="translate(1 -2) translate(309 18.685) translate(386 51)"/>
                                            <path stroke="#000" stroke-width=".478" d="M0.544 0.113L0.544 5.355" transform="translate(1 -2) translate(309 18.685) translate(386 51)"/>
                                        </g>
                                        <g>
                                            <path fill="#FFF" d="M1.357 0.113L1.357 5.355" transform="translate(1 -2) translate(309 18.685) translate(373 51)"/>
                                            <path stroke="#000" stroke-width=".478" d="M1.357 0.113L1.357 5.355" transform="translate(1 -2) translate(309 18.685) translate(373 51)"/>
                                        </g>
                                        <g>
                                            <path fill="#FFF" d="M1.065 0.113L1.065 5.355" transform="translate(1 -2) translate(309 18.685) translate(376 51)"/>
                                            <path stroke="#000" stroke-width=".478" d="M1.065 0.113L1.065 5.355" transform="translate(1 -2) translate(309 18.685) translate(376 51)"/>
                                        </g>
                                        <g>
                                            <path fill="#FFF" d="M0.774 0.113L0.774 5.355" transform="translate(1 -2) translate(309 18.685) translate(379 51)"/>
                                            <path stroke="#000" stroke-width=".478" d="M0.774 0.113L0.774 5.355" transform="translate(1 -2) translate(309 18.685) translate(379 51)"/>
                                        </g>
                                        <g>
                                            <path fill="#FFF" d="M1.482 0.113L1.482 5.355" transform="translate(1 -2) translate(309 18.685) translate(381 51)"/>
                                            <path stroke="#000" stroke-width=".478" d="M1.482 0.113L1.482 5.355" transform="translate(1 -2) translate(309 18.685) translate(381 51)"/>
                                        </g>
                                        <g>
                                            <path fill="#FFF" d="M1.19 0.113L1.19 5.355" transform="translate(1 -2) translate(309 18.685) translate(384 51)"/>
                                            <path stroke="#000" stroke-width=".478" d="M1.19 0.113L1.19 5.355" transform="translate(1 -2) translate(309 18.685) translate(384 51)"/>
                                        </g>
                                        <g>
                                            <path fill="#FFF" d="M1.002 0.175L1.002 5.416" transform="translate(1 -2) translate(309 18.685) translate(372 63)"/>
                                            <path stroke="#000" stroke-width=".478" d="M1.002 0.175L1.002 5.416" transform="translate(1 -2) translate(309 18.685) translate(372 63)"/>
                                        </g>
                                        <g>
                                            <path fill="#FFF" d="M0.71 0.175L0.71 5.416" transform="translate(1 -2) translate(309 18.685) translate(375 63)"/>
                                            <path stroke="#000" stroke-width=".478" d="M0.71 0.175L0.71 5.416" transform="translate(1 -2) translate(309 18.685) translate(375 63)"/>
                                        </g>
                                        <g>
                                            <path fill="#FFF" d="M1.419 0.175L1.419 5.416" transform="translate(1 -2) translate(309 18.685) translate(377 63)"/>
                                            <path stroke="#000" stroke-width=".478" d="M1.419 0.175L1.419 5.416" transform="translate(1 -2) translate(309 18.685) translate(377 63)"/>
                                        </g>
                                        <g>
                                            <path fill="#FFF" d="M1.127 0.175L1.127 5.416" transform="translate(1 -2) translate(309 18.685) translate(380 63)"/>
                                            <path stroke="#000" stroke-width=".478" d="M1.127 0.175L1.127 5.416" transform="translate(1 -2) translate(309 18.685) translate(380 63)"/>
                                        </g>
                                        <g>
                                            <path fill="#FFF" d="M0.836 0.175L0.836 5.416" transform="translate(1 -2) translate(309 18.685) translate(383 63)"/>
                                            <path stroke="#000" stroke-width=".478" d="M0.836 0.175L0.836 5.416" transform="translate(1 -2) translate(309 18.685) translate(383 63)"/>
                                        </g>
                                        <g>
                                            <path fill="#FFF" d="M0.544 0.175L0.544 5.416" transform="translate(1 -2) translate(309 18.685) translate(386 63)"/>
                                            <path stroke="#000" stroke-width=".478" d="M0.544 0.175L0.544 5.416" transform="translate(1 -2) translate(309 18.685) translate(386 63)"/>
                                        </g>
                                        <g>
                                            <path fill="#FFF" d="M1.357 0.175L1.357 5.416" transform="translate(1 -2) translate(309 18.685) translate(373 63)"/>
                                            <path stroke="#000" stroke-width=".478" d="M1.357 0.175L1.357 5.416" transform="translate(1 -2) translate(309 18.685) translate(373 63)"/>
                                        </g>
                                        <g>
                                            <path fill="#FFF" d="M1.065 0.175L1.065 5.416" transform="translate(1 -2) translate(309 18.685) translate(376 63)"/>
                                            <path stroke="#000" stroke-width=".478" d="M1.065 0.175L1.065 5.416" transform="translate(1 -2) translate(309 18.685) translate(376 63)"/>
                                        </g>
                                        <g>
                                            <path fill="#FFF" d="M0.774 0.175L0.774 5.416" transform="translate(1 -2) translate(309 18.685) translate(379 63)"/>
                                            <path stroke="#000" stroke-width=".478" d="M0.774 0.175L0.774 5.416" transform="translate(1 -2) translate(309 18.685) translate(379 63)"/>
                                        </g>
                                        <g>
                                            <path fill="#FFF" d="M1.482 0.175L1.482 5.416" transform="translate(1 -2) translate(309 18.685) translate(381 63)"/>
                                            <path stroke="#000" stroke-width=".478" d="M1.482 0.175L1.482 5.416" transform="translate(1 -2) translate(309 18.685) translate(381 63)"/>
                                        </g>
                                        <g>
                                            <path fill="#FFF" d="M1.19 0.175L1.19 5.416" transform="translate(1 -2) translate(309 18.685) translate(384 63)"/>
                                            <path stroke="#000" stroke-width=".478" d="M1.19 0.175L1.19 5.416" transform="translate(1 -2) translate(309 18.685) translate(384 63)"/>
                                        </g>
                                        <path fill="#E6E8EB" d="M400.786 63.288s.159-1.009 1.589-1.697c1.43-.689 5.015-1.662 9.397-1.057 4.382.605 5.535 1.692 5.535 1.692l.526 1.165v12.814s-.58 1.535-3.519 2.171c-2.938.636-8.79.848-11.596-.45 0 0-1.774-.742-1.933-1.854V63.288z" transform="translate(1 -2) translate(309 18.685)"/>
                                        <path stroke="#000" stroke-width=".478" d="M417.833 63.175s-.658-2.831-8.78-2.831c-8.123 0-8.268 2.89-8.268 2.89v12.87s.893 2.91 8.52 2.91c7.625 0 8.527-2.91 8.527-2.91l.001-12.93z" transform="translate(1 -2) translate(309 18.685)"/>
                                        <path stroke="#000" stroke-width=".478" d="M400.786 67.785s.952 2.79 8.634 2.715c7.681-.073 8.413-2.715 8.413-2.715M400.786 71.98s.952 2.788 8.634 2.715c7.681-.073 8.413-2.715 8.413-2.715M400.786 63.59s.952 2.789 8.634 2.716c7.681-.073 8.413-2.716 8.413-2.716" transform="translate(1 -2) translate(309 18.685)"/>
                                        <path stroke="#C5C8CF" stroke-width="1.136" d="M118.973 143.241L4.366 143.241" transform="translate(1 -2) translate(309 18.685)"/>
                                        <path fill="#C5C8CF" d="M112.998 143.241L112.998 138.478 117.122 140.86 121.246 143.241 117.122 145.622 112.998 148.003z" transform="translate(1 -2) translate(309 18.685)"/>
                                        <path stroke="#C5C8CF" stroke-width="1.136" d="M2.515 156.306L117.121 156.306" transform="translate(1 -2) translate(309 18.685)"/>
                                        <path fill="#C5C8CF" d="M8.49 156.306L8.49 161.068 4.366 158.687 0.242 156.306 4.366 153.925 8.49 151.544z" transform="translate(1 -2) translate(309 18.685)"/>
                                    </g>
                                    <text font-family="NotoSansCJKkr-Medium, Noto Sans CJK KR" font-size="12" font-weight="400" letter-spacing="-.468" transform="translate(1 -2)">
                                        <tspan x="317.054" y="196.087" fill="#000">F</tspan> <tspan x="322.91" y="196.087" fill="#000">acility &amp; </tspan> <tspan x="371.618" y="196.087" fill="#000" letter-spacing="-.072">w</tspan> <tspan x="381.41" y="196.087" fill="#000">or</tspan> <tspan x="393.686" y="196.087" fill="#000" letter-spacing="-.288">k</tspan> <tspan x="400.01" y="196.087" fill="#000">er</tspan> <tspan x="411.698" y="196.087" fill="#000" letter-spacing="-.264">&apos;</tspan> <tspan x="414.746" y="196.087" fill="#000">s</tspan>
                                    </text>
                                    <text font-family="NotoSansCJKkr-Medium, Noto Sans CJK KR" font-size="12" font-weight="400" transform="translate(1 -2)">
                                        <tspan x="331.778" y="212.083" fill="#000">lo</tspan> <tspan x="342.722" y="212.083" fill="#000" letter-spacing="-.132">c</tspan> <tspan x="348.662" y="212.083" fill="#000" letter-spacing="-.204">a</tspan> <tspan x="355.154" y="212.083" fill="#000">tion d</tspan> <tspan x="388.466" y="212.083" fill="#000" letter-spacing="-.204">a</tspan> <tspan x="394.958" y="212.083" fill="#000" letter-spacing="-.288">t</tspan> <tspan x="399.134" y="212.083" fill="#000">a</tspan>
                                    </text>
                                    <text font-family="NotoSansCJKkr-Medium, Noto Sans CJK KR" font-size="12" font-weight="400" transform="translate(1 -2)">
                                        <tspan x="344.042" y="233.683" fill="#000">D</tspan> <tspan x="352.43" y="233.683" fill="#000" letter-spacing="-.204">a</tspan> <tspan x="358.922" y="233.683" fill="#000" letter-spacing="-.288">t</tspan> <tspan x="363.098" y="233.683" fill="#000">a link</tspan>
                                    </text>
                                    <text font-family="NotoSansCJKkr-Medium, Noto Sans CJK KR" font-size="12" font-weight="400" transform="translate(1 -2)">
                                        <tspan x="327.578" y="128.539" fill="#000">Mana</tspan> <tspan x="358.826" y="128.539" fill="#000" letter-spacing="-.204">g</tspan> <tspan x="365.354" y="128.539" fill="#000">ement /</tspan>
                                    </text>
                                    <text font-family="NotoSansCJKkr-Medium, Noto Sans CJK KR" font-size="12" font-weight="400" letter-spacing="-.312" transform="translate(1 -2)">
                                        <tspan x="334.034" y="144.535" fill="#000">c</tspan> <tspan x="339.614" y="144.535" fill="#000">ont</tspan> <tspan x="359.222" y="144.535" fill="#000" letter-spacing="-.132">r</tspan> <tspan x="363.866" y="144.535" fill="#000">ol d</tspan> <tspan x="385.07" y="144.535" fill="#000" letter-spacing="-.204">a</tspan> <tspan x="391.562" y="144.535" fill="#000" letter-spacing="-.288">t</tspan> <tspan x="395.738" y="144.535" fill="#000">a</tspan>
                                    </text>
                                    <g transform="translate(1 -2) translate(0 .685)">
                                        <path fill="#FFF" d="M755.323 246.849c0 31.126-25.231 56.357-56.356 56.357-31.126 0-56.358-25.231-56.358-56.357 0-31.125 25.232-56.356 56.358-56.356 31.125 0 56.356 25.23 56.356 56.356"/>
                                        <path stroke="#C5C8CF" stroke-width=".75" d="M755.323 246.849c0 31.126-25.231 56.357-56.356 56.357-31.126 0-56.358-25.231-56.358-56.357 0-31.125 25.232-56.356 56.358-56.356 31.125 0 56.356 25.23 56.356 56.356z"/>
                                        <g>
                                            <path fill="#FFF" d="M17.287 0.079L10.496 0.079 0.029 19.629 55.903 19.629 45.307 0.079 38.553 0.079" transform="translate(671 245)"/>
                                            <path stroke="#231916" stroke-linecap="round" stroke-linejoin="round" stroke-width=".673" d="M17.287 0.079L10.496 0.079 0.029 19.629 55.903 19.629 45.307 0.079 38.553 0.079" transform="translate(671 245)"/>
                                        </g>
                                        <path stroke="#231916" stroke-linecap="round" stroke-linejoin="round" stroke-width=".673" d="M698.24 264.653c-.95-4.214-6.25-1.484-8.58-6.132-2.193-4.374-3.075-10.619-9.675-10.619M705.66 249.611s5.13 9.365 15.27 4.338M718.573 249.123c0 5.071-12.913 5.897-12.913 15.506"/>
                                        <path fill="#0A51B7" d="M717.606 253.153c-.015-2.02-1.618-3.657-3.617-3.733-1.951-.076-3.685 1.46-3.891 3.401-.13 1.211.41 2.237 1.02 3.184.412.638 1.717 2.226 2.379 3.021.204.245.576.242.775-.007.469-.586 1.312-1.655 2.212-2.87.499-.675 1.13-1.893 1.122-2.996"/>
                                        <path stroke="#000" stroke-linecap="round" stroke-linejoin="round" stroke-width=".673" d="M717.606 253.153c-.015-2.02-1.618-3.657-3.617-3.733-1.951-.076-3.685 1.46-3.891 3.401-.13 1.211.41 2.237 1.02 3.184.412.638 1.717 2.226 2.379 3.021.204.245.576.242.775-.007.469-.586 1.312-1.655 2.212-2.87.499-.675 1.13-1.893 1.122-2.996z"/>
                                        <path fill="#FFF" d="M715.721 253.167c.008 1.037-.827 1.885-1.865 1.892-1.037.007-1.885-.828-1.893-1.866-.007-1.037.828-1.884 1.865-1.891 1.04-.008 1.886.827 1.893 1.865"/>
                                        <path stroke="#000" stroke-linecap="round" stroke-linejoin="round" stroke-width=".673" d="M715.721 253.167c.008 1.037-.827 1.885-1.865 1.892-1.037.007-1.885-.828-1.893-1.866-.007-1.037.828-1.884 1.865-1.891 1.04-.008 1.886.827 1.893 1.865z"/>
                                        <path fill="#E6E8EB" d="M709.355 248.321L688.494 248.321 690.198 243.294 707.651 243.294z"/>
                                        <path stroke="#000" stroke-linecap="round" stroke-linejoin="round" stroke-width=".673" d="M709.355 248.321L688.494 248.321 690.198 243.294 707.651 243.294z"/>
                                        <path fill="#FFF" d="M706.873 243.294h-15.897v-10.531c0-4.39 3.558-7.948 7.948-7.948 4.39 0 7.95 3.558 7.95 7.948v10.53z"/>
                                        <path stroke="#000" stroke-linecap="round" stroke-linejoin="round" stroke-width=".673" d="M706.873 243.294h-15.897v-10.531c0-4.39 3.558-7.948 7.948-7.948 4.39 0 7.95 3.558 7.95 7.948v10.53z"/>
                                        <path fill="#0A51B7" d="M698.977 236.023c-.75 0-1.358-.608-1.358-1.358v-3.94c0-.752.608-1.36 1.358-1.36.75 0 1.359.608 1.359 1.36v3.94c0 .75-.608 1.358-1.36 1.358M698.977 239.557c-.75 0-1.358-.608-1.358-1.358 0-.751.608-1.36 1.358-1.36.75 0 1.359.61 1.359 1.36 0 .75-.608 1.358-1.36 1.358"/>
                                        <g>
                                            <path fill="#0A51B7" d="M0.924 0.237L0.924 4.477" transform="translate(698 216)"/>
                                            <path stroke="#000" stroke-linecap="round" stroke-linejoin="round" stroke-width=".673" d="M0.924 0.237L0.924 4.477" transform="translate(698 216)"/>
                                        </g>
                                        <g>
                                            <path fill="#0A51B7" d="M3.706 0.68L0.708 3.678" transform="translate(708 221)"/>
                                            <path stroke="#000" stroke-linecap="round" stroke-linejoin="round" stroke-width=".673" d="M3.706 0.68L0.708 3.678" transform="translate(708 221)"/>
                                        </g>
                                        <g>
                                            <path fill="#0A51B7" d="M4.985 1.461L0.745 1.461" transform="translate(710 233)"/>
                                            <path stroke="#000" stroke-linecap="round" stroke-linejoin="round" stroke-width=".673" d="M4.985 1.461L0.745 1.461" transform="translate(710 233)"/>
                                        </g>
                                        <g>
                                            <path fill="#0A51B7" d="M0.946 1.461L5.186 1.461" transform="translate(682 233)"/>
                                            <path stroke="#000" stroke-linecap="round" stroke-linejoin="round" stroke-width=".673" d="M0.946 1.461L5.186 1.461" transform="translate(682 233)"/>
                                        </g>
                                        <g>
                                            <path fill="#0A51B7" d="M0.142 0.68L3.141 3.678" transform="translate(686 221)"/>
                                            <path stroke="#000" stroke-linecap="round" stroke-linejoin="round" stroke-width=".673" d="M0.142 0.68L3.141 3.678" transform="translate(686 221)"/>
                                        </g>
                                        <path stroke="#000" stroke-linecap="round" stroke-linejoin="round" stroke-width=".673" d="M684.867 228.337L687.104 229.246M712.982 228.337L710.745 229.246M705.056 219.715L704.117 221.941M692.792 219.715L693.731 221.941"/>
                                        <path stroke="#0A51B7" stroke-width=".779" d="M57.947 175.781L104.127 175.781"/>
                                    </g>
                                </g>
                            </g>
                        </g>
                    </g>
                </g>
            </g>
        </g>
    </g>
</svg>
