<svg xmlns="http://www.w3.org/2000/svg" xmlns:xlink="http://www.w3.org/1999/xlink" width="780" height="545" viewBox="0 0 780 545">
    <defs>
        <path id="v2e02atg7a" d="M0 0H780V545H0z"/>
        <path id="tiv5dwvqvc" d="M0 538L760.705 538 760.705 0.577 0 0.577z"/>
    </defs>
    <g fill="none" fill-rule="evenodd">
        <g>
            <g>
                <g>
                    <g>
                        <g transform="translate(-760 -6201) translate(0 2554) translate(320 636) translate(60 2874) translate(380 137)">
                            <mask id="um2l0wvinb" fill="#fff">
                                <use xlink:href="#v2e02atg7a"/>
                            </mask>
                            <use fill="#F8F9FB" xlink:href="#v2e02atg7a"/>
                            <g mask="url(#um2l0wvinb)">
                                <g>
                                    <text font-family="NotoSansCJKkr-Bold, Noto Sans CJK KR" font-size="18" font-weight="bold" transform="translate(6)">
                                        <tspan x="284.257" y="304.358" fill="#092E6E">Communi</tspan> <tspan x="370.531" y="304.358" fill="#092E6E" letter-spacing="-.216">c</tspan> <tspan x="379.585" y="304.358" fill="#092E6E" letter-spacing="-.342">a</tspan> <tspan x="389.539" y="304.358" fill="#092E6E">tion Se</tspan> <tspan x="451.153" y="304.358" fill="#092E6E" letter-spacing=".252">r</tspan> <tspan x="459.505" y="304.358" fill="#092E6E" letter-spacing="-.144">v</tspan> <tspan x="469.585" y="304.358" fill="#092E6E">er</tspan>
                                    </text>
                                    <path fill="#E6E8EB" d="M365.217 244.586L365.217 275.926 403.05 275.926 403.05 244.296z" transform="translate(6)"/>
                                    <path stroke="#000" stroke-width=".565" d="M365.217 244.586L365.217 275.926 403.05 275.926 403.05 244.296z" transform="translate(6)"/>
                                    <g>
                                        <path fill="#FFF" d="M2.974 12.111c-1.382 0-2.507-1.125-2.507-2.508V3.45C.467 2.066 1.592.941 2.974.941H43.15c1.382 0 2.507 1.125 2.507 2.508v6.154c0 1.383-1.125 2.508-2.507 2.508H2.974z" transform="translate(6) translate(361 232.423)"/>
                                        <path fill="#000" d="M43.15.66H2.974C1.44.66.184 1.915.184 3.45v6.153c0 1.536 1.255 2.79 2.79 2.79H43.15c1.534 0 2.79-1.254 2.79-2.79V3.45c0-1.534-1.256-2.789-2.79-2.789m0 .564c1.227 0 2.225.998 2.225 2.225v6.154c0 1.227-.998 2.225-2.225 2.225H2.974C1.747 11.828.75 10.83.75 9.603V3.45c0-1.227.998-2.225 2.225-2.225H43.15" transform="translate(6) translate(361 232.423)"/>
                                        <path fill="#FFF" d="M2.974 26.366c-1.382 0-2.507-1.125-2.507-2.508v-6.154c0-1.383 1.125-2.508 2.507-2.508H43.15c1.382 0 2.507 1.125 2.507 2.508v6.154c0 1.383-1.125 2.508-2.507 2.508H2.974z" transform="translate(6) translate(361 232.423)"/>
                                        <path fill="#000" d="M43.15 14.914H2.974c-1.535 0-2.79 1.256-2.79 2.79v6.155c0 1.534 1.255 2.79 2.79 2.79H43.15c1.534 0 2.79-1.256 2.79-2.79v-6.156c0-1.533-1.256-2.789-2.79-2.789m0 .564c1.227 0 2.225.998 2.225 2.225v6.156c0 1.227-.998 2.225-2.225 2.225H2.974c-1.227 0-2.225-.998-2.225-2.225v-6.156c0-1.227.998-2.225 2.225-2.225H43.15" transform="translate(6) translate(361 232.423)"/>
                                        <path fill="#FFF" d="M2.974 40.541c-1.382 0-2.507-1.125-2.507-2.507v-6.155c0-1.382 1.125-2.507 2.507-2.507H43.15c1.382 0 2.507 1.125 2.507 2.507v6.155c0 1.382-1.125 2.507-2.507 2.507H2.974z" transform="translate(6) translate(361 232.423)"/>
                                        <path fill="#000" d="M43.15 29.09H2.974c-1.535 0-2.79 1.255-2.79 2.789v6.154c0 1.536 1.255 2.79 2.79 2.79H43.15c1.534 0 2.79-1.254 2.79-2.79v-6.154c0-1.534-1.256-2.79-2.79-2.79m0 .565c1.227 0 2.225.998 2.225 2.225v6.154c0 1.228-.998 2.226-2.225 2.226H2.974c-1.227 0-2.225-.998-2.225-2.226v-6.154c0-1.227.998-2.225 2.225-2.225H43.15" transform="translate(6) translate(361 232.423)"/>
                                        <path fill="#0A51B7" d="M28.667 8.132c-.885 0-1.605-.721-1.605-1.605 0-.885.72-1.606 1.605-1.606s1.605.72 1.605 1.606c0 .884-.72 1.605-1.605 1.605" transform="translate(6) translate(361 232.423)"/>
                                        <path fill="#000" d="M28.667 4.639c-1.043 0-1.888.846-1.888 1.888 0 1.042.845 1.887 1.888 1.887 1.042 0 1.888-.845 1.888-1.887s-.846-1.888-1.888-1.888m0 .564c.729 0 1.322.594 1.322 1.324 0 .729-.593 1.323-1.322 1.323-.729 0-1.323-.594-1.323-1.323 0-.73.594-1.324 1.323-1.324" transform="translate(6) translate(361 232.423)"/>
                                        <path fill="#0A51B7" d="M34.488 8.132c-.885 0-1.605-.721-1.605-1.605 0-.885.72-1.606 1.605-1.606s1.605.72 1.605 1.606c0 .884-.72 1.605-1.605 1.605" transform="translate(6) translate(361 232.423)"/>
                                        <path fill="#000" d="M34.488 4.639c-1.042 0-1.888.846-1.888 1.888 0 1.042.846 1.887 1.888 1.887 1.042 0 1.888-.845 1.888-1.887s-.846-1.888-1.888-1.888m0 .564c.73 0 1.323.594 1.323 1.324 0 .729-.594 1.323-1.323 1.323s-1.323-.594-1.323-1.323c0-.73.594-1.324 1.323-1.324" transform="translate(6) translate(361 232.423)"/>
                                        <path fill="#0A51B7" d="M40.31 8.132c-.885 0-1.605-.721-1.605-1.605 0-.885.72-1.606 1.605-1.606s1.605.72 1.605 1.606c0 .884-.72 1.605-1.605 1.605" transform="translate(6) translate(361 232.423)"/>
                                        <path fill="#000" d="M40.31 4.639c-1.042 0-1.888.846-1.888 1.888 0 1.042.846 1.887 1.888 1.887 1.043 0 1.888-.845 1.888-1.887s-.845-1.888-1.888-1.888m0 .564c.729 0 1.323.594 1.323 1.324 0 .729-.594 1.323-1.323 1.323-.73 0-1.322-.594-1.322-1.323 0-.73.593-1.324 1.322-1.324" transform="translate(6) translate(361 232.423)"/>
                                        <path fill="#0A51B7" d="M28.667 22.387c-.885 0-1.605-.721-1.605-1.605 0-.885.72-1.606 1.605-1.606s1.605.72 1.605 1.606c0 .884-.72 1.605-1.605 1.605" transform="translate(6) translate(361 232.423)"/>
                                        <path fill="#000" d="M28.667 18.895c-1.043 0-1.888.843-1.888 1.887 0 1.043.845 1.887 1.888 1.887 1.042 0 1.888-.845 1.888-1.887 0-1.044-.846-1.887-1.888-1.887m0 .564c.729 0 1.322.593 1.322 1.323 0 .729-.593 1.323-1.322 1.323-.729 0-1.323-.595-1.323-1.323 0-.73.594-1.323 1.323-1.323" transform="translate(6) translate(361 232.423)"/>
                                        <path fill="#0A51B7" d="M34.488 22.387c-.885 0-1.605-.721-1.605-1.605 0-.885.72-1.606 1.605-1.606s1.605.72 1.605 1.606c0 .884-.72 1.605-1.605 1.605" transform="translate(6) translate(361 232.423)"/>
                                        <path fill="#000" d="M34.488 18.895c-1.042 0-1.888.843-1.888 1.887 0 1.043.846 1.887 1.888 1.887 1.042 0 1.888-.845 1.888-1.887 0-1.044-.846-1.887-1.888-1.887m0 .564c.73 0 1.323.593 1.323 1.323 0 .729-.594 1.323-1.323 1.323s-1.323-.595-1.323-1.323c0-.73.594-1.323 1.323-1.323" transform="translate(6) translate(361 232.423)"/>
                                        <path fill="#0A51B7" d="M40.31 22.387c-.885 0-1.605-.721-1.605-1.605 0-.885.72-1.606 1.605-1.606s1.605.72 1.605 1.606c0 .884-.72 1.605-1.605 1.605" transform="translate(6) translate(361 232.423)"/>
                                        <path fill="#000" d="M40.31 18.895c-1.042 0-1.888.843-1.888 1.887 0 1.043.846 1.887 1.888 1.887 1.043 0 1.888-.845 1.888-1.887 0-1.044-.845-1.887-1.888-1.887m0 .564c.729 0 1.323.593 1.323 1.323 0 .729-.594 1.323-1.323 1.323-.73 0-1.322-.595-1.322-1.323 0-.73.593-1.323 1.322-1.323" transform="translate(6) translate(361 232.423)"/>
                                        <path fill="#0A51B7" d="M28.667 36.562c-.885 0-1.605-.721-1.605-1.605 0-.886.72-1.605 1.605-1.605s1.605.72 1.605 1.605c0 .883-.72 1.605-1.605 1.605" transform="translate(6) translate(361 232.423)"/>
                                        <path fill="#000" d="M28.667 33.068c-1.043 0-1.888.846-1.888 1.89 0 1.04.845 1.885 1.888 1.885 1.042 0 1.888-.845 1.888-1.886 0-1.043-.846-1.889-1.888-1.889m0 .564c.729 0 1.322.594 1.322 1.325 0 .728-.593 1.322-1.322 1.322-.729 0-1.323-.594-1.323-1.322 0-.73.594-1.325 1.323-1.325" transform="translate(6) translate(361 232.423)"/>
                                        <path fill="#0A51B7" d="M34.488 36.562c-.885 0-1.605-.721-1.605-1.605 0-.886.72-1.605 1.605-1.605s1.605.72 1.605 1.605c0 .883-.72 1.605-1.605 1.605" transform="translate(6) translate(361 232.423)"/>
                                        <path fill="#000" d="M34.488 33.068c-1.042 0-1.888.846-1.888 1.89 0 1.04.846 1.885 1.888 1.885 1.042 0 1.888-.845 1.888-1.886 0-1.043-.846-1.889-1.888-1.889m0 .564c.73 0 1.323.594 1.323 1.325 0 .728-.594 1.322-1.323 1.322s-1.323-.594-1.323-1.322c0-.73.594-1.325 1.323-1.325" transform="translate(6) translate(361 232.423)"/>
                                        <path fill="#0A51B7" d="M40.31 36.562c-.885 0-1.605-.721-1.605-1.605 0-.886.72-1.605 1.605-1.605s1.605.72 1.605 1.605c0 .883-.72 1.605-1.605 1.605" transform="translate(6) translate(361 232.423)"/>
                                        <path fill="#000" d="M40.31 33.068c-1.042 0-1.888.846-1.888 1.89 0 1.04.846 1.885 1.888 1.885 1.043 0 1.888-.845 1.888-1.886 0-1.043-.845-1.889-1.888-1.889m0 .564c.729 0 1.323.594 1.323 1.325 0 .728-.594 1.322-1.323 1.322-.73 0-1.322-.594-1.322-1.322 0-.73.593-1.325 1.322-1.325" transform="translate(6) translate(361 232.423)"/>
                                        <g>
                                            <path fill="#FFF" d="M1.02 0.429L1.02 6.624" transform="translate(6) translate(361 232.423) translate(4 3)"/>
                                            <path stroke="#000" stroke-width=".565" d="M1.02 0.429L1.02 6.624" transform="translate(6) translate(361 232.423) translate(4 3)"/>
                                        </g>
                                        <g>
                                            <path fill="#FFF" d="M1.222 0.429L1.222 6.624" transform="translate(6) translate(361 232.423) translate(7 3)"/>
                                            <path stroke="#000" stroke-width=".565" d="M1.222 0.429L1.222 6.624" transform="translate(6) translate(361 232.423) translate(7 3)"/>
                                        </g>
                                        <g>
                                            <path fill="#FFF" d="M1.423 0.429L1.423 6.624" transform="translate(6) translate(361 232.423) translate(10 3)"/>
                                            <path stroke="#000" stroke-width=".565" d="M1.423 0.429L1.423 6.624" transform="translate(6) translate(361 232.423) translate(10 3)"/>
                                        </g>
                                        <g>
                                            <path fill="#FFF" d="M0.624 0.429L0.624 6.624" transform="translate(6) translate(361 232.423) translate(14 3)"/>
                                            <path stroke="#000" stroke-width=".565" d="M0.624 0.429L0.624 6.624" transform="translate(6) translate(361 232.423) translate(14 3)"/>
                                        </g>
                                        <g>
                                            <path fill="#FFF" d="M0.825 0.429L0.825 6.624" transform="translate(6) translate(361 232.423) translate(17 3)"/>
                                            <path stroke="#000" stroke-width=".565" d="M0.825 0.429L0.825 6.624" transform="translate(6) translate(361 232.423) translate(17 3)"/>
                                        </g>
                                        <g>
                                            <path fill="#FFF" d="M1.026 0.429L1.026 6.624" transform="translate(6) translate(361 232.423) translate(20 3)"/>
                                            <path stroke="#000" stroke-width=".565" d="M1.026 0.429L1.026 6.624" transform="translate(6) translate(361 232.423) translate(20 3)"/>
                                        </g>
                                        <g>
                                            <path fill="#FFF" d="M0.621 0.429L0.621 6.624" transform="translate(6) translate(361 232.423) translate(6 3)"/>
                                            <path stroke="#000" stroke-width=".565" d="M0.621 0.429L0.621 6.624" transform="translate(6) translate(361 232.423) translate(6 3)"/>
                                        </g>
                                        <g>
                                            <path fill="#FFF" d="M0.822 0.429L0.822 6.624" transform="translate(6) translate(361 232.423) translate(9 3)"/>
                                            <path stroke="#000" stroke-width=".565" d="M0.822 0.429L0.822 6.624" transform="translate(6) translate(361 232.423) translate(9 3)"/>
                                        </g>
                                        <g>
                                            <path fill="#FFF" d="M1.023 0.429L1.023 6.624" transform="translate(6) translate(361 232.423) translate(12 3)"/>
                                            <path stroke="#000" stroke-width=".565" d="M1.023 0.429L1.023 6.624" transform="translate(6) translate(361 232.423) translate(12 3)"/>
                                        </g>
                                        <g>
                                            <path fill="#FFF" d="M1.225 0.429L1.225 6.624" transform="translate(6) translate(361 232.423) translate(15 3)"/>
                                            <path stroke="#000" stroke-width=".565" d="M1.225 0.429L1.225 6.624" transform="translate(6) translate(361 232.423) translate(15 3)"/>
                                        </g>
                                        <g>
                                            <path fill="#FFF" d="M1.426 0.429L1.426 6.624" transform="translate(6) translate(361 232.423) translate(18 3)"/>
                                            <path stroke="#000" stroke-width=".565" d="M1.426 0.429L1.426 6.624" transform="translate(6) translate(361 232.423) translate(18 3)"/>
                                        </g>
                                        <g>
                                            <path fill="#FFF" d="M1.02 0.684L1.02 6.879" transform="translate(6) translate(361 232.423) translate(4 17)"/>
                                            <path stroke="#000" stroke-width=".565" d="M1.02 0.684L1.02 6.879" transform="translate(6) translate(361 232.423) translate(4 17)"/>
                                        </g>
                                        <g>
                                            <path fill="#FFF" d="M1.222 0.684L1.222 6.879" transform="translate(6) translate(361 232.423) translate(7 17)"/>
                                            <path stroke="#000" stroke-width=".565" d="M1.222 0.684L1.222 6.879" transform="translate(6) translate(361 232.423) translate(7 17)"/>
                                        </g>
                                        <g>
                                            <path fill="#FFF" d="M1.423 0.684L1.423 6.879" transform="translate(6) translate(361 232.423) translate(10 17)"/>
                                            <path stroke="#000" stroke-width=".565" d="M1.423 0.684L1.423 6.879" transform="translate(6) translate(361 232.423) translate(10 17)"/>
                                        </g>
                                        <g>
                                            <path fill="#FFF" d="M0.624 0.684L0.624 6.879" transform="translate(6) translate(361 232.423) translate(14 17)"/>
                                            <path stroke="#000" stroke-width=".565" d="M0.624 0.684L0.624 6.879" transform="translate(6) translate(361 232.423) translate(14 17)"/>
                                        </g>
                                        <g>
                                            <path fill="#FFF" d="M0.825 0.684L0.825 6.879" transform="translate(6) translate(361 232.423) translate(17 17)"/>
                                            <path stroke="#000" stroke-width=".565" d="M0.825 0.684L0.825 6.879" transform="translate(6) translate(361 232.423) translate(17 17)"/>
                                        </g>
                                        <g>
                                            <path fill="#FFF" d="M1.026 0.684L1.026 6.879" transform="translate(6) translate(361 232.423) translate(20 17)"/>
                                            <path stroke="#000" stroke-width=".565" d="M1.026 0.684L1.026 6.879" transform="translate(6) translate(361 232.423) translate(20 17)"/>
                                        </g>
                                        <g>
                                            <path fill="#FFF" d="M0.621 0.684L0.621 6.879" transform="translate(6) translate(361 232.423) translate(6 17)"/>
                                            <path stroke="#000" stroke-width=".565" d="M0.621 0.684L0.621 6.879" transform="translate(6) translate(361 232.423) translate(6 17)"/>
                                        </g>
                                        <g>
                                            <path fill="#FFF" d="M0.822 0.684L0.822 6.879" transform="translate(6) translate(361 232.423) translate(9 17)"/>
                                            <path stroke="#000" stroke-width=".565" d="M0.822 0.684L0.822 6.879" transform="translate(6) translate(361 232.423) translate(9 17)"/>
                                        </g>
                                        <g>
                                            <path fill="#FFF" d="M1.023 0.684L1.023 6.879" transform="translate(6) translate(361 232.423) translate(12 17)"/>
                                            <path stroke="#000" stroke-width=".565" d="M1.023 0.684L1.023 6.879" transform="translate(6) translate(361 232.423) translate(12 17)"/>
                                        </g>
                                        <g>
                                            <path fill="#FFF" d="M1.225 0.684L1.225 6.879" transform="translate(6) translate(361 232.423) translate(15 17)"/>
                                            <path stroke="#000" stroke-width=".565" d="M1.225 0.684L1.225 6.879" transform="translate(6) translate(361 232.423) translate(15 17)"/>
                                        </g>
                                        <g>
                                            <path fill="#FFF" d="M1.426 0.684L1.426 6.879" transform="translate(6) translate(361 232.423) translate(18 17)"/>
                                            <path stroke="#000" stroke-width=".565" d="M1.426 0.684L1.426 6.879" transform="translate(6) translate(361 232.423) translate(18 17)"/>
                                        </g>
                                        <g>
                                            <path fill="#FFF" d="M1.02 0.939L1.02 7.133" transform="translate(6) translate(361 232.423) translate(4 31)"/>
                                            <path stroke="#000" stroke-width=".565" d="M1.02 0.939L1.02 7.133" transform="translate(6) translate(361 232.423) translate(4 31)"/>
                                        </g>
                                        <g>
                                            <path fill="#FFF" d="M1.222 0.939L1.222 7.133" transform="translate(6) translate(361 232.423) translate(7 31)"/>
                                            <path stroke="#000" stroke-width=".565" d="M1.222 0.939L1.222 7.133" transform="translate(6) translate(361 232.423) translate(7 31)"/>
                                        </g>
                                        <g>
                                            <path fill="#FFF" d="M1.423 0.939L1.423 7.133" transform="translate(6) translate(361 232.423) translate(10 31)"/>
                                            <path stroke="#000" stroke-width=".565" d="M1.423 0.939L1.423 7.133" transform="translate(6) translate(361 232.423) translate(10 31)"/>
                                        </g>
                                        <g>
                                            <path fill="#FFF" d="M0.624 0.939L0.624 7.133" transform="translate(6) translate(361 232.423) translate(14 31)"/>
                                            <path stroke="#000" stroke-width=".565" d="M0.624 0.939L0.624 7.133" transform="translate(6) translate(361 232.423) translate(14 31)"/>
                                        </g>
                                        <g>
                                            <path fill="#FFF" d="M0.825 0.939L0.825 7.133" transform="translate(6) translate(361 232.423) translate(17 31)"/>
                                            <path stroke="#000" stroke-width=".565" d="M0.825 0.939L0.825 7.133" transform="translate(6) translate(361 232.423) translate(17 31)"/>
                                        </g>
                                        <g>
                                            <path fill="#FFF" d="M1.026 0.939L1.026 7.133" transform="translate(6) translate(361 232.423) translate(20 31)"/>
                                            <path stroke="#000" stroke-width=".565" d="M1.026 0.939L1.026 7.133" transform="translate(6) translate(361 232.423) translate(20 31)"/>
                                        </g>
                                        <g>
                                            <path fill="#FFF" d="M0.621 0.939L0.621 7.133" transform="translate(6) translate(361 232.423) translate(6 31)"/>
                                            <path stroke="#000" stroke-width=".565" d="M0.621 0.939L0.621 7.133" transform="translate(6) translate(361 232.423) translate(6 31)"/>
                                        </g>
                                        <g>
                                            <path fill="#FFF" d="M0.822 0.939L0.822 7.133" transform="translate(6) translate(361 232.423) translate(9 31)"/>
                                            <path stroke="#000" stroke-width=".565" d="M0.822 0.939L0.822 7.133" transform="translate(6) translate(361 232.423) translate(9 31)"/>
                                        </g>
                                        <g>
                                            <path fill="#FFF" d="M1.023 0.939L1.023 7.133" transform="translate(6) translate(361 232.423) translate(12 31)"/>
                                            <path stroke="#000" stroke-width=".565" d="M1.023 0.939L1.023 7.133" transform="translate(6) translate(361 232.423) translate(12 31)"/>
                                        </g>
                                        <g>
                                            <path fill="#FFF" d="M1.225 0.939L1.225 7.133" transform="translate(6) translate(361 232.423) translate(15 31)"/>
                                            <path stroke="#000" stroke-width=".565" d="M1.225 0.939L1.225 7.133" transform="translate(6) translate(361 232.423) translate(15 31)"/>
                                        </g>
                                        <g>
                                            <path fill="#FFF" d="M1.426 0.939L1.426 7.133" transform="translate(6) translate(361 232.423) translate(18 31)"/>
                                            <path stroke="#000" stroke-width=".565" d="M1.426 0.939L1.426 7.133" transform="translate(6) translate(361 232.423) translate(18 31)"/>
                                        </g>
                                        <path fill="#E6E8EB" d="M37.858 32.073s.187-1.193 1.877-2.007c1.69-.813 5.93-1.964 11.11-1.249 5.178.715 6.54 2 6.54 2l.621 1.377V47.34s-.684 1.814-4.158 2.565c-3.473.751-10.388 1.002-13.706-.53 0 0-2.097-.878-2.284-2.192v-15.11z" transform="translate(6) translate(361 232.423)"/>
                                        <path stroke="#000" stroke-width=".565" d="M58.007 31.939s-.777-3.346-10.378-3.346c-9.6 0-9.77 3.417-9.77 3.417v15.21s1.055 3.44 10.068 3.44c9.014 0 10.079-3.44 10.079-3.44V31.94z" transform="translate(6) translate(361 232.423)"/>
                                        <path stroke="#000" stroke-width=".565" d="M37.858 37.388s1.125 3.296 10.205 3.209c9.08-.086 9.943-3.21 9.943-3.21M37.858 42.345s1.125 3.297 10.205 3.21c9.08-.087 9.943-3.21 9.943-3.21M37.858 32.43s1.125 3.297 10.205 3.21c9.08-.087 9.943-3.21 9.943-3.21" transform="translate(6) translate(361 232.423)"/>
                                        <path stroke="#C5C8CF" stroke-width=".75" d="M260.31 26.787L89.704 26.787" transform="translate(6) translate(361 232.423)"/>
                                        <path fill="#C5C8CF" d="M254.334 26.787L254.334 22.024 258.458 24.406 262.582 26.787 258.458 29.168 254.334 31.549zM96.876 26.787L96.876 31.549 92.752 29.168 88.628 26.787 92.752 24.406 96.876 22.024z" transform="translate(6) translate(361 232.423)"/>
                                    </g>
                                    <text font-family="NotoSansCJKkr-Medium, Noto Sans CJK KR" font-size="12" font-weight="400" letter-spacing="-.132" transform="translate(6)">
                                        <tspan x="324.56" y="153.59" fill="#000">R</tspan> <tspan x="332.156" y="153.59" fill="#000">em</tspan> <tspan x="350.24" y="153.59" fill="#000" letter-spacing="-.276">o</tspan> <tspan x="357.056" y="153.59" fill="#000" letter-spacing="-.204">t</tspan> <tspan x="361.4" y="153.59" fill="#000">e </tspan> <tspan x="370.88" y="153.59" fill="#000" letter-spacing="-.312">c</tspan> <tspan x="376.46" y="153.59" fill="#000">ollabo</tspan> <tspan x="412.796" y="153.59" fill="#000" letter-spacing="-.335">r</tspan> <tspan x="417.033" y="153.59" fill="#000" letter-spacing="-.204">a</tspan> <tspan x="423.525" y="153.59" fill="#000">tion</tspan>
                                    </text>
                                    <text font-family="NotoSansCJKkr-Medium, Noto Sans CJK KR" font-size="12" font-weight="400" letter-spacing="-.204" transform="translate(6)">
                                        <tspan x="339.416" y="169.586" fill="#000">t</tspan> <tspan x="343.76" y="169.586" fill="#000">o </tspan> <tspan x="353.828" y="169.586" fill="#000" letter-spacing="-.132">r</tspan> <tspan x="358.472" y="169.586" fill="#000">esol</tspan> <tspan x="381.956" y="169.586" fill="#000" letter-spacing="-.072">v</tspan> <tspan x="388.352" y="169.586" fill="#000">e issues</tspan>
                                    </text>
                                    <g>
                                        <path fill="#FFF" d="M113.654 56.812c0 31.124-25.23 56.356-56.356 56.356S.94 87.936.94 56.811 26.172.456 57.298.456c31.125 0 56.356 25.232 56.356 56.357" transform="translate(6) translate(329 21.423)"/>
                                        <path stroke="#C5C8CF" stroke-width=".75" d="M113.654 56.812c0 31.124-25.23 56.356-56.356 56.356S.94 87.936.94 56.811 26.172.456 57.298.456c31.125 0 56.356 25.232 56.356 56.357z" transform="translate(6) translate(329 21.423)"/>
                                        <path fill="#273A5B" d="M71.478 53.758c-1.316 0-2.374.55-3.147 1.639-.249-.48-.61-.867-1.08-1.154-.53-.322-1.15-.485-1.843-.485-.555 0-1.12.156-1.678.464-.466.258-.836.573-1.104.94v-1.104h-1.89v9.47h1.966V58.28c0-.73.217-1.373.647-1.91.43-.537.943-.798 1.572-.798.695 0 1.194.178 1.48.528.294.357.442.959.442 1.787v5.642h1.963v-5.25c0-.73.22-1.372.65-1.91.428-.536.944-.797 1.572-.797.694 0 1.192.178 1.48.528.293.356.442.959.442 1.787v5.642h1.963v-5.904c0-1.223-.3-2.182-.891-2.852-.597-.674-1.452-1.015-2.544-1.015M82.926 61.082c-.52.553-1.17.81-2.048.81-.88 0-1.53-.257-2.047-.81-.551-.586-.83-1.364-.83-2.314 0-.939.279-1.711.829-2.297.532-.565 1.183-.828 2.048-.828.866 0 1.517.263 2.048.828.55.586.829 1.358.829 2.297 0 .95-.28 1.728-.83 2.314m-2.047-7.324c-1.388 0-2.557.478-3.476 1.423-.906.942-1.364 2.149-1.364 3.587 0 1.437.458 2.644 1.364 3.586.919.944 2.088 1.423 3.476 1.423 1.389 0 2.553-.479 3.458-1.423.918-.929 1.383-2.136 1.383-3.586 0-1.438-.465-2.645-1.382-3.587-.906-.945-2.07-1.423-3.46-1.423M94.503 57.613c.163-.627.456-1.132.852-1.47.444-.379.982-.57 1.598-.57.753 0 1.36.2 1.802.597.396.353.65.862.725 1.443h-4.977zm7.066 1.356c0-1.632-.428-2.964-1.24-3.852-.825-.902-1.948-1.359-3.34-1.359-1.351 0-2.478.482-3.346 1.434-.854.936-1.305 2.196-1.305 3.647 0 1.408.438 2.557 1.343 3.513.893.946 2.045 1.424 3.422 1.424.942 0 1.797-.226 2.544-.673.596-.356 1.166-.9 1.562-1.492l.058-.086-1.408-1.299-.078.118c-.662.998-1.586 1.547-2.602 1.547-.837 0-1.465-.228-1.978-.719-.544-.52-.811-1.109-.856-1.895h7.194l.03-.308zM52.53 57.613c.162-.626.455-1.132.851-1.47h.001c.442-.379.98-.57 1.597-.57.753 0 1.36.2 1.802.597.396.353.651.862.725 1.443H52.53zm2.487-3.855c-1.353 0-2.48.482-3.348 1.434-.855.936-1.306 2.196-1.306 3.647 0 1.408.44 2.557 1.345 3.513.892.946 2.044 1.424 3.421 1.424.942 0 1.797-.226 2.544-.673.597-.356 1.167-.9 1.562-1.492l.058-.086-1.408-1.299-.078.118c-.662.998-1.587 1.547-2.603 1.547-.836 0-1.464-.228-1.977-.719-.536-.514-.81-1.119-.857-1.895h7.195l.03-.308c0-1.633-.428-2.965-1.24-3.852-.825-.902-1.948-1.359-3.338-1.359zM89.652 51.477h-.229l-1.679 1.066-.056.035v1.637h-1.61v1.816h1.61v5.013c.013.855.281 1.534.796 2.016.49.459 1.125.695 1.942.725.032.002.064.003.097.003.413 0 .992-.081 1.295-.184l.081-.027v-1.9l-.169.075c-.119.052-.23.09-.34.114h-.002c-.188.04-.555.074-.689.068-.298-.015-.524-.106-.73-.297-.21-.194-.317-.583-.317-1.157v-4.45H91.9v-1.815h-2.247v-2.738zM41.161 56.716v-4.941h4.151c1.363 0 2.471 1.108 2.471 2.47 0 1.363-1.108 2.47-2.47 2.47H41.16zm7.686.194c.594-.767.91-1.69.91-2.665 0-.975-.316-1.897-.91-2.665-.833-1.078-2.09-1.697-3.453-1.697h-6.208v13.66h1.975v-4.936h3.117l3.725 4.886.036.05h2.51l-3.909-5.12c.873-.26 1.651-.792 2.207-1.513z" transform="translate(6) translate(329 21.423)"/>
                                        <path fill="#207FF4" d="M19.701 66.817L29.139 61.359 29.139 58.132 19.701 63.614 19.701 63.618 15.801 61.364 15.801 56.865 22.467 53.016 19.697 51.413 13.027 55.263 13.026 55.263 13.026 62.965z" transform="translate(6) translate(329 21.423)"/>
                                        <path fill="#7DB3F6" d="M31.914 55.268L22.47 49.813 19.697 51.414 26.366 55.273 26.369 55.27 29.14 56.87 29.14 61.359 29.136 61.362 25.24 63.61 18.573 59.74 15.799 61.365 25.239 66.814 31.909 62.962z" transform="translate(6) translate(329 21.423)"/>
                                        <path fill="#C0D8FF" d="M22.47 46.609L15.799 50.461 15.8 50.461 15.799 50.461 15.799 61.363 18.574 62.965 18.574 52.062 18.573 52.061 18.574 52.062 22.47 49.812 26.366 52.062 26.366 52.062 26.366 59.744 29.14 58.132 29.14 50.461z" transform="translate(6) translate(329 21.423)"/>
                                        <path fill="#207FF4" d="M15.801 56.865L15.801 56.865 22.467 53.016 19.697 51.413 13.028 55.263 13.027 55.263z" transform="translate(6) translate(329 21.423)"/>
                                    </g>
                                    <text font-family="NotoSansCJKkr-Medium, Noto Sans CJK KR" font-size="12" font-weight="400" letter-spacing="-.132" transform="translate(6)">
                                        <tspan x="9.806" y="334.823" fill="#000">R</tspan> <tspan x="17.402" y="334.823" fill="#000">em</tspan> <tspan x="35.486" y="334.823" fill="#000" letter-spacing="-.276">o</tspan> <tspan x="42.302" y="334.823" fill="#000" letter-spacing="-.204">t</tspan> <tspan x="46.646" y="334.823" fill="#000">e </tspan> <tspan x="56.126" y="334.823" fill="#000" letter-spacing="-.312">c</tspan> <tspan x="61.706" y="334.823" fill="#000">ollabo</tspan> <tspan x="98.042" y="334.823" fill="#000" letter-spacing="-.335">r</tspan> <tspan x="102.279" y="334.823" fill="#000" letter-spacing="-.204">a</tspan> <tspan x="108.771" y="334.823" fill="#000">tion </tspan> <tspan x="134.523" y="334.823" fill="#000">f</tspan> <tspan x="138.399" y="334.823" fill="#000">or</tspan>
                                    </text>
                                    <text font-family="NotoSansCJKkr-Medium, Noto Sans CJK KR" font-size="12" font-weight="400" transform="translate(6)">
                                        <tspan x="17.174" y="350.819" fill="#000">mana</tspan> <tspan x="49.766" y="350.819" fill="#000" letter-spacing="-.205">g</tspan> <tspan x="56.292" y="350.819" fill="#000">ement / </tspan> <tspan x="103.477" y="350.819" fill="#000" letter-spacing="-.312">c</tspan> <tspan x="109.056" y="350.819" fill="#000">ont</tspan> <tspan x="128.665" y="350.819" fill="#000" letter-spacing="-.132">r</tspan> <tspan x="133.309" y="350.819" fill="#000">ol</tspan>
                                    </text>
                                    <g transform="translate(6) translate(0 .423)">
                                        <path fill="#FFF" d="M137.393 257.045c0 31.125-25.231 56.357-56.357 56.357-31.125 0-56.357-25.232-56.357-56.357s25.232-56.357 56.357-56.357c31.126 0 56.357 25.232 56.357 56.357"/>
                                        <path stroke="#C5C8CF" stroke-width=".75" d="M137.393 257.045c0 31.125-25.231 56.357-56.357 56.357-31.125 0-56.357-25.232-56.357-56.357s25.232-56.357 56.357-56.357c31.126 0 56.357 25.232 56.357 56.357z"/>
                                        <path fill="#273A5B" d="M95.216 253.991c-1.316 0-2.374.551-3.147 1.64-.248-.48-.61-.869-1.08-1.155-.53-.322-1.15-.485-1.842-.485-.556 0-1.12.155-1.68.464-.465.258-.835.573-1.103.94v-1.104h-1.89v9.47h1.965v-5.248c0-.73.218-1.374.648-1.91.43-.537.943-.798 1.572-.798.696 0 1.194.178 1.48.527.293.358.442.96.442 1.788v5.641h1.964v-5.248c0-.73.219-1.374.65-1.91.428-.537.943-.798 1.57-.798.696 0 1.194.178 1.48.527.294.357.443.96.443 1.788v5.641h1.964v-5.904c0-1.223-.3-2.182-.892-2.85-.596-.675-1.451-1.016-2.544-1.016M106.664 261.315c-.519.552-1.169.81-2.048.81s-1.53-.258-2.047-.81c-.55-.586-.83-1.365-.83-2.315 0-.938.28-1.71.83-2.296.531-.565 1.181-.828 2.047-.828.866 0 1.517.263 2.048.828.55.586.83 1.358.83 2.296 0 .95-.28 1.73-.83 2.315m-2.048-7.324c-1.388 0-2.557.478-3.477 1.423-.905.942-1.363 2.148-1.363 3.586 0 1.438.458 2.645 1.364 3.586.92.945 2.088 1.423 3.476 1.423 1.39 0 2.552-.478 3.458-1.422.918-.929 1.383-2.136 1.383-3.587 0-1.438-.465-2.644-1.382-3.586-.907-.945-2.07-1.423-3.459-1.423M118.241 257.846c.163-.626.456-1.132.852-1.47.443-.378.981-.57 1.598-.57.753 0 1.36.2 1.802.598.396.353.651.862.725 1.442h-4.977zm7.066 1.356c0-1.631-.428-2.964-1.24-3.851-.825-.902-1.948-1.36-3.339-1.36-1.352 0-2.479.483-3.347 1.435-.854.935-1.305 2.195-1.305 3.646 0 1.409.438 2.558 1.343 3.514.893.945 2.045 1.424 3.422 1.424.942 0 1.797-.227 2.544-.673.596-.356 1.166-.9 1.562-1.492l.058-.086-1.408-1.3-.078.118c-.662.998-1.587 1.548-2.602 1.548-.837 0-1.465-.23-1.978-.72-.544-.52-.81-1.108-.856-1.895h7.194l.03-.308zM76.268 257.846c.163-.626.456-1.132.852-1.47.443-.378.98-.57 1.598-.57.752 0 1.359.2 1.802.598.396.353.65.862.725 1.442h-4.977zm2.487-3.854c-1.352 0-2.48.482-3.348 1.434-.854.936-1.305 2.196-1.305 3.646 0 1.409.439 2.558 1.344 3.514.893.945 2.045 1.424 3.422 1.424.94 0 1.797-.227 2.544-.673.596-.356 1.166-.901 1.562-1.492l.057-.086-1.407-1.3-.078.118c-.662.998-1.587 1.548-2.603 1.548-.836 0-1.464-.23-1.977-.72-.537-.513-.81-1.118-.857-1.895h7.194l.03-.308c0-1.632-.427-2.964-1.24-3.851-.824-.902-1.947-1.36-3.338-1.36zM113.39 251.71h-.23l-1.678 1.065-.055.037v1.637h-1.611v1.815h1.61v5.013c.014.855.28 1.534.797 2.016.49.459 1.125.695 1.94.726l.099.002c.412 0 .99-.081 1.295-.184l.08-.028v-1.9l-.17.075c-.117.054-.228.09-.34.115-.188.04-.555.074-.69.068-.297-.015-.523-.106-.73-.297-.21-.193-.317-.582-.317-1.156v-4.45h2.248v-1.815h-2.248v-2.738zM64.9 256.95v-4.942h4.15c1.363 0 2.471 1.108 2.471 2.47 0 1.363-1.108 2.471-2.472 2.471H64.9zm7.684.193c.595-.767.91-1.689.91-2.665 0-.975-.315-1.897-.91-2.665-.832-1.079-2.09-1.697-3.453-1.697h-6.207v13.661H64.9v-4.937h3.117l3.724 4.886.037.051h2.51l-3.909-5.12c.872-.26 1.65-.794 2.206-1.514z"/>
                                        <path fill="#207FF4" d="M43.44 267.05L52.877 261.593 52.877 258.366 43.44 263.848 43.44 263.851 39.539 261.598 39.539 257.099 46.206 253.25 43.435 251.647 36.766 255.497 36.764 255.497 36.764 263.199 43.44 267.05 43.44 267.051 43.44 267.05 43.44 267.051z"/>
                                        <path fill="#7DB3F6" d="M55.651 255.501L46.207 250.045 43.435 251.647 50.103 255.505 50.107 255.503 52.878 257.103 52.878 261.592 52.873 261.594 48.978 263.843 42.31 259.973 39.537 261.598 48.976 267.047 55.647 263.195z"/>
                                        <path fill="#C0D8FF" d="M46.207 246.843L39.537 250.694 39.538 250.695 39.537 250.694 39.537 261.597 42.311 263.198 42.311 252.295 46.207 250.046 50.103 252.295 50.103 259.977 52.878 258.366 52.878 250.694z"/>
                                        <path fill="#207FF4" d="M39.539 257.099L39.539 257.099 46.205 253.25 43.435 251.647 36.766 255.497 36.765 255.497z"/>
                                        <mask id="gyqg0l2qmd" fill="#fff">
                                            <use xlink:href="#tiv5dwvqvc"/>
                                        </mask>
                                        <text fill="#000" font-family="NotoSansCJKkr-Medium, Noto Sans CJK KR" font-size="12" font-weight="400" letter-spacing="-.132" mask="url(#gyqg0l2qmd)">
                                            <tspan x="637.227" y="334.4">R</tspan> <tspan x="644.823" y="334.4">em</tspan> <tspan x="662.907" y="334.4" letter-spacing="-.276">o</tspan> <tspan x="669.723" y="334.4" letter-spacing="-.204">t</tspan> <tspan x="674.067" y="334.4">e </tspan> <tspan x="683.547" y="334.4" letter-spacing="-.312">c</tspan> <tspan x="689.127" y="334.4">ollabo</tspan> <tspan x="725.463" y="334.4" letter-spacing="-.335">r</tspan> <tspan x="729.7" y="334.4" letter-spacing="-.204">a</tspan> <tspan x="736.192" y="334.4">tion</tspan>
                                        </text>
                                    </g>
                                    <text font-family="NotoSansCJKkr-Medium, Noto Sans CJK KR" font-size="12" font-weight="400" letter-spacing="-.204" transform="translate(6)">
                                        <tspan x="652.082" y="350.823" fill="#000">t</tspan> <tspan x="656.426" y="350.823" fill="#000">o </tspan> <tspan x="666.494" y="350.823" fill="#000" letter-spacing="-.132">r</tspan> <tspan x="671.138" y="350.823" fill="#000">esol</tspan> <tspan x="694.622" y="350.823" fill="#000" letter-spacing="-.072">v</tspan> <tspan x="701.018" y="350.823" fill="#000">e issues</tspan>
                                    </text>
                                    <g>
                                        <path fill="#FFF" d="M113.321 57.045c0 31.125-25.23 56.357-56.356 56.357S.607 88.17.607 57.045 25.84.688 56.965.688c31.125 0 56.356 25.232 56.356 56.357" transform="translate(6) translate(642 200.423)"/>
                                        <path stroke="#C5C8CF" stroke-width=".75" d="M113.321 57.045c0 31.125-25.23 56.357-56.356 56.357S.607 88.17.607 57.045 25.84.688 56.965.688c31.125 0 56.356 25.232 56.356 56.357z" transform="translate(6) translate(642 200.423)"/>
                                        <path fill="#273A5B" d="M71.144 53.991c-1.316 0-2.374.551-3.147 1.64-.248-.48-.61-.869-1.08-1.155-.53-.322-1.148-.485-1.841-.485-.556 0-1.12.155-1.68.464-.465.258-.836.573-1.104.94v-1.104h-1.889v9.47h1.965v-5.248c0-.73.218-1.374.648-1.91.43-.537.943-.798 1.572-.798.696 0 1.195.178 1.48.527.294.358.442.96.442 1.788v5.641h1.963v-5.248c0-.73.22-1.374.65-1.91.428-.537.944-.798 1.572-.798.695 0 1.193.178 1.48.527.293.357.442.96.442 1.788v5.641h1.963v-5.904c0-1.223-.3-2.182-.891-2.85-.596-.675-1.451-1.016-2.544-1.016M82.593 61.315c-.52.552-1.17.81-2.048.81-.88 0-1.53-.258-2.047-.81-.551-.586-.83-1.365-.83-2.315 0-.938.279-1.71.829-2.296.532-.565 1.183-.828 2.048-.828.866 0 1.517.263 2.048.828.55.586.829 1.358.829 2.296 0 .95-.28 1.73-.83 2.315m-2.047-7.324c-1.388 0-2.557.478-3.476 1.423-.906.942-1.364 2.148-1.364 3.586 0 1.438.458 2.645 1.364 3.586.919.945 2.088 1.423 3.476 1.423 1.389 0 2.553-.478 3.458-1.422.918-.929 1.383-2.136 1.383-3.587 0-1.438-.465-2.644-1.382-3.586-.906-.945-2.07-1.423-3.46-1.423M94.17 57.846c.163-.626.456-1.132.852-1.47.444-.378.982-.57 1.598-.57.753 0 1.36.2 1.802.598.396.353.65.862.725 1.442H94.17zm7.066 1.356c0-1.631-.428-2.964-1.24-3.851-.825-.902-1.948-1.36-3.34-1.36-1.351 0-2.478.483-3.346 1.435-.854.935-1.305 2.195-1.305 3.646 0 1.409.438 2.558 1.343 3.514.893.945 2.045 1.424 3.422 1.424.942 0 1.797-.227 2.544-.673.596-.356 1.166-.9 1.562-1.492l.058-.086-1.408-1.3-.078.118c-.662.998-1.586 1.548-2.602 1.548-.837 0-1.465-.23-1.978-.72-.544-.52-.811-1.108-.856-1.895h7.194l.03-.308zM52.196 57.846c.163-.626.456-1.132.852-1.47h.001c.442-.378.98-.57 1.597-.57.753 0 1.36.2 1.802.598.396.353.651.862.725 1.442h-4.977zm2.488-3.854c-1.353 0-2.48.482-3.348 1.434-.855.936-1.306 2.196-1.306 3.646 0 1.409.44 2.558 1.345 3.514.892.945 2.044 1.424 3.421 1.424.941 0 1.797-.227 2.544-.673.596-.356 1.167-.901 1.562-1.492l.057-.086-1.407-1.3-.078.118c-.662.998-1.587 1.548-2.603 1.548-.836 0-1.464-.23-1.977-.72-.537-.513-.81-1.118-.857-1.895h7.195l.03-.308c0-1.632-.428-2.964-1.24-3.851-.825-.902-1.948-1.36-3.338-1.36zM89.318 51.71h-.229l-1.678 1.065-.056.037v1.637h-1.61v1.815h1.61v5.013c.013.855.281 1.534.796 2.016.49.459 1.125.695 1.942.726l.097.002c.413 0 .992-.081 1.295-.184l.081-.028v-1.9l-.169.075c-.119.054-.23.09-.34.115h-.002c-.188.04-.555.074-.689.068-.298-.015-.524-.106-.73-.297-.21-.193-.318-.582-.318-1.156v-4.45h2.248v-1.815h-2.248V51.71zM40.828 56.95v-4.942h4.151c1.363 0 2.471 1.108 2.471 2.47 0 1.363-1.108 2.471-2.47 2.471h-4.152zm7.686.193c.594-.767.91-1.689.91-2.665 0-.975-.316-1.897-.91-2.665-.833-1.079-2.09-1.697-3.454-1.697h-6.207v13.661h1.975V58.84h3.117l3.725 4.886.036.051h2.51l-3.909-5.12c.873-.26 1.651-.794 2.207-1.514z" transform="translate(6) translate(642 200.423)"/>
                                        <path fill="#207FF4" d="M19.368 67.05L28.806 61.593 28.806 58.366 19.368 63.848 19.368 63.851 15.468 61.598 15.468 57.099 22.134 53.25 19.364 51.647 12.694 55.497 12.693 55.497 12.693 63.199 19.368 67.05 19.368 67.051 19.368 67.05 19.368 67.051z" transform="translate(6) translate(642 200.423)"/>
                                        <path fill="#7DB3F6" d="M31.581 55.501L22.137 50.045 19.364 51.647 26.032 55.505 26.036 55.503 28.807 57.103 28.807 61.592 28.803 61.594 24.907 63.843 18.24 59.973 15.466 61.598 24.906 67.047 31.576 63.195z" transform="translate(6) translate(642 200.423)"/>
                                        <path fill="#C0D8FF" d="M22.137 46.843L15.466 50.694 15.467 50.695 15.466 50.694 15.466 61.597 18.241 63.198 18.241 52.295 18.24 52.295 18.241 52.295 22.136 50.046 26.033 52.295 26.033 59.977 28.807 58.366 28.807 50.694z" transform="translate(6) translate(642 200.423)"/>
                                        <path fill="#207FF4" d="M15.468 57.099L15.468 57.099 22.134 53.25 19.364 51.647 12.695 55.497 12.694 55.497z" transform="translate(6) translate(642 200.423)"/>
                                    </g>
                                    <text font-family="NotoSansCJKkr-Medium, Noto Sans CJK KR" font-size="12" font-weight="400" letter-spacing="-.132" transform="translate(6)">
                                        <tspan x="324.56" y="506.098" fill="#000">R</tspan> <tspan x="332.156" y="506.098" fill="#000">em</tspan> <tspan x="350.24" y="506.098" fill="#000" letter-spacing="-.276">o</tspan> <tspan x="357.056" y="506.098" fill="#000" letter-spacing="-.204">t</tspan> <tspan x="361.4" y="506.098" fill="#000">e </tspan> <tspan x="370.88" y="506.098" fill="#000" letter-spacing="-.312">c</tspan> <tspan x="376.46" y="506.098" fill="#000">ollabo</tspan> <tspan x="412.796" y="506.098" fill="#000" letter-spacing="-.335">r</tspan> <tspan x="417.033" y="506.098" fill="#000" letter-spacing="-.204">a</tspan> <tspan x="423.525" y="506.098" fill="#000">tion</tspan>
                                    </text>
                                    <g>
                                        <text fill="#000" font-family="NotoSansCJKkr-Medium, Noto Sans CJK KR" font-size="12" font-weight="400" letter-spacing="-.204" transform="translate(6) translate(329 373.423)">
                                            <tspan x="10.415" y="148.675">t</tspan> <tspan x="14.759" y="148.675">o </tspan> <tspan x="24.827" y="148.675" letter-spacing="-.132">r</tspan> <tspan x="29.471" y="148.675">esol</tspan> <tspan x="52.955" y="148.675" letter-spacing="-.072">v</tspan> <tspan x="59.351" y="148.675">e issues</tspan>
                                        </text>
                                        <path fill="#FFF" d="M113.654 57.32c0 31.125-25.23 56.357-56.356 56.357S.94 88.445.94 57.32 26.172.963 57.298.963c31.125 0 56.356 25.232 56.356 56.357" transform="translate(6) translate(329 373.423)"/>
                                        <path stroke="#C5C8CF" stroke-width=".75" d="M113.654 57.32c0 31.125-25.23 56.357-56.356 56.357S.94 88.445.94 57.32 26.172.963 57.298.963c31.125 0 56.356 25.232 56.356 56.357z" transform="translate(6) translate(329 373.423)"/>
                                        <path fill="#273A5B" d="M71.478 54.267c-1.316 0-2.374.55-3.147 1.639-.249-.48-.61-.867-1.08-1.154-.53-.322-1.15-.485-1.843-.485-.555 0-1.12.156-1.678.464-.466.258-.836.573-1.104.94v-1.104h-1.89v9.47h1.966V58.79c0-.73.217-1.373.647-1.91.43-.537.943-.798 1.572-.798.695 0 1.194.178 1.48.527.294.358.442.96.442 1.788v5.642h1.963v-5.25c0-.73.22-1.372.65-1.91.428-.536.944-.797 1.572-.797.694 0 1.192.178 1.48.527.293.357.442.96.442 1.788v5.642h1.963v-5.904c0-1.223-.3-2.183-.891-2.852-.597-.674-1.452-1.015-2.544-1.015M82.926 61.59c-.52.554-1.17.81-2.048.81-.88 0-1.53-.256-2.047-.81-.551-.585-.83-1.363-.83-2.313 0-.94.279-1.711.829-2.297.532-.565 1.183-.828 2.048-.828.866 0 1.517.263 2.048.828.55.586.829 1.358.829 2.297 0 .95-.28 1.728-.83 2.314m-2.047-7.324c-1.388 0-2.557.478-3.476 1.423-.906.942-1.364 2.149-1.364 3.587 0 1.437.458 2.644 1.364 3.586.919.944 2.088 1.423 3.476 1.423 1.389 0 2.553-.48 3.458-1.423.918-.93 1.383-2.136 1.383-3.586 0-1.438-.465-2.645-1.382-3.587-.906-.945-2.07-1.423-3.46-1.423M94.503 58.121c.163-.626.456-1.13.852-1.469.444-.379.982-.57 1.598-.57.753 0 1.36.2 1.802.597.396.353.65.862.725 1.442h-4.977zm7.066 1.357c0-1.632-.428-2.964-1.24-3.852-.825-.902-1.948-1.359-3.34-1.359-1.351 0-2.478.482-3.346 1.434-.854.936-1.305 2.196-1.305 3.647 0 1.408.438 2.557 1.343 3.513.893.946 2.045 1.424 3.422 1.424.942 0 1.797-.227 2.544-.673.596-.356 1.166-.9 1.562-1.492l.058-.086-1.408-1.299-.078.118c-.662.997-1.586 1.547-2.602 1.547-.837 0-1.465-.228-1.978-.719-.544-.52-.811-1.109-.856-1.895h7.194l.03-.308zM52.53 58.121c.162-.625.455-1.13.851-1.469h.001c.442-.379.98-.57 1.597-.57.753 0 1.36.2 1.802.597.396.353.651.862.725 1.442H52.53zm2.487-3.854c-1.353 0-2.48.482-3.348 1.434-.855.936-1.306 2.196-1.306 3.647 0 1.408.44 2.557 1.345 3.513.892.946 2.044 1.424 3.421 1.424.942 0 1.797-.227 2.544-.673.597-.356 1.167-.9 1.562-1.492l.058-.086-1.408-1.299-.078.118c-.662.997-1.587 1.547-2.603 1.547-.836 0-1.464-.228-1.977-.719-.536-.514-.81-1.119-.857-1.895h7.195l.03-.308c0-1.633-.428-2.965-1.24-3.852-.825-.902-1.948-1.359-3.338-1.359zM89.652 51.986h-.229l-1.679 1.065-.056.036v1.637h-1.61v1.815h1.61v5.013c.013.855.281 1.534.796 2.016.49.46 1.125.696 1.942.726l.097.002c.413 0 .992-.08 1.295-.184l.081-.027v-1.9l-.169.075c-.119.053-.23.09-.34.114h-.002c-.188.041-.555.074-.689.068-.298-.015-.524-.106-.73-.297-.21-.193-.317-.582-.317-1.156v-4.45H91.9v-1.815h-2.247v-2.738zM41.161 57.225v-4.941h4.151c1.363 0 2.471 1.108 2.471 2.47 0 1.363-1.108 2.47-2.47 2.47H41.16zm7.686.194c.594-.767.91-1.69.91-2.665 0-.975-.316-1.897-.91-2.665-.833-1.08-2.09-1.697-3.453-1.697h-6.208v13.66h1.975v-4.936h3.117l3.725 4.886.036.05h2.51l-3.909-5.12c.873-.26 1.651-.792 2.207-1.513z" transform="translate(6) translate(329 373.423)"/>
                                        <path fill="#207FF4" d="M19.701 67.326L29.139 61.868 29.139 58.641 19.701 64.123 19.701 64.127 15.801 61.873 15.801 57.374 22.467 53.525 19.697 51.922 13.027 55.772 13.026 55.772 13.026 63.474z" transform="translate(6) translate(329 373.423)"/>
                                        <path fill="#7DB3F6" d="M31.914 55.776L22.47 50.321 19.697 51.922 26.366 55.781 26.369 55.778 29.14 57.378 29.14 61.867 29.136 61.869 25.24 64.118 18.573 60.248 15.799 61.873 25.239 67.322 31.909 63.47z" transform="translate(6) translate(329 373.423)"/>
                                        <path fill="#C0D8FF" d="M22.47 47.118L15.799 50.97 15.8 50.97 15.799 50.97 15.799 61.872 18.574 63.474 18.574 52.571 18.573 52.57 18.574 52.571 22.47 50.321 26.366 52.571 26.366 52.571 26.366 60.253 29.14 58.641 29.14 50.97z" transform="translate(6) translate(329 373.423)"/>
                                        <path fill="#207FF4" d="M15.801 57.374L15.801 57.374 22.467 53.525 19.697 51.922 13.028 55.772 13.027 55.772z" transform="translate(6) translate(329 373.423)"/>
                                    </g>
                                    <text font-family="NotoSansCJKkr-Medium, Noto Sans CJK KR" font-size="12" font-weight="400" transform="translate(6)">
                                        <tspan x="460.504" y="243.708" fill="#000">Video &amp; </tspan> <tspan x="506.644" y="243.708" fill="#000" letter-spacing="-.312">c</tspan> <tspan x="512.224" y="243.708" fill="#000">ollabo</tspan> <tspan x="548.56" y="243.708" fill="#000" letter-spacing="-.336">r</tspan> <tspan x="552.796" y="243.708" fill="#000" letter-spacing="-.204">a</tspan> <tspan x="559.288" y="243.708" fill="#000">tion d</tspan> <tspan x="592.6" y="243.708" fill="#000" letter-spacing="-.204">a</tspan> <tspan x="599.092" y="243.708" fill="#000" letter-spacing="-.288">t</tspan> <tspan x="603.268" y="243.708" fill="#000">a</tspan>
                                    </text>
                                    <g>
                                        <path stroke="#C5C8CF" stroke-width=".75" d="M171.74 4.787L1.134 4.787" transform="translate(6) translate(157 254.423)"/>
                                        <path fill="#C5C8CF" d="M165.765 4.787L165.765.024 169.889 2.406 174.013 4.787 169.889 7.168 165.765 9.549zM8.307 4.787L8.307 9.549 4.183 7.168.059 4.787 4.183 2.406 8.307.024z" transform="translate(6) translate(157 254.423)"/>
                                    </g>
                                    <text font-family="NotoSansCJKkr-Medium, Noto Sans CJK KR" font-size="12" font-weight="400" transform="translate(6)">
                                        <tspan x="167.935" y="243.708" fill="#000">Video &amp; </tspan> <tspan x="214.075" y="243.708" fill="#000" letter-spacing="-.312">c</tspan> <tspan x="219.655" y="243.708" fill="#000">ollabo</tspan> <tspan x="255.991" y="243.708" fill="#000" letter-spacing="-.336">r</tspan> <tspan x="260.227" y="243.708" fill="#000" letter-spacing="-.204">a</tspan> <tspan x="266.719" y="243.708" fill="#000">tion d</tspan> <tspan x="300.031" y="243.708" fill="#000" letter-spacing="-.204">a</tspan> <tspan x="306.523" y="243.708" fill="#000" letter-spacing="-.288">t</tspan> <tspan x="310.699" y="243.708" fill="#000">a</tspan>
                                    </text>
                                    <g>
                                        <path stroke="#C5C8CF" stroke-width=".75" d="M5.297 2.548L5.297 42.376" transform="translate(6) translate(381 180.423)"/>
                                        <path fill="#C5C8CF" d="M5.297 8.523L.535 8.523 2.916 4.399 5.297.275 7.678 4.399 10.059 8.523zM5.297 34.852L10.059 34.852 7.678 38.976 5.297 43.1 2.916 38.976.535 34.852z" transform="translate(6) translate(381 180.423)"/>
                                        <path stroke="#C5C8CF" stroke-width=".75" d="M5.297 142.615L5.297 184.443" transform="translate(6) translate(381 180.423)"/>
                                        <path fill="#C5C8CF" d="M5.297 148.591L.535 148.591 2.916 144.467 5.297 140.343 7.678 144.467 10.059 148.591zM5.297 176.919L10.059 176.919 7.678 181.043 5.297 185.167 2.916 181.043.535 176.919z" transform="translate(6) translate(381 180.423)"/>
                                    </g>
                                </g>
                            </g>
                        </g>
                    </g>
                </g>
            </g>
        </g>
    </g>
</svg>
