<svg xmlns="http://www.w3.org/2000/svg" xmlns:xlink="http://www.w3.org/1999/xlink" width="780" height="210" viewBox="0 0 780 210">
    <defs>
        <path id="prefix__a" d="M0 0.392L740.805 0.392 740.805 153 0 153z"/>
        <path id="prefix__c" d="M0.86 6.877L0.86 19.908 12.146 26.425 23.432 19.908 23.432 6.877 12.146 0.36z"/>
        <path id="prefix__e" d="M0.08 12.908L11.146 19.229 11.146 6.393 0.08 0.003z"/>
        <path id="prefix__g" d="M.86 6.877v13.032l11.286 6.516 11.286-6.516V6.877L12.146.36.86 6.877zm.388 12.808V7.101L12.146.808l10.898 6.293v12.584l-10.898 6.292-10.898-6.292z"/>
    </defs>
    <g fill="none" fill-rule="evenodd">
        <path fill="#F8F9FB" d="M0 0H780V210H0z"/>
        <g>
            <g transform="translate(20 25) translate(0 .608)">
                <mask id="prefix__b" fill="#fff">
                    <use xlink:href="#prefix__a"/>
                </mask>
                <path fill="#000" d="M9.181 136.977h1.235v-10.83H9.181v10.83zm-1.955-9.691c0 3.226-1.295 5.96-5.013 7.76l-.66-.983c2.843-1.368 4.185-3.275 4.401-5.77H2.093v-1.007h5.133zM20.58 136.977h1.176v-10.83H20.58v10.83zm-2.183-10.615h1.164v10.087h-1.164v-5.097h-1.462v-1.008h1.462v-3.982zm-2.626 3.095c0 1.69.732 3.418 2.219 4.222l-.683.923c-1.02-.552-1.716-1.547-2.112-2.723-.383 1.271-1.067 2.363-2.098 2.963l-.708-.936c1.487-.876 2.207-2.722 2.207-4.449v-.384h-1.871v-1.019h1.871v-1.535h1.175v1.535h1.859v1.019h-1.859v.384zM26.428 126.482L27.387 126.482 24.053 138.211 23.093 138.211zM38.641 136.977h1.235v-10.83h-1.235v10.83zm-1.955-9.691c0 3.226-1.295 5.96-5.014 7.76l-.659-.983c2.842-1.368 4.185-3.275 4.401-5.77h-3.861v-1.007h5.133zM51.947 129.576v1.02h-1.439v3.682H49.26v-8.132h1.248v3.43h1.44zm-7.208 6.19h6.116v1.006h-7.363v-3.214h1.247v2.207zm1.751-5.11c.216-1.164.252-2.016.264-2.686H42.52v-1.008h5.446v.624c0 .731 0 1.8-.265 3.202l-1.21-.132zm2.195 1.571c-2.255.396-4.809.455-6.692.455l-.132-1.006c.648 0 1.391 0 2.158-.025v-2.219h1.224v2.183c1.127-.048 2.291-.12 3.358-.288l.084.9zM64.116 128.87v-2.724h1.235v6.452h-1.235v-2.722h-1.919v-1.007h1.92zm.048 6.067c0-.707-.888-1.09-2.41-1.09-1.548 0-2.423.383-2.423 1.09 0 .708.875 1.092 2.422 1.092 1.523 0 2.411-.384 2.411-1.092zm1.235 0c0 1.295-1.39 2.051-3.646 2.051-2.267 0-3.658-.756-3.658-2.05 0-1.284 1.391-2.05 3.658-2.05 2.255 0 3.646.766 3.646 2.05zm-3.19-2.686c-1.199-.42-2.063-1.272-2.519-2.315-.479 1.188-1.39 2.147-2.675 2.603l-.635-.983c1.68-.6 2.651-2.04 2.651-3.527v-.156h-2.29v-.995h5.792v.995h-2.255v.144c0 1.356.923 2.7 2.542 3.262l-.61.972zM75.084 137h1.247v-10.865h-1.247V137zm-5.864-3.573h2.746v-2.65H69.22v2.65zm0-6.393v2.758h2.746v-2.758h1.235v7.388h-5.205v-7.388h1.224zM89.509 137h1.247v-10.878h-1.247V137zm-5.829-3.598c1.715-.011 3.214-.095 4.929-.372l.132 1.008c-1.859.324-3.478.384-5.386.384h-.922v-4.294h3.777v-2.015h-3.802v-1.008h5.05v4.019H83.68v2.278zM101.712 132.455c-1.763-.36-3.286-1.487-3.994-2.975-.707 1.488-2.231 2.615-3.993 2.975l-.53-1.02c2.136-.395 3.875-2.062 3.875-3.778v-.815h1.308v.815c0 1.728 1.739 3.395 3.874 3.778l-.54 1.02zm-8.852 3.13h9.81v-1.02h-9.81v1.02zM112.62 132.862h-7.508v-5.84h7.424v.995h-6.165v1.391h5.925v.972h-5.925v1.487h6.25v.995zm-8.719 2.783h9.823v-1.008h-9.823v1.008zM125.976 132.323h1.248v-6.188h-1.248v6.188zm-5.913-1.991h2.723v-2.53h-2.723v2.53zm4.27 3.61c.096.888 1.487 1.859 3.49 2.075l-.408.935c-1.715-.203-3.059-.899-3.718-1.835-.66.948-2.027 1.632-3.754 1.835l-.408-.935c2.028-.204 3.431-1.152 3.527-2.075h-3.107v-.947h3.107v-.972h1.259v.972h3.106v.947h-3.094zm-5.482-2.627h5.134v-4.497h-5.134v4.497zM7.736 144.87v-2.724h1.235v6.452H7.736v-2.722H5.817v-1.007h1.92zm.048 6.067c0-.708-.888-1.09-2.41-1.09-1.548 0-2.423.382-2.423 1.09 0 .707.875 1.091 2.422 1.091 1.523 0 2.411-.384 2.411-1.09zm1.235 0c0 1.295-1.39 2.051-3.646 2.051-2.267 0-3.658-.756-3.658-2.05 0-1.284 1.391-2.05 3.658-2.05 2.255 0 3.646.766 3.646 2.05zm-3.19-2.686c-1.199-.42-2.063-1.272-2.519-2.315-.479 1.187-1.39 2.147-2.675 2.603L0 147.556c1.68-.6 2.65-2.04 2.65-3.527v-.156H.36v-.995h5.793v.995H3.898v.144c0 1.355.923 2.7 2.542 3.262l-.61.972zM18.704 153h1.247v-10.866h-1.247V153zm-5.864-3.574h2.746v-2.65H12.84v2.65zm0-6.393v2.759h2.746v-2.759h1.235v7.389h-5.205v-7.389h1.224zM29.074 147.699h2.494v-3.538h-2.494v3.538zm-1.235-3.538h-1.596v-.995h8.144v.995h-1.595v3.538h1.571v1.008h-8.084v-1.008h1.56v-3.538zm-2.411 7.484h9.835v-1.019h-9.835v1.019zM46.29 150.685L46.29 151.706 36.479 151.706 36.479 150.685 40.749 150.685 40.749 148.839 37.667 148.839 37.667 145.349 43.903 145.349 43.903 143.898 37.644 143.898 37.644 142.901 45.127 142.901 45.127 146.332 38.879 146.332 38.879 147.843 45.367 147.843 45.367 148.839 41.984 148.839 41.984 150.685zM55.592 152.977h1.175v-10.83h-1.175v10.83zm-2.207-10.627h1.163v10.123h-1.163v-5.53h-1.596v-1.006h1.596v-3.587zm-2.543 2.686c0 1.752.66 3.587 2.111 4.498l-.696.959c-.984-.599-1.631-1.654-2.003-2.866-.384 1.331-1.091 2.471-2.135 3.106l-.755-.935c1.535-.911 2.279-2.855 2.279-4.701v-1.955h1.199v1.894zM67.411 148.455c-1.763-.36-3.286-1.487-3.994-2.975-.707 1.488-2.23 2.615-3.993 2.975l-.529-1.02c2.135-.396 3.874-2.063 3.874-3.778v-.815h1.308v.815c0 1.728 1.74 3.395 3.874 3.778l-.54 1.02zm-8.852 3.13h9.811v-1.02h-9.81v1.02zM81.02 152.964h1.187v-10.83H81.02v10.83zm-2.207-10.59h1.164v10.087h-1.164v-5.254h-2.134V146.2h2.134v-3.826zm-4.27 7.064c1.344-.012 2.268-.072 3.335-.299l.107 1.019c-1.223.239-2.278.3-3.933.3h-.732v-7.04h4.102v1.007h-2.879v5.013zM91.664 153h1.247v-10.866h-1.247V153zm-6.116-6.248c0 1.703.659 2.723 1.595 2.723.947 0 1.607-1.02 1.607-2.723 0-1.68-.66-2.699-1.607-2.699-.936 0-1.595 1.019-1.595 2.699zm4.39 0c0 2.351-1.176 3.825-2.795 3.825-1.608 0-2.783-1.474-2.783-3.825 0-2.327 1.175-3.815 2.783-3.815 1.619 0 2.795 1.488 2.795 3.815zM104.035 142.122v10.866h-1.247v-5.865h-2.075v-1.02h2.075v-3.98h1.247zm-7.279 7.328c1.726-.012 2.962-.072 4.377-.31l.108.994c-1.548.275-2.902.324-4.869.324h-.852v-7.376h5.025v1.02h-3.789v2.026h3.345v.983h-3.345v2.34zM114.921 146.38h2.255v-1.331h-2.255v1.331zm3.742 5.385v1.007h-7.305v-3.394h1.248v2.387h6.057zm-7.508-4.377h2.554v-1.764h-2.554v1.764zm3.766 1.007h-4.989v-5.529h1.223v1.786h2.554v-1.786h1.212v1.187h2.255v-1.895h1.235v8h-1.235v-2.77h-2.255v1.007zM130.446 145.816v1.02h-1.487v3.777h-1.236v-8.48h1.236v3.683h1.487zm-6.692 1.067c.863 0 1.415-.299 1.415-.803 0-.516-.552-.827-1.415-.827-.864 0-1.415.311-1.415.827 0 .504.551.803 1.415.803zm-.564 4.881h6.141v1.008h-7.376v-2.698h1.235v1.69zm3.658-7.735h-6.188v-.912h2.482v-1.019h1.247v1.02h2.46v.911zm.396 4.941c-2.267.432-4.846.48-6.717.492l-.144-.984c.804 0 1.763-.012 2.76-.036v-.743c-1.213-.144-1.968-.732-1.968-1.619 0-1.032 1.02-1.667 2.58-1.667 1.558 0 2.578.635 2.578 1.667 0 .875-.744 1.475-1.944 1.62v.682c.936-.059 1.883-.13 2.76-.263l.095.851z" mask="url(#prefix__b)"/>
                <path fill="#C5C8CF" d="M132.495 57.376L208.102 57.376 208.102 56.626 132.495 56.626z" mask="url(#prefix__b)"/>
                <path fill="#C5C8CF" d="M202.127 57.001L202.127 52.239 206.251 54.62 210.375 57.001 206.251 59.382 202.127 61.763zM536.886 57.376L614.346 57.376 614.346 56.626 536.886 56.626z" mask="url(#prefix__b)"/>
                <path fill="#C5C8CF" d="M608.37 57.001L608.37 52.239 612.494 54.62 616.618 57.001 612.494 59.382 608.37 61.763z" mask="url(#prefix__b)"/>
                <path fill="#000" d="M645.17 132.442l-.349-1.187c-.299-.959-.563-1.943-.839-2.939h-.048c-.252 1.008-.528 1.98-.816 2.94l-.36 1.186h2.411zm.335 1.092h-3.07l-.756 2.518h-1.415l2.926-8.827h1.607l2.927 8.827h-1.476l-.743-2.518zM650.283 131.375h1.33c1.284 0 1.98-.527 1.98-1.595 0-1.067-.696-1.439-1.98-1.439h-1.33v3.034zm3.43 4.678l-2.003-3.563h-1.427v3.563h-1.392v-8.827h2.89c1.824 0 3.19.647 3.19 2.554 0 1.367-.73 2.183-1.845 2.531l2.158 3.742h-1.571zM668.147 126.145v10.819h-1.175v-5.59h-1.235v5.085h-1.164v-10.11h1.164v4.019h1.235v-4.222h1.175zm-7.735 7.028h1.871v-4.857h-1.871v4.857zm-1.152.983h4.174v-6.824h-4.174v6.825zM678.612 130.691h-7.46v-4.029h1.247v3.021h6.213v1.008zm1.127 2.398h-2.41v3.9h-1.236v-3.9h-2.518v3.9h-1.235v-3.9h-2.4v-1.006h9.799v1.006zM690.311 135.873v.971h-7.399v-2.842h5.816v-.888h-5.829v-.96h7.053v2.759h-5.818v.96h6.177zm-6.356-5.445c.935 0 1.63-.588 1.63-1.476s-.695-1.475-1.63-1.475c-.959 0-1.643.587-1.643 1.475 0 .888.684 1.476 1.643 1.476zm2.758-.984c-.228 1.175-1.319 1.991-2.758 1.991-1.631 0-2.831-1.032-2.831-2.483s1.2-2.482 2.831-2.482c1.427 0 2.506.792 2.747 1.966h2.002v-2.302h1.248v5.481h-1.248v-2.171h-1.991zM703.045 137h1.247v-10.866h-1.247V137zm-3.67-8.18c0 1.992 1.103 3.983 2.806 4.75l-.72.984c-1.247-.588-2.195-1.787-2.686-3.251-.492 1.571-1.451 2.854-2.759 3.49l-.731-1.031c1.727-.78 2.854-2.855 2.854-4.942v-1.774h1.236v1.774zM716.412 129.816h-1.535v2.65h-1.236v-6.333h1.236v2.663h1.535v1.02zm-8.66 3.13h7.125v4.042h-1.236v-3.047h-5.888v-.995zm4.139-6.152c0 2.805-1.86 4.76-5.05 5.612l-.504-.972c2.543-.647 4.03-1.99 4.246-3.645h-3.731v-.995h5.039zM727.475 131.686h-1.547v5.29h-1.235v-10.843h1.235v4.534h1.547v1.02zm-6.716.337c.852 0 1.427-.407 1.427-1.067 0-.672-.575-1.08-1.427-1.08-.85 0-1.439.407-1.439 1.08 0 .66.588 1.067 1.44 1.067zm3.202-3.635h-6.44v-.995h2.614v-1.224h1.236v1.225h2.59v.994zm-2.59 5.541c.923-.048 1.846-.108 2.71-.24l.096.912c-2.314.407-4.82.433-6.68.433l-.168-1.02c.828 0 1.798 0 2.806-.037v-1.055c-1.199-.203-1.978-.935-1.978-1.966 0-1.224 1.054-2.027 2.602-2.027 1.535 0 2.59.803 2.59 2.026 0 1.031-.779 1.775-1.978 1.966v1.008zM554.95 40.743l-.348-1.187c-.299-.96-.563-1.944-.839-2.94h-.048c-.252 1.008-.528 1.98-.816 2.94l-.36 1.187h2.411zm.336 1.091h-3.07l-.756 2.518h-1.415l2.926-8.827h1.607l2.927 8.827h-1.476l-.743-2.518zM560.063 39.675h1.332c1.283 0 1.98-.527 1.98-1.595 0-1.067-.697-1.44-1.98-1.44h-1.332v3.035zm3.43 4.678l-2.003-3.563h-1.427v3.563h-1.391v-8.827h2.89c1.823 0 3.19.647 3.19 2.554 0 1.367-.73 2.183-1.845 2.53l2.157 3.743h-1.57zM571.128 44.112h6.368v.996h-7.603v-3.19h1.235v2.194zm4.929-7.195c.012-.336.012-.672.012-1.008h-6.25v-.996h7.473v.972c0 1.02 0 2.123-.3 3.574l-1.222-.096c.119-.552.179-1.056.227-1.522l-6.284.275-.168-1.02 6.512-.179zm2.399 3.177v.997h-9.763v-.997h3.814v-1.45h1.247v1.45h4.702zM587.709 42.565h1.175v-8.119h-1.175v8.119zm-2.087-4.101h-1.283v-1.008h1.283v-2.794h1.151v7.64h-1.151v-3.838zm3.562 5.6v1.008h-7.4v-3.393h1.247v2.385h6.153zm-4.354-3.442c-1.235.229-2.267.264-3.945.264h-.708v-5.565h4.09v.996h-2.903v1.272h2.494v.959h-2.494v1.355c1.367-.011 2.279-.06 3.346-.263l.12.982zM591.229 40.299c2.255-.336 3.741-1.69 3.801-3.226h-3.394v-1.007h3.407v-1.404h1.236v1.404h3.393v1.007h-3.382c.06 1.536 1.547 2.89 3.802 3.226l-.467 1.02c-1.824-.325-3.263-1.224-3.97-2.496-.707 1.272-2.147 2.17-3.958 2.496l-.468-1.02zm-.469 3.657h9.812v-1.02h-9.812v1.02zM219.54 132.442l-.348-1.187c-.299-.959-.563-1.943-.839-2.939h-.048c-.252 1.008-.528 1.98-.816 2.94l-.36 1.186h2.411zm.336 1.092h-3.07l-.756 2.518h-1.415l2.926-8.827h1.607l2.927 8.827h-1.476l-.743-2.518zM224.653 131.375h1.331c1.283 0 1.98-.527 1.98-1.595 0-1.067-.697-1.439-1.98-1.439h-1.33v3.034zm3.43 4.678l-2.003-3.563h-1.427v3.563h-1.392v-8.827h2.891c1.823 0 3.19.647 3.19 2.554 0 1.367-.73 2.183-1.846 2.531l2.158 3.742h-1.57zM241.007 128.868v-2.723h1.235v6.453h-1.235v-2.722h-1.92v-1.008h1.92zm.048 6.07c0-.709-.888-1.092-2.411-1.092-1.547 0-2.422.383-2.422 1.091 0 .707.875 1.091 2.422 1.091 1.523 0 2.41-.384 2.41-1.09zm1.235 0c0 1.294-1.391 2.05-3.646 2.05-2.267 0-3.658-.756-3.658-2.05 0-1.284 1.39-2.05 3.658-2.05 2.255 0 3.646.766 3.646 2.05zm-3.19-2.687c-1.2-.42-2.063-1.272-2.52-2.316-.478 1.188-1.39 2.148-2.674 2.603l-.635-.983c1.679-.6 2.65-2.04 2.65-3.526v-.156h-2.29v-.995h5.793v.995h-2.255v.143c0 1.356.923 2.7 2.542 3.263l-.611.972zM251.975 137h1.247v-10.866h-1.247V137zm-5.865-3.574h2.746v-2.65h-2.746v2.65zm0-6.393v2.759h2.746v-2.759h1.236v7.389h-5.205v-7.389h1.223zM267.958 126.145v10.819h-1.175v-5.59h-1.235v5.085h-1.164v-10.11h1.164v4.019h1.235v-4.222h1.175zm-7.735 7.028h1.871v-4.857h-1.871v4.857zm-1.152.983h4.174v-6.824h-4.174v6.825zM278.423 130.691h-7.46v-4.029h1.247v3.021h6.213v1.008zm1.127 2.398h-2.41v3.9h-1.236v-3.9h-2.518v3.9h-1.235v-3.9h-2.4v-1.006h9.799v1.006zM290.122 135.873v.971h-7.399v-2.842h5.816v-.888h-5.829v-.96h7.053v2.759h-5.818v.96h6.177zm-6.356-5.445c.935 0 1.63-.588 1.63-1.476s-.695-1.475-1.63-1.475c-.959 0-1.643.587-1.643 1.475 0 .888.684 1.476 1.643 1.476zm2.758-.984c-.228 1.175-1.319 1.991-2.758 1.991-1.63 0-2.83-1.032-2.83-2.483s1.2-2.482 2.83-2.482c1.427 0 2.506.792 2.746 1.966h2.003v-2.302h1.248v5.481h-1.248v-2.171h-1.99zM302.591 136.964h1.176v-10.83h-1.176v10.83zm-2.183-10.614h1.163v10.098h-1.163v-5.493h-1.595v-1.007h1.595v-3.598zm-2.591 2.77c0 1.848.697 3.718 2.207 4.594l-.719.899c-1.02-.599-1.691-1.667-2.075-2.926-.383 1.367-1.08 2.531-2.123 3.19l-.744-.911c1.535-.96 2.255-2.915 2.255-4.846v-.779h-1.906v-1.02h4.892v1.02h-1.787v.779zM315.563 129.924h-1.536v2.746h-1.236v-6.536h1.236v2.77h1.536v1.02zm-8.66 3.274h7.124v3.778h-1.236v-2.782h-5.887v-.996zm4.401-.96c-1.212-.395-2.075-1.222-2.542-2.254-.48 1.139-1.38 2.027-2.65 2.47l-.649-.97c1.715-.577 2.662-1.956 2.662-3.443v-.192h-2.301v-1.007h5.816v1.007h-2.267v.192c0 1.367.913 2.698 2.567 3.25l-.635.947zM319.478 126.481L320.438 126.481 317.103 138.21 316.144 138.21zM330.179 131.135c-1.8-.287-3.274-1.2-3.982-2.446-.696 1.259-2.195 2.159-3.994 2.446l-.48-.995c2.207-.312 3.814-1.643 3.814-3.07v-.576h1.308v.576c0 1.403 1.63 2.758 3.813 3.07l-.48.995zm.899 2.027h-4.305v3.827h-1.236v-3.827h-4.246v-1.007h9.787v1.007zM340.067 128.868v-2.723h1.235v6.453h-1.235v-2.722h-1.919v-1.008h1.92zm.048 6.07c0-.709-.888-1.092-2.41-1.092-1.548 0-2.423.383-2.423 1.091 0 .707.875 1.091 2.422 1.091 1.523 0 2.411-.384 2.411-1.09zm1.235 0c0 1.294-1.39 2.05-3.646 2.05-2.267 0-3.658-.756-3.658-2.05 0-1.284 1.391-2.05 3.658-2.05 2.255 0 3.646.766 3.646 2.05zm-3.19-2.687c-1.199-.42-2.063-1.272-2.519-2.316-.479 1.188-1.39 2.148-2.675 2.603l-.635-.983c1.68-.6 2.651-2.04 2.651-3.526v-.156h-2.29v-.995h5.792v.995h-2.255v.143c0 1.356.923 2.7 2.542 3.263l-.61.972z" mask="url(#prefix__b)"/>
                <path fill="#FFF" d="M335.051 57.124c0 31.125-25.232 56.356-56.357 56.356s-56.357-25.231-56.357-56.356c0-31.126 25.232-56.357 56.357-56.357s56.357 25.231 56.357 56.357" mask="url(#prefix__b)"/>
                <path fill="#C5C8CF" d="M278.694 1.142c-30.87 0-55.982 25.113-55.982 55.982s25.113 55.982 55.982 55.982 55.982-25.113 55.982-55.982c0-30.87-25.113-55.982-55.982-55.982m0 112.714c-31.282 0-56.732-25.45-56.732-56.732S247.412.392 278.694.392s56.732 25.45 56.732 56.732c0 31.283-25.45 56.732-56.732 56.732" mask="url(#prefix__b)"/>
                <path fill="#273A5B" d="M276.955 57.698L272.36 50.353 272.324 50.298 270.415 50.298 270.415 63.938 272.378 63.938 272.378 55.86 272.314 53.933 276.348 60.326 276.383 60.382 277.526 60.382 281.597 53.933 281.532 55.864 281.532 63.938 283.495 63.938 283.495 50.298 281.586 50.298zM291.772 59.887c-.017.662-.29 1.248-.813 1.744-.543.512-1.166.772-1.855.772-.481 0-.907-.143-1.263-.424-.353-.277-.526-.613-.526-1.028 0-.461.214-.84.652-1.157.446-.32 1.01-.482 1.68-.482.9 0 1.615.194 2.125.575m-2.42-5.72c-1.428 0-2.705.625-3.696 1.808l-.072.084 1.375 1.375.084-.106c.413-.516 1.267-1.384 2.332-1.384.726 0 1.259.184 1.728.596.45.399.668.868.668 1.436v.192c-.648-.32-1.457-.481-2.405-.481-1.22 0-2.21.292-2.947.867-.744.583-1.123 1.377-1.123 2.359 0 .93.358 1.717 1.062 2.337.699.616 1.58.928 2.615.928 1.143 0 2.084-.478 2.798-1.421v1.185h1.89v-5.835c0-1.214-.385-2.186-1.144-2.888-.745-.687-1.84-1.051-3.166-1.051M303.602 54.775L303.602 54.53 301.223 54.53 297.426 58.38 297.426 50.3 297.186 50.3 295.463 51.79 295.463 63.941 297.426 63.941 297.426 60.933 298.69 59.687 301.508 63.941 303.77 63.941 303.77 63.709 300.063 58.296z" mask="url(#prefix__b)"/>
                <path fill="#273A5B" d="M305.807 58.02c.163-.625.456-1.13.852-1.468.443-.38.98-.57 1.597-.57.752 0 1.359.2 1.802.596.396.354.65.862.724 1.442h-4.975zm7.063 1.356c0-1.631-.428-2.963-1.24-3.848-.824-.904-1.947-1.36-3.336-1.36-1.353 0-2.48.482-3.347 1.434-.853.936-1.305 2.196-1.305 3.645 0 1.407.44 2.556 1.344 3.511.893.947 2.044 1.425 3.42 1.425.94 0 1.797-.227 2.543-.675.597-.355 1.166-.9 1.56-1.49l.058-.087-1.406-1.297-.078.117c-.662.998-1.586 1.547-2.602 1.547-.836 0-1.463-.23-1.976-.72-.544-.52-.811-1.108-.856-1.894h7.19l.03-.307z" mask="url(#prefix__b)"/>
                <path fill="#6FB6FB" d="M245.937 57.724L244.519 58.542 244.53 62.136 253.219 57.123 250.098 55.322zM261.917 58.542L260.499 57.724 256.339 55.322 253.219 57.123 261.918 62.146z" mask="url(#prefix__b)"/>
                <path fill="#BFDCFF" d="M261.918 58.542L261.918 62.146 253.219 67.168 253.219 63.564 254.637 62.746z" mask="url(#prefix__b)"/>
                <path fill="#007CF7" d="M244.52 58.542L244.52 62.146 253.219 67.168 253.219 63.564 251.801 62.746z" mask="url(#prefix__b)"/>
                <path fill="#6FB6FB" d="M260.499 51.283L253.218 47.079 245.937 51.283 244.519 52.101 244.53 55.695 253.224 50.679 261.918 55.705 261.917 52.101z" mask="url(#prefix__b)"/>
                <path fill="#BFDCFF" d="M261.918 52.102L261.918 55.706 253.219 60.728 253.219 57.123 254.637 56.305z" mask="url(#prefix__b)"/>
                <path fill="#007CF7" d="M244.52 52.102L244.52 55.706 253.219 60.728 253.219 57.123 251.801 56.305z" mask="url(#prefix__b)"/>
                <path fill="#FFF" d="M740.43 57.124c0 31.125-25.232 56.356-56.357 56.356s-56.357-25.231-56.357-56.356c0-31.126 25.232-56.357 56.357-56.357s56.357 25.231 56.357 56.357" mask="url(#prefix__b)"/>
                <path fill="#C5C8CF" d="M684.073 1.142c-30.87 0-55.982 25.113-55.982 55.982s25.113 55.982 55.982 55.982 55.982-25.113 55.982-55.982c0-30.87-25.113-55.982-55.982-55.982m0 112.714c-31.282 0-56.732-25.45-56.732-56.732S652.79.392 684.073.392s56.732 25.45 56.732 56.732c0 31.283-25.45 56.732-56.732 56.732" mask="url(#prefix__b)"/>
                <path fill="#273A5B" d="M689.814 64.921L691.775 64.921 691.775 55.217 689.814 55.217zM689.726 53.427L691.863 53.427 691.863 51.289 689.726 51.289zM715.257 55.516L713.312 62.18 711.134 55.516 709.182 55.516 707.002 62.18 705.065 55.603 705.039 55.516 702.987 55.516 705.994 64.838 706.021 64.921 707.936 64.921 710.112 58.162 712.305 64.921 714.238 64.921 717.272 55.516zM696.564 57.531c.445-.379.983-.57 1.6-.57.753 0 1.359.201 1.803.597.397.355.652.864.725 1.445h-4.98c.163-.627.457-1.133.852-1.472m1.638-2.386c-1.354 0-2.48.483-3.35 1.436-.856.936-1.308 2.197-1.308 3.647 0 1.41.44 2.56 1.346 3.517.894.945 2.046 1.425 3.423 1.425.942 0 1.8-.227 2.546-.674.596-.357 1.166-.902 1.563-1.492l.058-.087-1.408-1.299-.078.118c-.663.998-1.589 1.548-2.606 1.548-.836 0-1.464-.23-1.978-.72-.536-.514-.812-1.119-.857-1.896h7.218l.006-.115c.005-.099.005-.193.005-.193 0-1.635-.428-2.967-1.24-3.854-.826-.904-1.95-1.36-3.34-1.36M682.151 62.04L678.048 51.291 675.882 51.291 681.14 64.843 681.17 64.92 683.129 64.92 688.503 51.456 688.569 51.291 686.402 51.291z" mask="url(#prefix__b)"/>
                <path fill="#6FB6FB" d="M663.984 50.73L659.575 48.184 657.147 49.586 663.969 56.41z" mask="url(#prefix__b)"/>
                <path fill="#007CF7" d="M663.97 60.048L668.274 55.558 668.274 53.206 663.983 50.729z" mask="url(#prefix__b)"/>
                <path fill="#0065C7" d="M655.157 65.724L659.574 68.275 662.005 66.87 655.179 60.05z" mask="url(#prefix__b)"/>
                <path fill="#BFDCFF" d="M650.876 53.834L650.876 53.206 657.148 49.586 661.395 53.834z" mask="url(#prefix__b)"/>
                <path fill="#DEEDFF" d="M650.876 53.834L650.876 60.71 657.754 53.834z" mask="url(#prefix__b)"/>
                <path fill="#007CF7" d="M655.179 56.409L650.875 60.71 650.875 63.251 655.061 65.668 655.176 65.734z" mask="url(#prefix__b)"/>
                <path fill="#6FB6FB" d="M668.273 63.252L662.005 66.87 657.754 62.625 668.273 62.625z" mask="url(#prefix__b)"/>
                <path fill="#007CF7" d="M659.536 55.493c-1.49 0-2.696 1.207-2.696 2.695 0 1.49 1.207 2.696 2.696 2.696s2.696-1.206 2.696-2.696c0-1.488-1.207-2.695-2.696-2.695" mask="url(#prefix__b)"/>
                <path fill="#FFF" d="M660.895 56.056c-.427 0-.773.347-.773.773 0 .427.346.773.774.773.427 0 .773-.346.773-.773 0-.426-.346-.773-.774-.773" mask="url(#prefix__b)"/>
                <path fill="#BFDCFF" d="M661.395 62.625L663.969 60.049 668.273 55.558 668.273 62.625z" mask="url(#prefix__b)"/>
                <path fill="#092E6E" d="M457.354 96.853l-.395-1.459c-.416-1.386-.776-2.916-1.17-4.357h-.073c-.341 1.46-.738 2.971-1.135 4.357l-.396 1.46h3.17zm.577 2.07h-4.321l-.938 3.421h-2.7l4.268-13.323h3.132l4.286 13.323h-2.792l-.935-3.42zM465.886 95.197h1.729c1.709 0 2.646-.72 2.646-2.144 0-1.44-.937-1.925-2.646-1.925h-1.73v4.07zm4.59 7.147l-2.736-5.04h-1.854v5.04h-2.665V89.02h4.645c2.79 0 5.005.973 5.005 4.033 0 2-1.007 3.242-2.538 3.836l3.115 5.455h-2.971zM482.858 101.751h9.417v1.908h-11.793v-4.933h2.376v3.025zm6.771-10.714c.017-.395.017-.809.017-1.206h-9.236V87.94h11.595v1.567c0 1.639 0 3.295-.468 5.456l-2.34-.162c.143-.738.252-1.387.323-2.017l-9.272.414-.27-1.963 9.651-.198zm4.05 4.772v1.873h-14.925v-1.873h5.527v-2.017h2.377v2.017h7.021zM507.161 99.698h2.25V87.31h-2.25v12.388zm-3.26-5.977h-1.62V91.83h1.62v-4.195h2.215v11.703h-2.215v-5.617zm5.924 7.994v1.89h-11.451v-5.221h2.377v3.331h9.074zm-6.878-4.699c-1.872.341-3.438.378-5.887.378h-1.134v-8.805h6.229v1.872h-3.943v1.602h3.367v1.784h-3.367v1.674c1.747-.018 3.043-.108 4.537-.36l.198 1.855zM512.34 95.99c3.765-.523 5.619-2.54 5.78-4.503h-4.987v-1.89h5.023v-2.035h2.377v2.034h5.024v1.891h-4.987c.162 1.963 2.016 3.98 5.76 4.502l-.863 1.927c-2.935-.433-5.023-1.765-6.122-3.548-1.098 1.783-3.187 3.115-6.121 3.548l-.883-1.927zm-.503 5.994h15.017v-1.926h-15.017v1.926zM469.183 114.952v1.963h-1.98v5.401h-2.376v-12.424h2.376v5.06h1.98zm-10.658 9.362h9.2v1.891h-11.577v-4.987h2.377v3.096zm1.98-7.56c.27-1.55.342-2.756.36-3.746h-6.176v-1.89h8.516v1.025c0 1.153 0 2.79-.377 4.88l-2.323-.27zm3.565 2.628c-3.421.63-7.274.702-10.12.72l-.215-1.89c.918 0 1.944 0 3.025-.019v-3.223h2.322v3.132c1.639-.07 3.295-.197 4.844-.414l.144 1.694zM481.943 126.529h2.377v-16.637h-2.377v16.637zm-8.102-5.815c2.521-.019 4.609-.145 6.95-.54l.252 1.927c-2.7.467-5.131.576-8.138.576h-1.495v-6.824h5.384v-2.648h-5.401v-1.89h7.832v6.41h-5.384v2.989zM506.046 109.893v16.637h-2.377v-9.525h-3.186v-1.91h3.186v-5.202h2.377zm-7.688 3.69c0 3.134 1.206 6.177 3.943 7.4l-1.404 1.89c-1.82-.88-3.026-2.501-3.71-4.5-.72 2.125-1.962 3.854-3.817 4.79l-1.476-1.91c2.808-1.295 4.069-4.518 4.069-7.67v-2.394h2.395v2.395zM511.658 120.732h3.259v-3.673h-3.259v3.673zm10.947-10.839v16.636h-2.376v-8.894h-2.971v4.987H509.3v-11.415h2.358v3.997h3.259v-3.997h2.341v4.52h2.971v-5.834h2.376z" mask="url(#prefix__b)"/>
                <path fill="#E6E8EB" d="M467.752 36.931L467.752 68.271 505.585 68.271 505.585 36.641z" mask="url(#prefix__b)"/>
                <path fill="#000" d="M468.034 67.988h37.268V36.925l-37.268.286v30.777zm37.833.564H467.47V36.65l38.397-.294v32.196z" mask="url(#prefix__b)"/>
                <path fill="#FFF" d="M506.685 37.161H466.51c-1.534 0-2.789-1.256-2.789-2.79v-6.154c0-1.535 1.255-2.79 2.79-2.79h40.175c1.534 0 2.79 1.255 2.79 2.79v6.154c0 1.534-1.256 2.79-2.79 2.79" mask="url(#prefix__b)"/>
                <path fill="#000" d="M506.685 25.427H466.51c-1.534 0-2.789 1.256-2.789 2.789v6.155c0 1.535 1.255 2.79 2.79 2.79h40.175c1.534 0 2.79-1.255 2.79-2.79v-6.155c0-1.533-1.256-2.79-2.79-2.79m0 .565c1.227 0 2.225.998 2.225 2.225v6.155c0 1.228-.998 2.225-2.225 2.225H466.51c-1.227 0-2.225-.997-2.225-2.225v-6.155c0-1.227.998-2.225 2.225-2.225h40.176" mask="url(#prefix__b)"/>
                <path fill="#FFF" d="M506.685 51.416H466.51c-1.534 0-2.789-1.256-2.789-2.79v-6.154c0-1.535 1.255-2.79 2.79-2.79h40.175c1.534 0 2.79 1.255 2.79 2.79v6.154c0 1.534-1.256 2.79-2.79 2.79" mask="url(#prefix__b)"/>
                <path fill="#000" d="M506.685 39.682H466.51c-1.534 0-2.789 1.256-2.789 2.79v6.154c0 1.535 1.255 2.789 2.79 2.789h40.175c1.534 0 2.79-1.254 2.79-2.79v-6.153c0-1.534-1.256-2.79-2.79-2.79m0 .565c1.227 0 2.225.997 2.225 2.225v6.154c0 1.227-.998 2.225-2.225 2.225H466.51c-1.227 0-2.225-.998-2.225-2.225v-6.154c0-1.228.998-2.225 2.225-2.225h40.176" mask="url(#prefix__b)"/>
                <path fill="#FFF" d="M506.685 65.59H466.51c-1.534 0-2.789-1.255-2.789-2.79v-6.153c0-1.535 1.255-2.79 2.79-2.79h40.175c1.534 0 2.79 1.255 2.79 2.79V62.8c0 1.534-1.256 2.79-2.79 2.79" mask="url(#prefix__b)"/>
                <path fill="#000" d="M506.685 53.856H466.51c-1.534 0-2.789 1.256-2.789 2.79v6.155c0 1.534 1.255 2.79 2.79 2.79h40.175c1.534 0 2.79-1.256 2.79-2.79v-6.155c0-1.534-1.256-2.79-2.79-2.79m0 .565c1.227 0 2.225.997 2.225 2.225v6.155c0 1.227-.998 2.225-2.225 2.225H466.51c-1.227 0-2.225-.998-2.225-2.225v-6.155c0-1.228.998-2.225 2.225-2.225h40.176" mask="url(#prefix__b)"/>
                <path fill="#0A51B7" d="M494.09 31.294c0 1.042-.846 1.888-1.889 1.888-1.042 0-1.887-.846-1.887-1.888 0-1.042.845-1.888 1.887-1.888 1.043 0 1.888.846 1.888 1.888" mask="url(#prefix__b)"/>
                <path fill="#000" d="M492.202 29.406c-1.042 0-1.887.845-1.887 1.888 0 1.042.845 1.887 1.887 1.887s1.887-.845 1.887-1.887c0-1.043-.845-1.888-1.887-1.888m0 .565c.729 0 1.323.593 1.323 1.323s-.594 1.322-1.323 1.322c-.73 0-1.323-.593-1.323-1.322 0-.73.594-1.323 1.323-1.323" mask="url(#prefix__b)"/>
                <path fill="#0A51B7" d="M499.91 31.294c0 1.042-.844 1.888-1.886 1.888-1.043 0-1.888-.846-1.888-1.888 0-1.042.845-1.888 1.888-1.888 1.042 0 1.887.846 1.887 1.888" mask="url(#prefix__b)"/>
                <path fill="#000" d="M498.023 29.406c-1.043 0-1.888.845-1.888 1.888 0 1.042.845 1.887 1.888 1.887 1.042 0 1.887-.845 1.887-1.887 0-1.043-.845-1.888-1.887-1.888m0 .565c.73 0 1.322.593 1.322 1.323s-.593 1.322-1.322 1.322c-.729 0-1.323-.593-1.323-1.322 0-.73.594-1.323 1.323-1.323" mask="url(#prefix__b)"/>
                <path fill="#0A51B7" d="M505.732 31.294c0 1.042-.845 1.888-1.887 1.888-1.043 0-1.888-.846-1.888-1.888 0-1.042.845-1.888 1.888-1.888 1.042 0 1.887.846 1.887 1.888" mask="url(#prefix__b)"/>
                <path fill="#000" d="M503.845 29.406c-1.042 0-1.888.845-1.888 1.888 0 1.042.846 1.887 1.888 1.887 1.042 0 1.888-.845 1.888-1.887 0-1.043-.846-1.888-1.888-1.888m0 .565c.729 0 1.323.593 1.323 1.323s-.594 1.322-1.323 1.322c-.73 0-1.323-.593-1.323-1.322 0-.73.594-1.323 1.323-1.323" mask="url(#prefix__b)"/>
                <path fill="#0A51B7" d="M494.09 45.549c0 1.042-.846 1.888-1.889 1.888-1.042 0-1.887-.846-1.887-1.888 0-1.042.845-1.888 1.887-1.888 1.043 0 1.888.846 1.888 1.888" mask="url(#prefix__b)"/>
                <path fill="#000" d="M492.202 43.661c-1.042 0-1.887.846-1.887 1.888 0 1.042.845 1.887 1.887 1.887s1.887-.845 1.887-1.887-.845-1.888-1.887-1.888m0 .564c.729 0 1.323.594 1.323 1.324 0 .73-.594 1.323-1.323 1.323-.73 0-1.323-.594-1.323-1.323 0-.73.594-1.324 1.323-1.324" mask="url(#prefix__b)"/>
                <path fill="#0A51B7" d="M499.91 45.549c0 1.042-.844 1.888-1.886 1.888-1.043 0-1.888-.846-1.888-1.888 0-1.042.845-1.888 1.888-1.888 1.042 0 1.887.846 1.887 1.888" mask="url(#prefix__b)"/>
                <path fill="#000" d="M498.023 43.661c-1.043 0-1.888.846-1.888 1.888 0 1.042.845 1.887 1.888 1.887 1.042 0 1.887-.845 1.887-1.887s-.845-1.888-1.887-1.888m0 .564c.73 0 1.322.594 1.322 1.324 0 .73-.593 1.323-1.322 1.323-.729 0-1.323-.594-1.323-1.323 0-.73.594-1.324 1.323-1.324" mask="url(#prefix__b)"/>
                <path fill="#0A51B7" d="M505.732 45.549c0 1.042-.845 1.888-1.887 1.888-1.043 0-1.888-.846-1.888-1.888 0-1.042.845-1.888 1.888-1.888 1.042 0 1.887.846 1.887 1.888" mask="url(#prefix__b)"/>
                <path fill="#000" d="M503.845 43.661c-1.042 0-1.888.846-1.888 1.888 0 1.042.846 1.887 1.888 1.887 1.042 0 1.888-.845 1.888-1.887s-.846-1.888-1.888-1.888m0 .564c.729 0 1.323.594 1.323 1.324 0 .73-.594 1.323-1.323 1.323-.73 0-1.323-.594-1.323-1.323 0-.73.594-1.324 1.323-1.324" mask="url(#prefix__b)"/>
                <path fill="#0A51B7" d="M494.09 59.724c0 1.043-.846 1.888-1.889 1.888-1.042 0-1.887-.845-1.887-1.888 0-1.042.845-1.888 1.887-1.888 1.043 0 1.888.846 1.888 1.888" mask="url(#prefix__b)"/>
                <path fill="#000" d="M492.202 57.837c-1.042 0-1.887.845-1.887 1.887 0 1.043.845 1.887 1.887 1.887s1.887-.844 1.887-1.887c0-1.042-.845-1.887-1.887-1.887m0 .564c.729 0 1.323.593 1.323 1.323 0 .729-.594 1.322-1.323 1.322-.73 0-1.323-.593-1.323-1.322 0-.73.594-1.323 1.323-1.323" mask="url(#prefix__b)"/>
                <path fill="#0A51B7" d="M499.91 59.724c0 1.043-.844 1.888-1.886 1.888-1.043 0-1.888-.845-1.888-1.888 0-1.042.845-1.888 1.888-1.888 1.042 0 1.887.846 1.887 1.888" mask="url(#prefix__b)"/>
                <path fill="#000" d="M498.023 57.837c-1.043 0-1.888.845-1.888 1.887 0 1.043.845 1.887 1.888 1.887 1.042 0 1.887-.844 1.887-1.887 0-1.042-.845-1.887-1.887-1.887m0 .564c.73 0 1.322.593 1.322 1.323 0 .729-.593 1.322-1.322 1.322-.729 0-1.323-.593-1.323-1.322 0-.73.594-1.323 1.323-1.323" mask="url(#prefix__b)"/>
                <path fill="#0A51B7" d="M505.732 59.724c0 1.043-.845 1.888-1.887 1.888-1.043 0-1.888-.845-1.888-1.888 0-1.042.845-1.888 1.888-1.888 1.042 0 1.887.846 1.887 1.888" mask="url(#prefix__b)"/>
                <path fill="#000" d="M503.845 57.837c-1.042 0-1.888.845-1.888 1.887 0 1.043.846 1.887 1.888 1.887 1.042 0 1.888-.844 1.888-1.887 0-1.042-.846-1.887-1.888-1.887m0 .564c.729 0 1.323.593 1.323 1.323 0 .729-.594 1.322-1.323 1.322-.73 0-1.323-.593-1.323-1.322 0-.73.594-1.323 1.323-1.323" mask="url(#prefix__b)"/>
                <path fill="#FFF" d="M468.555 28.196L468.555 34.391" mask="url(#prefix__b)"/>
                <path fill="#000" d="M468.273 34.392L468.837 34.392 468.837 28.197 468.273 28.197z" mask="url(#prefix__b)"/>
                <path fill="#FFF" d="M471.756 28.196L471.756 34.391" mask="url(#prefix__b)"/>
                <path fill="#000" d="M471.475 34.392L472.039 34.392 472.039 28.197 471.475 28.197z" mask="url(#prefix__b)"/>
                <path fill="#FFF" d="M474.957 28.196L474.957 34.391" mask="url(#prefix__b)"/>
                <path fill="#000" d="M474.676 34.392L475.24 34.392 475.24 28.197 474.676 28.197z" mask="url(#prefix__b)"/>
                <path fill="#FFF" d="M478.159 28.196L478.159 34.391" mask="url(#prefix__b)"/>
                <path fill="#000" d="M477.877 34.392L478.441 34.392 478.441 28.197 477.877 28.197z" mask="url(#prefix__b)"/>
                <path fill="#FFF" d="M481.36 28.196L481.36 34.391" mask="url(#prefix__b)"/>
                <path fill="#000" d="M481.078 34.392L481.642 34.392 481.642 28.197 481.078 28.197z" mask="url(#prefix__b)"/>
                <path fill="#FFF" d="M484.561 28.196L484.561 34.391" mask="url(#prefix__b)"/>
                <path fill="#000" d="M484.279 34.392L484.843 34.392 484.843 28.197 484.279 28.197z" mask="url(#prefix__b)"/>
                <path fill="#FFF" d="M470.156 28.196L470.156 34.391" mask="url(#prefix__b)"/>
                <path fill="#000" d="M469.874 34.392L470.438 34.392 470.438 28.197 469.874 28.197z" mask="url(#prefix__b)"/>
                <path fill="#FFF" d="M473.357 28.196L473.357 34.391" mask="url(#prefix__b)"/>
                <path fill="#000" d="M473.075 34.392L473.639 34.392 473.639 28.197 473.075 28.197z" mask="url(#prefix__b)"/>
                <path fill="#FFF" d="M476.558 28.196L476.558 34.391" mask="url(#prefix__b)"/>
                <path fill="#000" d="M476.276 34.392L476.84 34.392 476.84 28.197 476.276 28.197z" mask="url(#prefix__b)"/>
                <path fill="#FFF" d="M479.759 28.196L479.759 34.391" mask="url(#prefix__b)"/>
                <path fill="#000" d="M479.478 34.392L480.042 34.392 480.042 28.197 479.478 28.197z" mask="url(#prefix__b)"/>
                <path fill="#FFF" d="M482.96 28.196L482.96 34.391" mask="url(#prefix__b)"/>
                <path fill="#000" d="M482.679 34.392L483.243 34.392 483.243 28.197 482.679 28.197z" mask="url(#prefix__b)"/>
                <path fill="#FFF" d="M468.555 42.451L468.555 48.646" mask="url(#prefix__b)"/>
                <path fill="#000" d="M468.273 48.646L468.837 48.646 468.837 42.451 468.273 42.451z" mask="url(#prefix__b)"/>
                <path fill="#FFF" d="M471.756 42.451L471.756 48.646" mask="url(#prefix__b)"/>
                <path fill="#000" d="M471.475 48.646L472.039 48.646 472.039 42.451 471.475 42.451z" mask="url(#prefix__b)"/>
                <path fill="#FFF" d="M474.957 42.451L474.957 48.646" mask="url(#prefix__b)"/>
                <path fill="#000" d="M474.676 48.646L475.24 48.646 475.24 42.451 474.676 42.451z" mask="url(#prefix__b)"/>
                <path fill="#FFF" d="M478.159 42.451L478.159 48.646" mask="url(#prefix__b)"/>
                <path fill="#000" d="M477.877 48.646L478.441 48.646 478.441 42.451 477.877 42.451z" mask="url(#prefix__b)"/>
                <path fill="#FFF" d="M481.36 42.451L481.36 48.646" mask="url(#prefix__b)"/>
                <path fill="#000" d="M481.078 48.646L481.642 48.646 481.642 42.451 481.078 42.451z" mask="url(#prefix__b)"/>
                <path fill="#FFF" d="M484.561 42.451L484.561 48.646" mask="url(#prefix__b)"/>
                <path fill="#000" d="M484.279 48.646L484.843 48.646 484.843 42.451 484.279 42.451z" mask="url(#prefix__b)"/>
                <path fill="#FFF" d="M470.156 42.451L470.156 48.646" mask="url(#prefix__b)"/>
                <path fill="#000" d="M469.874 48.646L470.438 48.646 470.438 42.451 469.874 42.451z" mask="url(#prefix__b)"/>
                <path fill="#FFF" d="M473.357 42.451L473.357 48.646" mask="url(#prefix__b)"/>
                <path fill="#000" d="M473.075 48.646L473.639 48.646 473.639 42.451 473.075 42.451z" mask="url(#prefix__b)"/>
                <path fill="#FFF" d="M476.558 42.451L476.558 48.646" mask="url(#prefix__b)"/>
                <path fill="#000" d="M476.276 48.646L476.84 48.646 476.84 42.451 476.276 42.451z" mask="url(#prefix__b)"/>
                <path fill="#FFF" d="M479.759 42.451L479.759 48.646" mask="url(#prefix__b)"/>
                <path fill="#000" d="M479.478 48.646L480.042 48.646 480.042 42.451 479.478 42.451z" mask="url(#prefix__b)"/>
                <path fill="#FFF" d="M482.96 42.451L482.96 48.646" mask="url(#prefix__b)"/>
                <path fill="#000" d="M482.679 48.646L483.243 48.646 483.243 42.451 482.679 42.451z" mask="url(#prefix__b)"/>
                <path fill="#FFF" d="M468.555 56.706L468.555 62.901" mask="url(#prefix__b)"/>
                <path fill="#000" d="M468.273 62.901L468.837 62.901 468.837 56.706 468.273 56.706z" mask="url(#prefix__b)"/>
                <path fill="#FFF" d="M471.756 56.706L471.756 62.901" mask="url(#prefix__b)"/>
                <path fill="#000" d="M471.475 62.901L472.039 62.901 472.039 56.706 471.475 56.706z" mask="url(#prefix__b)"/>
                <path fill="#FFF" d="M474.957 56.706L474.957 62.901" mask="url(#prefix__b)"/>
                <path fill="#000" d="M474.676 62.901L475.24 62.901 475.24 56.706 474.676 56.706z" mask="url(#prefix__b)"/>
                <path fill="#FFF" d="M478.159 56.706L478.159 62.901" mask="url(#prefix__b)"/>
                <path fill="#000" d="M477.877 62.901L478.441 62.901 478.441 56.706 477.877 56.706z" mask="url(#prefix__b)"/>
                <path fill="#FFF" d="M481.36 56.706L481.36 62.901" mask="url(#prefix__b)"/>
                <path fill="#000" d="M481.078 62.901L481.642 62.901 481.642 56.706 481.078 56.706z" mask="url(#prefix__b)"/>
                <path fill="#FFF" d="M484.561 56.706L484.561 62.901" mask="url(#prefix__b)"/>
                <path fill="#000" d="M484.279 62.901L484.843 62.901 484.843 56.706 484.279 56.706z" mask="url(#prefix__b)"/>
                <path fill="#FFF" d="M470.156 56.706L470.156 62.901" mask="url(#prefix__b)"/>
                <path fill="#000" d="M469.874 62.901L470.438 62.901 470.438 56.706 469.874 56.706z" mask="url(#prefix__b)"/>
                <path fill="#FFF" d="M473.357 56.706L473.357 62.901" mask="url(#prefix__b)"/>
                <path fill="#000" d="M473.075 62.901L473.639 62.901 473.639 56.706 473.075 56.706z" mask="url(#prefix__b)"/>
                <path fill="#FFF" d="M476.558 56.706L476.558 62.901" mask="url(#prefix__b)"/>
                <path fill="#000" d="M476.276 62.901L476.84 62.901 476.84 56.706 476.276 56.706z" mask="url(#prefix__b)"/>
                <path fill="#FFF" d="M479.759 56.706L479.759 62.901" mask="url(#prefix__b)"/>
                <path fill="#000" d="M479.478 62.901L480.042 62.901 480.042 56.706 479.478 56.706z" mask="url(#prefix__b)"/>
                <path fill="#FFF" d="M482.96 56.706L482.96 62.901" mask="url(#prefix__b)"/>
                <path fill="#000" d="M482.679 62.901L483.243 62.901 483.243 56.706 482.679 56.706z" mask="url(#prefix__b)"/>
                <path fill="#E6E8EB" d="M501.393 56.84s.188-1.192 1.877-2.006c1.69-.813 5.93-1.964 11.11-1.25 5.18.716 6.54 2 6.54 2l.622 1.378v15.146s-.685 1.814-4.159 2.565c-3.473.75-10.388 1.002-13.705-.531 0 0-2.097-.877-2.285-2.192V56.84z" mask="url(#prefix__b)"/>
                <path fill="#000" d="M501.675 71.936c.143.333 1.614 3.208 9.787 3.208 8.157 0 9.647-2.864 9.796-3.209l.002-15.187c-.106-.294-1.355-3.105-10.096-3.105-9.134 0-9.487 3.12-9.489 3.151v15.142zm9.787 3.772c-9.118 0-10.293-3.489-10.339-3.636l-.012-.084V56.776c.007-.165.297-3.698 10.053-3.698 9.712 0 10.62 3.418 10.653 3.564l.007.064-.014 15.367c-.046.148-1.232 3.636-10.348 3.636z" mask="url(#prefix__b)"/>
                <path fill="#000" d="M511.248 65.648c-8.858 0-10.074-3.262-10.122-3.402l.534-.182-.267.091.266-.094c.012.031 1.259 3.118 9.936 3.021 8.679-.083 9.668-2.977 9.676-3.006l.543.154c-.037.136-1.027 3.328-10.213 3.416l-.353.002M511.248 70.606c-8.858 0-10.074-3.263-10.122-3.403l.534-.182-.267.091.266-.094c.011.03 1.246 3.087 9.936 3.022 8.679-.083 9.668-2.978 9.676-3.007l.543.154c-.037.136-1.027 3.33-10.213 3.417l-.353.002M511.252 60.691c-8.862 0-10.078-3.263-10.126-3.403l.534-.182-.267.091.266-.094c.011.03 1.205 3.024 9.595 3.024.113 0 .227 0 .342-.002 8.678-.083 9.667-2.978 9.676-3.007l.543.154c-.038.136-1.028 3.33-10.214 3.417l-.349.002" mask="url(#prefix__b)"/>
                <path fill="#FFF" d="M122.504 57.124c0 31.125-25.232 56.356-56.357 56.356S9.79 88.249 9.79 57.124C9.79 25.998 35.022.767 66.147.767s56.357 25.231 56.357 56.357" mask="url(#prefix__b)"/>
                <path fill="#C5C8CF" d="M66.147 1.142c-30.87 0-55.983 25.113-55.983 55.982s25.114 55.982 55.983 55.982c30.868 0 55.981-25.113 55.981-55.982 0-30.87-25.112-55.982-55.981-55.982m0 112.714c-31.283 0-56.733-25.45-56.733-56.732S34.865.392 66.148.392c31.281 0 56.731 25.45 56.731 56.732 0 31.283-25.45 56.732-56.731 56.732" mask="url(#prefix__b)"/>
                <path fill="#231916" d="M90.48 55.238l-.026-.484c.163-.009.33-.014.498-.014v.484c-.16 0-.317.005-.472.014M66.661 55.238c-.308-.017-.644-.018-.956-.005l-.02-.484c.33-.013.68-.01 1.001.005l-.025.484zm-2.836.27l-.128-.467c.31-.085.642-.154.988-.203l.07.48c-.327.047-.64.11-.93.19zm4.698.056c-.29-.093-.599-.168-.918-.223l.082-.477c.341.06.672.14.984.24l-.148.46zm20.093.013l-.146-.46c.318-.103.648-.184.98-.244l.086.476c-.312.057-.622.134-.92.228zm-44.923.08c-.294-.112-.598-.203-.904-.272l.106-.472c.328.073.654.171.97.291l-.172.453zm18.417.608l-.266-.406c.28-.182.581-.345.897-.482l.194.443c-.292.128-.569.277-.825.445zm24.801.12l-.266-.406c.28-.184.578-.35.884-.494l.206.438c-.286.134-.563.29-.824.461zm-16.722.031c-.255-.188-.523-.354-.799-.494l.221-.432c.3.152.59.333.865.535l-.287.391zm-24.827.134c-.263-.184-.534-.352-.807-.5l.23-.425c.29.155.577.334.855.53l-.278.395zm15.376.987l-.382-.299c.213-.272.443-.525.686-.75l.33.354c-.224.208-.437.442-.634.695zm24.767.097l-.374-.308c.212-.257.45-.503.707-.73l.322.361c-.239.212-.459.44-.655.677zm-13.94.092c-.23-.267-.445-.495-.654-.697l.335-.35c.222.213.445.453.686.731l-.368.316zm-24.768.078c-.22-.234-.45-.458-.687-.666l.321-.363c.247.218.49.452.72.697l-.354.332zm12.875 1.367l-.39-.287c.161-.219.313-.456.452-.704l.06-.103.416.246-.053.094c-.149.265-.312.52-.485.754zm13.136.07c-.214-.248-.42-.505-.628-.766l.378-.3c.204.254.407.505.616.75l-.366.315zm11.58 0l-.374-.31c.203-.245.38-.498.526-.753l.43.227-.026.04c-.144.253-.336.53-.557.795zm-36.297.043c-.232-.235-.457-.487-.668-.749l.376-.305c.202.25.416.49.637.714l-.345.34zm1.543 1.283c-.273-.182-.544-.384-.806-.6l.31-.374c.25.207.505.4.764.57l-.268.404zm33.24.017l-.268-.405c.266-.175.52-.369.751-.574l.321.363c-.249.22-.52.427-.805.616zm-24.645.01l-.28-.394c.254-.18.497-.384.72-.604l.34.344c-.242.24-.504.46-.78.654zm16.04.028c-.262-.189-.515-.402-.775-.652l.335-.349c.244.234.48.432.723.608l-.284.393zm6.788.84L80.904 61c.301-.099.597-.218.88-.355l.21.438c-.302.144-.617.271-.937.378zm-29.619.005c-.317-.109-.63-.242-.932-.395l.218-.432c.283.143.576.267.872.37l-.158.457zm4.97.016l-.144-.463c.307-.095.602-.212.876-.345l.211.436c-.295.144-.613.27-.943.372zm19.676.041c-.33-.1-.649-.227-.945-.376l.215-.433c.274.135.567.252.873.346l-.143.463zm-21.657.312l-.03-.485c.327-.02.645-.057.945-.109l.084.476c-.318.056-.653.095-.999.118zm24.65.006l-.032-.485c.317-.02.634-.06.941-.12l.092.477c-.327.062-.664.105-1 .128zm-1.005.005c-.349-.015-.686-.048-1-.098l.075-.479c.297.047.615.078.947.093l-.022.484zm-24.65.003c-.334-.015-.673-.056-1.007-.12l.092-.476c.311.06.626.097.937.112l-.022.484zM41.809 55.241c-.153-.01-.31-.017-.467-.017v-.484c.17 0 .339.006.503.02l-.036.481z" mask="url(#prefix__b)"/>
                <path fill="#0A51B7" d="M90.951 61.858c-2.698 0-5.215-1.35-6.412-3.439-.908-1.587-3.258-3.195-5.99-3.195-2.286 0-4.309 1.085-6.012 3.225-1.483 1.865-2.989 3.41-6.39 3.41-3.017 0-5.114-1.127-6.413-3.442-.826-1.473-2.89-3.193-5.99-3.193-2.998 0-5.053 2.021-6.012 3.225-1.483 1.865-2.989 3.41-6.39 3.41v-.485c3.191 0 4.557-1.399 6.011-3.226 1.013-1.273 3.19-3.408 6.391-3.408 3.308 0 5.522 1.853 6.413 3.44 1.205 2.15 3.164 3.194 5.99 3.194 3.191 0 4.557-1.399 6.011-3.226 1.8-2.262 3.95-3.408 6.391-3.408 2.916 0 5.433 1.73 6.411 3.438 1.112 1.941 3.464 3.196 5.991 3.196v.484z" mask="url(#prefix__b)"/>
            </g>
            <g transform="translate(20 25) translate(54 45.608)">
                <mask id="prefix__d" fill="#fff">
                    <use xlink:href="#prefix__c"/>
                </mask>
                <path fill="#FFF" d="M-1.562 28.848L25.855 28.848 25.855 -2.061 -1.562 -2.061z" mask="url(#prefix__d)"/>
            </g>
            <g transform="translate(20 25) translate(55 52.608)">
                <mask id="prefix__f" fill="#fff">
                    <use xlink:href="#prefix__e"/>
                </mask>
                <path fill="#0A51B7" d="M-2.343 21.65L13.569 21.65 13.569 -2.419 -2.343 -2.419z" mask="url(#prefix__f)"/>
            </g>
            <g transform="translate(20 25) translate(54 45.608)">
                <mask id="prefix__h" fill="#fff">
                    <use xlink:href="#prefix__g"/>
                </mask>
                <path fill="#000" d="M-1.562 28.847L25.855 28.847 25.855 -2.061 -1.562 -2.061z" mask="url(#prefix__h)"/>
            </g>
            <g>
                <path fill="#000" d="M23.952 42.229L24.34 42.229 24.34 29.393 23.952 29.393z" transform="translate(20 25) translate(42 29.608)"/>
                <path fill="#000" d="M24.05 29.561L12.984 23.172 13.177 22.835 24.243 29.224z" transform="translate(20 25) translate(42 29.608)"/>
                <path fill="#000" d="M24.243 29.561L24.05 29.224 35.085 22.854 35.279 23.189zM47.627 10.482L46.848 10.482 46.848 7.159 43.525 7.159 43.525 6.379 47.627 6.379zM1.447 10.482L.668 10.482.668 6.379 4.77 6.379 4.77 7.159 1.447 7.159zM4.77 52.218L.667 52.218.667 48.115 1.447 48.115 1.447 51.439 4.77 51.439zM47.627 52.218L43.525 52.218 43.525 51.439 46.848 51.439 46.848 48.115 47.627 48.115z" transform="translate(20 25) translate(42 29.608)"/>
                <path fill="#C5C8CF" d="M309.612 22.131L402.219 22.131 402.219 21.381 309.612 21.381z" transform="translate(20 25) translate(42 29.608)"/>
                <path fill="#C5C8CF" d="M396.244 21.756L396.244 16.993 400.368 19.375 404.492 21.756 400.368 24.137 396.244 26.518zM308.761 35.195L401.367 35.195 401.367 34.445 308.761 34.445z" transform="translate(20 25) translate(42 29.608)"/>
                <path fill="#C5C8CF" d="M314.736 34.82L314.736 39.583 310.612 37.201 306.488 34.82 310.612 32.439 314.736 30.058z" transform="translate(20 25) translate(42 29.608)"/>
                <path fill="#000" d="M331.91 49.382c.083.252.12.516.12.804 0 .287-.037.55-.12.802h2.074v-1.606h-2.075zm3.585 7.004v1.008h-7.292V53.94h1.235v2.446h6.057zm-6.273-4.522c.924 0 1.631-.671 1.631-1.678 0-.984-.707-1.656-1.63-1.656-.948 0-1.656.672-1.656 1.656 0 1.007.708 1.678 1.655 1.678zm2.16.132c-.504.588-1.272.948-2.16.936-1.607 0-2.83-1.152-2.83-2.746 0-1.596 1.223-2.747 2.83-2.747.888 0 1.656.36 2.16.935h2.602v-1.595h1.236v7.963h-1.236v-2.746h-2.602zM345.36 57.597h1.187v-10.83h-1.187v10.83zm-2.183-10.566h1.151v10.038h-1.151v-3.645h-1.775v-1.008h1.775v-1.715h-1.583c-.503 1.822-1.643 3.394-3.67 4.606l-.707-.876c2.23-1.356 3.309-3.119 3.489-5.337h-2.962v-.995h4.186c0 .551-.036 1.09-.12 1.594h1.367v-2.662zM359.749 57.585h1.187v-10.83h-1.187v10.83zm-2.207-10.59h1.163v10.086h-1.163v-5.253h-2.135V50.82h2.135v-3.825zm-4.271 7.064c1.344-.012 2.268-.072 3.335-.3l.108 1.019c-1.223.241-2.278.3-3.934.3h-.731v-7.04h4.101v1.008h-2.879v5.013zM370.393 57.621h1.247V46.755h-1.247v10.866zm-6.117-6.249c0 1.703.66 2.723 1.595 2.723.947 0 1.608-1.02 1.608-2.723 0-1.679-.661-2.698-1.608-2.698-.935 0-1.595 1.019-1.595 2.698zm4.39 0c0 2.352-1.176 3.826-2.795 3.826-1.607 0-2.782-1.474-2.782-3.826 0-2.326 1.175-3.813 2.782-3.813 1.619 0 2.795 1.487 2.795 3.813zM382.764 46.743V57.61h-1.247v-5.865h-2.075v-1.02h2.075v-3.98h1.247zm-7.28 7.328c1.727-.013 2.963-.072 4.378-.312l.108.996c-1.548.275-2.902.323-4.87.323h-.851v-7.376h5.025v1.02h-3.79v2.027h3.346v.983h-3.345v2.34zM321.53 6.523l-.348-1.187c-.299-.96-.563-1.944-.839-2.939h-.048c-.252 1.007-.528 1.98-.816 2.94l-.359 1.186h2.41zm.336 1.091h-3.07l-.756 2.518h-1.415l2.926-8.827h1.607l2.927 8.827h-1.476l-.743-2.518zM326.644 5.456h1.33c1.284 0 1.98-.528 1.98-1.596 0-1.067-.696-1.439-1.98-1.439h-1.33v3.035zm3.43 4.677l-2.003-3.562h-1.427v3.562h-1.392V1.306h2.89c1.824 0 3.19.647 3.19 2.554 0 1.367-.73 2.183-1.845 2.531l2.158 3.742h-1.571zM342.997 2.95V.225h1.235v6.452h-1.235V3.956h-1.919V2.95h1.92zm.048 6.067c0-.708-.888-1.09-2.41-1.09-1.548 0-2.423.382-2.423 1.09 0 .708.875 1.092 2.422 1.092 1.523 0 2.411-.384 2.411-1.092zm1.235 0c0 1.295-1.39 2.051-3.646 2.051-2.267 0-3.658-.756-3.658-2.05 0-1.284 1.391-2.05 3.658-2.05 2.255 0 3.646.766 3.646 2.05zm-3.19-2.686c-1.199-.42-2.063-1.272-2.519-2.315-.479 1.188-1.39 2.147-2.675 2.603l-.635-.983c1.68-.6 2.65-2.04 2.65-3.527v-.156h-2.29V.958h5.793v.995h-2.255v.144c0 1.356.923 2.7 2.542 3.262l-.61.972zM353.965 11.08h1.247V.215h-1.247V11.08zm-5.864-3.573h2.746V4.856h-2.746v2.651zm0-6.393v2.758h2.746V1.114h1.235v7.388h-5.205V1.114h1.224zM368.761 11.045h1.187V.215h-1.187v10.83zM366.555.454h1.163v10.087h-1.163V5.288h-2.135V4.28h2.135V.454zm-4.271 7.065c1.344-.012 2.268-.073 3.335-.3l.108 1.019c-1.224.24-2.279.3-3.934.3h-.731v-7.04h4.101v1.007h-2.879v5.014zM379.405 11.08h1.247V.215h-1.247V11.08zm-6.116-6.248c0 1.703.659 2.723 1.595 2.723.947 0 1.607-1.02 1.607-2.723 0-1.679-.66-2.698-1.607-2.698-.936 0-1.595 1.019-1.595 2.698zm4.39 0c0 2.351-1.176 3.826-2.795 3.826-1.608 0-2.782-1.475-2.782-3.826 0-2.327 1.174-3.814 2.782-3.814 1.619 0 2.795 1.487 2.795 3.814zM391.776.202v10.866h-1.247V5.204h-2.075v-1.02h2.075V.202h1.247zm-7.279 7.328c1.726-.012 2.962-.07 4.377-.31l.108.994c-1.548.276-2.902.324-4.869.324h-.852V1.162h5.025v1.02h-3.789v2.026h3.345v.983h-3.345v2.34z" transform="translate(20 25) translate(42 29.608)"/>
            </g>
        </g>
    </g>
</svg>
