<svg xmlns="http://www.w3.org/2000/svg" xmlns:xlink="http://www.w3.org/1999/xlink" width="780" height="210" viewBox="0 0 780 210">
    <defs>
        <path id="prefix__a" d="M0 0H780V210H0z"/>
        <path id="prefix__c" d="M0 154.779L731.392 154.779 731.392 0 0 0z"/>
    </defs>
    <g fill="none" fill-rule="evenodd">
        <mask id="prefix__b" fill="#fff">
            <use xlink:href="#prefix__a"/>
        </mask>
        <use fill="#F8F9FB" xlink:href="#prefix__a"/>
        <g mask="url(#prefix__b)">
            <g transform="translate(24 26)">
                <path fill="#000" d="M24.651 131.404v1.02h-1.439v3.681h-1.248v-8.132h1.248v3.431h1.439zm-7.208 6.188h6.116v1.007h-7.363v-3.214h1.247v2.207zm1.751-5.109c.216-1.163.252-2.015.264-2.686h-4.234v-1.008h5.446v.624c0 .731 0 1.799-.265 3.202l-1.211-.132zm2.195 1.571c-2.255.396-4.809.455-6.692.455l-.132-1.006c.648 0 1.391 0 2.158-.025v-2.219h1.224v2.184c1.127-.049 2.291-.121 3.358-.289l.084.9z"/>
                <mask id="prefix__d" fill="#fff">
                    <use xlink:href="#prefix__c"/>
                </mask>
                <path fill="#000" d="M33.413 138.828h1.247v-10.879h-1.247v10.879zm-5.829-3.598c1.714-.013 3.214-.097 4.929-.373l.132 1.008c-1.859.324-3.478.384-5.386.384h-.922v-4.294h3.777v-2.014h-3.802v-1.008h5.05v4.018h-3.778v2.279zM39.632 128.309L40.59 128.309 37.257 140.038 36.297 140.038zM48.808 137.04c0-.551-.852-.827-2.494-.827-1.632 0-2.484.276-2.484.828 0 .576.852.84 2.484.84 1.642 0 2.494-.264 2.494-.84zm1.235 0c0 1.152-1.367 1.764-3.729 1.764-2.352 0-3.73-.612-3.73-1.763 0-1.14 1.378-1.74 3.73-1.74 2.362 0 3.73.6 3.73 1.74zm1.176-3.405v.996H41.42v-.996h4.282v-.888H42.68v-4.474h7.376v.948h-6.14v.816h5.876v.923h-5.877v.84h6.213v.947H46.95v.888h4.27zM60.543 138.792h1.176v-10.83h-1.176v10.83zm-2.182-10.615h1.163v10.099h-1.163v-5.493h-1.595v-1.008h1.595v-3.598zm-2.591 2.771c0 1.847.696 3.718 2.207 4.593l-.72.9c-1.019-.599-1.69-1.668-2.074-2.927-.384 1.368-1.08 2.531-2.123 3.191l-.744-.912c1.535-.959 2.255-2.914 2.255-4.845v-.78h-1.906v-1.019h4.892v1.019H55.77v.78zM70.877 129.09h-6.13v-.852H72.1v2.387h-6.117v.768h6.309v.863h-7.52v-2.436h6.105v-.73zm-4.978 8.742h6.56v.852h-7.783V136.2h6.237v-.767h-6.261v-.852h7.484v2.423h-6.237v.827zm-2.386-3.981h9.822v-.911h-9.822v.91zM85.648 138.816h1.235v-10.843h-1.235v10.843zm-5.805-8.107c0 .767.672 1.258 1.608 1.258.947 0 1.607-.491 1.607-1.258 0-.756-.66-1.248-1.607-1.248-.936 0-1.608.492-1.608 1.248zm-1.186 0c0-1.332 1.175-2.268 2.794-2.268s2.795.936 2.795 2.268c0 1.342-1.176 2.278-2.795 2.278s-2.794-.936-2.794-2.278zm6.368 3.597c-.947.192-1.943.299-2.902.371v3.803h-1.236v-3.73c-1.019.036-1.979.048-2.818.048l-.145-1.019c1.956 0 4.678-.037 7.017-.385l.084.912zM98.956 131.427v1.02H97.42v3.646h-1.236v-8.12h1.236v3.454h1.535zm-6.79 2.41c.865 0 1.452-.407 1.452-1.09 0-.684-.587-1.09-1.451-1.09-.852 0-1.44.406-1.44 1.09 0 .683.588 1.09 1.44 1.09zm-.358 3.755h6.044v1.007H90.56v-3.13h1.248v2.123zm.359-2.795c-1.547 0-2.626-.815-2.626-2.05 0-1.224 1.079-2.05 2.626-2.05 1.56 0 2.627.826 2.627 2.05 0 1.235-1.067 2.05-2.627 2.05zm3.203-4.605h-6.393v-.984h2.579v-1.247h1.235v1.247h2.579v.984zM41.32 150.33v-6.37h1.236v8.24H41.32v-1.007h-2.123v-.863h2.123zm-5.792-4.042c0 .61.61.995 1.51.995.888 0 1.5-.384 1.5-.995s-.612-.995-1.5-.995c-.9 0-1.51.384-1.51.995zm7.28 7.304v1.008h-7.82v-3.203h1.235v2.195h6.585zm-8.456-7.304c0-1.151 1.092-1.907 2.687-1.907 1.583 0 2.675.756 2.675 1.907 0 1.15-1.092 1.907-2.675 1.907-1.595 0-2.687-.756-2.687-1.907zm2.196 3.55c-1.032.048-2.015.06-2.867.06l-.156-1.007c1.99-.012 4.653-.037 6.944-.325l.096.888c-.911.156-1.86.264-2.782.313v2.085h-1.235v-2.014zM46.292 150.893h7.305v3.886H52.36v-2.903h-6.07v-.983zm7.305-6.933v6.465H52.36v-1.307h-2.627v-1.007h2.627v-1.296H49.9c-.718 1.691-2.35 2.902-4.664 3.526l-.48-.983c2.519-.672 4.018-2.015 4.246-3.682h-3.67v-.996h4.989c0 .397-.036.792-.12 1.14h2.159v-1.86h1.236zM67.996 143.96v6.44H66.76v-.874h-1.656v-1.007h1.656v-1.116H65.13v-1.007h1.63v-2.435h1.236zm-5.89 9.74h4.666v-.947h-4.665v.947zm4.666-2.866h1.224v3.838h-7.112v-3.838h1.223v.983h4.665v-.983zm-4.677-1.44c.803 0 1.343-.395 1.343-1.031 0-.635-.54-1.032-1.343-1.032-.791 0-1.331.397-1.331 1.032 0 .636.54 1.032 1.33 1.032zm0 .923c-1.463 0-2.483-.78-2.483-1.954 0-1.175 1.02-1.955 2.483-1.955 1.475 0 2.495.78 2.495 1.955s-1.02 1.954-2.495 1.954zm2.963-4.353h-6.01v-.983h2.435v-1.116h1.236v1.116h2.339v.983zM73.218 153.675h4.594v-1.199h-4.594v1.199zm4.594-3.381h1.224v4.378h-7.04v-4.378h1.222v1.223h4.594v-1.223zm-3.142-3.311c0-.923-.696-1.511-1.631-1.511-.959 0-1.643.588-1.643 1.511 0 .912.684 1.524 1.643 1.524.935 0 1.631-.612 1.631-1.524zm4.366-3.01v5.805H77.8v-2.303h-2.002c-.216 1.223-1.32 2.051-2.759 2.051-1.631 0-2.83-1.044-2.83-2.543 0-1.487 1.199-2.53 2.83-2.53 1.427 0 2.518.804 2.759 2.014H77.8v-2.494h1.236z" mask="url(#prefix__d)"/>
                <path stroke="#C5C8CF" stroke-width=".75" d="M131.281 57.211L311.888 57.211" mask="url(#prefix__d)"/>
                <path fill="#C5C8CF" d="M137.257 57.211L137.257 61.973 133.133 59.592 129.009 57.211 133.133 54.83 137.257 52.449z" mask="url(#prefix__d)"/>
                <path fill="#000" d="M635.717 131.378h4.881v-1.942h-4.881v1.942zm-1.212.985h7.305v-3.91h-7.305v3.91zm1.188 5.229h6.297v1.007h-7.532v-3.131h1.235v2.124zm7.388-4.163v.996h-4.198v2.028h-1.235v-2.028h-4.39v-.996h9.823zM652.37 138.791h1.176v-10.83h-1.176v10.83zm-2.183-10.614h1.163v10.098h-1.163v-5.492h-1.595v-1.008h1.595v-3.598zm-2.591 2.77c0 1.848.697 3.719 2.207 4.594l-.719.899c-1.02-.599-1.691-1.667-2.075-2.927-.383 1.368-1.08 2.532-2.123 3.192l-.744-.912c1.535-.959 2.255-2.914 2.255-4.846v-.779h-1.906v-1.02h4.892v1.02h-1.787v.779zM667.934 127.972v10.83h-1.176v-5.324h-1.15v4.821h-1.153v-10.098h1.152v4.257h1.151v-4.486h1.176zm-5.338 5.89c0-.9-.516-1.499-1.247-1.499-.73 0-1.247.6-1.247 1.5 0 .898.516 1.486 1.247 1.486.731 0 1.247-.588 1.247-1.487zm1.104 0c0 1.487-.984 2.518-2.35 2.518-1.368 0-2.352-1.03-2.352-2.518 0-1.499.984-2.519 2.351-2.519s2.351 1.02 2.351 2.52zm-1.739-4.126h2.027v.996h-5.3v-.996h2.05v-1.452h1.223v1.452zM679.021 137.712v.995h-7.328v-2.914h5.793v-.9h-5.818v-.983h7.053v2.807h-5.793v.995h6.093zm-4.042-7.304c-.672 1.655-2.267 2.758-4.653 3.298l-.432-1.007c2.566-.552 3.898-1.74 4.065-3.25h-3.477v-.996h4.845c0 .348-.024.684-.084.996h2.243v-1.476h1.235v5.494h-1.235v-.984h-2.65v-.96h2.65v-1.115h-2.507zM683.105 130.011c0 .612.9.936 2.578.936 1.68 0 2.58-.324 2.58-.936 0-.623-.9-.947-2.58-.947-1.679 0-2.578.324-2.578.947zm.084 7.748h6.476v.947h-7.7v-2.722h6.177v-.78h-6.2v-.935h7.411v2.591h-6.164v.9zm-1.367-7.748c0-1.21 1.427-1.87 3.861-1.87 2.423 0 3.862.66 3.862 1.87 0 1.2-1.439 1.86-3.862 1.86-2.434 0-3.86-.66-3.86-1.86zm-1.045 3.48h9.811v-.984h-9.81v.983zM702.914 138.815h1.235v-10.843h-1.235v10.843zm-5.805-8.107c0 .767.672 1.259 1.607 1.259.948 0 1.608-.492 1.608-1.259 0-.756-.66-1.247-1.608-1.247-.935 0-1.607.491-1.607 1.247zm-1.187 0c0-1.331 1.175-2.267 2.794-2.267 1.62 0 2.795.936 2.795 2.267 0 1.342-1.175 2.278-2.795 2.278-1.619 0-2.794-.936-2.794-2.278zm6.369 3.597c-.948.193-1.944.3-2.903.372v3.802h-1.235v-3.729c-1.02.035-1.98.047-2.818.047l-.145-1.019c1.955 0 4.678-.036 7.017-.384l.084.911zM716.221 131.427v1.02h-1.535v3.645h-1.236v-8.12h1.236v3.455h1.535zm-6.789 2.41c.864 0 1.451-.408 1.451-1.092 0-.683-.587-1.09-1.45-1.09-.853 0-1.44.407-1.44 1.09 0 .684.587 1.092 1.44 1.092zm-.359 3.754h6.044v1.008h-7.292v-3.13h1.248v2.122zm.36-2.795c-1.548 0-2.627-.814-2.627-2.05 0-1.223 1.08-2.05 2.626-2.05 1.56 0 2.627.827 2.627 2.05 0 1.236-1.067 2.05-2.627 2.05zm3.202-4.605h-6.393v-.983h2.58v-1.248h1.234v1.248h2.58v.983zM659.247 150.33v-6.37h1.235v8.24h-1.235v-1.007h-2.123v-.863h2.123zm-5.793-4.042c0 .61.61.995 1.51.995.888 0 1.5-.384 1.5-.995s-.612-.995-1.5-.995c-.9 0-1.51.384-1.51.995zm7.28 7.304v1.008h-7.82v-3.203h1.235v2.195h6.585zm-8.456-7.304c0-1.151 1.092-1.907 2.687-1.907 1.583 0 2.675.756 2.675 1.907 0 1.15-1.092 1.907-2.675 1.907-1.595 0-2.687-.756-2.687-1.907zm2.196 3.55c-1.032.048-2.015.06-2.867.06l-.156-1.007c1.99-.012 4.653-.037 6.944-.325l.096.888c-.911.156-1.86.264-2.782.313v2.085h-1.235v-2.014zM664.217 150.893h7.305v3.886h-1.236v-2.903h-6.069v-.983zm7.305-6.933v6.465h-1.236v-1.307h-2.627v-1.007h2.627v-1.296h-2.459c-.719 1.691-2.35 2.902-4.665 3.526l-.48-.983c2.518-.672 4.018-2.015 4.246-3.682h-3.67v-.996h4.99c0 .397-.037.792-.12 1.14h2.158v-1.86h1.236zM685.923 143.96v6.44h-1.236v-.874h-1.655v-1.007h1.655v-1.116h-1.63v-1.007h1.63v-2.435h1.236zm-5.89 9.74h4.665v-.947h-4.664v.947zm4.665-2.866h1.225v3.838h-7.112v-3.838h1.222v.983h4.665v-.983zm-4.677-1.44c.803 0 1.344-.395 1.344-1.031 0-.635-.54-1.032-1.344-1.032-.79 0-1.33.397-1.33 1.032 0 .636.54 1.032 1.33 1.032zm0 .923c-1.462 0-2.482-.78-2.482-1.954 0-1.175 1.02-1.955 2.482-1.955 1.476 0 2.495.78 2.495 1.955s-1.02 1.954-2.495 1.954zm2.964-4.353h-6.01v-.983h2.434v-1.116h1.236v1.116h2.34v.983zM691.144 153.675h4.594v-1.199h-4.594v1.199zm4.594-3.381h1.224v4.378h-7.04v-4.378h1.222v1.223h4.594v-1.223zm-3.143-3.311c0-.923-.695-1.511-1.631-1.511-.959 0-1.642.588-1.642 1.511 0 .912.683 1.524 1.642 1.524.936 0 1.631-.612 1.631-1.524zm4.367-3.01v5.805h-1.236v-2.303h-2.003c-.216 1.223-1.319 2.051-2.759 2.051-1.63 0-2.83-1.044-2.83-2.543 0-1.487 1.2-2.53 2.83-2.53 1.428 0 2.519.804 2.759 2.014h2.003v-2.494h1.236zM189.882 38.18c.06.228.096.467.096.731 0 .264-.036.503-.109.731h2.064V38.18h-2.051zm2.11 6.224c0-.719-.887-1.127-2.434-1.127-1.535 0-2.435.408-2.435 1.127 0 .744.9 1.14 2.435 1.14 1.547 0 2.434-.396 2.434-1.14zm1.224 0c0 1.332-1.403 2.111-3.658 2.111s-3.646-.779-3.646-2.11c0-1.32 1.391-2.1 3.646-2.1s3.658.78 3.658 2.1zm-6.045-3.934c.936 0 1.631-.623 1.631-1.559 0-.948-.695-1.572-1.631-1.572-.959 0-1.655.624-1.655 1.572 0 .936.696 1.56 1.655 1.56zm2.147.168c-.503.552-1.271.875-2.147.875-1.619 0-2.83-1.079-2.83-2.602 0-1.535 1.211-2.615 2.83-2.615.888 0 1.644.336 2.147.875h2.615v-1.498h1.235v6.393h-1.235v-1.428h-2.615zM205.228 38.36v1.02h-1.535v2.805h-1.236v-6.512h1.236v2.686h1.535zm-2.64 6.116c0-.672-.875-1.055-2.385-1.055-1.512 0-2.387.383-2.387 1.055 0 .695.875 1.068 2.387 1.068 1.51 0 2.386-.373 2.386-1.068zm1.224 0c0 1.283-1.367 2.04-3.61 2.04-2.231 0-3.61-.757-3.61-2.04 0-1.27 1.379-2.027 3.61-2.027 2.243 0 3.61.756 3.61 2.027zm-2.926-2.867c-1.163-.419-2.027-1.246-2.482-2.266-.481 1.175-1.367 2.111-2.615 2.567l-.66-.985c1.703-.587 2.626-2.062 2.626-3.62v-1.069h1.248V37.4c0 1.391.923 2.711 2.53 3.238l-.647.971zM218.607 35.673v6.44h-1.234v-.876h-1.656V40.23h1.655v-1.115h-1.63v-1.008h1.63v-2.434h1.235zm-5.888 9.738h4.665v-.947h-4.665v.947zm4.665-2.867h1.224v3.839h-7.113v-3.839h1.224v.985h4.665v-.985zm-4.677-1.438c.803 0 1.343-.395 1.343-1.032 0-.634-.54-1.032-1.344-1.032-.79 0-1.33.398-1.33 1.032 0 .637.54 1.032 1.33 1.032zm0 .922c-1.463 0-2.483-.779-2.483-1.954 0-1.174 1.02-1.954 2.483-1.954 1.475 0 2.495.78 2.495 1.954 0 1.175-1.02 1.955-2.495 1.955zm2.963-4.352h-6.01v-.983h2.435v-1.116h1.236v1.117h2.339v.981zM229.648 35.685v6.668h-1.235v-1.847h-1.944v-.995h1.944v-1.27h-1.944v-.997h1.944v-1.559h1.235zm-7.328 7.207h7.328v3.647h-1.235V43.9h-6.093v-1.008zm4.113-1.199c-1.306.228-2.41.264-4.533.264h-.792V38.6h3.454v-1.295h-3.477v-.996h4.7v3.238h-3.465v1.404c1.81 0 2.807-.048 3.98-.252l.133.995zM237.524 45.351h6.368v.996h-7.603v-3.19h1.235v2.194zm4.929-7.195c.012-.336.012-.672.012-1.008h-6.25v-.996h7.473v.972c0 1.02 0 2.123-.3 3.574l-1.222-.096c.119-.552.179-1.056.227-1.522l-6.284.275-.168-1.02 6.512-.179zm2.399 3.177v.997h-9.763v-.997h3.814v-1.45h1.247v1.45h4.702zM254.104 43.804h1.175v-8.119h-1.175v8.119zm-2.086-4.101h-1.284v-1.008h1.284v-2.794h1.151v7.64h-1.151v-3.838zm3.561 5.6v1.008h-7.399v-3.393h1.247v2.385h6.152zm-4.353-3.442c-1.236.229-2.267.264-3.946.264h-.708V36.56h4.09v.996h-2.902v1.272h2.494v.959h-2.494v1.355c1.367-.011 2.278-.06 3.346-.263l.12.982zM257.624 41.538c2.255-.336 3.742-1.69 3.802-3.226h-3.394v-1.007h3.406V35.9h1.236v1.404h3.393v1.007h-3.38c.058 1.536 1.545 2.89 3.8 3.226l-.467 1.02c-1.824-.325-3.262-1.224-3.97-2.496-.707 1.272-2.147 2.17-3.958 2.496l-.468-1.02zm-.468 3.657h9.811v-1.02h-9.81v1.02z" mask="url(#prefix__d)"/>
                <path stroke="#C5C8CF" stroke-width=".75" d="M598.986 57.211L418.379 57.211" mask="url(#prefix__d)"/>
                <path fill="#C5C8CF" d="M593.01 57.211L593.01 52.449 597.134 54.83 601.258 57.211 597.134 59.592 593.01 61.973z" mask="url(#prefix__d)"/>
                <path fill="#000" d="M474.588 38.18c.06.228.096.467.096.731 0 .264-.036.503-.109.731h2.064V38.18h-2.051zm2.11 6.224c0-.719-.887-1.127-2.434-1.127-1.535 0-2.435.408-2.435 1.127 0 .744.9 1.14 2.435 1.14 1.547 0 2.434-.396 2.434-1.14zm1.224 0c0 1.332-1.403 2.111-3.658 2.111s-3.646-.779-3.646-2.11c0-1.32 1.391-2.1 3.646-2.1s3.658.78 3.658 2.1zm-6.045-3.934c.936 0 1.631-.623 1.631-1.559 0-.948-.695-1.572-1.631-1.572-.959 0-1.655.624-1.655 1.572 0 .936.696 1.56 1.655 1.56zm2.147.168c-.503.552-1.271.875-2.147.875-1.619 0-2.83-1.079-2.83-2.602 0-1.535 1.211-2.615 2.83-2.615.888 0 1.644.336 2.147.875h2.615v-1.498h1.235v6.393h-1.235v-1.428h-2.615zM489.934 38.36v1.02h-1.535v2.805h-1.236v-6.512h1.236v2.686h1.535zm-2.64 6.116c0-.672-.875-1.055-2.385-1.055-1.512 0-2.387.383-2.387 1.055 0 .695.875 1.068 2.387 1.068 1.51 0 2.386-.373 2.386-1.068zm1.224 0c0 1.283-1.367 2.04-3.61 2.04-2.231 0-3.61-.757-3.61-2.04 0-1.27 1.379-2.027 3.61-2.027 2.243 0 3.61.756 3.61 2.027zm-2.926-2.867c-1.163-.419-2.027-1.246-2.482-2.266-.481 1.175-1.367 2.111-2.615 2.567l-.66-.985c1.703-.587 2.626-2.062 2.626-3.62v-1.069h1.248V37.4c0 1.391.923 2.711 2.53 3.238l-.647.971zM503.314 35.673v6.44h-1.235v-.876h-1.656V40.23h1.656v-1.115h-1.631v-1.008h1.63v-2.434h1.236zm-5.89 9.738h4.666v-.947h-4.665v.947zm4.666-2.867h1.224v3.839h-7.112v-3.839h1.223v.985h4.665v-.985zm-4.677-1.438c.803 0 1.343-.395 1.343-1.032 0-.634-.54-1.032-1.343-1.032-.791 0-1.331.398-1.331 1.032 0 .637.54 1.032 1.33 1.032zm0 .922c-1.463 0-2.483-.779-2.483-1.954 0-1.174 1.02-1.954 2.483-1.954 1.475 0 2.495.78 2.495 1.954 0 1.175-1.02 1.955-2.495 1.955zm2.963-4.352h-6.01v-.983h2.435v-1.116h1.236v1.117h2.339v.981zM514.354 35.685v6.668h-1.235v-1.847h-1.944v-.995h1.944v-1.27h-1.944v-.997h1.944v-1.559h1.235zm-7.328 7.207h7.328v3.647h-1.235V43.9h-6.093v-1.008zm4.113-1.199c-1.306.228-2.41.264-4.533.264h-.792V38.6h3.454v-1.295h-3.477v-.996h4.7v3.238h-3.465v1.404c1.81 0 2.807-.048 3.98-.252l.133.995zM522.23 45.351h6.368v.996h-7.603v-3.19h1.235v2.194zm4.929-7.195c.012-.336.012-.672.012-1.008h-6.25v-.996h7.473v.972c0 1.02 0 2.123-.3 3.574l-1.222-.096c.119-.552.179-1.056.227-1.522l-6.284.275-.168-1.02 6.512-.179zm2.399 3.177v.997h-9.763v-.997h3.814v-1.45h1.247v1.45h4.702zM538.81 43.804h1.175v-8.119h-1.175v8.119zm-2.086-4.101h-1.283v-1.008h1.283v-2.794h1.151v7.64h-1.151v-3.838zm3.561 5.6v1.008h-7.399v-3.393h1.247v2.385h6.152zm-4.353-3.442c-1.236.229-2.267.264-3.946.264h-.708V36.56h4.09v.996h-2.902v1.272h2.494v.959h-2.494v1.355c1.367-.011 2.278-.06 3.346-.263l.12.982zM542.33 41.538c2.255-.336 3.742-1.69 3.802-3.226h-3.394v-1.007h3.406V35.9h1.236v1.404h3.393v1.007h-3.38c.058 1.536 1.545 2.89 3.8 3.226l-.467 1.02c-1.824-.325-3.262-1.224-3.97-2.496-.707 1.272-2.147 2.17-3.958 2.496l-.468-1.02zm-.468 3.657h9.811v-1.02h-9.81v1.02z" mask="url(#prefix__d)"/>
                <path fill="#092E6E" d="M341.65 114.002c0-.684-1.061-.973-3.366-.973-2.287 0-3.35.289-3.35.973 0 .684 1.063.99 3.35.99 2.305 0 3.367-.306 3.367-.99zm2.396 0c0 1.765-2.108 2.719-5.762 2.719-3.637 0-5.745-.954-5.745-2.72 0-1.782 2.108-2.718 5.745-2.718 3.654 0 5.762.936 5.762 2.719zm1.764-5.312v1.855h-15v-1.855h6.303v-1.026h-4.43v-7.094H344.1v1.8h-9.056v.864h8.678v1.729h-8.678v.9h9.181v1.8h-4.734v1.027h6.32zM358.767 112.237h2.395v-12.081h-2.395v12.081zm2.81 2.305v1.89h-11.452v-5.347h2.377v3.457h9.075zm-5.24-4.808c-1.836-.63-3.097-1.853-3.817-3.402-.756 1.674-2.052 3.024-3.979 3.691l-1.207-1.89c2.755-.938 3.943-3.26 3.943-5.457v-1.62h2.414v1.62c0 2.179 1.152 4.304 3.853 5.167l-1.207 1.891zM382.907 100.119v16.638h-2.377v-9.525h-3.186v-1.91h3.186v-5.203h2.377zm-7.688 3.69c0 3.134 1.207 6.177 3.943 7.402l-1.404 1.89c-1.819-.882-3.026-2.502-3.709-4.501-.72 2.124-1.963 3.853-3.818 4.79l-1.476-1.91c2.808-1.295 4.07-4.518 4.07-7.67v-2.394h2.394v2.394zM388.519 110.959h3.259v-3.673h-3.259v3.673zm10.948-10.84v16.638h-2.377v-8.895h-2.971v4.987h-7.958v-11.416h2.359v3.998h3.258v-3.998h2.341v4.52h2.971v-5.834h2.377z" mask="url(#prefix__d)"/>
                <path fill="#E6E8EB" d="M344.616 46.758L344.616 78.099 382.449 78.099 382.449 46.468z" mask="url(#prefix__d)"/>
                <path stroke="#000" stroke-width=".565" d="M344.616 46.758L344.616 78.099 382.449 78.099 382.449 46.468z" mask="url(#prefix__d)"/>
                <path fill="#FFF" d="M343.373 46.706c-1.382 0-2.507-1.125-2.507-2.507v-6.155c0-1.382 1.125-2.507 2.507-2.507h40.176c1.382 0 2.507 1.125 2.507 2.507v6.155c0 1.382-1.125 2.507-2.507 2.507h-40.176z" mask="url(#prefix__d)"/>
                <path fill="#000" d="M383.549 35.255h-40.176c-1.534 0-2.789 1.255-2.789 2.79v6.154c0 1.535 1.255 2.789 2.789 2.789h40.176c1.534 0 2.79-1.254 2.79-2.79v-6.153c0-1.535-1.256-2.79-2.79-2.79m0 .564c1.227 0 2.225.998 2.225 2.226v6.154c0 1.227-.998 2.225-2.225 2.225h-40.176c-1.227 0-2.225-.998-2.225-2.225v-6.154c0-1.228.998-2.226 2.225-2.226h40.176" mask="url(#prefix__d)"/>
                <path fill="#FFF" d="M343.373 60.96c-1.382 0-2.507-1.124-2.507-2.506v-6.155c0-1.382 1.125-2.507 2.507-2.507h40.176c1.382 0 2.507 1.125 2.507 2.507v6.155c0 1.382-1.125 2.507-2.507 2.507h-40.176z" mask="url(#prefix__d)"/>
                <path fill="#000" d="M383.549 49.51h-40.176c-1.534 0-2.789 1.256-2.789 2.788v6.155c0 1.535 1.255 2.79 2.789 2.79h40.176c1.534 0 2.79-1.255 2.79-2.79v-6.155c0-1.532-1.256-2.788-2.79-2.788m0 .564c1.227 0 2.225.998 2.225 2.224v6.155c0 1.228-.998 2.226-2.225 2.226h-40.176c-1.227 0-2.225-.998-2.225-2.226v-6.155c0-1.227.998-2.224 2.225-2.224h40.176" mask="url(#prefix__d)"/>
                <path fill="#FFF" d="M343.373 75.136c-1.382 0-2.507-1.125-2.507-2.508v-6.154c0-1.383 1.125-2.508 2.507-2.508h40.176c1.382 0 2.507 1.125 2.507 2.508v6.154c0 1.383-1.125 2.508-2.507 2.508h-40.176z" mask="url(#prefix__d)"/>
                <path fill="#000" d="M383.549 63.685h-40.176c-1.534 0-2.789 1.254-2.789 2.79v6.153c0 1.536 1.255 2.79 2.789 2.79h40.176c1.534 0 2.79-1.254 2.79-2.79v-6.154c0-1.535-1.256-2.789-2.79-2.789m0 .564c1.227 0 2.225.998 2.225 2.225v6.154c0 1.227-.998 2.225-2.225 2.225h-40.176c-1.227 0-2.225-.998-2.225-2.225v-6.154c0-1.227.998-2.225 2.225-2.225h40.176" mask="url(#prefix__d)"/>
                <path fill="#0A51B7" d="M369.066 42.727c-.885 0-1.605-.72-1.605-1.605s.72-1.606 1.605-1.606 1.605.721 1.605 1.606c0 .884-.72 1.605-1.605 1.605" mask="url(#prefix__d)"/>
                <path fill="#000" d="M369.066 39.234c-1.042 0-1.887.846-1.887 1.888 0 1.042.845 1.887 1.887 1.887s1.888-.845 1.888-1.887-.846-1.888-1.888-1.888m0 .564c.729 0 1.323.594 1.323 1.324 0 .73-.594 1.323-1.323 1.323-.73 0-1.323-.594-1.323-1.323 0-.73.594-1.324 1.323-1.324" mask="url(#prefix__d)"/>
                <path fill="#0A51B7" d="M374.887 42.727c-.885 0-1.605-.72-1.605-1.605s.72-1.606 1.605-1.606 1.605.721 1.605 1.606c0 .884-.72 1.605-1.605 1.605" mask="url(#prefix__d)"/>
                <path fill="#000" d="M374.887 39.234c-1.042 0-1.888.846-1.888 1.888 0 1.042.846 1.887 1.888 1.887 1.042 0 1.887-.845 1.887-1.887s-.845-1.888-1.887-1.888m0 .564c.73 0 1.323.594 1.323 1.324 0 .73-.594 1.323-1.323 1.323s-1.323-.594-1.323-1.323c0-.73.594-1.324 1.323-1.324" mask="url(#prefix__d)"/>
                <path fill="#0A51B7" d="M380.709 42.727c-.885 0-1.605-.72-1.605-1.605s.72-1.606 1.605-1.606 1.605.721 1.605 1.606c0 .884-.72 1.605-1.605 1.605" mask="url(#prefix__d)"/>
                <path fill="#000" d="M380.709 39.234c-1.042 0-1.887.846-1.887 1.888 0 1.042.845 1.887 1.887 1.887s1.888-.845 1.888-1.887-.846-1.888-1.888-1.888m0 .564c.729 0 1.323.594 1.323 1.324 0 .73-.594 1.323-1.323 1.323-.73 0-1.323-.594-1.323-1.323 0-.73.594-1.324 1.323-1.324" mask="url(#prefix__d)"/>
                <path fill="#0A51B7" d="M369.066 56.982c-.885 0-1.605-.72-1.605-1.605s.72-1.606 1.605-1.606 1.605.721 1.605 1.606c0 .884-.72 1.605-1.605 1.605" mask="url(#prefix__d)"/>
                <path fill="#000" d="M369.066 53.489c-1.042 0-1.887.845-1.887 1.888 0 1.042.845 1.886 1.887 1.886s1.888-.844 1.888-1.886c0-1.043-.846-1.888-1.888-1.888m0 .564c.729 0 1.323.594 1.323 1.324 0 .729-.594 1.322-1.323 1.322-.73 0-1.323-.593-1.323-1.322 0-.73.594-1.324 1.323-1.324" mask="url(#prefix__d)"/>
                <path fill="#0A51B7" d="M374.887 56.982c-.885 0-1.605-.72-1.605-1.605s.72-1.606 1.605-1.606 1.605.721 1.605 1.606c0 .884-.72 1.605-1.605 1.605" mask="url(#prefix__d)"/>
                <path fill="#000" d="M374.887 53.489c-1.042 0-1.888.845-1.888 1.888 0 1.042.846 1.886 1.888 1.886 1.042 0 1.887-.844 1.887-1.886 0-1.043-.845-1.888-1.887-1.888m0 .564c.73 0 1.323.594 1.323 1.324 0 .729-.594 1.322-1.323 1.322s-1.323-.593-1.323-1.322c0-.73.594-1.324 1.323-1.324" mask="url(#prefix__d)"/>
                <path fill="#0A51B7" d="M380.709 56.982c-.885 0-1.605-.72-1.605-1.605s.72-1.606 1.605-1.606 1.605.721 1.605 1.606c0 .884-.72 1.605-1.605 1.605" mask="url(#prefix__d)"/>
                <path fill="#000" d="M380.709 53.489c-1.042 0-1.887.845-1.887 1.888 0 1.042.845 1.886 1.887 1.886s1.888-.844 1.888-1.886c0-1.043-.846-1.888-1.888-1.888m0 .564c.729 0 1.323.594 1.323 1.324 0 .729-.594 1.322-1.323 1.322-.73 0-1.323-.593-1.323-1.322 0-.73.594-1.324 1.323-1.324" mask="url(#prefix__d)"/>
                <path fill="#0A51B7" d="M369.066 71.157c-.885 0-1.605-.721-1.605-1.605 0-.885.72-1.606 1.605-1.606s1.605.72 1.605 1.606c0 .884-.72 1.605-1.605 1.605" mask="url(#prefix__d)"/>
                <path fill="#000" d="M369.066 67.664c-1.042 0-1.887.846-1.887 1.888 0 1.042.845 1.887 1.887 1.887s1.888-.845 1.888-1.887-.846-1.888-1.888-1.888m0 .564c.729 0 1.323.594 1.323 1.324 0 .729-.594 1.323-1.323 1.323-.73 0-1.323-.594-1.323-1.323 0-.73.594-1.324 1.323-1.324" mask="url(#prefix__d)"/>
                <path fill="#0A51B7" d="M374.887 71.157c-.885 0-1.605-.721-1.605-1.605 0-.885.72-1.606 1.605-1.606s1.605.72 1.605 1.606c0 .884-.72 1.605-1.605 1.605" mask="url(#prefix__d)"/>
                <path fill="#000" d="M374.887 67.664c-1.042 0-1.888.846-1.888 1.888 0 1.042.846 1.887 1.888 1.887 1.042 0 1.887-.845 1.887-1.887s-.845-1.888-1.887-1.888m0 .564c.73 0 1.323.594 1.323 1.324 0 .729-.594 1.323-1.323 1.323s-1.323-.594-1.323-1.323c0-.73.594-1.324 1.323-1.324" mask="url(#prefix__d)"/>
                <path fill="#0A51B7" d="M380.709 71.157c-.885 0-1.605-.721-1.605-1.605 0-.885.72-1.606 1.605-1.606s1.605.72 1.605 1.606c0 .884-.72 1.605-1.605 1.605" mask="url(#prefix__d)"/>
                <path fill="#000" d="M380.709 67.664c-1.042 0-1.887.846-1.887 1.888 0 1.042.845 1.887 1.887 1.887s1.888-.845 1.888-1.887-.846-1.888-1.888-1.888m0 .564c.729 0 1.323.594 1.323 1.324 0 .729-.594 1.323-1.323 1.323-.73 0-1.323-.594-1.323-1.323 0-.73.594-1.324 1.323-1.324" mask="url(#prefix__d)"/>
                <g mask="url(#prefix__d)">
                    <g>
                        <path fill="#FFF" d="M1.42 0.245L1.42 6.44" transform="translate(344 37.779)"/>
                        <path stroke="#000" stroke-width=".565" d="M1.42 0.245L1.42 6.44" transform="translate(344 37.779)"/>
                    </g>
                </g>
                <g mask="url(#prefix__d)">
                    <g>
                        <path fill="#FFF" d="M0.621 0.245L0.621 6.44" transform="translate(348 37.779)"/>
                        <path stroke="#000" stroke-width=".565" d="M0.621 0.245L0.621 6.44" transform="translate(348 37.779)"/>
                    </g>
                </g>
                <g mask="url(#prefix__d)">
                    <g>
                        <path fill="#FFF" d="M0.822 0.245L0.822 6.44" transform="translate(351 37.779)"/>
                        <path stroke="#000" stroke-width=".565" d="M0.822 0.245L0.822 6.44" transform="translate(351 37.779)"/>
                    </g>
                </g>
                <g mask="url(#prefix__d)">
                    <g>
                        <path fill="#FFF" d="M1.023 0.245L1.023 6.44" transform="translate(354 37.779)"/>
                        <path stroke="#000" stroke-width=".565" d="M1.023 0.245L1.023 6.44" transform="translate(354 37.779)"/>
                    </g>
                </g>
                <g mask="url(#prefix__d)">
                    <g>
                        <path fill="#FFF" d="M1.224 0.245L1.224 6.44" transform="translate(357 37.779)"/>
                        <path stroke="#000" stroke-width=".565" d="M1.224 0.245L1.224 6.44" transform="translate(357 37.779)"/>
                    </g>
                </g>
                <g mask="url(#prefix__d)">
                    <g>
                        <path fill="#FFF" d="M1.425 0.245L1.425 6.44" transform="translate(360 37.779)"/>
                        <path stroke="#000" stroke-width=".565" d="M1.425 0.245L1.425 6.44" transform="translate(360 37.779)"/>
                    </g>
                </g>
                <g mask="url(#prefix__d)">
                    <g>
                        <path fill="#FFF" d="M1.02 0.245L1.02 6.44" transform="translate(346 37.779)"/>
                        <path stroke="#000" stroke-width=".565" d="M1.02 0.245L1.02 6.44" transform="translate(346 37.779)"/>
                    </g>
                </g>
                <g mask="url(#prefix__d)">
                    <g>
                        <path fill="#FFF" d="M1.221 0.245L1.221 6.44" transform="translate(349 37.779)"/>
                        <path stroke="#000" stroke-width=".565" d="M1.221 0.245L1.221 6.44" transform="translate(349 37.779)"/>
                    </g>
                </g>
                <g mask="url(#prefix__d)">
                    <g>
                        <path fill="#FFF" d="M1.423 0.245L1.423 6.44" transform="translate(352 37.779)"/>
                        <path stroke="#000" stroke-width=".565" d="M1.423 0.245L1.423 6.44" transform="translate(352 37.779)"/>
                    </g>
                </g>
                <g mask="url(#prefix__d)">
                    <g>
                        <path fill="#FFF" d="M0.624 0.245L0.624 6.44" transform="translate(356 37.779)"/>
                        <path stroke="#000" stroke-width=".565" d="M0.624 0.245L0.624 6.44" transform="translate(356 37.779)"/>
                    </g>
                </g>
                <g mask="url(#prefix__d)">
                    <g>
                        <path fill="#FFF" d="M0.825 0.245L0.825 6.44" transform="translate(359 37.779)"/>
                        <path stroke="#000" stroke-width=".565" d="M0.825 0.245L0.825 6.44" transform="translate(359 37.779)"/>
                    </g>
                </g>
                <g mask="url(#prefix__d)">
                    <g>
                        <path fill="#FFF" d="M1.42 0.5L1.42 6.695" transform="translate(344 51.779)"/>
                        <path stroke="#000" stroke-width=".565" d="M1.42 0.5L1.42 6.695" transform="translate(344 51.779)"/>
                    </g>
                </g>
                <g mask="url(#prefix__d)">
                    <g>
                        <path fill="#FFF" d="M0.621 0.5L0.621 6.695" transform="translate(348 51.779)"/>
                        <path stroke="#000" stroke-width=".565" d="M0.621 0.5L0.621 6.695" transform="translate(348 51.779)"/>
                    </g>
                </g>
                <g mask="url(#prefix__d)">
                    <g>
                        <path fill="#FFF" d="M0.822 0.5L0.822 6.695" transform="translate(351 51.779)"/>
                        <path stroke="#000" stroke-width=".565" d="M0.822 0.5L0.822 6.695" transform="translate(351 51.779)"/>
                    </g>
                </g>
                <g mask="url(#prefix__d)">
                    <g>
                        <path fill="#FFF" d="M1.023 0.5L1.023 6.695" transform="translate(354 51.779)"/>
                        <path stroke="#000" stroke-width=".565" d="M1.023 0.5L1.023 6.695" transform="translate(354 51.779)"/>
                    </g>
                </g>
                <g mask="url(#prefix__d)">
                    <g>
                        <path fill="#FFF" d="M1.224 0.5L1.224 6.695" transform="translate(357 51.779)"/>
                        <path stroke="#000" stroke-width=".565" d="M1.224 0.5L1.224 6.695" transform="translate(357 51.779)"/>
                    </g>
                </g>
                <g mask="url(#prefix__d)">
                    <g>
                        <path fill="#FFF" d="M1.425 0.5L1.425 6.695" transform="translate(360 51.779)"/>
                        <path stroke="#000" stroke-width=".565" d="M1.425 0.5L1.425 6.695" transform="translate(360 51.779)"/>
                    </g>
                </g>
                <g mask="url(#prefix__d)">
                    <g>
                        <path fill="#FFF" d="M1.02 0.5L1.02 6.695" transform="translate(346 51.779)"/>
                        <path stroke="#000" stroke-width=".565" d="M1.02 0.5L1.02 6.695" transform="translate(346 51.779)"/>
                    </g>
                </g>
                <g mask="url(#prefix__d)">
                    <g>
                        <path fill="#FFF" d="M1.221 0.5L1.221 6.695" transform="translate(349 51.779)"/>
                        <path stroke="#000" stroke-width=".565" d="M1.221 0.5L1.221 6.695" transform="translate(349 51.779)"/>
                    </g>
                </g>
                <g mask="url(#prefix__d)">
                    <g>
                        <path fill="#FFF" d="M1.423 0.5L1.423 6.695" transform="translate(352 51.779)"/>
                        <path stroke="#000" stroke-width=".565" d="M1.423 0.5L1.423 6.695" transform="translate(352 51.779)"/>
                    </g>
                </g>
                <g mask="url(#prefix__d)">
                    <g>
                        <path fill="#FFF" d="M0.624 0.5L0.624 6.695" transform="translate(356 51.779)"/>
                        <path stroke="#000" stroke-width=".565" d="M0.624 0.5L0.624 6.695" transform="translate(356 51.779)"/>
                    </g>
                </g>
                <g mask="url(#prefix__d)">
                    <g>
                        <path fill="#FFF" d="M0.825 0.5L0.825 6.695" transform="translate(359 51.779)"/>
                        <path stroke="#000" stroke-width=".565" d="M0.825 0.5L0.825 6.695" transform="translate(359 51.779)"/>
                    </g>
                </g>
                <g mask="url(#prefix__d)">
                    <g>
                        <path fill="#FFF" d="M1.42 0.755L1.42 6.95" transform="translate(344 65.779)"/>
                        <path stroke="#000" stroke-width=".565" d="M1.42 0.755L1.42 6.95" transform="translate(344 65.779)"/>
                    </g>
                </g>
                <g mask="url(#prefix__d)">
                    <g>
                        <path fill="#FFF" d="M0.621 0.755L0.621 6.95" transform="translate(348 65.779)"/>
                        <path stroke="#000" stroke-width=".565" d="M0.621 0.755L0.621 6.95" transform="translate(348 65.779)"/>
                    </g>
                </g>
                <g mask="url(#prefix__d)">
                    <g>
                        <path fill="#FFF" d="M0.822 0.755L0.822 6.95" transform="translate(351 65.779)"/>
                        <path stroke="#000" stroke-width=".565" d="M0.822 0.755L0.822 6.95" transform="translate(351 65.779)"/>
                    </g>
                </g>
                <g mask="url(#prefix__d)">
                    <g>
                        <path fill="#FFF" d="M1.023 0.755L1.023 6.95" transform="translate(354 65.779)"/>
                        <path stroke="#000" stroke-width=".565" d="M1.023 0.755L1.023 6.95" transform="translate(354 65.779)"/>
                    </g>
                </g>
                <g mask="url(#prefix__d)">
                    <g>
                        <path fill="#FFF" d="M1.224 0.755L1.224 6.95" transform="translate(357 65.779)"/>
                        <path stroke="#000" stroke-width=".565" d="M1.224 0.755L1.224 6.95" transform="translate(357 65.779)"/>
                    </g>
                </g>
                <g mask="url(#prefix__d)">
                    <g>
                        <path fill="#FFF" d="M1.425 0.755L1.425 6.95" transform="translate(360 65.779)"/>
                        <path stroke="#000" stroke-width=".565" d="M1.425 0.755L1.425 6.95" transform="translate(360 65.779)"/>
                    </g>
                </g>
                <g mask="url(#prefix__d)">
                    <g>
                        <path fill="#FFF" d="M1.02 0.755L1.02 6.95" transform="translate(346 65.779)"/>
                        <path stroke="#000" stroke-width=".565" d="M1.02 0.755L1.02 6.95" transform="translate(346 65.779)"/>
                    </g>
                </g>
                <g mask="url(#prefix__d)">
                    <g>
                        <path fill="#FFF" d="M1.221 0.755L1.221 6.95" transform="translate(349 65.779)"/>
                        <path stroke="#000" stroke-width=".565" d="M1.221 0.755L1.221 6.95" transform="translate(349 65.779)"/>
                    </g>
                </g>
                <g mask="url(#prefix__d)">
                    <g>
                        <path fill="#FFF" d="M1.423 0.755L1.423 6.95" transform="translate(352 65.779)"/>
                        <path stroke="#000" stroke-width=".565" d="M1.423 0.755L1.423 6.95" transform="translate(352 65.779)"/>
                    </g>
                </g>
                <g mask="url(#prefix__d)">
                    <g>
                        <path fill="#FFF" d="M0.624 0.755L0.624 6.95" transform="translate(356 65.779)"/>
                        <path stroke="#000" stroke-width=".565" d="M0.624 0.755L0.624 6.95" transform="translate(356 65.779)"/>
                    </g>
                </g>
                <g mask="url(#prefix__d)">
                    <g>
                        <path fill="#FFF" d="M0.825 0.755L0.825 6.95" transform="translate(359 65.779)"/>
                        <path stroke="#000" stroke-width=".565" d="M0.825 0.755L0.825 6.95" transform="translate(359 65.779)"/>
                    </g>
                </g>
                <path fill="#E6E8EB" d="M378.257 66.669s.188-1.193 1.878-2.007c1.689-.813 5.929-1.964 11.108-1.25 5.18.716 6.54 2 6.54 2l.623 1.378-.001 15.146s-.684 1.814-4.158 2.565c-3.473.75-10.388 1-13.705-.532 0 0-2.097-.876-2.285-2.191v-15.11z" mask="url(#prefix__d)"/>
                <path stroke="#000" stroke-width=".565" d="M398.406 66.534s-.778-3.346-10.378-3.346-9.77 3.416-9.77 3.416v15.212s1.054 3.439 10.067 3.439c9.014 0 10.08-3.44 10.08-3.44l.001-15.281z" mask="url(#prefix__d)"/>
                <path stroke="#000" stroke-width=".565" d="M378.257 71.983s1.125 3.296 10.205 3.21c9.08-.088 9.944-3.21 9.944-3.21M378.257 76.94s1.125 3.297 10.205 3.21c9.08-.087 9.944-3.21 9.944-3.21M378.257 67.025s1.125 3.296 10.205 3.21c9.08-.087 9.944-3.21 9.944-3.21" mask="url(#prefix__d)"/>
                <path fill="#FFF" d="M113.09 56.732c0 31.125-25.233 56.357-56.358 56.357C25.609 113.09.377 87.857.377 56.732S25.608.375 56.733.375s56.357 25.232 56.357 56.357" mask="url(#prefix__d)"/>
                <path stroke="#C5C8CF" stroke-width=".75" d="M113.09 56.732c0 31.125-25.233 56.357-56.358 56.357C25.609 113.09.377 87.857.377 56.732S25.608.375 56.733.375s56.357 25.232 56.357 56.357z" mask="url(#prefix__d)"/>
                <path fill="#273A5B" d="M70.912 53.678c-1.316 0-2.374.551-3.147 1.64-.248-.48-.61-.868-1.08-1.155-.529-.322-1.149-.485-1.842-.485-.556 0-1.12.156-1.679.464-.465.258-.836.573-1.104.94v-1.104h-1.889v9.471h1.964V58.2c0-.73.218-1.373.65-1.91.428-.537.942-.798 1.571-.798.695 0 1.193.178 1.48.527.292.358.441.96.441 1.788v5.642h1.965V58.2c0-.73.218-1.373.65-1.91.428-.537.942-.798 1.57-.798.695 0 1.194.178 1.48.527.293.357.442.96.442 1.788v5.642h1.964v-5.904c0-1.224-.3-2.183-.892-2.852-.596-.674-1.45-1.015-2.544-1.015M82.36 61.003c-.517.553-1.168.81-2.046.81-.88 0-1.531-.257-2.048-.81-.55-.586-.83-1.364-.83-2.314 0-.94.28-1.711.828-2.297.532-.565 1.183-.828 2.05-.828.865 0 1.516.263 2.047.828.55.586.828 1.358.828 2.297 0 .95-.278 1.728-.828 2.314m-2.047-7.324c-1.39 0-2.558.478-3.478 1.423-.906.942-1.364 2.149-1.364 3.587 0 1.437.459 2.644 1.365 3.585.918.945 2.087 1.423 3.477 1.423 1.388 0 2.55-.478 3.457-1.422.918-.93 1.382-2.136 1.382-3.586 0-1.438-.465-2.645-1.382-3.587-.906-.945-2.07-1.423-3.457-1.423M93.938 57.533c.163-.626.456-1.132.852-1.47.443-.378.98-.57 1.599-.57.752 0 1.358.2 1.8.598.397.353.652.862.726 1.442h-4.977zm7.066 1.357c0-1.632-.428-2.964-1.24-3.852-.825-.902-1.948-1.36-3.338-1.36-1.353 0-2.48.483-3.348 1.435-.854.935-1.306 2.196-1.306 3.646 0 1.409.44 2.558 1.344 3.514.894.945 2.045 1.424 3.422 1.424.942 0 1.798-.227 2.544-.673.597-.356 1.166-.9 1.562-1.492l.057-.086-1.406-1.3-.08.119c-.661.997-1.585 1.547-2.601 1.547-.837 0-1.465-.228-1.978-.72-.544-.52-.811-1.108-.856-1.894h7.194l.03-.308zM51.964 57.533c.163-.625.456-1.132.852-1.47.444-.378.98-.57 1.598-.57.752 0 1.36.2 1.801.598.397.353.652.862.725 1.442h-4.976zm2.488-3.854c-1.353 0-2.48.482-3.349 1.434-.854.936-1.306 2.196-1.306 3.646 0 1.409.44 2.558 1.346 3.514.892.945 2.044 1.424 3.422 1.424.94 0 1.797-.227 2.544-.673.596-.356 1.166-.9 1.561-1.492l.057-.086-1.406-1.3-.078.119c-.663.997-1.587 1.547-2.605 1.547-.834 0-1.463-.228-1.975-.72-.537-.513-.811-1.118-.857-1.894H59l.03-.308c0-1.633-.428-2.965-1.24-3.852-.825-.902-1.948-1.36-3.338-1.36zM89.087 51.398h-.23l-1.678 1.064-.055.037v1.637h-1.611v1.815h1.61v5.013c.013.855.28 1.534.797 2.016.49.46 1.125.696 1.94.726l.099.002c.412 0 .99-.08 1.295-.184l.08-.027v-1.9l-.17.075c-.117.053-.23.09-.34.114-.19.041-.555.074-.69.068-.297-.015-.523-.106-.73-.297-.21-.193-.317-.582-.317-1.156v-4.45h2.248v-1.815h-2.248v-2.738zM40.596 56.636v-4.94h4.15c1.363 0 2.472 1.107 2.472 2.47 0 1.362-1.109 2.47-2.472 2.47h-4.15zm7.685.194c.595-.767.91-1.689.91-2.665 0-.975-.315-1.897-.91-2.665-.832-1.079-2.09-1.697-3.453-1.697h-6.207v13.661h1.975v-4.937h3.116l3.725 4.886.036.051h2.51l-3.908-5.12c.872-.26 1.65-.794 2.206-1.514z" mask="url(#prefix__d)"/>
                <path fill="#207FF4" d="M19.136 66.738L28.574 61.28 28.574 58.053 19.136 63.535 19.136 63.539 15.236 61.285 15.236 56.786 21.902 52.937 19.132 51.334 12.462 55.184 12.462 62.886z" mask="url(#prefix__d)"/>
                <path fill="#7DB3F6" d="M31.348 55.188L21.904 49.733 19.132 51.334 25.8 55.192 25.804 55.19 28.574 56.79 28.574 61.279 28.57 61.281 24.675 63.53 18.007 59.66 15.233 61.285 24.673 66.734 31.344 62.882z" mask="url(#prefix__d)"/>
                <path fill="#C0D8FF" d="M21.904 46.53L15.234 50.381 15.235 50.382 15.234 50.382 15.234 61.284 18.008 62.886 18.008 51.983 18.007 51.982 18.008 51.982 21.904 49.733 25.8 51.983 25.8 59.664 28.574 58.053 28.574 50.382z" mask="url(#prefix__d)"/>
                <path fill="#207FF4" d="M15.236 56.786L15.236 56.786 21.902 52.937 19.131 51.334 12.461 55.184z" mask="url(#prefix__d)"/>
                <path fill="#FFF" d="M731.017 56.732c0 31.125-25.232 56.357-56.357 56.357s-56.357-25.232-56.357-56.357S643.535.375 674.66.375s56.357 25.232 56.357 56.357" mask="url(#prefix__d)"/>
                <path stroke="#C5C8CF" stroke-width=".75" d="M731.017 56.732c0 31.125-25.232 56.357-56.357 56.357s-56.357-25.232-56.357-56.357S643.535.375 674.66.375s56.357 25.232 56.357 56.357z" mask="url(#prefix__d)"/>
                <path fill="#273A5B" d="M688.84 53.678c-1.317 0-2.375.551-3.148 1.64-.248-.48-.61-.868-1.08-1.155-.529-.322-1.149-.485-1.841-.485-.556 0-1.12.156-1.68.464-.465.258-.836.573-1.104.94v-1.104h-1.889v9.471h1.965V58.2c0-.73.217-1.373.649-1.91.428-.537.942-.798 1.572-.798.695 0 1.192.178 1.48.527.293.358.44.96.44 1.788v5.642h1.966V58.2c0-.73.218-1.373.649-1.91.428-.537.942-.798 1.57-.798.696 0 1.194.178 1.48.527.293.357.442.96.442 1.788v5.642h1.964v-5.904c0-1.224-.3-2.183-.891-2.852-.596-.674-1.452-1.015-2.544-1.015M700.288 61.003c-.518.553-1.17.81-2.047.81-.88 0-1.531-.257-2.048-.81-.55-.586-.83-1.364-.83-2.314 0-.94.28-1.711.829-2.297.532-.565 1.183-.828 2.049-.828.865 0 1.516.263 2.047.828.55.586.829 1.358.829 2.297 0 .95-.28 1.728-.83 2.314m-2.046-7.324c-1.39 0-2.558.478-3.478 1.423-.905.942-1.363 2.149-1.363 3.587 0 1.437.458 2.644 1.364 3.585.919.945 2.088 1.423 3.477 1.423 1.388 0 2.552-.478 3.457-1.422.918-.93 1.383-2.136 1.383-3.586 0-1.438-.465-2.645-1.381-3.587-.907-.945-2.071-1.423-3.46-1.423M711.865 57.533c.163-.626.456-1.132.852-1.47.443-.378.982-.57 1.599-.57.752 0 1.358.2 1.8.598.397.353.652.862.726 1.442h-4.977zm7.066 1.357c0-1.632-.428-2.964-1.24-3.852-.825-.902-1.948-1.36-3.338-1.36-1.353 0-2.48.483-3.348 1.435-.854.935-1.305 2.196-1.305 3.646 0 1.409.439 2.558 1.343 3.514.894.945 2.045 1.424 3.422 1.424.942 0 1.798-.227 2.544-.673.597-.356 1.166-.9 1.562-1.492l.058-.086-1.407-1.3-.08.119c-.66.997-1.585 1.547-2.601 1.547-.837 0-1.465-.228-1.978-.72-.544-.52-.811-1.108-.856-1.894h7.194l.03-.308zM669.891 57.533c.163-.625.456-1.132.852-1.47h.001c.442-.378.98-.57 1.597-.57.753 0 1.36.2 1.802.598.397.353.651.862.725 1.442h-4.977zm2.488-3.854c-1.353 0-2.48.482-3.349 1.434-.853.936-1.305 2.196-1.305 3.646 0 1.409.44 2.558 1.344 3.514.893.945 2.045 1.424 3.422 1.424.942 0 1.797-.227 2.544-.673.597-.356 1.166-.9 1.562-1.492l.057-.086-1.406-1.3-.079.119c-.662.997-1.586 1.547-2.603 1.547-.836 0-1.464-.228-1.977-.72-.536-.513-.81-1.118-.857-1.894h7.195l.03-.308c0-1.633-.428-2.965-1.239-3.852-.826-.902-1.949-1.36-3.339-1.36zM707.014 51.398h-.23l-1.678 1.064-.055.037v1.637h-1.611v1.815h1.61v5.013c.013.855.28 1.534.797 2.016.49.46 1.125.696 1.94.726l.099.002c.412 0 .99-.08 1.295-.184l.08-.027v-1.9l-.168.075c-.12.053-.231.09-.342.114-.19.041-.555.074-.69.068-.297-.015-.523-.106-.73-.297-.21-.193-.317-.582-.317-1.156v-4.45h2.248v-1.815h-2.248v-2.738zM658.524 56.636v-4.94h4.15c1.363 0 2.472 1.107 2.472 2.47 0 1.362-1.11 2.47-2.472 2.47h-4.15zm7.685.194c.595-.767.909-1.689.909-2.665 0-.975-.314-1.897-.91-2.665-.831-1.079-2.09-1.697-3.452-1.697h-6.207v13.661h1.975v-4.937h3.117l3.724 4.886.036.051h2.51l-3.908-5.12c.872-.26 1.65-.794 2.206-1.514z" mask="url(#prefix__d)"/>
                <path fill="#207FF4" d="M637.064 66.738L646.502 61.28 646.502 58.053 637.064 63.535 637.064 63.539 633.163 61.285 633.163 56.786 639.83 52.937 637.06 51.334 630.39 55.184 630.389 55.184 630.389 62.886z" mask="url(#prefix__d)"/>
                <path fill="#7DB3F6" d="M649.275 55.188L639.832 49.733 637.059 51.334 643.727 55.192 643.731 55.19 646.501 56.79 646.501 61.279 646.497 61.281 642.602 63.53 635.934 59.66 633.16 61.285 642.601 66.734 649.271 62.882z" mask="url(#prefix__d)"/>
                <path fill="#C0D8FF" d="M639.831 46.53L633.161 50.381 633.162 50.382 633.161 50.382 633.161 61.284 635.935 62.886 635.935 51.983 635.935 51.983 635.934 51.982 635.935 51.982 639.831 49.733 643.727 51.983 643.727 59.664 646.501 58.053 646.501 50.382z" mask="url(#prefix__d)"/>
                <path fill="#207FF4" d="M633.163 56.786L633.163 56.786 639.83 52.937 637.059 51.334 630.39 55.184 630.389 55.184z" mask="url(#prefix__d)"/>
            </g>
        </g>
    </g>
</svg>
