<svg xmlns="http://www.w3.org/2000/svg" xmlns:xlink="http://www.w3.org/1999/xlink" width="780" height="380" viewBox="0 0 780 380">
    <defs>
        <path id="prefix__a" d="M0 0H780V380H0z"/>
        <path id="prefix__c" d="M0 328L740.987 328 740.987 0.466 0 0.466z"/>
    </defs>
    <g fill="none" fill-rule="evenodd">
        <mask id="prefix__b" fill="#fff">
            <use xlink:href="#prefix__a"/>
        </mask>
        <use fill="#F8F9FB" xlink:href="#prefix__a"/>
        <g mask="url(#prefix__b)">
            <g>
                <path fill="#C5C8CF" d="M121.619 151.205L147.188 151.205 147.188 150.454 121.619 150.454z" transform="translate(20 22)"/>
                <path fill="#C5C8CF" d="M141.212 150.83L141.212 146.068 145.336 148.449 149.46 150.83 145.336 153.211 141.212 155.592z" transform="translate(20 22)"/>
                <g transform="translate(20 22) translate(0 .534)">
                    <path fill="#000" d="M172.018 230.244c0-.67-.96-1.067-2.555-1.067-1.606 0-2.59.396-2.59 1.067 0 .684.984 1.08 2.59 1.08 1.596 0 2.555-.396 2.555-1.08zm-.348-4.629c.276-1.067.288-1.848.288-2.663h-6.212v-.995h7.435v.911c0 .864 0 1.764-.3 2.88l-1.211-.133zm1.583 4.63c0 1.26-1.487 2.026-3.79 2.026-2.34 0-3.813-.767-3.813-2.027 0-1.247 1.474-2.015 3.813-2.015 2.303 0 3.79.768 3.79 2.015zm1.128-3.85v.995h-9.762v-.996h3.837v-1.99h1.248v1.99h4.677zM183.382 224.164v-2.723h1.235v6.452h-1.235v-2.722h-1.92v-1.007h1.92zm.048 6.068c0-.708-.888-1.09-2.411-1.09-1.547 0-2.422.382-2.422 1.09 0 .708.875 1.092 2.422 1.092 1.523 0 2.41-.384 2.41-1.092zm1.235 0c0 1.295-1.391 2.051-3.646 2.051-2.267 0-3.658-.756-3.658-2.05 0-1.284 1.39-2.05 3.658-2.05 2.255 0 3.646.766 3.646 2.05zm-3.19-2.686c-1.2-.42-2.063-1.272-2.52-2.315-.478 1.188-1.39 2.147-2.674 2.603l-.635-.983c1.679-.6 2.65-2.04 2.65-3.527v-.156h-2.29v-.995h5.793v.995h-2.255v.144c0 1.356.923 2.7 2.542 3.262l-.611.972zM186.71 232.967c.815-.336 1.295-.936 1.308-1.643-.049.012-.084.012-.133.012-.491 0-.923-.311-.923-.888 0-.54.432-.887.959-.887.672 0 1.067.564 1.067 1.487 0 1.26-.731 2.23-1.966 2.698l-.312-.78zM202.928 225.111v1.02h-1.487v3.777h-1.236v-8.479h1.236v3.682h1.487zm-6.692 1.067c.863 0 1.415-.299 1.415-.803 0-.516-.552-.827-1.415-.827-.864 0-1.415.311-1.415.827 0 .504.55.803 1.415.803zm-.564 4.881h6.14v1.008h-7.375v-2.698h1.235v1.69zm3.658-7.735h-6.188v-.91h2.482v-1.02h1.247v1.02h2.459v.91zm.396 4.941c-2.267.432-4.846.48-6.717.492l-.144-.984c.804 0 1.763-.012 2.759-.035v-.744c-1.212-.144-1.967-.732-1.967-1.619 0-1.032 1.02-1.667 2.579-1.667 1.559 0 2.579.635 2.579 1.667 0 .876-.744 1.475-1.944 1.62v.682c.936-.059 1.883-.13 2.759-.263l.096.851zM211.821 230.076c0-.743-.924-1.163-2.399-1.163-1.463 0-2.387.42-2.387 1.163 0 .756.924 1.176 2.387 1.176 1.475 0 2.4-.42 2.4-1.176zm1.223 0c0 1.332-1.427 2.147-3.622 2.147s-3.61-.815-3.61-2.147c0-1.319 1.415-2.135 3.61-2.135s3.622.816 3.622 2.135zm-3.826-5.769c-.67 1.728-2.266 2.94-4.605 3.623l-.492-.984c2.543-.708 3.946-2.039 4.162-3.729h-3.599v-.996h4.918c0 .383-.036.744-.096 1.08h2.231v-1.86h1.235v6.368h-1.235v-1.247h-2.627v-1.007h2.627v-1.248h-2.519z"/>
                    <mask id="prefix__d" fill="#fff">
                        <use xlink:href="#prefix__c"/>
                    </mask>
                    <path fill="#000" d="M220.704 226.503h5.157v-3.215h-5.157v3.215zm7.508 3.43v1.007h-9.811v-1.007h4.27v-2.447h-3.178v-5.181h7.58v5.181h-3.167v2.447h4.306zM237.154 232.271h1.235v-10.83h-1.235v10.83zm-5.853-3.79c1.535-.011 3.154-.143 4.857-.492l.132 1.032c-1.859.384-3.61.516-5.289.516h-.924v-7.04h1.224v5.984zM249.477 221.417v10.866h-1.247v-5.864h-2.075v-1.02h2.075v-3.982h1.247zm-7.28 7.328c1.727-.012 2.963-.071 4.378-.311l.108.995c-1.548.276-2.902.324-4.87.324h-.851v-7.376h5.025v1.019h-3.79v2.027h3.346v.983h-3.345v2.339zM259.21 228.073h1.235v-6.632h-1.235v6.632zm.071 2.207c0-.672-.875-1.031-2.434-1.031-1.547 0-2.435.359-2.435 1.031 0 .66.888 1.02 2.435 1.02 1.559 0 2.434-.36 2.434-1.02zm1.236 0c0 1.26-1.391 2.003-3.67 2.003s-3.659-.743-3.659-2.003c0-1.259 1.38-2.003 3.659-2.003s3.67.744 3.67 2.003zm-2.29-3.106c-1.704.276-3.167.324-5.242.324h-.912v-3.202h3.718v-1.199h-3.741v-.996h4.953v3.13h-3.706v1.259c1.859 0 3.214-.059 4.785-.323l.145 1.007z" mask="url(#prefix__d)"/>
                    <path fill="#092E6E" d="M412.065 185.597h2.377v-16.638h-2.377v16.638zm-7.994-5.943c2.899-.017 4.753-.107 6.752-.485l.216 1.962c-2.251.432-4.357.504-7.887.504h-1.458v-11.199h8.013v1.926h-5.636v7.292zM428.625 185.542h2.377v-16.583h-2.377v16.583zm-4.951-12.117c0 2.701 1.332 5.563 4.104 6.716l-1.296 1.873c-1.926-.828-3.241-2.45-3.979-4.448-.738 2.161-2.07 3.979-4.015 4.862l-1.35-1.891c2.772-1.242 4.123-4.285 4.123-7.112v-.918h-3.457v-1.963h9.291v1.963h-3.421v.918zM445.312 174.343h-2.63v-1.872h2.63v-3.512h2.376v8.77h-2.376v-3.386zm2.844 9.29v1.783h-11.379v-4.392h8.553v-.901h-8.589v-1.783h10.947v4.357h-8.57v.937h9.038zm-5.185-6.553c-2.18.306-4.034.325-7.094.325h-1.297v-7.527h7.653v1.836h-5.295v1.026h4.79v1.729h-4.79v1.08c2.377-.018 3.98-.054 5.853-.323l.18 1.854zM468.838 179.385h-11.65v-9.22h11.524v1.909H459.6v1.748h8.732v1.835H459.6v1.855h9.237v1.873zm-13.414 4.249h15.017v-1.927h-15.017v1.927zM483.418 181.509h2.376v-12.567h-2.376v12.567zm-8.03-8.805c0 .9.792 1.387 1.998 1.387 1.188 0 1.98-.487 1.98-1.387 0-.899-.792-1.386-1.98-1.386-1.206 0-1.998.487-1.998 1.386zm-2.251 0c0-1.872 1.764-3.15 4.249-3.15 2.484 0 4.231 1.278 4.231 3.15 0 1.891-1.747 3.151-4.231 3.151-2.485 0-4.249-1.26-4.249-3.151zm13.017 10.659v1.891h-12.099v-4.772h2.377v-1.98c-1.459.072-2.881.091-4.123.091l-.288-1.891c3.006 0 7.021-.036 10.497-.486l.126 1.674c-1.279.234-2.557.379-3.854.468v2.665h-2.358v2.34h9.722zM424.198 195.6v1.964h-1.98v5.4h-2.376v-12.422h2.376v5.059h1.98zm-10.658 9.364h9.2v1.89h-11.577v-4.986h2.377v3.096zm1.98-7.562c.27-1.548.342-2.755.36-3.745h-6.176v-1.891h8.516v1.026c0 1.153 0 2.79-.377 4.88l-2.323-.27zm3.565 2.629c-3.42.63-7.274.702-10.119.72l-.216-1.89c.918 0 1.944 0 3.025-.02v-3.221h2.322v3.132c1.64-.072 3.295-.198 4.844-.414l.144 1.693zM436.959 207.179h2.377v-16.637h-2.377v16.637zm-8.103-5.817c2.522-.017 4.61-.143 6.951-.54l.252 1.927c-2.701.469-5.131.576-8.138.576h-1.495v-6.824h5.384v-2.647h-5.402v-1.89h7.832v6.41h-5.384v2.988zM461.063 190.542v16.637h-2.377v-9.526H455.5v-1.908h3.185v-5.203h2.377zm-7.688 3.69c0 3.133 1.207 6.176 3.942 7.401l-1.404 1.89c-1.819-.881-3.026-2.502-3.709-4.501-.72 2.124-1.963 3.853-3.817 4.79l-1.476-1.909c2.808-1.297 4.068-4.519 4.068-7.671v-2.394h2.396v2.394zM466.675 201.381h3.259v-3.673h-3.259v3.673zm10.947-10.839v16.637h-2.377v-8.895h-2.971v4.987h-7.958v-11.416h2.359v3.999h3.259v-3.999h2.34v4.52h2.971v-5.833h2.377z" mask="url(#prefix__d)"/>
                    <path fill="#E6E8EB" d="M421.093 118.579L421.093 149.919 458.926 149.919 458.926 118.288z" mask="url(#prefix__d)"/>
                    <path fill="#000" d="M421.375 149.637h37.269v-31.064l-37.269.287v30.777zm37.833.564h-38.397v-31.902l38.397-.295V150.2z" mask="url(#prefix__d)"/>
                    <path fill="#FFF" d="M460.026 118.809H419.85c-1.534 0-2.789-1.255-2.789-2.79v-6.154c0-1.535 1.255-2.79 2.79-2.79h40.176c1.534 0 2.79 1.255 2.79 2.79v6.155c0 1.534-1.256 2.789-2.79 2.789" mask="url(#prefix__d)"/>
                    <path fill="#000" d="M460.026 107.075H419.85c-1.534 0-2.789 1.256-2.789 2.79v6.154c0 1.535 1.255 2.79 2.79 2.79h40.176c1.534 0 2.79-1.255 2.79-2.79v-6.155c0-1.533-1.256-2.789-2.79-2.789m0 .564c1.227 0 2.225.998 2.225 2.225v6.155c0 1.228-.998 2.226-2.225 2.226H419.85c-1.226 0-2.224-.998-2.224-2.226v-6.155c0-1.227.998-2.225 2.224-2.225h40.177" mask="url(#prefix__d)"/>
                    <path fill="#FFF" d="M460.026 133.064H419.85c-1.534 0-2.789-1.255-2.789-2.79v-6.154c0-1.535 1.255-2.79 2.79-2.79h40.176c1.534 0 2.79 1.255 2.79 2.79v6.154c0 1.535-1.256 2.79-2.79 2.79" mask="url(#prefix__d)"/>
                    <path fill="#000" d="M460.026 121.33H419.85c-1.534 0-2.789 1.255-2.789 2.79v6.154c0 1.535 1.255 2.79 2.79 2.79h40.176c1.534 0 2.79-1.255 2.79-2.79v-6.154c0-1.535-1.256-2.79-2.79-2.79m0 .564c1.227 0 2.225.998 2.225 2.226v6.154c0 1.227-.998 2.225-2.225 2.225H419.85c-1.226 0-2.224-.998-2.224-2.225v-6.154c0-1.228.998-2.226 2.224-2.226h40.177" mask="url(#prefix__d)"/>
                    <path fill="#FFF" d="M460.026 147.24H419.85c-1.534 0-2.789-1.257-2.789-2.79v-6.155c0-1.535 1.255-2.79 2.79-2.79h40.176c1.534 0 2.79 1.255 2.79 2.79v6.154c0 1.534-1.256 2.79-2.79 2.79" mask="url(#prefix__d)"/>
                    <path fill="#000" d="M460.026 135.505H419.85c-1.534 0-2.789 1.256-2.789 2.789v6.155c0 1.535 1.255 2.79 2.79 2.79h40.176c1.534 0 2.79-1.255 2.79-2.79v-6.155c0-1.533-1.256-2.79-2.79-2.79m0 .565c1.227 0 2.225.998 2.225 2.225v6.155c0 1.228-.998 2.226-2.225 2.226H419.85c-1.226 0-2.224-.998-2.224-2.226v-6.155c0-1.227.998-2.225 2.224-2.225h40.177" mask="url(#prefix__d)"/>
                    <path fill="#0A51B7" d="M447.43 112.942c0 1.042-.845 1.887-1.887 1.887-1.043 0-1.887-.845-1.887-1.887 0-1.043.844-1.888 1.887-1.888 1.042 0 1.887.845 1.887 1.888" mask="url(#prefix__d)"/>
                    <path fill="#000" d="M445.543 111.055c-1.043 0-1.888.845-1.888 1.888 0 1.042.845 1.886 1.888 1.886 1.042 0 1.887-.844 1.887-1.886 0-1.043-.845-1.888-1.887-1.888m0 .564c.729 0 1.322.593 1.322 1.324 0 .728-.593 1.322-1.322 1.322-.729 0-1.323-.594-1.323-1.322 0-.731.594-1.324 1.323-1.324" mask="url(#prefix__d)"/>
                    <path fill="#0A51B7" d="M453.252 112.942c0 1.042-.846 1.887-1.888 1.887-1.043 0-1.887-.845-1.887-1.887 0-1.043.844-1.888 1.887-1.888 1.042 0 1.888.845 1.888 1.888" mask="url(#prefix__d)"/>
                    <path fill="#000" d="M451.364 111.055c-1.042 0-1.888.845-1.888 1.888 0 1.042.846 1.886 1.888 1.886 1.042 0 1.888-.844 1.888-1.886 0-1.043-.846-1.888-1.888-1.888m0 .564c.73 0 1.323.593 1.323 1.324 0 .728-.594 1.322-1.323 1.322s-1.323-.594-1.323-1.322c0-.731.594-1.324 1.323-1.324" mask="url(#prefix__d)"/>
                    <path fill="#0A51B7" d="M459.073 112.942c0 1.042-.846 1.887-1.888 1.887-1.042 0-1.887-.845-1.887-1.887 0-1.043.845-1.888 1.887-1.888s1.888.845 1.888 1.888" mask="url(#prefix__d)"/>
                    <path fill="#000" d="M457.185 111.055c-1.041 0-1.887.845-1.887 1.888 0 1.042.846 1.886 1.887 1.886 1.043 0 1.889-.844 1.889-1.886 0-1.043-.846-1.888-1.889-1.888m0 .564c.73 0 1.324.593 1.324 1.324 0 .728-.595 1.322-1.324 1.322-.728 0-1.322-.594-1.322-1.322 0-.731.594-1.324 1.322-1.324" mask="url(#prefix__d)"/>
                    <path fill="#0A51B7" d="M447.43 127.197c0 1.042-.845 1.887-1.887 1.887-1.043 0-1.887-.845-1.887-1.887 0-1.043.844-1.888 1.887-1.888 1.042 0 1.887.845 1.887 1.888" mask="url(#prefix__d)"/>
                    <path fill="#000" d="M445.543 125.31c-1.043 0-1.888.846-1.888 1.887 0 1.043.845 1.888 1.888 1.888 1.042 0 1.887-.845 1.887-1.888 0-1.041-.845-1.887-1.887-1.887m0 .564c.729 0 1.322.594 1.322 1.323 0 .73-.593 1.324-1.322 1.324-.729 0-1.323-.594-1.323-1.324 0-.73.594-1.323 1.323-1.323" mask="url(#prefix__d)"/>
                    <path fill="#0A51B7" d="M453.252 127.197c0 1.042-.846 1.887-1.888 1.887-1.043 0-1.887-.845-1.887-1.887 0-1.043.844-1.888 1.887-1.888 1.042 0 1.888.845 1.888 1.888" mask="url(#prefix__d)"/>
                    <path fill="#000" d="M451.364 125.31c-1.042 0-1.888.846-1.888 1.887 0 1.043.846 1.888 1.888 1.888 1.042 0 1.888-.845 1.888-1.888 0-1.041-.846-1.887-1.888-1.887m0 .564c.73 0 1.323.594 1.323 1.323 0 .73-.594 1.324-1.323 1.324s-1.323-.594-1.323-1.324c0-.73.594-1.323 1.323-1.323" mask="url(#prefix__d)"/>
                    <path fill="#0A51B7" d="M459.073 127.197c0 1.042-.846 1.887-1.888 1.887-1.042 0-1.887-.845-1.887-1.887 0-1.043.845-1.888 1.887-1.888s1.888.845 1.888 1.888" mask="url(#prefix__d)"/>
                    <path fill="#000" d="M457.185 125.31c-1.041 0-1.887.846-1.887 1.887 0 1.043.846 1.888 1.887 1.888 1.043 0 1.889-.845 1.889-1.888 0-1.041-.846-1.887-1.889-1.887m0 .564c.73 0 1.324.594 1.324 1.323 0 .73-.595 1.324-1.324 1.324-.728 0-1.322-.594-1.322-1.324 0-.73.594-1.323 1.322-1.323" mask="url(#prefix__d)"/>
                    <path fill="#0A51B7" d="M447.43 141.372c0 1.042-.845 1.888-1.887 1.888-1.043 0-1.887-.846-1.887-1.888 0-1.043.844-1.888 1.887-1.888 1.042 0 1.887.845 1.887 1.888" mask="url(#prefix__d)"/>
                    <path fill="#000" d="M445.543 139.484c-1.043 0-1.888.845-1.888 1.888s.845 1.886 1.888 1.886c1.042 0 1.887-.843 1.887-1.886s-.845-1.888-1.887-1.888m0 .564c.729 0 1.322.594 1.322 1.324 0 .73-.593 1.322-1.322 1.322-.729 0-1.323-.593-1.323-1.322 0-.73.594-1.324 1.323-1.324" mask="url(#prefix__d)"/>
                    <path fill="#0A51B7" d="M453.252 141.372c0 1.042-.846 1.888-1.888 1.888-1.043 0-1.887-.846-1.887-1.888 0-1.043.844-1.888 1.887-1.888 1.042 0 1.888.845 1.888 1.888" mask="url(#prefix__d)"/>
                    <path fill="#000" d="M451.364 139.484c-1.042 0-1.888.845-1.888 1.888s.846 1.886 1.888 1.886c1.042 0 1.888-.843 1.888-1.886s-.846-1.888-1.888-1.888m0 .564c.73 0 1.323.594 1.323 1.324 0 .73-.594 1.322-1.323 1.322s-1.323-.593-1.323-1.322c0-.73.594-1.324 1.323-1.324" mask="url(#prefix__d)"/>
                    <path fill="#0A51B7" d="M459.073 141.372c0 1.042-.846 1.888-1.888 1.888-1.042 0-1.887-.846-1.887-1.888 0-1.043.845-1.888 1.887-1.888s1.888.845 1.888 1.888" mask="url(#prefix__d)"/>
                    <path fill="#000" d="M457.185 139.484c-1.041 0-1.887.845-1.887 1.888s.846 1.886 1.887 1.886c1.043 0 1.889-.843 1.889-1.886s-.846-1.888-1.889-1.888m0 .564c.73 0 1.324.594 1.324 1.324 0 .73-.595 1.322-1.324 1.322-.728 0-1.322-.593-1.322-1.322 0-.73.594-1.324 1.322-1.324" mask="url(#prefix__d)"/>
                    <path fill="#FFF" d="M421.897 109.844L421.897 116.04" mask="url(#prefix__d)"/>
                    <path fill="#000" d="M421.615 116.04L422.179 116.04 422.179 109.844 421.615 109.844z" mask="url(#prefix__d)"/>
                    <path fill="#FFF" d="M425.098 109.844L425.098 116.04" mask="url(#prefix__d)"/>
                    <path fill="#000" d="M424.816 116.04L425.38 116.04 425.38 109.844 424.816 109.844z" mask="url(#prefix__d)"/>
                    <path fill="#FFF" d="M428.299 109.844L428.299 116.04" mask="url(#prefix__d)"/>
                    <path fill="#000" d="M428.017 116.04L428.581 116.04 428.581 109.844 428.017 109.844z" mask="url(#prefix__d)"/>
                    <path fill="#FFF" d="M431.5 109.844L431.5 116.04" mask="url(#prefix__d)"/>
                    <path fill="#000" d="M431.218 116.04L431.782 116.04 431.782 109.844 431.218 109.844z" mask="url(#prefix__d)"/>
                    <path fill="#FFF" d="M434.701 109.844L434.701 116.04" mask="url(#prefix__d)"/>
                    <path fill="#000" d="M434.419 116.04L434.983 116.04 434.983 109.844 434.419 109.844z" mask="url(#prefix__d)"/>
                    <path fill="#FFF" d="M437.902 109.844L437.902 116.04" mask="url(#prefix__d)"/>
                    <path fill="#000" d="M437.621 116.04L438.185 116.04 438.185 109.844 437.621 109.844z" mask="url(#prefix__d)"/>
                    <path fill="#FFF" d="M423.497 109.844L423.497 116.04" mask="url(#prefix__d)"/>
                    <path fill="#000" d="M423.215 116.04L423.779 116.04 423.779 109.844 423.215 109.844z" mask="url(#prefix__d)"/>
                    <path fill="#FFF" d="M426.698 109.844L426.698 116.04" mask="url(#prefix__d)"/>
                    <path fill="#000" d="M426.416 116.04L426.98 116.04 426.98 109.844 426.416 109.844z" mask="url(#prefix__d)"/>
                    <path fill="#FFF" d="M429.899 109.844L429.899 116.04" mask="url(#prefix__d)"/>
                    <path fill="#000" d="M429.618 116.04L430.182 116.04 430.182 109.844 429.618 109.844z" mask="url(#prefix__d)"/>
                    <path fill="#FFF" d="M433.101 109.844L433.101 116.04" mask="url(#prefix__d)"/>
                    <path fill="#000" d="M432.819 116.04L433.383 116.04 433.383 109.844 432.819 109.844z" mask="url(#prefix__d)"/>
                    <path fill="#FFF" d="M436.302 109.844L436.302 116.04" mask="url(#prefix__d)"/>
                    <path fill="#000" d="M436.02 116.04L436.584 116.04 436.584 109.844 436.02 109.844z" mask="url(#prefix__d)"/>
                    <path fill="#FFF" d="M421.897 124.099L421.897 130.295" mask="url(#prefix__d)"/>
                    <path fill="#000" d="M421.615 130.295L422.179 130.295 422.179 124.099 421.615 124.099z" mask="url(#prefix__d)"/>
                    <path fill="#FFF" d="M425.098 124.099L425.098 130.295" mask="url(#prefix__d)"/>
                    <path fill="#000" d="M424.816 130.295L425.38 130.295 425.38 124.099 424.816 124.099z" mask="url(#prefix__d)"/>
                    <path fill="#FFF" d="M428.299 124.099L428.299 130.295" mask="url(#prefix__d)"/>
                    <path fill="#000" d="M428.017 130.295L428.581 130.295 428.581 124.099 428.017 124.099z" mask="url(#prefix__d)"/>
                    <path fill="#FFF" d="M431.5 124.099L431.5 130.295" mask="url(#prefix__d)"/>
                    <path fill="#000" d="M431.218 130.295L431.782 130.295 431.782 124.099 431.218 124.099z" mask="url(#prefix__d)"/>
                    <path fill="#FFF" d="M434.701 124.099L434.701 130.295" mask="url(#prefix__d)"/>
                    <path fill="#000" d="M434.419 130.295L434.983 130.295 434.983 124.099 434.419 124.099z" mask="url(#prefix__d)"/>
                    <path fill="#FFF" d="M437.902 124.099L437.902 130.295" mask="url(#prefix__d)"/>
                    <path fill="#000" d="M437.621 130.295L438.185 130.295 438.185 124.099 437.621 124.099z" mask="url(#prefix__d)"/>
                    <path fill="#FFF" d="M423.497 124.099L423.497 130.295" mask="url(#prefix__d)"/>
                    <path fill="#000" d="M423.215 130.295L423.779 130.295 423.779 124.099 423.215 124.099z" mask="url(#prefix__d)"/>
                    <path fill="#FFF" d="M426.698 124.099L426.698 130.295" mask="url(#prefix__d)"/>
                    <path fill="#000" d="M426.416 130.295L426.98 130.295 426.98 124.099 426.416 124.099z" mask="url(#prefix__d)"/>
                    <path fill="#FFF" d="M429.899 124.099L429.899 130.295" mask="url(#prefix__d)"/>
                    <path fill="#000" d="M429.618 130.295L430.182 130.295 430.182 124.099 429.618 124.099z" mask="url(#prefix__d)"/>
                    <path fill="#FFF" d="M433.101 124.099L433.101 130.295" mask="url(#prefix__d)"/>
                    <path fill="#000" d="M432.819 130.295L433.383 130.295 433.383 124.099 432.819 124.099z" mask="url(#prefix__d)"/>
                    <path fill="#FFF" d="M436.302 124.099L436.302 130.295" mask="url(#prefix__d)"/>
                    <path fill="#000" d="M436.02 130.295L436.584 130.295 436.584 124.099 436.02 124.099z" mask="url(#prefix__d)"/>
                    <path fill="#FFF" d="M421.897 138.353L421.897 144.549" mask="url(#prefix__d)"/>
                    <path fill="#000" d="M421.615 144.55L422.179 144.55 422.179 138.354 421.615 138.354z" mask="url(#prefix__d)"/>
                    <path fill="#FFF" d="M425.098 138.353L425.098 144.549" mask="url(#prefix__d)"/>
                    <path fill="#000" d="M424.816 144.55L425.38 144.55 425.38 138.354 424.816 138.354z" mask="url(#prefix__d)"/>
                    <path fill="#FFF" d="M428.299 138.353L428.299 144.549" mask="url(#prefix__d)"/>
                    <path fill="#000" d="M428.017 144.55L428.581 144.55 428.581 138.354 428.017 138.354z" mask="url(#prefix__d)"/>
                    <path fill="#FFF" d="M431.5 138.353L431.5 144.549" mask="url(#prefix__d)"/>
                    <path fill="#000" d="M431.218 144.55L431.782 144.55 431.782 138.354 431.218 138.354z" mask="url(#prefix__d)"/>
                    <path fill="#FFF" d="M434.701 138.353L434.701 144.549" mask="url(#prefix__d)"/>
                    <path fill="#000" d="M434.419 144.55L434.983 144.55 434.983 138.354 434.419 138.354z" mask="url(#prefix__d)"/>
                    <path fill="#FFF" d="M437.902 138.353L437.902 144.549" mask="url(#prefix__d)"/>
                    <path fill="#000" d="M437.621 144.55L438.185 144.55 438.185 138.354 437.621 138.354z" mask="url(#prefix__d)"/>
                    <path fill="#FFF" d="M423.497 138.353L423.497 144.549" mask="url(#prefix__d)"/>
                    <path fill="#000" d="M423.215 144.55L423.779 144.55 423.779 138.354 423.215 138.354z" mask="url(#prefix__d)"/>
                    <path fill="#FFF" d="M426.698 138.353L426.698 144.549" mask="url(#prefix__d)"/>
                    <path fill="#000" d="M426.416 144.55L426.98 144.55 426.98 138.354 426.416 138.354z" mask="url(#prefix__d)"/>
                    <path fill="#FFF" d="M429.899 138.353L429.899 144.549" mask="url(#prefix__d)"/>
                    <path fill="#000" d="M429.618 144.55L430.182 144.55 430.182 138.354 429.618 138.354z" mask="url(#prefix__d)"/>
                    <path fill="#FFF" d="M433.101 138.353L433.101 144.549" mask="url(#prefix__d)"/>
                    <path fill="#000" d="M432.819 144.55L433.383 144.55 433.383 138.354 432.819 138.354z" mask="url(#prefix__d)"/>
                    <path fill="#FFF" d="M436.302 138.353L436.302 144.549" mask="url(#prefix__d)"/>
                    <path fill="#000" d="M436.02 144.55L436.584 144.55 436.584 138.354 436.02 138.354z" mask="url(#prefix__d)"/>
                    <path fill="#E6E8EB" d="M454.734 138.49s.187-1.194 1.877-2.008c1.69-.813 5.93-1.964 11.11-1.249 5.178.715 6.54 2 6.54 2l.621 1.377v15.145s-.684 1.815-4.158 2.566c-3.473.751-10.389 1.001-13.706-.532 0 0-2.097-.876-2.284-2.19v-15.11z" mask="url(#prefix__d)"/>
                    <path fill="#000" d="M455.017 153.585c.143.334 1.613 3.208 9.786 3.208 8.158 0 9.648-2.864 9.797-3.209v-15.187c-.105-.296-1.353-3.106-10.095-3.106-9.133 0-9.486 3.12-9.49 3.152l.002 15.142zm9.786 3.772c-9.117 0-10.293-3.489-10.338-3.637l-.012-.083v-15.212c.007-.164.296-3.698 10.052-3.698 9.713 0 10.619 3.418 10.654 3.563l.006.064-.013 15.367c-.046.148-1.232 3.636-10.35 3.636z" mask="url(#prefix__d)"/>
                    <path fill="#000" d="M464.589 147.297c-8.857 0-10.073-3.263-10.122-3.403l.534-.185c.01.03 1.203 3.024 9.59 3.024l.345-.002c8.679-.083 9.667-2.978 9.675-3.007l.544.154c-.038.136-1.027 3.329-10.213 3.417l-.353.002M464.589 152.255c-8.857 0-10.073-3.263-10.122-3.403l.534-.185c.01.03 1.203 3.024 9.59 3.024l.345-.002c8.679-.083 9.667-2.978 9.675-3.007l.544.154c-.038.136-1.027 3.329-10.213 3.417l-.353.002M464.588 142.339c-8.856 0-10.072-3.262-10.121-3.402l.535-.182-.268.09.267-.093c.01.03 1.204 3.023 9.59 3.023l.345-.002c8.679-.082 9.667-2.977 9.675-3.006l.544.154c-.038.136-1.027 3.329-10.213 3.416l-.354.002M35.717 232.296h1.247V221.43h-1.247v10.866zm-5.769-3.682c2.015-.012 3.31-.072 4.761-.348l.133 1.032c-1.571.287-2.975.348-5.218.348h-.899v-7.209h5.157v1.02h-3.934v5.157zM46.757 232.271h1.247v-10.83h-1.247v10.83zm-3.67-7.699c0 1.799 1.115 3.67 2.807 4.39l-.684.972c-1.26-.552-2.231-1.728-2.734-3.131-.481 1.511-1.452 2.795-2.723 3.406l-.708-.983c1.68-.78 2.795-2.795 2.795-4.654v-1.031h-2.411v-1.02h6.069v1.02h-2.411v1.031zM57.856 224.824h-1.87v-.983h1.87v-2.412h1.248v5.805h-1.248v-2.41zm1.607 6.393v.96h-7.399v-2.724h5.816v-.816h-5.829v-.959h7.053v2.663h-5.817v.876h6.176zm-3.309-4.558c-1.428.228-2.639.24-4.69.24h-.816v-4.822h4.941v.972h-3.706v.935h3.395v.936h-3.395v1.008c1.776 0 2.88-.037 4.174-.252l.097.983zM73.252 228.158h-7.508v-5.84h7.424v.994h-6.165v1.392h5.925v.972h-5.925v1.487h6.249v.995zm-8.719 2.782h9.823v-1.007h-9.823v1.007zM83.225 229.669h1.247v-8.228h-1.247v8.228zm-5.673-5.78c0 .683.623 1.103 1.571 1.103.936 0 1.57-.42 1.57-1.103 0-.672-.634-1.092-1.57-1.092-.948 0-1.571.42-1.571 1.092zm7.195 7.172v1.007h-7.724v-3.119h1.236v2.112h6.488zm-8.371-7.172c0-1.224 1.115-2.015 2.747-2.015 1.619 0 2.734.791 2.734 2.015 0 1.235-1.115 2.039-2.734 2.039-1.632 0-2.747-.804-2.747-2.039zm2.291 3.693c-1.044.036-2.039.049-2.914.049l-.156-1.008c1.991 0 4.653-.012 6.944-.324l.084.876c-.899.168-1.812.275-2.723.323v1.823h-1.235v-1.739zM30.88 242.742h-1.643v5.517h-1.235v-10.83h1.235v4.282h1.643v1.031zm-4.473-4.162c0 3.142-1.343 5.925-4.881 7.712l-.684-.947c2.65-1.356 4.078-3.262 4.33-5.757h-3.79v-1.008h5.025zM41.885 240.115v1.02H40.35v2.806h-1.236v-6.513h1.236v2.687h1.535zm-2.64 6.117c0-.672-.875-1.055-2.385-1.055-1.512 0-2.387.383-2.387 1.055 0 .695.875 1.068 2.387 1.068 1.51 0 2.386-.373 2.386-1.068zm1.224 0c0 1.283-1.367 2.04-3.61 2.04-2.231 0-3.61-.757-3.61-2.04 0-1.27 1.379-2.027 3.61-2.027 2.243 0 3.61.756 3.61 2.027zm-2.926-2.866c-1.163-.42-2.027-1.248-2.482-2.268-.481 1.176-1.367 2.112-2.615 2.568l-.66-.984c1.703-.588 2.626-2.063 2.626-3.622v-1.067h1.248v1.163c0 1.392.923 2.71 2.53 3.238l-.647.972zM53.706 246.244c0-.672-.959-1.067-2.555-1.067-1.606 0-2.59.395-2.59 1.067 0 .684.984 1.08 2.59 1.08 1.596 0 2.555-.396 2.555-1.08zm-.348-4.629c.276-1.067.288-1.848.288-2.663h-6.212v-.995h7.435v.911c0 .863 0 1.763-.3 2.88l-1.21-.133zm1.583 4.63c0 1.26-1.487 2.026-3.79 2.026-2.339 0-3.813-.767-3.813-2.027 0-1.247 1.474-2.015 3.813-2.015 2.303 0 3.79.768 3.79 2.015zm1.128-3.85v.995h-9.762v-.996h3.837v-1.99h1.248v1.99h4.677zM67.324 240.607v1.02h-1.548v3.658h-1.235v-7.844h1.235v3.166h1.548zm-7.16 6.452h6.044v1.008h-7.292v-3.574h1.248v2.566zm2.71-8.79c0 2.865-1.906 4.904-5.06 5.864l-.516-.983c2.482-.756 4.017-2.159 4.233-3.874h-3.778v-1.008h5.121zM81.532 243.75h-4.317v4.521h-1.247v-4.521h-4.235v-1.02h7.04c.313-1.511.313-2.638.313-3.634H72.91v-.995h7.388v.947c0 1.019 0 2.147-.276 3.682h1.511v1.02zM83.277 241.398c2.195-.167 3.563-.97 3.683-1.954h-3.227v-.972h3.31v-1.067h1.235v1.067h3.3v.972h-3.216c.12.983 1.476 1.787 3.683 1.954l-.384.936c-1.883-.156-3.334-.78-4.006-1.75-.672.97-2.123 1.594-4.006 1.75l-.372-.936zm5.001 2.436v1.09h3.083v3.334h-1.235v-2.35h-6.273v-.984h3.19v-1.09h-4.282v-.997h9.8v.997h-4.283z" mask="url(#prefix__d)"/>
                    <path fill="#FFF" d="M113.089 150.413c0 31.125-25.231 56.357-56.356 56.357-31.126 0-56.358-25.232-56.358-56.357s25.232-56.357 56.358-56.357c31.125 0 56.356 25.232 56.356 56.357" mask="url(#prefix__d)"/>
                    <path fill="#C5C8CF" d="M56.732 94.43C25.863 94.43.75 119.545.75 150.414c0 30.87 25.113 55.983 55.982 55.983 30.868 0 55.981-25.113 55.981-55.983 0-30.87-25.113-55.982-55.98-55.982m0 112.715C25.45 207.146 0 181.696 0 150.413 0 119.13 25.45 93.68 56.732 93.68s56.731 25.45 56.731 56.732c0 31.283-25.449 56.733-56.73 56.733" mask="url(#prefix__d)"/>
                    <path fill="#E6E8EB" d="M56.81 138.066L56.81 146.53 44.467 146.53 44.467 138.066 39.107 138.066 39.107 162.766 43.866 162.766 44.467 162.766 56.81 162.766 67.193 162.766 74.318 162.766 74.318 141.263 68.449 138.066 68.449 141.216 62.655 138.066 62.655 141.216z" mask="url(#prefix__d)"/>
                    <path fill="#000" d="M39.496 162.377h34.432v-20.882l-5.09-2.773v3.15l-5.794-3.15v3.147l-5.845-3.15v8.201H44.077v-8.464h-4.58v23.921zm35.211.779h-35.99v-25.479h6.14v8.464H56.42v-8.727l5.845 3.151v-3.154l5.793 3.151v-3.151l6.65 3.621v22.124z" mask="url(#prefix__d)"/>
                    <path fill="#FFF" d="M39.106 162.767L44.451 162.767 44.451 138.067 39.106 138.067z" mask="url(#prefix__d)"/>
                    <path fill="#000" d="M39.496 162.377h4.565v-23.921h-4.565v23.921zm-.779.779h6.124v-25.479h-6.124v25.479z" mask="url(#prefix__d)"/>
                    <path fill="#FFF" d="M39.106 140.981L44.293 140.981" mask="url(#prefix__d)"/>
                    <path fill="#000" d="M39.107 141.371L44.294 141.371 44.294 140.592 39.107 140.592z" mask="url(#prefix__d)"/>
                    <path fill="#FFF" d="M44.451 162.767L67.386 162.767 67.386 146.531 44.451 146.531z" mask="url(#prefix__d)"/>
                    <path fill="#000" d="M44.84 162.378h22.158v-15.459H44.84v15.459zm-.777.777h23.711v-17.014H44.063v17.014z" mask="url(#prefix__d)"/>
                    <path fill="#E6E8EB" d="M50.142 156.498h-2.346c-.374 0-.676-.303-.676-.676v-2.346c0-.374.302-.677.676-.677h2.346c.374 0 .677.303.677.677v2.346c0 .373-.303.676-.677.676" mask="url(#prefix__d)"/>
                    <path fill="#000" d="M47.796 153.189c-.158 0-.287.129-.287.287v2.346c0 .159.129.286.287.286h2.346c.158 0 .287-.127.287-.286v-2.346c0-.159-.13-.287-.287-.287h-2.346zm2.346 3.698h-2.346c-.588 0-1.066-.477-1.066-1.065v-2.346c0-.589.478-1.066 1.066-1.066h2.346c.588 0 1.066.477 1.066 1.066v2.346c0 .588-.478 1.065-1.066 1.065z" mask="url(#prefix__d)"/>
                    <path fill="#E6E8EB" d="M56.984 156.498h-2.346c-.374 0-.676-.303-.676-.676v-2.346c0-.374.302-.677.676-.677h2.346c.374 0 .677.303.677.677v2.346c0 .373-.303.676-.677.676" mask="url(#prefix__d)"/>
                    <path fill="#000" d="M54.639 153.189c-.158 0-.287.129-.287.287v2.346c0 .159.129.286.287.286h2.346c.158 0 .287-.127.287-.286v-2.346c0-.159-.13-.287-.287-.287h-2.346zm2.346 3.698h-2.346c-.588 0-1.066-.477-1.066-1.065v-2.346c0-.589.478-1.066 1.066-1.066h2.346c.588 0 1.066.477 1.066 1.066v2.346c0 .588-.478 1.065-1.066 1.065z" mask="url(#prefix__d)"/>
                    <path fill="#E6E8EB" d="M63.827 156.498H61.48c-.373 0-.675-.303-.675-.676v-2.346c0-.374.302-.677.675-.677h2.347c.374 0 .677.303.677.677v2.346c0 .373-.303.676-.677.676" mask="url(#prefix__d)"/>
                    <path fill="#000" d="M61.48 153.189c-.157 0-.285.129-.285.287v2.346c0 .159.127.286.285.286h2.348c.157 0 .287-.127.287-.286v-2.346c0-.159-.13-.287-.287-.287H61.48zm2.348 3.698H61.48c-.586 0-1.064-.477-1.064-1.065v-2.346c0-.589.478-1.066 1.065-1.066h2.346c.588 0 1.067.477 1.067 1.066v2.346c0 .588-.479 1.065-1.067 1.065z" mask="url(#prefix__d)"/>
                    <path fill="#FFF" d="M44.451 149.509L67.192 149.509" mask="url(#prefix__d)"/>
                    <path fill="#000" d="M44.451 149.898L67.192 149.898 67.192 149.119 44.451 149.119zM80.212 131.597L79.433 131.597 79.433 128.274 76.109 128.274 76.109 127.494 80.212 127.494zM34.031 131.597L33.252 131.597 33.252 127.494 37.354 127.494 37.354 128.274 34.031 128.274zM37.355 173.332L33.252 173.332 33.252 169.229 34.032 169.229 34.032 172.553 37.355 172.553zM80.212 173.332L76.109 173.332 76.109 172.553 79.433 172.553 79.433 169.229 80.212 169.229z" mask="url(#prefix__d)"/>
                    <path fill="#0A51B7" d="M39.106 141.661L44.451 141.661 44.451 138.066 39.106 138.066z" mask="url(#prefix__d)"/>
                    <path fill="#000" d="M39.496 141.271h4.565v-2.815h-4.565v2.815zm-.779.78h6.124v-4.374h-6.124v4.374z" mask="url(#prefix__d)"/>
                    <path fill="#FFF" d="M269.328 150.413c0 31.125-25.232 56.357-56.357 56.357s-56.358-25.232-56.358-56.357 25.233-56.357 56.358-56.357c31.125 0 56.357 25.232 56.357 56.357" mask="url(#prefix__d)"/>
                    <path fill="#C5C8CF" d="M212.97 94.43c-30.868 0-55.981 25.114-55.981 55.983 0 30.87 25.113 55.983 55.982 55.983s55.982-25.113 55.982-55.983c0-30.87-25.113-55.982-55.982-55.982m0 112.715c-31.282 0-56.732-25.45-56.732-56.733 0-31.282 25.45-56.732 56.732-56.732s56.732 25.45 56.732 56.732c0 31.283-25.45 56.733-56.732 56.733" mask="url(#prefix__d)"/>
                    <path fill="#007CF7" d="M186.363 159.362L182.024 155.894 182.024 144.672 186.363 141.204z" mask="url(#prefix__d)"/>
                    <path fill="#6FB6FB" d="M194.078 159.362L198.417 155.894 198.417 144.672 194.078 141.204z" mask="url(#prefix__d)"/>
                    <path fill="#0065C7" d="M194.078 141.204L190.221 143.738 194.078 146.334zM186.363 141.204L190.22 143.738 186.363 146.334zM194.078 154.232L190.221 156.766 194.078 159.362zM186.363 154.232L190.22 156.766 186.363 159.362z" mask="url(#prefix__d)"/>
                    <path fill="#273A5B" d="M226.438 154.308L224.262 147.656 222.314 147.656 220.137 154.31 218.178 147.656 216.13 147.656 219.159 157.045 221.07 157.045 223.243 150.295 225.433 157.045 227.363 157.045 230.391 147.656 228.38 147.656zM242.98 148.356c-.624-.663-1.523-1-2.673-1-.602 0-1.19.156-1.748.463-.465.257-.834.57-1.1.936v-1.1h-1.886v9.39h1.96v-5.18c0-.74.223-1.383.663-1.913.44-.53.971-.787 1.625-.787 1.404 0 2.103.695 2.138 2.12v5.76h1.96v-5.872c0-1.209-.317-2.155-.939-2.817M231.615 157.045L233.572 157.045 233.572 147.365 231.615 147.365zM231.527 145.578L233.66 145.578 233.66 143.447 231.527 143.447z" mask="url(#prefix__d)"/>
                    <path fill="#273A5B" d="M218.374 143.436L205.899 143.436 205.899 145.331 211.151 145.331 211.151 157.131 213.121 157.131 213.121 145.331 218.374 145.331z" mask="url(#prefix__d)"/>
                    <path fill="#000" d="M535.735 249.13h1.175v-8.119h-1.175v8.119zm-2.123-4.485h-1.523v-1.02h1.523v-2.411h1.163v7.604h-1.163v-4.173zm3.598 5.984v1.008h-7.46v-3.466h1.248v2.458h6.212zm-4.833-3.262c-.911-.42-1.56-1.164-1.919-2.075-.396 1.008-1.079 1.883-2.087 2.351l-.684-.936c1.44-.695 2.16-2.146 2.16-3.441v-1.512h1.199v1.512c0 1.27.659 2.542 2.003 3.166l-.672.935zM547.782 240.986v10.866h-1.247v-6.297h-2.315v-1.006h2.315v-3.563h1.247zm-5.073 2.687c0 2.014 1.032 3.982 2.686 4.75l-.73.995c-1.225-.613-2.1-1.799-2.568-3.25-.479 1.535-1.367 2.794-2.602 3.43l-.779-.984c1.69-.827 2.746-2.914 2.746-4.94v-1.789h1.247v1.788zM561.247 251.828h1.187v-10.83h-1.187v10.83zm-2.207-10.59h1.163v10.087h-1.163v-5.254h-2.135v-1.007h2.135v-3.826zm-4.27 7.065c1.343-.013 2.267-.073 3.334-.3l.108 1.019c-1.223.24-2.278.3-3.934.3h-.731v-7.04h4.101v1.007h-2.878v5.014zM571.891 251.864h1.247v-10.866h-1.247v10.866zm-6.117-6.248c0 1.703.66 2.723 1.595 2.723.947 0 1.608-1.02 1.608-2.723 0-1.679-.661-2.699-1.608-2.699-.935 0-1.595 1.02-1.595 2.699zm4.39 0c0 2.351-1.176 3.825-2.795 3.825-1.607 0-2.782-1.474-2.782-3.825 0-2.327 1.175-3.814 2.782-3.814 1.619 0 2.795 1.487 2.795 3.814zM584.262 240.986v10.866h-1.247v-5.865h-2.075v-1.02h2.075v-3.98h1.247zm-7.28 7.328c1.727-.012 2.963-.072 4.378-.31l.108.994c-1.548.275-2.902.324-4.87.324h-.851v-7.376h5.025v1.02h-3.79v2.026h3.346v.983h-3.345v2.34zM537.714 41.077v1.02h-1.44v3.681h-1.247v-8.13h1.248v3.43h1.439zm-7.208 6.188h6.116v1.008h-7.363V45.06h1.247v2.206zm1.75-5.109c.217-1.163.253-2.015.265-2.686h-4.234v-1.007h5.446v.623c0 .732 0 1.8-.264 3.203l-1.212-.133zm2.196 1.571c-2.255.397-4.81.456-6.692.456l-.132-1.007c.648 0 1.39 0 2.158-.024v-2.219h1.224v2.183c1.127-.048 2.29-.12 3.358-.288l.084.9zM546.476 48.501h1.247V37.623h-1.247v10.878zm-5.83-3.598c1.715-.011 3.214-.095 4.93-.372l.132 1.008c-1.859.323-3.479.384-5.386.384h-.923v-4.294h3.778v-2.015h-3.802v-1.008h5.05v4.018h-3.779v2.279zM561.248 48.465h1.187v-10.83h-1.187v10.83zm-2.207-10.59h1.163v10.087h-1.163v-5.254h-2.135v-1.007h2.135v-3.826zm-4.27 7.064c1.343-.012 2.267-.072 3.334-.299l.108 1.019c-1.223.239-2.278.3-3.934.3h-.731v-7.04h4.101v1.007h-2.878v5.013zM571.891 48.501h1.247V37.635h-1.247v10.866zm-6.117-6.248c0 1.703.66 2.723 1.595 2.723.947 0 1.608-1.02 1.608-2.723 0-1.68-.661-2.699-1.608-2.699-.935 0-1.595 1.019-1.595 2.699zm4.39 0c0 2.351-1.176 3.825-2.795 3.825-1.607 0-2.782-1.474-2.782-3.825 0-2.327 1.175-3.815 2.782-3.815 1.619 0 2.795 1.488 2.795 3.815zM584.262 37.623v10.866h-1.247v-5.865h-2.075v-1.02h2.075v-3.981h1.247zm-7.28 7.328c1.727-.012 2.963-.072 4.378-.311l.108.995c-1.548.275-2.902.324-4.87.324h-.851v-7.376h5.025v1.019h-3.79v2.027h3.346v.983h-3.345v2.339zM577.584 301.365v1.02h-1.487v3.777h-1.236v-8.48h1.236v3.683h1.487zm-6.692 1.067c.863 0 1.415-.299 1.415-.803 0-.516-.552-.827-1.415-.827-.864 0-1.415.311-1.415.827 0 .504.551.803 1.415.803zm-.564 4.881h6.141v1.008h-7.376v-2.698h1.235v1.69zm3.658-7.735h-6.188v-.912h2.482v-1.019h1.247v1.02h2.459v.911zm.396 4.941c-2.267.432-4.846.48-6.717.492l-.144-.984c.804 0 1.763-.012 2.759-.036v-.743c-1.212-.144-1.967-.732-1.967-1.619 0-1.032 1.02-1.667 2.579-1.667 1.559 0 2.579.635 2.579 1.667 0 .875-.744 1.475-1.944 1.62v.682c.936-.059 1.883-.13 2.759-.263l.096.851zM586.477 306.33c0-.743-.923-1.163-2.399-1.163-1.462 0-2.386.42-2.386 1.163 0 .756.923 1.176 2.386 1.176 1.476 0 2.4-.42 2.4-1.176zm1.224 0c0 1.331-1.428 2.147-3.623 2.147-2.194 0-3.61-.816-3.61-2.147 0-1.319 1.416-2.135 3.61-2.135 2.196 0 3.623.816 3.623 2.135zm-3.827-5.769c-.67 1.727-2.265 2.94-4.605 3.623l-.491-.984c2.543-.708 3.945-2.039 4.161-3.73h-3.598v-.995h4.918c0 .383-.037.743-.096 1.08h2.23v-1.86h1.236v6.368h-1.236v-1.247h-2.627v-1.007h2.628v-1.248h-2.52zM600.793 300.418v-2.723h1.235v6.452h-1.235v-2.722h-1.919v-1.007h1.919zm.048 6.068c0-.708-.888-1.091-2.411-1.091-1.547 0-2.422.383-2.422 1.091 0 .707.875 1.091 2.422 1.091 1.523 0 2.411-.384 2.411-1.091zm1.235 0c0 1.295-1.391 2.051-3.646 2.051-2.267 0-3.658-.756-3.658-2.051 0-1.283 1.391-2.05 3.658-2.05 2.255 0 3.646.767 3.646 2.05zm-3.19-2.686c-1.199-.42-2.063-1.272-2.519-2.315-.479 1.187-1.391 2.147-2.675 2.603l-.635-.983c1.679-.601 2.65-2.04 2.65-3.527v-.156h-2.29v-.995h5.793v.995h-2.255v.144c0 1.355.923 2.699 2.542 3.262l-.611.972zM606.424 303.008h5.133v-1.774h-5.133v1.774zm7.483 3.179v1.019h-9.81v-1.019h4.269v-2.183H605.2v-5.589h1.224v1.822h5.133v-1.822h1.223v5.589h-3.178v2.183h4.305zM615.593 303.848c0-2.362.659-4.317 1.775-6.13l.864.373c-1.032 1.727-1.512 3.754-1.512 5.757 0 2.015.48 4.042 1.512 5.757l-.864.384c-1.116-1.824-1.775-3.754-1.775-6.141M627.062 308.549h1.247v-10.866h-1.247v10.866zm-5.877-3.67h2.663v-5.181h-2.663v5.181zm-1.211.996h5.085v-7.16h-5.085v7.16zM638.51 308.525h1.175v-10.83h-1.175v10.83zm-2.207-10.627h1.163v10.123h-1.163v-5.529h-1.596v-1.007h1.596v-3.587zm-2.543 2.687c0 1.752.66 3.587 2.111 4.498l-.696.959c-.984-.6-1.631-1.654-2.003-2.866-.384 1.331-1.091 2.47-2.135 3.106l-.755-.935c1.535-.911 2.279-2.855 2.279-4.701v-1.956h1.199v1.895zM650.724 307.313v1.009h-7.292v-3.454h1.235v2.445h6.057zm-7.568-4.568h2.603v-3.166h-2.603v3.166zm3.802.983h-5.013v-5.134h5.013v2.028h2.255v-2.927h1.236v7.904h-1.236v-3.97h-2.255v2.099zM660.181 308.525h1.247v-10.83h-1.247v10.83zm-3.67-7.7c0 1.799 1.115 3.67 2.806 4.39l-.683.972c-1.26-.552-2.232-1.728-2.735-3.131-.48 1.511-1.451 2.795-2.722 3.406l-.708-.983c1.679-.78 2.795-2.794 2.795-4.654v-1.031h-2.411v-1.02h6.069v1.02h-2.411v1.031zM663.581 309.22c.815-.335 1.295-.935 1.308-1.643-.049.013-.084.013-.133.013-.49 0-.923-.312-.923-.888 0-.54.432-.887.96-.887.671 0 1.066.563 1.066 1.487 0 1.259-.73 2.23-1.966 2.698l-.312-.78zM674.727 301.389c1.596 0 2.579-.432 2.579-1.2 0-.767-.983-1.198-2.58-1.198-1.606 0-2.59.43-2.59 1.199 0 .767.984 1.199 2.59 1.199zm-2.423 5.925h6.225v1.008h-7.472v-3.143h1.247v2.135zm7.317-3.946v.996h-9.8v-.996h4.27v-1.007c-1.978-.144-3.225-.936-3.225-2.171 0-1.367 1.522-2.195 3.86-2.195 2.34 0 3.863.828 3.863 2.195 0 1.235-1.26 2.039-3.251 2.17v1.008h4.283zM688.549 303.248h1.248v-5.553h-1.248v5.553zm1.571 4.21v.971h-7.399v-2.819h5.852v-.887h-5.877v-.959h7.101v2.746h-5.865v.948h6.188zm-3.262-4.45c-1.248-.407-2.159-1.236-2.65-2.303-.492 1.164-1.416 2.064-2.723 2.507l-.612-.983c1.716-.564 2.687-1.967 2.687-3.43v-.817h1.259v.817c0 1.402.972 2.722 2.639 3.238l-.6.971zM701.94 302.996h-1.644v5.517h-1.235v-10.83h1.236v4.282h1.642v1.031zm-4.474-4.162c0 3.142-1.342 5.925-4.88 7.712l-.684-.947c2.65-1.356 4.077-3.262 4.33-5.757h-3.79v-1.008h5.024zM711.805 304.004c-1.763-.36-3.286-1.487-3.994-2.975-.707 1.488-2.231 2.615-3.993 2.975l-.53-1.02c2.136-.396 3.875-2.063 3.875-3.778v-.815h1.308v.815c0 1.728 1.738 3.395 3.874 3.778l-.54 1.02zm-8.852 3.13h9.81v-1.02h-9.81v1.02zM713.933 309.604c1.03-1.714 1.51-3.741 1.51-5.756 0-2.004-.48-4.03-1.51-5.757l.863-.373c1.128 1.813 1.787 3.767 1.787 6.13 0 2.387-.66 4.317-1.787 6.14l-.863-.384zM728.94 305.814h1.175v-8.119h-1.175v8.119zm-2.123-4.485h-1.523v-1.019h1.523v-2.412h1.163v7.605h-1.163v-4.174zm3.598 5.984v1.008h-7.46v-3.466h1.248v2.458h6.212zm-4.833-3.261c-.911-.42-1.56-1.164-1.919-2.075-.395 1.007-1.079 1.882-2.087 2.35l-.683-.935c1.439-.696 2.159-2.147 2.159-3.442v-1.512h1.199v1.512c0 1.271.659 2.542 2.003 3.166l-.672.936zM739.681 304.136h1.235v-6.429h-1.235v6.429zm.071 2.29c0-.707-.899-1.103-2.435-1.103-1.535 0-2.434.396-2.434 1.103 0 .72.899 1.103 2.434 1.103 1.536 0 2.435-.383 2.435-1.103zm1.235 0c0 1.307-1.403 2.075-3.67 2.075-2.266 0-3.67-.768-3.67-2.075 0-1.295 1.404-2.063 3.67-2.063 2.267 0 3.67.768 3.67 2.063zm-3.022-2.89c-1.236-.42-2.147-1.26-2.626-2.327-.492 1.199-1.403 2.146-2.698 2.614l-.624-.983c1.703-.6 2.662-2.099 2.662-3.61v-1.055h1.259v1.055c0 1.452.959 2.794 2.626 3.334l-.599.972zM597.434 321.788h-1.655v-.996h1.655v-1.295h-1.655v-1.008h1.655v-2.794h1.235v8.263h-1.235v-2.17zm1.487 3.525v1.008h-7.304v-3.058h1.248v2.05h6.056zm-6.153-3.67c.792 0 1.332-.419 1.332-1.126 0-.697-.54-1.14-1.332-1.14-.78 0-1.32.443-1.32 1.14 0 .707.54 1.126 1.32 1.126zm0 .972c-1.463 0-2.482-.85-2.482-2.098 0-1.26 1.019-2.099 2.482-2.099 1.476 0 2.495.84 2.495 2.1 0 1.246-1.02 2.097-2.495 2.097zm2.963-4.7h-6.01v-.984h2.436v-1.26h1.235v1.26h2.339v.983zM610.729 318.334v1.019h-1.536v2.819h-1.236v-6.477h1.236v2.639h1.536zm-2.64 6.141c0-.708-.876-1.08-2.386-1.08-1.511 0-2.386.372-2.386 1.08 0 .695.875 1.079 2.386 1.079 1.51 0 2.387-.384 2.387-1.079zm1.223 0c0 1.283-1.379 2.05-3.609 2.05-2.231 0-3.61-.767-3.61-2.05 0-1.296 1.379-2.052 3.61-2.052 2.23 0 3.61.756 3.61 2.052zm-2.817-2.723c-1.212-.384-2.076-1.164-2.543-2.171-.48 1.151-1.391 2.074-2.687 2.519l-.624-.972c1.704-.588 2.65-1.979 2.65-3.454v-.216h-2.302v-.995h5.817v.995h-2.267v.204c0 1.343.9 2.603 2.554 3.13l-.598.96zM622.873 318.418v-2.723h1.235v6.452h-1.235v-2.722h-1.919v-1.007h1.919zm.048 6.068c0-.708-.888-1.091-2.411-1.091-1.547 0-2.422.383-2.422 1.091 0 .707.875 1.091 2.422 1.091 1.523 0 2.411-.384 2.411-1.091zm1.235 0c0 1.295-1.391 2.051-3.646 2.051-2.267 0-3.658-.756-3.658-2.051 0-1.283 1.391-2.05 3.658-2.05 2.255 0 3.646.767 3.646 2.05zm-3.19-2.686c-1.199-.42-2.063-1.272-2.519-2.315-.479 1.187-1.391 2.147-2.675 2.603l-.635-.983c1.679-.601 2.65-2.04 2.65-3.527v-.156h-2.29v-.995h5.793v.995h-2.255v.144c0 1.355.923 2.699 2.542 3.262l-.611.972zM628.504 321.008h5.133v-1.774h-5.133v1.774zm7.483 3.179v1.019h-9.81v-1.019h4.269v-2.183h-3.166v-5.589h1.224v1.822h5.133v-1.822h1.223v5.589h-3.178v2.183h4.305zM637.673 321.848c0-2.362.659-4.317 1.775-6.13l.864.373c-1.032 1.727-1.512 3.754-1.512 5.757 0 2.015.48 4.042 1.512 5.757l-.864.384c-1.116-1.824-1.775-3.754-1.775-6.141M651.469 319.473h-1.535v2.747h-1.236v-6.537h1.236v2.77h1.535v1.02zm-8.66 3.274h7.125v3.779h-1.236v-2.783h-5.888v-.996zm4.402-.96c-1.212-.395-2.075-1.222-2.543-2.253-.48 1.138-1.38 2.026-2.65 2.47l-.648-.971c1.715-.577 2.662-1.956 2.662-3.443v-.191h-2.302v-1.008h5.817v1.008h-2.267v.19c0 1.368.912 2.699 2.567 3.25l-.636.949zM655.672 325.397h4.594v-1.199h-4.594v1.199zm4.594-3.381h1.223v4.378h-7.04v-4.378h1.223v1.223h4.594v-1.223zm-3.143-3.311c0-.923-.695-1.511-1.631-1.511-.959 0-1.642.588-1.642 1.511 0 .912.683 1.524 1.642 1.524.936 0 1.631-.612 1.631-1.524zm4.366-3.01v5.805h-1.235v-2.303h-2.003c-.216 1.223-1.319 2.051-2.759 2.051-1.631 0-2.83-1.044-2.83-2.543 0-1.487 1.199-2.53 2.83-2.53 1.428 0 2.519.804 2.759 2.014h2.003v-2.494h1.235zM663.581 327.22c.815-.335 1.295-.935 1.308-1.643-.049.013-.084.013-.133.013-.49 0-.923-.312-.923-.888 0-.54.432-.887.96-.887.671 0 1.066.563 1.066 1.487 0 1.259-.73 2.23-1.966 2.698l-.312-.78zM677.57 318.49h-2.196v-.996h2.195v-1.812h1.235v5.566h-1.235v-2.759zm1.605 6.932v.971h-7.399v-2.806h5.805v-.865h-5.829v-.959h7.052v2.735H673v.924h6.175zm-3.597-4.354c-1.176-.396-2.039-1.199-2.494-2.207-.48 1.127-1.38 2.003-2.652 2.446l-.635-.97c1.691-.552 2.638-1.908 2.638-3.395v-.91h1.236v.91c0 1.367.935 2.64 2.554 3.166l-.647.96zM688.537 326.549h1.247v-10.866h-1.247v10.866zm-5.864-3.574h2.746v-2.65h-2.746v2.65zm0-6.393v2.759h2.746v-2.759h1.235v7.389h-5.205v-7.389h1.224zM691.854 327.604c1.03-1.714 1.51-3.741 1.51-5.756 0-2.004-.48-4.03-1.51-5.757l.862-.373c1.129 1.813 1.788 3.767 1.788 6.13 0 2.387-.66 4.317-1.788 6.14l-.862-.384zM706.861 323.814h1.175v-8.119h-1.175v8.119zm-2.123-4.485h-1.523v-1.019h1.523v-2.412h1.163v7.605h-1.163v-4.174zm3.598 5.984v1.008h-7.46v-3.466h1.248v2.458h6.212zm-4.833-3.261c-.911-.42-1.56-1.164-1.919-2.075-.396 1.007-1.079 1.882-2.087 2.35l-.684-.935c1.44-.696 2.16-2.147 2.16-3.442v-1.512h1.199v1.512c0 1.271.659 2.542 2.003 3.166l-.672.936zM717.601 322.136h1.235v-6.429h-1.235v6.429zm.071 2.29c0-.707-.9-1.103-2.435-1.103-1.535 0-2.434.396-2.434 1.103 0 .72.899 1.103 2.434 1.103 1.535 0 2.435-.383 2.435-1.103zm1.235 0c0 1.307-1.403 2.075-3.67 2.075-2.266 0-3.67-.768-3.67-2.075 0-1.295 1.404-2.063 3.67-2.063 2.267 0 3.67.768 3.67 2.063zm-3.022-2.89c-1.236-.42-2.147-1.26-2.626-2.327-.492 1.199-1.404 2.146-2.698 2.614l-.624-.983c1.703-.6 2.662-2.099 2.662-3.61v-1.055h1.259v1.055c0 1.452.959 2.794 2.626 3.334l-.599.972zM606.454 133.188h-1.163v-6.105h1.163v2.578h1.14v-2.77h1.174v6.645h-1.174v-2.868h-1.14v2.52zm1.14 2.542c0-.671-.912-1.043-2.435-1.043-1.523 0-2.435.371-2.435 1.042 0 .66.912 1.031 2.435 1.031 1.523 0 2.435-.37 2.435-1.03zm1.235 0c0 1.234-1.416 1.978-3.67 1.978-2.255 0-3.67-.744-3.67-1.978 0-1.248 1.415-1.99 3.67-1.99 2.254 0 3.67.742 3.67 1.99zm-4.45-2.962c-.959-.373-1.63-1.093-2.039-1.956-.396.995-1.103 1.835-2.147 2.291l-.647-.948c1.451-.659 2.182-2.014 2.182-3.25v-1.367h1.2v1.367c0 1.2.708 2.387 2.111 2.939l-.66.924zM620.637 130.117v1.02h-1.535v3.717h-1.236v-7.988h1.236v3.251h1.535zm-7.137 6.38h6.033v1.008h-7.268v-3.418h1.235v2.41zm2.903-3.334c-1.2-.42-2.075-1.283-2.555-2.339-.468 1.188-1.367 2.111-2.638 2.566l-.672-.959c1.74-.587 2.662-2.05 2.662-3.633v-1.26h1.248v1.271c0 1.44.935 2.807 2.579 3.371l-.624.983zM632.457 135.682c0-.672-.959-1.067-2.555-1.067-1.606 0-2.59.395-2.59 1.067 0 .684.984 1.079 2.59 1.079 1.596 0 2.555-.395 2.555-1.08zm-.348-4.63c.276-1.066.288-1.847.288-2.662h-6.212v-.995h7.435v.91c0 .864 0 1.764-.3 2.88l-1.211-.132zm1.583 4.63c0 1.26-1.487 2.027-3.79 2.027-2.339 0-3.813-.767-3.813-2.027 0-1.247 1.474-2.015 3.813-2.015 2.303 0 3.79.768 3.79 2.015zm1.128-3.85v.996h-9.762v-.996h3.837v-1.991h1.248v1.99h4.677zM643.821 129.602v-2.723h1.235v6.452h-1.235v-2.722h-1.919v-1.007h1.92zm.048 6.068c0-.708-.888-1.091-2.41-1.091-1.548 0-2.423.383-2.423 1.09 0 .708.875 1.092 2.422 1.092 1.523 0 2.411-.384 2.411-1.091zm1.235 0c0 1.295-1.39 2.05-3.646 2.05-2.267 0-3.658-.755-3.658-2.05 0-1.283 1.391-2.05 3.658-2.05 2.255 0 3.646.767 3.646 2.05zm-3.19-2.686c-1.199-.42-2.063-1.272-2.519-2.315-.479 1.187-1.39 2.147-2.675 2.603l-.635-.983c1.68-.601 2.651-2.04 2.651-3.527v-.156h-2.29v-.995h5.792v.995h-2.255v.144c0 1.355.923 2.699 2.542 3.262l-.61.972zM660.452 130.309v1.02h-1.439v3.68h-1.248v-8.13h1.248v3.43h1.44zm-7.208 6.188h6.116v1.008h-7.363v-3.214h1.247v2.206zm1.751-5.11c.216-1.162.252-2.014.264-2.685h-4.234v-1.007h5.446v.623c0 .732 0 1.8-.264 3.203l-1.212-.133zm2.195 1.572c-2.255.397-4.809.456-6.692.456l-.132-1.007c.648 0 1.391 0 2.158-.024v-2.22h1.224v2.184c1.127-.048 2.291-.12 3.358-.288l.084.899zM669.214 137.732h1.247v-10.878h-1.247v10.878zm-5.829-3.597c1.715-.012 3.214-.096 4.929-.372l.132 1.008c-1.859.323-3.478.383-5.385.383h-.923v-4.294h3.777v-2.014h-3.802v-1.008h5.05v4.017h-3.778v2.28zM683.59 137.732h1.247v-10.866h-1.247v10.866zm-3.67-8.179c0 1.991 1.103 3.982 2.807 4.75l-.72.983c-1.247-.588-2.195-1.787-2.687-3.25-.492 1.57-1.451 2.855-2.758 3.489l-.732-1.031c1.728-.779 2.855-2.854 2.855-4.941v-1.775h1.235v1.775zM695.816 133.188c-1.763-.36-3.286-1.487-3.994-2.975-.707 1.488-2.23 2.614-3.993 2.975l-.529-1.02c2.135-.397 3.874-2.064 3.874-3.779v-.815h1.308v.816c0 1.728 1.738 3.395 3.874 3.778l-.54 1.02zm-8.852 3.13h9.811v-1.02h-9.81v1.02zM705.993 133.379h1.175v-6.513h-1.175v6.513zm-2.087-2.843h-1.283v-.995h1.283v-2.494h1.152v6.236h-1.152v-2.747zm-2.722 6.058h4.785v-1.764h-4.785v1.764zm-1.224.983h7.208v-3.73h-7.208v3.73zm3.154-5.014c-1.235.228-2.266.264-3.945.264h-.708v-5.277h4.078v.996h-2.891v1.127h2.495v.947h-2.495v1.224c1.368-.012 2.279-.073 3.346-.264l.12.983z" mask="url(#prefix__d)"/>
                    <path fill="#C5C8CF" d="M598.992 229.677L520.234 229.677 520.234 57.138 598.992 57.138 598.992 57.888 520.984 57.888 520.984 228.927 598.992 228.927z" mask="url(#prefix__d)"/>
                    <path fill="#C5C8CF" d="M496.343 143.782L520.609 143.782 520.609 143.032 496.343 143.032z" mask="url(#prefix__d)"/>
                    <path fill="#C5C8CF" d="M502.397 143.407L502.397 148.17 498.272 145.788 494.149 143.407 498.272 141.026 502.397 138.645z" mask="url(#prefix__d)"/>
                    <path fill="#FFF" d="M711.707 57.198c0 31.125-25.232 56.357-56.357 56.357s-56.358-25.232-56.358-56.357S624.225.841 655.35.841c31.125 0 56.357 25.232 56.357 56.357" mask="url(#prefix__d)"/>
                    <path fill="#C5C8CF" d="M655.35 1.216c-30.87 0-55.982 25.113-55.982 55.982 0 30.87 25.113 55.983 55.982 55.983s55.982-25.113 55.982-55.983c0-30.87-25.113-55.982-55.982-55.982m0 112.715c-31.282 0-56.732-25.45-56.732-56.733 0-31.282 25.45-56.732 56.732-56.732s56.732 25.45 56.732 56.732c0 31.283-25.45 56.733-56.732 56.733" mask="url(#prefix__d)"/>
                    <path fill="#E6E8EB" d="M637.709 46.609L637.709 73.126 669.719 73.126 669.719 46.364z" mask="url(#prefix__d)"/>
                    <path fill="#000" d="M637.948 72.887h31.531V46.605l-31.53.242v26.04zm32.01.479H637.47V46.372l32.49-.248v27.242z" mask="url(#prefix__d)"/>
                    <path fill="#FFF" d="M670.65 46.805h-33.993c-1.298 0-2.36-1.062-2.36-2.36v-5.208c0-1.298 1.062-2.36 2.36-2.36h33.992c1.298 0 2.36 1.062 2.36 2.36v5.208c0 1.298-1.062 2.36-2.36 2.36" mask="url(#prefix__d)"/>
                    <path fill="#000" d="M670.65 36.877h-33.993c-1.298 0-2.36 1.062-2.36 2.36v5.207c0 1.298 1.062 2.361 2.36 2.361h33.992c1.298 0 2.36-1.063 2.36-2.361v-5.207c0-1.298-1.062-2.36-2.36-2.36m0 .478c1.038 0 1.883.843 1.883 1.882v5.207c0 1.038-.845 1.883-1.883 1.883h-33.992c-1.038 0-1.882-.845-1.882-1.883v-5.207c0-1.039.844-1.882 1.882-1.882h33.992" mask="url(#prefix__d)"/>
                    <path fill="#FFF" d="M670.65 58.865h-33.993c-1.298 0-2.36-1.062-2.36-2.36v-5.207c0-1.299 1.062-2.36 2.36-2.36h33.992c1.298 0 2.36 1.061 2.36 2.36v5.207c0 1.298-1.062 2.36-2.36 2.36" mask="url(#prefix__d)"/>
                    <path fill="#000" d="M670.65 48.938h-33.993c-1.298 0-2.36 1.061-2.36 2.36v5.206c0 1.3 1.062 2.361 2.36 2.361h33.992c1.298 0 2.36-1.062 2.36-2.36v-5.208c0-1.297-1.062-2.36-2.36-2.36m0 .479c1.038 0 1.883.844 1.883 1.882v5.206c0 1.038-.845 1.884-1.883 1.884h-33.992c-1.038 0-1.882-.846-1.882-1.883v-5.208c0-1.037.844-1.881 1.882-1.881h33.992" mask="url(#prefix__d)"/>
                    <path fill="#FFF" d="M670.65 70.858h-33.993c-1.298 0-2.36-1.062-2.36-2.36v-5.207c0-1.299 1.062-2.36 2.36-2.36h33.992c1.298 0 2.36 1.061 2.36 2.36v5.207c0 1.298-1.062 2.36-2.36 2.36" mask="url(#prefix__d)"/>
                    <path fill="#000" d="M670.65 60.93h-33.993c-1.298 0-2.36 1.063-2.36 2.36v5.208c0 1.298 1.062 2.36 2.36 2.36h33.992c1.298 0 2.36-1.062 2.36-2.36V63.29c0-1.297-1.062-2.36-2.36-2.36m0 .479c1.038 0 1.883.844 1.883 1.88v5.209c0 1.038-.845 1.883-1.883 1.883h-33.992c-1.038 0-1.882-.845-1.882-1.883V63.29c0-1.037.844-1.881 1.882-1.881h33.992" mask="url(#prefix__d)"/>
                    <path fill="#0A51B7" d="M659.992 41.84c0 .883-.715 1.598-1.597 1.598s-1.596-.715-1.596-1.597.714-1.598 1.596-1.598c.882 0 1.597.716 1.597 1.598" mask="url(#prefix__d)"/>
                    <path fill="#000" d="M658.395 40.243c-.881 0-1.596.715-1.596 1.598 0 .881.715 1.596 1.596 1.596.883 0 1.597-.715 1.597-1.596 0-.883-.714-1.598-1.596-1.598m0 .48c.617 0 1.119.5 1.119 1.118 0 .617-.502 1.12-1.12 1.12-.616 0-1.118-.503-1.118-1.12 0-.618.501-1.119 1.118-1.119" mask="url(#prefix__d)"/>
                    <path fill="#0A51B7" d="M664.918 41.84c0 .883-.715 1.598-1.597 1.598s-1.597-.715-1.597-1.597.715-1.598 1.597-1.598 1.597.716 1.597 1.598" mask="url(#prefix__d)"/>
                    <path fill="#000" d="M663.321 40.243c-.882 0-1.597.715-1.597 1.598 0 .881.715 1.596 1.597 1.596s1.597-.715 1.597-1.596c0-.883-.715-1.598-1.597-1.598m0 .48c.617 0 1.12.5 1.12 1.118 0 .617-.503 1.12-1.12 1.12-.617 0-1.119-.503-1.119-1.12 0-.618.502-1.119 1.12-1.119" mask="url(#prefix__d)"/>
                    <path fill="#0A51B7" d="M669.844 41.84c0 .883-.716 1.598-1.598 1.598-.881 0-1.596-.715-1.596-1.597s.715-1.598 1.596-1.598c.882 0 1.598.716 1.598 1.598" mask="url(#prefix__d)"/>
                    <path fill="#000" d="M668.246 40.243c-.882 0-1.597.715-1.597 1.598 0 .881.715 1.596 1.597 1.596.883 0 1.598-.715 1.598-1.596 0-.883-.715-1.598-1.598-1.598m0 .48c.617 0 1.12.5 1.12 1.118 0 .617-.503 1.12-1.12 1.12-.617 0-1.119-.503-1.119-1.12 0-.618.502-1.119 1.12-1.119" mask="url(#prefix__d)"/>
                    <path fill="#0A51B7" d="M659.992 53.901c0 .882-.715 1.597-1.597 1.597s-1.596-.715-1.596-1.597.714-1.597 1.596-1.597c.882 0 1.597.715 1.597 1.597" mask="url(#prefix__d)"/>
                    <path fill="#000" d="M658.395 52.305c-.881 0-1.596.715-1.596 1.597s.715 1.596 1.596 1.596c.883 0 1.597-.714 1.597-1.596 0-.882-.714-1.597-1.596-1.597m0 .478c.617 0 1.119.5 1.119 1.119 0 .617-.502 1.119-1.12 1.119-.616 0-1.118-.502-1.118-1.12 0-.617.501-1.118 1.118-1.118" mask="url(#prefix__d)"/>
                    <path fill="#0A51B7" d="M664.918 53.901c0 .882-.715 1.597-1.597 1.597s-1.597-.715-1.597-1.597.715-1.597 1.597-1.597 1.597.715 1.597 1.597" mask="url(#prefix__d)"/>
                    <path fill="#000" d="M663.321 52.305c-.882 0-1.597.715-1.597 1.597s.715 1.596 1.597 1.596 1.597-.714 1.597-1.596c0-.882-.715-1.597-1.597-1.597m0 .478c.617 0 1.12.5 1.12 1.119 0 .617-.503 1.119-1.12 1.119-.617 0-1.119-.502-1.119-1.12 0-.617.502-1.118 1.12-1.118" mask="url(#prefix__d)"/>
                    <path fill="#0A51B7" d="M669.844 53.901c0 .882-.716 1.597-1.598 1.597-.881 0-1.596-.715-1.596-1.597s.715-1.597 1.596-1.597c.882 0 1.598.715 1.598 1.597" mask="url(#prefix__d)"/>
                    <path fill="#000" d="M668.246 52.305c-.882 0-1.597.715-1.597 1.597s.715 1.596 1.597 1.596c.883 0 1.598-.714 1.598-1.596 0-.882-.715-1.597-1.598-1.597m0 .478c.617 0 1.12.5 1.12 1.119 0 .617-.503 1.119-1.12 1.119-.617 0-1.119-.502-1.119-1.12 0-.617.502-1.118 1.12-1.118" mask="url(#prefix__d)"/>
                    <path fill="#0A51B7" d="M659.992 65.894c0 .882-.715 1.597-1.597 1.597s-1.596-.715-1.596-1.597.714-1.597 1.596-1.597c.882 0 1.597.716 1.597 1.597" mask="url(#prefix__d)"/>
                    <path fill="#000" d="M658.395 64.298c-.881 0-1.596.715-1.596 1.597s.715 1.596 1.596 1.596c.883 0 1.597-.714 1.597-1.596 0-.882-.714-1.597-1.596-1.597m0 .477c.617 0 1.119.502 1.119 1.12 0 .617-.502 1.119-1.12 1.119-.616 0-1.118-.502-1.118-1.12 0-.617.501-1.12 1.118-1.12" mask="url(#prefix__d)"/>
                    <path fill="#0A51B7" d="M664.918 65.894c0 .882-.715 1.597-1.597 1.597s-1.597-.715-1.597-1.597.715-1.597 1.597-1.597 1.597.716 1.597 1.597" mask="url(#prefix__d)"/>
                    <path fill="#000" d="M663.321 64.298c-.882 0-1.597.715-1.597 1.597s.715 1.596 1.597 1.596 1.597-.714 1.597-1.596c0-.882-.715-1.597-1.597-1.597m0 .477c.617 0 1.12.502 1.12 1.12 0 .617-.503 1.119-1.12 1.119-.617 0-1.119-.502-1.119-1.12 0-.617.502-1.12 1.12-1.12" mask="url(#prefix__d)"/>
                    <path fill="#0A51B7" d="M669.844 65.894c0 .882-.716 1.597-1.598 1.597-.881 0-1.596-.715-1.596-1.597s.715-1.597 1.596-1.597c.882 0 1.598.716 1.598 1.597" mask="url(#prefix__d)"/>
                    <path fill="#000" d="M668.246 64.298c-.882 0-1.597.715-1.597 1.597s.715 1.596 1.597 1.596c.883 0 1.598-.714 1.598-1.596 0-.882-.715-1.597-1.598-1.597m0 .477c.617 0 1.12.502 1.12 1.12 0 .617-.503 1.119-1.12 1.119-.617 0-1.119-.502-1.119-1.12 0-.617.502-1.12 1.12-1.12" mask="url(#prefix__d)"/>
                    <path fill="#FFF" d="M638.389 39.22L638.389 44.462" mask="url(#prefix__d)"/>
                    <path fill="#000" d="M638.149 44.462L638.628 44.462 638.628 39.22 638.149 39.22z" mask="url(#prefix__d)"/>
                    <path fill="#FFF" d="M641.098 39.22L641.098 44.462" mask="url(#prefix__d)"/>
                    <path fill="#000" d="M640.858 44.462L641.337 44.462 641.337 39.22 640.858 39.22z" mask="url(#prefix__d)"/>
                    <path fill="#FFF" d="M643.806 39.22L643.806 44.462" mask="url(#prefix__d)"/>
                    <path fill="#000" d="M643.566 44.462L644.045 44.462 644.045 39.22 643.566 39.22z" mask="url(#prefix__d)"/>
                    <path fill="#FFF" d="M646.515 39.22L646.515 44.462" mask="url(#prefix__d)"/>
                    <path fill="#000" d="M646.275 44.462L646.754 44.462 646.754 39.22 646.275 39.22z" mask="url(#prefix__d)"/>
                    <path fill="#FFF" d="M649.223 39.22L649.223 44.462" mask="url(#prefix__d)"/>
                    <path fill="#000" d="M648.983 44.462L649.462 44.462 649.462 39.22 648.983 39.22z" mask="url(#prefix__d)"/>
                    <path fill="#FFF" d="M651.931 39.22L651.931 44.462" mask="url(#prefix__d)"/>
                    <path fill="#000" d="M651.691 44.462L652.17 44.462 652.17 39.22 651.691 39.22z" mask="url(#prefix__d)"/>
                    <path fill="#FFF" d="M639.743 39.22L639.743 44.462" mask="url(#prefix__d)"/>
                    <path fill="#000" d="M639.503 44.462L639.982 44.462 639.982 39.22 639.503 39.22z" mask="url(#prefix__d)"/>
                    <path fill="#FFF" d="M642.451 39.22L642.451 44.462" mask="url(#prefix__d)"/>
                    <path fill="#000" d="M642.211 44.462L642.69 44.462 642.69 39.22 642.211 39.22z" mask="url(#prefix__d)"/>
                    <path fill="#FFF" d="M645.16 39.22L645.16 44.462" mask="url(#prefix__d)"/>
                    <path fill="#000" d="M644.92 44.462L645.399 44.462 645.399 39.22 644.92 39.22z" mask="url(#prefix__d)"/>
                    <path fill="#FFF" d="M647.868 39.22L647.868 44.462" mask="url(#prefix__d)"/>
                    <path fill="#000" d="M647.628 44.462L648.107 44.462 648.107 39.22 647.628 39.22z" mask="url(#prefix__d)"/>
                    <path fill="#FFF" d="M650.577 39.22L650.577 44.462" mask="url(#prefix__d)"/>
                    <path fill="#000" d="M650.337 44.462L650.816 44.462 650.816 39.22 650.337 39.22z" mask="url(#prefix__d)"/>
                    <path fill="#FFF" d="M638.389 51.28L638.389 56.522" mask="url(#prefix__d)"/>
                    <path fill="#000" d="M638.149 56.522L638.628 56.522 638.628 51.28 638.149 51.28z" mask="url(#prefix__d)"/>
                    <path fill="#FFF" d="M641.098 51.28L641.098 56.522" mask="url(#prefix__d)"/>
                    <path fill="#000" d="M640.858 56.522L641.337 56.522 641.337 51.28 640.858 51.28z" mask="url(#prefix__d)"/>
                    <path fill="#FFF" d="M643.806 51.28L643.806 56.522" mask="url(#prefix__d)"/>
                    <path fill="#000" d="M643.566 56.522L644.045 56.522 644.045 51.28 643.566 51.28z" mask="url(#prefix__d)"/>
                    <path fill="#FFF" d="M646.515 51.28L646.515 56.522" mask="url(#prefix__d)"/>
                    <path fill="#000" d="M646.275 56.522L646.754 56.522 646.754 51.28 646.275 51.28z" mask="url(#prefix__d)"/>
                    <path fill="#FFF" d="M649.223 51.28L649.223 56.522" mask="url(#prefix__d)"/>
                    <path fill="#000" d="M648.983 56.522L649.462 56.522 649.462 51.28 648.983 51.28z" mask="url(#prefix__d)"/>
                    <path fill="#FFF" d="M651.931 51.28L651.931 56.522" mask="url(#prefix__d)"/>
                    <path fill="#000" d="M651.691 56.522L652.17 56.522 652.17 51.28 651.691 51.28z" mask="url(#prefix__d)"/>
                    <path fill="#FFF" d="M639.743 51.28L639.743 56.522" mask="url(#prefix__d)"/>
                    <path fill="#000" d="M639.503 56.522L639.982 56.522 639.982 51.28 639.503 51.28z" mask="url(#prefix__d)"/>
                    <path fill="#FFF" d="M642.451 51.28L642.451 56.522" mask="url(#prefix__d)"/>
                    <path fill="#000" d="M642.211 56.522L642.69 56.522 642.69 51.28 642.211 51.28z" mask="url(#prefix__d)"/>
                    <path fill="#FFF" d="M645.16 51.28L645.16 56.522" mask="url(#prefix__d)"/>
                    <path fill="#000" d="M644.92 56.522L645.399 56.522 645.399 51.28 644.92 51.28z" mask="url(#prefix__d)"/>
                    <path fill="#FFF" d="M647.868 51.28L647.868 56.522" mask="url(#prefix__d)"/>
                    <path fill="#000" d="M647.628 56.522L648.107 56.522 648.107 51.28 647.628 51.28z" mask="url(#prefix__d)"/>
                    <path fill="#FFF" d="M650.577 51.28L650.577 56.522" mask="url(#prefix__d)"/>
                    <path fill="#000" d="M650.337 56.522L650.816 56.522 650.816 51.28 650.337 51.28z" mask="url(#prefix__d)"/>
                    <path fill="#FFF" d="M638.389 63.341L638.389 68.583" mask="url(#prefix__d)"/>
                    <path fill="#000" d="M638.149 68.583L638.628 68.583 638.628 63.341 638.149 63.341z" mask="url(#prefix__d)"/>
                    <path fill="#FFF" d="M641.098 63.341L641.098 68.583" mask="url(#prefix__d)"/>
                    <path fill="#000" d="M640.858 68.583L641.337 68.583 641.337 63.341 640.858 63.341z" mask="url(#prefix__d)"/>
                    <path fill="#FFF" d="M643.806 63.341L643.806 68.583" mask="url(#prefix__d)"/>
                    <path fill="#000" d="M643.566 68.583L644.045 68.583 644.045 63.341 643.566 63.341z" mask="url(#prefix__d)"/>
                    <path fill="#FFF" d="M646.515 63.341L646.515 68.583" mask="url(#prefix__d)"/>
                    <path fill="#000" d="M646.275 68.583L646.754 68.583 646.754 63.341 646.275 63.341z" mask="url(#prefix__d)"/>
                    <path fill="#FFF" d="M649.223 63.341L649.223 68.583" mask="url(#prefix__d)"/>
                    <path fill="#000" d="M648.983 68.583L649.462 68.583 649.462 63.341 648.983 63.341z" mask="url(#prefix__d)"/>
                    <path fill="#FFF" d="M651.931 63.341L651.931 68.583" mask="url(#prefix__d)"/>
                    <path fill="#000" d="M651.691 68.583L652.17 68.583 652.17 63.341 651.691 63.341z" mask="url(#prefix__d)"/>
                    <path fill="#FFF" d="M639.743 63.341L639.743 68.583" mask="url(#prefix__d)"/>
                    <path fill="#000" d="M639.503 68.583L639.982 68.583 639.982 63.341 639.503 63.341z" mask="url(#prefix__d)"/>
                    <path fill="#FFF" d="M642.451 63.341L642.451 68.583" mask="url(#prefix__d)"/>
                    <path fill="#000" d="M642.211 68.583L642.69 68.583 642.69 63.341 642.211 63.341z" mask="url(#prefix__d)"/>
                    <path fill="#FFF" d="M645.16 63.341L645.16 68.583" mask="url(#prefix__d)"/>
                    <path fill="#000" d="M644.92 68.583L645.399 68.583 645.399 63.341 644.92 63.341z" mask="url(#prefix__d)"/>
                    <path fill="#FFF" d="M647.868 63.341L647.868 68.583" mask="url(#prefix__d)"/>
                    <path fill="#000" d="M647.628 68.583L648.107 68.583 648.107 63.341 647.628 63.341z" mask="url(#prefix__d)"/>
                    <path fill="#FFF" d="M650.577 63.341L650.577 68.583" mask="url(#prefix__d)"/>
                    <path fill="#000" d="M650.337 68.583L650.816 68.583 650.816 63.341 650.337 63.341z" mask="url(#prefix__d)"/>
                    <path fill="#E6E8EB" d="M666.172 63.455s.159-1.01 1.589-1.698 5.016-1.66 9.398-1.057c4.383.606 5.534 1.693 5.534 1.693l.527 1.165-.001 12.814s-.58 1.535-3.518 2.171c-2.938.635-8.79.847-11.595-.45 0 0-1.775-.742-1.934-1.854V63.455z" mask="url(#prefix__d)"/>
                    <path fill="#000" d="M666.411 76.228c.12.282 1.366 2.714 8.28 2.714 6.903 0 8.162-2.423 8.288-2.715l.001-12.85c-.09-.25-1.145-2.628-8.54-2.628-7.728 0-8.028 2.64-8.03 2.667l.001 12.812zm8.28 3.192c-7.714 0-8.709-2.953-8.748-3.079l-.01-.07v-12.87c.006-.14.252-3.13 8.506-3.13 8.217 0 8.985 2.893 9.013 3.017l.007.053-.012 13c-.039.127-1.043 3.079-8.756 3.079z" mask="url(#prefix__d)"/>
                    <path fill="#000" d="M674.512 70.907c-7.495 0-8.525-2.76-8.565-2.879l.45-.154-.225.077.226-.08c.009.026 1.019 2.558 8.116 2.558h.29c7.343-.07 8.179-2.52 8.187-2.544l.459.13c-.032.115-.87 2.817-8.641 2.891l-.297.001M674.512 75.102c-7.495 0-8.525-2.76-8.565-2.878l.45-.157c.01.026 1.02 2.557 8.117 2.557l.29-.001c7.343-.07 8.179-2.518 8.187-2.542l.459.129c-.032.116-.87 2.817-8.641 2.89-.1.002-.2.002-.297.002M674.512 66.713c-7.495 0-8.525-2.76-8.565-2.88l.45-.153-.225.077.226-.08c.009.026 1.022 2.639 8.407 2.557 7.342-.07 8.178-2.52 8.186-2.543l.459.129c-.032.116-.87 2.818-8.641 2.892h-.297" mask="url(#prefix__d)"/>
                    <path fill="#C5C8CF" d="M281.753 143.782L391.359 143.782 391.359 143.032 281.753 143.032z" mask="url(#prefix__d)"/>
                    <path fill="#C5C8CF" d="M385.385 143.407L385.385 138.645 389.509 141.026 393.632 143.407 389.509 145.788 385.385 148.17zM279.902 156.848L389.509 156.848 389.509 156.098 279.902 156.098z" mask="url(#prefix__d)"/>
                    <path fill="#C5C8CF" d="M285.877 156.473L285.877 161.235 281.753 158.854 277.629 156.473 281.753 154.092 285.877 151.711z" mask="url(#prefix__d)"/>
                    <path fill="#000" d="M314.27 171.037c.084.252.12.516.12.804 0 .288-.036.551-.12.803h2.076v-1.607h-2.075zm3.587 7.005v1.007h-7.293v-3.454h1.236v2.447h6.056zm-6.274-4.523c.924 0 1.631-.67 1.631-1.678 0-.984-.707-1.656-1.63-1.656-.947 0-1.656.672-1.656 1.656 0 1.008.709 1.678 1.656 1.678zm2.16.133c-.503.587-1.272.948-2.16.936-1.607 0-2.83-1.152-2.83-2.747s1.224-2.746 2.83-2.746c.888 0 1.656.36 2.16.935h2.603v-1.596h1.236v7.964h-1.236v-2.746h-2.603zM327.721 179.253h1.187v-10.83h-1.187v10.83zm-2.183-10.566h1.151v10.039h-1.151v-3.647h-1.774v-1.008h1.774v-1.715h-1.583c-.503 1.824-1.643 3.395-3.67 4.606l-.707-.875c2.231-1.356 3.31-3.118 3.489-5.337h-2.962v-.996h4.186c0 .552-.036 1.092-.12 1.596h1.367v-2.663zM342.11 179.241h1.187v-10.83h-1.187v10.83zm-2.207-10.591h1.163v10.087h-1.163v-5.253h-2.134v-1.007h2.134v-3.827zm-4.27 7.065c1.344-.012 2.267-.072 3.335-.3l.107 1.02c-1.222.239-2.278.299-3.933.299h-.732v-7.04h4.102v1.007h-2.879v5.014zM352.753 179.276H354v-10.865h-1.247v10.865zm-6.116-6.248c0 1.703.659 2.723 1.594 2.723.948 0 1.608-1.02 1.608-2.723 0-1.678-.66-2.698-1.608-2.698-.935 0-1.594 1.02-1.594 2.698zm4.389 0c0 2.351-1.175 3.826-2.795 3.826-1.607 0-2.782-1.475-2.782-3.826 0-2.327 1.175-3.813 2.782-3.813 1.62 0 2.795 1.486 2.795 3.813zM365.124 168.398v10.866h-1.247V173.4h-2.075v-1.02h2.075v-3.982h1.247zm-7.279 7.328c1.726-.012 2.962-.07 4.377-.31l.108.994c-1.548.276-2.902.324-4.869.324h-.852v-7.376h5.025v1.02h-3.789v2.026h3.345v.983h-3.345v2.34zM303.752 125.313v1.02h-1.439v3.68h-1.248v-8.132h1.248v3.431h1.439zm-7.208 6.187h6.116v1.008h-7.363v-3.215h1.247v2.207zm1.751-5.109c.216-1.163.252-2.015.264-2.686h-4.234v-1.007h5.446v.624c0 .73 0 1.799-.265 3.201l-1.211-.132zm2.195 1.572c-2.255.395-4.809.456-6.692.456l-.132-1.008c.648 0 1.391 0 2.158-.023v-2.22h1.224v2.183c1.127-.047 2.291-.12 3.358-.287l.084.899zM312.514 132.736h1.247v-10.878h-1.247v10.878zm-5.829-3.597c1.714-.013 3.213-.097 4.929-.372l.132 1.007c-1.859.324-3.478.384-5.386.384h-.923v-4.294h3.778v-2.014h-3.802v-1.008h5.05v4.017h-3.778v2.28zM318.732 122.218L319.691 122.218 316.357 133.947 315.397 133.947zM327.91 130.95c0-.553-.853-.828-2.495-.828-1.632 0-2.484.275-2.484.827 0 .576.852.84 2.484.84 1.642 0 2.494-.264 2.494-.84zm1.234 0c0 1.15-1.367 1.762-3.729 1.762-2.352 0-3.73-.612-3.73-1.763 0-1.14 1.378-1.739 3.73-1.739 2.362 0 3.73.6 3.73 1.74zm1.176-3.407v.996h-9.799v-.996h4.282v-.888h-3.023v-4.474h7.376v.95h-6.14v.814h5.876v.923h-5.877v.84h6.213v.947h-3.178v.888h4.27zM339.644 132.7h1.176v-10.83h-1.176v10.83zm-2.182-10.614h1.163v10.099h-1.163v-5.494h-1.595v-1.006h1.595v-3.599zm-2.591 2.77c0 1.848.696 3.718 2.207 4.594l-.72.9c-1.019-.6-1.69-1.667-2.074-2.927-.384 1.367-1.08 2.531-2.123 3.19l-.744-.911c1.535-.96 2.255-2.915 2.255-4.846v-.779h-1.906v-1.019h4.892v1.019h-1.787v.779zM354.045 132.7h1.187v-10.83h-1.187v10.83zm-2.206-10.59h1.163v10.086h-1.163v-5.253h-2.135v-1.006h2.135v-3.827zm-4.271 7.064c1.344-.012 2.268-.071 3.335-.3l.108 1.02c-1.224.24-2.279.299-3.934.299h-.731v-7.04h4.101v1.008h-2.879v5.013zM364.69 132.736h1.247V121.87h-1.247v10.866zm-6.117-6.249c0 1.703.659 2.723 1.595 2.723.947 0 1.607-1.02 1.607-2.723 0-1.678-.66-2.698-1.607-2.698-.936 0-1.595 1.02-1.595 2.698zm4.39 0c0 2.352-1.176 3.826-2.795 3.826-1.607 0-2.782-1.474-2.782-3.826 0-2.326 1.175-3.813 2.782-3.813 1.619 0 2.795 1.487 2.795 3.813zM377.06 121.858v10.866h-1.247v-5.865h-2.075v-1.02h2.075v-3.98h1.248zm-7.279 7.328c1.726-.013 2.962-.072 4.377-.312l.108.996c-1.548.275-2.901.323-4.869.323h-.851v-7.376h5.024v1.02h-3.788v2.027h3.345v.983h-3.346v2.34z" mask="url(#prefix__d)"/>
                    <path fill="#FFF" d="M711.668 229.016c0 31.125-25.231 56.357-56.357 56.357-31.125 0-56.357-25.232-56.357-56.357s25.232-56.357 56.357-56.357c31.126 0 56.357 25.232 56.357 56.357" mask="url(#prefix__d)"/>
                    <path fill="#C5C8CF" d="M655.31 173.033c-30.867 0-55.98 25.113-55.98 55.982 0 30.87 25.112 55.983 55.98 55.983 30.87 0 55.983-25.113 55.983-55.983 0-30.869-25.114-55.982-55.982-55.982m0 112.715c-31.283 0-56.731-25.45-56.731-56.733 0-31.282 25.448-56.732 56.73-56.732 31.283 0 56.733 25.45 56.733 56.732 0 31.283-25.45 56.733-56.732 56.733" mask="url(#prefix__d)"/>
                    <path fill="#0A51B7" d="M640.717 226.578v-12.85s-.127-1.008.722-1.008c.847 0 .737 1.364.737 1.364l.222 12.494" mask="url(#prefix__d)"/>
                    <path fill="#000" d="M640.717 226.877c-.165 0-.3-.134-.3-.299v-12.85c-.005-.028-.067-.61.273-.996.126-.141.357-.311.749-.311.266 0 .5.1.674.289.423.459.369 1.304.36 1.398l.223 12.465c.003.165-.127.301-.293.304h-.005c-.163 0-.296-.13-.3-.294l-.221-12.494c.014-.202.005-.748-.204-.975-.061-.065-.134-.095-.234-.095-.183 0-.26.062-.3.11-.143.161-.135.483-.125.561l.002 12.888c0 .165-.134.299-.3.299" mask="url(#prefix__d)"/>
                    <path fill="#FFF" d="M636.307 229.694v-1.425s.1-1.69 1.725-1.69h34.923s1.36.264 1.36 2.121v.994" mask="url(#prefix__d)"/>
                    <path fill="#000" d="M674.613 229.694h-.598v-.994c0-1.572-1.074-1.819-1.12-1.829l-34.864.006c-1.296 0-1.417 1.266-1.426 1.411v1.406h-.597v-1.425c.04-.7.514-1.99 2.023-1.99h34.924c.611.113 1.658.758 1.658 2.421v.994z" mask="url(#prefix__d)"/>
                    <path fill="#FFF" d="M634.724 241.928v-10.542s.1-1.691 1.724-1.691h38.09s1.36.265 1.36 2.122v10.11" mask="url(#prefix__d)"/>
                    <path fill="#000" d="M676.196 241.928h-.598v-10.111c0-1.573-1.074-1.82-1.12-1.83l-38.03.006c-1.328 0-1.423 1.353-1.426 1.41v10.525h-.597v-10.542c.04-.7.514-1.99 2.022-1.99h38.091c.611.113 1.658.758 1.658 2.42v10.112z" mask="url(#prefix__d)"/>
                    <path fill="#E6E8EB" d="M633.314 244.878v-1.43s-.032-1.52 1.558-1.52h41.076s1.359.133 1.359 1.475v1.342l-43.993.133z" mask="url(#prefix__d)"/>
                    <path fill="#000" d="M675.917 242.226h-41.045c-.397 0-.706.11-.917.326-.344.35-.342.886-.342.89v1.137l43.395-.131v-1.044c0-1.032-.98-1.166-1.091-1.178zm-42.901 2.952v-1.728c-.001-.026-.011-.782.511-1.316.327-.335.781-.505 1.345-.505h41.075c.593.057 1.658.498 1.658 1.775v1.639l-44.59.135z" mask="url(#prefix__d)"/>
                    <path fill="#FFF" d="M637.044 232.347L673.577 232.347" mask="url(#prefix__d)"/>
                    <path fill="#000" d="M673.577 232.645h-36.533c-.165 0-.299-.133-.299-.299 0-.165.134-.298.3-.298h36.532c.165 0 .3.133.3.298 0 .166-.135.3-.3.3" mask="url(#prefix__d)"/>
                    <path fill="#E6E8EB" d="M660.75 222.576c-.887 0-1.607-.72-1.607-1.607s.72-1.608 1.607-1.608 1.607.721 1.607 1.608c0 .886-.72 1.607-1.607 1.607" mask="url(#prefix__d)"/>
                    <path fill="#000" d="M660.75 219.66c-.722 0-1.309.587-1.309 1.31 0 .72.587 1.307 1.309 1.307s1.309-.587 1.309-1.308c0-.722-.587-1.309-1.309-1.309m0 3.215c-1.051 0-1.906-.856-1.906-1.906 0-1.05.855-1.907 1.906-1.907s1.906.856 1.906 1.907c0 1.05-.855 1.906-1.906 1.906" mask="url(#prefix__d)"/>
                    <path fill="#E6E8EB" d="M653.87 219.303c-.534 0-1.029-.262-1.328-.701-.324-.473-.369-1.09-.118-1.61 1.522-3.19 4.791-5.251 8.326-5.251 3.534 0 6.802 2.059 8.325 5.249.185.387.208.824.064 1.229-.144.406-.436.73-.824.916-.21.103-.449.156-.69.156-.615-.001-1.185-.361-1.453-.917-.992-2.077-3.12-3.42-5.422-3.42-2.303 0-4.432 1.345-5.425 3.422-.245.523-.753.876-1.327.922l-.129.005z" mask="url(#prefix__d)"/>
                    <path fill="#000" d="M660.75 212.04c-3.421 0-6.583 1.994-8.057 5.081-.205.425-.168.927.096 1.312.242.356.644.57 1.075.571l.122-.005c.454-.036.868-.324 1.069-.75 1.044-2.184 3.279-3.593 5.695-3.593 2.416 0 4.65 1.408 5.691 3.59.219.451.684.745 1.183.746.198 0 .392-.044.561-.126.317-.15.555-.416.671-.747.119-.329.1-.684-.051-1-1.473-3.086-4.635-5.08-8.055-5.08zm-6.875 7.561h-.006c-.632 0-1.22-.31-1.574-.832-.384-.559-.439-1.29-.141-1.907 1.573-3.293 4.947-5.42 8.596-5.42 3.648 0 7.022 2.126 8.595 5.418.219.461.247.98.075 1.46-.17.48-.517.865-.976 1.085-.248.12-.532.185-.82.185-.728 0-1.403-.427-1.722-1.086-.943-1.975-2.964-3.25-5.152-3.25s-4.211 1.276-5.155 3.251c-.29.618-.893 1.037-1.574 1.091l-.146.005z" mask="url(#prefix__d)"/>
                    <path fill="#E6E8EB" d="M673.128 215.893c-.615-.001-1.187-.361-1.455-.917-2.001-4.182-6.29-6.883-10.926-6.883-4.637 0-8.925 2.702-10.927 6.885-.271.553-.824.894-1.442.894-.24 0-.475-.052-.694-.158-.792-.381-1.133-1.338-.76-2.134 2.53-5.287 7.958-8.702 13.823-8.702s11.293 3.419 13.827 8.708c.24.503.208 1.083-.088 1.554-.295.47-.801.752-1.356.753h-.002z" mask="url(#prefix__d)"/>
                    <path fill="#000" d="M673.128 215.594h.002c.45-.001.862-.23 1.103-.613.24-.383.267-.856.072-1.266-2.486-5.186-7.807-8.538-13.558-8.538-5.752 0-11.072 3.35-13.554 8.532-.302.646-.025 1.426.62 1.736.625.3 1.433.026 1.739-.6 2.05-4.282 6.445-7.051 11.195-7.051s9.146 2.769 11.195 7.053c.219.452.685.746 1.186.747m.003.598h-.003c-.73-.001-1.406-.427-1.725-1.086-1.951-4.08-6.134-6.714-10.656-6.714-4.521 0-8.705 2.636-10.657 6.715-.322.657-.978 1.063-1.712 1.063-.288 0-.565-.062-.824-.186-.94-.452-1.343-1.587-.901-2.531 2.58-5.391 8.114-8.874 14.094-8.874 5.98 0 11.513 3.485 14.097 8.878.285.596.246 1.284-.105 1.842-.35.558-.951.892-1.608.893" mask="url(#prefix__d)"/>
                    <path fill="#0A51B7" d="M33.632 158.337L79.812 158.337 79.812 157.558 33.632 157.558z" mask="url(#prefix__d)"/>
                </g>
            </g>
        </g>
    </g>
</svg>
