<svg xmlns="http://www.w3.org/2000/svg" xmlns:xlink="http://www.w3.org/1999/xlink" width="780" height="550" viewBox="0 0 780 550">
    <defs>
        <path id="vsxtfdz7ya" d="M0 0H780V550H0z"/>
        <path id="e3nuw3dybc" d="M0 540L760.705 540 760.705 0.076 0 0.076z"/>
    </defs>
    <g fill="none" fill-rule="evenodd">
        <g>
            <g>
                <g>
                    <g>
                        <g transform="translate(-760 -6969) translate(0 2555) translate(320 636) translate(60 3641) translate(380 137)">
                            <mask id="nk76bckfrb" fill="#fff">
                                <use xlink:href="#vsxtfdz7ya"/>
                            </mask>
                            <use fill="#F8F9FB" xlink:href="#vsxtfdz7ya"/>
                            <g mask="url(#nk76bckfrb)">
                                <g>
                                    <text font-family="NotoSansCJKkr-Bold, Noto Sans CJK KR" font-size="18" font-weight="bold" transform="translate(8 -4)">
                                        <tspan x="284.257" y="306.859" fill="#092E6E">Communi</tspan> <tspan x="370.531" y="306.859" fill="#092E6E" letter-spacing="-.216">c</tspan> <tspan x="379.585" y="306.859" fill="#092E6E" letter-spacing="-.342">a</tspan> <tspan x="389.539" y="306.859" fill="#092E6E">tion Se</tspan> <tspan x="451.153" y="306.859" fill="#092E6E" letter-spacing=".252">r</tspan> <tspan x="459.505" y="306.859" fill="#092E6E" letter-spacing="-.144">v</tspan> <tspan x="469.585" y="306.859" fill="#092E6E">er</tspan>
                                    </text>
                                    <path fill="#E6E8EB" d="M365.217 247.086L365.217 278.426 403.049 278.426 403.049 246.795z" transform="translate(8 -4)"/>
                                    <path stroke="#000" stroke-width=".565" d="M365.217 247.086L365.217 278.426 403.049 278.426 403.049 246.795z" transform="translate(8 -4)"/>
                                    <g>
                                        <path fill="#FFF" d="M2.974 12.11c-1.382 0-2.507-1.126-2.507-2.508V3.447C.467 2.065 1.592.94 2.974.94H43.15c1.383 0 2.508 1.125 2.508 2.507v6.155c0 1.382-1.125 2.507-2.508 2.507H2.974z" transform="translate(8 -4) translate(361 234.924)"/>
                                        <path fill="#000" d="M43.15.658H2.974C1.44.658.184 1.914.184 3.448v6.154c0 1.535 1.256 2.79 2.79 2.79H43.15c1.534 0 2.79-1.255 2.79-2.79V3.447c0-1.533-1.256-2.789-2.79-2.789m0 .564c1.228 0 2.226.998 2.226 2.225v6.155c0 1.227-.998 2.225-2.226 2.225H2.974C1.748 11.827.75 10.83.75 9.602V3.447c0-1.227.998-2.225 2.224-2.225H43.15" transform="translate(8 -4) translate(361 234.924)"/>
                                        <path fill="#FFF" d="M2.974 26.364c-1.382 0-2.507-1.125-2.507-2.507v-6.155c0-1.382 1.125-2.507 2.507-2.507H43.15c1.383 0 2.508 1.125 2.508 2.507v6.155c0 1.382-1.125 2.507-2.508 2.507H2.974z" transform="translate(8 -4) translate(361 234.924)"/>
                                        <path fill="#000" d="M43.15 14.913H2.974c-1.534 0-2.79 1.255-2.79 2.79v6.154c0 1.535 1.256 2.79 2.79 2.79H43.15c1.534 0 2.79-1.255 2.79-2.79v-6.154c0-1.535-1.256-2.79-2.79-2.79m0 .564c1.228 0 2.226.998 2.226 2.226v6.154c0 1.227-.998 2.225-2.226 2.225H2.974c-1.226 0-2.224-.998-2.224-2.225v-6.154c0-1.228.998-2.226 2.224-2.226H43.15" transform="translate(8 -4) translate(361 234.924)"/>
                                        <path fill="#FFF" d="M2.974 40.54c-1.382 0-2.507-1.126-2.507-2.508v-6.155c0-1.382 1.125-2.507 2.507-2.507H43.15c1.383 0 2.508 1.125 2.508 2.507v6.155c0 1.382-1.125 2.507-2.508 2.507H2.974z" transform="translate(8 -4) translate(361 234.924)"/>
                                        <path fill="#000" d="M43.15 29.088H2.974c-1.534 0-2.79 1.256-2.79 2.789v6.155c0 1.535 1.256 2.79 2.79 2.79H43.15c1.534 0 2.79-1.255 2.79-2.79v-6.155c0-1.533-1.256-2.79-2.79-2.79m0 .565c1.228 0 2.226.998 2.226 2.225v6.155c0 1.228-.998 2.226-2.226 2.226H2.974c-1.226 0-2.224-.998-2.224-2.226v-6.155c0-1.227.998-2.225 2.224-2.225H43.15" transform="translate(8 -4) translate(361 234.924)"/>
                                        <path fill="#0A51B7" d="M28.666 8.13c-.885 0-1.604-.72-1.604-1.604 0-.885.72-1.606 1.604-1.606.885 0 1.605.72 1.605 1.606 0 .884-.72 1.604-1.605 1.604" transform="translate(8 -4) translate(361 234.924)"/>
                                        <path fill="#000" d="M28.666 4.638c-1.042 0-1.887.845-1.887 1.888 0 1.042.845 1.886 1.887 1.886 1.043 0 1.888-.844 1.888-1.886 0-1.043-.845-1.888-1.888-1.888m0 .564c.73 0 1.323.593 1.323 1.324 0 .728-.593 1.322-1.323 1.322-.729 0-1.322-.594-1.322-1.322 0-.731.593-1.324 1.322-1.324" transform="translate(8 -4) translate(361 234.924)"/>
                                        <path fill="#0A51B7" d="M34.489 8.13c-.885 0-1.605-.72-1.605-1.604 0-.885.72-1.606 1.605-1.606s1.604.72 1.604 1.606c0 .884-.72 1.604-1.604 1.604" transform="translate(8 -4) translate(361 234.924)"/>
                                        <path fill="#000" d="M34.489 4.638c-1.043 0-1.888.845-1.888 1.888 0 1.042.845 1.886 1.888 1.886 1.042 0 1.887-.844 1.887-1.886 0-1.043-.845-1.888-1.887-1.888m0 .564c.729 0 1.322.593 1.322 1.324 0 .728-.593 1.322-1.322 1.322-.73 0-1.323-.594-1.323-1.322 0-.731.594-1.324 1.323-1.324" transform="translate(8 -4) translate(361 234.924)"/>
                                        <path fill="#0A51B7" d="M40.31 8.13c-.885 0-1.605-.72-1.605-1.604 0-.885.72-1.606 1.605-1.606s1.605.72 1.605 1.606c0 .884-.72 1.604-1.605 1.604" transform="translate(8 -4) translate(361 234.924)"/>
                                        <path fill="#000" d="M40.31 4.638c-1.042 0-1.888.845-1.888 1.888 0 1.042.846 1.886 1.888 1.886 1.042 0 1.888-.844 1.888-1.886 0-1.043-.846-1.888-1.888-1.888m0 .564c.729 0 1.322.593 1.322 1.324 0 .728-.593 1.322-1.322 1.322-.73 0-1.323-.594-1.323-1.322 0-.731.594-1.324 1.323-1.324" transform="translate(8 -4) translate(361 234.924)"/>
                                        <path fill="#0A51B7" d="M28.666 22.385c-.885 0-1.604-.72-1.604-1.604 0-.885.72-1.606 1.604-1.606.885 0 1.605.72 1.605 1.606 0 .884-.72 1.604-1.605 1.604" transform="translate(8 -4) translate(361 234.924)"/>
                                        <path fill="#000" d="M28.666 18.893c-1.042 0-1.887.845-1.887 1.887 0 1.043.845 1.888 1.887 1.888 1.043 0 1.888-.845 1.888-1.888 0-1.042-.845-1.887-1.888-1.887m0 .564c.73 0 1.323.594 1.323 1.323 0 .73-.593 1.324-1.323 1.324-.729 0-1.322-.594-1.322-1.324 0-.73.593-1.323 1.322-1.323" transform="translate(8 -4) translate(361 234.924)"/>
                                        <path fill="#0A51B7" d="M34.489 22.385c-.885 0-1.605-.72-1.605-1.604 0-.885.72-1.606 1.605-1.606s1.604.72 1.604 1.606c0 .884-.72 1.604-1.604 1.604" transform="translate(8 -4) translate(361 234.924)"/>
                                        <path fill="#000" d="M34.489 18.893c-1.043 0-1.888.845-1.888 1.887 0 1.043.845 1.888 1.888 1.888 1.042 0 1.887-.845 1.887-1.888 0-1.042-.845-1.887-1.887-1.887m0 .564c.729 0 1.322.594 1.322 1.323 0 .73-.593 1.324-1.322 1.324-.73 0-1.323-.594-1.323-1.324 0-.73.594-1.323 1.323-1.323" transform="translate(8 -4) translate(361 234.924)"/>
                                        <path fill="#0A51B7" d="M40.31 22.385c-.885 0-1.605-.72-1.605-1.604 0-.885.72-1.606 1.605-1.606s1.605.72 1.605 1.606c0 .884-.72 1.604-1.605 1.604" transform="translate(8 -4) translate(361 234.924)"/>
                                        <path fill="#000" d="M40.31 18.893c-1.042 0-1.888.845-1.888 1.887 0 1.043.846 1.888 1.888 1.888 1.042 0 1.888-.845 1.888-1.888 0-1.042-.846-1.887-1.888-1.887m0 .564c.729 0 1.322.594 1.322 1.323 0 .73-.593 1.324-1.322 1.324-.73 0-1.323-.594-1.323-1.324 0-.73.594-1.323 1.323-1.323" transform="translate(8 -4) translate(361 234.924)"/>
                                        <path fill="#0A51B7" d="M28.666 36.56c-.885 0-1.604-.72-1.604-1.605 0-.884.72-1.605 1.604-1.605.885 0 1.605.72 1.605 1.605s-.72 1.605-1.605 1.605" transform="translate(8 -4) translate(361 234.924)"/>
                                        <path fill="#000" d="M28.666 33.067c-1.042 0-1.887.845-1.887 1.888 0 1.042.845 1.886 1.887 1.886 1.043 0 1.888-.844 1.888-1.886 0-1.043-.845-1.888-1.888-1.888m0 .564c.73 0 1.323.594 1.323 1.324 0 .73-.593 1.322-1.323 1.322-.729 0-1.322-.593-1.322-1.322 0-.73.593-1.324 1.322-1.324" transform="translate(8 -4) translate(361 234.924)"/>
                                        <path fill="#0A51B7" d="M34.489 36.56c-.885 0-1.605-.72-1.605-1.605 0-.884.72-1.605 1.605-1.605s1.604.72 1.604 1.605-.72 1.605-1.604 1.605" transform="translate(8 -4) translate(361 234.924)"/>
                                        <path fill="#000" d="M34.489 33.067c-1.043 0-1.888.845-1.888 1.888 0 1.042.845 1.886 1.888 1.886 1.042 0 1.887-.844 1.887-1.886 0-1.043-.845-1.888-1.887-1.888m0 .564c.729 0 1.322.594 1.322 1.324 0 .73-.593 1.322-1.322 1.322-.73 0-1.323-.593-1.323-1.322 0-.73.594-1.324 1.323-1.324" transform="translate(8 -4) translate(361 234.924)"/>
                                        <path fill="#0A51B7" d="M40.31 36.56c-.885 0-1.605-.72-1.605-1.605 0-.884.72-1.605 1.605-1.605s1.605.72 1.605 1.605-.72 1.605-1.605 1.605" transform="translate(8 -4) translate(361 234.924)"/>
                                        <path fill="#000" d="M40.31 33.067c-1.042 0-1.888.845-1.888 1.888 0 1.042.846 1.886 1.888 1.886 1.042 0 1.888-.844 1.888-1.886 0-1.043-.846-1.888-1.888-1.888m0 .564c.729 0 1.322.594 1.322 1.324 0 .73-.593 1.322-1.322 1.322-.73 0-1.323-.593-1.323-1.322 0-.73.594-1.324 1.323-1.324" transform="translate(8 -4) translate(361 234.924)"/>
                                        <g>
                                            <path fill="#FFF" d="M1.021 0.427L1.021 6.623" transform="translate(8 -4) translate(361 234.924) translate(4 3)"/>
                                            <path stroke="#000" stroke-width=".565" d="M1.021 0.427L1.021 6.623" transform="translate(8 -4) translate(361 234.924) translate(4 3)"/>
                                        </g>
                                        <g>
                                            <path fill="#FFF" d="M1.222 0.427L1.222 6.623" transform="translate(8 -4) translate(361 234.924) translate(7 3)"/>
                                            <path stroke="#000" stroke-width=".565" d="M1.222 0.427L1.222 6.623" transform="translate(8 -4) translate(361 234.924) translate(7 3)"/>
                                        </g>
                                        <g>
                                            <path fill="#FFF" d="M1.423 0.427L1.423 6.623" transform="translate(8 -4) translate(361 234.924) translate(10 3)"/>
                                            <path stroke="#000" stroke-width=".565" d="M1.423 0.427L1.423 6.623" transform="translate(8 -4) translate(361 234.924) translate(10 3)"/>
                                        </g>
                                        <g>
                                            <path fill="#FFF" d="M0.624 0.427L0.624 6.623" transform="translate(8 -4) translate(361 234.924) translate(14 3)"/>
                                            <path stroke="#000" stroke-width=".565" d="M0.624 0.427L0.624 6.623" transform="translate(8 -4) translate(361 234.924) translate(14 3)"/>
                                        </g>
                                        <g>
                                            <path fill="#FFF" d="M0.826 0.427L0.826 6.623" transform="translate(8 -4) translate(361 234.924) translate(17 3)"/>
                                            <path stroke="#000" stroke-width=".565" d="M0.826 0.427L0.826 6.623" transform="translate(8 -4) translate(361 234.924) translate(17 3)"/>
                                        </g>
                                        <g>
                                            <path fill="#FFF" d="M1.027 0.427L1.027 6.623" transform="translate(8 -4) translate(361 234.924) translate(20 3)"/>
                                            <path stroke="#000" stroke-width=".565" d="M1.027 0.427L1.027 6.623" transform="translate(8 -4) translate(361 234.924) translate(20 3)"/>
                                        </g>
                                        <g>
                                            <path fill="#FFF" d="M0.621 0.427L0.621 6.623" transform="translate(8 -4) translate(361 234.924) translate(6 3)"/>
                                            <path stroke="#000" stroke-width=".565" d="M0.621 0.427L0.621 6.623" transform="translate(8 -4) translate(361 234.924) translate(6 3)"/>
                                        </g>
                                        <g>
                                            <path fill="#FFF" d="M0.823 0.427L0.823 6.623" transform="translate(8 -4) translate(361 234.924) translate(9 3)"/>
                                            <path stroke="#000" stroke-width=".565" d="M0.823 0.427L0.823 6.623" transform="translate(8 -4) translate(361 234.924) translate(9 3)"/>
                                        </g>
                                        <g>
                                            <path fill="#FFF" d="M1.024 0.427L1.024 6.623" transform="translate(8 -4) translate(361 234.924) translate(12 3)"/>
                                            <path stroke="#000" stroke-width=".565" d="M1.024 0.427L1.024 6.623" transform="translate(8 -4) translate(361 234.924) translate(12 3)"/>
                                        </g>
                                        <g>
                                            <path fill="#FFF" d="M1.225 0.427L1.225 6.623" transform="translate(8 -4) translate(361 234.924) translate(15 3)"/>
                                            <path stroke="#000" stroke-width=".565" d="M1.225 0.427L1.225 6.623" transform="translate(8 -4) translate(361 234.924) translate(15 3)"/>
                                        </g>
                                        <g>
                                            <path fill="#FFF" d="M1.426 0.427L1.426 6.623" transform="translate(8 -4) translate(361 234.924) translate(18 3)"/>
                                            <path stroke="#000" stroke-width=".565" d="M1.426 0.427L1.426 6.623" transform="translate(8 -4) translate(361 234.924) translate(18 3)"/>
                                        </g>
                                        <g>
                                            <path fill="#FFF" d="M1.021 0.682L1.021 6.878" transform="translate(8 -4) translate(361 234.924) translate(4 17)"/>
                                            <path stroke="#000" stroke-width=".565" d="M1.021 0.682L1.021 6.878" transform="translate(8 -4) translate(361 234.924) translate(4 17)"/>
                                        </g>
                                        <g>
                                            <path fill="#FFF" d="M1.222 0.682L1.222 6.878" transform="translate(8 -4) translate(361 234.924) translate(7 17)"/>
                                            <path stroke="#000" stroke-width=".565" d="M1.222 0.682L1.222 6.878" transform="translate(8 -4) translate(361 234.924) translate(7 17)"/>
                                        </g>
                                        <g>
                                            <path fill="#FFF" d="M1.423 0.682L1.423 6.878" transform="translate(8 -4) translate(361 234.924) translate(10 17)"/>
                                            <path stroke="#000" stroke-width=".565" d="M1.423 0.682L1.423 6.878" transform="translate(8 -4) translate(361 234.924) translate(10 17)"/>
                                        </g>
                                        <g>
                                            <path fill="#FFF" d="M0.624 0.682L0.624 6.878" transform="translate(8 -4) translate(361 234.924) translate(14 17)"/>
                                            <path stroke="#000" stroke-width=".565" d="M0.624 0.682L0.624 6.878" transform="translate(8 -4) translate(361 234.924) translate(14 17)"/>
                                        </g>
                                        <g>
                                            <path fill="#FFF" d="M0.826 0.682L0.826 6.878" transform="translate(8 -4) translate(361 234.924) translate(17 17)"/>
                                            <path stroke="#000" stroke-width=".565" d="M0.826 0.682L0.826 6.878" transform="translate(8 -4) translate(361 234.924) translate(17 17)"/>
                                        </g>
                                        <g>
                                            <path fill="#FFF" d="M1.027 0.682L1.027 6.878" transform="translate(8 -4) translate(361 234.924) translate(20 17)"/>
                                            <path stroke="#000" stroke-width=".565" d="M1.027 0.682L1.027 6.878" transform="translate(8 -4) translate(361 234.924) translate(20 17)"/>
                                        </g>
                                        <g>
                                            <path fill="#FFF" d="M0.621 0.682L0.621 6.878" transform="translate(8 -4) translate(361 234.924) translate(6 17)"/>
                                            <path stroke="#000" stroke-width=".565" d="M0.621 0.682L0.621 6.878" transform="translate(8 -4) translate(361 234.924) translate(6 17)"/>
                                        </g>
                                        <g>
                                            <path fill="#FFF" d="M0.823 0.682L0.823 6.878" transform="translate(8 -4) translate(361 234.924) translate(9 17)"/>
                                            <path stroke="#000" stroke-width=".565" d="M0.823 0.682L0.823 6.878" transform="translate(8 -4) translate(361 234.924) translate(9 17)"/>
                                        </g>
                                        <g>
                                            <path fill="#FFF" d="M1.024 0.682L1.024 6.878" transform="translate(8 -4) translate(361 234.924) translate(12 17)"/>
                                            <path stroke="#000" stroke-width=".565" d="M1.024 0.682L1.024 6.878" transform="translate(8 -4) translate(361 234.924) translate(12 17)"/>
                                        </g>
                                        <g>
                                            <path fill="#FFF" d="M1.225 0.682L1.225 6.878" transform="translate(8 -4) translate(361 234.924) translate(15 17)"/>
                                            <path stroke="#000" stroke-width=".565" d="M1.225 0.682L1.225 6.878" transform="translate(8 -4) translate(361 234.924) translate(15 17)"/>
                                        </g>
                                        <g>
                                            <path fill="#FFF" d="M1.426 0.682L1.426 6.878" transform="translate(8 -4) translate(361 234.924) translate(18 17)"/>
                                            <path stroke="#000" stroke-width=".565" d="M1.426 0.682L1.426 6.878" transform="translate(8 -4) translate(361 234.924) translate(18 17)"/>
                                        </g>
                                        <g>
                                            <path fill="#FFF" d="M1.021 0.936L1.021 7.133" transform="translate(8 -4) translate(361 234.924) translate(4 31)"/>
                                            <path stroke="#000" stroke-width=".565" d="M1.021 0.936L1.021 7.133" transform="translate(8 -4) translate(361 234.924) translate(4 31)"/>
                                        </g>
                                        <g>
                                            <path fill="#FFF" d="M1.222 0.936L1.222 7.133" transform="translate(8 -4) translate(361 234.924) translate(7 31)"/>
                                            <path stroke="#000" stroke-width=".565" d="M1.222 0.936L1.222 7.133" transform="translate(8 -4) translate(361 234.924) translate(7 31)"/>
                                        </g>
                                        <g>
                                            <path fill="#FFF" d="M1.423 0.936L1.423 7.133" transform="translate(8 -4) translate(361 234.924) translate(10 31)"/>
                                            <path stroke="#000" stroke-width=".565" d="M1.423 0.936L1.423 7.133" transform="translate(8 -4) translate(361 234.924) translate(10 31)"/>
                                        </g>
                                        <g>
                                            <path fill="#FFF" d="M0.624 0.936L0.624 7.133" transform="translate(8 -4) translate(361 234.924) translate(14 31)"/>
                                            <path stroke="#000" stroke-width=".565" d="M0.624 0.936L0.624 7.133" transform="translate(8 -4) translate(361 234.924) translate(14 31)"/>
                                        </g>
                                        <g>
                                            <path fill="#FFF" d="M0.826 0.936L0.826 7.133" transform="translate(8 -4) translate(361 234.924) translate(17 31)"/>
                                            <path stroke="#000" stroke-width=".565" d="M0.826 0.936L0.826 7.133" transform="translate(8 -4) translate(361 234.924) translate(17 31)"/>
                                        </g>
                                        <g>
                                            <path fill="#FFF" d="M1.027 0.936L1.027 7.133" transform="translate(8 -4) translate(361 234.924) translate(20 31)"/>
                                            <path stroke="#000" stroke-width=".565" d="M1.027 0.936L1.027 7.133" transform="translate(8 -4) translate(361 234.924) translate(20 31)"/>
                                        </g>
                                        <g>
                                            <path fill="#FFF" d="M0.621 0.936L0.621 7.133" transform="translate(8 -4) translate(361 234.924) translate(6 31)"/>
                                            <path stroke="#000" stroke-width=".565" d="M0.621 0.936L0.621 7.133" transform="translate(8 -4) translate(361 234.924) translate(6 31)"/>
                                        </g>
                                        <g>
                                            <path fill="#FFF" d="M0.823 0.936L0.823 7.133" transform="translate(8 -4) translate(361 234.924) translate(9 31)"/>
                                            <path stroke="#000" stroke-width=".565" d="M0.823 0.936L0.823 7.133" transform="translate(8 -4) translate(361 234.924) translate(9 31)"/>
                                        </g>
                                        <g>
                                            <path fill="#FFF" d="M1.024 0.936L1.024 7.133" transform="translate(8 -4) translate(361 234.924) translate(12 31)"/>
                                            <path stroke="#000" stroke-width=".565" d="M1.024 0.936L1.024 7.133" transform="translate(8 -4) translate(361 234.924) translate(12 31)"/>
                                        </g>
                                        <g>
                                            <path fill="#FFF" d="M1.225 0.936L1.225 7.133" transform="translate(8 -4) translate(361 234.924) translate(15 31)"/>
                                            <path stroke="#000" stroke-width=".565" d="M1.225 0.936L1.225 7.133" transform="translate(8 -4) translate(361 234.924) translate(15 31)"/>
                                        </g>
                                        <g>
                                            <path fill="#FFF" d="M1.426 0.936L1.426 7.133" transform="translate(8 -4) translate(361 234.924) translate(18 31)"/>
                                            <path stroke="#000" stroke-width=".565" d="M1.426 0.936L1.426 7.133" transform="translate(8 -4) translate(361 234.924) translate(18 31)"/>
                                        </g>
                                        <path fill="#E6E8EB" d="M37.859 32.071s.187-1.192 1.877-2.006c1.689-.814 5.93-1.965 11.108-1.25 5.18.715 6.54 2.001 6.54 2.001l.623 1.377-.001 15.145s-.684 1.815-4.157 2.566c-3.473.751-10.39 1.001-13.706-.532 0 0-2.097-.876-2.284-2.19v-15.11z" transform="translate(8 -4) translate(361 234.924)"/>
                                        <path stroke="#000" stroke-width=".565" d="M58.007 31.936s-.778-3.345-10.378-3.345-9.77 3.416-9.77 3.416V47.22s1.054 3.44 10.068 3.44c9.013 0 10.08-3.44 10.08-3.44V31.936z" transform="translate(8 -4) translate(361 234.924)"/>
                                        <path stroke="#000" stroke-width=".565" d="M37.859 37.386s1.125 3.297 10.204 3.21c9.08-.087 9.944-3.21 9.944-3.21M37.859 42.344s1.125 3.296 10.204 3.21c9.08-.087 9.944-3.21 9.944-3.21M37.859 32.429s1.125 3.296 10.204 3.209c9.08-.087 9.944-3.21 9.944-3.21" transform="translate(8 -4) translate(361 234.924)"/>
                                        <path stroke="#C5C8CF" stroke-width=".75" d="M260.31 26.785L89.704 26.785" transform="translate(8 -4) translate(361 234.924)"/>
                                        <path fill="#C5C8CF" d="M254.334 26.785L254.334 22.023 258.458 24.404 262.582 26.785 258.458 29.166 254.334 31.547zM96.876 26.785L96.876 31.547 92.752 29.166 88.628 26.785 92.752 24.404 96.876 22.023z" transform="translate(8 -4) translate(361 234.924)"/>
                                    </g>
                                    <text font-family="NotoSansCJKkr-Medium, Noto Sans CJK KR" font-size="12" font-weight="400" letter-spacing="-.132" transform="translate(8 -4)">
                                        <tspan x="324.559" y="156.091" fill="#000">R</tspan> <tspan x="332.155" y="156.091" fill="#000">em</tspan> <tspan x="350.239" y="156.091" fill="#000" letter-spacing="-.276">o</tspan> <tspan x="357.055" y="156.091" fill="#000" letter-spacing="-.204">t</tspan> <tspan x="361.399" y="156.091" fill="#000">e </tspan> <tspan x="370.879" y="156.091" fill="#000" letter-spacing="-.312">c</tspan> <tspan x="376.459" y="156.091" fill="#000">ollabo</tspan> <tspan x="412.795" y="156.091" fill="#000" letter-spacing="-.335">r</tspan> <tspan x="417.032" y="156.091" fill="#000" letter-spacing="-.204">a</tspan> <tspan x="423.524" y="156.091" fill="#000">tion</tspan>
                                    </text>
                                    <text font-family="NotoSansCJKkr-Medium, Noto Sans CJK KR" font-size="12" font-weight="400" letter-spacing="-.204" transform="translate(8 -4)">
                                        <tspan x="339.415" y="172.087" fill="#000">t</tspan> <tspan x="343.759" y="172.087" fill="#000">o </tspan> <tspan x="353.827" y="172.087" fill="#000" letter-spacing="-.132">r</tspan> <tspan x="358.471" y="172.087" fill="#000">esol</tspan> <tspan x="381.955" y="172.087" fill="#000" letter-spacing="-.072">v</tspan> <tspan x="388.351" y="172.087" fill="#000">e issues</tspan>
                                    </text>
                                    <g transform="translate(8 -4) translate(0 .924)">
                                        <path fill="#FFF" d="M442.655 79.81c0 31.126-25.232 56.357-56.357 56.357S329.94 110.936 329.94 79.81c0-31.126 25.232-56.358 56.357-56.358s56.357 25.232 56.357 56.358"/>
                                        <path stroke="#C5C8CF" stroke-width=".75" d="M442.655 79.81c0 31.126-25.232 56.357-56.357 56.357S329.94 110.936 329.94 79.81c0-31.126 25.232-56.358 56.357-56.358s56.357 25.232 56.357 56.358z"/>
                                        <path fill="#273A5B" d="M400.478 76.757c-1.316 0-2.374.55-3.147 1.639-.248-.48-.611-.868-1.08-1.154-.53-.322-1.15-.485-1.842-.485-.556 0-1.12.155-1.68.464-.465.258-.835.572-1.104.94v-1.105h-1.888v9.47h1.964v-5.248c0-.73.217-1.373.648-1.91.43-.536.943-.797 1.572-.797.696 0 1.194.178 1.48.527.293.358.442.959.442 1.788v5.64h1.964v-5.248c0-.73.219-1.373.65-1.91.428-.536.943-.797 1.57-.797.696 0 1.194.178 1.48.527.294.357.443.959.443 1.788v5.64h1.964v-5.903c0-1.223-.3-2.182-.892-2.851-.596-.674-1.451-1.015-2.544-1.015M411.925 84.081c-.518.552-1.169.81-2.047.81-.879 0-1.53-.258-2.048-.81-.55-.586-.829-1.365-.829-2.315 0-.938.28-1.71.83-2.296.531-.565 1.181-.828 2.047-.828.866 0 1.517.263 2.047.828.551.586.83 1.358.83 2.296 0 .95-.279 1.73-.83 2.315m-2.047-7.324c-1.389 0-2.557.478-3.477 1.423-.905.942-1.363 2.148-1.363 3.586 0 1.438.458 2.644 1.364 3.586.92.945 2.087 1.423 3.476 1.423 1.388 0 2.552-.478 3.458-1.422.918-.929 1.383-2.136 1.383-3.587 0-1.438-.465-2.644-1.382-3.586-.907-.945-2.07-1.423-3.459-1.423M423.503 80.611c.163-.626.456-1.132.852-1.47.443-.379.981-.57 1.598-.57.753 0 1.36.2 1.802.597.396.354.65.863.725 1.443h-4.977zm7.066 1.356c0-1.632-.428-2.964-1.24-3.85-.825-.903-1.948-1.36-3.339-1.36-1.352 0-2.479.481-3.347 1.434-.855.935-1.306 2.195-1.306 3.646 0 1.41.44 2.558 1.344 3.514.893.945 2.045 1.424 3.422 1.424.942 0 1.797-.227 2.544-.673.596-.356 1.166-.9 1.562-1.492l.057-.086-1.407-1.299-.079.117c-.66.998-1.586 1.547-2.602 1.547-.836 0-1.464-.228-1.977-.718-.544-.52-.81-1.109-.856-1.896h7.194l.03-.308zM381.529 80.611c.163-.626.457-1.132.853-1.47.443-.379.98-.57 1.598-.57.752 0 1.359.2 1.802.597.396.354.65.863.724 1.443h-4.977zm2.488-3.854c-1.352 0-2.48.481-3.348 1.434-.854.936-1.305 2.196-1.305 3.646 0 1.41.439 2.558 1.344 3.514.893.945 2.045 1.424 3.422 1.424.94 0 1.796-.227 2.544-.673.596-.356 1.166-.9 1.56-1.493l.059-.085-1.407-1.299-.078.117c-.662.998-1.587 1.547-2.603 1.547-.836 0-1.464-.228-1.977-.718-.537-.514-.811-1.119-.857-1.896h7.194l.03-.308c0-1.632-.428-2.964-1.24-3.85-.824-.903-1.948-1.36-3.338-1.36zM418.652 74.477h-.23l-1.678 1.064-.056.037v1.637h-1.61v1.815h1.61v5.013c.013.855.28 1.534.797 2.016.49.459 1.125.695 1.94.726l.099.002c.412 0 .99-.081 1.295-.184l.08-.028v-1.9l-.17.075c-.117.053-.228.09-.34.115-.188.04-.555.074-.69.068-.298-.015-.523-.106-.73-.297-.21-.193-.317-.582-.317-1.156v-4.45h2.248v-1.815h-2.248v-2.738zM370.161 79.715v-4.941h4.15c1.364 0 2.472 1.108 2.472 2.47 0 1.363-1.108 2.47-2.471 2.47h-4.15zm7.685.194c.596-.767.91-1.69.91-2.665 0-.975-.314-1.897-.91-2.665-.832-1.08-2.09-1.697-3.452-1.697h-6.207v13.66h1.974v-4.936h3.116l3.726 4.886.036.05h2.51l-3.909-5.12c.873-.261 1.65-.793 2.207-1.513z"/>
                                        <path fill="#207FF4" d="M348.702 89.815L358.139 84.358 358.139 81.13 348.702 86.612 348.702 86.616 344.801 84.363 344.801 79.864 351.467 76.015 348.697 74.411 342.026 78.262 342.026 78.261 342.026 78.262 342.026 85.964z"/>
                                        <path fill="#7DB3F6" d="M360.913 78.267L351.469 72.811 348.696 74.412 355.365 78.271 355.369 78.269 358.139 79.868 358.139 84.358 358.135 84.36 354.24 86.609 347.572 82.739 344.799 84.363 354.238 89.813 360.909 85.961z"/>
                                        <path fill="#C0D8FF" d="M351.469 69.608L344.799 73.459 344.8 73.46 344.799 73.459 344.799 84.362 347.573 85.963 347.573 75.06 351.469 72.811 355.365 75.06 355.365 82.742 358.14 81.13 358.14 73.459z"/>
                                        <path fill="#207FF4" d="M344.801 79.864L344.801 79.864 351.467 76.015 348.697 74.411 342.027 78.262 342.027 78.261 342.027 78.262z"/>
                                    </g>
                                    <text font-family="NotoSansCJKkr-Medium, Noto Sans CJK KR" font-size="12" font-weight="400" letter-spacing="-.132" transform="translate(8 -4)">
                                        <tspan x="19.297" y="337.324" fill="#000">R</tspan> <tspan x="26.893" y="337.324" fill="#000">em</tspan> <tspan x="44.977" y="337.324" fill="#000" letter-spacing="-.276">o</tspan> <tspan x="51.793" y="337.324" fill="#000" letter-spacing="-.204">t</tspan> <tspan x="56.137" y="337.324" fill="#000">e </tspan> <tspan x="65.617" y="337.324" fill="#000" letter-spacing="-.312">c</tspan> <tspan x="71.197" y="337.324" fill="#000">ollabo</tspan> <tspan x="107.533" y="337.324" fill="#000" letter-spacing="-.335">r</tspan> <tspan x="111.77" y="337.324" fill="#000" letter-spacing="-.204">a</tspan> <tspan x="118.262" y="337.324" fill="#000">tion</tspan>
                                    </text>
                                    <text font-family="NotoSansCJKkr-Medium, Noto Sans CJK KR" font-size="12" font-weight="400" letter-spacing="-.132" transform="translate(8 -4)">
                                        <tspan x="7.681" y="353.32" fill="#000">f</tspan> <tspan x="11.557" y="353.32" fill="#000">or mana</tspan> <tspan x="59.125" y="353.32" fill="#000" letter-spacing="-.203">g</tspan> <tspan x="65.654" y="353.32" fill="#000">ement / </tspan> <tspan x="112.838" y="353.32" fill="#000" letter-spacing="-.312">c</tspan> <tspan x="118.418" y="353.32" fill="#000">ont</tspan> <tspan x="138.026" y="353.32" fill="#000">r</tspan> <tspan x="142.67" y="353.32" fill="#000">ol</tspan>
                                    </text>
                                    <g>
                                        <path fill="#FFF" d="M113.393 57.043c0 31.126-25.232 56.357-56.357 56.357S.678 88.169.678 57.043C.678 25.918 25.91.687 57.036.687c31.125 0 56.357 25.231 56.357 56.356" transform="translate(8 -4) translate(24 202.924)"/>
                                        <path stroke="#C5C8CF" stroke-width=".75" d="M113.393 57.043c0 31.126-25.232 56.357-56.357 56.357S.678 88.169.678 57.043C.678 25.918 25.91.687 57.036.687c31.125 0 56.357 25.231 56.357 56.356z" transform="translate(8 -4) translate(24 202.924)"/>
                                        <path fill="#273A5B" d="M71.215 53.99c-1.316 0-2.373.551-3.146 1.638-.249-.479-.61-.867-1.08-1.154-.53-.32-1.149-.484-1.842-.484-.556 0-1.12.155-1.679.463-.466.258-.837.573-1.105.94V54.29h-1.888v9.471h1.964v-5.249c0-.73.217-1.373.648-1.91.43-.537.943-.798 1.572-.798.696 0 1.194.178 1.481.528.292.357.44.96.44 1.787v5.642h1.965v-5.249c0-.73.22-1.373.65-1.91.428-.537.942-.798 1.571-.798.694 0 1.193.178 1.48.528.293.357.442.96.442 1.787v5.642h1.964v-5.904c0-1.223-.3-2.182-.893-2.852-.595-.673-1.45-1.014-2.544-1.014M82.663 61.315c-.518.552-1.169.809-2.047.809-.879 0-1.53-.258-2.048-.81-.55-.586-.829-1.364-.829-2.315 0-.938.28-1.71.83-2.297.531-.564 1.181-.826 2.047-.826.865 0 1.517.262 2.047.827.551.586.83 1.358.83 2.296 0 .95-.279 1.73-.83 2.316m-2.047-7.325c-1.389 0-2.557.477-3.477 1.423-.906.942-1.364 2.149-1.364 3.587 0 1.437.458 2.644 1.365 3.586.92.944 2.087 1.422 3.476 1.422 1.388 0 2.552-.478 3.457-1.422.92-.928 1.384-2.136 1.384-3.587 0-1.438-.465-2.645-1.382-3.586-.907-.945-2.07-1.422-3.459-1.422M94.24 57.845c.164-.627.458-1.132.854-1.47.443-.38.98-.571 1.598-.571.752 0 1.359.2 1.802.598.396.354.65.862.725 1.443H94.24zm7.068 1.356c0-1.632-.428-2.964-1.24-3.852-.825-.902-1.95-1.358-3.34-1.358-1.351 0-2.478.48-3.346 1.433-.855.936-1.306 2.196-1.306 3.647 0 1.409.439 2.558 1.344 3.514.893.945 2.045 1.423 3.422 1.423.94 0 1.797-.226 2.544-.672.596-.357 1.166-.9 1.56-1.492l.059-.087-1.407-1.3-.08.119c-.66.998-1.585 1.547-2.601 1.547-.836 0-1.464-.228-1.978-.72-.544-.52-.81-1.108-.856-1.894h7.195l.03-.308zM52.267 57.845c.163-.626.456-1.132.853-1.47.443-.38.981-.571 1.597-.571.753 0 1.36.2 1.803.598.396.354.65.862.724 1.443h-4.977zm2.488-3.854c-1.353 0-2.479.48-3.348 1.433-.854.936-1.306 2.197-1.306 3.647 0 1.409.44 2.558 1.345 3.514.892.945 2.044 1.423 3.422 1.423.941 0 1.796-.226 2.544-.672.596-.357 1.166-.901 1.561-1.493l.058-.086-1.407-1.3-.079.119c-.662.998-1.586 1.547-2.602 1.547-.836 0-1.464-.228-1.978-.72-.536-.513-.81-1.117-.856-1.894h7.194l.03-.308c0-1.633-.428-2.965-1.239-3.852-.826-.902-1.949-1.358-3.339-1.358zM89.39 51.709h-.229l-1.679 1.065-.056.037v1.637h-1.61v1.814h1.61v5.013c.013.855.281 1.534.797 2.017.489.458 1.125.695 1.941.725.032.002.064.002.097.002.413 0 .992-.081 1.295-.184l.082-.027v-1.9l-.17.075c-.118.053-.229.09-.341.115h-.001c-.188.041-.554.073-.689.067-.298-.014-.523-.106-.73-.297-.21-.193-.317-.582-.317-1.156v-4.45h2.248v-1.814H89.39v-2.739zM40.9 56.947v-4.94h4.15c1.363 0 2.47 1.107 2.47 2.47 0 1.362-1.107 2.47-2.47 2.47H40.9zm7.685.194c.595-.767.91-1.689.91-2.665 0-.975-.315-1.897-.91-2.665-.832-1.078-2.091-1.696-3.453-1.696h-6.207v13.66H40.9v-4.937h3.116l3.725 4.886.036.051h2.51l-3.908-5.12c.872-.26 1.65-.793 2.206-1.514z" transform="translate(8 -4) translate(24 202.924)"/>
                                        <path fill="#207FF4" d="M19.44 67.049L28.878 61.592 28.878 58.364 19.439 63.846 19.439 63.85 15.539 61.597 15.539 57.098 22.206 53.249 19.435 51.645 12.765 55.495 12.765 55.496 12.765 63.197 19.439 67.049z" transform="translate(8 -4) translate(24 202.924)"/>
                                        <path fill="#7DB3F6" d="M31.652 55.499L22.208 50.044 19.435 51.645 26.104 55.504 26.108 55.502 28.878 57.101 28.878 61.59 28.874 61.593 24.978 63.842 18.311 59.972 15.538 61.596 24.977 67.045 31.648 63.194z" transform="translate(8 -4) translate(24 202.924)"/>
                                        <path fill="#C0D8FF" d="M22.207 46.841L15.537 50.693 15.537 61.596 18.311 63.197 18.311 52.294 18.311 52.293 18.311 52.294 22.207 50.044 26.103 52.294 26.103 59.976 28.878 58.364 28.878 50.693z" transform="translate(8 -4) translate(24 202.924)"/>
                                        <path fill="#207FF4" d="M15.538 57.098L15.538 57.098 22.205 53.249 19.434 51.645 12.765 55.495 12.765 55.496z" transform="translate(8 -4) translate(24 202.924)"/>
                                        <text fill="#000" font-family="NotoSansCJKkr-Medium, Noto Sans CJK KR" font-size="12" font-weight="400" letter-spacing="-.132" transform="translate(8 -4) translate(24 202.924)">
                                            <tspan x="613.227" y="134.4">R</tspan> <tspan x="620.823" y="134.4">em</tspan> <tspan x="638.907" y="134.4" letter-spacing="-.276">o</tspan> <tspan x="645.723" y="134.4" letter-spacing="-.204">t</tspan> <tspan x="650.067" y="134.4">e </tspan> <tspan x="659.547" y="134.4" letter-spacing="-.312">c</tspan> <tspan x="665.127" y="134.4">ollabo</tspan> <tspan x="701.463" y="134.4" letter-spacing="-.335">r</tspan> <tspan x="705.7" y="134.4" letter-spacing="-.204">a</tspan> <tspan x="712.192" y="134.4">tion</tspan>
                                        </text>
                                    </g>
                                    <text font-family="NotoSansCJKkr-Medium, Noto Sans CJK KR" font-size="12" font-weight="400" letter-spacing="-.204" transform="translate(8 -4)">
                                        <tspan x="652.082" y="353.324" fill="#000">t</tspan> <tspan x="656.426" y="353.324" fill="#000">o </tspan> <tspan x="666.494" y="353.324" fill="#000" letter-spacing="-.132">r</tspan> <tspan x="671.138" y="353.324" fill="#000">esol</tspan> <tspan x="694.622" y="353.324" fill="#000" letter-spacing="-.072">v</tspan> <tspan x="701.018" y="353.324" fill="#000">e issues</tspan>
                                    </text>
                                    <g>
                                        <path fill="#FFF" d="M113.322 57.043c0 31.126-25.232 56.357-56.357 56.357S.607 88.169.607 57.043C.607 25.918 25.84.687 56.965.687c31.125 0 56.357 25.231 56.357 56.356" transform="translate(8 -4) translate(642 202.924)"/>
                                        <path stroke="#C5C8CF" stroke-width=".75" d="M113.322 57.043c0 31.126-25.232 56.357-56.357 56.357S.607 88.169.607 57.043C.607 25.918 25.84.687 56.965.687c31.125 0 56.357 25.231 56.357 56.356z" transform="translate(8 -4) translate(642 202.924)"/>
                                        <path fill="#273A5B" d="M71.145 53.99c-1.316 0-2.374.551-3.147 1.638-.25-.479-.611-.867-1.08-1.154-.53-.32-1.15-.484-1.842-.484-.556 0-1.12.155-1.68.463-.465.258-.835.573-1.104.94V54.29h-1.888v9.471h1.964v-5.249c0-.73.217-1.373.648-1.91.43-.537.943-.798 1.572-.798.696 0 1.194.178 1.48.528.293.357.442.96.442 1.787v5.642h1.964v-5.249c0-.73.219-1.373.65-1.91.428-.537.943-.798 1.57-.798.696 0 1.194.178 1.48.528.294.357.443.96.443 1.787v5.642h1.964v-5.904c0-1.223-.3-2.182-.892-2.852-.596-.673-1.451-1.014-2.544-1.014M82.592 61.315c-.518.552-1.169.809-2.047.809-.879 0-1.53-.258-2.048-.81-.55-.586-.829-1.364-.829-2.315 0-.938.28-1.71.83-2.297.531-.564 1.181-.826 2.047-.826.866 0 1.517.262 2.047.827.551.586.83 1.358.83 2.296 0 .95-.279 1.73-.83 2.316m-2.047-7.325c-1.389 0-2.557.477-3.477 1.423-.905.942-1.364 2.149-1.364 3.587 0 1.437.46 2.644 1.365 3.586.92.944 2.087 1.422 3.476 1.422 1.388 0 2.552-.478 3.458-1.422.918-.928 1.383-2.136 1.383-3.587 0-1.438-.465-2.645-1.382-3.586-.907-.945-2.07-1.422-3.459-1.422M94.17 57.845c.163-.627.456-1.132.852-1.47.443-.38.981-.571 1.598-.571.752 0 1.36.2 1.802.598.396.354.65.862.725 1.443H94.17zm7.066 1.356c0-1.632-.428-2.964-1.24-3.852-.825-.902-1.948-1.358-3.339-1.358-1.352 0-2.479.48-3.347 1.433-.855.936-1.306 2.196-1.306 3.647 0 1.409.44 2.558 1.344 3.514.893.945 2.045 1.423 3.422 1.423.942 0 1.797-.226 2.544-.672.596-.357 1.166-.9 1.562-1.492l.057-.087-1.407-1.3-.079.119c-.66.998-1.586 1.547-2.602 1.547-.836 0-1.464-.228-1.978-.72-.543-.52-.81-1.108-.855-1.894h7.194l.03-.308zM52.196 57.845c.163-.626.456-1.132.853-1.47.443-.38.98-.571 1.597-.571.753 0 1.36.2 1.803.598.396.354.65.862.724 1.443h-4.977zm2.488-3.854c-1.353 0-2.48.48-3.348 1.433-.854.936-1.306 2.197-1.306 3.647 0 1.409.44 2.558 1.345 3.514.893.945 2.044 1.423 3.422 1.423.94 0 1.796-.226 2.544-.672.596-.357 1.166-.901 1.56-1.493l.059-.086-1.407-1.3-.078.119c-.662.998-1.587 1.547-2.603 1.547-.836 0-1.464-.228-1.977-.72-.537-.513-.811-1.117-.857-1.894h7.194l.03-.308c0-1.633-.428-2.965-1.24-3.852-.824-.902-1.948-1.358-3.338-1.358zM89.319 51.709h-.23l-1.678 1.065-.056.037v1.637h-1.61v1.814h1.61v5.013c.013.855.28 1.534.797 2.017.489.458 1.125.695 1.94.725.033.002.065.002.099.002.412 0 .99-.081 1.295-.184l.08-.027v-1.9l-.17.075c-.117.053-.228.09-.34.115-.188.041-.555.073-.69.067-.298-.014-.523-.106-.73-.297-.21-.193-.317-.582-.317-1.156v-4.45h2.248v-1.814h-2.248v-2.739zM40.828 56.947v-4.94h4.15c1.364 0 2.471 1.107 2.471 2.47 0 1.362-1.107 2.47-2.47 2.47h-4.15zm7.685.194c.596-.767.91-1.689.91-2.665 0-.975-.315-1.897-.91-2.665-.831-1.078-2.09-1.696-3.453-1.696h-6.207v13.66h1.975v-4.937h3.116l3.725 4.886.037.051h2.51l-3.909-5.12c.872-.26 1.65-.793 2.206-1.514z" transform="translate(8 -4) translate(642 202.924)"/>
                                        <path fill="#207FF4" d="M19.369 67.049L28.806 61.592 28.806 58.364 19.369 63.846 19.369 63.85 15.467 61.597 15.467 57.098 22.134 53.249 19.363 51.645 12.694 55.495 12.694 55.496 12.694 63.197z" transform="translate(8 -4) translate(642 202.924)"/>
                                        <path fill="#7DB3F6" d="M31.58 55.499L22.136 50.044 19.363 51.645 26.032 55.504 26.036 55.502 28.806 57.101 28.806 61.59 28.802 61.593 24.906 63.842 18.239 59.972 15.466 61.596 24.905 67.045 31.576 63.194z" transform="translate(8 -4) translate(642 202.924)"/>
                                        <path fill="#C0D8FF" d="M22.136 46.841L15.466 50.693 15.466 61.596 18.24 63.197 18.24 52.294 18.24 52.293 18.24 52.294 22.136 50.044 26.032 52.294 26.032 59.976 28.807 58.364 28.807 50.693z" transform="translate(8 -4) translate(642 202.924)"/>
                                        <path fill="#207FF4" d="M15.467 57.098L15.467 57.098 22.134 53.249 19.363 51.645 12.694 55.495 12.694 55.496z" transform="translate(8 -4) translate(642 202.924)"/>
                                    </g>
                                    <text font-family="NotoSansCJKkr-Medium, Noto Sans CJK KR" font-size="12" font-weight="400" letter-spacing="-.132" transform="translate(8 -4)">
                                        <tspan x="324.559" y="508.599" fill="#000">R</tspan> <tspan x="332.155" y="508.599" fill="#000">em</tspan> <tspan x="350.239" y="508.599" fill="#000" letter-spacing="-.276">o</tspan> <tspan x="357.055" y="508.599" fill="#000" letter-spacing="-.204">t</tspan> <tspan x="361.399" y="508.599" fill="#000">e </tspan> <tspan x="370.879" y="508.599" fill="#000" letter-spacing="-.312">c</tspan> <tspan x="376.459" y="508.599" fill="#000">ollabo</tspan> <tspan x="412.795" y="508.599" fill="#000" letter-spacing="-.335">r</tspan> <tspan x="417.032" y="508.599" fill="#000" letter-spacing="-.204">a</tspan> <tspan x="423.524" y="508.599" fill="#000">tion</tspan>
                                    </text>
                                    <g>
                                        <text fill="#000" font-family="NotoSansCJKkr-Medium, Noto Sans CJK KR" font-size="12" font-weight="400" letter-spacing="-.204" transform="translate(8 -4) translate(329 375.924)">
                                            <tspan x="10.414" y="148.675">t</tspan> <tspan x="14.758" y="148.675">o </tspan> <tspan x="24.826" y="148.675" letter-spacing="-.132">r</tspan> <tspan x="29.47" y="148.675">esol</tspan> <tspan x="52.954" y="148.675" letter-spacing="-.072">v</tspan> <tspan x="59.35" y="148.675">e issues</tspan>
                                        </text>
                                        <path fill="#FFF" d="M113.655 57.32c0 31.124-25.232 56.355-56.357 56.355S.94 88.445.94 57.32 26.173.962 57.298.962s56.357 25.231 56.357 56.357" transform="translate(8 -4) translate(329 375.924)"/>
                                        <path stroke="#C5C8CF" stroke-width=".75" d="M113.655 57.32c0 31.124-25.232 56.355-56.357 56.355S.94 88.445.94 57.32 26.173.962 57.298.962s56.357 25.231 56.357 56.357z" transform="translate(8 -4) translate(329 375.924)"/>
                                        <path fill="#273A5B" d="M71.478 54.266c-1.316 0-2.374.55-3.147 1.639-.248-.48-.611-.868-1.08-1.154-.53-.322-1.15-.485-1.842-.485-.556 0-1.12.155-1.68.464-.465.258-.835.572-1.104.939v-1.104h-1.888v9.47H62.7v-5.248c0-.73.217-1.373.648-1.91.43-.536.943-.797 1.572-.797.696 0 1.194.178 1.48.527.293.358.442.959.442 1.788v5.64h1.964v-5.248c0-.73.219-1.373.65-1.91.428-.536.943-.797 1.57-.797.696 0 1.194.178 1.48.527.294.357.443.959.443 1.788v5.64h1.964v-5.903c0-1.223-.3-2.182-.892-2.851-.596-.674-1.451-1.015-2.544-1.015M82.925 61.59c-.518.552-1.169.809-2.047.809-.879 0-1.53-.257-2.048-.81-.55-.585-.829-1.364-.829-2.314 0-.938.28-1.71.83-2.296.531-.565 1.181-.828 2.047-.828.866 0 1.517.263 2.047.828.551.586.83 1.358.83 2.296 0 .95-.279 1.729-.83 2.315m-2.047-7.324c-1.389 0-2.557.478-3.477 1.423-.905.942-1.363 2.148-1.363 3.586 0 1.438.458 2.644 1.364 3.586.92.945 2.087 1.423 3.476 1.423 1.388 0 2.552-.478 3.458-1.422.918-.93 1.383-2.136 1.383-3.587 0-1.438-.465-2.644-1.382-3.586-.907-.945-2.07-1.423-3.459-1.423M94.503 58.12c.163-.626.456-1.132.852-1.47.443-.379.981-.57 1.598-.57.753 0 1.36.2 1.802.597.396.354.65.863.725 1.443h-4.977zm7.066 1.356c0-1.632-.428-2.964-1.24-3.85-.825-.903-1.948-1.36-3.339-1.36-1.352 0-2.479.481-3.347 1.433-.855.936-1.306 2.196-1.306 3.647 0 1.41.44 2.558 1.344 3.514.893.945 2.045 1.423 3.422 1.423.942 0 1.797-.226 2.544-.672.596-.356 1.166-.9 1.562-1.492l.057-.086-1.407-1.299-.079.117c-.66.998-1.586 1.547-2.602 1.547-.836 0-1.464-.228-1.977-.718-.544-.52-.81-1.11-.856-1.896h7.194l.03-.308zM52.529 58.12c.163-.626.457-1.132.853-1.47.443-.379.98-.57 1.598-.57.752 0 1.359.2 1.802.597.396.354.65.863.724 1.443h-4.977zm2.488-3.854c-1.352 0-2.48.481-3.348 1.433-.854.937-1.305 2.197-1.305 3.647 0 1.41.439 2.558 1.344 3.514.893.945 2.045 1.423 3.422 1.423.94 0 1.796-.226 2.544-.672.596-.356 1.166-.9 1.56-1.493l.059-.085-1.407-1.299-.078.117c-.662.998-1.587 1.547-2.603 1.547-.836 0-1.464-.228-1.977-.718-.537-.514-.811-1.119-.857-1.896h7.194l.03-.308c0-1.632-.428-2.964-1.24-3.85-.824-.903-1.948-1.36-3.338-1.36zM89.652 51.985h-.23l-1.678 1.064-.056.037v1.637h-1.61v1.815h1.61v5.013c.013.855.28 1.534.797 2.016.49.46 1.125.695 1.94.726l.099.001c.412 0 .99-.08 1.295-.183l.08-.028v-1.9l-.17.075c-.117.053-.228.09-.34.115-.188.041-.555.073-.69.068-.298-.015-.523-.106-.73-.297-.21-.193-.317-.582-.317-1.156v-4.45H91.9v-1.815h-2.248v-2.738zM41.161 57.224v-4.942h4.15c1.364 0 2.471 1.109 2.471 2.47 0 1.364-1.107 2.472-2.47 2.472h-4.15zm7.685.193c.596-.766.91-1.688.91-2.664 0-.975-.315-1.897-.91-2.665-.831-1.08-2.09-1.697-3.452-1.697h-6.207v13.66h1.974v-4.936h3.117L48.002 64l.036.05h2.51l-3.907-5.12c.872-.261 1.65-.793 2.206-1.514z" transform="translate(8 -4) translate(329 375.924)"/>
                                        <path fill="#207FF4" d="M19.701 67.324L29.14 61.867 29.14 58.639 19.701 64.121 19.701 64.125 15.802 61.872 15.802 57.373 22.468 53.524 19.697 51.92 13.027 55.771 13.027 55.77 13.027 55.771 13.027 63.473z" transform="translate(8 -4) translate(329 375.924)"/>
                                        <path fill="#7DB3F6" d="M31.913 55.775L22.469 50.319 19.696 51.92 26.365 55.779 26.369 55.777 29.139 57.376 29.139 61.865 29.135 61.868 25.24 64.117 18.572 60.247 15.799 61.871 25.238 67.32 31.909 63.469z" transform="translate(8 -4) translate(329 375.924)"/>
                                        <path fill="#C0D8FF" d="M22.469 47.117L15.799 50.968 15.8 50.969 15.799 50.968 15.799 61.871 18.573 63.472 18.573 52.569 22.469 50.32 26.365 52.569 26.365 60.251 29.14 58.639 29.14 50.968z" transform="translate(8 -4) translate(329 375.924)"/>
                                        <path fill="#207FF4" d="M15.801 57.373L15.801 57.373 22.467 53.524 19.697 51.92 13.027 55.771 13.027 55.77 13.027 55.771z" transform="translate(8 -4) translate(329 375.924)"/>
                                    </g>
                                    <text font-family="NotoSansCJKkr-Medium, Noto Sans CJK KR" font-size="12" font-weight="400" transform="translate(8 -4)">
                                        <tspan x="460.504" y="246.207" fill="#000">Video &amp; </tspan> <tspan x="506.644" y="246.207" fill="#000" letter-spacing="-.312">c</tspan> <tspan x="512.224" y="246.207" fill="#000">ollabo</tspan> <tspan x="548.56" y="246.207" fill="#000" letter-spacing="-.336">r</tspan> <tspan x="552.796" y="246.207" fill="#000" letter-spacing="-.204">a</tspan> <tspan x="559.288" y="246.207" fill="#000">tion d</tspan> <tspan x="592.6" y="246.207" fill="#000" letter-spacing="-.204">a</tspan> <tspan x="599.092" y="246.207" fill="#000" letter-spacing="-.288">t</tspan> <tspan x="603.268" y="246.207" fill="#000">a</tspan>
                                    </text>
                                    <g>
                                        <path stroke="#C5C8CF" stroke-width=".75" d="M171.741 4.785L1.134 4.785" transform="translate(8 -4) translate(157 256.924)"/>
                                        <path fill="#C5C8CF" d="M165.765 4.785L165.765.023 169.889 2.404 174.013 4.785 169.889 7.166 165.765 9.547zM8.307 4.785L8.307 9.547 4.183 7.166.059 4.785 4.183 2.404 8.307.023z" transform="translate(8 -4) translate(157 256.924)"/>
                                    </g>
                                    <text font-family="NotoSansCJKkr-Medium, Noto Sans CJK KR" font-size="12" font-weight="400" transform="translate(8 -4)">
                                        <tspan x="167.935" y="246.207" fill="#000">Video &amp; </tspan> <tspan x="214.075" y="246.207" fill="#000" letter-spacing="-.312">c</tspan> <tspan x="219.655" y="246.207" fill="#000">ollabo</tspan> <tspan x="255.991" y="246.207" fill="#000" letter-spacing="-.336">r</tspan> <tspan x="260.227" y="246.207" fill="#000" letter-spacing="-.204">a</tspan> <tspan x="266.719" y="246.207" fill="#000">tion d</tspan> <tspan x="300.031" y="246.207" fill="#000" letter-spacing="-.204">a</tspan> <tspan x="306.523" y="246.207" fill="#000" letter-spacing="-.288">t</tspan> <tspan x="310.699" y="246.207" fill="#000">a</tspan>
                                    </text>
                                    <g>
                                        <path stroke="#C5C8CF" stroke-width=".75" d="M5.297 2.547L5.297 42.375" transform="translate(8 -4) translate(381 182.924)"/>
                                        <path fill="#C5C8CF" d="M5.297 8.521L.534 8.521 2.915 4.397 5.297.275 7.678 4.397 10.059 8.521zM5.297 34.851L10.059 34.851 7.678 38.975 5.297 43.099 2.915 38.975.534 34.851z" transform="translate(8 -4) translate(381 182.924)"/>
                                        <path stroke="#C5C8CF" stroke-width=".75" d="M5.297 142.613L5.297 184.442" transform="translate(8 -4) translate(381 182.924)"/>
                                        <path fill="#C5C8CF" d="M5.297 148.589L.534 148.589 2.915 144.465 5.297 140.341 7.678 144.465 10.059 148.589zM5.297 176.918L10.059 176.918 7.678 181.042 5.297 185.166 2.915 181.042.534 176.918z" transform="translate(8 -4) translate(381 182.924)"/>
                                    </g>
                                </g>
                            </g>
                        </g>
                    </g>
                </g>
            </g>
        </g>
    </g>
</svg>
