<svg xmlns="http://www.w3.org/2000/svg" xmlns:xlink="http://www.w3.org/1999/xlink" width="780" height="360" viewBox="0 0 780 360">
    <defs>
        <path id="prefix__a" d="M0 313L720.093 313 720.093 0.466 0 0.466z"/>
    </defs>
    <g fill="none" fill-rule="evenodd">
        <path fill="#F8F9FB" d="M0 0H780V360H0z"/>
        <g>
            <path fill="#C5C8CF" d="M122.63 148.205L148.2 148.205 148.2 147.455 122.63 147.455z" transform="translate(26 20)"/>
            <path fill="#C5C8CF" d="M142.224 147.83L142.224 143.068 146.348 145.449 150.472 147.83 146.348 150.211 142.224 152.592z" transform="translate(26 20)"/>
            <g transform="translate(26 20) translate(0 .534)">
                <path fill="#000" d="M176.976 224.75h-1.163v-6.104h1.163v2.578h1.14v-2.771h1.174v6.645h-1.174v-2.867h-1.14v2.519zm1.14 2.542c0-.671-.912-1.043-2.435-1.043-1.523 0-2.435.372-2.435 1.043 0 .66.912 1.032 2.435 1.032 1.523 0 2.435-.372 2.435-1.032zm1.235 0c0 1.235-1.416 1.979-3.67 1.979-2.255 0-3.671-.744-3.671-1.979 0-1.247 1.416-1.99 3.67-1.99 2.255 0 3.67.743 3.67 1.99zm-4.45-2.962c-.96-.372-1.631-1.092-2.04-1.955-.395.996-1.102 1.835-2.146 2.291l-.647-.947c1.45-.66 2.182-2.016 2.182-3.251v-1.367h1.2v1.367c0 1.2.708 2.386 2.11 2.938l-.66.924zM191.158 221.68v1.02h-1.535v3.717h-1.236v-7.987h1.236v3.25h1.535zm-7.137 6.38h6.033v1.008h-7.268v-3.418h1.235v2.41zm2.903-3.334c-1.2-.42-2.075-1.283-2.555-2.34-.468 1.189-1.367 2.112-2.638 2.568l-.672-.96c1.74-.587 2.662-2.05 2.662-3.633v-1.26h1.248v1.27c0 1.44.935 2.808 2.58 3.372l-.625.983zM202.978 227.244c0-.67-.959-1.067-2.555-1.067-1.606 0-2.59.396-2.59 1.067 0 .684.984 1.08 2.59 1.08 1.596 0 2.555-.396 2.555-1.08zm-.347-4.629c.275-1.067.287-1.848.287-2.663h-6.212v-.995h7.436v.911c0 .864 0 1.764-.3 2.88l-1.212-.133zm1.583 4.63c0 1.26-1.488 2.026-3.79 2.026-2.34 0-3.814-.767-3.814-2.027 0-1.247 1.474-2.015 3.813-2.015 2.303 0 3.79.768 3.79 2.015zm1.127-3.85v.995h-9.762v-.996h3.838v-1.99h1.248v1.99h4.677zM214.343 221.164v-2.723h1.235v6.452h-1.235v-2.722h-1.92v-1.007h1.92zm.048 6.068c0-.708-.888-1.09-2.411-1.09-1.547 0-2.422.382-2.422 1.09 0 .708.875 1.092 2.422 1.092 1.523 0 2.41-.384 2.41-1.092zm1.235 0c0 1.295-1.391 2.051-3.646 2.051-2.267 0-3.658-.756-3.658-2.05 0-1.284 1.39-2.05 3.658-2.05 2.255 0 3.646.766 3.646 2.05zm-3.19-2.686c-1.2-.42-2.063-1.272-2.52-2.315-.478 1.188-1.39 2.147-2.674 2.603l-.635-.983c1.679-.6 2.65-2.04 2.65-3.527v-.156h-2.29v-.995h5.793v.995h-2.255v.144c0 1.356.923 2.7 2.542 3.262l-.611.972z"/>
                <mask id="prefix__b" fill="#fff">
                    <use xlink:href="#prefix__a"/>
                </mask>
                <path fill="#000" d="M228.683 224.618h1.248v-6.188h-1.248v6.188zm-5.913-1.991h2.723v-2.53h-2.723v2.53zm4.27 3.61c.096.888 1.487 1.859 3.49 2.075l-.408.935c-1.715-.203-3.059-.899-3.718-1.835-.66.948-2.027 1.632-3.754 1.835l-.408-.935c2.028-.204 3.431-1.152 3.527-2.075h-3.107v-.947h3.107v-.972h1.259v.972h3.106v.947h-3.094zm-5.482-2.627h5.134v-4.497h-5.134v4.497zM243.144 221.235h-2.195v-.995h2.195v-1.81h1.235v5.564h-1.235v-2.759zm1.606 6.933v.971h-7.4v-2.806h5.806v-.864h-5.83v-.96h7.053v2.735h-5.804v.924h6.175zm-3.597-4.354c-1.176-.395-2.04-1.199-2.494-2.207-.481 1.128-1.38 2.003-2.652 2.447l-.635-.97c1.69-.553 2.638-1.909 2.638-3.396v-.91h1.236v.91c0 1.367.935 2.64 2.554 3.166l-.647.96zM254.111 229.295h1.247V218.43h-1.247v10.865zm-5.864-3.573h2.746v-2.651h-2.746v2.651zm0-6.393v2.758h2.746v-2.758h1.236v7.388h-5.206v-7.388h1.224zM257.51 229.967c.816-.336 1.296-.936 1.309-1.643-.05.012-.084.012-.133.012-.491 0-.923-.311-.923-.888 0-.54.432-.887.959-.887.672 0 1.067.564 1.067 1.487 0 1.26-.731 2.23-1.966 2.698l-.312-.78zM172.546 238.219h-1.535v2.747h-1.236v-6.537h1.236v2.77h1.535v1.02zm-8.66 3.274h7.125v3.779h-1.236v-2.783h-5.888v-.996zm4.402-.96c-1.212-.395-2.075-1.222-2.543-2.253-.48 1.138-1.38 2.026-2.65 2.47l-.648-.971c1.715-.577 2.662-1.956 2.662-3.443v-.191h-2.302v-1.008h5.817v1.008h-2.266v.19c0 1.368.91 2.699 2.566 3.25l-.636.949zM176.749 244.143h4.594v-1.199h-4.594v1.199zm4.594-3.381h1.223v4.378h-7.04v-4.378h1.223v1.223h4.594v-1.223zm-3.143-3.311c0-.923-.695-1.511-1.631-1.511-.959 0-1.642.588-1.642 1.511 0 .912.683 1.524 1.642 1.524.936 0 1.631-.612 1.631-1.524zm4.366-3.01v5.805h-1.235v-2.303h-2.003c-.216 1.223-1.319 2.051-2.759 2.051-1.631 0-2.83-1.044-2.83-2.543 0-1.487 1.199-2.53 2.83-2.53 1.428 0 2.519.804 2.759 2.015h2.003v-2.495h1.235zM194.71 239.73h-1.691v5.542h-1.236v-10.83h1.236v4.268h1.691v1.02zm-6.285-2.147c0 1.68 1.067 3.599 2.711 4.377l-.684.972c-1.212-.575-2.135-1.774-2.627-3.141-.479 1.51-1.439 2.805-2.686 3.417l-.707-.983c1.654-.791 2.757-2.843 2.757-4.642v-1.042h-2.362v-1.02h5.889v1.02h-2.291v1.042zM206.758 245.283h1.235v-10.842h-1.235v10.842zm-5.805-8.107c0 .767.672 1.259 1.608 1.259.947 0 1.607-.492 1.607-1.259 0-.756-.66-1.247-1.607-1.247-.936 0-1.608.491-1.608 1.247zm-1.187 0c0-1.331 1.175-2.267 2.795-2.267 1.619 0 2.794.936 2.794 2.267 0 1.343-1.175 2.278-2.794 2.278-1.62 0-2.795-.935-2.795-2.278zm6.369 3.597c-.948.193-1.944.3-2.903.373v3.801h-1.235v-3.729c-1.019.035-1.979.048-2.818.048l-.145-1.02c1.955 0 4.678-.036 7.017-.384l.084.911zM217.75 245.259h1.248v-10.83h-1.248v10.83zm-3.586-7.376c0 1.703 1.056 3.467 2.734 4.198l-.659.959c-1.235-.539-2.182-1.654-2.675-3.01-.479 1.439-1.426 2.615-2.686 3.191l-.684-.949c1.703-.767 2.735-2.602 2.735-4.389v-.623h-2.399v-.996h2.399v-1.607h1.235v1.607h2.351v.996h-2.351v.623zM226.777 239.502h5.157v-3.214h-5.157v3.214zm7.508 3.431v1.006h-9.81v-1.006h4.269v-2.448h-3.178v-5.18h7.58v5.18h-3.167v2.448h4.306zM243.227 245.271h1.235v-10.83h-1.235v10.83zm-5.853-3.79c1.535-.012 3.154-.144 4.857-.492l.132 1.032c-1.859.383-3.61.516-5.289.516h-.924v-7.041h1.224v5.985zM255.55 234.417v10.866h-1.247v-5.865h-2.075v-1.02h2.075v-3.981h1.247zm-7.28 7.328c1.727-.012 2.963-.072 4.378-.311l.108.995c-1.548.275-2.902.324-4.87.324h-.851v-7.376h5.025v1.019h-3.79v2.027h3.346v.983h-3.345v2.339zM265.284 241.073h1.235v-6.632h-1.235v6.632zm.07 2.207c0-.672-.875-1.031-2.434-1.031-1.547 0-2.435.359-2.435 1.031 0 .659.888 1.02 2.435 1.02 1.559 0 2.434-.361 2.434-1.02zm1.236 0c0 1.259-1.391 2.003-3.67 2.003-2.278 0-3.658-.744-3.658-2.003 0-1.259 1.38-2.003 3.658-2.003 2.279 0 3.67.744 3.67 2.003zm-2.29-3.106c-1.703.276-3.167.324-5.241.324h-.913v-3.202h3.718v-1.2h-3.741v-.995h4.953v3.13h-3.706v1.259c1.859 0 3.214-.059 4.785-.324l.145 1.008z" mask="url(#prefix__b)"/>
                <path fill="#092E6E" d="M419.077 182.597h2.377v-16.638h-2.377v16.638zm-7.994-5.943c2.898-.017 4.753-.107 6.752-.485l.216 1.962c-2.251.432-4.358.504-7.887.504h-1.458v-11.199h8.013v1.926h-5.636v7.292zM435.637 182.542h2.377v-16.583h-2.377v16.583zm-4.951-12.117c0 2.701 1.332 5.563 4.104 6.716l-1.296 1.873c-1.927-.828-3.241-2.45-3.979-4.448-.739 2.161-2.071 3.979-4.015 4.862l-1.351-1.891c2.773-1.242 4.123-4.285 4.123-7.112v-.918h-3.457v-1.963h9.291v1.963h-3.42v.918zM452.323 171.343h-2.629v-1.872h2.63v-3.512h2.376v8.77h-2.377v-3.386zm2.845 9.29v1.783H443.79v-4.392h8.552v-.901h-8.588v-1.783H454.7v4.357h-8.57v.937h9.038zm-5.186-6.553c-2.179.306-4.033.325-7.094.325h-1.296v-7.527h7.652v1.836h-5.294v1.026h4.79v1.729h-4.79v1.08c2.377-.018 3.98-.054 5.852-.323l.18 1.854zM475.85 176.385H464.2v-9.22h11.524v1.909h-9.111v1.748h8.732v1.835h-8.732v1.855h9.237v1.873zm-13.414 4.249h15.017v-1.927h-15.017v1.927zM490.43 178.509h2.376v-12.567h-2.376v12.567zm-8.031-8.805c0 .9.792 1.387 1.998 1.387 1.189 0 1.981-.487 1.981-1.387 0-.899-.792-1.386-1.981-1.386-1.206 0-1.998.487-1.998 1.386zm-2.251 0c0-1.872 1.765-3.15 4.249-3.15 2.485 0 4.232 1.278 4.232 3.15 0 1.891-1.747 3.151-4.232 3.151-2.484 0-4.249-1.26-4.249-3.151zm13.018 10.659v1.891h-12.1v-4.772h2.377v-1.98c-1.459.072-2.881.091-4.123.091l-.288-1.891c3.007 0 7.022-.036 10.497-.486l.126 1.674c-1.278.234-2.556.379-3.853.468v2.665h-2.359v2.34h9.723zM431.21 192.6v1.964h-1.98v5.4h-2.376v-12.422h2.376v5.059h1.98zm-10.658 9.364h9.2v1.89h-11.577v-4.986h2.377v3.096zm1.98-7.562c.27-1.548.342-2.755.36-3.745h-6.176v-1.891h8.516v1.026c0 1.153 0 2.79-.377 4.88l-2.323-.27zm3.565 2.629c-3.421.63-7.274.702-10.119.72l-.216-1.89c.918 0 1.944 0 3.025-.02v-3.221h2.322v3.132c1.639-.072 3.295-.198 4.844-.414l.144 1.693zM443.971 204.179h2.377v-16.637h-2.377v16.637zm-8.103-5.817c2.522-.017 4.61-.143 6.95-.54l.252 1.927c-2.7.469-5.131.576-8.137.576h-1.496v-6.824h5.384v-2.647h-5.401v-1.89h7.832v6.41h-5.384v2.988zM468.074 187.542v16.637h-2.377v-9.526h-3.186v-1.908h3.186v-5.203h2.377zm-7.688 3.69c0 3.133 1.207 6.176 3.943 7.401l-1.404 1.89c-1.819-.881-3.026-2.502-3.709-4.501-.72 2.124-1.963 3.853-3.818 4.79l-1.476-1.909c2.808-1.297 4.07-4.519 4.07-7.671v-2.394h2.394v2.394zM473.686 198.381h3.259v-3.673h-3.259v3.673zm10.948-10.839v16.637h-2.377v-8.895h-2.971v4.987h-7.958v-11.416h2.359v3.999h3.258v-3.999h2.341v4.52h2.971v-5.833h2.377z" mask="url(#prefix__b)"/>
                <path fill="#E6E8EB" d="M428.104 115.579L428.104 146.919 465.937 146.919 465.937 115.288z" mask="url(#prefix__b)"/>
                <path fill="#000" d="M428.387 146.637h37.268v-31.064l-37.268.287v30.777zm37.832.564h-38.396v-31.902l38.396-.295V147.2z" mask="url(#prefix__b)"/>
                <path fill="#FFF" d="M467.037 115.809h-40.176c-1.534 0-2.789-1.255-2.789-2.79v-6.154c0-1.535 1.255-2.79 2.79-2.79h40.175c1.534 0 2.79 1.255 2.79 2.79v6.155c0 1.534-1.256 2.789-2.79 2.789" mask="url(#prefix__b)"/>
                <path fill="#000" d="M467.037 104.075h-40.176c-1.534 0-2.789 1.256-2.789 2.79v6.154c0 1.535 1.255 2.79 2.79 2.79h40.175c1.534 0 2.79-1.255 2.79-2.79v-6.155c0-1.533-1.256-2.789-2.79-2.789m0 .564c1.227 0 2.225.998 2.225 2.225v6.155c0 1.228-.998 2.226-2.225 2.226h-40.176c-1.226 0-2.224-.998-2.224-2.226v-6.155c0-1.227.998-2.225 2.224-2.225h40.176" mask="url(#prefix__b)"/>
                <path fill="#FFF" d="M467.037 130.064h-40.176c-1.534 0-2.789-1.255-2.789-2.79v-6.154c0-1.535 1.255-2.79 2.79-2.79h40.175c1.534 0 2.79 1.255 2.79 2.79v6.154c0 1.535-1.256 2.79-2.79 2.79" mask="url(#prefix__b)"/>
                <path fill="#000" d="M467.037 118.33h-40.176c-1.534 0-2.789 1.255-2.789 2.79v6.154c0 1.535 1.255 2.79 2.79 2.79h40.175c1.534 0 2.79-1.255 2.79-2.79v-6.154c0-1.535-1.256-2.79-2.79-2.79m0 .564c1.227 0 2.225.998 2.225 2.226v6.154c0 1.227-.998 2.225-2.225 2.225h-40.176c-1.226 0-2.224-.998-2.224-2.225v-6.154c0-1.228.998-2.226 2.224-2.226h40.176" mask="url(#prefix__b)"/>
                <path fill="#FFF" d="M467.037 144.24h-40.176c-1.534 0-2.789-1.257-2.789-2.79v-6.155c0-1.535 1.255-2.79 2.79-2.79h40.175c1.534 0 2.79 1.255 2.79 2.79v6.154c0 1.534-1.256 2.79-2.79 2.79" mask="url(#prefix__b)"/>
                <path fill="#000" d="M467.037 132.505h-40.176c-1.534 0-2.789 1.256-2.789 2.789v6.155c0 1.535 1.255 2.79 2.79 2.79h40.175c1.534 0 2.79-1.255 2.79-2.79v-6.155c0-1.533-1.256-2.79-2.79-2.79m0 .565c1.227 0 2.225.998 2.225 2.225v6.155c0 1.228-.998 2.226-2.225 2.226h-40.176c-1.226 0-2.224-.998-2.224-2.226v-6.155c0-1.227.998-2.225 2.224-2.225h40.176" mask="url(#prefix__b)"/>
                <path fill="#0A51B7" d="M454.441 109.942c0 1.042-.845 1.887-1.888 1.887-1.042 0-1.886-.845-1.886-1.887 0-1.043.844-1.888 1.886-1.888 1.043 0 1.888.845 1.888 1.888" mask="url(#prefix__b)"/>
                <path fill="#000" d="M452.554 108.055c-1.042 0-1.887.845-1.887 1.888 0 1.042.845 1.886 1.887 1.886 1.043 0 1.888-.844 1.888-1.886 0-1.043-.845-1.888-1.888-1.888m0 .564c.729 0 1.323.593 1.323 1.324 0 .728-.594 1.322-1.323 1.322-.73 0-1.322-.594-1.322-1.322 0-.731.593-1.324 1.322-1.324" mask="url(#prefix__b)"/>
                <path fill="#0A51B7" d="M460.263 109.942c0 1.042-.845 1.887-1.887 1.887-1.043 0-1.887-.845-1.887-1.887 0-1.043.844-1.888 1.887-1.888 1.042 0 1.887.845 1.887 1.888" mask="url(#prefix__b)"/>
                <path fill="#000" d="M458.375 108.055c-1.042 0-1.887.845-1.887 1.888 0 1.042.845 1.886 1.887 1.886 1.043 0 1.888-.844 1.888-1.886 0-1.043-.845-1.888-1.888-1.888m0 .564c.73 0 1.323.593 1.323 1.324 0 .728-.593 1.322-1.323 1.322-.729 0-1.322-.594-1.322-1.322 0-.731.593-1.324 1.322-1.324" mask="url(#prefix__b)"/>
                <path fill="#0A51B7" d="M466.084 109.942c0 1.042-.845 1.887-1.887 1.887-1.043 0-1.887-.845-1.887-1.887 0-1.043.844-1.888 1.887-1.888 1.042 0 1.887.845 1.887 1.888" mask="url(#prefix__b)"/>
                <path fill="#000" d="M464.197 108.055c-1.043 0-1.888.845-1.888 1.888 0 1.042.845 1.886 1.888 1.886 1.042 0 1.887-.844 1.887-1.886 0-1.043-.845-1.888-1.887-1.888m0 .564c.73 0 1.322.593 1.322 1.324 0 .728-.593 1.322-1.322 1.322-.729 0-1.323-.594-1.323-1.322 0-.731.594-1.324 1.323-1.324" mask="url(#prefix__b)"/>
                <path fill="#0A51B7" d="M454.441 124.197c0 1.042-.845 1.887-1.888 1.887-1.042 0-1.886-.845-1.886-1.887 0-1.043.844-1.888 1.886-1.888 1.043 0 1.888.845 1.888 1.888" mask="url(#prefix__b)"/>
                <path fill="#000" d="M452.554 122.31c-1.042 0-1.887.846-1.887 1.887 0 1.043.845 1.888 1.887 1.888 1.043 0 1.888-.845 1.888-1.888 0-1.041-.845-1.887-1.888-1.887m0 .564c.729 0 1.323.594 1.323 1.323 0 .73-.594 1.324-1.323 1.324-.73 0-1.322-.594-1.322-1.324 0-.73.593-1.323 1.322-1.323" mask="url(#prefix__b)"/>
                <path fill="#0A51B7" d="M460.263 124.197c0 1.042-.845 1.887-1.887 1.887-1.043 0-1.887-.845-1.887-1.887 0-1.043.844-1.888 1.887-1.888 1.042 0 1.887.845 1.887 1.888" mask="url(#prefix__b)"/>
                <path fill="#000" d="M458.375 122.31c-1.042 0-1.887.846-1.887 1.887 0 1.043.845 1.888 1.887 1.888 1.043 0 1.888-.845 1.888-1.888 0-1.041-.845-1.887-1.888-1.887m0 .564c.73 0 1.323.594 1.323 1.323 0 .73-.593 1.324-1.323 1.324-.729 0-1.322-.594-1.322-1.324 0-.73.593-1.323 1.322-1.323" mask="url(#prefix__b)"/>
                <path fill="#0A51B7" d="M466.084 124.197c0 1.042-.845 1.887-1.887 1.887-1.043 0-1.887-.845-1.887-1.887 0-1.043.844-1.888 1.887-1.888 1.042 0 1.887.845 1.887 1.888" mask="url(#prefix__b)"/>
                <path fill="#000" d="M464.197 122.31c-1.043 0-1.888.846-1.888 1.887 0 1.043.845 1.888 1.888 1.888 1.042 0 1.887-.845 1.887-1.888 0-1.041-.845-1.887-1.887-1.887m0 .564c.73 0 1.322.594 1.322 1.323 0 .73-.593 1.324-1.322 1.324-.729 0-1.323-.594-1.323-1.324 0-.73.594-1.323 1.323-1.323" mask="url(#prefix__b)"/>
                <path fill="#0A51B7" d="M454.441 138.372c0 1.042-.845 1.888-1.888 1.888-1.042 0-1.886-.846-1.886-1.888 0-1.043.844-1.888 1.886-1.888 1.043 0 1.888.845 1.888 1.888" mask="url(#prefix__b)"/>
                <path fill="#000" d="M452.554 136.484c-1.042 0-1.887.845-1.887 1.888s.845 1.886 1.887 1.886c1.043 0 1.888-.843 1.888-1.886s-.845-1.888-1.888-1.888m0 .564c.729 0 1.323.594 1.323 1.324 0 .73-.594 1.322-1.323 1.322-.73 0-1.322-.593-1.322-1.322 0-.73.593-1.324 1.322-1.324" mask="url(#prefix__b)"/>
                <path fill="#0A51B7" d="M460.263 138.372c0 1.042-.845 1.888-1.887 1.888-1.043 0-1.887-.846-1.887-1.888 0-1.043.844-1.888 1.887-1.888 1.042 0 1.887.845 1.887 1.888" mask="url(#prefix__b)"/>
                <path fill="#000" d="M458.375 136.484c-1.042 0-1.887.845-1.887 1.888s.845 1.886 1.887 1.886c1.043 0 1.888-.843 1.888-1.886s-.845-1.888-1.888-1.888m0 .564c.73 0 1.323.594 1.323 1.324 0 .73-.593 1.322-1.323 1.322-.729 0-1.322-.593-1.322-1.322 0-.73.593-1.324 1.322-1.324" mask="url(#prefix__b)"/>
                <path fill="#0A51B7" d="M466.084 138.372c0 1.042-.845 1.888-1.887 1.888-1.043 0-1.887-.846-1.887-1.888 0-1.043.844-1.888 1.887-1.888 1.042 0 1.887.845 1.887 1.888" mask="url(#prefix__b)"/>
                <path fill="#000" d="M464.197 136.484c-1.043 0-1.888.845-1.888 1.888s.845 1.886 1.888 1.886c1.042 0 1.887-.843 1.887-1.886s-.845-1.888-1.887-1.888m0 .564c.73 0 1.322.594 1.322 1.324 0 .73-.593 1.322-1.322 1.322-.729 0-1.323-.593-1.323-1.322 0-.73.594-1.324 1.323-1.324" mask="url(#prefix__b)"/>
                <path fill="#FFF" d="M428.907 106.844L428.907 113.04" mask="url(#prefix__b)"/>
                <path fill="#000" d="M428.625 113.04L429.189 113.04 429.189 106.844 428.625 106.844z" mask="url(#prefix__b)"/>
                <path fill="#FFF" d="M432.108 106.844L432.108 113.04" mask="url(#prefix__b)"/>
                <path fill="#000" d="M431.827 113.04L432.391 113.04 432.391 106.844 431.827 106.844z" mask="url(#prefix__b)"/>
                <path fill="#FFF" d="M435.31 106.844L435.31 113.04" mask="url(#prefix__b)"/>
                <path fill="#000" d="M435.028 113.04L435.592 113.04 435.592 106.844 435.028 106.844z" mask="url(#prefix__b)"/>
                <path fill="#FFF" d="M438.511 106.844L438.511 113.04" mask="url(#prefix__b)"/>
                <path fill="#000" d="M438.229 113.04L438.793 113.04 438.793 106.844 438.229 106.844z" mask="url(#prefix__b)"/>
                <path fill="#FFF" d="M441.712 106.844L441.712 113.04" mask="url(#prefix__b)"/>
                <path fill="#000" d="M441.43 113.04L441.994 113.04 441.994 106.844 441.43 106.844z" mask="url(#prefix__b)"/>
                <path fill="#FFF" d="M444.913 106.844L444.913 113.04" mask="url(#prefix__b)"/>
                <path fill="#000" d="M444.631 113.04L445.195 113.04 445.195 106.844 444.631 106.844z" mask="url(#prefix__b)"/>
                <path fill="#FFF" d="M430.508 106.844L430.508 113.04" mask="url(#prefix__b)"/>
                <path fill="#000" d="M430.226 113.04L430.79 113.04 430.79 106.844 430.226 106.844z" mask="url(#prefix__b)"/>
                <path fill="#FFF" d="M433.709 106.844L433.709 113.04" mask="url(#prefix__b)"/>
                <path fill="#000" d="M433.427 113.04L433.991 113.04 433.991 106.844 433.427 106.844z" mask="url(#prefix__b)"/>
                <path fill="#FFF" d="M436.91 106.844L436.91 113.04" mask="url(#prefix__b)"/>
                <path fill="#000" d="M436.628 113.04L437.192 113.04 437.192 106.844 436.628 106.844z" mask="url(#prefix__b)"/>
                <path fill="#FFF" d="M440.111 106.844L440.111 113.04" mask="url(#prefix__b)"/>
                <path fill="#000" d="M439.83 113.04L440.394 113.04 440.394 106.844 439.83 106.844z" mask="url(#prefix__b)"/>
                <path fill="#FFF" d="M443.313 106.844L443.313 113.04" mask="url(#prefix__b)"/>
                <path fill="#000" d="M443.031 113.04L443.595 113.04 443.595 106.844 443.031 106.844z" mask="url(#prefix__b)"/>
                <path fill="#FFF" d="M428.907 121.099L428.907 127.295" mask="url(#prefix__b)"/>
                <path fill="#000" d="M428.625 127.295L429.189 127.295 429.189 121.099 428.625 121.099z" mask="url(#prefix__b)"/>
                <path fill="#FFF" d="M432.108 121.099L432.108 127.295" mask="url(#prefix__b)"/>
                <path fill="#000" d="M431.827 127.295L432.391 127.295 432.391 121.099 431.827 121.099z" mask="url(#prefix__b)"/>
                <path fill="#FFF" d="M435.31 121.099L435.31 127.295" mask="url(#prefix__b)"/>
                <path fill="#000" d="M435.028 127.295L435.592 127.295 435.592 121.099 435.028 121.099z" mask="url(#prefix__b)"/>
                <path fill="#FFF" d="M438.511 121.099L438.511 127.295" mask="url(#prefix__b)"/>
                <path fill="#000" d="M438.229 127.295L438.793 127.295 438.793 121.099 438.229 121.099z" mask="url(#prefix__b)"/>
                <path fill="#FFF" d="M441.712 121.099L441.712 127.295" mask="url(#prefix__b)"/>
                <path fill="#000" d="M441.43 127.295L441.994 127.295 441.994 121.099 441.43 121.099z" mask="url(#prefix__b)"/>
                <path fill="#FFF" d="M444.913 121.099L444.913 127.295" mask="url(#prefix__b)"/>
                <path fill="#000" d="M444.631 127.295L445.195 127.295 445.195 121.099 444.631 121.099z" mask="url(#prefix__b)"/>
                <path fill="#FFF" d="M430.508 121.099L430.508 127.295" mask="url(#prefix__b)"/>
                <path fill="#000" d="M430.226 127.295L430.79 127.295 430.79 121.099 430.226 121.099z" mask="url(#prefix__b)"/>
                <path fill="#FFF" d="M433.709 121.099L433.709 127.295" mask="url(#prefix__b)"/>
                <path fill="#000" d="M433.427 127.295L433.991 127.295 433.991 121.099 433.427 121.099z" mask="url(#prefix__b)"/>
                <path fill="#FFF" d="M436.91 121.099L436.91 127.295" mask="url(#prefix__b)"/>
                <path fill="#000" d="M436.628 127.295L437.192 127.295 437.192 121.099 436.628 121.099z" mask="url(#prefix__b)"/>
                <path fill="#FFF" d="M440.111 121.099L440.111 127.295" mask="url(#prefix__b)"/>
                <path fill="#000" d="M439.83 127.295L440.394 127.295 440.394 121.099 439.83 121.099z" mask="url(#prefix__b)"/>
                <path fill="#FFF" d="M443.313 121.099L443.313 127.295" mask="url(#prefix__b)"/>
                <path fill="#000" d="M443.031 127.295L443.595 127.295 443.595 121.099 443.031 121.099z" mask="url(#prefix__b)"/>
                <path fill="#FFF" d="M428.907 135.353L428.907 141.549" mask="url(#prefix__b)"/>
                <path fill="#000" d="M428.625 141.55L429.189 141.55 429.189 135.354 428.625 135.354z" mask="url(#prefix__b)"/>
                <path fill="#FFF" d="M432.108 135.353L432.108 141.549" mask="url(#prefix__b)"/>
                <path fill="#000" d="M431.827 141.55L432.391 141.55 432.391 135.354 431.827 135.354z" mask="url(#prefix__b)"/>
                <path fill="#FFF" d="M435.31 135.353L435.31 141.549" mask="url(#prefix__b)"/>
                <path fill="#000" d="M435.028 141.55L435.592 141.55 435.592 135.354 435.028 135.354z" mask="url(#prefix__b)"/>
                <path fill="#FFF" d="M438.511 135.353L438.511 141.549" mask="url(#prefix__b)"/>
                <path fill="#000" d="M438.229 141.55L438.793 141.55 438.793 135.354 438.229 135.354z" mask="url(#prefix__b)"/>
                <path fill="#FFF" d="M441.712 135.353L441.712 141.549" mask="url(#prefix__b)"/>
                <path fill="#000" d="M441.43 141.55L441.994 141.55 441.994 135.354 441.43 135.354z" mask="url(#prefix__b)"/>
                <path fill="#FFF" d="M444.913 135.353L444.913 141.549" mask="url(#prefix__b)"/>
                <path fill="#000" d="M444.631 141.55L445.195 141.55 445.195 135.354 444.631 135.354z" mask="url(#prefix__b)"/>
                <path fill="#FFF" d="M430.508 135.353L430.508 141.549" mask="url(#prefix__b)"/>
                <path fill="#000" d="M430.226 141.55L430.79 141.55 430.79 135.354 430.226 135.354z" mask="url(#prefix__b)"/>
                <path fill="#FFF" d="M433.709 135.353L433.709 141.549" mask="url(#prefix__b)"/>
                <path fill="#000" d="M433.427 141.55L433.991 141.55 433.991 135.354 433.427 135.354z" mask="url(#prefix__b)"/>
                <path fill="#FFF" d="M436.91 135.353L436.91 141.549" mask="url(#prefix__b)"/>
                <path fill="#000" d="M436.628 141.55L437.192 141.55 437.192 135.354 436.628 135.354z" mask="url(#prefix__b)"/>
                <path fill="#FFF" d="M440.111 135.353L440.111 141.549" mask="url(#prefix__b)"/>
                <path fill="#000" d="M439.83 141.55L440.394 141.55 440.394 135.354 439.83 135.354z" mask="url(#prefix__b)"/>
                <path fill="#FFF" d="M443.313 135.353L443.313 141.549" mask="url(#prefix__b)"/>
                <path fill="#000" d="M443.031 141.55L443.595 141.55 443.595 135.354 443.031 135.354z" mask="url(#prefix__b)"/>
                <path fill="#E6E8EB" d="M461.745 135.49s.188-1.194 1.878-2.008c1.69-.813 5.93-1.964 11.108-1.249 5.18.715 6.54 2 6.54 2l.623 1.377v15.145s-.685 1.815-4.159 2.566c-3.472.751-10.388 1.001-13.705-.532 0 0-2.097-.876-2.285-2.19v-15.11z" mask="url(#prefix__b)"/>
                <path fill="#000" d="M462.027 150.585c.143.333 1.614 3.208 9.787 3.208 8.156 0 9.648-2.864 9.797-3.209l.001-15.187c-.106-.297-1.356-3.106-10.096-3.106-9.224 0-9.488 3.116-9.489 3.148v15.146zm9.787 3.772c-9.117 0-10.294-3.489-10.339-3.637l-.012-.083v-15.212c.007-.165.297-3.698 10.053-3.698 9.712 0 10.62 3.418 10.654 3.562l.006.065-.013 15.367c-.046.148-1.233 3.636-10.349 3.636z" mask="url(#prefix__b)"/>
                <path fill="#000" d="M471.6 144.297c-8.856 0-10.073-3.263-10.122-3.403l.535-.182-.267.09.266-.093c.01.03 1.204 3.024 9.59 3.024l.346-.002c8.678-.083 9.667-2.978 9.676-3.007l.543.154c-.038.136-1.028 3.329-10.213 3.417l-.353.002M471.6 149.255c-8.856 0-10.073-3.263-10.122-3.403l.535-.182-.267.09.266-.093c.01.03 1.204 3.024 9.59 3.024l.346-.002c8.678-.083 9.667-2.978 9.676-3.007l.543.154c-.038.136-1.028 3.329-10.213 3.417l-.353.002M471.6 139.339c-8.856 0-10.073-3.262-10.122-3.402l.535-.182-.267.09.266-.093c.01.03 1.205 3.023 9.59 3.023l.346-.002c8.678-.082 9.667-2.977 9.676-3.006l.543.154c-.038.136-1.028 3.329-10.213 3.416l-.354.002M35.728 229.296h1.247V218.43h-1.247v10.866zm-5.769-3.682c2.015-.012 3.31-.072 4.761-.348l.133 1.032c-1.572.287-2.975.348-5.218.348h-.9v-7.209h5.158v1.02h-3.934v5.157zM46.768 229.271h1.247v-10.83h-1.247v10.83zm-3.67-7.699c0 1.799 1.115 3.67 2.806 4.39l-.683.972c-1.26-.552-2.232-1.728-2.735-3.131-.48 1.511-1.451 2.795-2.722 3.406l-.708-.983c1.679-.78 2.795-2.795 2.795-4.654v-1.031h-2.412v-1.02h6.07v1.02h-2.411v1.031zM57.867 221.824h-1.87v-.983h1.87v-2.412h1.248v5.805h-1.248v-2.41zm1.607 6.393v.96h-7.399v-2.724h5.816v-.816h-5.829v-.959h7.053v2.663h-5.817v.876h6.176zm-3.309-4.558c-1.428.228-2.639.24-4.69.24h-.816v-4.822H55.6v.972h-3.706v.935h3.395v.936h-3.395v1.008c1.776 0 2.88-.037 4.174-.252l.097.983zM73.263 225.158h-7.508v-5.84h7.424v.994h-6.165v1.392h5.925v.972h-5.925v1.487h6.249v.995zm-8.72 2.782h9.824v-1.007h-9.823v1.007zM83.235 226.669h1.247v-8.228h-1.247v8.228zm-5.672-5.78c0 .683.623 1.103 1.571 1.103.935 0 1.57-.42 1.57-1.103 0-.672-.635-1.092-1.57-1.092-.948 0-1.571.42-1.571 1.092zm7.195 7.172v1.007h-7.724v-3.119h1.236v2.112h6.488zm-8.371-7.172c0-1.224 1.115-2.015 2.747-2.015 1.619 0 2.734.791 2.734 2.015 0 1.235-1.115 2.039-2.734 2.039-1.632 0-2.747-.804-2.747-2.039zm2.291 3.693c-1.044.036-2.039.049-2.914.049l-.157-1.008c1.992 0 4.654-.012 6.945-.324l.084.876c-.9.168-1.812.275-2.723.323v1.823h-1.235v-1.739zM30.89 239.742h-1.642v5.517h-1.235v-10.83h1.235v4.282h1.643v1.031zm-4.472-4.162c0 3.142-1.343 5.925-4.881 7.712l-.684-.947c2.65-1.356 4.078-3.262 4.33-5.757h-3.79v-1.008h5.025zM41.895 237.115v1.02H40.36v2.806h-1.236v-6.513h1.236v2.687h1.535zm-2.639 6.117c0-.672-.876-1.055-2.386-1.055-1.511 0-2.386.383-2.386 1.055 0 .695.874 1.068 2.386 1.068 1.51 0 2.387-.373 2.387-1.068zm1.224 0c0 1.283-1.367 2.04-3.61 2.04-2.231 0-3.61-.757-3.61-2.04 0-1.27 1.379-2.027 3.61-2.027 2.242 0 3.61.756 3.61 2.027zm-2.926-2.866c-1.163-.42-2.028-1.248-2.483-2.268-.48 1.176-1.366 2.112-2.614 2.568l-.66-.984c1.702-.588 2.625-2.063 2.625-3.622v-1.067h1.248v1.163c0 1.392.923 2.71 2.532 3.238l-.648.972zM53.717 243.244c0-.672-.96-1.067-2.555-1.067-1.606 0-2.59.395-2.59 1.067 0 .684.984 1.08 2.59 1.08 1.596 0 2.555-.396 2.555-1.08zm-.348-4.629c.276-1.067.288-1.848.288-2.663h-6.212v-.995h7.435v.911c0 .863 0 1.763-.3 2.88l-1.211-.133zm1.583 4.63c0 1.26-1.487 2.026-3.79 2.026-2.34 0-3.813-.767-3.813-2.027 0-1.247 1.474-2.015 3.813-2.015 2.303 0 3.79.768 3.79 2.015zm1.128-3.85v.995h-9.762v-.996h3.837v-1.99h1.248v1.99h4.677zM67.335 237.607v1.02h-1.548v3.658h-1.235v-7.844h1.235v3.166h1.548zm-7.16 6.452h6.044v1.008h-7.292v-3.574h1.248v2.566zm2.71-8.79c0 2.865-1.906 4.904-5.061 5.864l-.515-.983c2.482-.756 4.017-2.159 4.233-3.874h-3.778v-1.008h5.121zM81.543 240.75h-4.317v4.521h-1.247v-4.521h-4.235v-1.02h7.04c.313-1.511.313-2.638.313-3.634H72.92v-.995h7.388v.947c0 1.019 0 2.147-.276 3.682h1.511v1.02zM83.288 238.398c2.195-.167 3.563-.97 3.683-1.954h-3.227v-.972h3.31v-1.067h1.235v1.067h3.3v.972h-3.216c.12.983 1.476 1.787 3.683 1.954l-.384.936c-1.883-.156-3.334-.78-4.006-1.75-.672.97-2.123 1.594-4.006 1.75l-.372-.936zm5.001 2.436v1.09h3.083v3.334h-1.235v-2.35h-6.273v-.984h3.19v-1.09h-4.282v-.997h9.8v.997h-4.283z" mask="url(#prefix__b)"/>
                <path fill="#FFF" d="M113.09 147.296c0 31.125-25.232 56.357-56.357 56.357S.375 178.42.375 147.296s25.233-56.357 56.358-56.357c31.125 0 56.357 25.232 56.357 56.357" mask="url(#prefix__b)"/>
                <path fill="#C5C8CF" d="M56.732 91.314C25.863 91.314.75 116.427.75 147.296c0 30.87 25.113 55.983 55.982 55.983 30.87 0 55.982-25.113 55.982-55.983 0-30.87-25.113-55.982-55.982-55.982m0 112.715C25.45 204.029 0 178.579 0 147.296c0-31.282 25.45-56.732 56.732-56.732s56.732 25.45 56.732 56.732-25.45 56.733-56.732 56.733" mask="url(#prefix__b)"/>
                <path fill="#E6E8EB" d="M56.83 132.783L56.83 141.247 44.487 141.247 44.487 132.783 39.127 132.783 39.127 157.483 43.886 157.483 44.487 157.483 56.83 157.483 67.214 157.483 74.339 157.483 74.339 135.98 68.47 132.783 68.47 135.933 62.675 132.783 62.675 135.933z" mask="url(#prefix__b)"/>
                <path fill="#000" d="M39.517 157.094H73.95v-20.882l-5.09-2.773v3.15l-5.795-3.15v3.147l-5.845-3.15v8.2H44.098v-8.463h-4.581v23.92zm35.212.779H38.738v-25.48h6.139v8.465H56.44v-8.727l5.845 3.15v-3.153l5.794 3.15v-3.15l6.649 3.62v22.125z" mask="url(#prefix__b)"/>
                <path fill="#FFF" d="M39.127 157.483L44.472 157.483 44.472 132.783 39.127 132.783z" mask="url(#prefix__b)"/>
                <path fill="#000" d="M39.517 157.094h4.565v-23.921h-4.565v23.921zm-.78.779h6.124v-25.479h-6.124v25.479z" mask="url(#prefix__b)"/>
                <path fill="#FFF" d="M39.127 135.698L44.315 135.698" mask="url(#prefix__b)"/>
                <path fill="#000" d="M39.127 136.088L44.315 136.088 44.315 135.309 39.127 135.309z" mask="url(#prefix__b)"/>
                <path fill="#FFF" d="M44.471 157.483L67.407 157.483 67.407 141.247 44.471 141.247z" mask="url(#prefix__b)"/>
                <path fill="#000" d="M44.859 157.095h22.16v-15.459h-22.16v15.459zm-.776.777h23.713v-17.014H44.083v17.014z" mask="url(#prefix__b)"/>
                <path fill="#E6E8EB" d="M50.163 151.215h-2.347c-.373 0-.675-.303-.675-.677v-2.345c0-.374.302-.677.675-.677h2.347c.374 0 .677.303.677.677v2.345c0 .374-.303.677-.677.677" mask="url(#prefix__b)"/>
                <path fill="#000" d="M47.816 147.905c-.158 0-.286.13-.286.287v2.346c0 .158.128.287.286.287h2.347c.158 0 .287-.129.287-.287v-2.346c0-.158-.129-.287-.287-.287h-2.347zm2.347 3.7h-2.347c-.587 0-1.065-.479-1.065-1.067v-2.346c0-.588.478-1.066 1.065-1.066h2.347c.588 0 1.066.478 1.066 1.066v2.346c0 .588-.478 1.066-1.066 1.066z" mask="url(#prefix__b)"/>
                <path fill="#E6E8EB" d="M57.006 151.215h-2.347c-.373 0-.675-.303-.675-.677v-2.345c0-.374.302-.677.675-.677h2.347c.373 0 .677.303.677.677v2.345c0 .374-.304.677-.677.677" mask="url(#prefix__b)"/>
                <path fill="#000" d="M54.66 147.905c-.159 0-.287.13-.287.287v2.346c0 .158.128.287.286.287h2.347c.158 0 .287-.129.287-.287v-2.346c0-.158-.129-.287-.287-.287H54.66zm2.346 3.7H54.66c-.587 0-1.065-.479-1.065-1.067v-2.346c0-.588.478-1.066 1.065-1.066h2.347c.588 0 1.066.478 1.066 1.066v2.346c0 .588-.478 1.066-1.066 1.066z" mask="url(#prefix__b)"/>
                <path fill="#E6E8EB" d="M63.849 151.215h-2.347c-.373 0-.675-.303-.675-.677v-2.345c0-.374.302-.677.675-.677h2.347c.373 0 .676.303.676.677v2.345c0 .374-.303.677-.676.677" mask="url(#prefix__b)"/>
                <path fill="#000" d="M61.502 147.905c-.158 0-.286.13-.286.287v2.346c0 .158.128.287.286.287h2.347c.158 0 .286-.129.286-.287v-2.346c0-.158-.128-.287-.286-.287h-2.347zm2.347 3.7h-2.347c-.587 0-1.065-.479-1.065-1.067v-2.346c0-.588.478-1.066 1.065-1.066h2.347c.587 0 1.065.478 1.065 1.066v2.346c0 .588-.478 1.066-1.065 1.066z" mask="url(#prefix__b)"/>
                <path fill="#FFF" d="M44.472 144.226L67.214 144.226" mask="url(#prefix__b)"/>
                <path fill="#000" d="M44.472 144.615L67.214 144.615 67.214 143.836 44.472 143.836zM80.233 126.313L79.454 126.313 79.454 122.99 76.13 122.99 76.13 122.21 80.233 122.21zM34.053 126.313L33.274 126.313 33.274 122.21 37.376 122.21 37.376 122.99 34.053 122.99zM37.376 168.048L33.273 168.048 33.273 163.945 34.053 163.945 34.053 167.269 37.376 167.269zM80.233 168.048L76.13 168.048 76.13 167.269 79.454 167.269 79.454 163.945 80.233 163.945z" mask="url(#prefix__b)"/>
                <path fill="#0A51B7" d="M39.127 136.378L44.472 136.378 44.472 132.783 39.127 132.783z" mask="url(#prefix__b)"/>
                <path fill="#000" d="M39.517 135.988h4.565v-2.815h-4.565v2.815zm-.78.78h6.124v-4.374h-6.124v4.374z" mask="url(#prefix__b)"/>
                <path fill="#FFF" d="M271.34 147.413c0 31.125-25.232 56.357-56.357 56.357s-56.358-25.232-56.358-56.357 25.233-56.357 56.358-56.357c31.125 0 56.357 25.232 56.357 56.357" mask="url(#prefix__b)"/>
                <path fill="#C5C8CF" d="M214.982 91.43c-30.869 0-55.982 25.114-55.982 55.983 0 30.87 25.113 55.983 55.982 55.983 30.87 0 55.982-25.113 55.982-55.983 0-30.87-25.113-55.982-55.982-55.982m0 112.715c-31.282 0-56.732-25.45-56.732-56.733 0-31.282 25.45-56.732 56.732-56.732s56.732 25.45 56.732 56.732c0 31.283-25.45 56.733-56.732 56.733" mask="url(#prefix__b)"/>
                <path fill="#007CF7" d="M188.374 156.362L184.035 152.894 184.035 141.672 188.374 138.204z" mask="url(#prefix__b)"/>
                <path fill="#6FB6FB" d="M196.09 156.362L200.429 152.894 200.429 141.672 196.09 138.204z" mask="url(#prefix__b)"/>
                <path fill="#0065C7" d="M196.09 138.204L192.233 140.738 196.09 143.334zM188.374 138.204L192.232 140.738 188.374 143.334zM196.09 151.232L192.233 153.766 196.09 156.362zM188.374 151.232L192.232 153.766 188.374 156.362z" mask="url(#prefix__b)"/>
                <path fill="#273A5B" d="M228.449 151.308L226.273 144.656 224.325 144.656 222.149 151.31 220.188 144.656 218.141 144.656 221.169 154.045 223.081 154.045 225.253 147.295 227.443 154.045 229.374 154.045 232.402 144.656 230.391 144.656zM244.992 145.356c-.625-.663-1.524-1-2.674-1-.603 0-1.19.156-1.749.463-.464.257-.833.57-1.1.936v-1.1h-1.884v9.39h1.96v-5.18c0-.74.221-1.383.662-1.913.441-.53.972-.787 1.625-.787 1.404 0 2.103.695 2.14 2.12v5.76h1.957v-5.872c0-1.209-.315-2.155-.937-2.817M233.627 154.045L235.584 154.045 235.584 144.365 233.627 144.365zM233.539 142.578L235.672 142.578 235.672 140.447 233.539 140.447z" mask="url(#prefix__b)"/>
                <path fill="#273A5B" d="M220.386 140.436L207.91 140.436 207.91 142.331 213.163 142.331 213.163 154.131 215.133 154.131 215.133 142.331 220.386 142.331z" mask="url(#prefix__b)"/>
                <path fill="#000" d="M541.747 249.13h1.175v-8.119h-1.175v8.119zm-2.123-4.485h-1.523v-1.02h1.523v-2.411h1.163v7.604h-1.163v-4.173zm3.598 5.984v1.008h-7.46v-3.466h1.248v2.458h6.212zm-4.833-3.262c-.911-.42-1.56-1.164-1.919-2.075-.396 1.008-1.079 1.883-2.087 2.351l-.684-.936c1.44-.695 2.159-2.146 2.159-3.441v-1.512h1.2v1.512c0 1.27.659 2.542 2.003 3.166l-.672.935zM553.794 240.986v10.866h-1.247v-6.297h-2.315v-1.006h2.315v-3.563h1.247zm-5.073 2.687c0 2.014 1.032 3.982 2.686 4.75l-.731.995c-1.224-.613-2.1-1.799-2.567-3.25-.48 1.535-1.367 2.794-2.602 3.43l-.78-.984c1.69-.827 2.747-2.914 2.747-4.94v-1.789h1.247v1.788zM567.258 251.828h1.187v-10.83h-1.187v10.83zm-2.206-10.59h1.163v10.087h-1.163v-5.254h-2.135v-1.007h2.135v-3.826zm-4.271 7.065c1.344-.013 2.268-.073 3.335-.3l.108 1.019c-1.223.24-2.279.3-3.934.3h-.731v-7.04h4.101v1.007h-2.879v5.014zM577.902 251.864h1.247v-10.866h-1.247v10.866zm-6.116-6.248c0 1.703.659 2.723 1.595 2.723.947 0 1.607-1.02 1.607-2.723 0-1.679-.66-2.699-1.607-2.699-.936 0-1.595 1.02-1.595 2.699zm4.39 0c0 2.351-1.176 3.825-2.795 3.825-1.608 0-2.782-1.474-2.782-3.825 0-2.327 1.174-3.814 2.782-3.814 1.619 0 2.795 1.487 2.795 3.814zM590.273 240.986v10.866h-1.247v-5.865h-2.075v-1.02h2.075v-3.98h1.247zm-7.279 7.328c1.726-.012 2.962-.072 4.377-.31l.108.994c-1.548.275-2.902.324-4.869.324h-.852v-7.376h5.025v1.02h-3.789v2.026h3.345v.983h-3.345v2.34zM543.726 41.077v1.02h-1.44v3.681h-1.247v-8.13h1.248v3.43h1.439zm-7.208 6.188h6.116v1.008h-7.363V45.06h1.247v2.206zm1.75-5.109c.217-1.163.253-2.015.265-2.686h-4.234v-1.007h5.446v.623c0 .732 0 1.8-.264 3.203l-1.212-.133zm2.196 1.571c-2.255.397-4.81.456-6.692.456l-.132-1.007c.648 0 1.39 0 2.158-.024v-2.219h1.224v2.183c1.127-.048 2.29-.12 3.358-.288l.084.9zM552.487 48.501h1.247V37.623h-1.247v10.878zm-5.829-3.598c1.715-.011 3.214-.095 4.93-.372l.132 1.008c-1.86.323-3.479.384-5.386.384h-.923v-4.294h3.777v-2.015h-3.801v-1.008h5.05v4.018h-3.779v2.279zM567.259 48.465h1.187v-10.83h-1.187v10.83zm-2.206-10.59h1.163v10.087h-1.163v-5.254h-2.135v-1.007h2.135v-3.826zm-4.271 7.064c1.344-.012 2.268-.072 3.335-.299l.108 1.019c-1.223.239-2.279.3-3.934.3h-.731v-7.04h4.101v1.007h-2.879v5.013zM577.902 48.501h1.247V37.635h-1.247v10.866zm-6.116-6.248c0 1.703.659 2.723 1.595 2.723.947 0 1.607-1.02 1.607-2.723 0-1.68-.66-2.699-1.607-2.699-.936 0-1.595 1.019-1.595 2.699zm4.39 0c0 2.351-1.176 3.825-2.795 3.825-1.608 0-2.782-1.474-2.782-3.825 0-2.327 1.174-3.815 2.782-3.815 1.619 0 2.795 1.488 2.795 3.815zM590.273 37.623v10.866h-1.247v-5.865h-2.075v-1.02h2.075v-3.981h1.247zm-7.279 7.328c1.726-.012 2.962-.072 4.377-.311l.108.995c-1.548.275-2.902.324-4.869.324h-.852v-7.376h5.025v1.019h-3.789v2.027h3.345v.983h-3.345v2.339zM613.895 303.49h-2.194v-.996h2.194v-1.812h1.236v5.566h-1.236v-2.759zm1.606 6.932v.971h-7.399v-2.806h5.806v-.865h-5.83v-.959h7.053v2.735h-5.804v.924h6.174zm-3.596-4.354c-1.176-.396-2.04-1.199-2.495-2.207-.48 1.127-1.38 2.003-2.651 2.446l-.635-.97c1.69-.552 2.637-1.908 2.637-3.395v-.91h1.236v.91c0 1.367.936 2.64 2.555 3.166l-.648.96zM624.863 311.549h1.247v-10.866h-1.247v10.866zm-5.864-3.574h2.746v-2.65h-2.746v2.65zm0-6.393v2.759h2.746v-2.759h1.235v7.389h-5.205v-7.389h1.224zM628.264 312.22c.815-.335 1.295-.935 1.308-1.643-.05.013-.084.013-.133.013-.491 0-.923-.312-.923-.888 0-.54.432-.887.959-.887.672 0 1.067.563 1.067 1.487 0 1.259-.731 2.23-1.966 2.698l-.312-.78zM644.506 304.473h-1.535v2.747h-1.236v-6.537h1.236v2.77h1.535v1.02zm-8.66 3.274h7.125v3.779h-1.236v-2.783h-5.888v-.996zm4.402-.96c-1.212-.395-2.075-1.222-2.543-2.253-.48 1.138-1.38 2.026-2.65 2.47l-.648-.971c1.715-.577 2.662-1.956 2.662-3.443v-.191h-2.302v-1.008h5.817v1.008h-2.267v.19c0 1.368.912 2.699 2.567 3.25l-.636.949zM648.709 310.397h4.594v-1.199h-4.594v1.199zm4.594-3.381h1.223v4.378h-7.04v-4.378h1.223v1.223h4.594v-1.223zm-3.143-3.311c0-.923-.695-1.511-1.631-1.511-.959 0-1.642.588-1.642 1.511 0 .912.683 1.524 1.642 1.524.936 0 1.631-.612 1.631-1.524zm4.366-3.01v5.805h-1.235v-2.303h-2.003c-.216 1.223-1.319 2.051-2.759 2.051-1.631 0-2.83-1.044-2.83-2.543 0-1.487 1.199-2.53 2.83-2.53 1.428 0 2.519.804 2.759 2.014h2.003v-2.494h1.235zM666.67 305.984h-1.691v5.541h-1.236v-10.83h1.236v4.27h1.69v1.02zm-6.285-2.147c0 1.68 1.067 3.598 2.71 4.377l-.683.972c-1.212-.576-2.135-1.775-2.627-3.142-.48 1.511-1.44 2.806-2.686 3.418l-.707-.984c1.654-.79 2.757-2.842 2.757-4.64v-1.044h-2.362v-1.02h5.889v1.02h-2.291v1.043zM678.719 311.537h1.235v-10.842h-1.235v10.842zm-5.805-8.107c0 .767.672 1.258 1.607 1.258.948 0 1.608-.491 1.608-1.258 0-.756-.66-1.247-1.608-1.247-.935 0-1.607.491-1.607 1.247zm-1.187 0c0-1.331 1.175-2.267 2.794-2.267 1.62 0 2.795.936 2.795 2.267 0 1.342-1.175 2.278-2.795 2.278-1.619 0-2.794-.936-2.794-2.278zm6.369 3.597c-.948.193-1.944.3-2.903.372v3.802h-1.235v-3.729c-1.02.035-1.979.048-2.818.048l-.145-1.02c1.955 0 4.678-.036 7.017-.384l.084.911zM689.711 311.513h1.248v-10.83h-1.248v10.83zm-3.586-7.376c0 1.703 1.056 3.467 2.734 4.198l-.659.959c-1.235-.539-2.182-1.654-2.675-3.01-.479 1.439-1.426 2.614-2.686 3.191l-.684-.949c1.703-.767 2.735-2.602 2.735-4.389v-.623h-2.399v-.996h2.399v-1.607h1.235v1.607h2.351v.996h-2.351v.623zM704.423 308.814h1.175v-8.119h-1.175v8.119zm-2.123-4.485h-1.524v-1.019h1.524v-2.412h1.163v7.605H702.3v-4.174zm3.597 5.984v1.008h-7.46v-3.466h1.249v2.458h6.211zm-4.833-3.261c-.911-.42-1.559-1.164-1.918-2.075-.396 1.007-1.08 1.882-2.087 2.35l-.684-.935c1.439-.696 2.159-2.147 2.159-3.442v-1.512h1.199v1.512c0 1.271.66 2.542 2.003 3.166l-.672.936zM715.163 307.136h1.235v-6.429h-1.235v6.429zm.071 2.29c0-.707-.899-1.103-2.434-1.103-1.535 0-2.435.396-2.435 1.103 0 .72.9 1.103 2.435 1.103 1.535 0 2.434-.383 2.434-1.103zm1.236 0c0 1.307-1.404 2.075-3.67 2.075-2.267 0-3.67-.768-3.67-2.075 0-1.295 1.403-2.063 3.67-2.063 2.266 0 3.67.768 3.67 2.063zm-3.023-2.89c-1.235-.42-2.146-1.26-2.626-2.327-.492 1.199-1.403 2.146-2.698 2.614l-.624-.983c1.703-.6 2.662-2.099 2.662-3.61v-1.055h1.26v1.055c0 1.452.959 2.794 2.626 3.334l-.6.972zM615.318 139.709h1.235v-10.83h-1.235v10.83zm-1.956-9.691c0 3.226-1.295 5.961-5.012 7.759l-.661-.983c2.843-1.367 4.186-3.273 4.402-5.769h-3.862v-1.007h5.133zM621.128 138.497h6.225v1.008h-7.472v-3.082h1.247v2.074zm-1.955-5.744c2.052-.252 3.454-1.272 3.55-2.387h-3.166v-.983h8v.983h-3.191c.096 1.115 1.524 2.135 3.563 2.387l-.456.983c-1.883-.24-3.346-1.116-3.934-2.315-.576 1.2-2.027 2.075-3.898 2.315l-.468-.983zm9.295 1.883v.995h-9.822v-.995h4.269v-1.656h1.235v1.656h4.318zM635.42 131.325c0 .768.995 1.211 2.53 1.211 1.524 0 2.519-.443 2.519-1.21 0-.769-.995-1.212-2.52-1.212-1.534 0-2.53.443-2.53 1.211zm.084 7.172h6.284v1.008h-7.532v-3.202h1.248v2.194zm-1.392-7.172c0-1.355 1.512-2.207 3.838-2.207 2.315 0 3.838.852 3.838 2.207s-1.523 2.207-3.838 2.207c-2.326 0-3.838-.852-3.838-2.207zm8.755 2.938v1.008h-4.197v2.051h-1.26v-2.05h-4.365v-1.009h9.822zM649.782 131.373c.06.229.096.468.096.731 0 .265-.036.504-.109.732h2.064v-1.463h-2.05zm2.11 6.225c0-.72-.887-1.127-2.434-1.127-1.535 0-2.435.407-2.435 1.127 0 .744.9 1.139 2.435 1.139 1.547 0 2.434-.395 2.434-1.139zm1.224 0c0 1.331-1.403 2.111-3.658 2.111s-3.646-.78-3.646-2.111c0-1.32 1.391-2.099 3.646-2.099s3.658.779 3.658 2.099zm-6.045-3.934c.936 0 1.631-.624 1.631-1.56 0-.947-.695-1.571-1.63-1.571-.96 0-1.656.624-1.656 1.571 0 .936.696 1.56 1.655 1.56zm2.147.168c-.503.552-1.27.875-2.147.875-1.619 0-2.83-1.079-2.83-2.603 0-1.535 1.211-2.614 2.83-2.614.888 0 1.644.336 2.147.876h2.615v-1.5h1.235v6.393h-1.235v-1.427h-2.615zM668.464 132.309v1.02h-1.44v3.68h-1.247v-8.13h1.248v3.43h1.439zm-7.208 6.188h6.116v1.008h-7.363v-3.214h1.247v2.206zm1.75-5.11c.217-1.162.253-2.014.265-2.685h-4.234v-1.007h5.446v.623c0 .732 0 1.8-.264 3.203l-1.212-.133zm2.196 1.572c-2.255.397-4.81.456-6.692.456l-.132-1.007c.648 0 1.39 0 2.158-.024v-2.22h1.224v2.184c1.127-.048 2.29-.12 3.358-.288l.084.899zM677.226 139.732h1.247v-10.878h-1.247v10.878zm-5.83-3.597c1.715-.012 3.214-.096 4.93-.372l.132 1.008c-1.859.323-3.479.383-5.386.383h-.923v-4.294h3.778v-2.014h-3.802v-1.008h5.05v4.017h-3.779v2.28zM691.602 139.732h1.247v-10.866h-1.247v10.866zm-3.67-8.179c0 1.991 1.103 3.982 2.806 4.75l-.719.983c-1.248-.588-2.196-1.787-2.687-3.25-.492 1.57-1.451 2.855-2.759 3.489l-.731-1.031c1.727-.779 2.854-2.854 2.854-4.941v-1.775h1.236v1.775zM703.828 135.188c-1.763-.36-3.286-1.487-3.994-2.975-.707 1.488-2.23 2.614-3.993 2.975l-.529-1.02c2.135-.397 3.874-2.064 3.874-3.779v-.815h1.308v.815c0 1.728 1.738 3.395 3.874 3.778l-.54 1.02zm-8.852 3.13h9.811v-1.02h-9.81v1.02zM714.005 135.379h1.175v-6.513h-1.175v6.513zm-2.087-2.843h-1.283v-.995h1.283v-2.494h1.151v6.236h-1.151v-2.747zm-2.723 6.058h4.785v-1.764h-4.785v1.764zm-1.223.983h7.208v-3.73h-7.208v3.73zm3.154-5.014c-1.235.228-2.267.264-3.945.264h-.708v-5.277h4.078v.996h-2.891v1.127h2.494v.947h-2.494v1.224c1.367-.012 2.278-.073 3.346-.264l.12.983z" mask="url(#prefix__b)"/>
                <path fill="#C5C8CF" d="M607.004 229.677L527.246 229.677 527.246 57.138 607.004 57.138 607.004 57.888 527.996 57.888 527.996 228.927 607.004 228.927z" mask="url(#prefix__b)"/>
                <path fill="#C5C8CF" d="M503.354 140.782L527.621 140.782 527.621 140.032 503.354 140.032z" mask="url(#prefix__b)"/>
                <path fill="#C5C8CF" d="M509.408 140.407L509.408 145.17 505.284 142.788 501.16 140.407 505.284 138.026 509.408 135.645z" mask="url(#prefix__b)"/>
                <path fill="#FFF" d="M719.718 57.198c0 31.125-25.231 56.357-56.356 56.357-31.126 0-56.358-25.232-56.358-56.357S632.236.841 663.362.841c31.125 0 56.356 25.232 56.356 56.357M719.718 229.39c0 31.126-25.231 56.358-56.356 56.358-31.126 0-56.358-25.232-56.358-56.357s25.232-56.356 56.358-56.356c31.125 0 56.356 25.23 56.356 56.356" mask="url(#prefix__b)"/>
                <path fill="#C5C8CF" d="M663.361 1.216c-30.869 0-55.982 25.113-55.982 55.982 0 30.87 25.113 55.983 55.982 55.983 30.868 0 55.981-25.113 55.981-55.983 0-30.87-25.113-55.982-55.98-55.982m0 112.715c-31.283 0-56.733-25.45-56.733-56.733 0-31.282 25.45-56.732 56.732-56.732s56.731 25.45 56.731 56.732c0 31.283-25.449 56.733-56.73 56.733" mask="url(#prefix__b)"/>
                <path fill="#E6E8EB" d="M645.721 46.609L645.721 73.126 677.73 73.126 677.73 46.364z" mask="url(#prefix__b)"/>
                <path fill="#000" d="M645.96 72.887h31.53V46.605l-31.53.242v26.04zm32.009.479h-32.488V46.372l32.488-.248v27.242z" mask="url(#prefix__b)"/>
                <path fill="#FFF" d="M678.661 46.805H644.67c-1.298 0-2.36-1.062-2.36-2.36v-5.208c0-1.298 1.062-2.36 2.36-2.36h33.992c1.298 0 2.36 1.062 2.36 2.36v5.208c0 1.298-1.062 2.36-2.36 2.36" mask="url(#prefix__b)"/>
                <path fill="#000" d="M678.661 36.877H644.67c-1.298 0-2.36 1.062-2.36 2.36v5.207c0 1.298 1.062 2.361 2.36 2.361h33.992c1.298 0 2.36-1.063 2.36-2.361v-5.207c0-1.298-1.062-2.36-2.36-2.36m0 .478c1.038 0 1.882.843 1.882 1.882v5.207c0 1.038-.844 1.883-1.882 1.883H644.67c-1.038 0-1.882-.845-1.882-1.883v-5.207c0-1.039.844-1.882 1.882-1.882h33.992" mask="url(#prefix__b)"/>
                <path fill="#FFF" d="M678.661 58.865H644.67c-1.298 0-2.36-1.062-2.36-2.36v-5.207c0-1.299 1.062-2.36 2.36-2.36h33.992c1.298 0 2.36 1.061 2.36 2.36v5.207c0 1.298-1.062 2.36-2.36 2.36" mask="url(#prefix__b)"/>
                <path fill="#000" d="M678.661 48.938H644.67c-1.298 0-2.36 1.061-2.36 2.36v5.206c0 1.3 1.062 2.361 2.36 2.361h33.992c1.298 0 2.36-1.062 2.36-2.36v-5.208c0-1.297-1.062-2.36-2.36-2.36m0 .479c1.038 0 1.882.844 1.882 1.882v5.206c0 1.038-.844 1.884-1.882 1.884H644.67c-1.038 0-1.882-.846-1.882-1.883v-5.208c0-1.037.844-1.881 1.882-1.881h33.992" mask="url(#prefix__b)"/>
                <path fill="#FFF" d="M678.661 70.858H644.67c-1.298 0-2.36-1.062-2.36-2.36v-5.207c0-1.299 1.062-2.36 2.36-2.36h33.992c1.298 0 2.36 1.061 2.36 2.36v5.207c0 1.298-1.062 2.36-2.36 2.36" mask="url(#prefix__b)"/>
                <path fill="#000" d="M678.661 60.93H644.67c-1.298 0-2.36 1.063-2.36 2.36v5.208c0 1.298 1.062 2.36 2.36 2.36h33.992c1.298 0 2.36-1.062 2.36-2.36V63.29c0-1.297-1.062-2.36-2.36-2.36m0 .479c1.038 0 1.882.844 1.882 1.88v5.209c0 1.038-.844 1.883-1.882 1.883H644.67c-1.038 0-1.882-.845-1.882-1.883V63.29c0-1.037.844-1.881 1.882-1.881h33.992" mask="url(#prefix__b)"/>
                <path fill="#0A51B7" d="M668.004 41.84c0 .883-.715 1.598-1.597 1.598s-1.596-.715-1.596-1.597.714-1.598 1.596-1.598c.882 0 1.597.716 1.597 1.598" mask="url(#prefix__b)"/>
                <path fill="#000" d="M666.407 40.243c-.882 0-1.597.715-1.597 1.598 0 .881.715 1.596 1.597 1.596s1.597-.715 1.597-1.596c0-.883-.715-1.598-1.597-1.598m0 .48c.617 0 1.12.5 1.12 1.118 0 .617-.503 1.12-1.12 1.12-.617 0-1.119-.503-1.119-1.12 0-.618.502-1.119 1.12-1.119" mask="url(#prefix__b)"/>
                <path fill="#0A51B7" d="M672.93 41.84c0 .883-.716 1.598-1.598 1.598-.881 0-1.596-.715-1.596-1.597s.715-1.598 1.596-1.598c.882 0 1.598.716 1.598 1.598" mask="url(#prefix__b)"/>
                <path fill="#000" d="M671.332 40.243c-.882 0-1.597.715-1.597 1.598 0 .881.715 1.596 1.597 1.596.883 0 1.598-.715 1.598-1.596 0-.883-.715-1.598-1.598-1.598m0 .48c.617 0 1.119.5 1.119 1.118 0 .617-.502 1.12-1.119 1.12s-1.119-.503-1.119-1.12c0-.618.502-1.119 1.119-1.119" mask="url(#prefix__b)"/>
                <path fill="#0A51B7" d="M677.855 41.84c0 .883-.716 1.598-1.597 1.598-.883 0-1.596-.715-1.596-1.597s.713-1.598 1.596-1.598c.881 0 1.596.716 1.596 1.598" mask="url(#prefix__b)"/>
                <path fill="#000" d="M676.258 40.243c-.882 0-1.597.715-1.597 1.598 0 .881.715 1.596 1.597 1.596s1.597-.715 1.597-1.596c0-.883-.715-1.598-1.597-1.598m0 .48c.617 0 1.119.5 1.119 1.118 0 .617-.502 1.12-1.12 1.12-.616 0-1.118-.503-1.118-1.12 0-.618.502-1.119 1.119-1.119" mask="url(#prefix__b)"/>
                <path fill="#0A51B7" d="M668.004 53.901c0 .882-.715 1.597-1.597 1.597s-1.596-.715-1.596-1.597.714-1.597 1.596-1.597c.882 0 1.597.715 1.597 1.597" mask="url(#prefix__b)"/>
                <path fill="#000" d="M666.407 52.304c-.882 0-1.597.716-1.597 1.598 0 .88.715 1.596 1.597 1.596s1.597-.715 1.597-1.596c0-.882-.715-1.598-1.597-1.598m0 .479c.617 0 1.12.5 1.12 1.119 0 .617-.503 1.119-1.12 1.119-.617 0-1.119-.502-1.119-1.12 0-.617.502-1.118 1.12-1.118" mask="url(#prefix__b)"/>
                <path fill="#0A51B7" d="M672.93 53.901c0 .882-.716 1.597-1.598 1.597-.881 0-1.596-.715-1.596-1.597s.715-1.597 1.596-1.597c.882 0 1.598.715 1.598 1.597" mask="url(#prefix__b)"/>
                <path fill="#000" d="M671.332 52.304c-.882 0-1.597.716-1.597 1.598 0 .88.715 1.596 1.597 1.596.883 0 1.598-.715 1.598-1.596 0-.882-.715-1.598-1.598-1.598m0 .479c.617 0 1.119.5 1.119 1.119 0 .617-.502 1.119-1.119 1.119s-1.119-.502-1.119-1.12c0-.617.502-1.118 1.119-1.118" mask="url(#prefix__b)"/>
                <path fill="#0A51B7" d="M677.855 53.901c0 .882-.716 1.597-1.597 1.597-.883 0-1.596-.715-1.596-1.597s.713-1.597 1.596-1.597c.881 0 1.596.715 1.596 1.597" mask="url(#prefix__b)"/>
                <path fill="#000" d="M676.258 52.304c-.882 0-1.597.716-1.597 1.598 0 .88.715 1.596 1.597 1.596s1.597-.715 1.597-1.596c0-.882-.715-1.598-1.597-1.598m0 .479c.617 0 1.119.5 1.119 1.119 0 .617-.502 1.119-1.12 1.119-.616 0-1.118-.502-1.118-1.12 0-.617.502-1.118 1.119-1.118" mask="url(#prefix__b)"/>
                <path fill="#0A51B7" d="M668.004 65.894c0 .882-.715 1.597-1.597 1.597s-1.596-.715-1.596-1.597.714-1.597 1.596-1.597c.882 0 1.597.716 1.597 1.597" mask="url(#prefix__b)"/>
                <path fill="#000" d="M666.407 64.298c-.882 0-1.597.715-1.597 1.597s.715 1.596 1.597 1.596 1.597-.714 1.597-1.596c0-.882-.715-1.597-1.597-1.597m0 .477c.617 0 1.12.502 1.12 1.12 0 .617-.503 1.119-1.12 1.119-.617 0-1.119-.502-1.119-1.12 0-.617.502-1.12 1.12-1.12" mask="url(#prefix__b)"/>
                <path fill="#0A51B7" d="M672.93 65.894c0 .882-.716 1.597-1.598 1.597-.881 0-1.596-.715-1.596-1.597s.715-1.597 1.596-1.597c.882 0 1.598.716 1.598 1.597" mask="url(#prefix__b)"/>
                <path fill="#000" d="M671.332 64.298c-.882 0-1.597.715-1.597 1.597s.715 1.596 1.597 1.596c.883 0 1.598-.714 1.598-1.596 0-.882-.715-1.597-1.598-1.597m0 .477c.617 0 1.119.502 1.119 1.12 0 .617-.502 1.119-1.119 1.119s-1.119-.502-1.119-1.12c0-.617.502-1.12 1.119-1.12" mask="url(#prefix__b)"/>
                <path fill="#0A51B7" d="M677.855 65.894c0 .882-.716 1.597-1.597 1.597-.883 0-1.596-.715-1.596-1.597s.713-1.597 1.596-1.597c.881 0 1.596.716 1.596 1.597" mask="url(#prefix__b)"/>
                <path fill="#000" d="M676.258 64.298c-.882 0-1.597.715-1.597 1.597s.715 1.596 1.597 1.596 1.597-.714 1.597-1.596c0-.882-.715-1.597-1.597-1.597m0 .477c.617 0 1.119.502 1.119 1.12 0 .617-.502 1.119-1.12 1.119-.616 0-1.118-.502-1.118-1.12 0-.617.502-1.12 1.119-1.12" mask="url(#prefix__b)"/>
                <path fill="#FFF" d="M646.4 39.22L646.4 44.462" mask="url(#prefix__b)"/>
                <path fill="#000" d="M646.161 44.462L646.64 44.462 646.64 39.22 646.161 39.22z" mask="url(#prefix__b)"/>
                <path fill="#FFF" d="M649.108 39.22L649.108 44.462" mask="url(#prefix__b)"/>
                <path fill="#000" d="M648.869 44.462L649.348 44.462 649.348 39.22 648.869 39.22z" mask="url(#prefix__b)"/>
                <path fill="#FFF" d="M651.817 39.22L651.817 44.462" mask="url(#prefix__b)"/>
                <path fill="#000" d="M651.578 44.462L652.057 44.462 652.057 39.22 651.578 39.22z" mask="url(#prefix__b)"/>
                <path fill="#FFF" d="M654.525 39.22L654.525 44.462" mask="url(#prefix__b)"/>
                <path fill="#000" d="M654.286 44.462L654.765 44.462 654.765 39.22 654.286 39.22z" mask="url(#prefix__b)"/>
                <path fill="#FFF" d="M657.234 39.22L657.234 44.462" mask="url(#prefix__b)"/>
                <path fill="#000" d="M656.995 44.462L657.474 44.462 657.474 39.22 656.995 39.22z" mask="url(#prefix__b)"/>
                <path fill="#FFF" d="M659.942 39.22L659.942 44.462" mask="url(#prefix__b)"/>
                <path fill="#000" d="M659.703 44.462L660.182 44.462 660.182 39.22 659.703 39.22z" mask="url(#prefix__b)"/>
                <path fill="#FFF" d="M647.755 39.22L647.755 44.462" mask="url(#prefix__b)"/>
                <path fill="#000" d="M647.515 44.462L647.994 44.462 647.994 39.22 647.515 39.22z" mask="url(#prefix__b)"/>
                <path fill="#FFF" d="M650.463 39.22L650.463 44.462" mask="url(#prefix__b)"/>
                <path fill="#000" d="M650.223 44.462L650.702 44.462 650.702 39.22 650.223 39.22z" mask="url(#prefix__b)"/>
                <path fill="#FFF" d="M653.171 39.22L653.171 44.462" mask="url(#prefix__b)"/>
                <path fill="#000" d="M652.931 44.462L653.41 44.462 653.41 39.22 652.931 39.22z" mask="url(#prefix__b)"/>
                <path fill="#FFF" d="M655.88 39.22L655.88 44.462" mask="url(#prefix__b)"/>
                <path fill="#000" d="M655.64 44.462L656.119 44.462 656.119 39.22 655.64 39.22z" mask="url(#prefix__b)"/>
                <path fill="#FFF" d="M658.588 39.22L658.588 44.462" mask="url(#prefix__b)"/>
                <path fill="#000" d="M658.348 44.462L658.827 44.462 658.827 39.22 658.348 39.22z" mask="url(#prefix__b)"/>
                <path fill="#FFF" d="M646.4 51.28L646.4 56.522" mask="url(#prefix__b)"/>
                <path fill="#000" d="M646.161 56.522L646.64 56.522 646.64 51.28 646.161 51.28z" mask="url(#prefix__b)"/>
                <path fill="#FFF" d="M649.108 51.28L649.108 56.522" mask="url(#prefix__b)"/>
                <path fill="#000" d="M648.869 56.522L649.348 56.522 649.348 51.28 648.869 51.28z" mask="url(#prefix__b)"/>
                <path fill="#FFF" d="M651.817 51.28L651.817 56.522" mask="url(#prefix__b)"/>
                <path fill="#000" d="M651.578 56.522L652.057 56.522 652.057 51.28 651.578 51.28z" mask="url(#prefix__b)"/>
                <path fill="#FFF" d="M654.525 51.28L654.525 56.522" mask="url(#prefix__b)"/>
                <path fill="#000" d="M654.286 56.522L654.765 56.522 654.765 51.28 654.286 51.28z" mask="url(#prefix__b)"/>
                <path fill="#FFF" d="M657.234 51.28L657.234 56.522" mask="url(#prefix__b)"/>
                <path fill="#000" d="M656.995 56.522L657.474 56.522 657.474 51.28 656.995 51.28z" mask="url(#prefix__b)"/>
                <path fill="#FFF" d="M659.942 51.28L659.942 56.522" mask="url(#prefix__b)"/>
                <path fill="#000" d="M659.703 56.522L660.182 56.522 660.182 51.28 659.703 51.28z" mask="url(#prefix__b)"/>
                <path fill="#FFF" d="M647.755 51.28L647.755 56.522" mask="url(#prefix__b)"/>
                <path fill="#000" d="M647.515 56.522L647.994 56.522 647.994 51.28 647.515 51.28z" mask="url(#prefix__b)"/>
                <path fill="#FFF" d="M650.463 51.28L650.463 56.522" mask="url(#prefix__b)"/>
                <path fill="#000" d="M650.223 56.522L650.702 56.522 650.702 51.28 650.223 51.28z" mask="url(#prefix__b)"/>
                <path fill="#FFF" d="M653.171 51.28L653.171 56.522" mask="url(#prefix__b)"/>
                <path fill="#000" d="M652.931 56.522L653.41 56.522 653.41 51.28 652.931 51.28z" mask="url(#prefix__b)"/>
                <path fill="#FFF" d="M655.88 51.28L655.88 56.522" mask="url(#prefix__b)"/>
                <path fill="#000" d="M655.64 56.522L656.119 56.522 656.119 51.28 655.64 51.28z" mask="url(#prefix__b)"/>
                <path fill="#FFF" d="M658.588 51.28L658.588 56.522" mask="url(#prefix__b)"/>
                <path fill="#000" d="M658.348 56.522L658.827 56.522 658.827 51.28 658.348 51.28z" mask="url(#prefix__b)"/>
                <path fill="#FFF" d="M646.4 63.341L646.4 68.583" mask="url(#prefix__b)"/>
                <path fill="#000" d="M646.161 68.583L646.64 68.583 646.64 63.341 646.161 63.341z" mask="url(#prefix__b)"/>
                <path fill="#FFF" d="M649.108 63.341L649.108 68.583" mask="url(#prefix__b)"/>
                <path fill="#000" d="M648.869 68.583L649.348 68.583 649.348 63.341 648.869 63.341z" mask="url(#prefix__b)"/>
                <path fill="#FFF" d="M651.817 63.341L651.817 68.583" mask="url(#prefix__b)"/>
                <path fill="#000" d="M651.578 68.583L652.057 68.583 652.057 63.341 651.578 63.341z" mask="url(#prefix__b)"/>
                <path fill="#FFF" d="M654.525 63.341L654.525 68.583" mask="url(#prefix__b)"/>
                <path fill="#000" d="M654.286 68.583L654.765 68.583 654.765 63.341 654.286 63.341z" mask="url(#prefix__b)"/>
                <path fill="#FFF" d="M657.234 63.341L657.234 68.583" mask="url(#prefix__b)"/>
                <path fill="#000" d="M656.995 68.583L657.474 68.583 657.474 63.341 656.995 63.341z" mask="url(#prefix__b)"/>
                <path fill="#FFF" d="M659.942 63.341L659.942 68.583" mask="url(#prefix__b)"/>
                <path fill="#000" d="M659.703 68.583L660.182 68.583 660.182 63.341 659.703 63.341z" mask="url(#prefix__b)"/>
                <path fill="#FFF" d="M647.755 63.341L647.755 68.583" mask="url(#prefix__b)"/>
                <path fill="#000" d="M647.515 68.583L647.994 68.583 647.994 63.341 647.515 63.341z" mask="url(#prefix__b)"/>
                <path fill="#FFF" d="M650.463 63.341L650.463 68.583" mask="url(#prefix__b)"/>
                <path fill="#000" d="M650.223 68.583L650.702 68.583 650.702 63.341 650.223 63.341z" mask="url(#prefix__b)"/>
                <path fill="#FFF" d="M653.171 63.341L653.171 68.583" mask="url(#prefix__b)"/>
                <path fill="#000" d="M652.931 68.583L653.41 68.583 653.41 63.341 652.931 63.341z" mask="url(#prefix__b)"/>
                <path fill="#FFF" d="M655.88 63.341L655.88 68.583" mask="url(#prefix__b)"/>
                <path fill="#000" d="M655.64 68.583L656.119 68.583 656.119 63.341 655.64 63.341z" mask="url(#prefix__b)"/>
                <path fill="#FFF" d="M658.588 63.341L658.588 68.583" mask="url(#prefix__b)"/>
                <path fill="#000" d="M658.348 68.583L658.827 68.583 658.827 63.341 658.348 63.341z" mask="url(#prefix__b)"/>
                <path fill="#E6E8EB" d="M674.184 63.455s.159-1.01 1.589-1.698 5.016-1.66 9.398-1.057c4.382.606 5.534 1.693 5.534 1.693l.527 1.165-.001 12.814s-.58 1.535-3.518 2.171c-2.94.635-8.79.847-11.596-.45 0 0-1.774-.742-1.933-1.854V63.455z" mask="url(#prefix__b)"/>
                <path fill="#000" d="M674.423 76.228c.12.282 1.365 2.714 8.279 2.714 6.902 0 8.163-2.423 8.289-2.715v-12.85c-.09-.25-1.144-2.628-8.54-2.628-7.728 0-8.027 2.64-8.03 2.667l.002 12.812zm8.279 3.192c-7.714 0-8.708-2.954-8.747-3.079l-.011-.07v-12.87c.007-.14.252-3.13 8.507-3.13 8.217 0 8.985 2.893 9.013 3.017l.007.053-.012 13c-.04.127-1.044 3.079-8.757 3.079z" mask="url(#prefix__b)"/>
                <path fill="#000" d="M682.523 70.907c-7.495 0-8.524-2.76-8.565-2.879l.452-.156c.008.025 1.048 2.598 8.406 2.556 7.342-.07 8.178-2.519 8.185-2.543l.46.13c-.032.115-.869 2.817-8.642 2.891l-.296.001M682.523 75.102c-7.495 0-8.524-2.76-8.565-2.878l.452-.156c.009.025 1.018 2.556 8.115 2.556l.29-.001c7.343-.07 8.18-2.518 8.186-2.542l.46.129c-.032.116-.869 2.817-8.642 2.89-.1.002-.198.002-.296.002M682.523 66.713c-7.495 0-8.524-2.76-8.565-2.88l.452-.155c.009.025 1.018 2.557 8.115 2.557l.29-.001c7.343-.07 8.18-2.52 8.186-2.543l.46.129c-.032.116-.869 2.818-8.642 2.892h-.296" mask="url(#prefix__b)"/>
                <path fill="#C5C8CF" d="M283.765 140.782L398.371 140.782 398.371 140.032 283.765 140.032z" mask="url(#prefix__b)"/>
                <path fill="#C5C8CF" d="M392.396 140.407L392.396 135.645 396.519 138.026 400.644 140.407 396.519 142.788 392.396 145.17zM281.914 153.848L396.52 153.848 396.52 153.098 281.914 153.098z" mask="url(#prefix__b)"/>
                <path fill="#C5C8CF" d="M287.889 153.473L287.889 158.235 283.765 155.854 279.641 153.473 283.765 151.092 287.889 148.711z" mask="url(#prefix__b)"/>
                <path fill="#000" d="M316.9 168.217h-2.196v-.995h2.195v-1.811h1.235v5.565H316.9v-2.76zm1.605 6.933v.97h-7.399v-2.805h5.805v-.864h-5.829v-.96h7.052v2.735h-5.804v.924h6.175zm-3.597-4.354c-1.175-.395-2.039-1.2-2.494-2.207-.48 1.128-1.38 2.003-2.652 2.447l-.634-.971c1.69-.552 2.637-1.908 2.637-3.395v-.911h1.236v.91c0 1.368.935 2.64 2.554 3.167l-.647.96zM327.867 176.276h1.247v-10.865h-1.247v10.865zm-5.864-3.573h2.746v-2.65h-2.746v2.65zm0-6.392v2.757h2.746v-2.757h1.235v7.387h-5.205v-7.387h1.224zM331.268 176.948c.815-.336 1.295-.936 1.308-1.643-.05.012-.084.012-.133.012-.491 0-.923-.31-.923-.888 0-.539.432-.887.959-.887.672 0 1.067.564 1.067 1.487 0 1.26-.731 2.231-1.966 2.7l-.312-.78zM347.51 169.201h-1.535v2.746h-1.236v-6.536h1.236v2.77h1.535v1.02zm-8.66 3.273h7.125v3.78h-1.236v-2.783h-5.888v-.997zm4.402-.959c-1.212-.395-2.075-1.223-2.543-2.254-.48 1.14-1.38 2.026-2.65 2.47l-.648-.97c1.715-.577 2.662-1.956 2.662-3.444v-.19h-2.302v-1.009h5.817v1.008h-2.266v.191c0 1.367.91 2.7 2.566 3.251l-.636.947zM351.713 175.125h4.594v-1.199h-4.594v1.199zm4.594-3.382h1.223v4.378h-7.04v-4.378h1.223v1.224h4.594v-1.224zm-3.143-3.309c0-.924-.695-1.512-1.631-1.512-.959 0-1.642.588-1.642 1.512 0 .911.683 1.522 1.642 1.522.936 0 1.631-.611 1.631-1.522zm4.366-3.011v5.805h-1.235v-2.303h-2.003c-.216 1.223-1.319 2.051-2.759 2.051-1.631 0-2.83-1.043-2.83-2.542 0-1.488 1.199-2.532 2.83-2.532 1.428 0 2.519.804 2.759 2.015h2.003v-2.494h1.235zM369.674 170.712h-1.691v5.54h-1.236v-10.83h1.236v4.27h1.69v1.02zm-6.285-2.146c0 1.678 1.067 3.597 2.71 4.376l-.683.972c-1.212-.575-2.135-1.775-2.627-3.142-.48 1.51-1.44 2.806-2.686 3.419l-.707-.985c1.654-.791 2.757-2.842 2.757-4.64v-1.044h-2.362v-1.02h5.889v1.02h-2.291v1.044zM318.345 192.265h1.235v-10.842h-1.235v10.842zm-5.805-8.108c0 .768.672 1.26 1.607 1.26.948 0 1.608-.492 1.608-1.26 0-.756-.66-1.247-1.608-1.247-.935 0-1.607.491-1.607 1.247zm-1.187 0c0-1.331 1.175-2.266 2.794-2.266 1.62 0 2.795.935 2.795 2.266 0 1.344-1.175 2.28-2.795 2.28-1.619 0-2.794-.936-2.794-2.28zm6.369 3.598c-.948.192-1.944.3-2.903.372v3.802h-1.235v-3.73c-1.02.036-1.98.048-2.818.048l-.145-1.019c1.955 0 4.678-.037 7.017-.384l.084.911zM329.337 192.241h1.248v-10.83h-1.248v10.83zm-3.586-7.376c0 1.703 1.056 3.466 2.734 4.197l-.659.96c-1.235-.54-2.182-1.655-2.675-3.01-.479 1.439-1.426 2.614-2.686 3.19l-.684-.947c1.703-.768 2.735-2.603 2.735-4.39v-.624h-2.399v-.995h2.399v-1.607h1.235v1.607h2.351v.995h-2.351v.624zM344.122 192.241h1.187v-10.83h-1.187v10.83zm-2.207-10.591h1.163v10.087h-1.163v-5.253h-2.135v-1.007h2.135v-3.827zm-4.27 7.065c1.343-.012 2.267-.072 3.334-.3l.108 1.02c-1.223.239-2.278.299-3.934.299h-.731v-7.04h4.101v1.007h-2.878v5.014zM354.765 192.276h1.247v-10.865h-1.247v10.865zm-6.117-6.248c0 1.703.66 2.723 1.595 2.723.947 0 1.608-1.02 1.608-2.723 0-1.678-.661-2.698-1.608-2.698-.935 0-1.595 1.02-1.595 2.698zm4.39 0c0 2.351-1.176 3.826-2.795 3.826-1.607 0-2.782-1.475-2.782-3.826 0-2.327 1.175-3.813 2.782-3.813 1.619 0 2.795 1.486 2.795 3.813zM367.136 181.398v10.866h-1.247V186.4h-2.075v-1.02h2.075v-3.982h1.247zm-7.28 7.328c1.727-.012 2.963-.07 4.378-.31l.108.994c-1.548.276-2.902.324-4.87.324h-.851v-7.376h5.025v1.02h-3.79v2.026h3.346v.983h-3.345v2.34zM316.282 216.037c.084.252.12.516.12.804 0 .288-.036.551-.12.803h2.075v-1.607h-2.075zm3.586 7.005v1.007h-7.292v-3.454h1.235v2.447h6.057zm-6.273-4.523c.924 0 1.631-.67 1.631-1.678 0-.984-.707-1.656-1.63-1.656-.948 0-1.656.672-1.656 1.656 0 1.008.708 1.678 1.655 1.678zm2.16.133c-.504.587-1.272.948-2.16.936-1.607 0-2.83-1.152-2.83-2.747s1.223-2.746 2.83-2.746c.888 0 1.656.36 2.16.935h2.602v-1.596h1.236v7.964h-1.236v-2.746h-2.602zM329.733 224.253h1.187v-10.83h-1.187v10.83zm-2.183-10.566h1.151v10.039h-1.151v-3.647h-1.775v-1.008h1.775v-1.715h-1.583c-.503 1.824-1.643 3.395-3.67 4.606l-.707-.875c2.23-1.356 3.309-3.118 3.489-5.337h-2.962v-.996h4.186c0 .552-.036 1.092-.12 1.596h1.367v-2.663zM344.122 224.241h1.187v-10.83h-1.187v10.83zm-2.207-10.591h1.163v10.087h-1.163v-5.253h-2.135v-1.007h2.135v-3.827zm-4.27 7.065c1.343-.012 2.267-.072 3.334-.3l.108 1.02c-1.223.239-2.278.299-3.934.299h-.731v-7.04h4.101v1.007h-2.878v5.014zM354.765 224.277h1.247v-10.866h-1.247v10.866zm-6.117-6.249c0 1.703.66 2.723 1.595 2.723.947 0 1.608-1.02 1.608-2.723 0-1.678-.661-2.698-1.608-2.698-.935 0-1.595 1.02-1.595 2.698zm4.39 0c0 2.351-1.176 3.826-2.795 3.826-1.607 0-2.782-1.475-2.782-3.826 0-2.327 1.175-3.813 2.782-3.813 1.619 0 2.795 1.486 2.795 3.813zM367.136 213.398v10.866h-1.247V218.4h-2.075v-1.02h2.075v-3.982h1.247zm-7.28 7.328c1.727-.012 2.963-.07 4.378-.31l.108.994c-1.548.276-2.902.324-4.87.324h-.851v-7.376h5.025v1.02h-3.79v2.026h3.346v.983h-3.345v2.34zM305.764 122.313v1.02h-1.44v3.68h-1.247v-8.132h1.248v3.431h1.439zm-7.208 6.187h6.116v1.008h-7.363v-3.215h1.247v2.207zm1.75-5.109c.217-1.163.253-2.015.265-2.686h-4.234v-1.007h5.446v.624c0 .73 0 1.799-.265 3.201l-1.211-.132zm2.196 1.572c-2.255.396-4.81.456-6.692.456l-.132-1.007c.648 0 1.39 0 2.158-.025v-2.219h1.224v2.183c1.127-.047 2.29-.12 3.358-.287l.084.899zM314.525 129.736h1.247v-10.878h-1.247v10.878zm-5.829-3.597c1.715-.013 3.214-.097 4.93-.372l.132 1.007c-1.86.324-3.479.384-5.386.384h-.923v-4.294h3.778v-2.014h-3.802v-1.008h5.05v4.017h-3.779v2.28zM320.744 119.218L321.703 119.218 318.369 130.947 317.409 130.947zM329.92 127.95c0-.553-.851-.828-2.493-.828-1.632 0-2.484.275-2.484.827 0 .576.852.84 2.484.84 1.642 0 2.494-.264 2.494-.84zm1.236 0c0 1.15-1.367 1.762-3.73 1.762-2.351 0-3.73-.612-3.73-1.763 0-1.14 1.379-1.739 3.73-1.739 2.363 0 3.73.6 3.73 1.74zm1.176-3.407v.996h-9.8v-.996h4.283v-.888h-3.023v-4.474h7.376v.95h-6.141v.814h5.877v.923h-5.877v.84h6.213v.947h-3.178v.888h4.27zM341.656 129.7h1.176v-10.83h-1.176v10.83zm-2.182-10.614h1.163v10.099h-1.163v-5.494h-1.595v-1.006h1.595v-3.599zm-2.591 2.77c0 1.848.696 3.718 2.207 4.594l-.72.9c-1.019-.6-1.69-1.667-2.074-2.927-.384 1.367-1.08 2.531-2.123 3.19l-.744-.911c1.535-.96 2.255-2.915 2.255-4.846v-.779h-1.907v-1.019h4.893v1.019h-1.787v.779zM356.057 129.7h1.187v-10.83h-1.187v10.83zm-2.206-10.59h1.163v10.086h-1.163v-5.253h-2.135v-1.006h2.135v-3.827zm-4.271 7.064c1.344-.012 2.268-.071 3.335-.3l.107 1.02c-1.223.24-2.278.299-3.933.299h-.732v-7.04h4.102v1.008h-2.879v5.013zM366.701 129.736h1.247V118.87h-1.247v10.866zm-6.116-6.249c0 1.703.659 2.723 1.595 2.723.947 0 1.607-1.02 1.607-2.723 0-1.678-.66-2.698-1.607-2.698-.936 0-1.595 1.02-1.595 2.698zm4.39 0c0 2.352-1.176 3.826-2.795 3.826-1.608 0-2.783-1.474-2.783-3.826 0-2.326 1.175-3.813 2.783-3.813 1.619 0 2.795 1.487 2.795 3.813zM379.072 118.858v10.866h-1.247v-5.865h-2.075v-1.02h2.075v-3.98h1.247zm-7.279 7.328c1.726-.013 2.962-.072 4.377-.312l.108.996c-1.548.275-2.902.323-4.869.323h-.852v-7.376h5.025v1.02h-3.789v2.027h3.345v.983h-3.345v2.34z" mask="url(#prefix__b)"/>
                <path fill="#C5C8CF" d="M663.322 173.033c-30.869 0-55.982 25.113-55.982 55.982 0 30.87 25.113 55.983 55.982 55.983 30.868 0 55.981-25.113 55.981-55.983 0-30.869-25.113-55.982-55.98-55.982m0 112.715c-31.283 0-56.733-25.45-56.733-56.733 0-31.282 25.45-56.732 56.732-56.732s56.731 25.45 56.731 56.732c0 31.283-25.449 56.733-56.73 56.733" mask="url(#prefix__b)"/>
                <path fill="#FFF" d="M652.643 227.246L645.853 227.246 635.384 246.796 691.259 246.796 680.664 227.246 673.91 227.246" mask="url(#prefix__b)"/>
                <path fill="#231916" d="M691.259 247.132h-55.875c-.118 0-.228-.062-.29-.163-.06-.102-.063-.228-.007-.332l10.469-19.55c.058-.11.173-.177.297-.177h6.79c.185 0 .336.15.336.336 0 .186-.151.336-.336.336h-6.59l-10.107 18.878h54.749l-10.231-18.878h-6.555c-.185 0-.336-.15-.336-.336 0-.185.15-.336.336-.336h6.755c.123 0 .238.068.296.176l10.595 19.55c.057.104.054.23-.007.332-.06.102-.171.164-.29.164" mask="url(#prefix__b)"/>
                <path fill="#231916" d="M662.596 247.156c-.154 0-.293-.106-.328-.263-.427-1.89-1.78-2.222-3.493-2.642-1.79-.439-3.82-.936-5.06-3.412-.446-.89-.845-1.87-1.23-2.819-1.522-3.744-3.095-7.616-8.144-7.616-.185 0-.336-.15-.336-.336 0-.185.15-.336.336-.336 5.5 0 7.236 4.27 8.767 8.034.398.98.774 1.905 1.209 2.772 1.102 2.198 2.889 2.636 4.617 3.06 1.707.417 3.473.85 3.99 3.147.04.182-.073.361-.254.402-.025.006-.05.01-.074.01M679.554 237.928c-6.46 0-9.791-5.913-9.833-5.99-.09-.161-.03-.365.133-.455.163-.091.367-.03.457.133.204.37 5.1 9.027 14.827 4.199.165-.082.368-.015.45.152.083.166.015.368-.151.45-2.185 1.084-4.148 1.51-5.883 1.51" mask="url(#prefix__b)"/>
                <path fill="#231916" d="M670.016 247.132c-.186 0-.336-.15-.336-.336 0-5.755 4.514-8.484 8.14-10.677 2.56-1.548 4.773-2.885 4.773-4.83 0-.184.15-.335.336-.335.186 0 .336.15.336.336 0 2.323-2.361 3.75-5.097 5.404-3.663 2.216-7.816 4.726-7.816 10.102 0 .186-.15.336-.336.336" mask="url(#prefix__b)"/>
                <path fill="#0A51B7" d="M681.962 235.32c-.015-2.02-1.618-3.658-3.617-3.734-1.951-.075-3.685 1.461-3.891 3.402-.13 1.211.41 2.236 1.02 3.184.412.637 1.717 2.226 2.379 3.02.204.245.576.242.775-.006.469-.586 1.312-1.655 2.212-2.872.499-.673 1.13-1.89 1.122-2.994" mask="url(#prefix__b)"/>
                <path fill="#000" d="M678.209 231.92c-1.715 0-3.236 1.367-3.42 3.104-.111 1.04.307 1.938.968 2.966.416.644 1.785 2.303 2.354 2.988.044.052.098.06.127.06h.001c.03 0 .083-.01.126-.062.43-.536 1.288-1.623 2.204-2.862.531-.715 1.063-1.855 1.057-2.792-.014-1.837-1.461-3.33-3.294-3.4l-.123-.002zm.029 9.79c-.249 0-.483-.11-.644-.303-.577-.692-1.966-2.378-2.403-3.052-.639-.994-1.211-2.093-1.072-3.402.227-2.122 2.124-3.797 4.238-3.703 2.195.083 3.925 1.87 3.941 4.067.009 1.166-.635 2.452-1.188 3.198-.922 1.247-1.787 2.34-2.219 2.882-.16.198-.394.312-.645.314h-.008z" mask="url(#prefix__b)"/>
                <path fill="#FFF" d="M680.077 235.333c.008 1.038-.827 1.885-1.865 1.893-1.038.007-1.885-.828-1.893-1.866-.007-1.038.828-1.884 1.865-1.892 1.04-.007 1.885.828 1.893 1.865" mask="url(#prefix__b)"/>
                <path fill="#000" d="M678.197 233.804h-.01c-.85.007-1.537.704-1.532 1.555.007.846.697 1.53 1.542 1.53h.012c.413-.003.8-.166 1.088-.46.29-.293.447-.681.444-1.093-.007-.846-.698-1.532-1.544-1.532m0 3.759c-1.214 0-2.205-.984-2.214-2.2-.009-1.221.978-2.222 2.198-2.231l.016-.001c1.214 0 2.207.985 2.216 2.199.01 1.222-.977 2.223-2.198 2.232h-.018" mask="url(#prefix__b)"/>
                <path fill="#E6E8EB" d="M673.711 230.488L652.85 230.488 654.554 225.461 672.007 225.461z" mask="url(#prefix__b)"/>
                <path fill="#000" d="M653.318 230.152h19.924l-1.477-4.355h-16.97l-1.477 4.355zm20.393.672H652.85c-.108 0-.21-.052-.273-.14-.064-.089-.08-.2-.045-.304l1.704-5.028c.046-.136.174-.227.318-.227h17.453c.145 0 .273.091.32.227l1.703 5.028c.035.103.018.215-.045.304-.063.088-.165.14-.273.14z" mask="url(#prefix__b)"/>
                <path fill="#FFF" d="M671.229 225.46h-15.897v-10.53c0-4.39 3.558-7.948 7.948-7.948 4.39 0 7.949 3.558 7.949 7.948v10.53z" mask="url(#prefix__b)"/>
                <path fill="#000" d="M655.668 225.125h15.225V214.93c0-4.198-3.415-7.613-7.613-7.613-4.197 0-7.612 3.415-7.612 7.613v10.195zm15.561.672h-15.897c-.185 0-.336-.151-.336-.336V214.93c0-4.569 3.716-8.284 8.284-8.284 4.569 0 8.284 3.715 8.284 8.284v10.531c0 .185-.15.336-.335.336z" mask="url(#prefix__b)"/>
                <path fill="#0A51B7" d="M663.333 218.19c-.75 0-1.358-.608-1.358-1.359v-3.94c0-.75.608-1.359 1.358-1.359.751 0 1.358.608 1.358 1.358v3.941c0 .751-.607 1.36-1.358 1.36M663.333 221.724c-.75 0-1.358-.608-1.358-1.358 0-.751.608-1.36 1.358-1.36.751 0 1.358.609 1.358 1.36 0 .75-.607 1.358-1.358 1.358M663.28 198.404L663.28 202.644" mask="url(#prefix__b)"/>
                <path fill="#000" d="M663.28 202.98c-.186 0-.336-.15-.336-.335v-4.24c0-.186.15-.337.336-.337.186 0 .336.15.336.337v4.24c0 .185-.15.335-.336.335" mask="url(#prefix__b)"/>
                <path fill="#0A51B7" d="M676.063 203.846L673.064 206.844" mask="url(#prefix__b)"/>
                <path fill="#000" d="M673.064 207.18c-.085 0-.171-.032-.237-.098-.131-.131-.131-.344 0-.476l2.997-2.998c.134-.131.345-.131.477 0 .13.132.13.344 0 .476l-2.999 2.998c-.066.066-.152.098-.238.098" mask="url(#prefix__b)"/>
                <path fill="#0A51B7" d="M679.341 216.628L675.101 216.628" mask="url(#prefix__b)"/>
                <path fill="#000" d="M679.34 216.964h-4.24c-.185 0-.335-.15-.335-.336 0-.185.15-.336.336-.336h4.24c.186 0 .336.15.336.336 0 .186-.15.336-.336.336" mask="url(#prefix__b)"/>
                <path fill="#0A51B7" d="M647.302 216.628L651.542 216.628" mask="url(#prefix__b)"/>
                <path fill="#000" d="M651.542 216.964h-4.24c-.186 0-.336-.15-.336-.336 0-.185.15-.336.336-.336h4.24c.186 0 .336.15.336.336 0 .186-.15.336-.336.336" mask="url(#prefix__b)"/>
                <path fill="#0A51B7" d="M650.498 203.846L653.496 206.844" mask="url(#prefix__b)"/>
                <path fill="#000" d="M653.496 207.18c-.086 0-.172-.032-.238-.098l-2.998-2.998c-.13-.132-.13-.344 0-.476.132-.131.343-.131.476 0l2.998 2.998c.131.132.131.345 0 .476-.066.066-.152.098-.238.098M651.46 211.75c-.042 0-.085-.009-.127-.025l-2.237-.91c-.172-.069-.255-.265-.185-.438.07-.171.263-.255.439-.185l2.237.91c.172.069.255.265.185.438-.053.13-.179.21-.312.21M675.1 211.75c-.132 0-.258-.08-.311-.21-.07-.173.013-.369.185-.438l2.237-.91c.176-.07.37.014.439.185.07.173-.013.369-.185.438l-2.237.91c-.042.016-.085.025-.127.025M668.473 204.443c-.044 0-.088-.009-.131-.027-.171-.073-.251-.27-.18-.44l.94-2.225c.072-.173.27-.25.44-.179.172.072.252.27.18.44l-.94 2.225c-.053.13-.178.206-.31.206M658.088 204.443c-.131 0-.256-.077-.31-.206l-.94-2.225c-.071-.17.009-.368.18-.44.17-.072.368.006.44.18l.94 2.223c.072.171-.008.368-.18.441-.042.018-.086.027-.13.027" mask="url(#prefix__b)"/>
                <path fill="#0A51B7" d="M33.642 155.337L79.822 155.337 79.822 154.558 33.642 154.558z" mask="url(#prefix__b)"/>
            </g>
        </g>
    </g>
</svg>
