<svg xmlns="http://www.w3.org/2000/svg" xmlns:xlink="http://www.w3.org/1999/xlink" width="780" height="220" viewBox="0 0 780 220">
    <defs>
        <path id="prefix__a" d="M0 160.644L743.336 160.644 743.336 0 0 0z"/>
    </defs>
    <g fill="none" fill-rule="evenodd">
        <path fill="#F8F9FB" d="M0 0H780V220H0z"/>
        <g transform="translate(21 29)">
            <path fill="#FFF" d="M113.089 56.733c0 31.125-25.231 56.357-56.357 56.357C25.607 113.09.375 87.858.375 56.733S25.607.376 56.732.376c31.126 0 56.357 25.232 56.357 56.357"/>
            <path fill="#C5C8CF" d="M56.731.75C25.863.75.751 25.863.751 56.732c0 30.87 25.112 55.983 55.98 55.983 30.87 0 55.982-25.113 55.982-55.983C112.713 25.863 87.6.75 56.731.75m0 112.715c-31.282 0-56.73-25.45-56.73-56.733C0 25.45 25.448 0 56.73 0c31.282 0 56.732 25.45 56.732 56.732 0 31.283-25.45 56.733-56.732 56.733"/>
            <path fill="#007CF7" d="M30.124 65.682L25.785 62.214 25.785 50.992 30.124 47.524z"/>
            <path fill="#6FB6FB" d="M37.84 65.682L42.179 62.214 42.179 50.992 37.84 47.524z"/>
            <path fill="#0065C7" d="M37.84 47.524L33.982 50.058 37.84 52.654zM30.124 47.524L33.981 50.058 30.124 52.654zM37.84 60.552L33.982 63.086 37.84 65.682zM30.124 60.552L33.981 63.086 30.124 65.682z"/>
            <path fill="#273A5B" d="M70.198 60.627L68.023 53.975 66.075 53.975 63.899 60.629 61.938 53.975 59.89 53.975 62.919 63.364 64.83 63.364 67.003 56.614 69.193 63.364 71.123 63.364 74.151 53.975 72.14 53.975zM86.741 54.675c-.624-.663-1.524-.999-2.674-.999-.602 0-1.19.155-1.748.462-.464.257-.833.571-1.1.936v-1.099h-1.884v9.39h1.958v-5.18c0-.74.223-1.383.663-1.913.441-.53.973-.788 1.626-.788 1.404 0 2.103.695 2.138 2.121v5.76h1.96v-5.873c0-1.208-.316-2.155-.939-2.817"/>
            <mask id="prefix__b" fill="#fff">
                <use xlink:href="#prefix__a"/>
            </mask>
            <path fill="#273A5B" d="M75.377 63.365L77.334 63.365 77.334 53.685 75.377 53.685zM75.289 51.898L77.422 51.898 77.422 49.767 75.289 49.767zM62.135 49.756L49.66 49.756 49.66 51.65 54.913 51.65 54.913 63.45 56.882 63.45 56.882 51.65 62.135 51.65z" mask="url(#prefix__b)"/>
            <path fill="#000" d="M35.738 133.305h1.248v-5.554h-1.248v5.554zm1.572 4.209v.972h-7.4v-2.819h5.853v-.887h-5.877v-.959h7.1v2.746h-5.865v.947h6.189zm-3.262-4.449c-1.248-.408-2.159-1.235-2.651-2.303-.492 1.163-1.416 2.063-2.722 2.506l-.613-.982c1.716-.565 2.687-1.967 2.687-3.431v-.815h1.26v.815c0 1.403.971 2.723 2.638 3.238l-.599.972zM46.767 138.606h1.247V127.74h-1.247v10.866zm-3.67-8.18c0 1.99 1.103 3.983 2.806 4.75l-.719.983c-1.247-.588-2.196-1.787-2.687-3.25-.492 1.571-1.451 2.854-2.759 3.49l-.731-1.031c1.727-.78 2.854-2.855 2.854-4.942v-1.775h1.236v1.775zM60.134 130.918v1.02h-1.548v3.657H57.35v-7.844h1.235v3.167h1.548zm-7.16 6.452h6.044v1.007h-7.292v-3.574h1.248v2.567zm2.71-8.792c0 2.867-1.906 4.906-5.061 5.865l-.516-.983c2.483-.755 4.018-2.159 4.234-3.874h-3.778v-1.008h5.12zM73.514 127.74v6.309h-1.235v-2.663h-1.92v-1.007h1.92v-2.64h1.235zm-5.901 9.727h4.689v-1.942h-4.69v1.942zm-1.211.983h7.112v-3.91h-7.112v3.91zm3.969-4.678c-1.2-.42-2.075-1.26-2.53-2.314-.48 1.164-1.391 2.11-2.675 2.554l-.635-.971c1.678-.587 2.662-2.015 2.662-3.49v-.18h-2.29v-.995h5.793v.995H68.44v.18c0 1.343.923 2.698 2.53 3.262l-.6.959zM84.554 127.74v6.14h-1.235v-2.422H81.17v-1.02h2.148v-2.698h1.235zm-5.841 9.714h4.629v-2.146h-4.63v2.146zm-1.212.996h7.053v-4.125H77.5v4.125zm3.647-10.051c0 2.807-1.86 4.75-4.99 5.637l-.503-.983c2.482-.671 3.946-1.98 4.162-3.646H76.23v-1.008h4.917zM21.339 149.928h1.248v-6.189h-1.248v6.189zm-5.913-1.991h2.723v-2.531h-2.723v2.531zm4.27 3.609c.096.888 1.488 1.86 3.491 2.076l-.409.935c-1.715-.204-3.058-.899-3.717-1.835-.661.947-2.028 1.631-3.754 1.835l-.409-.935c2.028-.205 3.431-1.152 3.527-2.076h-3.107v-.947h3.107v-.971h1.26v.971h3.105v.947h-3.094zm-5.481-2.626h5.134v-4.498h-5.134v4.498zM35.8 146.474v-2.723h1.235v6.452H35.8v-2.722h-1.92v-1.007h1.92zm.048 6.068c0-.708-.888-1.09-2.411-1.09-1.547 0-2.422.382-2.422 1.09 0 .707.875 1.091 2.422 1.091 1.523 0 2.41-.384 2.41-1.09zm1.235 0c0 1.295-1.391 2.051-3.646 2.051-2.267 0-3.658-.756-3.658-2.05 0-1.284 1.39-2.05 3.658-2.05 2.255 0 3.646.766 3.646 2.05zm-3.19-2.686c-1.2-.42-2.063-1.272-2.52-2.315-.478 1.187-1.39 2.147-2.674 2.603l-.635-.983c1.679-.6 2.65-2.04 2.65-3.527v-.156h-2.29v-.995h5.793v.995h-2.255v.144c0 1.355.923 2.7 2.542 3.262l-.611.972zM46.767 154.605h1.247v-10.866h-1.247v10.866zm-5.865-3.574h2.746v-2.65h-2.746v2.65zm0-6.393v2.759h2.746v-2.759h1.236v7.389h-5.205v-7.389h1.223zM61.24 149.844h-1.656v-.996h1.655v-1.295h-1.655v-1.008h1.655v-2.794h1.235v8.263H61.24v-2.17zm1.486 3.525v1.008h-7.304v-3.058h1.248v2.05h6.056zm-6.153-3.67c.792 0 1.332-.419 1.332-1.126 0-.697-.54-1.14-1.332-1.14-.779 0-1.319.443-1.319 1.14 0 .707.54 1.126 1.32 1.126zm0 .972c-1.463 0-2.482-.85-2.482-2.098 0-1.26 1.02-2.099 2.482-2.099 1.476 0 2.495.84 2.495 2.1 0 1.246-1.019 2.097-2.495 2.097zm2.963-4.7h-6.009v-.984h2.435v-1.26h1.235v1.26h2.34v.983zM74.51 146.93v1.02h-1.487v3.117h-1.236v-7.304h1.236v3.166h1.487zm-2.662 5.972c0-.528-.804-.79-2.363-.79-1.572 0-2.374.262-2.374.79 0 .515.802.78 2.374.78 1.559 0 2.363-.265 2.363-.78zm-4.03-4.738c.876 0 1.415-.263 1.415-.73 0-.457-.54-.72-1.415-.72-.864 0-1.415.263-1.415.72 0 .467.55.73 1.415.73zm5.277 4.738c0 1.091-1.331 1.691-3.61 1.691-2.29 0-3.622-.6-3.622-1.69 0-1.105 1.332-1.692 3.622-1.692 2.279 0 3.61.587 3.61 1.691zm-2.183-7.376h-6.188v-.91h2.482v-.949h1.247v.948h2.459v.911zm.396 4.725c-2.278.408-4.821.445-6.717.445l-.144-.96c.816 0 1.763 0 2.759-.036v-.756c-1.223-.144-1.967-.684-1.967-1.51 0-.96 1.02-1.536 2.579-1.536 1.559 0 2.579.576 2.579 1.535 0 .815-.744 1.367-1.944 1.511v.708c.936-.048 1.883-.12 2.759-.24l.096.84zM88.91 147.973h-1.487v3.106h-1.236v-7.316h1.236v3.19h1.487v1.02zm-6.692.312c.863 0 1.415-.289 1.415-.768 0-.492-.552-.792-1.415-.792-.864 0-1.415.3-1.415.792 0 .48.551.768 1.415.768zm-2.027 3.274h7.232v3.034h-1.236v-2.05h-5.996v-.984zm5.121-5.997h-6.188v-.9h2.482v-1.007h1.247v1.007h2.46v.9zm.396 4.81c-2.29.407-4.82.42-6.717.431l-.144-.983c.816 0 1.763 0 2.76-.025v-.718c-1.224-.133-1.968-.708-1.968-1.56 0-1.008 1.02-1.619 2.58-1.619 1.558 0 2.578.611 2.578 1.62 0 .851-.744 1.414-1.944 1.56v.67c.936-.048 1.883-.108 2.76-.24l.095.863zM97.672 151.619h1.235v-7.867h-1.235v7.867zm1.547 1.751v1.007h-7.388v-3.549h1.247v2.542h6.141zm-6.153-4.545c.948 0 1.667-.66 1.667-1.644 0-.995-.719-1.642-1.667-1.642-.96 0-1.667.647-1.667 1.642 0 .984.707 1.644 1.667 1.644zm0 1.067c-1.631 0-2.878-1.14-2.878-2.711 0-1.583 1.247-2.71 2.878-2.71s2.867 1.127 2.867 2.71c0 1.571-1.236 2.711-2.867 2.711z" mask="url(#prefix__b)"/>
            <path fill="#C5C8CF" d="M127.712 50.735L313.318 50.735 313.318 49.985 127.712 49.985z" mask="url(#prefix__b)"/>
            <path fill="#C5C8CF" d="M307.343 50.36L307.343 45.598 311.467 47.979 315.591 50.36 311.467 52.741 307.343 55.122zM125.861 63.799L311.467 63.799 311.467 63.049 125.861 63.049z" mask="url(#prefix__b)"/>
            <path fill="#C5C8CF" d="M131.836 63.424L131.836 68.187 127.712 65.806 123.588 63.424 127.712 61.043 131.836 58.662z" mask="url(#prefix__b)"/>
            <path fill="#000" d="M593.455 127.739v6.309h-1.235v-2.663h-1.919v-1.007h1.92v-2.64h1.234zm-5.9 9.727h4.688v-1.942h-4.689v1.942zm-1.212.984h7.112v-3.91h-7.112v3.91zm3.97-4.678c-1.2-.42-2.076-1.26-2.53-2.314-.48 1.163-1.392 2.11-2.676 2.554l-.635-.972c1.678-.587 2.663-2.014 2.663-3.49v-.18h-2.29v-.994h5.792v.994h-2.255v.18c0 1.343.923 2.699 2.53 3.263l-.6.959zM604.495 127.739v6.14h-1.235v-2.421h-2.148v-1.02h2.148v-2.7h1.235zm-5.84 9.715h4.628v-2.146h-4.629v2.146zm-1.213.996h7.053v-4.126h-7.053v4.126zm3.647-10.051c0 2.807-1.86 4.749-4.99 5.637l-.503-.984c2.482-.671 3.946-1.98 4.162-3.645h-3.586v-1.008h4.917zM619.915 130.654v1.019h-1.535v2.999h-1.236v-6.921h1.236v2.903h1.535zm-2.639 6.02c0-.623-.864-.947-2.35-.947-1.488 0-2.352.324-2.352.948 0 .635.864.958 2.352.958 1.486 0 2.35-.323 2.35-.958zm-4.15-3.406c.864 0 1.451-.395 1.451-1.008 0-.634-.587-1.02-1.451-1.02-.863 0-1.439.386-1.439 1.02 0 .613.576 1.008 1.439 1.008zm5.373 3.407c0 1.199-1.367 1.906-3.573 1.906-2.207 0-3.574-.707-3.574-1.906 0-1.188 1.367-1.895 3.574-1.895 2.206 0 3.573.707 3.573 1.895zm-5.373-2.495c-1.559 0-2.626-.755-2.626-1.92 0-1.174 1.067-1.93 2.626-1.93 1.571 0 2.627.756 2.627 1.93 0 1.165-1.056 1.92-2.627 1.92zm3.203-4.306h-6.393v-.983h2.579v-1.224h1.235v1.224h2.579v.983zM623.411 130.954h4.881v-1.787h-4.881v1.787zm-1.355 4.149h7.496v3.478h-1.236v-2.483h-6.26v-.995zm8.707-1.955v.995h-9.811v-.995h4.27v-1.211h-3.023v-3.754h7.305v3.754h-3.035v1.211h4.294zM632.028 139.277c.815-.336 1.295-.936 1.308-1.644-.049.012-.084.012-.133.012-.49 0-.923-.31-.923-.887 0-.54.432-.887.96-.887.671 0 1.066.563 1.066 1.487 0 1.26-.73 2.23-1.966 2.698l-.312-.78zM646.017 130.473v-2.723h1.235v6.453h-1.235v-2.722h-1.92v-1.008h1.92zm.048 6.07c0-.709-.888-1.092-2.411-1.092-1.547 0-2.422.383-2.422 1.091s.875 1.091 2.422 1.091c1.523 0 2.41-.383 2.41-1.09zm1.235 0c0 1.294-1.391 2.05-3.646 2.05-2.267 0-3.658-.756-3.658-2.05 0-1.284 1.39-2.05 3.658-2.05 2.255 0 3.646.766 3.646 2.05zm-3.19-2.687c-1.2-.42-2.063-1.272-2.52-2.315-.478 1.188-1.39 2.147-2.674 2.602l-.635-.982c1.679-.6 2.65-2.04 2.65-3.527v-.156h-2.29v-.995h5.793v.995h-2.255v.143c0 1.356.923 2.7 2.542 3.263l-.611.972zM656.984 138.605h1.247v-10.866h-1.247v10.866zm-5.864-3.573h2.746v-2.651h-2.746v2.651zm0-6.393v2.758h2.746v-2.758h1.236v7.388h-5.206v-7.388h1.224zM667.356 133.304h2.494v-3.538h-2.494v3.538zm-1.236-3.538h-1.596v-.996h8.144v.996h-1.595v3.538h1.572v1.007h-8.084v-1.007h1.559v-3.538zm-2.411 7.484h9.835v-1.02h-9.835v1.02zM684.571 136.291L684.571 137.31 674.76 137.31 674.76 136.291 679.03 136.291 679.03 134.444 675.948 134.444 675.948 130.953 682.184 130.953 682.184 129.502 675.925 129.502 675.925 128.506 683.408 128.506 683.408 131.936 677.16 131.936 677.16 133.447 683.648 133.447 683.648 134.444 680.265 134.444 680.265 136.291zM693.873 138.581h1.175v-10.83h-1.175v10.83zm-2.207-10.625h1.163v10.122h-1.163v-5.53h-1.596v-1.007h1.596v-3.585zm-2.543 2.685c0 1.752.66 3.586 2.111 4.498l-.696.959c-.983-.6-1.631-1.654-2.003-2.866-.384 1.331-1.091 2.471-2.135 3.106l-.754-.935c1.535-.911 2.278-2.855 2.278-4.701v-1.955h1.199v1.894zM705.692 134.059c-1.763-.359-3.286-1.486-3.994-2.974-.707 1.488-2.23 2.615-3.993 2.974l-.529-1.02c2.135-.394 3.874-2.062 3.874-3.777v-.815h1.308v.815c0 1.727 1.74 3.395 3.874 3.777l-.54 1.02zm-8.852 3.131h9.811v-1.02h-9.81v1.02zM718.905 138.605h1.247v-10.866h-1.247v10.866zm-3.67-8.179c0 1.99 1.104 3.982 2.807 4.749l-.72.984c-1.247-.588-2.195-1.787-2.686-3.25-.492 1.57-1.451 2.853-2.759 3.49l-.731-1.031c1.727-.781 2.854-2.856 2.854-4.942v-1.775h1.235v1.775zM732.273 131.421h-1.536v2.65h-1.236v-6.333h1.236v2.663h1.536v1.02zm-8.66 3.13h7.124v4.042h-1.236v-3.046h-5.887v-.996zm4.138-6.152c0 2.806-1.86 4.761-5.05 5.613l-.504-.973c2.543-.646 4.03-1.99 4.246-3.645h-3.73v-.995h5.038zM743.336 133.292h-1.547v5.288h-1.235v-10.842h1.235v4.534h1.547v1.02zm-6.716.335c.852 0 1.427-.407 1.427-1.066 0-.672-.575-1.08-1.427-1.08-.851 0-1.44.409-1.44 1.08 0 .66.589 1.066 1.44 1.066zm3.202-3.633h-6.44V129h2.614v-1.224h1.236v1.224h2.59v.995zm-2.59 5.54c.923-.047 1.846-.107 2.71-.238l.096.91c-2.314.407-4.821.433-6.681.433l-.167-1.02c.828 0 1.798 0 2.806-.036v-1.055c-1.2-.204-1.978-.935-1.978-1.966 0-1.225 1.054-2.029 2.602-2.029 1.535 0 2.59.805 2.59 2.029 0 1.03-.78 1.773-1.978 1.965v1.008zM602.328 150.593L599.738 150.593 599.738 149.43 606.322 149.43 606.322 150.593 603.72 150.593 603.72 158.257 602.328 158.257zM607.116 151.66h1.128l.107 1.188h.036c.468-.851 1.165-1.355 1.872-1.355.324 0 .54.048.744.145l-.252 1.199c-.229-.072-.397-.11-.66-.11-.539 0-1.188.373-1.607 1.417v4.114h-1.368v-6.597zM616.223 154.971c0-1.403-.647-2.339-1.691-2.339-1.032 0-1.68.936-1.68 2.34 0 1.391.648 2.313 1.68 2.313 1.044 0 1.69-.922 1.69-2.314m-4.796 0c0-2.207 1.475-3.479 3.106-3.479 1.63 0 3.106 1.272 3.106 3.48 0 2.182-1.475 3.441-3.106 3.441-1.631 0-3.106-1.259-3.106-3.442M619.178 155.811v-4.15h1.379v3.982c0 1.139.323 1.583 1.103 1.583.612 0 1.032-.288 1.583-.983v-4.582h1.379v6.596h-1.127l-.108-.995h-.036c-.6.695-1.247 1.152-2.158 1.152-1.404 0-2.015-.924-2.015-2.603M631.188 154.875c0-1.38-.444-2.23-1.548-2.23-.515 0-1.02.263-1.57.802v3.227c.502.443 1.03.6 1.438.6.96 0 1.68-.852 1.68-2.399m-3.239 2.698h-.035l-.132.684h-1.08v-9.559h1.367v2.531l-.035 1.127c.563-.492 1.27-.864 1.966-.864 1.667 0 2.615 1.332 2.615 3.36 0 2.265-1.356 3.561-2.844 3.561-.6 0-1.258-.3-1.822-.84M634.249 156.71v-8.012h1.368v8.083c0 .372.167.504.335.504.061 0 .109 0 .229-.023l.179 1.043c-.168.06-.408.108-.743.108-.996 0-1.368-.636-1.368-1.703M641.867 154.371c0-1.14-.516-1.799-1.475-1.799-.828 0-1.559.636-1.69 1.8h3.165zm-4.51.6c0-2.147 1.464-3.478 3.011-3.478 1.751 0 2.686 1.26 2.686 3.13 0 .264-.023.54-.059.696h-4.282c.108 1.26.9 2.014 2.04 2.014.587 0 1.091-.18 1.57-.49l.48.875c-.612.407-1.368.696-2.23.696-1.788 0-3.216-1.271-3.216-3.442zM647.426 149.43h1.596l1.619 4.462c.203.587.384 1.186.587 1.787h.06c.204-.6.372-1.2.575-1.787l1.596-4.462h1.607v8.827h-1.295v-4.365c0-.792.108-1.932.179-2.734h-.047l-.707 2.038-1.536 4.21h-.864l-1.547-4.21-.695-2.038h-.048c.06.802.168 1.942.168 2.734v4.365h-1.248v-8.827zM661.308 154.371c0-1.14-.516-1.799-1.475-1.799-.828 0-1.56.636-1.691 1.8h3.166zm-4.51.6c0-2.147 1.464-3.478 3.01-3.478 1.752 0 2.687 1.26 2.687 3.13 0 .264-.023.54-.06.696h-4.281c.108 1.26.899 2.014 2.039 2.014.588 0 1.092-.18 1.57-.49l.48.875c-.611.407-1.367.696-2.23.696-1.787 0-3.214-1.271-3.214-3.442zM664.046 151.66h1.128l.107.925h.036c.564-.6 1.224-1.092 2.04-1.092.983 0 1.535.456 1.823 1.212.647-.696 1.319-1.212 2.146-1.212 1.38 0 2.028.936 2.028 2.615v4.15h-1.38v-3.982c0-1.14-.36-1.595-1.103-1.595-.456 0-.935.299-1.487.899v4.678h-1.38v-3.982c0-1.14-.348-1.595-1.104-1.595-.443 0-.935.299-1.486.899v4.678h-1.368v-6.597zM679.68 154.971c0-1.403-.647-2.339-1.691-2.339-1.032 0-1.68.936-1.68 2.34 0 1.391.648 2.313 1.68 2.313 1.044 0 1.69-.922 1.69-2.314m-4.796 0c0-2.207 1.475-3.479 3.106-3.479 1.63 0 3.106 1.272 3.106 3.48 0 2.182-1.475 3.441-3.106 3.441-1.631 0-3.106-1.259-3.106-3.442M682.742 154.503c0-2.362.66-4.317 1.775-6.129l.864.372c-1.032 1.727-1.512 3.754-1.512 5.757 0 2.015.48 4.042 1.512 5.757l-.864.384c-1.115-1.824-1.775-3.754-1.775-6.14M688.896 150.593L686.307 150.593 686.307 149.43 692.89 149.43 692.89 150.593 690.288 150.593 690.288 158.257 688.896 158.257zM694.417 149.43h1.596l1.619 4.462c.203.587.384 1.186.587 1.787h.06c.204-.6.372-1.2.575-1.787l1.596-4.462h1.607v8.827h-1.295v-4.365c0-.792.108-1.932.179-2.734h-.047l-.707 2.038-1.536 4.21h-.864l-1.547-4.21-.695-2.038h-.048c.06.802.168 1.942.168 2.734v4.365h-1.248v-8.827zM703.766 160.26c1.03-1.715 1.51-3.742 1.51-5.757 0-2.003-.48-4.03-1.51-5.757l.863-.372c1.128 1.812 1.787 3.767 1.787 6.13 0 2.386-.66 4.317-1.787 6.14l-.863-.384zM720.764 150.57v1.02h-1.522v2.314h-1.236v-5.553h1.236v2.219h1.522zm-8.371 1.99h2.65v-1.38h-2.65v1.38zm1.092 5.554h6.116v.97h-7.328v-2.841h5.745v-.9h-5.77v-.96h6.994v2.77h-5.757v.96zm2.782-4.57h-5.11v-4.738h1.236v1.428h2.65v-1.428h1.224v4.738zM728.686 154.815h-1.152v-6.272h1.152v2.626h1.127v-2.831h1.176v6.837h-1.176v-2.986h-1.127v2.626zm1.127 2.435c0-.648-.864-.984-2.423-.984-1.547 0-2.433.336-2.433.984 0 .648.886.996 2.433.996 1.56 0 2.423-.348 2.423-.996zm1.236 0c0 1.223-1.367 1.93-3.659 1.93-2.29 0-3.67-.707-3.67-1.93 0-1.223 1.38-1.92 3.67-1.92 2.292 0 3.659.697 3.659 1.92zm-6.572-3.407c.719 0 1.222-.382 1.222-.97s-.503-.972-1.222-.972c-.732 0-1.212.384-1.212.972s.48.97 1.212.97zm0 .9c-1.356 0-2.315-.743-2.315-1.87 0-1.116.96-1.871 2.314-1.871 1.367 0 2.327.755 2.327 1.87 0 1.128-.96 1.872-2.327 1.872zm2.686-4.21h-5.398v-.971h2.1v-1.115h1.212v1.115h2.086v.972zM170.679 75.36v6.309h-1.235v-2.663h-1.92v-1.007h1.92v-2.64h1.235zm-5.901 9.727h4.689v-1.943h-4.69v1.943zm-1.211.983h7.112v-3.91h-7.112v3.91zm3.969-4.677c-1.2-.42-2.075-1.26-2.53-2.315-.48 1.163-1.391 2.11-2.675 2.554l-.635-.971c1.678-.588 2.662-2.015 2.662-3.49v-.18h-2.29v-.995h5.793v.995h-2.255v.18c0 1.343.923 2.699 2.53 3.262l-.6.96zM181.719 75.36v6.14h-1.235v-2.422h-2.148v-1.02h2.148V75.36h1.235zm-5.841 9.715h4.629v-2.146h-4.63v2.146zm-1.212.995h7.053v-4.126h-7.053v4.126zm3.647-10.05c0 2.806-1.86 4.749-4.99 5.637l-.503-.985c2.482-.67 3.946-1.978 4.162-3.645h-3.586V76.02h4.917zM194.823 81.548h1.248V75.36h-1.248v6.188zm-5.912-1.991h2.723v-2.53h-2.723v2.53zm4.27 3.61c.095.888 1.487 1.859 3.49 2.076l-.408.935c-1.715-.204-3.059-.9-3.718-1.836-.66.948-2.027 1.632-3.754 1.836l-.408-.935c2.027-.204 3.43-1.153 3.526-2.076h-3.106v-.947h3.106v-.972h1.26v.972h3.105v.947h-3.093zm-5.482-2.626h5.134v-4.498h-5.134v4.498zM209.284 78.094v-2.723h1.235v6.453h-1.235v-2.722h-1.919v-1.008h1.92zm.048 6.068c0-.707-.888-1.09-2.41-1.09-1.548 0-2.423.383-2.423 1.09 0 .708.875 1.092 2.422 1.092 1.523 0 2.411-.384 2.411-1.092zm1.235 0c0 1.295-1.39 2.051-3.646 2.051-2.267 0-3.658-.756-3.658-2.05 0-1.284 1.391-2.05 3.658-2.05 2.255 0 3.646.766 3.646 2.05zm-3.19-2.685c-1.199-.42-2.063-1.272-2.519-2.316-.479 1.188-1.39 2.148-2.675 2.603l-.635-.983c1.68-.6 2.651-2.04 2.651-3.527v-.156h-2.29v-.994h5.792v.994h-2.255v.144c0 1.356.923 2.7 2.542 3.262l-.61.973zM220.252 86.225h1.247V75.36h-1.247v10.865zm-5.864-3.573h2.746v-2.65h-2.746v2.65zm0-6.393v2.759h2.746v-2.759h1.235v7.388h-5.205v-7.388h1.224zM234.725 81.464h-1.655v-.995h1.655v-1.295h-1.655v-1.008h1.655v-2.795h1.235v8.264h-1.235v-2.17zm1.487 3.526v1.008h-7.304V82.94h1.248v2.05h6.056zm-6.153-3.67c.792 0 1.332-.419 1.332-1.127 0-.696-.54-1.14-1.332-1.14-.78 0-1.32.444-1.32 1.14 0 .708.54 1.127 1.32 1.127zm0 .971c-1.463 0-2.482-.85-2.482-2.098 0-1.259 1.019-2.099 2.482-2.099 1.476 0 2.495.84 2.495 2.1 0 1.246-1.02 2.097-2.495 2.097zm2.963-4.7h-6.01v-.984h2.436v-1.259h1.235v1.26h2.339v.982zM247.995 78.55v1.02h-1.487v3.118h-1.236v-7.305h1.236v3.166h1.487zm-2.662 5.973c0-.529-.804-.792-2.363-.792-1.572 0-2.374.263-2.374.792 0 .515.802.78 2.374.78 1.56 0 2.363-.265 2.363-.78zm-4.03-4.738c.876 0 1.415-.263 1.415-.732 0-.455-.539-.719-1.415-.719-.864 0-1.415.264-1.415.72 0 .468.551.731 1.415.731zm5.277 4.738c0 1.09-1.33 1.69-3.61 1.69-2.29 0-3.622-.6-3.622-1.69 0-1.104 1.332-1.692 3.622-1.692 2.28 0 3.61.588 3.61 1.692zm-2.183-7.376h-6.188v-.912h2.482v-.948h1.247v.948h2.46v.912zm.396 4.724c-2.278.408-4.82.445-6.717.445l-.144-.96c.816 0 1.763 0 2.76-.036v-.755c-1.224-.145-1.968-.684-1.968-1.512 0-.959 1.02-1.535 2.58-1.535 1.558 0 2.578.576 2.578 1.535 0 .816-.744 1.367-1.944 1.512v.707c.936-.047 1.883-.119 2.76-.24l.095.84zM260.489 86.19h1.187V75.36h-1.187v10.83zm-2.207-10.59h1.163v10.086h-1.163v-5.253h-2.135v-1.008h2.135V75.6zm-4.27 7.064c1.343-.012 2.267-.072 3.335-.3l.107 1.019c-1.224.24-2.278.3-3.933.3h-.732v-7.04h4.102v1.008h-2.879v5.013zM271.133 86.225h1.247V75.36h-1.247v10.865zm-6.116-6.248c0 1.703.659 2.723 1.594 2.723.948 0 1.608-1.02 1.608-2.723 0-1.679-.66-2.698-1.608-2.698-.935 0-1.594 1.019-1.594 2.698zm4.389 0c0 2.352-1.176 3.826-2.795 3.826-1.607 0-2.782-1.474-2.782-3.826 0-2.326 1.175-3.813 2.782-3.813 1.619 0 2.795 1.487 2.795 3.813zM283.504 75.348v10.865h-1.247V80.35h-2.075v-1.02h2.075v-3.98h1.247zm-7.28 7.328c1.727-.013 2.963-.072 4.378-.312l.108.996c-1.548.275-2.902.323-4.87.323h-.851v-7.376h5.025v1.02h-3.79v2.027h3.346v.982h-3.345v2.34zM199.428 96.215L196.838 96.215 196.838 95.051 203.422 95.051 203.422 96.215 200.82 96.215 200.82 103.878 199.428 103.878zM204.948 95.051h1.596l1.62 4.461c.202.588.383 1.187.586 1.787h.06c.204-.6.372-1.199.575-1.787l1.596-4.46h1.607v8.826h-1.295v-4.366c0-.79.108-1.93.18-2.734h-.048l-.707 2.04-1.536 4.21h-.864l-1.547-4.21-.695-2.04h-.048c.06.804.168 1.943.168 2.734v4.366h-1.248v-8.827zM225.117 104.79h1.187V93.96h-1.187v10.83zM222.91 94.2h1.163v10.086h-1.163v-5.252h-2.135v-1.008h2.135V94.2zm-4.27 7.064c1.343-.012 2.267-.072 3.335-.301l.107 1.02c-1.223.24-2.278.301-3.934.301h-.731v-7.041h4.102v1.007h-2.879v5.014zM235.761 104.826h1.247V93.96h-1.247v10.866zm-6.116-6.249c0 1.703.659 2.722 1.594 2.722.948 0 1.608-1.019 1.608-2.722 0-1.678-.66-2.698-1.608-2.698-.935 0-1.594 1.02-1.594 2.698zm4.389 0c0 2.351-1.176 3.826-2.795 3.826-1.607 0-2.782-1.475-2.782-3.826 0-2.327 1.175-3.814 2.782-3.814 1.619 0 2.795 1.487 2.795 3.814zM248.132 93.948v10.866h-1.247V98.95h-2.075v-1.02h2.075v-3.982h1.247zm-7.28 7.328c1.727-.012 2.963-.072 4.378-.312l.108.996c-1.548.275-2.902.324-4.87.324h-.851v-7.377h5.025v1.02h-3.79v2.027h3.346v.983h-3.345v2.339zM183.357 31.075L180.767 31.075 180.767 29.911 187.351 29.911 187.351 31.075 184.749 31.075 184.749 38.738 183.357 38.738zM188.878 29.91h1.596l1.619 4.462c.203.588.384 1.187.587 1.787h.06c.204-.6.372-1.2.575-1.787l1.596-4.461h1.607v8.827h-1.295v-4.366c0-.791.108-1.93.179-2.734h-.047l-.707 2.039-1.536 4.21h-.864l-1.547-4.21-.695-2.04h-.048c.06.805.168 1.944.168 2.735v4.366h-1.248V29.91zM212.922 28.819v10.83h-1.176v-5.541h-1.283v5.014H209.3V29.048h1.163V33.1h1.283v-4.282h1.176zm-7.664 7.244c1.247-.012 2.23-.072 3.347-.3l.107 1.02c-1.307.252-2.423.3-3.945.3h-.72v-6.968h4.006v1.007h-2.795v4.94zM217.126 37.718c0 .66.887 1.007 2.471 1.007 1.583 0 2.482-.348 2.482-1.007 0-.659-.899-1.007-2.482-1.007-1.584 0-2.471.348-2.471 1.007zm-.097-6.536c0 .707.984 1.115 2.591 1.115 1.608 0 2.579-.408 2.579-1.115 0-.72-.971-1.127-2.579-1.127-1.607 0-2.591.407-2.591 1.127zm6.297 6.536c0 1.247-1.391 1.955-3.729 1.955-2.327 0-3.731-.708-3.731-1.955s1.404-1.967 3.731-1.967c2.338 0 3.729.72 3.729 1.967zm.156-6.536c0 1.295-1.511 2.087-3.862 2.087-2.362 0-3.861-.792-3.861-2.087 0-1.308 1.499-2.1 3.861-2.1 2.351 0 3.862.792 3.862 2.1zm-8.767 3.813h9.799V34h-9.799v.995zM237.187 39.649h1.187v-10.83h-1.187v10.83zm-2.207-10.59h1.164v10.086h-1.164v-5.252h-2.134v-1.008h2.134v-3.826zm-4.27 7.064c1.344-.011 2.268-.072 3.335-.3l.107 1.019c-1.222.24-2.278.301-3.933.301h-.732v-7.041h4.102v1.008h-2.879v5.013zM247.831 39.685h1.247V28.819h-1.247v10.866zm-6.116-6.249c0 1.703.659 2.723 1.595 2.723.947 0 1.607-1.02 1.607-2.723 0-1.678-.66-2.697-1.607-2.697-.936 0-1.595 1.019-1.595 2.697zm4.389 0c0 2.352-1.175 3.826-2.794 3.826-1.608 0-2.783-1.474-2.783-3.826 0-2.326 1.175-3.813 2.783-3.813 1.619 0 2.794 1.487 2.794 3.813zM260.202 28.807v10.866h-1.247V33.81h-2.075v-1.02h2.075v-3.982h1.247zm-7.279 7.328c1.726-.012 2.962-.072 4.377-.312l.108.996c-1.548.275-2.902.324-4.869.324h-.852v-7.377h5.025v1.02h-3.789v2.027h3.345v.983h-3.345v2.34z" mask="url(#prefix__b)"/>
            <path fill="#C5C8CF" d="M421.102 50.735L594.709 50.735 594.709 49.985 421.102 49.985z" mask="url(#prefix__b)"/>
            <path fill="#C5C8CF" d="M588.733 50.36L588.733 45.598 592.857 47.979 596.981 50.36 592.857 52.741 588.733 55.122zM419.25 63.799L592.857 63.799 592.857 63.049 419.25 63.049z" mask="url(#prefix__b)"/>
            <path fill="#C5C8CF" d="M425.226 63.424L425.226 68.187 421.102 65.806 416.978 63.424 421.102 61.043 425.226 58.662z" mask="url(#prefix__b)"/>
            <path fill="#000" d="M455.068 75.36v6.309h-1.235v-2.663h-1.919v-1.007h1.92v-2.64h1.234zm-5.9 9.727h4.688v-1.943h-4.689v1.943zm-1.212.983h7.112v-3.91h-7.112v3.91zm3.97-4.677c-1.2-.42-2.076-1.26-2.53-2.315-.48 1.163-1.392 2.11-2.676 2.554l-.635-.971c1.678-.588 2.662-2.015 2.662-3.49v-.18h-2.29v-.995h5.793v.995h-2.255v.18c0 1.343.923 2.699 2.53 3.262l-.6.96zM466.108 75.36v6.14h-1.235v-2.422h-2.148v-1.02h2.148V75.36h1.235zm-5.84 9.715h4.628v-2.146h-4.629v2.146zm-1.213.995h7.053v-4.126h-7.053v4.126zm3.647-10.05c0 2.806-1.86 4.749-4.99 5.637l-.503-.985c2.482-.67 3.946-1.978 4.162-3.645h-3.586V76.02h4.917zM479.213 81.548h1.248V75.36h-1.248v6.188zm-5.913-1.991h2.723v-2.53H473.3v2.53zm4.27 3.61c.096.888 1.488 1.859 3.491 2.076l-.409.935c-1.715-.204-3.058-.9-3.717-1.836-.661.948-2.028 1.632-3.754 1.836l-.409-.935c2.028-.204 3.431-1.153 3.527-2.076h-3.107v-.947h3.107v-.972h1.26v.972h3.105v.947h-3.094zm-5.481-2.626h5.134v-4.498h-5.134v4.498zM493.674 78.094v-2.723h1.235v6.453h-1.235v-2.722h-1.92v-1.008h1.92zm.048 6.068c0-.707-.888-1.09-2.411-1.09-1.547 0-2.422.383-2.422 1.09 0 .708.875 1.092 2.422 1.092 1.523 0 2.41-.384 2.41-1.092zm1.235 0c0 1.295-1.391 2.051-3.646 2.051-2.267 0-3.658-.756-3.658-2.05 0-1.284 1.39-2.05 3.658-2.05 2.255 0 3.646.766 3.646 2.05zm-3.19-2.685c-1.2-.42-2.063-1.272-2.52-2.316-.478 1.188-1.39 2.148-2.674 2.603l-.635-.983c1.679-.6 2.65-2.04 2.65-3.527v-.156h-2.29v-.994h5.793v.994h-2.255v.144c0 1.356.923 2.7 2.542 3.262l-.611.973zM504.642 86.225h1.247V75.36h-1.247v10.865zm-5.865-3.573h2.746v-2.65h-2.746v2.65zm0-6.393v2.759h2.746v-2.759h1.236v7.388h-5.205v-7.388h1.223zM519.114 81.464h-1.655v-.995h1.655v-1.295h-1.655v-1.008h1.655v-2.795h1.235v8.264h-1.235v-2.17zm1.487 3.526v1.008h-7.304V82.94h1.248v2.05h6.056zm-6.153-3.67c.792 0 1.332-.419 1.332-1.127 0-.696-.54-1.14-1.332-1.14-.779 0-1.319.444-1.319 1.14 0 .708.54 1.127 1.32 1.127zm0 .971c-1.463 0-2.482-.85-2.482-2.098 0-1.259 1.02-2.099 2.482-2.099 1.476 0 2.495.84 2.495 2.1 0 1.246-1.019 2.097-2.495 2.097zm2.963-4.7h-6.009v-.984h2.435v-1.259h1.235v1.26h2.34v.982zM532.385 78.55v1.02h-1.487v3.118h-1.236v-7.305h1.236v3.166h1.487zm-2.662 5.973c0-.529-.804-.792-2.363-.792-1.572 0-2.374.263-2.374.792 0 .515.802.78 2.374.78 1.559 0 2.363-.265 2.363-.78zm-4.03-4.738c.876 0 1.415-.263 1.415-.732 0-.455-.54-.719-1.415-.719-.864 0-1.415.264-1.415.72 0 .468.55.731 1.415.731zm5.277 4.738c0 1.09-1.331 1.69-3.61 1.69-2.29 0-3.622-.6-3.622-1.69 0-1.104 1.332-1.692 3.622-1.692 2.279 0 3.61.588 3.61 1.692zm-2.183-7.376h-6.188v-.912h2.482v-.948h1.247v.948h2.459v.912zm.396 4.724c-2.278.408-4.821.445-6.717.445l-.144-.96c.816 0 1.763 0 2.759-.036v-.755c-1.223-.145-1.967-.684-1.967-1.512 0-.959 1.02-1.535 2.579-1.535 1.559 0 2.579.576 2.579 1.535 0 .816-.744 1.367-1.944 1.512v.707c.936-.047 1.883-.119 2.759-.24l.096.84zM544.878 86.19h1.187V75.36h-1.187v10.83zm-2.206-10.59h1.163v10.086h-1.163v-5.253h-2.135v-1.008h2.135V75.6zm-4.271 7.064c1.344-.012 2.268-.072 3.335-.3l.108 1.019c-1.224.24-2.279.3-3.934.3h-.731v-7.04h4.101v1.008h-2.879v5.013zM555.523 86.225h1.247V75.36h-1.247v10.865zm-6.117-6.248c0 1.703.659 2.723 1.595 2.723.947 0 1.607-1.02 1.607-2.723 0-1.679-.66-2.698-1.607-2.698-.936 0-1.595 1.019-1.595 2.698zm4.39 0c0 2.352-1.176 3.826-2.795 3.826-1.607 0-2.782-1.474-2.782-3.826 0-2.326 1.175-3.813 2.782-3.813 1.619 0 2.795 1.487 2.795 3.813zM567.894 75.348v10.865h-1.247V80.35h-2.075v-1.02h2.075v-3.98h1.247zm-7.28 7.328c1.727-.013 2.963-.072 4.378-.312l.108.996c-1.548.275-2.902.323-4.87.323h-.851v-7.376h5.025v1.02h-3.79v2.027h3.346v.982h-3.345v2.34zM483.817 96.215L481.227 96.215 481.227 95.051 487.811 95.051 487.811 96.215 485.209 96.215 485.209 103.878 483.817 103.878zM489.338 95.051h1.596l1.619 4.461c.203.588.384 1.187.587 1.787h.06c.204-.6.372-1.199.575-1.787l1.596-4.46h1.607v8.826h-1.295v-4.366c0-.79.108-1.93.179-2.734h-.047l-.707 2.04-1.536 4.21h-.864l-1.547-4.21-.695-2.04h-.048c.06.804.168 1.943.168 2.734v4.366h-1.248v-8.827zM509.506 104.79h1.187V93.96h-1.187v10.83zM507.3 94.2h1.163v10.086H507.3v-5.252h-2.135v-1.008h2.135V94.2zm-4.271 7.064c1.344-.012 2.268-.072 3.335-.301l.108 1.02c-1.223.24-2.279.301-3.934.301h-.731v-7.041h4.101v1.007h-2.879v5.014zM520.15 104.826h1.247V93.96h-1.247v10.866zm-6.116-6.249c0 1.703.659 2.722 1.595 2.722.947 0 1.607-1.019 1.607-2.722 0-1.678-.66-2.698-1.607-2.698-.936 0-1.595 1.02-1.595 2.698zm4.39 0c0 2.351-1.176 3.826-2.795 3.826-1.608 0-2.782-1.475-2.782-3.826 0-2.327 1.174-3.814 2.782-3.814 1.619 0 2.795 1.487 2.795 3.814zM532.521 93.948v10.866h-1.246V98.95h-2.076v-1.02h2.076v-3.982h1.246zm-7.279 7.328c1.726-.012 2.963-.072 4.378-.312l.107.996c-1.548.275-2.901.324-4.868.324h-.853v-7.377h5.026v1.02h-3.79v2.027h3.346v.983h-3.346v2.339zM459.81 10.22v6.31h-1.235v-2.664h-1.918V12.86h1.918V10.22h1.236zm-5.9 9.727h4.688v-1.942h-4.689v1.942zm-1.212.983h7.113v-3.91h-7.112v3.91zm3.97-4.678c-1.2-.42-2.076-1.259-2.53-2.314-.48 1.164-1.391 2.111-2.675 2.554l-.636-.97c1.678-.588 2.663-2.016 2.663-3.49v-.18h-2.29v-.996h5.793v.995h-2.255v.181c0 1.342.923 2.697 2.53 3.261l-.6.96zM470.85 10.22v6.141h-1.234v-2.423h-2.148v-1.02h2.148V10.22h1.235zm-5.84 9.714h4.629v-2.146h-4.63v2.146zm-1.212.996h7.053v-4.125h-7.053v4.125zm3.647-10.05c0 2.806-1.86 4.75-4.99 5.636l-.503-.983c2.482-.67 3.946-1.979 4.162-3.646h-3.586V10.88h4.917zM486.27 13.135v1.02h-1.534v2.998H483.5v-6.92h1.236v2.902h1.535zm-2.638 6.02c0-.624-.863-.948-2.35-.948-1.488 0-2.351.324-2.351.948 0 .636.863.96 2.35.96 1.488 0 2.35-.324 2.35-.96zm-4.15-3.407c.863 0 1.45-.394 1.45-1.007 0-.635-.587-1.019-1.45-1.019-.864 0-1.44.384-1.44 1.02 0 .612.577 1.006 1.44 1.006zm5.372 3.407c0 1.2-1.366 1.907-3.572 1.907-2.207 0-3.575-.708-3.575-1.907 0-1.188 1.368-1.895 3.575-1.895 2.206 0 3.572.707 3.572 1.895zm-5.373-2.495c-1.558 0-2.625-.755-2.625-1.919 0-1.174 1.067-1.93 2.625-1.93 1.572 0 2.627.756 2.627 1.93 0 1.164-1.055 1.92-2.627 1.92zm3.204-4.305h-6.394v-.984h2.58v-1.223h1.235v1.223h2.579v.984zM489.767 13.434h4.881v-1.787h-4.881v1.787zm-1.356 4.15h7.496v3.478h-1.235V18.58h-6.261v-.996zm8.707-1.955v.995h-9.81v-.995h4.269v-1.211h-3.022v-3.753h7.304v3.753h-3.035v1.211h4.294zM498.384 21.758c.815-.336 1.295-.936 1.308-1.644-.05.012-.084.012-.133.012-.491 0-.923-.31-.923-.888 0-.539.432-.886.959-.886.672 0 1.067.563 1.067 1.486 0 1.26-.731 2.232-1.966 2.7l-.312-.78zM512.372 12.954v-2.723h1.235v6.452h-1.235v-2.722h-1.919v-1.007h1.92zm.048 6.07c0-.71-.888-1.091-2.41-1.091-1.548 0-2.423.381-2.423 1.09 0 .707.875 1.091 2.422 1.091 1.523 0 2.411-.384 2.411-1.09zm1.235 0c0 1.294-1.39 2.05-3.646 2.05-2.267 0-3.658-.756-3.658-2.05 0-1.284 1.391-2.05 3.658-2.05 2.255 0 3.646.767 3.646 2.05zm-3.19-2.688c-1.199-.42-2.063-1.271-2.519-2.314-.479 1.188-1.39 2.147-2.675 2.603l-.635-.983c1.68-.6 2.65-2.04 2.65-3.526v-.156h-2.29v-.997h5.793v.997h-2.255v.142c0 1.357.923 2.7 2.542 3.264l-.61.97zM523.34 21.086h1.247V10.22h-1.247v10.866zm-5.864-3.574h2.746v-2.65h-2.746v2.65zm0-6.392v2.757h2.746V11.12h1.235v7.388h-5.205V11.12h1.224zM538.136 21.05h1.187V10.22h-1.187v10.83zm-2.206-10.591h1.163v10.087h-1.163v-5.253h-2.135v-1.007h2.135v-3.827zm-4.271 7.065c1.344-.012 2.268-.072 3.335-.3l.108 1.02c-1.224.239-2.279.299-3.934.299h-.731v-7.04h4.101v1.007h-2.879v5.014zM548.78 21.086h1.247V10.22h-1.247v10.866zm-6.116-6.249c0 1.703.659 2.723 1.595 2.723.947 0 1.607-1.02 1.607-2.723 0-1.678-.66-2.698-1.607-2.698-.936 0-1.595 1.02-1.595 2.698zm4.39 0c0 2.351-1.176 3.827-2.795 3.827-1.608 0-2.782-1.476-2.782-3.827 0-2.327 1.174-3.813 2.782-3.813 1.619 0 2.795 1.486 2.795 3.813zM561.151 10.207v10.867h-1.247V15.21h-2.075v-1.02h2.075v-3.982h1.247zm-7.279 7.328c1.726-.012 2.962-.07 4.377-.31l.108.994c-1.548.276-2.902.325-4.869.325h-.852v-7.377h5.025v1.02h-3.789v2.027h3.345v.983h-3.345v2.338zM471.098 31.075L468.508 31.075 468.508 29.912 475.092 29.912 475.092 31.075 472.49 31.075 472.49 38.739 471.098 38.739zM476.62 29.912h1.595l1.62 4.462c.202.588.383 1.187.586 1.787h.06c.204-.6.372-1.2.575-1.787l1.596-4.462h1.607v8.827h-1.295v-4.365c0-.792.108-1.932.18-2.734h-.048l-.707 2.039-1.536 4.209h-.864l-1.547-4.21-.695-2.038h-.048c.06.802.168 1.942.168 2.734v4.365h-1.248v-8.827zM497.963 28.82v10.83h-1.176v-5.54h-1.283v5.013h-1.163V29.048h1.163v4.054h1.283V28.82h1.176zm-7.664 7.245c1.247-.013 2.23-.072 3.347-.301l.107 1.02c-1.307.252-2.423.3-3.945.3h-.72v-6.968h4.006v1.008h-2.795v4.94zM502.167 37.72c0 .66.887 1.007 2.471 1.007 1.583 0 2.482-.348 2.482-1.008s-.899-1.008-2.482-1.008c-1.584 0-2.471.348-2.471 1.008zm-.097-6.537c0 .708.984 1.115 2.591 1.115 1.608 0 2.579-.407 2.579-1.115 0-.72-.971-1.128-2.579-1.128-1.607 0-2.591.408-2.591 1.128zm6.297 6.536c0 1.248-1.391 1.955-3.729 1.955-2.327 0-3.731-.707-3.731-1.955 0-1.247 1.404-1.967 3.731-1.967 2.338 0 3.729.72 3.729 1.967zm.156-6.536c0 1.295-1.511 2.087-3.862 2.087-2.362 0-3.861-.792-3.861-2.087 0-1.308 1.499-2.099 3.861-2.099 2.351 0 3.862.791 3.862 2.1zm-8.767 3.813h9.799v-.995h-9.799v.995zM522.228 39.651h1.187v-10.83h-1.187v10.83zm-2.207-10.591h1.164v10.087h-1.164v-5.254h-2.134v-1.008h2.134V29.06zm-4.27 7.063c1.344-.011 2.268-.071 3.335-.298l.107 1.019c-1.223.239-2.278.299-3.933.299h-.732v-7.039h4.102v1.007h-2.879v5.012zM532.872 39.686h1.247V28.821h-1.247v10.865zm-6.116-6.248c0 1.703.659 2.723 1.595 2.723.947 0 1.607-1.02 1.607-2.723 0-1.68-.66-2.699-1.607-2.699-.936 0-1.595 1.019-1.595 2.699zm4.39 0c0 2.351-1.176 3.826-2.795 3.826-1.608 0-2.783-1.475-2.783-3.826 0-2.327 1.175-3.815 2.783-3.815 1.619 0 2.795 1.488 2.795 3.815zM545.243 28.808v10.866h-1.247V33.81h-2.075v-1.02h2.075v-3.98h1.247zm-7.279 7.328c1.726-.013 2.962-.07 4.377-.31l.108.994c-1.548.276-2.902.323-4.869.323h-.852v-7.375h5.025v1.02h-3.789v2.026h3.345v.983h-3.345v2.34z" mask="url(#prefix__b)"/>
            <path fill="#FFF" d="M722.72 56.733c0 31.125-25.231 56.357-56.356 56.357s-56.358-25.232-56.358-56.357S635.239.376 666.364.376c31.125 0 56.357 25.232 56.357 56.357" mask="url(#prefix__b)"/>
            <path fill="#C5C8CF" d="M666.363.75c-30.869 0-55.982 25.113-55.982 55.982 0 30.87 25.113 55.983 55.982 55.983 30.87 0 55.982-25.113 55.982-55.983 0-30.869-25.113-55.982-55.982-55.982m0 112.715c-31.282 0-56.732-25.45-56.732-56.733C609.631 25.45 635.081 0 666.363 0s56.732 25.45 56.732 56.732c0 31.283-25.45 56.733-56.732 56.733" mask="url(#prefix__b)"/>
            <path fill="#273A5B" d="M672.104 64.53L674.065 64.53 674.065 54.826 672.104 54.826zM672.017 53.036L674.154 53.036 674.154 50.898 672.017 50.898zM697.547 55.124L695.603 61.788 693.424 55.124 691.472 55.124 689.292 61.788 687.356 55.212 687.329 55.124 685.277 55.124 688.284 64.448 688.312 64.531 690.227 64.531 692.402 57.77 694.596 64.531 696.529 64.531 699.562 55.124zM678.855 57.141c.443-.379.981-.57 1.6-.57.752 0 1.358.2 1.801.596.399.355.653.865.726 1.445h-4.98c.163-.626.457-1.133.853-1.47m1.636-2.388c-1.352 0-2.48.483-3.35 1.436-.853.937-1.305 2.198-1.305 3.647 0 1.41.44 2.561 1.343 3.517.895.945 2.048 1.425 3.426 1.425.94 0 1.798-.227 2.544-.674.597-.357 1.168-.9 1.563-1.492l.058-.086-1.408-1.3-.077.118c-.663.998-1.588 1.548-2.606 1.548-.836 0-1.464-.23-1.978-.72-.537-.514-.812-1.119-.858-1.896h7.219l.005-.115c.005-.098.005-.193.005-.193 0-1.635-.428-2.967-1.24-3.854-.826-.904-1.95-1.36-3.34-1.36M664.441 61.649L660.338 50.901 658.171 50.901 663.429 64.453 663.46 64.529 665.419 64.529 670.793 51.066 670.859 50.901 668.692 50.901z" mask="url(#prefix__b)"/>
            <path fill="#6FB6FB" d="M646.274 50.339L641.866 47.793 639.437 49.195 646.259 56.018z" mask="url(#prefix__b)"/>
            <path fill="#007CF7" d="M646.26 59.657L650.565 55.167 650.565 52.815 646.274 50.339z" mask="url(#prefix__b)"/>
            <path fill="#0065C7" d="M637.447 65.334L641.865 67.883 644.296 66.48 637.469 59.658z" mask="url(#prefix__b)"/>
            <path fill="#BFDCFF" d="M633.167 53.443L633.167 52.815 639.438 49.196 643.686 53.443z" mask="url(#prefix__b)"/>
            <path fill="#DEEDFF" d="M633.167 53.443L633.167 60.319 640.044 53.443z" mask="url(#prefix__b)"/>
            <path fill="#007CF7" d="M637.47 56.018L633.166 60.319 633.166 62.86 637.352 65.277 637.466 65.343z" mask="url(#prefix__b)"/>
            <path fill="#6FB6FB" d="M650.563 62.861L644.295 66.479 640.043 62.234 650.564 62.234z" mask="url(#prefix__b)"/>
            <path fill="#007CF7" d="M641.826 55.102c-1.489 0-2.696 1.207-2.696 2.695 0 1.49 1.207 2.697 2.696 2.697 1.49 0 2.695-1.207 2.695-2.697 0-1.488-1.206-2.695-2.695-2.695" mask="url(#prefix__b)"/>
            <path fill="#FFF" d="M643.186 55.664c-.428 0-.773.347-.773.773 0 .428.346.774.773.774.428 0 .772-.346.772-.773 0-.427-.344-.774-.772-.774" mask="url(#prefix__b)"/>
            <path fill="#BFDCFF" d="M643.686 62.234L646.26 59.658 650.564 55.168 650.564 62.234z" mask="url(#prefix__b)"/>
            <path fill="#092E6E" d="M304.22 93.916v9.579h-2.376v-3.817h-2.503v-1.927h2.503v-3.835h2.377zm-8.696 14.53h6.374v-2.412h-6.374v2.412zm-2.34 1.856h11.037v-6.123h-11.037v6.123zm6.014-7.077c-1.82-.593-3.043-1.783-3.764-3.26-.738 1.638-2.034 2.935-3.961 3.584l-1.206-1.89c2.664-.865 3.852-2.954 3.907-5.007h-3.26v-1.89h8.913v1.89h-3.222c.07 1.91 1.206 3.871 3.745 4.719l-1.152 1.855zM320.78 93.934v9.236h-2.377v-3.402h-2.863v-1.927h2.863v-3.907h2.377zm-8.57 14.513h6.23v-2.72h-6.23v2.72zm-2.34 1.854h10.91v-6.446h-10.91v6.446zm5.58-15.43c0 4.375-2.7 7.364-7.526 8.696l-.936-1.836c3.564-.973 5.563-2.774 5.941-4.97h-5.042v-1.89h7.563zM339.894 103.332h2.377v-9.398h-2.377v9.398zm-8.21-3.257h3.385v-3.296h-3.385v3.296zm6.285 5.905c.252 1.099 1.908 2.431 5.185 2.7l-.757 1.766c-2.754-.235-4.681-1.225-5.689-2.486-1.009 1.279-2.953 2.251-5.744 2.486l-.738-1.766c3.313-.287 4.988-1.548 5.221-2.7h-4.591v-1.765h4.646v-1.35h2.412v1.35h4.628v1.765h-4.573zm-8.625-4.052h8.049v-7.021h-8.049v7.021zM361.603 97.913v-3.996h2.376v9.867h-2.376V99.84h-2.485v-1.927h2.485zm.072 9.418c0-.938-1.135-1.388-3.296-1.388-2.178 0-3.313.45-3.313 1.388 0 .935 1.136 1.386 3.314 1.386 2.16 0 3.295-.45 3.295-1.386zm2.375 0c0 2.016-2.16 3.186-5.67 3.186-3.53 0-5.69-1.17-5.69-3.186 0-2.019 2.16-3.189 5.69-3.189 3.51 0 5.67 1.17 5.67 3.189zm-5.094-3.999c-1.8-.593-3.043-1.763-3.764-3.222-.72 1.674-2.034 3.025-3.96 3.674l-1.207-1.874c2.63-.917 3.836-3.025 3.908-5.096h-3.26v-1.907h8.913v1.907h-3.223c.072 1.892 1.224 3.837 3.745 4.665l-1.151 1.853zM378.036 110.536h2.377V93.898h-2.377v16.638zm-8.192-5.762h3.457V101.1h-3.457v3.674zm0-9.543v4.015h3.457v-4.015h2.358v11.434h-8.175V95.231h2.36zM400.266 110.481h2.251V93.898h-2.251v16.583zm-3.439-16.259h2.214v15.538h-2.214v-7.867h-2.881v-1.928h2.881v-5.743zm-5.725 10.642c1.728-.036 3.06-.145 4.518-.433l.198 1.944c-1.854.361-3.493.433-5.923.433h-1.134V95.789h6.319v1.89h-3.978v7.185zM416.195 110.536h2.377V93.898h-2.377v16.638zm-8.606-9.562c0 2.467.846 3.781 2.07 3.781 1.225 0 2.07-1.314 2.07-3.781 0-2.448-.845-3.763-2.07-3.763-1.224 0-2.07 1.315-2.07 3.763zm6.428 0c0 3.655-1.855 5.942-4.358 5.942-2.503 0-4.357-2.287-4.357-5.942 0-3.637 1.854-5.905 4.357-5.905s4.358 2.268 4.358 5.905zM435.312 93.898v16.638h-2.377v-8.877h-2.846V99.75h2.846v-5.853h2.377zm-10.805 10.966c2.234-.02 4.053-.11 6.087-.433l.216 1.909c-2.394.378-4.52.432-7.31.432h-1.35v-11.47h7.67v1.909h-5.313v2.702h4.755v1.853h-4.755v3.098zM343.773 122.557v1.963h-1.98v5.402h-2.376v-12.424h2.376v5.06h1.98zm-10.658 9.363h9.2v1.891h-11.577v-4.987h2.377v3.096zm1.98-7.562c.27-1.548.342-2.754.36-3.744h-6.176v-1.89h8.516v1.024c0 1.153 0 2.791-.377 4.88l-2.323-.27zm3.565 2.63c-3.42.63-7.274.702-10.119.72l-.216-1.89c.918 0 1.944 0 3.025-.019v-3.223h2.322v3.132c1.64-.07 3.295-.198 4.844-.414l.144 1.693zM356.534 134.135h2.377v-16.637h-2.377v16.637zm-8.102-5.816c2.521-.018 4.609-.144 6.95-.539l.252 1.926c-2.7.468-5.131.576-8.138.576h-1.495v-6.825h5.384v-2.646h-5.402v-1.891h7.832v6.411h-5.383v2.988zM380.637 117.499v16.637h-2.377v-9.526h-3.186V122.7h3.186V117.5h2.377zm-7.688 3.69c0 3.134 1.206 6.177 3.943 7.4l-1.404 1.89c-1.82-.88-3.026-2.502-3.71-4.5-.72 2.124-1.962 3.854-3.817 4.79l-1.476-1.91c2.808-1.297 4.069-4.519 4.069-7.67v-2.394h2.395v2.394zM386.249 128.338h3.259v-3.673h-3.259v3.673zm10.947-10.84v16.637h-2.377v-8.894h-2.97v4.987h-7.958v-11.415h2.358v3.997h3.259v-3.997h2.341v4.519h2.97v-5.834h2.377z" mask="url(#prefix__b)"/>
            <path fill="#E6E8EB" d="M344.346 41.539L344.346 72.88 382.178 72.88 382.178 41.249z" mask="url(#prefix__b)"/>
            <path fill="#000" d="M344.628 72.598h37.268V41.534l-37.268.286v30.778zm37.832.564h-38.396V41.26l38.396-.294v32.197z" mask="url(#prefix__b)"/>
            <path fill="#FFF" d="M383.278 41.77h-40.176c-1.534 0-2.789-1.256-2.789-2.789v-6.155c0-1.535 1.255-2.789 2.79-2.789h40.175c1.534 0 2.79 1.254 2.79 2.789v6.155c0 1.533-1.256 2.789-2.79 2.789" mask="url(#prefix__b)"/>
            <path fill="#000" d="M383.278 30.036h-40.176c-1.534 0-2.789 1.256-2.789 2.79v6.155c0 1.534 1.255 2.789 2.79 2.789h40.175c1.534 0 2.79-1.255 2.79-2.79v-6.154c0-1.534-1.256-2.79-2.79-2.79m0 .564c1.227 0 2.225.998 2.225 2.226v6.155c0 1.227-.998 2.225-2.225 2.225h-40.176c-1.226 0-2.224-.998-2.224-2.225v-6.155c0-1.228.998-2.226 2.224-2.226h40.176" mask="url(#prefix__b)"/>
            <path fill="#FFF" d="M383.278 56.025h-40.176c-1.534 0-2.789-1.256-2.789-2.79v-6.154c0-1.535 1.255-2.79 2.79-2.79h40.175c1.534 0 2.79 1.255 2.79 2.79v6.155c0 1.533-1.256 2.789-2.79 2.789" mask="url(#prefix__b)"/>
            <path fill="#000" d="M383.278 44.291h-40.176c-1.534 0-2.789 1.256-2.789 2.79v6.153c0 1.536 1.255 2.79 2.79 2.79h40.175c1.534 0 2.79-1.254 2.79-2.79V47.08c0-1.533-1.256-2.788-2.79-2.788m0 .563c1.227 0 2.225.998 2.225 2.226v6.153c0 1.228-.998 2.227-2.225 2.227h-40.176c-1.226 0-2.224-.998-2.224-2.227V47.08c0-1.227.998-2.224 2.224-2.224h40.176" mask="url(#prefix__b)"/>
            <path fill="#FFF" d="M383.278 70.2h-40.176c-1.534 0-2.789-1.255-2.789-2.79v-6.154c0-1.535 1.255-2.79 2.79-2.79h40.175c1.534 0 2.79 1.255 2.79 2.79v6.155c0 1.534-1.256 2.789-2.79 2.789" mask="url(#prefix__b)"/>
            <path fill="#000" d="M383.278 58.466h-40.176c-1.534 0-2.789 1.255-2.789 2.79v6.154c0 1.534 1.255 2.79 2.79 2.79h40.175c1.534 0 2.79-1.256 2.79-2.79v-6.155c0-1.534-1.256-2.789-2.79-2.789m0 .564c1.227 0 2.225.998 2.225 2.225v6.155c0 1.227-.998 2.225-2.225 2.225h-40.176c-1.226 0-2.224-.998-2.224-2.225v-6.155c0-1.227.998-2.225 2.224-2.225h40.176" mask="url(#prefix__b)"/>
            <path fill="#0A51B7" d="M370.683 35.903c0 1.043-.845 1.888-1.888 1.888-1.042 0-1.886-.845-1.886-1.888 0-1.042.844-1.888 1.886-1.888 1.043 0 1.888.846 1.888 1.888" mask="url(#prefix__b)"/>
            <path fill="#000" d="M368.795 34.016c-1.042 0-1.887.845-1.887 1.887 0 1.043.845 1.887 1.887 1.887 1.043 0 1.888-.844 1.888-1.887 0-1.042-.845-1.887-1.888-1.887m0 .564c.729 0 1.323.593 1.323 1.323s-.594 1.323-1.323 1.323c-.73 0-1.322-.594-1.322-1.323 0-.73.593-1.323 1.322-1.323" mask="url(#prefix__b)"/>
            <path fill="#0A51B7" d="M376.504 35.903c0 1.043-.845 1.888-1.887 1.888-1.043 0-1.887-.845-1.887-1.888 0-1.042.844-1.888 1.887-1.888 1.042 0 1.887.846 1.887 1.888" mask="url(#prefix__b)"/>
            <path fill="#000" d="M374.616 34.016c-1.042 0-1.887.845-1.887 1.887 0 1.043.845 1.887 1.887 1.887 1.043 0 1.888-.844 1.888-1.887 0-1.042-.845-1.887-1.888-1.887m0 .564c.73 0 1.323.593 1.323 1.323s-.594 1.323-1.323 1.323-1.322-.594-1.322-1.323c0-.73.593-1.323 1.322-1.323" mask="url(#prefix__b)"/>
            <path fill="#0A51B7" d="M382.325 35.903c0 1.043-.845 1.888-1.887 1.888-1.043 0-1.887-.845-1.887-1.888 0-1.042.844-1.888 1.887-1.888 1.042 0 1.887.846 1.887 1.888" mask="url(#prefix__b)"/>
            <path fill="#000" d="M380.438 34.016c-1.042 0-1.887.845-1.887 1.887 0 1.043.845 1.887 1.887 1.887 1.043 0 1.887-.844 1.887-1.887 0-1.042-.844-1.887-1.887-1.887m0 .564c.73 0 1.322.593 1.322 1.323s-.592 1.323-1.322 1.323c-.728 0-1.322-.594-1.322-1.323 0-.73.594-1.323 1.322-1.323" mask="url(#prefix__b)"/>
            <path fill="#0A51B7" d="M370.683 50.158c0 1.043-.845 1.888-1.888 1.888-1.042 0-1.886-.845-1.886-1.888 0-1.042.844-1.888 1.886-1.888 1.043 0 1.888.846 1.888 1.888" mask="url(#prefix__b)"/>
            <path fill="#000" d="M368.795 48.27c-1.042 0-1.887.846-1.887 1.888 0 1.042.845 1.887 1.887 1.887 1.043 0 1.888-.845 1.888-1.887s-.845-1.888-1.888-1.888m0 .564c.729 0 1.323.594 1.323 1.324 0 .729-.594 1.323-1.323 1.323-.73 0-1.322-.594-1.322-1.323 0-.73.593-1.324 1.322-1.324" mask="url(#prefix__b)"/>
            <path fill="#0A51B7" d="M376.504 50.158c0 1.043-.845 1.888-1.887 1.888-1.043 0-1.887-.845-1.887-1.888 0-1.042.844-1.888 1.887-1.888 1.042 0 1.887.846 1.887 1.888" mask="url(#prefix__b)"/>
            <path fill="#000" d="M374.616 48.27c-1.042 0-1.887.846-1.887 1.888 0 1.042.845 1.887 1.887 1.887 1.043 0 1.888-.845 1.888-1.887s-.845-1.888-1.888-1.888m0 .564c.73 0 1.323.594 1.323 1.324 0 .729-.594 1.323-1.323 1.323s-1.322-.594-1.322-1.323c0-.73.593-1.324 1.322-1.324" mask="url(#prefix__b)"/>
            <path fill="#0A51B7" d="M382.325 50.158c0 1.043-.845 1.888-1.887 1.888-1.043 0-1.887-.845-1.887-1.888 0-1.042.844-1.888 1.887-1.888 1.042 0 1.887.846 1.887 1.888" mask="url(#prefix__b)"/>
            <path fill="#000" d="M380.438 48.27c-1.042 0-1.887.846-1.887 1.888 0 1.042.845 1.887 1.887 1.887 1.043 0 1.887-.845 1.887-1.887s-.844-1.888-1.887-1.888m0 .564c.73 0 1.322.594 1.322 1.324 0 .729-.592 1.323-1.322 1.323-.728 0-1.322-.594-1.322-1.323 0-.73.594-1.324 1.322-1.324" mask="url(#prefix__b)"/>
            <path fill="#0A51B7" d="M370.683 64.332c0 1.044-.845 1.889-1.888 1.889-1.042 0-1.886-.846-1.886-1.889 0-1.041.844-1.886 1.886-1.886 1.043 0 1.888.845 1.888 1.886" mask="url(#prefix__b)"/>
            <path fill="#000" d="M368.795 62.446c-1.042 0-1.887.845-1.887 1.887 0 1.043.845 1.887 1.887 1.887 1.043 0 1.888-.844 1.888-1.887 0-1.042-.845-1.887-1.888-1.887m0 .564c.729 0 1.323.594 1.323 1.323 0 .73-.594 1.323-1.323 1.323-.73 0-1.322-.593-1.322-1.323s.593-1.323 1.322-1.323" mask="url(#prefix__b)"/>
            <path fill="#0A51B7" d="M376.504 64.332c0 1.044-.845 1.889-1.887 1.889-1.043 0-1.887-.846-1.887-1.889 0-1.041.844-1.886 1.887-1.886 1.042 0 1.887.845 1.887 1.886" mask="url(#prefix__b)"/>
            <path fill="#000" d="M374.616 62.446c-1.042 0-1.887.845-1.887 1.887 0 1.043.845 1.887 1.887 1.887 1.043 0 1.888-.844 1.888-1.887 0-1.042-.845-1.887-1.888-1.887m0 .564c.73 0 1.323.594 1.323 1.323 0 .73-.594 1.323-1.323 1.323s-1.322-.593-1.322-1.323.593-1.323 1.322-1.323" mask="url(#prefix__b)"/>
            <path fill="#0A51B7" d="M382.325 64.332c0 1.044-.845 1.889-1.887 1.889-1.043 0-1.887-.846-1.887-1.889 0-1.041.844-1.886 1.887-1.886 1.042 0 1.887.845 1.887 1.886" mask="url(#prefix__b)"/>
            <path fill="#000" d="M380.438 62.446c-1.042 0-1.887.845-1.887 1.887 0 1.043.845 1.887 1.887 1.887 1.043 0 1.887-.844 1.887-1.887 0-1.042-.844-1.887-1.887-1.887m0 .564c.73 0 1.322.594 1.322 1.323 0 .73-.592 1.323-1.322 1.323-.728 0-1.322-.593-1.322-1.323s.594-1.323 1.322-1.323" mask="url(#prefix__b)"/>
            <path fill="#FFF" d="M345.148 32.805L345.148 39" mask="url(#prefix__b)"/>
            <path fill="#000" d="M344.867 39L345.431 39 345.431 32.805 344.867 32.805z" mask="url(#prefix__b)"/>
            <path fill="#FFF" d="M348.35 32.805L348.35 39" mask="url(#prefix__b)"/>
            <path fill="#000" d="M348.068 39L348.632 39 348.632 32.805 348.068 32.805z" mask="url(#prefix__b)"/>
            <path fill="#FFF" d="M351.551 32.805L351.551 39" mask="url(#prefix__b)"/>
            <path fill="#000" d="M351.269 39L351.833 39 351.833 32.805 351.269 32.805z" mask="url(#prefix__b)"/>
            <path fill="#FFF" d="M354.752 32.805L354.752 39" mask="url(#prefix__b)"/>
            <path fill="#000" d="M354.47 39L355.034 39 355.034 32.805 354.47 32.805z" mask="url(#prefix__b)"/>
            <path fill="#FFF" d="M357.953 32.805L357.953 39" mask="url(#prefix__b)"/>
            <path fill="#000" d="M357.671 39L358.235 39 358.235 32.805 357.671 32.805z" mask="url(#prefix__b)"/>
            <path fill="#FFF" d="M361.154 32.805L361.154 39" mask="url(#prefix__b)"/>
            <path fill="#000" d="M360.873 39L361.437 39 361.437 32.805 360.873 32.805z" mask="url(#prefix__b)"/>
            <path fill="#FFF" d="M346.749 32.805L346.749 39" mask="url(#prefix__b)"/>
            <path fill="#000" d="M346.467 39L347.031 39 347.031 32.805 346.467 32.805z" mask="url(#prefix__b)"/>
            <path fill="#FFF" d="M349.95 32.805L349.95 39" mask="url(#prefix__b)"/>
            <path fill="#000" d="M349.668 39L350.232 39 350.232 32.805 349.668 32.805z" mask="url(#prefix__b)"/>
            <path fill="#FFF" d="M353.151 32.805L353.151 39" mask="url(#prefix__b)"/>
            <path fill="#000" d="M352.87 39L353.434 39 353.434 32.805 352.87 32.805z" mask="url(#prefix__b)"/>
            <path fill="#FFF" d="M356.353 32.805L356.353 39" mask="url(#prefix__b)"/>
            <path fill="#000" d="M356.071 39L356.635 39 356.635 32.805 356.071 32.805z" mask="url(#prefix__b)"/>
            <path fill="#FFF" d="M359.554 32.805L359.554 39" mask="url(#prefix__b)"/>
            <path fill="#000" d="M359.272 39L359.836 39 359.836 32.805 359.272 32.805z" mask="url(#prefix__b)"/>
            <path fill="#FFF" d="M345.148 47.06L345.148 53.255" mask="url(#prefix__b)"/>
            <path fill="#000" d="M344.867 53.255L345.431 53.255 345.431 47.06 344.867 47.06z" mask="url(#prefix__b)"/>
            <path fill="#FFF" d="M348.35 47.06L348.35 53.255" mask="url(#prefix__b)"/>
            <path fill="#000" d="M348.068 53.255L348.632 53.255 348.632 47.06 348.068 47.06z" mask="url(#prefix__b)"/>
            <path fill="#FFF" d="M351.551 47.06L351.551 53.255" mask="url(#prefix__b)"/>
            <path fill="#000" d="M351.269 53.255L351.833 53.255 351.833 47.06 351.269 47.06z" mask="url(#prefix__b)"/>
            <path fill="#FFF" d="M354.752 47.06L354.752 53.255" mask="url(#prefix__b)"/>
            <path fill="#000" d="M354.47 53.255L355.034 53.255 355.034 47.06 354.47 47.06z" mask="url(#prefix__b)"/>
            <path fill="#FFF" d="M357.953 47.06L357.953 53.255" mask="url(#prefix__b)"/>
            <path fill="#000" d="M357.671 53.255L358.235 53.255 358.235 47.06 357.671 47.06z" mask="url(#prefix__b)"/>
            <path fill="#FFF" d="M361.154 47.06L361.154 53.255" mask="url(#prefix__b)"/>
            <path fill="#000" d="M360.873 53.255L361.437 53.255 361.437 47.06 360.873 47.06z" mask="url(#prefix__b)"/>
            <path fill="#FFF" d="M346.749 47.06L346.749 53.255" mask="url(#prefix__b)"/>
            <path fill="#000" d="M346.467 53.255L347.031 53.255 347.031 47.06 346.467 47.06z" mask="url(#prefix__b)"/>
            <path fill="#FFF" d="M349.95 47.06L349.95 53.255" mask="url(#prefix__b)"/>
            <path fill="#000" d="M349.668 53.255L350.232 53.255 350.232 47.06 349.668 47.06z" mask="url(#prefix__b)"/>
            <path fill="#FFF" d="M353.151 47.06L353.151 53.255" mask="url(#prefix__b)"/>
            <path fill="#000" d="M352.87 53.255L353.434 53.255 353.434 47.06 352.87 47.06z" mask="url(#prefix__b)"/>
            <path fill="#FFF" d="M356.353 47.06L356.353 53.255" mask="url(#prefix__b)"/>
            <path fill="#000" d="M356.071 53.255L356.635 53.255 356.635 47.06 356.071 47.06z" mask="url(#prefix__b)"/>
            <path fill="#FFF" d="M359.554 47.06L359.554 53.255" mask="url(#prefix__b)"/>
            <path fill="#000" d="M359.272 53.255L359.836 53.255 359.836 47.06 359.272 47.06z" mask="url(#prefix__b)"/>
            <path fill="#FFF" d="M345.148 61.315L345.148 67.51" mask="url(#prefix__b)"/>
            <path fill="#000" d="M344.867 67.51L345.431 67.51 345.431 61.315 344.867 61.315z" mask="url(#prefix__b)"/>
            <path fill="#FFF" d="M348.35 61.315L348.35 67.51" mask="url(#prefix__b)"/>
            <path fill="#000" d="M348.068 67.51L348.632 67.51 348.632 61.315 348.068 61.315z" mask="url(#prefix__b)"/>
            <path fill="#FFF" d="M351.551 61.315L351.551 67.51" mask="url(#prefix__b)"/>
            <path fill="#000" d="M351.269 67.51L351.833 67.51 351.833 61.315 351.269 61.315z" mask="url(#prefix__b)"/>
            <path fill="#FFF" d="M354.752 61.315L354.752 67.51" mask="url(#prefix__b)"/>
            <path fill="#000" d="M354.47 67.51L355.034 67.51 355.034 61.315 354.47 61.315z" mask="url(#prefix__b)"/>
            <path fill="#FFF" d="M357.953 61.315L357.953 67.51" mask="url(#prefix__b)"/>
            <path fill="#000" d="M357.671 67.51L358.235 67.51 358.235 61.315 357.671 61.315z" mask="url(#prefix__b)"/>
            <path fill="#FFF" d="M361.154 61.315L361.154 67.51" mask="url(#prefix__b)"/>
            <path fill="#000" d="M360.873 67.51L361.437 67.51 361.437 61.315 360.873 61.315z" mask="url(#prefix__b)"/>
            <path fill="#FFF" d="M346.749 61.315L346.749 67.51" mask="url(#prefix__b)"/>
            <path fill="#000" d="M346.467 67.51L347.031 67.51 347.031 61.315 346.467 61.315z" mask="url(#prefix__b)"/>
            <path fill="#FFF" d="M349.95 61.315L349.95 67.51" mask="url(#prefix__b)"/>
            <path fill="#000" d="M349.668 67.51L350.232 67.51 350.232 61.315 349.668 61.315z" mask="url(#prefix__b)"/>
            <path fill="#FFF" d="M353.151 61.315L353.151 67.51" mask="url(#prefix__b)"/>
            <path fill="#000" d="M352.87 67.51L353.434 67.51 353.434 61.315 352.87 61.315z" mask="url(#prefix__b)"/>
            <path fill="#FFF" d="M356.353 61.315L356.353 67.51" mask="url(#prefix__b)"/>
            <path fill="#000" d="M356.071 67.51L356.635 67.51 356.635 61.315 356.071 61.315z" mask="url(#prefix__b)"/>
            <path fill="#FFF" d="M359.554 61.315L359.554 67.51" mask="url(#prefix__b)"/>
            <path fill="#000" d="M359.272 67.51L359.836 67.51 359.836 61.315 359.272 61.315z" mask="url(#prefix__b)"/>
            <path fill="#E6E8EB" d="M377.986 61.45s.188-1.193 1.878-2.007c1.69-.813 5.93-1.964 11.108-1.25 5.18.716 6.54 2 6.54 2l.623 1.378v15.146s-.685 1.814-4.159 2.565c-3.472.752-10.388 1.002-13.705-.531 0 0-2.097-.876-2.285-2.191V61.45z" mask="url(#prefix__b)"/>
            <path fill="#000" d="M378.269 76.545c.143.334 1.614 3.21 9.787 3.21 8.157 0 9.648-2.866 9.797-3.21V61.356c-.105-.295-1.354-3.106-10.095-3.106-9.134 0-9.487 3.121-9.49 3.153v15.141zm9.787 3.773c-9.117 0-10.294-3.49-10.34-3.638l-.011-.083v-15.21c.007-.166.297-3.7 10.053-3.7 9.712 0 10.619 3.418 10.654 3.564l.006.064-.013 15.366c-.046.148-1.233 3.637-10.35 3.637z" mask="url(#prefix__b)"/>
            <path fill="#000" d="M387.845 70.258c-8.861 0-10.077-3.263-10.126-3.403l.535-.182-.267.091.266-.094c.01.03 1.204 3.024 9.595 3.024.112 0 .226 0 .34-.002 8.679-.083 9.668-2.978 9.678-3.007l.542.154c-.038.136-1.028 3.33-10.213 3.417l-.35.002M387.842 75.215c-8.857 0-10.074-3.262-10.123-3.402l.535-.182-.267.091.266-.094c.01.03 1.205 3.023 9.59 3.023.115 0 .229 0 .346-.002 8.678-.083 9.667-2.977 9.676-3.006l.543.154c-.038.136-1.028 3.328-10.213 3.416l-.353.002M387.842 65.3c-8.857 0-10.074-3.263-10.123-3.403l.535-.182-.267.091.266-.094c.01.03 1.204 3.024 9.59 3.024.115 0 .229 0 .346-.002 8.678-.083 9.667-2.978 9.676-3.007l.543.154c-.038.136-1.028 3.33-10.213 3.417l-.353.002" mask="url(#prefix__b)"/>
        </g>
    </g>
</svg>
