<svg xmlns="http://www.w3.org/2000/svg" xmlns:xlink="http://www.w3.org/1999/xlink" width="780" height="210" viewBox="0 0 780 210">
    <defs>
        <path id="o9fhdfgpqa" d="M0.569 0.675L137.356 0.675 137.356 18.675 0.569 18.675z"/>
        <path id="0cww0krulc" d="M0.751 7.26L0.751 20.293 12.037 26.809 23.323 20.293 23.323 7.26 12.037 0.745z"/>
        <path id="zgnc4l2b3e" d="M0.971 13.293L12.037 19.612 12.037 6.777 0.971 0.387z"/>
        <path id="zgzrwx5o9g" d="M.751 7.26v13.033l11.286 6.515 11.286-6.515V7.26L12.037.745.751 7.26zm.388 12.809V7.485l10.898-6.292 10.898 6.292v12.584l-10.898 6.292-10.898-6.292z"/>
    </defs>
    <g fill="none" fill-rule="evenodd">
        <g>
            <g>
                <g>
                    <g>
                        <g>
                            <path fill="#F8F9FB" d="M0 0H780V210H0z" transform="translate(-760 -5288) translate(0 2554) translate(320 636) translate(60 1961) translate(380 137)"/>
                            <g>
                                <text fill="#000" font-family="NotoSansCJKkr-Medium, Noto Sans CJK KR" font-size="12" font-weight="400" transform="translate(-760 -5288) translate(0 2554) translate(320 636) translate(60 1961) translate(380 137) translate(16 25)">
                                    <tspan x=".44" y="133.959">Con</tspan> <tspan x="23.048" y="133.959" letter-spacing="-.072">v</tspan> <tspan x="29.444" y="133.959">e</tspan> <tspan x="36.224" y="133.959" letter-spacing="-.072">r</tspan> <tspan x="40.988" y="133.959">sion </tspan> <tspan x="67.748" y="133.959" letter-spacing="-.036">o</tspan> <tspan x="75.044" y="133.959">f </tspan> <tspan x="81.884" y="133.959" letter-spacing="-.288">t</tspan> <tspan x="86.06" y="133.959">ask li</tspan> <tspan x="115.34" y="133.959" letter-spacing="-.264">s</tspan> <tspan x="120.572" y="133.959">t,</tspan>
                                </text>
                                <text fill="#000" font-family="NotoSansCJKkr-Medium, Noto Sans CJK KR" font-size="12" font-weight="400" transform="translate(-760 -5288) translate(0 2554) translate(320 636) translate(60 1961) translate(380 137) translate(16 25)">
                                    <tspan x="28.64" y="149.955">m</tspan> <tspan x="39.944" y="149.955" letter-spacing="-.204">at</tspan> <tspan x="50.78" y="149.955">erial and</tspan>
                                </text>
                                <text fill="#000" font-family="NotoSansCJKkr-Medium, Noto Sans CJK KR" font-size="12" font-weight="400" transform="translate(-760 -5288) translate(0 2554) translate(320 636) translate(60 1961) translate(380 137) translate(16 25)">
                                    <tspan x="11.66" y="165.951">inspe</tspan> <tspan x="42.692" y="165.951" letter-spacing="-.131">c</tspan> <tspan x="48.634" y="165.951">tion p</tspan> <tspan x="81.946" y="165.951" letter-spacing="-.132">r</tspan> <tspan x="86.59" y="165.951">o</tspan> <tspan x="93.958" y="165.951" letter-spacing="-.313">c</tspan> <tspan x="99.536" y="165.951">ess</tspan>
                                </text>
                                <path stroke="#C5C8CF" stroke-width=".75" d="M206.992 56.669L131.385 56.669" transform="translate(-760 -5288) translate(0 2554) translate(320 636) translate(60 1961) translate(380 137) translate(16 25)"/>
                                <path fill="#C5C8CF" d="M201.017 56.669L201.017 51.907 205.141 54.288 209.265 56.669 205.141 59.05 201.017 61.431z" transform="translate(-760 -5288) translate(0 2554) translate(320 636) translate(60 1961) translate(380 137) translate(16 25)"/>
                                <path stroke="#C5C8CF" stroke-width=".75" d="M613.236 56.669L535.777 56.669" transform="translate(-760 -5288) translate(0 2554) translate(320 636) translate(60 1961) translate(380 137) translate(16 25)"/>
                                <path fill="#C5C8CF" d="M607.26 56.669L607.26 51.907 611.385 54.288 615.509 56.669 611.385 59.05 607.26 61.431z" transform="translate(-760 -5288) translate(0 2554) translate(320 636) translate(60 1961) translate(380 137) translate(16 25)"/>
                                <g transform="translate(-760 -5288) translate(0 2554) translate(320 636) translate(60 1961) translate(380 137) translate(16 25) translate(614 119.283)">
                                    <mask id="43257efykb" fill="#fff">
                                        <use xlink:href="#o9fhdfgpqa"/>
                                    </mask>
                                    <text fill="#000" font-family="NotoSansCJKkr-Medium, Noto Sans CJK KR" font-size="12" font-weight="400" mask="url(#43257efykb)">
                                        <tspan x=".569" y="14.675">AR manual visuali</tspan> <tspan x="102.005" y="14.675" letter-spacing="-.277">z</tspan> <tspan x="107.332" y="14.675" letter-spacing="-.203">a</tspan> <tspan x="113.825" y="14.675">tion</tspan>
                                    </text>
                                </g>
                                <text fill="#000" font-family="NotoSansCJKkr-Medium, Noto Sans CJK KR" font-size="12" font-weight="400" transform="translate(-760 -5288) translate(0 2554) translate(320 636) translate(60 1961) translate(380 137) translate(16 25)">
                                    <tspan x="545.095" y="22.637">D</tspan> <tspan x="553.483" y="22.637" letter-spacing="-.336">r</tspan> <tspan x="557.719" y="22.637">awing &amp;</tspan>
                                </text>
                                <text fill="#000" font-family="NotoSansCJKkr-Medium, Noto Sans CJK KR" font-size="12" font-weight="400" transform="translate(-760 -5288) translate(0 2554) translate(320 636) translate(60 1961) translate(380 137) translate(16 25)">
                                    <tspan x="529.195" y="38.633">manual </tspan> <tspan x="575.503" y="38.633" letter-spacing="-.313">c</tspan> <tspan x="581.082" y="38.633">on</tspan> <tspan x="595.938" y="38.633" letter-spacing="-.204">t</tspan> <tspan x="600.282" y="38.633">ent</tspan>
                                </text>
                                <text fill="#000" font-family="NotoSansCJKkr-Medium, Noto Sans CJK KR" font-size="12" font-weight="400" transform="translate(-760 -5288) translate(0 2554) translate(320 636) translate(60 1961) translate(380 137) translate(16 25)">
                                    <tspan x="191.959" y="133.949">P</tspan> <tspan x="199.723" y="133.949" letter-spacing="-.132">r</tspan> <tspan x="204.367" y="133.949">odu</tspan> <tspan x="226.735" y="133.949" letter-spacing="-.312">c</tspan> <tspan x="232.315" y="133.949">e / edit AR </tspan> <tspan x="292.435" y="133.949" letter-spacing="-.288">t</tspan> <tspan x="296.611" y="133.949">ask manual</tspan>
                                </text>
                                <g>
                                    <path fill="#FFF" d="M112.941 56.508c0 31.126-25.232 56.357-56.357 56.357S.227 87.634.227 56.508C.227 25.383 25.46.152 56.584.152s56.357 25.23 56.357 56.356" transform="translate(-760 -5288) translate(0 2554) translate(320 636) translate(60 1961) translate(380 137) translate(16 25) translate(221 .283)"/>
                                    <path stroke="#C5C8CF" stroke-width=".75" d="M112.941 56.508c0 31.126-25.232 56.357-56.357 56.357S.227 87.634.227 56.508C.227 25.383 25.46.152 56.584.152s56.357 25.23 56.357 56.356z" transform="translate(-760 -5288) translate(0 2554) translate(320 636) translate(60 1961) translate(380 137) translate(16 25) translate(221 .283)"/>
                                    <path fill="#273A5B" d="M54.845 57.083L50.25 49.738 50.214 49.683 48.305 49.683 48.305 63.323 50.268 63.323 50.268 55.245 50.203 53.317 54.238 59.71 54.273 59.767 55.416 59.767 59.486 53.318 59.422 55.248 59.422 63.323 61.385 63.323 61.385 49.683 59.476 49.683zM69.661 59.272c-.015.662-.289 1.248-.813 1.742-.542.514-1.166.773-1.854.773-.482 0-.907-.142-1.264-.423-.353-.278-.525-.613-.525-1.028 0-.462.214-.84.653-1.157.445-.32 1.01-.483 1.68-.483.9 0 1.614.195 2.123.576m-2.42-5.72c-1.427 0-2.705.624-3.696 1.806l-.07.086 1.374 1.373.083-.105c.415-.517 1.268-1.384 2.332-1.384.726 0 1.26.184 1.728.596.451.4.67.868.67 1.437v.192c-.649-.32-1.458-.481-2.406-.481-1.22 0-2.21.29-2.947.866-.745.584-1.123 1.377-1.123 2.36 0 .93.358 1.716 1.062 2.337.7.616 1.58.928 2.615.928 1.143 0 2.083-.479 2.8-1.422v1.186h1.887v-5.835c0-1.214-.385-2.186-1.143-2.889-.746-.687-1.84-1.05-3.166-1.05M81.492 54.16L81.492 53.915 79.113 53.915 75.316 57.764 75.316 49.685 75.076 49.685 73.353 51.174 73.353 63.325 75.316 63.325 75.316 60.318 76.58 59.071 79.397 63.325 81.66 63.325 81.66 63.094 77.953 57.681z" transform="translate(-760 -5288) translate(0 2554) translate(320 636) translate(60 1961) translate(380 137) translate(16 25) translate(221 .283)"/>
                                    <path fill="#273A5B" d="M83.697 57.405c.163-.625.456-1.13.852-1.469.443-.379.981-.57 1.597-.57.752 0 1.358.2 1.801.597.397.354.651.862.725 1.442h-4.975zm7.063 1.355c0-1.632-.428-2.963-1.239-3.849-.825-.902-1.948-1.359-3.337-1.359-1.353 0-2.479.482-3.347 1.434-.853.936-1.305 2.196-1.305 3.644 0 1.41.44 2.557 1.344 3.513.893.945 2.044 1.423 3.42 1.423.941 0 1.796-.225 2.543-.673.597-.357 1.166-.9 1.561-1.492l.057-.085-1.406-1.298-.078.117c-.662.998-1.586 1.546-2.602 1.546-.836 0-1.464-.228-1.976-.718-.544-.52-.811-1.108-.857-1.894h7.192l.03-.309z" transform="translate(-760 -5288) translate(0 2554) translate(320 636) translate(60 1961) translate(380 137) translate(16 25) translate(221 .283)"/>
                                    <path fill="#6FB6FB" d="M23.827 57.108L22.409 57.926 22.419 61.52 31.109 56.507 27.988 54.706zM39.807 57.927L38.389 57.109 34.229 54.707 31.109 56.508 39.808 61.531z" transform="translate(-760 -5288) translate(0 2554) translate(320 636) translate(60 1961) translate(380 137) translate(16 25) translate(221 .283)"/>
                                    <path fill="#BFDCFF" d="M39.808 57.927L39.808 61.531 31.109 66.553 31.109 62.949 32.527 62.13z" transform="translate(-760 -5288) translate(0 2554) translate(320 636) translate(60 1961) translate(380 137) translate(16 25) translate(221 .283)"/>
                                    <path fill="#007CF7" d="M22.41 57.927L22.41 61.531 31.109 66.553 31.109 62.949 29.691 62.13z" transform="translate(-760 -5288) translate(0 2554) translate(320 636) translate(60 1961) translate(380 137) translate(16 25) translate(221 .283)"/>
                                    <path fill="#6FB6FB" d="M38.389 50.667L31.108 46.464 23.827 50.667 22.409 51.486 22.419 55.079 31.113 50.063 39.808 55.089 39.807 51.486z" transform="translate(-760 -5288) translate(0 2554) translate(320 636) translate(60 1961) translate(380 137) translate(16 25) translate(221 .283)"/>
                                    <path fill="#BFDCFF" d="M39.808 51.485L39.808 55.089 31.109 60.111 31.109 56.507 32.527 55.689z" transform="translate(-760 -5288) translate(0 2554) translate(320 636) translate(60 1961) translate(380 137) translate(16 25) translate(221 .283)"/>
                                    <path fill="#007CF7" d="M22.41 51.485L22.41 55.089 31.109 60.111 31.109 56.507 29.691 55.689z" transform="translate(-760 -5288) translate(0 2554) translate(320 636) translate(60 1961) translate(380 137) translate(16 25) translate(221 .283)"/>
                                    <path fill="#FFF" d="M518.32 56.508c0 31.126-25.232 56.357-56.357 56.357s-56.357-25.231-56.357-56.357c0-31.125 25.232-56.356 56.357-56.356s56.357 25.23 56.357 56.356" transform="translate(-760 -5288) translate(0 2554) translate(320 636) translate(60 1961) translate(380 137) translate(16 25) translate(221 .283)"/>
                                    <path stroke="#C5C8CF" stroke-width=".75" d="M518.32 56.508c0 31.126-25.232 56.357-56.357 56.357s-56.357-25.231-56.357-56.357c0-31.125 25.232-56.356 56.357-56.356s56.357 25.23 56.357 56.356z" transform="translate(-760 -5288) translate(0 2554) translate(320 636) translate(60 1961) translate(380 137) translate(16 25) translate(221 .283)"/>
                                    <path fill="#273A5B" d="M467.704 64.306L469.665 64.306 469.665 54.602 467.704 54.602zM467.616 52.811L469.753 52.811 469.753 50.674 467.616 50.674zM493.147 54.9L491.202 61.563 489.024 54.9 487.071 54.9 484.892 61.563 482.955 54.986 482.929 54.9 480.877 54.9 483.884 64.222 483.911 64.305 485.826 64.305 488.001 57.545 490.195 64.305 492.128 64.305 495.162 54.9zM474.454 56.916c.445-.379.982-.571 1.6-.571.753 0 1.36.202 1.803.597.396.355.651.865.724 1.446h-4.98c.164-.627.457-1.133.853-1.472m1.637-2.386c-1.353 0-2.48.483-3.35 1.435-.854.937-1.306 2.198-1.306 3.648 0 1.409.44 2.56 1.345 3.517.894.945 2.046 1.424 3.424 1.424.942 0 1.798-.226 2.544-.673.598-.358 1.167-.902 1.563-1.492l.058-.087-1.407-1.299-.079.117c-.662.999-1.587 1.549-2.604 1.549-.836 0-1.465-.23-1.979-.721-.537-.513-.81-1.119-.857-1.895h7.218l.006-.115c.005-.099.005-.194.005-.194 0-1.634-.428-2.967-1.24-3.853-.826-.904-1.95-1.361-3.34-1.361M460.041 61.424L455.938 50.676 453.771 50.676 459.029 64.228 459.06 64.305 461.019 64.305 466.393 50.841 466.459 50.676 464.292 50.676z" transform="translate(-760 -5288) translate(0 2554) translate(320 636) translate(60 1961) translate(380 137) translate(16 25) translate(221 .283)"/>
                                    <path fill="#6FB6FB" d="M441.875 50.114L437.466 47.569 435.038 48.97 441.86 55.793z" transform="translate(-760 -5288) translate(0 2554) translate(320 636) translate(60 1961) translate(380 137) translate(16 25) translate(221 .283)"/>
                                    <path fill="#007CF7" d="M441.86 59.433L446.164 54.942 446.164 52.591 441.873 50.114z" transform="translate(-760 -5288) translate(0 2554) translate(320 636) translate(60 1961) translate(380 137) translate(16 25) translate(221 .283)"/>
                                    <path fill="#0065C7" d="M433.048 65.108L437.465 67.659 439.896 66.254 433.07 59.434z" transform="translate(-760 -5288) translate(0 2554) translate(320 636) translate(60 1961) translate(380 137) translate(16 25) translate(221 .283)"/>
                                    <path fill="#BFDCFF" d="M428.767 53.219L428.767 52.591 435.038 48.971 439.286 53.219z" transform="translate(-760 -5288) translate(0 2554) translate(320 636) translate(60 1961) translate(380 137) translate(16 25) translate(221 .283)"/>
                                    <path fill="#DEEDFF" d="M428.767 53.219L428.767 60.095 435.644 53.219z" transform="translate(-760 -5288) translate(0 2554) translate(320 636) translate(60 1961) translate(380 137) translate(16 25) translate(221 .283)"/>
                                    <path fill="#007CF7" d="M433.07 55.793L428.766 60.095 428.766 62.636 432.952 65.052 433.066 65.119z" transform="translate(-760 -5288) translate(0 2554) translate(320 636) translate(60 1961) translate(380 137) translate(16 25) translate(221 .283)"/>
                                    <path fill="#6FB6FB" d="M446.163 62.637L439.895 66.255 435.644 62.009 446.163 62.009z" transform="translate(-760 -5288) translate(0 2554) translate(320 636) translate(60 1961) translate(380 137) translate(16 25) translate(221 .283)"/>
                                    <path fill="#007CF7" d="M437.426 54.877c-1.489 0-2.696 1.207-2.696 2.696s1.207 2.696 2.696 2.696 2.696-1.207 2.696-2.696-1.207-2.696-2.696-2.696" transform="translate(-760 -5288) translate(0 2554) translate(320 636) translate(60 1961) translate(380 137) translate(16 25) translate(221 .283)"/>
                                    <path fill="#FFF" d="M438.786 55.44c-.427 0-.773.346-.773.772 0 .428.346.774.773.774.427 0 .773-.346.773-.774 0-.426-.346-.772-.773-.772" transform="translate(-760 -5288) translate(0 2554) translate(320 636) translate(60 1961) translate(380 137) translate(16 25) translate(221 .283)"/>
                                    <path fill="#BFDCFF" d="M439.285 62.009L441.859 59.434 446.163 54.943 446.163 62.009z" transform="translate(-760 -5288) translate(0 2554) translate(320 636) translate(60 1961) translate(380 137) translate(16 25) translate(221 .283)"/>
                                </g>
                                <text fill="#092E6E" font-family="NotoSansCJKkr-Bold, Noto Sans CJK KR" font-size="18" font-weight="bold" transform="translate(-760 -5288) translate(0 2554) translate(320 636) translate(60 1961) translate(380 137) translate(16 25)">
                                    <tspan x="438.069" y="96.371">AR Con</tspan> <tspan x="500.601" y="96.371" letter-spacing="-.344">t</tspan> <tspan x="507.476" y="96.371">ent</tspan>
                                </text>
                                <text fill="#092E6E" font-family="NotoSansCJKkr-Bold, Noto Sans CJK KR" font-size="18" font-weight="bold" transform="translate(-760 -5288) translate(0 2554) translate(320 636) translate(60 1961) translate(380 137) translate(16 25)">
                                    <tspan x="429.735" y="118.367">Mana</tspan> <tspan x="477.921" y="118.367" letter-spacing="-.344">g</tspan> <tspan x="487.981" y="118.367">ement</tspan>
                                </text>
                                <text fill="#092E6E" font-family="NotoSansCJKkr-Bold, Noto Sans CJK KR" font-size="18" font-weight="bold" transform="translate(-760 -5288) translate(0 2554) translate(320 636) translate(60 1961) translate(380 137) translate(16 25)">
                                    <tspan x="458.553" y="140.363">Se</tspan> <tspan x="480.243" y="140.363" letter-spacing=".25">r</tspan> <tspan x="488.594" y="140.363" letter-spacing="-.142">v</tspan> <tspan x="498.675" y="140.363">er</tspan>
                                </text>
                                <g>
                                    <path fill="#E6E8EB" d="M458.642 36.315L458.642 67.655 496.475 67.655 496.475 36.024z" transform="translate(-760 -5288) translate(0 2554) translate(320 636) translate(60 1961) translate(380 137) translate(16 25) translate(8 .283)"/>
                                    <path stroke="#000" stroke-width=".565" d="M458.642 36.315L458.642 67.655 496.475 67.655 496.475 36.024z" transform="translate(-760 -5288) translate(0 2554) translate(320 636) translate(60 1961) translate(380 137) translate(16 25) translate(8 .283)"/>
                                    <path fill="#FFF" d="M457.4 36.263c-1.383 0-2.508-1.125-2.508-2.507V27.6c0-1.382 1.125-2.507 2.507-2.507h40.176c1.383 0 2.507 1.125 2.507 2.507v6.155c0 1.382-1.124 2.507-2.507 2.507H457.4z" transform="translate(-760 -5288) translate(0 2554) translate(320 636) translate(60 1961) translate(380 137) translate(16 25) translate(8 .283)"/>
                                    <path fill="#000" d="M497.575 24.811H457.4c-1.534 0-2.789 1.256-2.789 2.79v6.154c0 1.535 1.255 2.79 2.79 2.79h40.175c1.534 0 2.79-1.255 2.79-2.79v-6.154c0-1.534-1.256-2.79-2.79-2.79m0 .564c1.227 0 2.225.998 2.225 2.227v6.153c0 1.227-.998 2.225-2.225 2.225H457.4c-1.227 0-2.225-.997-2.225-2.224v-6.154c0-1.229.998-2.227 2.225-2.227h40.176" transform="translate(-760 -5288) translate(0 2554) translate(320 636) translate(60 1961) translate(380 137) translate(16 25) translate(8 .283)"/>
                                    <path fill="#FFF" d="M457.4 50.518c-1.383 0-2.508-1.125-2.508-2.507v-6.155c0-1.382 1.125-2.507 2.507-2.507h40.176c1.383 0 2.507 1.125 2.507 2.507v6.155c0 1.382-1.124 2.507-2.507 2.507H457.4z" transform="translate(-760 -5288) translate(0 2554) translate(320 636) translate(60 1961) translate(380 137) translate(16 25) translate(8 .283)"/>
                                    <path fill="#000" d="M497.575 39.066H457.4c-1.534 0-2.789 1.256-2.789 2.79v6.154c0 1.535 1.255 2.79 2.79 2.79h40.175c1.534 0 2.79-1.255 2.79-2.79v-6.155c0-1.533-1.256-2.789-2.79-2.789m0 .564c1.227 0 2.225.998 2.225 2.225v6.155c0 1.228-.998 2.226-2.225 2.226H457.4c-1.227 0-2.225-.998-2.225-2.226v-6.155c0-1.227.998-2.225 2.225-2.225h40.176" transform="translate(-760 -5288) translate(0 2554) translate(320 636) translate(60 1961) translate(380 137) translate(16 25) translate(8 .283)"/>
                                    <path fill="#FFF" d="M457.4 64.693c-1.383 0-2.508-1.125-2.508-2.508v-6.154c0-1.383 1.125-2.508 2.507-2.508h40.176c1.383 0 2.507 1.125 2.507 2.508v6.154c0 1.383-1.124 2.508-2.507 2.508H457.4z" transform="translate(-760 -5288) translate(0 2554) translate(320 636) translate(60 1961) translate(380 137) translate(16 25) translate(8 .283)"/>
                                    <path fill="#000" d="M497.575 53.241H457.4c-1.534 0-2.789 1.255-2.789 2.79v6.154c0 1.535 1.255 2.79 2.79 2.79h40.175c1.534 0 2.79-1.255 2.79-2.79v-6.154c0-1.535-1.256-2.79-2.79-2.79m0 .564c1.227 0 2.225.998 2.225 2.226v6.154c0 1.227-.998 2.225-2.225 2.225H457.4c-1.227 0-2.225-.998-2.225-2.225v-6.154c0-1.228.998-2.226 2.225-2.226h40.176" transform="translate(-760 -5288) translate(0 2554) translate(320 636) translate(60 1961) translate(380 137) translate(16 25) translate(8 .283)"/>
                                    <path fill="#0A51B7" d="M483.092 32.283c-.885 0-1.605-.72-1.605-1.604 0-.885.72-1.606 1.605-1.606s1.605.721 1.605 1.606c0 .884-.72 1.604-1.605 1.604" transform="translate(-760 -5288) translate(0 2554) translate(320 636) translate(60 1961) translate(380 137) translate(16 25) translate(8 .283)"/>
                                    <path fill="#000" d="M483.092 28.791c-1.042 0-1.887.846-1.887 1.887 0 1.043.845 1.888 1.887 1.888s1.887-.845 1.887-1.888c0-1.041-.845-1.887-1.887-1.887m0 .564c.729 0 1.323.594 1.323 1.323 0 .73-.594 1.324-1.323 1.324s-1.323-.594-1.323-1.324c0-.729.594-1.323 1.323-1.323" transform="translate(-760 -5288) translate(0 2554) translate(320 636) translate(60 1961) translate(380 137) translate(16 25) translate(8 .283)"/>
                                    <path fill="#0A51B7" d="M488.913 32.283c-.885 0-1.605-.72-1.605-1.604 0-.885.72-1.606 1.605-1.606s1.605.721 1.605 1.606c0 .884-.72 1.604-1.605 1.604" transform="translate(-760 -5288) translate(0 2554) translate(320 636) translate(60 1961) translate(380 137) translate(16 25) translate(8 .283)"/>
                                    <path fill="#000" d="M488.913 28.791c-1.042 0-1.887.846-1.887 1.887 0 1.043.845 1.888 1.887 1.888s1.888-.845 1.888-1.888c0-1.041-.846-1.887-1.888-1.887m0 .564c.73 0 1.323.594 1.323 1.323 0 .73-.594 1.324-1.323 1.324s-1.323-.594-1.323-1.324c0-.729.594-1.323 1.323-1.323" transform="translate(-760 -5288) translate(0 2554) translate(320 636) translate(60 1961) translate(380 137) translate(16 25) translate(8 .283)"/>
                                    <path fill="#0A51B7" d="M494.735 32.283c-.885 0-1.605-.72-1.605-1.604 0-.885.72-1.606 1.605-1.606s1.605.721 1.605 1.606c0 .884-.72 1.604-1.605 1.604" transform="translate(-760 -5288) translate(0 2554) translate(320 636) translate(60 1961) translate(380 137) translate(16 25) translate(8 .283)"/>
                                    <path fill="#000" d="M494.735 28.791c-1.042 0-1.888.846-1.888 1.887 0 1.043.846 1.888 1.888 1.888 1.042 0 1.887-.845 1.887-1.888 0-1.041-.845-1.887-1.887-1.887m0 .564c.73 0 1.323.594 1.323 1.323 0 .73-.594 1.324-1.323 1.324s-1.323-.594-1.323-1.324c0-.729.594-1.323 1.323-1.323" transform="translate(-760 -5288) translate(0 2554) translate(320 636) translate(60 1961) translate(380 137) translate(16 25) translate(8 .283)"/>
                                    <path fill="#0A51B7" d="M483.092 46.538c-.885 0-1.605-.72-1.605-1.604 0-.885.72-1.606 1.605-1.606s1.605.721 1.605 1.606c0 .884-.72 1.604-1.605 1.604" transform="translate(-760 -5288) translate(0 2554) translate(320 636) translate(60 1961) translate(380 137) translate(16 25) translate(8 .283)"/>
                                    <path fill="#000" d="M483.092 43.046c-1.042 0-1.887.845-1.887 1.888 0 1.042.845 1.886 1.887 1.886s1.887-.844 1.887-1.886c0-1.043-.845-1.888-1.887-1.888m0 .564c.729 0 1.323.593 1.323 1.324 0 .728-.594 1.322-1.323 1.322s-1.323-.594-1.323-1.322c0-.731.594-1.324 1.323-1.324" transform="translate(-760 -5288) translate(0 2554) translate(320 636) translate(60 1961) translate(380 137) translate(16 25) translate(8 .283)"/>
                                    <path fill="#0A51B7" d="M488.913 46.538c-.885 0-1.605-.72-1.605-1.604 0-.885.72-1.606 1.605-1.606s1.605.721 1.605 1.606c0 .884-.72 1.604-1.605 1.604" transform="translate(-760 -5288) translate(0 2554) translate(320 636) translate(60 1961) translate(380 137) translate(16 25) translate(8 .283)"/>
                                    <path fill="#000" d="M488.913 43.046c-1.042 0-1.887.845-1.887 1.888 0 1.042.845 1.886 1.887 1.886s1.888-.844 1.888-1.886c0-1.043-.846-1.888-1.888-1.888m0 .564c.73 0 1.323.593 1.323 1.324 0 .728-.594 1.322-1.323 1.322s-1.323-.594-1.323-1.322c0-.731.594-1.324 1.323-1.324" transform="translate(-760 -5288) translate(0 2554) translate(320 636) translate(60 1961) translate(380 137) translate(16 25) translate(8 .283)"/>
                                    <path fill="#0A51B7" d="M494.735 46.538c-.885 0-1.605-.72-1.605-1.604 0-.885.72-1.606 1.605-1.606s1.605.721 1.605 1.606c0 .884-.72 1.604-1.605 1.604" transform="translate(-760 -5288) translate(0 2554) translate(320 636) translate(60 1961) translate(380 137) translate(16 25) translate(8 .283)"/>
                                    <path fill="#000" d="M494.735 43.046c-1.042 0-1.888.845-1.888 1.888 0 1.042.846 1.886 1.888 1.886 1.042 0 1.887-.844 1.887-1.886 0-1.043-.845-1.888-1.887-1.888m0 .564c.73 0 1.323.593 1.323 1.324 0 .728-.594 1.322-1.323 1.322s-1.323-.594-1.323-1.322c0-.731.594-1.324 1.323-1.324" transform="translate(-760 -5288) translate(0 2554) translate(320 636) translate(60 1961) translate(380 137) translate(16 25) translate(8 .283)"/>
                                    <path fill="#0A51B7" d="M483.092 60.714c-.885 0-1.605-.721-1.605-1.605 0-.885.72-1.606 1.605-1.606s1.605.72 1.605 1.606c0 .884-.72 1.605-1.605 1.605" transform="translate(-760 -5288) translate(0 2554) translate(320 636) translate(60 1961) translate(380 137) translate(16 25) translate(8 .283)"/>
                                    <path fill="#000" d="M483.092 57.22c-1.042 0-1.887.847-1.887 1.889s.845 1.887 1.887 1.887 1.887-.845 1.887-1.887-.845-1.888-1.887-1.888m0 .564c.729 0 1.323.594 1.323 1.324 0 .729-.594 1.323-1.323 1.323s-1.323-.594-1.323-1.323c0-.73.594-1.324 1.323-1.324" transform="translate(-760 -5288) translate(0 2554) translate(320 636) translate(60 1961) translate(380 137) translate(16 25) translate(8 .283)"/>
                                    <path fill="#0A51B7" d="M488.913 60.714c-.885 0-1.605-.721-1.605-1.605 0-.885.72-1.606 1.605-1.606s1.605.72 1.605 1.606c0 .884-.72 1.605-1.605 1.605" transform="translate(-760 -5288) translate(0 2554) translate(320 636) translate(60 1961) translate(380 137) translate(16 25) translate(8 .283)"/>
                                    <path fill="#000" d="M488.913 57.22c-1.042 0-1.887.847-1.887 1.889s.845 1.887 1.887 1.887 1.888-.845 1.888-1.887-.846-1.888-1.888-1.888m0 .564c.73 0 1.323.594 1.323 1.324 0 .729-.594 1.323-1.323 1.323s-1.323-.594-1.323-1.323c0-.73.594-1.324 1.323-1.324" transform="translate(-760 -5288) translate(0 2554) translate(320 636) translate(60 1961) translate(380 137) translate(16 25) translate(8 .283)"/>
                                    <path fill="#0A51B7" d="M494.735 60.714c-.885 0-1.605-.721-1.605-1.605 0-.885.72-1.606 1.605-1.606s1.605.72 1.605 1.606c0 .884-.72 1.605-1.605 1.605" transform="translate(-760 -5288) translate(0 2554) translate(320 636) translate(60 1961) translate(380 137) translate(16 25) translate(8 .283)"/>
                                    <path fill="#000" d="M494.735 57.22c-1.042 0-1.888.847-1.888 1.889s.846 1.887 1.888 1.887c1.042 0 1.887-.845 1.887-1.887s-.845-1.888-1.887-1.888m0 .564c.73 0 1.323.594 1.323 1.324 0 .729-.594 1.323-1.323 1.323s-1.323-.594-1.323-1.323c0-.73.594-1.324 1.323-1.324" transform="translate(-760 -5288) translate(0 2554) translate(320 636) translate(60 1961) translate(380 137) translate(16 25) translate(8 .283)"/>
                                    <g>
                                        <path fill="#FFF" d="M1.446 0.58L1.446 6.776" transform="translate(-760 -5288) translate(0 2554) translate(320 636) translate(60 1961) translate(380 137) translate(16 25) translate(8 .283) translate(458 27)"/>
                                        <path stroke="#000" stroke-width=".565" d="M1.446 0.58L1.446 6.776" transform="translate(-760 -5288) translate(0 2554) translate(320 636) translate(60 1961) translate(380 137) translate(16 25) translate(8 .283) translate(458 27)"/>
                                    </g>
                                    <g>
                                        <path fill="#FFF" d="M0.647 0.58L0.647 6.776" transform="translate(-760 -5288) translate(0 2554) translate(320 636) translate(60 1961) translate(380 137) translate(16 25) translate(8 .283) translate(462 27)"/>
                                        <path stroke="#000" stroke-width=".565" d="M0.647 0.58L0.647 6.776" transform="translate(-760 -5288) translate(0 2554) translate(320 636) translate(60 1961) translate(380 137) translate(16 25) translate(8 .283) translate(462 27)"/>
                                    </g>
                                    <g>
                                        <path fill="#FFF" d="M0.848 0.58L0.848 6.776" transform="translate(-760 -5288) translate(0 2554) translate(320 636) translate(60 1961) translate(380 137) translate(16 25) translate(8 .283) translate(465 27)"/>
                                        <path stroke="#000" stroke-width=".565" d="M0.848 0.58L0.848 6.776" transform="translate(-760 -5288) translate(0 2554) translate(320 636) translate(60 1961) translate(380 137) translate(16 25) translate(8 .283) translate(465 27)"/>
                                    </g>
                                    <g>
                                        <path fill="#FFF" d="M1.049 0.58L1.049 6.776" transform="translate(-760 -5288) translate(0 2554) translate(320 636) translate(60 1961) translate(380 137) translate(16 25) translate(8 .283) translate(468 27)"/>
                                        <path stroke="#000" stroke-width=".565" d="M1.049 0.58L1.049 6.776" transform="translate(-760 -5288) translate(0 2554) translate(320 636) translate(60 1961) translate(380 137) translate(16 25) translate(8 .283) translate(468 27)"/>
                                    </g>
                                    <g>
                                        <path fill="#FFF" d="M1.25 0.58L1.25 6.776" transform="translate(-760 -5288) translate(0 2554) translate(320 636) translate(60 1961) translate(380 137) translate(16 25) translate(8 .283) translate(471 27)"/>
                                        <path stroke="#000" stroke-width=".565" d="M1.25 0.58L1.25 6.776" transform="translate(-760 -5288) translate(0 2554) translate(320 636) translate(60 1961) translate(380 137) translate(16 25) translate(8 .283) translate(471 27)"/>
                                    </g>
                                    <g>
                                        <path fill="#FFF" d="M1.451 0.58L1.451 6.776" transform="translate(-760 -5288) translate(0 2554) translate(320 636) translate(60 1961) translate(380 137) translate(16 25) translate(8 .283) translate(474 27)"/>
                                        <path stroke="#000" stroke-width=".565" d="M1.451 0.58L1.451 6.776" transform="translate(-760 -5288) translate(0 2554) translate(320 636) translate(60 1961) translate(380 137) translate(16 25) translate(8 .283) translate(474 27)"/>
                                    </g>
                                    <g>
                                        <path fill="#FFF" d="M1.046 0.58L1.046 6.776" transform="translate(-760 -5288) translate(0 2554) translate(320 636) translate(60 1961) translate(380 137) translate(16 25) translate(8 .283) translate(460 27)"/>
                                        <path stroke="#000" stroke-width=".565" d="M1.046 0.58L1.046 6.776" transform="translate(-760 -5288) translate(0 2554) translate(320 636) translate(60 1961) translate(380 137) translate(16 25) translate(8 .283) translate(460 27)"/>
                                    </g>
                                    <g>
                                        <path fill="#FFF" d="M1.247 0.58L1.247 6.776" transform="translate(-760 -5288) translate(0 2554) translate(320 636) translate(60 1961) translate(380 137) translate(16 25) translate(8 .283) translate(463 27)"/>
                                        <path stroke="#000" stroke-width=".565" d="M1.247 0.58L1.247 6.776" transform="translate(-760 -5288) translate(0 2554) translate(320 636) translate(60 1961) translate(380 137) translate(16 25) translate(8 .283) translate(463 27)"/>
                                    </g>
                                    <g>
                                        <path fill="#FFF" d="M1.448 0.58L1.448 6.776" transform="translate(-760 -5288) translate(0 2554) translate(320 636) translate(60 1961) translate(380 137) translate(16 25) translate(8 .283) translate(466 27)"/>
                                        <path stroke="#000" stroke-width=".565" d="M1.448 0.58L1.448 6.776" transform="translate(-760 -5288) translate(0 2554) translate(320 636) translate(60 1961) translate(380 137) translate(16 25) translate(8 .283) translate(466 27)"/>
                                    </g>
                                    <g>
                                        <path fill="#FFF" d="M0.65 0.58L0.65 6.776" transform="translate(-760 -5288) translate(0 2554) translate(320 636) translate(60 1961) translate(380 137) translate(16 25) translate(8 .283) translate(470 27)"/>
                                        <path stroke="#000" stroke-width=".565" d="M0.65 0.58L0.65 6.776" transform="translate(-760 -5288) translate(0 2554) translate(320 636) translate(60 1961) translate(380 137) translate(16 25) translate(8 .283) translate(470 27)"/>
                                    </g>
                                    <g>
                                        <path fill="#FFF" d="M0.851 0.58L0.851 6.776" transform="translate(-760 -5288) translate(0 2554) translate(320 636) translate(60 1961) translate(380 137) translate(16 25) translate(8 .283) translate(473 27)"/>
                                        <path stroke="#000" stroke-width=".565" d="M0.851 0.58L0.851 6.776" transform="translate(-760 -5288) translate(0 2554) translate(320 636) translate(60 1961) translate(380 137) translate(16 25) translate(8 .283) translate(473 27)"/>
                                    </g>
                                    <g>
                                        <path fill="#FFF" d="M1.446 0.835L1.446 7.031" transform="translate(-760 -5288) translate(0 2554) translate(320 636) translate(60 1961) translate(380 137) translate(16 25) translate(8 .283) translate(458 41)"/>
                                        <path stroke="#000" stroke-width=".565" d="M1.446 0.835L1.446 7.031" transform="translate(-760 -5288) translate(0 2554) translate(320 636) translate(60 1961) translate(380 137) translate(16 25) translate(8 .283) translate(458 41)"/>
                                    </g>
                                    <g>
                                        <path fill="#FFF" d="M0.647 0.835L0.647 7.031" transform="translate(-760 -5288) translate(0 2554) translate(320 636) translate(60 1961) translate(380 137) translate(16 25) translate(8 .283) translate(462 41)"/>
                                        <path stroke="#000" stroke-width=".565" d="M0.647 0.835L0.647 7.031" transform="translate(-760 -5288) translate(0 2554) translate(320 636) translate(60 1961) translate(380 137) translate(16 25) translate(8 .283) translate(462 41)"/>
                                    </g>
                                    <g>
                                        <path fill="#FFF" d="M0.848 0.835L0.848 7.031" transform="translate(-760 -5288) translate(0 2554) translate(320 636) translate(60 1961) translate(380 137) translate(16 25) translate(8 .283) translate(465 41)"/>
                                        <path stroke="#000" stroke-width=".565" d="M0.848 0.835L0.848 7.031" transform="translate(-760 -5288) translate(0 2554) translate(320 636) translate(60 1961) translate(380 137) translate(16 25) translate(8 .283) translate(465 41)"/>
                                    </g>
                                    <g>
                                        <path fill="#FFF" d="M1.049 0.835L1.049 7.031" transform="translate(-760 -5288) translate(0 2554) translate(320 636) translate(60 1961) translate(380 137) translate(16 25) translate(8 .283) translate(468 41)"/>
                                        <path stroke="#000" stroke-width=".565" d="M1.049 0.835L1.049 7.031" transform="translate(-760 -5288) translate(0 2554) translate(320 636) translate(60 1961) translate(380 137) translate(16 25) translate(8 .283) translate(468 41)"/>
                                    </g>
                                    <g>
                                        <path fill="#FFF" d="M1.25 0.835L1.25 7.031" transform="translate(-760 -5288) translate(0 2554) translate(320 636) translate(60 1961) translate(380 137) translate(16 25) translate(8 .283) translate(471 41)"/>
                                        <path stroke="#000" stroke-width=".565" d="M1.25 0.835L1.25 7.031" transform="translate(-760 -5288) translate(0 2554) translate(320 636) translate(60 1961) translate(380 137) translate(16 25) translate(8 .283) translate(471 41)"/>
                                    </g>
                                    <g>
                                        <path fill="#FFF" d="M1.451 0.835L1.451 7.031" transform="translate(-760 -5288) translate(0 2554) translate(320 636) translate(60 1961) translate(380 137) translate(16 25) translate(8 .283) translate(474 41)"/>
                                        <path stroke="#000" stroke-width=".565" d="M1.451 0.835L1.451 7.031" transform="translate(-760 -5288) translate(0 2554) translate(320 636) translate(60 1961) translate(380 137) translate(16 25) translate(8 .283) translate(474 41)"/>
                                    </g>
                                    <g>
                                        <path fill="#FFF" d="M1.046 0.835L1.046 7.031" transform="translate(-760 -5288) translate(0 2554) translate(320 636) translate(60 1961) translate(380 137) translate(16 25) translate(8 .283) translate(460 41)"/>
                                        <path stroke="#000" stroke-width=".565" d="M1.046 0.835L1.046 7.031" transform="translate(-760 -5288) translate(0 2554) translate(320 636) translate(60 1961) translate(380 137) translate(16 25) translate(8 .283) translate(460 41)"/>
                                    </g>
                                    <g>
                                        <path fill="#FFF" d="M1.247 0.835L1.247 7.031" transform="translate(-760 -5288) translate(0 2554) translate(320 636) translate(60 1961) translate(380 137) translate(16 25) translate(8 .283) translate(463 41)"/>
                                        <path stroke="#000" stroke-width=".565" d="M1.247 0.835L1.247 7.031" transform="translate(-760 -5288) translate(0 2554) translate(320 636) translate(60 1961) translate(380 137) translate(16 25) translate(8 .283) translate(463 41)"/>
                                    </g>
                                    <g>
                                        <path fill="#FFF" d="M1.448 0.835L1.448 7.031" transform="translate(-760 -5288) translate(0 2554) translate(320 636) translate(60 1961) translate(380 137) translate(16 25) translate(8 .283) translate(466 41)"/>
                                        <path stroke="#000" stroke-width=".565" d="M1.448 0.835L1.448 7.031" transform="translate(-760 -5288) translate(0 2554) translate(320 636) translate(60 1961) translate(380 137) translate(16 25) translate(8 .283) translate(466 41)"/>
                                    </g>
                                    <g>
                                        <path fill="#FFF" d="M0.65 0.835L0.65 7.031" transform="translate(-760 -5288) translate(0 2554) translate(320 636) translate(60 1961) translate(380 137) translate(16 25) translate(8 .283) translate(470 41)"/>
                                        <path stroke="#000" stroke-width=".565" d="M0.65 0.835L0.65 7.031" transform="translate(-760 -5288) translate(0 2554) translate(320 636) translate(60 1961) translate(380 137) translate(16 25) translate(8 .283) translate(470 41)"/>
                                    </g>
                                    <g>
                                        <path fill="#FFF" d="M0.851 0.835L0.851 7.031" transform="translate(-760 -5288) translate(0 2554) translate(320 636) translate(60 1961) translate(380 137) translate(16 25) translate(8 .283) translate(473 41)"/>
                                        <path stroke="#000" stroke-width=".565" d="M0.851 0.835L0.851 7.031" transform="translate(-760 -5288) translate(0 2554) translate(320 636) translate(60 1961) translate(380 137) translate(16 25) translate(8 .283) translate(473 41)"/>
                                    </g>
                                    <g>
                                        <path fill="#FFF" d="M1.446 0.09L1.446 6.286" transform="translate(-760 -5288) translate(0 2554) translate(320 636) translate(60 1961) translate(380 137) translate(16 25) translate(8 .283) translate(458 56)"/>
                                        <path stroke="#000" stroke-width=".565" d="M1.446 0.09L1.446 6.286" transform="translate(-760 -5288) translate(0 2554) translate(320 636) translate(60 1961) translate(380 137) translate(16 25) translate(8 .283) translate(458 56)"/>
                                    </g>
                                    <g>
                                        <path fill="#FFF" d="M0.647 0.09L0.647 6.286" transform="translate(-760 -5288) translate(0 2554) translate(320 636) translate(60 1961) translate(380 137) translate(16 25) translate(8 .283) translate(462 56)"/>
                                        <path stroke="#000" stroke-width=".565" d="M0.647 0.09L0.647 6.286" transform="translate(-760 -5288) translate(0 2554) translate(320 636) translate(60 1961) translate(380 137) translate(16 25) translate(8 .283) translate(462 56)"/>
                                    </g>
                                    <g>
                                        <path fill="#FFF" d="M0.848 0.09L0.848 6.286" transform="translate(-760 -5288) translate(0 2554) translate(320 636) translate(60 1961) translate(380 137) translate(16 25) translate(8 .283) translate(465 56)"/>
                                        <path stroke="#000" stroke-width=".565" d="M0.848 0.09L0.848 6.286" transform="translate(-760 -5288) translate(0 2554) translate(320 636) translate(60 1961) translate(380 137) translate(16 25) translate(8 .283) translate(465 56)"/>
                                    </g>
                                    <g>
                                        <path fill="#FFF" d="M1.049 0.09L1.049 6.286" transform="translate(-760 -5288) translate(0 2554) translate(320 636) translate(60 1961) translate(380 137) translate(16 25) translate(8 .283) translate(468 56)"/>
                                        <path stroke="#000" stroke-width=".565" d="M1.049 0.09L1.049 6.286" transform="translate(-760 -5288) translate(0 2554) translate(320 636) translate(60 1961) translate(380 137) translate(16 25) translate(8 .283) translate(468 56)"/>
                                    </g>
                                    <g>
                                        <path fill="#FFF" d="M1.25 0.09L1.25 6.286" transform="translate(-760 -5288) translate(0 2554) translate(320 636) translate(60 1961) translate(380 137) translate(16 25) translate(8 .283) translate(471 56)"/>
                                        <path stroke="#000" stroke-width=".565" d="M1.25 0.09L1.25 6.286" transform="translate(-760 -5288) translate(0 2554) translate(320 636) translate(60 1961) translate(380 137) translate(16 25) translate(8 .283) translate(471 56)"/>
                                    </g>
                                    <g>
                                        <path fill="#FFF" d="M1.451 0.09L1.451 6.286" transform="translate(-760 -5288) translate(0 2554) translate(320 636) translate(60 1961) translate(380 137) translate(16 25) translate(8 .283) translate(474 56)"/>
                                        <path stroke="#000" stroke-width=".565" d="M1.451 0.09L1.451 6.286" transform="translate(-760 -5288) translate(0 2554) translate(320 636) translate(60 1961) translate(380 137) translate(16 25) translate(8 .283) translate(474 56)"/>
                                    </g>
                                    <g>
                                        <path fill="#FFF" d="M1.046 0.09L1.046 6.286" transform="translate(-760 -5288) translate(0 2554) translate(320 636) translate(60 1961) translate(380 137) translate(16 25) translate(8 .283) translate(460 56)"/>
                                        <path stroke="#000" stroke-width=".565" d="M1.046 0.09L1.046 6.286" transform="translate(-760 -5288) translate(0 2554) translate(320 636) translate(60 1961) translate(380 137) translate(16 25) translate(8 .283) translate(460 56)"/>
                                    </g>
                                    <g>
                                        <path fill="#FFF" d="M1.247 0.09L1.247 6.286" transform="translate(-760 -5288) translate(0 2554) translate(320 636) translate(60 1961) translate(380 137) translate(16 25) translate(8 .283) translate(463 56)"/>
                                        <path stroke="#000" stroke-width=".565" d="M1.247 0.09L1.247 6.286" transform="translate(-760 -5288) translate(0 2554) translate(320 636) translate(60 1961) translate(380 137) translate(16 25) translate(8 .283) translate(463 56)"/>
                                    </g>
                                    <g>
                                        <path fill="#FFF" d="M1.448 0.09L1.448 6.286" transform="translate(-760 -5288) translate(0 2554) translate(320 636) translate(60 1961) translate(380 137) translate(16 25) translate(8 .283) translate(466 56)"/>
                                        <path stroke="#000" stroke-width=".565" d="M1.448 0.09L1.448 6.286" transform="translate(-760 -5288) translate(0 2554) translate(320 636) translate(60 1961) translate(380 137) translate(16 25) translate(8 .283) translate(466 56)"/>
                                    </g>
                                    <g>
                                        <path fill="#FFF" d="M0.65 0.09L0.65 6.286" transform="translate(-760 -5288) translate(0 2554) translate(320 636) translate(60 1961) translate(380 137) translate(16 25) translate(8 .283) translate(470 56)"/>
                                        <path stroke="#000" stroke-width=".565" d="M0.65 0.09L0.65 6.286" transform="translate(-760 -5288) translate(0 2554) translate(320 636) translate(60 1961) translate(380 137) translate(16 25) translate(8 .283) translate(470 56)"/>
                                    </g>
                                    <g>
                                        <path fill="#FFF" d="M0.851 0.09L0.851 6.286" transform="translate(-760 -5288) translate(0 2554) translate(320 636) translate(60 1961) translate(380 137) translate(16 25) translate(8 .283) translate(473 56)"/>
                                        <path stroke="#000" stroke-width=".565" d="M0.851 0.09L0.851 6.286" transform="translate(-760 -5288) translate(0 2554) translate(320 636) translate(60 1961) translate(380 137) translate(16 25) translate(8 .283) translate(473 56)"/>
                                    </g>
                                    <path fill="#E6E8EB" d="M492.283 56.226s.188-1.193 1.877-2.007c1.69-.813 5.93-1.964 11.11-1.25 5.18.716 6.54 2 6.54 2l.622 1.378v15.145s-.685 1.815-4.159 2.566c-3.473.75-10.389 1-13.706-.532 0 0-2.096-.876-2.284-2.191v-15.11z" transform="translate(-760 -5288) translate(0 2554) translate(320 636) translate(60 1961) translate(380 137) translate(16 25) translate(8 .283)"/>
                                    <path stroke="#000" stroke-width=".565" d="M512.432 56.09s-.778-3.345-10.378-3.345-9.77 3.416-9.77 3.416v15.212s1.054 3.439 10.068 3.439c9.013 0 10.08-3.44 10.08-3.44V56.09z" transform="translate(-760 -5288) translate(0 2554) translate(320 636) translate(60 1961) translate(380 137) translate(16 25) translate(8 .283)"/>
                                    <path stroke="#000" stroke-width=".565" d="M492.283 61.54s1.125 3.296 10.205 3.21c9.08-.088 9.944-3.21 9.944-3.21M492.283 66.497s1.125 3.297 10.205 3.21c9.08-.087 9.944-3.21 9.944-3.21M492.283 56.582s1.125 3.296 10.205 3.209c9.08-.086 9.944-3.209 9.944-3.209" transform="translate(-760 -5288) translate(0 2554) translate(320 636) translate(60 1961) translate(380 137) translate(16 25) translate(8 .283)"/>
                                    <path fill="#FFF" d="M113.394 56.508c0 31.126-25.232 56.357-56.357 56.357S.68 87.634.68 56.508C.68 25.383 25.912.152 57.037.152s56.357 25.23 56.357 56.356" transform="translate(-760 -5288) translate(0 2554) translate(320 636) translate(60 1961) translate(380 137) translate(16 25) translate(8 .283)"/>
                                    <path stroke="#C5C8CF" stroke-width=".75" d="M113.394 56.508c0 31.126-25.232 56.357-56.357 56.357S.68 87.634.68 56.508C.68 25.383 25.912.152 57.037.152s56.357 25.23 56.357 56.356z" transform="translate(-760 -5288) translate(0 2554) translate(320 636) translate(60 1961) translate(380 137) translate(16 25) translate(8 .283)"/>
                                    <path stroke="#231916" stroke-linejoin="round" stroke-width=".485" d="M81.842 54.367c-.164 0-.326.005-.485.014" transform="translate(-760 -5288) translate(0 2554) translate(320 636) translate(60 1961) translate(380 137) translate(16 25) translate(8 .283)"/>
                                    <path stroke="#231916" stroke-dasharray=".98 .98" stroke-linejoin="round" stroke-width=".485" d="M80.383 54.496c-2.18.396-3.865 1.655-4.742 3.188-1 1.743-3.29 3.316-6.202 3.316-3.424 0-4.805-1.564-6.201-3.316-1.33-1.672-2.776-3.317-6.202-3.317-3.424 0-5.177 1.492-6.2 3.317C49.856 59.431 48.06 61 44.635 61c-2.661 0-4.806-1.564-6.201-3.316-1.17-1.47-2.938-2.919-5.228-3.248" transform="translate(-760 -5288) translate(0 2554) translate(320 636) translate(60 1961) translate(380 137) translate(16 25) translate(8 .283)"/>
                                    <path stroke="#231916" stroke-linejoin="round" stroke-width=".485" d="M32.717 54.384c-.159-.011-.321-.017-.485-.017" transform="translate(-760 -5288) translate(0 2554) translate(320 636) translate(60 1961) translate(380 137) translate(16 25) translate(8 .283)"/>
                                    <path stroke="#0A51B7" stroke-width=".485" d="M81.842 61c-2.803 0-5.137-1.458-6.202-3.316-.998-1.744-3.476-3.317-6.2-3.317-2.781 0-4.806 1.563-6.202 3.317C61.908 59.355 60.462 61 57.037 61c-3.424 0-5.177-1.492-6.201-3.316-.98-1.747-3.27-3.317-6.201-3.317-2.661 0-4.806 1.563-6.201 3.317C37.104 59.355 35.657 61 32.232 61" transform="translate(-760 -5288) translate(0 2554) translate(320 636) translate(60 1961) translate(380 137) translate(16 25) translate(8 .283)"/>
                                </g>
                                <g transform="translate(-760 -5288) translate(0 2554) translate(320 636) translate(60 1961) translate(380 137) translate(16 25) translate(53 44.283)">
                                    <mask id="xankaphj3d" fill="#fff">
                                        <use xlink:href="#0cww0krulc"/>
                                    </mask>
                                    <path fill="#FFF" d="M-1.672 29.231L25.745 29.231 25.745 -1.678 -1.672 -1.678z" mask="url(#xankaphj3d)"/>
                                </g>
                                <g transform="translate(-760 -5288) translate(0 2554) translate(320 636) translate(60 1961) translate(380 137) translate(16 25) translate(53 51.283)">
                                    <mask id="hd5vi3oqhf" fill="#fff">
                                        <use xlink:href="#zgnc4l2b3e"/>
                                    </mask>
                                    <path fill="#0A51B7" d="M-1.452 22.035L14.46 22.035 14.46 -2.035 -1.452 -2.035z" mask="url(#hd5vi3oqhf)"/>
                                </g>
                                <g transform="translate(-760 -5288) translate(0 2554) translate(320 636) translate(60 1961) translate(380 137) translate(16 25) translate(53 44.283)">
                                    <mask id="e0ofp73pnh" fill="#fff">
                                        <use xlink:href="#zgzrwx5o9g"/>
                                    </mask>
                                    <path fill="#000" d="M-1.672 29.231L25.745 29.231 25.745 -1.678 -1.672 -1.678z" mask="url(#e0ofp73pnh)"/>
                                </g>
                                <g>
                                    <path stroke="#000" stroke-width=".388" d="M24.037 35.612L24.037 22.777M12.97 16.388L24.037 22.778M24.037 22.777L35.072 16.406" transform="translate(-760 -5288) translate(0 2554) translate(320 636) translate(60 1961) translate(380 137) translate(16 25) translate(41 35.283)"/>
                                    <path stroke="#000" stroke-width=".779" d="M43.415.154L47.127.154 47.127 3.867M4.66.154L.948.154.948 3.867M4.66 45.213L.948 45.213.948 41.5M43.415 45.213L47.127 45.213 47.127 41.5" transform="translate(-760 -5288) translate(0 2554) translate(320 636) translate(60 1961) translate(380 137) translate(16 25) translate(41 35.283)"/>
                                    <path stroke="#C5C8CF" stroke-width=".75" d="M400.109 15.14L309.502 15.14" transform="translate(-760 -5288) translate(0 2554) translate(320 636) translate(60 1961) translate(380 137) translate(16 25) translate(41 35.283)"/>
                                    <path fill="#C5C8CF" d="M394.134 15.14L394.134 10.378 398.257 12.759 402.382 15.14 398.257 17.522 394.134 19.903z" transform="translate(-760 -5288) translate(0 2554) translate(320 636) translate(60 1961) translate(380 137) translate(16 25) translate(41 35.283)"/>
                                    <path stroke="#C5C8CF" stroke-width=".75" d="M307.651 28.205L398.258 28.205" transform="translate(-760 -5288) translate(0 2554) translate(320 636) translate(60 1961) translate(380 137) translate(16 25) translate(41 35.283)"/>
                                    <path fill="#C5C8CF" d="M313.626 28.205L313.626 32.967 309.502 30.586 305.378 28.205 309.502 25.824 313.626 23.443z" transform="translate(-760 -5288) translate(0 2554) translate(320 636) translate(60 1961) translate(380 137) translate(16 25) translate(41 35.283)"/>
                                </g>
                                <text fill="#000" font-family="NotoSansCJKkr-Medium, Noto Sans CJK KR" font-size="12" font-weight="400" transform="translate(-760 -5288) translate(0 2554) translate(320 636) translate(60 1961) translate(380 137) translate(16 25)">
                                    <tspan x="370.528" y="81.58">D</tspan> <tspan x="378.916" y="81.58" letter-spacing="-.204">a</tspan> <tspan x="385.408" y="81.58" letter-spacing="-.288">t</tspan> <tspan x="389.584" y="81.58">a link</tspan>
                                </text>
                                <text fill="#000" font-family="NotoSansCJKkr-Medium, Noto Sans CJK KR" font-size="12" font-weight="400" transform="translate(-760 -5288) translate(0 2554) translate(320 636) translate(60 1961) translate(380 137) translate(16 25)">
                                    <tspan x="364.636" y="35.044">AR </tspan> <tspan x="382.66" y="35.044" letter-spacing="-.311">c</tspan> <tspan x="388.241" y="35.044">on</tspan> <tspan x="403.098" y="35.044" letter-spacing="-.204">t</tspan> <tspan x="407.442" y="35.044">ent</tspan>
                                </text>
                            </g>
                        </g>
                    </g>
                </g>
            </g>
        </g>
    </g>
</svg>
