<svg xmlns="http://www.w3.org/2000/svg" xmlns:xlink="http://www.w3.org/1999/xlink" width="780" height="550" viewBox="0 0 780 550">
    <defs>
        <path id="prefix__a" d="M0 504.257L731.394 504.257 731.394 0 0 0z"/>
    </defs>
    <g fill="none" fill-rule="evenodd">
        <path fill="#F8F9FB" d="M0 0H780V550H0z"/>
        <g transform="translate(28 20)">
            <path fill="#092E6E" d="M343.396 287.327c0-.685-1.063-.972-3.368-.972-2.287 0-3.349.287-3.349.972s1.063.99 3.35.99c2.305 0 3.367-.305 3.367-.99zm2.394 0c0 1.765-2.107 2.72-5.762 2.72-3.637 0-5.744-.955-5.744-2.72 0-1.782 2.108-2.719 5.745-2.719 3.654 0 5.762.937 5.762 2.72zm1.764-5.312v1.855h-14.998v-1.855h6.303v-1.026h-4.43v-7.095h11.415v1.801h-9.056v.865h8.678v1.73h-8.678v.9h9.181v1.8h-4.734v1.025h6.32z"/>
            <mask id="prefix__b" fill="#fff">
                <use xlink:href="#prefix__a"/>
            </mask>
            <path fill="#092E6E" d="M360.512 285.563h2.395v-12.082h-2.395v12.082zm2.81 2.304v1.891H351.87v-5.348h2.377v3.457h9.075zm-5.24-4.806c-1.836-.631-3.097-1.856-3.817-3.405-.756 1.676-2.052 3.026-3.979 3.692l-1.207-1.891c2.755-.935 3.943-3.258 3.943-5.455v-1.621h2.414v1.621c0 2.179 1.152 4.303 3.853 5.168l-1.207 1.891zM384.651 273.445v16.637h-2.377v-9.525h-3.186v-1.909h3.186v-5.203h2.377zm-7.688 3.692c0 3.132 1.206 6.175 3.943 7.4l-1.404 1.89c-1.819-.882-3.026-2.502-3.709-4.502-.72 2.125-1.963 3.854-3.818 4.79l-1.476-1.908c2.808-1.298 4.07-4.52 4.07-7.67v-2.394h2.394v2.394zM390.263 284.284h3.259v-3.673h-3.259v3.673zm10.948-10.839v16.637h-2.377v-8.894h-2.971v4.987h-7.958V274.76h2.359v3.997h3.258v-3.997h2.341v4.519h2.971v-5.834h2.377z" mask="url(#prefix__b)"/>
            <path fill="#E6E8EB" d="M344.358 223.084L344.358 254.424 382.191 254.424 382.191 222.793z" mask="url(#prefix__b)"/>
            <path fill="#000" d="M344.642 254.142h37.268v-31.064l-37.268.287v30.777zm37.832.564h-38.396v-31.902l38.396-.295v32.197z" mask="url(#prefix__b)"/>
            <path fill="#FFF" d="M383.292 223.314h-40.176c-1.534 0-2.79-1.255-2.79-2.79v-6.154c0-1.535 1.256-2.79 2.79-2.79h40.176c1.534 0 2.789 1.255 2.789 2.79v6.155c0 1.534-1.255 2.789-2.789 2.789" mask="url(#prefix__b)"/>
            <path fill="#000" d="M383.292 211.58h-40.176c-1.534 0-2.79 1.256-2.79 2.79v6.154c0 1.535 1.256 2.79 2.79 2.79h40.176c1.534 0 2.789-1.255 2.789-2.79v-6.155c0-1.533-1.255-2.789-2.789-2.789m0 .564c1.227 0 2.225.998 2.225 2.225v6.155c0 1.227-.998 2.225-2.225 2.225h-40.176c-1.227 0-2.224-.998-2.224-2.225v-6.155c0-1.227.997-2.225 2.224-2.225h40.176" mask="url(#prefix__b)"/>
            <path fill="#FFF" d="M383.292 237.569h-40.176c-1.534 0-2.79-1.255-2.79-2.79v-6.154c0-1.536 1.256-2.79 2.79-2.79h40.176c1.534 0 2.789 1.254 2.789 2.79v6.155c0 1.534-1.255 2.788-2.789 2.788" mask="url(#prefix__b)"/>
            <path fill="#000" d="M383.292 225.835h-40.176c-1.534 0-2.79 1.255-2.79 2.79v6.154c0 1.535 1.256 2.79 2.79 2.79h40.176c1.534 0 2.789-1.255 2.789-2.79v-6.154c0-1.535-1.255-2.79-2.789-2.79m0 .564c1.227 0 2.225.998 2.225 2.226v6.154c0 1.227-.998 2.225-2.225 2.225h-40.176c-1.227 0-2.224-.998-2.224-2.225v-6.154c0-1.228.997-2.226 2.224-2.226h40.176" mask="url(#prefix__b)"/>
            <path fill="#FFF" d="M383.292 251.743h-40.176c-1.534 0-2.79-1.255-2.79-2.789V242.8c0-1.534 1.256-2.789 2.79-2.789h40.176c1.534 0 2.789 1.255 2.789 2.79v6.154c0 1.534-1.255 2.79-2.789 2.79" mask="url(#prefix__b)"/>
            <path fill="#000" d="M383.292 240.01h-40.176c-1.534 0-2.79 1.256-2.79 2.789v6.155c0 1.535 1.256 2.79 2.79 2.79h40.176c1.534 0 2.789-1.255 2.789-2.79v-6.155c0-1.533-1.255-2.79-2.789-2.79m0 .565c1.227 0 2.225.998 2.225 2.225v6.155c0 1.228-.998 2.226-2.225 2.226h-40.176c-1.227 0-2.224-.998-2.224-2.226v-6.155c0-1.227.997-2.225 2.224-2.225h40.176" mask="url(#prefix__b)"/>
            <path fill="#0A51B7" d="M370.696 217.447c0 1.042-.845 1.887-1.888 1.887-1.042 0-1.887-.845-1.887-1.887 0-1.043.845-1.888 1.887-1.888 1.043 0 1.888.845 1.888 1.888" mask="url(#prefix__b)"/>
            <path fill="#000" d="M368.809 215.56c-1.042 0-1.888.845-1.888 1.888 0 1.042.846 1.886 1.888 1.886 1.043 0 1.888-.844 1.888-1.886 0-1.043-.845-1.888-1.888-1.888m0 .564c.729 0 1.323.593 1.323 1.324 0 .728-.594 1.322-1.323 1.322-.73 0-1.322-.594-1.322-1.322 0-.731.593-1.324 1.322-1.324" mask="url(#prefix__b)"/>
            <path fill="#0A51B7" d="M376.518 217.447c0 1.042-.845 1.887-1.888 1.887-1.042 0-1.886-.845-1.886-1.887 0-1.043.844-1.888 1.886-1.888 1.043 0 1.888.845 1.888 1.888" mask="url(#prefix__b)"/>
            <path fill="#000" d="M374.63 215.56c-1.042 0-1.887.845-1.887 1.888 0 1.042.845 1.886 1.887 1.886 1.043 0 1.888-.844 1.888-1.886 0-1.043-.845-1.888-1.888-1.888m0 .564c.729 0 1.323.593 1.323 1.324 0 .728-.594 1.322-1.323 1.322-.73 0-1.322-.594-1.322-1.322 0-.731.593-1.324 1.322-1.324" mask="url(#prefix__b)"/>
            <path fill="#0A51B7" d="M382.339 217.447c0 1.042-.845 1.887-1.888 1.887-1.042 0-1.886-.845-1.886-1.887 0-1.043.844-1.888 1.886-1.888 1.043 0 1.888.845 1.888 1.888" mask="url(#prefix__b)"/>
            <path fill="#000" d="M380.451 215.56c-1.042 0-1.887.845-1.887 1.888 0 1.042.845 1.886 1.887 1.886 1.043 0 1.888-.844 1.888-1.886 0-1.043-.845-1.888-1.888-1.888m0 .564c.73 0 1.323.593 1.323 1.324 0 .728-.594 1.322-1.323 1.322s-1.322-.594-1.322-1.322c0-.731.593-1.324 1.322-1.324" mask="url(#prefix__b)"/>
            <path fill="#0A51B7" d="M370.696 231.702c0 1.042-.845 1.887-1.888 1.887-1.042 0-1.887-.845-1.887-1.887 0-1.043.845-1.888 1.887-1.888 1.043 0 1.888.845 1.888 1.888" mask="url(#prefix__b)"/>
            <path fill="#000" d="M368.809 229.815c-1.042 0-1.888.845-1.888 1.887 0 1.043.846 1.888 1.888 1.888 1.043 0 1.888-.845 1.888-1.888 0-1.042-.845-1.887-1.888-1.887m0 .564c.729 0 1.323.594 1.323 1.323 0 .73-.594 1.324-1.323 1.324-.73 0-1.322-.594-1.322-1.324 0-.73.593-1.323 1.322-1.323" mask="url(#prefix__b)"/>
            <path fill="#0A51B7" d="M376.518 231.702c0 1.042-.845 1.887-1.888 1.887-1.042 0-1.886-.845-1.886-1.887 0-1.043.844-1.888 1.886-1.888 1.043 0 1.888.845 1.888 1.888" mask="url(#prefix__b)"/>
            <path fill="#000" d="M374.63 229.815c-1.042 0-1.887.845-1.887 1.887 0 1.043.845 1.888 1.887 1.888 1.043 0 1.888-.845 1.888-1.888 0-1.042-.845-1.887-1.888-1.887m0 .564c.729 0 1.323.594 1.323 1.323 0 .73-.594 1.324-1.323 1.324-.73 0-1.322-.594-1.322-1.324 0-.73.593-1.323 1.322-1.323" mask="url(#prefix__b)"/>
            <path fill="#0A51B7" d="M382.339 231.702c0 1.042-.845 1.887-1.888 1.887-1.042 0-1.886-.845-1.886-1.887 0-1.043.844-1.888 1.886-1.888 1.043 0 1.888.845 1.888 1.888" mask="url(#prefix__b)"/>
            <path fill="#000" d="M380.451 229.815c-1.042 0-1.887.845-1.887 1.887 0 1.043.845 1.888 1.887 1.888 1.043 0 1.888-.845 1.888-1.888 0-1.042-.845-1.887-1.888-1.887m0 .564c.73 0 1.323.594 1.323 1.323 0 .73-.594 1.324-1.323 1.324s-1.322-.594-1.322-1.324c0-.73.593-1.323 1.322-1.323" mask="url(#prefix__b)"/>
            <path fill="#0A51B7" d="M370.696 245.877c0 1.042-.845 1.888-1.888 1.888-1.042 0-1.887-.846-1.887-1.888 0-1.043.845-1.888 1.887-1.888 1.043 0 1.888.845 1.888 1.888" mask="url(#prefix__b)"/>
            <path fill="#000" d="M368.809 243.99c-1.042 0-1.888.844-1.888 1.887 0 1.042.846 1.886 1.888 1.886 1.043 0 1.888-.844 1.888-1.886 0-1.043-.845-1.888-1.888-1.888m0 .564c.729 0 1.323.594 1.323 1.324 0 .73-.594 1.322-1.323 1.322-.73 0-1.322-.593-1.322-1.322 0-.73.593-1.324 1.322-1.324" mask="url(#prefix__b)"/>
            <path fill="#0A51B7" d="M376.518 245.877c0 1.042-.845 1.888-1.888 1.888-1.042 0-1.886-.846-1.886-1.888 0-1.043.844-1.888 1.886-1.888 1.043 0 1.888.845 1.888 1.888" mask="url(#prefix__b)"/>
            <path fill="#000" d="M374.63 243.99c-1.042 0-1.887.844-1.887 1.887 0 1.042.845 1.886 1.887 1.886 1.043 0 1.888-.844 1.888-1.886 0-1.043-.845-1.888-1.888-1.888m0 .564c.729 0 1.323.594 1.323 1.324 0 .73-.594 1.322-1.323 1.322-.73 0-1.322-.593-1.322-1.322 0-.73.593-1.324 1.322-1.324" mask="url(#prefix__b)"/>
            <path fill="#0A51B7" d="M382.339 245.877c0 1.042-.845 1.888-1.888 1.888-1.042 0-1.886-.846-1.886-1.888 0-1.043.844-1.888 1.886-1.888 1.043 0 1.888.845 1.888 1.888" mask="url(#prefix__b)"/>
            <path fill="#000" d="M380.451 243.99c-1.042 0-1.887.844-1.887 1.887 0 1.042.845 1.886 1.887 1.886 1.043 0 1.888-.844 1.888-1.886 0-1.043-.845-1.888-1.888-1.888m0 .564c.73 0 1.323.594 1.323 1.324 0 .73-.594 1.322-1.323 1.322s-1.322-.593-1.322-1.322c0-.73.593-1.324 1.322-1.324" mask="url(#prefix__b)"/>
            <path fill="#FFF" d="M345.162 214.349L345.162 220.545" mask="url(#prefix__b)"/>
            <path fill="#000" d="M344.881 220.545L345.445 220.545 345.445 214.349 344.881 214.349z" mask="url(#prefix__b)"/>
            <path fill="#FFF" d="M348.363 214.349L348.363 220.545" mask="url(#prefix__b)"/>
            <path fill="#000" d="M348.082 220.545L348.646 220.545 348.646 214.349 348.082 214.349z" mask="url(#prefix__b)"/>
            <path fill="#FFF" d="M351.565 214.349L351.565 220.545" mask="url(#prefix__b)"/>
            <path fill="#000" d="M351.284 220.545L351.848 220.545 351.848 214.349 351.284 214.349z" mask="url(#prefix__b)"/>
            <path fill="#FFF" d="M354.766 214.349L354.766 220.545" mask="url(#prefix__b)"/>
            <path fill="#000" d="M354.485 220.545L355.049 220.545 355.049 214.349 354.485 214.349z" mask="url(#prefix__b)"/>
            <path fill="#FFF" d="M357.967 214.349L357.967 220.545" mask="url(#prefix__b)"/>
            <path fill="#000" d="M357.686 220.545L358.25 220.545 358.25 214.349 357.686 214.349z" mask="url(#prefix__b)"/>
            <path fill="#FFF" d="M361.168 214.349L361.168 220.545" mask="url(#prefix__b)"/>
            <path fill="#000" d="M360.887 220.545L361.451 220.545 361.451 214.349 360.887 214.349z" mask="url(#prefix__b)"/>
            <path fill="#FFF" d="M346.763 214.349L346.763 220.545" mask="url(#prefix__b)"/>
            <path fill="#000" d="M346.482 220.545L347.046 220.545 347.046 214.349 346.482 214.349z" mask="url(#prefix__b)"/>
            <path fill="#FFF" d="M349.964 214.349L349.964 220.545" mask="url(#prefix__b)"/>
            <path fill="#000" d="M349.683 220.545L350.247 220.545 350.247 214.349 349.683 214.349z" mask="url(#prefix__b)"/>
            <path fill="#FFF" d="M353.165 214.349L353.165 220.545" mask="url(#prefix__b)"/>
            <path fill="#000" d="M352.884 220.545L353.448 220.545 353.448 214.349 352.884 214.349z" mask="url(#prefix__b)"/>
            <path fill="#FFF" d="M356.366 214.349L356.366 220.545" mask="url(#prefix__b)"/>
            <path fill="#000" d="M356.085 220.545L356.649 220.545 356.649 214.349 356.085 214.349z" mask="url(#prefix__b)"/>
            <path fill="#FFF" d="M359.567 214.349L359.567 220.545" mask="url(#prefix__b)"/>
            <path fill="#000" d="M359.287 220.545L359.851 220.545 359.851 214.349 359.287 214.349z" mask="url(#prefix__b)"/>
            <path fill="#FFF" d="M345.162 228.604L345.162 234.8" mask="url(#prefix__b)"/>
            <path fill="#000" d="M344.881 234.8L345.445 234.8 345.445 228.604 344.881 228.604z" mask="url(#prefix__b)"/>
            <path fill="#FFF" d="M348.363 228.604L348.363 234.8" mask="url(#prefix__b)"/>
            <path fill="#000" d="M348.082 234.8L348.646 234.8 348.646 228.604 348.082 228.604z" mask="url(#prefix__b)"/>
            <path fill="#FFF" d="M351.565 228.604L351.565 234.8" mask="url(#prefix__b)"/>
            <path fill="#000" d="M351.284 234.8L351.848 234.8 351.848 228.604 351.284 228.604z" mask="url(#prefix__b)"/>
            <path fill="#FFF" d="M354.766 228.604L354.766 234.8" mask="url(#prefix__b)"/>
            <path fill="#000" d="M354.485 234.8L355.049 234.8 355.049 228.604 354.485 228.604z" mask="url(#prefix__b)"/>
            <path fill="#FFF" d="M357.967 228.604L357.967 234.8" mask="url(#prefix__b)"/>
            <path fill="#000" d="M357.686 234.8L358.25 234.8 358.25 228.604 357.686 228.604z" mask="url(#prefix__b)"/>
            <path fill="#FFF" d="M361.168 228.604L361.168 234.8" mask="url(#prefix__b)"/>
            <path fill="#000" d="M360.887 234.8L361.451 234.8 361.451 228.604 360.887 228.604z" mask="url(#prefix__b)"/>
            <path fill="#FFF" d="M346.763 228.604L346.763 234.8" mask="url(#prefix__b)"/>
            <path fill="#000" d="M346.482 234.8L347.046 234.8 347.046 228.604 346.482 228.604z" mask="url(#prefix__b)"/>
            <path fill="#FFF" d="M349.964 228.604L349.964 234.8" mask="url(#prefix__b)"/>
            <path fill="#000" d="M349.683 234.8L350.247 234.8 350.247 228.604 349.683 228.604z" mask="url(#prefix__b)"/>
            <path fill="#FFF" d="M353.165 228.604L353.165 234.8" mask="url(#prefix__b)"/>
            <path fill="#000" d="M352.884 234.8L353.448 234.8 353.448 228.604 352.884 228.604z" mask="url(#prefix__b)"/>
            <path fill="#FFF" d="M356.366 228.604L356.366 234.8" mask="url(#prefix__b)"/>
            <path fill="#000" d="M356.085 234.8L356.649 234.8 356.649 228.604 356.085 228.604z" mask="url(#prefix__b)"/>
            <path fill="#FFF" d="M359.567 228.604L359.567 234.8" mask="url(#prefix__b)"/>
            <path fill="#000" d="M359.287 234.8L359.851 234.8 359.851 228.604 359.287 228.604z" mask="url(#prefix__b)"/>
            <path fill="#FFF" d="M345.162 242.859L345.162 249.055" mask="url(#prefix__b)"/>
            <path fill="#000" d="M344.881 249.055L345.445 249.055 345.445 242.859 344.881 242.859z" mask="url(#prefix__b)"/>
            <path fill="#FFF" d="M348.363 242.859L348.363 249.055" mask="url(#prefix__b)"/>
            <path fill="#000" d="M348.082 249.055L348.646 249.055 348.646 242.859 348.082 242.859z" mask="url(#prefix__b)"/>
            <path fill="#FFF" d="M351.565 242.859L351.565 249.055" mask="url(#prefix__b)"/>
            <path fill="#000" d="M351.284 249.055L351.848 249.055 351.848 242.859 351.284 242.859z" mask="url(#prefix__b)"/>
            <path fill="#FFF" d="M354.766 242.859L354.766 249.055" mask="url(#prefix__b)"/>
            <path fill="#000" d="M354.485 249.055L355.049 249.055 355.049 242.859 354.485 242.859z" mask="url(#prefix__b)"/>
            <path fill="#FFF" d="M357.967 242.859L357.967 249.055" mask="url(#prefix__b)"/>
            <path fill="#000" d="M357.686 249.055L358.25 249.055 358.25 242.859 357.686 242.859z" mask="url(#prefix__b)"/>
            <path fill="#FFF" d="M361.168 242.859L361.168 249.055" mask="url(#prefix__b)"/>
            <path fill="#000" d="M360.887 249.055L361.451 249.055 361.451 242.859 360.887 242.859z" mask="url(#prefix__b)"/>
            <path fill="#FFF" d="M346.763 242.859L346.763 249.055" mask="url(#prefix__b)"/>
            <path fill="#000" d="M346.482 249.055L347.046 249.055 347.046 242.859 346.482 242.859z" mask="url(#prefix__b)"/>
            <path fill="#FFF" d="M349.964 242.859L349.964 249.055" mask="url(#prefix__b)"/>
            <path fill="#000" d="M349.683 249.055L350.247 249.055 350.247 242.859 349.683 242.859z" mask="url(#prefix__b)"/>
            <path fill="#FFF" d="M353.165 242.859L353.165 249.055" mask="url(#prefix__b)"/>
            <path fill="#000" d="M352.884 249.055L353.448 249.055 353.448 242.859 352.884 242.859z" mask="url(#prefix__b)"/>
            <path fill="#FFF" d="M356.366 242.859L356.366 249.055" mask="url(#prefix__b)"/>
            <path fill="#000" d="M356.085 249.055L356.649 249.055 356.649 242.859 356.085 242.859z" mask="url(#prefix__b)"/>
            <path fill="#FFF" d="M359.567 242.859L359.567 249.055" mask="url(#prefix__b)"/>
            <path fill="#000" d="M359.287 249.055L359.851 249.055 359.851 242.859 359.287 242.859z" mask="url(#prefix__b)"/>
            <path fill="#E6E8EB" d="M378 242.993s.187-1.192 1.878-2.006c1.689-.814 5.93-1.965 11.108-1.25 5.179.715 6.54 2.001 6.54 2.001l.623 1.377-.002 15.145s-.683 1.815-4.157 2.566c-3.473.751-10.388 1.001-13.706-.532 0 0-2.097-.876-2.284-2.19v-15.11z" mask="url(#prefix__b)"/>
            <path fill="#000" d="M378.283 258.09c.143.334 1.613 3.208 9.786 3.208 8.156 0 9.648-2.864 9.797-3.209l.001-15.187c-.106-.297-1.355-3.106-10.096-3.106-9.133 0-9.486 3.12-9.489 3.152l.001 15.142zm9.786 3.772c-9.117 0-10.293-3.489-10.338-3.637l-.012-.083V242.93c.007-.164.296-3.698 10.052-3.698 9.712 0 10.62 3.418 10.654 3.562l.006.065-.013 15.367c-.046.148-1.233 3.636-10.349 3.636z" mask="url(#prefix__b)"/>
            <path fill="#000" d="M387.856 251.802c-8.858 0-10.073-3.263-10.123-3.403l.534-.185c.012.03 1.204 3.024 9.59 3.024l.345-.002c8.68-.083 9.668-2.978 9.675-3.007l.544.154c-.037.136-1.026 3.329-10.212 3.417l-.353.002M387.858 256.76c-8.86 0-10.076-3.263-10.125-3.403l.535-.182-.267.09.266-.093c.011.03 1.204 3.024 9.594 3.024l.341-.002c8.68-.083 9.667-2.978 9.676-3.007l.543.154c-.038.136-1.027 3.329-10.213 3.417l-.35.002M387.856 246.844c-8.858 0-10.073-3.262-10.123-3.402l.536-.182-.267.09.265-.093c.012.03 1.204 3.023 9.59 3.023l.345-.002c8.68-.083 9.668-2.977 9.675-3.006l.544.154c-.037.136-1.026 3.328-10.212 3.416l-.353.002" mask="url(#prefix__b)"/>
            <path fill="#C5C8CF" d="M426.401 238.082L599.007 238.082 599.007 237.332 426.401 237.332z" mask="url(#prefix__b)"/>
            <path fill="#C5C8CF" d="M593.031 237.707L593.031 232.945 597.155 235.326 601.279 237.707 597.155 240.088 593.031 242.469zM433.573 237.707L433.573 242.469 429.449 240.088 425.325 237.707 429.449 235.326 433.573 232.945z" mask="url(#prefix__b)"/>
            <path fill="#000" d="M328.943 129.347h4.881v-1.942h-4.881v1.942zm-1.213.985h7.305v-3.91h-7.305v3.91zm1.188 5.229h6.297v1.008h-7.531v-3.131h1.234v2.123zm7.389-4.162v.996h-4.198v2.027h-1.236v-2.027h-4.389v-.996h9.823zM345.595 136.76h1.176v-10.83h-1.176v10.83zm-2.183-10.613h1.164v10.097h-1.164v-5.492h-1.594v-1.008h1.594v-3.597zm-2.59 2.769c0 1.848.696 3.719 2.207 4.594l-.72.899c-1.02-.599-1.69-1.667-2.075-2.926-.382 1.367-1.08 2.531-2.123 3.191l-.744-.912c1.535-.959 2.256-2.914 2.256-4.846v-.779h-1.906v-1.02h4.892v1.02h-1.787v.779zM361.16 125.942v10.83h-1.176v-5.324h-1.152v4.82h-1.15v-10.097h1.15v4.257h1.152v-4.486h1.176zm-5.338 5.89c0-.9-.516-1.5-1.248-1.5-.73 0-1.246.6-1.246 1.5 0 .899.516 1.487 1.246 1.487.732 0 1.248-.588 1.248-1.487zm1.104 0c0 1.487-.985 2.518-2.352 2.518s-2.35-1.031-2.35-2.518c0-1.5.983-2.52 2.35-2.52s2.352 1.02 2.352 2.52zm-1.739-4.126h2.026v.996h-5.3v-.996h2.05v-1.452h1.224v1.452zM372.246 135.68v.996h-7.328v-2.914h5.793v-.9h-5.817v-.983h7.053v2.807h-5.793v.995h6.092zm-4.04-7.303c-.673 1.655-2.269 2.758-4.655 3.298l-.432-1.007c2.566-.552 3.898-1.74 4.066-3.25h-3.478v-.996h4.846c0 .348-.024.684-.084.996h2.242v-1.476h1.236v5.494h-1.236v-.984h-2.65v-.96h2.65v-1.115h-2.506zM376.33 127.98c0 .613.9.937 2.578.937 1.68 0 2.58-.324 2.58-.936 0-.623-.9-.947-2.58-.947-1.678 0-2.578.324-2.578.947zm.084 7.749h6.477v.947h-7.7v-2.722h6.176v-.78h-6.2v-.935h7.411v2.59h-6.164v.9zm-1.367-7.748c0-1.211 1.428-1.871 3.861-1.871 2.424 0 3.863.66 3.863 1.87 0 1.2-1.439 1.86-3.863 1.86-2.433 0-3.86-.66-3.86-1.86zm-1.044 3.479h9.811v-.983h-9.81v.983zM396.139 136.784h1.236v-10.843h-1.236v10.843zm-5.805-8.107c0 .768.672 1.259 1.607 1.259.948 0 1.608-.491 1.608-1.259 0-.756-.66-1.247-1.608-1.247-.935 0-1.607.491-1.607 1.247zm-1.188 0c0-1.331 1.176-2.267 2.795-2.267 1.62 0 2.795.936 2.795 2.267 0 1.343-1.175 2.278-2.795 2.278-1.619 0-2.795-.935-2.795-2.278zm6.37 3.598c-.948.192-1.944.299-2.903.372v3.801h-1.234v-3.729c-1.02.035-1.981.047-2.818.047l-.145-1.019c1.955 0 4.678-.036 7.016-.384l.084.912zM409.447 129.397v1.02h-1.535v3.645h-1.236v-8.12h1.236v3.455h1.535zm-6.789 2.41c.863 0 1.451-.408 1.451-1.092 0-.683-.588-1.09-1.45-1.09-.853 0-1.44.407-1.44 1.09 0 .684.587 1.092 1.44 1.092zm-.359 3.754h6.044v1.008h-7.292v-3.131h1.248v2.123zm.36-2.795c-1.548 0-2.628-.814-2.628-2.051 0-1.222 1.08-2.05 2.627-2.05 1.56 0 2.627.828 2.627 2.05 0 1.237-1.068 2.05-2.627 2.05zm3.202-4.605h-6.393v-.983h2.58v-1.248h1.233v1.248h2.58v.983zM352.473 148.299v-6.369h1.234v8.24h-1.234v-1.008h-2.123v-.863h2.123zm-5.793-4.042c0 .611.61.995 1.51.995.888 0 1.5-.384 1.5-.995s-.612-.995-1.5-.995c-.9 0-1.51.384-1.51.995zm7.279 7.304v1.008h-7.82v-3.203h1.236v2.195h6.584zm-8.455-7.304c0-1.151 1.092-1.907 2.686-1.907 1.584 0 2.676.756 2.676 1.907s-1.092 1.907-2.676 1.907c-1.594 0-2.686-.756-2.686-1.907zm2.196 3.55c-1.032.048-2.016.06-2.868.06l-.156-1.007c1.992-.012 4.654-.037 6.945-.325l.096.888c-.912.156-1.86.264-2.783.313v2.085H347.7v-2.014zM357.443 148.863h7.305v3.886h-1.237v-2.904h-6.068v-.982zm7.305-6.934v6.465h-1.237v-1.306h-2.627v-1.007h2.627v-1.296h-2.459c-.718 1.69-2.349 2.901-4.664 3.525l-.48-.983c2.517-.672 4.017-2.014 4.246-3.681h-3.67v-.996h4.988c0 .397-.035.791-.119 1.14h2.158v-1.86h1.237zM379.148 141.93v6.44h-1.236v-.875h-1.655v-1.007h1.655v-1.116h-1.63v-1.007h1.63v-2.435h1.236zm-5.889 9.739h4.664v-.947h-4.664v.947zm4.664-2.866h1.225v3.838h-7.113v-3.838h1.224v.983h4.664v-.983zm-4.677-1.44c.804 0 1.343-.395 1.343-1.031 0-.635-.539-1.032-1.343-1.032-.79 0-1.33.397-1.33 1.032 0 .636.54 1.032 1.33 1.032zm0 .923c-1.463 0-2.483-.78-2.483-1.954 0-1.175 1.02-1.955 2.483-1.955 1.476 0 2.496.78 2.496 1.955s-1.02 1.954-2.496 1.954zm2.963-4.353h-6.008v-.983h2.433v-1.116h1.237v1.116h2.338v.983zM384.369 151.644h4.594v-1.199h-4.594v1.199zm4.594-3.381h1.224v4.378h-7.041v-4.378h1.223v1.223h4.594v-1.223zm-3.143-3.311c0-.923-.695-1.51-1.631-1.51-.959 0-1.642.587-1.642 1.51 0 .912.683 1.524 1.642 1.524.936 0 1.631-.612 1.631-1.524zm4.367-3.009v5.804h-1.236v-2.302h-2.002c-.217 1.222-1.32 2.05-2.76 2.05-1.63 0-2.83-1.044-2.83-2.543 0-1.487 1.2-2.53 2.83-2.53 1.428 0 2.52.804 2.76 2.015h2.002v-2.494h1.236z" mask="url(#prefix__b)"/>
            <path fill="#FFF" d="M424.24 56.733c0 31.125-25.232 56.356-56.357 56.356s-56.358-25.231-56.358-56.356S336.758.376 367.883.376c31.125 0 56.357 25.232 56.357 56.357" mask="url(#prefix__b)"/>
            <path fill="#C5C8CF" d="M367.883.75c-30.868 0-55.981 25.113-55.981 55.982 0 30.87 25.113 55.982 55.98 55.982 30.87 0 55.983-25.113 55.983-55.982S398.752.75 367.883.75m0 112.714c-31.282 0-56.731-25.449-56.731-56.732C311.152 25.45 336.6 0 367.882 0c31.283 0 56.733 25.45 56.733 56.732 0 31.283-25.45 56.732-56.732 56.732" mask="url(#prefix__b)"/>
            <path fill="#273A5B" d="M382.063 53.679c-1.316 0-2.375.55-3.147 1.639-.248-.48-.61-.868-1.08-1.154-.53-.322-1.15-.485-1.841-.485-.558 0-1.122.155-1.68.464-.466.258-.837.572-1.104.94v-1.105h-1.89v9.47h1.965V58.2c0-.73.217-1.373.649-1.91.428-.536.942-.797 1.572-.797.695 0 1.193.178 1.48.527.292.358.44.959.44 1.788v5.64h1.965V58.2c0-.73.219-1.373.65-1.91.429-.536.943-.797 1.572-.797.694 0 1.193.178 1.478.527.293.357.444.959.444 1.788v5.64h1.962v-5.903c0-1.223-.3-2.182-.892-2.851-.596-.674-1.45-1.015-2.543-1.015M393.51 61.003c-.517.552-1.168.81-2.046.81-.88 0-1.53-.258-2.048-.81-.55-.586-.83-1.365-.83-2.315 0-.938.28-1.71.829-2.296.532-.565 1.183-.828 2.049-.828.865 0 1.517.263 2.047.828.55.586.829 1.358.829 2.296 0 .95-.28 1.73-.83 2.315m-2.046-7.324c-1.39 0-2.558.478-3.477 1.423-.906.942-1.364 2.148-1.364 3.586 0 1.438.458 2.644 1.365 3.586.918.945 2.087 1.423 3.476 1.423 1.388 0 2.552-.478 3.457-1.422.918-.929 1.384-2.136 1.384-3.587 0-1.438-.466-2.644-1.383-3.586-.906-.945-2.07-1.423-3.458-1.423M405.088 57.533c.163-.626.456-1.132.853-1.47.443-.379.98-.57 1.598-.57.752 0 1.359.2 1.802.597.395.354.65.863.725 1.443h-4.978zm7.066 1.356c0-1.632-.427-2.964-1.24-3.85-.824-.903-1.948-1.36-3.338-1.36-1.353 0-2.48.481-3.348 1.434-.854.935-1.305 2.195-1.305 3.646 0 1.41.439 2.558 1.344 3.514.893.945 2.045 1.424 3.422 1.424.94 0 1.797-.227 2.544-.673.596-.356 1.165-.9 1.56-1.492l.059-.086-1.407-1.299-.08.117c-.661.998-1.585 1.547-2.601 1.547-.836 0-1.465-.228-1.978-.718-.544-.52-.81-1.109-.856-1.896h7.194l.03-.308zM363.114 57.533c.163-.626.456-1.132.853-1.47.443-.379.98-.57 1.597-.57.753 0 1.36.2 1.802.597.397.354.651.863.725 1.443h-4.977zm2.488-3.854c-1.353 0-2.48.481-3.348 1.434-.855.936-1.306 2.196-1.306 3.646 0 1.41.44 2.558 1.345 3.514.892.945 2.044 1.424 3.422 1.424.941 0 1.796-.227 2.544-.673.596-.356 1.166-.9 1.561-1.493l.058-.085-1.408-1.299-.078.117c-.662.998-1.586 1.547-2.603 1.547-.835 0-1.463-.228-1.977-.718-.536-.514-.81-1.119-.856-1.896h7.194l.03-.308c0-1.632-.428-2.964-1.239-3.85-.826-.903-1.949-1.36-3.339-1.36zM400.237 51.399h-.229l-1.679 1.064-.056.037v1.637h-1.61v1.815h1.61v5.013c.013.855.281 1.534.797 2.016.49.459 1.125.695 1.941.726l.097.002c.413 0 .992-.081 1.295-.184l.082-.028v-1.9l-.17.075c-.118.053-.23.09-.34.115h-.002c-.188.04-.554.074-.689.068-.298-.015-.523-.106-.73-.297-.21-.193-.317-.582-.317-1.156v-4.45h2.248v-1.815h-2.248v-2.738zM351.747 56.637v-4.941h4.15c1.363 0 2.471 1.108 2.471 2.47 0 1.363-1.108 2.47-2.47 2.47h-4.15zm7.685.194c.594-.767.91-1.69.91-2.665 0-.975-.316-1.897-.91-2.665-.832-1.08-2.09-1.697-3.453-1.697h-6.208l.001 13.66h1.975v-4.936h3.116l3.725 4.886.036.05h2.51l-3.908-5.12c.872-.261 1.65-.793 2.206-1.513z" mask="url(#prefix__b)"/>
            <path fill="#207FF4" d="M330.286 66.737L339.724 61.281 339.724 58.053 330.286 63.535 330.286 63.538 326.386 61.285 326.386 56.786 333.053 52.938 330.282 51.334 323.612 55.184 323.612 55.184 323.612 55.184 323.612 62.886z" mask="url(#prefix__b)"/>
            <path fill="#7DB3F6" d="M342.499 55.189L333.055 49.733 330.282 51.334 336.951 55.193 336.955 55.191 339.725 56.79 339.725 61.28 339.721 61.282 335.825 63.531 329.158 59.661 326.384 61.285 335.824 66.735 342.494 62.883z" mask="url(#prefix__b)"/>
            <path fill="#C0D8FF" d="M333.055 46.53L326.384 50.381 326.385 50.382 326.384 50.381 326.384 61.284 329.159 62.885 329.159 51.982 329.158 51.982 329.159 51.982 333.055 49.733 336.951 51.982 336.951 59.664 339.725 58.052 339.725 50.381z" mask="url(#prefix__b)"/>
            <path fill="#207FF4" d="M326.386 56.786L326.386 56.786 333.053 52.937 330.282 51.333 323.613 55.184 323.613 55.183 323.613 55.184z" mask="url(#prefix__b)"/>
            <path fill="#000" d="M24.651 310.606v1.02h-1.439v3.68h-1.248v-8.131h1.248v3.43h1.44zm-7.208 6.187h6.116v1.008h-7.363v-3.214h1.247v2.206zm1.751-5.108c.216-1.163.252-2.015.264-2.686h-4.234v-1.008h5.446v.624c0 .73 0 1.799-.264 3.202l-1.212-.132zm2.195 1.57c-2.255.397-4.809.456-6.692.456l-.132-1.006c.648 0 1.391 0 2.158-.025v-2.22h1.224v2.185c1.127-.05 2.291-.121 3.358-.29l.084.9zM33.413 318.029h1.247V307.15h-1.247v10.879zm-5.829-3.597c1.715-.013 3.214-.097 4.93-.373l.132 1.008c-1.86.324-3.479.384-5.386.384h-.923v-4.295h3.777v-2.013h-3.802v-1.008h5.05v4.018h-3.778v2.279zM39.632 307.511L40.591 307.511 37.257 319.24 36.297 319.24zM48.809 316.242c0-.552-.852-.828-2.494-.828-1.632 0-2.484.276-2.484.828 0 .576.852.84 2.484.84 1.642 0 2.494-.264 2.494-.84zm1.235 0c0 1.151-1.367 1.763-3.73 1.763-2.351 0-3.73-.612-3.73-1.763 0-1.14 1.379-1.739 3.73-1.739 2.363 0 3.73.6 3.73 1.74zm1.176-3.406v.996h-9.8v-.996h4.283v-.888H42.68v-4.474h7.376v.948h-6.141v.816h5.877v.923h-5.877v.84h6.213v.947H46.95v.888h4.27zM60.544 317.993h1.176v-10.83h-1.176v10.83zm-2.183-10.614h1.163v10.099h-1.163v-5.493h-1.594v-1.008h1.594v-3.598zm-2.59 2.771c0 1.846.696 3.717 2.207 4.592l-.72.901c-1.02-.6-1.691-1.668-2.074-2.927-.384 1.367-1.08 2.53-2.123 3.19l-.745-.912c1.536-.959 2.255-2.914 2.255-4.844v-.781h-1.906v-1.019h4.893v1.019h-1.787v.781zM70.877 308.291h-6.129v-.852H72.1v2.387h-6.117v.768h6.309v.863h-7.519v-2.436h6.104v-.73zm-4.978 8.742h6.561v.852h-7.784v-2.483h6.237v-.767h-6.261v-.852h7.484v2.423h-6.237v.827zm-2.386-3.98h9.822v-.912h-9.822v.911zM85.649 318.018h1.235v-10.843h-1.235v10.843zm-5.805-8.108c0 .768.672 1.259 1.607 1.259.947 0 1.608-.491 1.608-1.259 0-.756-.661-1.248-1.608-1.248-.935 0-1.607.492-1.607 1.248zm-1.188 0c0-1.332 1.176-2.267 2.795-2.267s2.795.935 2.795 2.267c0 1.343-1.176 2.278-2.795 2.278s-2.795-.935-2.795-2.278zm6.369 3.598c-.947.191-1.943.299-2.902.371v3.803h-1.235v-3.731c-1.02.036-1.98.048-2.819.048l-.144-1.018c1.955 0 4.678-.037 7.016-.385l.084.912zM98.956 310.63v1.02h-1.535v3.645h-1.236v-8.12h1.236v3.454h1.535zm-6.789 2.41c.864 0 1.451-.408 1.451-1.092 0-.683-.587-1.09-1.45-1.09-.853 0-1.44.407-1.44 1.09 0 .684.587 1.091 1.44 1.091zm-.359 3.753h6.044v1.008H90.56v-3.13h1.248v2.122zm.36-2.794c-1.548 0-2.627-.815-2.627-2.05 0-1.224 1.08-2.05 2.626-2.05 1.56 0 2.627.826 2.627 2.05 0 1.235-1.067 2.05-2.627 2.05zm3.202-4.605h-6.393v-.984h2.58v-1.247h1.234v1.247h2.58v.984zM41.321 329.531v-6.369h1.235v8.24h-1.235v-1.008h-2.123v-.863h2.123zm-5.793-4.04c0 .61.611.993 1.511.993.887 0 1.5-.383 1.5-.994 0-.61-.613-.996-1.5-.996-.9 0-1.51.385-1.51.996zm7.28 7.302v1.008h-7.82V330.6h1.235v2.194h6.585zm-8.456-7.303c0-1.152 1.092-1.908 2.687-1.908 1.583 0 2.675.756 2.675 1.908 0 1.15-1.092 1.906-2.675 1.906-1.595 0-2.687-.756-2.687-1.906zm2.196 3.55c-1.032.048-2.015.06-2.867.06l-.156-1.008c1.991-.012 4.653-.036 6.944-.325l.096.89c-.91.155-1.859.263-2.782.312v2.085h-1.235v-2.015zM46.292 330.096h7.305v3.885h-1.236v-2.903h-6.069v-.982zm7.305-6.934v6.465h-1.236v-1.306h-2.627v-1.008h2.627v-1.295h-2.459c-.719 1.69-2.35 2.902-4.665 3.525l-.48-.982c2.518-.672 4.018-2.016 4.246-3.682h-3.67v-.996h4.989c0 .397-.036.79-.12 1.139h2.159v-1.86h1.236zM67.997 323.162v6.441h-1.235v-.875h-1.656v-1.007h1.656v-1.116h-1.63v-1.007h1.63v-2.436h1.235zm-5.889 9.74h4.665v-.947h-4.665v.947zm4.665-2.867h1.224v3.838h-7.112v-3.838h1.223v.984h4.665v-.984zm-4.677-1.439c.803 0 1.343-.395 1.343-1.032 0-.634-.54-1.03-1.343-1.03-.79 0-1.33.396-1.33 1.03 0 .637.54 1.032 1.33 1.032zm0 .923c-1.463 0-2.483-.779-2.483-1.955 0-1.175 1.02-1.955 2.483-1.955 1.475 0 2.495.78 2.495 1.955 0 1.176-1.02 1.955-2.495 1.955zm2.963-4.353H59.05v-.984h2.434v-1.116h1.236v1.116h2.34v.984zM73.219 332.877h4.594v-1.199h-4.594v1.199zm4.594-3.381h1.223v4.377h-7.04v-4.377h1.223v1.223h4.594v-1.223zm-3.143-3.31c0-.924-.695-1.512-1.631-1.512-.959 0-1.643.588-1.643 1.512 0 .912.684 1.523 1.643 1.523.936 0 1.631-.611 1.631-1.523zm4.366-3.01v5.805h-1.235v-2.303h-2.003c-.216 1.223-1.319 2.051-2.759 2.051-1.631 0-2.83-1.045-2.83-2.543 0-1.489 1.199-2.532 2.83-2.532 1.428 0 2.519.805 2.759 2.016h2.003v-2.494h1.235z" mask="url(#prefix__b)"/>
            <path fill="#FFF" d="M113.09 235.965c0 31.126-25.232 56.357-56.357 56.357S.375 267.091.375 235.965c0-31.125 25.233-56.356 56.358-56.356 31.125 0 56.357 25.231 56.357 56.356" mask="url(#prefix__b)"/>
            <path fill="#C5C8CF" d="M56.732 179.984c-30.869 0-55.982 25.113-55.982 55.98 0 30.87 25.113 55.984 55.982 55.984 30.87 0 55.982-25.113 55.982-55.983 0-30.868-25.113-55.981-55.982-55.981m0 112.714C25.45 292.698 0 267.248 0 235.965c0-31.282 25.45-56.731 56.732-56.731s56.732 25.449 56.732 56.73c0 31.284-25.45 56.734-56.732 56.734" mask="url(#prefix__b)"/>
            <path fill="#273A5B" d="M70.912 232.912c-1.316 0-2.373.551-3.146 1.638-.249-.479-.61-.867-1.08-1.154-.53-.32-1.149-.484-1.842-.484-.556 0-1.12.155-1.679.463-.466.258-.837.573-1.105.94v-1.104h-1.888v9.471h1.964v-5.249c0-.73.217-1.373.648-1.91.43-.537.943-.798 1.572-.798.696 0 1.194.178 1.481.528.292.357.44.96.44 1.787v5.642h1.965v-5.249c0-.73.22-1.373.65-1.91.428-.537.942-.798 1.571-.798.694 0 1.193.178 1.48.528.293.357.442.96.442 1.787v5.642h1.964v-5.904c0-1.223-.3-2.182-.893-2.852-.595-.673-1.45-1.014-2.544-1.014M82.36 240.237c-.518.552-1.169.809-2.047.809-.879 0-1.53-.257-2.048-.81-.55-.585-.829-1.364-.829-2.314 0-.939.28-1.71.83-2.297.531-.565 1.181-.827 2.047-.827.865 0 1.517.262 2.047.827.551.587.83 1.358.83 2.297 0 .95-.279 1.728-.83 2.315m-2.047-7.325c-1.389 0-2.557.477-3.477 1.423-.906.941-1.364 2.148-1.364 3.587 0 1.436.458 2.643 1.365 3.585.92.945 2.087 1.423 3.476 1.423 1.388 0 2.552-.478 3.457-1.423.92-.928 1.384-2.136 1.384-3.585 0-1.439-.465-2.645-1.382-3.587-.907-.946-2.07-1.423-3.459-1.423M93.938 236.767c.162-.627.456-1.132.852-1.47.444-.38.981-.571 1.598-.571.752 0 1.36.2 1.802.598.397.354.65.862.725 1.443h-4.978zm7.066 1.356c0-1.632-.428-2.964-1.24-3.852-.825-.902-1.948-1.358-3.338-1.358-1.353 0-2.48.48-3.347 1.433-.855.936-1.306 2.196-1.306 3.647 0 1.409.439 2.558 1.344 3.514.892.945 2.044 1.423 3.421 1.423.942 0 1.797-.226 2.544-.672.597-.357 1.167-.9 1.562-1.492l.057-.087-1.406-1.3-.08.119c-.66.998-1.586 1.547-2.602 1.547-.835 0-1.463-.228-1.978-.72-.544-.52-.81-1.108-.856-1.894h7.196l.03-.308zM51.964 236.767c.163-.626.456-1.132.853-1.47.443-.38.98-.571 1.597-.571.753 0 1.36.2 1.803.598.396.354.65.862.724 1.443h-4.977zm2.488-3.854c-1.353 0-2.48.48-3.348 1.433-.854.936-1.306 2.197-1.306 3.647 0 1.409.44 2.558 1.345 3.514.892.945 2.044 1.423 3.422 1.423.94 0 1.796-.226 2.544-.672.596-.357 1.166-.901 1.56-1.493l.059-.086-1.407-1.3-.08.119c-.661.998-1.585 1.547-2.601 1.547-.836 0-1.464-.228-1.978-.72-.536-.513-.81-1.117-.856-1.894H59l.03-.308c0-1.633-.428-2.965-1.24-3.852-.825-.902-1.948-1.358-3.338-1.358zM89.087 230.631h-.23l-1.678 1.065-.056.037v1.637h-1.61v1.814h1.61v5.013c.013.855.28 1.534.797 2.017.489.458 1.125.695 1.94.725.033.002.065.002.098.002.413 0 .992-.081 1.295-.184l.082-.027v-1.9l-.17.075c-.118.053-.23.09-.341.115h-.001c-.188.041-.554.073-.69.067-.297-.014-.522-.106-.73-.297-.21-.193-.316-.582-.316-1.156v-4.45h2.248v-1.814h-2.248v-2.739zM40.597 235.87v-4.942h4.15c1.363 0 2.47 1.108 2.47 2.47 0 1.363-1.107 2.471-2.47 2.471h-4.15zm7.685.193c.595-.767.91-1.689.91-2.665 0-.975-.315-1.897-.91-2.665-.832-1.078-2.091-1.696-3.453-1.696h-6.207v13.66h1.975v-4.937h3.116l3.725 4.886.036.051h2.51l-3.908-5.12c.872-.26 1.65-.793 2.206-1.514z" mask="url(#prefix__b)"/>
            <path fill="#207FF4" d="M19.137 245.971L28.575 240.514 28.575 237.286 19.136 242.768 19.136 242.772 15.236 240.519 15.236 236.02 21.903 232.171 19.132 230.567 12.462 234.417 12.462 234.418 12.462 242.119 19.136 245.971z" mask="url(#prefix__b)"/>
            <path fill="#7DB3F6" d="M31.349 234.421L21.905 228.966 19.132 230.567 25.801 234.426 25.805 234.424 28.575 236.023 28.575 240.512 28.571 240.515 24.675 242.764 18.008 238.894 15.235 240.518 24.674 245.967 31.345 242.116z" mask="url(#prefix__b)"/>
            <path fill="#C0D8FF" d="M21.904 225.763L15.234 229.615 15.234 240.518 18.008 242.119 18.008 231.216 18.008 231.215 18.008 231.216 21.904 228.966 25.8 231.216 25.8 238.898 28.575 237.286 28.575 229.615z" mask="url(#prefix__b)"/>
            <path fill="#207FF4" d="M15.235 236.02L15.235 236.02 21.902 232.171 19.131 230.567 12.462 234.417 12.462 234.418z" mask="url(#prefix__b)"/>
            <path fill="#000" d="M635.722 310.581h4.881v-1.942h-4.881v1.942zm-1.213.984h7.305v-3.91h-7.305v3.91zm1.188 5.228h6.297v1.008h-7.532v-3.13h1.235v2.122zm7.388-4.161v.995h-4.197v2.027h-1.236v-2.027h-4.389v-.995h9.822zM652.374 317.993h1.176v-10.83h-1.176v10.83zm-2.183-10.614h1.163v10.099h-1.163v-5.493h-1.594v-1.008h1.594v-3.598zm-2.59 2.771c0 1.846.696 3.717 2.207 4.592l-.72.901c-1.02-.6-1.691-1.668-2.074-2.927-.384 1.367-1.08 2.53-2.123 3.19l-.745-.912c1.536-.959 2.255-2.914 2.255-4.844v-.781h-1.906v-1.019h4.893v1.019h-1.787v.781zM667.938 307.175v10.83h-1.175v-5.325h-1.152v4.822h-1.151v-10.099h1.151v4.257h1.152v-4.485h1.175zm-5.337 5.89c0-.901-.516-1.5-1.247-1.5-.732 0-1.248.599-1.248 1.5 0 .898.516 1.486 1.248 1.486.73 0 1.246-.588 1.246-1.486zm1.104 0c0 1.486-.985 2.517-2.351 2.517-1.368 0-2.351-1.031-2.351-2.517 0-1.5.983-2.52 2.35-2.52 1.368 0 2.352 1.02 2.352 2.52zm-1.74-4.127h2.027v.996h-5.3v-.996h2.05v-1.451h1.224v1.451zM679.025 316.914v.995h-7.328v-2.915h5.793v-.898h-5.818v-.985h7.053v2.807h-5.793v.996h6.093zm-4.042-7.305c-.672 1.656-2.267 2.76-4.653 3.3l-.432-1.009c2.566-.55 3.898-1.739 4.065-3.25h-3.477v-.996h4.845c0 .348-.024.684-.084.996h2.243v-1.475h1.235v5.493h-1.235v-.983h-2.65v-.96h2.65v-1.116h-2.507zM683.11 309.214c0 .612.898.936 2.577.936 1.68 0 2.58-.324 2.58-.936 0-.624-.9-.947-2.58-.947-1.679 0-2.578.323-2.578.947zm.083 7.747h6.476v.948h-7.7v-2.722h6.177v-.78h-6.2v-.935h7.411v2.591h-6.164v.898zm-1.367-7.747c0-1.212 1.427-1.871 3.861-1.871 2.423 0 3.862.659 3.862 1.871 0 1.199-1.439 1.858-3.862 1.858-2.434 0-3.86-.659-3.86-1.858zm-1.045 3.478h9.811v-.982h-9.81v.982zM702.918 318.018h1.235v-10.843h-1.235v10.843zm-5.805-8.108c0 .768.672 1.259 1.608 1.259.947 0 1.607-.491 1.607-1.259 0-.756-.66-1.248-1.607-1.248-.936 0-1.608.492-1.608 1.248zm-1.187 0c0-1.332 1.176-2.267 2.795-2.267s2.795.935 2.795 2.267c0 1.343-1.176 2.278-2.795 2.278s-2.795-.935-2.795-2.278zm6.369 3.598c-.947.191-1.943.299-2.902.371v3.803h-1.236v-3.731c-1.019.036-1.979.048-2.818.048l-.145-1.018c1.955 0 4.678-.037 7.017-.385l.084.912zM716.226 310.63v1.02h-1.535v3.645h-1.236v-8.12h1.236v3.454h1.535zm-6.79 2.41c.865 0 1.452-.408 1.452-1.092 0-.683-.587-1.09-1.451-1.09-.852 0-1.44.407-1.44 1.09 0 .684.588 1.091 1.44 1.091zm-.358 3.753h6.044v1.008h-7.292v-3.13h1.248v2.122zm.359-2.794c-1.547 0-2.626-.815-2.626-2.05 0-1.224 1.079-2.05 2.626-2.05 1.56 0 2.627.826 2.627 2.05 0 1.235-1.067 2.05-2.627 2.05zm3.203-4.605h-6.393v-.984h2.579v-1.247h1.235v1.247h2.579v.984zM659.251 329.531v-6.369h1.235v8.24h-1.235v-1.008h-2.123v-.863h2.123zm-5.793-4.04c0 .61.611.993 1.511.993.887 0 1.5-.383 1.5-.994 0-.61-.613-.996-1.5-.996-.9 0-1.511.385-1.511.996zm7.28 7.302v1.008h-7.82V330.6h1.235v2.194h6.585zm-8.456-7.303c0-1.152 1.092-1.908 2.687-1.908 1.583 0 2.675.756 2.675 1.908 0 1.15-1.092 1.906-2.675 1.906-1.595 0-2.687-.756-2.687-1.906zm2.196 3.55c-1.032.048-2.015.06-2.867.06l-.156-1.008c1.991-.012 4.653-.036 6.944-.325l.096.89c-.911.155-1.859.263-2.782.312v2.085h-1.235v-2.015zM664.222 330.096h7.305v3.885h-1.236v-2.903h-6.07v-.982zm7.305-6.934v6.465h-1.236v-1.306h-2.627v-1.008h2.627v-1.295h-2.46c-.718 1.69-2.35 2.902-4.664 3.525l-.48-.982c2.518-.672 4.018-2.016 4.246-3.682h-3.67v-.996h4.989c0 .397-.036.79-.12 1.139h2.159v-1.86h1.236zM685.927 323.162v6.441h-1.235v-.875h-1.656v-1.007h1.656v-1.116h-1.631v-1.007h1.63v-2.436h1.236zm-5.89 9.74h4.666v-.947h-4.665v.947zm4.666-2.867h1.224v3.838h-7.112v-3.838h1.223v.984h4.665v-.984zm-4.677-1.439c.803 0 1.343-.395 1.343-1.032 0-.634-.54-1.03-1.343-1.03-.791 0-1.331.396-1.331 1.03 0 .637.54 1.032 1.33 1.032zm0 .923c-1.463 0-2.483-.779-2.483-1.955 0-1.175 1.02-1.955 2.483-1.955 1.475 0 2.495.78 2.495 1.955 0 1.176-1.02 1.955-2.495 1.955zm2.963-4.353h-6.01v-.984h2.435v-1.116h1.236v1.116h2.339v.984zM691.148 332.877h4.594v-1.199h-4.594v1.199zm4.594-3.381h1.224v4.377h-7.04v-4.377h1.222v1.223h4.594v-1.223zm-3.142-3.31c0-.924-.696-1.512-1.631-1.512-.959 0-1.643.588-1.643 1.512 0 .912.684 1.523 1.643 1.523.935 0 1.631-.611 1.631-1.523zm4.366-3.01v5.805h-1.236v-2.303h-2.002c-.216 1.223-1.32 2.051-2.759 2.051-1.631 0-2.83-1.045-2.83-2.543 0-1.489 1.199-2.532 2.83-2.532 1.427 0 2.518.805 2.759 2.016h2.002v-2.494h1.236z" mask="url(#prefix__b)"/>
            <path fill="#FFF" d="M731.019 235.965c0 31.126-25.232 56.357-56.357 56.357s-56.358-25.231-56.358-56.357c0-31.125 25.233-56.356 56.358-56.356 31.125 0 56.357 25.231 56.357 56.356" mask="url(#prefix__b)"/>
            <path fill="#C5C8CF" d="M674.661 179.984c-30.869 0-55.982 25.113-55.982 55.98 0 30.87 25.113 55.984 55.982 55.984 30.87 0 55.982-25.113 55.982-55.983 0-30.868-25.113-55.981-55.982-55.981m0 112.714c-31.282 0-56.732-25.45-56.732-56.733 0-31.282 25.45-56.731 56.732-56.731s56.732 25.449 56.732 56.73c0 31.284-25.45 56.734-56.732 56.734" mask="url(#prefix__b)"/>
            <path fill="#273A5B" d="M688.842 232.912c-1.316 0-2.374.551-3.147 1.638-.25-.479-.611-.867-1.08-1.154-.53-.32-1.15-.484-1.842-.484-.556 0-1.12.155-1.68.463-.465.258-.835.573-1.104.94v-1.104H678.1v9.471h1.964v-5.249c0-.73.217-1.373.648-1.91.43-.537.943-.798 1.572-.798.696 0 1.194.178 1.48.528.293.357.442.96.442 1.787v5.642h1.964v-5.249c0-.73.219-1.373.65-1.91.428-.537.943-.798 1.57-.798.696 0 1.194.178 1.48.528.294.357.443.96.443 1.787v5.642h1.964v-5.904c0-1.223-.3-2.182-.892-2.852-.596-.673-1.451-1.014-2.544-1.014M700.29 240.237c-.519.552-1.17.809-2.048.809-.879 0-1.53-.257-2.048-.81-.55-.585-.829-1.364-.829-2.314 0-.939.28-1.71.83-2.297.531-.565 1.181-.827 2.047-.827.866 0 1.517.262 2.047.827.551.587.83 1.358.83 2.297 0 .95-.279 1.728-.83 2.315m-2.047-7.325c-1.389 0-2.557.477-3.477 1.423-.905.941-1.364 2.148-1.364 3.587 0 1.436.46 2.643 1.365 3.585.92.945 2.087 1.423 3.476 1.423 1.388 0 2.552-.478 3.458-1.423.918-.928 1.383-2.136 1.383-3.585 0-1.439-.465-2.645-1.382-3.587-.907-.946-2.07-1.423-3.459-1.423M711.867 236.767c.163-.627.456-1.132.852-1.47.443-.38.981-.571 1.598-.571.752 0 1.36.2 1.802.598.396.354.65.862.725 1.443h-4.977zm7.066 1.356c0-1.632-.428-2.964-1.24-3.852-.825-.902-1.948-1.358-3.339-1.358-1.352 0-2.479.48-3.347 1.433-.855.936-1.306 2.196-1.306 3.647 0 1.409.44 2.558 1.344 3.514.893.945 2.045 1.423 3.422 1.423.942 0 1.797-.226 2.544-.672.596-.357 1.166-.9 1.562-1.492l.057-.087-1.407-1.3-.079.119c-.66.998-1.586 1.547-2.602 1.547-.836 0-1.464-.228-1.978-.72-.543-.52-.81-1.108-.855-1.894h7.194l.03-.308zM669.893 236.767c.163-.626.456-1.132.853-1.47.443-.38.98-.571 1.597-.571.753 0 1.36.2 1.803.598.396.354.65.862.724 1.443h-4.977zm2.488-3.854c-1.353 0-2.48.48-3.348 1.433-.854.936-1.306 2.197-1.306 3.647 0 1.409.44 2.558 1.345 3.514.893.945 2.044 1.423 3.422 1.423.94 0 1.796-.226 2.544-.672.596-.357 1.166-.901 1.56-1.493l.059-.086-1.407-1.3-.078.119c-.662.998-1.587 1.547-2.603 1.547-.836 0-1.464-.228-1.977-.72-.537-.513-.811-1.117-.857-1.894h7.194l.03-.308c0-1.633-.428-2.965-1.24-3.852-.824-.902-1.948-1.358-3.338-1.358zM707.016 230.631h-.23l-1.678 1.065-.056.037v1.637h-1.61v1.814h1.61v5.013c.013.855.28 1.534.797 2.017.489.458 1.125.695 1.94.725.033.002.065.002.099.002.412 0 .99-.081 1.295-.184l.08-.027v-1.9l-.17.075c-.117.053-.228.09-.34.115-.188.041-.555.073-.69.067-.298-.014-.523-.106-.73-.297-.21-.193-.317-.582-.317-1.156v-4.45h2.248v-1.814h-2.248v-2.739zM658.525 235.87v-4.942h4.15c1.363 0 2.471 1.108 2.471 2.47 0 1.363-1.108 2.471-2.47 2.471h-4.15zm7.685.193c.595-.767.91-1.689.91-2.665 0-.975-.315-1.897-.91-2.665-.832-1.078-2.09-1.696-3.453-1.696h-6.207v13.66h1.975v-4.937h3.116l3.725 4.886.036.051h2.51l-3.908-5.12c.872-.26 1.65-.793 2.206-1.514z" mask="url(#prefix__b)"/>
            <path fill="#207FF4" d="M637.065 245.971L646.503 240.514 646.503 237.286 637.065 242.768 637.065 242.772 633.164 240.519 633.164 236.02 639.831 232.171 637.06 230.567 630.39 234.417 630.39 234.418 630.39 242.119z" mask="url(#prefix__b)"/>
            <path fill="#7DB3F6" d="M649.277 234.421L639.833 228.966 637.06 230.567 643.729 234.426 643.733 234.424 646.503 236.023 646.503 240.512 646.499 240.515 642.603 242.764 635.936 238.894 633.163 240.518 642.602 245.967 649.273 242.116z" mask="url(#prefix__b)"/>
            <path fill="#C0D8FF" d="M639.833 225.763L633.163 229.615 633.163 240.518 635.937 242.119 635.937 231.216 635.937 231.215 635.937 231.216 639.833 228.966 643.729 231.216 643.729 238.898 646.504 237.286 646.504 229.615z" mask="url(#prefix__b)"/>
            <path fill="#207FF4" d="M633.164 236.02L633.164 236.02 639.831 232.171 637.06 230.567 630.391 234.417 630.391 234.418z" mask="url(#prefix__b)"/>
            <path fill="#000" d="M329.943 480.857h4.881v-1.943h-4.881v1.943zm-1.213.983h7.305v-3.909h-7.305v3.909zm1.188 5.23h6.297v1.007h-7.531v-3.13h1.234v2.123zm7.389-4.162v.995h-4.198v2.027h-1.236v-2.027h-4.389v-.995h9.823zM346.595 488.27h1.176v-10.83h-1.176v10.83zm-2.183-10.616h1.164v10.1h-1.164v-5.494h-1.594v-1.007h1.594v-3.599zm-2.59 2.772c0 1.847.696 3.717 2.207 4.593l-.72.899c-1.02-.599-1.69-1.667-2.075-2.926-.382 1.368-1.08 2.531-2.123 3.19l-.744-.911c1.535-.96 2.256-2.915 2.256-4.845v-.78h-1.906v-1.02h4.892v1.02h-1.787v.78zM362.16 477.451v10.83h-1.176v-5.325h-1.152v4.821h-1.15V477.68h1.15v4.257h1.152v-4.485h1.176zm-5.338 5.89c0-.902-.516-1.5-1.248-1.5-.73 0-1.246.598-1.246 1.5 0 .898.516 1.485 1.246 1.485.732 0 1.248-.587 1.248-1.486zm1.104 0c0 1.485-.985 2.517-2.352 2.517s-2.35-1.032-2.35-2.518c0-1.5.983-2.52 2.35-2.52s2.352 1.02 2.352 2.52zm-1.739-4.127h2.026v.995h-5.3v-.995h2.05v-1.45h1.224v1.45zM373.246 487.19v.996h-7.328v-2.915h5.793v-.9h-5.817v-.983h7.053v2.806h-5.793v.996h6.092zm-4.04-7.304c-.673 1.656-2.269 2.759-4.655 3.298l-.432-1.008c2.566-.55 3.898-1.738 4.066-3.25h-3.478v-.995h4.846c0 .348-.024.684-.084.995h2.242v-1.474h1.236v5.492h-1.236v-.983h-2.65V481h2.65v-1.115h-2.506zM377.33 479.49c0 .611.9.936 2.578.936 1.68 0 2.58-.325 2.58-.936 0-.624-.9-.947-2.58-.947-1.678 0-2.578.323-2.578.947zm.084 7.747h6.477v.948h-7.7v-2.722h6.176v-.78h-6.2v-.935h7.411v2.59h-6.164v.9zm-1.367-7.747c0-1.212 1.428-1.87 3.861-1.87 2.424 0 3.863.658 3.863 1.87 0 1.2-1.439 1.858-3.863 1.858-2.433 0-3.86-.659-3.86-1.858zm-1.044 3.478h9.811v-.983h-9.81v.983zM397.139 488.293h1.236v-10.842h-1.236v10.842zm-5.805-8.107c0 .767.672 1.259 1.607 1.259.948 0 1.608-.492 1.608-1.259 0-.756-.66-1.248-1.608-1.248-.935 0-1.607.492-1.607 1.248zm-1.188 0c0-1.332 1.176-2.268 2.795-2.268 1.62 0 2.795.936 2.795 2.268 0 1.343-1.175 2.278-2.795 2.278-1.619 0-2.795-.935-2.795-2.278zm6.37 3.597c-.948.192-1.944.3-2.903.372v3.802h-1.234v-3.73c-1.02.037-1.981.049-2.818.049l-.145-1.02c1.955 0 4.678-.036 7.016-.384l.084.911zM410.447 480.904v1.02h-1.535v3.647h-1.236v-8.12h1.236v3.453h1.535zm-6.789 2.411c.863 0 1.451-.406 1.451-1.09s-.588-1.091-1.45-1.091c-.853 0-1.44.407-1.44 1.09 0 .685.587 1.091 1.44 1.091zm-.359 3.755h6.044v1.007h-7.292v-3.13h1.248v2.123zm.36-2.794c-1.548 0-2.628-.817-2.628-2.052 0-1.222 1.08-2.05 2.627-2.05 1.56 0 2.627.828 2.627 2.05 0 1.236-1.068 2.052-2.627 2.052zm3.202-4.606h-6.393v-.985h2.58v-1.245h1.233v1.245h2.58v.986zM353.473 499.808v-6.37h1.234v8.24h-1.234v-1.007h-2.123v-.863h2.123zm-5.793-4.042c0 .61.61.995 1.51.995.888 0 1.5-.384 1.5-.995s-.612-.995-1.5-.995c-.9 0-1.51.384-1.51.995zm7.279 7.304v1.008h-7.82v-3.203h1.236v2.195h6.584zm-8.455-7.304c0-1.151 1.092-1.907 2.686-1.907 1.584 0 2.676.756 2.676 1.907 0 1.15-1.092 1.907-2.676 1.907-1.594 0-2.686-.756-2.686-1.907zm2.196 3.55c-1.032.048-2.016.06-2.868.06l-.156-1.007c1.992-.012 4.654-.037 6.945-.325l.096.888c-.912.156-1.86.264-2.783.313v2.085H348.7v-2.014zM358.443 500.371h7.305v3.886h-1.237v-2.903h-6.068v-.983zm7.305-6.933v6.465h-1.237v-1.307h-2.627v-1.007h2.627v-1.296h-2.459c-.718 1.691-2.349 2.902-4.664 3.526l-.48-.983c2.517-.672 4.017-2.015 4.246-3.682h-3.67v-.996h4.988c0 .397-.035.792-.119 1.14h2.158v-1.86h1.237zM380.148 493.439v6.44h-1.236v-.875h-1.655v-1.007h1.655v-1.116h-1.63v-1.007h1.63v-2.435h1.236zm-5.889 9.739h4.664v-.947h-4.664v.947zm4.664-2.866h1.225v3.838h-7.113v-3.838h1.224v.983h4.664v-.983zm-4.677-1.44c.804 0 1.343-.395 1.343-1.031 0-.635-.539-1.032-1.343-1.032-.79 0-1.33.397-1.33 1.032 0 .636.54 1.032 1.33 1.032zm0 .923c-1.463 0-2.483-.78-2.483-1.954 0-1.175 1.02-1.955 2.483-1.955 1.476 0 2.496.78 2.496 1.955s-1.02 1.954-2.496 1.954zm2.963-4.353h-6.008v-.983h2.433v-1.116h1.237v1.116h2.338v.983zM385.369 503.153h4.594v-1.199h-4.594v1.199zm4.594-3.381h1.224v4.378h-7.041v-4.378h1.223v1.223h4.594v-1.223zm-3.143-3.311c0-.923-.695-1.511-1.631-1.511-.959 0-1.642.588-1.642 1.511 0 .912.683 1.524 1.642 1.524.936 0 1.631-.612 1.631-1.524zm4.367-3.01v5.805h-1.236v-2.303h-2.002c-.217 1.223-1.32 2.051-2.76 2.051-1.63 0-2.83-1.044-2.83-2.543 0-1.487 1.2-2.53 2.83-2.53 1.428 0 2.52.804 2.76 2.014h2.002v-2.494h1.236z" mask="url(#prefix__b)"/>
            <path fill="#FFF" d="M425.24 408.241c0 31.125-25.232 56.356-56.357 56.356s-56.358-25.23-56.358-56.356 25.233-56.357 56.358-56.357c31.125 0 56.357 25.231 56.357 56.357" mask="url(#prefix__b)"/>
            <path fill="#C5C8CF" d="M368.883 352.259c-30.868 0-55.981 25.113-55.981 55.982s25.113 55.982 55.98 55.982c30.87 0 55.983-25.113 55.983-55.982s-25.113-55.982-55.982-55.982m0 112.714c-31.282 0-56.731-25.449-56.731-56.732 0-31.282 25.449-56.732 56.73-56.732 31.283 0 56.733 25.45 56.733 56.732 0 31.283-25.45 56.732-56.732 56.732" mask="url(#prefix__b)"/>
            <path fill="#273A5B" d="M383.063 405.188c-1.316 0-2.375.55-3.147 1.639-.248-.48-.61-.868-1.08-1.154-.53-.322-1.15-.485-1.841-.485-.558 0-1.122.155-1.68.464-.466.258-.837.572-1.104.939v-1.104h-1.89v9.47h1.965v-5.248c0-.73.217-1.373.649-1.91.428-.536.942-.797 1.572-.797.695 0 1.193.178 1.48.527.292.358.44.959.44 1.788v5.64h1.965v-5.248c0-.73.219-1.373.65-1.91.429-.536.943-.797 1.572-.797.694 0 1.193.178 1.478.527.293.357.444.959.444 1.788v5.64h1.962v-5.903c0-1.223-.3-2.182-.892-2.851-.596-.674-1.45-1.015-2.543-1.015M394.51 412.512c-.517.552-1.168.809-2.046.809-.88 0-1.53-.257-2.048-.81-.55-.585-.83-1.364-.83-2.314 0-.938.28-1.71.829-2.296.532-.565 1.183-.828 2.049-.828.865 0 1.517.263 2.047.828.55.586.829 1.358.829 2.296 0 .95-.28 1.729-.83 2.315m-2.046-7.324c-1.39 0-2.558.478-3.477 1.423-.906.942-1.364 2.148-1.364 3.586 0 1.438.458 2.644 1.365 3.586.918.945 2.087 1.423 3.476 1.423 1.388 0 2.552-.478 3.457-1.422.918-.93 1.384-2.136 1.384-3.587 0-1.438-.466-2.644-1.383-3.586-.906-.945-2.07-1.423-3.458-1.423M406.088 409.042c.163-.626.456-1.132.853-1.47.443-.379.98-.57 1.598-.57.752 0 1.359.2 1.802.597.395.354.65.863.725 1.443h-4.978zm7.066 1.356c0-1.632-.427-2.964-1.24-3.85-.824-.903-1.948-1.36-3.338-1.36-1.353 0-2.48.481-3.348 1.433-.854.936-1.305 2.196-1.305 3.647 0 1.41.439 2.558 1.344 3.514.893.945 2.045 1.423 3.422 1.423.94 0 1.797-.226 2.544-.672.596-.356 1.165-.9 1.56-1.492l.059-.086-1.407-1.299-.08.117c-.661.998-1.585 1.547-2.601 1.547-.836 0-1.465-.228-1.978-.718-.544-.52-.81-1.11-.856-1.896h7.194l.03-.308zM364.114 409.042c.163-.626.456-1.132.853-1.47.443-.379.98-.57 1.597-.57.753 0 1.36.2 1.802.597.397.354.651.863.725 1.443h-4.977zm2.488-3.854c-1.353 0-2.48.481-3.348 1.433-.855.937-1.306 2.197-1.306 3.647 0 1.41.44 2.558 1.345 3.514.892.945 2.044 1.423 3.422 1.423.941 0 1.796-.226 2.544-.672.596-.356 1.166-.9 1.561-1.493l.058-.085-1.408-1.299-.078.117c-.662.998-1.586 1.547-2.603 1.547-.835 0-1.463-.228-1.977-.718-.536-.514-.81-1.119-.856-1.896h7.194l.03-.308c0-1.632-.428-2.964-1.239-3.85-.826-.903-1.949-1.36-3.339-1.36zM401.237 402.907h-.229l-1.679 1.064-.056.037v1.637h-1.61v1.815h1.61v5.013c.013.855.281 1.534.797 2.016.49.46 1.125.695 1.941.726l.097.001c.413 0 .992-.08 1.295-.183l.082-.028v-1.9l-.17.075c-.118.053-.23.09-.34.115h-.002c-.188.041-.554.073-.689.068-.298-.015-.523-.106-.73-.297-.21-.193-.317-.582-.317-1.156v-4.45h2.248v-1.815h-2.248v-2.738zM352.747 408.146v-4.942h4.15c1.363 0 2.471 1.109 2.471 2.47 0 1.364-1.108 2.472-2.47 2.472h-4.15zm7.685.193c.594-.766.91-1.688.91-2.664 0-.975-.316-1.897-.91-2.665-.832-1.08-2.09-1.697-3.453-1.697h-6.208l.001 13.66h1.975v-4.936h3.116l3.725 4.886.036.05h2.51l-3.908-5.12c.872-.261 1.65-.793 2.206-1.514z" mask="url(#prefix__b)"/>
            <path fill="#207FF4" d="M331.286 418.246L340.724 412.789 340.724 409.561 331.286 415.043 331.286 415.047 327.386 412.794 327.386 408.295 334.053 404.446 331.282 402.842 324.612 406.693 324.612 406.692 324.612 406.693 324.612 414.395z" mask="url(#prefix__b)"/>
            <path fill="#7DB3F6" d="M343.499 406.697L334.055 401.241 331.282 402.842 337.951 406.701 337.955 406.699 340.725 408.298 340.725 412.787 340.721 412.79 336.825 415.039 330.158 411.169 327.384 412.793 336.824 418.242 343.494 414.391z" mask="url(#prefix__b)"/>
            <path fill="#C0D8FF" d="M334.055 398.039L327.384 401.89 327.385 401.891 327.384 401.89 327.384 412.793 330.159 414.394 330.159 403.491 330.158 403.491 330.159 403.491 334.055 401.242 337.951 403.491 337.951 411.173 340.725 409.561 340.725 401.89z" mask="url(#prefix__b)"/>
            <path fill="#207FF4" d="M327.386 408.295L327.386 408.295 334.053 404.446 331.282 402.842 324.613 406.693 324.613 406.692 324.613 406.693z" mask="url(#prefix__b)"/>
            <path fill="#000" d="M472.8 218.553c.06.229.097.468.097.73 0 .266-.036.505-.11.734h2.065v-1.464H472.8zm2.11 6.225c0-.72-.886-1.127-2.433-1.127-1.535 0-2.435.407-2.435 1.127 0 .744.9 1.139 2.435 1.139 1.547 0 2.434-.395 2.434-1.14zm1.225 0c0 1.33-1.403 2.11-3.658 2.11s-3.646-.78-3.646-2.11c0-1.32 1.39-2.1 3.646-2.1 2.255 0 3.658.78 3.658 2.1zm-6.045-3.934c.936 0 1.63-.624 1.63-1.56 0-.947-.694-1.57-1.63-1.57-.96 0-1.655.623-1.655 1.57 0 .936.696 1.56 1.655 1.56zm2.147.168c-.503.552-1.271.875-2.147.875-1.62 0-2.83-1.08-2.83-2.603 0-1.535 1.21-2.614 2.83-2.614.888 0 1.644.336 2.147.876h2.615v-1.5h1.235v6.393h-1.235v-1.427h-2.615zM488.147 218.733v1.02h-1.536v2.806h-1.236v-6.513h1.236v2.687h1.536zm-2.64 6.117c0-.672-.875-1.055-2.385-1.055-1.512 0-2.387.383-2.387 1.055 0 .695.875 1.068 2.387 1.068 1.51 0 2.385-.373 2.385-1.068zm1.224 0c0 1.283-1.368 2.039-3.61 2.039-2.231 0-3.61-.756-3.61-2.04 0-1.27 1.378-2.026 3.61-2.026 2.243 0 3.61.756 3.61 2.027zm-2.926-2.866c-1.163-.42-2.028-1.248-2.483-2.268-.48 1.176-1.367 2.112-2.615 2.568l-.66-.984c1.703-.588 2.626-2.063 2.626-3.622v-1.067h1.248v1.163c0 1.392.923 2.71 2.531 3.238l-.647.972zM500.231 222.236h1.248v-6.189h-1.248v6.189zm-5.912-1.992h2.723v-2.53h-2.723v2.53zm4.27 3.611c.096.886 1.487 1.858 3.49 2.074l-.408.935c-1.715-.204-3.059-.899-3.718-1.835-.66.948-2.027 1.631-3.754 1.835l-.408-.935c2.027-.204 3.431-1.151 3.526-2.074h-3.106v-.949h3.106v-.971h1.26v.971h3.106v.949h-3.094zm-5.482-2.627h5.134v-4.498h-5.134v4.498zM515.928 216.046v6.44h-1.235v-.875h-1.656v-1.007h1.656v-1.116h-1.631v-1.006h1.63v-2.436h1.236zm-5.89 9.74h4.666v-.948h-4.665v.947zm4.666-2.867h1.224v3.838h-7.112v-3.838h1.223v.983h4.665v-.983zm-4.677-1.439c.803 0 1.343-.396 1.343-1.032 0-.635-.54-1.032-1.343-1.032-.791 0-1.331.397-1.331 1.032 0 .636.54 1.032 1.33 1.032zm0 .922c-1.463 0-2.483-.779-2.483-1.954 0-1.175 1.02-1.955 2.483-1.955 1.475 0 2.495.78 2.495 1.955s-1.02 1.954-2.495 1.954zm2.963-4.353h-6.01v-.983h2.435v-1.116h1.236v1.116h2.339v.983zM526.968 216.059v6.668h-1.235v-1.847h-1.944v-.996h1.944v-1.27h-1.944v-.996h1.944v-1.56h1.235zm-7.328 7.208h7.328v3.646h-1.235v-2.64h-6.093v-1.006zm4.113-1.2c-1.306.228-2.41.264-4.533.264h-.792v-3.358h3.454v-1.295h-3.477v-.996h4.7v3.238h-3.465v1.404c1.81 0 2.807-.048 3.98-.252l.133.996zM540.457 226.876h1.187v-10.83h-1.187v10.83zm-2.207-10.59h1.163v10.087h-1.163v-5.254h-2.135v-1.007h2.135v-3.826zm-4.271 7.065c1.344-.013 2.268-.073 3.335-.3l.108 1.019c-1.224.24-2.278.3-3.934.3h-.731v-7.041h4.101v1.008h-2.879v5.014zM551.101 226.912h1.247v-10.866h-1.247v10.866zm-6.117-6.248c0 1.703.66 2.723 1.595 2.723.947 0 1.608-1.02 1.608-2.723 0-1.679-.661-2.699-1.608-2.699-.935 0-1.595 1.02-1.595 2.699zm4.39 0c0 2.351-1.176 3.825-2.795 3.825-1.607 0-2.782-1.474-2.782-3.825 0-2.327 1.175-3.814 2.782-3.814 1.619 0 2.795 1.487 2.795 3.814zM563.472 216.034V226.9h-1.247v-5.865h-2.075v-1.019h2.075v-3.982h1.247zm-7.28 7.328c1.727-.012 2.963-.072 4.378-.31l.108.994c-1.548.275-2.902.324-4.87.324h-.851v-7.376h5.025v1.02h-3.79v2.026h3.346v.983h-3.345v2.34z" mask="url(#prefix__b)"/>
            <path fill="#C5C8CF" d="M130.83 238.082L304.437 238.082 304.437 237.332 130.83 237.332z" mask="url(#prefix__b)"/>
            <path fill="#C5C8CF" d="M298.462 237.707L298.462 232.945 302.586 235.326 306.71 237.707 302.586 240.088 298.462 242.469zM138.004 237.707L138.004 242.469 133.88 240.088 129.756 237.707 133.88 235.326 138.004 232.945z" mask="url(#prefix__b)"/>
            <path fill="#000" d="M173.231 218.553c.06.229.096.468.096.73 0 .266-.036.505-.109.734h2.064v-1.464h-2.05zm2.11 6.225c0-.72-.887-1.127-2.434-1.127-1.535 0-2.435.407-2.435 1.127 0 .744.9 1.139 2.435 1.139 1.547 0 2.434-.395 2.434-1.14zm1.224 0c0 1.33-1.403 2.11-3.658 2.11s-3.646-.78-3.646-2.11c0-1.32 1.391-2.1 3.646-2.1s3.658.78 3.658 2.1zm-6.045-3.934c.936 0 1.631-.624 1.631-1.56 0-.947-.695-1.57-1.63-1.57-.96 0-1.656.623-1.656 1.57 0 .936.696 1.56 1.655 1.56zm2.147.168c-.503.552-1.27.875-2.147.875-1.619 0-2.83-1.08-2.83-2.603 0-1.535 1.211-2.614 2.83-2.614.888 0 1.644.336 2.147.876h2.615v-1.5h1.235v6.393h-1.235v-1.427h-2.615zM188.577 218.733v1.02h-1.535v2.806h-1.236v-6.513h1.236v2.687h1.535zm-2.639 6.117c0-.672-.876-1.055-2.386-1.055-1.512 0-2.387.383-2.387 1.055 0 .695.875 1.068 2.387 1.068 1.51 0 2.386-.373 2.386-1.068zm1.223 0c0 1.283-1.367 2.039-3.609 2.039-2.232 0-3.61-.756-3.61-2.04 0-1.27 1.378-2.026 3.61-2.026 2.242 0 3.61.756 3.61 2.027zm-2.926-2.866c-1.163-.42-2.027-1.248-2.482-2.268-.48 1.176-1.367 2.112-2.615 2.568l-.66-.984c1.703-.588 2.626-2.063 2.626-3.622v-1.067h1.248v1.163c0 1.392.923 2.71 2.531 3.238l-.648.972zM200.662 222.236h1.248v-6.189h-1.248v6.189zm-5.912-1.992h2.723v-2.53h-2.723v2.53zm4.27 3.611c.095.886 1.487 1.858 3.49 2.074l-.408.935c-1.715-.204-3.059-.899-3.718-1.835-.66.948-2.028 1.631-3.754 1.835l-.408-.935c2.027-.204 3.43-1.151 3.526-2.074h-3.106v-.949h3.106v-.971h1.26v.971h3.105v.949h-3.093zm-5.482-2.627h5.134v-4.498h-5.134v4.498zM216.358 216.046v6.44h-1.235v-.875h-1.656v-1.007h1.656v-1.116h-1.63v-1.006h1.63v-2.436h1.235zm-5.889 9.74h4.665v-.948h-4.665v.947zm4.665-2.867h1.224v3.838h-7.112v-3.838h1.223v.983h4.665v-.983zm-4.677-1.439c.803 0 1.343-.396 1.343-1.032 0-.635-.54-1.032-1.343-1.032-.79 0-1.33.397-1.33 1.032 0 .636.54 1.032 1.33 1.032zm0 .922c-1.463 0-2.483-.779-2.483-1.954 0-1.175 1.02-1.955 2.483-1.955 1.475 0 2.495.78 2.495 1.955s-1.02 1.954-2.495 1.954zm2.963-4.353h-6.009v-.983h2.434v-1.116h1.236v1.116h2.34v.983zM227.398 216.059v6.668h-1.235v-1.847h-1.944v-.996h1.944v-1.27h-1.944v-.996h1.944v-1.56h1.235zm-7.328 7.208h7.328v3.646h-1.235v-2.64h-6.093v-1.006zm4.113-1.2c-1.306.228-2.41.264-4.533.264h-.792v-3.358h3.454v-1.295h-3.477v-.996h4.701v3.238h-3.466v1.404c1.81 0 2.807-.048 3.981-.252l.132.996zM240.887 226.876h1.187v-10.83h-1.187v10.83zm-2.206-10.59h1.163v10.087h-1.163v-5.254h-2.135v-1.007h2.135v-3.826zm-4.271 7.065c1.344-.013 2.268-.073 3.335-.3l.108 1.019c-1.224.24-2.279.3-3.934.3h-.732v-7.041h4.102v1.008h-2.879v5.014zM251.531 226.912h1.247v-10.866h-1.247v10.866zm-6.116-6.248c0 1.703.659 2.723 1.595 2.723.947 0 1.607-1.02 1.607-2.723 0-1.679-.66-2.699-1.607-2.699-.936 0-1.595 1.02-1.595 2.699zm4.39 0c0 2.351-1.176 3.825-2.795 3.825-1.608 0-2.782-1.474-2.782-3.825 0-2.327 1.174-3.814 2.782-3.814 1.619 0 2.795 1.487 2.795 3.814zM263.902 216.034V226.9h-1.247v-5.865h-2.075v-1.019h2.075v-3.982h1.247zm-7.279 7.328c1.726-.012 2.962-.072 4.377-.31l.108.994c-1.548.275-2.902.324-4.869.324h-.852v-7.376h5.025v1.02h-3.789v2.026h3.345v.983h-3.345v2.34z" mask="url(#prefix__b)"/>
            <path fill="#C5C8CF" d="M367.509 201.297L368.259 201.297 368.259 161.469 367.509 161.469z" mask="url(#prefix__b)"/>
            <path fill="#C5C8CF" d="M367.883 167.444L363.121 167.444 365.502 163.32 367.883 159.196 370.264 163.32 372.645 167.444zM367.883 193.773L372.645 193.773 370.264 197.897 367.883 202.021 365.502 197.897 363.121 193.773zM368.509 343.364L369.259 343.364 369.259 301.535 368.509 301.535z" mask="url(#prefix__b)"/>
            <path fill="#C5C8CF" d="M368.883 307.511L364.121 307.511 366.502 303.387 368.883 299.263 371.264 303.387 373.645 307.511zM368.883 335.84L373.645 335.84 371.264 339.964 368.883 344.088 366.502 339.964 364.121 335.84z" mask="url(#prefix__b)"/>
        </g>
    </g>
</svg>
