<svg xmlns="http://www.w3.org/2000/svg" xmlns:xlink="http://www.w3.org/1999/xlink" width="780" height="530" viewBox="0 0 780 530">
    <defs>
        <path id="prefix__a" d="M0 490.548L727.415 490.548 727.415 0 0 0z"/>
    </defs>
    <g fill="none" fill-rule="evenodd">
        <path fill="#F8F9FB" d="M0 0H780V530H0z"/>
        <g transform="translate(29 17)">
            <path fill="#FFF" d="M443.545 411.78c0 31.125-25.232 56.357-56.357 56.357s-56.357-25.232-56.357-56.357 25.232-56.357 56.357-56.357 56.357 25.232 56.357 56.357"/>
            <path fill="#C5C8CF" d="M387.188 355.798c-30.87 0-55.983 25.113-55.983 55.982 0 30.87 25.113 55.983 55.983 55.983 30.869 0 55.982-25.113 55.982-55.983 0-30.869-25.113-55.982-55.983-55.982m0 112.715c-31.281 0-56.732-25.45-56.732-56.733 0-31.282 25.45-56.732 56.733-56.732 31.281 0 56.732 25.45 56.732 56.732 0 31.283-25.45 56.733-56.733 56.733"/>
            <path fill="#000" d="M410.355 319.997v1.02h-1.439v3.682h-1.248v-8.133h1.248v3.431h1.439zm-7.208 6.188h6.116v1.008H401.9v-3.215h1.247v2.207zm1.751-5.109c.216-1.163.252-2.015.264-2.685h-4.234v-1.008h5.446v.623c0 .732 0 1.8-.265 3.203l-1.211-.133zm2.195 1.572c-2.255.395-4.809.455-6.692.455l-.132-1.007c.648 0 1.391 0 2.158-.024v-2.219h1.224v2.183c1.127-.048 2.291-.12 3.358-.288l.084.9z"/>
            <mask id="prefix__b" fill="#fff">
                <use xlink:href="#prefix__a"/>
            </mask>
            <path fill="#000" d="M419.117 327.421h1.247v-10.878h-1.247v10.878zm-5.829-3.598c1.714-.012 3.213-.096 4.929-.372l.132 1.008c-1.859.324-3.478.384-5.386.384h-.922v-4.294h3.777v-2.015h-3.802v-1.007h5.05v4.018h-3.778v2.278zM433.888 327.385h1.187v-10.83h-1.187v10.83zm-2.207-10.59h1.163v10.086h-1.163v-5.252h-2.135v-1.008h2.135v-3.826zm-4.27 7.065c1.343-.012 2.267-.073 3.335-.301l.107 1.019c-1.223.241-2.278.301-3.934.301h-.731v-7.041h4.102v1.008h-2.879v5.014zM444.532 327.421h1.247v-10.866h-1.247v10.866zm-6.116-6.249c0 1.703.659 2.723 1.594 2.723.948 0 1.608-1.02 1.608-2.723 0-1.678-.66-2.697-1.608-2.697-.935 0-1.594 1.019-1.594 2.697zm4.389 0c0 2.352-1.176 3.826-2.795 3.826-1.607 0-2.782-1.474-2.782-3.826 0-2.326 1.175-3.813 2.782-3.813 1.619 0 2.795 1.487 2.795 3.813zM456.903 316.543v10.866h-1.247v-5.864h-2.075v-1.02h2.075v-3.982h1.247zm-7.28 7.328c1.727-.012 2.963-.072 4.378-.312l.108.996c-1.548.275-2.902.324-4.87.324h-.851v-7.377h5.025v1.02h-3.79v2.027h3.346v.983h-3.345v2.34zM211.98 214.35c.06.229.097.468.097.732 0 .264-.036.503-.11.73h2.064v-1.462h-2.05zm2.11 6.225c0-.72-.887-1.127-2.434-1.127-1.535 0-2.435.408-2.435 1.127 0 .744.9 1.139 2.435 1.139 1.547 0 2.434-.395 2.434-1.14zm1.225 0c0 1.332-1.404 2.11-3.659 2.11s-3.645-.778-3.645-2.11c0-1.32 1.39-2.1 3.645-2.1s3.659.78 3.659 2.1zm-6.046-3.934c.936 0 1.631-.623 1.631-1.56 0-.947-.695-1.571-1.63-1.571-.96 0-1.656.624-1.656 1.572 0 .936.696 1.559 1.655 1.559zm2.148.168c-.504.552-1.272.875-2.148.875-1.619 0-2.83-1.08-2.83-2.602 0-1.535 1.212-2.615 2.83-2.615.888 0 1.644.336 2.148.875h2.614v-1.498h1.236v6.393h-1.236v-1.428h-2.614zM227.326 214.53v1.02h-1.535v2.805h-1.236v-6.512h1.236v2.686h1.535zm-2.639 6.116c0-.672-.876-1.055-2.386-1.055-1.512 0-2.387.383-2.387 1.055 0 .695.875 1.068 2.387 1.068 1.51 0 2.386-.373 2.386-1.068zm1.223 0c0 1.283-1.367 2.04-3.609 2.04-2.232 0-3.61-.757-3.61-2.04 0-1.27 1.378-2.027 3.61-2.027 2.242 0 3.61.756 3.61 2.027zm-2.926-2.867c-1.163-.419-2.027-1.246-2.482-2.266-.48 1.175-1.367 2.111-2.615 2.567l-.66-.985c1.703-.587 2.626-2.062 2.626-3.62v-1.069h1.248v1.164c0 1.391.923 2.711 2.531 3.238l-.648.971zM239.411 218.031h1.248v-6.187h-1.248v6.187zm-5.912-1.99h2.723v-2.531h-2.723v2.531zm4.27 3.61c.095.888 1.487 1.859 3.49 2.075l-.408.935c-1.715-.204-3.059-.899-3.718-1.835-.66.948-2.028 1.631-3.754 1.835l-.408-.935c2.027-.204 3.43-1.152 3.526-2.075h-3.106v-.948h3.106v-.97h1.26v.97h3.105v.948h-3.093zm-5.482-2.626h5.134v-4.497h-5.134v4.497zM255.106 211.844v6.439h-1.235v-.875h-1.656V216.4h1.656v-1.116h-1.632v-1.007h1.632v-2.434h1.235zm-5.889 9.738h4.665v-.947h-4.665v.947zm4.665-2.867h1.224v3.838h-7.112v-3.838h1.223v.984h4.665v-.984zm-4.677-1.438c.803 0 1.343-.396 1.343-1.033 0-.634-.54-1.031-1.343-1.031-.79 0-1.33.397-1.33 1.03 0 .638.54 1.034 1.33 1.034zm0 .922c-1.463 0-2.483-.78-2.483-1.955 0-1.174 1.02-1.954 2.483-1.954 1.475 0 2.495.78 2.495 1.954 0 1.176-1.02 1.955-2.495 1.955zm2.963-4.353h-6.009v-.982h2.434v-1.117h1.236v1.117h2.34v.982zM266.147 211.856v6.668h-1.236v-1.847h-1.944v-.995h1.945v-1.271h-1.945v-.996h1.945v-1.56h1.235zm-7.329 7.207h7.329v3.647h-1.236v-2.64h-6.093v-1.007zm4.114-1.2c-1.307.229-2.41.265-4.534.265h-.792v-3.358h3.454v-1.295h-3.476v-.996h4.7v3.238h-3.466v1.404c1.81 0 2.808-.048 3.982-.252l.132.995zM279.635 222.674h1.187v-10.83h-1.187v10.83zm-2.206-10.591h1.163v10.087h-1.163v-5.254h-2.135v-1.007h2.135v-3.826zm-4.271 7.064c1.344-.012 2.268-.072 3.335-.299l.108 1.019c-1.223.24-2.279.299-3.934.299h-.731v-7.039h4.101v1.007h-2.879v5.013zM290.278 222.709h1.247v-10.865h-1.247v10.865zm-6.116-6.248c0 1.703.659 2.723 1.595 2.723.947 0 1.607-1.02 1.607-2.723 0-1.68-.66-2.699-1.607-2.699-.936 0-1.595 1.019-1.595 2.699zm4.39 0c0 2.351-1.176 3.826-2.795 3.826-1.608 0-2.782-1.475-2.782-3.826 0-2.327 1.174-3.814 2.782-3.814 1.619 0 2.795 1.487 2.795 3.814zM302.65 211.831v10.866h-1.248v-5.865h-2.075v-1.02h2.075v-3.98h1.247zm-7.28 7.328c1.726-.013 2.962-.07 4.377-.31l.108.994c-1.548.276-2.902.323-4.869.323h-.852v-7.375h5.025v1.02h-3.789v2.026h3.345v.983h-3.345v2.34zM340.781 490.524h1.235v-10.83h-1.235v10.83zm-1.956-9.69c0 3.226-1.295 5.96-5.013 7.76l-.66-.984c2.843-1.368 4.186-3.274 4.402-5.769h-3.862v-1.007h5.133zM346.59 489.313h6.226v1.008h-7.472v-3.082h1.247v2.074zm-1.954-5.744c2.052-.252 3.454-1.272 3.55-2.387h-3.166v-.984h8v.984h-3.191c.096 1.115 1.524 2.135 3.563 2.387l-.456.982c-1.883-.24-3.346-1.115-3.934-2.314-.576 1.199-2.027 2.075-3.898 2.314l-.468-.982zm9.295 1.883v.995h-9.822v-.995h4.269v-1.656h1.235v1.656h4.318zM360.884 482.14c0 .769.995 1.212 2.53 1.212 1.524 0 2.519-.443 2.519-1.211s-.995-1.211-2.52-1.211c-1.534 0-2.53.443-2.53 1.21zm.084 7.173h6.284v1.008h-7.532v-3.202h1.248v2.194zm-1.392-7.172c0-1.355 1.512-2.207 3.838-2.207 2.315 0 3.838.852 3.838 2.207s-1.523 2.207-3.838 2.207c-2.326 0-3.838-.852-3.838-2.207zm8.755 2.938v1.007h-4.197v2.05h-1.26v-2.05h-4.365v-1.007h9.822zM375.245 482.189c.06.228.096.468.096.73 0 .265-.036.505-.109.734h2.064v-1.464h-2.05zm2.11 6.225c0-.72-.887-1.128-2.434-1.128-1.535 0-2.435.408-2.435 1.128 0 .743.9 1.139 2.435 1.139 1.547 0 2.434-.396 2.434-1.14zm1.224 0c0 1.33-1.403 2.11-3.658 2.11s-3.646-.78-3.646-2.11c0-1.32 1.391-2.1 3.646-2.1s3.658.78 3.658 2.1zm-6.045-3.934c.936 0 1.631-.624 1.631-1.56 0-.947-.695-1.57-1.63-1.57-.96 0-1.656.623-1.656 1.57 0 .936.696 1.56 1.655 1.56zm2.147.168c-.503.552-1.27.876-2.147.876-1.619 0-2.83-1.08-2.83-2.604 0-1.535 1.211-2.614 2.83-2.614.888 0 1.644.336 2.147.876h2.615v-1.5h1.235v6.393h-1.235v-1.427h-2.615zM393.927 483.124v1.02h-1.44v3.682h-1.247v-8.133h1.248v3.431h1.439zm-7.208 6.188h6.116v1.008h-7.363v-3.215h1.247v2.207zm1.75-5.109c.217-1.163.253-2.015.265-2.685H384.5v-1.008h5.446v.623c0 .732 0 1.8-.265 3.203l-1.211-.133zm2.196 1.572c-2.255.395-4.81.455-6.692.455l-.132-1.007c.648 0 1.39 0 2.158-.024v-2.219h1.224v2.183c1.127-.048 2.29-.12 3.358-.288l.084.9zM402.689 490.548h1.247V479.67h-1.247v10.878zm-5.83-3.598c1.715-.012 3.214-.096 4.93-.372l.132 1.008c-1.859.324-3.479.383-5.386.383h-.923v-4.293h3.778v-2.015h-3.802v-1.008h5.05v4.019h-3.779v2.278zM417.064 490.548h1.247v-10.866h-1.247v10.866zm-3.67-8.179c0 1.991 1.103 3.982 2.806 4.749l-.72.984c-1.247-.588-2.195-1.787-2.686-3.25-.492 1.57-1.451 2.853-2.759 3.49l-.731-1.031c1.727-.781 2.854-2.856 2.854-4.942v-1.775h1.236v1.775zM429.291 486.002c-1.763-.359-3.286-1.486-3.994-2.974-.707 1.488-2.231 2.615-3.993 2.974l-.529-1.02c2.135-.394 3.874-2.062 3.874-3.777v-.815h1.308v.815c0 1.727 1.739 3.395 3.874 3.777l-.54 1.02zm-8.852 3.131h9.811v-1.02h-9.811v1.02zM439.468 486.194h1.175v-6.513h-1.175v6.513zm-2.087-2.842h-1.283v-.995h1.283v-2.496h1.151v6.238h-1.151v-2.747zm-2.723 6.056h4.785v-1.763h-4.785v1.763zm-1.223.984h7.208v-3.73h-7.208v3.73zm3.154-5.013c-1.235.229-2.267.264-3.945.264h-.708v-5.278h4.078v.996h-2.891v1.127h2.494v.948h-2.494v1.223c1.367-.011 2.278-.071 3.346-.263l.12.983z" mask="url(#prefix__b)"/>
            <path fill="#E6E8EB" d="M367.109 399.218L367.109 430.558 404.942 430.558 404.942 398.927z" mask="url(#prefix__b)"/>
            <path fill="#000" d="M367.392 430.276h37.268V399.21l-37.268.287v30.778zm37.833.563h-38.397v-31.901l38.397-.296v32.197z" mask="url(#prefix__b)"/>
            <path fill="#FFF" d="M406.043 399.447h-40.177c-1.534 0-2.79-1.255-2.79-2.789v-6.155c0-1.535 1.256-2.789 2.79-2.789h40.177c1.534 0 2.788 1.254 2.788 2.79v6.154c0 1.534-1.255 2.79-2.788 2.79" mask="url(#prefix__b)"/>
            <path fill="#000" d="M406.042 387.713h-40.176c-1.534 0-2.789 1.256-2.789 2.79v6.155c0 1.534 1.255 2.789 2.789 2.789h40.176c1.534 0 2.79-1.255 2.79-2.789v-6.155c0-1.534-1.256-2.79-2.79-2.79m0 .564c1.227 0 2.225.998 2.225 2.226v6.155c0 1.227-.998 2.225-2.225 2.225h-40.176c-1.226 0-2.224-.998-2.224-2.225v-6.155c0-1.228.998-2.226 2.224-2.226h40.176" mask="url(#prefix__b)"/>
            <path fill="#FFF" d="M406.043 413.702h-40.177c-1.534 0-2.79-1.255-2.79-2.789v-6.155c0-1.535 1.256-2.789 2.79-2.789h40.177c1.534 0 2.788 1.254 2.788 2.79v6.154c0 1.534-1.255 2.79-2.788 2.79" mask="url(#prefix__b)"/>
            <path fill="#000" d="M406.042 401.969h-40.176c-1.534 0-2.789 1.255-2.789 2.789v6.154c0 1.536 1.255 2.79 2.789 2.79h40.176c1.534 0 2.79-1.254 2.79-2.79v-6.154c0-1.534-1.256-2.79-2.79-2.79m0 .565c1.227 0 2.225.998 2.225 2.225v6.154c0 1.228-.998 2.226-2.225 2.226h-40.176c-1.226 0-2.224-.998-2.224-2.226v-6.154c0-1.227.998-2.225 2.224-2.225h40.176" mask="url(#prefix__b)"/>
            <path fill="#FFF" d="M406.043 427.877h-40.177c-1.534 0-2.79-1.255-2.79-2.789v-6.155c0-1.535 1.256-2.789 2.79-2.789h40.177c1.534 0 2.788 1.254 2.788 2.79v6.154c0 1.534-1.255 2.79-2.788 2.79" mask="url(#prefix__b)"/>
            <path fill="#000" d="M406.042 416.144h-40.176c-1.534 0-2.789 1.255-2.789 2.789v6.155c0 1.535 1.255 2.789 2.789 2.789h40.176c1.534 0 2.79-1.254 2.79-2.79v-6.154c0-1.534-1.256-2.79-2.79-2.79m0 .565c1.227 0 2.225.998 2.225 2.225v6.155c0 1.227-.998 2.225-2.225 2.225h-40.176c-1.226 0-2.224-.998-2.224-2.225v-6.155c0-1.227.998-2.225 2.224-2.225h40.176" mask="url(#prefix__b)"/>
            <path fill="#0A51B7" d="M393.446 393.58c0 1.043-.845 1.888-1.887 1.888-1.043 0-1.888-.845-1.888-1.888 0-1.042.845-1.887 1.888-1.887 1.042 0 1.887.845 1.887 1.887" mask="url(#prefix__b)"/>
            <path fill="#000" d="M391.56 391.693c-1.043 0-1.888.846-1.888 1.887 0 1.043.845 1.887 1.887 1.887s1.887-.844 1.887-1.887c0-1.041-.845-1.887-1.887-1.887m0 .565c.73 0 1.323.594 1.323 1.322 0 .73-.594 1.324-1.323 1.324s-1.323-.594-1.323-1.324c0-.728.594-1.322 1.323-1.322" mask="url(#prefix__b)"/>
            <path fill="#0A51B7" d="M399.268 393.58c0 1.043-.845 1.888-1.888 1.888-1.042 0-1.887-.845-1.887-1.888 0-1.042.845-1.887 1.887-1.887 1.043 0 1.888.845 1.888 1.887" mask="url(#prefix__b)"/>
            <path fill="#000" d="M397.38 391.693c-1.042 0-1.887.846-1.887 1.887 0 1.043.845 1.887 1.887 1.887s1.887-.844 1.887-1.887c0-1.041-.845-1.887-1.887-1.887m0 .565c.73 0 1.323.594 1.323 1.322 0 .73-.594 1.324-1.323 1.324s-1.323-.594-1.323-1.324c0-.728.594-1.322 1.323-1.322" mask="url(#prefix__b)"/>
            <path fill="#0A51B7" d="M405.09 393.58c0 1.043-.846 1.888-1.888 1.888-1.043 0-1.888-.845-1.888-1.888 0-1.042.845-1.887 1.888-1.887 1.042 0 1.887.845 1.887 1.887" mask="url(#prefix__b)"/>
            <path fill="#000" d="M403.202 391.693c-1.043 0-1.888.846-1.888 1.887 0 1.043.845 1.887 1.888 1.887 1.042 0 1.887-.844 1.887-1.887 0-1.041-.845-1.887-1.887-1.887m0 .565c.73 0 1.322.594 1.322 1.322 0 .73-.593 1.324-1.322 1.324-.729 0-1.323-.594-1.323-1.324 0-.728.594-1.322 1.323-1.322" mask="url(#prefix__b)"/>
            <path fill="#0A51B7" d="M393.446 407.835c0 1.043-.845 1.888-1.887 1.888-1.043 0-1.888-.845-1.888-1.888 0-1.042.845-1.887 1.888-1.887 1.042 0 1.887.845 1.887 1.887" mask="url(#prefix__b)"/>
            <path fill="#000" d="M391.56 405.947c-1.043 0-1.888.846-1.888 1.89 0 1.04.845 1.885 1.887 1.885s1.887-.845 1.887-1.886c0-1.043-.845-1.889-1.887-1.889m0 .564c.73 0 1.323.594 1.323 1.325 0 .728-.594 1.322-1.323 1.322s-1.323-.594-1.323-1.322c0-.73.594-1.325 1.323-1.325" mask="url(#prefix__b)"/>
            <path fill="#0A51B7" d="M399.268 407.835c0 1.043-.845 1.888-1.888 1.888-1.042 0-1.887-.845-1.887-1.888 0-1.042.845-1.887 1.887-1.887 1.043 0 1.888.845 1.888 1.887" mask="url(#prefix__b)"/>
            <path fill="#000" d="M397.38 405.947c-1.042 0-1.887.846-1.887 1.89 0 1.04.845 1.885 1.887 1.885s1.887-.845 1.887-1.886c0-1.043-.845-1.889-1.887-1.889m0 .564c.73 0 1.323.594 1.323 1.325 0 .728-.594 1.322-1.323 1.322s-1.323-.594-1.323-1.322c0-.73.594-1.325 1.323-1.325" mask="url(#prefix__b)"/>
            <path fill="#0A51B7" d="M405.09 407.835c0 1.043-.846 1.888-1.888 1.888-1.043 0-1.888-.845-1.888-1.888 0-1.042.845-1.887 1.888-1.887 1.042 0 1.887.845 1.887 1.887" mask="url(#prefix__b)"/>
            <path fill="#000" d="M403.202 405.947c-1.043 0-1.888.846-1.888 1.89 0 1.04.845 1.885 1.888 1.885 1.042 0 1.887-.845 1.887-1.886 0-1.043-.845-1.889-1.887-1.889m0 .564c.73 0 1.322.594 1.322 1.325 0 .728-.593 1.322-1.322 1.322-.729 0-1.323-.594-1.323-1.322 0-.73.594-1.325 1.323-1.325" mask="url(#prefix__b)"/>
            <path fill="#0A51B7" d="M393.446 422.01c0 1.043-.845 1.888-1.887 1.888-1.043 0-1.888-.845-1.888-1.887 0-1.043.845-1.888 1.888-1.888 1.042 0 1.887.845 1.887 1.888" mask="url(#prefix__b)"/>
            <path fill="#000" d="M391.56 420.123c-1.043 0-1.888.845-1.888 1.887 0 1.043.845 1.887 1.887 1.887s1.887-.844 1.887-1.887c0-1.042-.845-1.887-1.887-1.887m0 .564c.73 0 1.323.594 1.323 1.323 0 .73-.594 1.323-1.323 1.323s-1.323-.593-1.323-1.323c0-.729.594-1.323 1.323-1.323" mask="url(#prefix__b)"/>
            <path fill="#0A51B7" d="M399.268 422.01c0 1.043-.845 1.888-1.888 1.888-1.042 0-1.887-.845-1.887-1.887 0-1.043.845-1.888 1.887-1.888 1.043 0 1.888.845 1.888 1.888" mask="url(#prefix__b)"/>
            <path fill="#000" d="M397.38 420.123c-1.042 0-1.887.845-1.887 1.887 0 1.043.845 1.887 1.887 1.887s1.887-.844 1.887-1.887c0-1.042-.845-1.887-1.887-1.887m0 .564c.73 0 1.323.594 1.323 1.323 0 .73-.594 1.323-1.323 1.323s-1.323-.593-1.323-1.323c0-.729.594-1.323 1.323-1.323" mask="url(#prefix__b)"/>
            <path fill="#0A51B7" d="M405.09 422.01c0 1.043-.846 1.888-1.888 1.888-1.043 0-1.888-.845-1.888-1.887 0-1.043.845-1.888 1.888-1.888 1.042 0 1.887.845 1.887 1.888" mask="url(#prefix__b)"/>
            <path fill="#000" d="M403.202 420.123c-1.043 0-1.888.845-1.888 1.887 0 1.043.845 1.887 1.888 1.887 1.042 0 1.887-.844 1.887-1.887 0-1.042-.845-1.887-1.887-1.887m0 .564c.73 0 1.322.594 1.322 1.323 0 .73-.593 1.323-1.322 1.323-.729 0-1.323-.593-1.323-1.323 0-.729.594-1.323 1.323-1.323" mask="url(#prefix__b)"/>
            <path fill="#FFF" d="M367.913 390.483L367.913 396.679" mask="url(#prefix__b)"/>
            <path fill="#000" d="M367.631 396.679L368.195 396.679 368.195 390.483 367.631 390.483z" mask="url(#prefix__b)"/>
            <path fill="#FFF" d="M371.114 390.483L371.114 396.679" mask="url(#prefix__b)"/>
            <path fill="#000" d="M370.832 396.679L371.396 396.679 371.396 390.483 370.832 390.483z" mask="url(#prefix__b)"/>
            <path fill="#FFF" d="M374.315 390.483L374.315 396.679" mask="url(#prefix__b)"/>
            <path fill="#000" d="M374.033 396.679L374.597 396.679 374.597 390.483 374.033 390.483z" mask="url(#prefix__b)"/>
            <path fill="#FFF" d="M377.516 390.483L377.516 396.679" mask="url(#prefix__b)"/>
            <path fill="#000" d="M377.234 396.679L377.798 396.679 377.798 390.483 377.234 390.483z" mask="url(#prefix__b)"/>
            <path fill="#FFF" d="M380.717 390.483L380.717 396.679" mask="url(#prefix__b)"/>
            <path fill="#000" d="M380.436 396.679L381 396.679 381 390.483 380.436 390.483z" mask="url(#prefix__b)"/>
            <path fill="#FFF" d="M383.918 390.483L383.918 396.679" mask="url(#prefix__b)"/>
            <path fill="#000" d="M383.637 396.679L384.201 396.679 384.201 390.483 383.637 390.483z" mask="url(#prefix__b)"/>
            <path fill="#FFF" d="M369.513 390.483L369.513 396.679" mask="url(#prefix__b)"/>
            <path fill="#000" d="M369.231 396.679L369.795 396.679 369.795 390.483 369.231 390.483z" mask="url(#prefix__b)"/>
            <path fill="#FFF" d="M372.714 390.483L372.714 396.679" mask="url(#prefix__b)"/>
            <path fill="#000" d="M372.433 396.679L372.997 396.679 372.997 390.483 372.433 390.483z" mask="url(#prefix__b)"/>
            <path fill="#FFF" d="M375.916 390.483L375.916 396.679" mask="url(#prefix__b)"/>
            <path fill="#000" d="M375.634 396.679L376.198 396.679 376.198 390.483 375.634 390.483z" mask="url(#prefix__b)"/>
            <path fill="#FFF" d="M379.117 390.483L379.117 396.679" mask="url(#prefix__b)"/>
            <path fill="#000" d="M378.835 396.679L379.399 396.679 379.399 390.483 378.835 390.483z" mask="url(#prefix__b)"/>
            <path fill="#FFF" d="M382.318 390.483L382.318 396.679" mask="url(#prefix__b)"/>
            <path fill="#000" d="M382.036 396.679L382.6 396.679 382.6 390.483 382.036 390.483z" mask="url(#prefix__b)"/>
            <path fill="#FFF" d="M367.913 404.738L367.913 410.933" mask="url(#prefix__b)"/>
            <path fill="#000" d="M367.631 410.934L368.195 410.934 368.195 404.738 367.631 404.738z" mask="url(#prefix__b)"/>
            <path fill="#FFF" d="M371.114 404.738L371.114 410.933" mask="url(#prefix__b)"/>
            <path fill="#000" d="M370.832 410.934L371.396 410.934 371.396 404.738 370.832 404.738z" mask="url(#prefix__b)"/>
            <path fill="#FFF" d="M374.315 404.738L374.315 410.933" mask="url(#prefix__b)"/>
            <path fill="#000" d="M374.033 410.934L374.597 410.934 374.597 404.738 374.033 404.738z" mask="url(#prefix__b)"/>
            <path fill="#FFF" d="M377.516 404.738L377.516 410.933" mask="url(#prefix__b)"/>
            <path fill="#000" d="M377.234 410.934L377.798 410.934 377.798 404.738 377.234 404.738z" mask="url(#prefix__b)"/>
            <path fill="#FFF" d="M380.717 404.738L380.717 410.933" mask="url(#prefix__b)"/>
            <path fill="#000" d="M380.436 410.934L381 410.934 381 404.738 380.436 404.738z" mask="url(#prefix__b)"/>
            <path fill="#FFF" d="M383.918 404.738L383.918 410.933" mask="url(#prefix__b)"/>
            <path fill="#000" d="M383.637 410.934L384.201 410.934 384.201 404.738 383.637 404.738z" mask="url(#prefix__b)"/>
            <path fill="#FFF" d="M369.513 404.738L369.513 410.933" mask="url(#prefix__b)"/>
            <path fill="#000" d="M369.231 410.934L369.795 410.934 369.795 404.738 369.231 404.738z" mask="url(#prefix__b)"/>
            <path fill="#FFF" d="M372.714 404.738L372.714 410.933" mask="url(#prefix__b)"/>
            <path fill="#000" d="M372.433 410.934L372.997 410.934 372.997 404.738 372.433 404.738z" mask="url(#prefix__b)"/>
            <path fill="#FFF" d="M375.916 404.738L375.916 410.933" mask="url(#prefix__b)"/>
            <path fill="#000" d="M375.634 410.934L376.198 410.934 376.198 404.738 375.634 404.738z" mask="url(#prefix__b)"/>
            <path fill="#FFF" d="M379.117 404.738L379.117 410.933" mask="url(#prefix__b)"/>
            <path fill="#000" d="M378.835 410.934L379.399 410.934 379.399 404.738 378.835 404.738z" mask="url(#prefix__b)"/>
            <path fill="#FFF" d="M382.318 404.738L382.318 410.933" mask="url(#prefix__b)"/>
            <path fill="#000" d="M382.036 410.934L382.6 410.934 382.6 404.738 382.036 404.738z" mask="url(#prefix__b)"/>
            <path fill="#FFF" d="M367.913 418.992L367.913 425.188" mask="url(#prefix__b)"/>
            <path fill="#000" d="M367.631 425.189L368.195 425.189 368.195 418.993 367.631 418.993z" mask="url(#prefix__b)"/>
            <path fill="#FFF" d="M371.114 418.992L371.114 425.188" mask="url(#prefix__b)"/>
            <path fill="#000" d="M370.832 425.189L371.396 425.189 371.396 418.993 370.832 418.993z" mask="url(#prefix__b)"/>
            <path fill="#FFF" d="M374.315 418.992L374.315 425.188" mask="url(#prefix__b)"/>
            <path fill="#000" d="M374.033 425.189L374.597 425.189 374.597 418.993 374.033 418.993z" mask="url(#prefix__b)"/>
            <path fill="#FFF" d="M377.516 418.992L377.516 425.188" mask="url(#prefix__b)"/>
            <path fill="#000" d="M377.234 425.189L377.798 425.189 377.798 418.993 377.234 418.993z" mask="url(#prefix__b)"/>
            <path fill="#FFF" d="M380.717 418.992L380.717 425.188" mask="url(#prefix__b)"/>
            <path fill="#000" d="M380.436 425.189L381 425.189 381 418.993 380.436 418.993z" mask="url(#prefix__b)"/>
            <path fill="#FFF" d="M383.918 418.992L383.918 425.188" mask="url(#prefix__b)"/>
            <path fill="#000" d="M383.637 425.189L384.201 425.189 384.201 418.993 383.637 418.993z" mask="url(#prefix__b)"/>
            <path fill="#FFF" d="M369.513 418.992L369.513 425.188" mask="url(#prefix__b)"/>
            <path fill="#000" d="M369.231 425.189L369.795 425.189 369.795 418.993 369.231 418.993z" mask="url(#prefix__b)"/>
            <path fill="#FFF" d="M372.714 418.992L372.714 425.188" mask="url(#prefix__b)"/>
            <path fill="#000" d="M372.433 425.189L372.997 425.189 372.997 418.993 372.433 418.993z" mask="url(#prefix__b)"/>
            <path fill="#FFF" d="M375.916 418.992L375.916 425.188" mask="url(#prefix__b)"/>
            <path fill="#000" d="M375.634 425.189L376.198 425.189 376.198 418.993 375.634 418.993z" mask="url(#prefix__b)"/>
            <path fill="#FFF" d="M379.117 418.992L379.117 425.188" mask="url(#prefix__b)"/>
            <path fill="#000" d="M378.835 425.189L379.399 425.189 379.399 418.993 378.835 418.993z" mask="url(#prefix__b)"/>
            <path fill="#FFF" d="M382.318 418.992L382.318 425.188" mask="url(#prefix__b)"/>
            <path fill="#000" d="M382.036 425.189L382.6 425.189 382.6 418.993 382.036 418.993z" mask="url(#prefix__b)"/>
            <path fill="#E6E8EB" d="M400.75 419.127s.188-1.193 1.877-2.007c1.69-.813 5.93-1.964 11.11-1.249 5.18.715 6.54 2 6.54 2l.623 1.377-.001 15.146s-.685 1.815-4.159 2.566c-3.473.751-10.389 1.001-13.706-.532 0 0-2.096-.876-2.284-2.19v-15.11z" mask="url(#prefix__b)"/>
            <path fill="#000" d="M401.033 434.223c.143.334 1.614 3.209 9.786 3.209 8.224 0 9.656-2.864 9.797-3.208v-15.19c-.105-.294-1.353-3.105-10.094-3.105-9.134 0-9.487 3.12-9.49 3.153v15.14zm9.786 3.773c-9.117 0-10.292-3.49-10.338-3.638l-.012-.083v-15.211c.007-.165.297-3.7 10.053-3.7 9.712 0 10.619 3.42 10.653 3.565l.007.064-.014 15.366c-.046.148-1.233 3.637-10.35 3.637z" mask="url(#prefix__b)"/>
            <path fill="#000" d="M410.605 427.936c-8.857 0-10.074-3.263-10.122-3.403l.535-.182-.267.09.266-.093c.011.03 1.235 3.08 9.935 3.022 8.679-.083 9.668-2.978 9.676-3.007l.543.154c-.037.136-1.026 3.329-10.213 3.417l-.353.002M410.605 432.893c-8.857 0-10.074-3.262-10.122-3.402l.535-.182-.267.09.266-.093c.011.03 1.205 3.023 9.59 3.023l.345-.002c8.679-.082 9.668-2.977 9.676-3.006l.543.154c-.037.136-1.026 3.329-10.213 3.416l-.353.002M410.605 422.978c-8.857 0-10.074-3.263-10.122-3.403l.535-.182-.267.09.266-.093c.011.03 1.235 3.076 9.935 3.022 8.679-.083 9.668-2.978 9.676-3.007l.543.154c-.037.136-1.026 3.329-10.213 3.417l-.353.002" mask="url(#prefix__b)"/>
            <path fill="#C5C8CF" d="M176.432 233.821L344.039 233.821 344.039 233.071 176.432 233.071z" mask="url(#prefix__b)"/>
            <path fill="#C5C8CF" d="M338.063 233.446L338.063 228.684 342.187 231.065 346.311 233.446 342.187 235.827 338.063 238.208zM174.58 246.887L342.187 246.887 342.187 246.137 174.58 246.137z" mask="url(#prefix__b)"/>
            <path fill="#C5C8CF" d="M180.556 246.512L180.556 251.274 176.432 248.893 172.308 246.512 176.432 244.13 180.556 241.749z" mask="url(#prefix__b)"/>
            <path fill="#000" d="M211.98 260.951c.06.23.097.47.097.732 0 .264-.036.504-.11.732h2.064v-1.464h-2.05zm2.11 6.225c0-.719-.887-1.127-2.434-1.127-1.535 0-2.435.408-2.435 1.127 0 .744.9 1.14 2.435 1.14 1.547 0 2.434-.396 2.434-1.14zm1.225 0c0 1.332-1.404 2.111-3.659 2.111s-3.645-.779-3.645-2.11c0-1.32 1.39-2.099 3.645-2.099s3.659.78 3.659 2.098zm-6.046-3.934c.936 0 1.631-.623 1.631-1.559 0-.947-.695-1.57-1.63-1.57-.96 0-1.656.623-1.656 1.57 0 .936.696 1.56 1.655 1.56zm2.148.168c-.504.553-1.272.876-2.148.876-1.619 0-2.83-1.079-2.83-2.603 0-1.535 1.212-2.615 2.83-2.615.888 0 1.644.336 2.148.876h2.614v-1.499h1.236v6.393h-1.236v-1.428h-2.614zM227.326 261.132v1.02h-1.535v2.805h-1.236v-6.512h1.236v2.687h1.535zm-2.639 6.116c0-.672-.876-1.054-2.386-1.054-1.512 0-2.387.382-2.387 1.054 0 .696.875 1.069 2.387 1.069 1.51 0 2.386-.373 2.386-1.069zm1.223 0c0 1.283-1.367 2.039-3.609 2.039-2.232 0-3.61-.756-3.61-2.039 0-1.271 1.378-2.026 3.61-2.026 2.242 0 3.61.755 3.61 2.026zm-2.926-2.866c-1.163-.419-2.027-1.247-2.482-2.267-.48 1.176-1.367 2.112-2.615 2.567l-.66-.984c1.703-.587 2.626-2.063 2.626-3.622v-1.067h1.248v1.163c0 1.392.923 2.711 2.531 3.238l-.648.972zM239.411 264.634h1.248v-6.188h-1.248v6.188zm-5.912-1.992h2.723v-2.53h-2.723v2.53zm4.27 3.611c.095.888 1.487 1.858 3.49 2.075l-.408.936c-1.715-.204-3.059-.901-3.718-1.836-.66.948-2.028 1.632-3.754 1.836l-.408-.936c2.027-.204 3.43-1.152 3.526-2.075h-3.106v-.947h3.106v-.972h1.26v.972h3.105v.947h-3.093zm-5.482-2.626h5.134v-4.498h-5.134v4.498zM255.106 258.445v6.44h-1.235v-.875h-1.656v-1.007h1.656v-1.116h-1.632v-1.007h1.632v-2.435h1.235zm-5.889 9.738h4.665v-.947h-4.665v.947zm4.665-2.865h1.224v3.838h-7.112v-3.839h1.223v.983h4.665v-.983zm-4.677-1.438c.803 0 1.343-.397 1.343-1.034 0-.635-.54-1.03-1.343-1.03-.79 0-1.33.396-1.33 1.03 0 .637.54 1.034 1.33 1.034zm0 .921c-1.463 0-2.483-.78-2.483-1.954s1.02-1.954 2.483-1.954c1.475 0 2.495.78 2.495 1.954 0 1.175-1.02 1.954-2.495 1.954zm2.963-4.352h-6.009v-.983h2.434v-1.117h1.236v1.117h2.34v.983zM266.147 258.457v6.668h-1.236v-1.847h-1.944v-.995h1.945v-1.27h-1.945v-.996h1.945v-1.56h1.235zm-7.329 7.208h7.329v3.646h-1.236v-2.638h-6.093v-1.008zm4.114-1.199c-1.307.227-2.41.264-4.534.264h-.792v-3.359h3.454v-1.295h-3.476v-.995h4.7v3.238h-3.466v1.404c1.81 0 2.808-.049 3.982-.252l.132.995zM279.635 269.276h1.187v-10.83h-1.187v10.83zm-2.206-10.59h1.163v10.086h-1.163v-5.253h-2.135v-1.008h2.135v-3.825zm-4.271 7.063c1.344-.012 2.268-.071 3.335-.3l.108 1.02c-1.223.24-2.279.3-3.934.3h-.731v-7.04h4.101v1.007h-2.879v5.013zM290.278 269.311h1.247v-10.865h-1.247v10.865zm-6.116-6.248c0 1.703.659 2.722 1.595 2.722.947 0 1.607-1.019 1.607-2.722 0-1.679-.66-2.699-1.607-2.699-.936 0-1.595 1.02-1.595 2.699zm4.39 0c0 2.351-1.176 3.826-2.795 3.826-1.608 0-2.782-1.475-2.782-3.826 0-2.327 1.174-3.814 2.782-3.814 1.619 0 2.795 1.487 2.795 3.814zM302.65 258.434v10.865h-1.248v-5.864h-2.075v-1.02h2.075v-3.981h1.247zm-7.28 7.328c1.726-.013 2.962-.072 4.377-.312l.108.996c-1.548.275-2.902.323-4.869.323h-.852v-7.376h5.025v1.02h-3.789v2.027h3.345v.982h-3.345v2.34zM236.182 283.488v1.02h-1.44v3.682h-1.247v-8.133h1.248v3.43h1.439zm-7.208 6.188h6.116v1.007h-7.363v-3.214h1.247v2.207zm1.75-5.11c.217-1.162.253-2.014.265-2.684h-4.234v-1.009h5.446v.624c0 .731 0 1.798-.264 3.202l-1.212-.132zm2.196 1.573c-2.255.394-4.81.454-6.692.454l-.132-1.007c.648 0 1.39 0 2.158-.024v-2.219h1.224v2.183c1.127-.048 2.29-.12 3.358-.288l.084.9zM244.943 290.911h1.247v-10.878h-1.247v10.878zm-5.829-3.597c1.715-.013 3.214-.097 4.93-.372l.132 1.007c-1.86.325-3.479.384-5.386.384h-.923v-4.294h3.778v-2.014h-3.802v-1.008h5.05v4.018h-3.779v2.279zM259.715 290.875h1.187v-10.83h-1.187v10.83zm-2.206-10.59h1.163v10.086h-1.163v-5.252h-2.135v-1.008h2.135v-3.826zm-4.271 7.065c1.344-.012 2.268-.073 3.335-.301l.108 1.02c-1.223.24-2.279.3-3.934.3h-.731v-7.041h4.101v1.008h-2.879v5.014zM270.358 290.911h1.247v-10.866h-1.247v10.866zm-6.116-6.249c0 1.703.659 2.723 1.595 2.723.947 0 1.607-1.02 1.607-2.723 0-1.677-.66-2.697-1.607-2.697-.936 0-1.595 1.02-1.595 2.697zm4.39 0c0 2.352-1.176 3.826-2.795 3.826-1.608 0-2.782-1.474-2.782-3.826 0-2.326 1.174-3.813 2.782-3.813 1.619 0 2.795 1.487 2.795 3.813zM282.73 280.033V290.9h-1.248v-5.864h-2.075v-1.02h2.076v-3.982h1.246zm-7.28 7.328c1.726-.012 2.963-.072 4.377-.312l.108.996c-1.548.275-2.901.324-4.868.324h-.853v-7.377h5.026v1.02h-3.79v2.027h3.346v.983h-3.346v2.34z" mask="url(#prefix__b)"/>
            <path fill="#E6E8EB" d="M82.5 64.935c-45.285 0-82.126 36.84-82.126 82.124 0 1.452.041 2.895.116 4.328v194.509c-.075 1.434-.115 2.877-.115 4.329 0 45.282 36.84 82.123 82.124 82.123 45.284 0 82.124-36.841 82.124-82.123V147.059c0-45.283-36.84-82.124-82.123-82.124" mask="url(#prefix__b)"/>
            <path fill="#0A51B7" d="M80.239 65.342l-.021-.75c.758-.021 1.519-.031 2.28-.031h.155v.75h-.161c-.75 0-1.502.01-2.253.03zm6.93.1c-.75-.042-1.502-.075-2.258-.097l.022-.75c.763.022 1.523.055 2.28.099l-.043.748zm-11.444.147l-.062-.748c.756-.062 1.515-.114 2.276-.155l.04.748c-.753.04-1.505.093-2.254.155zm15.95.232c-.747-.083-1.497-.158-2.25-.221l.064-.748c.759.065 1.516.139 2.27.223l-.083.746zm-20.443.264l-.103-.742c.75-.105 1.506-.2 2.264-.283l.082.746c-.751.082-1.498.176-2.243.279zm24.92.366c-.741-.126-1.486-.24-2.234-.345l.104-.743c.756.106 1.507.222 2.255.348l-.125.74zm-29.378.378l-.145-.736c.745-.147 1.493-.281 2.245-.407l.124.74c-.745.124-1.487.258-2.224.403zm33.813.498c-.734-.167-1.471-.323-2.211-.468l.144-.737c.748.148 1.492.306 2.233.474l-.166.73zm-38.224.494l-.186-.727c.736-.188 1.476-.365 2.219-.532l.164.732c-.736.165-1.47.34-2.197.527zm42.603.627c-.724-.207-1.451-.404-2.183-.591l.187-.727c.738.19 1.472.389 2.202.598l-.206.72zm-46.952.607l-.226-.715c.725-.228 1.453-.446 2.186-.654l.205.72c-.726.207-1.447.422-2.165.649zm51.26.76c-.71-.247-1.425-.485-2.144-.713l.226-.715c.727.23 1.448.47 2.165.719l-.246.709zm-55.546.722l-.265-.701c.712-.27 1.43-.53 2.152-.778l.245.709c-.715.247-1.426.503-2.132.77zm59.767.876c-.693-.284-1.392-.56-2.095-.827l.265-.701c.71.269 1.415.547 2.115.835l-.285.693zm-63.962.84l-.303-.685c.697-.308 1.398-.607 2.104-.896l.284.693c-.7.288-1.395.584-2.085.888zm68.08.989c-.676-.323-1.358-.636-2.046-.942l.304-.686c.694.308 1.383.625 2.067.953l-.324.675zm-72.171.96l-.341-.668c.679-.346 1.362-.683 2.05-1.011l.323.677c-.683.325-1.36.66-2.032 1.002zm76.187 1.096c-.66-.36-1.324-.713-1.994-1.056l.342-.668c.676.347 1.347.702 2.012 1.066l-.36.658zm-80.161 1.075l-.378-.648c.658-.384 1.32-.758 1.99-1.123l.36.658c-.663.36-1.321.733-1.972 1.113zm84.057 1.2c-.64-.396-1.284-.784-1.933-1.166l.378-.646c.656.384 1.307.775 1.95 1.176l-.395.636zM37.62 78.759l-.413-.625c.635-.42 1.277-.83 1.925-1.231l.395.636c-.642.398-1.277.804-1.907 1.22zm91.67 1.3c-.615-.431-1.237-.854-1.865-1.27l.413-.624c.634.419 1.262.846 1.883 1.28l-.43.615zm-95.378 1.295l-.447-.602c.61-.454 1.229-.9 1.853-1.336l.43.615c-.618.433-1.23.873-1.836 1.323zm99.006 1.398c-.593-.465-1.191-.922-1.796-1.371l.448-.601c.609.453 1.213.914 1.81 1.382l-.462.59zM30.355 84.146l-.48-.576c.586-.488 1.177-.965 1.777-1.435l.462.59c-.593.466-1.18.939-1.76 1.42zm106.038 1.495c-.566-.497-1.138-.987-1.718-1.47l.479-.575c.585.486 1.163.979 1.734 1.48l-.495.565zM26.956 87.129l-.511-.55c.558-.517 1.123-1.026 1.694-1.53l.496.565c-.567.498-1.127 1.002-1.68 1.515zm112.749 1.585c-.538-.527-1.084-1.048-1.635-1.56l.509-.55c.558.517 1.108 1.042 1.65 1.575l-.524.535zM23.727 90.293l-.54-.521c.53-.547 1.065-1.087 1.608-1.618l.525.535c-.54.527-1.07 1.06-1.593 1.604zm119.118 1.675c-.508-.556-1.024-1.105-1.548-1.647l.54-.522c.527.548 1.048 1.102 1.562 1.663l-.554.506zM20.677 93.627l-.567-.49c.497-.575 1.002-1.144 1.515-1.704l.554.506c-.51.556-1.01 1.119-1.502 1.688zm125.126 1.76c-.478-.582-.962-1.16-1.456-1.73l.567-.49c.498.574.988 1.157 1.469 1.746l-.58.475zM17.816 97.126l-.594-.46c.465-.601.938-1.195 1.42-1.783l.58.475c-.477.582-.946 1.172-1.406 1.768zm130.754 1.843c-.445-.61-.898-1.212-1.36-1.81l.594-.458c.465.603.922 1.21 1.37 1.827l-.604.44zM15.15 100.77l-.618-.426c.433-.627.872-1.246 1.32-1.858l.605.44c-.444.609-.88 1.223-1.307 1.844zm135.986 1.924c-.411-.633-.83-1.26-1.258-1.881l.618-.426c.43.627.854 1.26 1.269 1.898l-.63.409zm-138.445 1.86l-.64-.391c.397-.647.8-1.29 1.215-1.926l.629.408c-.41.63-.811 1.267-1.204 1.909zm140.802 2.006c-.375-.656-.76-1.305-1.152-1.95l.64-.39c.397.65.784 1.306 1.163 1.967l-.651.373zm-143.047 1.907l-.661-.355c.36-.67.729-1.333 1.106-1.99l.65.373c-.373.652-.74 1.309-1.095 1.972zm145.189 2.083c-.34-.676-.687-1.346-1.043-2.012l.66-.353c.36.672.71 1.347 1.053 2.029l-.67.336zM8.42 112.497l-.68-.318c.324-.687.655-1.37.995-2.047l.67.338c-.337.67-.666 1.347-.985 2.027zm149.13 2.16c-.3-.694-.61-1.383-.93-2.066l.68-.318c.323.69.636 1.385.939 2.086l-.688.298zM6.623 116.63l-.696-.281c.284-.703.577-1.403.879-2.097l.687.299c-.3.688-.59 1.382-.87 2.079zm152.615 2.233c-.261-.71-.533-1.415-.813-2.116l.696-.28c.284.708.557 1.42.82 2.137l-.703.259zM5.054 120.862l-.71-.241c.245-.721.499-1.438.764-2.15l.703.26c-.261.706-.514 1.417-.757 2.13zm155.632 2.299c-.222-.723-.453-1.443-.696-2.16l.71-.24c.246.723.479 1.45.703 2.182l-.717.218zM3.723 125.18l-.723-.2c.204-.734.418-1.464.642-2.19l.717.22c-.222.72-.434 1.443-.636 2.17zm158.166 2.34c-.18-.734-.371-1.462-.571-2.188l.723-.2c.202.732.394 1.469.576 2.208l-.728.18zM2.634 129.57l-.733-.161c.162-.744.336-1.485.519-2.222l.727.18c-.181.73-.352 1.464-.513 2.203zm160.212 2.369c-.14-.743-.29-1.481-.448-2.216l.733-.158c.16.74.31 1.487.452 2.235l-.737.139zM1.79 134.009l-.74-.118c.12-.753.252-1.502.394-2.247l.737.139c-.14.739-.271 1.482-.391 2.227zm161.765 2.393c-.097-.75-.205-1.495-.323-2.237l.74-.12c.12.75.229 1.504.328 2.259l-.745.098zM1.196 138.49l-.746-.078c.08-.758.169-1.513.269-2.265l.743.097c-.098.746-.187 1.494-.266 2.246zm162.823 2.409c-.056-.754-.123-1.504-.2-2.252l.746-.077c.078.754.145 1.512.202 2.272l-.748.057zM.849 142.998l-.75-.037c.039-.761.087-1.52.144-2.276l.748.056c-.057.75-.104 1.502-.142 2.257zm163.383 2.417c-.015-.756-.041-1.51-.076-2.26l.749-.035c.036.757.062 1.518.077 2.28l-.75.015zM.002 147.523L0 147.059c0-.608.007-1.214.02-1.818l.75.016c-.013.6-.02 1.2-.02 1.802l.002.46-.75.004zm164.246 2.426h.75v-2.271h-.75v2.27zM.865 152.062h-.75v-.675c-.027-.514-.05-1.05-.068-1.584l.75-.025c.017.53.04 1.06.068 1.589v.695zm163.383 2.43h.75v-2.271h-.75v2.27zM.115 156.605h.75v-2.271h-.75v2.27zm164.133 2.43h.75v-2.271h-.75v2.27zM.115 161.148h.75v-2.271h-.75v2.27zm164.133 2.43h.75v-2.271h-.75v2.27zM.115 165.69h.75v-2.271h-.75v2.27zm164.133 2.43h.75v-2.271h-.75v2.27zM.115 170.234h.75v-2.271h-.75v2.27zm164.133 2.43h.75v-2.271h-.75v2.27zM.115 174.777h.75v-2.271h-.75v2.27zm164.133 2.43h.75v-2.271h-.75v2.27zM.115 179.32h.75v-2.271h-.75v2.27zm164.133 2.43h.75v-2.271h-.75v2.27zM.115 183.863h.75v-2.271h-.75v2.27zm164.133 2.43h.75v-2.271h-.75v2.27zM.115 188.405h.75v-2.271h-.75v2.27zm164.133 2.43h.75v-2.27h-.75v2.27zM.115 192.949h.75v-2.271h-.75v2.27zm164.133 2.43h.75v-2.27h-.75v2.27zM.115 197.492h.75v-2.271h-.75v2.27zm164.133 2.43h.75v-2.27h-.75v2.27zM.115 202.035h.75v-2.271h-.75v2.27zm164.133 2.43h.75v-2.27h-.75v2.27zM.115 206.578h.75v-2.271h-.75v2.27zm164.133 2.43h.75v-2.27h-.75v2.27zM.115 211.12h.75v-2.271h-.75v2.27zm164.133 2.43h.75v-2.27h-.75v2.27zM.115 215.664h.75v-2.271h-.75v2.27zm164.133 2.432h.75v-2.271h-.75v2.27zM.115 220.205h.75v-2.27h-.75v2.27zm164.133 2.433h.75v-2.271h-.75v2.27zM.115 224.748h.75v-2.27h-.75v2.27zm164.133 2.433h.75v-2.271h-.75v2.27zM.115 229.29h.75v-2.27h-.75v2.27zm164.133 2.433h.75v-2.271h-.75v2.27zM.115 233.834h.75v-2.27h-.75v2.27zm164.133 2.433h.75v-2.271h-.75v2.27zM.115 238.377h.75v-2.27h-.75v2.27zm164.133 2.433h.75v-2.271h-.75v2.27zM.115 242.92h.75v-2.27h-.75v2.27zm164.133 2.433h.75v-2.271h-.75v2.27zM.115 247.465h.75v-2.271h-.75v2.27zm164.133 2.43h.75v-2.27h-.75v2.27zM.115 252.009h.75v-2.271h-.75v2.27zm164.133 2.43h.75v-2.27h-.75v2.27zM.115 256.552h.75v-2.271h-.75v2.27zm164.133 2.43h.75v-2.27h-.75v2.27zM.115 261.095h.75v-2.271h-.75v2.27zm164.133 2.43h.75v-2.27h-.75v2.27zM.115 265.638h.75v-2.271h-.75v2.27zm164.133 2.43h.75v-2.27h-.75v2.27zM.115 270.18h.75v-2.271h-.75v2.27zm164.133 2.43h.75v-2.27h-.75v2.27zM.115 274.724h.75v-2.271h-.75v2.27zm164.133 2.43h.75v-2.27h-.75v2.27zM.115 279.267h.75v-2.271h-.75v2.27zm164.133 2.43h.75v-2.271h-.75v2.27zM.115 283.809h.75v-2.271h-.75v2.27zm164.133 2.43h.75v-2.271h-.75v2.27zM.115 288.352h.75v-2.271h-.75v2.27zm164.133 2.43h.75v-2.271h-.75v2.27zM.115 292.895h.75v-2.271h-.75v2.27zm164.133 2.43h.75v-2.271h-.75v2.27zM.115 297.438h.75v-2.271h-.75v2.27zm164.133 2.43h.75v-2.271h-.75v2.27zM.115 301.98h.75v-2.271h-.75v2.27zm164.133 2.43h.75v-2.271h-.75v2.27zM.115 306.524h.75v-2.271h-.75v2.27zm164.133 2.43h.75v-2.271h-.75v2.27zM.115 311.067h.75v-2.271h-.75v2.27zm164.133 2.43h.75v-2.271h-.75v2.27zM.115 315.61h.75v-2.271h-.75v2.27zm164.133 2.43h.75v-2.271h-.75v2.27zM.115 320.153h.75v-2.271h-.75v2.27zm164.133 2.43h.75v-2.271h-.75v2.27zM.115 324.696h.75v-2.271h-.75v2.27zm164.133 2.43h.75v-2.271h-.75v2.27zM.115 329.238h.75v-2.271h-.75v2.27zm164.133 2.43h.75v-2.27h-.75v2.27zM.115 333.782h.75v-2.271h-.75v2.27zm164.133 2.43h.75v-2.27h-.75v2.27zM.115 338.325h.75v-2.271h-.75v2.27zm164.133 2.43h.75v-2.27h-.75v2.27zM.115 342.868h.75v-2.271h-.75v2.27zm164.133 2.43h.75v-2.27h-.75v2.27zM.798 347.422l-.748-.025c.018-.51.04-1.015.066-1.52l-.001-.737h.75v.757c-.026.52-.048 1.022-.066 1.525zm163.45 2.42h.75v-2.271h-.75v2.27zM.018 351.959c-.012-.577-.018-1.154-.018-1.734l.002-.548.75.006-.002.542c0 .574.006 1.147.018 1.719l-.75.015zm164.876 2.442l-.75-.038c.038-.75.065-1.503.083-2.26l.75.018c-.018.762-.046 1.523-.083 2.28zM.237 356.515c-.057-.757-.104-1.516-.141-2.277l.749-.037c.037.755.083 1.508.14 2.257l-.748.057zm164.303 2.433l-.746-.078c.079-.748.148-1.498.207-2.252l.748.059c-.06.76-.13 1.518-.21 2.27zM.708 361.053c-.1-.752-.188-1.508-.267-2.266l.746-.078c.078.752.166 1.5.264 2.246l-.743.098zm163.227 2.418l-.74-.12c.12-.741.23-1.487.33-2.236l.744.1c-.101.755-.213 1.508-.334 2.256zM1.428 365.558c-.14-.745-.271-1.495-.391-2.247l.74-.12c.12.747.249 1.489.389 2.228l-.738.139zm161.652 2.394l-.732-.16c.16-.735.313-1.473.455-2.215l.736.14c-.143.75-.296 1.494-.46 2.235zM2.4 370.016c-.182-.737-.355-1.48-.516-2.223l.732-.16c.16.738.33 1.472.512 2.203l-.728.18zm159.577 2.363l-.722-.201c.202-.725.395-1.452.577-2.186l.728.182c-.185.739-.38 1.475-.583 2.205zm-158.36 2.034c-.222-.727-.436-1.457-.64-2.19l.723-.201c.202.727.414 1.45.635 2.17l-.717.22zm157.01 2.325l-.71-.242c.244-.712.476-1.428.699-2.15l.717.222c-.225.728-.46 1.45-.705 2.17zm-155.543 2.01c-.265-.714-.52-1.433-.764-2.157l.71-.24c.243.718.495 1.429.757 2.137l-.703.26zm153.958 2.26l-.695-.281c.28-.696.552-1.395.814-2.101l.703.262c-.265.712-.538 1.419-.822 2.12zM6.789 382.994c-.303-.698-.598-1.402-.883-2.11l.697-.28c.282.703.573 1.399.874 2.092l-.688.298zm150.435 2.182l-.68-.318c.32-.68.63-1.365.93-2.054l.688.299c-.303.697-.616 1.387-.938 2.073zM8.727 387.135c-.342-.682-.675-1.367-.998-2.058l.679-.318c.32.685.65 1.364.989 2.038l-.67.338zm146.449 2.105l-.661-.355c.357-.661.704-1.328 1.043-2.001l.67.338c-.342.679-.693 1.35-1.052 2.018zM10.89 391.159c-.38-.66-.75-1.326-1.11-1.997l.66-.355c.359.665.725 1.325 1.1 1.979l-.65.373zm142.014 2.029l-.64-.393c.393-.641.777-1.286 1.152-1.94l.65.374c-.378.659-.765 1.312-1.162 1.959zm-139.631 1.87c-.415-.638-.821-1.282-1.218-1.933l.64-.39c.394.644.796 1.283 1.207 1.915l-.63.408zm137.147 1.946l-.618-.426c.428-.62.848-1.244 1.258-1.876l.629.41c-.414.636-.838 1.267-1.27 1.892zm-134.553 1.815c-.45-.615-.89-1.236-1.323-1.863l.617-.426c.429.622.866 1.237 1.31 1.845l-.604.444zm131.86 1.862l-.593-.46c.46-.595.915-1.195 1.36-1.803l.604.444c-.45.613-.906 1.219-1.371 1.819zm-129.066 1.746c-.482-.588-.956-1.184-1.422-1.785l.593-.46c.462.597.93 1.186 1.409 1.77l-.58.475zm126.175 1.779l-.567-.492c.493-.568.979-1.143 1.457-1.726l.58.474c-.482.589-.972 1.17-1.47 1.744zm-123.187 1.67c-.514-.56-1.02-1.13-1.518-1.704l.567-.49c.494.569.995 1.132 1.504 1.689l-.553.506zm120.106 1.693l-.54-.522c.525-.542 1.042-1.09 1.55-1.645l.554.506c-.514.56-1.035 1.115-1.564 1.66zM24.82 409.156c-.543-.532-1.08-1.072-1.608-1.618l.539-.521c.524.542 1.055 1.076 1.594 1.604l-.525.535zm113.673 1.602l-.51-.551c.554-.511 1.1-1.031 1.639-1.558l.524.537c-.544.53-1.095 1.054-1.653 1.572zm-110.327 1.499c-.572-.502-1.136-1.011-1.694-1.527l.51-.551c.552.513 1.112 1.017 1.678 1.514l-.494.564zm106.895 1.509l-.48-.578c.58-.481 1.156-.97 1.722-1.467l.495.564c-.572.5-1.151.994-1.737 1.48zm-103.387 1.4c-.598-.47-1.19-.946-1.774-1.43l.479-.58c.579.482 1.166.955 1.758 1.42l-.463.59zm99.793 1.414l-.446-.603c.607-.45 1.207-.906 1.8-1.37l.463.589c-.6.47-1.205.93-1.817 1.384zm-96.131 1.3c-.623-.435-1.24-.88-1.85-1.331l.447-.603c.605.448 1.216.887 1.832 1.319l-.43.615zm92.386 1.315l-.412-.627c.63-.415 1.255-.838 1.874-1.27l.429.615c-.624.436-1.254.863-1.891 1.282zm-88.583 1.19c-.645-.4-1.285-.808-1.92-1.226l.415-.627c.627.414 1.26.82 1.9 1.217l-.395.637zm84.7 1.214l-.377-.65c.652-.378 1.299-.765 1.94-1.163l.396.637c-.648.4-1.301.793-1.96 1.176zm-80.765 1.08c-.667-.364-1.328-.736-1.982-1.118l.376-.65c.65.379 1.305.749 1.966 1.11l-.36.659zm76.75 1.107l-.34-.668c.674-.342 1.34-.695 2.004-1.056l.359.658c-.668.365-1.342.72-2.022 1.066zm-72.697.963c-.685-.327-1.366-.662-2.04-1.007l.34-.668c.669.34 1.344.674 2.022.997l-.322.678zm68.568.998l-.303-.685c.69-.306 1.378-.62 2.059-.945l.323.678c-.688.326-1.381.645-2.08.952zm-64.41.845c-.702-.288-1.4-.586-2.091-.893l.303-.685c.686.305 1.377.599 2.073.885l-.285.693zm60.175.884l-.264-.701c.708-.267 1.41-.543 2.11-.83l.284.695c-.706.289-1.415.567-2.13.836zm-55.914.726c-.72-.25-1.435-.508-2.145-.777l.265-.701c.704.266 1.412.522 2.125.769l-.245.709zm51.587.765l-.225-.715c.723-.226 1.44-.463 2.155-.71l.244.71c-.72.248-1.445.486-2.174.715zm-47.237.608c-.732-.21-1.46-.427-2.184-.656l.225-.715c.718.227 1.44.444 2.165.65l-.206.72zm42.847.635l-.185-.726c.732-.186 1.46-.381 2.184-.586l.204.72c-.73.207-1.464.405-2.203.592zm-38.426.493c-.744-.168-1.482-.345-2.218-.533l.186-.726c.728.185 1.46.36 2.198.529l-.166.73zm33.973.504l-.143-.736c.74-.144 1.479-.3 2.213-.463l.164.732c-.741.165-1.486.322-2.234.467zm-29.496.378c-.752-.127-1.5-.264-2.244-.41l.144-.735c.738.145 1.479.28 2.224.405l-.124.74zm24.995.367l-.102-.742c.748-.103 1.493-.216 2.235-.34l.122.742c-.748.123-1.5.237-2.255.34zm-20.477.263c-.758-.085-1.512-.18-2.264-.284l.104-.742c.744.103 1.492.197 2.243.28l-.083.746zm15.943.234l-.061-.748c.753-.06 1.503-.132 2.25-.214l.082.746c-.755.082-1.512.154-2.271.216zm-11.397.145c-.761-.043-1.52-.096-2.276-.158l.063-.748c.749.062 1.5.115 2.255.158l-.042.748zm6.84.1l-.018-.75c.755-.02 1.508-.05 2.258-.09l.04.748c-.757.042-1.516.072-2.28.092zm-2.28.028c-.763-.001-1.523-.012-2.281-.033l.02-.75c.752.02 1.506.032 2.262.033l-.001.75z" mask="url(#prefix__b)"/>
            <path fill="#000" d="M37.962 218.83c0 .768.995 1.212 2.53 1.212 1.524 0 2.52-.444 2.52-1.212s-.996-1.21-2.52-1.21c-1.535 0-2.53.442-2.53 1.21zm.084 7.173h6.284v1.007h-7.532v-3.2h1.248v2.193zm-1.392-7.173c0-1.354 1.512-2.206 3.838-2.206 2.315 0 3.838.852 3.838 2.206 0 1.355-1.523 2.207-3.838 2.207-2.326 0-3.838-.852-3.838-2.207zm8.755 2.94v1.006h-4.197v2.051h-1.26v-2.05h-4.365v-1.008h9.822zM52.325 218.88c.06.227.096.466.096.73 0 .264-.036.503-.11.732h2.065v-1.463h-2.051zm2.11 6.224c0-.72-.887-1.128-2.434-1.128-1.535 0-2.435.408-2.435 1.128 0 .743.9 1.138 2.435 1.138 1.547 0 2.434-.395 2.434-1.138zm1.224 0c0 1.331-1.403 2.11-3.658 2.11s-3.646-.779-3.646-2.11c0-1.32 1.39-2.1 3.646-2.1 2.255 0 3.658.78 3.658 2.1zm-6.045-3.934c.936 0 1.63-.624 1.63-1.56 0-.948-.694-1.57-1.63-1.57-.96 0-1.655.622-1.655 1.57 0 .936.696 1.56 1.655 1.56zm2.147.168c-.503.551-1.271.875-2.147.875-1.62 0-2.83-1.08-2.83-2.603 0-1.535 1.21-2.614 2.83-2.614.888 0 1.644.336 2.147.875h2.615v-1.499h1.235v6.393h-1.235v-1.427H51.76zM68.775 222.477H67.12v-.996h1.655v-1.295H67.12v-1.008h1.655v-2.794h1.235v8.264h-1.235v-2.171zm1.487 3.526v1.007h-7.304v-3.058h1.248v2.05h6.056zm-6.153-3.671c.792 0 1.332-.418 1.332-1.126 0-.696-.54-1.14-1.332-1.14-.78 0-1.32.444-1.32 1.14 0 .708.54 1.126 1.32 1.126zm0 .973c-1.463 0-2.482-.851-2.482-2.1 0-1.26 1.019-2.098 2.482-2.098 1.476 0 2.495.839 2.495 2.099 0 1.248-1.02 2.099-2.495 2.099zm2.963-4.702h-6.01v-.983h2.436v-1.26h1.235v1.26h2.339v.983zM82.045 219.563v1.02h-1.487v3.118h-1.236v-7.304h1.236v3.166h1.487zm-2.662 5.973c0-.528-.804-.792-2.363-.792-1.572 0-2.374.264-2.374.792 0 .515.802.779 2.374.779 1.56 0 2.363-.264 2.363-.78zm-4.03-4.74c.876 0 1.415-.262 1.415-.73 0-.455-.539-.72-1.415-.72-.864 0-1.415.265-1.415.72 0 .468.551.73 1.415.73zm5.277 4.74c0 1.09-1.33 1.69-3.61 1.69-2.29 0-3.622-.6-3.622-1.69 0-1.104 1.332-1.692 3.622-1.692 2.28 0 3.61.588 3.61 1.692zm-2.183-7.376H72.26v-.911h2.482v-.95h1.247v.95h2.46v.91zm.396 4.725c-2.278.407-4.82.444-6.717.444l-.144-.96c.816 0 1.763 0 2.76-.036v-.755c-1.224-.144-1.968-.684-1.968-1.511 0-.96 1.02-1.535 2.58-1.535 1.558 0 2.578.575 2.578 1.535 0 .814-.744 1.367-1.944 1.51v.709c.936-.05 1.883-.12 2.76-.241l.095.84zM88.782 221.445h5.157v-3.215h-5.157v3.215zm7.508 3.43v1.008h-9.811v-1.008h4.27v-2.446h-3.178v-5.181h7.58v5.181h-3.167v2.446h4.306zM105.231 227.214h1.235v-10.83h-1.235v10.83zm-5.853-3.79c1.536-.012 3.155-.144 4.858-.491l.132 1.031c-1.86.384-3.611.516-5.289.516h-.924v-7.04h1.223v5.984zM117.554 216.36v10.866h-1.247v-5.864h-2.075v-1.02h2.075v-3.983h1.247zm-7.279 7.327c1.726-.012 2.962-.07 4.377-.31l.108.994c-1.548.276-2.902.325-4.869.325h-.852v-7.376h5.025v1.019h-3.789v2.026h3.345v.984h-3.345v2.339zM127.288 223.016h1.235v-6.632h-1.235v6.632zm.071 2.207c0-.672-.875-1.031-2.435-1.031-1.547 0-2.434.359-2.434 1.031 0 .66.887 1.019 2.434 1.019 1.56 0 2.435-.359 2.435-1.019zm1.235 0c0 1.26-1.39 2.004-3.67 2.004-2.278 0-3.658-.744-3.658-2.004 0-1.259 1.38-2.002 3.658-2.002 2.28 0 3.67.743 3.67 2.002zm-2.29-3.106c-1.703.276-3.167.324-5.241.324h-.912v-3.203h3.718v-1.199h-3.742v-.996h4.954v3.131h-3.706v1.26c1.859 0 3.213-.061 4.785-.324l.144 1.007zM50.426 366.085v1.02h-1.439v3.682H47.74v-8.133h1.248v3.431h1.44zm-7.208 6.188h6.116v1.008h-7.363v-3.215h1.247v2.207zm1.751-5.109c.216-1.163.252-2.015.264-2.685H41v-1.008h5.446v.623c0 .732 0 1.8-.264 3.203l-1.212-.133zm2.195 1.572c-2.255.395-4.809.455-6.692.455l-.132-1.007c.648 0 1.391 0 2.158-.024v-2.219h1.224v2.183c1.127-.048 2.291-.12 3.358-.288l.084.9zM59.188 373.509h1.247v-10.878h-1.247v10.878zm-5.829-3.598c1.715-.012 3.214-.096 4.93-.372l.131 1.008c-1.859.324-3.478.384-5.385.384h-.923v-4.294h3.777v-2.015h-3.802v-1.008h5.05v4.019h-3.778v2.278zM65.407 362.99L66.366 362.99 63.032 374.72 62.072 374.72zM74.584 371.723c0-.553-.853-.828-2.495-.828-1.632 0-2.483.275-2.483.828 0 .575.852.839 2.484.839 1.641 0 2.493-.264 2.493-.84zm1.234 0c0 1.15-1.367 1.762-3.728 1.762-2.353 0-3.731-.612-3.731-1.762 0-1.141 1.379-1.74 3.73-1.74 2.362 0 3.73.599 3.73 1.74zm1.177-3.406v.995h-9.8v-.995h4.283v-.89h-3.023v-4.472h7.376v.948h-6.142v.815h5.878v.923H69.69v.84h6.213v.947h-3.178v.889h4.27zM86.319 373.473h1.176v-10.83h-1.176v10.83zm-2.183-10.613h1.163v10.097h-1.163v-5.492h-1.594v-1.008h1.594v-3.597zm-2.591 2.769c0 1.848.697 3.719 2.207 4.594l-.719.899c-1.02-.599-1.691-1.667-2.075-2.927-.383 1.368-1.08 2.532-2.123 3.192l-.744-.912c1.535-.959 2.255-2.914 2.255-4.846v-.779H78.44v-1.02h4.893v1.02h-1.788v.779zM96.652 363.77h-6.13v-.851h7.353v2.387h-6.117v.768h6.309v.863h-7.52v-2.435h6.105v-.731zm-4.978 8.744h6.56v.852h-7.783v-2.483h6.237v-.767h-6.261v-.852h7.484v2.422h-6.237v.828zm-2.386-3.982h9.822v-.911h-9.822v.91zM111.424 373.497h1.235v-10.843h-1.235v10.843zm-5.805-8.107c0 .767.672 1.259 1.607 1.259.947 0 1.607-.492 1.607-1.259 0-.756-.66-1.247-1.607-1.247-.935 0-1.607.491-1.607 1.247zm-1.188 0c0-1.331 1.176-2.267 2.795-2.267s2.795.936 2.795 2.267c0 1.343-1.176 2.278-2.795 2.278s-2.795-.935-2.795-2.278zm6.369 3.597c-.947.193-1.943.3-2.902.373v3.801h-1.235v-3.729c-1.02.035-1.98.047-2.819.047l-.144-1.019c1.955 0 4.677-.036 7.016-.384l.084.911zM124.731 366.11v1.02h-1.535v3.644h-1.236v-8.12h1.236v3.456h1.535zm-6.789 2.41c.864 0 1.451-.409 1.451-1.092s-.587-1.09-1.451-1.09c-.852 0-1.439.406-1.439 1.09 0 .683.587 1.091 1.439 1.091zm-.359 3.754h6.044v1.007h-7.292v-3.13h1.248v2.123zm.359-2.796c-1.547 0-2.626-.814-2.626-2.05 0-1.223 1.079-2.05 2.626-2.05 1.56 0 2.627.827 2.627 2.05 0 1.236-1.067 2.05-2.627 2.05zm3.203-4.605h-6.393v-.983h2.579v-1.248h1.235v1.248h2.579v.983zM67.096 385.012v-6.37h1.235v8.24h-1.235v-1.007h-2.123v-.863h2.123zm-5.793-4.042c0 .61.611.995 1.511.995.887 0 1.5-.384 1.5-.995s-.613-.995-1.5-.995c-.9 0-1.51.384-1.51.995zm7.28 7.304v1.008h-7.82v-3.203h1.235v2.195h6.585zm-8.456-7.304c0-1.151 1.092-1.907 2.687-1.907 1.583 0 2.675.756 2.675 1.907 0 1.15-1.092 1.907-2.675 1.907-1.595 0-2.687-.756-2.687-1.907zm2.196 3.55c-1.032.048-2.015.06-2.867.06l-.156-1.007c1.991-.012 4.653-.037 6.944-.325l.096.888c-.91.156-1.859.264-2.782.313v2.085h-1.235v-2.014zM72.067 385.575h7.305v3.886h-1.236v-2.903h-6.07v-.983zm7.305-6.933v6.465h-1.236V383.8h-2.627v-1.007h2.627v-1.296h-2.46c-.718 1.691-2.35 2.902-4.664 3.526l-.48-.983c2.518-.672 4.018-2.015 4.246-3.682h-3.67v-.996h4.989c0 .397-.036.792-.12 1.14h2.159v-1.86h1.236zM93.772 378.643v6.44h-1.235v-.875h-1.656V383.2h1.656v-1.116h-1.631v-1.007h1.631v-2.435h1.235zm-5.889 9.739h4.665v-.947h-4.665v.947zm4.665-2.866h1.224v3.838H86.66v-3.838h1.223v.983h4.665v-.983zm-4.677-1.44c.803 0 1.343-.395 1.343-1.031 0-.635-.54-1.032-1.343-1.032-.791 0-1.331.397-1.331 1.032 0 .636.54 1.032 1.331 1.032zm0 .923c-1.463 0-2.483-.78-2.483-1.954 0-1.175 1.02-1.955 2.483-1.955 1.475 0 2.495.78 2.495 1.955s-1.02 1.954-2.495 1.954zm2.963-4.353h-6.009v-.983h2.434v-1.116h1.236v1.116h2.339v.983zM98.993 388.357h4.594v-1.199h-4.594v1.199zm4.594-3.381h1.224v4.378h-7.04v-4.378h1.223v1.223h4.593v-1.223zm-3.142-3.311c0-.923-.695-1.511-1.631-1.511-.959 0-1.643.588-1.643 1.511 0 .912.684 1.524 1.643 1.524.936 0 1.631-.612 1.631-1.524zm4.366-3.01v5.805h-1.235v-2.303h-2.003c-.216 1.223-1.32 2.051-2.759 2.051-1.631 0-2.83-1.044-2.83-2.543 0-1.487 1.199-2.53 2.83-2.53 1.428 0 2.519.804 2.759 2.015h2.003v-2.495h1.235zM49.003 402.701c0 .768.995 1.211 2.53 1.211 1.524 0 2.52-.443 2.52-1.21 0-.769-.996-1.212-2.52-1.212-1.535 0-2.53.443-2.53 1.211zm.084 7.172h6.284v1.008H47.84v-3.202h1.248v2.194zm-1.392-7.172c0-1.355 1.512-2.207 3.838-2.207 2.315 0 3.838.852 3.838 2.207s-1.523 2.207-3.838 2.207c-2.326 0-3.838-.852-3.838-2.207zm8.755 2.938v1.008h-4.197v2.051h-1.26v-2.05h-4.365v-1.009h9.822zM63.366 402.75c.06.228.096.467.096.73 0 .265-.036.504-.11.732h2.065v-1.463h-2.051zm2.11 6.224c0-.72-.887-1.127-2.434-1.127-1.535 0-2.435.407-2.435 1.127 0 .744.9 1.14 2.435 1.14 1.547 0 2.434-.396 2.434-1.14zm1.224 0c0 1.331-1.403 2.111-3.658 2.111s-3.646-.78-3.646-2.11c0-1.32 1.39-2.1 3.646-2.1 2.255 0 3.658.78 3.658 2.1zm-6.045-3.934c.936 0 1.63-.624 1.63-1.56 0-.947-.694-1.57-1.63-1.57-.96 0-1.655.623-1.655 1.57 0 .936.696 1.56 1.655 1.56zm2.147.168c-.503.552-1.271.875-2.147.875-1.62 0-2.83-1.079-2.83-2.603 0-1.535 1.21-2.614 2.83-2.614.888 0 1.644.336 2.147.876h2.615v-1.5h1.235v6.393h-1.235v-1.427h-2.615zM79.816 406.348H78.16v-.996h1.655v-1.295H78.16v-1.008h1.655v-2.794h1.235v8.263h-1.235v-2.17zm1.487 3.525v1.008h-7.304v-3.058h1.248v2.05h6.056zm-6.153-3.67c.792 0 1.332-.42 1.332-1.126 0-.697-.54-1.14-1.332-1.14-.78 0-1.32.443-1.32 1.14 0 .707.54 1.126 1.32 1.126zm0 .972c-1.463 0-2.482-.851-2.482-2.098 0-1.26 1.019-2.1 2.482-2.1 1.476 0 2.495.84 2.495 2.1 0 1.247-1.02 2.098-2.495 2.098zm2.963-4.701h-6.01v-.983h2.436v-1.26h1.235v1.26h2.339v.983zM93.086 403.433v1.02H91.6v3.118h-1.236v-7.304H91.6v3.166h1.487zm-2.662 5.973c0-.528-.804-.791-2.363-.791-1.572 0-2.374.263-2.374.79 0 .516.802.78 2.374.78 1.56 0 2.363-.264 2.363-.78zm-4.03-4.738c.876 0 1.415-.263 1.415-.731 0-.456-.539-.72-1.415-.72-.864 0-1.415.264-1.415.72 0 .468.551.73 1.415.73zm5.277 4.738c0 1.09-1.33 1.69-3.61 1.69-2.29 0-3.622-.6-3.622-1.69 0-1.104 1.332-1.691 3.622-1.691 2.28 0 3.61.587 3.61 1.69zm-2.183-7.376H83.3v-.911h2.482v-.948h1.247v.948h2.46v.91zm.396 4.725c-2.278.408-4.82.445-6.717.445l-.144-.96c.816 0 1.763 0 2.76-.036v-.756c-1.224-.144-1.968-.684-1.968-1.511 0-.96 1.02-1.535 2.58-1.535 1.558 0 2.578.576 2.578 1.535 0 .815-.744 1.367-1.944 1.51v.709c.936-.048 1.883-.12 2.76-.241l.095.84zM107.487 404.477H106v3.106h-1.236v-7.316H106v3.19h1.487v1.02zm-6.692.312c.863 0 1.415-.29 1.415-.768 0-.492-.552-.792-1.415-.792-.864 0-1.415.3-1.415.792 0 .479.55.768 1.415.768zm-2.027 3.274H106v3.034h-1.236v-2.051h-5.996v-.983zm5.12-5.997h-6.187v-.9h2.482v-1.007h1.247v1.007h2.459v.9zm.397 4.809c-2.291.408-4.821.42-6.717.432l-.144-.983c.816 0 1.763 0 2.759-.025v-.718c-1.223-.133-1.967-.708-1.967-1.56 0-1.008 1.02-1.62 2.579-1.62 1.559 0 2.579.612 2.579 1.62 0 .852-.744 1.415-1.944 1.56v.67c.936-.047 1.883-.107 2.759-.24l.096.864zM116.249 408.122h1.235v-7.867h-1.235v7.867zm1.546 1.751v1.008h-7.387v-3.55h1.247v2.542h6.14zm-6.152-4.545c.947 0 1.667-.66 1.667-1.643 0-.995-.72-1.643-1.667-1.643-.96 0-1.667.648-1.667 1.643 0 .983.707 1.643 1.667 1.643zm0 1.068c-1.632 0-2.879-1.14-2.879-2.711 0-1.583 1.247-2.71 2.879-2.71 1.631 0 2.866 1.127 2.866 2.71 0 1.571-1.235 2.711-2.866 2.711z" mask="url(#prefix__b)"/>
            <path fill="#FFF" d="M138.865 294.883c0 31.125-25.232 56.356-56.357 56.356S26.15 326.008 26.15 294.883c0-31.126 25.232-56.357 56.357-56.357s56.357 25.231 56.357 56.357" mask="url(#prefix__b)"/>
            <path fill="#C5C8CF" d="M82.508 238.9c-30.87 0-55.982 25.114-55.982 55.982 0 30.87 25.113 55.983 55.982 55.983s55.982-25.113 55.982-55.983c0-30.868-25.113-55.982-55.982-55.982m0 112.715c-31.282 0-56.732-25.45-56.732-56.733 0-31.281 25.45-56.732 56.732-56.732s56.732 25.45 56.732 56.732c0 31.284-25.45 56.733-56.732 56.733" mask="url(#prefix__b)"/>
            <path fill="#273A5B" d="M96.688 291.83c-1.317 0-2.374.55-3.148 1.637-.248-.479-.61-.867-1.079-1.153-.53-.322-1.148-.485-1.843-.485-.555 0-1.12.155-1.678.464-.465.258-.837.572-1.105.94v-1.105h-1.888v9.471h1.963v-5.249c0-.73.219-1.373.65-1.91.428-.536.942-.798 1.572-.798.694 0 1.194.178 1.48.528.293.357.44.96.44 1.788v5.641h1.965v-5.249c0-.73.219-1.373.65-1.91.428-.536.942-.798 1.57-.798.696 0 1.195.178 1.48.528.294.357.442.96.442 1.788v5.641h1.965v-5.904c0-1.223-.3-2.182-.892-2.85-.596-.675-1.451-1.016-2.544-1.016M108.136 299.154c-.518.551-1.17.808-2.047.808-.88 0-1.53-.257-2.048-.808-.55-.587-.83-1.365-.83-2.315 0-.938.28-1.71.83-2.296.53-.567 1.182-.829 2.048-.829.865 0 1.516.262 2.047.829.55.585.829 1.358.829 2.296 0 .95-.28 1.728-.83 2.315m-2.046-7.325c-1.39 0-2.558.478-3.477 1.423-.906.941-1.364 2.149-1.364 3.587 0 1.438.458 2.644 1.364 3.586.919.945 2.088 1.423 3.477 1.423 1.388 0 2.552-.478 3.457-1.423.919-.928 1.383-2.137 1.383-3.587 0-1.438-.464-2.645-1.381-3.586-.907-.945-2.071-1.423-3.46-1.423M119.713 295.684c.164-.627.457-1.132.852-1.47.444-.38.982-.571 1.599-.571.752 0 1.359.2 1.8.598.398.354.652.863.726 1.443h-4.977zm7.067 1.356c0-1.632-.43-2.964-1.24-3.851-.826-.903-1.95-1.36-3.34-1.36-1.352 0-2.48.482-3.347 1.434-.854.936-1.305 2.196-1.305 3.647 0 1.409.439 2.558 1.343 3.514.894.945 2.045 1.423 3.422 1.423.942 0 1.798-.226 2.544-.672.597-.356 1.166-.9 1.562-1.492l.058-.087-1.407-1.3-.08.119c-.66.998-1.585 1.547-2.601 1.547-.837 0-1.465-.228-1.978-.72-.544-.52-.811-1.108-.856-1.894h7.195l.03-.308zM77.74 295.684c.162-.626.455-1.132.851-1.47h.001c.442-.38.98-.571 1.597-.571.753 0 1.36.2 1.802.598.397.354.651.863.725 1.443H77.74zm2.487-3.854c-1.353 0-2.48.48-3.348 1.433-.854.937-1.306 2.197-1.306 3.647 0 1.409.44 2.558 1.345 3.514.892.945 2.044 1.423 3.421 1.423.942 0 1.797-.226 2.544-.672.597-.356 1.167-.901 1.562-1.493l.057-.086-1.406-1.3-.079.119c-.66.998-1.586 1.547-2.603 1.547-.836 0-1.464-.228-1.977-.72-.536-.513-.81-1.117-.857-1.894h7.195l.03-.308c0-1.632-.428-2.965-1.239-3.851-.826-.903-1.949-1.36-3.339-1.36zM114.862 289.548h-.23l-1.678 1.065-.055.037v1.637h-1.611v1.815h1.61v5.012c.013.855.282 1.534.797 2.017.49.458 1.125.695 1.942.725.03.002.063.002.097.002.413 0 .992-.081 1.295-.183l.08-.028v-1.9l-.168.075c-.12.053-.23.09-.341.115h-.001c-.19.041-.555.073-.69.068-.297-.015-.523-.107-.73-.297-.21-.193-.317-.583-.317-1.156v-4.45h2.248v-1.815h-2.248v-2.739zM66.372 294.787v-4.942h4.15c1.363 0 2.472 1.108 2.472 2.47 0 1.364-1.11 2.472-2.471 2.472h-4.151zm7.685.193c.595-.767.91-1.689.91-2.665 0-.974-.315-1.896-.91-2.664-.832-1.079-2.091-1.697-3.453-1.697h-6.207v13.66h1.975v-4.937h3.117l3.724 4.887.036.05h2.51l-3.908-5.12c.872-.26 1.65-.793 2.206-1.514z" mask="url(#prefix__b)"/>
            <path fill="#207FF4" d="M44.912 304.888L54.35 299.431 54.35 296.203 44.912 301.685 44.912 301.689 41.011 299.436 41.011 294.937 47.678 291.088 44.908 289.484 38.238 293.335 38.237 293.334 38.237 293.335 38.237 301.036z" mask="url(#prefix__b)"/>
            <path fill="#7DB3F6" d="M57.124 293.338L47.68 287.883 44.907 289.484 51.576 293.343 51.58 293.341 54.35 294.94 54.35 299.429 54.346 299.432 50.45 301.681 43.783 297.811 41.009 299.435 50.449 304.884 57.12 301.033z" mask="url(#prefix__b)"/>
            <path fill="#C0D8FF" d="M47.68 284.681L41.01 288.532 41.01 288.532 41.01 288.532 41.01 299.435 43.784 301.036 43.784 290.133 43.783 290.133 43.784 290.133 47.68 287.883 51.576 290.133 51.576 297.815 54.35 296.203 54.35 288.532z" mask="url(#prefix__b)"/>
            <path fill="#207FF4" d="M41.011 294.937L41.011 294.937 47.678 291.088 44.907 289.484 38.238 293.335 38.237 293.334 38.237 293.335z" mask="url(#prefix__b)"/>
            <path fill="#FFF" d="M138.865 149.178c0 31.125-25.232 56.356-56.357 56.356S26.15 180.303 26.15 149.178c0-31.126 25.232-56.357 56.357-56.357s56.357 25.23 56.357 56.357" mask="url(#prefix__b)"/>
            <path fill="#C5C8CF" d="M82.508 93.195c-30.87 0-55.982 25.114-55.982 55.983 0 30.869 25.113 55.982 55.982 55.982s55.982-25.113 55.982-55.982c0-30.87-25.113-55.983-55.982-55.983m0 112.715c-31.282 0-56.732-25.45-56.732-56.732s25.45-56.733 56.732-56.733 56.732 25.45 56.732 56.733c0 31.282-25.45 56.732-56.732 56.732" mask="url(#prefix__b)"/>
            <path fill="#007CF7" d="M55.9 158.127L51.561 154.659 51.561 143.437 55.9 139.969z" mask="url(#prefix__b)"/>
            <path fill="#6FB6FB" d="M63.615 158.127L67.954 154.659 67.954 143.437 63.615 139.969z" mask="url(#prefix__b)"/>
            <path fill="#0065C7" d="M63.615 139.969L59.757 142.503 63.615 145.099z" mask="url(#prefix__b)"/>
            <path fill="#0065C7" d="M55.9 139.969L59.758 142.503 55.9 145.099zM63.615 152.997L59.757 155.531 63.615 158.127z" mask="url(#prefix__b)"/>
            <path fill="#0065C7" d="M55.9 152.997L59.758 155.531 55.9 158.127z" mask="url(#prefix__b)"/>
            <path fill="#273A5B" d="M95.975 153.071L93.8 146.42 91.851 146.42 89.675 153.073 87.715 146.42 85.667 146.42 88.695 155.809 90.606 155.809 92.779 149.059 94.97 155.809 96.9 155.809 99.928 146.42 97.917 146.42zM112.517 147.12c-.625-.663-1.524-.999-2.674-.999-.602 0-1.19.154-1.748.462-.464.256-.833.571-1.1.936v-1.099h-1.885v9.39h1.96v-5.18c0-.74.222-1.383.662-1.913.441-.53.973-.788 1.626-.788 1.404 0 2.103.695 2.138 2.121v5.76h1.96v-5.873c0-1.208-.316-2.156-.939-2.817M101.152 155.81L103.109 155.81 103.109 146.13 101.152 146.13zM101.064 144.343L103.197 144.343 103.197 142.211 101.064 142.211z" mask="url(#prefix__b)"/>
            <path fill="#273A5B" d="M87.911 142.2L75.436 142.2 75.436 144.094 80.689 144.094 80.689 155.894 82.658 155.894 82.658 144.094 87.911 144.094z" mask="url(#prefix__b)"/>
            <path fill="#092E6E" d="M363.144 288.287c0-.685-1.062-.973-3.367-.973-2.286 0-3.349.288-3.349.973 0 .684 1.063.99 3.35.99 2.304 0 3.366-.306 3.366-.99zm2.395 0c0 1.764-2.106 2.72-5.762 2.72-3.637 0-5.743-.956-5.743-2.72 0-1.783 2.106-2.719 5.743-2.719 3.656 0 5.762.936 5.762 2.72zm1.764-5.312v1.855h-14.998v-1.855h6.303v-1.026h-4.43v-7.095h11.414v1.801h-9.055v.864h8.678v1.73h-8.678v.9h9.182v1.8h-4.736v1.026h6.32zM380.261 286.522h2.395v-12.081h-2.395v12.081zm2.81 2.304v1.891h-11.452v-5.348h2.377v3.457h9.075zm-5.24-4.806c-1.836-.631-3.097-1.855-3.817-3.404-.756 1.675-2.052 3.025-3.979 3.692l-1.207-1.891c2.755-.936 3.943-3.259 3.943-5.456v-1.62h2.414v1.62c0 2.18 1.152 4.304 3.853 5.168l-1.207 1.891zM404.401 274.404v16.637h-2.377v-9.525h-3.186v-1.909h3.186v-5.203h2.377zm-7.688 3.691c0 3.133 1.207 6.176 3.943 7.401l-1.404 1.89c-1.819-.882-3.026-2.503-3.709-4.502-.72 2.125-1.963 3.854-3.818 4.79l-1.476-1.909c2.808-1.296 4.07-4.519 4.07-7.67v-2.394h2.394v2.394zM410.013 285.244h3.259v-3.674h-3.259v3.674zm10.948-10.84v16.637h-2.377v-8.894h-2.971v4.988h-7.958v-11.416h2.359v3.998h3.258v-3.998h2.341v4.519h2.971v-5.834h2.377z" mask="url(#prefix__b)"/>
            <path fill="#E6E8EB" d="M366.108 225.181L366.108 256.521 403.941 256.521 403.941 224.89z" mask="url(#prefix__b)"/>
            <path fill="#000" d="M366.39 256.238h37.27v-31.064l-37.27.287v30.777zm37.834.564h-38.397V224.9l38.397-.295v32.197z" mask="url(#prefix__b)"/>
            <path fill="#FFF" d="M405.042 225.41h-40.176c-1.534 0-2.79-1.255-2.79-2.789v-6.155c0-1.535 1.256-2.789 2.79-2.789h40.176c1.534 0 2.789 1.254 2.789 2.79v6.154c0 1.534-1.255 2.79-2.789 2.79" mask="url(#prefix__b)"/>
            <path fill="#000" d="M405.042 213.677h-40.176c-1.534 0-2.79 1.255-2.79 2.789v6.155c0 1.535 1.256 2.789 2.79 2.789h40.176c1.534 0 2.789-1.254 2.789-2.79v-6.154c0-1.534-1.255-2.79-2.789-2.79m0 .565c1.227 0 2.225.998 2.225 2.225v6.155c0 1.227-.998 2.225-2.225 2.225h-40.176c-1.227 0-2.225-.998-2.225-2.225v-6.155c0-1.227.998-2.225 2.225-2.225h40.176" mask="url(#prefix__b)"/>
            <path fill="#FFF" d="M405.042 239.665h-40.176c-1.534 0-2.79-1.255-2.79-2.789v-6.155c0-1.535 1.256-2.789 2.79-2.789h40.176c1.534 0 2.789 1.254 2.789 2.79v6.154c0 1.534-1.255 2.79-2.789 2.79" mask="url(#prefix__b)"/>
            <path fill="#000" d="M405.042 227.932h-40.176c-1.534 0-2.79 1.255-2.79 2.789v6.155c0 1.535 1.256 2.789 2.79 2.789h40.176c1.534 0 2.789-1.254 2.789-2.79v-6.154c0-1.534-1.255-2.79-2.789-2.79m0 .565c1.227 0 2.225.998 2.225 2.225v6.155c0 1.227-.998 2.225-2.225 2.225h-40.176c-1.227 0-2.225-.998-2.225-2.225v-6.155c0-1.227.998-2.225 2.225-2.225h40.176" mask="url(#prefix__b)"/>
            <path fill="#FFF" d="M405.042 253.84h-40.176c-1.534 0-2.79-1.255-2.79-2.789v-6.155c0-1.535 1.256-2.789 2.79-2.789h40.176c1.534 0 2.789 1.254 2.789 2.789v6.155c0 1.534-1.255 2.789-2.789 2.789" mask="url(#prefix__b)"/>
            <path fill="#000" d="M405.042 242.107h-40.176c-1.534 0-2.79 1.255-2.79 2.79v6.154c0 1.535 1.256 2.789 2.79 2.789h40.176c1.534 0 2.789-1.254 2.789-2.79v-6.153c0-1.535-1.255-2.79-2.789-2.79m0 .564c1.227 0 2.225.998 2.225 2.226v6.154c0 1.227-.998 2.225-2.225 2.225h-40.176c-1.227 0-2.225-.998-2.225-2.225v-6.154c0-1.228.998-2.226 2.225-2.226h40.176" mask="url(#prefix__b)"/>
            <path fill="#0A51B7" d="M392.446 219.543c0 1.043-.845 1.888-1.887 1.888-1.043 0-1.888-.845-1.888-1.888 0-1.042.845-1.887 1.888-1.887 1.042 0 1.887.845 1.887 1.887" mask="url(#prefix__b)"/>
            <path fill="#000" d="M390.559 217.656c-1.042 0-1.888.845-1.888 1.887 0 1.043.846 1.887 1.888 1.887 1.042 0 1.887-.844 1.887-1.887 0-1.042-.845-1.887-1.887-1.887m0 .564c.729 0 1.322.594 1.322 1.323 0 .73-.593 1.323-1.322 1.323-.73 0-1.323-.593-1.323-1.323 0-.729.594-1.323 1.323-1.323" mask="url(#prefix__b)"/>
            <path fill="#0A51B7" d="M398.268 219.543c0 1.043-.845 1.888-1.888 1.888-1.042 0-1.887-.845-1.887-1.888 0-1.042.845-1.887 1.887-1.887 1.043 0 1.888.845 1.888 1.887" mask="url(#prefix__b)"/>
            <path fill="#000" d="M396.38 217.656c-1.042 0-1.888.845-1.888 1.887 0 1.043.846 1.887 1.888 1.887 1.042 0 1.888-.844 1.888-1.887 0-1.042-.846-1.887-1.888-1.887m0 .564c.729 0 1.323.594 1.323 1.323 0 .73-.594 1.323-1.323 1.323-.73 0-1.323-.593-1.323-1.323 0-.729.594-1.323 1.323-1.323" mask="url(#prefix__b)"/>
            <path fill="#0A51B7" d="M404.089 219.543c0 1.043-.845 1.888-1.888 1.888-1.042 0-1.887-.845-1.887-1.888 0-1.042.845-1.887 1.887-1.887 1.043 0 1.888.845 1.888 1.887" mask="url(#prefix__b)"/>
            <path fill="#000" d="M402.201 217.656c-1.042 0-1.887.845-1.887 1.887 0 1.043.845 1.887 1.887 1.887 1.043 0 1.888-.844 1.888-1.887 0-1.042-.845-1.887-1.888-1.887m0 .564c.73 0 1.323.594 1.323 1.323 0 .73-.594 1.323-1.323 1.323s-1.322-.593-1.322-1.323c0-.729.593-1.323 1.322-1.323" mask="url(#prefix__b)"/>
            <path fill="#0A51B7" d="M392.446 233.798c0 1.043-.845 1.888-1.887 1.888-1.043 0-1.888-.845-1.888-1.888 0-1.042.845-1.887 1.888-1.887 1.042 0 1.887.845 1.887 1.887" mask="url(#prefix__b)"/>
            <path fill="#000" d="M390.559 231.911c-1.042 0-1.888.845-1.888 1.888 0 1.042.846 1.886 1.888 1.886 1.042 0 1.887-.844 1.887-1.886 0-1.043-.845-1.888-1.887-1.888m0 .564c.729 0 1.322.593 1.322 1.324 0 .728-.593 1.322-1.322 1.322-.73 0-1.323-.594-1.323-1.322 0-.73.594-1.324 1.323-1.324" mask="url(#prefix__b)"/>
            <path fill="#0A51B7" d="M398.268 233.798c0 1.043-.845 1.888-1.888 1.888-1.042 0-1.887-.845-1.887-1.888 0-1.042.845-1.887 1.887-1.887 1.043 0 1.888.845 1.888 1.887" mask="url(#prefix__b)"/>
            <path fill="#000" d="M396.38 231.911c-1.042 0-1.888.845-1.888 1.888 0 1.042.846 1.886 1.888 1.886 1.042 0 1.888-.844 1.888-1.886 0-1.043-.846-1.888-1.888-1.888m0 .564c.729 0 1.323.593 1.323 1.324 0 .728-.594 1.322-1.323 1.322-.73 0-1.323-.594-1.323-1.322 0-.73.594-1.324 1.323-1.324" mask="url(#prefix__b)"/>
            <path fill="#0A51B7" d="M404.089 233.798c0 1.043-.845 1.888-1.888 1.888-1.042 0-1.887-.845-1.887-1.888 0-1.042.845-1.887 1.887-1.887 1.043 0 1.888.845 1.888 1.887" mask="url(#prefix__b)"/>
            <path fill="#000" d="M402.201 231.911c-1.042 0-1.887.845-1.887 1.888 0 1.042.845 1.886 1.887 1.886 1.043 0 1.888-.844 1.888-1.886 0-1.043-.845-1.888-1.888-1.888m0 .564c.73 0 1.323.593 1.323 1.324 0 .728-.594 1.322-1.323 1.322s-1.322-.594-1.322-1.322c0-.73.593-1.324 1.322-1.324" mask="url(#prefix__b)"/>
            <path fill="#0A51B7" d="M392.446 247.974c0 1.042-.845 1.887-1.887 1.887-1.043 0-1.888-.845-1.888-1.887 0-1.043.845-1.888 1.888-1.888 1.042 0 1.887.845 1.887 1.888" mask="url(#prefix__b)"/>
            <path fill="#000" d="M390.559 246.086c-1.042 0-1.888.846-1.888 1.887 0 1.043.846 1.888 1.888 1.888 1.042 0 1.887-.845 1.887-1.888 0-1.04-.845-1.887-1.887-1.887m0 .564c.729 0 1.322.594 1.322 1.323 0 .73-.593 1.324-1.322 1.324-.73 0-1.323-.594-1.323-1.324 0-.729.594-1.323 1.323-1.323" mask="url(#prefix__b)"/>
            <path fill="#0A51B7" d="M398.268 247.974c0 1.042-.845 1.887-1.888 1.887-1.042 0-1.887-.845-1.887-1.887 0-1.043.845-1.888 1.887-1.888 1.043 0 1.888.845 1.888 1.888" mask="url(#prefix__b)"/>
            <path fill="#000" d="M396.38 246.086c-1.042 0-1.888.846-1.888 1.887 0 1.043.846 1.888 1.888 1.888 1.042 0 1.888-.845 1.888-1.888 0-1.04-.846-1.887-1.888-1.887m0 .564c.729 0 1.323.594 1.323 1.323 0 .73-.594 1.324-1.323 1.324-.73 0-1.323-.594-1.323-1.324 0-.729.594-1.323 1.323-1.323" mask="url(#prefix__b)"/>
            <path fill="#0A51B7" d="M404.089 247.974c0 1.042-.845 1.887-1.888 1.887-1.042 0-1.887-.845-1.887-1.887 0-1.043.845-1.888 1.887-1.888 1.043 0 1.888.845 1.888 1.888" mask="url(#prefix__b)"/>
            <path fill="#000" d="M402.201 246.086c-1.042 0-1.887.846-1.887 1.887 0 1.043.845 1.888 1.887 1.888 1.043 0 1.888-.845 1.888-1.888 0-1.04-.845-1.887-1.888-1.887m0 .564c.73 0 1.323.594 1.323 1.323 0 .73-.594 1.324-1.323 1.324s-1.322-.594-1.322-1.324c0-.729.593-1.323 1.322-1.323" mask="url(#prefix__b)"/>
            <path fill="#FFF" d="M366.912 216.446L366.912 222.642" mask="url(#prefix__b)"/>
            <path fill="#000" d="M366.63 222.642L367.194 222.642 367.194 216.446 366.63 216.446z" mask="url(#prefix__b)"/>
            <path fill="#FFF" d="M370.113 216.446L370.113 222.642" mask="url(#prefix__b)"/>
            <path fill="#000" d="M369.832 222.642L370.396 222.642 370.396 216.446 369.832 216.446z" mask="url(#prefix__b)"/>
            <path fill="#FFF" d="M373.315 216.446L373.315 222.642" mask="url(#prefix__b)"/>
            <path fill="#000" d="M373.033 222.642L373.597 222.642 373.597 216.446 373.033 216.446z" mask="url(#prefix__b)"/>
            <path fill="#FFF" d="M376.516 216.446L376.516 222.642" mask="url(#prefix__b)"/>
            <path fill="#000" d="M376.234 222.642L376.798 222.642 376.798 216.446 376.234 216.446z" mask="url(#prefix__b)"/>
            <path fill="#FFF" d="M379.717 216.446L379.717 222.642" mask="url(#prefix__b)"/>
            <path fill="#000" d="M379.435 222.642L379.999 222.642 379.999 216.446 379.435 216.446z" mask="url(#prefix__b)"/>
            <path fill="#FFF" d="M382.918 216.446L382.918 222.642" mask="url(#prefix__b)"/>
            <path fill="#000" d="M382.636 222.642L383.2 222.642 383.2 216.446 382.636 216.446z" mask="url(#prefix__b)"/>
            <path fill="#FFF" d="M368.513 216.446L368.513 222.642" mask="url(#prefix__b)"/>
            <path fill="#000" d="M368.231 222.642L368.795 222.642 368.795 216.446 368.231 216.446z" mask="url(#prefix__b)"/>
            <path fill="#FFF" d="M371.714 216.446L371.714 222.642" mask="url(#prefix__b)"/>
            <path fill="#000" d="M371.432 222.642L371.996 222.642 371.996 216.446 371.432 216.446z" mask="url(#prefix__b)"/>
            <path fill="#FFF" d="M374.915 216.446L374.915 222.642" mask="url(#prefix__b)"/>
            <path fill="#000" d="M374.633 222.642L375.197 222.642 375.197 216.446 374.633 216.446z" mask="url(#prefix__b)"/>
            <path fill="#FFF" d="M378.116 216.446L378.116 222.642" mask="url(#prefix__b)"/>
            <path fill="#000" d="M377.834 222.642L378.398 222.642 378.398 216.446 377.834 216.446z" mask="url(#prefix__b)"/>
            <path fill="#FFF" d="M381.317 216.446L381.317 222.642" mask="url(#prefix__b)"/>
            <path fill="#000" d="M381.036 222.642L381.6 222.642 381.6 216.446 381.036 216.446z" mask="url(#prefix__b)"/>
            <path fill="#FFF" d="M366.912 230.7L366.912 236.896" mask="url(#prefix__b)"/>
            <path fill="#000" d="M366.63 236.897L367.194 236.897 367.194 230.701 366.63 230.701z" mask="url(#prefix__b)"/>
            <path fill="#FFF" d="M370.113 230.7L370.113 236.896" mask="url(#prefix__b)"/>
            <path fill="#000" d="M369.832 236.897L370.396 236.897 370.396 230.701 369.832 230.701z" mask="url(#prefix__b)"/>
            <path fill="#FFF" d="M373.315 230.7L373.315 236.896" mask="url(#prefix__b)"/>
            <path fill="#000" d="M373.033 236.897L373.597 236.897 373.597 230.701 373.033 230.701z" mask="url(#prefix__b)"/>
            <path fill="#FFF" d="M376.516 230.7L376.516 236.896" mask="url(#prefix__b)"/>
            <path fill="#000" d="M376.234 236.897L376.798 236.897 376.798 230.701 376.234 230.701z" mask="url(#prefix__b)"/>
            <path fill="#FFF" d="M379.717 230.7L379.717 236.896" mask="url(#prefix__b)"/>
            <path fill="#000" d="M379.435 236.897L379.999 236.897 379.999 230.701 379.435 230.701z" mask="url(#prefix__b)"/>
            <path fill="#FFF" d="M382.918 230.7L382.918 236.896" mask="url(#prefix__b)"/>
            <path fill="#000" d="M382.636 236.897L383.2 236.897 383.2 230.701 382.636 230.701z" mask="url(#prefix__b)"/>
            <path fill="#FFF" d="M368.513 230.7L368.513 236.896" mask="url(#prefix__b)"/>
            <path fill="#000" d="M368.231 236.897L368.795 236.897 368.795 230.701 368.231 230.701z" mask="url(#prefix__b)"/>
            <path fill="#FFF" d="M371.714 230.7L371.714 236.896" mask="url(#prefix__b)"/>
            <path fill="#000" d="M371.432 236.897L371.996 236.897 371.996 230.701 371.432 230.701z" mask="url(#prefix__b)"/>
            <path fill="#FFF" d="M374.915 230.7L374.915 236.896" mask="url(#prefix__b)"/>
            <path fill="#000" d="M374.633 236.897L375.197 236.897 375.197 230.701 374.633 230.701z" mask="url(#prefix__b)"/>
            <path fill="#FFF" d="M378.116 230.7L378.116 236.896" mask="url(#prefix__b)"/>
            <path fill="#000" d="M377.834 236.897L378.398 236.897 378.398 230.701 377.834 230.701z" mask="url(#prefix__b)"/>
            <path fill="#FFF" d="M381.317 230.7L381.317 236.896" mask="url(#prefix__b)"/>
            <path fill="#000" d="M381.036 236.897L381.6 236.897 381.6 230.701 381.036 230.701z" mask="url(#prefix__b)"/>
            <path fill="#FFF" d="M366.912 244.955L366.912 251.151" mask="url(#prefix__b)"/>
            <path fill="#000" d="M366.63 251.152L367.194 251.152 367.194 244.956 366.63 244.956z" mask="url(#prefix__b)"/>
            <path fill="#FFF" d="M370.113 244.955L370.113 251.151" mask="url(#prefix__b)"/>
            <path fill="#000" d="M369.832 251.152L370.396 251.152 370.396 244.956 369.832 244.956z" mask="url(#prefix__b)"/>
            <path fill="#FFF" d="M373.315 244.955L373.315 251.151" mask="url(#prefix__b)"/>
            <path fill="#000" d="M373.033 251.152L373.597 251.152 373.597 244.956 373.033 244.956z" mask="url(#prefix__b)"/>
            <path fill="#FFF" d="M376.516 244.955L376.516 251.151" mask="url(#prefix__b)"/>
            <path fill="#000" d="M376.234 251.152L376.798 251.152 376.798 244.956 376.234 244.956z" mask="url(#prefix__b)"/>
            <path fill="#FFF" d="M379.717 244.955L379.717 251.151" mask="url(#prefix__b)"/>
            <path fill="#000" d="M379.435 251.152L379.999 251.152 379.999 244.956 379.435 244.956z" mask="url(#prefix__b)"/>
            <path fill="#FFF" d="M382.918 244.955L382.918 251.151" mask="url(#prefix__b)"/>
            <path fill="#000" d="M382.636 251.152L383.2 251.152 383.2 244.956 382.636 244.956z" mask="url(#prefix__b)"/>
            <path fill="#FFF" d="M368.513 244.955L368.513 251.151" mask="url(#prefix__b)"/>
            <path fill="#000" d="M368.231 251.152L368.795 251.152 368.795 244.956 368.231 244.956z" mask="url(#prefix__b)"/>
            <path fill="#FFF" d="M371.714 244.955L371.714 251.151" mask="url(#prefix__b)"/>
            <path fill="#000" d="M371.432 251.152L371.996 251.152 371.996 244.956 371.432 244.956z" mask="url(#prefix__b)"/>
            <path fill="#FFF" d="M374.915 244.955L374.915 251.151" mask="url(#prefix__b)"/>
            <path fill="#000" d="M374.633 251.152L375.197 251.152 375.197 244.956 374.633 244.956z" mask="url(#prefix__b)"/>
            <path fill="#FFF" d="M378.116 244.955L378.116 251.151" mask="url(#prefix__b)"/>
            <path fill="#000" d="M377.834 251.152L378.398 251.152 378.398 244.956 377.834 244.956z" mask="url(#prefix__b)"/>
            <path fill="#FFF" d="M381.317 244.955L381.317 251.151" mask="url(#prefix__b)"/>
            <path fill="#000" d="M381.036 251.152L381.6 251.152 381.6 244.956 381.036 244.956z" mask="url(#prefix__b)"/>
            <path fill="#E6E8EB" d="M399.75 245.09s.187-1.192 1.877-2.007c1.69-.813 5.93-1.964 11.109-1.249 5.179.715 6.54 2.001 6.54 2.001l.623 1.376-.001 15.146s-.685 1.815-4.158 2.566c-3.473.751-10.389 1.001-13.706-.532 0 0-2.097-.876-2.284-2.191v-15.11z" mask="url(#prefix__b)"/>
            <path fill="#000" d="M400.032 260.187c.143.334 1.614 3.208 9.786 3.208 8.157 0 9.648-2.864 9.797-3.21l.001-15.186c-.106-.296-1.354-3.106-10.095-3.106-9.134 0-9.487 3.12-9.489 3.152v15.142zm9.786 3.772c-9.117 0-10.292-3.49-10.338-3.637l-.012-.083v-15.212c.007-.165.297-3.698 10.053-3.698 9.712 0 10.62 3.418 10.653 3.563l.007.064-.014 15.367c-.046.148-1.233 3.636-10.349 3.636z" mask="url(#prefix__b)"/>
            <path fill="#000" d="M409.604 253.899c-8.856 0-10.073-3.263-10.121-3.403l.534-.182-.267.09.267-.093c.01.03 1.25 3.084 9.935 3.022 8.678-.083 9.668-2.978 9.675-3.007l.543.154c-.036.136-1.026 3.329-10.213 3.417l-.353.002M409.604 258.856c-8.856 0-10.073-3.262-10.121-3.402l.534-.185c.01.03 1.248 3.108 9.935 3.02 8.678-.081 9.668-2.976 9.675-3.005l.543.154c-.036.136-1.026 3.329-10.213 3.416l-.353.002M409.604 248.94c-8.856 0-10.073-3.261-10.121-3.401l.534-.185c.01.03 1.204 3.023 9.59 3.023l.344-.002c8.68-.083 9.668-2.977 9.676-3.006l.543.154c-.036.136-1.026 3.328-10.213 3.416l-.353.002" mask="url(#prefix__b)"/>
            <path fill="#C5C8CF" d="M431.951 240.179L602.558 240.179 602.558 239.429 431.951 239.429z" mask="url(#prefix__b)"/>
            <path fill="#C5C8CF" d="M596.582 239.804L596.582 235.042 600.707 237.423 604.831 239.804 600.707 242.185 596.582 244.566zM439.125 239.804L439.125 244.566 435 242.185 430.877 239.804 435 237.423 439.125 235.042z" mask="url(#prefix__b)"/>
            <path fill="#FFF" d="M727.04 238.062c0 31.125-25.232 56.357-56.357 56.357s-56.357-25.232-56.357-56.357 25.232-56.356 56.357-56.356 56.357 25.23 56.357 56.356" mask="url(#prefix__b)"/>
            <path fill="#C5C8CF" d="M670.682 182.08c-30.869 0-55.982 25.113-55.982 55.981 0 30.87 25.113 55.983 55.982 55.983 30.87 0 55.982-25.113 55.982-55.983 0-30.868-25.113-55.98-55.982-55.98m0 112.713c-31.282 0-56.732-25.45-56.732-56.733 0-31.282 25.45-56.73 56.732-56.73s56.732 25.448 56.732 56.73c0 31.283-25.45 56.733-56.732 56.733" mask="url(#prefix__b)"/>
            <path fill="#273A5B" d="M684.862 235.008c-1.316 0-2.374.551-3.147 1.639-.248-.479-.61-.867-1.08-1.154-.529-.321-1.149-.485-1.842-.485-.556 0-1.12.156-1.679.464-.465.258-.836.573-1.104.94v-1.104h-1.889v9.471h1.964v-5.249c0-.73.218-1.373.65-1.91.428-.537.942-.798 1.571-.798.695 0 1.193.178 1.48.528.292.357.441.959.441 1.787v5.642h1.965v-5.249c0-.731.218-1.373.65-1.91.428-.537.942-.798 1.57-.798.695 0 1.194.178 1.48.528.293.357.442.959.442 1.787v5.642h1.964v-5.904c0-1.223-.3-2.182-.892-2.852-.595-.673-1.45-1.015-2.544-1.015M696.31 242.333c-.517.552-1.168.81-2.046.81-.88 0-1.532-.258-2.048-.81-.55-.587-.83-1.365-.83-2.315 0-.938.28-1.71.829-2.297.531-.565 1.181-.828 2.048-.828.865 0 1.516.263 2.048.828.55.586.828 1.36.828 2.297 0 .95-.279 1.728-.828 2.315m-2.048-7.325c-1.389 0-2.558.478-3.478 1.423-.904.942-1.362 2.15-1.362 3.587 0 1.437.457 2.644 1.364 3.586.918.944 2.087 1.423 3.476 1.423 1.389 0 2.551-.479 3.457-1.423.918-.928 1.384-2.136 1.384-3.586 0-1.438-.466-2.645-1.382-3.587-.908-.945-2.07-1.423-3.458-1.423M707.888 238.863c.163-.627.456-1.132.852-1.47.443-.379.98-.57 1.599-.57.752 0 1.358.2 1.8.597.397.354.652.862.726 1.443h-4.977zm7.066 1.356c0-1.632-.428-2.964-1.24-3.852-.825-.902-1.948-1.359-3.338-1.359-1.353 0-2.48.482-3.348 1.434-.854.936-1.305 2.196-1.305 3.647 0 1.41.439 2.558 1.343 3.513.894.946 2.045 1.424 3.422 1.424.942 0 1.798-.226 2.544-.672.597-.357 1.166-.9 1.562-1.492l.058-.087-1.407-1.299-.08.118c-.66.998-1.585 1.547-2.601 1.547-.837 0-1.465-.228-1.978-.719-.544-.52-.811-1.109-.856-1.895h7.194l.03-.308zM665.914 238.863c.163-.626.456-1.132.852-1.47h.001c.442-.379.98-.57 1.597-.57.753 0 1.36.2 1.802.597.397.354.651.862.725 1.443h-4.977zm2.488-3.855c-1.353 0-2.48.482-3.349 1.434-.853.936-1.305 2.197-1.305 3.647 0 1.41.44 2.558 1.344 3.513.893.946 2.045 1.424 3.422 1.424.942 0 1.797-.226 2.544-.672.597-.357 1.166-.9 1.562-1.493l.057-.086-1.406-1.299-.079.118c-.662.998-1.586 1.547-2.603 1.547-.836 0-1.464-.228-1.977-.719-.536-.514-.81-1.119-.857-1.895h7.195l.03-.308c0-1.633-.428-2.965-1.239-3.852-.826-.902-1.949-1.359-3.339-1.359zM703.037 232.728h-.23l-1.678 1.065-.055.036v1.638h-1.611v1.814h1.61v5.013c.013.855.28 1.534.797 2.016.49.459 1.125.696 1.94.726l.099.002c.412 0 .99-.081 1.295-.184l.08-.027v-1.9l-.17.075c-.117.053-.23.09-.34.115-.19.04-.555.073-.69.067-.297-.015-.523-.106-.73-.297-.21-.193-.317-.582-.317-1.156v-4.45h2.248v-1.814h-2.248v-2.74zM654.546 237.966v-4.941h4.15c1.363 0 2.472 1.108 2.472 2.47 0 1.363-1.109 2.471-2.472 2.471h-4.15zm7.685.194c.595-.767.91-1.689.91-2.665 0-.975-.315-1.897-.91-2.665-.832-1.078-2.09-1.696-3.453-1.696h-6.207v13.66h1.975v-4.937h3.117l3.724 4.886.036.051h2.51l-3.908-5.121c.872-.26 1.65-.792 2.206-1.513z" mask="url(#prefix__b)"/>
            <path fill="#207FF4" d="M633.086 248.067L642.524 242.609 642.524 239.382 633.086 244.864 633.086 244.869 629.185 242.614 629.185 238.115 635.852 234.267 633.082 232.663 626.412 236.513 626.411 236.513 626.411 236.514 626.411 244.215z" mask="url(#prefix__b)"/>
            <path fill="#7DB3F6" d="M645.298 236.518L635.854 231.063 633.082 232.664 639.75 236.523 639.754 236.52 642.524 238.12 642.524 242.609 642.52 242.612 638.625 244.86 631.957 240.99 629.183 242.615 638.623 248.064 645.294 244.213z" mask="url(#prefix__b)"/>
            <path fill="#C0D8FF" d="M635.854 227.859L629.184 231.712 629.185 231.712 629.184 231.712 629.184 242.613 631.958 244.215 631.958 233.313 631.957 233.311 631.958 233.313 635.854 231.063 639.75 233.313 639.75 240.994 642.524 239.382 642.524 231.712z" mask="url(#prefix__b)"/>
            <path fill="#207FF4" d="M629.186 238.115L629.186 238.115 635.852 234.266 633.082 232.663 626.413 236.513 626.412 236.513 626.412 236.514z" mask="url(#prefix__b)"/>
            <path fill="#000" d="M474.352 219.516c.06.229.096.468.096.73 0 .266-.036.505-.11.734h2.065v-1.464h-2.051zm2.11 6.225c0-.72-.887-1.127-2.434-1.127-1.535 0-2.435.407-2.435 1.127 0 .744.9 1.139 2.435 1.139 1.547 0 2.434-.395 2.434-1.14zm1.224 0c0 1.33-1.403 2.11-3.658 2.11s-3.646-.78-3.646-2.11c0-1.32 1.39-2.1 3.646-2.1 2.255 0 3.658.78 3.658 2.1zm-6.045-3.934c.936 0 1.63-.624 1.63-1.56 0-.947-.694-1.57-1.63-1.57-.96 0-1.655.623-1.655 1.57 0 .936.696 1.56 1.655 1.56zm2.147.168c-.503.552-1.271.875-2.147.875-1.62 0-2.83-1.08-2.83-2.603 0-1.535 1.21-2.614 2.83-2.614.888 0 1.644.336 2.147.876h2.615v-1.5h1.235v6.393h-1.235v-1.427h-2.615zM489.697 219.696v1.02h-1.535v2.805h-1.236v-6.512h1.236v2.687h1.535zm-2.639 6.117c0-.672-.876-1.055-2.386-1.055-1.512 0-2.387.382-2.387 1.054 0 .695.875 1.069 2.387 1.069 1.51 0 2.386-.374 2.386-1.069zm1.223 0c0 1.282-1.367 2.038-3.609 2.038-2.232 0-3.61-.756-3.61-2.038 0-1.271 1.378-2.027 3.61-2.027 2.242 0 3.61.756 3.61 2.026zm-2.926-2.867c-1.163-.42-2.027-1.248-2.482-2.267-.48 1.175-1.367 2.112-2.615 2.567l-.66-.984c1.703-.588 2.626-2.063 2.626-3.621v-1.067h1.248v1.162c0 1.393.923 2.71 2.531 3.239l-.648.971zM501.782 223.198h1.248v-6.189h-1.248v6.189zm-5.912-1.991h2.723v-2.53h-2.723v2.53zm4.27 3.611c.095.886 1.487 1.858 3.49 2.074l-.408.935c-1.715-.204-3.059-.899-3.718-1.835-.66.948-2.027 1.631-3.754 1.835l-.408-.935c2.027-.204 3.43-1.152 3.526-2.074h-3.106v-.949h3.106v-.971h1.26v.971h3.105v.949h-3.093zm-5.482-2.627h5.134v-4.498h-5.134v4.498zM517.477 217.009v6.44h-1.235v-.875h-1.655v-1.007h1.655v-1.116h-1.631v-1.006h1.631v-2.436h1.236zm-5.888 9.739h4.665v-.947h-4.666v.947zm4.665-2.866h1.223v3.838h-7.111v-3.838h1.223v.983h4.665v-.983zm-4.678-1.44c.803 0 1.343-.395 1.343-1.031 0-.635-.54-1.032-1.342-1.032-.791 0-1.332.397-1.332 1.032 0 .636.54 1.032 1.332 1.032zm0 .923c-1.463 0-2.483-.78-2.483-1.954 0-1.175 1.02-1.955 2.483-1.955 1.476 0 2.495.78 2.495 1.955s-1.02 1.954-2.495 1.954zm2.963-4.353h-6.008v-.983h2.433v-1.116h1.237v1.116h2.338v.983zM528.518 217.022v6.668h-1.235v-1.847h-1.944v-.996h1.944v-1.27h-1.944v-.996h1.944v-1.56h1.235zm-7.328 7.208h7.328v3.646h-1.235v-2.64h-6.093v-1.006zm4.113-1.2c-1.306.228-2.41.264-4.533.264h-.792v-3.358h3.454v-1.295h-3.477v-.996h4.7v3.238h-3.465v1.404c1.81 0 2.807-.048 3.98-.252l.133.996zM542.006 227.839h1.187v-10.83h-1.187v10.83zm-2.206-10.59h1.163v10.087H539.8v-5.254h-2.135v-1.007h2.135v-3.826zm-4.271 7.065c1.344-.013 2.268-.073 3.335-.3l.108 1.019c-1.223.24-2.279.3-3.934.3h-.731v-7.041h4.101v1.008h-2.879v5.014zM552.649 227.875h1.247v-10.866h-1.247v10.866zm-6.116-6.248c0 1.703.659 2.723 1.595 2.723.947 0 1.607-1.02 1.607-2.723 0-1.68-.66-2.699-1.607-2.699-.936 0-1.595 1.019-1.595 2.699zm4.39 0c0 2.351-1.176 3.825-2.795 3.825-1.607 0-2.782-1.474-2.782-3.825 0-2.327 1.175-3.814 2.782-3.814 1.619 0 2.795 1.487 2.795 3.814zM565.02 216.997v10.866h-1.246v-5.865h-2.076v-1.019h2.076v-3.982h1.246zm-7.279 7.328c1.726-.012 2.962-.072 4.378-.31l.107.994c-1.548.275-2.902.324-4.869.324h-.851v-7.376h5.024v1.02h-3.788v2.026h3.345v.983h-3.346v2.34z" mask="url(#prefix__b)"/>
            <path fill="#C5C8CF" d="M386.813 203.394L387.563 203.394 387.563 161.565 386.813 161.565z" mask="url(#prefix__b)"/>
            <path fill="#C5C8CF" d="M387.188 167.54L382.426 167.54 384.808 163.416 387.188 159.292 389.57 163.416 391.95 167.54zM387.188 195.869L391.95 195.869 389.57 199.993 387.188 204.117 384.808 199.993 382.426 195.869zM386.813 345.169L387.563 345.169 387.563 303.34 386.813 303.34z" mask="url(#prefix__b)"/>
            <path fill="#C5C8CF" d="M387.188 309.316L382.426 309.316 384.808 305.192 387.188 301.068 389.57 305.192 391.95 309.316zM387.188 337.645L391.95 337.645 389.57 341.769 387.188 345.893 384.808 341.769 382.426 337.645z" mask="url(#prefix__b)"/>
            <path fill="#000" d="M631.742 309.24h4.881v-1.942h-4.881v1.942zm-1.212.985h7.305v-3.91h-7.305v3.91zm1.188 5.228h6.297v1.008h-7.533v-3.131h1.236v2.123zm7.387-4.162v.996h-4.197v2.028h-1.235v-2.028h-4.39v-.996h9.822zM648.394 316.652h1.176v-10.83h-1.176v10.83zm-2.182-10.613h1.163v10.098h-1.163v-5.492h-1.595v-1.008h1.595v-3.598zm-2.591 2.77c0 1.847.696 3.718 2.207 4.593l-.72.9c-1.019-.6-1.69-1.667-2.074-2.927-.384 1.367-1.08 2.531-2.123 3.192l-.744-.913c1.535-.959 2.255-2.914 2.255-4.845v-.78h-1.906v-1.019h4.892v1.019h-1.787v.78zM663.959 305.834v10.83h-1.176v-5.324h-1.151v4.821h-1.152v-10.098h1.152v4.257h1.151v-4.486h1.176zm-5.338 5.89c0-.9-.516-1.499-1.247-1.499-.731 0-1.247.6-1.247 1.5 0 .898.516 1.486 1.247 1.486.731 0 1.247-.588 1.247-1.487zm1.104 0c0 1.487-.984 2.518-2.351 2.518s-2.351-1.03-2.351-2.518c0-1.499.984-2.519 2.351-2.519s2.351 1.02 2.351 2.52zm-1.739-4.126h2.027v.996h-5.301v-.996h2.051v-1.452h1.223v1.452zM675.046 315.573v.995h-7.328v-2.914h5.793v-.899h-5.818v-.984h7.053v2.807h-5.793v.995h6.093zm-4.042-7.304c-.672 1.655-2.267 2.758-4.653 3.298l-.432-1.007c2.566-.552 3.898-1.74 4.065-3.25h-3.477v-.996h4.845c0 .348-.024.684-.084.996h2.243v-1.476h1.235v5.494h-1.235v-.984h-2.651v-.959h2.65v-1.116h-2.506zM679.13 307.873c0 .612.899.936 2.578.936 1.679 0 2.579-.324 2.579-.936 0-.623-.9-.947-2.58-.947-1.678 0-2.577.324-2.577.947zm.084 7.748h6.476v.947h-7.7v-2.722h6.177v-.78h-6.201v-.935h7.412v2.591h-6.164v.9zm-1.367-7.748c0-1.21 1.427-1.87 3.86-1.87 2.424 0 3.863.66 3.863 1.87 0 1.2-1.44 1.86-3.862 1.86-2.434 0-3.861-.66-3.861-1.86zm-1.045 3.48h9.81v-.984h-9.81v.983zM698.939 316.677h1.235v-10.843h-1.235v10.843zm-5.805-8.108c0 .768.672 1.259 1.607 1.259.947 0 1.608-.491 1.608-1.259 0-.755-.661-1.247-1.608-1.247-.935 0-1.607.492-1.607 1.247zm-1.188 0c0-1.331 1.176-2.266 2.795-2.266s2.795.935 2.795 2.266c0 1.343-1.176 2.279-2.795 2.279s-2.795-.936-2.795-2.279zm6.369 3.598c-.947.193-1.943.3-2.902.372v3.802h-1.235v-3.73c-1.02.036-1.98.047-2.819.047l-.144-1.018c1.955 0 4.678-.036 7.016-.384l.084.911zM712.246 309.29v1.02h-1.535v3.644h-1.236v-8.12h1.236v3.455h1.535zm-6.789 2.41c.864 0 1.451-.409 1.451-1.093 0-.683-.587-1.09-1.45-1.09-.853 0-1.44.407-1.44 1.09 0 .684.587 1.092 1.44 1.092zm-.359 3.753h6.044v1.008h-7.292v-3.13h1.248v2.122zm.36-2.795c-1.548 0-2.627-.814-2.627-2.05 0-1.223 1.08-2.05 2.626-2.05 1.56 0 2.627.827 2.627 2.05 0 1.236-1.067 2.05-2.627 2.05zm3.202-4.605h-6.393v-.983h2.58v-1.248h1.234v1.248h2.58v.983zM655.271 328.192v-6.37h1.236v8.24h-1.236v-1.007h-2.122v-.863h2.122zm-5.792-4.042c0 .61.61.995 1.51.995.887 0 1.5-.384 1.5-.995s-.613-.995-1.5-.995c-.9 0-1.51.384-1.51.995zm7.28 7.304v1.008h-7.82v-3.203h1.235v2.195h6.585zm-8.457-7.304c0-1.151 1.092-1.907 2.688-1.907 1.582 0 2.674.756 2.674 1.907 0 1.15-1.091 1.907-2.674 1.907-1.596 0-2.688-.756-2.688-1.907zm2.197 3.55c-1.033.048-2.015.06-2.868.06l-.155-1.007c1.99-.012 4.653-.037 6.943-.325l.096.888c-.91.156-1.858.264-2.781.313v2.085h-1.236V327.7zM660.242 328.755h7.305v3.886h-1.236v-2.903h-6.069v-.983zm7.305-6.933v6.465h-1.236v-1.307h-2.627v-1.007h2.627v-1.296h-2.459c-.719 1.691-2.35 2.902-4.665 3.526l-.48-.983c2.518-.672 4.018-2.015 4.246-3.682h-3.67v-.996h4.99c0 .397-.037.792-.12 1.14h2.158v-1.86h1.236zM681.947 321.822v6.44h-1.235v-.875h-1.656v-1.007h1.656v-1.116h-1.63v-1.007h1.63v-2.435h1.235zm-5.889 9.74h4.665v-.948h-4.665v.947zm4.665-2.867h1.224v3.838h-7.112v-3.838h1.223v.983h4.665v-.983zm-4.677-1.439c.803 0 1.343-.396 1.343-1.032 0-.635-.54-1.032-1.343-1.032-.79 0-1.33.397-1.33 1.032 0 .636.54 1.032 1.33 1.032zm0 .922c-1.463 0-2.483-.779-2.483-1.954 0-1.175 1.02-1.955 2.483-1.955 1.475 0 2.495.78 2.495 1.955s-1.02 1.954-2.495 1.954zm2.963-4.353H673v-.983h2.434v-1.116h1.236v1.116h2.34v.983zM687.169 331.537h4.594v-1.199h-4.594v1.199zm4.594-3.382h1.223v4.378h-7.04v-4.378h1.223v1.224h4.594v-1.224zm-3.143-3.31c0-.923-.695-1.511-1.631-1.511-.959 0-1.642.588-1.642 1.511 0 .912.683 1.523 1.642 1.523.936 0 1.631-.611 1.631-1.523zm4.366-3.01v5.805h-1.235v-2.303h-2.003c-.216 1.223-1.319 2.051-2.759 2.051-1.631 0-2.83-1.044-2.83-2.543 0-1.487 1.199-2.53 2.83-2.53 1.428 0 2.519.803 2.759 2.014h2.003v-2.494h1.235z" mask="url(#prefix__b)"/>
            <path fill="#FFF" d="M443.545 56.733c0 31.125-25.232 56.356-56.357 56.356s-56.357-25.231-56.357-56.356c0-31.126 25.232-56.357 56.357-56.357s56.357 25.23 56.357 56.357" mask="url(#prefix__b)"/>
            <path fill="#C5C8CF" d="M387.188.75c-30.868 0-55.981 25.113-55.981 55.982 0 30.87 25.113 55.982 55.981 55.982 30.87 0 55.983-25.113 55.983-55.982S418.058.75 387.188.75m0 112.714c-31.281 0-56.731-25.449-56.731-56.732C330.457 25.45 355.906 0 387.188 0c31.283 0 56.733 25.45 56.733 56.732 0 31.283-25.45 56.732-56.733 56.732" mask="url(#prefix__b)"/>
            <path fill="#273A5B" d="M401.368 53.679c-1.316 0-2.374.55-3.147 1.638-.248-.48-.61-.867-1.08-1.153-.529-.322-1.149-.485-1.842-.485-.556 0-1.12.155-1.679.464-.465.258-.836.572-1.104.939v-1.104h-1.889v9.47h1.964V58.2c0-.73.218-1.373.65-1.91.428-.536.942-.798 1.571-.798.695 0 1.194.178 1.48.528.293.357.441.959.441 1.788v5.64h1.965V58.2c0-.73.218-1.373.65-1.91.428-.536.942-.798 1.57-.798.695 0 1.194.178 1.48.528.293.357.442.959.442 1.788v5.64h1.964v-5.903c0-1.223-.3-2.182-.892-2.851-.595-.674-1.45-1.015-2.544-1.015M412.816 61.003c-.518.552-1.169.81-2.047.81-.879 0-1.53-.258-2.048-.81-.55-.586-.829-1.365-.829-2.315 0-.938.28-1.71.83-2.296.53-.566 1.181-.828 2.047-.828.865 0 1.516.262 2.047.828.55.586.83 1.358.83 2.296 0 .95-.28 1.73-.83 2.315m-2.047-7.324c-1.389 0-2.558.477-3.477 1.423-.906.941-1.364 2.148-1.364 3.586 0 1.438.458 2.644 1.364 3.586.92.945 2.088 1.423 3.477 1.423 1.388 0 2.552-.478 3.457-1.422.92-.929 1.383-2.137 1.383-3.587 0-1.438-.464-2.645-1.38-3.586-.908-.946-2.072-1.423-3.46-1.423M424.394 57.533c.163-.627.456-1.132.852-1.47.444-.379.982-.57 1.599-.57.752 0 1.359.2 1.8.597.398.354.652.863.726 1.443h-4.977zm7.066 1.356c0-1.632-.428-2.964-1.24-3.85-.825-.903-1.948-1.36-3.338-1.36-1.353 0-2.48.481-3.348 1.433-.854.936-1.305 2.196-1.305 3.647 0 1.41.439 2.558 1.343 3.514.894.945 2.045 1.423 3.422 1.423.942 0 1.798-.226 2.544-.672.597-.356 1.166-.9 1.562-1.492l.058-.087-1.407-1.298-.08.117c-.66.998-1.585 1.547-2.601 1.547-.837 0-1.465-.228-1.978-.719-.544-.52-.811-1.109-.856-1.895h7.195l.029-.308zM382.42 57.533c.163-.626.456-1.132.852-1.47.443-.379.98-.57 1.598-.57.753 0 1.359.2 1.802.597.397.354.65.863.725 1.443h-4.977zm2.488-3.854c-1.353 0-2.48.481-3.35 1.433-.852.937-1.304 2.197-1.304 3.647 0 1.41.44 2.558 1.344 3.514.893.945 2.045 1.423 3.422 1.423.942 0 1.797-.226 2.544-.672.597-.356 1.166-.9 1.562-1.493l.057-.086-1.406-1.298-.08.117c-.661.998-1.585 1.547-2.602 1.547-.836 0-1.464-.228-1.977-.719-.536-.513-.81-1.118-.857-1.895h7.195l.03-.308c0-1.632-.428-2.965-1.24-3.85-.825-.903-1.948-1.36-3.338-1.36zM419.543 51.398h-.23l-1.678 1.065-.055.037v1.637h-1.611v1.815h1.61v5.012c.012.855.281 1.534.796 2.017.49.458 1.125.695 1.942.725.031.002.063.002.097.002.413 0 .993-.081 1.296-.183l.08-.028v-1.9l-.168.075c-.12.053-.23.09-.343.115-.188.04-.555.073-.69.068-.296-.015-.522-.106-.728-.297-.212-.193-.318-.583-.318-1.156v-4.45h2.248v-1.815h-2.248v-2.74zM371.052 56.637v-4.942h4.151c1.362 0 2.471 1.108 2.471 2.47 0 1.364-1.109 2.472-2.47 2.472h-4.152zm7.685.193c.595-.767.91-1.69.91-2.664 0-.975-.315-1.897-.91-2.665-.832-1.08-2.09-1.697-3.453-1.697h-6.207v13.66h1.975v-4.936h3.117l3.724 4.886.036.05h2.51l-3.908-5.12c.872-.261 1.65-.793 2.206-1.514z" mask="url(#prefix__b)"/>
            <path fill="#207FF4" d="M349.592 66.737L359.03 61.281 359.03 58.053 349.592 63.535 349.592 63.538 345.691 61.285 345.691 56.786 352.358 52.938 349.588 51.334 342.918 55.184 342.917 55.184 342.917 55.184 342.917 62.886z" mask="url(#prefix__b)"/>
            <path fill="#7DB3F6" d="M361.804 55.188L352.36 49.733 349.588 51.334 356.256 55.193 356.26 55.191 359.03 56.79 359.03 61.279 359.026 61.282 355.131 63.531 348.464 59.661 345.689 61.285 355.13 66.734 361.8 62.883z" mask="url(#prefix__b)"/>
            <path fill="#C0D8FF" d="M352.36 46.53L345.69 50.381 345.691 50.381 345.69 50.381 345.69 61.284 348.464 62.885 348.464 51.982 348.464 51.982 348.464 51.982 352.36 49.733 356.256 51.982 356.256 59.664 359.03 58.052 359.03 50.381z" mask="url(#prefix__b)"/>
            <path fill="#207FF4" d="M345.691 56.786L345.691 56.786 352.358 52.937 349.587 51.333 342.918 55.184 342.917 55.183 342.917 55.184z" mask="url(#prefix__b)"/>
            <path fill="#000" d="M348.248 127.911h4.881v-1.942h-4.881v1.942zm-1.212.984h7.305v-3.91h-7.305v3.91zm1.188 5.228h6.297v1.008h-7.533v-3.13h1.236v2.122zm7.387-4.161v.995h-4.197v2.028h-1.235v-2.028h-4.39v-.995h9.822zM364.9 135.323h1.176v-10.83H364.9v10.83zm-2.182-10.614h1.163v10.099h-1.163v-5.493h-1.595v-1.008h1.595v-3.598zm-2.591 2.771c0 1.846.696 3.717 2.207 4.592l-.72.901c-1.019-.6-1.69-1.668-2.074-2.927-.384 1.367-1.08 2.53-2.123 3.19l-.744-.912c1.535-.959 2.255-2.914 2.255-4.844v-.781h-1.907v-1.019h4.893v1.019h-1.787v.781zM380.465 124.505v10.83h-1.176v-5.325h-1.151v4.822h-1.152v-10.099h1.152v4.257h1.15v-4.485h1.177zm-5.338 5.89c0-.901-.516-1.5-1.247-1.5-.731 0-1.247.599-1.247 1.5 0 .898.516 1.486 1.247 1.486.73 0 1.247-.588 1.247-1.486zm1.104 0c0 1.486-.984 2.517-2.351 2.517s-2.351-1.031-2.351-2.517c0-1.5.984-2.52 2.35-2.52 1.368 0 2.352 1.02 2.352 2.52zm-1.74-4.127h2.028v.996h-5.301v-.996h2.05v-1.451h1.224v1.451zM391.552 134.244v.995h-7.328v-2.915h5.793v-.898h-5.818v-.985h7.053v2.807h-5.793v.996h6.093zm-4.042-7.305c-.672 1.656-2.267 2.76-4.653 3.3l-.432-1.009c2.566-.55 3.898-1.739 4.065-3.25h-3.477v-.996h4.845c0 .348-.024.684-.084.996h2.243v-1.475h1.235v5.493h-1.235v-.983h-2.651v-.96h2.65v-1.116h-2.506zM395.636 126.544c0 .612.899.936 2.578.936 1.679 0 2.579-.324 2.579-.936 0-.624-.9-.947-2.58-.947-1.678 0-2.577.323-2.577.947zm.084 7.747h6.476v.948h-7.7v-2.722h6.177v-.78h-6.201v-.935h7.412v2.591h-6.164v.898zm-1.367-7.747c0-1.212 1.427-1.87 3.86-1.87 2.424 0 3.863.658 3.863 1.87 0 1.2-1.44 1.858-3.862 1.858-2.434 0-3.861-.659-3.861-1.858zm-1.045 3.478h9.81v-.982h-9.81v.982zM415.445 135.348h1.235v-10.843h-1.235v10.843zm-5.805-8.108c0 .768.672 1.259 1.607 1.259.947 0 1.607-.491 1.607-1.259 0-.755-.66-1.248-1.607-1.248-.935 0-1.607.493-1.607 1.248zm-1.188 0c0-1.332 1.176-2.267 2.795-2.267s2.795.935 2.795 2.267c0 1.343-1.176 2.278-2.795 2.278s-2.795-.935-2.795-2.278zm6.369 3.598c-.947.191-1.943.299-2.902.371v3.803h-1.235v-3.731c-1.02.037-1.98.048-2.819.048l-.144-1.018c1.955 0 4.677-.037 7.016-.385l.084.912zM428.752 127.96v1.02h-1.535v3.645h-1.236v-8.12h1.236v3.454h1.535zm-6.789 2.41c.864 0 1.451-.408 1.451-1.092 0-.683-.587-1.09-1.451-1.09-.852 0-1.439.407-1.439 1.09 0 .684.587 1.091 1.439 1.091zm-.359 3.753h6.044v1.008h-7.292v-3.13h1.248v2.122zm.359-2.794c-1.547 0-2.626-.815-2.626-2.05 0-1.224 1.079-2.05 2.626-2.05 1.56 0 2.627.826 2.627 2.05 0 1.235-1.067 2.05-2.627 2.05zm3.203-4.605h-6.393v-.984h2.579v-1.247h1.235v1.247h2.579v.984zM371.777 146.862v-6.37h1.235v8.24h-1.235v-1.007h-2.123v-.863h2.123zm-5.793-4.041c0 .61.611.994 1.511.994.887 0 1.5-.383 1.5-.994 0-.612-.613-.996-1.5-.996-.9 0-1.51.385-1.51.996zm7.28 7.303v1.007h-7.82v-3.202h1.235v2.195h6.585zm-8.456-7.303c0-1.153 1.092-1.909 2.687-1.909 1.583 0 2.675.756 2.675 1.909 0 1.15-1.092 1.905-2.675 1.905-1.595 0-2.687-.756-2.687-1.905zm2.196 3.548c-1.032.05-2.015.06-2.867.06l-.156-1.006c1.991-.012 4.653-.036 6.944-.326l.096.89c-.91.156-1.859.263-2.782.313v2.084h-1.235v-2.014zM376.748 147.426h7.305v3.885h-1.236v-2.903h-6.069v-.982zm7.305-6.934v6.465h-1.236v-1.306h-2.627v-1.008h2.627v-1.295h-2.459c-.719 1.69-2.35 2.902-4.665 3.525l-.48-.982c2.518-.672 4.018-2.016 4.246-3.682h-3.67v-.996h4.989c0 .397-.036.79-.12 1.139h2.159v-1.86h1.236zM398.453 140.492v6.441h-1.235v-.875h-1.656v-1.007h1.656v-1.116h-1.63v-1.007h1.63v-2.436h1.235zm-5.889 9.74h4.665v-.947h-4.665v.947zm4.665-2.867h1.224v3.838h-7.112v-3.838h1.223v.984h4.665v-.984zm-4.677-1.439c.803 0 1.343-.395 1.343-1.032 0-.634-.54-1.03-1.343-1.03-.79 0-1.33.396-1.33 1.03 0 .637.54 1.032 1.33 1.032zm0 .923c-1.463 0-2.483-.779-2.483-1.955 0-1.175 1.02-1.955 2.483-1.955 1.475 0 2.495.78 2.495 1.955 0 1.176-1.02 1.955-2.495 1.955zm2.963-4.353h-6.009v-.984h2.434v-1.116h1.236v1.116h2.34v.984zM403.675 150.207h4.594v-1.199h-4.594v1.199zm4.594-3.381h1.223v4.377h-7.04v-4.377h1.223v1.223h4.594v-1.223zm-3.143-3.31c0-.924-.695-1.512-1.631-1.512-.959 0-1.642.588-1.642 1.512 0 .912.683 1.523 1.642 1.523.936 0 1.631-.611 1.631-1.523zm4.366-3.01v5.805h-1.235v-2.303h-2.003c-.216 1.223-1.319 2.051-2.759 2.051-1.631 0-2.83-1.045-2.83-2.543 0-1.489 1.199-2.531 2.83-2.531 1.428 0 2.519.804 2.759 2.015h2.003v-2.494h1.235z" mask="url(#prefix__b)"/>
        </g>
    </g>
</svg>
