<svg xmlns="http://www.w3.org/2000/svg" xmlns:xlink="http://www.w3.org/1999/xlink" width="780" height="210" viewBox="0 0 780 210">
    <defs>
        <path id="prefix__a" d="M0 155L731.39 155 731.39 0.417 0 0.417z"/>
        <path id="prefix__c" d="M0.445 6.901L0.445 19.933 11.732 26.45 23.018 19.933 23.018 6.901 11.732 0.385z"/>
        <path id="prefix__e" d="M0.665 12.933L11.732 19.253 11.732 6.418 0.665 0.028z"/>
        <path id="prefix__g" d="M.445 6.901v13.032l11.287 6.516 11.286-6.516V6.901L11.732.385.445 6.901zM.834 19.71V7.126L11.732.834 22.63 7.126V19.71l-10.898 6.292L.834 19.71z"/>
    </defs>
    <g fill="none" fill-rule="evenodd">
        <path fill="#F8F9FB" d="M0 0H780V210H0z"/>
        <g>
            <g transform="translate(25 26) translate(0 .583)">
                <path fill="#000" d="M22.088 131.948h-1.535v2.746h-1.236v-6.536h1.236v2.77h1.535v1.02zm-8.659 3.274h7.124V139h-1.236v-2.782H13.43v-.996zm4.401-.96c-1.212-.395-2.075-1.223-2.543-2.254-.479 1.14-1.379 2.027-2.65 2.47l-.648-.97c1.715-.577 2.662-1.956 2.662-3.444v-.19H12.35v-1.009h5.817v1.008H15.9v.191c0 1.367.911 2.7 2.566 3.251l-.636.947z"/>
                <mask id="prefix__b" fill="#fff">
                    <use xlink:href="#prefix__a"/>
                </mask>
                <path fill="#000" d="M26.291 137.873h4.594v-1.199h-4.594v1.199zm4.594-3.383h1.224v4.378h-7.04v-4.378h1.223v1.224h4.593v-1.224zm-3.142-3.309c0-.924-.696-1.511-1.631-1.511-.959 0-1.643.587-1.643 1.511 0 .911.684 1.522 1.643 1.522.935 0 1.631-.611 1.631-1.522zm4.366-3.011v5.805h-1.235v-2.303h-2.003c-.216 1.224-1.32 2.051-2.759 2.051-1.631 0-2.83-1.043-2.83-2.542 0-1.488 1.199-2.531 2.83-2.531 1.428 0 2.518.803 2.759 2.014h2.003v-2.494h1.235zM45.225 139.023h1.247v-10.877h-1.247v10.877zm-5.829-3.597c1.715-.012 3.214-.096 4.93-.371l.132 1.007c-1.86.324-3.479.383-5.386.383h-.923v-4.293h3.777v-2.015h-3.801v-1.008h5.049v4.018h-3.778v2.279zM57.428 134.478c-1.763-.359-3.286-1.487-3.994-2.975-.707 1.489-2.23 2.617-3.993 2.976l-.529-1.02c2.135-.395 3.874-2.063 3.874-3.778v-.816h1.308v.816c0 1.727 1.74 3.394 3.874 3.777l-.54 1.02zm-8.852 3.131h9.811v-1.02h-9.81v1.02zM68.336 134.887h-7.508v-5.842h7.424v.996h-6.165v1.39h5.925v.974h-5.925v1.486h6.25v.996zm-8.719 2.782h9.823v-1.007h-9.823v1.007zM70.681 139.695c.815-.336 1.295-.936 1.308-1.643-.049.012-.084.012-.133.012-.49 0-.923-.31-.923-.887 0-.54.432-.888.96-.888.671 0 1.066.564 1.066 1.488 0 1.26-.73 2.23-1.966 2.698l-.312-.78zM87.008 133.459h-1.69V139H84.08v-10.83h1.236v4.269h1.691v1.02zm-6.285-2.146c0 1.678 1.067 3.597 2.711 4.376l-.684.973c-1.212-.576-2.135-1.775-2.627-3.142-.479 1.51-1.439 2.806-2.686 3.418l-.707-.985c1.654-.791 2.757-2.842 2.757-4.64v-1.043h-2.362v-1.02h5.89v1.02h-2.292v1.043zM97.268 128.158V139h-1.175v-5.54h-1.187v5.036h-1.163v-10.135h1.163v4.078h1.187v-4.28h1.175zm-5.996 2.818c0 1.955.684 3.731 2.255 4.545l-.72.95c-1.032-.565-1.703-1.549-2.1-2.749-.37 1.38-1.067 2.483-2.134 3.12l-.755-.924c1.571-.912 2.255-2.795 2.255-4.942v-.599h-1.955v-1.02h4.964v1.02h-1.81v.6zM99.038 139.695c.815-.336 1.295-.936 1.308-1.643-.05.012-.084.012-.133.012-.491 0-.923-.31-.923-.887 0-.54.432-.888.959-.888.672 0 1.067.564 1.067 1.488 0 1.26-.731 2.23-1.966 2.698l-.312-.78zM18.795 144.157v6.31H17.56v-2.664h-1.919v-1.007h1.92v-2.639h1.234zm-5.9 9.728h4.688v-1.943h-4.689v1.943zm-1.212.983h7.112v-3.91h-7.112v3.91zm3.97-4.678c-1.2-.42-2.076-1.26-2.53-2.314-.48 1.163-1.392 2.11-2.676 2.553l-.635-.97c1.678-.588 2.662-2.016 2.662-3.49v-.18h-2.29v-.996h5.793v.996h-2.255v.18c0 1.342.923 2.698 2.53 3.261l-.6.96zM29.835 144.157v6.141H28.6v-2.422h-2.148v-1.02H28.6v-2.699h1.235zm-5.84 9.715h4.628v-2.146h-4.629v2.146zm-1.213.996h7.053v-4.126h-7.053v4.126zm3.647-10.05c0 2.806-1.86 4.748-4.99 5.636l-.503-.984c2.482-.67 3.946-1.978 4.162-3.646h-3.586v-1.007h4.917zM38.898 149.723h2.494v-3.538h-2.494v3.538zm-1.235-3.538h-1.596v-.996h8.143v.996h-1.594v3.538h1.571v1.007h-8.084v-1.007h1.56v-3.538zm-2.412 7.483h9.835v-1.019h-9.835v1.019zM56.114 152.709L56.114 153.729 46.303 153.729 46.303 152.709 50.573 152.709 50.573 150.862 47.491 150.862 47.491 147.372 53.727 147.372 53.727 145.921 47.468 145.921 47.468 144.925 54.951 144.925 54.951 148.355 48.703 148.355 48.703 149.866 55.191 149.866 55.191 150.862 51.808 150.862 51.808 152.709zM65.415 155h1.175v-10.83h-1.175V155zm-2.207-10.627h1.164v10.123h-1.164v-5.529h-1.595v-1.007h1.595v-3.587zm-2.542 2.687c0 1.752.66 3.586 2.111 4.498l-.696.959c-.984-.6-1.631-1.655-2.003-2.867-.384 1.331-1.091 2.471-2.135 3.107l-.755-.936c1.535-.911 2.278-2.854 2.278-4.701v-1.955h1.2v1.895zM77.235 150.478c-1.763-.36-3.286-1.487-3.994-2.975-.707 1.489-2.231 2.616-3.993 2.976l-.53-1.02c2.136-.397 3.875-2.064 3.875-3.779v-.815H73.9v.815c0 1.728 1.739 3.395 3.874 3.778l-.54 1.02zm-8.852 3.13h9.81v-1.02h-9.81v1.02zM88.265 148.403h2.255v-1.331h-2.255v1.331zm3.742 5.385v1.008h-7.304v-3.395h1.248v2.387h6.056zm-7.508-4.377h2.554v-1.764h-2.554v1.764zm3.766 1.007h-4.989v-5.528H84.5v1.786h2.553v-1.786h1.212v1.186h2.255v-1.894h1.235v8H90.52v-2.771h-2.255v1.007zM103.79 147.84v1.02h-1.487v3.777h-1.236v-8.48h1.237v3.683h1.486zm-6.692 1.067c.864 0 1.415-.3 1.415-.803 0-.516-.552-.827-1.415-.827-.864 0-1.415.31-1.415.827 0 .504.551.803 1.415.803zm-.564 4.88h6.141v1.009H95.3v-2.698h1.235v1.69zm3.658-7.734h-6.188v-.912h2.483v-1.02h1.247v1.02h2.459v.912zm.397 4.94c-2.267.433-4.846.48-6.718.493l-.143-.984c.803 0 1.763-.012 2.759-.036v-.743c-1.212-.144-1.968-.732-1.968-1.62 0-1.031 1.02-1.666 2.58-1.666 1.558 0 2.578.635 2.578 1.667 0 .875-.744 1.475-1.944 1.619v.683c.936-.06 1.883-.131 2.76-.263l.096.85z" mask="url(#prefix__b)"/>
                <path fill="#C5C8CF" d="M123.08 57.401L198.687 57.401 198.687 56.651 123.08 56.651z" mask="url(#prefix__b)"/>
                <path fill="#C5C8CF" d="M192.712 57.026L192.712 52.264 196.836 54.645 200.96 57.026 196.836 59.407 192.712 61.788zM527.472 57.401L604.931 57.401 604.931 56.651 527.472 56.651z" mask="url(#prefix__b)"/>
                <path fill="#C5C8CF" d="M598.956 57.026L598.956 52.264 603.08 54.645 607.204 57.026 603.08 59.407 598.956 61.788z" mask="url(#prefix__b)"/>
                <path fill="#000" d="M635.752 134.467l-.348-1.187c-.299-.96-.563-1.944-.839-2.94h-.048c-.252 1.008-.528 1.98-.816 2.94l-.36 1.187h2.411zm.336 1.09h-3.07l-.756 2.519h-1.415l2.926-8.827h1.607l2.927 8.827h-1.476l-.743-2.518zM640.866 133.398h1.33c1.284 0 1.98-.527 1.98-1.595 0-1.067-.696-1.439-1.98-1.439h-1.33v3.034zm3.43 4.678l-2.003-3.563h-1.427v3.563h-1.392v-8.827h2.89c1.824 0 3.19.647 3.19 2.554 0 1.367-.73 2.183-1.845 2.531l2.158 3.742h-1.571zM658.73 128.17v10.818h-1.175v-5.59h-1.235v5.086h-1.164v-10.111h1.164v4.018h1.235v-4.221h1.175zm-7.735 7.027h1.871v-4.857h-1.871v4.857zm-1.152.984h4.174v-6.824h-4.174v6.824zM669.195 132.715h-7.46v-4.03h1.247v3.022h6.213v1.008zm1.127 2.398h-2.41v3.899h-1.236v-3.9h-2.518v3.9h-1.235v-3.9h-2.4v-1.005h9.799v1.006zM680.894 137.897v.97h-7.399v-2.841h5.816v-.889h-5.829v-.96h7.053v2.76h-5.818v.96h6.177zm-6.356-5.445c.935 0 1.63-.589 1.63-1.476 0-.888-.695-1.476-1.63-1.476-.959 0-1.643.588-1.643 1.476 0 .887.684 1.476 1.643 1.476zm2.758-.984c-.228 1.175-1.319 1.992-2.758 1.992-1.631 0-2.831-1.032-2.831-2.484 0-1.45 1.2-2.482 2.831-2.482 1.427 0 2.506.792 2.747 1.966h2.002v-2.302h1.248v5.48h-1.248v-2.17h-1.991zM693.628 139.023h1.247v-10.865h-1.247v10.865zm-3.67-8.179c0 1.991 1.103 3.982 2.806 4.75l-.72.983c-1.247-.588-2.195-1.787-2.686-3.251-.492 1.572-1.451 2.856-2.759 3.49l-.731-1.031c1.727-.779 2.854-2.853 2.854-4.941v-1.775h1.236v1.775zM706.995 131.84h-1.535v2.65h-1.236v-6.332h1.236v2.662h1.535v1.02zm-8.66 3.13h7.125v4.042h-1.236v-3.047h-5.888v-.995zm4.139-6.152c0 2.805-1.86 4.76-5.05 5.612l-.504-.971c2.543-.648 4.03-1.991 4.246-3.646h-3.731v-.995h5.039zM718.058 133.71h-1.547V139h-1.235v-10.842h1.235v4.533h1.547v1.02zm-6.716.337c.852 0 1.427-.408 1.427-1.068 0-.672-.575-1.08-1.427-1.08-.85 0-1.439.408-1.439 1.08 0 .66.588 1.068 1.44 1.068zm3.202-3.635h-6.44v-.995h2.614v-1.224h1.236v1.224h2.59v.995zm-2.59 5.54c.923-.047 1.846-.106 2.71-.24l.096.913c-2.314.408-4.82.432-6.68.432l-.168-1.02c.828 0 1.798 0 2.806-.035v-1.057c-1.199-.203-1.978-.935-1.978-1.966 0-1.223 1.054-2.027 2.602-2.027 1.535 0 2.59.804 2.59 2.027 0 1.03-.779 1.775-1.978 1.966v1.008zM561.795 27.364L561.795 28.384 551.984 28.384 551.984 27.364 556.254 27.364 556.254 24.809 553.184 24.809 553.184 19.664 560.596 19.664 560.596 20.66 554.419 20.66 554.419 23.814 560.692 23.814 560.692 24.809 557.489 24.809 557.489 27.364zM568.506 22.986h2.255v-1.318h-2.255v1.318zm3.742 5.481v1.008h-7.305v-3.442h1.248v2.434h6.057zm-7.544-4.522h2.603v-3.213h-2.603v3.213zm3.802.985h-5.014v-5.182h5.014v.912h2.255v-1.811h1.235v7.903h-1.235v-2.77h-2.255v.948zM574.089 30.375c.815-.336 1.295-.936 1.308-1.644-.05.012-.084.012-.133.012-.491 0-.923-.311-.923-.888 0-.539.432-.886.959-.886.672 0 1.067.563 1.067 1.486 0 1.26-.731 2.232-1.966 2.699l-.312-.779zM539.59 34.849v10.818h-1.175v-5.59h-1.235v5.086h-1.164v-10.11h1.164v4.018h1.235v-4.222h1.175zm-7.735 7.028h1.87V37.02h-1.87v4.857zm-1.152.983h4.174v-6.824h-4.174v6.824zM550.055 39.395h-7.46v-4.03h1.247v3.021h6.213v1.008zm1.127 2.397h-2.41v3.9h-1.236v-3.9h-2.518v3.9h-1.235v-3.9h-2.4v-1.007h9.799v1.008zM561.754 44.576v.971h-7.4v-2.842h5.817v-.889h-5.83v-.959h7.054v2.76h-5.818v.96h6.177zm-6.356-5.445c.935 0 1.63-.588 1.63-1.476s-.695-1.475-1.63-1.475c-.96 0-1.643.587-1.643 1.475 0 .888.684 1.476 1.643 1.476zm2.758-.985c-.228 1.176-1.32 1.992-2.758 1.992-1.631 0-2.831-1.032-2.831-2.483 0-1.45 1.2-2.482 2.83-2.482 1.428 0 2.507.792 2.748 1.966h2.002v-2.302h1.248v5.481h-1.248v-2.172h-1.991zM568.61 44.516h6.367v.995h-7.603v-3.19h1.235v2.195zm4.928-7.196c.012-.335.012-.671.012-1.007h-6.249v-.996h7.472v.97c0 1.02 0 2.124-.3 3.575l-1.222-.096c.12-.551.18-1.055.227-1.522l-6.284.276-.168-1.02 6.512-.18zm2.4 3.178v.996h-9.764v-.996h3.814v-1.451h1.247v1.45h4.702zM585.19 42.969h1.175v-8.12h-1.175v8.12zm-2.086-4.102h-1.284v-1.008h1.284v-2.795h1.151v7.641h-1.151v-3.838zm3.561 5.6v1.008h-7.399v-3.394h1.247v2.386h6.152zm-4.353-3.442c-1.236.229-2.267.264-3.946.264h-.708v-5.564h4.09v.995h-2.902v1.271h2.494v.96h-2.494v1.355c1.367-.012 2.278-.06 3.345-.264l.121.983zM588.71 40.701c2.255-.336 3.742-1.69 3.802-3.226h-3.394v-1.007h3.406v-1.404h1.236v1.404h3.393v1.007h-3.381c.059 1.536 1.546 2.89 3.801 3.226l-.467 1.02c-1.824-.325-3.262-1.223-3.97-2.495-.708 1.272-2.147 2.17-3.958 2.495l-.468-1.02zm-.468 3.658h9.811v-1.02h-9.811v1.02zM209.793 134.467l-.347-1.187c-.3-.96-.564-1.944-.84-2.94h-.047c-.252 1.008-.529 1.98-.816 2.94l-.36 1.187h2.41zm.337 1.09h-3.07l-.756 2.519h-1.416l2.927-8.827h1.607l2.927 8.827h-1.476l-.743-2.518zM214.907 133.398h1.33c1.284 0 1.98-.527 1.98-1.595 0-1.067-.696-1.439-1.98-1.439h-1.33v3.034zm3.43 4.678l-2.003-3.563h-1.427v3.563h-1.392v-8.827h2.89c1.824 0 3.19.647 3.19 2.554 0 1.367-.73 2.183-1.845 2.531l2.158 3.742h-1.571zM233.515 131.947h-1.535v2.746h-1.236v-6.535h1.236v2.77h1.535v1.02zm-8.659 3.274h7.124v3.78h-1.236v-2.784h-5.888v-.996zm4.401-.96c-1.212-.394-2.075-1.222-2.543-2.253-.479 1.138-1.379 2.026-2.65 2.47l-.648-.97c1.715-.577 2.662-1.957 2.662-3.444v-.19h-2.302v-1.009h5.817v1.008h-2.267v.191c0 1.367.912 2.7 2.567 3.25l-.636.947zM237.718 137.872h4.594v-1.199h-4.594v1.199zm4.594-3.382h1.224v4.377h-7.04v-4.377h1.222v1.223h4.594v-1.223zm-3.143-3.31c0-.924-.695-1.511-1.63-1.511-.959 0-1.643.587-1.643 1.511 0 .912.684 1.523 1.643 1.523.935 0 1.63-.611 1.63-1.523zm4.367-3.01v5.805H242.3v-2.303h-2.003c-.215 1.223-1.319 2.051-2.758 2.051-1.631 0-2.831-1.043-2.831-2.543 0-1.487 1.2-2.531 2.831-2.531 1.427 0 2.518.804 2.758 2.015h2.003v-2.494h1.236zM258.211 128.17v10.818h-1.175v-5.59h-1.235v5.086h-1.164v-10.111h1.164v4.018h1.235v-4.221h1.175zm-7.735 7.027h1.871v-4.857h-1.87v4.857zm-1.152.984h4.174v-6.824h-4.174v6.824zM268.676 132.715h-7.46v-4.03h1.247v3.022h6.213v1.008zm1.127 2.398h-2.41v3.899h-1.236v-3.9h-2.518v3.9h-1.235v-3.9h-2.4v-1.005h9.8v1.006zM280.375 137.897v.97h-7.399v-2.841h5.817v-.889h-5.83v-.96h7.053v2.76H274.2v.96h6.176zm-6.356-5.445c.935 0 1.63-.589 1.63-1.476 0-.888-.695-1.476-1.63-1.476-.959 0-1.642.588-1.642 1.476 0 .887.683 1.476 1.642 1.476zm2.758-.984c-.227 1.175-1.318 1.992-2.757 1.992-1.631 0-2.832-1.032-2.832-2.484 0-1.45 1.2-2.482 2.832-2.482 1.427 0 2.506.792 2.745 1.966h2.004v-2.302h1.248v5.48h-1.248v-2.17h-1.992zM293.504 138.988h1.176v-10.83h-1.176v10.83zm-2.182-10.615h1.163v10.1h-1.163v-5.494h-1.595v-1.007h1.595v-3.599zm-2.591 2.772c0 1.846.696 3.716 2.207 4.592l-.72.9c-1.019-.6-1.69-1.667-2.074-2.926-.384 1.367-1.08 2.53-2.123 3.189l-.744-.911c1.535-.96 2.255-2.915 2.255-4.844v-.781h-1.907v-1.019h4.893v1.019h-1.787v.781zM306.476 131.947h-1.535v2.746h-1.236v-6.535h1.236v2.77h1.535v1.02zm-8.659 3.274h7.124v3.78h-1.236v-2.784h-5.888v-.996zm4.401-.96c-1.212-.394-2.075-1.222-2.543-2.253-.479 1.138-1.379 2.026-2.65 2.47l-.648-.97c1.715-.577 2.662-1.957 2.662-3.444v-.19h-2.302v-1.009h5.817v1.008h-2.267v.191c0 1.367.912 2.7 2.567 3.25l-.636.947zM310.392 128.506L311.351 128.506 308.017 140.235 307.057 140.235zM321.092 133.158c-1.799-.287-3.274-1.199-3.982-2.445-.696 1.258-2.195 2.158-3.994 2.445l-.48-.994c2.207-.313 3.814-1.644 3.814-3.07v-.577h1.308v.577c0 1.402 1.631 2.757 3.813 3.07l-.479.994zm.9 2.027h-4.306v3.827h-1.236v-3.827h-4.246v-1.007h9.787v1.007zM330.981 130.893v-2.723h1.235v6.452h-1.235V131.9h-1.919v-1.007h1.919zm.048 6.068c0-.708-.888-1.091-2.411-1.091-1.547 0-2.422.383-2.422 1.09 0 .708.875 1.093 2.422 1.093 1.523 0 2.411-.385 2.411-1.092zm1.235 0c0 1.295-1.391 2.05-3.646 2.05-2.267 0-3.658-.755-3.658-2.05 0-1.283 1.391-2.05 3.658-2.05 2.255 0 3.646.767 3.646 2.05zm-3.19-2.686c-1.199-.42-2.063-1.272-2.519-2.316-.479 1.188-1.391 2.148-2.675 2.604l-.635-.984c1.679-.6 2.651-2.04 2.651-3.526v-.156h-2.291v-.995h5.793v.995h-2.255v.144c0 1.356.923 2.699 2.542 3.262l-.611.972z" mask="url(#prefix__b)"/>
                <path fill="#FFF" d="M325.636 57.148c0 31.126-25.232 56.357-56.357 56.357s-56.357-25.23-56.357-56.357c0-31.125 25.232-56.356 56.357-56.356s56.357 25.231 56.357 56.356" mask="url(#prefix__b)"/>
                <path fill="#C5C8CF" d="M269.28 1.167c-30.87 0-55.983 25.113-55.983 55.981 0 30.87 25.113 55.983 55.982 55.983 30.87 0 55.982-25.113 55.982-55.983 0-30.868-25.113-55.981-55.982-55.981m0 112.714c-31.282 0-56.732-25.45-56.732-56.733 0-31.282 25.45-56.731 56.732-56.731s56.732 25.449 56.732 56.731c0 31.283-25.45 56.733-56.732 56.733" mask="url(#prefix__b)"/>
                <path fill="#273A5B" d="M267.54 57.724L262.945 50.379 262.909 50.324 261 50.324 261 63.964 262.963 63.964 262.963 55.886 262.898 53.958 266.933 60.351 266.968 60.408 268.111 60.408 272.181 53.959 272.117 55.889 272.117 63.964 274.08 63.964 274.08 50.324 272.171 50.324zM282.356 59.912c-.015.662-.289 1.248-.813 1.743-.542.513-1.166.773-1.854.773-.482 0-.907-.143-1.264-.424-.353-.278-.525-.613-.525-1.028 0-.462.214-.84.653-1.157.445-.32 1.01-.482 1.68-.482.9 0 1.614.194 2.123.575m-2.42-5.719c-1.427 0-2.705.624-3.696 1.806l-.07.085 1.374 1.374.083-.105c.415-.517 1.268-1.384 2.332-1.384.726 0 1.26.184 1.728.596.451.4.67.868.67 1.436v.192c-.649-.32-1.458-.48-2.406-.48-1.22 0-2.21.29-2.947.866-.745.583-1.123 1.377-1.123 2.36 0 .93.358 1.716 1.062 2.336.7.616 1.58.928 2.615.928 1.143 0 2.083-.478 2.8-1.422v1.186h1.887v-5.835c0-1.214-.385-2.186-1.143-2.888-.746-.687-1.84-1.05-3.166-1.05M294.187 54.801L294.187 54.556 291.808 54.556 288.011 58.405 288.011 50.326 287.771 50.326 286.048 51.815 286.048 63.966 288.011 63.966 288.011 60.959 289.275 59.712 292.092 63.966 294.355 63.966 294.355 63.735 290.648 58.322z" mask="url(#prefix__b)"/>
                <path fill="#273A5B" d="M296.392 58.046c.163-.625.456-1.131.852-1.47.443-.378.981-.57 1.597-.57.752 0 1.358.2 1.801.598.397.354.651.862.725 1.442h-4.975zm7.063 1.355c0-1.632-.428-2.963-1.239-3.85-.825-.901-1.948-1.358-3.337-1.358-1.353 0-2.479.482-3.347 1.434-.853.936-1.305 2.196-1.305 3.644 0 1.409.44 2.557 1.344 3.513.893.945 2.044 1.423 3.42 1.423.941 0 1.796-.225 2.543-.673.597-.357 1.166-.9 1.561-1.492l.057-.085-1.406-1.298-.078.117c-.662.998-1.586 1.546-2.602 1.546-.836 0-1.464-.228-1.976-.718-.544-.521-.81-1.108-.857-1.894h7.192l.03-.31z" mask="url(#prefix__b)"/>
                <path fill="#6FB6FB" d="M236.523 57.749L235.105 58.567 235.114 62.161 243.804 57.148 240.684 55.347zM252.502 58.567L251.084 57.749 246.924 55.347 243.804 57.148 252.503 62.171z" mask="url(#prefix__b)"/>
                <path fill="#BFDCFF" d="M252.503 58.567L252.503 62.171 243.804 67.193 243.804 63.589 245.222 62.77z" mask="url(#prefix__b)"/>
                <path fill="#007CF7" d="M235.106 58.567L235.106 62.171 243.804 67.193 243.804 63.589 242.387 62.77z" mask="url(#prefix__b)"/>
                <path fill="#6FB6FB" d="M251.084 51.308L243.804 47.105 236.523 51.308 235.105 52.127 235.114 55.72 243.809 50.704 252.504 55.73 252.502 52.127z" mask="url(#prefix__b)"/>
                <path fill="#BFDCFF" d="M252.503 52.126L252.503 55.73 243.804 60.752 243.804 57.148 245.222 56.33z" mask="url(#prefix__b)"/>
                <path fill="#007CF7" d="M235.106 52.126L235.106 55.73 243.804 60.752 243.804 57.148 242.387 56.33z" mask="url(#prefix__b)"/>
                <path fill="#FFF" d="M731.015 57.148c0 31.126-25.232 56.357-56.357 56.357s-56.357-25.23-56.357-56.357c0-31.125 25.232-56.356 56.357-56.356s56.357 25.231 56.357 56.356" mask="url(#prefix__b)"/>
                <path fill="#C5C8CF" d="M674.658 1.167c-30.869 0-55.982 25.113-55.982 55.981 0 30.87 25.113 55.983 55.982 55.983 30.87 0 55.982-25.113 55.982-55.983 0-30.868-25.113-55.981-55.982-55.981m0 112.714c-31.282 0-56.732-25.45-56.732-56.733 0-31.282 25.45-56.731 56.732-56.731s56.732 25.449 56.732 56.731c0 31.283-25.45 56.733-56.732 56.733" mask="url(#prefix__b)"/>
                <path fill="#273A5B" d="M680.399 64.946L682.36 64.946 682.36 55.242 680.399 55.242zM680.312 53.451L682.449 53.451 682.449 51.314 680.312 51.314zM705.842 55.541L703.897 62.204 701.719 55.541 699.766 55.541 697.587 62.204 695.65 55.627 695.624 55.541 693.572 55.541 696.579 64.863 696.606 64.946 698.521 64.946 700.696 58.186 702.89 64.946 704.823 64.946 707.857 55.541zM687.15 57.557c.444-.38.981-.571 1.6-.571.752 0 1.358.202 1.802.597.396.355.651.865.724 1.446h-4.98c.164-.627.457-1.133.853-1.472m1.637-2.386c-1.353 0-2.48.483-3.35 1.435-.854.937-1.306 2.198-1.306 3.648 0 1.409.44 2.56 1.345 3.517.894.945 2.046 1.424 3.424 1.424.942 0 1.798-.226 2.544-.673.598-.358 1.167-.902 1.563-1.492l.058-.087-1.407-1.3-.079.118c-.662.999-1.587 1.549-2.604 1.549-.836 0-1.465-.23-1.979-.721-.537-.513-.81-1.12-.857-1.895h7.218l.006-.115c.005-.1.005-.194.005-.194 0-1.634-.428-2.967-1.24-3.853-.826-.904-1.95-1.361-3.34-1.361M672.736 62.065L668.633 51.316 666.466 51.316 671.724 64.868 671.755 64.945 673.714 64.945 679.088 51.481 679.154 51.316 676.987 51.316z" mask="url(#prefix__b)"/>
                <path fill="#6FB6FB" d="M654.57 50.755L650.161 48.21 647.733 49.611 654.555 56.434z" mask="url(#prefix__b)"/>
                <path fill="#007CF7" d="M654.555 60.073L658.859 55.582 658.859 53.231 654.568 50.754z" mask="url(#prefix__b)"/>
                <path fill="#0065C7" d="M645.743 65.749L650.16 68.3 652.591 66.895 645.765 60.075z" mask="url(#prefix__b)"/>
                <path fill="#BFDCFF" d="M641.462 53.859L641.462 53.231 647.733 49.611 651.981 53.859z" mask="url(#prefix__b)"/>
                <path fill="#DEEDFF" d="M641.462 53.859L641.462 60.735 648.339 53.859z" mask="url(#prefix__b)"/>
                <path fill="#007CF7" d="M645.765 56.434L641.461 60.736 641.461 63.277 645.647 65.693 645.761 65.76z" mask="url(#prefix__b)"/>
                <path fill="#6FB6FB" d="M658.858 63.277L652.59 66.895 648.339 62.649 658.858 62.649z" mask="url(#prefix__b)"/>
                <path fill="#007CF7" d="M650.121 55.518c-1.489 0-2.696 1.207-2.696 2.696s1.207 2.696 2.696 2.696c1.49 0 2.696-1.207 2.696-2.696 0-1.49-1.207-2.696-2.696-2.696" mask="url(#prefix__b)"/>
                <path fill="#FFF" d="M651.481 56.081c-.427 0-.773.346-.773.772 0 .428.346.774.773.774.427 0 .773-.346.773-.774 0-.426-.346-.772-.773-.772" mask="url(#prefix__b)"/>
                <path fill="#BFDCFF" d="M651.981 62.649L654.554 60.074 658.859 55.583 658.859 62.649z" mask="url(#prefix__b)"/>
                <path fill="#092E6E" d="M451.937 96.877l-.396-1.458c-.415-1.386-.775-2.917-1.17-4.357h-.073c-.341 1.458-.738 2.971-1.134 4.357l-.396 1.458h3.169zm.576 2.071h-4.321l-.937 3.421h-2.701l4.268-13.324h3.133l4.285 13.324h-2.791l-.936-3.421zM460.468 95.22h1.73c1.708 0 2.645-.72 2.645-2.142 0-1.44-.937-1.925-2.646-1.925h-1.729v4.068zm4.591 7.149l-2.737-5.041h-1.854v5.04h-2.665V89.046h4.645c2.791 0 5.005.973 5.005 4.033 0 1.999-1.007 3.242-2.538 3.836l3.115 5.455h-2.97zM477.44 101.775h9.418v1.908h-11.793V98.75h2.376v3.025zm6.772-10.714c.017-.395.017-.809.017-1.206h-9.236v-1.89h11.595v1.566c0 1.64 0 3.295-.468 5.455l-2.341-.162c.144-.737.253-1.386.324-2.016l-9.272.414-.271-1.963 9.652-.198zm4.05 4.772v1.872h-14.925v-1.872h5.527v-2.017h2.377v2.017h7.02zM501.744 99.723h2.25V87.334h-2.25v12.389zm-3.26-5.979h-1.62v-1.89h1.62v-4.196h2.215v11.704h-2.215v-5.618zm5.924 7.994v1.891h-11.451v-5.221h2.376v3.33h9.075zm-6.878-4.699c-1.872.343-3.439.379-5.888.379h-1.134v-8.805h6.23v1.872h-3.944v1.603h3.368v1.783h-3.368v1.674c1.748-.018 3.043-.108 4.538-.359l.198 1.853zM506.924 96.014c3.763-.522 5.618-2.54 5.78-4.502h-4.988V89.62h5.023v-2.034h2.377v2.034h5.024v1.89h-4.987c.162 1.964 2.016 3.98 5.761 4.503l-.864 1.926c-2.935-.432-5.023-1.764-6.122-3.547-1.098 1.783-3.187 3.115-6.122 3.547l-.882-1.926zm-.504 5.995h15.017v-1.927H506.42v1.927zM463.765 116.376v1.963h-1.98v5.401h-2.376v-12.424h2.376v5.06h1.98zm-10.658 9.362h9.2v1.891H450.73v-4.986h2.377v3.095zm1.98-7.561c.27-1.548.342-2.755.36-3.745h-6.176v-1.891h8.516v1.026c0 1.153 0 2.791-.377 4.88l-2.323-.27zm3.565 2.629c-3.42.63-7.274.702-10.119.719l-.216-1.89c.918 0 1.944 0 3.025-.018v-3.222h2.322v3.132c1.64-.072 3.295-.198 4.844-.414l.144 1.693zM476.526 127.953h2.377v-16.637h-2.377v16.637zm-8.103-5.815c2.522-.018 4.61-.144 6.951-.54l.251 1.926c-2.7.468-5.13.577-8.137.577h-1.495v-6.825h5.383v-2.646h-5.401v-1.891h7.832v6.409h-5.384v2.99zM500.63 111.316v16.637h-2.378v-9.525h-3.186v-1.909h3.186v-5.203h2.377zm-7.689 3.691c0 3.133 1.207 6.176 3.943 7.401l-1.404 1.89c-1.819-.882-3.026-2.503-3.709-4.502-.72 2.125-1.963 3.854-3.818 4.79l-1.476-1.909c2.808-1.296 4.07-4.519 4.07-7.67v-2.394h2.394v2.394zM506.241 122.156h3.259v-3.674h-3.259v3.674zm10.948-10.84v16.637h-2.377v-8.894h-2.971v4.988h-7.958v-11.416h2.359v3.998h3.258v-3.998h2.341v4.519h2.971v-5.834h2.377z" mask="url(#prefix__b)"/>
                <path fill="#E6E8EB" d="M458.337 36.956L458.337 68.296 496.17 68.296 496.17 36.665z" mask="url(#prefix__b)"/>
                <path fill="#000" d="M458.62 68.014h37.268V36.95l-37.268.287v30.777zm37.833.564h-38.397V36.676l38.397-.295v32.197z" mask="url(#prefix__b)"/>
                <path fill="#FFF" d="M497.27 37.185h-40.175c-1.535 0-2.79-1.255-2.79-2.788v-6.155c0-1.536 1.255-2.79 2.79-2.79h40.175c1.535 0 2.79 1.254 2.79 2.79v6.155c0 1.534-1.255 2.788-2.79 2.788" mask="url(#prefix__b)"/>
                <path fill="#000" d="M497.27 25.452h-40.175c-1.535 0-2.79 1.255-2.79 2.79v6.154c0 1.535 1.255 2.79 2.79 2.79h40.175c1.535 0 2.79-1.255 2.79-2.79v-6.154c0-1.535-1.255-2.79-2.79-2.79m0 .564c1.228 0 2.226.998 2.226 2.226v6.154c0 1.227-.998 2.225-2.225 2.225h-40.177c-1.226 0-2.224-.998-2.224-2.225v-6.154c0-1.228.998-2.226 2.224-2.226h40.177" mask="url(#prefix__b)"/>
                <path fill="#FFF" d="M497.27 51.44h-40.175c-1.535 0-2.79-1.255-2.79-2.789v-6.155c0-1.535 1.255-2.789 2.79-2.789h40.175c1.535 0 2.79 1.254 2.79 2.79v6.154c0 1.534-1.255 2.79-2.79 2.79" mask="url(#prefix__b)"/>
                <path fill="#000" d="M497.27 39.707h-40.175c-1.535 0-2.79 1.256-2.79 2.789v6.155c0 1.535 1.255 2.79 2.79 2.79h40.175c1.535 0 2.79-1.255 2.79-2.79v-6.155c0-1.533-1.255-2.789-2.79-2.789m0 .564c1.228 0 2.226.998 2.226 2.225v6.155c0 1.228-.998 2.226-2.225 2.226h-40.177c-1.226 0-2.224-.998-2.224-2.226v-6.155c0-1.227.998-2.225 2.224-2.225h40.177" mask="url(#prefix__b)"/>
                <path fill="#FFF" d="M497.27 65.616h-40.175c-1.535 0-2.79-1.256-2.79-2.79v-6.154c0-1.535 1.255-2.79 2.79-2.79h40.175c1.535 0 2.79 1.255 2.79 2.79v6.154c0 1.534-1.255 2.79-2.79 2.79" mask="url(#prefix__b)"/>
                <path fill="#000" d="M497.27 53.882h-40.175c-1.535 0-2.79 1.255-2.79 2.79v6.154c0 1.535 1.255 2.789 2.79 2.789h40.175c1.535 0 2.79-1.254 2.79-2.79v-6.153c0-1.535-1.255-2.79-2.79-2.79m0 .564c1.228 0 2.226.998 2.226 2.226v6.154c0 1.227-.998 2.225-2.225 2.225h-40.177c-1.226 0-2.224-.998-2.224-2.225v-6.154c0-1.228.998-2.226 2.224-2.226h40.177" mask="url(#prefix__b)"/>
                <path fill="#0A51B7" d="M484.674 31.32c0 1.041-.845 1.886-1.887 1.886-1.043 0-1.887-.845-1.887-1.887 0-1.043.844-1.888 1.887-1.888 1.042 0 1.887.845 1.887 1.888" mask="url(#prefix__b)"/>
                <path fill="#000" d="M482.787 29.432c-1.042 0-1.887.846-1.887 1.887 0 1.043.845 1.888 1.887 1.888s1.887-.845 1.887-1.888c0-1.041-.845-1.887-1.887-1.887m0 .564c.73 0 1.323.594 1.323 1.323 0 .73-.594 1.324-1.323 1.324s-1.323-.594-1.323-1.324c0-.73.594-1.323 1.323-1.323" mask="url(#prefix__b)"/>
                <path fill="#0A51B7" d="M490.496 31.32c0 1.041-.845 1.886-1.888 1.886-1.042 0-1.887-.845-1.887-1.887 0-1.043.845-1.888 1.887-1.888 1.043 0 1.888.845 1.888 1.888" mask="url(#prefix__b)"/>
                <path fill="#000" d="M488.608 29.432c-1.042 0-1.887.846-1.887 1.887 0 1.043.845 1.888 1.887 1.888s1.888-.845 1.888-1.888c0-1.041-.846-1.887-1.888-1.887m0 .564c.73 0 1.323.594 1.323 1.323 0 .73-.594 1.324-1.323 1.324s-1.323-.594-1.323-1.324c0-.73.594-1.323 1.323-1.323" mask="url(#prefix__b)"/>
                <path fill="#0A51B7" d="M496.317 31.32c0 1.041-.845 1.886-1.887 1.886-1.043 0-1.888-.845-1.888-1.887 0-1.043.845-1.888 1.888-1.888 1.042 0 1.887.845 1.887 1.888" mask="url(#prefix__b)"/>
                <path fill="#000" d="M494.43 29.432c-1.042 0-1.888.846-1.888 1.887 0 1.043.846 1.888 1.888 1.888 1.042 0 1.887-.845 1.887-1.888 0-1.041-.845-1.887-1.887-1.887m0 .564c.73 0 1.323.594 1.323 1.323 0 .73-.594 1.324-1.323 1.324s-1.323-.594-1.323-1.324c0-.73.594-1.323 1.323-1.323" mask="url(#prefix__b)"/>
                <path fill="#0A51B7" d="M484.674 45.574c0 1.042-.845 1.887-1.887 1.887-1.043 0-1.887-.845-1.887-1.887 0-1.043.844-1.888 1.887-1.888 1.042 0 1.887.845 1.887 1.888" mask="url(#prefix__b)"/>
                <path fill="#000" d="M482.787 43.687c-1.042 0-1.887.845-1.887 1.888 0 1.041.845 1.886 1.887 1.886s1.887-.844 1.887-1.886c0-1.044-.845-1.889-1.887-1.889m0 .565c.73 0 1.323.593 1.323 1.324 0 .727-.594 1.322-1.323 1.322s-1.323-.594-1.323-1.322c0-.732.594-1.325 1.323-1.325" mask="url(#prefix__b)"/>
                <path fill="#0A51B7" d="M490.496 45.574c0 1.042-.845 1.887-1.888 1.887-1.042 0-1.887-.845-1.887-1.887 0-1.043.845-1.888 1.887-1.888 1.043 0 1.888.845 1.888 1.888" mask="url(#prefix__b)"/>
                <path fill="#000" d="M488.608 43.687c-1.042 0-1.887.845-1.887 1.888 0 1.041.845 1.886 1.887 1.886s1.888-.844 1.888-1.886c0-1.044-.846-1.889-1.888-1.889m0 .565c.73 0 1.323.593 1.323 1.324 0 .727-.594 1.322-1.323 1.322s-1.323-.594-1.323-1.322c0-.732.594-1.325 1.323-1.325" mask="url(#prefix__b)"/>
                <path fill="#0A51B7" d="M496.317 45.574c0 1.042-.845 1.887-1.887 1.887-1.043 0-1.888-.845-1.888-1.887 0-1.043.845-1.888 1.888-1.888 1.042 0 1.887.845 1.887 1.888" mask="url(#prefix__b)"/>
                <path fill="#000" d="M494.43 43.687c-1.042 0-1.888.845-1.888 1.888 0 1.041.846 1.886 1.888 1.886 1.042 0 1.887-.844 1.887-1.886 0-1.044-.845-1.889-1.887-1.889m0 .565c.73 0 1.323.593 1.323 1.324 0 .727-.594 1.322-1.323 1.322s-1.323-.594-1.323-1.322c0-.732.594-1.325 1.323-1.325" mask="url(#prefix__b)"/>
                <path fill="#0A51B7" d="M484.674 59.749c0 1.042-.845 1.888-1.887 1.888-1.043 0-1.887-.846-1.887-1.888 0-1.043.844-1.888 1.887-1.888 1.042 0 1.887.845 1.887 1.888" mask="url(#prefix__b)"/>
                <path fill="#000" d="M482.787 57.861c-1.042 0-1.887.846-1.887 1.888 0 1.042.845 1.887 1.887 1.887s1.887-.845 1.887-1.887-.845-1.888-1.887-1.888m0 .564c.73 0 1.323.594 1.323 1.324 0 .73-.594 1.323-1.323 1.323s-1.323-.594-1.323-1.323c0-.73.594-1.324 1.323-1.324" mask="url(#prefix__b)"/>
                <path fill="#0A51B7" d="M490.496 59.749c0 1.042-.845 1.888-1.888 1.888-1.042 0-1.887-.846-1.887-1.888 0-1.043.845-1.888 1.887-1.888 1.043 0 1.888.845 1.888 1.888" mask="url(#prefix__b)"/>
                <path fill="#000" d="M488.608 57.861c-1.042 0-1.887.846-1.887 1.888 0 1.042.845 1.887 1.887 1.887s1.888-.845 1.888-1.887-.846-1.888-1.888-1.888m0 .564c.73 0 1.323.594 1.323 1.324 0 .73-.594 1.323-1.323 1.323s-1.323-.594-1.323-1.323c0-.73.594-1.324 1.323-1.324" mask="url(#prefix__b)"/>
                <path fill="#0A51B7" d="M496.317 59.749c0 1.042-.845 1.888-1.887 1.888-1.043 0-1.888-.846-1.888-1.888 0-1.043.845-1.888 1.888-1.888 1.042 0 1.887.845 1.887 1.888" mask="url(#prefix__b)"/>
                <path fill="#000" d="M494.43 57.861c-1.042 0-1.888.846-1.888 1.888 0 1.042.846 1.887 1.888 1.887 1.042 0 1.887-.845 1.887-1.887s-.845-1.888-1.887-1.888m0 .564c.73 0 1.323.594 1.323 1.324 0 .73-.594 1.323-1.323 1.323s-1.323-.594-1.323-1.323c0-.73.594-1.324 1.323-1.324" mask="url(#prefix__b)"/>
                <path fill="#FFF" d="M459.141 28.221L459.141 34.417" mask="url(#prefix__b)"/>
                <path fill="#000" d="M458.859 34.417L459.423 34.417 459.423 28.221 458.859 28.221z" mask="url(#prefix__b)"/>
                <path fill="#FFF" d="M462.342 28.221L462.342 34.417" mask="url(#prefix__b)"/>
                <path fill="#000" d="M462.06 34.417L462.624 34.417 462.624 28.221 462.06 28.221z" mask="url(#prefix__b)"/>
                <path fill="#FFF" d="M465.543 28.221L465.543 34.417" mask="url(#prefix__b)"/>
                <path fill="#000" d="M465.261 34.417L465.825 34.417 465.825 28.221 465.261 28.221z" mask="url(#prefix__b)"/>
                <path fill="#FFF" d="M468.744 28.221L468.744 34.417" mask="url(#prefix__b)"/>
                <path fill="#000" d="M468.462 34.417L469.026 34.417 469.026 28.221 468.462 28.221z" mask="url(#prefix__b)"/>
                <path fill="#FFF" d="M471.945 28.221L471.945 34.417" mask="url(#prefix__b)"/>
                <path fill="#000" d="M471.664 34.417L472.228 34.417 472.228 28.221 471.664 28.221z" mask="url(#prefix__b)"/>
                <path fill="#FFF" d="M475.147 28.221L475.147 34.417" mask="url(#prefix__b)"/>
                <path fill="#000" d="M474.865 34.417L475.429 34.417 475.429 28.221 474.865 28.221z" mask="url(#prefix__b)"/>
                <path fill="#FFF" d="M460.741 28.221L460.741 34.417" mask="url(#prefix__b)"/>
                <path fill="#000" d="M460.459 34.417L461.023 34.417 461.023 28.221 460.459 28.221z" mask="url(#prefix__b)"/>
                <path fill="#FFF" d="M463.942 28.221L463.942 34.417" mask="url(#prefix__b)"/>
                <path fill="#000" d="M463.661 34.417L464.225 34.417 464.225 28.221 463.661 28.221z" mask="url(#prefix__b)"/>
                <path fill="#FFF" d="M467.144 28.221L467.144 34.417" mask="url(#prefix__b)"/>
                <path fill="#000" d="M466.862 34.417L467.426 34.417 467.426 28.221 466.862 28.221z" mask="url(#prefix__b)"/>
                <path fill="#FFF" d="M470.345 28.221L470.345 34.417" mask="url(#prefix__b)"/>
                <path fill="#000" d="M470.063 34.417L470.627 34.417 470.627 28.221 470.063 28.221z" mask="url(#prefix__b)"/>
                <path fill="#FFF" d="M473.546 28.221L473.546 34.417" mask="url(#prefix__b)"/>
                <path fill="#000" d="M473.264 34.417L473.828 34.417 473.828 28.221 473.264 28.221z" mask="url(#prefix__b)"/>
                <path fill="#FFF" d="M459.141 42.476L459.141 48.672" mask="url(#prefix__b)"/>
                <path fill="#000" d="M458.859 48.672L459.423 48.672 459.423 42.476 458.859 42.476z" mask="url(#prefix__b)"/>
                <path fill="#FFF" d="M462.342 42.476L462.342 48.672" mask="url(#prefix__b)"/>
                <path fill="#000" d="M462.06 48.672L462.624 48.672 462.624 42.476 462.06 42.476z" mask="url(#prefix__b)"/>
                <path fill="#FFF" d="M465.543 42.476L465.543 48.672" mask="url(#prefix__b)"/>
                <path fill="#000" d="M465.261 48.672L465.825 48.672 465.825 42.476 465.261 42.476z" mask="url(#prefix__b)"/>
                <path fill="#FFF" d="M468.744 42.476L468.744 48.672" mask="url(#prefix__b)"/>
                <path fill="#000" d="M468.462 48.672L469.026 48.672 469.026 42.476 468.462 42.476z" mask="url(#prefix__b)"/>
                <path fill="#FFF" d="M471.945 42.476L471.945 48.672" mask="url(#prefix__b)"/>
                <path fill="#000" d="M471.664 48.672L472.228 48.672 472.228 42.476 471.664 42.476z" mask="url(#prefix__b)"/>
                <path fill="#FFF" d="M475.147 42.476L475.147 48.672" mask="url(#prefix__b)"/>
                <path fill="#000" d="M474.865 48.672L475.429 48.672 475.429 42.476 474.865 42.476z" mask="url(#prefix__b)"/>
                <path fill="#FFF" d="M460.741 42.476L460.741 48.672" mask="url(#prefix__b)"/>
                <path fill="#000" d="M460.459 48.672L461.023 48.672 461.023 42.476 460.459 42.476z" mask="url(#prefix__b)"/>
                <path fill="#FFF" d="M463.942 42.476L463.942 48.672" mask="url(#prefix__b)"/>
                <path fill="#000" d="M463.661 48.672L464.225 48.672 464.225 42.476 463.661 42.476z" mask="url(#prefix__b)"/>
                <path fill="#FFF" d="M467.144 42.476L467.144 48.672" mask="url(#prefix__b)"/>
                <path fill="#000" d="M466.862 48.672L467.426 48.672 467.426 42.476 466.862 42.476z" mask="url(#prefix__b)"/>
                <path fill="#FFF" d="M470.345 42.476L470.345 48.672" mask="url(#prefix__b)"/>
                <path fill="#000" d="M470.063 48.672L470.627 48.672 470.627 42.476 470.063 42.476z" mask="url(#prefix__b)"/>
                <path fill="#FFF" d="M473.546 42.476L473.546 48.672" mask="url(#prefix__b)"/>
                <path fill="#000" d="M473.264 48.672L473.828 48.672 473.828 42.476 473.264 42.476z" mask="url(#prefix__b)"/>
                <path fill="#FFF" d="M459.141 56.73L459.141 62.926" mask="url(#prefix__b)"/>
                <path fill="#000" d="M458.859 62.927L459.423 62.927 459.423 56.731 458.859 56.731z" mask="url(#prefix__b)"/>
                <path fill="#FFF" d="M462.342 56.73L462.342 62.926" mask="url(#prefix__b)"/>
                <path fill="#000" d="M462.06 62.927L462.624 62.927 462.624 56.731 462.06 56.731z" mask="url(#prefix__b)"/>
                <path fill="#FFF" d="M465.543 56.73L465.543 62.926" mask="url(#prefix__b)"/>
                <path fill="#000" d="M465.261 62.927L465.825 62.927 465.825 56.731 465.261 56.731z" mask="url(#prefix__b)"/>
                <path fill="#FFF" d="M468.744 56.73L468.744 62.926" mask="url(#prefix__b)"/>
                <path fill="#000" d="M468.462 62.927L469.026 62.927 469.026 56.731 468.462 56.731z" mask="url(#prefix__b)"/>
                <path fill="#FFF" d="M471.945 56.73L471.945 62.926" mask="url(#prefix__b)"/>
                <path fill="#000" d="M471.664 62.927L472.228 62.927 472.228 56.731 471.664 56.731z" mask="url(#prefix__b)"/>
                <path fill="#FFF" d="M475.147 56.73L475.147 62.926" mask="url(#prefix__b)"/>
                <path fill="#000" d="M474.865 62.927L475.429 62.927 475.429 56.731 474.865 56.731z" mask="url(#prefix__b)"/>
                <path fill="#FFF" d="M460.741 56.73L460.741 62.926" mask="url(#prefix__b)"/>
                <path fill="#000" d="M460.459 62.927L461.023 62.927 461.023 56.731 460.459 56.731z" mask="url(#prefix__b)"/>
                <path fill="#FFF" d="M463.942 56.73L463.942 62.926" mask="url(#prefix__b)"/>
                <path fill="#000" d="M463.661 62.927L464.225 62.927 464.225 56.731 463.661 56.731z" mask="url(#prefix__b)"/>
                <path fill="#FFF" d="M467.144 56.73L467.144 62.926" mask="url(#prefix__b)"/>
                <path fill="#000" d="M466.862 62.927L467.426 62.927 467.426 56.731 466.862 56.731z" mask="url(#prefix__b)"/>
                <path fill="#FFF" d="M470.345 56.73L470.345 62.926" mask="url(#prefix__b)"/>
                <path fill="#000" d="M470.063 62.927L470.627 62.927 470.627 56.731 470.063 56.731z" mask="url(#prefix__b)"/>
                <path fill="#FFF" d="M473.546 56.73L473.546 62.926" mask="url(#prefix__b)"/>
                <path fill="#000" d="M473.264 62.927L473.828 62.927 473.828 56.731 473.264 56.731z" mask="url(#prefix__b)"/>
                <path fill="#E6E8EB" d="M491.978 56.866s.188-1.193 1.877-2.007c1.69-.813 5.93-1.964 11.11-1.249 5.18.715 6.54 2 6.54 2l.623 1.377-.002 15.145s-.683 1.815-4.157 2.566c-3.474.751-10.39 1.001-13.707-.532 0 0-2.096-.876-2.284-2.19v-15.11z" mask="url(#prefix__b)"/>
                <path fill="#000" d="M492.26 71.962c.144.334 1.615 3.208 9.788 3.208 8.157 0 9.647-2.864 9.796-3.21V56.775c-.105-.296-1.353-3.106-10.094-3.106-9.134 0-9.487 3.12-9.49 3.152v15.142zm9.788 3.772c-9.118 0-10.293-3.49-10.34-3.637l-.011-.083V56.802c.007-.165.297-3.698 10.053-3.698 9.712 0 10.619 3.418 10.653 3.563l.007.064-.014 15.367c-.046.148-1.232 3.636-10.348 3.636z" mask="url(#prefix__b)"/>
                <path fill="#000" d="M501.834 65.674c-8.858 0-10.075-3.263-10.123-3.403l.534-.182-.267.09.267-.093c.01.03 1.255 3.114 9.935 3.022 8.68-.083 9.668-2.978 9.676-3.007l.543.154c-.038.136-1.026 3.329-10.212 3.417l-.353.002M501.834 70.632c-8.858 0-10.075-3.263-10.123-3.403l.534-.182-.267.09.267-.093c.01.03 1.204 3.024 9.59 3.024l.346-.002c8.679-.083 9.667-2.978 9.675-3.007l.543.154c-.038.136-1.026 3.329-10.212 3.417l-.353.002M501.834 60.716c-8.858 0-10.075-3.262-10.123-3.402l.534-.182-.267.09.267-.093c.01.03 1.204 3.023 9.59 3.023l.346-.002c8.679-.082 9.667-2.977 9.675-3.006l.543.154c-.038.136-1.026 3.329-10.212 3.416l-.353.002" mask="url(#prefix__b)"/>
                <path fill="#FFF" d="M113.09 57.148c0 31.126-25.233 56.357-56.358 56.357-31.125 0-56.357-25.23-56.357-56.357C.375 26.023 25.607.792 56.732.792s56.357 25.231 56.357 56.356" mask="url(#prefix__b)"/>
                <path fill="#C5C8CF" d="M56.732 1.167C25.862 1.167.75 26.28.75 57.148c0 30.87 25.113 55.983 55.982 55.983s55.982-25.113 55.982-55.983c0-30.868-25.113-55.981-55.982-55.981m0 112.714C25.45 113.881 0 88.431 0 57.148 0 25.866 25.45.417 56.732.417s56.732 25.449 56.732 56.731c0 31.283-25.45 56.733-56.732 56.733" mask="url(#prefix__b)"/>
                <path fill="#231916" d="M81.065 55.264l-.026-.484c.163-.01.329-.014.498-.014v.484c-.16 0-.317.005-.472.014M57.247 55.264c-.307-.017-.644-.018-.957-.005l-.02-.484c.329-.014.68-.013 1.002.005l-.025.484zm-2.836.27l-.128-.467c.31-.085.642-.154.988-.203l.069.48c-.326.047-.64.11-.93.19zm4.697.056c-.29-.093-.6-.168-.917-.223l.082-.477c.34.059.672.139.984.239l-.15.46zm20.094.013l-.146-.461c.318-.102.648-.183.98-.243l.086.476c-.312.057-.622.134-.92.228zm-44.923.079c-.295-.112-.6-.203-.904-.272l.105-.472c.328.073.655.17.97.29l-.171.454zm18.416.609l-.265-.406c.278-.182.58-.345.896-.482l.194.443c-.291.128-.57.277-.825.445zm24.802.119l-.266-.405c.28-.184.578-.35.884-.494l.206.438c-.286.134-.563.29-.824.46zm-16.723.032c-.254-.188-.523-.354-.798-.494l.22-.432c.299.152.59.333.865.535l-.287.39zm-24.826.133c-.263-.185-.534-.353-.807-.5l.229-.426c.29.155.578.334.856.529l-.278.397zm15.376.989l-.382-.3c.213-.271.443-.524.686-.75l.33.355c-.224.208-.437.442-.634.695zm24.767.096l-.374-.308c.212-.257.45-.503.707-.731l.322.362c-.24.212-.46.44-.655.677zm-13.941.092c-.23-.267-.444-.495-.654-.697l.336-.35c.22.213.445.453.685.73l-.367.317zm-24.767.079c-.22-.234-.451-.458-.687-.666l.32-.363c.248.218.49.452.72.697l-.353.332zm12.874 1.366l-.39-.287c.16-.218.313-.455.453-.704l.058-.102.417.246-.051.09c-.151.269-.314.523-.487.757zm13.137.068c-.214-.247-.421-.504-.628-.765l.379-.3c.203.254.406.505.616.749l-.367.316zm11.579 0l-.373-.308c.203-.245.38-.498.526-.753l.429.227-.025.039c-.144.254-.336.53-.557.796zm-36.297.045c-.23-.233-.454-.485-.668-.747l.376-.307c.204.25.419.49.638.714l-.346.34zm1.544 1.282c-.272-.181-.543-.383-.806-.6l.31-.374c.249.208.506.399.764.57l-.268.404zm33.239.018l-.267-.405c.266-.175.519-.37.75-.574l.322.363c-.25.22-.52.427-.805.616zm-24.644.01l-.28-.394c.254-.181.497-.384.719-.604l.34.344c-.241.239-.503.459-.78.654zm16.039.027c-.26-.19-.514-.402-.774-.652l.336-.35c.244.235.48.433.723.609l-.285.393zm6.789.84l-.153-.461c.3-.1.597-.218.879-.355l.21.438c-.301.144-.616.27-.936.378zm-29.62.005c-.317-.11-.63-.242-.932-.395l.218-.432c.283.143.576.267.872.37l-.158.457zm4.97.017l-.143-.463c.307-.095.602-.212.876-.345l.21.436c-.294.144-.612.269-.942.372zm19.677.04c-.33-.1-.65-.226-.945-.375l.215-.433c.274.135.567.252.873.346l-.143.463zm-21.657.313l-.03-.485c.327-.02.645-.057.945-.11l.084.477c-.318.056-.653.095-1 .118zm24.65.006l-.032-.485c.317-.02.634-.06.94-.12l.093.477c-.327.062-.664.105-1.001.128zm-1.005.005c-.35-.015-.686-.048-1-.098l.075-.48c.297.048.615.079.947.094l-.022.484zm-24.65.003c-.334-.015-.673-.056-1.007-.12l.092-.476c.31.06.626.097.937.112l-.022.484zM32.396 55.267c-.154-.011-.31-.017-.469-.017v-.484c.17 0 .337.006.501.017l-.032.484z" mask="url(#prefix__b)"/>
                <path fill="#0A51B7" d="M81.537 61.883c-2.698 0-5.215-1.35-6.412-3.438-.91-1.587-3.258-3.195-5.99-3.195-2.287 0-4.31 1.085-6.012 3.225-1.483 1.865-2.988 3.408-6.391 3.408-3.016 0-5.113-1.125-6.412-3.44-.826-1.473-2.891-3.193-5.99-3.193-2.998 0-5.053 2.02-6.012 3.225-1.483 1.865-2.988 3.408-6.391 3.408v-.484c3.193 0 4.559-1.398 6.012-3.225 1.013-1.273 3.19-3.408 6.39-3.408 3.309 0 5.523 1.853 6.414 3.44 1.205 2.149 3.164 3.193 5.989 3.193 3.193 0 4.558-1.398 6.012-3.225 1.798-2.262 3.949-3.408 6.39-3.408 2.917 0 5.433 1.729 6.412 3.438 1.112 1.94 3.463 3.195 5.99 3.195v.484z" mask="url(#prefix__b)"/>
            </g>
            <g transform="translate(25 26) translate(45 45.583)">
                <mask id="prefix__d" fill="#fff">
                    <use xlink:href="#prefix__c"/>
                </mask>
                <path fill="#FFF" d="M-1.977 28.872L25.44 28.872 25.44 -2.037 -1.977 -2.037z" mask="url(#prefix__d)"/>
            </g>
            <g transform="translate(25 26) translate(45 52.583)">
                <mask id="prefix__f" fill="#fff">
                    <use xlink:href="#prefix__e"/>
                </mask>
                <path fill="#0A51B7" d="M-1.757 21.676L14.155 21.676 14.155 -2.394 -1.757 -2.394z" mask="url(#prefix__f)"/>
            </g>
            <g transform="translate(25 26) translate(45 45.583)">
                <mask id="prefix__h" fill="#fff">
                    <use xlink:href="#prefix__g"/>
                </mask>
                <path fill="#000" d="M-1.977 28.872L25.44 28.872 25.44 -2.037 -1.977 -2.037z" mask="url(#prefix__h)"/>
            </g>
            <g>
                <path fill="#000" d="M23.538 42.253L23.926 42.253 23.926 29.418 23.538 29.418z" transform="translate(25 26) translate(33 29.583)"/>
                <path fill="#000" d="M23.635 29.586L12.569 23.196 12.762 22.86 23.828 29.25z" transform="translate(25 26) translate(33 29.583)"/>
                <path fill="#000" d="M23.829 29.586L23.636 29.25 34.671 22.879 34.864 23.215zM47.212 10.508L46.433 10.508 46.433 7.185 43.11 7.185 43.11 6.405 47.212 6.405zM1.032 10.508L.253 10.508.253 6.405 4.355 6.405 4.355 7.185 1.032 7.185zM4.355 52.243L.253 52.243.253 48.14 1.032 48.14 1.032 51.464 4.355 51.464zM47.212 52.243L43.11 52.243 43.11 51.464 46.433 51.464 46.433 48.14 47.212 48.14z" transform="translate(25 26) translate(33 29.583)"/>
                <path fill="#C5C8CF" d="M309.197 22.155L399.804 22.155 399.804 21.405 309.197 21.405z" transform="translate(25 26) translate(33 29.583)"/>
                <path fill="#C5C8CF" d="M393.829 21.78L393.829 17.018 397.953 19.399 402.077 21.78 397.953 24.162 393.829 26.543zM309.346 35.221L399.953 35.221 399.953 34.471 309.346 34.471z" transform="translate(25 26) translate(33 29.583)"/>
                <path fill="#C5C8CF" d="M315.321 34.846L315.321 39.608 311.197 37.227 307.073 34.846 311.197 32.465 315.321 30.084z" transform="translate(25 26) translate(33 29.583)"/>
                <path fill="#000" d="M331.493 49.406c.084.252.12.516.12.803 0 .288-.036.552-.12.803h2.075v-1.606h-2.075zm3.586 7.004v1.008h-7.292v-3.455h1.235v2.447h6.057zm-6.273-4.522c.924 0 1.63-.67 1.63-1.679 0-.983-.706-1.655-1.63-1.655-.947 0-1.655.672-1.655 1.655 0 1.008.708 1.68 1.655 1.68zm2.16.132c-.504.587-1.272.948-2.16.936-1.607 0-2.83-1.152-2.83-2.747s1.223-2.746 2.83-2.746c.888 0 1.656.36 2.16.935h2.602v-1.596h1.236v7.964h-1.236V52.02h-2.602zM344.943 57.621h1.187v-10.83h-1.187v10.83zm-2.183-10.566h1.152v10.039h-1.152v-3.647h-1.774v-1.008h1.774v-1.714h-1.583c-.503 1.823-1.642 3.394-3.67 4.605l-.707-.875c2.231-1.355 3.31-3.118 3.49-5.337h-2.962v-.995h4.185c0 .551-.036 1.091-.12 1.595h1.367v-2.663zM359.332 57.609h1.187v-10.83h-1.187v10.83zm-2.207-10.589h1.164v10.085h-1.164v-5.252h-2.134v-1.008h2.134V47.02zm-4.27 7.063c1.344-.012 2.268-.071 3.335-.3l.107 1.02c-1.222.24-2.278.3-3.933.3h-.732v-7.041h4.102v1.008h-2.879v5.013zM369.976 57.645h1.247V46.78h-1.247v10.865zm-6.116-6.249c0 1.704.659 2.723 1.595 2.723.947 0 1.607-1.019 1.607-2.723 0-1.678-.66-2.698-1.607-2.698-.936 0-1.595 1.02-1.595 2.698zm4.39 0c0 2.352-1.176 3.827-2.795 3.827-1.608 0-2.783-1.475-2.783-3.827 0-2.326 1.175-3.813 2.783-3.813 1.619 0 2.795 1.487 2.795 3.813zM382.347 46.768v10.865H381.1v-5.864h-2.075v-1.02h2.075v-3.981h1.247zm-7.279 7.328c1.726-.013 2.962-.072 4.377-.312l.108.996c-1.548.275-2.902.323-4.869.323h-.852v-7.376h5.025v1.02h-3.789v2.027h3.345v.982h-3.345v2.34zM333.834 6.547l-.349-1.187c-.298-.96-.563-1.943-.839-2.938h-.048c-.252 1.007-.528 1.979-.815 2.938l-.36 1.187h2.41zm.336 1.092h-3.07l-.757 2.518h-1.415l2.926-8.827h1.608l2.927 8.827h-1.476l-.743-2.518zM338.947 5.48h1.33c1.284 0 1.98-.528 1.98-1.596 0-1.067-.696-1.438-1.98-1.438h-1.33V5.48zm3.43 4.678l-2.003-3.562h-1.427v3.562h-1.392V1.33h2.89c1.824 0 3.19.647 3.19 2.554 0 1.367-.73 2.183-1.845 2.53l2.158 3.743h-1.571zM350.011 9.918h6.368v.994h-7.603V7.723h1.235v2.195zm4.93-7.197c.011-.335.011-.671.011-1.007h-6.249V.719h7.472v.97c0 1.02 0 2.124-.3 3.575l-1.222-.096c.12-.552.18-1.056.227-1.523l-6.284.276-.168-1.02 6.512-.18zm2.398 3.178v.996h-9.763v-.996h3.814V4.448h1.247v1.451h4.702zM366.592 8.37h1.175V.25h-1.175v8.12zm-2.087-4.101h-1.283V3.262h1.283V.467h1.152v7.639h-1.152V4.269zm3.562 5.6v1.008h-7.4V7.482h1.248v2.387h6.152zm-4.354-3.441c-1.235.227-2.266.263-3.945.263h-.708V1.126h4.09v.995h-2.902v1.272h2.494v.96h-2.494v1.354c1.367-.012 2.278-.06 3.345-.264l.12.985zM370.112 6.104c2.255-.337 3.742-1.692 3.802-3.228h-3.394V1.87h3.406V.466h1.236V1.87h3.393v1.008h-3.381c.059 1.535 1.546 2.89 3.8 3.227l-.466 1.02c-1.824-.325-3.262-1.224-3.97-2.495-.707 1.27-2.147 2.17-3.958 2.495l-.468-1.02zm-.468 3.657h9.81v-1.02h-9.81v1.02z" transform="translate(25 26) translate(33 29.583)"/>
            </g>
        </g>
    </g>
</svg>
