<svg xmlns="http://www.w3.org/2000/svg" xmlns:xlink="http://www.w3.org/1999/xlink" width="780" height="460" viewBox="0 0 780 460">
    <defs>
        <path id="prefix__a" d="M0 412.621L738.226 412.621 738.226 0 0 0z"/>
    </defs>
    <g fill="none" fill-rule="evenodd">
        <path fill="#F8F9FB" d="M0 0H780V460H0z"/>
        <g transform="translate(23 21)">
            <path fill="#FFF" d="M443.547 333.838c0 31.125-25.232 56.357-56.357 56.357s-56.357-25.232-56.357-56.357 25.232-56.357 56.357-56.357 56.357 25.232 56.357 56.357"/>
            <path fill="#C5C8CF" d="M387.19 277.855c-30.87 0-55.982 25.113-55.982 55.982 0 30.87 25.113 55.983 55.982 55.983s55.982-25.113 55.982-55.983c0-30.869-25.113-55.982-55.982-55.982m0 112.715c-31.282 0-56.732-25.45-56.732-56.733 0-31.282 25.45-56.732 56.732-56.732s56.732 25.45 56.732 56.732c0 31.283-25.45 56.733-56.732 56.733"/>
            <path fill="#000" d="M410.355 252.385v1.02h-1.439v3.682h-1.248v-8.132h1.248v3.43h1.439zm-7.208 6.189h6.116v1.008H401.9v-3.215h1.247v2.207zm1.751-5.11c.216-1.163.252-2.015.264-2.685h-4.234v-1.007h5.446v.623c0 .73 0 1.799-.265 3.202l-1.211-.132zm2.195 1.572c-2.255.396-4.809.456-6.692.456l-.132-1.007c.648 0 1.391 0 2.158-.024v-2.22h1.224v2.183c1.127-.047 2.291-.12 3.358-.287l.084.899z"/>
            <mask id="prefix__b" fill="#fff">
                <use xlink:href="#prefix__a"/>
            </mask>
            <path fill="#000" d="M419.117 259.809h1.247v-10.877h-1.247v10.877zm-5.829-3.598c1.714-.012 3.213-.096 4.929-.371l.132 1.008c-1.859.323-3.478.382-5.386.382h-.922v-4.293h3.777v-2.015h-3.802v-1.008h5.05v4.019h-3.778v2.278zM433.888 259.773h1.187v-10.83h-1.187v10.83zm-2.207-10.589h1.163v10.085h-1.163v-5.252h-2.135v-1.007h2.135v-3.826zm-4.27 7.063c1.343-.012 2.267-.071 3.335-.3l.107 1.02c-1.223.24-2.278.3-3.934.3h-.731v-7.041h4.102v1.008h-2.879v5.013zM444.532 259.809h1.247v-10.865h-1.247v10.865zm-6.116-6.249c0 1.704.659 2.723 1.594 2.723.948 0 1.608-1.019 1.608-2.723 0-1.678-.66-2.698-1.608-2.698-.935 0-1.594 1.02-1.594 2.698zm4.389 0c0 2.352-1.176 3.827-2.795 3.827-1.607 0-2.782-1.475-2.782-3.827 0-2.326 1.175-3.814 2.782-3.814 1.619 0 2.795 1.488 2.795 3.814zM456.903 248.931v10.865h-1.247v-5.863h-2.075v-1.02h2.075v-3.982h1.247zm-7.28 7.328c1.727-.012 2.963-.072 4.378-.312l.108.996c-1.548.276-2.902.324-4.87.324h-.851v-7.376h5.025v1.02h-3.79v2.026h3.346v.982h-3.345v2.34zM205.33 132.203h-1.69v5.517h-1.237v-10.83h1.236v4.293h1.691v1.02zm-6.285-2.639c0 1.931 1.008 3.886 2.64 4.69l-.757.983c-1.163-.599-2.027-1.774-2.494-3.19-.468 1.5-1.379 2.759-2.615 3.394l-.756-.996c1.692-.827 2.746-2.878 2.746-4.881v-1.775h1.236v1.775zM213.78 128.904h-6.466v-1.007h7.712v1.068c0 1.343 0 2.841-.42 5.085l-1.247-.132c.42-2.123.42-3.659.42-4.953v-.06zm2.302 6.381v1.02h-9.787v-1.02h3.646v-3.815h1.247v3.815h4.894zM228.418 137.732h1.235v-10.843h-1.235v10.843zm-5.805-8.107c0 .767.672 1.259 1.608 1.259.947 0 1.607-.492 1.607-1.259 0-.756-.66-1.248-1.607-1.248-.936 0-1.608.492-1.608 1.248zm-1.186 0c0-1.332 1.175-2.268 2.794-2.268s2.795.936 2.795 2.268c0 1.343-1.176 2.277-2.795 2.277s-2.794-.934-2.794-2.277zm6.368 3.598c-.947.191-1.943.298-2.902.371v3.802h-1.236v-3.73c-1.019.036-1.979.048-2.818.048l-.145-1.019c1.955 0 4.678-.037 7.017-.385l.084.913zM240.706 126.878v6.56h-1.235v-2.303h-1.608v-1.02h1.608v-3.237h1.235zm-5.9 9.727h4.688v-1.667h-4.689v1.667zm-1.212.983h7.112v-3.622h-7.112v3.622zm1.307-5.241c.803 0 1.368-.396 1.368-1.02 0-.611-.565-1.007-1.368-1.007-.803 0-1.367.396-1.367 1.008 0 .623.564 1.019 1.367 1.019zm0 .924c-1.487 0-2.543-.781-2.543-1.943 0-1.152 1.056-1.943 2.543-1.943s2.542.79 2.542 1.943c0 1.162-1.055 1.943-2.542 1.943zm3.142-4.355h-6.284v-.982h2.518v-1.153h1.247v1.153h2.52v.982zM248.437 131.951h5.157v-3.215h-5.157v3.215zm7.508 3.43v1.008h-9.81v-1.008h4.269v-2.447h-3.177v-5.18h7.58v5.18h-3.167v2.447h4.305zM265.222 132.611h1.176v-5.722h-1.176v5.722zm-2.11-3.383v-2.134h1.152v5.433h-1.152v-2.34h-1.943v-.959h1.943zm3.646 7.389v.971h-7.628v-2.771h6.045v-.815h-6.069v-.959h7.292v2.685h-6.044v.889h6.404zm-4.449-4.666c-1.248.228-2.267.252-3.935.252h-.719v-4.738h4.15v.984h-2.927v2.77c1.344-.012 2.255-.059 3.334-.251l.097.983zM275.904 133.521h1.235v-6.632h-1.235v6.632zm.071 2.207c0-.671-.875-1.031-2.435-1.031-1.547 0-2.435.36-2.435 1.031 0 .661.888 1.02 2.435 1.02 1.56 0 2.435-.359 2.435-1.02zm1.235 0c0 1.26-1.391 2.004-3.67 2.004-2.278 0-3.658-.744-3.658-2.004 0-1.258 1.38-2.002 3.658-2.002 2.279 0 3.67.744 3.67 2.002zm-2.29-3.105c-1.703.275-3.167.323-5.241.323h-.912v-3.202h3.717v-1.199h-3.741v-.996h4.953v3.131h-3.706v1.259c1.86 0 3.214-.06 4.785-.324l.145 1.008zM290.674 137.708h1.187v-10.83h-1.187v10.83zm-2.206-10.591h1.163v10.087h-1.163v-5.253h-2.135v-1.008h2.135v-3.826zm-4.271 7.065c1.344-.012 2.268-.073 3.335-.3l.108 1.019c-1.223.24-2.279.3-3.934.3h-.731v-7.04h4.101v1.007h-2.879v5.014zM301.318 137.744h1.247v-10.866h-1.247v10.866zm-6.116-6.249c0 1.703.659 2.723 1.595 2.723.947 0 1.607-1.02 1.607-2.723 0-1.679-.66-2.698-1.607-2.698-.936 0-1.595 1.019-1.595 2.698zm4.39 0c0 2.351-1.176 3.826-2.795 3.826-1.608 0-2.782-1.475-2.782-3.826 0-2.327 1.174-3.813 2.782-3.813 1.619 0 2.795 1.486 2.795 3.813zM313.69 126.865v10.867h-1.248v-5.865h-2.075v-1.02h2.075v-3.982h1.248zm-7.28 7.328c1.726-.012 2.962-.07 4.377-.31l.109.994c-1.548.276-2.903.324-4.87.324h-.851v-7.376h5.024v1.02h-3.788v2.026h3.344v.984h-3.344v2.338zM208.777 154.787l-.348-1.187c-.299-.96-.563-1.944-.839-2.94h-.048c-.252 1.008-.528 1.98-.816 2.94l-.36 1.187h2.411zm.336 1.091h-3.07l-.756 2.518h-1.415l2.926-8.827h1.607l2.927 8.827h-1.476l-.743-2.518zM213.89 153.719h1.332c1.283 0 1.98-.527 1.98-1.595 0-1.067-.697-1.44-1.98-1.44h-1.331v3.035zm3.43 4.678l-2.002-3.563h-1.427v3.563h-1.392v-8.827h2.89c1.824 0 3.19.647 3.19 2.554 0 1.367-.73 2.183-1.845 2.53l2.158 3.743h-1.571zM232.582 153.803h-1.691v5.518h-1.236v-10.83h1.236v4.292h1.691v1.02zm-6.285-2.64c0 1.933 1.008 3.888 2.639 4.69l-.756.985c-1.163-.6-2.027-1.775-2.494-3.191-.468 1.5-1.379 2.76-2.615 3.394l-.756-.995c1.692-.827 2.746-2.878 2.746-4.882v-1.774h1.236v1.774zM241.031 150.505h-6.465v-1.007h7.712v1.067c0 1.343 0 2.842-.42 5.086l-1.247-.133c.42-2.123.42-3.66.42-4.953v-.06zm2.303 6.38v1.019h-9.787v-1.02h3.646v-3.813h1.247v3.814h4.894zM257.183 148.478v10.83h-1.176v-5.54h-1.283v5.012h-1.163v-10.075h1.163v4.054h1.283v-4.28h1.176zm-7.664 7.244c1.247-.013 2.23-.072 3.347-.3l.107 1.02c-1.307.251-2.423.3-3.945.3h-.72v-6.969h4.006v1.008h-2.795v4.941zM261.387 157.377c0 .66.887 1.008 2.47 1.008 1.584 0 2.483-.348 2.483-1.008s-.9-1.008-2.482-1.008c-1.584 0-2.471.348-2.471 1.008zm-.097-6.536c0 .708.984 1.115 2.59 1.115 1.609 0 2.58-.407 2.58-1.115 0-.72-.971-1.128-2.58-1.128-1.606 0-2.59.408-2.59 1.128zm6.297 6.536c0 1.248-1.391 1.955-3.73 1.955-2.326 0-3.73-.707-3.73-1.955 0-1.247 1.404-1.967 3.73-1.967 2.339 0 3.73.72 3.73 1.967zm.156-6.536c0 1.295-1.511 2.087-3.862 2.087-2.362 0-3.861-.792-3.861-2.087 0-1.308 1.499-2.1 3.86-2.1 2.352 0 3.863.792 3.863 2.1zm-8.767 3.813h9.799v-.995h-9.8v.995zM281.447 159.309h1.187v-10.83h-1.187v10.83zm-2.207-10.591h1.163v10.087h-1.163v-5.254h-2.135v-1.008h2.135v-3.825zm-4.27 7.063c1.343-.012 2.267-.071 3.335-.299l.107 1.02c-1.224.239-2.278.299-3.933.299h-.732v-7.039h4.102v1.006h-2.879v5.013zM292.091 159.344h1.247v-10.865h-1.247v10.865zm-6.116-6.248c0 1.703.659 2.722 1.594 2.722.948 0 1.608-1.019 1.608-2.722 0-1.68-.66-2.7-1.608-2.7-.935 0-1.594 1.02-1.594 2.7zm4.389 0c0 2.35-1.176 3.826-2.795 3.826-1.607 0-2.782-1.476-2.782-3.826 0-2.328 1.175-3.815 2.782-3.815 1.619 0 2.795 1.487 2.795 3.815zM304.462 148.466v10.866h-1.247v-5.865h-2.075v-1.02h2.075v-3.981h1.247zm-7.28 7.328c1.727-.013 2.963-.071 4.378-.311l.108.995c-1.548.276-2.902.323-4.87.323h-.851v-7.375h5.025v1.019h-3.79v2.027h3.346v.983h-3.345v2.339zM340.781 412.597h1.235v-10.83h-1.235v10.83zm-1.956-9.691c0 3.227-1.295 5.961-5.013 7.76l-.66-.983c2.843-1.368 4.186-3.275 4.402-5.769h-3.862v-1.008h5.133zM346.59 411.386h6.226v1.007h-7.472v-3.082h1.247v2.075zm-1.954-5.745c2.052-.252 3.454-1.272 3.55-2.387h-3.166v-.983h8v.983h-3.191c.096 1.115 1.524 2.135 3.563 2.387l-.456.983c-1.883-.24-3.346-1.115-3.934-2.314-.576 1.199-2.027 2.075-3.898 2.314l-.468-.983zm9.295 1.883v.996h-9.822v-.996h4.269v-1.655h1.235v1.655h4.318zM360.884 404.213c0 .768.995 1.212 2.53 1.212 1.524 0 2.519-.444 2.519-1.212s-.995-1.211-2.52-1.211c-1.534 0-2.53.443-2.53 1.21zm.084 7.173h6.284v1.007h-7.532v-3.201h1.248v2.194zm-1.392-7.173c0-1.354 1.512-2.206 3.838-2.206 2.315 0 3.838.852 3.838 2.206 0 1.355-1.523 2.207-3.838 2.207-2.326 0-3.838-.852-3.838-2.207zm8.755 2.939v1.007h-4.197v2.05h-1.26v-2.05h-4.365v-1.007h9.822zM375.245 404.262c.06.228.096.467.096.73 0 .265-.036.504-.109.733h2.064v-1.463h-2.05zm2.11 6.225c0-.72-.887-1.128-2.434-1.128-1.535 0-2.435.408-2.435 1.128 0 .743.9 1.138 2.435 1.138 1.547 0 2.434-.395 2.434-1.138zm1.224 0c0 1.33-1.403 2.11-3.658 2.11s-3.646-.78-3.646-2.11c0-1.321 1.391-2.1 3.646-2.1s3.658.779 3.658 2.1zm-6.045-3.934c.936 0 1.631-.624 1.631-1.56 0-.948-.695-1.571-1.63-1.571-.96 0-1.656.623-1.656 1.57 0 .937.696 1.56 1.655 1.56zm2.147.168c-.503.55-1.27.875-2.147.875-1.619 0-2.83-1.08-2.83-2.603 0-1.535 1.211-2.614 2.83-2.614.888 0 1.644.336 2.147.875h2.615v-1.5h1.235v6.394h-1.235v-1.427h-2.615zM393.927 405.197v1.02h-1.44v3.681h-1.247v-8.132h1.248v3.431h1.439zm-7.208 6.188h6.116v1.007h-7.363v-3.214h1.247v2.207zm1.75-5.109c.217-1.163.253-2.015.265-2.686H384.5v-1.008h5.446v.624c0 .731 0 1.8-.265 3.202l-1.211-.132zm2.196 1.571c-2.255.396-4.81.455-6.692.455l-.132-1.006c.648 0 1.39 0 2.158-.025v-2.219h1.224v2.184c1.127-.049 2.29-.12 3.358-.289l.084.9zM402.689 412.621h1.247v-10.879h-1.247v10.879zm-5.83-3.598c1.715-.012 3.214-.096 4.93-.373l.132 1.008c-1.859.324-3.479.384-5.386.384h-.923v-4.294h3.778v-2.014h-3.802v-1.008h5.05v4.018h-3.779v2.279zM417.064 412.621h1.247v-10.866h-1.247v10.866zm-3.67-8.18c0 1.991 1.103 3.983 2.806 4.75l-.72.983c-1.247-.588-2.195-1.787-2.686-3.25-.492 1.571-1.451 2.854-2.759 3.49l-.731-1.031c1.727-.78 2.854-2.855 2.854-4.942v-1.775h1.236v1.775zM429.291 408.075c-1.763-.36-3.286-1.487-3.994-2.974-.707 1.487-2.231 2.614-3.993 2.974l-.529-1.02c2.135-.395 3.874-2.062 3.874-3.778v-.814h1.308v.814c0 1.728 1.739 3.395 3.874 3.778l-.54 1.02zm-8.852 3.13h9.811v-1.02h-9.811v1.02zM439.468 408.267h1.175v-6.513h-1.175v6.513zm-2.087-2.842h-1.283v-.995h1.283v-2.496h1.151v6.238h-1.151v-2.747zm-2.723 6.056h4.785v-1.763h-4.785v1.763zm-1.223.983h7.208v-3.73h-7.208v3.73zm3.154-5.013c-1.235.229-2.267.264-3.945.264h-.708v-5.277h4.078v.995h-2.891v1.127h2.494v.949h-2.494v1.223c1.367-.011 2.278-.072 3.346-.263l.12.982z" mask="url(#prefix__b)"/>
            <path fill="#E6E8EB" d="M367.109 321.275L367.109 352.615 404.942 352.615 404.942 320.984z" mask="url(#prefix__b)"/>
            <path fill="#000" d="M367.392 352.333h37.268v-31.064l-37.268.287v30.777zm37.833.564h-38.397v-31.902l38.397-.295v32.197z" mask="url(#prefix__b)"/>
            <path fill="#FFF" d="M406.043 321.505h-40.177c-1.534 0-2.79-1.255-2.79-2.79v-6.154c0-1.535 1.256-2.79 2.79-2.79h40.177c1.534 0 2.788 1.255 2.788 2.79v6.155c0 1.534-1.255 2.789-2.788 2.789" mask="url(#prefix__b)"/>
            <path fill="#000" d="M406.042 309.771h-40.176c-1.534 0-2.789 1.255-2.789 2.79v6.154c0 1.535 1.255 2.79 2.789 2.79h40.176c1.534 0 2.79-1.255 2.79-2.79v-6.155c0-1.534-1.256-2.789-2.79-2.789m0 .564c1.227 0 2.225.998 2.225 2.225v6.155c0 1.227-.998 2.225-2.225 2.225h-40.176c-1.226 0-2.224-.998-2.224-2.225v-6.155c0-1.227.998-2.225 2.224-2.225h40.176" mask="url(#prefix__b)"/>
            <path fill="#FFF" d="M406.043 335.76h-40.177c-1.534 0-2.79-1.255-2.79-2.79v-6.154c0-1.535 1.256-2.79 2.79-2.79h40.177c1.534 0 2.788 1.255 2.788 2.79v6.155c0 1.534-1.255 2.789-2.788 2.789" mask="url(#prefix__b)"/>
            <path fill="#000" d="M406.042 324.026h-40.176c-1.534 0-2.789 1.255-2.789 2.79v6.154c0 1.534 1.255 2.79 2.789 2.79h40.176c1.534 0 2.79-1.256 2.79-2.79v-6.155c0-1.534-1.256-2.789-2.79-2.789m0 .564c1.227 0 2.225.998 2.225 2.225v6.155c0 1.227-.998 2.225-2.225 2.225h-40.176c-1.226 0-2.224-.998-2.224-2.225v-6.155c0-1.227.998-2.225 2.224-2.225h40.176" mask="url(#prefix__b)"/>
            <path fill="#FFF" d="M406.043 349.935h-40.177c-1.534 0-2.79-1.255-2.79-2.79v-6.154c0-1.536 1.256-2.79 2.79-2.79h40.177c1.534 0 2.788 1.254 2.788 2.79v6.155c0 1.534-1.255 2.788-2.788 2.788" mask="url(#prefix__b)"/>
            <path fill="#000" d="M406.042 338.201h-40.176c-1.534 0-2.789 1.256-2.789 2.79v6.154c0 1.535 1.255 2.79 2.789 2.79h40.176c1.534 0 2.79-1.255 2.79-2.79v-6.155c0-1.533-1.256-2.789-2.79-2.789m0 .564c1.227 0 2.225.998 2.225 2.225v6.155c0 1.228-.998 2.226-2.225 2.226h-40.176c-1.226 0-2.224-.998-2.224-2.226v-6.155c0-1.227.998-2.225 2.224-2.225h40.176" mask="url(#prefix__b)"/>
            <path fill="#0A51B7" d="M393.446 315.638c0 1.043-.845 1.888-1.887 1.888-1.043 0-1.888-.845-1.888-1.888 0-1.042.845-1.887 1.888-1.887 1.042 0 1.887.845 1.887 1.887" mask="url(#prefix__b)"/>
            <path fill="#000" d="M391.56 313.75c-1.043 0-1.888.846-1.888 1.889 0 1.042.845 1.886 1.887 1.886s1.887-.844 1.887-1.886c0-1.043-.845-1.89-1.887-1.89m0 .565c.73 0 1.323.594 1.323 1.325 0 .728-.594 1.322-1.323 1.322s-1.323-.594-1.323-1.322c0-.731.594-1.325 1.323-1.325" mask="url(#prefix__b)"/>
            <path fill="#0A51B7" d="M399.268 315.638c0 1.043-.845 1.888-1.888 1.888-1.042 0-1.887-.845-1.887-1.888 0-1.042.845-1.887 1.887-1.887 1.043 0 1.888.845 1.888 1.887" mask="url(#prefix__b)"/>
            <path fill="#000" d="M397.38 313.75c-1.042 0-1.887.846-1.887 1.889 0 1.042.845 1.886 1.887 1.886s1.887-.844 1.887-1.886c0-1.043-.845-1.89-1.887-1.89m0 .565c.73 0 1.323.594 1.323 1.325 0 .728-.594 1.322-1.323 1.322s-1.323-.594-1.323-1.322c0-.731.594-1.325 1.323-1.325" mask="url(#prefix__b)"/>
            <path fill="#0A51B7" d="M405.09 315.638c0 1.043-.846 1.888-1.888 1.888-1.043 0-1.888-.845-1.888-1.888 0-1.042.845-1.887 1.888-1.887 1.042 0 1.887.845 1.887 1.887" mask="url(#prefix__b)"/>
            <path fill="#000" d="M403.202 313.75c-1.043 0-1.888.846-1.888 1.889 0 1.042.845 1.886 1.888 1.886 1.042 0 1.887-.844 1.887-1.886 0-1.043-.845-1.89-1.887-1.89m0 .565c.73 0 1.322.594 1.322 1.325 0 .728-.593 1.322-1.322 1.322-.729 0-1.323-.594-1.323-1.322 0-.731.594-1.325 1.323-1.325" mask="url(#prefix__b)"/>
            <path fill="#0A51B7" d="M393.446 329.892c0 1.043-.845 1.889-1.887 1.889-1.043 0-1.888-.846-1.888-1.889 0-1.041.845-1.887 1.888-1.887 1.042 0 1.887.846 1.887 1.887" mask="url(#prefix__b)"/>
            <path fill="#000" d="M391.56 328.006c-1.043 0-1.888.845-1.888 1.887 0 1.043.845 1.887 1.887 1.887s1.887-.844 1.887-1.887c0-1.042-.845-1.887-1.887-1.887m0 .564c.73 0 1.323.594 1.323 1.323 0 .73-.594 1.323-1.323 1.323s-1.323-.593-1.323-1.323.594-1.323 1.323-1.323" mask="url(#prefix__b)"/>
            <path fill="#0A51B7" d="M399.268 329.892c0 1.043-.845 1.889-1.888 1.889-1.042 0-1.887-.846-1.887-1.889 0-1.041.845-1.887 1.887-1.887 1.043 0 1.888.846 1.888 1.887" mask="url(#prefix__b)"/>
            <path fill="#000" d="M397.38 328.006c-1.042 0-1.887.845-1.887 1.887 0 1.043.845 1.887 1.887 1.887s1.887-.844 1.887-1.887c0-1.042-.845-1.887-1.887-1.887m0 .564c.73 0 1.323.594 1.323 1.323 0 .73-.594 1.323-1.323 1.323s-1.323-.593-1.323-1.323.594-1.323 1.323-1.323" mask="url(#prefix__b)"/>
            <path fill="#0A51B7" d="M405.09 329.892c0 1.043-.846 1.889-1.888 1.889-1.043 0-1.888-.846-1.888-1.889 0-1.041.845-1.887 1.888-1.887 1.042 0 1.887.846 1.887 1.887" mask="url(#prefix__b)"/>
            <path fill="#000" d="M403.202 328.006c-1.043 0-1.888.845-1.888 1.887 0 1.043.845 1.887 1.888 1.887 1.042 0 1.887-.844 1.887-1.887 0-1.042-.845-1.887-1.887-1.887m0 .564c.73 0 1.322.594 1.322 1.323 0 .73-.593 1.323-1.322 1.323-.729 0-1.323-.593-1.323-1.323s.594-1.323 1.323-1.323" mask="url(#prefix__b)"/>
            <path fill="#0A51B7" d="M393.446 344.068c0 1.042-.845 1.887-1.887 1.887-1.043 0-1.888-.845-1.888-1.887 0-1.043.845-1.888 1.888-1.888 1.042 0 1.887.845 1.887 1.888" mask="url(#prefix__b)"/>
            <path fill="#000" d="M391.56 342.18c-1.043 0-1.888.846-1.888 1.889 0 1.042.845 1.886 1.887 1.886s1.887-.844 1.887-1.886c0-1.043-.845-1.888-1.887-1.888m0 .564c.73 0 1.323.593 1.323 1.324 0 .728-.594 1.322-1.323 1.322s-1.323-.594-1.323-1.322c0-.731.594-1.324 1.323-1.324" mask="url(#prefix__b)"/>
            <path fill="#0A51B7" d="M399.268 344.068c0 1.042-.845 1.887-1.888 1.887-1.042 0-1.887-.845-1.887-1.887 0-1.043.845-1.888 1.887-1.888 1.043 0 1.888.845 1.888 1.888" mask="url(#prefix__b)"/>
            <path fill="#000" d="M397.38 342.18c-1.042 0-1.887.846-1.887 1.889 0 1.042.845 1.886 1.887 1.886s1.887-.844 1.887-1.886c0-1.043-.845-1.888-1.887-1.888m0 .564c.73 0 1.323.593 1.323 1.324 0 .728-.594 1.322-1.323 1.322s-1.323-.594-1.323-1.322c0-.731.594-1.324 1.323-1.324" mask="url(#prefix__b)"/>
            <path fill="#0A51B7" d="M405.09 344.068c0 1.042-.846 1.887-1.888 1.887-1.043 0-1.888-.845-1.888-1.887 0-1.043.845-1.888 1.888-1.888 1.042 0 1.887.845 1.887 1.888" mask="url(#prefix__b)"/>
            <path fill="#000" d="M403.202 342.18c-1.043 0-1.888.846-1.888 1.889 0 1.042.845 1.886 1.888 1.886 1.042 0 1.887-.844 1.887-1.886 0-1.043-.845-1.888-1.887-1.888m0 .564c.73 0 1.322.593 1.322 1.324 0 .728-.593 1.322-1.322 1.322-.729 0-1.323-.594-1.323-1.322 0-.731.594-1.324 1.323-1.324" mask="url(#prefix__b)"/>
            <path fill="#FFF" d="M367.913 312.54L367.913 318.736" mask="url(#prefix__b)"/>
            <path fill="#000" d="M367.631 318.736L368.195 318.736 368.195 312.54 367.631 312.54z" mask="url(#prefix__b)"/>
            <path fill="#FFF" d="M371.114 312.54L371.114 318.736" mask="url(#prefix__b)"/>
            <path fill="#000" d="M370.832 318.736L371.396 318.736 371.396 312.54 370.832 312.54z" mask="url(#prefix__b)"/>
            <path fill="#FFF" d="M374.315 312.54L374.315 318.736" mask="url(#prefix__b)"/>
            <path fill="#000" d="M374.033 318.736L374.597 318.736 374.597 312.54 374.033 312.54z" mask="url(#prefix__b)"/>
            <path fill="#FFF" d="M377.516 312.54L377.516 318.736" mask="url(#prefix__b)"/>
            <path fill="#000" d="M377.234 318.736L377.798 318.736 377.798 312.54 377.234 312.54z" mask="url(#prefix__b)"/>
            <path fill="#FFF" d="M380.717 312.54L380.717 318.736" mask="url(#prefix__b)"/>
            <path fill="#000" d="M380.436 318.736L381 318.736 381 312.54 380.436 312.54z" mask="url(#prefix__b)"/>
            <path fill="#FFF" d="M383.918 312.54L383.918 318.736" mask="url(#prefix__b)"/>
            <path fill="#000" d="M383.637 318.736L384.201 318.736 384.201 312.54 383.637 312.54z" mask="url(#prefix__b)"/>
            <path fill="#FFF" d="M369.513 312.54L369.513 318.736" mask="url(#prefix__b)"/>
            <path fill="#000" d="M369.231 318.736L369.795 318.736 369.795 312.54 369.231 312.54z" mask="url(#prefix__b)"/>
            <path fill="#FFF" d="M372.714 312.54L372.714 318.736" mask="url(#prefix__b)"/>
            <path fill="#000" d="M372.433 318.736L372.997 318.736 372.997 312.54 372.433 312.54z" mask="url(#prefix__b)"/>
            <path fill="#FFF" d="M375.916 312.54L375.916 318.736" mask="url(#prefix__b)"/>
            <path fill="#000" d="M375.634 318.736L376.198 318.736 376.198 312.54 375.634 312.54z" mask="url(#prefix__b)"/>
            <path fill="#FFF" d="M379.117 312.54L379.117 318.736" mask="url(#prefix__b)"/>
            <path fill="#000" d="M378.835 318.736L379.399 318.736 379.399 312.54 378.835 312.54z" mask="url(#prefix__b)"/>
            <path fill="#FFF" d="M382.318 312.54L382.318 318.736" mask="url(#prefix__b)"/>
            <path fill="#000" d="M382.036 318.736L382.6 318.736 382.6 312.54 382.036 312.54z" mask="url(#prefix__b)"/>
            <path fill="#FFF" d="M367.913 326.795L367.913 332.991" mask="url(#prefix__b)"/>
            <path fill="#000" d="M367.631 332.991L368.195 332.991 368.195 326.795 367.631 326.795z" mask="url(#prefix__b)"/>
            <path fill="#FFF" d="M371.114 326.795L371.114 332.991" mask="url(#prefix__b)"/>
            <path fill="#000" d="M370.832 332.991L371.396 332.991 371.396 326.795 370.832 326.795z" mask="url(#prefix__b)"/>
            <path fill="#FFF" d="M374.315 326.795L374.315 332.991" mask="url(#prefix__b)"/>
            <path fill="#000" d="M374.033 332.991L374.597 332.991 374.597 326.795 374.033 326.795z" mask="url(#prefix__b)"/>
            <path fill="#FFF" d="M377.516 326.795L377.516 332.991" mask="url(#prefix__b)"/>
            <path fill="#000" d="M377.234 332.991L377.798 332.991 377.798 326.795 377.234 326.795z" mask="url(#prefix__b)"/>
            <path fill="#FFF" d="M380.717 326.795L380.717 332.991" mask="url(#prefix__b)"/>
            <path fill="#000" d="M380.436 332.991L381 332.991 381 326.795 380.436 326.795z" mask="url(#prefix__b)"/>
            <path fill="#FFF" d="M383.918 326.795L383.918 332.991" mask="url(#prefix__b)"/>
            <path fill="#000" d="M383.637 332.991L384.201 332.991 384.201 326.795 383.637 326.795z" mask="url(#prefix__b)"/>
            <path fill="#FFF" d="M369.513 326.795L369.513 332.991" mask="url(#prefix__b)"/>
            <path fill="#000" d="M369.231 332.991L369.795 332.991 369.795 326.795 369.231 326.795z" mask="url(#prefix__b)"/>
            <path fill="#FFF" d="M372.714 326.795L372.714 332.991" mask="url(#prefix__b)"/>
            <path fill="#000" d="M372.433 332.991L372.997 332.991 372.997 326.795 372.433 326.795z" mask="url(#prefix__b)"/>
            <path fill="#FFF" d="M375.916 326.795L375.916 332.991" mask="url(#prefix__b)"/>
            <path fill="#000" d="M375.634 332.991L376.198 332.991 376.198 326.795 375.634 326.795z" mask="url(#prefix__b)"/>
            <path fill="#FFF" d="M379.117 326.795L379.117 332.991" mask="url(#prefix__b)"/>
            <path fill="#000" d="M378.835 332.991L379.399 332.991 379.399 326.795 378.835 326.795z" mask="url(#prefix__b)"/>
            <path fill="#FFF" d="M382.318 326.795L382.318 332.991" mask="url(#prefix__b)"/>
            <path fill="#000" d="M382.036 332.991L382.6 332.991 382.6 326.795 382.036 326.795z" mask="url(#prefix__b)"/>
            <path fill="#FFF" d="M367.913 341.05L367.913 347.246" mask="url(#prefix__b)"/>
            <path fill="#000" d="M367.631 347.246L368.195 347.246 368.195 341.05 367.631 341.05z" mask="url(#prefix__b)"/>
            <path fill="#FFF" d="M371.114 341.05L371.114 347.246" mask="url(#prefix__b)"/>
            <path fill="#000" d="M370.832 347.246L371.396 347.246 371.396 341.05 370.832 341.05z" mask="url(#prefix__b)"/>
            <path fill="#FFF" d="M374.315 341.05L374.315 347.246" mask="url(#prefix__b)"/>
            <path fill="#000" d="M374.033 347.246L374.597 347.246 374.597 341.05 374.033 341.05z" mask="url(#prefix__b)"/>
            <path fill="#FFF" d="M377.516 341.05L377.516 347.246" mask="url(#prefix__b)"/>
            <path fill="#000" d="M377.234 347.246L377.798 347.246 377.798 341.05 377.234 341.05z" mask="url(#prefix__b)"/>
            <path fill="#FFF" d="M380.717 341.05L380.717 347.246" mask="url(#prefix__b)"/>
            <path fill="#000" d="M380.436 347.246L381 347.246 381 341.05 380.436 341.05z" mask="url(#prefix__b)"/>
            <path fill="#FFF" d="M383.918 341.05L383.918 347.246" mask="url(#prefix__b)"/>
            <path fill="#000" d="M383.637 347.246L384.201 347.246 384.201 341.05 383.637 341.05z" mask="url(#prefix__b)"/>
            <path fill="#FFF" d="M369.513 341.05L369.513 347.246" mask="url(#prefix__b)"/>
            <path fill="#000" d="M369.231 347.246L369.795 347.246 369.795 341.05 369.231 341.05z" mask="url(#prefix__b)"/>
            <path fill="#FFF" d="M372.714 341.05L372.714 347.246" mask="url(#prefix__b)"/>
            <path fill="#000" d="M372.433 347.246L372.997 347.246 372.997 341.05 372.433 341.05z" mask="url(#prefix__b)"/>
            <path fill="#FFF" d="M375.916 341.05L375.916 347.246" mask="url(#prefix__b)"/>
            <path fill="#000" d="M375.634 347.246L376.198 347.246 376.198 341.05 375.634 341.05z" mask="url(#prefix__b)"/>
            <path fill="#FFF" d="M379.117 341.05L379.117 347.246" mask="url(#prefix__b)"/>
            <path fill="#000" d="M378.835 347.246L379.399 347.246 379.399 341.05 378.835 341.05z" mask="url(#prefix__b)"/>
            <path fill="#FFF" d="M382.318 341.05L382.318 347.246" mask="url(#prefix__b)"/>
            <path fill="#000" d="M382.036 347.246L382.6 347.246 382.6 341.05 382.036 341.05z" mask="url(#prefix__b)"/>
            <path fill="#E6E8EB" d="M400.75 341.185s.188-1.192 1.877-2.007c1.69-.813 5.93-1.964 11.11-1.25 5.18.716 6.54 2 6.54 2l.623 1.377-.001 15.147s-.685 1.815-4.159 2.565c-3.473.752-10.389 1.002-13.706-.531 0 0-2.096-.876-2.284-2.191v-15.11z" mask="url(#prefix__b)"/>
            <path fill="#000" d="M401.033 356.281c.143.334 1.614 3.208 9.786 3.208 8.157 0 9.648-2.864 9.797-3.209v-15.187c-.105-.296-1.353-3.107-10.094-3.107-9.134 0-9.487 3.121-9.49 3.153v15.142zm9.786 3.772c-9.117 0-10.292-3.489-10.338-3.637l-.012-.083v-15.212c.007-.165.297-3.699 10.053-3.699 9.712 0 10.619 3.42 10.653 3.564l.007.064-.014 15.367c-.046.148-1.233 3.636-10.35 3.636z" mask="url(#prefix__b)"/>
            <path fill="#000" d="M410.605 349.993c-8.857 0-10.074-3.263-10.122-3.403l.535-.182-.267.091.266-.094c.011.031 1.243 3.131 9.935 3.022 8.679-.083 9.668-2.978 9.676-3.007l.543.154c-.037.136-1.026 3.33-10.213 3.417l-.353.002M410.605 354.95c-8.857 0-10.074-3.262-10.122-3.402l.535-.182-.267.091.266-.094c.011.03 1.205 3.023 9.59 3.023.115 0 .228 0 .345-.002 8.679-.082 9.668-2.977 9.676-3.006l.543.154c-.037.136-1.026 3.33-10.213 3.416l-.353.002M410.605 345.035c-8.857 0-10.074-3.262-10.122-3.402l.535-.182-.267.091.266-.094c.011.03 1.251 3.078 9.935 3.021 8.679-.083 9.668-2.977 9.676-3.006l.543.154c-.037.136-1.026 3.328-10.213 3.416l-.353.002" mask="url(#prefix__b)"/>
            <path fill="#C5C8CF" d="M176.432 169.21L344.039 169.21 344.039 168.46 176.432 168.46z" mask="url(#prefix__b)"/>
            <path fill="#C5C8CF" d="M338.063 168.835L338.063 164.073 342.187 166.454 346.311 168.835 342.187 171.216 338.063 173.598zM174.58 182.275L342.187 182.275 342.187 181.525 174.58 181.525z" mask="url(#prefix__b)"/>
            <path fill="#C5C8CF" d="M180.556 181.9L180.556 186.662 176.432 184.281 172.308 181.9 176.432 179.519 180.556 177.138z" mask="url(#prefix__b)"/>
            <path fill="#000" d="M238.033 197.275v1.02h-1.439v3.681h-1.248v-8.13h1.248v3.43h1.44zm-7.208 6.19h6.116v1.006h-7.363v-3.214h1.247v2.207zm1.751-5.11c.216-1.164.252-2.016.264-2.687h-4.234v-1.007h5.446v.624c0 .73 0 1.8-.264 3.201l-1.212-.13zm2.195 1.57c-2.255.397-4.809.456-6.692.456l-.132-1.006c.648 0 1.391 0 2.158-.025v-2.22h1.224v2.184c1.127-.048 2.291-.12 3.358-.288l.084.9zM246.795 204.699h1.247v-10.878h-1.247v10.878zm-5.829-3.598c1.715-.011 3.214-.095 4.93-.372l.131 1.007c-1.859.324-3.478.385-5.385.385h-.923v-4.294h3.777v-2.015h-3.802v-1.007h5.05v4.017h-3.778v2.279zM261.567 204.664h1.187v-10.83h-1.187v10.83zm-2.207-10.591h1.163v10.087h-1.163v-5.254h-2.134v-1.008h2.134v-3.825zm-4.27 7.064c1.344-.012 2.267-.072 3.335-.299l.107 1.019c-1.222.24-2.278.299-3.933.299h-.732v-7.039h4.102v1.007h-2.879v5.013zM272.211 204.699h1.247v-10.865h-1.247v10.865zm-6.116-6.248c0 1.703.659 2.723 1.594 2.723.948 0 1.608-1.02 1.608-2.723 0-1.68-.66-2.699-1.608-2.699-.935 0-1.594 1.019-1.594 2.699zm4.389 0c0 2.351-1.175 3.826-2.795 3.826-1.607 0-2.782-1.475-2.782-3.826 0-2.327 1.175-3.814 2.782-3.814 1.62 0 2.795 1.487 2.795 3.814zM284.582 193.821v10.866h-1.247v-5.865h-2.075v-1.02h2.075v-3.98h1.247zm-7.279 7.328c1.726-.013 2.962-.07 4.377-.31l.108.994c-1.548.276-2.902.323-4.869.323h-.852v-7.375h5.025v1.02h-3.789v2.026h3.345v.983h-3.345v2.34zM212.702 220.759h-1.69v5.517h-1.237v-10.83h1.236v4.293h1.691v1.02zm-6.285-2.64c0 1.932 1.008 3.887 2.64 4.69l-.757.984c-1.163-.6-2.027-1.775-2.494-3.19-.468 1.499-1.379 2.759-2.615 3.393l-.756-.994c1.691-.828 2.746-2.88 2.746-4.882v-1.774h1.236v1.774zM221.151 217.46h-6.465v-1.007h7.712v1.068c0 1.342 0 2.842-.42 5.085l-1.247-.132c.42-2.123.42-3.66.42-4.953v-.06zm2.303 6.38v1.02h-9.787v-1.02h3.646v-3.813h1.247v3.814h4.894zM237.303 215.434v10.83h-1.176v-5.542h-1.283v5.014h-1.163v-10.073h1.163v4.051h1.283v-4.28h1.176zm-7.664 7.244c1.247-.012 2.23-.072 3.347-.302l.107 1.02c-1.307.253-2.423.302-3.945.302h-.72v-6.97h4.006v1.008h-2.795v4.942zM241.507 224.332c0 .66.887 1.008 2.47 1.008 1.584 0 2.483-.348 2.483-1.008s-.9-1.007-2.482-1.007c-1.584 0-2.471.348-2.471 1.007zm-.097-6.535c0 .707.984 1.115 2.59 1.115 1.609 0 2.58-.408 2.58-1.115 0-.721-.971-1.128-2.58-1.128-1.606 0-2.59.407-2.59 1.128zm6.297 6.535c0 1.248-1.391 1.955-3.73 1.955-2.326 0-3.73-.707-3.73-1.955 0-1.246 1.404-1.967 3.73-1.967 2.339 0 3.73.72 3.73 1.967zm.156-6.535c0 1.295-1.511 2.086-3.862 2.086-2.362 0-3.861-.791-3.861-2.086 0-1.31 1.499-2.1 3.86-2.1 2.352 0 3.863.79 3.863 2.1zm-8.767 3.812h9.799v-.994h-9.8v.994zM262.78 225.184v.995h-7.329v-2.913h5.793v-.9h-5.818v-.984h7.053v2.806h-5.793v.996h6.093zm-4.043-7.303c-.672 1.655-2.267 2.757-4.653 3.297l-.432-1.007c2.566-.552 3.898-1.74 4.065-3.25h-3.478v-.995h4.846c0 .348-.024.684-.084.995h2.243v-1.475h1.235v5.493h-1.235v-.984h-2.65v-.959h2.65v-1.115h-2.507zM274.54 220.938h-1.597v5.337h-1.247v-10.83h1.247v4.45h1.596v1.043zm-5.53.491c.275-1.678.3-2.937.3-3.849h-4.294v-.996h5.504v.72c0 .947 0 2.315-.299 4.234l-1.21-.109zm-1.21 1.488c1.126-.048 2.265-.108 3.32-.25l.061.91c-2.23.372-4.714.42-6.609.42l-.132-1.02c.66 0 1.391-.013 2.147-.024v-3.262h1.212v3.226zM287.008 226.264h1.187v-10.83h-1.187v10.83zm-2.206-10.59h1.163v10.086h-1.163v-5.253h-2.135V219.5h2.135v-3.826zm-4.271 7.063c1.344-.012 2.268-.071 3.335-.3l.108 1.02c-1.223.24-2.279.3-3.934.3h-.731v-7.04h4.101v1.008h-2.879v5.012zM297.652 226.299h1.247v-10.865h-1.247v10.865zm-6.116-6.248c0 1.703.659 2.722 1.595 2.722.947 0 1.607-1.019 1.607-2.722 0-1.679-.66-2.699-1.607-2.699-.936 0-1.595 1.02-1.595 2.699zm4.39 0c0 2.351-1.176 3.826-2.795 3.826-1.608 0-2.782-1.475-2.782-3.826 0-2.326 1.174-3.815 2.782-3.815 1.619 0 2.795 1.489 2.795 3.815zM310.023 215.422v10.865h-1.247v-5.864h-2.075v-1.02h2.075v-3.981h1.247zm-7.279 7.328c1.726-.013 2.962-.072 4.377-.312l.108.996c-1.548.275-2.902.323-4.869.323h-.852v-7.376h5.025v1.02h-3.789v2.027h3.345v.982h-3.345v2.34zM492.507 132.203h-1.691v5.517h-1.236v-10.83h1.236v4.293h1.69v1.02zm-6.285-2.639c0 1.931 1.008 3.886 2.639 4.69l-.756.983c-1.163-.599-2.027-1.774-2.494-3.19-.468 1.5-1.38 2.759-2.615 3.394l-.756-.996c1.692-.827 2.746-2.878 2.746-4.881v-1.775h1.236v1.775zM500.956 128.904h-6.465v-1.007h7.712v1.068c0 1.343 0 2.841-.42 5.085l-1.247-.132c.42-2.123.42-3.659.42-4.953v-.06zm2.303 6.381v1.02h-9.787v-1.02h3.646v-3.815h1.247v3.815h4.894zM515.596 137.732h1.235v-10.843h-1.235v10.843zm-5.805-8.107c0 .767.672 1.259 1.607 1.259.948 0 1.608-.492 1.608-1.259 0-.756-.66-1.248-1.608-1.248-.935 0-1.607.492-1.607 1.248zm-1.187 0c0-1.332 1.175-2.268 2.794-2.268 1.62 0 2.795.936 2.795 2.268 0 1.343-1.175 2.277-2.795 2.277-1.619 0-2.794-.934-2.794-2.277zm6.369 3.598c-.948.191-1.944.298-2.903.371v3.802h-1.235v-3.73c-1.02.036-1.98.048-2.818.048l-.145-1.019c1.955 0 4.678-.037 7.017-.385l.084.913zM527.884 126.878v6.56h-1.235v-2.303h-1.608v-1.02h1.608v-3.237h1.235zm-5.901 9.727h4.689v-1.667h-4.69v1.667zm-1.211.983h7.112v-3.622h-7.112v3.622zm1.307-5.241c.803 0 1.368-.396 1.368-1.02 0-.611-.565-1.007-1.368-1.007-.803 0-1.367.396-1.367 1.008 0 .623.564 1.019 1.367 1.019zm0 .924c-1.487 0-2.543-.781-2.543-1.943 0-1.152 1.056-1.943 2.543-1.943s2.542.79 2.542 1.943c0 1.162-1.055 1.943-2.542 1.943zm3.142-4.355h-6.284v-.982h2.518v-1.153h1.247v1.153h2.519v.982zM541.373 137.708h1.187v-10.83h-1.187v10.83zm-2.207-10.591h1.163v10.087h-1.163v-5.253h-2.135v-1.008h2.135v-3.826zm-4.27 7.065c1.343-.012 2.267-.073 3.334-.3l.108 1.019c-1.223.24-2.278.3-3.934.3h-.731v-7.04h4.101v1.007h-2.878v5.014zM552.017 137.744h1.247v-10.866h-1.247v10.866zm-6.117-6.249c0 1.703.66 2.723 1.595 2.723.947 0 1.608-1.02 1.608-2.723 0-1.679-.661-2.698-1.608-2.698-.935 0-1.595 1.019-1.595 2.698zm4.39 0c0 2.351-1.176 3.826-2.795 3.826-1.607 0-2.782-1.475-2.782-3.826 0-2.327 1.175-3.813 2.782-3.813 1.619 0 2.795 1.486 2.795 3.813zM564.388 126.865v10.867h-1.247v-5.865h-2.075v-1.02h2.075v-3.982h1.247zm-7.28 7.328c1.727-.012 2.963-.07 4.378-.31l.108.994c-1.548.276-2.902.324-4.87.324h-.851v-7.376h5.025v1.02h-3.79v2.026h3.346v.984h-3.345v2.338zM477.714 154.787l-.348-1.187c-.3-.96-.563-1.944-.84-2.94h-.047c-.252 1.008-.528 1.98-.816 2.94l-.36 1.187h2.41zm.336 1.091h-3.07l-.756 2.518h-1.415l2.926-8.827h1.607l2.927 8.827h-1.476l-.743-2.518zM482.827 153.719h1.331c1.283 0 1.98-.527 1.98-1.595 0-1.067-.697-1.44-1.98-1.44h-1.33v3.035zm3.43 4.678l-2.003-3.563h-1.427v3.563h-1.392v-8.827h2.891c1.823 0 3.19.647 3.19 2.554 0 1.367-.73 2.183-1.846 2.53l2.158 3.743h-1.57zM501.52 153.803h-1.691v5.518h-1.237v-10.83h1.237v4.292h1.69v1.02zm-6.285-2.64c0 1.933 1.007 3.888 2.638 4.69l-.755.985c-1.163-.6-2.027-1.775-2.495-3.191-.467 1.5-1.378 2.76-2.614 3.394l-.757-.995c1.691-.827 2.746-2.878 2.746-4.882v-1.774h1.237v1.774zM509.969 150.505h-6.465v-1.007h7.712v1.067c0 1.343 0 2.842-.42 5.086l-1.247-.133c.42-2.123.42-3.66.42-4.953v-.06zm2.303 6.38v1.019h-9.787v-1.02h3.646v-3.813h1.247v3.814h4.894zM526.12 148.478v10.83h-1.176v-5.54h-1.283v5.012h-1.163v-10.075h1.163v4.054h1.283v-4.28h1.176zm-7.664 7.244c1.247-.013 2.231-.072 3.347-.3l.107 1.02c-1.307.251-2.423.3-3.945.3h-.72v-6.969h4.006v1.008h-2.795v4.941zM530.324 157.377c0 .66.887 1.008 2.471 1.008 1.583 0 2.482-.348 2.482-1.008s-.899-1.008-2.482-1.008c-1.584 0-2.47.348-2.47 1.008zm-.097-6.536c0 .708.984 1.115 2.591 1.115 1.608 0 2.58-.407 2.58-1.115 0-.72-.972-1.128-2.58-1.128-1.607 0-2.59.408-2.59 1.128zm6.297 6.536c0 1.248-1.39 1.955-3.729 1.955-2.327 0-3.73-.707-3.73-1.955 0-1.247 1.403-1.967 3.73-1.967 2.338 0 3.73.72 3.73 1.967zm.156-6.536c0 1.295-1.51 2.087-3.862 2.087-2.362 0-3.86-.792-3.86-2.087 0-1.308 1.498-2.1 3.86-2.1 2.351 0 3.862.792 3.862 2.1zm-8.767 3.813h9.8v-.995h-9.8v.995zM550.385 159.309h1.187v-10.83h-1.187v10.83zm-2.206-10.591h1.163v10.087h-1.163v-5.254h-2.135v-1.008h2.135v-3.825zm-4.271 7.063c1.344-.012 2.268-.071 3.335-.299l.108 1.02c-1.224.239-2.279.299-3.934.299h-.731v-7.039h4.101v1.006h-2.879v5.013zM561.029 159.344h1.247v-10.865h-1.247v10.865zm-6.116-6.248c0 1.703.659 2.722 1.595 2.722.947 0 1.607-1.019 1.607-2.722 0-1.68-.66-2.7-1.607-2.7-.936 0-1.595 1.02-1.595 2.7zm4.39 0c0 2.35-1.176 3.826-2.795 3.826-1.608 0-2.782-1.476-2.782-3.826 0-2.328 1.174-3.815 2.782-3.815 1.619 0 2.795 1.487 2.795 3.815zM573.4 148.466v10.866h-1.247v-5.865h-2.075v-1.02h2.075v-3.981h1.247zm-7.279 7.328c1.726-.013 2.962-.071 4.377-.311l.108.995c-1.548.276-2.902.323-4.869.323h-.852v-7.375h5.025v1.019h-3.789v2.027h3.345v.983h-3.345v2.339z" mask="url(#prefix__b)"/>
            <path fill="#C5C8CF" d="M445.368 169.21L605.975 169.21 605.975 168.46 445.368 168.46z" mask="url(#prefix__b)"/>
            <path fill="#C5C8CF" d="M600 168.835L600 164.073 604.124 166.454 608.247 168.835 604.124 171.216 600 173.598zM443.517 182.275L604.124 182.275 604.124 181.525 443.517 181.525z" mask="url(#prefix__b)"/>
            <path fill="#C5C8CF" d="M449.492 181.9L449.492 186.662 445.368 184.281 441.244 181.9 445.368 179.519 449.492 177.138z" mask="url(#prefix__b)"/>
            <path fill="#000" d="M481.639 199.158h-1.691v5.518h-1.236v-10.83h1.236v4.292h1.69v1.02zm-6.285-2.639c0 1.932 1.008 3.887 2.639 4.69l-.756.984c-1.163-.599-2.027-1.775-2.494-3.19-.468 1.5-1.38 2.76-2.615 3.393l-.756-.995c1.69-.827 2.746-2.878 2.746-4.882v-1.774h1.236v1.774zM490.088 195.86h-6.465v-1.007h7.712v1.067c0 1.343 0 2.842-.42 5.086l-1.247-.133c.42-2.123.42-3.659.42-4.953v-.06zm2.303 6.38v1.02h-9.787v-1.02h3.646v-3.814h1.247v3.814h4.894zM506.24 193.834v10.83h-1.177v-5.541h-1.283v5.013h-1.163V194.06h1.163v4.054h1.283v-4.281h1.176zm-7.665 7.244c1.247-.013 2.231-.072 3.347-.301l.107 1.02c-1.307.252-2.423.3-3.945.3h-.72v-6.968h4.006v1.008h-2.795v4.94zM510.443 202.732c0 .66.887 1.008 2.471 1.008 1.583 0 2.482-.348 2.482-1.008s-.899-1.008-2.482-1.008c-1.584 0-2.47.348-2.47 1.008zm-.097-6.536c0 .708.984 1.115 2.591 1.115 1.608 0 2.58-.407 2.58-1.115 0-.72-.972-1.128-2.58-1.128-1.607 0-2.59.408-2.59 1.128zm6.297 6.536c0 1.248-1.39 1.955-3.729 1.955-2.327 0-3.73-.707-3.73-1.955 0-1.247 1.403-1.967 3.73-1.967 2.338 0 3.73.72 3.73 1.967zm.156-6.536c0 1.295-1.51 2.087-3.862 2.087-2.362 0-3.86-.792-3.86-2.087 0-1.308 1.498-2.099 3.86-2.099 2.351 0 3.862.791 3.862 2.1zm-8.767 3.813h9.8v-.995h-9.8v.995zM531.716 203.584v.996h-7.328v-2.915h5.793v-.9h-5.818v-.983h7.053v2.806h-5.793v.996h6.093zm-4.042-7.304c-.672 1.656-2.267 2.759-4.653 3.298l-.432-1.008c2.566-.55 3.898-1.738 4.065-3.25h-3.478v-.995h4.846c0 .348-.024.684-.084.995h2.243v-1.474h1.235v5.492h-1.235v-.983h-2.651v-.96h2.65v-1.115h-2.506zM543.476 199.338h-1.596v5.338h-1.247v-10.83h1.247v4.449h1.596v1.043zm-5.53.492c.276-1.68.3-2.938.3-3.85h-4.293v-.996h5.504v.72c0 .948 0 2.316-.3 4.234l-1.21-.108zm-1.21 1.487c1.127-.047 2.266-.108 3.32-.251l.062.91c-2.231.373-4.714.42-6.61.42l-.131-1.02c.66 0 1.39-.011 2.147-.022v-3.262h1.212v3.225zM555.945 204.664h1.187v-10.83h-1.187v10.83zm-2.207-10.591h1.163v10.087h-1.163v-5.254h-2.134v-1.008h2.134v-3.825zm-4.27 7.064c1.344-.012 2.267-.072 3.335-.299l.107 1.019c-1.223.24-2.278.299-3.933.299h-.732v-7.039h4.102v1.007h-2.879v5.013zM566.589 204.699h1.247v-10.865h-1.247v10.865zm-6.116-6.248c0 1.703.659 2.723 1.594 2.723.948 0 1.608-1.02 1.608-2.723 0-1.68-.66-2.699-1.608-2.699-.935 0-1.594 1.019-1.594 2.699zm4.389 0c0 2.351-1.175 3.826-2.795 3.826-1.607 0-2.782-1.475-2.782-3.826 0-2.327 1.175-3.814 2.782-3.814 1.62 0 2.795 1.487 2.795 3.814zM578.96 193.821v10.866h-1.247v-5.865h-2.075v-1.02h2.075v-3.98h1.247zm-7.279 7.328c1.726-.013 2.962-.07 4.377-.31l.108.994c-1.548.276-2.902.323-4.869.323h-.852v-7.375h5.025v1.02h-3.789v2.026h3.345v.983h-3.345v2.34z" mask="url(#prefix__b)"/>
            <path fill="#E6E8EB" d="M82.5.375C37.215.375.373 37.215.373 82.499c0 1.452.041 2.895.116 4.328v194.509c-.075 1.434-.115 2.877-.115 4.329 0 45.282 36.84 82.123 82.124 82.123 45.284 0 82.124-36.841 82.124-82.123V82.499c0-45.283-36.84-82.124-82.123-82.124" mask="url(#prefix__b)"/>
            <path fill="#0A51B7" d="M80.239.781l-.021-.75c.758-.02 1.519-.03 2.28-.03h.155v.75h-.154c-.756 0-1.51.01-2.26.03zm6.933.1C86.42.84 85.668.806 84.912.784l.023-.75c.762.022 1.522.055 2.28.1l-.043.747zm-11.447.147L75.663.28c.756-.062 1.515-.114 2.276-.155l.04.748c-.753.041-1.505.093-2.254.155zm15.952.233c-.748-.084-1.498-.158-2.25-.22l.063-.749c.76.065 1.517.14 2.27.223l-.083.746zm-20.445.263l-.103-.742c.75-.105 1.506-.199 2.264-.283l.082.746c-.751.082-1.498.176-2.243.28zm24.92.366c-.74-.126-1.485-.24-2.233-.345l.104-.743c.756.106 1.507.222 2.255.348l-.125.74zm-29.378.378l-.145-.736c.745-.147 1.493-.28 2.245-.407l.124.74c-.745.124-1.487.258-2.224.403zm33.814.498c-.734-.167-1.471-.323-2.211-.468l.144-.737c.748.148 1.492.306 2.233.473l-.166.732zm-38.225.494l-.186-.727c.737-.188 1.477-.365 2.22-.532l.164.732c-.737.165-1.47.341-2.198.527zm42.604.628c-.724-.207-1.451-.404-2.183-.59l.187-.728c.738.19 1.472.39 2.202.598l-.206.72zm-46.953.607l-.225-.715c.724-.228 1.453-.446 2.186-.654l.205.72c-.726.206-1.448.422-2.166.65zm51.262.76c-.711-.248-1.426-.486-2.146-.715l.228-.715c.726.231 1.447.471 2.164.72l-.246.71zm-55.547.721l-.266-.7c.713-.27 1.43-.53 2.152-.779l.246.71c-.716.246-1.427.502-2.132.77zm59.767.876c-.693-.284-1.392-.56-2.094-.827l.265-.7c.71.268 1.414.546 2.114.834l-.285.693zm-63.963.841l-.303-.685c.697-.308 1.398-.607 2.104-.896l.284.693c-.7.288-1.395.584-2.085.888zm68.082.99c-.677-.324-1.36-.638-2.047-.943l.303-.686c.695.307 1.383.625 2.067.953l-.323.675zm-72.172.958l-.341-.668c.678-.346 1.362-.683 2.05-1.01l.322.676c-.682.325-1.36.66-2.031 1.002zm76.186 1.098c-.66-.36-1.323-.713-1.993-1.056l.342-.668c.676.347 1.346.702 2.01 1.066l-.36.658zm-80.161 1.073l-.378-.648c.659-.384 1.322-.758 1.99-1.123l.36.658c-.663.361-1.32.733-1.972 1.113zm84.058 1.201c-.64-.396-1.284-.784-1.933-1.166l.378-.646c.656.384 1.307.775 1.95 1.176l-.395.636zm-87.904 1.185l-.414-.625c.635-.42 1.277-.83 1.925-1.23l.395.635c-.642.398-1.277.804-1.906 1.22zm91.67 1.302c-.615-.43-1.237-.855-1.865-1.27l.413-.625c.634.42 1.262.846 1.883 1.281l-.43.614zm-95.38 1.294l-.445-.604c.61-.453 1.229-.898 1.853-1.335l.429.615c-.618.433-1.23.874-1.836 1.324zm99.007 1.398c-.592-.465-1.19-.922-1.795-1.37l.448-.603c.609.454 1.213.915 1.81 1.383l-.463.59zM30.355 19.586l-.48-.576c.586-.488 1.178-.965 1.777-1.435l.463.59c-.593.466-1.18.94-1.76 1.421zm106.038 1.495c-.566-.497-1.138-.987-1.717-1.469l.479-.576c.584.486 1.163.98 1.733 1.48l-.495.565zM26.956 22.57l-.51-.549c.558-.518 1.122-1.027 1.694-1.53l.495.564c-.567.498-1.126 1.002-1.68 1.515zm112.75 1.586c-.538-.527-1.083-1.048-1.635-1.56l.509-.55c.558.517 1.108 1.042 1.65 1.575l-.524.535zm-115.98 1.578l-.538-.52c.529-.548 1.064-1.088 1.607-1.62l.525.536c-.54.527-1.07 1.061-1.593 1.604zm119.119 1.675c-.508-.556-1.024-1.106-1.548-1.648l.54-.52c.528.547 1.049 1.101 1.562 1.662l-.554.506zm-122.168 1.66l-.567-.49c.498-.575 1.003-1.144 1.516-1.704l.553.506c-.508.556-1.01 1.12-1.502 1.688zm125.127 1.76c-.478-.583-.962-1.16-1.456-1.73l.567-.49c.498.573.988 1.156 1.469 1.745l-.58.475zm-127.99 1.736l-.593-.459c.466-.602.939-1.196 1.42-1.784l.58.475c-.476.582-.945 1.172-1.406 1.768zM148.57 34.41c-.445-.609-.898-1.212-1.36-1.809l.594-.459c.466.603.923 1.211 1.372 1.827l-.606.441zM15.15 36.211l-.617-.426c.432-.627.872-1.246 1.319-1.859l.606.442c-.444.608-.88 1.222-1.308 1.843zm135.986 1.925c-.41-.632-.83-1.259-1.258-1.88l.618-.426c.43.627.855 1.26 1.269 1.898l-.63.408zM12.69 39.994l-.64-.39c.397-.648.8-1.29 1.215-1.927l.629.408c-.41.631-.811 1.267-1.204 1.91zm140.803 2.007c-.376-.656-.76-1.305-1.152-1.949l.64-.39c.396.65.784 1.305 1.162 1.966l-.65.373zM10.446 43.907l-.661-.355c.36-.669.729-1.333 1.106-1.99l.65.373c-.373.652-.74 1.31-1.095 1.972zm145.189 2.085c-.34-.676-.687-1.346-1.043-2.012l.66-.353c.36.672.71 1.347 1.053 2.03l-.67.335zM8.42 47.936l-.68-.318c.324-.687.655-1.369.995-2.047l.67.338c-.337.67-.666 1.347-.985 2.027zm149.132 2.161c-.301-.694-.611-1.383-.931-2.066l.68-.318c.322.69.635 1.385.939 2.086l-.688.298zM6.622 52.07l-.695-.28c.283-.704.576-1.404.878-2.098l.688.3c-.3.687-.59 1.381-.871 2.078zm152.615 2.234c-.261-.71-.533-1.415-.813-2.116l.696-.279c.284.707.557 1.42.82 2.136l-.703.26zM5.054 56.301l-.71-.24c.245-.722.499-1.439.764-2.15l.703.26c-.261.705-.514 1.416-.757 2.13zm155.632 2.3c-.221-.723-.453-1.444-.695-2.159l.71-.24c.245.722.478 1.45.702 2.181l-.717.218zM3.723 60.621l-.723-.2c.204-.735.418-1.465.642-2.19l.717.22c-.222.72-.434 1.442-.636 2.17zm158.166 2.34c-.18-.734-.371-1.462-.571-2.188l.723-.199c.202.731.394 1.468.576 2.207l-.728.18zM2.634 65.01l-.732-.16c.162-.745.335-1.486.518-2.223l.728.181c-.181.73-.353 1.463-.514 2.202zm160.212 2.37c-.14-.743-.288-1.48-.448-2.216l.734-.158c.16.741.31 1.487.452 2.235l-.738.14zM1.79 69.45l-.74-.119c.12-.753.252-1.502.393-2.247l.737.138c-.14.74-.27 1.483-.39 2.228zm161.766 2.393c-.098-.749-.206-1.495-.324-2.237l.74-.119c.12.75.229 1.503.328 2.258l-.744.098zM1.196 73.931l-.746-.078c.08-.759.169-1.513.269-2.265l.743.097c-.098.746-.187 1.494-.266 2.246zm162.823 2.41c-.056-.754-.123-1.504-.2-2.252l.746-.077c.078.754.145 1.512.202 2.272l-.748.057zM.849 78.438l-.748-.037c.038-.76.086-1.52.143-2.276l.748.056c-.057.75-.104 1.502-.142 2.257zm163.383 2.417c-.015-.756-.041-1.509-.076-2.26l.749-.035c.036.757.062 1.518.077 2.28l-.75.015zM.002 82.963L0 82.5c0-.608.007-1.214.02-1.818l.75.016c-.013.6-.02 1.2-.02 1.802l.002.46-.75.004zm164.246 2.427h.75v-2.27h-.75v2.27zM.865 87.501h-.75v-.673c-.026-.515-.05-1.049-.068-1.584l.75-.025c.018.531.04 1.061.068 1.59v.692zm163.383 2.432h.75v-2.27h-.75v2.27zM.115 92.044h.75v-2.27h-.75v2.27zm164.133 2.432h.75v-2.27h-.75v2.27zM.115 96.588h.75v-2.27h-.75v2.27zm164.133 2.431h.75v-2.27h-.75v2.27zM.115 101.131h.75v-2.27h-.75v2.27zm164.133 2.431h.75v-2.27h-.75v2.27zM.115 105.674h.75v-2.27h-.75v2.27zm164.133 2.431h.75v-2.27h-.75v2.27zM.115 110.217h.75v-2.27h-.75v2.27zm164.133 2.431h.75v-2.27h-.75v2.27zM.115 114.76h.75v-2.27h-.75v2.27zm164.133 2.431h.75v-2.27h-.75v2.27zM.115 119.302h.75v-2.27h-.75v2.27zm164.133 2.432h.75v-2.27h-.75v2.27zM.115 123.845h.75v-2.27h-.75v2.27zm164.133 2.432h.75v-2.27h-.75v2.27zM.115 128.388h.75v-2.27h-.75v2.27zm164.133 2.432h.75v-2.27h-.75v2.27zM.115 132.931h.75v-2.27h-.75v2.27zm164.133 2.432h.75v-2.27h-.75v2.27zM.115 137.474h.75v-2.27h-.75v2.27zm164.133 2.432h.75v-2.27h-.75v2.27zM.115 142.017h.75v-2.27h-.75v2.27zm164.133 2.432h.75v-2.27h-.75v2.27zM.115 146.56h.75v-2.27h-.75v2.27zm164.133 2.432h.75v-2.27h-.75v2.27zM.115 151.103h.75v-2.27h-.75v2.27zm164.133 2.432h.75v-2.27h-.75v2.27zM.115 155.646h.75v-2.27h-.75v2.27zm164.133 2.432h.75v-2.27h-.75v2.27zM.115 160.19h.75v-2.27h-.75v2.27zm164.133 2.432h.75v-2.27h-.75v2.27zM.115 164.732h.75v-2.27h-.75v2.27zm164.133 2.432h.75v-2.27h-.75v2.27zM.115 169.275h.75v-2.27h-.75v2.27zm164.133 2.432h.75v-2.27h-.75v2.27zM.115 173.818h.75v-2.27h-.75v2.27zm164.133 2.432h.75v-2.27h-.75v2.27zM.115 178.361h.75v-2.27h-.75v2.27zm164.133 2.433h.75v-2.272h-.75v2.272zM.115 182.904h.75v-2.27h-.75v2.27zm164.133 2.433h.75v-2.27h-.75v2.27zM.115 187.447h.75v-2.27h-.75v2.27zm164.133 2.433h.75v-2.27h-.75v2.27zM.115 191.99h.75v-2.27h-.75v2.27zm164.133 2.433h.75v-2.27h-.75v2.27zM.115 196.533h.75v-2.27h-.75v2.27zm164.133 2.433h.75v-2.27h-.75v2.27zM.115 201.076h.75v-2.27h-.75v2.27zm164.133 2.433h.75v-2.27h-.75v2.27zM.115 205.62h.75v-2.27h-.75v2.27zm164.133 2.433h.75v-2.27h-.75v2.27zM.115 210.162h.75v-2.27h-.75v2.27zm164.133 2.432h.75v-2.27h-.75v2.27zM.115 214.705h.75v-2.27h-.75v2.27zm164.133 2.432h.75v-2.27h-.75v2.27zM.115 219.248h.75v-2.27h-.75v2.27zm164.133 2.432h.75v-2.27h-.75v2.27zM.115 223.791h.75v-2.27h-.75v2.27zm164.133 2.432h.75v-2.27h-.75v2.27zM.115 228.334h.75v-2.27h-.75v2.27zm164.133 2.432h.75v-2.27h-.75v2.27zM.115 232.877h.75v-2.27h-.75v2.27zm164.133 2.432h.75v-2.27h-.75v2.27zM.115 237.42h.75v-2.27h-.75v2.27zm164.133 2.432h.75v-2.27h-.75v2.27zM.115 241.963h.75v-2.27h-.75v2.27zm164.133 2.432h.75v-2.27h-.75v2.27zM.115 246.506h.75v-2.27h-.75v2.27zm164.133 2.432h.75v-2.27h-.75v2.27zM.115 251.05h.75v-2.27h-.75v2.27zm164.133 2.432h.75v-2.27h-.75v2.27zM.115 255.592h.75v-2.27h-.75v2.27zm164.133 2.432h.75v-2.27h-.75v2.27zM.115 260.135h.75v-2.27h-.75v2.27zm164.133 2.432h.75v-2.27h-.75v2.27zM.115 264.677h.75v-2.27h-.75v2.27zm164.133 2.433h.75v-2.27h-.75v2.27zM.115 269.22h.75v-2.27h-.75v2.27zm164.133 2.433h.75v-2.27h-.75v2.27zM.115 273.763h.75v-2.27h-.75v2.27zm164.133 2.433h.75v-2.27h-.75v2.27zM.115 278.306h.75v-2.27h-.75v2.27zm164.133 2.433h.75v-2.27h-.75v2.27zM.798 282.861l-.748-.025c.018-.509.04-1.015.066-1.52l-.001-.738h.75v.758c-.026.52-.048 1.022-.066 1.525zm163.45 2.421h.75v-2.27h-.75v2.27zM.018 287.398c-.012-.577-.018-1.154-.018-1.733l.002-.549.75.006-.002.543c0 .573.006 1.146.018 1.718l-.75.015zm164.876 2.444l-.75-.038c.038-.75.065-1.503.083-2.259l.75.017c-.018.762-.046 1.523-.083 2.28zM.237 291.954c-.057-.757-.104-1.516-.141-2.277l.749-.037c.037.755.083 1.508.14 2.257l-.748.057zm164.303 2.436l-.746-.078c.079-.748.148-1.498.207-2.252l.748.06c-.06.76-.13 1.516-.21 2.27zM.708 296.493c-.1-.752-.188-1.508-.267-2.266l.746-.078c.078.752.166 1.5.264 2.246l-.743.098zm163.227 2.418l-.74-.119c.12-.742.23-1.488.33-2.237l.744.1c-.101.755-.213 1.508-.334 2.256zM1.428 300.998c-.14-.745-.271-1.495-.391-2.247l.74-.119c.12.746.249 1.488.389 2.227l-.738.14zm161.653 2.395l-.733-.16c.162-.735.313-1.473.455-2.215l.737.141c-.143.75-.296 1.493-.46 2.234zM2.399 305.456c-.182-.738-.354-1.479-.516-2.223l.732-.16c.16.738.332 1.472.513 2.203l-.73.18zm159.579 2.363l-.723-.2c.202-.726.395-1.453.578-2.187l.727.182c-.184.74-.378 1.475-.582 2.205zM3.617 309.853c-.223-.727-.437-1.457-.64-2.19l.723-.2c.2.726.413 1.45.634 2.17l-.717.22zm157.01 2.326l-.71-.242c.244-.712.476-1.428.699-2.149l.717.221c-.225.728-.46 1.451-.705 2.17zM5.085 314.19c-.265-.715-.52-1.434-.764-2.158l.71-.24c.243.718.495 1.43.757 2.137l-.703.26zm153.958 2.258l-.696-.28c.28-.697.553-1.396.815-2.102l.703.262c-.265.712-.54 1.42-.822 2.12zM6.789 318.433c-.303-.698-.598-1.402-.883-2.11l.697-.279c.282.702.573 1.398.874 2.091l-.688.298zm150.434 2.183l-.678-.318c.319-.68.629-1.365.929-2.054l.688.3c-.304.696-.617 1.386-.94 2.072zm-148.496 1.96c-.342-.683-.675-1.368-.998-2.059l.679-.318c.32.685.65 1.364.989 2.038l-.67.338zm146.449 2.103l-.661-.355c.357-.66.704-1.328 1.043-2l.67.337c-.342.68-.693 1.351-1.052 2.018zM10.89 326.6c-.38-.66-.75-1.326-1.11-1.997l.66-.355c.358.665.725 1.325 1.1 1.98l-.65.372zm142.015 2.03l-.64-.394c.392-.64.777-1.286 1.152-1.939l.65.373c-.38.66-.766 1.312-1.162 1.96zm-139.633 1.87c-.414-.639-.821-1.283-1.218-1.934l.64-.39c.394.644.796 1.283 1.207 1.915l-.63.408zm137.147 1.945l-.617-.426c.428-.619.847-1.244 1.258-1.875l.629.41c-.415.635-.838 1.266-1.27 1.891zm-134.553 1.814c-.45-.615-.89-1.236-1.322-1.863l.617-.426c.429.622.866 1.237 1.31 1.845l-.605.444zm131.86 1.864l-.592-.459c.46-.596.914-1.196 1.359-1.804l.605.443c-.45.614-.906 1.22-1.372 1.82zm-129.065 1.744c-.483-.588-.957-1.184-1.423-1.785l.593-.459c.462.596.932 1.185 1.41 1.77l-.58.474zm126.174 1.781l-.566-.492c.493-.568.979-1.144 1.456-1.727l.58.475c-.482.59-.972 1.17-1.47 1.744zm-123.187 1.671c-.514-.56-1.02-1.13-1.517-1.705l.567-.49c.493.57.994 1.132 1.504 1.69l-.554.505zm120.107 1.692l-.54-.522c.525-.542 1.042-1.09 1.55-1.645l.554.506c-.514.561-1.035 1.115-1.564 1.661zM24.82 344.596c-.543-.532-1.08-1.072-1.608-1.618l.539-.52c.524.541 1.055 1.075 1.594 1.603l-.525.535zm113.673 1.602l-.51-.55c.553-.513 1.099-1.032 1.638-1.559l.525.537c-.544.531-1.095 1.054-1.653 1.572zm-110.327 1.498c-.573-.502-1.137-1.01-1.695-1.527l.51-.55c.553.512 1.112 1.016 1.679 1.513l-.494.564zm106.894 1.51l-.48-.578c.58-.48 1.156-.97 1.722-1.467l.495.564c-.572.501-1.151.994-1.737 1.481zm-103.387 1.4c-.598-.47-1.19-.946-1.773-1.43l.478-.579c.58.481 1.166.954 1.759 1.42l-.464.59zm99.794 1.414l-.447-.603c.607-.449 1.207-.907 1.8-1.37l.463.59c-.6.47-1.205.93-1.816 1.383zm-96.131 1.3c-.623-.435-1.24-.879-1.85-1.332l.447-.603c.605.45 1.216.888 1.832 1.32l-.43.615zm92.386 1.315l-.412-.627c.63-.415 1.255-.838 1.874-1.27l.429.615c-.625.436-1.255.863-1.891 1.282zm-88.583 1.192c-.645-.4-1.285-.809-1.92-1.227l.415-.627c.627.414 1.26.821 1.9 1.217l-.395.637zm84.699 1.213l-.377-.649c.653-.379 1.3-.766 1.94-1.164l.397.637c-.648.401-1.301.793-1.96 1.176zm-80.765 1.08c-.667-.366-1.327-.738-1.982-1.12l.377-.649c.65.378 1.305.748 1.966 1.11l-.361.658zm76.752 1.106l-.341-.668c.673-.342 1.34-.695 2.004-1.056l.359.658c-.67.365-1.343.72-2.022 1.066zm-72.698.963c-.686-.327-1.366-.662-2.041-1.007l.34-.668c.67.341 1.344.674 2.023.997l-.322.678zm68.567.998l-.303-.685c.692-.306 1.379-.62 2.06-.945l.322.678c-.688.326-1.381.645-2.08.952zm-64.41.845c-.701-.288-1.4-.586-2.09-.893l.303-.685c.686.305 1.377.598 2.073.885l-.285.693zm60.176.884l-.264-.7c.708-.268 1.41-.544 2.11-.83l.284.694c-.706.29-1.415.567-2.13.836zm-55.914.726c-.72-.249-1.435-.508-2.146-.777l.266-.7c.703.265 1.412.521 2.125.768l-.245.71zm51.586.765l-.225-.715c.724-.226 1.442-.463 2.156-.709l.244.71c-.721.247-1.445.485-2.175.714zm-47.236.608c-.733-.209-1.461-.427-2.185-.656l.226-.715c.717.227 1.439.444 2.165.651l-.206.72zm42.846.635l-.184-.726c.732-.186 1.46-.38 2.184-.586l.204.72c-.73.207-1.465.405-2.204.592zm-38.425.494c-.744-.168-1.483-.345-2.218-.533l.185-.726c.729.185 1.462.361 2.199.53l-.166.73zm33.972.503l-.142-.736c.74-.144 1.478-.299 2.212-.463l.164.732c-.741.166-1.485.322-2.234.467zm-29.495.377c-.752-.127-1.5-.264-2.245-.409l.145-.736c.737.145 1.479.28 2.224.405l-.124.74zm24.995.368l-.103-.742c.748-.103 1.494-.216 2.236-.339l.122.741c-.75.123-1.5.237-2.255.34zm-20.477.263c-.758-.085-1.512-.179-2.264-.284l.104-.742c.744.103 1.492.197 2.243.28l-.083.746zm15.942.234l-.06-.748c.752-.06 1.502-.132 2.25-.214l.08.746c-.753.082-1.51.154-2.27.216zm-11.396.145c-.762-.043-1.52-.096-2.276-.158l.062-.748c.749.062 1.5.115 2.256.158l-.042.748zm6.84.1l-.02-.75c.756-.02 1.509-.05 2.259-.09l.04.748c-.757.042-1.516.072-2.28.092zm-2.28.03c-.763 0-1.523-.012-2.281-.033l.02-.75c.752.021 1.506.032 2.262.033l-.001.75z" mask="url(#prefix__b)"/>
            <path fill="#000" d="M49.514 157.137h-1.691v5.518h-1.236v-10.83h1.236v4.292h1.69v1.02zm-6.285-2.64c0 1.933 1.008 3.888 2.639 4.69l-.756.985c-1.163-.6-2.027-1.775-2.494-3.191-.468 1.5-1.38 2.76-2.615 3.394l-.756-.995c1.692-.827 2.746-2.878 2.746-4.882v-1.774h1.236v1.774zM57.963 153.839h-6.465v-1.007h7.712v1.067c0 1.343 0 2.842-.42 5.086l-1.247-.133c.42-2.123.42-3.66.42-4.953v-.06zm2.303 6.38v1.019h-9.787v-1.02h3.646v-3.813h1.247v3.814h4.894zM72.614 154.547v-2.723h1.235v6.452h-1.235v-2.722h-1.919v-1.007h1.92zm.048 6.068c0-.707-.888-1.091-2.41-1.091-1.548 0-2.423.384-2.423 1.09 0 .708.875 1.093 2.422 1.093 1.523 0 2.411-.385 2.411-1.092zm1.235 0c0 1.295-1.39 2.05-3.646 2.05-2.267 0-3.658-.755-3.658-2.05 0-1.283 1.391-2.05 3.658-2.05 2.255 0 3.646.767 3.646 2.05zm-3.19-2.686c-1.199-.42-2.063-1.272-2.519-2.316-.479 1.188-1.39 2.148-2.675 2.604l-.635-.984c1.68-.6 2.65-2.04 2.65-3.526v-.156h-2.29v-.995h5.793v.995h-2.255v.144c0 1.356.923 2.699 2.542 3.262l-.61.972zM78.245 157.137h5.133v-1.775h-5.133v1.775zm7.484 3.178v1.019h-9.811v-1.019h4.27v-2.182h-3.167v-5.59h1.224v1.824h5.133v-1.824h1.224v5.59h-3.179v2.182h4.306zM100.285 156.045h-1.487v3.107h-1.236v-7.316h1.236v3.19h1.487v1.019zm-6.692.312c.863 0 1.415-.287 1.415-.767 0-.492-.552-.791-1.415-.791-.864 0-1.415.299-1.415.79 0 .48.551.768 1.415.768zm-2.027 3.275h7.232v3.034h-1.236v-2.051h-5.996v-.983zm5.121-5.997H90.5v-.9h2.482v-1.006h1.247v1.006h2.46v.9zm.396 4.809c-2.29.408-4.82.42-6.717.432l-.144-.983c.816 0 1.763 0 2.76-.024v-.72c-1.224-.131-1.968-.708-1.968-1.56 0-1.007 1.02-1.618 2.58-1.618 1.558 0 2.578.61 2.578 1.619 0 .85-.744 1.415-1.944 1.559v.67c.936-.046 1.883-.106 2.76-.24l.095.865zM109.047 159.691h1.235v-7.867h-1.235v7.867zm1.547 1.752v1.007h-7.388v-3.55h1.247v2.543h6.141zm-6.153-4.547c.948 0 1.667-.659 1.667-1.642 0-.995-.719-1.643-1.667-1.643-.96 0-1.667.648-1.667 1.643 0 .983.707 1.642 1.667 1.642zm0 1.069c-1.631 0-2.878-1.14-2.878-2.711 0-1.583 1.247-2.711 2.878-2.711s2.867 1.128 2.867 2.711c0 1.571-1.236 2.711-2.867 2.711zM123.435 158h1.248v-6.187h-1.248V158zm-5.913-1.991h2.723v-2.531h-2.723v2.531zm4.27 3.61c.096.889 1.487 1.859 3.49 2.075l-.408.936c-1.715-.204-3.059-.9-3.718-1.835-.66.947-2.027 1.631-3.754 1.835l-.408-.936c2.027-.204 3.431-1.151 3.527-2.075h-3.107v-.947h3.107v-.971h1.259v.971h3.106v.947h-3.094zm-5.482-2.626h5.134v-4.497h-5.134v4.497zM47.384 178.666h1.235v-10.842h-1.235v10.842zm-5.805-8.107c0 .767.672 1.259 1.608 1.259.947 0 1.607-.492 1.607-1.259 0-.756-.66-1.249-1.607-1.249-.936 0-1.608.493-1.608 1.249zm-1.187 0c0-1.333 1.175-2.268 2.795-2.268 1.619 0 2.794.935 2.794 2.268 0 1.343-1.175 2.279-2.794 2.279-1.62 0-2.795-.936-2.795-2.279zm6.369 3.597c-.948.192-1.944.3-2.903.372v3.802h-1.235v-3.73c-1.019.037-1.979.048-2.818.048l-.145-1.019c1.955 0 4.678-.036 7.017-.384l.084.911zM59.672 167.812v6.561h-1.235v-2.303h-1.608v-1.02h1.608v-3.238h1.235zm-5.901 9.727h4.689v-1.668h-4.69v1.668zm-1.211.982h7.112v-3.62H52.56v3.62zm1.307-5.24c.803 0 1.368-.397 1.368-1.02 0-.61-.565-1.008-1.368-1.008-.803 0-1.367.397-1.367 1.008 0 .623.564 1.02 1.367 1.02zm0 .924c-1.487 0-2.543-.78-2.543-1.944 0-1.152 1.056-1.943 2.543-1.943s2.542.791 2.542 1.943c0 1.163-1.055 1.944-2.542 1.944zm3.142-4.355h-6.284v-.983h2.518v-1.152h1.247v1.152h2.519v.983zM67.584 171.578h4.821v-1.211h-4.821v1.211zm6.044.971H66.36v-4.389h1.224v1.259h4.821v-1.259h1.223v4.389zm-6.105 4.894h6.297v1.007h-7.532v-2.962h1.235v1.955zm7.388-3.982v.995h-4.197v1.931h-1.235v-1.931h-4.39v-.995h9.822zM85.111 167.812v6.44h-1.235v-3.262H81.68v-1.02h2.196v-2.158h1.235zm-7.305 6.992h7.305v3.862h-1.235v-2.879h-6.07v-.983zm4.054-.972c-1.163-.42-2.026-1.259-2.482-2.327-.48 1.164-1.368 2.087-2.615 2.555l-.647-.983c1.703-.6 2.626-2.039 2.626-3.622v-1.08h1.248v1.152c0 1.415.923 2.782 2.53 3.346l-.66.96zM87.204 179.35c.815-.337 1.295-.936 1.308-1.643-.049.012-.084.012-.133.012-.49 0-.923-.313-.923-.888 0-.54.432-.887.96-.887.671 0 1.066.564 1.066 1.487 0 1.258-.73 2.23-1.966 2.697l-.312-.778zM95.759 172.885h5.157v-3.214h-5.157v3.214zm7.508 3.43v1.007h-9.811v-1.007h4.27v-2.446h-3.178v-5.182h7.58v5.182h-3.167v2.446h4.306zM112.544 173.545h1.176v-5.721h-1.176v5.721zm-2.11-3.383v-2.135h1.151v5.434h-1.151v-2.339h-1.944v-.96h1.944zm3.645 7.389v.97h-7.628v-2.769h6.045v-.817h-6.068v-.959h7.292v2.687h-6.045v.888h6.404zm-4.449-4.666c-1.248.228-2.267.252-3.935.252h-.718v-4.738h4.149v.984h-2.927v2.77c1.344-.011 2.255-.059 3.334-.251l.097.983zM123.225 174.456h1.235v-6.632h-1.235v6.632zm.071 2.207c0-.672-.875-1.031-2.435-1.031-1.547 0-2.434.359-2.434 1.031 0 .659.887 1.02 2.434 1.02 1.56 0 2.435-.361 2.435-1.02zm1.235 0c0 1.259-1.39 2.003-3.67 2.003-2.278 0-3.658-.744-3.658-2.003 0-1.259 1.38-2.003 3.658-2.003 2.28 0 3.67.744 3.67 2.003zm-2.29-3.106c-1.703.275-3.167.324-5.241.324h-.912v-3.203h3.718v-1.2h-3.742v-.995h4.954v3.13h-3.706v1.26c1.859 0 3.213-.061 4.785-.324l.144 1.008zM54.642 318.392l-.348-1.188c-.3-.96-.563-1.942-.84-2.939h-.047c-.252 1.009-.528 1.98-.816 2.94l-.36 1.187h2.41zm.336 1.09h-3.07l-.756 2.52h-1.415l2.926-8.829h1.607l2.927 8.829H55.72l-.743-2.52zM59.755 317.324h1.33c1.284 0 1.98-.527 1.98-1.596 0-1.066-.696-1.439-1.98-1.439h-1.33v3.035zm3.43 4.678l-2.003-3.563h-1.427v3.563h-1.392v-8.828h2.89c1.824 0 3.19.648 3.19 2.554 0 1.367-.73 2.184-1.845 2.532l2.158 3.742h-1.571zM78.446 317.408h-1.69v5.517h-1.237v-10.83h1.236v4.293h1.691v1.02zm-6.285-2.639c0 1.931 1.008 3.886 2.64 4.69l-.757.983c-1.163-.599-2.027-1.774-2.494-3.19-.468 1.5-1.379 2.76-2.615 3.394l-.756-.996c1.691-.827 2.746-2.878 2.746-4.88v-1.776h1.236v1.775zM86.895 314.11H80.43v-1.008h7.712v1.068c0 1.343 0 2.841-.42 5.085l-1.246-.132c.42-2.123.42-3.659.42-4.953v-.06zm2.303 6.38v1.02h-9.786v-1.02h3.645v-3.815h1.248v3.815h4.893zM103.047 312.083v10.83h-1.176v-5.541h-1.283v5.013h-1.163V312.31h1.163v4.054h1.283v-4.282h1.176zm-7.664 7.244c1.247-.013 2.23-.072 3.347-.3l.107 1.02c-1.307.252-2.423.299-3.945.299h-.72v-6.967h4.006v1.007h-2.795v4.94zM107.251 320.982c0 .66.887 1.007 2.471 1.007 1.583 0 2.482-.348 2.482-1.007 0-.66-.899-1.008-2.482-1.008-1.584 0-2.471.348-2.471 1.008zm-.097-6.537c0 .708.984 1.115 2.591 1.115 1.608 0 2.579-.407 2.579-1.115 0-.719-.971-1.127-2.579-1.127-1.607 0-2.591.408-2.591 1.127zm6.297 6.537c0 1.247-1.391 1.955-3.729 1.955-2.327 0-3.731-.708-3.731-1.955 0-1.248 1.404-1.967 3.731-1.967 2.338 0 3.729.72 3.729 1.967zm.156-6.537c0 1.295-1.511 2.088-3.862 2.088-2.362 0-3.861-.793-3.861-2.088 0-1.307 1.499-2.099 3.861-2.099 2.351 0 3.862.792 3.862 2.1zm-8.767 3.814h9.799v-.996h-9.799v.996zM50.036 328.096v10.816h-1.175v-5.587h-1.235v5.085h-1.164v-10.111h1.164v4.018h1.235v-4.221h1.175zm-7.735 7.027h1.871v-4.857h-1.87v4.857zm-1.152.984h4.174v-6.824H41.15v6.824zM60.501 332.64h-7.46v-4.029h1.247v3.022h6.213v1.007zm1.127 2.399h-2.41v3.899h-1.236v-3.9h-2.518v3.9h-1.235v-3.9h-2.4v-1.007h9.799v1.007zM72.2 337.822v.971h-7.399v-2.842h5.816v-.889h-5.829v-.959h7.053v2.758h-5.818v.961H72.2zm-6.356-5.445c.935 0 1.63-.588 1.63-1.475 0-.889-.695-1.476-1.63-1.476-.959 0-1.643.587-1.643 1.476 0 .887.684 1.475 1.643 1.475zm2.758-.985c-.228 1.176-1.319 1.993-2.758 1.993-1.63 0-2.83-1.032-2.83-2.483 0-1.453 1.2-2.484 2.83-2.484 1.427 0 2.506.793 2.747 1.967h2.002v-2.303h1.248v5.482h-1.248v-2.172h-1.99zM84.668 338.912h1.176v-10.83h-1.176v10.83zm-2.183-10.613h1.163v10.097h-1.163v-5.492h-1.594v-1.008h1.594v-3.597zm-2.59 2.769c0 1.848.696 3.719 2.207 4.594l-.72.9c-1.02-.599-1.691-1.668-2.074-2.925-.384 1.367-1.08 2.529-2.123 3.189l-.745-.912c1.536-.959 2.255-2.914 2.255-4.846v-.779h-1.906v-1.02h4.893v1.02h-1.787v.779zM97.64 331.873h-1.535v2.746h-1.236v-6.537h1.236v2.771h1.535v1.02zm-8.66 3.273h7.125v3.78h-1.236v-2.783H88.98v-.997zm4.402-.959c-1.212-.396-2.075-1.222-2.543-2.253-.48 1.138-1.38 2.025-2.65 2.47l-.648-.972c1.715-.577 2.662-1.955 2.662-3.442v-.191H87.9v-1.008h5.817v1.008H91.45v.191c0 1.367.912 2.697 2.567 3.25l-.636.947zM101.556 328.432L102.515 328.432 99.181 340.161 98.221 340.161zM112.257 333.084c-1.8-.287-3.274-1.2-3.982-2.447-.696 1.26-2.195 2.16-3.994 2.447l-.48-.996c2.207-.311 3.814-1.643 3.814-3.07v-.575h1.308v.575c0 1.404 1.63 2.759 3.813 3.07l-.48.996zm.899 2.027h-4.305v3.827h-1.236v-3.827h-4.246v-1.007h9.787v1.007zM122.145 330.818v-2.723h1.236v6.452h-1.236v-2.723h-1.918v-1.006h1.918zm.049 6.068c0-.709-.889-1.09-2.412-1.09-1.546 0-2.421.381-2.421 1.09 0 .707.874 1.09 2.421 1.09 1.523 0 2.412-.383 2.412-1.09zm1.234 0c0 1.295-1.39 2.051-3.645 2.051-2.267 0-3.659-.756-3.659-2.05 0-1.284 1.392-2.05 3.659-2.05 2.254 0 3.645.766 3.645 2.05zm-3.19-2.687c-1.198-.42-2.063-1.272-2.519-2.315-.478 1.188-1.39 2.147-2.674 2.604l-.636-.984c1.68-.6 2.65-2.04 2.65-3.526v-.156h-2.29v-.996h5.793v.996h-2.254v.144c0 1.354.922 2.698 2.541 3.262l-.61.971z" mask="url(#prefix__b)"/>
            <path fill="#FFF" d="M138.865 244.323c0 31.125-25.232 56.357-56.357 56.357S26.15 275.448 26.15 244.323s25.232-56.357 56.357-56.357 56.357 25.232 56.357 56.357" mask="url(#prefix__b)"/>
            <path fill="#C5C8CF" d="M82.508 188.34c-30.87 0-55.982 25.114-55.982 55.983 0 30.87 25.113 55.983 55.982 55.983s55.982-25.113 55.982-55.983c0-30.87-25.113-55.982-55.982-55.982m0 112.715c-31.282 0-56.732-25.45-56.732-56.733 0-31.282 25.45-56.732 56.732-56.732s56.732 25.45 56.732 56.732c0 31.283-25.45 56.733-56.732 56.733" mask="url(#prefix__b)"/>
            <path fill="#FFF" d="M138.865 84.618c0 31.125-25.232 56.357-56.357 56.357S26.15 115.743 26.15 84.618s25.232-56.357 56.357-56.357 56.357 25.232 56.357 56.357" mask="url(#prefix__b)"/>
            <path fill="#C5C8CF" d="M82.508 28.636c-30.87 0-55.982 25.113-55.982 55.982 0 30.87 25.113 55.983 55.982 55.983s55.982-25.113 55.982-55.983c0-30.87-25.113-55.982-55.982-55.982m0 112.715c-31.282 0-56.732-25.45-56.732-56.733 0-31.282 25.45-56.732 56.732-56.732s56.732 25.45 56.732 56.732c0 31.283-25.45 56.733-56.732 56.733" mask="url(#prefix__b)"/>
            <path fill="#007CF7" d="M55.9 93.567L51.561 90.099 51.561 78.877 55.9 75.409z" mask="url(#prefix__b)"/>
            <path fill="#6FB6FB" d="M63.615 93.567L67.954 90.099 67.954 78.877 63.615 75.409z" mask="url(#prefix__b)"/>
            <path fill="#0065C7" d="M63.615 75.409L59.757 77.943 63.615 80.539z" mask="url(#prefix__b)"/>
            <path fill="#0065C7" d="M55.9 75.409L59.758 77.943 55.9 80.539zM63.615 88.437L59.757 90.971 63.615 93.567z" mask="url(#prefix__b)"/>
            <path fill="#0065C7" d="M55.9 88.437L59.758 90.971 55.9 93.567z" mask="url(#prefix__b)"/>
            <path fill="#273A5B" d="M95.975 88.513L93.8 81.861 91.851 81.861 89.675 88.515 87.715 81.861 85.667 81.861 88.695 91.25 90.606 91.25 92.779 84.5 94.97 91.25 96.9 91.25 99.928 81.861 97.917 81.861zM112.517 82.56c-.625-.663-1.524-.999-2.674-.999-.602 0-1.19.155-1.748.462-.464.258-.833.572-1.1.937v-1.1h-1.885v9.39h1.96v-5.18c0-.74.222-1.382.662-1.912.441-.53.973-.788 1.626-.788 1.404 0 2.103.694 2.138 2.12v5.76h1.96v-5.873c0-1.207-.316-2.154-.939-2.816M101.152 91.25L103.109 91.25 103.109 81.57 101.152 81.57zM101.064 79.783L103.197 79.783 103.197 77.652 101.064 77.652z" mask="url(#prefix__b)"/>
            <path fill="#273A5B" d="M87.911 77.641L75.436 77.641 75.436 79.535 80.689 79.535 80.689 91.335 82.658 91.335 82.658 79.535 87.911 79.535z" mask="url(#prefix__b)"/>
            <path fill="#092E6E" d="M349.638 218.165h-2.413v8.229h-2.377V209.81h2.377v6.374h2.413v1.98zm-9.291-4.663c0 2.988 1.17 5.996 3.835 7.31l-1.44 1.873c-1.73-.882-2.9-2.486-3.583-4.466-.72 2.107-1.962 3.853-3.835 4.77l-1.423-1.925c2.79-1.314 4.05-4.484 4.05-7.562v-2.412h2.396v2.412zM361.336 220.488c.63-3.133.666-5.437.666-7.365h-9.67v-1.89h12.047v1.585c0 2.07 0 4.41-.666 7.94l-2.377-.27zm4.483 1.998v1.908h-15v-1.908h5.295v-5.707h2.377v5.707h7.328zM387.617 214.851v1.964h-1.98v5.401h-2.376v-12.424h2.376v5.06h1.98zm-10.658 9.363h9.2v1.892h-11.577v-4.987h2.377v3.095zm1.98-7.561c.27-1.548.342-2.754.36-3.744h-6.176v-1.891h8.516v1.024c0 1.154 0 2.791-.377 4.88l-2.323-.27zm3.565 2.629c-3.42.63-7.274.702-10.119.72l-.216-1.89c.918 0 1.944 0 3.025-.018v-3.224h2.322v3.133c1.64-.071 3.295-.198 4.844-.414l.144 1.692zM400.378 226.43h2.377v-16.637h-2.377v16.637zm-8.103-5.817c2.522-.017 4.61-.143 6.951-.539l.252 1.926c-2.701.469-5.131.576-8.138.576h-1.495v-6.824h5.384v-2.647h-5.402v-1.89h7.832v6.41h-5.384v2.988zM424.481 209.793v16.637h-2.377v-9.526h-3.186v-1.908h3.186v-5.203h2.377zm-7.688 3.69c0 3.134 1.207 6.177 3.943 7.402l-1.404 1.889c-1.819-.881-3.026-2.502-3.709-4.501-.72 2.125-1.963 3.854-3.818 4.79l-1.476-1.91c2.808-1.296 4.07-4.518 4.07-7.67v-2.393h2.394v2.394zM430.094 220.632h3.259v-3.673h-3.259v3.673zm10.947-10.839v16.637h-2.377v-8.895h-2.971v4.987h-7.958v-11.415h2.359v3.997h3.259v-3.997h2.34v4.52h2.971v-5.834h2.377z" mask="url(#prefix__b)"/>
            <path fill="#E6E8EB" d="M368.108 160.569L368.108 191.909 405.941 191.909 405.941 160.279z" mask="url(#prefix__b)"/>
            <path fill="#000" d="M368.39 191.627h37.27v-31.063l-37.27.286v30.777zm37.834.564h-38.397v-31.902l38.397-.294v32.196z" mask="url(#prefix__b)"/>
            <path fill="#FFF" d="M407.042 160.799h-40.176c-1.534 0-2.79-1.255-2.79-2.79v-6.154c0-1.534 1.256-2.79 2.79-2.79h40.176c1.534 0 2.789 1.256 2.789 2.79v6.155c0 1.534-1.255 2.789-2.789 2.789" mask="url(#prefix__b)"/>
            <path fill="#000" d="M407.042 149.065h-40.176c-1.534 0-2.79 1.255-2.79 2.79v6.154c0 1.535 1.256 2.79 2.79 2.79h40.176c1.534 0 2.789-1.255 2.789-2.79v-6.154c0-1.535-1.255-2.79-2.789-2.79m0 .564c1.227 0 2.225.998 2.225 2.226v6.154c0 1.227-.998 2.225-2.225 2.225h-40.176c-1.227 0-2.225-.998-2.225-2.225v-6.154c0-1.228.998-2.226 2.225-2.226h40.176" mask="url(#prefix__b)"/>
            <path fill="#FFF" d="M407.042 175.054h-40.176c-1.534 0-2.79-1.255-2.79-2.79v-6.154c0-1.534 1.256-2.79 2.79-2.79h40.176c1.534 0 2.789 1.256 2.789 2.79v6.155c0 1.534-1.255 2.789-2.789 2.789" mask="url(#prefix__b)"/>
            <path fill="#000" d="M407.042 163.32h-40.176c-1.534 0-2.79 1.256-2.79 2.79v6.154c0 1.535 1.256 2.79 2.79 2.79h40.176c1.534 0 2.789-1.255 2.789-2.79v-6.155c0-1.533-1.255-2.789-2.789-2.789m0 .564c1.227 0 2.225.998 2.225 2.225v6.155c0 1.228-.998 2.226-2.225 2.226h-40.176c-1.227 0-2.225-.998-2.225-2.226v-6.155c0-1.227.998-2.225 2.225-2.225h40.176" mask="url(#prefix__b)"/>
            <path fill="#FFF" d="M407.042 189.23h-40.176c-1.534 0-2.79-1.257-2.79-2.79v-6.155c0-1.535 1.256-2.79 2.79-2.79h40.176c1.534 0 2.789 1.255 2.789 2.79v6.154c0 1.534-1.255 2.79-2.789 2.79" mask="url(#prefix__b)"/>
            <path fill="#000" d="M407.042 177.496h-40.176c-1.534 0-2.79 1.254-2.79 2.789v6.154c0 1.536 1.256 2.789 2.79 2.789h40.176c1.534 0 2.789-1.253 2.789-2.789v-6.154c0-1.535-1.255-2.789-2.789-2.789m0 .564c1.227 0 2.225.998 2.225 2.225v6.154c0 1.227-.998 2.225-2.225 2.225h-40.176c-1.227 0-2.225-.998-2.225-2.225v-6.154c0-1.227.998-2.225 2.225-2.225h40.176" mask="url(#prefix__b)"/>
            <path fill="#0A51B7" d="M394.446 154.933c0 1.042-.845 1.888-1.887 1.888-1.043 0-1.888-.846-1.888-1.888 0-1.043.845-1.888 1.888-1.888 1.042 0 1.887.845 1.887 1.888" mask="url(#prefix__b)"/>
            <path fill="#000" d="M392.559 153.045c-1.042 0-1.888.846-1.888 1.888 0 1.042.846 1.887 1.888 1.887 1.042 0 1.887-.845 1.887-1.887s-.845-1.888-1.887-1.888m0 .564c.729 0 1.322.594 1.322 1.324 0 .729-.593 1.323-1.322 1.323-.73 0-1.323-.594-1.323-1.323 0-.73.594-1.324 1.323-1.324" mask="url(#prefix__b)"/>
            <path fill="#0A51B7" d="M400.268 154.933c0 1.042-.845 1.888-1.888 1.888-1.042 0-1.887-.846-1.887-1.888 0-1.043.845-1.888 1.887-1.888 1.043 0 1.888.845 1.888 1.888" mask="url(#prefix__b)"/>
            <path fill="#000" d="M398.38 153.045c-1.042 0-1.888.846-1.888 1.888 0 1.042.846 1.887 1.888 1.887 1.042 0 1.888-.845 1.888-1.887s-.846-1.888-1.888-1.888m0 .564c.729 0 1.323.594 1.323 1.324 0 .729-.594 1.323-1.323 1.323-.73 0-1.323-.594-1.323-1.323 0-.73.594-1.324 1.323-1.324" mask="url(#prefix__b)"/>
            <path fill="#0A51B7" d="M406.089 154.933c0 1.042-.845 1.888-1.888 1.888-1.042 0-1.887-.846-1.887-1.888 0-1.043.845-1.888 1.887-1.888 1.043 0 1.888.845 1.888 1.888" mask="url(#prefix__b)"/>
            <path fill="#000" d="M404.201 153.045c-1.042 0-1.887.846-1.887 1.888 0 1.042.845 1.887 1.887 1.887 1.043 0 1.888-.845 1.888-1.887s-.845-1.888-1.888-1.888m0 .564c.73 0 1.323.594 1.323 1.324 0 .729-.594 1.323-1.323 1.323s-1.322-.594-1.322-1.323c0-.73.593-1.324 1.322-1.324" mask="url(#prefix__b)"/>
            <path fill="#0A51B7" d="M394.446 169.187c0 1.042-.845 1.888-1.887 1.888-1.043 0-1.888-.846-1.888-1.888 0-1.043.845-1.888 1.888-1.888 1.042 0 1.887.845 1.887 1.888" mask="url(#prefix__b)"/>
            <path fill="#000" d="M392.559 167.3c-1.042 0-1.888.845-1.888 1.888 0 1.042.846 1.886 1.888 1.886 1.042 0 1.887-.844 1.887-1.886 0-1.043-.845-1.888-1.887-1.888m0 .564c.729 0 1.322.594 1.322 1.324 0 .729-.593 1.322-1.322 1.322-.73 0-1.323-.593-1.323-1.322 0-.73.594-1.324 1.323-1.324" mask="url(#prefix__b)"/>
            <path fill="#0A51B7" d="M400.268 169.187c0 1.042-.845 1.888-1.888 1.888-1.042 0-1.887-.846-1.887-1.888 0-1.043.845-1.888 1.887-1.888 1.043 0 1.888.845 1.888 1.888" mask="url(#prefix__b)"/>
            <path fill="#000" d="M398.38 167.3c-1.042 0-1.888.845-1.888 1.888 0 1.042.846 1.886 1.888 1.886 1.042 0 1.888-.844 1.888-1.886 0-1.043-.846-1.888-1.888-1.888m0 .564c.729 0 1.323.594 1.323 1.324 0 .729-.594 1.322-1.323 1.322-.73 0-1.323-.593-1.323-1.322 0-.73.594-1.324 1.323-1.324" mask="url(#prefix__b)"/>
            <path fill="#0A51B7" d="M406.089 169.187c0 1.042-.845 1.888-1.888 1.888-1.042 0-1.887-.846-1.887-1.888 0-1.043.845-1.888 1.887-1.888 1.043 0 1.888.845 1.888 1.888" mask="url(#prefix__b)"/>
            <path fill="#000" d="M404.201 167.3c-1.042 0-1.887.845-1.887 1.888 0 1.042.845 1.886 1.887 1.886 1.043 0 1.888-.844 1.888-1.886 0-1.043-.845-1.888-1.888-1.888m0 .564c.73 0 1.323.594 1.323 1.324 0 .729-.594 1.322-1.323 1.322s-1.322-.593-1.322-1.322c0-.73.593-1.324 1.322-1.324" mask="url(#prefix__b)"/>
            <path fill="#0A51B7" d="M394.446 183.362c0 1.042-.845 1.888-1.887 1.888-1.043 0-1.888-.846-1.888-1.888 0-1.042.845-1.888 1.888-1.888 1.042 0 1.887.846 1.887 1.888" mask="url(#prefix__b)"/>
            <path fill="#000" d="M392.559 181.475c-1.042 0-1.888.846-1.888 1.888 0 1.042.846 1.887 1.888 1.887 1.042 0 1.887-.845 1.887-1.887s-.845-1.888-1.887-1.888m0 .564c.729 0 1.322.594 1.322 1.324 0 .728-.593 1.322-1.322 1.322-.73 0-1.323-.594-1.323-1.322 0-.73.594-1.325 1.323-1.325" mask="url(#prefix__b)"/>
            <path fill="#0A51B7" d="M400.268 183.362c0 1.042-.845 1.888-1.888 1.888-1.042 0-1.887-.846-1.887-1.888 0-1.042.845-1.888 1.887-1.888 1.043 0 1.888.846 1.888 1.888" mask="url(#prefix__b)"/>
            <path fill="#000" d="M398.38 181.475c-1.042 0-1.888.846-1.888 1.888 0 1.042.846 1.887 1.888 1.887 1.042 0 1.888-.845 1.888-1.887s-.846-1.888-1.888-1.888m0 .564c.729 0 1.323.594 1.323 1.324 0 .728-.594 1.322-1.323 1.322-.73 0-1.323-.594-1.323-1.322 0-.73.594-1.325 1.323-1.325" mask="url(#prefix__b)"/>
            <path fill="#0A51B7" d="M406.089 183.362c0 1.042-.845 1.888-1.888 1.888-1.042 0-1.887-.846-1.887-1.888 0-1.042.845-1.888 1.887-1.888 1.043 0 1.888.846 1.888 1.888" mask="url(#prefix__b)"/>
            <path fill="#000" d="M404.201 181.475c-1.042 0-1.887.846-1.887 1.888 0 1.042.845 1.887 1.887 1.887 1.043 0 1.888-.845 1.888-1.887s-.845-1.888-1.888-1.888m0 .564c.73 0 1.323.594 1.323 1.324 0 .728-.594 1.322-1.323 1.322s-1.322-.594-1.322-1.322c0-.73.593-1.325 1.322-1.325" mask="url(#prefix__b)"/>
            <path fill="#FFF" d="M368.912 151.835L368.912 158.03" mask="url(#prefix__b)"/>
            <path fill="#000" d="M368.63 158.03L369.194 158.03 369.194 151.835 368.63 151.835z" mask="url(#prefix__b)"/>
            <path fill="#FFF" d="M372.113 151.835L372.113 158.03" mask="url(#prefix__b)"/>
            <path fill="#000" d="M371.832 158.03L372.396 158.03 372.396 151.835 371.832 151.835z" mask="url(#prefix__b)"/>
            <path fill="#FFF" d="M375.315 151.835L375.315 158.03" mask="url(#prefix__b)"/>
            <path fill="#000" d="M375.033 158.03L375.597 158.03 375.597 151.835 375.033 151.835z" mask="url(#prefix__b)"/>
            <path fill="#FFF" d="M378.516 151.835L378.516 158.03" mask="url(#prefix__b)"/>
            <path fill="#000" d="M378.234 158.03L378.798 158.03 378.798 151.835 378.234 151.835z" mask="url(#prefix__b)"/>
            <path fill="#FFF" d="M381.717 151.835L381.717 158.03" mask="url(#prefix__b)"/>
            <path fill="#000" d="M381.435 158.03L381.999 158.03 381.999 151.835 381.435 151.835z" mask="url(#prefix__b)"/>
            <path fill="#FFF" d="M384.918 151.835L384.918 158.03" mask="url(#prefix__b)"/>
            <path fill="#000" d="M384.636 158.03L385.2 158.03 385.2 151.835 384.636 151.835z" mask="url(#prefix__b)"/>
            <path fill="#FFF" d="M370.513 151.835L370.513 158.03" mask="url(#prefix__b)"/>
            <path fill="#000" d="M370.231 158.03L370.795 158.03 370.795 151.835 370.231 151.835z" mask="url(#prefix__b)"/>
            <path fill="#FFF" d="M373.714 151.835L373.714 158.03" mask="url(#prefix__b)"/>
            <path fill="#000" d="M373.432 158.03L373.996 158.03 373.996 151.835 373.432 151.835z" mask="url(#prefix__b)"/>
            <path fill="#FFF" d="M376.915 151.835L376.915 158.03" mask="url(#prefix__b)"/>
            <path fill="#000" d="M376.633 158.03L377.197 158.03 377.197 151.835 376.633 151.835z" mask="url(#prefix__b)"/>
            <path fill="#FFF" d="M380.116 151.835L380.116 158.03" mask="url(#prefix__b)"/>
            <path fill="#000" d="M379.834 158.03L380.398 158.03 380.398 151.835 379.834 151.835z" mask="url(#prefix__b)"/>
            <path fill="#FFF" d="M383.317 151.835L383.317 158.03" mask="url(#prefix__b)"/>
            <path fill="#000" d="M383.036 158.03L383.6 158.03 383.6 151.835 383.036 151.835z" mask="url(#prefix__b)"/>
            <path fill="#FFF" d="M368.912 166.09L368.912 172.285" mask="url(#prefix__b)"/>
            <path fill="#000" d="M368.63 172.285L369.194 172.285 369.194 166.09 368.63 166.09z" mask="url(#prefix__b)"/>
            <path fill="#FFF" d="M372.113 166.09L372.113 172.285" mask="url(#prefix__b)"/>
            <path fill="#000" d="M371.832 172.285L372.396 172.285 372.396 166.09 371.832 166.09z" mask="url(#prefix__b)"/>
            <path fill="#FFF" d="M375.315 166.09L375.315 172.285" mask="url(#prefix__b)"/>
            <path fill="#000" d="M375.033 172.285L375.597 172.285 375.597 166.09 375.033 166.09z" mask="url(#prefix__b)"/>
            <path fill="#FFF" d="M378.516 166.09L378.516 172.285" mask="url(#prefix__b)"/>
            <path fill="#000" d="M378.234 172.285L378.798 172.285 378.798 166.09 378.234 166.09z" mask="url(#prefix__b)"/>
            <path fill="#FFF" d="M381.717 166.09L381.717 172.285" mask="url(#prefix__b)"/>
            <path fill="#000" d="M381.435 172.285L381.999 172.285 381.999 166.09 381.435 166.09z" mask="url(#prefix__b)"/>
            <path fill="#FFF" d="M384.918 166.09L384.918 172.285" mask="url(#prefix__b)"/>
            <path fill="#000" d="M384.636 172.285L385.2 172.285 385.2 166.09 384.636 166.09z" mask="url(#prefix__b)"/>
            <path fill="#FFF" d="M370.513 166.09L370.513 172.285" mask="url(#prefix__b)"/>
            <path fill="#000" d="M370.231 172.285L370.795 172.285 370.795 166.09 370.231 166.09z" mask="url(#prefix__b)"/>
            <path fill="#FFF" d="M373.714 166.09L373.714 172.285" mask="url(#prefix__b)"/>
            <path fill="#000" d="M373.432 172.285L373.996 172.285 373.996 166.09 373.432 166.09z" mask="url(#prefix__b)"/>
            <path fill="#FFF" d="M376.915 166.09L376.915 172.285" mask="url(#prefix__b)"/>
            <path fill="#000" d="M376.633 172.285L377.197 172.285 377.197 166.09 376.633 166.09z" mask="url(#prefix__b)"/>
            <path fill="#FFF" d="M380.116 166.09L380.116 172.285" mask="url(#prefix__b)"/>
            <path fill="#000" d="M379.834 172.285L380.398 172.285 380.398 166.09 379.834 166.09z" mask="url(#prefix__b)"/>
            <path fill="#FFF" d="M383.317 166.09L383.317 172.285" mask="url(#prefix__b)"/>
            <path fill="#000" d="M383.036 172.285L383.6 172.285 383.6 166.09 383.036 166.09z" mask="url(#prefix__b)"/>
            <path fill="#FFF" d="M368.912 180.345L368.912 186.54" mask="url(#prefix__b)"/>
            <path fill="#000" d="M368.63 186.54L369.194 186.54 369.194 180.345 368.63 180.345z" mask="url(#prefix__b)"/>
            <path fill="#FFF" d="M372.113 180.345L372.113 186.54" mask="url(#prefix__b)"/>
            <path fill="#000" d="M371.832 186.54L372.396 186.54 372.396 180.345 371.832 180.345z" mask="url(#prefix__b)"/>
            <path fill="#FFF" d="M375.315 180.345L375.315 186.54" mask="url(#prefix__b)"/>
            <path fill="#000" d="M375.033 186.54L375.597 186.54 375.597 180.345 375.033 180.345z" mask="url(#prefix__b)"/>
            <path fill="#FFF" d="M378.516 180.345L378.516 186.54" mask="url(#prefix__b)"/>
            <path fill="#000" d="M378.234 186.54L378.798 186.54 378.798 180.345 378.234 180.345z" mask="url(#prefix__b)"/>
            <path fill="#FFF" d="M381.717 180.345L381.717 186.54" mask="url(#prefix__b)"/>
            <path fill="#000" d="M381.435 186.54L381.999 186.54 381.999 180.345 381.435 180.345z" mask="url(#prefix__b)"/>
            <path fill="#FFF" d="M384.918 180.345L384.918 186.54" mask="url(#prefix__b)"/>
            <path fill="#000" d="M384.636 186.54L385.2 186.54 385.2 180.345 384.636 180.345z" mask="url(#prefix__b)"/>
            <path fill="#FFF" d="M370.513 180.345L370.513 186.54" mask="url(#prefix__b)"/>
            <path fill="#000" d="M370.231 186.54L370.795 186.54 370.795 180.345 370.231 180.345z" mask="url(#prefix__b)"/>
            <path fill="#FFF" d="M373.714 180.345L373.714 186.54" mask="url(#prefix__b)"/>
            <path fill="#000" d="M373.432 186.54L373.996 186.54 373.996 180.345 373.432 180.345z" mask="url(#prefix__b)"/>
            <path fill="#FFF" d="M376.915 180.345L376.915 186.54" mask="url(#prefix__b)"/>
            <path fill="#000" d="M376.633 186.54L377.197 186.54 377.197 180.345 376.633 180.345z" mask="url(#prefix__b)"/>
            <path fill="#FFF" d="M380.116 180.345L380.116 186.54" mask="url(#prefix__b)"/>
            <path fill="#000" d="M379.834 186.54L380.398 186.54 380.398 180.345 379.834 180.345z" mask="url(#prefix__b)"/>
            <path fill="#FFF" d="M383.317 180.345L383.317 186.54" mask="url(#prefix__b)"/>
            <path fill="#000" d="M383.036 186.54L383.6 186.54 383.6 180.345 383.036 180.345z" mask="url(#prefix__b)"/>
            <path fill="#E6E8EB" d="M401.75 180.48s.187-1.194 1.877-2.008c1.69-.813 5.93-1.964 11.109-1.249 5.179.715 6.54 2 6.54 2l.623 1.377-.001 15.146s-.685 1.814-4.158 2.565c-3.473.751-10.389 1.001-13.706-.532 0 0-2.097-.876-2.284-2.19v-15.11z" mask="url(#prefix__b)"/>
            <path fill="#000" d="M402.032 195.575c.143.334 1.614 3.208 9.786 3.208 8.157 0 9.648-2.864 9.797-3.209l.001-15.187c-.106-.295-1.354-3.106-10.095-3.106-9.134 0-9.487 3.12-9.489 3.152v15.142zm9.786 3.772c-9.117 0-10.292-3.489-10.338-3.637l-.012-.083v-15.212c.007-.165.297-3.698 10.053-3.698 9.712 0 10.62 3.42 10.653 3.564l.007.064-.014 15.366c-.046.148-1.233 3.636-10.349 3.636z" mask="url(#prefix__b)"/>
            <path fill="#000" d="M411.604 189.287c-8.856 0-10.073-3.262-10.121-3.402l.534-.185c.01.03 1.204 3.023 9.59 3.023l.344-.002c8.68-.083 9.668-2.977 9.676-3.006l.543.154c-.036.136-1.026 3.328-10.213 3.416l-.353.002M411.604 194.245c-8.856 0-10.073-3.263-10.121-3.403l.534-.182-.267.091.267-.094c.01.03 1.264 3.089 9.935 3.022 8.678-.083 9.668-2.978 9.675-3.007l.543.154c-.036.136-1.026 3.329-10.213 3.417l-.353.002M411.608 184.33c-8.862 0-10.078-3.263-10.125-3.403l.533-.185c.011.03 1.204 3.024 9.594 3.024l.342-.002c8.678-.083 9.667-2.978 9.676-3.007l.543.154c-.038.136-1.027 3.329-10.214 3.417l-.349.002" mask="url(#prefix__b)"/>
            <path fill="#FFF" d="M734.04 173.451c0 31.125-25.232 56.356-56.357 56.356s-56.357-25.23-56.357-56.356 25.232-56.357 56.357-56.357 56.357 25.231 56.357 56.357" mask="url(#prefix__b)"/>
            <path fill="#C5C8CF" d="M677.682 117.469c-30.869 0-55.982 25.113-55.982 55.982s25.113 55.982 55.982 55.982c30.87 0 55.982-25.113 55.982-55.982 0-30.87-25.113-55.982-55.982-55.982m0 112.714c-31.282 0-56.732-25.45-56.732-56.732s25.45-56.732 56.732-56.732 56.732 25.45 56.732 56.732c0 31.283-25.45 56.732-56.732 56.732M386.813 270.558L387.563 270.558 387.563 236.73 386.813 236.73z" mask="url(#prefix__b)"/>
            <path fill="#C5C8CF" d="M387.188 242.705L382.426 242.705 384.808 238.581 387.188 234.457 389.57 238.581 391.95 242.705z" mask="url(#prefix__b)"/>
            <path fill="#273A5B" d="M80.759 244.8L76.164 237.455 76.128 237.4 74.219 237.4 74.219 251.04 76.182 251.04 76.182 242.962 76.118 241.034 80.152 247.427 80.188 247.484 81.331 247.484 85.401 241.035 85.336 242.965 85.336 251.04 87.299 251.04 87.299 237.4 85.39 237.4zM95.576 246.988c-.016.662-.289 1.248-.813 1.743-.542.513-1.166.773-1.854.773-.482 0-.907-.143-1.264-.424-.353-.278-.525-.613-.525-1.028 0-.462.213-.84.652-1.157.445-.32 1.01-.482 1.68-.482.9 0 1.615.194 2.124.575m-2.42-5.719c-1.427 0-2.705.624-3.696 1.806l-.07.085 1.373 1.374.084-.105c.415-.517 1.268-1.384 2.332-1.384.726 0 1.26.184 1.728.596.451.4.67.868.67 1.436v.192c-.649-.32-1.458-.48-2.406-.48-1.22 0-2.21.29-2.947.866-.745.583-1.123 1.377-1.123 2.36 0 .93.357 1.716 1.061 2.336.7.616 1.58.928 2.616.928 1.143 0 2.083-.478 2.798-1.422v1.186h1.89v-5.835c0-1.215-.386-2.187-1.144-2.888-.746-.687-1.84-1.05-3.166-1.05M107.406 241.877L107.406 241.632 105.027 241.632 101.23 245.481 101.23 237.402 100.99 237.402 99.267 238.891 99.267 251.042 101.23 251.042 101.23 248.035 102.494 246.788 105.312 251.042 107.574 251.042 107.574 250.811 103.867 245.398z" mask="url(#prefix__b)"/>
            <path fill="#273A5B" d="M109.611 245.122c.163-.625.456-1.131.852-1.469.443-.379.981-.571 1.598-.571.752 0 1.358.201 1.801.598.396.354.65.862.724 1.442h-4.975zm7.063 1.355c0-1.632-.428-2.963-1.239-3.849-.824-.902-1.948-1.359-3.337-1.359-1.352 0-2.479.482-3.347 1.434-.853.936-1.305 2.196-1.305 3.644 0 1.409.44 2.557 1.344 3.513.893.945 2.044 1.423 3.421 1.423.94 0 1.796-.225 2.542-.673.597-.357 1.166-.9 1.561-1.492l.057-.085-1.406-1.298-.078.117c-.662.998-1.586 1.546-2.602 1.546-.835 0-1.463-.228-1.976-.718-.544-.521-.81-1.108-.856-1.894h7.191l.03-.309z" mask="url(#prefix__b)"/>
            <path fill="#6FB6FB" d="M49.742 244.825L48.325 245.643 48.335 249.237 57.024 244.224 53.903 242.423zM65.722 245.643L64.304 244.826 60.144 242.423 57.024 244.225 65.722 249.248z" mask="url(#prefix__b)"/>
            <path fill="#BFDCFF" d="M65.723 245.643L65.723 249.248 57.024 254.269 57.024 250.666 58.442 249.846z" mask="url(#prefix__b)"/>
            <path fill="#007CF7" d="M48.325 245.643L48.325 249.248 57.024 254.269 57.024 250.666 55.606 249.846z" mask="url(#prefix__b)"/>
            <path fill="#6FB6FB" d="M64.304 238.384L57.023 234.181 49.742 238.384 48.325 239.203 48.335 242.796 57.029 237.78 65.723 242.806 65.722 239.203z" mask="url(#prefix__b)"/>
            <path fill="#BFDCFF" d="M65.723 239.202L65.723 242.806 57.024 247.828 57.024 244.224 58.442 243.406z" mask="url(#prefix__b)"/>
            <path fill="#007CF7" d="M48.325 239.202L48.325 242.806 57.024 247.828 57.024 244.224 55.606 243.406z" mask="url(#prefix__b)"/>
            <path fill="#273A5B" d="M683.424 181.298L685.385 181.298 685.385 171.595 683.424 171.595zM683.336 169.804L685.473 169.804 685.473 167.666 683.336 167.666zM708.867 171.893L706.922 178.556 704.744 171.893 702.792 171.893 700.612 178.556 698.675 171.98 698.649 171.893 696.597 171.893 699.604 181.215 699.631 181.298 701.546 181.298 703.722 174.538 705.915 181.298 707.848 181.298 710.882 171.893zM690.175 173.91c.444-.38.982-.572 1.6-.572.752 0 1.358.202 1.802.597.397.355.652.865.725 1.445h-4.98c.163-.626.457-1.133.853-1.47m1.637-2.387c-1.353 0-2.48.483-3.35 1.435-.855.937-1.307 2.198-1.307 3.647 0 1.41.44 2.561 1.345 3.517.895.945 2.046 1.425 3.424 1.425.942 0 1.799-.226 2.545-.673.597-.358 1.167-.902 1.563-1.493l.058-.086-1.407-1.299-.08.117c-.661.998-1.587 1.548-2.604 1.548-.836 0-1.464-.229-1.978-.72-.537-.514-.812-1.119-.858-1.895h7.219l.005-.115c.005-.099.005-.194.005-.194 0-1.634-.428-2.967-1.24-3.853-.825-.904-1.95-1.36-3.34-1.36M675.761 178.417L671.658 167.669 669.492 167.669 674.75 181.221 674.78 181.298 676.739 181.298 682.113 167.834 682.179 167.669 680.012 167.669z" mask="url(#prefix__b)"/>
            <path fill="#6FB6FB" d="M657.595 167.107L653.186 164.562 650.758 165.963 657.58 172.786z" mask="url(#prefix__b)"/>
            <path fill="#007CF7" d="M657.58 176.426L661.884 171.935 661.884 169.584 657.593 167.107z" mask="url(#prefix__b)"/>
            <path fill="#0065C7" d="M648.768 182.101L653.185 184.653 655.616 183.248 648.79 176.428z" mask="url(#prefix__b)"/>
            <path fill="#BFDCFF" d="M644.487 170.212L644.487 169.584 650.758 165.964 655.006 170.212z" mask="url(#prefix__b)"/>
            <path fill="#DEEDFF" d="M644.487 170.212L644.487 177.088 651.364 170.212z" mask="url(#prefix__b)"/>
            <path fill="#007CF7" d="M648.79 172.786L644.486 177.088 644.486 179.629 648.672 182.045 648.787 182.112z" mask="url(#prefix__b)"/>
            <path fill="#6FB6FB" d="M661.883 179.629L655.615 183.248 651.364 179.002 661.883 179.002z" mask="url(#prefix__b)"/>
            <path fill="#007CF7" d="M653.146 171.87c-1.489 0-2.696 1.207-2.696 2.696s1.207 2.696 2.696 2.696 2.696-1.207 2.696-2.696-1.207-2.696-2.696-2.696" mask="url(#prefix__b)"/>
            <path fill="#FFF" d="M654.506 172.434c-.427 0-.773.346-.773.772 0 .428.346.774.773.774.427 0 .773-.346.773-.774 0-.426-.346-.772-.773-.772" mask="url(#prefix__b)"/>
            <path fill="#BFDCFF" d="M655.005 179.002L657.579 176.426 661.883 171.936 661.883 179.002z" mask="url(#prefix__b)"/>
            <path fill="#000" d="M664.69 249.049h-1.692v5.518h-1.236v-10.83H663v4.292h1.69v1.02zm-6.286-2.64c0 1.933 1.009 3.888 2.64 4.69l-.756.985c-1.163-.6-2.028-1.775-2.495-3.191-.467 1.5-1.379 2.76-2.615 3.394l-.755-.995c1.69-.827 2.745-2.878 2.745-4.882v-1.774h1.236v1.774zM673.139 245.75h-6.465v-1.006h7.712v1.067c0 1.343 0 2.842-.42 5.086l-1.247-.133c.42-2.123.42-3.66.42-4.953v-.06zm2.303 6.38v1.02h-9.787v-1.02h3.646v-3.813h1.247v3.814h4.894zM687.779 254.578h1.235v-10.842h-1.235v10.842zm-5.805-8.107c0 .767.672 1.259 1.607 1.259.947 0 1.607-.492 1.607-1.259 0-.756-.66-1.248-1.607-1.248-.935 0-1.607.492-1.607 1.248zm-1.187 0c0-1.332 1.175-2.268 2.794-2.268s2.795.936 2.795 2.268c0 1.343-1.176 2.278-2.795 2.278s-2.794-.935-2.794-2.278zm6.368 3.597c-.947.192-1.943.3-2.902.372v3.802h-1.235v-3.73c-1.02.037-1.98.048-2.819.048l-.144-1.019c1.955 0 4.677-.036 7.016-.384l.084.911zM700.065 243.725v6.56h-1.235v-2.303h-1.608v-1.02h1.608v-3.237h1.235zm-5.9 9.727h4.688v-1.668h-4.689v1.668zm-1.212.982h7.112v-3.621h-7.112v3.62zm1.307-5.24c.803 0 1.368-.397 1.368-1.02 0-.612-.565-1.008-1.368-1.008-.803 0-1.367.397-1.367 1.007 0 .624.564 1.02 1.367 1.02zm0 .924c-1.487 0-2.543-.781-2.543-1.945 0-1.15 1.056-1.942 2.543-1.942s2.542.792 2.542 1.942c0 1.163-1.055 1.945-2.542 1.945zm3.142-4.356h-6.284v-.982h2.518v-1.153h1.247v1.153h2.52v.982zM628.209 265.049h-1.691v5.518h-1.236v-10.83h1.236v4.292h1.691v1.02zm-6.285-2.64c0 1.933 1.008 3.888 2.639 4.69l-.756.984c-1.163-.6-2.027-1.774-2.494-3.19-.468 1.5-1.379 2.759-2.615 3.394l-.756-.995c1.691-.828 2.746-2.88 2.746-4.882v-1.774h1.236v1.774zM636.658 261.75h-6.465v-1.007h7.712v1.068c0 1.343 0 2.842-.42 5.086l-1.247-.133c.42-2.122.42-3.658.42-4.953v-.06zm2.303 6.382v1.018h-9.787v-1.018h3.646v-3.815h1.247v3.815h4.894zM652.81 259.724v10.83h-1.176v-5.541h-1.283v5.014h-1.163v-10.075h1.163v4.053h1.283v-4.281h1.176zm-7.664 7.243c1.247-.012 2.23-.07 3.347-.3l.107 1.02c-1.307.252-2.423.3-3.945.3h-.72v-6.968h4.006v1.007h-2.795v4.941zM657.013 268.623c0 .66.887 1.008 2.47 1.008 1.584 0 2.483-.348 2.483-1.008 0-.659-.9-1.008-2.482-1.008-1.584 0-2.471.349-2.471 1.008zm-.097-6.536c0 .707.984 1.115 2.59 1.115 1.609 0 2.58-.408 2.58-1.115 0-.72-.971-1.128-2.58-1.128-1.606 0-2.59.408-2.59 1.128zm6.297 6.536c0 1.247-1.391 1.955-3.73 1.955-2.326 0-3.73-.708-3.73-1.955s1.404-1.967 3.73-1.967c2.339 0 3.73.72 3.73 1.967zm.156-6.536c0 1.295-1.511 2.087-3.862 2.087-2.362 0-3.861-.792-3.861-2.087 0-1.308 1.499-2.099 3.86-2.099 2.352 0 3.863.791 3.863 2.099zm-8.767 3.813h9.799v-.995h-9.8v.995zM678.26 259.736v10.817h-1.174v-5.588h-1.235v5.085h-1.164v-10.11h1.164v4.018h1.235v-4.222h1.175zm-7.734 7.027h1.87v-4.856h-1.87v4.856zm-1.152.984h4.174v-6.824h-4.174v6.824zM688.726 264.281h-7.46v-4.029h1.247v3.022h6.213v1.007zm1.127 2.4h-2.41v3.897h-1.236v-3.898h-2.518v3.898h-1.235v-3.898h-2.4v-1.007h9.799v1.007zM700.425 269.463v.972h-7.4v-2.843h5.817v-.888h-5.83v-.96h7.054v2.759h-5.818v.96h6.177zm-6.356-5.445c.935 0 1.63-.588 1.63-1.475 0-.888-.695-1.476-1.63-1.476-.96 0-1.643.588-1.643 1.476 0 .887.684 1.475 1.643 1.475zm2.758-.984c-.228 1.176-1.32 1.992-2.758 1.992-1.631 0-2.831-1.032-2.831-2.483 0-1.452 1.2-2.483 2.83-2.483 1.428 0 2.507.792 2.747 1.966h2.003v-2.302h1.248v5.48h-1.248v-2.17h-1.991zM713.157 270.59h1.247v-10.866h-1.247v10.866zm-3.67-8.18c0 1.991 1.104 3.982 2.807 4.75l-.72.983c-1.247-.587-2.195-1.787-2.686-3.25-.492 1.571-1.451 2.855-2.759 3.49l-.732-1.032c1.728-.779 2.855-2.854 2.855-4.941v-1.774h1.235v1.774zM726.524 263.406h-1.535v2.65h-1.236v-6.333h1.236v2.663h1.535v1.02zm-8.659 3.13h7.124v4.042h-1.236v-3.047h-5.888v-.995zm4.138-6.152c0 2.806-1.86 4.761-5.05 5.612l-.504-.97c2.543-.648 4.03-1.992 4.246-3.647h-3.73v-.995h5.038zM737.588 265.277h-1.547v5.29h-1.235v-10.844h1.235v4.534h1.547v1.02zm-6.716.336c.852 0 1.427-.408 1.427-1.068 0-.67-.575-1.08-1.427-1.08-.851 0-1.44.41-1.44 1.08 0 .66.589 1.068 1.44 1.068zm3.202-3.635h-6.44v-.995h2.614v-1.224h1.236v1.224h2.59v.995zm-2.59 5.541c.923-.048 1.846-.107 2.71-.239l.096.911c-2.314.408-4.821.432-6.681.432l-.167-1.02c.828 0 1.798 0 2.806-.036v-1.055c-1.2-.204-1.978-.935-1.978-1.967 0-1.223 1.054-2.027 2.602-2.027 1.535 0 2.59.804 2.59 2.027 0 1.032-.78 1.775-1.978 1.967v1.007zM626.53 286.648h-1.692v5.518h-1.236v-10.83h1.236v4.292h1.691v1.02zm-6.286-2.639c0 1.932 1.008 3.887 2.64 4.69l-.757.983c-1.163-.599-2.027-1.774-2.494-3.189-.468 1.5-1.379 2.758-2.615 3.393l-.756-.995c1.691-.828 2.746-2.879 2.746-4.882v-1.774h1.236v1.774zM634.979 283.35h-6.466v-1.008h7.712v1.069c0 1.342 0 2.841-.42 5.086l-1.246-.134c.42-2.122.42-3.658.42-4.952v-.06zm2.303 6.381v1.019h-9.788v-1.019h3.646v-3.815h1.248v3.815h4.894zM651.13 281.323v10.83h-1.176v-5.54h-1.283v5.013h-1.163v-10.074h1.163v4.053h1.283v-4.282h1.176zm-7.664 7.244c1.247-.012 2.23-.07 3.347-.3l.107 1.02c-1.307.252-2.423.3-3.945.3h-.72v-6.968h4.006v1.007h-2.795v4.941zM655.333 290.223c0 .66.887 1.008 2.471 1.008 1.583 0 2.482-.348 2.482-1.008s-.899-1.008-2.482-1.008c-1.584 0-2.471.349-2.471 1.008zm-.097-6.536c0 .707.984 1.115 2.591 1.115 1.608 0 2.579-.408 2.579-1.115 0-.72-.971-1.128-2.579-1.128-1.607 0-2.591.408-2.591 1.128zm6.297 6.536c0 1.247-1.391 1.955-3.729 1.955-2.327 0-3.731-.708-3.731-1.955s1.404-1.967 3.731-1.967c2.338 0 3.729.72 3.729 1.967zm.156-6.536c0 1.295-1.511 2.087-3.862 2.087-2.362 0-3.861-.792-3.861-2.087 0-1.308 1.499-2.1 3.861-2.1 2.351 0 3.862.792 3.862 2.1zm-8.767 3.813h9.799v-.995h-9.799v.995zM676.606 291.074v.995h-7.328v-2.914h5.793v-.899h-5.818v-.984h7.053v2.807h-5.793v.995h6.092zm-4.043-7.304c-.672 1.656-2.266 2.758-4.653 3.298l-.431-1.008c2.565-.55 3.897-1.738 4.064-3.25h-3.476v-.995h4.845c0 .348-.024.684-.085.995h2.244v-1.474h1.235v5.492h-1.236v-.983h-2.65v-.959h2.65v-1.116h-2.507zM688.365 286.828h-1.596v5.338h-1.247v-10.83h1.247v4.449h1.596v1.043zm-5.529.492c.275-1.679.3-2.938.3-3.849h-4.294v-.997h5.504v.72c0 .948 0 2.316-.299 4.235l-1.21-.109zm-1.21 1.487c1.126-.047 2.265-.108 3.32-.251l.061.911c-2.23.372-4.714.42-6.609.42l-.132-1.02c.66 0 1.391-.012 2.147-.023v-3.263h1.212v3.226zM700.51 284.058v-2.722h1.235v6.452h-1.235v-2.723h-1.92v-1.007h1.92zm.048 6.069c0-.709-.888-1.091-2.411-1.091-1.547 0-2.422.382-2.422 1.09 0 .708.875 1.091 2.422 1.091 1.523 0 2.41-.383 2.41-1.09zm1.235 0c0 1.294-1.391 2.05-3.646 2.05-2.267 0-3.658-.756-3.658-2.05 0-1.284 1.39-2.05 3.658-2.05 2.255 0 3.646.767 3.646 2.05zm-3.19-2.687c-1.2-.42-2.063-1.272-2.52-2.315-.478 1.188-1.39 2.147-2.674 2.603l-.635-.983c1.679-.6 2.65-2.04 2.65-3.526v-.156h-2.29v-.995h5.793v.995h-2.255v.144c0 1.355.923 2.699 2.542 3.262l-.611.971zM706.141 286.648h5.133v-1.774h-5.133v1.774zm7.483 3.179v1.02h-9.811v-1.02h4.27v-2.183h-3.166v-5.588h1.224v1.822h5.132v-1.822h1.224v5.588h-3.179v2.183h4.306zM725.903 287.152h1.235v-5.816h-1.235v5.816zm-4.619 3.886h4.63v-1.223h-4.63v1.223zm0-3.382v1.199h4.63v-1.199h1.224v4.378h-7.076v-4.378h1.222zm-1.654-3.31c0 .912.683 1.499 1.667 1.499.971 0 1.667-.587 1.667-1.499 0-.9-.696-1.499-1.667-1.499-.984 0-1.667.599-1.667 1.499zm4.533 0c0 1.487-1.212 2.518-2.866 2.518-1.655 0-2.879-1.031-2.879-2.518 0-1.488 1.224-2.519 2.879-2.519 1.654 0 2.866 1.031 2.866 2.519zM738.226 281.336v6.668h-1.235v-1.847h-1.944v-.996h1.944v-1.27h-1.944v-.996h1.944v-1.56h1.235zm-7.328 7.208h7.328v3.646h-1.235v-2.64h-6.093v-1.006zm4.113-1.2c-1.306.228-2.41.264-4.533.264h-.792v-3.358h3.454v-1.295h-3.477v-.996h4.7v3.238h-3.465v1.404c1.81 0 2.807-.048 3.98-.252l.133.996z" mask="url(#prefix__b)"/>
        </g>
    </g>
</svg>
