<svg xmlns="http://www.w3.org/2000/svg" xmlns:xlink="http://www.w3.org/1999/xlink" width="780" height="210" viewBox="0 0 780 210">
    <defs>
        <path id="spvn3w1e6a" d="M0 0H780V210H0z"/>
        <path id="fvpexaercc" d="M0.57 0.677L137.357 0.677 137.357 18.677 0.57 18.677z"/>
        <path id="crk7hcfzie" d="M0 203L767.357 203 767.357 0.745 0 0.745z"/>
        <path id="hx655elpeg" d="M0.751 7.266L0.751 20.298 12.037 26.813 23.323 20.298 23.323 7.266 12.037 0.75z"/>
        <path id="f3yhpktyni" d="M0.971 13.298L12.037 19.617 12.037 6.782 0.971 0.393z"/>
        <path id="2e0c52ch7k" d="M.751 7.266v13.032l11.286 6.515 11.286-6.515V7.266L12.037.75.751 7.266zm.388 12.808V7.489l10.898-6.292 10.898 6.292v12.585l-10.898 6.292-10.898-6.292z"/>
    </defs>
    <g fill="none" fill-rule="evenodd">
        <g>
            <g>
                <g>
                    <g>
                        <g transform="translate(-760 -4610) translate(0 2554) translate(319 636) translate(61 1255) translate(380 165)">
                            <mask id="iwaaf2egfb" fill="#fff">
                                <use xlink:href="#spvn3w1e6a"/>
                            </mask>
                            <use fill="#F8F9FB" xlink:href="#spvn3w1e6a"/>
                            <g mask="url(#iwaaf2egfb)">
                                <g>
                                    <text font-family="NotoSansCJKkr-Medium, Noto Sans CJK KR" font-size="12" font-weight="400" transform="translate(6)">
                                        <tspan x="4.634" y="154.932" fill="#000">D</tspan> <tspan x="13.022" y="154.932" fill="#000" letter-spacing="-.204">a</tspan> <tspan x="19.514" y="154.932" fill="#000" letter-spacing="-.288">t</tspan> <tspan x="23.69" y="154.932" fill="#000">a </tspan> <tspan x="33.29" y="154.932" fill="#000" letter-spacing="-.312">c</tspan> <tspan x="38.87" y="154.932" fill="#000">on</tspan> <tspan x="53.726" y="154.932" fill="#000" letter-spacing="-.072">v</tspan> <tspan x="60.122" y="154.932" fill="#000">e</tspan> <tspan x="66.902" y="154.932" fill="#000" letter-spacing="-.072">r</tspan> <tspan x="71.666" y="154.932" fill="#000">sion </tspan> <tspan x="98.426" y="154.932" fill="#000" letter-spacing="-.036">o</tspan> <tspan x="105.722" y="154.932" fill="#000">f p</tspan> <tspan x="120.122" y="154.932" fill="#000" letter-spacing="-.132">r</tspan> <tspan x="124.766" y="154.932" fill="#000">o</tspan> <tspan x="132.134" y="154.932" fill="#000" letter-spacing="-.312">c</tspan> <tspan x="137.714" y="154.932" fill="#000">ess</tspan>
                                    </text>
                                    <text font-family="NotoSansCJKkr-Medium, Noto Sans CJK KR" font-size="12" font-weight="400" transform="translate(6)">
                                        <tspan x="25.382" y="170.928" fill="#000">li</tspan> <tspan x="32.402" y="170.928" fill="#000" letter-spacing="-.264">s</tspan> <tspan x="37.634" y="170.928" fill="#000">t, equipment and</tspan>
                                    </text>
                                    <text font-family="NotoSansCJKkr-Medium, Noto Sans CJK KR" font-size="12" font-weight="400" transform="translate(6)">
                                        <tspan x="30.661" y="186.931" fill="#000">assembly p</tspan> <tspan x="95.077" y="186.931" fill="#000" letter-spacing="-.132">r</tspan> <tspan x="99.721" y="186.931" fill="#000">o</tspan> <tspan x="107.089" y="186.931" fill="#000" letter-spacing="-.313">c</tspan> <tspan x="112.668" y="186.931" fill="#000">ess</tspan>
                                    </text>
                                    <path stroke="#C5C8CF" stroke-width=".75" d="M189.801 77.645L147.973 77.645" transform="translate(6)"/>
                                    <path fill="#C5C8CF" d="M183.826 77.645L183.826 72.883 187.95 75.264 192.073 77.645 187.95 80.027 183.826 82.408z" transform="translate(6)"/>
                                    <path stroke="#C5C8CF" stroke-width=".75" d="M431.91 71.395L331.303 71.395" transform="translate(6)"/>
                                    <path fill="#C5C8CF" d="M425.934 71.395L425.934 66.633 430.058 69.014 434.182 71.395 430.058 73.776 425.934 76.157z" transform="translate(6)"/>
                                    <path stroke="#C5C8CF" stroke-width=".75" d="M329.452 84.46L430.058 84.46" transform="translate(6)"/>
                                    <path fill="#C5C8CF" d="M335.427 84.46L335.427 89.222 331.303 86.841 327.179 84.46 331.303 82.078 335.427 79.697z" transform="translate(6)"/>
                                    <path stroke="#C5C8CF" stroke-width=".75" d="M628.236 77.645L535.777 77.645" transform="translate(6)"/>
                                    <path fill="#C5C8CF" d="M622.26 77.645L622.26 72.883 626.384 75.264 630.508 77.645 626.384 80.027 622.26 82.408z" transform="translate(6)"/>
                                    <g transform="translate(6) translate(630 140.255)">
                                        <mask id="jeig4v1m8d" fill="#fff">
                                            <use xlink:href="#fvpexaercc"/>
                                        </mask>
                                        <text fill="#000" font-family="NotoSansCJKkr-Medium, Noto Sans CJK KR" font-size="12" font-weight="400" mask="url(#jeig4v1m8d)">
                                            <tspan x=".57" y="14.677">AR manual visuali</tspan> <tspan x="102.006" y="14.677" letter-spacing="-.277">z</tspan> <tspan x="107.333" y="14.677" letter-spacing="-.203">a</tspan> <tspan x="113.826" y="14.677">tion</tspan>
                                        </text>
                                    </g>
                                    <text font-family="NotoSansCJKkr-Medium, Noto Sans CJK KR" font-size="12" font-weight="400" transform="translate(6)">
                                        <tspan x="542.393" y="28.485" fill="#000">P</tspan> <tspan x="550.157" y="28.485" fill="#000" letter-spacing="-.132">r</tspan> <tspan x="554.801" y="28.485" fill="#000">o</tspan> <tspan x="562.169" y="28.485" fill="#000" letter-spacing="-.312">c</tspan> <tspan x="567.749" y="28.485" fill="#000">ess li</tspan> <tspan x="595.769" y="28.485" fill="#000" letter-spacing="-.264">s</tspan> <tspan x="601.001" y="28.485" fill="#000">t &amp;</tspan>
                                    </text>
                                    <text font-family="NotoSansCJKkr-Medium, Noto Sans CJK KR" font-size="12" font-weight="400" transform="translate(6)">
                                        <tspan x="525.149" y="44.481" fill="#000">equipment p</tspan> <tspan x="598.517" y="44.481" fill="#000" letter-spacing="-.132">r</tspan> <tspan x="603.161" y="44.481" fill="#000">o</tspan> <tspan x="610.529" y="44.481" fill="#000" letter-spacing="-.312">c</tspan> <tspan x="616.109" y="44.481" fill="#000">ess</tspan>
                                    </text>
                                    <text font-family="NotoSansCJKkr-Medium, Noto Sans CJK KR" font-size="12" font-weight="400" transform="translate(6)">
                                        <tspan x="534.689" y="60.477" fill="#000">manual </tspan> <tspan x="580.997" y="60.477" fill="#000" letter-spacing="-.313">c</tspan> <tspan x="586.575" y="60.477" fill="#000">on</tspan> <tspan x="601.431" y="60.477" fill="#000" letter-spacing="-.204">t</tspan> <tspan x="605.775" y="60.477" fill="#000">ent</tspan>
                                    </text>
                                    <text font-family="NotoSansCJKkr-Medium, Noto Sans CJK KR" font-size="12" font-weight="400" transform="translate(6)">
                                        <tspan x="356.321" y="102.549" fill="#000">D</tspan> <tspan x="364.709" y="102.549" fill="#000" letter-spacing="-.204">a</tspan> <tspan x="371.201" y="102.549" fill="#000" letter-spacing="-.288">t</tspan> <tspan x="375.377" y="102.549" fill="#000">a link</tspan>
                                    </text>
                                    <text font-family="NotoSansCJKkr-Medium, Noto Sans CJK KR" font-size="12" font-weight="400" transform="translate(6)">
                                        <tspan x="350.429" y="56.013" fill="#000">AR </tspan> <tspan x="368.453" y="56.013" fill="#000" letter-spacing="-.312">c</tspan> <tspan x="374.033" y="56.013" fill="#000">on</tspan> <tspan x="388.889" y="56.013" fill="#000" letter-spacing="-.204">t</tspan> <tspan x="393.233" y="56.013" fill="#000">ent</tspan>
                                    </text>
                                    <text font-family="NotoSansCJKkr-Medium, Noto Sans CJK KR" font-size="12" font-weight="400" letter-spacing="-.132" transform="translate(6)">
                                        <tspan x="217.433" y="154.929" fill="#000">E</tspan> <tspan x="224.369" y="154.929" fill="#000">dit / p</tspan> <tspan x="257.765" y="154.929" fill="#000">r</tspan> <tspan x="262.409" y="154.929" fill="#000">odu</tspan> <tspan x="284.777" y="154.929" fill="#000" letter-spacing="-.312">c</tspan> <tspan x="290.357" y="154.929" fill="#000">e</tspan>
                                    </text>
                                    <text font-family="NotoSansCJKkr-Medium, Noto Sans CJK KR" font-size="12" font-weight="400" transform="translate(6)">
                                        <tspan x="203.465" y="170.925" fill="#000">AR p</tspan> <tspan x="229.049" y="170.925" fill="#000" letter-spacing="-.133">r</tspan> <tspan x="233.691" y="170.925" fill="#000">o</tspan> <tspan x="241.059" y="170.925" fill="#000" letter-spacing="-.312">c</tspan> <tspan x="246.639" y="170.925" fill="#000">ess manual</tspan>
                                    </text>
                                    <g transform="translate(6) translate(0 .255)">
                                        <path fill="#FFF" d="M313.941 77.513c0 31.125-25.232 56.357-56.357 56.357s-56.357-25.232-56.357-56.357 25.232-56.357 56.357-56.357 56.357 25.232 56.357 56.357"/>
                                        <path stroke="#C5C8CF" stroke-width=".75" d="M313.941 77.513c0 31.125-25.232 56.357-56.357 56.357s-56.357-25.232-56.357-56.357 25.232-56.357 56.357-56.357 56.357 25.232 56.357 56.357z"/>
                                        <path fill="#273A5B" d="M255.845 78.088L251.25 70.743 251.215 70.687 249.305 70.687 249.305 84.327 251.268 84.327 251.268 76.249 251.204 74.322 255.238 80.715 255.274 80.771 256.417 80.771 260.487 74.323 260.423 76.253 260.423 84.327 262.385 84.327 262.385 70.687 260.476 70.687zM270.661 80.275c-.014.662-.288 1.25-.813 1.744-.541.512-1.166.773-1.853.773-.483 0-.908-.144-1.264-.424-.353-.278-.526-.614-.526-1.029 0-.46.215-.839.653-1.156.445-.32 1.01-.482 1.678-.482.901 0 1.616.193 2.125.574m-2.42-5.718c-1.426 0-2.704.624-3.695 1.806l-.072.084 1.375 1.375.084-.106c.415-.516 1.267-1.384 2.332-1.384.726 0 1.259.184 1.728.597.45.398.67.867.67 1.435v.193c-.65-.32-1.459-.482-2.406-.482-1.22 0-2.212.292-2.947.867-.745.583-1.123 1.378-1.123 2.36 0 .931.356 1.716 1.06 2.337.7.615 1.58.927 2.616.927 1.144 0 2.084-.477 2.8-1.42v1.185h1.887v-5.836c0-1.214-.385-2.186-1.142-2.887-.747-.687-1.84-1.05-3.167-1.05M282.492 75.165L282.492 74.919 280.113 74.919 276.316 78.769 276.316 70.69 276.076 70.69 274.353 72.179 274.353 84.33 276.316 84.33 276.316 81.322 277.579 80.076 280.397 84.33 282.66 84.33 282.66 84.099 278.953 78.686z"/>
                                        <path fill="#273A5B" d="M284.697 78.41c.163-.626.456-1.13.852-1.469.443-.379.981-.57 1.597-.57.752 0 1.358.2 1.801.596.396.354.651.863.725 1.443h-4.975zm7.063 1.355c0-1.632-.429-2.963-1.239-3.849-.825-.902-1.948-1.359-3.337-1.359-1.353 0-2.479.482-3.347 1.433-.854.936-1.305 2.196-1.305 3.645 0 1.41.44 2.557 1.344 3.513.893.945 2.044 1.423 3.42 1.423.941 0 1.796-.225 2.542-.673.598-.357 1.167-.9 1.562-1.492l.057-.086-1.406-1.298-.078.118c-.662.998-1.586 1.546-2.602 1.546-.836 0-1.464-.228-1.976-.718-.544-.52-.81-1.109-.857-1.895h7.191l.031-.308z"/>
                                        <path fill="#6FB6FB" d="M224.827 78.113L223.41 78.931 223.419 82.525 232.109 77.512 228.988 75.711zM240.808 78.932L239.389 78.114 235.23 75.711 232.109 77.513 240.808 82.536z"/>
                                        <path fill="#BFDCFF" d="M240.808 78.931L240.808 82.535 232.109 87.558 232.109 83.953 233.527 83.135z"/>
                                        <path fill="#007CF7" d="M223.411 78.931L223.411 82.535 232.109 87.558 232.109 83.953 230.691 83.135z"/>
                                        <path fill="#6FB6FB" d="M239.389 71.672L232.108 67.468 224.827 71.672 223.41 72.49 223.419 76.084 232.113 71.068 240.808 76.094 240.808 72.49z"/>
                                        <path fill="#BFDCFF" d="M240.808 72.49L240.808 76.094 232.109 81.116 232.109 77.512 233.527 76.693z"/>
                                        <path fill="#007CF7" d="M223.411 72.49L223.411 76.094 232.109 81.116 232.109 77.512 230.691 76.693z"/>
                                        <mask id="a5rv6m7qyf" fill="#fff">
                                            <use xlink:href="#crk7hcfzie"/>
                                        </mask>
                                        <path fill="#FFF" d="M755.32 77.513c0 31.125-25.231 56.357-56.356 56.357-31.126 0-56.358-25.232-56.358-56.357s25.232-56.357 56.358-56.357c31.125 0 56.357 25.232 56.357 56.357" mask="url(#a5rv6m7qyf)"/>
                                        <path stroke="#C5C8CF" stroke-width=".75" d="M755.32 77.513c0 31.125-25.231 56.357-56.356 56.357-31.126 0-56.358-25.232-56.358-56.357s25.232-56.357 56.358-56.357c31.125 0 56.357 25.232 56.357 56.357z" mask="url(#a5rv6m7qyf)"/>
                                        <path fill="#273A5B" d="M704.704 85.31L706.665 85.31 706.665 75.606 704.704 75.606zM704.617 73.815L706.754 73.815 706.754 71.677 704.617 71.677zM730.147 75.905L728.203 82.568 726.024 75.905 724.072 75.905 721.892 82.568 719.956 75.991 719.929 75.905 717.877 75.905 720.884 85.227 720.911 85.31 722.827 85.31 725.002 78.55 727.196 85.31 729.128 85.31 732.162 75.905zM711.455 77.92c.443-.378.981-.57 1.6-.57.753 0 1.359.2 1.802.597.398.355.652.865.726 1.445h-4.981c.163-.626.457-1.133.853-1.471m1.636-2.387c-1.352 0-2.48.483-3.35 1.436-.853.937-1.305 2.198-1.305 3.647 0 1.41.44 2.56 1.343 3.517.895.945 2.048 1.425 3.426 1.425.94 0 1.798-.227 2.543-.673.598-.358 1.167-.902 1.563-1.493l.058-.086-1.407-1.3-.078.118c-.663.998-1.587 1.548-2.606 1.548-.835 0-1.464-.23-1.977-.721-.537-.513-.813-1.118-.859-1.895h7.22l.005-.114c.005-.1.005-.194.005-.194 0-1.634-.428-2.967-1.24-3.854-.826-.903-1.95-1.361-3.34-1.361M697.041 82.429L692.937 71.681 690.771 71.681 696.029 85.233 696.06 85.31 698.019 85.31 703.393 71.846 703.459 71.681 701.292 71.681z" mask="url(#a5rv6m7qyf)"/>
                                        <path fill="#6FB6FB" d="M678.874 71.119L674.466 68.573 672.037 69.975 678.859 76.798z" mask="url(#a5rv6m7qyf)"/>
                                        <path fill="#007CF7" d="M678.86 80.436L683.164 75.947 683.164 73.594 678.874 71.118z" mask="url(#a5rv6m7qyf)"/>
                                        <path fill="#0065C7" d="M670.047 86.113L674.464 88.663 676.896 87.259 670.069 80.439z" mask="url(#a5rv6m7qyf)"/>
                                        <path fill="#BFDCFF" d="M665.767 74.224L665.767 73.595 672.038 69.976 676.286 74.224z" mask="url(#a5rv6m7qyf)"/>
                                        <path fill="#DEEDFF" d="M665.767 74.224L665.767 81.099 672.644 74.224z" mask="url(#a5rv6m7qyf)"/>
                                        <path fill="#007CF7" d="M670.07 76.798L665.766 81.099 665.766 83.64 669.952 86.057 670.066 86.124z" mask="url(#a5rv6m7qyf)"/>
                                        <path fill="#6FB6FB" d="M683.163 83.641L676.895 87.26 672.644 83.014 683.163 83.014z" mask="url(#a5rv6m7qyf)"/>
                                        <path fill="#007CF7" d="M674.426 75.882c-1.489 0-2.696 1.207-2.696 2.695 0 1.49 1.207 2.697 2.696 2.697 1.49 0 2.695-1.207 2.695-2.697 0-1.488-1.206-2.695-2.695-2.695" mask="url(#a5rv6m7qyf)"/>
                                        <path fill="#FFF" d="M675.786 76.445c-.427 0-.773.346-.773.772 0 .427.346.774.773.774.427 0 .773-.347.773-.774 0-.426-.346-.772-.773-.772" mask="url(#a5rv6m7qyf)"/>
                                        <path fill="#BFDCFF" d="M676.285 83.014L678.86 80.438 683.163 75.948 683.163 83.014z" mask="url(#a5rv6m7qyf)"/>
                                    </g>
                                    <text font-family="NotoSansCJKkr-Bold, Noto Sans CJK KR" font-size="18" font-weight="bold" transform="translate(6)">
                                        <tspan x="432.79" y="117.345" fill="#092E6E">AR Con</tspan> <tspan x="495.322" y="117.345" fill="#092E6E" letter-spacing="-.344">t</tspan> <tspan x="502.196" y="117.345" fill="#092E6E">ent</tspan>
                                    </text>
                                    <text font-family="NotoSansCJKkr-Bold, Noto Sans CJK KR" font-size="18" font-weight="bold" transform="translate(6)">
                                        <tspan x="393.262" y="139.341" fill="#092E6E">Mana</tspan> <tspan x="441.448" y="139.341" fill="#092E6E" letter-spacing="-.344">g</tspan> <tspan x="451.508" y="139.341" fill="#092E6E">ement Se</tspan> <tspan x="534.65" y="139.341" fill="#092E6E" letter-spacing=".252">r</tspan> <tspan x="543.002" y="139.341" fill="#092E6E" letter-spacing="-.144">v</tspan> <tspan x="553.082" y="139.341" fill="#092E6E">er</tspan>
                                    </text>
                                    <g>
                                        <path fill="#E6E8EB" d="M437.363 36.32L437.363 67.66 475.196 67.66 475.196 36.029z" transform="translate(6) translate(24 21.255)"/>
                                        <path stroke="#000" stroke-width=".565" d="M437.363 36.32L437.363 67.66 475.196 67.66 475.196 36.029z" transform="translate(6) translate(24 21.255)"/>
                                        <path fill="#FFF" d="M436.12 36.268c-1.382 0-2.507-1.125-2.507-2.507v-6.155c0-1.382 1.125-2.507 2.507-2.507h40.175c1.383 0 2.507 1.125 2.507 2.507v6.155c0 1.382-1.124 2.507-2.507 2.507H436.12z" transform="translate(6) translate(24 21.255)"/>
                                        <path fill="#000" d="M476.296 24.816H436.12c-1.534 0-2.79 1.255-2.79 2.79v6.154c0 1.535 1.256 2.79 2.79 2.79h40.176c1.534 0 2.789-1.255 2.789-2.79v-6.155c0-1.534-1.255-2.789-2.79-2.789m0 .564c1.228 0 2.226.998 2.226 2.225v6.155c0 1.227-.998 2.225-2.225 2.225H436.12c-1.227 0-2.225-.998-2.225-2.225v-6.155c0-1.227.998-2.225 2.225-2.225h40.176" transform="translate(6) translate(24 21.255)"/>
                                        <path fill="#FFF" d="M436.12 50.523c-1.382 0-2.507-1.126-2.507-2.508v-6.154c0-1.383 1.125-2.508 2.507-2.508h40.175c1.383 0 2.507 1.125 2.507 2.508v6.155c0 1.382-1.124 2.507-2.507 2.507H436.12z" transform="translate(6) translate(24 21.255)"/>
                                        <path fill="#000" d="M476.296 39.071H436.12c-1.534 0-2.79 1.255-2.79 2.79v6.154c0 1.535 1.256 2.79 2.79 2.79h40.176c1.534 0 2.789-1.255 2.789-2.79V41.86c0-1.534-1.255-2.789-2.79-2.789m0 .564c1.228 0 2.226.998 2.226 2.225v6.155c0 1.227-.998 2.225-2.225 2.225H436.12c-1.227 0-2.225-.998-2.225-2.225V41.86c0-1.227.998-2.225 2.225-2.225h40.176" transform="translate(6) translate(24 21.255)"/>
                                        <path fill="#FFF" d="M436.12 64.697c-1.382 0-2.507-1.125-2.507-2.507v-6.155c0-1.382 1.125-2.507 2.507-2.507h40.175c1.383 0 2.507 1.125 2.507 2.507v6.155c0 1.382-1.124 2.507-2.507 2.507H436.12z" transform="translate(6) translate(24 21.255)"/>
                                        <path fill="#000" d="M476.296 53.246H436.12c-1.534 0-2.79 1.255-2.79 2.79v6.154c0 1.535 1.256 2.79 2.79 2.79h40.176c1.534 0 2.789-1.255 2.789-2.79v-6.155c0-1.534-1.255-2.789-2.79-2.789m0 .564c1.228 0 2.226.998 2.226 2.225v6.155c0 1.227-.998 2.225-2.225 2.225H436.12c-1.227 0-2.225-.998-2.225-2.225v-6.155c0-1.227.998-2.225 2.225-2.225h40.176" transform="translate(6) translate(24 21.255)"/>
                                        <path fill="#0A51B7" d="M461.812 32.288c-.885 0-1.605-.72-1.605-1.605s.72-1.605 1.605-1.605 1.605.72 1.605 1.605c0 .884-.72 1.605-1.605 1.605" transform="translate(6) translate(24 21.255)"/>
                                        <path fill="#000" d="M461.812 28.795c-1.042 0-1.887.846-1.887 1.888 0 1.043.845 1.887 1.887 1.887s1.887-.844 1.887-1.887c0-1.042-.845-1.888-1.887-1.888m0 .565c.73 0 1.323.593 1.323 1.323 0 .729-.594 1.323-1.323 1.323s-1.323-.594-1.323-1.323c0-.73.594-1.323 1.323-1.323" transform="translate(6) translate(24 21.255)"/>
                                        <path fill="#0A51B7" d="M467.634 32.288c-.885 0-1.605-.72-1.605-1.605s.72-1.605 1.605-1.605 1.605.72 1.605 1.605c0 .884-.72 1.605-1.605 1.605" transform="translate(6) translate(24 21.255)"/>
                                        <path fill="#000" d="M467.634 28.795c-1.042 0-1.887.846-1.887 1.888 0 1.043.845 1.887 1.887 1.887s1.888-.844 1.888-1.887c0-1.042-.846-1.888-1.888-1.888m0 .565c.729 0 1.323.593 1.323 1.323 0 .729-.594 1.323-1.323 1.323-.73 0-1.323-.594-1.323-1.323 0-.73.594-1.323 1.323-1.323" transform="translate(6) translate(24 21.255)"/>
                                        <path fill="#0A51B7" d="M473.455 32.288c-.885 0-1.605-.72-1.605-1.605s.72-1.605 1.605-1.605 1.605.72 1.605 1.605c0 .884-.72 1.605-1.605 1.605" transform="translate(6) translate(24 21.255)"/>
                                        <path fill="#000" d="M473.455 28.795c-1.042 0-1.888.846-1.888 1.888 0 1.043.846 1.887 1.888 1.887 1.042 0 1.887-.844 1.887-1.887 0-1.042-.845-1.888-1.887-1.888m0 .565c.73 0 1.323.593 1.323 1.323 0 .729-.594 1.323-1.323 1.323s-1.323-.594-1.323-1.323c0-.73.594-1.323 1.323-1.323" transform="translate(6) translate(24 21.255)"/>
                                        <path fill="#0A51B7" d="M461.812 46.543c-.885 0-1.605-.721-1.605-1.605 0-.885.72-1.605 1.605-1.605s1.605.72 1.605 1.605c0 .884-.72 1.605-1.605 1.605" transform="translate(6) translate(24 21.255)"/>
                                        <path fill="#000" d="M461.812 43.05c-1.042 0-1.887.846-1.887 1.888 0 1.043.845 1.887 1.887 1.887s1.887-.844 1.887-1.887c0-1.042-.845-1.887-1.887-1.887m0 .564c.73 0 1.323.593 1.323 1.323 0 .729-.594 1.323-1.323 1.323s-1.323-.594-1.323-1.323c0-.73.594-1.323 1.323-1.323" transform="translate(6) translate(24 21.255)"/>
                                        <path fill="#0A51B7" d="M467.634 46.543c-.885 0-1.605-.721-1.605-1.605 0-.885.72-1.605 1.605-1.605s1.605.72 1.605 1.605c0 .884-.72 1.605-1.605 1.605" transform="translate(6) translate(24 21.255)"/>
                                        <path fill="#000" d="M467.634 43.05c-1.042 0-1.887.846-1.887 1.888 0 1.043.845 1.887 1.887 1.887s1.888-.844 1.888-1.887c0-1.042-.846-1.887-1.888-1.887m0 .564c.729 0 1.323.593 1.323 1.323 0 .729-.594 1.323-1.323 1.323-.73 0-1.323-.594-1.323-1.323 0-.73.594-1.323 1.323-1.323" transform="translate(6) translate(24 21.255)"/>
                                        <path fill="#0A51B7" d="M473.455 46.543c-.885 0-1.605-.721-1.605-1.605 0-.885.72-1.605 1.605-1.605s1.605.72 1.605 1.605c0 .884-.72 1.605-1.605 1.605" transform="translate(6) translate(24 21.255)"/>
                                        <path fill="#000" d="M473.455 43.05c-1.042 0-1.888.846-1.888 1.888 0 1.043.846 1.887 1.888 1.887 1.042 0 1.887-.844 1.887-1.887 0-1.042-.845-1.887-1.887-1.887m0 .564c.73 0 1.323.593 1.323 1.323 0 .729-.594 1.323-1.323 1.323s-1.323-.594-1.323-1.323c0-.73.594-1.323 1.323-1.323" transform="translate(6) translate(24 21.255)"/>
                                        <path fill="#0A51B7" d="M461.812 60.718c-.885 0-1.605-.72-1.605-1.604 0-.885.72-1.606 1.605-1.606s1.605.72 1.605 1.606c0 .884-.72 1.604-1.605 1.604" transform="translate(6) translate(24 21.255)"/>
                                        <path fill="#000" d="M461.812 57.226c-1.042 0-1.887.845-1.887 1.888 0 1.042.845 1.886 1.887 1.886s1.887-.844 1.887-1.886c0-1.043-.845-1.888-1.887-1.888m0 .564c.73 0 1.323.593 1.323 1.324 0 .728-.594 1.322-1.323 1.322s-1.323-.594-1.323-1.322c0-.731.594-1.324 1.323-1.324" transform="translate(6) translate(24 21.255)"/>
                                        <path fill="#0A51B7" d="M467.634 60.718c-.885 0-1.605-.72-1.605-1.604 0-.885.72-1.606 1.605-1.606s1.605.72 1.605 1.606c0 .884-.72 1.604-1.605 1.604" transform="translate(6) translate(24 21.255)"/>
                                        <path fill="#000" d="M467.634 57.226c-1.042 0-1.887.845-1.887 1.888 0 1.042.845 1.886 1.887 1.886s1.888-.844 1.888-1.886c0-1.043-.846-1.888-1.888-1.888m0 .564c.729 0 1.323.593 1.323 1.324 0 .728-.594 1.322-1.323 1.322-.73 0-1.323-.594-1.323-1.322 0-.731.594-1.324 1.323-1.324" transform="translate(6) translate(24 21.255)"/>
                                        <path fill="#0A51B7" d="M473.455 60.718c-.885 0-1.605-.72-1.605-1.604 0-.885.72-1.606 1.605-1.606s1.605.72 1.605 1.606c0 .884-.72 1.604-1.605 1.604" transform="translate(6) translate(24 21.255)"/>
                                        <path fill="#000" d="M473.455 57.226c-1.042 0-1.888.845-1.888 1.888 0 1.042.846 1.886 1.888 1.886 1.042 0 1.887-.844 1.887-1.886 0-1.043-.845-1.888-1.887-1.888m0 .564c.73 0 1.323.593 1.323 1.324 0 .728-.594 1.322-1.323 1.322s-1.323-.594-1.323-1.322c0-.731.594-1.324 1.323-1.324" transform="translate(6) translate(24 21.255)"/>
                                        <g>
                                            <path fill="#FFF" d="M1.166 0.585L1.166 6.781" transform="translate(6) translate(24 21.255) translate(437 27)"/>
                                            <path stroke="#000" stroke-width=".565" d="M1.166 0.585L1.166 6.781" transform="translate(6) translate(24 21.255) translate(437 27)"/>
                                        </g>
                                        <g>
                                            <path fill="#FFF" d="M1.367 0.585L1.367 6.781" transform="translate(6) translate(24 21.255) translate(440 27)"/>
                                            <path stroke="#000" stroke-width=".565" d="M1.367 0.585L1.367 6.781" transform="translate(6) translate(24 21.255) translate(440 27)"/>
                                        </g>
                                        <g>
                                            <path fill="#FFF" d="M0.568 0.585L0.568 6.781" transform="translate(6) translate(24 21.255) translate(444 27)"/>
                                            <path stroke="#000" stroke-width=".565" d="M0.568 0.585L0.568 6.781" transform="translate(6) translate(24 21.255) translate(444 27)"/>
                                        </g>
                                        <g>
                                            <path fill="#FFF" d="M0.769 0.585L0.769 6.781" transform="translate(6) translate(24 21.255) translate(447 27)"/>
                                            <path stroke="#000" stroke-width=".565" d="M0.769 0.585L0.769 6.781" transform="translate(6) translate(24 21.255) translate(447 27)"/>
                                        </g>
                                        <g>
                                            <path fill="#FFF" d="M0.971 0.585L0.971 6.781" transform="translate(6) translate(24 21.255) translate(450 27)"/>
                                            <path stroke="#000" stroke-width=".565" d="M0.971 0.585L0.971 6.781" transform="translate(6) translate(24 21.255) translate(450 27)"/>
                                        </g>
                                        <g>
                                            <path fill="#FFF" d="M1.172 0.585L1.172 6.781" transform="translate(6) translate(24 21.255) translate(453 27)"/>
                                            <path stroke="#000" stroke-width=".565" d="M1.172 0.585L1.172 6.781" transform="translate(6) translate(24 21.255) translate(453 27)"/>
                                        </g>
                                        <g>
                                            <path fill="#FFF" d="M0.766 0.585L0.766 6.781" transform="translate(6) translate(24 21.255) translate(439 27)"/>
                                            <path stroke="#000" stroke-width=".565" d="M0.766 0.585L0.766 6.781" transform="translate(6) translate(24 21.255) translate(439 27)"/>
                                        </g>
                                        <g>
                                            <path fill="#FFF" d="M0.968 0.585L0.968 6.781" transform="translate(6) translate(24 21.255) translate(442 27)"/>
                                            <path stroke="#000" stroke-width=".565" d="M0.968 0.585L0.968 6.781" transform="translate(6) translate(24 21.255) translate(442 27)"/>
                                        </g>
                                        <g>
                                            <path fill="#FFF" d="M1.169 0.585L1.169 6.781" transform="translate(6) translate(24 21.255) translate(445 27)"/>
                                            <path stroke="#000" stroke-width=".565" d="M1.169 0.585L1.169 6.781" transform="translate(6) translate(24 21.255) translate(445 27)"/>
                                        </g>
                                        <g>
                                            <path fill="#FFF" d="M1.37 0.585L1.37 6.781" transform="translate(6) translate(24 21.255) translate(448 27)"/>
                                            <path stroke="#000" stroke-width=".565" d="M1.37 0.585L1.37 6.781" transform="translate(6) translate(24 21.255) translate(448 27)"/>
                                        </g>
                                        <g>
                                            <path fill="#FFF" d="M0.571 0.585L0.571 6.781" transform="translate(6) translate(24 21.255) translate(452 27)"/>
                                            <path stroke="#000" stroke-width=".565" d="M0.571 0.585L0.571 6.781" transform="translate(6) translate(24 21.255) translate(452 27)"/>
                                        </g>
                                        <g>
                                            <path fill="#FFF" d="M1.166 0.84L1.166 7.036" transform="translate(6) translate(24 21.255) translate(437 41)"/>
                                            <path stroke="#000" stroke-width=".565" d="M1.166 0.84L1.166 7.036" transform="translate(6) translate(24 21.255) translate(437 41)"/>
                                        </g>
                                        <g>
                                            <path fill="#FFF" d="M1.367 0.84L1.367 7.036" transform="translate(6) translate(24 21.255) translate(440 41)"/>
                                            <path stroke="#000" stroke-width=".565" d="M1.367 0.84L1.367 7.036" transform="translate(6) translate(24 21.255) translate(440 41)"/>
                                        </g>
                                        <g>
                                            <path fill="#FFF" d="M0.568 0.84L0.568 7.036" transform="translate(6) translate(24 21.255) translate(444 41)"/>
                                            <path stroke="#000" stroke-width=".565" d="M0.568 0.84L0.568 7.036" transform="translate(6) translate(24 21.255) translate(444 41)"/>
                                        </g>
                                        <g>
                                            <path fill="#FFF" d="M0.769 0.84L0.769 7.036" transform="translate(6) translate(24 21.255) translate(447 41)"/>
                                            <path stroke="#000" stroke-width=".565" d="M0.769 0.84L0.769 7.036" transform="translate(6) translate(24 21.255) translate(447 41)"/>
                                        </g>
                                        <g>
                                            <path fill="#FFF" d="M0.971 0.84L0.971 7.036" transform="translate(6) translate(24 21.255) translate(450 41)"/>
                                            <path stroke="#000" stroke-width=".565" d="M0.971 0.84L0.971 7.036" transform="translate(6) translate(24 21.255) translate(450 41)"/>
                                        </g>
                                        <g>
                                            <path fill="#FFF" d="M1.172 0.84L1.172 7.036" transform="translate(6) translate(24 21.255) translate(453 41)"/>
                                            <path stroke="#000" stroke-width=".565" d="M1.172 0.84L1.172 7.036" transform="translate(6) translate(24 21.255) translate(453 41)"/>
                                        </g>
                                        <g>
                                            <path fill="#FFF" d="M0.766 0.84L0.766 7.036" transform="translate(6) translate(24 21.255) translate(439 41)"/>
                                            <path stroke="#000" stroke-width=".565" d="M0.766 0.84L0.766 7.036" transform="translate(6) translate(24 21.255) translate(439 41)"/>
                                        </g>
                                        <g>
                                            <path fill="#FFF" d="M0.968 0.84L0.968 7.036" transform="translate(6) translate(24 21.255) translate(442 41)"/>
                                            <path stroke="#000" stroke-width=".565" d="M0.968 0.84L0.968 7.036" transform="translate(6) translate(24 21.255) translate(442 41)"/>
                                        </g>
                                        <g>
                                            <path fill="#FFF" d="M1.169 0.84L1.169 7.036" transform="translate(6) translate(24 21.255) translate(445 41)"/>
                                            <path stroke="#000" stroke-width=".565" d="M1.169 0.84L1.169 7.036" transform="translate(6) translate(24 21.255) translate(445 41)"/>
                                        </g>
                                        <g>
                                            <path fill="#FFF" d="M1.37 0.84L1.37 7.036" transform="translate(6) translate(24 21.255) translate(448 41)"/>
                                            <path stroke="#000" stroke-width=".565" d="M1.37 0.84L1.37 7.036" transform="translate(6) translate(24 21.255) translate(448 41)"/>
                                        </g>
                                        <g>
                                            <path fill="#FFF" d="M0.571 0.84L0.571 7.036" transform="translate(6) translate(24 21.255) translate(452 41)"/>
                                            <path stroke="#000" stroke-width=".565" d="M0.571 0.84L0.571 7.036" transform="translate(6) translate(24 21.255) translate(452 41)"/>
                                        </g>
                                        <g>
                                            <path fill="#FFF" d="M1.166 0.095L1.166 6.291" transform="translate(6) translate(24 21.255) translate(437 56)"/>
                                            <path stroke="#000" stroke-width=".565" d="M1.166 0.095L1.166 6.291" transform="translate(6) translate(24 21.255) translate(437 56)"/>
                                        </g>
                                        <g>
                                            <path fill="#FFF" d="M1.367 0.095L1.367 6.291" transform="translate(6) translate(24 21.255) translate(440 56)"/>
                                            <path stroke="#000" stroke-width=".565" d="M1.367 0.095L1.367 6.291" transform="translate(6) translate(24 21.255) translate(440 56)"/>
                                        </g>
                                        <g>
                                            <path fill="#FFF" d="M0.568 0.095L0.568 6.291" transform="translate(6) translate(24 21.255) translate(444 56)"/>
                                            <path stroke="#000" stroke-width=".565" d="M0.568 0.095L0.568 6.291" transform="translate(6) translate(24 21.255) translate(444 56)"/>
                                        </g>
                                        <g>
                                            <path fill="#FFF" d="M0.769 0.095L0.769 6.291" transform="translate(6) translate(24 21.255) translate(447 56)"/>
                                            <path stroke="#000" stroke-width=".565" d="M0.769 0.095L0.769 6.291" transform="translate(6) translate(24 21.255) translate(447 56)"/>
                                        </g>
                                        <g>
                                            <path fill="#FFF" d="M0.971 0.095L0.971 6.291" transform="translate(6) translate(24 21.255) translate(450 56)"/>
                                            <path stroke="#000" stroke-width=".565" d="M0.971 0.095L0.971 6.291" transform="translate(6) translate(24 21.255) translate(450 56)"/>
                                        </g>
                                        <g>
                                            <path fill="#FFF" d="M1.172 0.095L1.172 6.291" transform="translate(6) translate(24 21.255) translate(453 56)"/>
                                            <path stroke="#000" stroke-width=".565" d="M1.172 0.095L1.172 6.291" transform="translate(6) translate(24 21.255) translate(453 56)"/>
                                        </g>
                                        <g>
                                            <path fill="#FFF" d="M0.766 0.095L0.766 6.291" transform="translate(6) translate(24 21.255) translate(439 56)"/>
                                            <path stroke="#000" stroke-width=".565" d="M0.766 0.095L0.766 6.291" transform="translate(6) translate(24 21.255) translate(439 56)"/>
                                        </g>
                                        <g>
                                            <path fill="#FFF" d="M0.968 0.095L0.968 6.291" transform="translate(6) translate(24 21.255) translate(442 56)"/>
                                            <path stroke="#000" stroke-width=".565" d="M0.968 0.095L0.968 6.291" transform="translate(6) translate(24 21.255) translate(442 56)"/>
                                        </g>
                                        <g>
                                            <path fill="#FFF" d="M1.169 0.095L1.169 6.291" transform="translate(6) translate(24 21.255) translate(445 56)"/>
                                            <path stroke="#000" stroke-width=".565" d="M1.169 0.095L1.169 6.291" transform="translate(6) translate(24 21.255) translate(445 56)"/>
                                        </g>
                                        <g>
                                            <path fill="#FFF" d="M1.37 0.095L1.37 6.291" transform="translate(6) translate(24 21.255) translate(448 56)"/>
                                            <path stroke="#000" stroke-width=".565" d="M1.37 0.095L1.37 6.291" transform="translate(6) translate(24 21.255) translate(448 56)"/>
                                        </g>
                                        <g>
                                            <path fill="#FFF" d="M0.571 0.095L0.571 6.291" transform="translate(6) translate(24 21.255) translate(452 56)"/>
                                            <path stroke="#000" stroke-width=".565" d="M0.571 0.095L0.571 6.291" transform="translate(6) translate(24 21.255) translate(452 56)"/>
                                        </g>
                                        <path fill="#E6E8EB" d="M471.004 56.23s.188-1.194 1.877-2.008c1.69-.813 5.93-1.964 11.109-1.248 5.18.715 6.54 2 6.54 2l.623 1.377-.001 15.145s-.684 1.816-4.158 2.567c-3.473.75-10.39 1-13.706-.532 0 0-2.096-.877-2.284-2.192V56.23z" transform="translate(6) translate(24 21.255)"/>
                                        <path stroke="#000" stroke-width=".565" d="M491.153 56.095s-.778-3.346-10.378-3.346-9.771 3.417-9.771 3.417v15.21s1.055 3.44 10.069 3.44c9.013 0 10.079-3.44 10.079-3.44V56.096z" transform="translate(6) translate(24 21.255)"/>
                                        <path stroke="#000" stroke-width=".565" d="M471.004 61.544s1.125 3.297 10.205 3.21c9.079-.087 9.944-3.21 9.944-3.21M471.004 66.502s1.125 3.296 10.205 3.209c9.079-.086 9.944-3.209 9.944-3.209M471.004 56.586s1.125 3.297 10.205 3.21c9.079-.087 9.944-3.21 9.944-3.21" transform="translate(6) translate(24 21.255)"/>
                                        <path fill="#FFF" d="M113.394 56.513c0 31.125-25.232 56.357-56.357 56.357S.68 87.638.68 56.513 25.912.156 57.037.156s56.357 25.232 56.357 56.357" transform="translate(6) translate(24 21.255)"/>
                                        <path stroke="#C5C8CF" stroke-width=".75" d="M113.394 56.513c0 31.125-25.232 56.357-56.357 56.357S.68 87.638.68 56.513 25.912.156 57.037.156s56.357 25.232 56.357 56.357z" transform="translate(6) translate(24 21.255)"/>
                                        <path stroke="#231916" stroke-linejoin="round" stroke-width=".485" d="M81.842 54.371c-.164 0-.326.005-.485.014" transform="translate(6) translate(24 21.255)"/>
                                        <path stroke="#231916" stroke-dasharray=".98 .98" stroke-linejoin="round" stroke-width=".485" d="M80.384 54.501c-2.181.396-3.866 1.655-4.744 3.187-.998 1.744-3.288 3.317-6.2 3.317-3.425 0-4.806-1.564-6.202-3.317-1.33-1.671-2.776-3.317-6.201-3.317-3.424 0-5.177 1.492-6.201 3.317-.98 1.748-2.776 3.317-6.201 3.317-2.661 0-4.806-1.564-6.201-3.317-1.17-1.47-2.94-2.918-5.228-3.248" transform="translate(6) translate(24 21.255)"/>
                                        <path stroke="#231916" stroke-linejoin="round" stroke-width=".485" d="M32.717 54.389c-.159-.011-.32-.017-.485-.017" transform="translate(6) translate(24 21.255)"/>
                                        <path stroke="#0A51B7" stroke-width=".485" d="M81.842 61.005c-2.803 0-5.137-1.458-6.202-3.317-.998-1.743-3.476-3.316-6.2-3.316-2.781 0-4.806 1.563-6.202 3.316-1.33 1.672-2.776 3.317-6.201 3.317s-5.177-1.492-6.201-3.317c-.98-1.746-3.27-3.316-6.201-3.316-2.661 0-4.806 1.563-6.201 3.316-1.33 1.672-2.777 3.317-6.202 3.317" transform="translate(6) translate(24 21.255)"/>
                                    </g>
                                    <g transform="translate(6) translate(69 65.255)">
                                        <mask id="vnnc81ty1h" fill="#fff">
                                            <use xlink:href="#hx655elpeg"/>
                                        </mask>
                                        <path fill="#FFF" d="M-1.672 29.236L25.745 29.236 25.745 -1.673 -1.672 -1.673z" mask="url(#vnnc81ty1h)"/>
                                    </g>
                                    <g transform="translate(6) translate(69 72.255)">
                                        <mask id="f712dzrtzj" fill="#fff">
                                            <use xlink:href="#f3yhpktyni"/>
                                        </mask>
                                        <path fill="#0A51B7" d="M-1.452 22.04L14.46 22.04 14.46 -2.03 -1.452 -2.03z" mask="url(#f712dzrtzj)"/>
                                    </g>
                                    <g transform="translate(6) translate(69 65.255)">
                                        <mask id="zxje3rx8il" fill="#fff">
                                            <use xlink:href="#2e0c52ch7k"/>
                                        </mask>
                                        <path fill="#000" d="M-1.672 29.236L25.745 29.236 25.745 -1.673 -1.672 -1.673z" mask="url(#zxje3rx8il)"/>
                                    </g>
                                    <g stroke="#000">
                                        <path stroke-width=".388" d="M24.037 35.617L24.037 22.782M12.971 16.393L24.037 22.783M24.037 22.781L35.072 16.411" transform="translate(6) translate(57 56.255)"/>
                                        <path stroke-width=".779" d="M43.415.159L47.128.159 47.128 3.871M4.66.159L.948.159.948 3.871M4.66 45.217L.948 45.217.948 41.504M43.415 45.217L47.128 45.217 47.128 41.504" transform="translate(6) translate(57 56.255)"/>
                                    </g>
                                </g>
                            </g>
                        </g>
                    </g>
                </g>
            </g>
        </g>
    </g>
</svg>
