<svg xmlns="http://www.w3.org/2000/svg" xmlns:xlink="http://www.w3.org/1999/xlink" width="780" height="392" viewBox="0 0 780 392">
    <defs>
        <path id="prefix__a" d="M0 336L741.965 336 741.965 0.238 0 0.238z"/>
        <path id="prefix__c" d="M0.925 6.723L0.925 19.755 12.212 26.271 23.498 19.755 23.498 6.723 12.212 0.208z"/>
        <path id="prefix__e" d="M0.146 13.756L11.212 20.075 11.212 7.239 0.146 0.85z"/>
        <path id="prefix__g" d="M.925 6.723v13.033l11.287 6.515 11.286-6.515V6.723L12.212.208.925 6.723zm.389 12.809V6.947L12.212.656 23.11 6.947v12.585l-10.898 6.292-10.898-6.292z"/>
    </defs>
    <g fill="none" fill-rule="evenodd">
        <path fill="#F8F9FB" d="M0 0H780V392H0z"/>
        <g>
            <g transform="translate(21 28) translate(0 .762)">
                <path fill="#FFF" d="M521.975 256.196c0 31.125-25.231 56.357-56.356 56.357-31.126 0-56.358-25.232-56.358-56.357s25.232-56.357 56.358-56.357c31.125 0 56.356 25.232 56.356 56.357"/>
                <path fill="#C5C8CF" d="M465.618 200.214c-30.869 0-55.982 25.113-55.982 55.982 0 30.87 25.113 55.983 55.982 55.983 30.868 0 55.981-25.113 55.981-55.983 0-30.87-25.113-55.982-55.98-55.982m0 112.715c-31.283 0-56.733-25.45-56.733-56.733 0-31.282 25.45-56.732 56.732-56.732s56.731 25.45 56.731 56.732c0 31.283-25.449 56.733-56.73 56.733"/>
                <path fill="#000" d="M488.785 167.412v1.02h-1.439v3.681h-1.248v-8.13h1.248v3.43h1.44zm-7.208 6.188h6.116v1.008h-7.363v-3.214h1.247v2.206zm1.751-5.108c.216-1.164.252-2.016.264-2.687h-4.234v-1.007h5.446v.624c0 .73 0 1.8-.265 3.201l-1.21-.13zm2.195 1.57c-2.255.397-4.809.456-6.692.456l-.132-1.006c.648 0 1.391 0 2.158-.025v-2.219h1.224v2.183c1.127-.048 2.291-.12 3.358-.288l.084.9z"/>
                <mask id="prefix__b" fill="#fff">
                    <use xlink:href="#prefix__a"/>
                </mask>
                <path fill="#000" d="M497.547 174.836h1.247v-10.878h-1.247v10.878zm-5.829-3.598c1.715-.011 3.214-.095 4.929-.372l.132 1.008c-1.859.323-3.478.384-5.385.384h-.923v-4.294h3.777v-2.015h-3.802v-1.008h5.05v4.018h-3.778v2.279zM512.319 174.801h1.187v-10.83h-1.187v10.83zm-2.207-10.591h1.163v10.087h-1.163v-5.254h-2.134v-1.007h2.134v-3.826zm-4.27 7.063c1.344-.011 2.267-.071 3.335-.298l.107 1.019c-1.223.239-2.278.299-3.933.299h-.732v-7.039h4.102v1.007h-2.879v5.012zM522.963 174.836h1.247v-10.865h-1.247v10.865zm-6.116-6.248c0 1.703.659 2.723 1.594 2.723.948 0 1.608-1.02 1.608-2.723 0-1.68-.66-2.699-1.608-2.699-.935 0-1.594 1.019-1.594 2.699zm4.389 0c0 2.35-1.175 3.826-2.795 3.826-1.607 0-2.782-1.476-2.782-3.826 0-2.327 1.175-3.815 2.782-3.815 1.62 0 2.795 1.488 2.795 3.815zM535.334 163.958v10.866h-1.247v-5.865h-2.075v-1.02h2.075v-3.981h1.247zm-7.279 7.328c1.726-.013 2.962-.071 4.377-.311l.108.995c-1.548.276-2.902.323-4.869.323h-.852v-7.375h5.025v1.019h-3.789v2.027h3.345v.983h-3.345v2.339zM419.211 335.977h1.236v-10.83h-1.236v10.83zm-1.955-9.692c0 3.227-1.295 5.961-5.014 7.76l-.658-.983c2.842-1.367 4.186-3.275 4.4-5.769h-3.861v-1.008h5.133zM425.022 334.766h6.225v1.007h-7.471v-3.083h1.245v2.076zm-1.955-5.746c2.053-.252 3.454-1.272 3.55-2.387h-3.166v-.982h8v.982h-3.192c.096 1.115 1.524 2.135 3.563 2.387l-.454.984c-1.883-.24-3.346-1.115-3.935-2.314-.575 1.199-2.026 2.074-3.897 2.314l-.47-.984zm9.294 1.883v.996h-9.822v-.996h4.27v-1.655h1.236v1.655h4.316zM439.315 327.593c0 .768.995 1.212 2.53 1.212 1.524 0 2.518-.444 2.518-1.212s-.993-1.212-2.517-1.212c-1.536 0-2.531.444-2.531 1.212zm.084 7.173h6.284v1.007h-7.532v-3.202h1.248v2.195zm-1.392-7.173c0-1.354 1.512-2.206 3.839-2.206 2.315 0 3.837.852 3.837 2.206 0 1.355-1.522 2.207-3.837 2.207-2.327 0-3.839-.852-3.839-2.207zm8.755 2.938v1.008h-4.197v2.05h-1.26v-2.05h-4.365v-1.008h9.822zM453.678 327.64c.059.23.096.469.096.733s-.037.503-.11.73h2.065v-1.462h-2.051zm2.109 6.226c0-.72-.886-1.127-2.433-1.127-1.535 0-2.436.408-2.436 1.127 0 .744.9 1.139 2.436 1.139 1.547 0 2.433-.395 2.433-1.14zm1.225 0c0 1.332-1.404 2.11-3.658 2.11-2.256 0-3.647-.778-3.647-2.11 0-1.32 1.39-2.1 3.647-2.1 2.254 0 3.658.78 3.658 2.1zm-6.045-3.934c.936 0 1.63-.623 1.63-1.56 0-.947-.694-1.571-1.63-1.571-.96 0-1.656.624-1.656 1.572 0 .936.697 1.559 1.656 1.559zm2.147.168c-.504.552-1.272.875-2.147.875-1.62 0-2.83-1.08-2.83-2.602 0-1.535 1.21-2.615 2.83-2.615.887 0 1.643.336 2.147.875h2.615v-1.498h1.234v6.393h-1.234V330.1h-2.615zM472.36 328.576v1.02h-1.44v3.681h-1.249v-8.13h1.25v3.43h1.438zm-7.21 6.19h6.117v1.006h-7.363v-3.214h1.246v2.207zm1.752-5.11c.215-1.164.252-2.016.264-2.687h-4.235v-1.007h5.446v.624c0 .73 0 1.8-.264 3.201l-1.21-.13zm2.195 1.57c-2.256.397-4.81.456-6.693.456l-.13-1.006c.646 0 1.39 0 2.157-.025v-2.22h1.223v2.184c1.127-.048 2.291-.12 3.36-.288l.083.9zM481.121 336h1.246v-10.878h-1.246V336zm-5.83-3.598c1.715-.011 3.215-.095 4.93-.372l.133 1.007c-1.86.324-3.479.385-5.387.385h-.922v-4.294h3.777v-2.015h-3.802v-1.008h5.05v4.018h-3.779v2.279zM495.496 336h1.248v-10.865h-1.248V336zm-3.67-8.18c0 1.992 1.104 3.983 2.807 4.75l-.719.984c-1.248-.588-2.195-1.787-2.687-3.251-.493 1.572-1.452 2.855-2.758 3.49l-.733-1.031c1.729-.78 2.856-2.854 2.856-4.942v-1.774h1.234v1.774zM507.725 331.455c-1.764-.36-3.287-1.488-3.994-2.975-.707 1.487-2.231 2.615-3.994 2.975l-.528-1.02c2.135-.396 3.873-2.062 3.873-3.778v-.815h1.309v.815c0 1.728 1.738 3.394 3.873 3.778l-.54 1.02zm-8.852 3.13h9.81v-1.02h-9.81v1.02zM517.9 331.646h1.176v-6.512H517.9v6.512zm-2.086-2.841h-1.283v-.996h1.283v-2.495h1.151v6.237h-1.151v-2.746zm-2.722 6.056h4.785v-1.764h-4.785v1.764zm-1.225.982h7.209v-3.729h-7.209v3.729zm3.154-5.012c-1.234.228-2.265.264-3.945.264h-.707v-5.277h4.078v.995h-2.89v1.127h2.494v.949h-2.494v1.222c1.367-.011 2.277-.072 3.345-.263l.119.983z" mask="url(#prefix__b)"/>
                <path fill="#E6E8EB" d="M445.539 243.633L445.539 274.974 483.372 274.974 483.372 243.343z" mask="url(#prefix__b)"/>
                <path fill="#000" d="M445.821 274.691h37.27v-31.064l-37.27.286v30.778zm37.833.564h-38.397v-31.903l38.397-.294v32.197z" mask="url(#prefix__b)"/>
                <path fill="#FFF" d="M484.473 243.863h-40.176c-1.534 0-2.79-1.256-2.79-2.79v-6.154c0-1.535 1.256-2.79 2.79-2.79h40.176c1.534 0 2.789 1.255 2.789 2.79v6.154c0 1.534-1.255 2.79-2.79 2.79" mask="url(#prefix__b)"/>
                <path fill="#000" d="M484.473 232.129h-40.176c-1.535 0-2.79 1.256-2.79 2.79v6.155c0 1.534 1.255 2.789 2.79 2.789h40.176c1.534 0 2.789-1.255 2.789-2.79v-6.154c0-1.534-1.255-2.79-2.79-2.79m0 .564c1.228 0 2.226.998 2.226 2.226v6.155c0 1.227-.998 2.225-2.225 2.225h-40.176c-1.227 0-2.224-.998-2.224-2.225v-6.155c0-1.228.997-2.226 2.224-2.226h40.176" mask="url(#prefix__b)"/>
                <path fill="#FFF" d="M484.473 258.118h-40.176c-1.534 0-2.79-1.256-2.79-2.79v-6.154c0-1.535 1.256-2.79 2.79-2.79h40.176c1.534 0 2.789 1.255 2.789 2.79v6.154c0 1.534-1.255 2.79-2.79 2.79" mask="url(#prefix__b)"/>
                <path fill="#000" d="M484.473 246.385h-40.176c-1.535 0-2.79 1.255-2.79 2.789v6.154c0 1.536 1.255 2.789 2.79 2.789h40.176c1.534 0 2.789-1.253 2.789-2.79v-6.153c0-1.534-1.255-2.79-2.79-2.79m0 .565c1.228 0 2.226.998 2.226 2.225v6.154c0 1.227-.998 2.225-2.225 2.225h-40.176c-1.227 0-2.224-.998-2.224-2.225v-6.154c0-1.227.997-2.225 2.224-2.225h40.176" mask="url(#prefix__b)"/>
                <path fill="#FFF" d="M484.473 272.293h-40.176c-1.534 0-2.79-1.255-2.79-2.789v-6.155c0-1.535 1.256-2.789 2.79-2.789h40.176c1.534 0 2.789 1.254 2.789 2.789v6.155c0 1.534-1.255 2.789-2.79 2.789" mask="url(#prefix__b)"/>
                <path fill="#000" d="M484.473 260.559h-40.176c-1.535 0-2.79 1.256-2.79 2.79v6.155c0 1.534 1.255 2.789 2.79 2.789h40.176c1.534 0 2.789-1.255 2.789-2.79v-6.154c0-1.534-1.255-2.79-2.79-2.79m0 .564c1.228 0 2.226.998 2.226 2.226v6.155c0 1.227-.998 2.225-2.225 2.225h-40.176c-1.227 0-2.224-.998-2.224-2.225v-6.155c0-1.228.997-2.226 2.224-2.226h40.176" mask="url(#prefix__b)"/>
                <path fill="#0A51B7" d="M471.877 237.996c0 1.043-.846 1.888-1.888 1.888-1.043 0-1.887-.845-1.887-1.888 0-1.042.844-1.888 1.887-1.888 1.042 0 1.888.846 1.888 1.888" mask="url(#prefix__b)"/>
                <path fill="#000" d="M469.99 236.11c-1.043 0-1.889.843-1.889 1.886s.846 1.887 1.888 1.887c1.042 0 1.888-.844 1.888-1.887 0-1.043-.846-1.887-1.888-1.887m0 .564c.73 0 1.323.593 1.323 1.323s-.594 1.323-1.323 1.323-1.323-.594-1.323-1.323c0-.73.594-1.323 1.323-1.323" mask="url(#prefix__b)"/>
                <path fill="#0A51B7" d="M477.698 237.996c0 1.043-.846 1.888-1.888 1.888-1.042 0-1.887-.845-1.887-1.888 0-1.042.845-1.888 1.887-1.888s1.888.846 1.888 1.888" mask="url(#prefix__b)"/>
                <path fill="#000" d="M475.81 236.11c-1.041 0-1.887.843-1.887 1.886s.846 1.887 1.887 1.887c1.043 0 1.889-.844 1.889-1.887 0-1.043-.846-1.887-1.889-1.887m0 .564c.73 0 1.322.593 1.322 1.323s-.593 1.323-1.322 1.323c-.728 0-1.322-.594-1.322-1.323 0-.73.594-1.323 1.322-1.323" mask="url(#prefix__b)"/>
                <path fill="#0A51B7" d="M483.52 237.996c0 1.043-.845 1.888-1.888 1.888s-1.887-.845-1.887-1.888c0-1.042.844-1.888 1.887-1.888 1.043 0 1.887.846 1.887 1.888" mask="url(#prefix__b)"/>
                <path fill="#000" d="M481.632 236.11c-1.042 0-1.888.843-1.888 1.886s.846 1.887 1.888 1.887c1.043 0 1.888-.844 1.888-1.887 0-1.043-.845-1.887-1.888-1.887m0 .564c.729 0 1.323.593 1.323 1.323s-.594 1.323-1.323 1.323c-.73 0-1.322-.594-1.322-1.323 0-.73.593-1.323 1.322-1.323" mask="url(#prefix__b)"/>
                <path fill="#0A51B7" d="M471.877 252.251c0 1.043-.846 1.888-1.888 1.888-1.043 0-1.887-.845-1.887-1.888 0-1.042.844-1.888 1.887-1.888 1.042 0 1.888.846 1.888 1.888" mask="url(#prefix__b)"/>
                <path fill="#000" d="M469.99 250.363c-1.043 0-1.889.846-1.889 1.888 0 1.042.846 1.887 1.888 1.887 1.042 0 1.888-.845 1.888-1.887s-.846-1.888-1.888-1.888m0 .564c.73 0 1.323.594 1.323 1.324 0 .73-.594 1.323-1.323 1.323s-1.323-.594-1.323-1.323c0-.73.594-1.324 1.323-1.324" mask="url(#prefix__b)"/>
                <path fill="#0A51B7" d="M477.698 252.251c0 1.043-.846 1.888-1.888 1.888-1.042 0-1.887-.845-1.887-1.888 0-1.042.845-1.888 1.887-1.888s1.888.846 1.888 1.888" mask="url(#prefix__b)"/>
                <path fill="#000" d="M475.81 250.363c-1.041 0-1.887.846-1.887 1.888 0 1.042.846 1.887 1.887 1.887 1.043 0 1.889-.845 1.889-1.887s-.846-1.888-1.889-1.888m0 .564c.73 0 1.322.594 1.322 1.324 0 .73-.593 1.323-1.322 1.323-.728 0-1.322-.594-1.322-1.323 0-.73.594-1.324 1.322-1.324" mask="url(#prefix__b)"/>
                <path fill="#0A51B7" d="M483.52 252.251c0 1.043-.845 1.888-1.888 1.888s-1.887-.845-1.887-1.888c0-1.042.844-1.888 1.887-1.888 1.043 0 1.887.846 1.887 1.888" mask="url(#prefix__b)"/>
                <path fill="#000" d="M481.632 250.363c-1.042 0-1.888.846-1.888 1.888 0 1.042.846 1.887 1.888 1.887 1.043 0 1.888-.845 1.888-1.887s-.845-1.888-1.888-1.888m0 .564c.729 0 1.323.594 1.323 1.324 0 .73-.594 1.323-1.323 1.323-.73 0-1.322-.594-1.322-1.323 0-.73.593-1.324 1.322-1.324" mask="url(#prefix__b)"/>
                <path fill="#0A51B7" d="M471.877 266.426c0 1.043-.846 1.888-1.888 1.888-1.043 0-1.887-.845-1.887-1.888 0-1.042.844-1.887 1.887-1.887 1.042 0 1.888.845 1.888 1.887" mask="url(#prefix__b)"/>
                <path fill="#000" d="M469.99 264.54c-1.043 0-1.889.844-1.889 1.886 0 1.043.846 1.887 1.888 1.887 1.042 0 1.888-.844 1.888-1.887 0-1.042-.846-1.887-1.888-1.887m0 .564c.73 0 1.323.594 1.323 1.323 0 .73-.594 1.323-1.323 1.323s-1.323-.593-1.323-1.323c0-.729.594-1.323 1.323-1.323" mask="url(#prefix__b)"/>
                <path fill="#0A51B7" d="M477.698 266.426c0 1.043-.846 1.888-1.888 1.888-1.042 0-1.887-.845-1.887-1.888 0-1.042.845-1.887 1.887-1.887s1.888.845 1.888 1.887" mask="url(#prefix__b)"/>
                <path fill="#000" d="M475.81 264.54c-1.041 0-1.887.844-1.887 1.886 0 1.043.846 1.887 1.887 1.887 1.043 0 1.889-.844 1.889-1.887 0-1.042-.846-1.887-1.889-1.887m0 .564c.73 0 1.322.594 1.322 1.323 0 .73-.593 1.323-1.322 1.323-.728 0-1.322-.593-1.322-1.323 0-.729.594-1.323 1.322-1.323" mask="url(#prefix__b)"/>
                <path fill="#0A51B7" d="M483.52 266.426c0 1.043-.845 1.888-1.888 1.888s-1.887-.845-1.887-1.888c0-1.042.844-1.887 1.887-1.887 1.043 0 1.887.845 1.887 1.887" mask="url(#prefix__b)"/>
                <path fill="#000" d="M481.632 264.54c-1.042 0-1.888.844-1.888 1.886 0 1.043.846 1.887 1.888 1.887 1.043 0 1.888-.844 1.888-1.887 0-1.042-.845-1.887-1.888-1.887m0 .564c.729 0 1.323.594 1.323 1.323 0 .73-.594 1.323-1.323 1.323-.73 0-1.322-.593-1.322-1.323 0-.729.593-1.323 1.322-1.323" mask="url(#prefix__b)"/>
                <path fill="#FFF" d="M446.343 234.898L446.343 241.093" mask="url(#prefix__b)"/>
                <path fill="#000" d="M446.061 241.094L446.625 241.094 446.625 234.899 446.061 234.899z" mask="url(#prefix__b)"/>
                <path fill="#FFF" d="M449.544 234.898L449.544 241.093" mask="url(#prefix__b)"/>
                <path fill="#000" d="M449.262 241.094L449.826 241.094 449.826 234.899 449.262 234.899z" mask="url(#prefix__b)"/>
                <path fill="#FFF" d="M452.745 234.898L452.745 241.093" mask="url(#prefix__b)"/>
                <path fill="#000" d="M452.463 241.094L453.027 241.094 453.027 234.899 452.463 234.899z" mask="url(#prefix__b)"/>
                <path fill="#FFF" d="M455.946 234.898L455.946 241.093" mask="url(#prefix__b)"/>
                <path fill="#000" d="M455.665 241.094L456.229 241.094 456.229 234.899 455.665 234.899z" mask="url(#prefix__b)"/>
                <path fill="#FFF" d="M459.147 234.898L459.147 241.093" mask="url(#prefix__b)"/>
                <path fill="#000" d="M458.866 241.094L459.43 241.094 459.43 234.899 458.866 234.899z" mask="url(#prefix__b)"/>
                <path fill="#FFF" d="M462.349 234.898L462.349 241.093" mask="url(#prefix__b)"/>
                <path fill="#000" d="M462.067 241.094L462.631 241.094 462.631 234.899 462.067 234.899z" mask="url(#prefix__b)"/>
                <path fill="#FFF" d="M447.943 234.898L447.943 241.093" mask="url(#prefix__b)"/>
                <path fill="#000" d="M447.662 241.094L448.226 241.094 448.226 234.899 447.662 234.899z" mask="url(#prefix__b)"/>
                <path fill="#FFF" d="M451.144 234.898L451.144 241.093" mask="url(#prefix__b)"/>
                <path fill="#000" d="M450.863 241.094L451.427 241.094 451.427 234.899 450.863 234.899z" mask="url(#prefix__b)"/>
                <path fill="#FFF" d="M454.346 234.898L454.346 241.093" mask="url(#prefix__b)"/>
                <path fill="#000" d="M454.064 241.094L454.628 241.094 454.628 234.899 454.064 234.899z" mask="url(#prefix__b)"/>
                <path fill="#FFF" d="M457.547 234.898L457.547 241.093" mask="url(#prefix__b)"/>
                <path fill="#000" d="M457.265 241.094L457.829 241.094 457.829 234.899 457.265 234.899z" mask="url(#prefix__b)"/>
                <path fill="#FFF" d="M460.748 234.898L460.748 241.093" mask="url(#prefix__b)"/>
                <path fill="#000" d="M460.466 241.094L461.03 241.094 461.03 234.899 460.466 234.899z" mask="url(#prefix__b)"/>
                <path fill="#FFF" d="M446.343 249.153L446.343 255.348" mask="url(#prefix__b)"/>
                <path fill="#000" d="M446.061 255.349L446.625 255.349 446.625 249.154 446.061 249.154z" mask="url(#prefix__b)"/>
                <path fill="#FFF" d="M449.544 249.153L449.544 255.348" mask="url(#prefix__b)"/>
                <path fill="#000" d="M449.262 255.349L449.826 255.349 449.826 249.154 449.262 249.154z" mask="url(#prefix__b)"/>
                <path fill="#FFF" d="M452.745 249.153L452.745 255.348" mask="url(#prefix__b)"/>
                <path fill="#000" d="M452.463 255.349L453.027 255.349 453.027 249.154 452.463 249.154z" mask="url(#prefix__b)"/>
                <path fill="#FFF" d="M455.946 249.153L455.946 255.348" mask="url(#prefix__b)"/>
                <path fill="#000" d="M455.665 255.349L456.229 255.349 456.229 249.154 455.665 249.154z" mask="url(#prefix__b)"/>
                <path fill="#FFF" d="M459.147 249.153L459.147 255.348" mask="url(#prefix__b)"/>
                <path fill="#000" d="M458.866 255.349L459.43 255.349 459.43 249.154 458.866 249.154z" mask="url(#prefix__b)"/>
                <path fill="#FFF" d="M462.349 249.153L462.349 255.348" mask="url(#prefix__b)"/>
                <path fill="#000" d="M462.067 255.349L462.631 255.349 462.631 249.154 462.067 249.154z" mask="url(#prefix__b)"/>
                <path fill="#FFF" d="M447.943 249.153L447.943 255.348" mask="url(#prefix__b)"/>
                <path fill="#000" d="M447.662 255.349L448.226 255.349 448.226 249.154 447.662 249.154z" mask="url(#prefix__b)"/>
                <path fill="#FFF" d="M451.144 249.153L451.144 255.348" mask="url(#prefix__b)"/>
                <path fill="#000" d="M450.863 255.349L451.427 255.349 451.427 249.154 450.863 249.154z" mask="url(#prefix__b)"/>
                <path fill="#FFF" d="M454.346 249.153L454.346 255.348" mask="url(#prefix__b)"/>
                <path fill="#000" d="M454.064 255.349L454.628 255.349 454.628 249.154 454.064 249.154z" mask="url(#prefix__b)"/>
                <path fill="#FFF" d="M457.547 249.153L457.547 255.348" mask="url(#prefix__b)"/>
                <path fill="#000" d="M457.265 255.349L457.829 255.349 457.829 249.154 457.265 249.154z" mask="url(#prefix__b)"/>
                <path fill="#FFF" d="M460.748 249.153L460.748 255.348" mask="url(#prefix__b)"/>
                <path fill="#000" d="M460.466 255.349L461.03 255.349 461.03 249.154 460.466 249.154z" mask="url(#prefix__b)"/>
                <path fill="#FFF" d="M446.343 263.408L446.343 269.603" mask="url(#prefix__b)"/>
                <path fill="#000" d="M446.061 269.604L446.625 269.604 446.625 263.409 446.061 263.409z" mask="url(#prefix__b)"/>
                <path fill="#FFF" d="M449.544 263.408L449.544 269.603" mask="url(#prefix__b)"/>
                <path fill="#000" d="M449.262 269.604L449.826 269.604 449.826 263.409 449.262 263.409z" mask="url(#prefix__b)"/>
                <path fill="#FFF" d="M452.745 263.408L452.745 269.603" mask="url(#prefix__b)"/>
                <path fill="#000" d="M452.463 269.604L453.027 269.604 453.027 263.409 452.463 263.409z" mask="url(#prefix__b)"/>
                <path fill="#FFF" d="M455.946 263.408L455.946 269.603" mask="url(#prefix__b)"/>
                <path fill="#000" d="M455.665 269.604L456.229 269.604 456.229 263.409 455.665 263.409z" mask="url(#prefix__b)"/>
                <path fill="#FFF" d="M459.147 263.408L459.147 269.603" mask="url(#prefix__b)"/>
                <path fill="#000" d="M458.866 269.604L459.43 269.604 459.43 263.409 458.866 263.409z" mask="url(#prefix__b)"/>
                <path fill="#FFF" d="M462.349 263.408L462.349 269.603" mask="url(#prefix__b)"/>
                <path fill="#000" d="M462.067 269.604L462.631 269.604 462.631 263.409 462.067 263.409z" mask="url(#prefix__b)"/>
                <path fill="#FFF" d="M447.943 263.408L447.943 269.603" mask="url(#prefix__b)"/>
                <path fill="#000" d="M447.662 269.604L448.226 269.604 448.226 263.409 447.662 263.409z" mask="url(#prefix__b)"/>
                <path fill="#FFF" d="M451.144 263.408L451.144 269.603" mask="url(#prefix__b)"/>
                <path fill="#000" d="M450.863 269.604L451.427 269.604 451.427 263.409 450.863 263.409z" mask="url(#prefix__b)"/>
                <path fill="#FFF" d="M454.346 263.408L454.346 269.603" mask="url(#prefix__b)"/>
                <path fill="#000" d="M454.064 269.604L454.628 269.604 454.628 263.409 454.064 263.409z" mask="url(#prefix__b)"/>
                <path fill="#FFF" d="M457.547 263.408L457.547 269.603" mask="url(#prefix__b)"/>
                <path fill="#000" d="M457.265 269.604L457.829 269.604 457.829 263.409 457.265 263.409z" mask="url(#prefix__b)"/>
                <path fill="#FFF" d="M460.748 263.408L460.748 269.603" mask="url(#prefix__b)"/>
                <path fill="#000" d="M460.466 269.604L461.03 269.604 461.03 263.409 460.466 263.409z" mask="url(#prefix__b)"/>
                <path fill="#E6E8EB" d="M479.18 263.543s.188-1.193 1.879-2.007c1.689-.813 5.929-1.964 11.108-1.249 5.179.715 6.54 2 6.54 2l.623 1.377-.002 15.146s-.683 1.814-4.157 2.565c-3.473.751-10.388 1.002-13.706-.531 0 0-2.097-.877-2.284-2.191v-15.11z" mask="url(#prefix__b)"/>
                <path fill="#000" d="M479.463 278.639c.143.333 1.614 3.208 9.786 3.208 8.158 0 9.648-2.864 9.797-3.21l.002-15.186c-.106-.295-1.355-3.106-10.096-3.106-9.134 0-9.487 3.12-9.49 3.153v15.14zm9.786 3.772c-9.116 0-10.293-3.49-10.338-3.637l-.012-.083V263.48c.007-.165.296-3.7 10.053-3.7 9.712 0 10.619 3.419 10.654 3.565l.006.064-.014 15.366c-.046.148-1.232 3.636-10.35 3.636z" mask="url(#prefix__b)"/>
                <path fill="#000" d="M489.035 272.35c-8.857 0-10.073-3.261-10.122-3.401l.535-.182-.267.09.266-.093c.011.03 1.204 3.023 9.591 3.023l.345-.002c8.678-.082 9.667-2.977 9.676-3.006l.543.154c-.038.136-1.028 3.329-10.213 3.416l-.354.002M489.036 277.309c-8.858 0-10.074-3.263-10.123-3.403l.535-.182-.267.09.266-.093c.011.03 1.244 3.138 9.936 3.022 8.678-.083 9.667-2.978 9.676-3.007l.543.154c-.038.136-1.028 3.329-10.213 3.417l-.353.002M489.036 267.394c-8.858 0-10.074-3.263-10.123-3.403l.535-.182-.267.09.266-.093c.011.03 1.244 3.086 9.936 3.022 8.678-.083 9.667-2.978 9.676-3.007l.543.154c-.038.136-1.028 3.329-10.213 3.417l-.353.002" mask="url(#prefix__b)"/>
                <path fill="#C5C8CF" d="M465.242 189.81L465.992 189.81 465.992 147.982 465.242 147.982z" mask="url(#prefix__b)"/>
                <path fill="#C5C8CF" d="M465.617 153.957L460.855 153.957 463.236 149.833 465.617 145.709 467.999 149.833 470.38 153.957z" mask="url(#prefix__b)"/>
                <path fill="#000" d="M7.76 138.842h1.247v-10.865H7.76v10.865zm-3.67-8.179c0 1.991 1.103 3.982 2.806 4.749l-.719.984c-1.247-.587-2.196-1.787-2.687-3.25-.492 1.571-1.451 2.854-2.759 3.49L0 135.604c1.728-.78 2.854-2.854 2.854-4.941v-1.774H4.09v1.774zM18.872 130.783h-2.195v-.996h2.195v-1.81h1.235v5.564h-1.235v-2.758zm1.606 6.932v.971H13.08v-2.806h5.805v-.864h-5.829v-.96h7.052v2.735h-5.804v.924h6.175zm-3.597-4.354c-1.175-.395-2.039-1.199-2.494-2.207-.48 1.128-1.38 2.004-2.652 2.447l-.634-.97c1.69-.553 2.637-1.909 2.637-3.395v-.912h1.236v.912c0 1.367.935 2.64 2.554 3.166l-.647.96zM25.956 133.386c2.111-.336 3.826-1.835 3.826-3.466v-.024H26.34v-.995h8.18v.995h-3.443v.024c0 1.63 1.728 3.094 3.874 3.43l-.504.983c-1.787-.336-3.309-1.343-4.017-2.722-.696 1.39-2.207 2.422-3.958 2.758l-.516-.983zm9.391 3.095v1.007h-9.81v-1.007h4.281v-2.532h1.247v2.532h4.282zM46.566 131.767h-1.535v2.746h-1.236v-6.536h1.236v2.77h1.535v1.02zm-8.659 3.274h7.124v3.778h-1.236v-2.782h-5.888v-.996zm4.401-.96c-1.212-.395-2.075-1.223-2.543-2.254-.479 1.139-1.379 2.027-2.65 2.47l-.648-.97c1.715-.577 2.662-1.956 2.662-3.444v-.191h-2.302v-1.008h5.817v1.008h-2.266v.19c0 1.368.911 2.7 2.566 3.252l-.636.947zM47.64 139.514c.815-.336 1.295-.936 1.308-1.643-.05.012-.084.012-.133.012-.491 0-.923-.311-.923-.887 0-.54.432-.888.959-.888.672 0 1.067.564 1.067 1.488 0 1.259-.731 2.23-1.966 2.698l-.312-.78zM61.628 130.71v-2.722h1.235v6.453h-1.235v-2.722h-1.92v-1.008h1.92zm.048 6.069c0-.707-.888-1.09-2.411-1.09-1.547 0-2.422.383-2.422 1.09 0 .708.875 1.092 2.422 1.092 1.523 0 2.41-.384 2.41-1.092zm1.235 0c0 1.295-1.391 2.05-3.646 2.05-2.267 0-3.658-.755-3.658-2.05 0-1.283 1.39-2.05 3.658-2.05 2.255 0 3.646.767 3.646 2.05zm-3.19-2.685c-1.2-.42-2.063-1.272-2.52-2.316-.478 1.188-1.39 2.148-2.674 2.603l-.635-.983c1.679-.6 2.65-2.04 2.65-3.527v-.156h-2.29v-.994h5.793v.994H57.79v.144c0 1.356.923 2.7 2.542 3.262l-.611.973zM72.596 138.842h1.247v-10.865h-1.247v10.865zm-5.865-3.573h2.746v-2.65h-2.746v2.65zm0-6.393v2.759h2.747v-2.759h1.235v7.388h-5.205v-7.388h1.223zM87.02 138.842h1.247v-10.877H87.02v10.877zm-5.83-3.598c1.715-.012 3.214-.096 4.93-.371l.132 1.007c-1.859.324-3.479.384-5.386.384h-.923v-4.293h3.778v-2.016h-3.802v-1.008h5.05v4.019H81.19v2.278zM99.223 134.297c-1.763-.36-3.286-1.487-3.994-2.975-.707 1.488-2.231 2.616-3.993 2.975l-.53-1.02c2.136-.395 3.875-2.062 3.875-3.777v-.816h1.308v.816c0 1.727 1.739 3.394 3.874 3.777l-.54 1.02zm-8.852 3.13h9.81v-1.02h-9.81v1.02zM110.13 134.705h-7.507v-5.842h7.424v.996h-6.165v1.391h5.925v.973h-5.925v1.486h6.249v.996zm-8.718 2.782h9.823v-1.007h-9.823v1.007zM123.487 134.165h1.248v-6.188h-1.248v6.188zm-5.912-1.991h2.723v-2.53h-2.723v2.53zm4.27 3.61c.095.888 1.487 1.859 3.49 2.075l-.408.936c-1.715-.204-3.059-.9-3.718-1.836-.66.948-2.027 1.632-3.754 1.836l-.408-.936c2.027-.204 3.431-1.152 3.526-2.075h-3.106v-.947h3.106v-.972h1.26v.972h3.105v.947h-3.093zm-5.482-2.626h5.134v-4.498h-5.134v4.498zM27.379 149.3h-1.691v5.519h-1.236v-10.83h1.236v4.292h1.69v1.02zm-6.285-2.638c0 1.932 1.008 3.887 2.639 4.69l-.756.983c-1.163-.6-2.027-1.774-2.494-3.19-.468 1.5-1.38 2.759-2.615 3.394l-.756-.995c1.692-.828 2.746-2.88 2.746-4.882v-1.774h1.236v1.774zM35.828 146.003h-6.465v-1.008h7.712v1.068c0 1.343 0 2.842-.42 5.086l-1.247-.133c.42-2.122.42-3.658.42-4.953v-.06zm2.303 6.38v1.019h-9.787v-1.018h3.646v-3.815h1.247v3.815h4.894zM51.978 143.976v10.83h-1.175v-5.541H49.52v5.014h-1.164v-10.074h1.163v4.053h1.284v-4.282h1.175zm-7.663 7.244c1.247-.012 2.23-.071 3.346-.3l.108 1.02c-1.307.252-2.423.3-3.945.3h-.72v-6.968h4.005v1.007h-2.794v4.94zM62.767 143.964v10.878h-1.235v-5.59h-2.147v-1.006h2.147v-4.282h1.235zm-5.11 3.466c0 1.69 1.032 3.454 2.675 4.21l-.647.947c-1.224-.563-2.147-1.667-2.627-2.998-.468 1.415-1.367 2.603-2.614 3.19l-.684-.96c1.655-.78 2.675-2.614 2.675-4.39v-.622h-2.34v-.996h2.327v-1.607h1.247v1.607h2.28v.996h-2.291v.623zM71.819 149.541h2.494v-3.538h-2.494v3.538zm-1.236-3.538h-1.596v-.995h8.144v.995h-1.595v3.538h1.571v1.008h-8.084v-1.008h1.56v-3.538zm-2.411 7.483h9.835v-1.019h-9.835v1.019zM89.034 152.527L89.034 153.547 79.223 153.547 79.223 152.527 83.493 152.527 83.493 150.68 80.411 150.68 80.411 147.19 86.647 147.19 86.647 145.739 80.388 145.739 80.388 144.743 87.871 144.743 87.871 148.173 81.623 148.173 81.623 149.684 88.111 149.684 88.111 150.68 84.728 150.68 84.728 152.527zM98.336 154.818h1.175v-10.83h-1.175v10.83zm-2.207-10.627h1.163v10.123h-1.163v-5.529h-1.596v-1.007h1.596v-3.587zm-2.543 2.687c0 1.752.66 3.587 2.111 4.498l-.696.959c-.983-.6-1.631-1.654-2.003-2.866-.384 1.331-1.091 2.47-2.135 3.106l-.755-.935c1.536-.911 2.279-2.855 2.279-4.702v-1.955h1.199v1.895zM110.155 150.297c-1.763-.36-3.286-1.487-3.994-2.975-.707 1.488-2.23 2.615-3.993 2.975l-.529-1.02c2.135-.396 3.874-2.063 3.874-3.778v-.815h1.308v.815c0 1.728 1.738 3.395 3.874 3.778l-.54 1.02zm-8.852 3.13h9.811v-1.02h-9.81v1.02zM43.603 170.806h1.187v-10.83h-1.187v10.83zm-2.207-10.59h1.164v10.087h-1.164v-5.254h-2.134v-1.007h2.134v-3.826zm-4.27 7.064c1.344-.012 2.268-.072 3.335-.3l.107 1.02c-1.223.239-2.278.3-3.933.3h-.732v-7.04h4.102v1.007h-2.879v5.013zM54.247 170.842h1.247v-10.866h-1.247v10.866zm-6.116-6.248c0 1.703.659 2.722 1.595 2.722.947 0 1.607-1.019 1.607-2.722 0-1.68-.66-2.699-1.607-2.699-.936 0-1.595 1.019-1.595 2.699zm4.39 0c0 2.35-1.176 3.825-2.795 3.825-1.608 0-2.783-1.475-2.783-3.825 0-2.327 1.175-3.815 2.783-3.815 1.619 0 2.795 1.488 2.795 3.815zM66.618 159.964v10.866h-1.247v-5.865h-2.075v-1.02h2.075v-3.981h1.247zm-7.279 7.328c1.726-.012 2.962-.072 4.377-.311l.108.995c-1.548.275-2.902.324-4.869.324h-.852v-7.376h5.025v1.019H59.34v2.027h3.345v.983H59.34v2.339zM77.504 164.222h2.255v-1.331h-2.255v1.331zm3.742 5.384v1.008h-7.305v-3.394h1.248v2.386h6.057zm-7.508-4.376h2.554v-1.764h-2.554v1.764zm3.766 1.006h-4.989v-5.528h1.223v1.786h2.554v-1.786h1.212v1.187h2.255V160h1.235v8h-1.235v-2.771h-2.255v1.007zM93.03 163.658v1.02h-1.488v3.777h-1.236v-8.48h1.236v3.683h1.487zm-6.693 1.067c.863 0 1.415-.299 1.415-.803 0-.516-.552-.827-1.415-.827-.864 0-1.415.311-1.415.827 0 .504.551.803 1.415.803zm-.564 4.881h6.141v1.008h-7.376v-2.698h1.235v1.69zm3.658-7.735h-6.188v-.912h2.482v-1.019h1.247v1.02h2.46v.911zm.396 4.941c-2.267.432-4.846.48-6.717.492l-.144-.984c.804 0 1.763-.012 2.76-.036v-.743c-1.213-.144-1.968-.732-1.968-1.619 0-1.032 1.02-1.667 2.58-1.667 1.558 0 2.578.635 2.578 1.667 0 .875-.744 1.475-1.944 1.62v.682c.936-.059 1.883-.13 2.76-.263l.095.851z" mask="url(#prefix__b)"/>
                <path fill="#C5C8CF" d="M131.148 57.223L172.977 57.223 172.977 56.473 131.148 56.473z" mask="url(#prefix__b)"/>
                <path fill="#C5C8CF" d="M167.001 56.848L167.001 52.086 171.125 54.467 175.249 56.848 171.125 59.229 167.001 61.611zM310.479 50.973L411.085 50.973 411.085 50.223 310.479 50.223z" mask="url(#prefix__b)"/>
                <path fill="#C5C8CF" d="M405.109 50.598L405.109 45.836 409.233 48.217 413.357 50.598 409.233 52.979 405.109 55.36zM308.627 64.037L409.233 64.037 409.233 63.287 308.627 63.287z" mask="url(#prefix__b)"/>
                <path fill="#C5C8CF" d="M314.603 63.662L314.603 68.425 310.478 66.044 306.354 63.662 310.478 61.281 314.603 58.9zM521.951 57.223L614.411 57.223 614.411 56.473 521.951 56.473z" mask="url(#prefix__b)"/>
                <path fill="#C5C8CF" d="M608.436 56.848L608.436 52.086 612.559 54.467 616.683 56.848 612.559 59.229 608.436 61.611z" mask="url(#prefix__b)"/>
                <path fill="#000" d="M665.205 134.285l-.348-1.187c-.3-.959-.564-1.943-.839-2.938h-.049c-.252 1.007-.528 1.98-.815 2.938l-.359 1.187h2.41zm.336 1.092h-3.07l-.756 2.518H660.3l2.927-8.827h1.606l2.928 8.827h-1.477l-.742-2.518zM670.318 133.219h1.33c1.283 0 1.981-.528 1.981-1.596 0-1.067-.698-1.44-1.98-1.44h-1.33v3.036zm3.43 4.677l-2.004-3.562h-1.426v3.562h-1.393v-8.827h2.891c1.824 0 3.191.647 3.191 2.554 0 1.367-.732 2.183-1.847 2.53l2.158 3.743h-1.57zM679.354 133.386c2.11-.335 3.825-1.835 3.825-3.466v-.023h-3.44v-.996h8.178v.996h-3.442v.023c0 1.63 1.728 3.094 3.875 3.43l-.505.984c-1.787-.336-3.31-1.344-4.017-2.722-.695 1.39-2.207 2.42-3.958 2.757l-.516-.983zm9.39 3.095v1.008h-9.81v-1.008h4.283v-2.532h1.245v2.532h4.283zM699.965 131.768h-1.535v2.746h-1.235v-6.537h1.235v2.77h1.535v1.02zm-8.658 3.273h7.123v3.778h-1.235v-2.781h-5.888v-.997zm4.4-.96c-1.211-.395-2.074-1.222-2.543-2.254-.478 1.14-1.38 2.027-2.65 2.47l-.647-.97c1.715-.577 2.662-1.955 2.662-3.443v-.192h-2.302v-1.007h5.816v1.007h-2.265v.192c0 1.367.91 2.698 2.566 3.25l-.637.948zM701.04 139.515c.813-.336 1.294-.936 1.306-1.644-.049.012-.084.012-.133.012-.49 0-.922-.31-.922-.887 0-.54.432-.887.96-.887.671 0 1.065.563 1.065 1.487 0 1.26-.73 2.23-1.966 2.698l-.31-.78zM632.586 149.302h-1.691v5.518h-1.237v-10.83h1.237v4.292h1.69v1.02zm-6.285-2.64c0 1.933 1.008 3.888 2.639 4.69l-.756.984c-1.164-.6-2.028-1.774-2.494-3.19-.47 1.5-1.38 2.759-2.616 3.394l-.756-.995c1.692-.828 2.747-2.88 2.747-4.882v-1.774h1.236v1.774zM641.035 146.004h-6.465v-1.008h7.711v1.068c0 1.343 0 2.842-.42 5.086l-1.246-.133c.42-2.122.42-3.658.42-4.953v-.06zm2.303 6.38v1.019h-9.787v-1.018h3.646v-3.815h1.246v3.815h4.895zM657.186 143.977v10.83h-1.177v-5.541h-1.283v5.014h-1.162v-10.074h1.163v4.053h1.283v-4.282h1.176zm-7.665 7.244c1.249-.012 2.233-.071 3.349-.3l.106 1.02c-1.307.252-2.423.3-3.944.3h-.721v-6.968h4.005v1.007h-2.795v4.94zM667.973 143.965v10.878h-1.234v-5.59h-2.147v-1.006h2.147v-4.282h1.234zm-5.11 3.466c0 1.69 1.032 3.454 2.676 4.21l-.648.947c-1.223-.563-2.147-1.667-2.627-2.998-.467 1.415-1.367 2.603-2.613 3.19l-.684-.96c1.654-.78 2.674-2.614 2.674-4.39v-.622h-2.338v-.996h2.326v-1.607h1.246v1.607h2.28v.996h-2.291v.623zM682.637 143.99v10.816h-1.174v-5.588h-1.236v5.085h-1.164v-10.11h1.164v4.018h1.236v-4.222h1.174zm-7.734 7.026h1.87v-4.856h-1.87v4.856zm-1.153.984h4.174v-6.824h-4.174V152zM693.102 148.534h-7.46v-4.029h1.247v3.022h6.213v1.007zm1.127 2.4h-2.41v3.897h-1.235v-3.898h-2.52v3.898h-1.233v-3.898h-2.401v-1.007h9.799v1.007zM704.8 153.716v.972h-7.397v-2.843h5.816v-.888h-5.83v-.96h7.053v2.759h-5.817v.96h6.176zm-6.354-5.445c.935 0 1.63-.588 1.63-1.475 0-.888-.695-1.476-1.63-1.476-.96 0-1.643.588-1.643 1.476 0 .887.684 1.475 1.643 1.475zm2.757-.984c-.228 1.176-1.318 1.992-2.757 1.992-1.631 0-2.831-1.032-2.831-2.483 0-1.452 1.2-2.483 2.83-2.483 1.428 0 2.506.792 2.747 1.966h2.002v-2.302h1.248v5.48h-1.248v-2.17h-1.991zM717.533 154.843h1.248v-10.866h-1.248v10.866zm-3.67-8.18c0 1.991 1.104 3.983 2.807 4.75l-.719.983c-1.248-.587-2.195-1.787-2.687-3.25-.493 1.571-1.452 2.855-2.758 3.49l-.733-1.032c1.729-.779 2.856-2.854 2.856-4.941v-1.774h1.234v1.774zM730.9 147.66h-1.535v2.65h-1.235v-6.334h1.235v2.663h1.535v1.02zm-8.658 3.13h7.123v4.041h-1.235v-3.047h-5.888v-.995zm4.137-6.153c0 2.806-1.86 4.761-5.049 5.612l-.504-.97c2.543-.648 4.03-1.992 4.246-3.647h-3.73v-.995h5.037zM741.965 149.53h-1.547v5.29h-1.236v-10.844h1.236v4.534h1.547v1.02zm-6.717.336c.852 0 1.428-.408 1.428-1.068 0-.67-.576-1.08-1.428-1.08-.851 0-1.44.41-1.44 1.08 0 .66.589 1.068 1.44 1.068zm3.203-3.635h-6.441v-.995h2.615v-1.224h1.235v1.224h2.59v.995zm-2.591 5.541c.923-.048 1.847-.107 2.71-.239l.096.911c-2.314.408-4.82.432-6.68.432l-.167-1.02c.828 0 1.798 0 2.806-.036v-1.055c-1.2-.204-1.978-.935-1.978-1.967 0-1.223 1.054-2.027 2.6-2.027 1.536 0 2.59.804 2.59 2.027 0 1.032-.778 1.775-1.977 1.967v1.007zM551.246 25.644l-.348-1.187c-.299-.96-.563-1.943-.839-2.94h-.048c-.252 1.009-.528 1.98-.816 2.94l-.36 1.187h2.411zm.336 1.09h-3.07l-.756 2.52h-1.415l2.926-8.828h1.607l2.927 8.828h-1.476l-.743-2.52zM556.36 24.576h1.33c1.283 0 1.98-.527 1.98-1.596 0-1.066-.697-1.439-1.98-1.439h-1.33v3.035zm3.43 4.678l-2.004-3.563h-1.427v3.563h-1.392v-8.828h2.891c1.823 0 3.19.648 3.19 2.554 0 1.367-.73 2.184-1.846 2.532l2.158 3.742h-1.57zM565.395 24.744c2.111-.336 3.827-1.836 3.827-3.467v-.023h-3.442v-.996h8.178v.996h-3.442v.023c0 1.631 1.729 3.095 3.875 3.431l-.505.983c-1.786-.336-3.308-1.343-4.016-2.722-.697 1.391-2.207 2.422-3.958 2.758l-.517-.983zm9.392 3.094v1.008h-9.812v-1.008h4.283v-2.53h1.246v2.53h4.283zM586.007 23.125h-1.535v2.746h-1.236v-6.536h1.236v2.77h1.535v1.02zm-8.66 3.273h7.125v3.779h-1.236v-2.782h-5.888v-.997zm4.402-.959c-1.212-.395-2.075-1.222-2.543-2.254-.48 1.139-1.38 2.026-2.65 2.47l-.648-.971c1.715-.576 2.662-1.955 2.662-3.442v-.192h-2.302v-1.007h5.817v1.007h-2.267v.192c0 1.367.912 2.698 2.567 3.25l-.636.947zM587.08 30.873c.815-.336 1.295-.936 1.308-1.644-.049.012-.084.012-.133.012-.49 0-.923-.311-.923-.888 0-.539.432-.886.96-.886.671 0 1.066.563 1.066 1.486 0 1.26-.73 2.232-1.966 2.699l-.312-.779zM536.867 40.66h-1.69v5.517h-1.237v-10.83h1.236v4.293h1.691v1.02zm-6.285-2.639c0 1.931 1.008 3.886 2.64 4.69l-.757.983c-1.163-.599-2.027-1.774-2.494-3.19-.468 1.5-1.379 2.76-2.615 3.394l-.756-.996c1.692-.827 2.746-2.878 2.746-4.88v-1.776h1.236v1.775zM545.316 37.361h-6.465v-1.007h7.712v1.068c0 1.343 0 2.841-.42 5.085l-1.247-.132c.42-2.123.42-3.659.42-4.953v-.06zm2.303 6.381v1.02h-9.787v-1.02h3.646v-3.815h1.247v3.815h4.894zM561.467 35.335v10.83h-1.176v-5.541h-1.283v5.013h-1.163V35.563h1.163v4.054h1.283v-4.282h1.176zm-7.664 7.244c1.247-.013 2.23-.072 3.347-.3l.107 1.02c-1.307.252-2.423.299-3.945.299h-.72v-6.967h4.006v1.007h-2.795v4.941zM572.255 35.322v10.88h-1.235v-5.59h-2.147v-1.008h2.147v-4.282h1.235zm-5.11 3.467c0 1.691 1.032 3.454 2.675 4.21l-.647.947c-1.224-.563-2.147-1.667-2.627-2.999-.468 1.416-1.367 2.604-2.614 3.191l-.684-.96c1.655-.78 2.675-2.614 2.675-4.389v-.623h-2.34v-.996h2.327v-1.608h1.247v1.608h2.28v.996h-2.291v.623zM585.732 46.165h1.187v-10.83h-1.187v10.83zm-2.207-10.591h1.163v10.087h-1.163v-5.253h-2.134V39.4h2.134v-3.826zm-4.27 7.065c1.344-.012 2.267-.073 3.335-.3l.107 1.019c-1.223.24-2.278.3-3.933.3h-.732v-7.04h4.102v1.007h-2.879v5.014zM596.376 46.201h1.247V35.335h-1.247v10.866zm-6.116-6.249c0 1.703.659 2.723 1.594 2.723.948 0 1.608-1.02 1.608-2.723 0-1.679-.66-2.698-1.608-2.698-.935 0-1.594 1.019-1.594 2.698zm4.389 0c0 2.351-1.175 3.826-2.795 3.826-1.607 0-2.782-1.475-2.782-3.826 0-2.327 1.175-3.813 2.782-3.813 1.62 0 2.795 1.486 2.795 3.813zM608.747 35.322V46.19H607.5v-5.865h-2.075v-1.02h2.075v-3.982h1.247zm-7.279 7.328c1.726-.012 2.962-.07 4.377-.31l.108.994c-1.548.276-2.902.324-4.869.324h-.852v-7.376h5.025v1.02h-3.789v2.026h3.345v.984h-3.345v2.338zM337.773 78.224c.084.252.12.516.12.804 0 .287-.036.55-.12.802h2.075v-1.606h-2.075zm3.586 7.005v1.007h-7.292v-3.454h1.235v2.447h6.057zm-6.273-4.523c.924 0 1.631-.67 1.631-1.678 0-.984-.707-1.656-1.63-1.656-.948 0-1.656.672-1.656 1.656 0 1.008.708 1.678 1.655 1.678zm2.16.132c-.504.588-1.272.948-2.16.936-1.607 0-2.83-1.151-2.83-2.746 0-1.596 1.223-2.746 2.83-2.746.888 0 1.656.359 2.16.935h2.602V75.62h1.236v7.963h-1.236v-2.746h-2.602zM351.224 86.439h1.187v-10.83h-1.187v10.83zm-2.183-10.566h1.151v10.039h-1.151v-3.646h-1.774v-1.008h1.774v-1.715h-1.583c-.503 1.822-1.643 3.395-3.67 4.605l-.707-.875c2.231-1.355 3.31-3.119 3.489-5.337h-2.962v-.996h4.186c0 .552-.036 1.091-.12 1.595h1.367v-2.662zM365.613 86.428h1.187v-10.83h-1.187v10.83zm-2.207-10.591h1.163v10.087h-1.163V80.67h-2.135v-1.008h2.135v-3.825zm-4.27 7.063c1.343-.011 2.267-.071 3.335-.298l.107 1.019c-1.223.239-2.278.299-3.933.299h-.732v-7.039h4.102v1.007h-2.879V82.9zM376.257 86.463h1.247V75.598h-1.247v10.865zm-6.116-6.248c0 1.703.659 2.723 1.594 2.723.948 0 1.608-1.02 1.608-2.723 0-1.68-.66-2.699-1.608-2.699-.935 0-1.594 1.019-1.594 2.699zm4.389 0c0 2.35-1.176 3.826-2.795 3.826-1.607 0-2.782-1.476-2.782-3.826 0-2.327 1.175-3.815 2.782-3.815 1.619 0 2.795 1.488 2.795 3.815zM388.628 75.585v10.866h-1.247v-5.865h-2.075v-1.02h2.075v-3.981h1.247zm-7.28 7.328c1.727-.013 2.963-.071 4.378-.311l.108.995c-1.548.276-2.902.323-4.87.323h-.851v-7.375h5.025v1.019h-3.79v2.027h3.346v.983h-3.345v2.339zM343.847 21.077l-.348-1.187c-.3-.96-.563-1.943-.84-2.939h-.047c-.252 1.008-.528 1.98-.816 2.94l-.36 1.186h2.41zm.336 1.091h-3.07l-.756 2.52h-1.415l2.926-8.829h1.607l2.927 8.828h-1.476l-.743-2.519zM348.96 20.01h1.331c1.283 0 1.98-.527 1.98-1.596 0-1.066-.697-1.44-1.98-1.44h-1.331v3.036zm3.43 4.678l-2.003-3.563h-1.427v3.563h-1.392V15.86h2.891c1.823 0 3.19.648 3.19 2.554 0 1.367-.731 2.184-1.846 2.532l2.158 3.742h-1.571zM357.996 20.178c2.111-.336 3.826-1.836 3.826-3.467v-.023h-3.442v-.996h8.18v.996h-3.443v.023c0 1.63 1.728 3.095 3.874 3.43l-.504.984c-1.787-.336-3.309-1.343-4.017-2.722-.696 1.39-2.207 2.422-3.958 2.758l-.516-.983zm9.391 3.094v1.008h-9.81v-1.008h4.281V20.74h1.247v2.53h4.282zM378.607 18.559h-1.535v2.746h-1.236v-6.536h1.236v2.77h1.535v1.02zm-8.659 3.273h7.124v3.779h-1.236v-2.782h-5.888v-.997zm4.401-.96c-1.212-.394-2.075-1.221-2.543-2.253-.479 1.139-1.379 2.026-2.65 2.47l-.648-.971c1.715-.576 2.662-1.955 2.662-3.442v-.192h-2.302v-1.007h5.817v1.007h-2.267v.192c0 1.367.912 2.698 2.567 3.25l-.636.947zM379.68 26.307c.816-.336 1.296-.936 1.309-1.644-.05.012-.084.012-.133.012-.491 0-.923-.311-.923-.888 0-.54.432-.886.959-.886.672 0 1.067.563 1.067 1.486 0 1.26-.731 2.232-1.966 2.699l-.312-.78zM329.468 36.094h-1.691v5.517h-1.236V30.78h1.236v4.293h1.69v1.02zm-6.285-2.64c0 1.932 1.008 3.887 2.639 4.69l-.756.984c-1.163-.6-2.027-1.774-2.494-3.19-.468 1.5-1.38 2.759-2.615 3.394l-.756-.996c1.692-.827 2.746-2.878 2.746-4.881V31.68h1.236v1.775zM337.917 32.795h-6.465v-1.007h7.712v1.068c0 1.343 0 2.84-.42 5.085l-1.247-.132c.42-2.123.42-3.66.42-4.953v-.061zm2.303 6.38v1.02h-9.787v-1.02h3.646v-3.814h1.247v3.815h4.894zM354.067 30.769v10.83h-1.176v-5.541h-1.283v5.013h-1.163V30.997h1.163v4.054h1.283v-4.282h1.176zm-7.664 7.244c1.247-.013 2.231-.072 3.347-.3l.107 1.02c-1.307.252-2.423.299-3.945.299h-.72v-6.967h4.006v1.007h-2.795v4.94zM364.856 30.756v10.879h-1.236v-5.59h-2.147v-1.007h2.147v-4.282h1.236zm-5.11 3.467c0 1.69 1.031 3.454 2.675 4.209l-.647.948c-1.224-.563-2.147-1.667-2.627-3-.469 1.417-1.368 2.605-2.614 3.192l-.685-.96c1.655-.78 2.675-2.614 2.675-4.39V33.6h-2.339v-.996h2.326v-1.608h1.248v1.608h2.28v.996h-2.291v.623zM378.333 41.599h1.187v-10.83h-1.187v10.83zm-2.207-10.591h1.163v10.087h-1.163v-5.253h-2.135v-1.008h2.135v-3.826zm-4.271 7.064c1.344-.011 2.268-.072 3.335-.3l.108 1.02c-1.224.239-2.278.3-3.934.3h-.731v-7.04h4.101v1.007h-2.879v5.013zM388.977 41.635h1.247V30.769h-1.247v10.866zm-6.117-6.249c0 1.703.66 2.722 1.595 2.722.947 0 1.607-1.019 1.607-2.722 0-1.679-.66-2.698-1.607-2.698-.935 0-1.595 1.019-1.595 2.698zm4.39 0c0 2.35-1.176 3.826-2.795 3.826-1.607 0-2.782-1.476-2.782-3.826 0-2.327 1.175-3.814 2.782-3.814 1.619 0 2.795 1.487 2.795 3.814zM401.348 30.756v10.867H400.1v-5.865h-2.075v-1.02h2.075v-3.982h1.247zm-7.28 7.328c1.727-.012 2.963-.071 4.378-.311l.108.995c-1.548.276-2.902.324-4.87.324h-.851v-7.376h5.025v1.019h-3.79v2.027h3.346v.984h-3.345v2.338zM211.106 134.285l-.349-1.187c-.299-.959-.563-1.943-.839-2.938h-.048c-.251 1.007-.528 1.98-.816 2.938l-.36 1.187h2.412zm.335 1.092h-3.07l-.756 2.518H206.2l2.927-8.827h1.606l2.928 8.827h-1.476l-.744-2.518zM216.219 133.219h1.33c1.284 0 1.98-.528 1.98-1.596 0-1.067-.696-1.44-1.98-1.44h-1.33v3.036zm3.43 4.677l-2.003-3.562h-1.427v3.562h-1.392v-8.827h2.89c1.824 0 3.19.647 3.19 2.554 0 1.367-.73 2.183-1.845 2.53l2.158 3.743h-1.571zM232.571 130.783h-2.195v-.995h2.195v-1.812h1.235v5.566h-1.235v-2.759zm1.606 6.933v.971h-7.399v-2.806h5.805v-.864h-5.829v-.96h7.052v2.735h-5.804v.924h6.175zm-3.597-4.355c-1.175-.394-2.039-1.199-2.494-2.206-.48 1.128-1.38 2.003-2.652 2.446l-.634-.97c1.69-.553 2.637-1.908 2.637-3.395v-.912h1.236v.912c0 1.367.935 2.64 2.554 3.166l-.647.96zM243.539 138.843h1.247v-10.866h-1.247v10.866zm-5.864-3.573h2.746v-2.651h-2.746v2.651zm0-6.393v2.758h2.746v-2.758h1.235v7.388h-5.205v-7.388h1.224zM250.695 133.386c2.111-.335 3.826-1.835 3.826-3.466v-.023h-3.442v-.996h8.18v.996h-3.443v.023c0 1.63 1.728 3.094 3.874 3.43l-.504.984c-1.787-.336-3.309-1.344-4.017-2.722-.696 1.39-2.207 2.42-3.958 2.757l-.516-.983zm9.391 3.095v1.008h-9.81v-1.008h4.281v-2.532h1.247v2.532h4.282zM271.307 131.768h-1.535v2.746h-1.236v-6.537h1.236v2.77h1.535v1.02zm-8.66 3.273h7.125v3.778h-1.236v-2.781h-5.888v-.997zm4.402-.96c-1.212-.395-2.075-1.222-2.543-2.254-.48 1.14-1.38 2.027-2.65 2.47l-.648-.97c1.715-.577 2.662-1.955 2.662-3.443v-.192h-2.302v-1.007h5.817v1.007h-2.266v.192c0 1.367.91 2.698 2.566 3.25l-.636.948zM272.38 139.515c.815-.336 1.295-.936 1.308-1.644-.05.012-.084.012-.133.012-.491 0-.923-.31-.923-.887 0-.54.432-.887.959-.887.672 0 1.067.563 1.067 1.487 0 1.26-.731 2.23-1.966 2.698l-.312-.78zM183.677 149.302h-1.691v5.518h-1.236v-10.83h1.236v4.292h1.69v1.02zm-6.285-2.64c0 1.933 1.008 3.888 2.639 4.69l-.756.984c-1.163-.6-2.027-1.774-2.494-3.19-.468 1.5-1.38 2.759-2.615 3.394l-.756-.995c1.69-.828 2.746-2.88 2.746-4.882v-1.774h1.236v1.774zM192.126 146.004h-6.465v-1.008h7.712v1.068c0 1.343 0 2.842-.42 5.086l-1.247-.133c.42-2.122.42-3.658.42-4.953v-.06zm2.303 6.38v1.019h-9.787v-1.018h3.646v-3.815h1.247v3.815h4.894zM208.277 143.977v10.83h-1.176v-5.541h-1.283v5.014h-1.163v-10.074h1.163v4.053h1.283v-4.282h1.176zm-7.664 7.244c1.247-.012 2.231-.071 3.347-.3l.107 1.02c-1.307.252-2.423.3-3.945.3h-.72v-6.968h4.006v1.007h-2.795v4.94zM219.065 143.965v10.878h-1.236v-5.59h-2.147v-1.006h2.148v-4.282h1.234zm-5.11 3.466c0 1.69 1.031 3.454 2.674 4.21l-.647.947c-1.224-.563-2.147-1.667-2.626-2.998-.469 1.415-1.368 2.603-2.614 3.19l-.684-.96c1.655-.78 2.674-2.614 2.674-4.39v-.622h-2.339v-.996h2.327v-1.607h1.246v1.607h2.28v.996h-2.29v.623zM233.728 143.99v10.816h-1.174v-5.588h-1.236v5.085h-1.163v-10.11h1.163v4.018h1.236v-4.222h1.174zm-7.734 7.026h1.87v-4.856h-1.87v4.856zm-1.153.984h4.174v-6.824h-4.173V152zM244.193 148.534h-7.46v-4.029h1.247v3.022h6.213v1.007zm1.127 2.4h-2.41v3.897h-1.236v-3.898h-2.518v3.898h-1.235v-3.898h-2.4v-1.007h9.8v1.007zM255.893 153.716v.972h-7.4v-2.843h5.817v-.888h-5.83v-.96h7.054v2.759h-5.818v.96h6.177zm-6.356-5.445c.935 0 1.63-.588 1.63-1.475 0-.888-.695-1.476-1.63-1.476-.96 0-1.643.588-1.643 1.476 0 .887.684 1.475 1.643 1.475zm2.758-.984c-.228 1.176-1.32 1.992-2.758 1.992-1.631 0-2.831-1.032-2.831-2.483 0-1.452 1.2-2.483 2.83-2.483 1.428 0 2.507.792 2.747 1.966h2.003v-2.302h1.248v5.48h-1.248v-2.17h-1.991zM268.361 154.807h1.176v-10.83h-1.176v10.83zm-2.182-10.615h1.163v10.099h-1.163v-5.493h-1.595v-1.007h1.595v-3.599zm-2.591 2.771c0 1.848.696 3.719 2.207 4.594l-.72.899c-1.019-.6-1.69-1.667-2.074-2.926-.384 1.367-1.08 2.531-2.123 3.19l-.744-.911c1.535-.959 2.255-2.914 2.255-4.846v-.779h-1.907v-1.02h4.893v1.02h-1.787v.779zM281.332 147.767h-1.535v2.747h-1.236v-6.537h1.236v2.77h1.535v1.02zm-8.659 3.274h7.124v3.779h-1.236v-2.783h-5.888v-.996zm4.401-.96c-1.212-.395-2.075-1.222-2.543-2.253-.479 1.138-1.379 2.026-2.65 2.47l-.648-.971c1.715-.577 2.662-1.956 2.662-3.443v-.191h-2.302v-1.008h5.817v1.008h-2.266v.19c0 1.368.911 2.699 2.566 3.25l-.636.949zM285.248 144.325L286.207 144.325 282.873 156.054 281.913 156.054zM295.95 148.978c-1.8-.288-3.275-1.198-3.983-2.447-.696 1.26-2.195 2.16-3.994 2.447l-.48-.996c2.207-.311 3.814-1.643 3.814-3.07v-.576h1.308v.576c0 1.403 1.631 2.758 3.813 3.07l-.479.996zm.898 2.026h-4.305v3.828h-1.236v-3.827h-4.246v-1.006h9.787v1.006zM305.838 146.712v-2.723h1.235v6.452h-1.235v-2.722h-1.92v-1.007h1.92zm.048 6.068c0-.708-.888-1.091-2.411-1.091-1.547 0-2.422.383-2.422 1.09 0 .708.875 1.092 2.422 1.092 1.523 0 2.41-.384 2.41-1.091zm1.235 0c0 1.295-1.391 2.05-3.646 2.05-2.267 0-3.658-.755-3.658-2.05 0-1.283 1.39-2.05 3.658-2.05 2.255 0 3.646.767 3.646 2.05zm-3.19-2.686c-1.2-.42-2.063-1.272-2.52-2.315-.478 1.187-1.39 2.147-2.674 2.603l-.635-.983c1.679-.601 2.65-2.04 2.65-3.527v-.156h-2.29v-.995h5.793v.995H302v.144c0 1.355.923 2.699 2.542 3.262l-.611.972z" mask="url(#prefix__b)"/>
                <path fill="#FFF" d="M297.117 56.97c0 31.126-25.232 56.358-56.357 56.358s-56.358-25.232-56.358-56.357S209.635.614 240.76.614c31.125 0 56.357 25.232 56.357 56.357" mask="url(#prefix__b)"/>
                <path fill="#C5C8CF" d="M240.76.988c-30.87 0-55.982 25.113-55.982 55.982 0 30.87 25.113 55.983 55.982 55.983s55.982-25.113 55.982-55.983c0-30.869-25.113-55.982-55.982-55.982m0 112.715c-31.282 0-56.732-25.45-56.732-56.733 0-31.282 25.45-56.732 56.732-56.732s56.732 25.45 56.732 56.732c0 31.283-25.45 56.733-56.732 56.733" mask="url(#prefix__b)"/>
                <path fill="#273A5B" d="M239.02 57.545L234.424 50.201 234.389 50.145 232.481 50.145 232.481 63.785 234.444 63.785 234.444 55.707 234.379 53.78 238.413 60.173 238.448 60.229 239.591 60.229 243.662 53.781 243.597 55.711 243.597 63.785 245.56 63.785 245.56 50.145 243.651 50.145zM253.837 59.733c-.016.662-.29 1.248-.812 1.744-.543.512-1.167.773-1.855.773-.482 0-.907-.144-1.264-.424-.353-.278-.525-.614-.525-1.029 0-.46.214-.839.652-1.156.446-.32 1.01-.482 1.68-.482.9 0 1.615.193 2.124.574m-2.42-5.719c-1.428 0-2.705.624-3.695 1.807l-.072.084 1.375 1.375.083-.106c.415-.516 1.268-1.384 2.332-1.384.726 0 1.259.184 1.728.597.45.398.67.867.67 1.435v.193c-.65-.32-1.457-.482-2.406-.482-1.22 0-2.211.292-2.947.867-.745.583-1.123 1.377-1.123 2.36 0 .931.358 1.716 1.062 2.336.698.616 1.579.928 2.615.928 1.143 0 2.083-.477 2.799-1.42v1.185h1.888v-5.836c0-1.214-.385-2.186-1.143-2.887-.746-.688-1.841-1.052-3.166-1.052M265.667 54.623L265.667 54.377 263.288 54.377 259.491 58.227 259.491 50.147 259.252 50.147 257.528 51.637 257.528 63.788 259.491 63.788 259.491 60.78 260.755 59.534 263.573 63.788 265.836 63.788 265.836 63.557 262.129 58.143z" mask="url(#prefix__b)"/>
                <path fill="#273A5B" d="M267.872 57.868c.163-.626.456-1.132.852-1.469h.001c.442-.379.98-.57 1.596-.57.752 0 1.36.2 1.802.596.396.354.65.863.724 1.443h-4.975zm7.063 1.355c0-1.632-.428-2.963-1.239-3.849-.825-.902-1.947-1.36-3.337-1.36-1.352 0-2.478.483-3.347 1.434-.853.936-1.304 2.196-1.304 3.645 0 1.408.44 2.557 1.343 3.513.893.945 2.045 1.423 3.421 1.423.94 0 1.796-.226 2.542-.673.597-.357 1.167-.9 1.561-1.492l.058-.086-1.407-1.298-.078.118c-.662.998-1.586 1.546-2.602 1.546-.835 0-1.463-.228-1.976-.719-.544-.52-.81-1.108-.856-1.894h7.191l.03-.308z" mask="url(#prefix__b)"/>
                <path fill="#6FB6FB" d="M208.003 57.57L206.585 58.389 206.596 61.982 215.285 56.97 212.164 55.168zM223.982 58.39L222.564 57.571 218.405 55.169 215.285 56.971 223.983 61.993z" mask="url(#prefix__b)"/>
                <path fill="#BFDCFF" d="M223.984 58.389L223.984 61.993 215.285 67.015 215.285 63.411 216.703 62.593z" mask="url(#prefix__b)"/>
                <path fill="#007CF7" d="M206.586 58.389L206.586 61.993 215.285 67.015 215.285 63.411 213.867 62.593z" mask="url(#prefix__b)"/>
                <path fill="#6FB6FB" d="M222.565 51.13L215.285 46.926 208.002 51.13 206.585 51.948 206.595 55.542 215.29 50.526 223.983 55.552 223.982 51.948z" mask="url(#prefix__b)"/>
                <path fill="#BFDCFF" d="M223.984 51.948L223.984 55.552 215.285 60.574 215.285 56.97 216.703 56.151z" mask="url(#prefix__b)"/>
                <path fill="#007CF7" d="M206.586 51.948L206.586 55.552 215.285 60.574 215.285 56.97 213.867 56.151z" mask="url(#prefix__b)"/>
                <path fill="#FFF" d="M738.496 56.97c0 31.126-25.232 56.358-56.357 56.358s-56.358-25.232-56.358-56.357S651.014.614 682.14.614c31.125 0 56.357 25.232 56.357 56.357" mask="url(#prefix__b)"/>
                <path fill="#C5C8CF" d="M682.139.988c-30.87 0-55.982 25.113-55.982 55.982 0 30.87 25.113 55.983 55.982 55.983S738.12 87.84 738.12 56.97c0-30.869-25.113-55.982-55.982-55.982m0 112.715c-31.282 0-56.732-25.45-56.732-56.733 0-31.282 25.45-56.732 56.732-56.732s56.732 25.45 56.732 56.732c0 31.283-25.45 56.733-56.732 56.733" mask="url(#prefix__b)"/>
                <path fill="#273A5B" d="M687.88 64.768L689.841 64.768 689.841 55.064 687.88 55.064zM687.792 53.273L689.929 53.273 689.929 51.135 687.792 51.135zM713.322 55.362L711.378 62.026 709.199 55.362 707.247 55.362 705.067 62.026 703.131 55.449 703.104 55.362 701.052 55.362 704.059 64.685 704.086 64.768 706.002 64.768 708.177 58.008 710.371 64.768 712.303 64.768 715.337 55.362zM694.63 57.379c.444-.38.982-.571 1.6-.571.753 0 1.359.2 1.802.597.398.355.652.865.726 1.445h-4.981c.164-.626.457-1.133.853-1.471m1.637-2.387c-1.353 0-2.48.483-3.35 1.436-.854.937-1.306 2.198-1.306 3.647 0 1.41.44 2.56 1.344 3.517.895.945 2.047 1.425 3.425 1.425.94 0 1.798-.227 2.544-.674.598-.357 1.167-.901 1.563-1.492l.058-.086-1.407-1.3-.08.118c-.661.998-1.586 1.548-2.604 1.548-.835 0-1.464-.23-1.978-.721-.536-.513-.812-1.118-.858-1.895h7.219l.006-.115c.005-.098.005-.193.005-.193 0-1.635-.43-2.967-1.24-3.854-.826-.904-1.95-1.361-3.341-1.361M680.217 61.887L676.113 51.139 673.947 51.139 679.205 64.691 679.236 64.767 681.195 64.767 686.569 51.304 686.635 51.139 684.468 51.139z" mask="url(#prefix__b)"/>
                <path fill="#6FB6FB" d="M662.05 50.577L657.642 48.031 655.213 49.433 662.035 56.256z" mask="url(#prefix__b)"/>
                <path fill="#007CF7" d="M662.035 59.895L666.339 55.404 666.339 53.053 662.049 50.577z" mask="url(#prefix__b)"/>
                <path fill="#0065C7" d="M653.223 65.571L657.64 68.121 660.072 66.717 653.245 59.896z" mask="url(#prefix__b)"/>
                <path fill="#BFDCFF" d="M648.942 53.681L648.942 53.053 655.213 49.434 659.461 53.681z" mask="url(#prefix__b)"/>
                <path fill="#DEEDFF" d="M648.942 53.681L648.942 60.557 655.819 53.681z" mask="url(#prefix__b)"/>
                <path fill="#007CF7" d="M653.245 56.256L648.941 60.557 648.941 63.098 653.127 65.515 653.241 65.581z" mask="url(#prefix__b)"/>
                <path fill="#6FB6FB" d="M666.339 63.099L660.071 66.717 655.819 62.472 666.339 62.472z" mask="url(#prefix__b)"/>
                <path fill="#007CF7" d="M657.602 55.34c-1.49 0-2.696 1.207-2.696 2.695 0 1.49 1.207 2.697 2.696 2.697 1.488 0 2.695-1.207 2.695-2.697 0-1.488-1.207-2.695-2.695-2.695" mask="url(#prefix__b)"/>
                <path fill="#FFF" d="M658.96 55.902c-.426 0-.771.347-.771.773 0 .427.345.773.772.773.427 0 .773-.346.773-.773 0-.426-.346-.773-.773-.773" mask="url(#prefix__b)"/>
                <path fill="#BFDCFF" d="M659.461 62.472L662.035 59.896 666.339 55.406 666.339 62.472z" mask="url(#prefix__b)"/>
                <path fill="#092E6E" d="M444.103 95.508h-2.411v8.229h-2.377V87.154h2.377v6.374h2.411v1.98zm-9.29-4.662c0 2.988 1.172 5.995 3.836 7.309l-1.442 1.873c-1.728-.882-2.899-2.485-3.582-4.465-.72 2.106-1.962 3.853-3.836 4.77l-1.421-1.926c2.79-1.314 4.05-4.483 4.05-7.561v-2.413h2.394v2.413zM455.803 97.831c.629-3.133.666-5.437.666-7.364h-9.67v-1.89h12.047v1.584c0 2.07 0 4.411-.666 7.941l-2.377-.27zm4.482 2v1.907h-14.998V99.83h5.293v-5.708h2.377v5.708h7.328zM481.092 87.136v16.6h-2.25v-8.3h-1.494v7.527h-2.215V87.46h2.215v6.068h1.494v-6.392h2.25zm-11.414 10.91c1.549-.034 2.953-.124 4.537-.413l.18 1.927c-2.016.378-3.782.45-5.907.45h-1.152V89.063h6.14v1.927h-3.798v7.057zM497.346 87.154v16.62h-2.377v-8.356h-2.934v-1.926h2.934v-6.338h2.377zm-7.725 5.167c0 2.377 1.28 5.077 3.944 6.267l-1.26 1.818c-1.818-.81-3.115-2.359-3.836-4.23-.701 1.98-1.998 3.654-3.871 4.5l-1.26-1.819c2.664-1.242 3.908-4.05 3.908-6.536v-.576h-3.35v-1.89h3.35V87.55h2.375v2.305h3.295v1.89h-3.295v.576zM445.967 113.795v1.963h-1.98v5.402h-2.377v-12.424h2.377v5.059h1.98zm-10.658 9.363h9.199v1.89h-11.576v-4.986h2.377v3.096zm1.98-7.562c.27-1.548.342-2.754.36-3.744h-6.176v-1.891h8.515v1.025c0 1.153 0 2.79-.376 4.88l-2.323-.27zm3.565 2.629c-3.422.63-7.274.703-10.12.72l-.216-1.89c.918 0 1.945 0 3.025-.018v-3.223h2.322v3.132c1.639-.071 3.295-.198 4.844-.414l.145 1.693zM458.727 125.373h2.377v-16.637h-2.377v16.637zm-8.102-5.816c2.521-.018 4.609-.144 6.949-.539l.252 1.925c-2.699.469-5.131.577-8.137.577h-1.496v-6.825h5.385v-2.646h-5.402v-1.891h7.832v6.41h-5.383v2.989zM482.83 108.736v16.637h-2.377v-9.526h-3.187v-1.908h3.187v-5.203h2.377zm-7.689 3.691c0 3.133 1.207 6.176 3.943 7.4l-1.404 1.89c-1.819-.88-3.026-2.502-3.709-4.5-.72 2.124-1.963 3.853-3.817 4.79l-1.476-1.91c2.808-1.297 4.068-4.519 4.068-7.67v-2.395h2.395v2.395zM488.441 119.575h3.26v-3.673h-3.26v3.673zm10.948-10.839v16.637h-2.377v-8.894h-2.971v4.987h-7.957v-11.415h2.357v3.997h3.26v-3.997h2.34v4.519h2.971v-5.834h2.377z" mask="url(#prefix__b)"/>
                <path fill="#E6E8EB" d="M444.538 36.777L444.538 68.118 482.37 68.118 482.37 36.487z" mask="url(#prefix__b)"/>
                <path fill="#000" d="M444.82 67.836h37.268V36.772l-37.268.286v30.778zm37.832.564h-38.396V36.497l38.396-.294V68.4z" mask="url(#prefix__b)"/>
                <path fill="#FFF" d="M483.47 37.008h-40.175c-1.534 0-2.79-1.256-2.79-2.79v-6.154c0-1.535 1.256-2.79 2.79-2.79h40.176c1.534 0 2.79 1.255 2.79 2.79v6.155c0 1.533-1.256 2.789-2.79 2.789" mask="url(#prefix__b)"/>
                <path fill="#000" d="M483.47 25.273h-40.175c-1.534 0-2.79 1.256-2.79 2.79v6.155c0 1.534 1.256 2.79 2.79 2.79h40.176c1.534 0 2.79-1.256 2.79-2.79v-6.155c0-1.534-1.256-2.79-2.79-2.79m0 .564c1.227 0 2.225.998 2.225 2.226v6.155c0 1.227-.998 2.225-2.225 2.225h-40.176c-1.226 0-2.224-.998-2.224-2.225v-6.155c0-1.228.998-2.226 2.224-2.226h40.176" mask="url(#prefix__b)"/>
                <path fill="#FFF" d="M483.47 51.263h-40.175c-1.534 0-2.79-1.256-2.79-2.79V42.32c0-1.535 1.256-2.79 2.79-2.79h40.176c1.534 0 2.79 1.255 2.79 2.79v6.155c0 1.533-1.256 2.789-2.79 2.789" mask="url(#prefix__b)"/>
                <path fill="#000" d="M483.47 39.53h-40.175c-1.534 0-2.79 1.254-2.79 2.788v6.154c0 1.536 1.256 2.79 2.79 2.79h40.176c1.534 0 2.79-1.254 2.79-2.79v-6.154c0-1.534-1.256-2.789-2.79-2.789m0 .564c1.227 0 2.225.998 2.225 2.225v6.154c0 1.228-.998 2.226-2.225 2.226h-40.176c-1.226 0-2.224-.998-2.224-2.226v-6.154c0-1.227.998-2.225 2.224-2.225h40.176" mask="url(#prefix__b)"/>
                <path fill="#FFF" d="M483.47 65.438h-40.175c-1.534 0-2.79-1.255-2.79-2.79v-6.155c0-1.535 1.256-2.788 2.79-2.788h40.176c1.534 0 2.79 1.254 2.79 2.788v6.155c0 1.535-1.256 2.79-2.79 2.79" mask="url(#prefix__b)"/>
                <path fill="#000" d="M483.47 53.704h-40.175c-1.534 0-2.79 1.255-2.79 2.79v6.154c0 1.534 1.256 2.79 2.79 2.79h40.176c1.534 0 2.79-1.256 2.79-2.79v-6.155c0-1.534-1.256-2.789-2.79-2.789m0 .564c1.227 0 2.225.998 2.225 2.225v6.155c0 1.227-.998 2.225-2.225 2.225h-40.176c-1.226 0-2.224-.998-2.224-2.225v-6.155c0-1.227.998-2.225 2.224-2.225h40.176" mask="url(#prefix__b)"/>
                <path fill="#0A51B7" d="M470.875 31.14c0 1.044-.845 1.889-1.888 1.889-1.042 0-1.886-.845-1.886-1.888 0-1.042.844-1.888 1.886-1.888 1.043 0 1.888.846 1.888 1.888" mask="url(#prefix__b)"/>
                <path fill="#000" d="M468.988 29.254c-1.043 0-1.888.845-1.888 1.887 0 1.043.845 1.887 1.888 1.887 1.042 0 1.887-.844 1.887-1.887 0-1.042-.845-1.887-1.887-1.887m0 .564c.73 0 1.322.593 1.322 1.323 0 .729-.593 1.323-1.322 1.323-.73 0-1.323-.594-1.323-1.323 0-.73.593-1.323 1.323-1.323" mask="url(#prefix__b)"/>
                <path fill="#0A51B7" d="M476.696 31.14c0 1.044-.845 1.889-1.887 1.889-1.043 0-1.887-.845-1.887-1.888 0-1.042.844-1.888 1.887-1.888 1.042 0 1.887.846 1.887 1.888" mask="url(#prefix__b)"/>
                <path fill="#000" d="M474.81 29.254c-1.043 0-1.888.845-1.888 1.887 0 1.043.845 1.887 1.888 1.887 1.042 0 1.888-.844 1.888-1.887 0-1.042-.846-1.887-1.888-1.887m0 .564c.729 0 1.322.593 1.322 1.323 0 .729-.593 1.323-1.322 1.323-.73 0-1.323-.594-1.323-1.323 0-.73.594-1.323 1.323-1.323" mask="url(#prefix__b)"/>
                <path fill="#0A51B7" d="M482.519 31.14c0 1.044-.846 1.889-1.888 1.889-1.043 0-1.887-.845-1.887-1.888 0-1.042.844-1.888 1.887-1.888 1.042 0 1.888.846 1.888 1.888" mask="url(#prefix__b)"/>
                <path fill="#000" d="M480.63 29.254c-1.042 0-1.887.845-1.887 1.887 0 1.043.845 1.887 1.888 1.887 1.042 0 1.887-.844 1.887-1.887 0-1.042-.845-1.887-1.887-1.887m0 .564c.729 0 1.322.593 1.322 1.323 0 .729-.593 1.323-1.322 1.323-.73 0-1.323-.594-1.323-1.323 0-.73.594-1.323 1.323-1.323" mask="url(#prefix__b)"/>
                <path fill="#0A51B7" d="M470.875 45.395c0 1.043-.845 1.888-1.888 1.888-1.042 0-1.886-.845-1.886-1.888 0-1.042.844-1.888 1.886-1.888 1.043 0 1.888.846 1.888 1.889" mask="url(#prefix__b)"/>
                <path fill="#000" d="M468.988 43.508c-1.043 0-1.888.846-1.888 1.888 0 1.042.845 1.887 1.888 1.887 1.042 0 1.887-.845 1.887-1.887s-.845-1.888-1.887-1.888m0 .564c.73 0 1.322.594 1.322 1.324 0 .729-.593 1.323-1.322 1.323-.73 0-1.323-.594-1.323-1.323 0-.73.593-1.324 1.323-1.324" mask="url(#prefix__b)"/>
                <path fill="#0A51B7" d="M476.696 45.395c0 1.043-.845 1.888-1.887 1.888-1.043 0-1.887-.845-1.887-1.888 0-1.042.844-1.888 1.887-1.888 1.042 0 1.887.846 1.887 1.889" mask="url(#prefix__b)"/>
                <path fill="#000" d="M474.81 43.508c-1.043 0-1.888.846-1.888 1.888 0 1.042.845 1.887 1.888 1.887 1.042 0 1.888-.845 1.888-1.887s-.846-1.888-1.888-1.888m0 .564c.729 0 1.322.594 1.322 1.324 0 .729-.593 1.323-1.322 1.323-.73 0-1.323-.594-1.323-1.323 0-.73.594-1.324 1.323-1.324" mask="url(#prefix__b)"/>
                <path fill="#0A51B7" d="M482.519 45.395c0 1.043-.846 1.888-1.888 1.888-1.043 0-1.887-.845-1.887-1.888 0-1.042.844-1.888 1.887-1.888 1.042 0 1.888.846 1.888 1.889" mask="url(#prefix__b)"/>
                <path fill="#000" d="M480.63 43.508c-1.042 0-1.887.846-1.887 1.888 0 1.042.845 1.887 1.888 1.887 1.042 0 1.887-.845 1.887-1.887s-.845-1.888-1.887-1.888m0 .564c.729 0 1.322.594 1.322 1.324 0 .729-.593 1.323-1.322 1.323-.73 0-1.323-.594-1.323-1.323 0-.73.594-1.324 1.323-1.324" mask="url(#prefix__b)"/>
                <path fill="#0A51B7" d="M470.875 59.57c0 1.043-.845 1.888-1.888 1.888-1.042 0-1.886-.845-1.886-1.888 0-1.042.844-1.887 1.886-1.887 1.043 0 1.888.845 1.888 1.887" mask="url(#prefix__b)"/>
                <path fill="#000" d="M468.988 57.684c-1.043 0-1.888.845-1.888 1.887 0 1.043.845 1.887 1.888 1.887 1.042 0 1.887-.844 1.887-1.887 0-1.042-.845-1.887-1.887-1.887m0 .564c.73 0 1.322.594 1.322 1.323 0 .73-.593 1.323-1.322 1.323-.73 0-1.323-.593-1.323-1.323s.593-1.323 1.323-1.323" mask="url(#prefix__b)"/>
                <path fill="#0A51B7" d="M476.696 59.57c0 1.043-.845 1.888-1.887 1.888-1.043 0-1.887-.845-1.887-1.888 0-1.042.844-1.887 1.887-1.887 1.042 0 1.887.845 1.887 1.887" mask="url(#prefix__b)"/>
                <path fill="#000" d="M474.81 57.684c-1.043 0-1.888.845-1.888 1.887 0 1.043.845 1.887 1.888 1.887 1.042 0 1.888-.844 1.888-1.887 0-1.042-.846-1.887-1.888-1.887m0 .564c.729 0 1.322.594 1.322 1.323 0 .73-.593 1.323-1.322 1.323-.73 0-1.323-.593-1.323-1.323s.594-1.323 1.323-1.323" mask="url(#prefix__b)"/>
                <path fill="#0A51B7" d="M482.519 59.57c0 1.043-.846 1.888-1.888 1.888-1.043 0-1.887-.845-1.887-1.888 0-1.042.844-1.887 1.887-1.887 1.042 0 1.888.845 1.888 1.887" mask="url(#prefix__b)"/>
                <path fill="#000" d="M480.63 57.684c-1.042 0-1.887.845-1.887 1.887 0 1.043.845 1.887 1.888 1.887 1.042 0 1.887-.844 1.887-1.887 0-1.042-.845-1.887-1.887-1.887m0 .564c.729 0 1.322.594 1.322 1.323 0 .73-.593 1.323-1.322 1.323-.73 0-1.323-.593-1.323-1.323s.594-1.323 1.323-1.323" mask="url(#prefix__b)"/>
                <path fill="#FFF" d="M445.342 28.043L445.342 34.238" mask="url(#prefix__b)"/>
                <path fill="#000" d="M445.06 34.238L445.624 34.238 445.624 28.043 445.06 28.043z" mask="url(#prefix__b)"/>
                <path fill="#FFF" d="M448.543 28.043L448.543 34.238" mask="url(#prefix__b)"/>
                <path fill="#000" d="M448.261 34.238L448.825 34.238 448.825 28.043 448.261 28.043z" mask="url(#prefix__b)"/>
                <path fill="#FFF" d="M451.744 28.043L451.744 34.238" mask="url(#prefix__b)"/>
                <path fill="#000" d="M451.462 34.238L452.026 34.238 452.026 28.043 451.462 28.043z" mask="url(#prefix__b)"/>
                <path fill="#FFF" d="M454.945 28.043L454.945 34.238" mask="url(#prefix__b)"/>
                <path fill="#000" d="M454.664 34.238L455.228 34.238 455.228 28.043 454.664 28.043z" mask="url(#prefix__b)"/>
                <path fill="#FFF" d="M458.147 28.043L458.147 34.238" mask="url(#prefix__b)"/>
                <path fill="#000" d="M457.865 34.238L458.429 34.238 458.429 28.043 457.865 28.043z" mask="url(#prefix__b)"/>
                <path fill="#FFF" d="M461.348 28.043L461.348 34.238" mask="url(#prefix__b)"/>
                <path fill="#000" d="M461.066 34.238L461.63 34.238 461.63 28.043 461.066 28.043z" mask="url(#prefix__b)"/>
                <path fill="#FFF" d="M446.942 28.043L446.942 34.238" mask="url(#prefix__b)"/>
                <path fill="#000" d="M446.661 34.238L447.225 34.238 447.225 28.043 446.661 28.043z" mask="url(#prefix__b)"/>
                <path fill="#FFF" d="M450.144 28.043L450.144 34.238" mask="url(#prefix__b)"/>
                <path fill="#000" d="M449.862 34.238L450.426 34.238 450.426 28.043 449.862 28.043z" mask="url(#prefix__b)"/>
                <path fill="#FFF" d="M453.345 28.043L453.345 34.238" mask="url(#prefix__b)"/>
                <path fill="#000" d="M453.063 34.238L453.627 34.238 453.627 28.043 453.063 28.043z" mask="url(#prefix__b)"/>
                <path fill="#FFF" d="M456.546 28.043L456.546 34.238" mask="url(#prefix__b)"/>
                <path fill="#000" d="M456.264 34.238L456.828 34.238 456.828 28.043 456.264 28.043z" mask="url(#prefix__b)"/>
                <path fill="#FFF" d="M459.747 28.043L459.747 34.238" mask="url(#prefix__b)"/>
                <path fill="#000" d="M459.465 34.238L460.029 34.238 460.029 28.043 459.465 28.043z" mask="url(#prefix__b)"/>
                <path fill="#FFF" d="M445.342 42.298L445.342 48.493" mask="url(#prefix__b)"/>
                <path fill="#000" d="M445.06 48.493L445.624 48.493 445.624 42.298 445.06 42.298z" mask="url(#prefix__b)"/>
                <path fill="#FFF" d="M448.543 42.298L448.543 48.493" mask="url(#prefix__b)"/>
                <path fill="#000" d="M448.261 48.493L448.825 48.493 448.825 42.298 448.261 42.298z" mask="url(#prefix__b)"/>
                <path fill="#FFF" d="M451.744 42.298L451.744 48.493" mask="url(#prefix__b)"/>
                <path fill="#000" d="M451.462 48.493L452.026 48.493 452.026 42.298 451.462 42.298z" mask="url(#prefix__b)"/>
                <path fill="#FFF" d="M454.945 42.298L454.945 48.493" mask="url(#prefix__b)"/>
                <path fill="#000" d="M454.664 48.493L455.228 48.493 455.228 42.298 454.664 42.298z" mask="url(#prefix__b)"/>
                <path fill="#FFF" d="M458.147 42.298L458.147 48.493" mask="url(#prefix__b)"/>
                <path fill="#000" d="M457.865 48.493L458.429 48.493 458.429 42.298 457.865 42.298z" mask="url(#prefix__b)"/>
                <path fill="#FFF" d="M461.348 42.298L461.348 48.493" mask="url(#prefix__b)"/>
                <path fill="#000" d="M461.066 48.493L461.63 48.493 461.63 42.298 461.066 42.298z" mask="url(#prefix__b)"/>
                <path fill="#FFF" d="M446.942 42.298L446.942 48.493" mask="url(#prefix__b)"/>
                <path fill="#000" d="M446.661 48.493L447.225 48.493 447.225 42.298 446.661 42.298z" mask="url(#prefix__b)"/>
                <path fill="#FFF" d="M450.144 42.298L450.144 48.493" mask="url(#prefix__b)"/>
                <path fill="#000" d="M449.862 48.493L450.426 48.493 450.426 42.298 449.862 42.298z" mask="url(#prefix__b)"/>
                <path fill="#FFF" d="M453.345 42.298L453.345 48.493" mask="url(#prefix__b)"/>
                <path fill="#000" d="M453.063 48.493L453.627 48.493 453.627 42.298 453.063 42.298z" mask="url(#prefix__b)"/>
                <path fill="#FFF" d="M456.546 42.298L456.546 48.493" mask="url(#prefix__b)"/>
                <path fill="#000" d="M456.264 48.493L456.828 48.493 456.828 42.298 456.264 42.298z" mask="url(#prefix__b)"/>
                <path fill="#FFF" d="M459.747 42.298L459.747 48.493" mask="url(#prefix__b)"/>
                <path fill="#000" d="M459.465 48.493L460.029 48.493 460.029 42.298 459.465 42.298z" mask="url(#prefix__b)"/>
                <path fill="#FFF" d="M445.342 56.553L445.342 62.748" mask="url(#prefix__b)"/>
                <path fill="#000" d="M445.06 62.748L445.624 62.748 445.624 56.553 445.06 56.553z" mask="url(#prefix__b)"/>
                <path fill="#FFF" d="M448.543 56.553L448.543 62.748" mask="url(#prefix__b)"/>
                <path fill="#000" d="M448.261 62.748L448.825 62.748 448.825 56.553 448.261 56.553z" mask="url(#prefix__b)"/>
                <path fill="#FFF" d="M451.744 56.553L451.744 62.748" mask="url(#prefix__b)"/>
                <path fill="#000" d="M451.462 62.748L452.026 62.748 452.026 56.553 451.462 56.553z" mask="url(#prefix__b)"/>
                <path fill="#FFF" d="M454.945 56.553L454.945 62.748" mask="url(#prefix__b)"/>
                <path fill="#000" d="M454.664 62.748L455.228 62.748 455.228 56.553 454.664 56.553z" mask="url(#prefix__b)"/>
                <path fill="#FFF" d="M458.147 56.553L458.147 62.748" mask="url(#prefix__b)"/>
                <path fill="#000" d="M457.865 62.748L458.429 62.748 458.429 56.553 457.865 56.553z" mask="url(#prefix__b)"/>
                <path fill="#FFF" d="M461.348 56.553L461.348 62.748" mask="url(#prefix__b)"/>
                <path fill="#000" d="M461.066 62.748L461.63 62.748 461.63 56.553 461.066 56.553z" mask="url(#prefix__b)"/>
                <path fill="#FFF" d="M446.942 56.553L446.942 62.748" mask="url(#prefix__b)"/>
                <path fill="#000" d="M446.661 62.748L447.225 62.748 447.225 56.553 446.661 56.553z" mask="url(#prefix__b)"/>
                <path fill="#FFF" d="M450.144 56.553L450.144 62.748" mask="url(#prefix__b)"/>
                <path fill="#000" d="M449.862 62.748L450.426 62.748 450.426 56.553 449.862 56.553z" mask="url(#prefix__b)"/>
                <path fill="#FFF" d="M453.345 56.553L453.345 62.748" mask="url(#prefix__b)"/>
                <path fill="#000" d="M453.063 62.748L453.627 62.748 453.627 56.553 453.063 56.553z" mask="url(#prefix__b)"/>
                <path fill="#FFF" d="M456.546 56.553L456.546 62.748" mask="url(#prefix__b)"/>
                <path fill="#000" d="M456.264 62.748L456.828 62.748 456.828 56.553 456.264 56.553z" mask="url(#prefix__b)"/>
                <path fill="#FFF" d="M459.747 56.553L459.747 62.748" mask="url(#prefix__b)"/>
                <path fill="#000" d="M459.465 62.748L460.029 62.748 460.029 56.553 459.465 56.553z" mask="url(#prefix__b)"/>
                <path fill="#E6E8EB" d="M478.18 56.688s.187-1.194 1.877-2.008c1.689-.813 5.93-1.963 11.108-1.248 5.18.715 6.54 2 6.54 2l.623 1.377-.001 15.145s-.684 1.815-4.157 2.566c-3.473.752-10.39 1.002-13.706-.531 0 0-2.097-.877-2.284-2.192v-15.11z" mask="url(#prefix__b)"/>
                <path fill="#000" d="M478.462 71.783c.143.334 1.613 3.21 9.786 3.21 8.157 0 9.648-2.866 9.797-3.21V56.594c-.105-.295-1.354-3.106-10.095-3.106-9.134 0-9.486 3.121-9.49 3.153l.002 15.141zm9.786 3.773c-9.117 0-10.293-3.49-10.338-3.638l-.012-.083v-15.21c.007-.166.296-3.7 10.052-3.7 9.712 0 10.619 3.418 10.654 3.564l.006.064-.013 15.366c-.046.148-1.233 3.637-10.35 3.637z" mask="url(#prefix__b)"/>
                <path fill="#000" d="M488.037 65.496c-8.86 0-10.076-3.263-10.125-3.403l.535-.182-.267.091.266-.094c.011.03 1.25 3.133 9.935 3.022 8.68-.083 9.667-2.978 9.676-3.007l.543.154c-.038.136-1.027 3.33-10.213 3.417l-.35.002M488.034 70.453c-8.857 0-10.073-3.262-10.122-3.402l.535-.182-.267.091.266-.094c.011.03 1.204 3.023 9.59 3.023.114 0 .228 0 .345-.002 8.68-.083 9.667-2.977 9.675-3.006l.544.154c-.038.136-1.027 3.328-10.213 3.416l-.353.002M488.034 60.538c-8.857 0-10.073-3.263-10.122-3.403l.534-.185c.011.03 1.203 3.024 9.59 3.024.114 0 .228 0 .345-.002 8.68-.083 9.667-2.978 9.675-3.007l.544.154c-.038.136-1.027 3.33-10.213 3.417l-.353.002" mask="url(#prefix__b)"/>
                <path fill="#FFF" d="M120.57 56.97c0 31.126-25.232 56.358-56.357 56.358-31.126 0-56.358-25.232-56.358-56.357S33.087.614 64.213.614c31.125 0 56.356 25.232 56.356 56.357" mask="url(#prefix__b)"/>
                <path fill="#C5C8CF" d="M64.213.988C33.343.988 8.23 26.101 8.23 56.97c0 30.87 25.113 55.983 55.982 55.983 30.868 0 55.98-25.113 55.98-55.983 0-30.869-25.112-55.982-55.98-55.982m0 112.715c-31.282 0-56.732-25.45-56.732-56.733C7.48 25.688 32.93.238 64.213.238s56.73 25.45 56.73 56.732c0 31.283-25.448 56.733-56.73 56.733" mask="url(#prefix__b)"/>
                <path fill="#231916" d="M88.546 55.085l-.027-.484c.164-.009.33-.014.498-.014v.484c-.16 0-.317.005-.471.014M64.727 55.085c-.31-.017-.642-.018-.956-.005l-.02-.484c.328-.014.678-.012 1 .005l-.024.484zm-2.836.27l-.127-.467c.308-.085.64-.153.988-.203l.069.48c-.327.047-.64.11-.93.19zm4.698.055c-.291-.093-.6-.168-.917-.223l.082-.477c.34.059.67.139.984.239l-.15.461zm20.093.015l-.144-.463c.319-.1.648-.182.979-.241l.086.476c-.311.057-.62.133-.921.228zm-44.923.079c-.295-.112-.598-.203-.904-.272l.105-.472c.329.073.655.171.97.291l-.171.453zm18.417.608l-.265-.406c.28-.183.582-.345.897-.482l.193.443c-.29.128-.568.277-.825.445zm24.799.119l-.266-.406c.284-.184.58-.35.885-.493l.207.438c-.284.133-.562.289-.826.461zm-16.72.033c-.254-.188-.522-.354-.798-.494l.22-.432c.3.153.59.333.865.535l-.287.391zm-24.826.133c-.264-.185-.537-.353-.808-.499l.228-.427c.289.155.577.334.857.53l-.277.396zm15.375.986l-.383-.297c.213-.273.444-.526.687-.752l.33.355c-.225.208-.438.442-.634.694zm24.769.097l-.375-.307c.21-.256.447-.503.706-.733l.322.364c-.24.212-.46.439-.653.676zm-13.943.094c-.232-.27-.446-.498-.654-.697l.336-.35c.219.21.442.449.686.731l-.368.316zm-24.767.078c-.221-.235-.452-.459-.687-.665l.319-.365c.248.217.49.452.72.698l-.352.332zm12.876 1.366l-.391-.287c.16-.22.314-.457.45-.704l.059-.101.42.242-.054.096c-.148.264-.311.518-.484.754zm13.134.069c-.213-.247-.42-.504-.628-.764l.378-.302c.205.255.408.506.618.75l-.368.316zm11.58.001l-.373-.311c.202-.242.378-.495.526-.752l.436.211-.025.044c-.152.267-.346.544-.564.808zm-36.296.043c-.235-.239-.46-.491-.667-.749l.377-.305c.198.246.412.487.635.714l-.345.34zm1.543 1.283c-.273-.181-.544-.383-.807-.6l.31-.374c.249.207.506.399.764.57l-.267.404zm33.242.016l-.268-.405c.267-.175.52-.369.75-.574l.322.363c-.248.22-.52.427-.804.616zm-24.647.011l-.28-.394c.256-.182.498-.385.719-.604l.342.344c-.241.238-.503.458-.781.654zm16.04.028c-.262-.19-.515-.403-.774-.652l.336-.349c.242.233.478.432.722.608l-.284.393zm6.788.839l-.152-.461c.3-.099.596-.218.879-.355l.21.438c-.302.145-.617.272-.937.378zm-29.62.006c-.317-.11-.63-.243-.931-.395l.218-.432c.282.143.575.267.872.369l-.16.458zm4.97.016l-.144-.463c.306-.095.602-.212.877-.345l.21.436c-.295.145-.614.27-.943.372zm19.678.041c-.332-.102-.651-.228-.945-.376l.216-.433c.27.135.565.252.87.346l-.141.463zm-21.657.312l-.032-.485c.328-.02.647-.057.947-.109l.084.476c-.318.056-.655.095-1 .118zm24.65.005l-.03-.485c.317-.02.634-.06.94-.12l.092.477c-.327.062-.663.105-1.001.128zm-1.005.006c-.35-.015-.686-.048-1.001-.098l.074-.479c.298.047.618.078.949.093l-.022.484zm-24.651.003c-.333-.015-.672-.056-1.006-.12l.092-.476c.31.06.627.097.937.112l-.023.484zM39.875 55.088c-.153-.011-.31-.017-.468-.017v-.484c.17 0 .338.006.503.019l-.035.482z" mask="url(#prefix__b)"/>
                <path fill="#0A51B7" d="M89.017 61.705c-2.698 0-5.215-1.35-6.411-3.439-.91-1.587-3.26-3.194-5.991-3.194-2.286 0-4.31 1.085-6.012 3.225-1.483 1.864-2.988 3.408-6.391 3.408-3.015 0-5.113-1.126-6.412-3.44-.891-1.589-3.09-3.193-5.99-3.193-2.997 0-5.053 2.021-6.012 3.225-1.483 1.864-2.988 3.408-6.39 3.408v-.484c3.19 0 4.557-1.399 6.01-3.226 1.014-1.272 3.192-3.407 6.392-3.407 3.309 0 5.522 1.852 6.412 3.44 1.206 2.148 3.166 3.193 5.99 3.193 3.192 0 4.558-1.399 6.012-3.226 1.8-2.26 3.95-3.407 6.39-3.407 2.917 0 5.433 1.73 6.412 3.437 1.112 1.941 3.464 3.196 5.99 3.196v.484z" mask="url(#prefix__b)"/>
            </g>
            <g transform="translate(21 28) translate(52 45.762)">
                <mask id="prefix__d" fill="#fff">
                    <use xlink:href="#prefix__c"/>
                </mask>
                <path fill="#FFF" d="M-1.496 28.694L25.921 28.694 25.921 -2.215 -1.496 -2.215z" mask="url(#prefix__d)"/>
            </g>
            <g transform="translate(21 28) translate(53 51.762)">
                <mask id="prefix__f" fill="#fff">
                    <use xlink:href="#prefix__e"/>
                </mask>
                <path fill="#0A51B7" d="M-2.277 22.498L13.635 22.498 13.635 -1.572 -2.277 -1.572z" mask="url(#prefix__f)"/>
            </g>
            <g transform="translate(21 28) translate(52 45.762)">
                <mask id="prefix__h" fill="#fff">
                    <use xlink:href="#prefix__g"/>
                </mask>
                <path fill="#000" d="M-1.496 28.694L25.921 28.694 25.921 -2.215 -1.496 -2.215z" mask="url(#prefix__h)"/>
            </g>
            <g fill="#000">
                <path d="M24.018 36.075L24.405 36.075 24.405 23.239 24.018 23.239z" transform="translate(21 28) translate(40 35.762)"/>
                <path d="M24.115 23.408L13.049 17.018 13.242 16.682 24.308 23.072z" transform="translate(21 28) translate(40 35.762)"/>
                <path d="M24.309 23.407L24.116 23.071 35.152 16.7 35.345 17.036zM47.692 4.329L46.913 4.329 46.913 1.007 43.59 1.007 43.59.227 47.692.227zM1.513 4.329L.734 4.329.734.227 4.836.227 4.836 1.007 1.513 1.007zM4.836 46.065L.733 46.065.733 41.962 1.513 41.962 1.513 45.285 4.836 45.285zM47.692 46.065L43.59 46.065 43.59 45.285 46.913 45.285 46.913 41.962 47.692 41.962z" transform="translate(21 28) translate(40 35.762)"/>
            </g>
        </g>
    </g>
</svg>
