<svg xmlns="http://www.w3.org/2000/svg" xmlns:xlink="http://www.w3.org/1999/xlink" width="780" height="530" viewBox="0 0 780 530">
    <defs>
        <path id="r158cjakea" d="M0 0H780V530H0z"/>
        <path id="zbc05o1axc" d="M0 525L759.942 525 759.942 0.077 0 0.077z"/>
    </defs>
    <g fill="none" fill-rule="evenodd">
        <g>
            <g>
                <g>
                    <g>
                        <g transform="translate(-760 -6191) translate(0 2554) translate(320 636) translate(60 2864) translate(380 137)">
                            <mask id="66iyek79ub" fill="#fff">
                                <use xlink:href="#r158cjakea"/>
                            </mask>
                            <use fill="#F8F9FB" xlink:href="#r158cjakea"/>
                            <g mask="url(#66iyek79ub)">
                                <g>
                                    <g>
                                        <path fill="#FFF" d="M113.064 57.216c0 31.125-25.232 56.357-56.357 56.357S.35 88.34.35 57.216 25.582.859 56.707.859s56.357 25.232 56.357 56.357" transform="translate(2 -1) translate(378 364.923)"/>
                                        <path stroke="#C5C8CF" stroke-width=".75" d="M113.064 57.216c0 31.125-25.232 56.357-56.357 56.357S.35 88.34.35 57.216 25.582.859 56.707.859s56.357 25.232 56.357 56.357z" transform="translate(2 -1) translate(378 364.923)"/>
                                    </g>
                                    <text font-family="NotoSansCJKkr-Medium, Noto Sans CJK KR" font-size="12" font-weight="400" transform="translate(2 -1)">
                                        <tspan x="447.296" y="343.072" fill="#000">Mana</tspan> <tspan x="478.544" y="343.072" fill="#000" letter-spacing="-.204">g</tspan> <tspan x="485.072" y="343.072" fill="#000">ement d</tspan> <tspan x="532.436" y="343.072" fill="#000" letter-spacing="-.204">a</tspan> <tspan x="538.928" y="343.072" fill="#000" letter-spacing="-.288">t</tspan> <tspan x="543.104" y="343.072" fill="#000">a</tspan>
                                    </text>
                                    <text font-family="NotoSansCJKkr-Medium, Noto Sans CJK KR" font-size="12" font-weight="400" transform="translate(2 -1)">
                                        <tspan x="272.684" y="203.356" fill="#000">Video &amp;</tspan>
                                    </text>
                                    <text font-family="NotoSansCJKkr-Medium, Noto Sans CJK KR" font-size="12" font-weight="400" letter-spacing="-.312" transform="translate(2 -1)">
                                        <tspan x="241.976" y="219.352" fill="#000">c</tspan> <tspan x="247.556" y="219.352" fill="#000">ollabo</tspan> <tspan x="283.892" y="219.352" fill="#000" letter-spacing="-.336">r</tspan> <tspan x="288.128" y="219.352" fill="#000" letter-spacing="-.204">a</tspan> <tspan x="294.62" y="219.352" fill="#000">tion d</tspan> <tspan x="327.932" y="219.352" fill="#000" letter-spacing="-.205">a</tspan> <tspan x="334.423" y="219.352" fill="#000" letter-spacing="-.288">t</tspan> <tspan x="338.599" y="219.352" fill="#000">a</tspan>
                                    </text>
                                    <text font-family="NotoSansCJKkr-Medium, Noto Sans CJK KR" font-size="12" font-weight="400" letter-spacing="-.468" transform="translate(2 -1)">
                                        <tspan x="383.048" y="495.196" fill="#000">E</tspan> <tspan x="389.312" y="495.196" fill="#000">xi</tspan> <tspan x="399.068" y="495.196" fill="#000" letter-spacing="-.264">s</tspan> <tspan x="404.3" y="495.196" fill="#000">ting ope</tspan> <tspan x="451.328" y="495.196" fill="#000" letter-spacing="-.336">r</tspan> <tspan x="455.564" y="495.196" fill="#000" letter-spacing="-.204">a</tspan> <tspan x="462.056" y="495.196" fill="#000">tion</tspan>
                                    </text>
                                    <g>
                                        <text fill="#000" font-family="NotoSansCJKkr-Medium, Noto Sans CJK KR" font-size="12" font-weight="400" transform="translate(2 -1) translate(196 231.923)">
                                            <tspan x="178.936" y="277.675">mana</tspan> <tspan x="211.528" y="277.675" letter-spacing="-.205">g</tspan> <tspan x="218.055" y="277.675">ement sy</tspan> <tspan x="270.147" y="277.675" letter-spacing="-.264">s</tspan> <tspan x="275.379" y="277.675" letter-spacing="-.204">t</tspan> <tspan x="279.723" y="277.675">em</tspan>
                                        </text>
                                        <path fill="#E6E8EB" d="M218.629 177.653L218.629 208.993 256.462 208.993 256.462 177.362z" transform="translate(2 -1) translate(196 231.923)"/>
                                        <path stroke="#000" stroke-width=".565" d="M218.629 177.653L218.629 208.993 256.462 208.993 256.462 177.362z" transform="translate(2 -1) translate(196 231.923)"/>
                                        <path fill="#FFF" d="M217.385 177.6c-1.382 0-2.507-1.124-2.507-2.506v-6.155c0-1.382 1.125-2.507 2.507-2.507h40.176c1.383 0 2.507 1.125 2.507 2.507v6.155c0 1.382-1.124 2.507-2.507 2.507h-40.176z" transform="translate(2 -1) translate(196 231.923)"/>
                                        <path fill="#000" d="M257.561 166.148h-40.176c-1.534 0-2.789 1.256-2.789 2.79v6.155c0 1.534 1.255 2.79 2.79 2.79h40.175c1.534 0 2.79-1.256 2.79-2.79v-6.155c0-1.534-1.256-2.79-2.79-2.79m0 .564c1.227 0 2.225.998 2.225 2.226v6.155c0 1.227-.998 2.225-2.225 2.225h-40.176c-1.226 0-2.224-.998-2.224-2.225v-6.155c0-1.228.998-2.226 2.224-2.226h40.176" transform="translate(2 -1) translate(196 231.923)"/>
                                        <path fill="#FFF" d="M217.385 191.856c-1.382 0-2.507-1.125-2.507-2.507v-6.155c0-1.382 1.125-2.507 2.507-2.507h40.176c1.383 0 2.507 1.124 2.507 2.506v6.155c0 1.382-1.124 2.507-2.507 2.507h-40.176z" transform="translate(2 -1) translate(196 231.923)"/>
                                        <path fill="#000" d="M257.561 180.404h-40.176c-1.534 0-2.789 1.255-2.789 2.79v6.153c0 1.536 1.255 2.79 2.79 2.79h40.175c1.534 0 2.79-1.254 2.79-2.79v-6.154c0-1.534-1.256-2.789-2.79-2.789m0 .564c1.227 0 2.225.998 2.225 2.225v6.154c0 1.228-.998 2.226-2.225 2.226h-40.176c-1.226 0-2.224-.998-2.224-2.226v-6.154c0-1.227.998-2.225 2.224-2.225h40.176" transform="translate(2 -1) translate(196 231.923)"/>
                                        <path fill="#FFF" d="M217.385 206.03c-1.382 0-2.507-1.125-2.507-2.507v-6.155c0-1.382 1.125-2.507 2.507-2.507h40.176c1.383 0 2.507 1.125 2.507 2.507v6.155c0 1.382-1.124 2.507-2.507 2.507h-40.176z" transform="translate(2 -1) translate(196 231.923)"/>
                                        <path fill="#000" d="M257.561 194.58h-40.176c-1.534 0-2.789 1.254-2.789 2.788v6.155c0 1.535 1.255 2.79 2.79 2.79h40.175c1.534 0 2.79-1.255 2.79-2.79v-6.155c0-1.534-1.256-2.789-2.79-2.789m0 .564c1.227 0 2.225.998 2.225 2.225v6.155c0 1.227-.998 2.225-2.225 2.225h-40.176c-1.226 0-2.224-.998-2.224-2.225v-6.155c0-1.227.998-2.225 2.224-2.225h40.176" transform="translate(2 -1) translate(196 231.923)"/>
                                        <path fill="#0A51B7" d="M243.078 173.621c-.885 0-1.605-.72-1.605-1.605s.72-1.605 1.605-1.605 1.605.72 1.605 1.605c0 .884-.72 1.605-1.605 1.605" transform="translate(2 -1) translate(196 231.923)"/>
                                        <path fill="#000" d="M243.078 170.129c-1.042 0-1.887.845-1.887 1.887 0 1.043.845 1.887 1.887 1.887s1.887-.844 1.887-1.887c0-1.042-.845-1.887-1.887-1.887m0 .564c.73 0 1.323.594 1.323 1.323 0 .73-.594 1.323-1.323 1.323s-1.323-.593-1.323-1.323.594-1.323 1.323-1.323" transform="translate(2 -1) translate(196 231.923)"/>
                                        <path fill="#0A51B7" d="M248.9 173.621c-.886 0-1.606-.72-1.606-1.605s.72-1.605 1.605-1.605c.886 0 1.606.72 1.606 1.605 0 .884-.72 1.605-1.606 1.605" transform="translate(2 -1) translate(196 231.923)"/>
                                        <path fill="#000" d="M248.9 170.129c-1.043 0-1.888.845-1.888 1.887 0 1.043.845 1.887 1.887 1.887s1.887-.844 1.887-1.887c0-1.042-.845-1.887-1.887-1.887m0 .564c.73 0 1.323.594 1.323 1.323 0 .73-.594 1.323-1.323 1.323-.728 0-1.322-.593-1.322-1.323s.594-1.323 1.322-1.323" transform="translate(2 -1) translate(196 231.923)"/>
                                        <path fill="#0A51B7" d="M254.721 173.621c-.885 0-1.605-.72-1.605-1.605s.72-1.605 1.605-1.605 1.605.72 1.605 1.605c0 .884-.72 1.605-1.605 1.605" transform="translate(2 -1) translate(196 231.923)"/>
                                        <path fill="#000" d="M254.721 170.129c-1.043 0-1.888.845-1.888 1.887 0 1.043.845 1.887 1.888 1.887 1.042 0 1.887-.844 1.887-1.887 0-1.042-.845-1.887-1.887-1.887m0 .564c.73 0 1.322.594 1.322 1.323 0 .73-.593 1.323-1.322 1.323-.729 0-1.323-.593-1.323-1.323s.594-1.323 1.323-1.323" transform="translate(2 -1) translate(196 231.923)"/>
                                        <path fill="#0A51B7" d="M243.078 187.876c-.885 0-1.605-.721-1.605-1.605 0-.885.72-1.605 1.605-1.605s1.605.72 1.605 1.605c0 .884-.72 1.605-1.605 1.605" transform="translate(2 -1) translate(196 231.923)"/>
                                        <path fill="#000" d="M243.078 184.383c-1.042 0-1.887.846-1.887 1.889 0 1.04.845 1.886 1.887 1.886s1.887-.845 1.887-1.886c0-1.043-.845-1.89-1.887-1.89m0 .565c.73 0 1.323.594 1.323 1.325 0 .728-.594 1.322-1.323 1.322s-1.323-.594-1.323-1.322c0-.731.594-1.325 1.323-1.325" transform="translate(2 -1) translate(196 231.923)"/>
                                        <path fill="#0A51B7" d="M248.9 187.876c-.886 0-1.606-.721-1.606-1.605 0-.885.72-1.605 1.605-1.605.886 0 1.606.72 1.606 1.605 0 .884-.72 1.605-1.606 1.605" transform="translate(2 -1) translate(196 231.923)"/>
                                        <path fill="#000" d="M248.9 184.383c-1.043 0-1.888.846-1.888 1.889 0 1.04.845 1.886 1.887 1.886s1.887-.845 1.887-1.886c0-1.043-.845-1.89-1.887-1.89m0 .565c.73 0 1.323.594 1.323 1.325 0 .728-.594 1.322-1.323 1.322-.728 0-1.322-.594-1.322-1.322 0-.731.594-1.325 1.322-1.325" transform="translate(2 -1) translate(196 231.923)"/>
                                        <path fill="#0A51B7" d="M254.721 187.876c-.885 0-1.605-.721-1.605-1.605 0-.885.72-1.605 1.605-1.605s1.605.72 1.605 1.605c0 .884-.72 1.605-1.605 1.605" transform="translate(2 -1) translate(196 231.923)"/>
                                        <path fill="#000" d="M254.721 184.383c-1.043 0-1.888.846-1.888 1.889 0 1.04.845 1.886 1.888 1.886 1.042 0 1.887-.845 1.887-1.886 0-1.043-.845-1.89-1.887-1.89m0 .565c.73 0 1.322.594 1.322 1.325 0 .728-.593 1.322-1.322 1.322-.729 0-1.323-.594-1.323-1.322 0-.731.594-1.325 1.323-1.325" transform="translate(2 -1) translate(196 231.923)"/>
                                        <path fill="#0A51B7" d="M243.078 202.05c-.885 0-1.605-.72-1.605-1.603 0-.885.72-1.606 1.605-1.606s1.605.72 1.605 1.606c0 .884-.72 1.604-1.605 1.604" transform="translate(2 -1) translate(196 231.923)"/>
                                        <path fill="#000" d="M243.078 198.559c-1.042 0-1.887.845-1.887 1.887 0 1.043.845 1.887 1.887 1.887s1.887-.844 1.887-1.887c0-1.042-.845-1.887-1.887-1.887m0 .564c.73 0 1.323.594 1.323 1.323 0 .73-.594 1.323-1.323 1.323s-1.323-.593-1.323-1.323.594-1.323 1.323-1.323" transform="translate(2 -1) translate(196 231.923)"/>
                                        <path fill="#0A51B7" d="M248.9 202.05c-.886 0-1.606-.72-1.606-1.603 0-.885.72-1.606 1.605-1.606.886 0 1.606.72 1.606 1.606 0 .884-.72 1.604-1.606 1.604" transform="translate(2 -1) translate(196 231.923)"/>
                                        <path fill="#000" d="M248.9 198.559c-1.043 0-1.888.845-1.888 1.887 0 1.043.845 1.887 1.887 1.887s1.887-.844 1.887-1.887c0-1.042-.845-1.887-1.887-1.887m0 .564c.73 0 1.323.594 1.323 1.323 0 .73-.594 1.323-1.323 1.323-.728 0-1.322-.593-1.322-1.323s.594-1.323 1.322-1.323" transform="translate(2 -1) translate(196 231.923)"/>
                                        <path fill="#0A51B7" d="M254.721 202.05c-.885 0-1.605-.72-1.605-1.603 0-.885.72-1.606 1.605-1.606s1.605.72 1.605 1.606c0 .884-.72 1.604-1.605 1.604" transform="translate(2 -1) translate(196 231.923)"/>
                                        <path fill="#000" d="M254.721 198.559c-1.043 0-1.888.845-1.888 1.887 0 1.043.845 1.887 1.888 1.887 1.042 0 1.887-.844 1.887-1.887 0-1.042-.845-1.887-1.887-1.887m0 .564c.73 0 1.322.594 1.322 1.323 0 .73-.593 1.323-1.322 1.323-.729 0-1.323-.593-1.323-1.323s.594-1.323 1.323-1.323" transform="translate(2 -1) translate(196 231.923)"/>
                                        <g>
                                            <path fill="#FFF" d="M1.432 0.918L1.432 7.114" transform="translate(2 -1) translate(196 231.923) translate(218 168)"/>
                                            <path stroke="#000" stroke-width=".565" d="M1.432 0.918L1.432 7.114" transform="translate(2 -1) translate(196 231.923) translate(218 168)"/>
                                        </g>
                                        <g>
                                            <path fill="#FFF" d="M0.633 0.918L0.633 7.114" transform="translate(2 -1) translate(196 231.923) translate(222 168)"/>
                                            <path stroke="#000" stroke-width=".565" d="M0.633 0.918L0.633 7.114" transform="translate(2 -1) translate(196 231.923) translate(222 168)"/>
                                        </g>
                                        <g>
                                            <path fill="#FFF" d="M0.834 0.918L0.834 7.114" transform="translate(2 -1) translate(196 231.923) translate(225 168)"/>
                                            <path stroke="#000" stroke-width=".565" d="M0.834 0.918L0.834 7.114" transform="translate(2 -1) translate(196 231.923) translate(225 168)"/>
                                        </g>
                                        <g>
                                            <path fill="#FFF" d="M1.035 0.918L1.035 7.114" transform="translate(2 -1) translate(196 231.923) translate(228 168)"/>
                                            <path stroke="#000" stroke-width=".565" d="M1.035 0.918L1.035 7.114" transform="translate(2 -1) translate(196 231.923) translate(228 168)"/>
                                        </g>
                                        <g>
                                            <path fill="#FFF" d="M1.236 0.918L1.236 7.114" transform="translate(2 -1) translate(196 231.923) translate(231 168)"/>
                                            <path stroke="#000" stroke-width=".565" d="M1.236 0.918L1.236 7.114" transform="translate(2 -1) translate(196 231.923) translate(231 168)"/>
                                        </g>
                                        <g>
                                            <path fill="#FFF" d="M1.438 0.918L1.438 7.114" transform="translate(2 -1) translate(196 231.923) translate(234 168)"/>
                                            <path stroke="#000" stroke-width=".565" d="M1.438 0.918L1.438 7.114" transform="translate(2 -1) translate(196 231.923) translate(234 168)"/>
                                        </g>
                                        <g>
                                            <path fill="#FFF" d="M1.032 0.918L1.032 7.114" transform="translate(2 -1) translate(196 231.923) translate(220 168)"/>
                                            <path stroke="#000" stroke-width=".565" d="M1.032 0.918L1.032 7.114" transform="translate(2 -1) translate(196 231.923) translate(220 168)"/>
                                        </g>
                                        <g>
                                            <path fill="#FFF" d="M1.234 0.918L1.234 7.114" transform="translate(2 -1) translate(196 231.923) translate(223 168)"/>
                                            <path stroke="#000" stroke-width=".565" d="M1.234 0.918L1.234 7.114" transform="translate(2 -1) translate(196 231.923) translate(223 168)"/>
                                        </g>
                                        <g>
                                            <path fill="#FFF" d="M1.435 0.918L1.435 7.114" transform="translate(2 -1) translate(196 231.923) translate(226 168)"/>
                                            <path stroke="#000" stroke-width=".565" d="M1.435 0.918L1.435 7.114" transform="translate(2 -1) translate(196 231.923) translate(226 168)"/>
                                        </g>
                                        <g>
                                            <path fill="#FFF" d="M0.636 0.918L0.636 7.114" transform="translate(2 -1) translate(196 231.923) translate(230 168)"/>
                                            <path stroke="#000" stroke-width=".565" d="M0.636 0.918L0.636 7.114" transform="translate(2 -1) translate(196 231.923) translate(230 168)"/>
                                        </g>
                                        <g>
                                            <path fill="#FFF" d="M0.837 0.918L0.837 7.114" transform="translate(2 -1) translate(196 231.923) translate(233 168)"/>
                                            <path stroke="#000" stroke-width=".565" d="M0.837 0.918L0.837 7.114" transform="translate(2 -1) translate(196 231.923) translate(233 168)"/>
                                        </g>
                                        <g>
                                            <path fill="#FFF" d="M1.432 0.173L1.432 6.369" transform="translate(2 -1) translate(196 231.923) translate(218 183)"/>
                                            <path stroke="#000" stroke-width=".565" d="M1.432 0.173L1.432 6.369" transform="translate(2 -1) translate(196 231.923) translate(218 183)"/>
                                        </g>
                                        <g>
                                            <path fill="#FFF" d="M0.633 0.173L0.633 6.369" transform="translate(2 -1) translate(196 231.923) translate(222 183)"/>
                                            <path stroke="#000" stroke-width=".565" d="M0.633 0.173L0.633 6.369" transform="translate(2 -1) translate(196 231.923) translate(222 183)"/>
                                        </g>
                                        <g>
                                            <path fill="#FFF" d="M0.834 0.173L0.834 6.369" transform="translate(2 -1) translate(196 231.923) translate(225 183)"/>
                                            <path stroke="#000" stroke-width=".565" d="M0.834 0.173L0.834 6.369" transform="translate(2 -1) translate(196 231.923) translate(225 183)"/>
                                        </g>
                                        <g>
                                            <path fill="#FFF" d="M1.035 0.173L1.035 6.369" transform="translate(2 -1) translate(196 231.923) translate(228 183)"/>
                                            <path stroke="#000" stroke-width=".565" d="M1.035 0.173L1.035 6.369" transform="translate(2 -1) translate(196 231.923) translate(228 183)"/>
                                        </g>
                                        <g>
                                            <path fill="#FFF" d="M1.236 0.173L1.236 6.369" transform="translate(2 -1) translate(196 231.923) translate(231 183)"/>
                                            <path stroke="#000" stroke-width=".565" d="M1.236 0.173L1.236 6.369" transform="translate(2 -1) translate(196 231.923) translate(231 183)"/>
                                        </g>
                                        <g>
                                            <path fill="#FFF" d="M1.438 0.173L1.438 6.369" transform="translate(2 -1) translate(196 231.923) translate(234 183)"/>
                                            <path stroke="#000" stroke-width=".565" d="M1.438 0.173L1.438 6.369" transform="translate(2 -1) translate(196 231.923) translate(234 183)"/>
                                        </g>
                                        <g>
                                            <path fill="#FFF" d="M1.032 0.173L1.032 6.369" transform="translate(2 -1) translate(196 231.923) translate(220 183)"/>
                                            <path stroke="#000" stroke-width=".565" d="M1.032 0.173L1.032 6.369" transform="translate(2 -1) translate(196 231.923) translate(220 183)"/>
                                        </g>
                                        <g>
                                            <path fill="#FFF" d="M1.234 0.173L1.234 6.369" transform="translate(2 -1) translate(196 231.923) translate(223 183)"/>
                                            <path stroke="#000" stroke-width=".565" d="M1.234 0.173L1.234 6.369" transform="translate(2 -1) translate(196 231.923) translate(223 183)"/>
                                        </g>
                                        <g>
                                            <path fill="#FFF" d="M1.435 0.173L1.435 6.369" transform="translate(2 -1) translate(196 231.923) translate(226 183)"/>
                                            <path stroke="#000" stroke-width=".565" d="M1.435 0.173L1.435 6.369" transform="translate(2 -1) translate(196 231.923) translate(226 183)"/>
                                        </g>
                                        <g>
                                            <path fill="#FFF" d="M0.636 0.173L0.636 6.369" transform="translate(2 -1) translate(196 231.923) translate(230 183)"/>
                                            <path stroke="#000" stroke-width=".565" d="M0.636 0.173L0.636 6.369" transform="translate(2 -1) translate(196 231.923) translate(230 183)"/>
                                        </g>
                                        <g>
                                            <path fill="#FFF" d="M0.837 0.173L0.837 6.369" transform="translate(2 -1) translate(196 231.923) translate(233 183)"/>
                                            <path stroke="#000" stroke-width=".565" d="M0.837 0.173L0.837 6.369" transform="translate(2 -1) translate(196 231.923) translate(233 183)"/>
                                        </g>
                                        <g>
                                            <path fill="#FFF" d="M1.432 0.428L1.432 6.624" transform="translate(2 -1) translate(196 231.923) translate(218 197)"/>
                                            <path stroke="#000" stroke-width=".565" d="M1.432 0.428L1.432 6.624" transform="translate(2 -1) translate(196 231.923) translate(218 197)"/>
                                        </g>
                                        <g>
                                            <path fill="#FFF" d="M0.633 0.428L0.633 6.624" transform="translate(2 -1) translate(196 231.923) translate(222 197)"/>
                                            <path stroke="#000" stroke-width=".565" d="M0.633 0.428L0.633 6.624" transform="translate(2 -1) translate(196 231.923) translate(222 197)"/>
                                        </g>
                                        <g>
                                            <path fill="#FFF" d="M0.834 0.428L0.834 6.624" transform="translate(2 -1) translate(196 231.923) translate(225 197)"/>
                                            <path stroke="#000" stroke-width=".565" d="M0.834 0.428L0.834 6.624" transform="translate(2 -1) translate(196 231.923) translate(225 197)"/>
                                        </g>
                                        <g>
                                            <path fill="#FFF" d="M1.035 0.428L1.035 6.624" transform="translate(2 -1) translate(196 231.923) translate(228 197)"/>
                                            <path stroke="#000" stroke-width=".565" d="M1.035 0.428L1.035 6.624" transform="translate(2 -1) translate(196 231.923) translate(228 197)"/>
                                        </g>
                                        <g>
                                            <path fill="#FFF" d="M1.236 0.428L1.236 6.624" transform="translate(2 -1) translate(196 231.923) translate(231 197)"/>
                                            <path stroke="#000" stroke-width=".565" d="M1.236 0.428L1.236 6.624" transform="translate(2 -1) translate(196 231.923) translate(231 197)"/>
                                        </g>
                                        <g>
                                            <path fill="#FFF" d="M1.438 0.428L1.438 6.624" transform="translate(2 -1) translate(196 231.923) translate(234 197)"/>
                                            <path stroke="#000" stroke-width=".565" d="M1.438 0.428L1.438 6.624" transform="translate(2 -1) translate(196 231.923) translate(234 197)"/>
                                        </g>
                                        <g>
                                            <path fill="#FFF" d="M1.032 0.428L1.032 6.624" transform="translate(2 -1) translate(196 231.923) translate(220 197)"/>
                                            <path stroke="#000" stroke-width=".565" d="M1.032 0.428L1.032 6.624" transform="translate(2 -1) translate(196 231.923) translate(220 197)"/>
                                        </g>
                                        <g>
                                            <path fill="#FFF" d="M1.234 0.428L1.234 6.624" transform="translate(2 -1) translate(196 231.923) translate(223 197)"/>
                                            <path stroke="#000" stroke-width=".565" d="M1.234 0.428L1.234 6.624" transform="translate(2 -1) translate(196 231.923) translate(223 197)"/>
                                        </g>
                                        <g>
                                            <path fill="#FFF" d="M1.435 0.428L1.435 6.624" transform="translate(2 -1) translate(196 231.923) translate(226 197)"/>
                                            <path stroke="#000" stroke-width=".565" d="M1.435 0.428L1.435 6.624" transform="translate(2 -1) translate(196 231.923) translate(226 197)"/>
                                        </g>
                                        <g>
                                            <path fill="#FFF" d="M0.636 0.428L0.636 6.624" transform="translate(2 -1) translate(196 231.923) translate(230 197)"/>
                                            <path stroke="#000" stroke-width=".565" d="M0.636 0.428L0.636 6.624" transform="translate(2 -1) translate(196 231.923) translate(230 197)"/>
                                        </g>
                                        <g>
                                            <path fill="#FFF" d="M0.837 0.428L0.837 6.624" transform="translate(2 -1) translate(196 231.923) translate(233 197)"/>
                                            <path stroke="#000" stroke-width=".565" d="M0.837 0.428L0.837 6.624" transform="translate(2 -1) translate(196 231.923) translate(233 197)"/>
                                        </g>
                                        <path fill="#E6E8EB" d="M252.27 197.563s.187-1.194 1.877-2.007c1.69-.814 5.93-1.965 11.109-1.25 5.18.715 6.54 2 6.54 2l.623 1.377-.001 15.147s-.685 1.814-4.158 2.565c-3.473.751-10.39 1.001-13.706-.532 0 0-2.097-.875-2.284-2.19v-15.11z" transform="translate(2 -1) translate(196 231.923)"/>
                                        <path stroke="#000" stroke-width=".565" d="M272.419 197.428s-.778-3.346-10.378-3.346-9.771 3.417-9.771 3.417v15.21s1.055 3.44 10.068 3.44c9.014 0 10.08-3.44 10.08-3.44v-15.281z" transform="translate(2 -1) translate(196 231.923)"/>
                                        <path stroke="#000" stroke-width=".565" d="M252.27 202.877s1.125 3.297 10.205 3.21c9.079-.087 9.944-3.21 9.944-3.21M252.27 207.835s1.125 3.296 10.205 3.209c9.079-.086 9.944-3.209 9.944-3.209M252.27 197.919s1.125 3.297 10.205 3.21c9.079-.087 9.944-3.21 9.944-3.21" transform="translate(2 -1) translate(196 231.923)"/>
                                        <path stroke="#C5C8CF" stroke-width=".75" d="M190.558 4.882L4.951 4.882" transform="translate(2 -1) translate(196 231.923)"/>
                                        <path fill="#C5C8CF" d="M184.582 4.882L184.582 0.12 188.706 2.501 192.83 4.882 188.706 7.263 184.582 9.644z" transform="translate(2 -1) translate(196 231.923)"/>
                                        <path stroke="#C5C8CF" stroke-width=".75" d="M3.099 17.947L188.706 17.947" transform="translate(2 -1) translate(196 231.923)"/>
                                        <path fill="#C5C8CF" d="M9.075 17.947L9.075 22.709 4.951 20.328 0.827 17.947 4.951 15.565 9.075 13.184z" transform="translate(2 -1) translate(196 231.923)"/>
                                    </g>
                                    <text font-family="NotoSansCJKkr-Medium, Noto Sans CJK KR" font-size="12" font-weight="400" transform="translate(2 -1)">
                                        <tspan x="218.899" y="267.962" fill="#000">Video &amp; </tspan> <tspan x="265.039" y="267.962" fill="#000" letter-spacing="-.312">c</tspan> <tspan x="270.619" y="267.962" fill="#000">ollabo</tspan> <tspan x="306.955" y="267.962" fill="#000" letter-spacing="-.336">r</tspan> <tspan x="311.191" y="267.962" fill="#000" letter-spacing="-.204">a</tspan> <tspan x="317.683" y="267.962" fill="#000">tion d</tspan> <tspan x="350.995" y="267.962" fill="#000" letter-spacing="-.204">a</tspan> <tspan x="357.487" y="267.962" fill="#000" letter-spacing="-.288">t</tspan> <tspan x="361.663" y="267.962" fill="#000">a</tspan>
                                    </text>
                                    <text font-family="NotoSansCJKkr-Medium, Noto Sans CJK KR" font-size="12" font-weight="400" transform="translate(2 -1)">
                                        <tspan x="242.695" y="289.562" fill="#000">Mana</tspan> <tspan x="273.943" y="289.562" fill="#000" letter-spacing="-.204">g</tspan> <tspan x="280.471" y="289.562" fill="#000">ement d</tspan> <tspan x="327.835" y="289.562" fill="#000" letter-spacing="-.204">a</tspan> <tspan x="334.327" y="289.562" fill="#000" letter-spacing="-.288">t</tspan> <tspan x="338.503" y="289.562" fill="#000">a</tspan>
                                    </text>
                                    <g>
                                        <path fill="#E6E8EB" d="M83.019.37C37.735.37.894 37.211.894 82.494c0 1.452.04 2.895.116 4.328v241.51c-.075 1.433-.116 2.876-.116 4.328 0 45.282 36.84 82.123 82.125 82.123 45.283 0 82.123-36.84 82.123-82.123V82.494c0-45.283-36.84-82.124-82.123-82.124" transform="translate(2 -1) translate(24 60.923)"/>
                                        <path stroke="#0A51B7" stroke-dasharray="2.268 2.268" stroke-width=".75" d="M83.018.371C37.734.371.893 37.211.893 82.494c0 1.451.041 2.895.116 4.328v241.51c-.075 1.433-.116 2.875-.116 4.328 0 45.282 36.841 82.123 82.125 82.123 45.283 0 82.124-36.84 82.124-82.123V82.494c0-45.283-36.84-82.123-82.124-82.123z" transform="translate(2 -1) translate(24 60.923)"/>
                                    </g>
                                    <text font-family="NotoSansCJKkr-Medium, Noto Sans CJK KR" font-size="12" font-weight="400" transform="translate(2 -1)">
                                        <tspan x="59.519" y="218.889" fill="#000">Ope</tspan> <tspan x="82.907" y="218.889" fill="#000" letter-spacing="-.336">r</tspan> <tspan x="87.143" y="218.889" fill="#000" letter-spacing="-.205">a</tspan> <tspan x="93.633" y="218.889" fill="#000">tion </tspan> <tspan x="119.385" y="218.889" fill="#000" letter-spacing="-.264">s</tspan> <tspan x="124.617" y="218.889" fill="#000" letter-spacing="-.288">t</tspan> <tspan x="128.793" y="218.889" fill="#000" letter-spacing="-.203">a</tspan> <tspan x="135.287" y="218.889" fill="#000">tus</tspan>
                                    </text>
                                    <text font-family="NotoSansCJKkr-Medium, Noto Sans CJK KR" font-size="12" font-weight="400" transform="translate(2 -1)">
                                        <tspan x="74.879" y="234.885" fill="#000">moni</tspan> <tspan x="104.483" y="234.885" fill="#000" letter-spacing="-.204">t</tspan> <tspan x="108.827" y="234.885" fill="#000">oring</tspan>
                                    </text>
                                    <text font-family="NotoSansCJKkr-Medium, Noto Sans CJK KR" font-size="12" font-weight="400" letter-spacing="-.132" transform="translate(2 -1)">
                                        <tspan x="45.287" y="382.161" fill="#000">R</tspan> <tspan x="52.883" y="382.161" fill="#000">em</tspan> <tspan x="70.967" y="382.161" fill="#000" letter-spacing="-.276">o</tspan> <tspan x="77.783" y="382.161" fill="#000" letter-spacing="-.204">t</tspan> <tspan x="82.127" y="382.161" fill="#000">e </tspan> <tspan x="91.607" y="382.161" fill="#000" letter-spacing="-.312">c</tspan> <tspan x="97.187" y="382.161" fill="#000">ollabo</tspan> <tspan x="133.523" y="382.161" fill="#000" letter-spacing="-.335">r</tspan> <tspan x="137.76" y="382.161" fill="#000" letter-spacing="-.204">a</tspan> <tspan x="144.252" y="382.161" fill="#000">tion</tspan>
                                    </text>
                                    <text font-family="NotoSansCJKkr-Medium, Noto Sans CJK KR" font-size="12" font-weight="400" letter-spacing="-.132" transform="translate(2 -1)">
                                        <tspan x="33.671" y="398.157" fill="#000">f</tspan> <tspan x="37.547" y="398.157" fill="#000">or mana</tspan> <tspan x="85.115" y="398.157" fill="#000" letter-spacing="-.203">g</tspan> <tspan x="91.644" y="398.157" fill="#000">ement / </tspan> <tspan x="138.828" y="398.157" fill="#000" letter-spacing="-.312">c</tspan> <tspan x="144.408" y="398.157" fill="#000">ont</tspan> <tspan x="164.016" y="398.157" fill="#000">r</tspan> <tspan x="168.66" y="398.157" fill="#000">ol</tspan>
                                    </text>
                                    <text font-family="NotoSansCJKkr-Medium, Noto Sans CJK KR" font-size="12" font-weight="400" transform="translate(2 -1)">
                                        <tspan x="41.459" y="419.757" fill="#000">Check ope</tspan> <tspan x="100.955" y="419.757" fill="#000" letter-spacing="-.336">r</tspan> <tspan x="105.191" y="419.757" fill="#000" letter-spacing="-.204">a</tspan> <tspan x="111.683" y="419.757" fill="#000">tion </tspan> <tspan x="137.435" y="419.757" fill="#000" letter-spacing="-.264">s</tspan> <tspan x="142.667" y="419.757" fill="#000" letter-spacing="-.288">t</tspan> <tspan x="146.843" y="419.757" fill="#000" letter-spacing="-.204">a</tspan> <tspan x="153.335" y="419.757" fill="#000">tus</tspan>
                                    </text>
                                    <g transform="translate(2 -1) translate(0 .923)">
                                        <path fill="#FFF" d="M163.384 307.318c0 31.125-25.232 56.356-56.357 56.356s-56.357-25.23-56.357-56.356 25.232-56.357 56.357-56.357 56.357 25.231 56.357 56.357"/>
                                        <path stroke="#C5C8CF" stroke-width=".75" d="M163.384 307.318c0 31.125-25.232 56.356-56.357 56.356s-56.357-25.23-56.357-56.356 25.232-56.357 56.357-56.357 56.357 25.231 56.357 56.357z"/>
                                        <path fill="#273A5B" d="M121.207 304.265c-1.316 0-2.374.55-3.147 1.638-.248-.48-.61-.867-1.08-1.153-.53-.322-1.148-.485-1.842-.485-.556 0-1.12.155-1.68.464-.464.258-.835.572-1.103.939v-1.104h-1.89v9.47h1.965v-5.248c0-.73.218-1.373.649-1.91.429-.536.943-.798 1.572-.798.695 0 1.194.178 1.48.528.293.357.44.959.44 1.788v5.64h1.966v-5.248c0-.73.218-1.373.649-1.91.429-.536.943-.798 1.57-.798.696 0 1.195.178 1.48.528.295.357.443.959.443 1.788v5.64h1.964v-5.903c0-1.223-.3-2.182-.892-2.851-.595-.674-1.451-1.015-2.544-1.015M132.655 311.589c-.518.552-1.17.809-2.047.809-.88 0-1.53-.257-2.048-.81-.55-.585-.83-1.364-.83-2.314 0-.938.28-1.71.83-2.296.53-.566 1.182-.828 2.048-.828.865 0 1.516.262 2.047.828.55.586.829 1.358.829 2.296 0 .95-.28 1.729-.83 2.315m-2.046-7.324c-1.39 0-2.558.477-3.477 1.423-.906.94-1.364 2.148-1.364 3.586 0 1.438.458 2.644 1.364 3.586.919.945 2.088 1.423 3.477 1.423 1.388 0 2.552-.478 3.457-1.422.919-.93 1.383-2.137 1.383-3.587 0-1.438-.464-2.645-1.381-3.586-.907-.946-2.071-1.423-3.46-1.423M144.232 308.12c.164-.628.457-1.133.852-1.47.444-.38.982-.572 1.6-.572.751 0 1.358.201 1.8.598.397.354.651.863.725 1.443h-4.977zm7.067 1.355c0-1.632-.429-2.964-1.24-3.85-.826-.904-1.949-1.36-3.339-1.36-1.353 0-2.48.481-3.348 1.433-.854.936-1.305 2.196-1.305 3.647 0 1.41.44 2.558 1.343 3.514.894.945 2.045 1.423 3.422 1.423.942 0 1.798-.226 2.544-.672.597-.356 1.166-.9 1.562-1.492l.058-.087-1.407-1.299-.079.118c-.66.998-1.586 1.547-2.602 1.547-.837 0-1.465-.228-1.978-.719-.544-.52-.81-1.109-.856-1.895h7.195l.03-.308zM102.258 308.12c.163-.627.456-1.133.852-1.47h.001c.442-.38.98-.572 1.597-.572.753 0 1.36.201 1.802.598.397.354.651.863.725 1.443h-4.977zm2.488-3.855c-1.353 0-2.48.481-3.348 1.433-.854.937-1.306 2.197-1.306 3.647 0 1.41.44 2.558 1.345 3.514.892.945 2.044 1.423 3.421 1.423.942 0 1.797-.226 2.544-.672.597-.356 1.167-.9 1.562-1.493l.057-.086-1.406-1.299-.079.118c-.66.998-1.586 1.547-2.603 1.547-.836 0-1.464-.228-1.977-.719-.536-.514-.81-1.118-.857-1.895h7.195l.03-.308c0-1.632-.428-2.965-1.239-3.85-.826-.904-1.949-1.36-3.339-1.36zM139.381 301.983h-.229l-1.679 1.065-.055.037v1.637h-1.611v1.815h1.611v5.012c.012.855.281 1.534.796 2.017.49.458 1.125.695 1.942.725.031.002.063.002.097.002.413 0 .992-.08 1.295-.183l.081-.028v-1.9l-.169.075c-.119.053-.23.09-.341.115h-.001c-.189.041-.555.073-.69.068-.297-.015-.523-.107-.729-.297-.211-.193-.318-.583-.318-1.156v-4.45h2.248v-1.815h-2.248v-2.739zM90.89 307.223v-4.942h4.152c1.362 0 2.47 1.108 2.47 2.47 0 1.364-1.108 2.472-2.47 2.472H90.89zm7.686.193c.595-.767.91-1.69.91-2.665 0-.974-.315-1.896-.91-2.664-.832-1.08-2.091-1.697-3.453-1.697h-6.207v13.66h1.975v-4.937h3.117L97.732 314l.036.05h2.51l-3.908-5.12c.872-.261 1.65-.793 2.206-1.514z"/>
                                        <path fill="#207FF4" d="M69.431 317.323L78.869 311.866 78.869 308.638 69.431 314.12 69.431 314.124 65.53 311.871 65.53 307.372 72.197 303.523 69.427 301.919 62.757 305.77 62.756 305.769 62.756 305.77 62.756 313.471z"/>
                                        <path fill="#7DB3F6" d="M81.643 305.773L72.199 300.318 69.426 301.919 76.095 305.778 76.099 305.776 78.869 307.375 78.869 311.864 78.865 311.867 74.969 314.116 68.302 310.246 65.528 311.87 74.968 317.319 81.639 313.468z"/>
                                        <path fill="#C0D8FF" d="M72.199 297.116L65.529 300.967 65.529 300.967 65.529 300.967 65.529 311.87 68.303 313.471 68.303 302.568 68.302 302.568 68.303 302.568 72.199 300.318 76.095 302.568 76.095 310.25 78.869 308.638 78.869 300.967z"/>
                                        <path fill="#207FF4" d="M65.53 307.372L65.53 307.372 72.197 303.523 69.426 301.919 62.757 305.77 62.756 305.769 62.756 305.77z"/>
                                        <path fill="#FFF" d="M163.384 144.613c0 31.125-25.232 56.356-56.357 56.356S50.67 175.74 50.67 144.613s25.232-56.357 56.357-56.357 56.357 25.231 56.357 56.357"/>
                                        <path stroke="#C5C8CF" stroke-width=".75" d="M163.384 144.613c0 31.125-25.232 56.356-56.357 56.356S50.67 175.74 50.67 144.613s25.232-56.357 56.357-56.357 56.357 25.231 56.357 56.357z"/>
                                        <path fill="#007CF7" d="M80.419 153.563L76.08 150.095 76.08 138.873 80.419 135.405z"/>
                                        <path fill="#6FB6FB" d="M88.134 153.563L92.473 150.095 92.473 138.873 88.134 135.405z"/>
                                        <path fill="#0065C7" d="M88.134 135.404L84.276 137.938 88.134 140.534z"/>
                                        <path fill="#0065C7" d="M80.419 135.404L84.277 137.938 80.419 140.534zM88.134 148.433L84.276 150.967 88.134 153.563z"/>
                                        <path fill="#0065C7" d="M80.419 148.433L84.277 150.967 80.419 153.563z"/>
                                        <path fill="#273A5B" d="M120.494 148.507L118.319 141.856 116.37 141.856 114.194 148.509 112.234 141.856 110.186 141.856 113.214 151.245 115.125 151.245 117.298 144.495 119.489 151.245 121.419 151.245 124.447 141.856 122.436 141.856zM137.036 142.556c-.625-.663-1.524-1-2.674-1-.602 0-1.19.155-1.748.463-.464.256-.833.57-1.1.936v-1.1h-1.885v9.39h1.96v-5.18c0-.74.222-1.382.662-1.912.441-.531.973-.788 1.626-.788 1.404 0 2.103.695 2.138 2.12v5.76h1.96v-5.872c0-1.208-.316-2.156-.939-2.817"/>
                                        <mask id="eqxvu36efd" fill="#fff">
                                            <use xlink:href="#zbc05o1axc"/>
                                        </mask>
                                        <path fill="#273A5B" d="M125.672 151.245L127.629 151.245 127.629 141.565 125.672 141.565zM125.584 139.778L127.717 139.778 127.717 137.646 125.584 137.646zM112.43 137.636L99.955 137.636 99.955 139.53 105.208 139.53 105.208 151.33 107.177 151.33 107.177 139.53 112.43 139.53z" mask="url(#eqxvu36efd)"/>
                                    </g>
                                    <text font-family="NotoSansCJKkr-Bold, Noto Sans CJK KR" font-size="18" font-weight="bold" transform="translate(2 -1)">
                                        <tspan x="363.87" y="287.176" fill="#092E6E">Communi</tspan> <tspan x="450.144" y="287.176" fill="#092E6E" letter-spacing="-.216">c</tspan> <tspan x="459.198" y="287.176" fill="#092E6E" letter-spacing="-.342">a</tspan> <tspan x="469.152" y="287.176" fill="#092E6E">tion</tspan>
                                    </text>
                                    <text font-family="NotoSansCJKkr-Bold, Noto Sans CJK KR" font-size="18" font-weight="bold" transform="translate(2 -1)">
                                        <tspan x="405.54" y="308.776" fill="#092E6E">Se</tspan> <tspan x="427.23" y="308.776" fill="#092E6E" letter-spacing=".25">r</tspan> <tspan x="435.58" y="308.776" fill="#092E6E" letter-spacing="-.142">v</tspan> <tspan x="445.662" y="308.776" fill="#092E6E">er</tspan>
                                    </text>
                                    <g>
                                        <path fill="#E6E8EB" d="M4.628 54.616L4.628 85.956 42.461 85.956 42.461 54.325z" transform="translate(2 -1) translate(409 173.923)"/>
                                        <path stroke="#000" stroke-width=".565" d="M4.628 54.616L4.628 85.956 42.461 85.956 42.461 54.325z" transform="translate(2 -1) translate(409 173.923)"/>
                                        <path fill="#FFF" d="M3.385 54.563c-1.382 0-2.507-1.125-2.507-2.507v-6.154c0-1.383 1.125-2.508 2.507-2.508H43.56c1.383 0 2.507 1.126 2.507 2.508v6.154c0 1.383-1.124 2.508-2.507 2.508H3.385z" transform="translate(2 -1) translate(409 173.923)"/>
                                        <path fill="#000" d="M43.561 43.112H3.385c-1.534 0-2.79 1.255-2.79 2.79v6.154c0 1.535 1.256 2.79 2.79 2.79h40.176c1.534 0 2.79-1.255 2.79-2.79v-6.155c0-1.534-1.256-2.789-2.79-2.789m0 .564c1.227 0 2.225.998 2.225 2.225v6.155c0 1.227-.998 2.225-2.225 2.225H3.385c-1.227 0-2.225-.998-2.225-2.225v-6.155c0-1.227.998-2.225 2.225-2.225h40.176" transform="translate(2 -1) translate(409 173.923)"/>
                                        <path fill="#FFF" d="M3.385 68.818c-1.382 0-2.507-1.125-2.507-2.507v-6.155c0-1.382 1.125-2.507 2.507-2.507H43.56c1.383 0 2.507 1.125 2.507 2.507v6.155c0 1.382-1.124 2.507-2.507 2.507H3.385z" transform="translate(2 -1) translate(409 173.923)"/>
                                        <path fill="#000" d="M43.561 57.367H3.385c-1.534 0-2.79 1.255-2.79 2.79v6.154c0 1.535 1.256 2.79 2.79 2.79h40.176c1.534 0 2.79-1.255 2.79-2.79v-6.155c0-1.534-1.256-2.789-2.79-2.789m0 .564c1.227 0 2.225.998 2.225 2.225v6.155c0 1.227-.998 2.225-2.225 2.225H3.385c-1.227 0-2.225-.998-2.225-2.225v-6.155c0-1.227.998-2.225 2.225-2.225h40.176" transform="translate(2 -1) translate(409 173.923)"/>
                                        <path fill="#FFF" d="M3.385 82.993c-1.382 0-2.507-1.125-2.507-2.507v-6.155c0-1.382 1.125-2.507 2.507-2.507H43.56c1.383 0 2.507 1.125 2.507 2.507v6.155c0 1.382-1.124 2.507-2.507 2.507H3.385z" transform="translate(2 -1) translate(409 173.923)"/>
                                        <path fill="#000" d="M43.561 71.542H3.385c-1.534 0-2.79 1.255-2.79 2.79v6.154c0 1.535 1.256 2.789 2.79 2.789h40.176c1.534 0 2.79-1.254 2.79-2.789v-6.154c0-1.535-1.256-2.79-2.79-2.79m0 .564c1.227 0 2.225.998 2.225 2.226v6.154c0 1.227-.998 2.225-2.225 2.225H3.385c-1.227 0-2.225-.998-2.225-2.225v-6.154c0-1.228.998-2.226 2.225-2.226h40.176" transform="translate(2 -1) translate(409 173.923)"/>
                                        <path fill="#0A51B7" d="M29.078 50.584c-.885 0-1.605-.721-1.605-1.605 0-.885.72-1.605 1.605-1.605s1.605.72 1.605 1.605c0 .884-.72 1.605-1.605 1.605" transform="translate(2 -1) translate(409 173.923)"/>
                                        <path fill="#000" d="M29.078 47.092c-1.042 0-1.888.845-1.888 1.887 0 1.043.846 1.887 1.888 1.887 1.042 0 1.887-.844 1.887-1.887 0-1.042-.845-1.887-1.887-1.887m0 .564c.729 0 1.322.594 1.322 1.323 0 .73-.593 1.323-1.322 1.323-.73 0-1.323-.593-1.323-1.323s.594-1.323 1.323-1.323" transform="translate(2 -1) translate(409 173.923)"/>
                                        <path fill="#0A51B7" d="M34.899 50.584c-.885 0-1.605-.721-1.605-1.605 0-.885.72-1.605 1.605-1.605s1.605.72 1.605 1.605c0 .884-.72 1.605-1.605 1.605" transform="translate(2 -1) translate(409 173.923)"/>
                                        <path fill="#000" d="M34.899 47.092c-1.042 0-1.888.845-1.888 1.887 0 1.043.846 1.887 1.888 1.887 1.042 0 1.888-.844 1.888-1.887 0-1.042-.846-1.887-1.888-1.887m0 .564c.729 0 1.323.594 1.323 1.323 0 .73-.594 1.323-1.323 1.323s-1.323-.593-1.323-1.323.594-1.323 1.323-1.323" transform="translate(2 -1) translate(409 173.923)"/>
                                        <path fill="#0A51B7" d="M40.72 50.584c-.885 0-1.605-.721-1.605-1.605 0-.885.72-1.605 1.605-1.605s1.605.72 1.605 1.605c0 .884-.72 1.605-1.605 1.605" transform="translate(2 -1) translate(409 173.923)"/>
                                        <path fill="#000" d="M40.72 47.092c-1.042 0-1.887.845-1.887 1.887 0 1.043.845 1.887 1.887 1.887 1.043 0 1.888-.844 1.888-1.887 0-1.042-.845-1.887-1.888-1.887m0 .564c.73 0 1.323.594 1.323 1.323 0 .73-.594 1.323-1.323 1.323s-1.322-.593-1.322-1.323.593-1.323 1.322-1.323" transform="translate(2 -1) translate(409 173.923)"/>
                                        <path fill="#0A51B7" d="M29.078 64.839c-.885 0-1.605-.721-1.605-1.605 0-.885.72-1.605 1.605-1.605s1.605.72 1.605 1.605c0 .884-.72 1.605-1.605 1.605" transform="translate(2 -1) translate(409 173.923)"/>
                                        <path fill="#000" d="M29.078 61.347c-1.042 0-1.888.845-1.888 1.888 0 1.042.846 1.886 1.888 1.886 1.042 0 1.887-.844 1.887-1.886 0-1.043-.845-1.888-1.887-1.888m0 .564c.729 0 1.322.593 1.322 1.324 0 .728-.593 1.322-1.322 1.322-.73 0-1.323-.594-1.323-1.322 0-.731.594-1.324 1.323-1.324" transform="translate(2 -1) translate(409 173.923)"/>
                                        <path fill="#0A51B7" d="M34.899 64.839c-.885 0-1.605-.721-1.605-1.605 0-.885.72-1.605 1.605-1.605s1.605.72 1.605 1.605c0 .884-.72 1.605-1.605 1.605" transform="translate(2 -1) translate(409 173.923)"/>
                                        <path fill="#000" d="M34.899 61.347c-1.042 0-1.888.845-1.888 1.888 0 1.042.846 1.886 1.888 1.886 1.042 0 1.888-.844 1.888-1.886 0-1.043-.846-1.888-1.888-1.888m0 .564c.729 0 1.323.593 1.323 1.324 0 .728-.594 1.322-1.323 1.322s-1.323-.594-1.323-1.322c0-.731.594-1.324 1.323-1.324" transform="translate(2 -1) translate(409 173.923)"/>
                                        <path fill="#0A51B7" d="M40.72 64.839c-.885 0-1.605-.721-1.605-1.605 0-.885.72-1.605 1.605-1.605s1.605.72 1.605 1.605c0 .884-.72 1.605-1.605 1.605" transform="translate(2 -1) translate(409 173.923)"/>
                                        <path fill="#000" d="M40.72 61.347c-1.042 0-1.887.845-1.887 1.888 0 1.042.845 1.886 1.887 1.886 1.043 0 1.888-.844 1.888-1.886 0-1.043-.845-1.888-1.888-1.888m0 .564c.73 0 1.323.593 1.323 1.324 0 .728-.594 1.322-1.323 1.322s-1.322-.594-1.322-1.322c0-.731.593-1.324 1.322-1.324" transform="translate(2 -1) translate(409 173.923)"/>
                                        <path fill="#0A51B7" d="M29.078 79.014c-.885 0-1.605-.72-1.605-1.604 0-.885.72-1.606 1.605-1.606s1.605.72 1.605 1.606c0 .884-.72 1.604-1.605 1.604" transform="translate(2 -1) translate(409 173.923)"/>
                                        <path fill="#000" d="M29.078 75.522c-1.042 0-1.888.846-1.888 1.886 0 1.043.846 1.888 1.888 1.888 1.042 0 1.887-.845 1.887-1.888 0-1.04-.845-1.886-1.887-1.886m0 .563c.729 0 1.322.595 1.322 1.324 0 .73-.593 1.323-1.322 1.323-.73 0-1.323-.594-1.323-1.323 0-.73.594-1.324 1.323-1.324" transform="translate(2 -1) translate(409 173.923)"/>
                                        <path fill="#0A51B7" d="M34.899 79.014c-.885 0-1.605-.72-1.605-1.604 0-.885.72-1.606 1.605-1.606s1.605.72 1.605 1.606c0 .884-.72 1.604-1.605 1.604" transform="translate(2 -1) translate(409 173.923)"/>
                                        <path fill="#000" d="M34.899 75.522c-1.042 0-1.888.846-1.888 1.886 0 1.043.846 1.888 1.888 1.888 1.042 0 1.888-.845 1.888-1.888 0-1.04-.846-1.886-1.888-1.886m0 .563c.729 0 1.323.595 1.323 1.324 0 .73-.594 1.323-1.323 1.323s-1.323-.594-1.323-1.323c0-.73.594-1.324 1.323-1.324" transform="translate(2 -1) translate(409 173.923)"/>
                                        <path fill="#0A51B7" d="M40.72 79.014c-.885 0-1.605-.72-1.605-1.604 0-.885.72-1.606 1.605-1.606s1.605.72 1.605 1.606c0 .884-.72 1.604-1.605 1.604" transform="translate(2 -1) translate(409 173.923)"/>
                                        <path fill="#000" d="M40.72 75.522c-1.042 0-1.887.846-1.887 1.886 0 1.043.845 1.888 1.887 1.888 1.043 0 1.888-.845 1.888-1.888 0-1.04-.845-1.886-1.888-1.886m0 .563c.73 0 1.323.595 1.323 1.324 0 .73-.594 1.323-1.323 1.323s-1.322-.594-1.322-1.323c0-.73.593-1.324 1.322-1.324" transform="translate(2 -1) translate(409 173.923)"/>
                                        <g>
                                            <path fill="#FFF" d="M1.431 0.881L1.431 7.077" transform="translate(2 -1) translate(409 173.923) translate(4 45)"/>
                                            <path stroke="#000" stroke-width=".565" d="M1.431 0.881L1.431 7.077" transform="translate(2 -1) translate(409 173.923) translate(4 45)"/>
                                        </g>
                                        <g>
                                            <path fill="#FFF" d="M0.632 0.881L0.632 7.077" transform="translate(2 -1) translate(409 173.923) translate(8 45)"/>
                                            <path stroke="#000" stroke-width=".565" d="M0.632 0.881L0.632 7.077" transform="translate(2 -1) translate(409 173.923) translate(8 45)"/>
                                        </g>
                                        <g>
                                            <path fill="#FFF" d="M0.834 0.881L0.834 7.077" transform="translate(2 -1) translate(409 173.923) translate(11 45)"/>
                                            <path stroke="#000" stroke-width=".565" d="M0.834 0.881L0.834 7.077" transform="translate(2 -1) translate(409 173.923) translate(11 45)"/>
                                        </g>
                                        <g>
                                            <path fill="#FFF" d="M1.035 0.881L1.035 7.077" transform="translate(2 -1) translate(409 173.923) translate(14 45)"/>
                                            <path stroke="#000" stroke-width=".565" d="M1.035 0.881L1.035 7.077" transform="translate(2 -1) translate(409 173.923) translate(14 45)"/>
                                        </g>
                                        <g>
                                            <path fill="#FFF" d="M1.236 0.881L1.236 7.077" transform="translate(2 -1) translate(409 173.923) translate(17 45)"/>
                                            <path stroke="#000" stroke-width=".565" d="M1.236 0.881L1.236 7.077" transform="translate(2 -1) translate(409 173.923) translate(17 45)"/>
                                        </g>
                                        <g>
                                            <path fill="#FFF" d="M1.437 0.881L1.437 7.077" transform="translate(2 -1) translate(409 173.923) translate(20 45)"/>
                                            <path stroke="#000" stroke-width=".565" d="M1.437 0.881L1.437 7.077" transform="translate(2 -1) translate(409 173.923) translate(20 45)"/>
                                        </g>
                                        <g>
                                            <path fill="#FFF" d="M1.032 0.881L1.032 7.077" transform="translate(2 -1) translate(409 173.923) translate(6 45)"/>
                                            <path stroke="#000" stroke-width=".565" d="M1.032 0.881L1.032 7.077" transform="translate(2 -1) translate(409 173.923) translate(6 45)"/>
                                        </g>
                                        <g>
                                            <path fill="#FFF" d="M1.233 0.881L1.233 7.077" transform="translate(2 -1) translate(409 173.923) translate(9 45)"/>
                                            <path stroke="#000" stroke-width=".565" d="M1.233 0.881L1.233 7.077" transform="translate(2 -1) translate(409 173.923) translate(9 45)"/>
                                        </g>
                                        <g>
                                            <path fill="#FFF" d="M1.434 0.881L1.434 7.077" transform="translate(2 -1) translate(409 173.923) translate(12 45)"/>
                                            <path stroke="#000" stroke-width=".565" d="M1.434 0.881L1.434 7.077" transform="translate(2 -1) translate(409 173.923) translate(12 45)"/>
                                        </g>
                                        <g>
                                            <path fill="#FFF" d="M0.635 0.881L0.635 7.077" transform="translate(2 -1) translate(409 173.923) translate(16 45)"/>
                                            <path stroke="#000" stroke-width=".565" d="M0.635 0.881L0.635 7.077" transform="translate(2 -1) translate(409 173.923) translate(16 45)"/>
                                        </g>
                                        <g>
                                            <path fill="#FFF" d="M0.837 0.881L0.837 7.077" transform="translate(2 -1) translate(409 173.923) translate(19 45)"/>
                                            <path stroke="#000" stroke-width=".565" d="M0.837 0.881L0.837 7.077" transform="translate(2 -1) translate(409 173.923) translate(19 45)"/>
                                        </g>
                                        <g>
                                            <path fill="#FFF" d="M1.431 0.136L1.431 6.332" transform="translate(2 -1) translate(409 173.923) translate(4 60)"/>
                                            <path stroke="#000" stroke-width=".565" d="M1.431 0.136L1.431 6.332" transform="translate(2 -1) translate(409 173.923) translate(4 60)"/>
                                        </g>
                                        <g>
                                            <path fill="#FFF" d="M0.632 0.136L0.632 6.332" transform="translate(2 -1) translate(409 173.923) translate(8 60)"/>
                                            <path stroke="#000" stroke-width=".565" d="M0.632 0.136L0.632 6.332" transform="translate(2 -1) translate(409 173.923) translate(8 60)"/>
                                        </g>
                                        <g>
                                            <path fill="#FFF" d="M0.834 0.136L0.834 6.332" transform="translate(2 -1) translate(409 173.923) translate(11 60)"/>
                                            <path stroke="#000" stroke-width=".565" d="M0.834 0.136L0.834 6.332" transform="translate(2 -1) translate(409 173.923) translate(11 60)"/>
                                        </g>
                                        <g>
                                            <path fill="#FFF" d="M1.035 0.136L1.035 6.332" transform="translate(2 -1) translate(409 173.923) translate(14 60)"/>
                                            <path stroke="#000" stroke-width=".565" d="M1.035 0.136L1.035 6.332" transform="translate(2 -1) translate(409 173.923) translate(14 60)"/>
                                        </g>
                                        <g>
                                            <path fill="#FFF" d="M1.236 0.136L1.236 6.332" transform="translate(2 -1) translate(409 173.923) translate(17 60)"/>
                                            <path stroke="#000" stroke-width=".565" d="M1.236 0.136L1.236 6.332" transform="translate(2 -1) translate(409 173.923) translate(17 60)"/>
                                        </g>
                                        <g>
                                            <path fill="#FFF" d="M1.437 0.136L1.437 6.332" transform="translate(2 -1) translate(409 173.923) translate(20 60)"/>
                                            <path stroke="#000" stroke-width=".565" d="M1.437 0.136L1.437 6.332" transform="translate(2 -1) translate(409 173.923) translate(20 60)"/>
                                        </g>
                                        <g>
                                            <path fill="#FFF" d="M1.032 0.136L1.032 6.332" transform="translate(2 -1) translate(409 173.923) translate(6 60)"/>
                                            <path stroke="#000" stroke-width=".565" d="M1.032 0.136L1.032 6.332" transform="translate(2 -1) translate(409 173.923) translate(6 60)"/>
                                        </g>
                                        <g>
                                            <path fill="#FFF" d="M1.233 0.136L1.233 6.332" transform="translate(2 -1) translate(409 173.923) translate(9 60)"/>
                                            <path stroke="#000" stroke-width=".565" d="M1.233 0.136L1.233 6.332" transform="translate(2 -1) translate(409 173.923) translate(9 60)"/>
                                        </g>
                                        <g>
                                            <path fill="#FFF" d="M1.434 0.136L1.434 6.332" transform="translate(2 -1) translate(409 173.923) translate(12 60)"/>
                                            <path stroke="#000" stroke-width=".565" d="M1.434 0.136L1.434 6.332" transform="translate(2 -1) translate(409 173.923) translate(12 60)"/>
                                        </g>
                                        <g>
                                            <path fill="#FFF" d="M0.635 0.136L0.635 6.332" transform="translate(2 -1) translate(409 173.923) translate(16 60)"/>
                                            <path stroke="#000" stroke-width=".565" d="M0.635 0.136L0.635 6.332" transform="translate(2 -1) translate(409 173.923) translate(16 60)"/>
                                        </g>
                                        <g>
                                            <path fill="#FFF" d="M0.837 0.136L0.837 6.332" transform="translate(2 -1) translate(409 173.923) translate(19 60)"/>
                                            <path stroke="#000" stroke-width=".565" d="M0.837 0.136L0.837 6.332" transform="translate(2 -1) translate(409 173.923) translate(19 60)"/>
                                        </g>
                                        <g>
                                            <path fill="#FFF" d="M1.431 0.391L1.431 6.587" transform="translate(2 -1) translate(409 173.923) translate(4 74)"/>
                                            <path stroke="#000" stroke-width=".565" d="M1.431 0.391L1.431 6.587" transform="translate(2 -1) translate(409 173.923) translate(4 74)"/>
                                        </g>
                                        <g>
                                            <path fill="#FFF" d="M0.632 0.391L0.632 6.587" transform="translate(2 -1) translate(409 173.923) translate(8 74)"/>
                                            <path stroke="#000" stroke-width=".565" d="M0.632 0.391L0.632 6.587" transform="translate(2 -1) translate(409 173.923) translate(8 74)"/>
                                        </g>
                                        <g>
                                            <path fill="#FFF" d="M0.834 0.391L0.834 6.587" transform="translate(2 -1) translate(409 173.923) translate(11 74)"/>
                                            <path stroke="#000" stroke-width=".565" d="M0.834 0.391L0.834 6.587" transform="translate(2 -1) translate(409 173.923) translate(11 74)"/>
                                        </g>
                                        <g>
                                            <path fill="#FFF" d="M1.035 0.391L1.035 6.587" transform="translate(2 -1) translate(409 173.923) translate(14 74)"/>
                                            <path stroke="#000" stroke-width=".565" d="M1.035 0.391L1.035 6.587" transform="translate(2 -1) translate(409 173.923) translate(14 74)"/>
                                        </g>
                                        <g>
                                            <path fill="#FFF" d="M1.236 0.391L1.236 6.587" transform="translate(2 -1) translate(409 173.923) translate(17 74)"/>
                                            <path stroke="#000" stroke-width=".565" d="M1.236 0.391L1.236 6.587" transform="translate(2 -1) translate(409 173.923) translate(17 74)"/>
                                        </g>
                                        <g>
                                            <path fill="#FFF" d="M1.437 0.391L1.437 6.587" transform="translate(2 -1) translate(409 173.923) translate(20 74)"/>
                                            <path stroke="#000" stroke-width=".565" d="M1.437 0.391L1.437 6.587" transform="translate(2 -1) translate(409 173.923) translate(20 74)"/>
                                        </g>
                                        <g>
                                            <path fill="#FFF" d="M1.032 0.391L1.032 6.587" transform="translate(2 -1) translate(409 173.923) translate(6 74)"/>
                                            <path stroke="#000" stroke-width=".565" d="M1.032 0.391L1.032 6.587" transform="translate(2 -1) translate(409 173.923) translate(6 74)"/>
                                        </g>
                                        <g>
                                            <path fill="#FFF" d="M1.233 0.391L1.233 6.587" transform="translate(2 -1) translate(409 173.923) translate(9 74)"/>
                                            <path stroke="#000" stroke-width=".565" d="M1.233 0.391L1.233 6.587" transform="translate(2 -1) translate(409 173.923) translate(9 74)"/>
                                        </g>
                                        <g>
                                            <path fill="#FFF" d="M1.434 0.391L1.434 6.587" transform="translate(2 -1) translate(409 173.923) translate(12 74)"/>
                                            <path stroke="#000" stroke-width=".565" d="M1.434 0.391L1.434 6.587" transform="translate(2 -1) translate(409 173.923) translate(12 74)"/>
                                        </g>
                                        <g>
                                            <path fill="#FFF" d="M0.635 0.391L0.635 6.587" transform="translate(2 -1) translate(409 173.923) translate(16 74)"/>
                                            <path stroke="#000" stroke-width=".565" d="M0.635 0.391L0.635 6.587" transform="translate(2 -1) translate(409 173.923) translate(16 74)"/>
                                        </g>
                                        <g>
                                            <path fill="#FFF" d="M0.837 0.391L0.837 6.587" transform="translate(2 -1) translate(409 173.923) translate(19 74)"/>
                                            <path stroke="#000" stroke-width=".565" d="M0.837 0.391L0.837 6.587" transform="translate(2 -1) translate(409 173.923) translate(19 74)"/>
                                        </g>
                                        <path fill="#E6E8EB" d="M38.27 74.525s.186-1.192 1.876-2.007c1.69-.813 5.93-1.964 11.11-1.249 5.178.715 6.54 2.001 6.54 2.001l.622 1.376v15.146s-.686 1.815-4.159 2.566c-3.473.751-10.389 1.001-13.706-.532 0 0-2.097-.876-2.284-2.19v-15.11z" transform="translate(2 -1) translate(409 173.923)"/>
                                        <path stroke="#000" stroke-width=".565" d="M58.418 74.39s-.778-3.344-10.378-3.344-9.77 3.416-9.77 3.416v15.212s1.054 3.439 10.067 3.439c9.014 0 10.08-3.44 10.08-3.44l.001-15.282z" transform="translate(2 -1) translate(409 173.923)"/>
                                        <path stroke="#000" stroke-width=".565" d="M38.27 79.84s1.124 3.297 10.204 3.21c9.08-.087 9.944-3.21 9.944-3.21M38.27 84.798s1.124 3.296 10.204 3.209c9.08-.086 9.944-3.21 9.944-3.21M38.27 74.883s1.124 3.296 10.204 3.209c9.08-.087 9.944-3.21 9.944-3.21" transform="translate(2 -1) translate(409 173.923)"/>
                                        <path stroke="#C5C8CF" stroke-width=".75" d="M211.077 69.239L70.47 69.239" transform="translate(2 -1) translate(409 173.923)"/>
                                        <path fill="#C5C8CF" d="M205.102 69.239L205.102 64.477 209.226 66.858 213.35 69.239 209.226 71.62 205.102 74.001zM77.644 69.239L77.644 74.001 73.52 71.62 69.396 69.239 73.52 66.858 77.644 64.477z" transform="translate(2 -1) translate(409 173.923)"/>
                                        <path stroke="#C5C8CF" stroke-width=".75" d="M25.708 3L25.708 34.829" transform="translate(2 -1) translate(409 173.923)"/>
                                        <path fill="#C5C8CF" d="M25.708 8.976L20.946 8.976 23.327 4.852 25.708.728 28.089 4.852 30.47 8.976zM25.708 27.305L30.47 27.305 28.089 31.429 25.708 35.553 23.327 31.429 20.946 27.305z" transform="translate(2 -1) translate(409 173.923)"/>
                                        <path stroke="#C5C8CF" stroke-width=".75" d="M25.708 151.775L25.708 183.604" transform="translate(2 -1) translate(409 173.923)"/>
                                        <path fill="#C5C8CF" d="M25.708 157.751L20.946 157.751 23.327 153.627 25.708 149.503 28.089 153.627 30.47 157.751zM25.708 176.08L30.47 176.08 28.089 180.204 25.708 184.328 23.327 180.204 20.946 176.08z" transform="translate(2 -1) translate(409 173.923)"/>
                                        <path fill="#FFF" d="M345.559 67.497c0 31.125-25.232 56.357-56.357 56.357s-56.357-25.232-56.357-56.357 25.232-56.356 56.357-56.356 56.357 25.231 56.357 56.356" transform="translate(2 -1) translate(409 173.923)"/>
                                        <path stroke="#C5C8CF" stroke-width=".75" d="M345.559 67.497c0 31.125-25.232 56.357-56.357 56.357s-56.357-25.232-56.357-56.357 25.232-56.356 56.357-56.356 56.357 25.231 56.357 56.356z" transform="translate(2 -1) translate(409 173.923)"/>
                                        <path fill="#273A5B" d="M303.382 64.443c-1.317 0-2.375.551-3.147 1.64-.249-.48-.61-.868-1.08-1.155-.53-.32-1.15-.485-1.842-.485-.556 0-1.12.156-1.68.464-.464.258-.835.573-1.103.94v-1.104h-1.89v9.471h1.964v-5.249c0-.73.219-1.373.65-1.91.428-.537.942-.798 1.571-.798.696 0 1.194.178 1.48.528.293.357.442.96.442 1.787v5.642h1.964v-5.249c0-.73.219-1.373.65-1.91.428-.537.942-.798 1.57-.798.696 0 1.195.178 1.48.528.293.357.442.96.442 1.787v5.642h1.964V68.31c0-1.223-.3-2.182-.892-2.852-.595-.673-1.45-1.015-2.543-1.015M314.83 71.769c-.518.552-1.17.809-2.047.809-.88 0-1.531-.257-2.048-.81-.55-.586-.83-1.364-.83-2.314 0-.938.28-1.711.829-2.297.532-.565 1.182-.828 2.049-.828.865 0 1.516.263 2.047.828.55.586.829 1.359.829 2.297 0 .95-.28 1.728-.83 2.315m-2.046-7.325c-1.39 0-2.558.478-3.478 1.423-.905.942-1.363 2.149-1.363 3.587 0 1.437.458 2.644 1.364 3.586.919.944 2.088 1.423 3.477 1.423 1.388 0 2.55-.48 3.457-1.423.918-.928 1.383-2.136 1.383-3.586 0-1.438-.465-2.645-1.381-3.587-.908-.945-2.071-1.423-3.46-1.423M326.407 68.299c.163-.627.456-1.132.852-1.47.443-.38.98-.571 1.599-.571.752 0 1.358.2 1.8.598.397.354.652.862.726 1.443h-4.977zm7.066 1.356c0-1.632-.428-2.964-1.24-3.852-.825-.902-1.948-1.36-3.338-1.36-1.353 0-2.48.483-3.348 1.435-.854.936-1.305 2.196-1.305 3.647 0 1.409.439 2.558 1.343 3.513.894.946 2.045 1.424 3.422 1.424.942 0 1.798-.226 2.544-.672.597-.357 1.166-.901 1.562-1.492l.058-.087-1.407-1.3-.08.119c-.66.998-1.585 1.547-2.601 1.547-.837 0-1.465-.228-1.978-.72-.544-.52-.811-1.108-.856-1.894h7.194l.03-.308zM284.433 68.299c.163-.626.456-1.132.852-1.47h.001c.442-.38.98-.571 1.597-.571.753 0 1.36.2 1.802.598.397.354.651.862.725 1.443h-4.977zm2.488-3.855c-1.353 0-2.48.482-3.349 1.434-.853.936-1.305 2.197-1.305 3.647 0 1.409.44 2.558 1.344 3.513.893.946 2.045 1.424 3.422 1.424.942 0 1.797-.226 2.544-.672.597-.357 1.166-.901 1.562-1.493l.057-.086-1.406-1.3-.079.119c-.662.998-1.586 1.547-2.603 1.547-.836 0-1.464-.228-1.977-.72-.536-.513-.81-1.118-.857-1.894h7.195l.03-.308c0-1.633-.428-2.965-1.239-3.852-.826-.902-1.949-1.36-3.339-1.36zM321.556 62.163h-.23l-1.678 1.065-.055.036v1.638h-1.611v1.814h1.61v5.013c.013.855.28 1.534.797 2.016.49.46 1.125.696 1.94.726l.099.002c.412 0 .99-.08 1.295-.184l.08-.027v-1.9l-.17.075c-.117.053-.23.09-.34.115-.19.041-.555.073-.69.067-.297-.015-.523-.106-.73-.297-.21-.193-.317-.582-.317-1.156v-4.45h2.248v-1.814h-2.248v-2.739zM273.066 67.401v-4.94h4.15c1.363 0 2.472 1.107 2.472 2.47 0 1.362-1.11 2.47-2.472 2.47h-4.15zm7.685.194c.595-.767.909-1.689.909-2.665 0-.975-.314-1.897-.91-2.665-.831-1.078-2.09-1.696-3.452-1.696h-6.207v13.66h1.975v-4.937h3.117l3.724 4.886.036.051h2.51l-3.908-5.12c.872-.26 1.65-.793 2.206-1.514z" transform="translate(2 -1) translate(409 173.923)"/>
                                        <path fill="#207FF4" d="M251.606 77.503L261.044 72.045 261.044 68.818 251.606 74.3 251.606 74.304 247.705 72.05 247.705 67.551 254.372 63.702 251.602 62.099 244.932 65.949 244.931 65.949 244.931 65.95 244.931 73.651z" transform="translate(2 -1) translate(409 173.923)"/>
                                        <path fill="#7DB3F6" d="M263.817 65.953L254.374 60.498 251.601 62.099 258.269 65.958 258.274 65.955 261.043 67.555 261.043 72.044 261.039 72.047 257.144 74.295 250.476 70.425 247.702 72.05 257.142 77.499 263.813 73.648z" transform="translate(2 -1) translate(409 173.923)"/>
                                        <path fill="#C0D8FF" d="M254.373 57.295L247.703 61.147 247.704 61.147 247.703 61.147 247.703 72.049 250.477 73.651 250.477 62.748 250.476 62.747 250.477 62.748 254.373 60.498 258.269 62.748 258.269 70.43 261.043 68.818 261.043 61.147z" transform="translate(2 -1) translate(409 173.923)"/>
                                        <path fill="#207FF4" d="M247.705 67.551L247.705 67.551 254.372 63.702 251.601 62.099 244.932 65.949 244.931 65.949 244.931 65.95z" transform="translate(2 -1) translate(409 173.923)"/>
                                    </g>
                                    <text font-family="NotoSansCJKkr-Medium, Noto Sans CJK KR" font-size="12" font-weight="400" transform="translate(2 -1)">
                                        <tspan x="528.054" y="208.526" fill="#000">Video &amp;</tspan>
                                    </text>
                                    <text font-family="NotoSansCJKkr-Medium, Noto Sans CJK KR" font-size="12" font-weight="400" letter-spacing="-.312" transform="translate(2 -1)">
                                        <tspan x="497.346" y="224.522" fill="#000">c</tspan> <tspan x="502.926" y="224.522" fill="#000">ollabo</tspan> <tspan x="539.262" y="224.522" fill="#000" letter-spacing="-.336">r</tspan> <tspan x="543.498" y="224.522" fill="#000" letter-spacing="-.204">a</tspan> <tspan x="549.99" y="224.522" fill="#000">tion d</tspan> <tspan x="583.302" y="224.522" fill="#000" letter-spacing="-.205">a</tspan> <tspan x="589.793" y="224.522" fill="#000" letter-spacing="-.288">t</tspan> <tspan x="593.968" y="224.522" fill="#000">a</tspan>
                                    </text>
                                    <text font-family="NotoSansCJKkr-Medium, Noto Sans CJK KR" font-size="12" font-weight="400" letter-spacing="-.132" transform="translate(2 -1)">
                                        <tspan x="636.464" y="315.34" fill="#000">R</tspan> <tspan x="644.06" y="315.34" fill="#000">em</tspan> <tspan x="662.144" y="315.34" fill="#000" letter-spacing="-.276">o</tspan> <tspan x="668.96" y="315.34" fill="#000" letter-spacing="-.204">t</tspan> <tspan x="673.304" y="315.34" fill="#000">e </tspan> <tspan x="682.784" y="315.34" fill="#000" letter-spacing="-.312">c</tspan> <tspan x="688.364" y="315.34" fill="#000">ollabo</tspan> <tspan x="724.7" y="315.34" fill="#000" letter-spacing="-.335">r</tspan> <tspan x="728.937" y="315.34" fill="#000" letter-spacing="-.204">a</tspan> <tspan x="735.429" y="315.34" fill="#000">tion</tspan>
                                    </text>
                                    <text font-family="NotoSansCJKkr-Medium, Noto Sans CJK KR" font-size="12" font-weight="400" letter-spacing="-.204" transform="translate(2 -1)">
                                        <tspan x="647.233" y="329.74" fill="#000">t</tspan> <tspan x="651.577" y="329.74" fill="#000">o sol</tspan> <tspan x="678.349" y="329.74" fill="#000" letter-spacing="-.071">v</tspan> <tspan x="684.747" y="329.74" fill="#000">e p</tspan> <tspan x="701.787" y="329.74" fill="#000" letter-spacing="-.131">r</tspan> <tspan x="706.432" y="329.74" fill="#000">oblems</tspan>
                                    </text>
                                    <g>
                                        <path fill="#FFF" d="M113.065 57.168c0 31.125-25.232 56.356-56.357 56.356S.35 88.293.35 57.168C.35 26.042 25.583.811 56.708.811s56.357 25.231 56.357 56.357" transform="translate(2 -1) translate(378 14.923)"/>
                                        <path stroke="#C5C8CF" stroke-width=".75" d="M113.065 57.168c0 31.125-25.232 56.356-56.357 56.356S.35 88.293.35 57.168C.35 26.042 25.583.811 56.708.811s56.357 25.231 56.357 56.357z" transform="translate(2 -1) translate(378 14.923)"/>
                                        <path fill="#273A5B" d="M70.887 54.114c-1.316 0-2.374.551-3.147 1.638-.248-.479-.61-.867-1.08-1.153-.529-.322-1.149-.485-1.842-.485-.556 0-1.12.155-1.679.464-.465.258-.836.572-1.104.94v-1.105h-1.889v9.471h1.964v-5.249c0-.73.218-1.373.65-1.91.428-.536.942-.798 1.571-.798.695 0 1.194.178 1.48.528.293.357.441.96.441 1.788v5.641h1.965v-5.249c0-.73.218-1.373.65-1.91.428-.536.942-.798 1.57-.798.695 0 1.194.178 1.48.528.293.357.442.96.442 1.788v5.641h1.964V57.98c0-1.223-.3-2.182-.892-2.85-.595-.675-1.45-1.016-2.544-1.016M82.336 61.438c-.518.552-1.17.81-2.047.81-.88 0-1.531-.258-2.048-.81-.55-.586-.83-1.364-.83-2.315 0-.938.28-1.71.83-2.295.53-.567 1.182-.829 2.048-.829.865 0 1.516.262 2.047.828.55.587.829 1.358.829 2.297 0 .95-.28 1.728-.83 2.314m-2.046-7.324c-1.39 0-2.558.478-3.477 1.424-.906.94-1.364 2.148-1.364 3.586 0 1.438.458 2.643 1.364 3.585.919.945 2.088 1.423 3.477 1.423 1.388 0 2.552-.478 3.457-1.422.919-.928 1.383-2.136 1.383-3.587 0-1.438-.464-2.645-1.381-3.585-.907-.946-2.071-1.423-3.46-1.423M93.913 57.969c.163-.627.456-1.132.852-1.47.444-.38.982-.571 1.599-.571.752 0 1.359.2 1.8.598.398.354.652.863.726 1.443h-4.977zm7.066 1.356c0-1.632-.428-2.964-1.24-3.851-.825-.902-1.948-1.36-3.338-1.36-1.353 0-2.48.482-3.348 1.434-.854.936-1.305 2.196-1.305 3.647 0 1.409.439 2.558 1.343 3.514.894.945 2.045 1.423 3.422 1.423.942 0 1.798-.226 2.544-.672.597-.356 1.166-.9 1.562-1.492l.058-.087-1.407-1.298-.08.117c-.66.998-1.585 1.547-2.601 1.547-.837 0-1.465-.228-1.978-.72-.544-.52-.811-1.108-.856-1.894h7.195l.029-.308zM51.94 57.969c.162-.626.455-1.132.851-1.47h.001c.442-.38.98-.571 1.597-.571.753 0 1.36.2 1.802.598.397.354.651.863.725 1.443H51.94zm2.487-3.854c-1.353 0-2.48.48-3.349 1.433-.853.937-1.305 2.197-1.305 3.647 0 1.409.44 2.558 1.344 3.514.893.945 2.045 1.423 3.422 1.423.942 0 1.797-.226 2.544-.672.597-.356 1.166-.901 1.562-1.493l.057-.086-1.406-1.298-.079.117c-.662.998-1.586 1.547-2.603 1.547-.836 0-1.464-.228-1.977-.72-.536-.512-.81-1.117-.857-1.894h7.195l.03-.308c0-1.632-.428-2.965-1.239-3.851-.826-.902-1.949-1.36-3.339-1.36zM89.062 51.833h-.23l-1.678 1.065-.055.037v1.637h-1.611v1.815h1.61v5.012c.013.855.282 1.534.797 2.017.49.458 1.125.695 1.94.725.033.002.065.002.099.002.413 0 .992-.081 1.295-.183l.08-.028v-1.9l-.168.075c-.12.053-.23.09-.342.115-.19.041-.555.073-.69.068-.297-.015-.523-.106-.73-.297-.21-.193-.317-.583-.317-1.156v-4.45h2.248v-1.815h-2.248v-2.739zM40.571 57.072V52.13h4.151c1.362 0 2.471 1.108 2.471 2.471s-1.109 2.471-2.47 2.471H40.57zm7.685.193c.595-.767.91-1.689.91-2.664 0-.975-.315-1.897-.91-2.665-.832-1.079-2.09-1.697-3.453-1.697h-6.207V63.9h1.975v-4.936h3.117l3.724 4.886.036.05h2.51l-3.908-5.12c.872-.26 1.65-.793 2.206-1.514z" transform="translate(2 -1) translate(378 14.923)"/>
                                        <path fill="#207FF4" d="M19.111 67.173L28.549 61.716 28.549 58.488 19.111 63.97 19.111 63.974 15.21 61.721 15.21 57.222 21.878 53.373 19.108 51.769 12.438 55.62 12.437 55.619 12.437 55.62 12.437 63.322z" transform="translate(2 -1) translate(378 14.923)"/>
                                        <path fill="#7DB3F6" d="M31.323 55.623L21.879 50.168 19.107 51.769 25.775 55.628 25.779 55.626 28.549 57.225 28.549 61.714 28.545 61.717 24.65 63.966 17.983 60.096 15.208 61.72 24.649 67.169 31.319 63.318z" transform="translate(2 -1) translate(378 14.923)"/>
                                        <path fill="#C0D8FF" d="M21.879 46.966L15.209 50.817 15.21 50.817 15.209 50.817 15.209 61.72 17.983 63.321 17.983 52.418 17.983 52.418 17.983 52.418 21.879 50.169 25.775 52.418 25.775 60.1 28.549 58.488 28.549 50.817z" transform="translate(2 -1) translate(378 14.923)"/>
                                        <path fill="#207FF4" d="M15.211 57.222L15.211 57.222 21.878 53.373 19.107 51.769 12.438 55.62 12.437 55.619 12.437 55.62z" transform="translate(2 -1) translate(378 14.923)"/>
                                    </g>
                                    <text font-family="NotoSansCJKkr-Medium, Noto Sans CJK KR" font-size="12" font-weight="400" letter-spacing="-.132" transform="translate(2 -1)">
                                        <tspan x="372.97" y="146.011" fill="#000">R</tspan> <tspan x="380.566" y="146.011" fill="#000">em</tspan> <tspan x="398.65" y="146.011" fill="#000" letter-spacing="-.276">o</tspan> <tspan x="405.466" y="146.011" fill="#000" letter-spacing="-.204">t</tspan> <tspan x="409.81" y="146.011" fill="#000">e </tspan> <tspan x="419.29" y="146.011" fill="#000" letter-spacing="-.312">c</tspan> <tspan x="424.87" y="146.011" fill="#000">ollabo</tspan> <tspan x="461.206" y="146.011" fill="#000" letter-spacing="-.335">r</tspan> <tspan x="465.443" y="146.011" fill="#000" letter-spacing="-.204">a</tspan> <tspan x="471.935" y="146.011" fill="#000">tion</tspan>
                                    </text>
                                    <text font-family="NotoSansCJKkr-Medium, Noto Sans CJK KR" font-size="12" font-weight="400" letter-spacing="-.204" transform="translate(2 -1)">
                                        <tspan x="383.734" y="162.007" fill="#000">t</tspan> <tspan x="388.078" y="162.007" fill="#000">o sol</tspan> <tspan x="414.85" y="162.007" fill="#000" letter-spacing="-.072">v</tspan> <tspan x="421.246" y="162.007" fill="#000">e p</tspan> <tspan x="438.286" y="162.007" fill="#000" letter-spacing="-.131">r</tspan> <tspan x="442.931" y="162.007" fill="#000">oblems</tspan>
                                    </text>
                                </g>
                            </g>
                        </g>
                    </g>
                </g>
            </g>
        </g>
    </g>
</svg>
