<svg xmlns="http://www.w3.org/2000/svg" xmlns:xlink="http://www.w3.org/1999/xlink" width="780" height="210" viewBox="0 0 780 210">
    <defs>
        <path id="1godmawpha" d="M0 0H780V210H0z"/>
        <path id="rp5n42j12c" d="M0.749 7.262L0.749 20.293 12.035 26.81 23.321 20.293 23.321 7.262 12.035 0.745z"/>
        <path id="bcwb8ielhe" d="M0.969 13.293L12.035 19.613 12.035 6.778 0.969 0.388z"/>
        <path id="pwuvx2tceg" d="M.749 7.262v13.032l11.286 6.516 11.286-6.516V7.262L12.035.745.749 7.262zm.389 12.808V7.486l10.897-6.293 10.898 6.293V20.07l-10.898 6.291L1.138 20.07z"/>
    </defs>
    <g fill="none" fill-rule="evenodd">
        <g>
            <g>
                <g>
                    <g>
                        <g transform="translate(-760 -7249) translate(0 2554) translate(320 636) translate(60 3922) translate(380 137)">
                            <mask id="h951r12nyb" fill="#fff">
                                <use xlink:href="#1godmawpha"/>
                            </mask>
                            <use fill="#F8F9FB" xlink:href="#1godmawpha"/>
                            <g mask="url(#h951r12nyb)">
                                <g>
                                    <path stroke="#C5C8CF" stroke-width=".75" d="M199.991 56.669L124.384 56.669" transform="translate(24 27)"/>
                                    <path fill="#C5C8CF" d="M194.016 56.669L194.016 51.907 198.14 54.288 202.264 56.669 198.14 59.05 194.016 61.431z" transform="translate(24 27)"/>
                                    <path stroke="#C5C8CF" stroke-width=".75" d="M604.234 56.669L526.774 56.669" transform="translate(24 27)"/>
                                    <path fill="#C5C8CF" d="M598.259 56.669L598.259 51.907 602.383 54.288 606.507 56.669 602.383 59.05 598.259 61.431z" transform="translate(24 27)"/>
                                    <text font-family="NotoSansCJKkr-Medium, Noto Sans CJK KR" font-size="12" font-weight="400" transform="translate(24 27)">
                                        <tspan x="534.094" y="24.637" fill="#000">D</tspan> <tspan x="542.482" y="24.637" fill="#000" letter-spacing="-.336">r</tspan> <tspan x="546.718" y="24.637" fill="#000">awing &amp;</tspan>
                                    </text>
                                    <text font-family="NotoSansCJKkr-Medium, Noto Sans CJK KR" font-size="12" font-weight="400" transform="translate(24 27)">
                                        <tspan x="513.742" y="40.633" fill="#000">user manual d</tspan> <tspan x="595.198" y="40.633" fill="#000" letter-spacing="-.204">a</tspan> <tspan x="601.69" y="40.633" fill="#000" letter-spacing="-.288">t</tspan> <tspan x="605.866" y="40.633" fill="#000">a</tspan>
                                    </text>
                                    <text font-family="NotoSansCJKkr-Medium, Noto Sans CJK KR" font-size="12" font-weight="400" transform="translate(24 27)">
                                        <tspan x="129.802" y="39.037" fill="#000">3D d</tspan> <tspan x="155.29" y="39.037" fill="#000" letter-spacing="-.335">r</tspan> <tspan x="159.527" y="39.037" fill="#000">awing</tspan>
                                    </text>
                                    <text font-family="NotoSansCJKkr-Medium, Noto Sans CJK KR" font-size="12" font-weight="400" transform="translate(24 27)">
                                        <tspan x="205.714" y="133.957" fill="#000">P</tspan> <tspan x="213.478" y="133.957" fill="#000" letter-spacing="-.132">r</tspan> <tspan x="218.122" y="133.957" fill="#000">odu</tspan> <tspan x="240.49" y="133.957" fill="#000" letter-spacing="-.312">c</tspan> <tspan x="246.07" y="133.957" fill="#000">e / edit d</tspan> <tspan x="295.726" y="133.957" fill="#000" letter-spacing="-.336">r</tspan> <tspan x="299.962" y="133.957" fill="#000">awing</tspan>
                                    </text>
                                    <g>
                                        <text fill="#000" font-family="NotoSansCJKkr-Medium, Noto Sans CJK KR" font-size="12" font-weight="400" letter-spacing="-.036" transform="translate(24 27) translate(214 .283)">
                                            <tspan x="20.23" y="149.675">o</tspan> <tspan x="27.526" y="149.675">f AR landﬁll</tspan>
                                        </text>
                                        <path fill="#FFF" d="M112.94 56.509c0 31.125-25.231 56.356-56.356 56.356-31.126 0-56.359-25.231-56.359-56.356C.225 25.383 25.458.152 56.583.152c31.126 0 56.356 25.23 56.356 56.357" transform="translate(24 27) translate(214 .283)"/>
                                        <path stroke="#C5C8CF" stroke-width=".75" d="M112.94 56.509c0 31.125-25.231 56.356-56.356 56.356-31.126 0-56.359-25.231-56.359-56.356C.225 25.383 25.458.152 56.583.152c31.126 0 56.356 25.23 56.356 56.357z" transform="translate(24 27) translate(214 .283)"/>
                                        <path fill="#273A5B" d="M54.844 57.083L50.248 49.738 50.213 49.683 48.304 49.683 48.304 63.323 50.267 63.323 50.267 55.245 50.202 53.318 54.237 59.711 54.272 59.767 55.415 59.767 59.485 53.318 59.421 55.249 59.421 63.323 61.383 63.323 61.383 49.683 59.475 49.683zM69.66 59.272c-.016.662-.289 1.248-.813 1.744-.542.512-1.166.772-1.854.772-.482 0-.907-.143-1.264-.424-.353-.277-.525-.613-.525-1.028 0-.462.214-.84.652-1.157.446-.32 1.01-.483 1.68-.483.9 0 1.615.195 2.124.576m-2.42-5.72c-1.428 0-2.705.624-3.696 1.807l-.07.084 1.374 1.376.083-.107c.415-.516 1.268-1.384 2.332-1.384.726 0 1.26.184 1.728.596.45.4.67.868.67 1.437v.192c-.649-.32-1.458-.481-2.406-.481-1.22 0-2.21.291-2.948.866-.744.584-1.122 1.377-1.122 2.36 0 .93.358 1.716 1.061 2.337.7.616 1.58.928 2.616.928 1.143 0 2.083-.479 2.8-1.422v1.186h1.887v-5.835c0-1.214-.385-2.186-1.144-2.889-.745-.687-1.84-1.05-3.165-1.05M81.49 54.16L81.49 53.915 79.111 53.915 75.314 57.765 75.314 49.685 75.074 49.685 73.351 51.175 73.351 63.326 75.314 63.326 75.314 60.318 76.578 59.072 79.395 63.326 81.659 63.326 81.659 63.094 77.951 57.681z" transform="translate(24 27) translate(214 .283)"/>
                                        <path fill="#273A5B" d="M83.695 57.405c.163-.625.456-1.13.852-1.468h.001c.442-.38.98-.57 1.596-.57.752 0 1.36.2 1.802.596.396.354.65.862.724 1.442h-4.975zm7.063 1.356c0-1.632-.428-2.964-1.239-3.849-.825-.903-1.947-1.36-3.337-1.36-1.352 0-2.478.482-3.347 1.434-.853.936-1.305 2.196-1.305 3.645 0 1.408.44 2.556 1.344 3.512.893.946 2.044 1.424 3.421 1.424.94 0 1.796-.226 2.542-.674.597-.356 1.167-.9 1.561-1.49l.058-.087-1.407-1.298-.078.117c-.662.998-1.586 1.547-2.602 1.547-.835 0-1.463-.228-1.976-.719-.544-.52-.81-1.108-.856-1.894h7.191l.03-.308z" transform="translate(24 27) translate(214 .283)"/>
                                        <path fill="#6FB6FB" d="M23.826 57.108L22.408 57.926 22.418 61.52 31.108 56.508 27.986 54.706zM39.806 57.927L38.388 57.109 34.229 54.707 31.109 56.509 39.807 61.531z" transform="translate(24 27) translate(214 .283)"/>
                                        <path fill="#BFDCFF" d="M39.807 57.927L39.807 61.531 31.108 66.553 31.108 62.949 32.527 62.131z" transform="translate(24 27) translate(214 .283)"/>
                                        <path fill="#007CF7" d="M22.409 57.927L22.409 61.531 31.107 66.553 31.107 62.949 29.69 62.131z" transform="translate(24 27) translate(214 .283)"/>
                                        <path fill="#6FB6FB" d="M38.388 50.668L31.107 46.464 23.826 50.668 22.409 51.486 22.418 55.08 31.113 50.064 39.807 55.09 39.806 51.486z" transform="translate(24 27) translate(214 .283)"/>
                                        <path fill="#BFDCFF" d="M39.807 51.486L39.807 55.09 31.108 60.112 31.108 56.508 32.527 55.689z" transform="translate(24 27) translate(214 .283)"/>
                                        <path fill="#007CF7" d="M22.409 51.486L22.409 55.09 31.107 60.112 31.107 56.508 29.69 55.689z" transform="translate(24 27) translate(214 .283)"/>
                                        <text fill="#000" font-family="NotoSansCJKkr-Medium, Noto Sans CJK KR" font-size="12" font-weight="400" transform="translate(24 27) translate(214 .283)">
                                            <tspan x="390.959" y="133.675">AR d</tspan> <tspan x="416.543" y="133.675" letter-spacing="-.337">r</tspan> <tspan x="420.778" y="133.675">awing visuali</tspan> <tspan x="495.286" y="133.675" letter-spacing="-.275">z</tspan> <tspan x="500.615" y="133.675" letter-spacing="-.205">a</tspan> <tspan x="507.106" y="133.675">tion</tspan>
                                        </text>
                                        <path fill="#FFF" d="M517.321 56.509c0 31.125-25.23 56.356-56.356 56.356s-56.358-25.231-56.358-56.356c0-31.126 25.232-56.357 56.358-56.357 31.125 0 56.356 25.23 56.356 56.357" transform="translate(24 27) translate(214 .283)"/>
                                        <path stroke="#C5C8CF" stroke-width=".75" d="M517.321 56.509c0 31.125-25.23 56.356-56.356 56.356s-56.358-25.231-56.358-56.356c0-31.126 25.232-56.357 56.358-56.357 31.125 0 56.356 25.23 56.356 56.357z" transform="translate(24 27) translate(214 .283)"/>
                                        <path fill="#273A5B" d="M466.705 64.306L468.667 64.306 468.667 54.602 466.705 54.602zM466.618 52.812L468.755 52.812 468.755 50.674 466.618 50.674zM492.148 54.9L490.204 61.564 488.025 54.9 486.073 54.9 483.893 61.564 481.956 54.987 481.93 54.9 479.878 54.9 482.885 64.222 482.912 64.305 484.827 64.305 487.002 57.546 489.196 64.305 491.129 64.305 494.163 54.9zM473.456 56.917c.444-.38.982-.571 1.6-.571.752 0 1.358.201 1.802.597.397.355.652.864.725 1.445h-4.98c.164-.627.457-1.133.853-1.471m1.637-2.387c-1.353 0-2.48.483-3.35 1.436-.854.936-1.307 2.197-1.307 3.647 0 1.41.44 2.56 1.345 3.517.895.945 2.046 1.425 3.424 1.425.942 0 1.8-.227 2.545-.674.598-.357 1.167-.902 1.563-1.492l.057-.087-1.406-1.299-.079.118c-.662.998-1.587 1.548-2.605 1.548-.836 0-1.464-.23-1.978-.721-.537-.513-.812-1.118-.858-1.895h7.22l.005-.115c.005-.099.005-.193.005-.193 0-1.635-.429-2.967-1.24-3.854-.827-.904-1.95-1.361-3.34-1.361M459.043 61.425L454.939 50.676 452.773 50.676 458.031 64.229 458.062 64.305 460.021 64.305 465.395 50.841 465.46 50.676 463.293 50.676z" transform="translate(24 27) translate(214 .283)"/>
                                        <path fill="#6FB6FB" d="M440.876 50.114L436.468 47.569 434.039 48.97 440.861 55.794z" transform="translate(24 27) translate(214 .283)"/>
                                        <path fill="#007CF7" d="M440.861 59.433L445.165 54.943 445.165 52.591 440.874 50.114z" transform="translate(24 27) translate(214 .283)"/>
                                        <path fill="#0065C7" d="M432.049 65.108L436.466 67.659 438.898 66.254 432.071 59.434z" transform="translate(24 27) translate(214 .283)"/>
                                        <path fill="#BFDCFF" d="M427.769 53.219L427.769 52.591 434.04 48.971 438.288 53.219z" transform="translate(24 27) translate(214 .283)"/>
                                        <path fill="#DEEDFF" d="M427.769 53.219L427.769 60.095 434.646 53.219z" transform="translate(24 27) translate(214 .283)"/>
                                        <path fill="#007CF7" d="M432.071 55.794L427.766 60.095 427.766 62.636 431.953 65.053 432.067 65.119z" transform="translate(24 27) translate(214 .283)"/>
                                        <path fill="#6FB6FB" d="M445.164 62.637L438.897 66.255 434.645 62.01 445.165 62.01z" transform="translate(24 27) translate(214 .283)"/>
                                        <path fill="#007CF7" d="M436.428 54.878c-1.49 0-2.696 1.207-2.696 2.695 0 1.49 1.207 2.696 2.696 2.696 1.488 0 2.695-1.206 2.695-2.696 0-1.488-1.207-2.695-2.695-2.695" transform="translate(24 27) translate(214 .283)"/>
                                        <path fill="#FFF" d="M437.787 55.44c-.427 0-.773.347-.773.773 0 .427.346.773.773.773.427 0 .773-.346.773-.773 0-.426-.346-.773-.773-.773" transform="translate(24 27) translate(214 .283)"/>
                                        <path fill="#BFDCFF" d="M438.287 62.01L440.861 59.434 445.165 54.943 445.165 62.01z" transform="translate(24 27) translate(214 .283)"/>
                                    </g>
                                    <text font-family="NotoSansCJKkr-Bold, Noto Sans CJK KR" font-size="18" font-weight="bold" transform="translate(24 27)">
                                        <tspan x="431.068" y="96.371" fill="#092E6E">AR Con</tspan> <tspan x="493.6" y="96.371" fill="#092E6E" letter-spacing="-.344">t</tspan> <tspan x="500.475" y="96.371" fill="#092E6E">ent</tspan>
                                    </text>
                                    <text font-family="NotoSansCJKkr-Bold, Noto Sans CJK KR" font-size="18" font-weight="bold" transform="translate(24 27)">
                                        <tspan x="422.734" y="117.971" fill="#092E6E">Mana</tspan> <tspan x="470.92" y="117.971" fill="#092E6E" letter-spacing="-.344">g</tspan> <tspan x="480.981" y="117.971" fill="#092E6E">ement</tspan>
                                    </text>
                                    <text font-family="NotoSansCJKkr-Bold, Noto Sans CJK KR" font-size="18" font-weight="bold" transform="translate(24 27)">
                                        <tspan x="451.552" y="139.571" fill="#092E6E">Se</tspan> <tspan x="473.242" y="139.571" fill="#092E6E" letter-spacing=".25">r</tspan> <tspan x="481.593" y="139.571" fill="#092E6E" letter-spacing="-.142">v</tspan> <tspan x="491.674" y="139.571" fill="#092E6E">er</tspan>
                                    </text>
                                    <g>
                                        <path fill="#E6E8EB" d="M4.641 12.315L4.641 43.655 42.474 43.655 42.474 12.025z" transform="translate(24 27) translate(455 24.283)"/>
                                        <path stroke="#000" stroke-width=".565" d="M4.641 12.315L4.641 43.655 42.474 43.655 42.474 12.025z" transform="translate(24 27) translate(455 24.283)"/>
                                        <path fill="#FFF" d="M3.397 12.264c-1.381 0-2.506-1.125-2.506-2.508V3.602c0-1.383 1.124-2.508 2.506-2.508h40.178c1.381 0 2.506 1.125 2.506 2.508v6.154c0 1.383-1.125 2.508-2.507 2.508H3.398z" transform="translate(24 27) translate(455 24.283)"/>
                                        <path fill="#000" d="M43.574.813H3.397C1.863.813.608 2.067.608 3.6v6.155c0 1.535 1.255 2.788 2.79 2.788h40.176c1.534 0 2.79-1.253 2.79-2.789V3.601c0-1.534-1.256-2.788-2.79-2.788m0 .564c1.227 0 2.225.997 2.225 2.224v6.155c0 1.226-.998 2.224-2.225 2.224H3.397c-1.226 0-2.224-.998-2.224-2.225V3.601c0-1.227.998-2.224 2.224-2.224h40.177" transform="translate(24 27) translate(455 24.283)"/>
                                        <path fill="#FFF" d="M3.397 26.519c-1.381 0-2.506-1.125-2.506-2.508v-6.154c0-1.383 1.124-2.508 2.506-2.508h40.178c1.381 0 2.506 1.125 2.506 2.508v6.154c0 1.383-1.125 2.508-2.507 2.508H3.398z" transform="translate(24 27) translate(455 24.283)"/>
                                        <path fill="#000" d="M43.574 15.066H3.397c-1.534 0-2.789 1.256-2.789 2.79v6.155c0 1.534 1.255 2.79 2.79 2.79h40.176c1.534 0 2.79-1.256 2.79-2.79v-6.156c0-1.533-1.256-2.789-2.79-2.789m0 .564c1.227 0 2.225.998 2.225 2.225v6.156c0 1.227-.998 2.225-2.225 2.225H3.397c-1.226 0-2.224-.998-2.224-2.225v-6.156c0-1.227.998-2.225 2.224-2.225h40.177" transform="translate(24 27) translate(455 24.283)"/>
                                        <path fill="#FFF" d="M3.397 40.693c-1.381 0-2.506-1.125-2.506-2.508v-6.154c0-1.382 1.124-2.507 2.506-2.507h40.178c1.381 0 2.506 1.125 2.506 2.507v6.154c0 1.383-1.125 2.508-2.507 2.508H3.398z" transform="translate(24 27) translate(455 24.283)"/>
                                        <path fill="#000" d="M43.574 29.242H3.397c-1.534 0-2.789 1.255-2.789 2.79v6.153c0 1.536 1.255 2.79 2.79 2.79h40.176c1.534 0 2.79-1.254 2.79-2.79v-6.154c0-1.534-1.256-2.789-2.79-2.789m0 .564c1.227 0 2.225.998 2.225 2.225v6.154c0 1.228-.998 2.226-2.225 2.226H3.397c-1.226 0-2.224-.998-2.224-2.226v-6.154c0-1.227.998-2.225 2.224-2.225h40.177" transform="translate(24 27) translate(455 24.283)"/>
                                        <path fill="#0A51B7" d="M29.09 8.284c-.884 0-1.604-.72-1.604-1.605s.72-1.606 1.605-1.606 1.604.721 1.604 1.606c0 .884-.72 1.605-1.604 1.605" transform="translate(24 27) translate(455 24.283)"/>
                                        <path fill="#000" d="M29.09 4.791c-1.042 0-1.887.846-1.887 1.888 0 1.042.845 1.887 1.888 1.887 1.042 0 1.888-.845 1.888-1.887s-.846-1.888-1.888-1.888m0 .564c.729 0 1.322.594 1.322 1.324 0 .729-.593 1.323-1.322 1.323-.73 0-1.323-.594-1.323-1.323 0-.73.594-1.324 1.323-1.324" transform="translate(24 27) translate(455 24.283)"/>
                                        <path fill="#0A51B7" d="M34.912 8.284c-.885 0-1.605-.72-1.605-1.605s.72-1.606 1.605-1.606 1.605.721 1.605 1.606c0 .884-.72 1.605-1.605 1.605" transform="translate(24 27) translate(455 24.283)"/>
                                        <path fill="#000" d="M34.912 4.791c-1.043 0-1.888.846-1.888 1.888 0 1.042.845 1.887 1.888 1.887 1.042 0 1.888-.845 1.888-1.887s-.846-1.888-1.888-1.888m0 .564c.73 0 1.322.594 1.322 1.324 0 .729-.593 1.323-1.322 1.323-.729 0-1.323-.594-1.323-1.323 0-.73.594-1.324 1.323-1.324" transform="translate(24 27) translate(455 24.283)"/>
                                        <path fill="#0A51B7" d="M40.733 8.284c-.885 0-1.605-.72-1.605-1.605s.72-1.606 1.605-1.606 1.605.721 1.605 1.606c0 .884-.72 1.605-1.605 1.605" transform="translate(24 27) translate(455 24.283)"/>
                                        <path fill="#000" d="M40.733 4.791c-1.042 0-1.888.846-1.888 1.888 0 1.042.846 1.887 1.888 1.887 1.042 0 1.888-.845 1.888-1.887s-.846-1.888-1.888-1.888m0 .564c.73 0 1.323.594 1.323 1.324 0 .729-.594 1.323-1.323 1.323s-1.323-.594-1.323-1.323c0-.73.594-1.324 1.323-1.324" transform="translate(24 27) translate(455 24.283)"/>
                                        <path fill="#0A51B7" d="M29.09 22.54c-.884 0-1.604-.722-1.604-1.606 0-.885.72-1.606 1.605-1.606s1.604.721 1.604 1.606c0 .884-.72 1.605-1.604 1.605" transform="translate(24 27) translate(455 24.283)"/>
                                        <path fill="#000" d="M29.09 19.046c-1.042 0-1.887.845-1.887 1.888s.845 1.886 1.888 1.886c1.042 0 1.888-.843 1.888-1.886s-.846-1.888-1.888-1.888m0 .564c.729 0 1.322.594 1.322 1.324 0 .729-.593 1.322-1.322 1.322-.73 0-1.323-.593-1.323-1.322 0-.73.594-1.324 1.323-1.324" transform="translate(24 27) translate(455 24.283)"/>
                                        <path fill="#0A51B7" d="M34.912 22.54c-.885 0-1.605-.722-1.605-1.606 0-.885.72-1.606 1.605-1.606s1.605.721 1.605 1.606c0 .884-.72 1.605-1.605 1.605" transform="translate(24 27) translate(455 24.283)"/>
                                        <path fill="#000" d="M34.912 19.046c-1.043 0-1.888.845-1.888 1.888s.845 1.886 1.888 1.886c1.042 0 1.888-.843 1.888-1.886s-.846-1.888-1.888-1.888m0 .564c.73 0 1.322.594 1.322 1.324 0 .729-.593 1.322-1.322 1.322-.729 0-1.323-.593-1.323-1.322 0-.73.594-1.324 1.323-1.324" transform="translate(24 27) translate(455 24.283)"/>
                                        <path fill="#0A51B7" d="M40.733 22.54c-.885 0-1.605-.722-1.605-1.606 0-.885.72-1.606 1.605-1.606s1.605.721 1.605 1.606c0 .884-.72 1.605-1.605 1.605" transform="translate(24 27) translate(455 24.283)"/>
                                        <path fill="#000" d="M40.733 19.046c-1.042 0-1.888.845-1.888 1.888s.846 1.886 1.888 1.886c1.042 0 1.888-.843 1.888-1.886s-.846-1.888-1.888-1.888m0 .564c.73 0 1.323.594 1.323 1.324 0 .729-.594 1.322-1.323 1.322s-1.323-.593-1.323-1.322c0-.73.594-1.324 1.323-1.324" transform="translate(24 27) translate(455 24.283)"/>
                                        <path fill="#0A51B7" d="M29.09 36.714c-.884 0-1.604-.721-1.604-1.605 0-.885.72-1.606 1.605-1.606s1.604.72 1.604 1.606c0 .884-.72 1.605-1.604 1.605" transform="translate(24 27) translate(455 24.283)"/>
                                        <path fill="#000" d="M29.09 33.22c-1.042 0-1.887.847-1.887 1.889s.845 1.887 1.888 1.887c1.042 0 1.888-.845 1.888-1.887s-.846-1.888-1.888-1.888m0 .564c.729 0 1.322.594 1.322 1.324 0 .729-.593 1.323-1.322 1.323-.73 0-1.323-.594-1.323-1.323 0-.73.594-1.324 1.323-1.324" transform="translate(24 27) translate(455 24.283)"/>
                                        <path fill="#0A51B7" d="M34.912 36.714c-.885 0-1.605-.721-1.605-1.605 0-.885.72-1.606 1.605-1.606s1.605.72 1.605 1.606c0 .884-.72 1.605-1.605 1.605" transform="translate(24 27) translate(455 24.283)"/>
                                        <path fill="#000" d="M34.912 33.22c-1.043 0-1.888.847-1.888 1.889s.845 1.887 1.888 1.887c1.042 0 1.888-.845 1.888-1.887s-.846-1.888-1.888-1.888m0 .564c.73 0 1.322.594 1.322 1.324 0 .729-.593 1.323-1.322 1.323-.729 0-1.323-.594-1.323-1.323 0-.73.594-1.324 1.323-1.324" transform="translate(24 27) translate(455 24.283)"/>
                                        <path fill="#0A51B7" d="M40.733 36.714c-.885 0-1.605-.721-1.605-1.605 0-.885.72-1.606 1.605-1.606s1.605.72 1.605 1.606c0 .884-.72 1.605-1.605 1.605" transform="translate(24 27) translate(455 24.283)"/>
                                        <path fill="#000" d="M40.733 33.22c-1.042 0-1.888.847-1.888 1.889s.846 1.887 1.888 1.887c1.042 0 1.888-.845 1.888-1.887s-.846-1.888-1.888-1.888m0 .564c.73 0 1.323.594 1.323 1.324 0 .729-.594 1.323-1.323 1.323s-1.323-.594-1.323-1.323c0-.73.594-1.324 1.323-1.324" transform="translate(24 27) translate(455 24.283)"/>
                                        <g>
                                            <path fill="#FFF" d="M1.444 0.581L1.444 6.776" transform="translate(24 27) translate(455 24.283) translate(4 3)"/>
                                            <path stroke="#000" stroke-width=".565" d="M1.444 0.581L1.444 6.776" transform="translate(24 27) translate(455 24.283) translate(4 3)"/>
                                        </g>
                                        <g>
                                            <path fill="#FFF" d="M0.645 0.581L0.645 6.776" transform="translate(24 27) translate(455 24.283) translate(8 3)"/>
                                            <path stroke="#000" stroke-width=".565" d="M0.645 0.581L0.645 6.776" transform="translate(24 27) translate(455 24.283) translate(8 3)"/>
                                        </g>
                                        <g>
                                            <path fill="#FFF" d="M0.847 0.581L0.847 6.776" transform="translate(24 27) translate(455 24.283) translate(11 3)"/>
                                            <path stroke="#000" stroke-width=".565" d="M0.847 0.581L0.847 6.776" transform="translate(24 27) translate(455 24.283) translate(11 3)"/>
                                        </g>
                                        <g>
                                            <path fill="#FFF" d="M1.048 0.581L1.048 6.776" transform="translate(24 27) translate(455 24.283) translate(14 3)"/>
                                            <path stroke="#000" stroke-width=".565" d="M1.048 0.581L1.048 6.776" transform="translate(24 27) translate(455 24.283) translate(14 3)"/>
                                        </g>
                                        <g>
                                            <path fill="#FFF" d="M1.249 0.581L1.249 6.776" transform="translate(24 27) translate(455 24.283) translate(17 3)"/>
                                            <path stroke="#000" stroke-width=".565" d="M1.249 0.581L1.249 6.776" transform="translate(24 27) translate(455 24.283) translate(17 3)"/>
                                        </g>
                                        <g>
                                            <path fill="#FFF" d="M1.45 0.581L1.45 6.776" transform="translate(24 27) translate(455 24.283) translate(20 3)"/>
                                            <path stroke="#000" stroke-width=".565" d="M1.45 0.581L1.45 6.776" transform="translate(24 27) translate(455 24.283) translate(20 3)"/>
                                        </g>
                                        <g>
                                            <path fill="#FFF" d="M1.045 0.581L1.045 6.776" transform="translate(24 27) translate(455 24.283) translate(6 3)"/>
                                            <path stroke="#000" stroke-width=".565" d="M1.045 0.581L1.045 6.776" transform="translate(24 27) translate(455 24.283) translate(6 3)"/>
                                        </g>
                                        <g>
                                            <path fill="#FFF" d="M1.246 0.581L1.246 6.776" transform="translate(24 27) translate(455 24.283) translate(9 3)"/>
                                            <path stroke="#000" stroke-width=".565" d="M1.246 0.581L1.246 6.776" transform="translate(24 27) translate(455 24.283) translate(9 3)"/>
                                        </g>
                                        <g>
                                            <path fill="#FFF" d="M1.447 0.581L1.447 6.776" transform="translate(24 27) translate(455 24.283) translate(12 3)"/>
                                            <path stroke="#000" stroke-width=".565" d="M1.447 0.581L1.447 6.776" transform="translate(24 27) translate(455 24.283) translate(12 3)"/>
                                        </g>
                                        <g>
                                            <path fill="#FFF" d="M0.648 0.581L0.648 6.776" transform="translate(24 27) translate(455 24.283) translate(16 3)"/>
                                            <path stroke="#000" stroke-width=".565" d="M0.648 0.581L0.648 6.776" transform="translate(24 27) translate(455 24.283) translate(16 3)"/>
                                        </g>
                                        <g>
                                            <path fill="#FFF" d="M0.85 0.581L0.85 6.776" transform="translate(24 27) translate(455 24.283) translate(19 3)"/>
                                            <path stroke="#000" stroke-width=".565" d="M0.85 0.581L0.85 6.776" transform="translate(24 27) translate(455 24.283) translate(19 3)"/>
                                        </g>
                                        <g>
                                            <path fill="#FFF" d="M1.444 0.836L1.444 7.031" transform="translate(24 27) translate(455 24.283) translate(4 17)"/>
                                            <path stroke="#000" stroke-width=".565" d="M1.444 0.836L1.444 7.031" transform="translate(24 27) translate(455 24.283) translate(4 17)"/>
                                        </g>
                                        <g>
                                            <path fill="#FFF" d="M0.645 0.836L0.645 7.031" transform="translate(24 27) translate(455 24.283) translate(8 17)"/>
                                            <path stroke="#000" stroke-width=".565" d="M0.645 0.836L0.645 7.031" transform="translate(24 27) translate(455 24.283) translate(8 17)"/>
                                        </g>
                                        <g>
                                            <path fill="#FFF" d="M0.847 0.836L0.847 7.031" transform="translate(24 27) translate(455 24.283) translate(11 17)"/>
                                            <path stroke="#000" stroke-width=".565" d="M0.847 0.836L0.847 7.031" transform="translate(24 27) translate(455 24.283) translate(11 17)"/>
                                        </g>
                                        <g>
                                            <path fill="#FFF" d="M1.048 0.836L1.048 7.031" transform="translate(24 27) translate(455 24.283) translate(14 17)"/>
                                            <path stroke="#000" stroke-width=".565" d="M1.048 0.836L1.048 7.031" transform="translate(24 27) translate(455 24.283) translate(14 17)"/>
                                        </g>
                                        <g>
                                            <path fill="#FFF" d="M1.249 0.836L1.249 7.031" transform="translate(24 27) translate(455 24.283) translate(17 17)"/>
                                            <path stroke="#000" stroke-width=".565" d="M1.249 0.836L1.249 7.031" transform="translate(24 27) translate(455 24.283) translate(17 17)"/>
                                        </g>
                                        <g>
                                            <path fill="#FFF" d="M1.45 0.836L1.45 7.031" transform="translate(24 27) translate(455 24.283) translate(20 17)"/>
                                            <path stroke="#000" stroke-width=".565" d="M1.45 0.836L1.45 7.031" transform="translate(24 27) translate(455 24.283) translate(20 17)"/>
                                        </g>
                                        <g>
                                            <path fill="#FFF" d="M1.045 0.836L1.045 7.031" transform="translate(24 27) translate(455 24.283) translate(6 17)"/>
                                            <path stroke="#000" stroke-width=".565" d="M1.045 0.836L1.045 7.031" transform="translate(24 27) translate(455 24.283) translate(6 17)"/>
                                        </g>
                                        <g>
                                            <path fill="#FFF" d="M1.246 0.836L1.246 7.031" transform="translate(24 27) translate(455 24.283) translate(9 17)"/>
                                            <path stroke="#000" stroke-width=".565" d="M1.246 0.836L1.246 7.031" transform="translate(24 27) translate(455 24.283) translate(9 17)"/>
                                        </g>
                                        <g>
                                            <path fill="#FFF" d="M1.447 0.836L1.447 7.031" transform="translate(24 27) translate(455 24.283) translate(12 17)"/>
                                            <path stroke="#000" stroke-width=".565" d="M1.447 0.836L1.447 7.031" transform="translate(24 27) translate(455 24.283) translate(12 17)"/>
                                        </g>
                                        <g>
                                            <path fill="#FFF" d="M0.648 0.836L0.648 7.031" transform="translate(24 27) translate(455 24.283) translate(16 17)"/>
                                            <path stroke="#000" stroke-width=".565" d="M0.648 0.836L0.648 7.031" transform="translate(24 27) translate(455 24.283) translate(16 17)"/>
                                        </g>
                                        <g>
                                            <path fill="#FFF" d="M0.85 0.836L0.85 7.031" transform="translate(24 27) translate(455 24.283) translate(19 17)"/>
                                            <path stroke="#000" stroke-width=".565" d="M0.85 0.836L0.85 7.031" transform="translate(24 27) translate(455 24.283) translate(19 17)"/>
                                        </g>
                                        <g>
                                            <path fill="#FFF" d="M1.444 0.091L1.444 6.286" transform="translate(24 27) translate(455 24.283) translate(4 32)"/>
                                            <path stroke="#000" stroke-width=".565" d="M1.444 0.091L1.444 6.286" transform="translate(24 27) translate(455 24.283) translate(4 32)"/>
                                        </g>
                                        <g>
                                            <path fill="#FFF" d="M0.645 0.091L0.645 6.286" transform="translate(24 27) translate(455 24.283) translate(8 32)"/>
                                            <path stroke="#000" stroke-width=".565" d="M0.645 0.091L0.645 6.286" transform="translate(24 27) translate(455 24.283) translate(8 32)"/>
                                        </g>
                                        <g>
                                            <path fill="#FFF" d="M0.847 0.091L0.847 6.286" transform="translate(24 27) translate(455 24.283) translate(11 32)"/>
                                            <path stroke="#000" stroke-width=".565" d="M0.847 0.091L0.847 6.286" transform="translate(24 27) translate(455 24.283) translate(11 32)"/>
                                        </g>
                                        <g>
                                            <path fill="#FFF" d="M1.048 0.091L1.048 6.286" transform="translate(24 27) translate(455 24.283) translate(14 32)"/>
                                            <path stroke="#000" stroke-width=".565" d="M1.048 0.091L1.048 6.286" transform="translate(24 27) translate(455 24.283) translate(14 32)"/>
                                        </g>
                                        <g>
                                            <path fill="#FFF" d="M1.249 0.091L1.249 6.286" transform="translate(24 27) translate(455 24.283) translate(17 32)"/>
                                            <path stroke="#000" stroke-width=".565" d="M1.249 0.091L1.249 6.286" transform="translate(24 27) translate(455 24.283) translate(17 32)"/>
                                        </g>
                                        <g>
                                            <path fill="#FFF" d="M1.45 0.091L1.45 6.286" transform="translate(24 27) translate(455 24.283) translate(20 32)"/>
                                            <path stroke="#000" stroke-width=".565" d="M1.45 0.091L1.45 6.286" transform="translate(24 27) translate(455 24.283) translate(20 32)"/>
                                        </g>
                                        <g>
                                            <path fill="#FFF" d="M1.045 0.091L1.045 6.286" transform="translate(24 27) translate(455 24.283) translate(6 32)"/>
                                            <path stroke="#000" stroke-width=".565" d="M1.045 0.091L1.045 6.286" transform="translate(24 27) translate(455 24.283) translate(6 32)"/>
                                        </g>
                                        <g>
                                            <path fill="#FFF" d="M1.246 0.091L1.246 6.286" transform="translate(24 27) translate(455 24.283) translate(9 32)"/>
                                            <path stroke="#000" stroke-width=".565" d="M1.246 0.091L1.246 6.286" transform="translate(24 27) translate(455 24.283) translate(9 32)"/>
                                        </g>
                                        <g>
                                            <path fill="#FFF" d="M1.447 0.091L1.447 6.286" transform="translate(24 27) translate(455 24.283) translate(12 32)"/>
                                            <path stroke="#000" stroke-width=".565" d="M1.447 0.091L1.447 6.286" transform="translate(24 27) translate(455 24.283) translate(12 32)"/>
                                        </g>
                                        <g>
                                            <path fill="#FFF" d="M0.648 0.091L0.648 6.286" transform="translate(24 27) translate(455 24.283) translate(16 32)"/>
                                            <path stroke="#000" stroke-width=".565" d="M0.648 0.091L0.648 6.286" transform="translate(24 27) translate(455 24.283) translate(16 32)"/>
                                        </g>
                                        <g>
                                            <path fill="#FFF" d="M0.85 0.091L0.85 6.286" transform="translate(24 27) translate(455 24.283) translate(19 32)"/>
                                            <path stroke="#000" stroke-width=".565" d="M0.85 0.091L0.85 6.286" transform="translate(24 27) translate(455 24.283) translate(19 32)"/>
                                        </g>
                                        <path fill="#E6E8EB" d="M38.282 32.226s.187-1.193 1.877-2.007c1.69-.813 5.93-1.964 11.11-1.25 5.178.716 6.54 2 6.54 2l.621 1.378v15.146s-.684 1.814-4.158 2.565c-3.473.75-10.389 1.002-13.706-.531 0 0-2.097-.877-2.284-2.191v-15.11z" transform="translate(24 27) translate(455 24.283)"/>
                                        <path stroke="#000" stroke-width=".565" d="M58.43 32.09s-.776-3.345-10.377-3.345c-9.6 0-9.77 3.416-9.77 3.416v15.212s1.054 3.439 10.068 3.439 10.079-3.44 10.079-3.44V32.092z" transform="translate(24 27) translate(455 24.283)"/>
                                        <path stroke="#000" stroke-width=".565" d="M38.282 37.54s1.125 3.296 10.205 3.209c9.08-.087 9.943-3.209 9.943-3.209M38.282 42.497s1.125 3.297 10.205 3.21c9.08-.087 9.943-3.21 9.943-3.21M38.282 32.582s1.125 3.297 10.205 3.21c9.08-.087 9.943-3.21 9.943-3.21" transform="translate(24 27) translate(455 24.283)"/>
                                    </g>
                                    <text font-family="NotoSansCJKkr-Medium, Noto Sans CJK KR" font-size="12" font-weight="400" transform="translate(24 27)">
                                        <tspan x="8.521" y="133.959" fill="#000">2D CAD(d</tspan> <tspan x="61.873" y="133.959" fill="#000" letter-spacing="-.337">r</tspan> <tspan x="66.107" y="133.959" fill="#000">awin</tspan> <tspan x="93.875" y="133.959" fill="#000" letter-spacing=".144">g</tspan> <tspan x="101.099" y="133.959" fill="#000">)</tspan>
                                    </text>
                                    <g>
                                        <text fill="#000" font-family="NotoSansCJKkr-Medium, Noto Sans CJK KR" font-size="12" font-weight="400" letter-spacing="-.312" transform="translate(24 27) translate(0 .283)">
                                            <tspan x="25.591" y="149.675">c</tspan> <tspan x="31.171" y="149.675">on</tspan> <tspan x="46.027" y="149.675" letter-spacing="-.072">v</tspan> <tspan x="52.423" y="149.675">e</tspan> <tspan x="59.203" y="149.675" letter-spacing="-.072">r</tspan> <tspan x="63.967" y="149.675">sion</tspan>
                                        </text>
                                        <path fill="#FFF" d="M113.393 56.509c0 31.125-25.231 56.356-56.357 56.356C25.91 112.865.679 87.634.679 56.509.679 25.383 25.91.152 57.036.152c31.126 0 56.357 25.23 56.357 56.357" transform="translate(24 27) translate(0 .283)"/>
                                        <path stroke="#C5C8CF" stroke-width=".75" d="M113.393 56.509c0 31.125-25.231 56.356-56.357 56.356C25.91 112.865.679 87.634.679 56.509.679 25.383 25.91.152 57.036.152c31.126 0 56.357 25.23 56.357 56.357z" transform="translate(24 27) translate(0 .283)"/>
                                        <path stroke="#231916" stroke-linejoin="round" stroke-width=".485" d="M81.84 54.367c-.163 0-.325.005-.484.014" transform="translate(24 27) translate(0 .283)"/>
                                        <path stroke="#231916" stroke-dasharray=".98 .98" stroke-linejoin="round" stroke-width=".485" d="M80.382 54.496c-2.181.396-3.865 1.655-4.743 3.188C74.64 59.427 72.35 61 69.438 61c-3.424 0-4.806-1.563-6.202-3.316-1.33-1.672-2.776-3.317-6.201-3.317-3.424 0-5.176 1.492-6.201 3.317-.98 1.747-2.776 3.316-6.2 3.316-2.661 0-4.807-1.563-6.202-3.316-1.17-1.47-2.938-2.918-5.228-3.248" transform="translate(24 27) translate(0 .283)"/>
                                        <path stroke="#231916" stroke-linejoin="round" stroke-width=".485" d="M32.716 54.385c-.16-.012-.321-.018-.485-.018" transform="translate(24 27) translate(0 .283)"/>
                                        <path stroke="#0A51B7" stroke-width=".485" d="M81.84 61.001c-2.803 0-5.137-1.459-6.201-3.317-.998-1.744-3.477-3.317-6.201-3.317-2.781 0-4.806 1.563-6.202 3.317-1.33 1.671-2.776 3.317-6.201 3.317-3.424 0-5.176-1.492-6.201-3.317-.98-1.747-3.27-3.317-6.201-3.317-2.66 0-4.806 1.563-6.201 3.317-1.33 1.671-2.777 3.317-6.201 3.317" transform="translate(24 27) translate(0 .283)"/>
                                    </g>
                                    <g transform="translate(24 27) translate(45 44.283)">
                                        <mask id="5cdxjbartd" fill="#fff">
                                            <use xlink:href="#rp5n42j12c"/>
                                        </mask>
                                        <path fill="#FFF" d="M-1.673 29.232L25.744 29.232 25.744 -1.677 -1.673 -1.677z" mask="url(#5cdxjbartd)"/>
                                    </g>
                                    <g transform="translate(24 27) translate(45 51.283)">
                                        <mask id="9jgmotp8if" fill="#fff">
                                            <use xlink:href="#bcwb8ielhe"/>
                                        </mask>
                                        <path fill="#0A51B7" d="M-1.454 22.035L14.458 22.035 14.458 -2.034 -1.454 -2.034z" mask="url(#9jgmotp8if)"/>
                                    </g>
                                    <g transform="translate(24 27) translate(45 44.283)">
                                        <mask id="zfqoscsxjh" fill="#fff">
                                            <use xlink:href="#pwuvx2tceg"/>
                                        </mask>
                                        <path fill="#000" d="M-1.673 29.232L25.744 29.232 25.744 -1.677 -1.673 -1.677z" mask="url(#zfqoscsxjh)"/>
                                    </g>
                                    <g>
                                        <path stroke="#000" stroke-width=".388" d="M24.035 35.613L24.035 22.777M12.969 16.389L24.035 22.778M24.035 22.777L35.07 16.406" transform="translate(24 27) translate(33 35.283)"/>
                                        <path stroke="#000" stroke-width=".779" d="M43.414.154L47.126.154 47.126 3.867M4.658.154L.946.154.946 3.867M4.658 45.213L.946 45.213.946 41.5M43.414 45.213L47.126 45.213 47.126 41.5" transform="translate(24 27) translate(33 35.283)"/>
                                        <path stroke="#C5C8CF" stroke-width=".75" d="M401.107 15.141L310.501 15.141" transform="translate(24 27) translate(33 35.283)"/>
                                        <path fill="#C5C8CF" d="M395.132 15.141L395.132 10.378 399.256 12.76 403.38 15.141 399.256 17.522 395.132 19.903z" transform="translate(24 27) translate(33 35.283)"/>
                                        <path stroke="#C5C8CF" stroke-width=".75" d="M308.649 28.205L399.255 28.205" transform="translate(24 27) translate(33 35.283)"/>
                                        <path fill="#C5C8CF" d="M314.625 28.205L314.625 32.968 310.501 30.586 306.377 28.205 310.501 25.824 314.625 23.443z" transform="translate(24 27) translate(33 35.283)"/>
                                    </g>
                                    <text font-family="NotoSansCJKkr-Medium, Noto Sans CJK KR" font-size="12" font-weight="400" transform="translate(24 27)">
                                        <tspan x="363.527" y="81.58" fill="#000">D</tspan> <tspan x="371.915" y="81.58" fill="#000" letter-spacing="-.204">a</tspan> <tspan x="378.407" y="81.58" fill="#000" letter-spacing="-.288">t</tspan> <tspan x="382.583" y="81.58" fill="#000">a link</tspan>
                                    </text>
                                    <text font-family="NotoSansCJKkr-Medium, Noto Sans CJK KR" font-size="12" font-weight="400" transform="translate(24 27)">
                                        <tspan x="366.983" y="35.044" fill="#000">AR d</tspan> <tspan x="392.567" y="35.044" fill="#000" letter-spacing="-.205">a</tspan> <tspan x="399.058" y="35.044" fill="#000" letter-spacing="-.287">t</tspan> <tspan x="403.235" y="35.044" fill="#000">a</tspan>
                                    </text>
                                </g>
                            </g>
                        </g>
                    </g>
                </g>
            </g>
        </g>
    </g>
</svg>
