<svg xmlns="http://www.w3.org/2000/svg" xmlns:xlink="http://www.w3.org/1999/xlink" width="780" height="380" viewBox="0 0 780 380">
    <defs>
        <path id="uyallzubga" d="M0 0H780V380H0z"/>
        <path id="o0y1sjebxc" d="M0 382L760.673 382 760.673 0.316 0 0.316z"/>
        <path id="4skxifl9ce" d="M0 382L760.673 382 760.673 0.316 0 0.316z"/>
    </defs>
    <g fill="none" fill-rule="evenodd">
        <g>
            <g>
                <g>
                    <g>
                        <g transform="translate(-760 -4595) translate(0 2554) translate(320 636) translate(60 1268) translate(380 137)">
                            <mask id="2wj4y7m0kb" fill="#fff">
                                <use xlink:href="#uyallzubga"/>
                            </mask>
                            <use fill="#F8F9FB" xlink:href="#uyallzubga"/>
                            <g mask="url(#2wj4y7m0kb)">
                                <g>
                                    <path stroke="#C5C8CF" stroke-width=".75" d="M172.502 176.814L146.934 176.814" transform="translate(3 -6)"/>
                                    <path fill="#C5C8CF" d="M166.526 176.814L166.526 172.052 170.65 174.433 174.774 176.814 170.65 179.195 166.526 181.576z" transform="translate(3 -6)"/>
                                    <text font-family="NotoSansCJKkr-Medium, Noto Sans CJK KR" font-size="12" font-weight="400" transform="translate(3 -6)">
                                        <tspan x="177.427" y="254.106" fill="#000">Moni</tspan> <tspan x="205.687" y="254.106" fill="#000" letter-spacing="-.204">t</tspan> <tspan x="210.031" y="254.106" fill="#000">oring </tspan> <tspan x="242.875" y="254.106" fill="#000" letter-spacing="-.036">o</tspan> <tspan x="250.171" y="254.106" fill="#000">f p</tspan> <tspan x="264.571" y="254.106" fill="#000" letter-spacing="-.132">r</tspan> <tspan x="269.215" y="254.106" fill="#000">o</tspan> <tspan x="276.583" y="254.106" fill="#000" letter-spacing="-.312">c</tspan> <tspan x="282.163" y="254.106" fill="#000">ess</tspan>
                                    </text>
                                    <text font-family="NotoSansCJKkr-Medium, Noto Sans CJK KR" font-size="12" font-weight="400" transform="translate(3 -6)">
                                        <tspan x="196.603" y="270.102" fill="#000">&amp; envi</tspan> <tspan x="232.015" y="270.102" fill="#000" letter-spacing="-.131">r</tspan> <tspan x="236.66" y="270.102" fill="#000">onment</tspan>
                                    </text>
                                    <text font-family="NotoSansCJKkr-Bold, Noto Sans CJK KR" font-size="18" font-weight="bold" transform="translate(3 -6)">
                                        <tspan x="417.497" y="204.872" fill="#092E6E">Digi</tspan> <tspan x="452.039" y="204.872" fill="#092E6E" letter-spacing="-.412">t</tspan> <tspan x="458.773" y="204.872" fill="#092E6E">al </tspan> <tspan x="479.167" y="204.872" fill="#092E6E" letter-spacing="-.54">T</tspan> <tspan x="489.337" y="204.872" fill="#092E6E">win</tspan>
                                    </text>
                                    <text font-family="NotoSansCJKkr-Bold, Noto Sans CJK KR" font-size="18" font-weight="bold" transform="translate(3 -6)">
                                        <tspan x="412.187" y="226.868" fill="#092E6E">Mana</tspan> <tspan x="460.373" y="226.868" fill="#092E6E" letter-spacing="-.344">g</tspan> <tspan x="470.433" y="226.868" fill="#092E6E">ement</tspan>
                                    </text>
                                    <text font-family="NotoSansCJKkr-Bold, Noto Sans CJK KR" font-size="18" font-weight="bold" transform="translate(3 -6)">
                                        <tspan x="441.005" y="248.864" fill="#092E6E">Se</tspan> <tspan x="462.695" y="248.864" fill="#092E6E" letter-spacing=".25">r</tspan> <tspan x="471.045" y="248.864" fill="#092E6E" letter-spacing="-.142">v</tspan> <tspan x="481.127" y="248.864" fill="#092E6E">er</tspan>
                                    </text>
                                    <path fill="#E6E8EB" d="M447.407 145.097L447.407 176.437 485.24 176.437 485.24 144.806z" transform="translate(3 -6)"/>
                                    <path stroke="#000" stroke-width=".565" d="M447.407 145.097L447.407 176.437 485.24 176.437 485.24 144.806z" transform="translate(3 -6)"/>
                                    <g>
                                        <path fill="#FFF" d="M3.164 12.36c-1.382 0-2.507-1.125-2.507-2.507V3.698c0-1.382 1.125-2.507 2.507-2.507h40.177c1.382 0 2.507 1.125 2.507 2.507v6.155c0 1.382-1.125 2.507-2.507 2.507H3.164z" transform="translate(3 -6) translate(443 132.684)"/>
                                        <path fill="#000" d="M43.34.91H3.165C1.63.91.374 2.164.374 3.697v6.155c0 1.535 1.256 2.79 2.79 2.79H43.34c1.534 0 2.789-1.255 2.789-2.79V3.698c0-1.533-1.255-2.789-2.79-2.789m0 .564c1.228 0 2.226.998 2.226 2.225v6.155c0 1.228-.998 2.226-2.225 2.226H3.164C1.938 12.08.94 11.081.94 9.853V3.698c0-1.227.998-2.225 2.224-2.225H43.34" transform="translate(3 -6) translate(443 132.684)"/>
                                        <path fill="#FFF" d="M3.164 26.615c-1.382 0-2.507-1.125-2.507-2.507v-6.155c0-1.382 1.125-2.507 2.507-2.507h40.177c1.382 0 2.507 1.125 2.507 2.507v6.155c0 1.382-1.125 2.507-2.507 2.507H3.164z" transform="translate(3 -6) translate(443 132.684)"/>
                                        <path fill="#000" d="M43.34 15.164H3.165c-1.534 0-2.79 1.255-2.79 2.79v6.154c0 1.535 1.256 2.79 2.79 2.79H43.34c1.534 0 2.789-1.255 2.789-2.79v-6.154c0-1.535-1.255-2.79-2.79-2.79m0 .564c1.228 0 2.226.998 2.226 2.226v6.154c0 1.227-.998 2.225-2.225 2.225H3.164c-1.226 0-2.224-.998-2.224-2.225v-6.154c0-1.228.998-2.226 2.224-2.226H43.34" transform="translate(3 -6) translate(443 132.684)"/>
                                        <path fill="#FFF" d="M3.164 40.791c-1.382 0-2.507-1.125-2.507-2.508v-6.154c0-1.383 1.125-2.508 2.507-2.508h40.177c1.382 0 2.507 1.125 2.507 2.508v6.154c0 1.383-1.125 2.508-2.507 2.508H3.164z" transform="translate(3 -6) translate(443 132.684)"/>
                                        <path fill="#000" d="M43.34 29.339H3.165c-1.534 0-2.79 1.256-2.79 2.789v6.155c0 1.535 1.256 2.79 2.79 2.79H43.34c1.534 0 2.789-1.255 2.789-2.79v-6.155c0-1.533-1.255-2.79-2.79-2.79m0 .565c1.228 0 2.226.998 2.226 2.225v6.155c0 1.228-.998 2.226-2.225 2.226H3.164c-1.226 0-2.224-.998-2.224-2.226v-6.155c0-1.227.998-2.225 2.224-2.225H43.34" transform="translate(3 -6) translate(443 132.684)"/>
                                        <path fill="#0A51B7" d="M28.857 8.38c-.885 0-1.605-.72-1.605-1.603 0-.885.72-1.606 1.605-1.606s1.604.72 1.604 1.606c0 .884-.719 1.604-1.604 1.604" transform="translate(3 -6) translate(443 132.684)"/>
                                        <path fill="#000" d="M28.857 4.889c-1.043 0-1.888.845-1.888 1.888 0 1.042.845 1.886 1.888 1.886 1.042 0 1.887-.844 1.887-1.886 0-1.043-.845-1.888-1.887-1.888m0 .564c.73 0 1.322.593 1.322 1.324 0 .728-.593 1.322-1.322 1.322-.729 0-1.323-.594-1.323-1.322 0-.731.594-1.324 1.323-1.324" transform="translate(3 -6) translate(443 132.684)"/>
                                        <path fill="#0A51B7" d="M34.679 8.38c-.885 0-1.605-.72-1.605-1.603 0-.885.72-1.606 1.605-1.606s1.605.72 1.605 1.606c0 .884-.72 1.604-1.605 1.604" transform="translate(3 -6) translate(443 132.684)"/>
                                        <path fill="#000" d="M34.679 4.889c-1.042 0-1.888.845-1.888 1.888 0 1.042.846 1.886 1.888 1.886 1.042 0 1.888-.844 1.888-1.886 0-1.043-.846-1.888-1.888-1.888m0 .564c.729 0 1.323.593 1.323 1.324 0 .728-.594 1.322-1.323 1.322-.73 0-1.323-.594-1.323-1.322 0-.731.594-1.324 1.323-1.324" transform="translate(3 -6) translate(443 132.684)"/>
                                        <path fill="#0A51B7" d="M40.5 8.38c-.885 0-1.605-.72-1.605-1.603 0-.885.72-1.606 1.605-1.606s1.605.72 1.605 1.606c0 .884-.72 1.604-1.605 1.604" transform="translate(3 -6) translate(443 132.684)"/>
                                        <path fill="#000" d="M40.5 4.889c-1.042 0-1.888.845-1.888 1.888 0 1.042.846 1.886 1.888 1.886 1.043 0 1.888-.844 1.888-1.886 0-1.043-.845-1.888-1.888-1.888m0 .564c.729 0 1.323.593 1.323 1.324 0 .728-.594 1.322-1.323 1.322s-1.322-.594-1.322-1.322c0-.731.593-1.324 1.322-1.324" transform="translate(3 -6) translate(443 132.684)"/>
                                        <path fill="#0A51B7" d="M28.857 22.636c-.885 0-1.605-.72-1.605-1.604 0-.885.72-1.606 1.605-1.606s1.604.72 1.604 1.606c0 .884-.719 1.604-1.604 1.604" transform="translate(3 -6) translate(443 132.684)"/>
                                        <path fill="#000" d="M28.857 19.144c-1.043 0-1.888.846-1.888 1.887 0 1.043.845 1.888 1.888 1.888 1.042 0 1.887-.845 1.887-1.888 0-1.041-.845-1.887-1.887-1.887m0 .564c.73 0 1.322.594 1.322 1.323 0 .73-.593 1.324-1.322 1.324-.729 0-1.323-.594-1.323-1.324 0-.73.594-1.323 1.323-1.323" transform="translate(3 -6) translate(443 132.684)"/>
                                        <path fill="#0A51B7" d="M34.679 22.636c-.885 0-1.605-.72-1.605-1.604 0-.885.72-1.606 1.605-1.606s1.605.72 1.605 1.606c0 .884-.72 1.604-1.605 1.604" transform="translate(3 -6) translate(443 132.684)"/>
                                        <path fill="#000" d="M34.679 19.144c-1.042 0-1.888.846-1.888 1.887 0 1.043.846 1.888 1.888 1.888 1.042 0 1.888-.845 1.888-1.888 0-1.041-.846-1.887-1.888-1.887m0 .564c.729 0 1.323.594 1.323 1.323 0 .73-.594 1.324-1.323 1.324-.73 0-1.323-.594-1.323-1.324 0-.73.594-1.323 1.323-1.323" transform="translate(3 -6) translate(443 132.684)"/>
                                        <path fill="#0A51B7" d="M40.5 22.636c-.885 0-1.605-.72-1.605-1.604 0-.885.72-1.606 1.605-1.606s1.605.72 1.605 1.606c0 .884-.72 1.604-1.605 1.604" transform="translate(3 -6) translate(443 132.684)"/>
                                        <path fill="#000" d="M40.5 19.144c-1.042 0-1.888.846-1.888 1.887 0 1.043.846 1.888 1.888 1.888 1.043 0 1.888-.845 1.888-1.888 0-1.041-.845-1.887-1.888-1.887m0 .564c.729 0 1.323.594 1.323 1.323 0 .73-.594 1.324-1.323 1.324s-1.322-.594-1.322-1.324c0-.73.593-1.323 1.322-1.323" transform="translate(3 -6) translate(443 132.684)"/>
                                        <path fill="#0A51B7" d="M28.857 36.812c-.885 0-1.605-.721-1.605-1.605 0-.886.72-1.607 1.605-1.607s1.604.721 1.604 1.606c0 .884-.719 1.605-1.604 1.605" transform="translate(3 -6) translate(443 132.684)"/>
                                        <path fill="#000" d="M28.857 33.318c-1.043 0-1.888.845-1.888 1.888s.845 1.886 1.888 1.886c1.042 0 1.887-.843 1.887-1.886s-.845-1.888-1.887-1.888m0 .564c.73 0 1.322.594 1.322 1.324 0 .73-.593 1.322-1.322 1.322-.729 0-1.323-.593-1.323-1.322 0-.73.594-1.324 1.323-1.324" transform="translate(3 -6) translate(443 132.684)"/>
                                        <path fill="#0A51B7" d="M34.679 36.812c-.885 0-1.605-.721-1.605-1.605 0-.886.72-1.607 1.605-1.607s1.605.721 1.605 1.606c0 .884-.72 1.605-1.605 1.605" transform="translate(3 -6) translate(443 132.684)"/>
                                        <path fill="#000" d="M34.679 33.318c-1.042 0-1.888.845-1.888 1.888s.846 1.886 1.888 1.886c1.042 0 1.888-.843 1.888-1.886s-.846-1.888-1.888-1.888m0 .564c.729 0 1.323.594 1.323 1.324 0 .73-.594 1.322-1.323 1.322-.73 0-1.323-.593-1.323-1.322 0-.73.594-1.324 1.323-1.324" transform="translate(3 -6) translate(443 132.684)"/>
                                        <path fill="#0A51B7" d="M40.5 36.812c-.885 0-1.605-.721-1.605-1.605 0-.886.72-1.607 1.605-1.607s1.605.721 1.605 1.606c0 .884-.72 1.605-1.605 1.605" transform="translate(3 -6) translate(443 132.684)"/>
                                        <path fill="#000" d="M40.5 33.318c-1.042 0-1.888.845-1.888 1.888s.846 1.886 1.888 1.886c1.043 0 1.888-.843 1.888-1.886s-.845-1.888-1.888-1.888m0 .564c.729 0 1.323.594 1.323 1.324 0 .73-.594 1.322-1.323 1.322s-1.322-.593-1.322-1.322c0-.73.593-1.324 1.322-1.324" transform="translate(3 -6) translate(443 132.684)"/>
                                        <g>
                                            <path fill="#FFF" d="M1.211 0.678L1.211 6.874" transform="translate(3 -6) translate(443 132.684) translate(4 3)"/>
                                            <path stroke="#000" stroke-width=".565" d="M1.211 0.678L1.211 6.874" transform="translate(3 -6) translate(443 132.684) translate(4 3)"/>
                                        </g>
                                        <g>
                                            <path fill="#FFF" d="M1.412 0.678L1.412 6.874" transform="translate(3 -6) translate(443 132.684) translate(7 3)"/>
                                            <path stroke="#000" stroke-width=".565" d="M1.412 0.678L1.412 6.874" transform="translate(3 -6) translate(443 132.684) translate(7 3)"/>
                                        </g>
                                        <g>
                                            <path fill="#FFF" d="M0.613 0.678L0.613 6.874" transform="translate(3 -6) translate(443 132.684) translate(11 3)"/>
                                            <path stroke="#000" stroke-width=".565" d="M0.613 0.678L0.613 6.874" transform="translate(3 -6) translate(443 132.684) translate(11 3)"/>
                                        </g>
                                        <g>
                                            <path fill="#FFF" d="M0.815 0.678L0.815 6.874" transform="translate(3 -6) translate(443 132.684) translate(14 3)"/>
                                            <path stroke="#000" stroke-width=".565" d="M0.815 0.678L0.815 6.874" transform="translate(3 -6) translate(443 132.684) translate(14 3)"/>
                                        </g>
                                        <g>
                                            <path fill="#FFF" d="M1.016 0.678L1.016 6.874" transform="translate(3 -6) translate(443 132.684) translate(17 3)"/>
                                            <path stroke="#000" stroke-width=".565" d="M1.016 0.678L1.016 6.874" transform="translate(3 -6) translate(443 132.684) translate(17 3)"/>
                                        </g>
                                        <g>
                                            <path fill="#FFF" d="M1.217 0.678L1.217 6.874" transform="translate(3 -6) translate(443 132.684) translate(20 3)"/>
                                            <path stroke="#000" stroke-width=".565" d="M1.217 0.678L1.217 6.874" transform="translate(3 -6) translate(443 132.684) translate(20 3)"/>
                                        </g>
                                        <g>
                                            <path fill="#FFF" d="M0.811 0.678L0.811 6.874" transform="translate(3 -6) translate(443 132.684) translate(6 3)"/>
                                            <path stroke="#000" stroke-width=".565" d="M0.811 0.678L0.811 6.874" transform="translate(3 -6) translate(443 132.684) translate(6 3)"/>
                                        </g>
                                        <g>
                                            <path fill="#FFF" d="M1.013 0.678L1.013 6.874" transform="translate(3 -6) translate(443 132.684) translate(9 3)"/>
                                            <path stroke="#000" stroke-width=".565" d="M1.013 0.678L1.013 6.874" transform="translate(3 -6) translate(443 132.684) translate(9 3)"/>
                                        </g>
                                        <g>
                                            <path fill="#FFF" d="M1.214 0.678L1.214 6.874" transform="translate(3 -6) translate(443 132.684) translate(12 3)"/>
                                            <path stroke="#000" stroke-width=".565" d="M1.214 0.678L1.214 6.874" transform="translate(3 -6) translate(443 132.684) translate(12 3)"/>
                                        </g>
                                        <g>
                                            <path fill="#FFF" d="M1.415 0.678L1.415 6.874" transform="translate(3 -6) translate(443 132.684) translate(15 3)"/>
                                            <path stroke="#000" stroke-width=".565" d="M1.415 0.678L1.415 6.874" transform="translate(3 -6) translate(443 132.684) translate(15 3)"/>
                                        </g>
                                        <g>
                                            <path fill="#FFF" d="M0.616 0.678L0.616 6.874" transform="translate(3 -6) translate(443 132.684) translate(19 3)"/>
                                            <path stroke="#000" stroke-width=".565" d="M0.616 0.678L0.616 6.874" transform="translate(3 -6) translate(443 132.684) translate(19 3)"/>
                                        </g>
                                        <g>
                                            <path fill="#FFF" d="M1.211 0.933L1.211 7.129" transform="translate(3 -6) translate(443 132.684) translate(4 17)"/>
                                            <path stroke="#000" stroke-width=".565" d="M1.211 0.933L1.211 7.129" transform="translate(3 -6) translate(443 132.684) translate(4 17)"/>
                                        </g>
                                        <g>
                                            <path fill="#FFF" d="M1.412 0.933L1.412 7.129" transform="translate(3 -6) translate(443 132.684) translate(7 17)"/>
                                            <path stroke="#000" stroke-width=".565" d="M1.412 0.933L1.412 7.129" transform="translate(3 -6) translate(443 132.684) translate(7 17)"/>
                                        </g>
                                        <g>
                                            <path fill="#FFF" d="M0.613 0.933L0.613 7.129" transform="translate(3 -6) translate(443 132.684) translate(11 17)"/>
                                            <path stroke="#000" stroke-width=".565" d="M0.613 0.933L0.613 7.129" transform="translate(3 -6) translate(443 132.684) translate(11 17)"/>
                                        </g>
                                        <g>
                                            <path fill="#FFF" d="M0.815 0.933L0.815 7.129" transform="translate(3 -6) translate(443 132.684) translate(14 17)"/>
                                            <path stroke="#000" stroke-width=".565" d="M0.815 0.933L0.815 7.129" transform="translate(3 -6) translate(443 132.684) translate(14 17)"/>
                                        </g>
                                        <g>
                                            <path fill="#FFF" d="M1.016 0.933L1.016 7.129" transform="translate(3 -6) translate(443 132.684) translate(17 17)"/>
                                            <path stroke="#000" stroke-width=".565" d="M1.016 0.933L1.016 7.129" transform="translate(3 -6) translate(443 132.684) translate(17 17)"/>
                                        </g>
                                        <g>
                                            <path fill="#FFF" d="M1.217 0.933L1.217 7.129" transform="translate(3 -6) translate(443 132.684) translate(20 17)"/>
                                            <path stroke="#000" stroke-width=".565" d="M1.217 0.933L1.217 7.129" transform="translate(3 -6) translate(443 132.684) translate(20 17)"/>
                                        </g>
                                        <g>
                                            <path fill="#FFF" d="M0.811 0.933L0.811 7.129" transform="translate(3 -6) translate(443 132.684) translate(6 17)"/>
                                            <path stroke="#000" stroke-width=".565" d="M0.811 0.933L0.811 7.129" transform="translate(3 -6) translate(443 132.684) translate(6 17)"/>
                                        </g>
                                        <g>
                                            <path fill="#FFF" d="M1.013 0.933L1.013 7.129" transform="translate(3 -6) translate(443 132.684) translate(9 17)"/>
                                            <path stroke="#000" stroke-width=".565" d="M1.013 0.933L1.013 7.129" transform="translate(3 -6) translate(443 132.684) translate(9 17)"/>
                                        </g>
                                        <g>
                                            <path fill="#FFF" d="M1.214 0.933L1.214 7.129" transform="translate(3 -6) translate(443 132.684) translate(12 17)"/>
                                            <path stroke="#000" stroke-width=".565" d="M1.214 0.933L1.214 7.129" transform="translate(3 -6) translate(443 132.684) translate(12 17)"/>
                                        </g>
                                        <g>
                                            <path fill="#FFF" d="M1.415 0.933L1.415 7.129" transform="translate(3 -6) translate(443 132.684) translate(15 17)"/>
                                            <path stroke="#000" stroke-width=".565" d="M1.415 0.933L1.415 7.129" transform="translate(3 -6) translate(443 132.684) translate(15 17)"/>
                                        </g>
                                        <g>
                                            <path fill="#FFF" d="M0.616 0.933L0.616 7.129" transform="translate(3 -6) translate(443 132.684) translate(19 17)"/>
                                            <path stroke="#000" stroke-width=".565" d="M0.616 0.933L0.616 7.129" transform="translate(3 -6) translate(443 132.684) translate(19 17)"/>
                                        </g>
                                        <g>
                                            <path fill="#FFF" d="M1.211 0.188L1.211 6.383" transform="translate(3 -6) translate(443 132.684) translate(4 32)"/>
                                            <path stroke="#000" stroke-width=".565" d="M1.211 0.188L1.211 6.383" transform="translate(3 -6) translate(443 132.684) translate(4 32)"/>
                                        </g>
                                        <g>
                                            <path fill="#FFF" d="M1.412 0.188L1.412 6.383" transform="translate(3 -6) translate(443 132.684) translate(7 32)"/>
                                            <path stroke="#000" stroke-width=".565" d="M1.412 0.188L1.412 6.383" transform="translate(3 -6) translate(443 132.684) translate(7 32)"/>
                                        </g>
                                        <g>
                                            <path fill="#FFF" d="M0.613 0.188L0.613 6.383" transform="translate(3 -6) translate(443 132.684) translate(11 32)"/>
                                            <path stroke="#000" stroke-width=".565" d="M0.613 0.188L0.613 6.383" transform="translate(3 -6) translate(443 132.684) translate(11 32)"/>
                                        </g>
                                        <g>
                                            <path fill="#FFF" d="M0.815 0.188L0.815 6.383" transform="translate(3 -6) translate(443 132.684) translate(14 32)"/>
                                            <path stroke="#000" stroke-width=".565" d="M0.815 0.188L0.815 6.383" transform="translate(3 -6) translate(443 132.684) translate(14 32)"/>
                                        </g>
                                        <g>
                                            <path fill="#FFF" d="M1.016 0.188L1.016 6.383" transform="translate(3 -6) translate(443 132.684) translate(17 32)"/>
                                            <path stroke="#000" stroke-width=".565" d="M1.016 0.188L1.016 6.383" transform="translate(3 -6) translate(443 132.684) translate(17 32)"/>
                                        </g>
                                        <g>
                                            <path fill="#FFF" d="M1.217 0.188L1.217 6.383" transform="translate(3 -6) translate(443 132.684) translate(20 32)"/>
                                            <path stroke="#000" stroke-width=".565" d="M1.217 0.188L1.217 6.383" transform="translate(3 -6) translate(443 132.684) translate(20 32)"/>
                                        </g>
                                        <g>
                                            <path fill="#FFF" d="M0.811 0.188L0.811 6.383" transform="translate(3 -6) translate(443 132.684) translate(6 32)"/>
                                            <path stroke="#000" stroke-width=".565" d="M0.811 0.188L0.811 6.383" transform="translate(3 -6) translate(443 132.684) translate(6 32)"/>
                                        </g>
                                        <g>
                                            <path fill="#FFF" d="M1.013 0.188L1.013 6.383" transform="translate(3 -6) translate(443 132.684) translate(9 32)"/>
                                            <path stroke="#000" stroke-width=".565" d="M1.013 0.188L1.013 6.383" transform="translate(3 -6) translate(443 132.684) translate(9 32)"/>
                                        </g>
                                        <g>
                                            <path fill="#FFF" d="M1.214 0.188L1.214 6.383" transform="translate(3 -6) translate(443 132.684) translate(12 32)"/>
                                            <path stroke="#000" stroke-width=".565" d="M1.214 0.188L1.214 6.383" transform="translate(3 -6) translate(443 132.684) translate(12 32)"/>
                                        </g>
                                        <g>
                                            <path fill="#FFF" d="M1.415 0.188L1.415 6.383" transform="translate(3 -6) translate(443 132.684) translate(15 32)"/>
                                            <path stroke="#000" stroke-width=".565" d="M1.415 0.188L1.415 6.383" transform="translate(3 -6) translate(443 132.684) translate(15 32)"/>
                                        </g>
                                        <g>
                                            <path fill="#FFF" d="M0.616 0.188L0.616 6.383" transform="translate(3 -6) translate(443 132.684) translate(19 32)"/>
                                            <path stroke="#000" stroke-width=".565" d="M0.616 0.188L0.616 6.383" transform="translate(3 -6) translate(443 132.684) translate(19 32)"/>
                                        </g>
                                        <path fill="#E6E8EB" d="M38.049 32.323s.187-1.193 1.877-2.007c1.69-.813 5.93-1.964 11.109-1.249 5.179.715 6.54 2 6.54 2l.622 1.377-.001 15.145s-.683 1.815-4.157 2.566c-3.473.751-10.39 1.001-13.706-.532 0 0-2.097-.876-2.284-2.19v-15.11z" transform="translate(3 -6) translate(443 132.684)"/>
                                        <path stroke="#000" stroke-width=".565" d="M58.197 32.188s-.777-3.346-10.378-3.346c-9.6 0-9.77 3.416-9.77 3.416V47.47s1.054 3.44 10.068 3.44 10.08-3.44 10.08-3.44V32.189z" transform="translate(3 -6) translate(443 132.684)"/>
                                        <path stroke="#000" stroke-width=".565" d="M38.049 37.637s1.125 3.297 10.204 3.21c9.08-.087 9.944-3.21 9.944-3.21M38.049 42.595s1.125 3.297 10.204 3.21c9.08-.087 9.944-3.21 9.944-3.21M38.049 32.68s1.125 3.296 10.204 3.209c9.08-.086 9.944-3.21 9.944-3.21" transform="translate(3 -6) translate(443 132.684)"/>
                                    </g>
                                    <text font-family="NotoSansCJKkr-Medium, Noto Sans CJK KR" font-size="12" font-weight="400" transform="translate(3 -6)">
                                        <tspan x="15.187" y="254.106" fill="#000">Con</tspan> <tspan x="37.794" y="254.106" fill="#000" letter-spacing="-.264">s</tspan> <tspan x="43.026" y="254.106" fill="#000">tru</tspan> <tspan x="60.127" y="254.106" fill="#000" letter-spacing="-.132">c</tspan> <tspan x="66.067" y="254.106" fill="#000">t virtual s</tspan> <tspan x="119.538" y="254.106" fill="#000" letter-spacing="-.18">p</tspan> <tspan x="126.739" y="254.106" fill="#000">a</tspan> <tspan x="133.638" y="254.106" fill="#000" letter-spacing="-.312">c</tspan> <tspan x="139.219" y="254.106" fill="#000">e</tspan>
                                    </text>
                                    <text font-family="NotoSansCJKkr-Medium, Noto Sans CJK KR" font-size="12" font-weight="400" transform="translate(3 -6)">
                                        <tspan x="41.898" y="270.102" fill="#000">in digi</tspan> <tspan x="76.915" y="270.102" fill="#000" letter-spacing="-.287">t</tspan> <tspan x="81.092" y="270.102" fill="#000">al twin</tspan>
                                    </text>
                                    <g transform="translate(3 -6) translate(0 .684)">
                                        <path fill="#FFF" d="M137.393 176.13c0 31.125-25.231 56.357-56.357 56.357-31.125 0-56.357-25.232-56.357-56.357s25.232-56.357 56.357-56.357c31.126 0 56.357 25.232 56.357 56.357"/>
                                        <path stroke="#C5C8CF" stroke-width=".75" d="M137.393 176.13c0 31.125-25.231 56.357-56.357 56.357-31.125 0-56.357-25.232-56.357-56.357s25.232-56.357 56.357-56.357c31.126 0 56.357 25.232 56.357 56.357z"/>
                                        <path fill="#E6E8EB" d="M81.134 161.617L81.134 170.081 68.791 170.081 68.791 161.617 63.431 161.617 63.431 186.317 68.19 186.317 68.791 186.317 81.134 186.317 91.517 186.317 98.642 186.317 98.642 164.814 92.773 161.617 92.773 164.767 86.979 161.617 86.979 164.767z"/>
                                        <path stroke="#000" stroke-width=".779" d="M81.134 161.617L81.134 170.081 68.791 170.081 68.791 161.617 63.431 161.617 63.431 186.317 68.19 186.317 68.791 186.317 81.134 186.317 91.517 186.317 98.642 186.317 98.642 164.814 92.773 161.617 92.773 164.767 86.979 161.617 86.979 164.767z"/>
                                        <mask id="ozs7g92rkd" fill="#fff">
                                            <use xlink:href="#o0y1sjebxc"/>
                                        </mask>
                                        <path fill="#FFF" d="M63.43 186.317L68.775 186.317 68.775 161.617 63.43 161.617z" mask="url(#ozs7g92rkd)"/>
                                        <path stroke="#000" stroke-width=".779" d="M63.43 186.317L68.775 186.317 68.775 161.617 63.43 161.617z" mask="url(#ozs7g92rkd)"/>
                                        <g mask="url(#ozs7g92rkd)">
                                            <g>
                                                <path fill="#FFF" d="M0.431 0.532L5.618 0.532" transform="translate(63 164)"/>
                                                <path stroke="#000" stroke-width=".779" d="M0.431 0.532L5.618 0.532" transform="translate(63 164)"/>
                                            </g>
                                        </g>
                                        <path fill="#FFF" d="M68.775 186.317L91.71 186.317 91.71 170.081 68.775 170.081z" mask="url(#ozs7g92rkd)"/>
                                        <path stroke="#000" stroke-width=".776" d="M68.775 186.317L91.71 186.317 91.71 170.081 68.775 170.081z" mask="url(#ozs7g92rkd)"/>
                                        <path fill="#E6E8EB" d="M74.466 180.049H72.12c-.374 0-.676-.303-.676-.677v-2.345c0-.374.302-.677.676-.677h2.346c.374 0 .677.303.677.677v2.345c0 .374-.303.677-.677.677" mask="url(#ozs7g92rkd)"/>
                                        <path stroke="#000" stroke-width=".779" d="M74.466 180.049H72.12c-.374 0-.676-.303-.676-.677v-2.345c0-.374.302-.677.676-.677h2.346c.374 0 .677.303.677.677v2.345c0 .374-.303.677-.677.677z" mask="url(#ozs7g92rkd)"/>
                                        <path fill="#E6E8EB" d="M81.309 180.049h-2.346c-.374 0-.676-.303-.676-.677v-2.345c0-.374.302-.677.676-.677h2.346c.374 0 .677.303.677.677v2.345c0 .374-.303.677-.677.677" mask="url(#ozs7g92rkd)"/>
                                        <path stroke="#000" stroke-width=".779" d="M81.309 180.049h-2.346c-.374 0-.676-.303-.676-.677v-2.345c0-.374.302-.677.676-.677h2.346c.374 0 .677.303.677.677v2.345c0 .374-.303.677-.677.677z" mask="url(#ozs7g92rkd)"/>
                                        <path fill="#E6E8EB" d="M88.151 180.049h-2.346c-.374 0-.676-.303-.676-.677v-2.345c0-.374.302-.677.676-.677h2.346c.374 0 .677.303.677.677v2.345c0 .374-.303.677-.677.677" mask="url(#ozs7g92rkd)"/>
                                        <path stroke="#000" stroke-width=".779" d="M88.151 180.049h-2.346c-.374 0-.676-.303-.676-.677v-2.345c0-.374.302-.677.676-.677h2.346c.374 0 .677.303.677.677v2.345c0 .374-.303.677-.677.677z" mask="url(#ozs7g92rkd)"/>
                                        <g mask="url(#ozs7g92rkd)">
                                            <g>
                                                <path fill="#FFF" d="M0.775 1.06L23.516 1.06" transform="translate(68 172)"/>
                                                <path stroke="#000" stroke-width=".779" d="M0.775 1.06L23.516 1.06" transform="translate(68 172)"/>
                                            </g>
                                        </g>
                                        <path stroke="#000" stroke-width=".779" d="M100.434 151.435L104.147 151.435 104.147 155.147M61.679 151.435L57.966 151.435 57.966 155.147M61.679 196.492L57.966 196.492 57.966 192.779M100.434 196.492L104.147 196.492 104.147 192.779" mask="url(#ozs7g92rkd)"/>
                                        <path fill="#0A51B7" d="M63.43 165.212L68.775 165.212 68.775 161.617 63.43 161.617z" mask="url(#ozs7g92rkd)"/>
                                        <path stroke="#000" stroke-width=".779" d="M63.43 165.212L68.775 165.212 68.775 161.617 63.43 161.617z" mask="url(#ozs7g92rkd)"/>
                                        <path fill="#FFF" d="M295.643 176.247c0 31.125-25.232 56.357-56.357 56.357s-56.358-25.232-56.358-56.357 25.233-56.357 56.358-56.357c31.125 0 56.357 25.232 56.357 56.357" mask="url(#ozs7g92rkd)"/>
                                        <path stroke="#C5C8CF" stroke-width=".75" d="M295.643 176.247c0 31.125-25.232 56.357-56.357 56.357s-56.358-25.232-56.358-56.357 25.233-56.357 56.358-56.357c31.125 0 56.357 25.232 56.357 56.357z" mask="url(#ozs7g92rkd)"/>
                                        <path fill="#007CF7" d="M212.678 185.196L208.339 181.728 208.339 170.506 212.678 167.038z" mask="url(#ozs7g92rkd)"/>
                                        <path fill="#6FB6FB" d="M220.393 185.196L224.732 181.728 224.732 170.506 220.393 167.038z" mask="url(#ozs7g92rkd)"/>
                                        <path fill="#0065C7" d="M220.393 167.038L216.536 169.572 220.393 172.168zM212.678 167.038L216.535 169.572 212.678 172.168zM220.393 180.066L216.536 182.6 220.393 185.196zM212.678 180.066L216.535 182.6 212.678 185.196z" mask="url(#ozs7g92rkd)"/>
                                        <path fill="#273A5B" d="M252.752 180.142L250.577 173.49 248.628 173.49 246.452 180.144 244.492 173.49 242.444 173.49 245.473 182.879 247.384 182.879 249.557 176.129 251.747 182.879 253.677 182.879 256.705 173.49 254.694 173.49zM269.295 174.19c-.625-.663-1.524-1-2.674-1-.602 0-1.19.155-1.748.463-.465.257-.834.57-1.1.936v-1.1h-1.885v9.39h1.959v-5.18c0-.74.223-1.383.663-1.913.44-.53.972-.787 1.626-.787 1.403 0 2.103.695 2.138 2.12v5.76h1.959v-5.873c0-1.208-.316-2.155-.938-2.816M257.93 182.879L259.887 182.879 259.887 173.199 257.93 173.199zM257.842 171.412L259.975 171.412 259.975 169.281 257.842 169.281z" mask="url(#ozs7g92rkd)"/>
                                        <path fill="#273A5B" d="M244.689 169.27L232.214 169.27 232.214 171.165 237.465 171.165 237.465 182.964 239.435 182.964 239.435 171.165 244.689 171.165z" mask="url(#ozs7g92rkd)"/>
                                    </g>
                                    <text font-family="NotoSansCJKkr-Medium, Noto Sans CJK KR" font-size="12" font-weight="400" transform="translate(3 -6)">
                                        <tspan x="518.025" y="263.675" fill="#000">D</tspan> <tspan x="526.413" y="263.675" fill="#000" letter-spacing="-.204">a</tspan> <tspan x="532.905" y="263.675" fill="#000" letter-spacing="-.288">t</tspan> <tspan x="537.081" y="263.675" fill="#000">a f</tspan> <tspan x="550.821" y="263.675" fill="#000" letter-spacing="-.132">r</tspan> <tspan x="555.465" y="263.675" fill="#000">om sensor</tspan>
                                    </text>
                                    <text font-family="NotoSansCJKkr-Medium, Noto Sans CJK KR" font-size="12" font-weight="400" transform="translate(3 -6)">
                                        <tspan x="529.677" y="51.311" fill="#000">D</tspan> <tspan x="538.065" y="51.311" fill="#000" letter-spacing="-.204">a</tspan> <tspan x="544.557" y="51.311" fill="#000" letter-spacing="-.288">t</tspan> <tspan x="548.733" y="51.311" fill="#000">a needed</tspan>
                                    </text>
                                    <text font-family="NotoSansCJKkr-Medium, Noto Sans CJK KR" font-size="12" font-weight="400" letter-spacing="-.132" transform="translate(3 -6)">
                                        <tspan x="518.025" y="67.307" fill="#000">f</tspan> <tspan x="521.901" y="67.307" fill="#000">or mana</tspan> <tspan x="569.469" y="67.307" fill="#000" letter-spacing="-.203">g</tspan> <tspan x="575.999" y="67.307" fill="#000">ement</tspan>
                                    </text>
                                    <text font-family="NotoSansCJKkr-Medium, Noto Sans CJK KR" font-size="12" font-weight="400" transform="translate(3 -6)">
                                        <tspan x="605.383" y="318.359" fill="#000">Colle</tspan> <tspan x="634.435" y="318.359" fill="#000" letter-spacing="-.132">c</tspan> <tspan x="640.375" y="318.359" fill="#000">t envi</tspan> <tspan x="672.079" y="318.359" fill="#000" letter-spacing="-.131">r</tspan> <tspan x="676.724" y="318.359" fill="#000">onmen</tspan> <tspan x="717.152" y="318.359" fill="#000" letter-spacing="-.288">t</tspan> <tspan x="721.328" y="318.359" fill="#000">al d</tspan> <tspan x="742.064" y="318.359" fill="#000" letter-spacing="-.204">a</tspan> <tspan x="748.556" y="318.359" fill="#000" letter-spacing="-.288">t</tspan> <tspan x="752.732" y="318.359" fill="#000">a</tspan>
                                    </text>
                                    <text font-family="NotoSansCJKkr-Medium, Noto Sans CJK KR" font-size="12" font-weight="400" transform="translate(3 -6)">
                                        <tspan x="623.191" y="334.359" fill="#000">(ﬁne du</tspan> <tspan x="667.255" y="334.359" fill="#000" letter-spacing="-.264">s</tspan> <tspan x="672.487" y="334.359" fill="#000">t, g</tspan> <tspan x="690.451" y="334.359" fill="#000" letter-spacing="-.132">r</tspan> <tspan x="695.095" y="334.359" fill="#000">een </tspan> <tspan x="718.843" y="334.359" fill="#000" letter-spacing="-.228">g</tspan> <tspan x="725.323" y="334.359" fill="#000">as)</tspan>
                                    </text>
                                    <text font-family="NotoSansCJKkr-Medium, Noto Sans CJK KR" font-size="12" font-weight="400" transform="translate(3 -6)">
                                        <tspan x="623.083" y="350.355" fill="#000">Colle</tspan> <tspan x="652.135" y="350.355" fill="#000" letter-spacing="-.132">c</tspan> <tspan x="658.075" y="350.355" fill="#000">t ﬁeld si</tspan> <tspan x="703.183" y="350.355" fill="#000" letter-spacing="-.204">t</tspan> <tspan x="707.527" y="350.355" fill="#000">e d</tspan> <tspan x="724.567" y="350.355" fill="#000" letter-spacing="-.204">a</tspan> <tspan x="731.059" y="350.355" fill="#000" letter-spacing="-.288">t</tspan> <tspan x="735.235" y="350.355" fill="#000">a</tspan>
                                    </text>
                                    <text font-family="NotoSansCJKkr-Medium, Noto Sans CJK KR" font-size="12" font-weight="400" transform="translate(3 -6)">
                                        <tspan x="625.579" y="366.359" fill="#000">(devi</tspan> <tspan x="654.163" y="366.359" fill="#000" letter-spacing="-.311">c</tspan> <tspan x="659.744" y="366.359" fill="#000">e, equipment)</tspan>
                                    </text>
                                    <text font-family="NotoSansCJKkr-Medium, Noto Sans CJK KR" font-size="12" font-weight="400" transform="translate(3 -6)">
                                        <tspan x="627.715" y="156.543" fill="#000">P</tspan> <tspan x="635.479" y="156.543" fill="#000" letter-spacing="-.132">r</tspan> <tspan x="640.123" y="156.543" fill="#000">odu</tspan> <tspan x="662.491" y="156.543" fill="#000" letter-spacing="-.132">c</tspan> <tspan x="668.431" y="156.543" fill="#000">tion p</tspan> <tspan x="701.743" y="156.543" fill="#000" letter-spacing="-.132">r</tspan> <tspan x="706.387" y="156.543" fill="#000">o</tspan> <tspan x="713.755" y="156.543" fill="#000" letter-spacing="-.312">c</tspan> <tspan x="719.335" y="156.543" fill="#000">ess</tspan>
                                    </text>
                                    <text font-family="NotoSansCJKkr-Medium, Noto Sans CJK KR" font-size="12" font-weight="400" transform="translate(3 -6)">
                                        <tspan x="623.263" y="172.539" fill="#000">mana</tspan> <tspan x="655.855" y="172.539" fill="#000" letter-spacing="-.205">g</tspan> <tspan x="662.382" y="172.539" fill="#000">ement sy</tspan> <tspan x="714.474" y="172.539" fill="#000" letter-spacing="-.264">s</tspan> <tspan x="719.706" y="172.539" fill="#000" letter-spacing="-.204">t</tspan> <tspan x="724.05" y="172.539" fill="#000">em</tspan>
                                    </text>
                                    <g>
                                        <path stroke="#C5C8CF" stroke-width=".75" d="M325.307 219.136L243.924 219.136 243.924 143.242 243.924 57.347 325.307 57.347M219.658 143.241L243.924 143.241" transform="translate(3 -6) translate(303 26.684)"/>
                                        <path fill="#C5C8CF" d="M225.711 143.241L225.711 148.004 221.587 145.622 217.463 143.241 221.587 140.86 225.711 138.479z" transform="translate(3 -6) translate(303 26.684)"/>
                                        <path fill="#FFF" d="M438.022 57.032c0 31.125-25.233 56.357-56.358 56.357-31.125 0-56.357-25.232-56.357-56.357S350.538.675 381.663.675s56.358 25.232 56.358 56.357" transform="translate(3 -6) translate(303 26.684)"/>
                                        <path stroke="#C5C8CF" stroke-width=".75" d="M438.022 57.032c0 31.125-25.233 56.357-56.358 56.357-31.125 0-56.357-25.232-56.357-56.357S350.538.675 381.663.675s56.358 25.232 56.358 56.357z" transform="translate(3 -6) translate(303 26.684)"/>
                                        <path fill="#E6E8EB" d="M364.023 46.443L364.023 72.96 396.033 72.96 396.033 46.198z" transform="translate(3 -6) translate(303 26.684)"/>
                                        <path stroke="#000" stroke-width=".478" d="M364.023 46.443L364.023 72.96 396.033 72.96 396.033 46.198z" transform="translate(3 -6) translate(303 26.684)"/>
                                        <path fill="#FFF" d="M362.972 46.4c-1.17 0-2.12-.952-2.12-2.122V39.07c0-1.169.95-2.12 2.12-2.12h33.992c1.17 0 2.12.951 2.12 2.12v5.208c0 1.17-.95 2.121-2.12 2.121h-33.992z" transform="translate(3 -6) translate(303 26.684)"/>
                                        <path fill="#000" d="M396.964 36.71h-33.992c-1.298 0-2.36 1.063-2.36 2.36v5.208c0 1.298 1.062 2.36 2.36 2.36h33.992c1.298 0 2.36-1.062 2.36-2.36V39.07c0-1.298-1.062-2.36-2.36-2.36m0 .478c1.038 0 1.883.843 1.883 1.882v5.207c0 1.038-.845 1.883-1.883 1.883h-33.992c-1.038 0-1.882-.845-1.882-1.883V39.07c0-1.04.844-1.882 1.882-1.882h33.992" transform="translate(3 -6) translate(303 26.684)"/>
                                        <path fill="#FFF" d="M362.972 58.46c-1.17 0-2.12-.951-2.12-2.121v-5.207c0-1.17.95-2.121 2.12-2.121h33.992c1.17 0 2.12.951 2.12 2.121v5.207c0 1.17-.95 2.121-2.12 2.121h-33.992z" transform="translate(3 -6) translate(303 26.684)"/>
                                        <path fill="#000" d="M396.964 48.772h-33.992c-1.298 0-2.36 1.062-2.36 2.36v5.207c0 1.299 1.062 2.36 2.36 2.36h33.992c1.298 0 2.36-1.061 2.36-2.36v-5.207c0-1.298-1.062-2.36-2.36-2.36m0 .477c1.038 0 1.883.844 1.883 1.883v5.207c0 1.038-.845 1.883-1.883 1.883h-33.992c-1.038 0-1.882-.846-1.882-1.883v-5.207c0-1.038.844-1.883 1.882-1.883h33.992" transform="translate(3 -6) translate(303 26.684)"/>
                                        <path fill="#FFF" d="M362.972 70.453c-1.17 0-2.12-.95-2.12-2.12v-5.208c0-1.17.95-2.12 2.12-2.12h33.992c1.17 0 2.12.95 2.12 2.12v5.207c0 1.17-.95 2.121-2.12 2.121h-33.992z" transform="translate(3 -6) translate(303 26.684)"/>
                                        <path fill="#000" d="M396.964 60.765h-33.992c-1.298 0-2.36 1.062-2.36 2.359v5.208c0 1.298 1.062 2.36 2.36 2.36h33.992c1.298 0 2.36-1.062 2.36-2.36v-5.208c0-1.297-1.062-2.36-2.36-2.36m0 .479c1.038 0 1.883.844 1.883 1.88v5.209c0 1.038-.845 1.883-1.883 1.883h-33.992c-1.038 0-1.882-.845-1.882-1.883v-5.208c0-1.037.844-1.881 1.882-1.881h33.992" transform="translate(3 -6) translate(303 26.684)"/>
                                        <path fill="#0A51B7" d="M384.71 43.032c-.749 0-1.357-.608-1.357-1.357s.608-1.359 1.357-1.359 1.357.61 1.357 1.36c0 .748-.608 1.356-1.357 1.356" transform="translate(3 -6) translate(303 26.684)"/>
                                        <path fill="#000" d="M384.71 40.077c-.882 0-1.597.715-1.597 1.598 0 .881.715 1.596 1.597 1.596s1.597-.715 1.597-1.596c0-.883-.715-1.598-1.597-1.598m0 .48c.617 0 1.119.5 1.119 1.118 0 .617-.502 1.12-1.119 1.12s-1.119-.503-1.119-1.12c0-.618.502-1.119 1.119-1.119" transform="translate(3 -6) translate(303 26.684)"/>
                                        <path fill="#0A51B7" d="M389.636 43.032c-.75 0-1.358-.608-1.358-1.357s.609-1.359 1.358-1.359c.749 0 1.357.61 1.357 1.36 0 .748-.608 1.356-1.357 1.356" transform="translate(3 -6) translate(303 26.684)"/>
                                        <path fill="#000" d="M389.636 40.077c-.882 0-1.597.715-1.597 1.598 0 .881.715 1.596 1.597 1.596s1.597-.715 1.597-1.596c0-.883-.715-1.598-1.597-1.598m0 .48c.617 0 1.119.5 1.119 1.118 0 .617-.502 1.12-1.12 1.12-.616 0-1.118-.503-1.118-1.12 0-.618.502-1.119 1.119-1.119" transform="translate(3 -6) translate(303 26.684)"/>
                                        <path fill="#0A51B7" d="M394.56 43.032c-.748 0-1.356-.608-1.356-1.357s.608-1.359 1.356-1.359c.75 0 1.358.61 1.358 1.36 0 .748-.608 1.356-1.358 1.356" transform="translate(3 -6) translate(303 26.684)"/>
                                        <path fill="#000" d="M394.56 40.077c-.882 0-1.596.715-1.596 1.598 0 .881.714 1.596 1.596 1.596.883 0 1.599-.715 1.599-1.596 0-.883-.716-1.598-1.599-1.598m0 .48c.618 0 1.12.5 1.12 1.118 0 .617-.502 1.12-1.12 1.12-.617 0-1.118-.503-1.118-1.12 0-.618.501-1.119 1.118-1.119" transform="translate(3 -6) translate(303 26.684)"/>
                                        <path fill="#0A51B7" d="M384.71 55.093c-.749 0-1.357-.608-1.357-1.357 0-.75.608-1.358 1.357-1.358s1.357.609 1.357 1.358c0 .749-.608 1.357-1.357 1.357" transform="translate(3 -6) translate(303 26.684)"/>
                                        <path fill="#000" d="M384.71 52.138c-.882 0-1.597.716-1.597 1.598 0 .88.715 1.596 1.597 1.596s1.597-.715 1.597-1.596c0-.882-.715-1.598-1.597-1.598m0 .479c.617 0 1.119.5 1.119 1.119 0 .617-.502 1.119-1.119 1.119s-1.119-.502-1.119-1.12c0-.617.502-1.118 1.119-1.118" transform="translate(3 -6) translate(303 26.684)"/>
                                        <path fill="#0A51B7" d="M389.636 55.093c-.75 0-1.358-.608-1.358-1.357 0-.75.609-1.358 1.358-1.358.749 0 1.357.609 1.357 1.358 0 .749-.608 1.357-1.357 1.357" transform="translate(3 -6) translate(303 26.684)"/>
                                        <path fill="#000" d="M389.636 52.138c-.882 0-1.597.716-1.597 1.598 0 .88.715 1.596 1.597 1.596s1.597-.715 1.597-1.596c0-.882-.715-1.598-1.597-1.598m0 .479c.617 0 1.119.5 1.119 1.119 0 .617-.502 1.119-1.12 1.119-.616 0-1.118-.502-1.118-1.12 0-.617.502-1.118 1.119-1.118" transform="translate(3 -6) translate(303 26.684)"/>
                                        <path fill="#0A51B7" d="M394.56 55.093c-.748 0-1.356-.608-1.356-1.357 0-.75.608-1.358 1.356-1.358.75 0 1.358.609 1.358 1.358 0 .749-.608 1.357-1.358 1.357" transform="translate(3 -6) translate(303 26.684)"/>
                                        <path fill="#000" d="M394.56 52.138c-.882 0-1.596.716-1.596 1.598 0 .88.714 1.596 1.596 1.596.883 0 1.599-.715 1.599-1.596 0-.882-.716-1.598-1.599-1.598m0 .479c.618 0 1.12.5 1.12 1.119 0 .617-.502 1.119-1.12 1.119-.617 0-1.118-.502-1.118-1.12 0-.617.501-1.118 1.118-1.118" transform="translate(3 -6) translate(303 26.684)"/>
                                        <path fill="#0A51B7" d="M384.71 67.086c-.749 0-1.357-.608-1.357-1.357 0-.75.608-1.358 1.357-1.358s1.357.609 1.357 1.358c0 .749-.608 1.357-1.357 1.357" transform="translate(3 -6) translate(303 26.684)"/>
                                        <path fill="#000" d="M384.71 64.132c-.882 0-1.597.715-1.597 1.597s.715 1.596 1.597 1.596 1.597-.714 1.597-1.596c0-.882-.715-1.597-1.597-1.597m0 .477c.617 0 1.119.502 1.119 1.12 0 .617-.502 1.119-1.119 1.119s-1.119-.502-1.119-1.12c0-.617.502-1.12 1.119-1.12" transform="translate(3 -6) translate(303 26.684)"/>
                                        <path fill="#0A51B7" d="M389.636 67.086c-.75 0-1.358-.608-1.358-1.357 0-.75.609-1.358 1.358-1.358.749 0 1.357.609 1.357 1.358 0 .749-.608 1.357-1.357 1.357" transform="translate(3 -6) translate(303 26.684)"/>
                                        <path fill="#000" d="M389.636 64.132c-.882 0-1.597.715-1.597 1.597s.715 1.596 1.597 1.596 1.597-.714 1.597-1.596c0-.882-.715-1.597-1.597-1.597m0 .477c.617 0 1.119.502 1.119 1.12 0 .617-.502 1.119-1.12 1.119-.616 0-1.118-.502-1.118-1.12 0-.617.502-1.12 1.119-1.12" transform="translate(3 -6) translate(303 26.684)"/>
                                        <path fill="#0A51B7" d="M394.56 67.086c-.748 0-1.356-.608-1.356-1.357 0-.75.608-1.358 1.356-1.358.75 0 1.358.609 1.358 1.358 0 .749-.608 1.357-1.358 1.357" transform="translate(3 -6) translate(303 26.684)"/>
                                        <path fill="#000" d="M394.56 64.132c-.882 0-1.596.715-1.596 1.597s.714 1.596 1.596 1.596c.883 0 1.599-.714 1.599-1.596 0-.882-.716-1.597-1.599-1.597m0 .477c.618 0 1.12.502 1.12 1.12 0 .617-.502 1.119-1.12 1.119-.617 0-1.118-.502-1.118-1.12 0-.617.501-1.12 1.118-1.12" transform="translate(3 -6) translate(303 26.684)"/>
                                        <g>
                                            <path fill="#FFF" d="M0.703 0.054L0.703 5.296" transform="translate(3 -6) translate(303 26.684) translate(364 39)"/>
                                            <path stroke="#000" stroke-width=".478" d="M0.703 0.054L0.703 5.296" transform="translate(3 -6) translate(303 26.684) translate(364 39)"/>
                                        </g>
                                        <g>
                                            <path fill="#FFF" d="M1.412 0.054L1.412 5.296" transform="translate(3 -6) translate(303 26.684) translate(366 39)"/>
                                            <path stroke="#000" stroke-width=".478" d="M1.412 0.054L1.412 5.296" transform="translate(3 -6) translate(303 26.684) translate(366 39)"/>
                                        </g>
                                        <g>
                                            <path fill="#FFF" d="M1.12 0.054L1.12 5.296" transform="translate(3 -6) translate(303 26.684) translate(369 39)"/>
                                            <path stroke="#000" stroke-width=".478" d="M1.12 0.054L1.12 5.296" transform="translate(3 -6) translate(303 26.684) translate(369 39)"/>
                                        </g>
                                        <g>
                                            <path fill="#FFF" d="M0.829 0.054L0.829 5.296" transform="translate(3 -6) translate(303 26.684) translate(372 39)"/>
                                            <path stroke="#000" stroke-width=".478" d="M0.829 0.054L0.829 5.296" transform="translate(3 -6) translate(303 26.684) translate(372 39)"/>
                                        </g>
                                        <g>
                                            <path fill="#FFF" d="M0.537 0.054L0.537 5.296" transform="translate(3 -6) translate(303 26.684) translate(375 39)"/>
                                            <path stroke="#000" stroke-width=".478" d="M0.537 0.054L0.537 5.296" transform="translate(3 -6) translate(303 26.684) translate(375 39)"/>
                                        </g>
                                        <g>
                                            <path fill="#FFF" d="M1.245 0.054L1.245 5.296" transform="translate(3 -6) translate(303 26.684) translate(377 39)"/>
                                            <path stroke="#000" stroke-width=".478" d="M1.245 0.054L1.245 5.296" transform="translate(3 -6) translate(303 26.684) translate(377 39)"/>
                                        </g>
                                        <g>
                                            <path fill="#FFF" d="M1.058 0.054L1.058 5.296" transform="translate(3 -6) translate(303 26.684) translate(365 39)"/>
                                            <path stroke="#000" stroke-width=".478" d="M1.058 0.054L1.058 5.296" transform="translate(3 -6) translate(303 26.684) translate(365 39)"/>
                                        </g>
                                        <g>
                                            <path fill="#FFF" d="M0.766 0.054L0.766 5.296" transform="translate(3 -6) translate(303 26.684) translate(368 39)"/>
                                            <path stroke="#000" stroke-width=".478" d="M0.766 0.054L0.766 5.296" transform="translate(3 -6) translate(303 26.684) translate(368 39)"/>
                                        </g>
                                        <g>
                                            <path fill="#FFF" d="M1.475 0.054L1.475 5.296" transform="translate(3 -6) translate(303 26.684) translate(370 39)"/>
                                            <path stroke="#000" stroke-width=".478" d="M1.475 0.054L1.475 5.296" transform="translate(3 -6) translate(303 26.684) translate(370 39)"/>
                                        </g>
                                        <g>
                                            <path fill="#FFF" d="M1.183 0.054L1.183 5.296" transform="translate(3 -6) translate(303 26.684) translate(373 39)"/>
                                            <path stroke="#000" stroke-width=".478" d="M1.183 0.054L1.183 5.296" transform="translate(3 -6) translate(303 26.684) translate(373 39)"/>
                                        </g>
                                        <g>
                                            <path fill="#FFF" d="M0.892 0.054L0.892 5.296" transform="translate(3 -6) translate(303 26.684) translate(376 39)"/>
                                            <path stroke="#000" stroke-width=".478" d="M0.892 0.054L0.892 5.296" transform="translate(3 -6) translate(303 26.684) translate(376 39)"/>
                                        </g>
                                        <g>
                                            <path fill="#FFF" d="M0.703 0.114L0.703 5.356" transform="translate(3 -6) translate(303 26.684) translate(364 51)"/>
                                            <path stroke="#000" stroke-width=".478" d="M0.703 0.114L0.703 5.356" transform="translate(3 -6) translate(303 26.684) translate(364 51)"/>
                                        </g>
                                        <g>
                                            <path fill="#FFF" d="M1.412 0.114L1.412 5.356" transform="translate(3 -6) translate(303 26.684) translate(366 51)"/>
                                            <path stroke="#000" stroke-width=".478" d="M1.412 0.114L1.412 5.356" transform="translate(3 -6) translate(303 26.684) translate(366 51)"/>
                                        </g>
                                        <g>
                                            <path fill="#FFF" d="M1.12 0.114L1.12 5.356" transform="translate(3 -6) translate(303 26.684) translate(369 51)"/>
                                            <path stroke="#000" stroke-width=".478" d="M1.12 0.114L1.12 5.356" transform="translate(3 -6) translate(303 26.684) translate(369 51)"/>
                                        </g>
                                        <g>
                                            <path fill="#FFF" d="M0.829 0.114L0.829 5.356" transform="translate(3 -6) translate(303 26.684) translate(372 51)"/>
                                            <path stroke="#000" stroke-width=".478" d="M0.829 0.114L0.829 5.356" transform="translate(3 -6) translate(303 26.684) translate(372 51)"/>
                                        </g>
                                        <g>
                                            <path fill="#FFF" d="M0.537 0.114L0.537 5.356" transform="translate(3 -6) translate(303 26.684) translate(375 51)"/>
                                            <path stroke="#000" stroke-width=".478" d="M0.537 0.114L0.537 5.356" transform="translate(3 -6) translate(303 26.684) translate(375 51)"/>
                                        </g>
                                        <g>
                                            <path fill="#FFF" d="M1.245 0.114L1.245 5.356" transform="translate(3 -6) translate(303 26.684) translate(377 51)"/>
                                            <path stroke="#000" stroke-width=".478" d="M1.245 0.114L1.245 5.356" transform="translate(3 -6) translate(303 26.684) translate(377 51)"/>
                                        </g>
                                        <g>
                                            <path fill="#FFF" d="M1.058 0.114L1.058 5.356" transform="translate(3 -6) translate(303 26.684) translate(365 51)"/>
                                            <path stroke="#000" stroke-width=".478" d="M1.058 0.114L1.058 5.356" transform="translate(3 -6) translate(303 26.684) translate(365 51)"/>
                                        </g>
                                        <g>
                                            <path fill="#FFF" d="M0.766 0.114L0.766 5.356" transform="translate(3 -6) translate(303 26.684) translate(368 51)"/>
                                            <path stroke="#000" stroke-width=".478" d="M0.766 0.114L0.766 5.356" transform="translate(3 -6) translate(303 26.684) translate(368 51)"/>
                                        </g>
                                        <g>
                                            <path fill="#FFF" d="M1.475 0.114L1.475 5.356" transform="translate(3 -6) translate(303 26.684) translate(370 51)"/>
                                            <path stroke="#000" stroke-width=".478" d="M1.475 0.114L1.475 5.356" transform="translate(3 -6) translate(303 26.684) translate(370 51)"/>
                                        </g>
                                        <g>
                                            <path fill="#FFF" d="M1.183 0.114L1.183 5.356" transform="translate(3 -6) translate(303 26.684) translate(373 51)"/>
                                            <path stroke="#000" stroke-width=".478" d="M1.183 0.114L1.183 5.356" transform="translate(3 -6) translate(303 26.684) translate(373 51)"/>
                                        </g>
                                        <g>
                                            <path fill="#FFF" d="M0.892 0.114L0.892 5.356" transform="translate(3 -6) translate(303 26.684) translate(376 51)"/>
                                            <path stroke="#000" stroke-width=".478" d="M0.892 0.114L0.892 5.356" transform="translate(3 -6) translate(303 26.684) translate(376 51)"/>
                                        </g>
                                        <g>
                                            <path fill="#FFF" d="M0.703 0.175L0.703 5.417" transform="translate(3 -6) translate(303 26.684) translate(364 63)"/>
                                            <path stroke="#000" stroke-width=".478" d="M0.703 0.175L0.703 5.417" transform="translate(3 -6) translate(303 26.684) translate(364 63)"/>
                                        </g>
                                        <g>
                                            <path fill="#FFF" d="M1.412 0.175L1.412 5.417" transform="translate(3 -6) translate(303 26.684) translate(366 63)"/>
                                            <path stroke="#000" stroke-width=".478" d="M1.412 0.175L1.412 5.417" transform="translate(3 -6) translate(303 26.684) translate(366 63)"/>
                                        </g>
                                        <g>
                                            <path fill="#FFF" d="M1.12 0.175L1.12 5.417" transform="translate(3 -6) translate(303 26.684) translate(369 63)"/>
                                            <path stroke="#000" stroke-width=".478" d="M1.12 0.175L1.12 5.417" transform="translate(3 -6) translate(303 26.684) translate(369 63)"/>
                                        </g>
                                        <g>
                                            <path fill="#FFF" d="M0.829 0.175L0.829 5.417" transform="translate(3 -6) translate(303 26.684) translate(372 63)"/>
                                            <path stroke="#000" stroke-width=".478" d="M0.829 0.175L0.829 5.417" transform="translate(3 -6) translate(303 26.684) translate(372 63)"/>
                                        </g>
                                        <g>
                                            <path fill="#FFF" d="M0.537 0.175L0.537 5.417" transform="translate(3 -6) translate(303 26.684) translate(375 63)"/>
                                            <path stroke="#000" stroke-width=".478" d="M0.537 0.175L0.537 5.417" transform="translate(3 -6) translate(303 26.684) translate(375 63)"/>
                                        </g>
                                        <g>
                                            <path fill="#FFF" d="M1.245 0.175L1.245 5.417" transform="translate(3 -6) translate(303 26.684) translate(377 63)"/>
                                            <path stroke="#000" stroke-width=".478" d="M1.245 0.175L1.245 5.417" transform="translate(3 -6) translate(303 26.684) translate(377 63)"/>
                                        </g>
                                        <g>
                                            <path fill="#FFF" d="M1.058 0.175L1.058 5.417" transform="translate(3 -6) translate(303 26.684) translate(365 63)"/>
                                            <path stroke="#000" stroke-width=".478" d="M1.058 0.175L1.058 5.417" transform="translate(3 -6) translate(303 26.684) translate(365 63)"/>
                                        </g>
                                        <g>
                                            <path fill="#FFF" d="M0.766 0.175L0.766 5.417" transform="translate(3 -6) translate(303 26.684) translate(368 63)"/>
                                            <path stroke="#000" stroke-width=".478" d="M0.766 0.175L0.766 5.417" transform="translate(3 -6) translate(303 26.684) translate(368 63)"/>
                                        </g>
                                        <g>
                                            <path fill="#FFF" d="M1.475 0.175L1.475 5.417" transform="translate(3 -6) translate(303 26.684) translate(370 63)"/>
                                            <path stroke="#000" stroke-width=".478" d="M1.475 0.175L1.475 5.417" transform="translate(3 -6) translate(303 26.684) translate(370 63)"/>
                                        </g>
                                        <g>
                                            <path fill="#FFF" d="M1.183 0.175L1.183 5.417" transform="translate(3 -6) translate(303 26.684) translate(373 63)"/>
                                            <path stroke="#000" stroke-width=".478" d="M1.183 0.175L1.183 5.417" transform="translate(3 -6) translate(303 26.684) translate(373 63)"/>
                                        </g>
                                        <g>
                                            <path fill="#FFF" d="M0.892 0.175L0.892 5.417" transform="translate(3 -6) translate(303 26.684) translate(376 63)"/>
                                            <path stroke="#000" stroke-width=".478" d="M0.892 0.175L0.892 5.417" transform="translate(3 -6) translate(303 26.684) translate(376 63)"/>
                                        </g>
                                        <path fill="#E6E8EB" d="M392.486 63.29s.16-1.01 1.59-1.699c1.43-.688 5.015-1.66 9.397-1.057 4.383.606 5.534 1.693 5.534 1.693l.527 1.165v12.814s-.58 1.535-3.519 2.171c-2.938.635-8.79.847-11.595-.45 0 0-1.775-.742-1.934-1.854V63.29z" transform="translate(3 -6) translate(303 26.684)"/>
                                        <path stroke="#000" stroke-width=".478" d="M409.534 63.175s-.658-2.83-8.78-2.83-8.268 2.89-8.268 2.89v12.87s.894 2.91 8.52 2.91c7.626 0 8.527-2.91 8.527-2.91l.001-12.93z" transform="translate(3 -6) translate(303 26.684)"/>
                                        <path stroke="#000" stroke-width=".478" d="M392.486 67.785s.953 2.79 8.635 2.716c7.681-.073 8.413-2.716 8.413-2.716M392.486 71.98s.953 2.788 8.635 2.715c7.681-.072 8.413-2.714 8.413-2.714M392.486 63.59s.953 2.79 8.635 2.717c7.681-.073 8.413-2.716 8.413-2.716" transform="translate(3 -6) translate(303 26.684)"/>
                                        <path stroke="#C5C8CF" stroke-width=".75" d="M114.674 143.241L5.068 143.241" transform="translate(3 -6) translate(303 26.684)"/>
                                        <path fill="#C5C8CF" d="M108.699 143.241L108.699 138.479 112.823 140.86 116.946 143.241 112.823 145.622 108.699 148.004z" transform="translate(3 -6) translate(303 26.684)"/>
                                        <path stroke="#C5C8CF" stroke-width=".75" d="M3.216 156.307L112.823 156.307" transform="translate(3 -6) translate(303 26.684)"/>
                                        <path fill="#C5C8CF" d="M9.191 156.307L9.191 161.069 5.067 158.688 0.943 156.307 5.067 153.926 9.191 151.545z" transform="translate(3 -6) translate(303 26.684)"/>
                                    </g>
                                    <text font-family="NotoSansCJKkr-Medium, Noto Sans CJK KR" font-size="12" font-weight="400" transform="translate(3 -6)">
                                        <tspan x="336.527" y="201.088" fill="#000">D</tspan> <tspan x="344.915" y="201.088" fill="#000" letter-spacing="-.204">a</tspan> <tspan x="351.407" y="201.088" fill="#000" letter-spacing="-.288">t</tspan> <tspan x="355.583" y="201.088" fill="#000">a lilnk</tspan>
                                    </text>
                                    <text font-family="NotoSansCJKkr-Medium, Noto Sans CJK KR" font-size="12" font-weight="400" transform="translate(3 -6)">
                                        <tspan x="320.915" y="140.548" fill="#000">Mana</tspan> <tspan x="352.163" y="140.548" fill="#000" letter-spacing="-.204">g</tspan> <tspan x="358.691" y="140.548" fill="#000">ement /</tspan>
                                    </text>
                                    <text font-family="NotoSansCJKkr-Medium, Noto Sans CJK KR" font-size="12" font-weight="400" letter-spacing="-.312" transform="translate(3 -6)">
                                        <tspan x="327.371" y="156.544" fill="#000">c</tspan> <tspan x="332.951" y="156.544" fill="#000">ont</tspan> <tspan x="352.559" y="156.544" fill="#000" letter-spacing="-.132">r</tspan> <tspan x="357.203" y="156.544" fill="#000">ol d</tspan> <tspan x="378.407" y="156.544" fill="#000" letter-spacing="-.204">a</tspan> <tspan x="384.899" y="156.544" fill="#000" letter-spacing="-.288">t</tspan> <tspan x="389.075" y="156.544" fill="#000">a</tspan>
                                    </text>
                                    <g transform="translate(3 -6) translate(0 .684)">
                                        <path fill="#FFF" d="M740.982 244.85c0 31.125-25.23 56.357-56.357 56.357-31.125 0-56.357-25.232-56.357-56.357s25.232-56.357 56.357-56.357c31.126 0 56.357 25.232 56.357 56.357"/>
                                        <path stroke="#C5C8CF" stroke-width=".75" d="M740.982 244.85c0 31.125-25.23 56.357-56.357 56.357-31.125 0-56.357-25.232-56.357-56.357s25.232-56.357 56.357-56.357c31.126 0 56.357 25.232 56.357 56.357z"/>
                                        <g>
                                            <path fill="#0A51B7" d="M.031 14.412V1.562S-.096.553.753.553c.847 0 .737 1.364.737 1.364l.222 12.494" transform="translate(670 228)"/>
                                            <path stroke="#000" stroke-linecap="round" stroke-width=".598" d="M.031 14.412V1.562S-.096.553.753.553c.847 0 .737 1.364.737 1.364l.222 12.494" transform="translate(670 228)"/>
                                        </g>
                                        <g>
                                            <path fill="#FFF" d="M.621 3.528V2.103s.1-1.69 1.725-1.69H37.27s1.36.264 1.36 2.121v.994" transform="translate(665 242)"/>
                                            <path stroke="#000" stroke-width=".598" d="M.621 3.528V2.103s.1-1.69 1.725-1.69H37.27s1.36.264 1.36 2.121v.994" transform="translate(665 242)"/>
                                        </g>
                                        <g>
                                            <path fill="#FFF" d="M.038 12.762V2.22S.138.529 1.762.529h38.09s1.36.265 1.36 2.122v10.11" transform="translate(664 245)"/>
                                            <path stroke="#000" stroke-width=".598" d="M.038 12.762V2.22S.138.529 1.762.529h38.09s1.36.265 1.36 2.122v10.11" transform="translate(664 245)"/>
                                        </g>
                                        <path fill="#E6E8EB" d="M662.629 260.712v-1.43s-.033-1.52 1.558-1.52h41.075s1.359.133 1.359 1.475v1.342l-43.992.133z"/>
                                        <path stroke="#000" stroke-width=".598" d="M662.629 260.712v-1.43s-.033-1.52 1.558-1.52h41.075s1.359.133 1.359 1.475v1.342l-43.992.133z"/>
                                        <g>
                                            <path fill="#FFF" d="M0.358 1.181L36.891 1.181" transform="translate(666 247)"/>
                                            <path stroke="#000" stroke-linecap="round" stroke-width=".598" d="M0.358 1.181L36.891 1.181" transform="translate(666 247)"/>
                                        </g>
                                        <path fill="#E6E8EB" d="M690.064 238.41c-.886 0-1.606-.72-1.606-1.607s.72-1.608 1.606-1.608c.888 0 1.608.721 1.608 1.608 0 .886-.72 1.607-1.608 1.607"/>
                                        <path stroke="#000" stroke-linecap="round" stroke-width=".598" d="M690.064 238.41c-.886 0-1.606-.72-1.606-1.607s.72-1.608 1.606-1.608c.888 0 1.608.721 1.608 1.608 0 .886-.72 1.607-1.608 1.607z"/>
                                        <path fill="#E6E8EB" d="M683.184 235.137c-.533 0-1.028-.262-1.327-.701-.324-.473-.37-1.09-.118-1.61 1.522-3.19 4.79-5.251 8.326-5.251 3.534 0 6.802 2.059 8.325 5.249.185.387.208.824.064 1.229-.144.406-.436.73-.824.916-.21.103-.45.156-.691.156-.614-.001-1.184-.361-1.452-.917-.992-2.077-3.12-3.42-5.422-3.42-2.303 0-4.432 1.345-5.425 3.422-.245.523-.753.876-1.327.922l-.13.005z"/>
                                        <path stroke="#000" stroke-linecap="round" stroke-width=".598" d="M683.184 235.137c-.533 0-1.028-.262-1.327-.701-.324-.473-.37-1.09-.118-1.61 1.522-3.19 4.79-5.251 8.326-5.251 3.534 0 6.802 2.059 8.325 5.249.185.387.208.824.064 1.229-.144.406-.436.73-.824.916-.21.103-.45.156-.691.156-.614-.001-1.184-.361-1.452-.917-.992-2.077-3.12-3.42-5.422-3.42-2.303 0-4.432 1.345-5.425 3.422-.245.523-.753.876-1.327.922l-.13.005z"/>
                                        <path fill="#E6E8EB" d="M702.442 231.727c-.615-.001-1.187-.361-1.455-.917-2-4.182-6.29-6.883-10.926-6.883-4.637 0-8.925 2.702-10.927 6.885-.27.553-.824.894-1.442.894-.24 0-.475-.052-.694-.158-.792-.381-1.133-1.338-.76-2.134 2.531-5.287 7.958-8.702 13.823-8.702s11.293 3.419 13.827 8.708c.241.503.208 1.083-.088 1.554-.295.47-.8.752-1.356.753h-.002z"/>
                                        <path stroke="#000" stroke-linecap="round" stroke-width=".598" d="M702.442 231.727c-.615-.001-1.187-.361-1.455-.917-2-4.182-6.29-6.883-10.926-6.883-4.637 0-8.925 2.702-10.927 6.885-.27.553-.824.894-1.442.894-.24 0-.475-.052-.694-.158-.792-.381-1.133-1.338-.76-2.134 2.531-5.287 7.958-8.702 13.823-8.702s11.293 3.419 13.827 8.708c.241.503.208 1.083-.088 1.554-.295.47-.8.752-1.356.753h-.002z"/>
                                        <path stroke="#0A51B7" stroke-width=".779" d="M57.946 183.781L104.127 183.781"/>
                                    </g>
                                </g>
                            </g>
                        </g>
                    </g>
                </g>
            </g>
        </g>
    </g>
</svg>
