<svg xmlns="http://www.w3.org/2000/svg" xmlns:xlink="http://www.w3.org/1999/xlink" width="780" height="545" viewBox="0 0 780 545">
    <defs>
        <path id="prefix__a" d="M0 507.256L733.393 507.256 733.393 0 0 0z"/>
    </defs>
    <g fill="none" fill-rule="evenodd">
        <path fill="#F8F9FB" d="M0 0H780V545H0z"/>
        <g transform="translate(24 17)">
            <path fill="#092E6E" d="M342.794 291.326c0-.685-1.062-.972-3.367-.972-2.287 0-3.35.287-3.35.972s1.063.99 3.35.99c2.305 0 3.367-.305 3.367-.99zm2.395 0c0 1.765-2.107 2.72-5.762 2.72-3.637 0-5.744-.955-5.744-2.72 0-1.782 2.107-2.719 5.744-2.719 3.655 0 5.762.937 5.762 2.72zm1.764-5.312v1.855h-15v-1.855h6.304v-1.026h-4.43v-7.095h11.415v1.801h-9.056v.865h8.678v1.73h-8.678v.9h9.182v1.8h-4.735v1.025h6.32z"/>
            <mask id="prefix__b" fill="#fff">
                <use xlink:href="#prefix__a"/>
            </mask>
            <path fill="#092E6E" d="M359.911 289.562h2.395V277.48h-2.395v12.082zm2.81 2.304v1.891h-11.452v-5.348h2.377v3.457h9.075zm-5.241-4.806c-1.835-.631-3.096-1.856-3.817-3.405-.756 1.676-2.052 3.026-3.978 3.692l-1.207-1.891c2.754-.935 3.943-3.258 3.943-5.455v-1.621h2.413v1.621c0 2.179 1.152 4.303 3.853 5.168l-1.207 1.891zM384.05 277.445v16.637h-2.377v-9.526h-3.186v-1.909h3.186v-5.202h2.377zm-7.688 3.69c0 3.134 1.206 6.177 3.943 7.401l-1.404 1.89c-1.82-.881-3.026-2.502-3.71-4.501-.72 2.125-1.962 3.853-3.817 4.79l-1.476-1.91c2.808-1.296 4.069-4.519 4.069-7.67v-2.394h2.395v2.394zM389.662 288.283h3.259v-3.673h-3.259v3.673zm10.947-10.839v16.637h-2.377v-8.894h-2.97v4.987h-7.958v-11.415h2.358v3.997h3.259v-3.997h2.341v4.519h2.97v-5.834h2.377z" mask="url(#prefix__b)"/>
            <path fill="#E6E8EB" d="M343.759 227.084L343.759 258.424 381.591 258.424 381.591 226.794z" mask="url(#prefix__b)"/>
            <path fill="#000" d="M344.04 258.142h37.269v-31.063l-37.269.286v30.777zm37.833.564h-38.397v-31.902l38.397-.294v32.196z" mask="url(#prefix__b)"/>
            <path fill="#FFF" d="M382.691 227.315h-40.176c-1.534 0-2.789-1.256-2.789-2.79v-6.154c0-1.535 1.255-2.79 2.79-2.79h40.175c1.534 0 2.79 1.255 2.79 2.79v6.154c0 1.534-1.256 2.79-2.79 2.79" mask="url(#prefix__b)"/>
            <path fill="#000" d="M382.691 215.581h-40.176c-1.534 0-2.79 1.255-2.79 2.79v6.153c0 1.536 1.256 2.79 2.79 2.79h40.176c1.534 0 2.79-1.254 2.79-2.79v-6.154c0-1.534-1.256-2.789-2.79-2.789m0 .564c1.227 0 2.225.998 2.225 2.225v6.154c0 1.227-.998 2.225-2.225 2.225h-40.176c-1.226 0-2.224-.998-2.224-2.225v-6.154c0-1.227.998-2.225 2.224-2.225h40.176" mask="url(#prefix__b)"/>
            <path fill="#FFF" d="M382.691 241.57h-40.176c-1.534 0-2.789-1.256-2.789-2.79v-6.155c0-1.535 1.255-2.79 2.79-2.79h40.175c1.534 0 2.79 1.255 2.79 2.79v6.155c0 1.534-1.256 2.79-2.79 2.79" mask="url(#prefix__b)"/>
            <path fill="#000" d="M382.691 229.835h-40.176c-1.534 0-2.79 1.256-2.79 2.79v6.155c0 1.534 1.256 2.79 2.79 2.79h40.176c1.534 0 2.79-1.256 2.79-2.79v-6.156c0-1.533-1.256-2.789-2.79-2.789m0 .564c1.227 0 2.225.998 2.225 2.225v6.156c0 1.227-.998 2.225-2.225 2.225h-40.176c-1.226 0-2.224-.998-2.224-2.225v-6.156c0-1.227.998-2.225 2.224-2.225h40.176" mask="url(#prefix__b)"/>
            <path fill="#FFF" d="M382.691 255.744h-40.176c-1.534 0-2.789-1.255-2.789-2.789V246.8c0-1.535 1.255-2.789 2.79-2.789h40.175c1.534 0 2.79 1.254 2.79 2.79v6.154c0 1.534-1.256 2.79-2.79 2.79" mask="url(#prefix__b)"/>
            <path fill="#000" d="M382.691 244.01h-40.176c-1.534 0-2.79 1.256-2.79 2.79v6.154c0 1.536 1.256 2.79 2.79 2.79h40.176c1.534 0 2.79-1.254 2.79-2.79V246.8c0-1.534-1.256-2.79-2.79-2.79m0 .565c1.227 0 2.225.998 2.225 2.225v6.154c0 1.228-.998 2.226-2.225 2.226h-40.176c-1.226 0-2.224-.998-2.224-2.226V246.8c0-1.227.998-2.225 2.224-2.225h40.176" mask="url(#prefix__b)"/>
            <path fill="#0A51B7" d="M370.096 221.447c0 1.042-.845 1.888-1.888 1.888-1.042 0-1.887-.846-1.887-1.888 0-1.042.845-1.888 1.887-1.888 1.043 0 1.888.846 1.888 1.888" mask="url(#prefix__b)"/>
            <path fill="#000" d="M368.208 219.56c-1.042 0-1.888.846-1.888 1.888 0 1.042.846 1.887 1.888 1.887 1.043 0 1.888-.845 1.888-1.887s-.845-1.888-1.888-1.888m0 .564c.729 0 1.323.594 1.323 1.324 0 .729-.594 1.323-1.323 1.323s-1.322-.594-1.322-1.323c0-.73.593-1.324 1.322-1.324" mask="url(#prefix__b)"/>
            <path fill="#0A51B7" d="M375.917 221.447c0 1.042-.845 1.888-1.888 1.888-1.042 0-1.886-.846-1.886-1.888 0-1.042.844-1.888 1.886-1.888 1.043 0 1.888.846 1.888 1.888" mask="url(#prefix__b)"/>
            <path fill="#000" d="M374.03 219.56c-1.043 0-1.888.846-1.888 1.888 0 1.042.845 1.887 1.887 1.887 1.043 0 1.888-.845 1.888-1.887s-.845-1.888-1.888-1.888m0 .564c.73 0 1.323.594 1.323 1.324 0 .729-.594 1.323-1.323 1.323s-1.322-.594-1.322-1.323c0-.73.593-1.324 1.322-1.324" mask="url(#prefix__b)"/>
            <path fill="#0A51B7" d="M381.738 221.447c0 1.042-.845 1.888-1.887 1.888-1.043 0-1.887-.846-1.887-1.888 0-1.042.844-1.888 1.887-1.888 1.042 0 1.887.846 1.887 1.888" mask="url(#prefix__b)"/>
            <path fill="#000" d="M379.85 219.56c-1.041 0-1.886.846-1.886 1.888 0 1.042.845 1.887 1.887 1.887 1.043 0 1.888-.845 1.888-1.887s-.845-1.888-1.888-1.888m0 .564c.729 0 1.323.594 1.323 1.324 0 .729-.594 1.323-1.323 1.323-.73 0-1.322-.594-1.322-1.323 0-.73.593-1.324 1.322-1.324" mask="url(#prefix__b)"/>
            <path fill="#0A51B7" d="M370.096 235.702c0 1.042-.845 1.888-1.888 1.888-1.042 0-1.887-.846-1.887-1.888 0-1.042.845-1.888 1.887-1.888 1.043 0 1.888.846 1.888 1.888" mask="url(#prefix__b)"/>
            <path fill="#000" d="M368.208 233.816c-1.042 0-1.888.844-1.888 1.887 0 1.043.846 1.887 1.888 1.887 1.043 0 1.888-.844 1.888-1.887 0-1.043-.845-1.887-1.888-1.887m0 .564c.729 0 1.323.593 1.323 1.323 0 .729-.594 1.323-1.323 1.323s-1.322-.594-1.322-1.323c0-.73.593-1.323 1.322-1.323" mask="url(#prefix__b)"/>
            <path fill="#0A51B7" d="M375.917 235.702c0 1.042-.845 1.888-1.888 1.888-1.042 0-1.886-.846-1.886-1.888 0-1.042.844-1.888 1.886-1.888 1.043 0 1.888.846 1.888 1.888" mask="url(#prefix__b)"/>
            <path fill="#000" d="M374.03 233.816c-1.043 0-1.888.844-1.888 1.887 0 1.043.845 1.887 1.887 1.887 1.043 0 1.888-.844 1.888-1.887 0-1.043-.845-1.887-1.888-1.887m0 .564c.73 0 1.323.593 1.323 1.323 0 .729-.594 1.323-1.323 1.323s-1.322-.594-1.322-1.323c0-.73.593-1.323 1.322-1.323" mask="url(#prefix__b)"/>
            <path fill="#0A51B7" d="M381.738 235.702c0 1.042-.845 1.888-1.887 1.888-1.043 0-1.887-.846-1.887-1.888 0-1.042.844-1.888 1.887-1.888 1.042 0 1.887.846 1.887 1.888" mask="url(#prefix__b)"/>
            <path fill="#000" d="M379.85 233.816c-1.041 0-1.886.844-1.886 1.887 0 1.043.845 1.887 1.887 1.887 1.043 0 1.888-.844 1.888-1.887 0-1.043-.845-1.887-1.888-1.887m0 .564c.729 0 1.323.593 1.323 1.323 0 .729-.594 1.323-1.323 1.323-.73 0-1.322-.594-1.322-1.323 0-.73.593-1.323 1.322-1.323" mask="url(#prefix__b)"/>
            <path fill="#0A51B7" d="M370.096 249.877c0 1.043-.845 1.888-1.888 1.888-1.042 0-1.887-.845-1.887-1.888 0-1.042.845-1.887 1.887-1.887 1.043 0 1.888.845 1.888 1.887" mask="url(#prefix__b)"/>
            <path fill="#000" d="M368.208 247.99c-1.042 0-1.888.845-1.888 1.888 0 1.041.846 1.886 1.888 1.886 1.043 0 1.888-.845 1.888-1.886 0-1.043-.845-1.889-1.888-1.889m0 .564c.729 0 1.323.594 1.323 1.325 0 .728-.594 1.322-1.323 1.322s-1.322-.594-1.322-1.322c0-.73.593-1.325 1.322-1.325" mask="url(#prefix__b)"/>
            <path fill="#0A51B7" d="M375.917 249.877c0 1.043-.845 1.888-1.888 1.888-1.042 0-1.886-.845-1.886-1.888 0-1.042.844-1.887 1.886-1.887 1.043 0 1.888.845 1.888 1.887" mask="url(#prefix__b)"/>
            <path fill="#000" d="M374.03 247.99c-1.043 0-1.888.845-1.888 1.888 0 1.041.845 1.886 1.887 1.886 1.043 0 1.888-.845 1.888-1.886 0-1.043-.845-1.889-1.888-1.889m0 .564c.73 0 1.323.594 1.323 1.325 0 .728-.594 1.322-1.323 1.322s-1.322-.594-1.322-1.322c0-.73.593-1.325 1.322-1.325" mask="url(#prefix__b)"/>
            <path fill="#0A51B7" d="M381.738 249.877c0 1.043-.845 1.888-1.887 1.888-1.043 0-1.887-.845-1.887-1.888 0-1.042.844-1.887 1.887-1.887 1.042 0 1.887.845 1.887 1.887" mask="url(#prefix__b)"/>
            <path fill="#000" d="M379.85 247.99c-1.041 0-1.886.845-1.886 1.888 0 1.041.845 1.886 1.887 1.886 1.043 0 1.888-.845 1.888-1.886 0-1.043-.845-1.889-1.888-1.889m0 .564c.729 0 1.323.594 1.323 1.325 0 .728-.594 1.322-1.323 1.322-.73 0-1.322-.594-1.322-1.322 0-.73.593-1.325 1.322-1.325" mask="url(#prefix__b)"/>
            <path fill="#FFF" d="M344.562 218.35L344.562 224.545" mask="url(#prefix__b)"/>
            <path fill="#000" d="M344.28 224.545L344.844 224.545 344.844 218.35 344.28 218.35z" mask="url(#prefix__b)"/>
            <path fill="#FFF" d="M347.763 218.35L347.763 224.545" mask="url(#prefix__b)"/>
            <path fill="#000" d="M347.481 224.545L348.045 224.545 348.045 218.35 347.481 218.35z" mask="url(#prefix__b)"/>
            <path fill="#FFF" d="M350.964 218.35L350.964 224.545" mask="url(#prefix__b)"/>
            <path fill="#000" d="M350.682 224.545L351.246 224.545 351.246 218.35 350.682 218.35z" mask="url(#prefix__b)"/>
            <path fill="#FFF" d="M354.165 218.35L354.165 224.545" mask="url(#prefix__b)"/>
            <path fill="#000" d="M353.883 224.545L354.447 224.545 354.447 218.35 353.883 218.35z" mask="url(#prefix__b)"/>
            <path fill="#FFF" d="M357.366 218.35L357.366 224.545" mask="url(#prefix__b)"/>
            <path fill="#000" d="M357.084 224.545L357.648 224.545 357.648 218.35 357.084 218.35z" mask="url(#prefix__b)"/>
            <path fill="#FFF" d="M360.567 218.35L360.567 224.545" mask="url(#prefix__b)"/>
            <path fill="#000" d="M360.286 224.545L360.85 224.545 360.85 218.35 360.286 218.35z" mask="url(#prefix__b)"/>
            <path fill="#FFF" d="M346.162 218.35L346.162 224.545" mask="url(#prefix__b)"/>
            <path fill="#000" d="M345.88 224.545L346.444 224.545 346.444 218.35 345.88 218.35z" mask="url(#prefix__b)"/>
            <path fill="#FFF" d="M349.363 218.35L349.363 224.545" mask="url(#prefix__b)"/>
            <path fill="#000" d="M349.082 224.545L349.646 224.545 349.646 218.35 349.082 218.35z" mask="url(#prefix__b)"/>
            <path fill="#FFF" d="M352.565 218.35L352.565 224.545" mask="url(#prefix__b)"/>
            <path fill="#000" d="M352.283 224.545L352.847 224.545 352.847 218.35 352.283 218.35z" mask="url(#prefix__b)"/>
            <path fill="#FFF" d="M355.766 218.35L355.766 224.545" mask="url(#prefix__b)"/>
            <path fill="#000" d="M355.484 224.545L356.048 224.545 356.048 218.35 355.484 218.35z" mask="url(#prefix__b)"/>
            <path fill="#FFF" d="M358.967 218.35L358.967 224.545" mask="url(#prefix__b)"/>
            <path fill="#000" d="M358.685 224.545L359.249 224.545 359.249 218.35 358.685 218.35z" mask="url(#prefix__b)"/>
            <path fill="#FFF" d="M344.562 232.605L344.562 238.8" mask="url(#prefix__b)"/>
            <path fill="#000" d="M344.28 238.8L344.844 238.8 344.844 232.605 344.28 232.605z" mask="url(#prefix__b)"/>
            <path fill="#FFF" d="M347.763 232.605L347.763 238.8" mask="url(#prefix__b)"/>
            <path fill="#000" d="M347.481 238.8L348.045 238.8 348.045 232.605 347.481 232.605z" mask="url(#prefix__b)"/>
            <path fill="#FFF" d="M350.964 232.605L350.964 238.8" mask="url(#prefix__b)"/>
            <path fill="#000" d="M350.682 238.8L351.246 238.8 351.246 232.605 350.682 232.605z" mask="url(#prefix__b)"/>
            <path fill="#FFF" d="M354.165 232.605L354.165 238.8" mask="url(#prefix__b)"/>
            <path fill="#000" d="M353.883 238.8L354.447 238.8 354.447 232.605 353.883 232.605z" mask="url(#prefix__b)"/>
            <path fill="#FFF" d="M357.366 232.605L357.366 238.8" mask="url(#prefix__b)"/>
            <path fill="#000" d="M357.084 238.8L357.648 238.8 357.648 232.605 357.084 232.605z" mask="url(#prefix__b)"/>
            <path fill="#FFF" d="M360.567 232.605L360.567 238.8" mask="url(#prefix__b)"/>
            <path fill="#000" d="M360.286 238.8L360.85 238.8 360.85 232.605 360.286 232.605z" mask="url(#prefix__b)"/>
            <path fill="#FFF" d="M346.162 232.605L346.162 238.8" mask="url(#prefix__b)"/>
            <path fill="#000" d="M345.88 238.8L346.444 238.8 346.444 232.605 345.88 232.605z" mask="url(#prefix__b)"/>
            <path fill="#FFF" d="M349.363 232.605L349.363 238.8" mask="url(#prefix__b)"/>
            <path fill="#000" d="M349.082 238.8L349.646 238.8 349.646 232.605 349.082 232.605z" mask="url(#prefix__b)"/>
            <path fill="#FFF" d="M352.565 232.605L352.565 238.8" mask="url(#prefix__b)"/>
            <path fill="#000" d="M352.283 238.8L352.847 238.8 352.847 232.605 352.283 232.605z" mask="url(#prefix__b)"/>
            <path fill="#FFF" d="M355.766 232.605L355.766 238.8" mask="url(#prefix__b)"/>
            <path fill="#000" d="M355.484 238.8L356.048 238.8 356.048 232.605 355.484 232.605z" mask="url(#prefix__b)"/>
            <path fill="#FFF" d="M358.967 232.605L358.967 238.8" mask="url(#prefix__b)"/>
            <path fill="#000" d="M358.685 238.8L359.249 238.8 359.249 232.605 358.685 232.605z" mask="url(#prefix__b)"/>
            <path fill="#FFF" d="M344.562 246.859L344.562 253.054" mask="url(#prefix__b)"/>
            <path fill="#000" d="M344.28 253.055L344.844 253.055 344.844 246.86 344.28 246.86z" mask="url(#prefix__b)"/>
            <path fill="#FFF" d="M347.763 246.859L347.763 253.054" mask="url(#prefix__b)"/>
            <path fill="#000" d="M347.481 253.055L348.045 253.055 348.045 246.86 347.481 246.86z" mask="url(#prefix__b)"/>
            <path fill="#FFF" d="M350.964 246.859L350.964 253.054" mask="url(#prefix__b)"/>
            <path fill="#000" d="M350.682 253.055L351.246 253.055 351.246 246.86 350.682 246.86z" mask="url(#prefix__b)"/>
            <path fill="#FFF" d="M354.165 246.859L354.165 253.054" mask="url(#prefix__b)"/>
            <path fill="#000" d="M353.883 253.055L354.447 253.055 354.447 246.86 353.883 246.86z" mask="url(#prefix__b)"/>
            <path fill="#FFF" d="M357.366 246.859L357.366 253.054" mask="url(#prefix__b)"/>
            <path fill="#000" d="M357.084 253.055L357.648 253.055 357.648 246.86 357.084 246.86z" mask="url(#prefix__b)"/>
            <path fill="#FFF" d="M360.567 246.859L360.567 253.054" mask="url(#prefix__b)"/>
            <path fill="#000" d="M360.286 253.055L360.85 253.055 360.85 246.86 360.286 246.86z" mask="url(#prefix__b)"/>
            <path fill="#FFF" d="M346.162 246.859L346.162 253.054" mask="url(#prefix__b)"/>
            <path fill="#000" d="M345.88 253.055L346.444 253.055 346.444 246.86 345.88 246.86z" mask="url(#prefix__b)"/>
            <path fill="#FFF" d="M349.363 246.859L349.363 253.054" mask="url(#prefix__b)"/>
            <path fill="#000" d="M349.082 253.055L349.646 253.055 349.646 246.86 349.082 246.86z" mask="url(#prefix__b)"/>
            <path fill="#FFF" d="M352.565 246.859L352.565 253.054" mask="url(#prefix__b)"/>
            <path fill="#000" d="M352.283 253.055L352.847 253.055 352.847 246.86 352.283 246.86z" mask="url(#prefix__b)"/>
            <path fill="#FFF" d="M355.766 246.859L355.766 253.054" mask="url(#prefix__b)"/>
            <path fill="#000" d="M355.484 253.055L356.048 253.055 356.048 246.86 355.484 246.86z" mask="url(#prefix__b)"/>
            <path fill="#FFF" d="M358.967 246.859L358.967 253.054" mask="url(#prefix__b)"/>
            <path fill="#000" d="M358.685 253.055L359.249 253.055 359.249 246.86 358.685 246.86z" mask="url(#prefix__b)"/>
            <path fill="#E6E8EB" d="M377.4 246.994s.186-1.193 1.877-2.007c1.69-.813 5.93-1.964 11.108-1.249 5.18.715 6.54 2 6.54 2l.623 1.377v15.146s-.685 1.814-4.159 2.565c-3.473.751-10.388 1.002-13.706-.53 0 0-2.097-.878-2.284-2.192v-15.11z" mask="url(#prefix__b)"/>
            <path fill="#000" d="M377.682 262.09c.143.333 1.614 3.208 9.786 3.208 8.158 0 9.648-2.864 9.797-3.209v-15.187c-.105-.295-1.353-3.106-10.095-3.106-9.134 0-9.486 3.121-9.49 3.153l.002 15.141zm9.786 3.772c-9.116 0-10.293-3.489-10.338-3.637l-.012-.083v-15.211c.007-.165.296-3.699 10.052-3.699 9.713 0 10.619 3.419 10.654 3.564l.006.064-.013 15.366c-.046.148-1.232 3.636-10.35 3.636z" mask="url(#prefix__b)"/>
            <path fill="#000" d="M387.254 255.802c-8.857 0-10.073-3.262-10.122-3.402l.535-.182-.267.09.266-.093c.01.03 1.204 3.023 9.59 3.023l.346-.002c8.678-.082 9.666-2.977 9.674-3.006l.544.154c-.038.136-1.027 3.329-10.212 3.416l-.354.002M387.255 260.76c-8.858 0-10.074-3.263-10.123-3.403l.534-.185c.01.03 1.203 3.024 9.59 3.024l.346-.002c8.678-.083 9.666-2.978 9.674-3.007l.544.154c-.038.136-1.027 3.329-10.212 3.417l-.353.002M387.255 250.845c-8.858 0-10.074-3.263-10.123-3.403l.534-.185c.01.03 1.203 3.024 9.59 3.024l.346-.002c8.678-.083 9.666-2.978 9.674-3.007l.544.154c-.038.136-1.027 3.329-10.212 3.417l-.353.002" mask="url(#prefix__b)"/>
            <path fill="#C5C8CF" d="M426.4 243.083L602.006 243.083 602.006 242.333 426.4 242.333z" mask="url(#prefix__b)"/>
            <path fill="#C5C8CF" d="M596.03 242.708L596.03 237.945 600.154 240.327 604.278 242.708 600.154 245.089 596.03 247.47zM433.572 242.708L433.572 247.47 429.448 245.089 425.324 242.708 429.448 240.327 433.572 237.945z" mask="url(#prefix__b)"/>
            <path fill="#000" d="M327.342 129.346h4.881v-1.942h-4.881v1.942zm-1.212.985h7.305v-3.91h-7.305v3.91zm1.187 5.229h6.297v1.008h-7.532v-3.131h1.235v2.123zm7.388-4.162v.996h-4.197v2.027h-1.236v-2.027h-4.389v-.996h9.822zM343.994 136.759h1.176v-10.83h-1.176v10.83zm-2.182-10.613h1.163v10.097h-1.163v-5.492h-1.595v-1.008h1.595v-3.597zm-2.591 2.769c0 1.848.696 3.719 2.207 4.594l-.72.899c-1.02-.599-1.69-1.667-2.074-2.926-.384 1.367-1.08 2.531-2.123 3.191l-.744-.912c1.535-.959 2.254-2.914 2.254-4.846v-.779h-1.906v-1.02h4.893v1.02h-1.787v.779zM359.559 125.94v10.83h-1.176v-5.323h-1.151v4.82h-1.152V126.17h1.152v4.257h1.15v-4.486h1.177zm-5.338 5.89c0-.9-.516-1.498-1.247-1.498-.731 0-1.247.599-1.247 1.499 0 .899.516 1.487 1.247 1.487.73 0 1.247-.588 1.247-1.487zm1.104 0c0 1.488-.984 2.519-2.351 2.519s-2.351-1.031-2.351-2.518c0-1.5.984-2.52 2.35-2.52 1.368 0 2.352 1.02 2.352 2.52zm-1.74-4.125h2.028v.996h-5.301v-.996h2.05v-1.452h1.224v1.452zM370.646 135.68v.995h-7.329v-2.914h5.793v-.9h-5.817v-.983h7.053v2.807h-5.793v.995h6.093zm-4.043-7.304c-.671 1.655-2.267 2.758-4.653 3.298l-.431-1.007c2.565-.552 3.897-1.74 4.065-3.25h-3.478v-.996h4.846c0 .348-.024.684-.084.996h2.243v-1.476h1.235v5.494h-1.236v-.984h-2.65v-.96h2.65v-1.115h-2.507zM374.73 127.98c0 .612.898.936 2.577.936 1.68 0 2.58-.324 2.58-.936 0-.623-.9-.947-2.58-.947-1.679 0-2.578.324-2.578.947zm.083 7.748h6.476v.947h-7.7v-2.722h6.178v-.78h-6.202v-.935h7.413v2.59h-6.165v.9zm-1.366-7.748c0-1.211 1.426-1.871 3.86-1.871 2.423 0 3.863.66 3.863 1.87 0 1.2-1.44 1.86-3.863 1.86-2.434 0-3.86-.66-3.86-1.86zm-1.046 3.479h9.811v-.983h-9.81v.983zM394.538 136.783h1.235V125.94h-1.235v10.843zm-5.805-8.107c0 .768.672 1.259 1.608 1.259.947 0 1.607-.491 1.607-1.259 0-.756-.66-1.247-1.607-1.247-.936 0-1.608.491-1.608 1.247zm-1.187 0c0-1.331 1.176-2.267 2.795-2.267s2.795.936 2.795 2.267c0 1.343-1.176 2.278-2.795 2.278s-2.795-.935-2.795-2.278zm6.369 3.598c-.947.192-1.943.299-2.902.372v3.801h-1.236v-3.729c-1.019.035-1.979.047-2.818.047l-.145-1.019c1.956 0 4.678-.036 7.017-.384l.084.912zM407.846 129.396v1.02h-1.535v3.645h-1.236v-8.12h1.236v3.455h1.535zm-6.79 2.41c.865 0 1.452-.408 1.452-1.092 0-.683-.587-1.09-1.451-1.09-.852 0-1.44.407-1.44 1.09 0 .684.588 1.092 1.44 1.092zm-.358 3.754h6.044v1.008h-7.292v-3.131h1.248v2.123zm.359-2.795c-1.547 0-2.626-.814-2.626-2.051 0-1.222 1.079-2.05 2.626-2.05 1.56 0 2.627.828 2.627 2.05 0 1.237-1.067 2.05-2.627 2.05zm3.203-4.605h-6.393v-.983h2.579v-1.248h1.235v1.248h2.579v.983zM350.871 148.298v-6.369h1.235v8.24h-1.235v-1.008h-2.123v-.863h2.123zm-5.793-4.042c0 .611.611.995 1.511.995.887 0 1.5-.384 1.5-.995s-.613-.995-1.5-.995c-.9 0-1.51.384-1.51.995zm7.28 7.304v1.008h-7.82v-3.203h1.235v2.195h6.585zm-8.456-7.304c0-1.151 1.092-1.907 2.687-1.907 1.583 0 2.675.756 2.675 1.907s-1.092 1.907-2.675 1.907c-1.595 0-2.687-.756-2.687-1.907zm2.196 3.55c-1.032.048-2.015.06-2.867.06l-.156-1.007c1.991-.012 4.653-.037 6.944-.325l.096.888c-.91.156-1.859.264-2.782.313v2.085h-1.235v-2.014zM355.842 148.862h7.305v3.886h-1.236v-2.903h-6.07v-.983zm7.305-6.933v6.464h-1.236v-1.306h-2.627v-1.007h2.627v-1.297h-2.46c-.718 1.692-2.35 2.903-4.664 3.527l-.48-.983c2.518-.672 4.018-2.016 4.246-3.683h-3.67v-.995h4.989c0 .397-.036.791-.12 1.14h2.159v-1.86h1.236zM377.547 141.929v6.44h-1.235v-.875h-1.656v-1.007h1.656v-1.116h-1.631v-1.007h1.63v-2.435h1.236zm-5.89 9.739h4.666v-.947h-4.665v.947zm4.666-2.866h1.224v3.838h-7.112v-3.838h1.223v.983h4.665v-.983zm-4.677-1.44c.803 0 1.343-.395 1.343-1.031 0-.635-.54-1.032-1.343-1.032-.791 0-1.331.397-1.331 1.032 0 .636.54 1.032 1.33 1.032zm0 .923c-1.463 0-2.483-.78-2.483-1.954 0-1.175 1.02-1.955 2.483-1.955 1.475 0 2.495.78 2.495 1.955s-1.02 1.954-2.495 1.954zm2.963-4.353h-6.01v-.983h2.435v-1.116h1.236v1.116h2.339v.983zM382.768 151.643h4.594v-1.199h-4.594v1.199zm4.594-3.381h1.224v4.378h-7.04v-4.378h1.223v1.223h4.593v-1.223zm-3.142-3.311c0-.923-.696-1.51-1.631-1.51-.959 0-1.643.587-1.643 1.51 0 .912.684 1.524 1.643 1.524.935 0 1.631-.612 1.631-1.524zm4.366-3.009v5.804h-1.235v-2.302h-2.003c-.216 1.222-1.32 2.05-2.759 2.05-1.631 0-2.83-1.044-2.83-2.543 0-1.487 1.199-2.53 2.83-2.53 1.428 0 2.518.804 2.759 2.015h2.003v-2.494h1.235z" mask="url(#prefix__b)"/>
            <path fill="#FFF" d="M422.64 56.733c0 31.125-25.232 56.357-56.357 56.357s-56.358-25.232-56.358-56.357S335.158.376 366.283.376c31.125 0 56.357 25.232 56.357 56.357" mask="url(#prefix__b)"/>
            <path fill="#C5C8CF" d="M366.282.75C335.413.75 310.3 25.863 310.3 56.732c0 30.87 25.113 55.983 55.982 55.983 30.868 0 55.981-25.113 55.981-55.983 0-30.869-25.113-55.982-55.98-55.982m0 112.715c-31.283 0-56.733-25.45-56.733-56.733C309.55 25.45 335 0 366.282 0s56.731 25.45 56.731 56.732c0 31.283-25.449 56.733-56.73 56.733" mask="url(#prefix__b)"/>
            <path fill="#273A5B" d="M380.462 53.679c-1.316 0-2.373.55-3.146 1.639-.25-.48-.611-.867-1.081-1.154-.53-.322-1.15-.485-1.841-.485-.557 0-1.121.156-1.68.464-.465.258-.836.573-1.104.94v-1.104h-1.888v9.47h1.964v-5.248c0-.73.217-1.373.648-1.91.429-.537.943-.798 1.572-.798.696 0 1.194.178 1.48.528.293.357.44.959.44 1.787v5.642h1.966V58.2c0-.73.219-1.372.649-1.91.429-.536.943-.797 1.572-.797.694 0 1.193.178 1.479.528.293.356.443.959.443 1.787v5.642h1.963v-5.904c0-1.223-.3-2.182-.892-2.852-.595-.674-1.451-1.015-2.544-1.015M391.91 61.003c-.518.553-1.169.81-2.047.81-.88 0-1.53-.257-2.048-.81-.55-.586-.829-1.364-.829-2.314 0-.939.28-1.71.828-2.297.532-.565 1.183-.828 2.05-.828.864 0 1.516.263 2.046.828.55.586.83 1.358.83 2.297 0 .95-.28 1.728-.83 2.314m-2.047-7.324c-1.389 0-2.558.478-3.477 1.423-.906.942-1.364 2.15-1.364 3.587 0 1.437.458 2.644 1.365 3.586.918.944 2.087 1.423 3.476 1.423 1.388 0 2.552-.479 3.457-1.423.918-.929 1.384-2.136 1.384-3.586 0-1.438-.466-2.645-1.382-3.587-.907-.945-2.07-1.423-3.459-1.423M403.487 57.534c.163-.627.456-1.132.853-1.47.443-.379.981-.57 1.598-.57.752 0 1.36.2 1.802.597.395.353.65.862.725 1.443h-4.978zm7.066 1.356c0-1.632-.427-2.964-1.239-3.852-.825-.902-1.949-1.359-3.339-1.359-1.353 0-2.479.482-3.348 1.434-.854.936-1.305 2.196-1.305 3.647 0 1.408.44 2.557 1.344 3.513.893.946 2.045 1.424 3.422 1.424.941 0 1.797-.226 2.544-.673.596-.356 1.165-.9 1.561-1.492l.058-.086-1.407-1.299-.079.118c-.66.998-1.586 1.547-2.602 1.547-.836 0-1.465-.228-1.978-.719-.544-.52-.81-1.109-.856-1.895h7.194l.03-.308zM361.514 57.534c.163-.626.456-1.132.853-1.47.443-.379.98-.57 1.597-.57.753 0 1.36.2 1.802.597.397.353.65.862.725 1.443h-4.977zm2.488-3.855c-1.353 0-2.48.482-3.348 1.434-.854.936-1.306 2.196-1.306 3.647 0 1.408.44 2.557 1.345 3.513.892.946 2.044 1.424 3.422 1.424.94 0 1.796-.226 2.544-.673.596-.356 1.166-.9 1.56-1.492l.059-.086-1.407-1.299-.08.118c-.661.998-1.585 1.547-2.601 1.547-.836 0-1.464-.228-1.978-.719-.536-.514-.81-1.119-.856-1.895h7.194l.03-.308c0-1.633-.428-2.965-1.24-3.852-.825-.902-1.948-1.359-3.338-1.359zM398.637 51.399h-.23l-1.678 1.065-.056.036v1.637h-1.61v1.815h1.61v5.013c.013.855.28 1.534.797 2.016.489.459 1.125.696 1.94.726l.098.002c.413 0 .992-.081 1.295-.184l.082-.027v-1.9l-.17.075c-.118.053-.23.09-.341.115h-.001c-.188.04-.554.073-.69.067-.297-.015-.522-.106-.73-.297-.21-.193-.316-.582-.316-1.156v-4.45h2.248v-1.815h-2.248v-2.738zM350.147 56.637v-4.941h4.15c1.362 0 2.47 1.108 2.47 2.47 0 1.363-1.108 2.47-2.47 2.47h-4.15zm7.685.194c.594-.767.909-1.69.909-2.665 0-.975-.315-1.897-.91-2.665-.832-1.078-2.09-1.697-3.453-1.697h-6.207v13.66h1.976v-4.936h3.115l3.726 4.886.036.05h2.51l-3.909-5.12c.873-.26 1.65-.792 2.207-1.513z" mask="url(#prefix__b)"/>
            <path fill="#207FF4" d="M328.687 66.738L338.125 61.28 338.125 58.053 328.685 63.535 328.685 63.539 324.786 61.285 324.786 56.786 331.452 52.937 328.682 51.334 322.012 55.184 322.012 62.886 328.685 66.738z" mask="url(#prefix__b)"/>
            <path fill="#7DB3F6" d="M340.898 55.189L331.454 49.734 328.681 51.335 335.35 55.194 335.354 55.191 338.124 56.791 338.124 61.28 338.12 61.283 334.224 63.531 327.557 59.661 324.783 61.286 334.223 66.735 340.893 62.883z" mask="url(#prefix__b)"/>
            <path fill="#C0D8FF" d="M331.454 46.53L324.783 50.382 324.784 50.382 324.783 50.382 324.783 61.284 327.558 62.886 327.558 51.983 327.557 51.982 327.558 51.983 331.454 49.733 335.35 51.983 335.35 59.665 338.124 58.053 338.124 50.382z" mask="url(#prefix__b)"/>
            <path fill="#207FF4" d="M324.785 56.786L324.785 56.786 331.452 52.937 328.681 51.334 322.012 55.184z" mask="url(#prefix__b)"/>
            <path fill="#000" d="M24.651 315.605v1.02h-1.439v3.68h-1.248v-8.131h1.248v3.43h1.44zm-7.208 6.187h6.116v1.008h-7.363v-3.214h1.247v2.206zm1.751-5.108c.216-1.163.252-2.015.264-2.686h-4.234v-1.008h5.446v.624c0 .73 0 1.799-.264 3.202l-1.212-.132zm2.195 1.57c-2.255.397-4.809.456-6.692.456l-.132-1.006c.648 0 1.391 0 2.158-.025v-2.22h1.224v2.185c1.127-.05 2.291-.121 3.358-.29l.084.9zM33.413 323.028h1.247v-10.879h-1.247v10.879zm-5.829-3.597c1.715-.013 3.214-.097 4.93-.373l.132 1.008c-1.86.324-3.479.384-5.386.384h-.923v-4.295h3.777v-2.013h-3.802v-1.008h5.05v4.018h-3.778v2.279zM39.632 312.51L40.591 312.51 37.257 324.239 36.297 324.239zM48.809 321.241c0-.552-.852-.828-2.494-.828-1.632 0-2.484.276-2.484.828 0 .576.852.84 2.484.84 1.642 0 2.494-.264 2.494-.84zm1.235 0c0 1.151-1.367 1.763-3.73 1.763-2.351 0-3.73-.612-3.73-1.763 0-1.14 1.379-1.739 3.73-1.739 2.363 0 3.73.6 3.73 1.74zm1.176-3.406v.996h-9.8v-.996h4.283v-.888H42.68v-4.474h7.376v.948h-6.141v.816h5.877v.923h-5.877v.84h6.213v.947H46.95v.888h4.27zM60.544 322.992h1.176v-10.83h-1.176v10.83zm-2.183-10.614h1.163v10.099h-1.163v-5.493h-1.594v-1.008h1.594v-3.598zm-2.59 2.771c0 1.846.696 3.717 2.207 4.592l-.72.901c-1.02-.6-1.691-1.668-2.074-2.927-.384 1.367-1.08 2.53-2.123 3.19l-.745-.912c1.536-.959 2.255-2.914 2.255-4.844v-.781h-1.906v-1.019h4.893v1.019h-1.787v.781zM70.877 313.29h-6.129v-.852H72.1v2.387h-6.117v.768h6.309v.863h-7.519v-2.436h6.104v-.73zm-4.978 8.742h6.561v.852h-7.784v-2.483h6.237v-.767h-6.261v-.852h7.484v2.423h-6.237v.827zm-2.386-3.98h9.822v-.912h-9.822v.911zM85.649 323.017h1.235v-10.843h-1.235v10.843zm-5.805-8.108c0 .768.672 1.259 1.607 1.259.947 0 1.608-.491 1.608-1.259 0-.756-.661-1.248-1.608-1.248-.935 0-1.607.492-1.607 1.248zm-1.188 0c0-1.332 1.176-2.267 2.795-2.267s2.795.935 2.795 2.267c0 1.343-1.176 2.278-2.795 2.278s-2.795-.935-2.795-2.278zm6.369 3.598c-.947.191-1.943.299-2.902.371v3.803h-1.235v-3.731c-1.02.036-1.98.048-2.819.048l-.144-1.018c1.955 0 4.678-.037 7.016-.385l.084.912zM98.956 315.628v1.02h-1.535v3.646h-1.236v-8.12h1.236v3.454h1.535zm-6.789 2.41c.864 0 1.451-.407 1.451-1.09 0-.684-.587-1.09-1.45-1.09-.853 0-1.44.406-1.44 1.09 0 .683.587 1.09 1.44 1.09zm-.359 3.754h6.044v1.008H90.56v-3.13h1.248v2.122zm.36-2.794c-1.548 0-2.627-.815-2.627-2.05 0-1.224 1.08-2.05 2.626-2.05 1.56 0 2.627.826 2.627 2.05 0 1.235-1.067 2.05-2.627 2.05zm3.202-4.605h-6.393v-.984h2.58v-1.247h1.234v1.247h2.58v.984zM41.321 334.53v-6.369h1.235v8.24h-1.235v-1.008h-2.123v-.863h2.123zm-5.793-4.04c0 .61.611.993 1.511.993.887 0 1.5-.383 1.5-.994 0-.61-.613-.996-1.5-.996-.9 0-1.51.385-1.51.996zm7.28 7.302v1.008h-7.82v-3.202h1.235v2.194h6.585zm-8.456-7.303c0-1.152 1.092-1.908 2.687-1.908 1.583 0 2.675.756 2.675 1.908 0 1.15-1.092 1.906-2.675 1.906-1.595 0-2.687-.756-2.687-1.906zm2.196 3.55c-1.032.048-2.015.06-2.867.06l-.156-1.008c1.991-.012 4.653-.036 6.944-.325l.096.89c-.91.155-1.859.263-2.782.312v2.085h-1.235v-2.015zM46.292 335.095h7.305v3.885h-1.236v-2.903h-6.069v-.982zm7.305-6.934v6.465h-1.236v-1.306h-2.627v-1.008h2.627v-1.295h-2.459c-.719 1.69-2.35 2.902-4.665 3.525l-.48-.982c2.518-.672 4.018-2.016 4.246-3.682h-3.67v-.996h4.989c0 .397-.036.79-.12 1.139h2.159v-1.86h1.236zM67.997 328.161v6.441h-1.235v-.875h-1.656v-1.007h1.656v-1.116h-1.63v-1.007h1.63v-2.436h1.235zm-5.889 9.74h4.665v-.947h-4.665v.947zm4.665-2.867h1.224v3.838h-7.112v-3.838h1.223v.984h4.665v-.984zm-4.677-1.439c.803 0 1.343-.395 1.343-1.032 0-.634-.54-1.03-1.343-1.03-.79 0-1.33.396-1.33 1.03 0 .637.54 1.032 1.33 1.032zm0 .923c-1.463 0-2.483-.779-2.483-1.955 0-1.175 1.02-1.955 2.483-1.955 1.475 0 2.495.78 2.495 1.955 0 1.176-1.02 1.955-2.495 1.955zm2.963-4.353H59.05v-.984h2.434v-1.116h1.236v1.116h2.34v.984zM73.219 337.876h4.594v-1.199h-4.594v1.199zm4.594-3.381h1.223v4.377h-7.04v-4.377h1.223v1.223h4.594v-1.223zm-3.143-3.31c0-.924-.695-1.512-1.631-1.512-.959 0-1.643.588-1.643 1.512 0 .912.684 1.523 1.643 1.523.936 0 1.631-.611 1.631-1.523zm4.366-3.01v5.805h-1.235v-2.303h-2.003c-.216 1.223-1.319 2.051-2.759 2.051-1.631 0-2.83-1.045-2.83-2.543 0-1.489 1.199-2.532 2.83-2.532 1.428 0 2.519.805 2.759 2.016h2.003v-2.494h1.235z" mask="url(#prefix__b)"/>
            <path fill="#FFF" d="M113.089 240.966c0 31.125-25.231 56.357-56.357 56.357-31.125 0-56.357-25.232-56.357-56.357s25.232-56.357 56.357-56.357c31.126 0 56.357 25.232 56.357 56.357" mask="url(#prefix__b)"/>
            <path fill="#C5C8CF" d="M56.731 184.983c-30.868 0-55.98 25.113-55.98 55.982 0 30.87 25.112 55.984 55.98 55.984 30.87 0 55.982-25.113 55.982-55.984 0-30.869-25.113-55.982-55.982-55.982m0 112.716c-31.282 0-56.73-25.45-56.73-56.734 0-31.281 25.448-56.732 56.73-56.732 31.282 0 56.732 25.45 56.732 56.732 0 31.283-25.45 56.734-56.732 56.734" mask="url(#prefix__b)"/>
            <path fill="#273A5B" d="M70.912 237.912c-1.316 0-2.374.551-3.147 1.64-.248-.48-.61-.869-1.08-1.155-.53-.322-1.149-.485-1.842-.485-.556 0-1.12.155-1.679.464-.466.258-.836.573-1.104.94v-1.104h-1.889v9.47h1.964v-5.248c0-.73.218-1.374.648-1.91.43-.537.943-.798 1.572-.798.696 0 1.194.178 1.481.527.292.358.441.96.441 1.788v5.641h1.964v-5.248c0-.73.22-1.374.65-1.91.428-.537.943-.798 1.571-.798.695 0 1.193.178 1.48.527.293.357.442.96.442 1.788v5.641h1.964v-5.904c0-1.223-.3-2.182-.892-2.85-.596-.675-1.45-1.016-2.544-1.016M82.36 245.237c-.519.552-1.169.81-2.048.81s-1.53-.258-2.047-.81c-.55-.587-.83-1.365-.83-2.315 0-.939.28-1.71.83-2.297.531-.565 1.181-.827 2.047-.827.866 0 1.517.262 2.048.827.55.587.83 1.358.83 2.297 0 .95-.28 1.728-.83 2.315m-2.048-7.325c-1.388 0-2.557.478-3.477 1.423-.905.942-1.363 2.148-1.363 3.587 0 1.438.458 2.644 1.364 3.585.92.945 2.088 1.423 3.476 1.423 1.39 0 2.552-.478 3.458-1.422.918-.929 1.383-2.136 1.383-3.587 0-1.438-.465-2.643-1.382-3.585-.907-.946-2.07-1.424-3.459-1.424M93.938 241.767c.162-.626.456-1.132.852-1.47.442-.378.98-.57 1.597-.57.754 0 1.36.2 1.802.598.397.353.652.862.726 1.442h-4.978zm7.066 1.356c0-1.631-.428-2.964-1.24-3.851-.825-.902-1.948-1.36-3.34-1.36-1.352 0-2.479.483-3.347 1.435-.853.935-1.305 2.195-1.305 3.646 0 1.409.438 2.558 1.343 3.514.894.945 2.046 1.424 3.422 1.424.942 0 1.797-.227 2.544-.673.596-.356 1.166-.9 1.563-1.492l.057-.086-1.407-1.3-.078.118c-.662.998-1.587 1.548-2.602 1.548-.838 0-1.466-.23-1.979-.72-.544-.52-.81-1.108-.856-1.895h7.195l.03-.308zM51.964 241.767c.163-.626.456-1.132.852-1.47.443-.378.98-.57 1.598-.57.752 0 1.359.2 1.802.598.396.353.65.862.725 1.442h-4.977zm2.487-3.854c-1.352 0-2.48.482-3.348 1.434-.854.936-1.305 2.196-1.305 3.646 0 1.409.439 2.558 1.344 3.514.893.945 2.045 1.424 3.422 1.424.94 0 1.797-.227 2.544-.673.596-.356 1.166-.901 1.562-1.492l.057-.086-1.407-1.3-.078.118c-.662.998-1.587 1.548-2.603 1.548-.836 0-1.464-.23-1.977-.72-.537-.513-.81-1.118-.857-1.895h7.194l.03-.308c0-1.632-.427-2.964-1.24-3.851-.824-.902-1.947-1.36-3.338-1.36zM89.086 235.632h-.23l-1.678 1.064-.055.037v1.637h-1.611v1.815h1.61v5.013c.014.855.28 1.534.797 2.016.49.459 1.125.695 1.94.726l.099.002c.412 0 .99-.081 1.295-.184l.08-.028v-1.899l-.17.074c-.117.054-.228.091-.34.115-.188.041-.555.074-.69.068-.297-.015-.523-.106-.73-.297-.21-.193-.317-.582-.317-1.156v-4.45h2.248v-1.815h-2.248v-2.738zM40.596 240.87v-4.94h4.15c1.364 0 2.472 1.107 2.472 2.47 0 1.362-1.108 2.47-2.472 2.47h-4.15zm7.685.194c.595-.767.91-1.689.91-2.665 0-.975-.315-1.897-.91-2.665-.832-1.079-2.091-1.697-3.453-1.697H38.62v13.661h1.975v-4.937h3.117l3.724 4.886.037.051h2.509l-3.908-5.12c.872-.26 1.65-.794 2.206-1.514z" mask="url(#prefix__b)"/>
            <path fill="#207FF4" d="M19.136 250.971L28.574 245.514 28.574 242.287 19.136 247.769 19.136 247.772 15.236 245.519 15.236 241.02 21.902 237.171 19.132 235.568 12.462 239.418 12.461 239.418 12.461 247.12 19.136 250.971 19.136 250.972 19.136 250.971 19.136 250.972z" mask="url(#prefix__b)"/>
            <path fill="#7DB3F6" d="M31.348 239.422L21.904 233.966 19.132 235.568 25.8 239.426 25.804 239.424 28.575 241.024 28.575 245.513 28.57 245.515 24.675 247.764 18.007 243.894 15.234 245.519 24.673 250.968 31.344 247.116z" mask="url(#prefix__b)"/>
            <path fill="#C0D8FF" d="M21.903 230.764L15.233 234.615 15.234 234.616 15.233 234.615 15.233 245.518 18.007 247.119 18.007 236.216 21.903 233.967 25.799 236.216 25.799 243.898 28.574 242.287 28.574 234.615z" mask="url(#prefix__b)"/>
            <path fill="#207FF4" d="M15.235 241.02L15.235 241.02 21.901 237.171 19.131 235.568 12.462 239.418 12.461 239.418z" mask="url(#prefix__b)"/>
            <path fill="#000" d="M637.721 315.58h4.881v-1.942h-4.881v1.942zm-1.213.984h7.305v-3.91h-7.305v3.91zm1.188 5.228h6.297v1.008h-7.532v-3.13h1.235v2.122zm7.388-4.161v.995h-4.197v2.027h-1.236v-2.027h-4.389v-.995h9.822zM654.373 322.992h1.176v-10.83h-1.176v10.83zm-2.183-10.614h1.164v10.099h-1.164v-5.493h-1.594v-1.008h1.594v-3.598zm-2.59 2.771c0 1.846.696 3.717 2.207 4.592l-.72.901c-1.02-.6-1.691-1.668-2.074-2.927-.384 1.367-1.08 2.53-2.123 3.19l-.744-.912c1.535-.959 2.254-2.914 2.254-4.844v-.781h-1.906v-1.019h4.893v1.019H649.6v.781zM669.938 312.174v10.83h-1.177v-5.325h-1.15v4.822h-1.153v-10.099h1.153v4.257h1.15v-4.485h1.177zm-5.338 5.89c0-.901-.517-1.5-1.248-1.5-.73 0-1.246.599-1.246 1.5 0 .898.515 1.486 1.246 1.486s1.248-.588 1.248-1.486zm1.103 0c0 1.486-.983 2.517-2.35 2.517s-2.351-1.031-2.351-2.517c0-1.5.984-2.52 2.35-2.52 1.368 0 2.351 1.02 2.351 2.52zm-1.738-4.127h2.026v.996h-5.3v-.996h2.05v-1.451h1.224v1.451zM681.024 321.913v.995h-7.328v-2.915h5.793v-.898h-5.818v-.985h7.053v2.807h-5.793v.996h6.093zm-4.042-7.305c-.672 1.656-2.267 2.76-4.653 3.3l-.432-1.009c2.566-.55 3.898-1.739 4.065-3.25h-3.477v-.996h4.845c0 .348-.024.684-.084.996h2.243v-1.475h1.235v5.493h-1.235v-.983h-2.65v-.96h2.65v-1.116h-2.507zM685.108 314.213c0 .612.9.936 2.578.936 1.68 0 2.58-.324 2.58-.936 0-.624-.9-.947-2.58-.947-1.679 0-2.578.323-2.578.947zm.084 7.747h6.476v.948h-7.7v-2.722h6.177v-.78h-6.2v-.935h7.411v2.591h-6.164v.898zm-1.367-7.747c0-1.212 1.427-1.871 3.861-1.871 2.423 0 3.862.659 3.862 1.871 0 1.199-1.439 1.858-3.862 1.858-2.434 0-3.86-.659-3.86-1.858zm-1.045 3.478h9.811v-.982h-9.81v.982zM704.917 323.017h1.235v-10.843h-1.235v10.843zm-5.805-8.108c0 .768.672 1.259 1.608 1.259.947 0 1.607-.491 1.607-1.259 0-.756-.66-1.248-1.607-1.248-.936 0-1.608.492-1.608 1.248zm-1.187 0c0-1.332 1.176-2.267 2.795-2.267s2.795.935 2.795 2.267c0 1.343-1.176 2.278-2.795 2.278s-2.795-.935-2.795-2.278zm6.369 3.598c-.947.191-1.943.299-2.902.371v3.803h-1.236v-3.731c-1.019.036-1.979.048-2.818.048l-.145-1.018c1.955 0 4.678-.037 7.017-.385l.084.912zM718.225 315.628v1.02h-1.535v3.646h-1.236v-8.12h1.236v3.454h1.535zm-6.79 2.41c.865 0 1.452-.407 1.452-1.09 0-.684-.587-1.09-1.451-1.09-.852 0-1.44.406-1.44 1.09 0 .683.588 1.09 1.44 1.09zm-.358 3.754h6.044v1.008h-7.292v-3.13h1.248v2.122zm.359-2.794c-1.547 0-2.626-.815-2.626-2.05 0-1.224 1.079-2.05 2.626-2.05 1.56 0 2.627.826 2.627 2.05 0 1.235-1.067 2.05-2.627 2.05zm3.203-4.605h-6.393v-.984h2.579v-1.247h1.235v1.247h2.579v.984zM661.25 334.53v-6.369h1.235v8.24h-1.235v-1.008h-2.123v-.863h2.123zm-5.793-4.04c0 .61.611.993 1.511.993.887 0 1.5-.383 1.5-.994 0-.61-.613-.996-1.5-.996-.9 0-1.511.385-1.511.996zm7.28 7.302v1.008h-7.82v-3.202h1.235v2.194h6.585zm-8.456-7.303c0-1.152 1.092-1.908 2.687-1.908 1.583 0 2.675.756 2.675 1.908 0 1.15-1.092 1.906-2.675 1.906-1.595 0-2.687-.756-2.687-1.906zm2.196 3.55c-1.032.048-2.015.06-2.867.06l-.156-1.008c1.991-.012 4.653-.036 6.944-.325l.096.89c-.911.155-1.859.263-2.782.312v2.085h-1.235v-2.015zM666.22 335.095h7.306v3.885h-1.236v-2.903h-6.07v-.982zm7.306-6.934v6.465h-1.236v-1.306h-2.627v-1.008h2.627v-1.295h-2.46c-.718 1.69-2.35 2.902-4.664 3.525l-.48-.982c2.518-.672 4.018-2.016 4.246-3.682h-3.67v-.996h4.989c0 .397-.036.79-.12 1.139h2.159v-1.86h1.236zM687.926 328.161v6.441h-1.235v-.875h-1.656v-1.007h1.656v-1.116h-1.631v-1.007h1.63v-2.436h1.236zm-5.89 9.74h4.666v-.947h-4.665v.947zm4.666-2.867h1.224v3.838h-7.112v-3.838h1.223v.984h4.665v-.984zm-4.677-1.439c.803 0 1.343-.395 1.343-1.032 0-.634-.54-1.03-1.343-1.03-.791 0-1.331.396-1.331 1.03 0 .637.54 1.032 1.33 1.032zm0 .923c-1.463 0-2.483-.779-2.483-1.955 0-1.175 1.02-1.955 2.483-1.955 1.475 0 2.495.78 2.495 1.955 0 1.176-1.02 1.955-2.495 1.955zm2.963-4.353h-6.01v-.984h2.435v-1.116h1.236v1.116h2.339v.984zM693.147 337.876h4.594v-1.199h-4.594v1.199zm4.594-3.381h1.224v4.377h-7.04v-4.377h1.222v1.223h4.594v-1.223zm-3.142-3.31c0-.924-.696-1.512-1.631-1.512-.959 0-1.643.588-1.643 1.512 0 .912.684 1.523 1.643 1.523.935 0 1.631-.611 1.631-1.523zm4.366-3.01v5.805h-1.236v-2.303h-2.002c-.216 1.223-1.32 2.051-2.759 2.051-1.631 0-2.83-1.045-2.83-2.543 0-1.489 1.199-2.532 2.83-2.532 1.428 0 2.518.805 2.759 2.016h2.002v-2.494h1.236z" mask="url(#prefix__b)"/>
            <path fill="#FFF" d="M733.018 240.966c0 31.125-25.231 56.357-56.356 56.357-31.126 0-56.358-25.232-56.358-56.357s25.232-56.357 56.358-56.357c31.125 0 56.356 25.232 56.356 56.357" mask="url(#prefix__b)"/>
            <path fill="#C5C8CF" d="M676.661 184.983c-30.869 0-55.982 25.113-55.982 55.982 0 30.87 25.113 55.984 55.982 55.984 30.868 0 55.981-25.113 55.981-55.984 0-30.869-25.113-55.982-55.98-55.982m0 112.716c-31.283 0-56.733-25.45-56.733-56.734 0-31.281 25.45-56.732 56.732-56.732s56.731 25.45 56.731 56.732c0 31.283-25.449 56.734-56.73 56.734" mask="url(#prefix__b)"/>
            <path fill="#273A5B" d="M690.84 237.912c-1.315 0-2.373.551-3.146 1.64-.248-.48-.61-.869-1.08-1.155-.53-.322-1.15-.485-1.842-.485-.556 0-1.12.155-1.68.464-.465.258-.835.573-1.103.94v-1.104h-1.89v9.47h1.965v-5.248c0-.73.218-1.374.648-1.91.43-.537.943-.798 1.572-.798.696 0 1.195.178 1.48.527.294.358.442.96.442 1.788v5.641h1.964v-5.248c0-.73.219-1.374.65-1.91.428-.537.943-.798 1.57-.798.696 0 1.194.178 1.48.527.294.357.443.96.443 1.788v5.641h1.964v-5.904c0-1.223-.3-2.182-.892-2.85-.596-.675-1.451-1.016-2.544-1.016M702.29 245.237c-.52.552-1.17.81-2.049.81s-1.53-.258-2.047-.81c-.55-.587-.829-1.365-.829-2.315 0-.939.278-1.71.828-2.297.532-.565 1.183-.827 2.048-.827.866 0 1.517.262 2.048.827.55.587.83 1.358.83 2.297 0 .95-.28 1.728-.83 2.315m-2.048-7.325c-1.388 0-2.557.478-3.476 1.423-.906.942-1.364 2.148-1.364 3.587 0 1.438.458 2.644 1.364 3.585.92.945 2.088 1.423 3.476 1.423 1.39 0 2.553-.478 3.458-1.422.918-.929 1.383-2.136 1.383-3.587 0-1.438-.465-2.643-1.382-3.585-.906-.946-2.07-1.424-3.459-1.424M713.866 241.767c.163-.626.456-1.132.852-1.47.444-.378.982-.57 1.598-.57.753 0 1.36.2 1.802.598.396.353.651.862.725 1.442h-4.977zm7.066 1.356c0-1.631-.428-2.964-1.24-3.851-.825-.902-1.948-1.36-3.339-1.36-1.352 0-2.479.483-3.347 1.435-.854.935-1.305 2.195-1.305 3.646 0 1.409.438 2.558 1.343 3.514.893.945 2.045 1.424 3.422 1.424.942 0 1.797-.227 2.544-.673.596-.356 1.166-.9 1.562-1.492l.058-.086-1.408-1.3-.078.118c-.662.998-1.586 1.548-2.602 1.548-.837 0-1.465-.23-1.978-.72-.544-.52-.81-1.108-.856-1.895h7.194l.03-.308zM671.893 241.767c.163-.626.456-1.132.852-1.47.443-.378.98-.57 1.598-.57.753 0 1.359.2 1.802.598.396.353.65.862.725 1.442h-4.977zm2.488-3.854c-1.353 0-2.48.482-3.348 1.434-.855.936-1.306 2.196-1.306 3.646 0 1.409.439 2.558 1.345 3.514.892.945 2.044 1.424 3.42 1.424.942 0 1.798-.227 2.545-.673.596-.356 1.167-.901 1.562-1.492l.057-.086-1.407-1.3-.078.118c-.662.998-1.587 1.548-2.603 1.548-.836 0-1.464-.23-1.977-.72-.537-.513-.81-1.118-.857-1.895h7.195l.03-.308c0-1.632-.428-2.964-1.24-3.851-.825-.902-1.948-1.36-3.338-1.36zM709.015 235.632h-.23l-1.677 1.064-.056.037v1.637h-1.611v1.815h1.61v5.013c.014.855.282 1.534.797 2.016.49.459 1.125.695 1.942.726l.097.002c.413 0 .992-.081 1.295-.184l.08-.028v-1.899l-.168.074c-.12.054-.23.091-.341.115h-.001c-.188.041-.555.074-.69.068-.297-.015-.523-.106-.73-.297-.21-.193-.317-.582-.317-1.156v-4.45h2.248v-1.815h-2.248v-2.738zM660.524 240.87v-4.94h4.151c1.363 0 2.471 1.107 2.471 2.47 0 1.362-1.108 2.47-2.47 2.47h-4.152zm7.686.194c.594-.767.91-1.689.91-2.665 0-.975-.316-1.897-.91-2.665-.833-1.079-2.09-1.697-3.454-1.697h-6.207v13.661h1.975v-4.937h3.117l3.725 4.886.036.051h2.51l-3.909-5.12c.873-.26 1.651-.794 2.207-1.514z" mask="url(#prefix__b)"/>
            <path fill="#207FF4" d="M639.064 250.971L648.503 245.514 648.503 242.287 639.064 247.769 639.064 247.772 635.164 245.519 635.164 241.02 641.831 237.171 639.061 235.568 632.39 239.418 632.389 239.418 632.389 247.12 639.064 250.971 639.064 250.972 639.064 250.971 639.064 250.972z" mask="url(#prefix__b)"/>
            <path fill="#7DB3F6" d="M651.277 239.422L641.833 233.966 639.06 235.568 645.728 239.426 645.732 239.424 648.503 241.024 648.503 245.513 648.499 245.515 644.603 247.764 637.936 243.894 635.162 245.519 644.602 250.968 651.272 247.116z" mask="url(#prefix__b)"/>
            <path fill="#C0D8FF" d="M641.833 230.764L635.162 234.615 635.163 234.616 635.162 234.615 635.162 245.518 637.937 247.119 637.937 236.216 637.936 236.216 637.937 236.216 641.832 233.967 645.729 236.216 645.729 243.898 648.503 242.287 648.503 234.615z" mask="url(#prefix__b)"/>
            <path fill="#207FF4" d="M635.164 241.02L635.164 241.02 641.83 237.171 639.06 235.568 632.391 239.418 632.39 239.418z" mask="url(#prefix__b)"/>
            <path fill="#000" d="M327.342 483.856h4.881v-1.943h-4.881v1.943zm-1.212.983h7.305v-3.909h-7.305v3.909zm1.187 5.23h6.297v1.007h-7.532v-3.13h1.235v2.123zm7.388-4.162v.995h-4.197v2.027h-1.236v-2.027h-4.389v-.995h9.822zM343.994 491.269h1.176v-10.83h-1.176v10.83zm-2.182-10.616h1.163v10.1h-1.163v-5.494h-1.595v-1.007h1.595v-3.599zm-2.591 2.772c0 1.847.696 3.717 2.207 4.593l-.72.899c-1.02-.599-1.69-1.667-2.074-2.926-.384 1.368-1.08 2.531-2.123 3.19l-.744-.911c1.535-.96 2.254-2.915 2.254-4.845v-.78h-1.906v-1.02h4.893v1.02h-1.787v.78zM359.559 480.45v10.83h-1.176v-5.325h-1.151v4.821h-1.152v-10.098h1.152v4.257h1.15v-4.485h1.177zm-5.338 5.89c0-.902-.516-1.5-1.247-1.5-.731 0-1.247.598-1.247 1.5 0 .898.516 1.485 1.247 1.485.73 0 1.247-.587 1.247-1.486zm1.104 0c0 1.485-.984 2.517-2.351 2.517s-2.351-1.032-2.351-2.518c0-1.5.984-2.52 2.35-2.52 1.368 0 2.352 1.02 2.352 2.52zm-1.74-4.127h2.028v.995h-5.301v-.995h2.05v-1.45h1.224v1.45zM370.646 490.189v.996h-7.329v-2.915h5.793v-.9h-5.817v-.983h7.053v2.806h-5.793v.996h6.093zm-4.043-7.304c-.671 1.656-2.267 2.759-4.653 3.298l-.431-1.008c2.565-.55 3.897-1.738 4.065-3.25h-3.478v-.995h4.846c0 .348-.024.684-.084.995h2.243v-1.474h1.235v5.492h-1.236v-.983h-2.65V484h2.65v-1.115h-2.507zM374.73 482.49c0 .61.898.935 2.577.935 1.68 0 2.58-.325 2.58-.936 0-.624-.9-.947-2.58-.947-1.679 0-2.578.323-2.578.947zm.083 7.746h6.476v.948h-7.7v-2.722h6.178v-.78h-6.202v-.935h7.413v2.59h-6.165v.9zm-1.366-7.747c0-1.212 1.426-1.87 3.86-1.87 2.423 0 3.863.658 3.863 1.87 0 1.2-1.44 1.858-3.863 1.858-2.434 0-3.86-.659-3.86-1.858zm-1.046 3.478h9.811v-.983h-9.81v.983zM394.538 491.292h1.235V480.45h-1.235v10.842zm-5.805-8.107c0 .767.672 1.259 1.608 1.259.947 0 1.607-.492 1.607-1.259 0-.756-.66-1.248-1.607-1.248-.936 0-1.608.492-1.608 1.248zm-1.187 0c0-1.332 1.176-2.268 2.795-2.268s2.795.936 2.795 2.268c0 1.343-1.176 2.278-2.795 2.278s-2.795-.935-2.795-2.278zm6.369 3.597c-.947.192-1.943.3-2.902.372v3.802h-1.236v-3.73c-1.019.037-1.979.049-2.818.049l-.145-1.02c1.956 0 4.678-.036 7.017-.384l.084.911zM407.846 483.904v1.02h-1.535v3.646h-1.236v-8.12h1.236v3.454h1.535zm-6.79 2.41c.865 0 1.452-.406 1.452-1.09 0-.683-.587-1.091-1.451-1.091-.852 0-1.44.408-1.44 1.09 0 .685.588 1.091 1.44 1.091zm-.358 3.754h6.044v1.009h-7.292v-3.13h1.248v2.121zm.359-2.793c-1.547 0-2.626-.816-2.626-2.051 0-1.224 1.079-2.05 2.626-2.05 1.56 0 2.627.827 2.627 2.05 0 1.235-1.067 2.05-2.627 2.05zm3.203-4.605h-6.393v-.986h2.579v-1.246h1.235v1.247h2.579v.985zM350.871 502.807v-6.37h1.235v8.24h-1.235v-1.007h-2.123v-.863h2.123zm-5.793-4.042c0 .61.611.995 1.511.995.887 0 1.5-.384 1.5-.995s-.613-.995-1.5-.995c-.9 0-1.51.384-1.51.995zm7.28 7.304v1.008h-7.82v-3.203h1.235v2.195h6.585zm-8.456-7.304c0-1.151 1.092-1.907 2.687-1.907 1.583 0 2.675.756 2.675 1.907 0 1.15-1.092 1.907-2.675 1.907-1.595 0-2.687-.756-2.687-1.907zm2.196 3.55c-1.032.048-2.015.06-2.867.06l-.156-1.007c1.991-.012 4.653-.037 6.944-.325l.096.888c-.91.156-1.859.264-2.782.313v2.085h-1.235v-2.014zM355.842 503.37h7.305v3.886h-1.236v-2.903h-6.07v-.983zm7.305-6.933v6.465h-1.236v-1.307h-2.627v-1.007h2.627v-1.296h-2.46c-.718 1.691-2.35 2.902-4.664 3.526l-.48-.983c2.518-.672 4.018-2.015 4.246-3.682h-3.67v-.996h4.989c0 .397-.036.792-.12 1.14h2.159v-1.86h1.236zM377.547 496.438v6.44h-1.235v-.875h-1.656v-1.007h1.656v-1.116h-1.631v-1.007h1.63v-2.435h1.236zm-5.89 9.739h4.666v-.947h-4.665v.947zm4.666-2.866h1.224v3.838h-7.112v-3.838h1.223v.983h4.665v-.983zm-4.677-1.44c.803 0 1.343-.395 1.343-1.031 0-.635-.54-1.032-1.343-1.032-.791 0-1.331.397-1.331 1.032 0 .636.54 1.032 1.33 1.032zm0 .923c-1.463 0-2.483-.78-2.483-1.954 0-1.175 1.02-1.955 2.483-1.955 1.475 0 2.495.78 2.495 1.955s-1.02 1.954-2.495 1.954zm2.963-4.353h-6.01v-.983h2.435v-1.116h1.236v1.116h2.339v.983zM382.768 506.152h4.594v-1.199h-4.594v1.199zm4.594-3.381h1.224v4.378h-7.04v-4.378h1.223v1.223h4.593v-1.223zm-3.142-3.311c0-.923-.696-1.511-1.631-1.511-.959 0-1.643.588-1.643 1.511 0 .912.684 1.524 1.643 1.524.935 0 1.631-.612 1.631-1.524zm4.366-3.01v5.805h-1.235v-2.303h-2.003c-.216 1.223-1.32 2.051-2.759 2.051-1.631 0-2.83-1.044-2.83-2.543 0-1.487 1.199-2.53 2.83-2.53 1.428 0 2.518.804 2.759 2.014h2.003v-2.494h1.235z" mask="url(#prefix__b)"/>
            <path fill="#FFF" d="M422.64 411.241c0 31.125-25.232 56.357-56.357 56.357s-56.358-25.232-56.358-56.357 25.233-56.357 56.358-56.357c31.125 0 56.357 25.232 56.357 56.357" mask="url(#prefix__b)"/>
            <path fill="#C5C8CF" d="M366.282 355.259c-30.869 0-55.982 25.113-55.982 55.982 0 30.87 25.113 55.983 55.982 55.983 30.868 0 55.981-25.113 55.981-55.983 0-30.87-25.113-55.982-55.98-55.982m0 112.715c-31.283 0-56.733-25.45-56.733-56.733 0-31.282 25.45-56.732 56.732-56.732s56.731 25.45 56.731 56.732c0 31.283-25.449 56.733-56.73 56.733" mask="url(#prefix__b)"/>
            <path fill="#273A5B" d="M380.462 408.188c-1.316 0-2.373.55-3.146 1.639-.25-.48-.611-.867-1.081-1.154-.53-.322-1.15-.485-1.841-.485-.557 0-1.121.156-1.68.464-.465.258-.836.573-1.104.94v-1.104h-1.888v9.47h1.964v-5.248c0-.73.217-1.373.648-1.91.429-.537.943-.798 1.572-.798.696 0 1.194.178 1.48.527.293.358.44.96.44 1.788v5.642h1.966v-5.25c0-.73.219-1.372.649-1.91.429-.536.943-.797 1.572-.797.694 0 1.193.178 1.479.527.293.357.443.96.443 1.788v5.642h1.963v-5.904c0-1.223-.3-2.183-.892-2.852-.595-.674-1.451-1.015-2.544-1.015M391.91 415.512c-.518.553-1.169.81-2.047.81-.88 0-1.53-.257-2.048-.81-.55-.586-.829-1.364-.829-2.314 0-.94.28-1.711.828-2.297.532-.565 1.183-.828 2.05-.828.864 0 1.516.263 2.046.828.55.586.83 1.358.83 2.297 0 .95-.28 1.728-.83 2.314m-2.047-7.324c-1.389 0-2.558.478-3.477 1.423-.906.942-1.364 2.149-1.364 3.587 0 1.437.458 2.644 1.365 3.586.918.944 2.087 1.423 3.476 1.423 1.388 0 2.552-.48 3.457-1.423.918-.93 1.384-2.136 1.384-3.586 0-1.438-.466-2.645-1.382-3.587-.907-.945-2.07-1.423-3.459-1.423M403.487 412.042c.163-.626.456-1.13.853-1.469.443-.379.981-.57 1.598-.57.752 0 1.36.2 1.802.597.395.353.65.862.725 1.442h-4.978zm7.066 1.357c0-1.632-.427-2.964-1.239-3.852-.825-.902-1.949-1.359-3.339-1.359-1.353 0-2.479.482-3.348 1.434-.854.936-1.305 2.196-1.305 3.647 0 1.408.44 2.557 1.344 3.513.893.946 2.045 1.424 3.422 1.424.941 0 1.797-.227 2.544-.673.596-.356 1.165-.9 1.561-1.492l.058-.086-1.407-1.299-.079.118c-.66.997-1.586 1.547-2.602 1.547-.836 0-1.465-.228-1.978-.719-.544-.52-.81-1.109-.856-1.895h7.194l.03-.308zM361.514 412.042c.163-.625.456-1.13.853-1.469.443-.379.98-.57 1.597-.57.753 0 1.36.2 1.802.597.397.353.65.862.725 1.442h-4.977zm2.488-3.854c-1.353 0-2.48.482-3.348 1.434-.854.936-1.306 2.196-1.306 3.647 0 1.408.44 2.557 1.345 3.513.892.946 2.044 1.424 3.422 1.424.94 0 1.796-.227 2.544-.673.596-.356 1.166-.9 1.56-1.492l.059-.086-1.407-1.299-.08.118c-.661.997-1.585 1.547-2.601 1.547-.836 0-1.464-.228-1.978-.719-.536-.514-.81-1.119-.856-1.895h7.194l.03-.308c0-1.633-.428-2.965-1.24-3.852-.825-.902-1.948-1.359-3.338-1.359zM398.637 405.907h-.23l-1.678 1.065-.056.036v1.637h-1.61v1.815h1.61v5.013c.013.855.28 1.534.797 2.016.489.46 1.125.696 1.94.726l.098.002c.413 0 .992-.08 1.295-.184l.082-.027v-1.9l-.17.075c-.118.053-.23.09-.341.114h-.001c-.188.041-.554.074-.69.068-.297-.015-.522-.106-.73-.297-.21-.193-.316-.582-.316-1.156v-4.45h2.248v-1.815h-2.248v-2.738zM350.147 411.146v-4.941h4.15c1.362 0 2.47 1.108 2.47 2.47 0 1.363-1.108 2.47-2.47 2.47h-4.15zm7.685.194c.594-.767.909-1.69.909-2.665 0-.975-.315-1.897-.91-2.665-.832-1.08-2.09-1.697-3.453-1.697h-6.207v13.66h1.976v-4.936h3.115l3.726 4.886.036.05h2.51l-3.909-5.12c.873-.26 1.65-.792 2.207-1.513z" mask="url(#prefix__b)"/>
            <path fill="#207FF4" d="M328.687 421.247L338.125 415.789 338.125 412.562 328.685 418.044 328.685 418.048 324.786 415.794 324.786 411.295 331.452 407.446 328.682 405.843 322.012 409.693 322.012 417.395 328.685 421.247z" mask="url(#prefix__b)"/>
            <path fill="#7DB3F6" d="M340.898 409.697L331.454 404.242 328.681 405.843 335.35 409.702 335.354 409.699 338.124 411.299 338.124 415.788 338.12 415.79 334.224 418.039 327.557 414.169 324.783 415.794 334.223 421.243 340.893 417.391z" mask="url(#prefix__b)"/>
            <path fill="#C0D8FF" d="M331.454 401.039L324.783 404.891 324.784 404.891 324.783 404.891 324.783 415.793 327.558 417.395 327.558 406.492 327.557 406.491 327.558 406.492 331.454 404.242 335.35 406.492 335.35 414.174 338.124 412.562 338.124 404.891z" mask="url(#prefix__b)"/>
            <path fill="#207FF4" d="M324.785 411.295L324.785 411.295 331.452 407.446 328.681 405.843 322.012 409.693z" mask="url(#prefix__b)"/>
            <path fill="#000" d="M472.8 223.554c.06.229.096.468.096.73 0 .266-.036.505-.11.734h2.065v-1.464H472.8zm2.11 6.225c0-.72-.887-1.127-2.434-1.127-1.535 0-2.435.407-2.435 1.127 0 .744.9 1.139 2.435 1.139 1.547 0 2.434-.395 2.434-1.14zm1.224 0c0 1.33-1.403 2.11-3.658 2.11s-3.646-.78-3.646-2.11c0-1.32 1.39-2.1 3.646-2.1 2.255 0 3.658.78 3.658 2.1zm-6.045-3.934c.936 0 1.63-.624 1.63-1.56 0-.947-.694-1.57-1.63-1.57-.96 0-1.655.623-1.655 1.57 0 .936.696 1.56 1.655 1.56zm2.147.168c-.503.552-1.271.875-2.147.875-1.62 0-2.83-1.08-2.83-2.603 0-1.535 1.21-2.614 2.83-2.614.888 0 1.644.336 2.147.876h2.615v-1.5h1.235v6.393h-1.235v-1.427h-2.615zM488.146 223.733v1.02h-1.536v2.807h-1.236v-6.513h1.236v2.686h1.536zm-2.64 6.118c0-.672-.875-1.055-2.385-1.055-1.512 0-2.387.383-2.387 1.055 0 .695.875 1.067 2.387 1.067 1.51 0 2.386-.373 2.386-1.067zm1.224 0c0 1.282-1.368 2.038-3.61 2.038-2.231 0-3.61-.756-3.61-2.038 0-1.272 1.379-2.028 3.61-2.028 2.243 0 3.61.756 3.61 2.028zm-2.927-2.867c-1.163-.42-2.026-1.248-2.481-2.268-.481 1.177-1.368 2.112-2.615 2.569l-.66-.984c1.702-.588 2.625-2.063 2.625-3.622v-1.067h1.248v1.162c0 1.393.923 2.71 2.531 3.238l-.648.972zM500.231 227.236h1.248v-6.189h-1.248v6.189zm-5.913-1.991h2.723v-2.53h-2.723v2.53zm4.27 3.611c.096.886 1.487 1.858 3.49 2.074l-.408.935c-1.715-.204-3.059-.899-3.718-1.835-.66.948-2.027 1.631-3.754 1.835l-.408-.935c2.027-.204 3.431-1.152 3.526-2.074h-3.106v-.949h3.106v-.971h1.26v.971h3.106v.949h-3.094zm-5.482-2.627h5.134v-4.498h-5.134v4.498zM515.927 221.047v6.44h-1.235v-.875h-1.656v-1.007h1.656v-1.116h-1.631v-1.006h1.63v-2.436h1.236zm-5.89 9.739h4.666v-.947h-4.665v.947zm4.666-2.866h1.224v3.838h-7.112v-3.838h1.223v.983h4.665v-.983zm-4.677-1.439c.803 0 1.343-.396 1.343-1.032 0-.635-.54-1.032-1.343-1.032-.791 0-1.331.397-1.331 1.032 0 .636.54 1.032 1.33 1.032zm0 .922c-1.463 0-2.483-.779-2.483-1.954 0-1.175 1.02-1.955 2.483-1.955 1.475 0 2.495.78 2.495 1.955s-1.02 1.954-2.495 1.954zm2.963-4.353h-6.01v-.983h2.435v-1.116h1.236v1.116h2.339v.983zM526.967 221.06v6.668h-1.235v-1.847h-1.944v-.996h1.944v-1.27h-1.944v-.996h1.944v-1.56h1.235zm-7.328 7.208h7.328v3.646h-1.235v-2.64h-6.093v-1.006zm4.113-1.2c-1.306.228-2.41.264-4.533.264h-.792v-3.358h3.454v-1.295h-3.477v-.996h4.7v3.238h-3.465v1.404c1.81 0 2.807-.048 3.98-.252l.133.996zM540.456 231.877h1.187v-10.83h-1.187v10.83zm-2.207-10.59h1.163v10.087h-1.163v-5.254h-2.135v-1.007h2.135v-3.826zm-4.27 7.065c1.343-.013 2.267-.073 3.334-.3l.108 1.019c-1.224.24-2.278.3-3.934.3h-.731v-7.041h4.101v1.008h-2.878v5.014zM551.1 231.913h1.247v-10.866H551.1v10.866zm-6.117-6.248c0 1.703.66 2.723 1.595 2.723.947 0 1.608-1.02 1.608-2.723 0-1.68-.661-2.699-1.608-2.699-.935 0-1.595 1.019-1.595 2.699zm4.39 0c0 2.351-1.176 3.825-2.795 3.825-1.607 0-2.782-1.474-2.782-3.825 0-2.327 1.175-3.814 2.782-3.814 1.619 0 2.795 1.487 2.795 3.814zM563.47 221.035v10.866h-1.246v-5.865h-2.075v-1.019h2.075v-3.982h1.247zm-7.278 7.328c1.726-.012 2.962-.072 4.377-.31l.108.994c-1.548.275-2.902.324-4.87.324h-.851v-7.376h5.025v1.02h-3.79v2.026h3.346v.983h-3.345v2.34z" mask="url(#prefix__b)"/>
            <path fill="#C5C8CF" d="M128.831 243.083L304.437 243.083 304.437 242.333 128.831 242.333z" mask="url(#prefix__b)"/>
            <path fill="#C5C8CF" d="M298.461 242.708L298.461 237.945 302.585 240.327 306.709 242.708 302.585 245.089 298.461 247.47zM136.003 242.708L136.003 247.47 131.879 245.089 127.755 242.708 131.879 240.327 136.003 237.945z" mask="url(#prefix__b)"/>
            <path fill="#000" d="M174.23 223.554c.06.229.097.468.097.73 0 .266-.036.505-.11.734h2.064v-1.464h-2.05zm2.11 6.225c0-.72-.887-1.127-2.434-1.127-1.535 0-2.435.407-2.435 1.127 0 .744.9 1.139 2.435 1.139 1.547 0 2.434-.395 2.434-1.14zm1.225 0c0 1.33-1.404 2.11-3.659 2.11s-3.645-.78-3.645-2.11c0-1.32 1.39-2.1 3.645-2.1s3.659.78 3.659 2.1zm-6.046-3.934c.936 0 1.631-.624 1.631-1.56 0-.947-.695-1.57-1.63-1.57-.96 0-1.656.623-1.656 1.57 0 .936.696 1.56 1.655 1.56zm2.148.168c-.504.552-1.272.875-2.148.875-1.619 0-2.83-1.08-2.83-2.603 0-1.535 1.212-2.614 2.83-2.614.888 0 1.644.336 2.148.876h2.614v-1.5h1.236v6.393h-1.236v-1.427h-2.614zM189.576 223.733v1.02h-1.535v2.807h-1.236v-6.513h1.236v2.686h1.535zm-2.639 6.118c0-.672-.876-1.055-2.386-1.055-1.512 0-2.387.383-2.387 1.055 0 .695.875 1.067 2.387 1.067 1.51 0 2.386-.373 2.386-1.067zm1.223 0c0 1.282-1.367 2.038-3.609 2.038-2.232 0-3.61-.756-3.61-2.038 0-1.272 1.378-2.028 3.61-2.028 2.242 0 3.61.756 3.61 2.028zm-2.926-2.867c-1.163-.42-2.027-1.248-2.482-2.268-.48 1.177-1.367 2.112-2.615 2.569l-.66-.984c1.703-.588 2.626-2.063 2.626-3.622v-1.067h1.248v1.162c0 1.393.923 2.71 2.531 3.238l-.648.972zM201.661 227.236h1.248v-6.189h-1.248v6.189zm-5.912-1.991h2.723v-2.53h-2.723v2.53zm4.27 3.611c.095.886 1.487 1.858 3.49 2.074l-.408.935c-1.715-.204-3.059-.899-3.718-1.835-.66.948-2.028 1.631-3.754 1.835l-.408-.935c2.027-.204 3.43-1.152 3.526-2.074h-3.106v-.949h3.106v-.971h1.26v.971h3.105v.949h-3.093zm-5.482-2.627h5.134v-4.498h-5.134v4.498zM217.357 221.047v6.44h-1.235v-.875h-1.656v-1.007h1.656v-1.116h-1.63v-1.006h1.63v-2.436h1.235zm-5.889 9.739h4.665v-.947h-4.665v.947zm4.665-2.866h1.224v3.838h-7.112v-3.838h1.223v.983h4.665v-.983zm-4.677-1.439c.803 0 1.343-.396 1.343-1.032 0-.635-.54-1.032-1.343-1.032-.79 0-1.33.397-1.33 1.032 0 .636.54 1.032 1.33 1.032zm0 .922c-1.463 0-2.483-.779-2.483-1.954 0-1.175 1.02-1.955 2.483-1.955 1.475 0 2.495.78 2.495 1.955s-1.02 1.954-2.495 1.954zm2.963-4.353h-6.009v-.983h2.434v-1.116h1.236v1.116h2.34v.983zM228.398 221.06v6.668h-1.236v-1.847h-1.944v-.996h1.945v-1.27h-1.945v-.996h1.945v-1.56h1.234zm-7.328 7.208h7.328v3.646h-1.236v-2.64h-6.093v-1.006zm4.113-1.2c-1.306.228-2.41.264-4.534.264h-.792v-3.358h3.454v-1.295h-3.477v-.996h4.702v3.238h-3.466v1.404c1.81 0 2.806-.048 3.98-.252l.132.996zM241.886 231.877h1.187v-10.83h-1.187v10.83zm-2.206-10.59h1.163v10.087h-1.163v-5.254h-2.135v-1.007h2.135v-3.826zm-4.271 7.065c1.344-.013 2.268-.073 3.335-.3l.108 1.019c-1.224.24-2.279.3-3.934.3h-.731v-7.041h4.101v1.008h-2.879v5.014zM252.53 231.913h1.247v-10.866h-1.247v10.866zm-6.116-6.248c0 1.703.659 2.723 1.595 2.723.947 0 1.607-1.02 1.607-2.723 0-1.68-.66-2.699-1.607-2.699-.936 0-1.595 1.019-1.595 2.699zm4.39 0c0 2.351-1.176 3.825-2.795 3.825-1.608 0-2.782-1.474-2.782-3.825 0-2.327 1.174-3.814 2.782-3.814 1.619 0 2.795 1.487 2.795 3.814zM264.901 221.035v10.866h-1.247v-5.865h-2.075v-1.019h2.075v-3.982h1.247zm-7.279 7.328c1.726-.012 2.962-.072 4.377-.31l.108.994c-1.548.275-2.902.324-4.869.324h-.852v-7.376h5.025v1.02h-3.789v2.026h3.345v.983h-3.345v2.34z" mask="url(#prefix__b)"/>
            <path fill="#C5C8CF" d="M365.907 203.297L366.657 203.297 366.657 163.469 365.907 163.469z" mask="url(#prefix__b)"/>
            <path fill="#C5C8CF" d="M366.282 169.445L361.52 169.445 363.901 165.321 366.282 161.196 368.663 165.321 371.044 169.445zM366.282 195.773L371.044 195.773 368.663 199.897 366.282 204.021 363.901 199.897 361.52 195.773zM365.907 346.364L366.657 346.364 366.657 304.536 365.907 304.536z" mask="url(#prefix__b)"/>
            <path fill="#C5C8CF" d="M366.282 310.512L361.52 310.512 363.901 306.388 366.282 302.264 368.663 306.388 371.044 310.512zM366.282 338.84L371.044 338.84 368.663 342.964 366.282 347.088 363.901 342.964 361.52 338.84z" mask="url(#prefix__b)"/>
        </g>
    </g>
</svg>
