<svg xmlns="http://www.w3.org/2000/svg" xmlns:xlink="http://www.w3.org/1999/xlink" width="780" height="370" viewBox="0 0 780 370">
    <defs>
        <path id="prefix__a" d="M0 0H780V370H0z"/>
        <path id="prefix__c" d="M0 309L737.216 309 737.216 0.467 0 0.467z"/>
    </defs>
    <g fill="none" fill-rule="evenodd" transform="translate(-1)">
        <mask id="prefix__b" fill="#fff">
            <use xlink:href="#prefix__a"/>
        </mask>
        <use fill="#F8F9FB" xlink:href="#prefix__a"/>
        <g mask="url(#prefix__b)">
            <g>
                <path fill="#C5C8CF" d="M121.667 151.204L153.496 151.204 153.496 150.453 121.667 150.453z" transform="translate(19 30)"/>
                <path fill="#C5C8CF" d="M147.52 150.829L147.52 146.067 151.644 148.448 155.768 150.829 151.644 153.21 147.52 155.591z" transform="translate(19 30)"/>
                <g transform="translate(19 30) translate(0 .533)">
                    <path fill="#000" d="M179.326 230.244c0-.672-.96-1.067-2.555-1.067-1.606 0-2.59.395-2.59 1.067 0 .684.984 1.08 2.59 1.08 1.596 0 2.555-.396 2.555-1.08zm-.348-4.629c.276-1.068.288-1.848.288-2.663h-6.212v-.995h7.435v.911c0 .864 0 1.763-.3 2.878l-1.211-.13zm1.583 4.63c0 1.26-1.487 2.026-3.79 2.026-2.34 0-3.813-.767-3.813-2.027 0-1.247 1.474-2.015 3.813-2.015 2.303 0 3.79.768 3.79 2.015zm1.128-3.85v.995h-9.762v-.996h3.837v-1.99h1.248v1.99h4.677zM192.945 224.607v1.02h-1.548v3.658h-1.235v-7.844h1.235v3.166h1.548zm-7.16 6.452h6.044v1.008h-7.292v-3.574h1.248v2.566zm2.71-8.79c0 2.865-1.906 4.904-5.061 5.863l-.516-.982c2.483-.756 4.018-2.159 4.234-3.875h-3.778v-1.007h5.12zM194.018 232.967c.815-.336 1.295-.936 1.308-1.643-.049.012-.084.012-.133.012-.49 0-.923-.312-.923-.888 0-.54.432-.887.96-.887.671 0 1.066.564 1.066 1.487 0 1.259-.73 2.23-1.966 2.698l-.312-.78zM210.26 225.219h-1.535v2.746h-1.236v-6.535h1.236v2.769h1.535v1.02zm-8.659 3.274h7.124v3.779h-1.236v-2.783h-5.888v-.996zm4.401-.96c-1.212-.394-2.075-1.222-2.543-2.253-.479 1.138-1.379 2.026-2.65 2.47l-.648-.971c1.715-.576 2.662-1.956 2.662-3.443v-.191h-2.302v-1.008h5.817v1.008h-2.266v.19c0 1.368.911 2.7 2.566 3.25l-.636.948z"/>
                    <mask id="prefix__d" fill="#fff">
                        <use xlink:href="#prefix__c"/>
                    </mask>
                    <path fill="#000" d="M214.463 231.143h4.594v-1.199h-4.594v1.199zm4.594-3.381h1.224v4.377h-7.04v-4.377h1.222v1.222h4.594v-1.222zm-3.142-3.311c0-.924-.696-1.511-1.631-1.511-.959 0-1.643.587-1.643 1.511 0 .912.684 1.524 1.643 1.524.935 0 1.631-.612 1.631-1.524zm4.366-3.01v5.805h-1.236v-2.303h-2.003c-.215 1.223-1.319 2.051-2.758 2.051-1.631 0-2.83-1.043-2.83-2.543 0-1.486 1.199-2.53 2.83-2.53 1.427 0 2.518.804 2.758 2.015h2.003v-2.495h1.236zM228.012 226.502h5.157v-3.214h-5.157v3.214zm7.508 3.431v1.006h-9.811v-1.006h4.27v-2.447h-3.178v-5.181h7.58v5.181h-3.167v2.447h4.306zM244.462 232.271h1.235v-10.83h-1.235v10.83zm-5.853-3.79c1.535-.012 3.154-.143 4.857-.492l.132 1.032c-1.859.383-3.61.516-5.289.516h-.924v-7.041h1.224v5.985zM256.785 221.417v10.866h-1.247v-5.865h-2.075v-1.02h2.075v-3.981h1.247zm-7.28 7.328c1.727-.013 2.963-.071 4.378-.311l.108.995c-1.548.276-2.902.323-4.87.323h-.851v-7.375h5.025v1.019h-3.79v2.027h3.346v.983h-3.345v2.339zM266.518 228.073h1.235v-6.632h-1.235v6.632zm.071 2.207c0-.672-.875-1.031-2.434-1.031-1.547 0-2.435.359-2.435 1.031 0 .659.888 1.02 2.435 1.02 1.559 0 2.434-.361 2.434-1.02zm1.236 0c0 1.259-1.391 2.003-3.67 2.003s-3.658-.744-3.658-2.003c0-1.259 1.379-2.003 3.658-2.003s3.67.744 3.67 2.003zm-2.29-3.106c-1.703.275-3.167.324-5.242.324h-.912v-3.203h3.718v-1.199h-3.741v-.995h4.953v3.129h-3.706v1.26c1.859 0 3.214-.06 4.785-.324l.145 1.008z" mask="url(#prefix__d)"/>
                    <path fill="#092E6E" d="M429.373 185.596h2.377v-16.637h-2.377v16.637zm-7.994-5.942c2.899-.018 4.753-.108 6.752-.486l.216 1.963c-2.251.431-4.357.504-7.887.504h-1.458v-11.199h8.013v1.926h-5.636v7.292zM445.933 185.542h2.377v-16.583h-2.377v16.583zm-4.951-12.118c0 2.701 1.332 5.564 4.104 6.717l-1.295 1.872c-1.927-.828-3.242-2.449-3.98-4.448-.738 2.162-2.07 3.98-4.015 4.862l-1.35-1.891c2.772-1.242 4.123-4.285 4.123-7.112v-.918h-3.457v-1.963h9.291v1.963h-3.421v.918zM462.62 174.343h-2.63v-1.873h2.63v-3.511h2.377v8.769h-2.377v-3.385zm2.845 9.29v1.783h-11.38v-4.393h8.553v-.901h-8.588v-1.782h10.947v4.357h-8.571v.936h9.039zm-5.186-6.554c-2.18.307-4.033.325-7.094.325h-1.296v-7.527h7.652v1.837h-5.294v1.026h4.79v1.729h-4.79v1.08c2.377-.018 3.979-.054 5.852-.324l.18 1.854zM486.146 179.384h-11.649v-9.22h11.523v1.91h-9.111v1.747h8.732v1.836h-8.732v1.855h9.237v1.872zm-13.414 4.249h15.017v-1.926h-15.017v1.926zM500.726 181.509h2.376v-12.568h-2.376v12.568zm-8.03-8.805c0 .9.792 1.387 1.998 1.387 1.188 0 1.98-.487 1.98-1.387s-.792-1.387-1.98-1.387c-1.206 0-1.998.487-1.998 1.387zm-2.251 0c0-1.873 1.764-3.151 4.249-3.151 2.484 0 4.231 1.278 4.231 3.151 0 1.891-1.747 3.15-4.231 3.15-2.485 0-4.249-1.259-4.249-3.15zm13.017 10.659v1.891h-12.099v-4.772h2.377v-1.98c-1.459.072-2.881.09-4.123.09l-.288-1.891c3.006 0 7.021-.036 10.497-.486l.126 1.675c-1.279.234-2.557.378-3.854.467v2.665h-2.358v2.341h9.722zM441.506 198v1.963h-1.98v5.401h-2.376V192.94h2.376V198h1.98zm-10.658 9.363h9.2v1.891h-11.577v-4.987h2.377v3.096zm1.98-7.562c.27-1.548.342-2.755.36-3.745h-6.176v-1.891h8.516v1.026c0 1.153 0 2.791-.377 4.88l-2.323-.27zm3.565 2.629c-3.42.63-7.274.702-10.119.72l-.216-1.89c.918 0 1.944 0 3.025-.019v-3.222h2.322v3.132c1.64-.072 3.295-.198 4.844-.414l.144 1.693zM454.267 209.578h2.377V192.94h-2.377v16.638zm-8.102-5.816c2.521-.018 4.609-.144 6.95-.54l.252 1.926c-2.7.468-5.131.577-8.138.577h-1.495V198.9h5.384v-2.646h-5.402v-1.891h7.832v6.41h-5.383v2.989zM478.37 192.94v16.638h-2.376v-9.526h-3.186v-1.908h3.186v-5.204h2.377zm-7.687 3.691c0 3.133 1.207 6.176 3.943 7.401l-1.404 1.89c-1.82-.882-3.026-2.503-3.71-4.5-.72 2.123-1.962 3.852-3.817 4.79l-1.476-1.91c2.808-1.297 4.069-4.519 4.069-7.67v-2.395h2.395v2.394zM483.983 203.78h3.259v-3.673h-3.259v3.673zm10.947-10.84v16.638h-2.377v-8.894h-2.97v4.987h-7.958v-11.416h2.358v3.998h3.259v-3.998h2.341v4.519h2.97v-5.834h2.377z" mask="url(#prefix__d)"/>
                    <path fill="#E6E8EB" d="M437.401 118.579L437.401 149.919 475.234 149.919 475.234 118.289z" mask="url(#prefix__d)"/>
                    <path fill="#000" d="M437.684 149.637h37.268v-31.063l-37.268.286v30.777zm37.833.564H437.12v-31.902l38.397-.294V150.2z" mask="url(#prefix__d)"/>
                    <path fill="#FFF" d="M476.334 118.81H436.16c-1.534 0-2.79-1.256-2.79-2.79v-6.154c0-1.535 1.255-2.79 2.79-2.79h40.175c1.534 0 2.79 1.255 2.79 2.79v6.154c0 1.534-1.256 2.79-2.79 2.79" mask="url(#prefix__d)"/>
                    <path fill="#000" d="M476.334 107.076H436.16c-1.534 0-2.79 1.254-2.79 2.79v6.153c0 1.536 1.255 2.79 2.79 2.79h40.175c1.534 0 2.79-1.254 2.79-2.79v-6.154c0-1.535-1.256-2.789-2.79-2.789m0 .564c1.228 0 2.226.998 2.226 2.225v6.154c0 1.227-.998 2.225-2.226 2.225H436.16c-1.227 0-2.226-.998-2.226-2.225v-6.154c0-1.227.999-2.225 2.226-2.225h40.175" mask="url(#prefix__d)"/>
                    <path fill="#FFF" d="M476.334 133.065H436.16c-1.534 0-2.79-1.256-2.79-2.79v-6.154c0-1.535 1.255-2.79 2.79-2.79h40.175c1.534 0 2.79 1.254 2.79 2.79v6.153c0 1.535-1.256 2.79-2.79 2.79" mask="url(#prefix__d)"/>
                    <path fill="#000" d="M476.334 121.33H436.16c-1.534 0-2.79 1.256-2.79 2.79v6.155c0 1.534 1.255 2.79 2.79 2.79h40.175c1.534 0 2.79-1.256 2.79-2.79v-6.156c0-1.533-1.256-2.789-2.79-2.789m0 .564c1.228 0 2.226.998 2.226 2.225v6.156c0 1.227-.998 2.225-2.226 2.225H436.16c-1.227 0-2.226-.998-2.226-2.225v-6.156c0-1.227.999-2.225 2.226-2.225h40.175" mask="url(#prefix__d)"/>
                    <path fill="#FFF" d="M476.334 147.24H436.16c-1.534 0-2.79-1.256-2.79-2.79v-6.155c0-1.535 1.255-2.789 2.79-2.789h40.175c1.534 0 2.79 1.254 2.79 2.79v6.154c0 1.534-1.256 2.79-2.79 2.79" mask="url(#prefix__d)"/>
                    <path fill="#000" d="M476.334 135.506H436.16c-1.534 0-2.79 1.255-2.79 2.789v6.154c0 1.536 1.255 2.79 2.79 2.79h40.175c1.534 0 2.79-1.254 2.79-2.79v-6.154c0-1.534-1.256-2.79-2.79-2.79m0 .565c1.228 0 2.226.998 2.226 2.225v6.154c0 1.228-.998 2.226-2.226 2.226H436.16c-1.227 0-2.226-.998-2.226-2.226v-6.154c0-1.227.999-2.225 2.226-2.225h40.175" mask="url(#prefix__d)"/>
                    <path fill="#0A51B7" d="M463.738 112.942c0 1.042-.845 1.888-1.887 1.888-1.043 0-1.887-.846-1.887-1.888 0-1.042.844-1.888 1.887-1.888 1.042 0 1.887.846 1.887 1.888" mask="url(#prefix__d)"/>
                    <path fill="#000" d="M461.851 111.055c-1.042 0-1.888.846-1.888 1.888 0 1.042.846 1.887 1.888 1.887 1.042 0 1.888-.845 1.888-1.887s-.846-1.888-1.888-1.888m0 .564c.73 0 1.323.594 1.323 1.324 0 .729-.594 1.323-1.323 1.323s-1.323-.594-1.323-1.323c0-.73.594-1.324 1.323-1.324" mask="url(#prefix__d)"/>
                    <path fill="#0A51B7" d="M469.56 112.942c0 1.042-.845 1.888-1.888 1.888-1.042 0-1.887-.846-1.887-1.888 0-1.042.845-1.888 1.887-1.888 1.043 0 1.888.846 1.888 1.888" mask="url(#prefix__d)"/>
                    <path fill="#000" d="M467.672 111.055c-1.042 0-1.887.846-1.887 1.888 0 1.042.845 1.887 1.887 1.887s1.888-.845 1.888-1.887-.846-1.888-1.888-1.888m0 .564c.73 0 1.323.594 1.323 1.324 0 .729-.594 1.323-1.323 1.323s-1.323-.594-1.323-1.323c0-.73.594-1.324 1.323-1.324" mask="url(#prefix__d)"/>
                    <path fill="#0A51B7" d="M475.381 112.942c0 1.042-.845 1.888-1.887 1.888-1.043 0-1.888-.846-1.888-1.888 0-1.042.845-1.888 1.888-1.888 1.042 0 1.887.846 1.887 1.888" mask="url(#prefix__d)"/>
                    <path fill="#000" d="M473.494 111.055c-1.042 0-1.888.846-1.888 1.888 0 1.042.846 1.887 1.888 1.887 1.042 0 1.887-.845 1.887-1.887s-.845-1.888-1.887-1.888m0 .564c.73 0 1.323.594 1.323 1.324 0 .729-.594 1.323-1.323 1.323s-1.323-.594-1.323-1.323c0-.73.594-1.324 1.323-1.324" mask="url(#prefix__d)"/>
                    <path fill="#0A51B7" d="M463.738 127.197c0 1.042-.845 1.888-1.887 1.888-1.043 0-1.887-.846-1.887-1.888 0-1.042.844-1.888 1.887-1.888 1.042 0 1.887.846 1.887 1.888" mask="url(#prefix__d)"/>
                    <path fill="#000" d="M461.851 125.31c-1.042 0-1.888.844-1.888 1.888 0 1.043.846 1.885 1.888 1.885 1.042 0 1.888-.843 1.888-1.885 0-1.043-.846-1.887-1.888-1.887m0 .563c.73 0 1.323.594 1.323 1.324 0 .729-.594 1.322-1.323 1.322s-1.323-.594-1.323-1.323c0-.73.594-1.323 1.323-1.323" mask="url(#prefix__d)"/>
                    <path fill="#0A51B7" d="M469.56 127.197c0 1.042-.845 1.888-1.888 1.888-1.042 0-1.887-.846-1.887-1.888 0-1.042.845-1.888 1.887-1.888 1.043 0 1.888.846 1.888 1.888" mask="url(#prefix__d)"/>
                    <path fill="#000" d="M467.672 125.31c-1.042 0-1.887.844-1.887 1.888 0 1.043.845 1.885 1.887 1.885s1.888-.843 1.888-1.885c0-1.043-.846-1.887-1.888-1.887m0 .563c.73 0 1.323.594 1.323 1.324 0 .729-.594 1.322-1.323 1.322s-1.323-.594-1.323-1.323c0-.73.594-1.323 1.323-1.323" mask="url(#prefix__d)"/>
                    <path fill="#0A51B7" d="M475.381 127.197c0 1.042-.845 1.888-1.887 1.888-1.043 0-1.888-.846-1.888-1.888 0-1.042.845-1.888 1.888-1.888 1.042 0 1.887.846 1.887 1.888" mask="url(#prefix__d)"/>
                    <path fill="#000" d="M473.494 125.31c-1.042 0-1.888.844-1.888 1.888 0 1.043.846 1.885 1.888 1.885 1.042 0 1.887-.843 1.887-1.885 0-1.043-.845-1.887-1.887-1.887m0 .563c.73 0 1.323.594 1.323 1.324 0 .729-.594 1.322-1.323 1.322s-1.323-.594-1.323-1.323c0-.73.594-1.323 1.323-1.323" mask="url(#prefix__d)"/>
                    <path fill="#0A51B7" d="M463.738 141.372c0 1.043-.845 1.888-1.887 1.888-1.043 0-1.887-.845-1.887-1.888 0-1.042.844-1.888 1.887-1.888 1.042 0 1.887.846 1.887 1.888" mask="url(#prefix__d)"/>
                    <path fill="#000" d="M461.851 139.484c-1.042 0-1.888.846-1.888 1.888 0 1.042.846 1.887 1.888 1.887 1.042 0 1.888-.845 1.888-1.887s-.846-1.888-1.888-1.888m0 .564c.73 0 1.323.594 1.323 1.324 0 .73-.594 1.323-1.323 1.323s-1.323-.594-1.323-1.323c0-.73.594-1.324 1.323-1.324" mask="url(#prefix__d)"/>
                    <path fill="#0A51B7" d="M469.56 141.372c0 1.043-.845 1.888-1.888 1.888-1.042 0-1.887-.845-1.887-1.888 0-1.042.845-1.888 1.887-1.888 1.043 0 1.888.846 1.888 1.888" mask="url(#prefix__d)"/>
                    <path fill="#000" d="M467.672 139.484c-1.042 0-1.887.846-1.887 1.888 0 1.042.845 1.887 1.887 1.887s1.888-.845 1.888-1.887-.846-1.888-1.888-1.888m0 .564c.73 0 1.323.594 1.323 1.324 0 .73-.594 1.323-1.323 1.323s-1.323-.594-1.323-1.323c0-.73.594-1.324 1.323-1.324" mask="url(#prefix__d)"/>
                    <path fill="#0A51B7" d="M475.381 141.372c0 1.043-.845 1.888-1.887 1.888-1.043 0-1.888-.845-1.888-1.888 0-1.042.845-1.888 1.888-1.888 1.042 0 1.887.846 1.887 1.888" mask="url(#prefix__d)"/>
                    <path fill="#000" d="M473.494 139.484c-1.042 0-1.888.846-1.888 1.888 0 1.042.846 1.887 1.888 1.887 1.042 0 1.887-.845 1.887-1.887s-.845-1.888-1.887-1.888m0 .564c.73 0 1.323.594 1.323 1.324 0 .73-.594 1.323-1.323 1.323s-1.323-.594-1.323-1.323c0-.73.594-1.324 1.323-1.324" mask="url(#prefix__d)"/>
                    <path fill="#FFF" d="M438.205 109.845L438.205 116.04" mask="url(#prefix__d)"/>
                    <path fill="#000" d="M437.923 116.04L438.487 116.04 438.487 109.845 437.923 109.845z" mask="url(#prefix__d)"/>
                    <path fill="#FFF" d="M441.406 109.845L441.406 116.04" mask="url(#prefix__d)"/>
                    <path fill="#000" d="M441.124 116.04L441.688 116.04 441.688 109.845 441.124 109.845z" mask="url(#prefix__d)"/>
                    <path fill="#FFF" d="M444.607 109.845L444.607 116.04" mask="url(#prefix__d)"/>
                    <path fill="#000" d="M444.325 116.04L444.889 116.04 444.889 109.845 444.325 109.845z" mask="url(#prefix__d)"/>
                    <path fill="#FFF" d="M447.808 109.845L447.808 116.04" mask="url(#prefix__d)"/>
                    <path fill="#000" d="M447.526 116.04L448.09 116.04 448.09 109.845 447.526 109.845z" mask="url(#prefix__d)"/>
                    <path fill="#FFF" d="M451.009 109.845L451.009 116.04" mask="url(#prefix__d)"/>
                    <path fill="#000" d="M450.728 116.04L451.292 116.04 451.292 109.845 450.728 109.845z" mask="url(#prefix__d)"/>
                    <path fill="#FFF" d="M454.21 109.845L454.21 116.04" mask="url(#prefix__d)"/>
                    <path fill="#000" d="M453.929 116.04L454.493 116.04 454.493 109.845 453.929 109.845z" mask="url(#prefix__d)"/>
                    <path fill="#FFF" d="M439.805 109.845L439.805 116.04" mask="url(#prefix__d)"/>
                    <path fill="#000" d="M439.523 116.04L440.087 116.04 440.087 109.845 439.523 109.845z" mask="url(#prefix__d)"/>
                    <path fill="#FFF" d="M443.006 109.845L443.006 116.04" mask="url(#prefix__d)"/>
                    <path fill="#000" d="M442.725 116.04L443.289 116.04 443.289 109.845 442.725 109.845z" mask="url(#prefix__d)"/>
                    <path fill="#FFF" d="M446.207 109.845L446.207 116.04" mask="url(#prefix__d)"/>
                    <path fill="#000" d="M445.926 116.04L446.49 116.04 446.49 109.845 445.926 109.845z" mask="url(#prefix__d)"/>
                    <path fill="#FFF" d="M449.409 109.845L449.409 116.04" mask="url(#prefix__d)"/>
                    <path fill="#000" d="M449.127 116.04L449.691 116.04 449.691 109.845 449.127 109.845z" mask="url(#prefix__d)"/>
                    <path fill="#FFF" d="M452.61 109.845L452.61 116.04" mask="url(#prefix__d)"/>
                    <path fill="#000" d="M452.328 116.04L452.892 116.04 452.892 109.845 452.328 109.845z" mask="url(#prefix__d)"/>
                    <path fill="#FFF" d="M438.205 124.1L438.205 130.295" mask="url(#prefix__d)"/>
                    <path fill="#000" d="M437.923 130.295L438.487 130.295 438.487 124.1 437.923 124.1z" mask="url(#prefix__d)"/>
                    <path fill="#FFF" d="M441.406 124.1L441.406 130.295" mask="url(#prefix__d)"/>
                    <path fill="#000" d="M441.124 130.295L441.688 130.295 441.688 124.1 441.124 124.1z" mask="url(#prefix__d)"/>
                    <path fill="#FFF" d="M444.607 124.1L444.607 130.295" mask="url(#prefix__d)"/>
                    <path fill="#000" d="M444.325 130.295L444.889 130.295 444.889 124.1 444.325 124.1z" mask="url(#prefix__d)"/>
                    <path fill="#FFF" d="M447.808 124.1L447.808 130.295" mask="url(#prefix__d)"/>
                    <path fill="#000" d="M447.526 130.295L448.09 130.295 448.09 124.1 447.526 124.1z" mask="url(#prefix__d)"/>
                    <path fill="#FFF" d="M451.009 124.1L451.009 130.295" mask="url(#prefix__d)"/>
                    <path fill="#000" d="M450.728 130.295L451.292 130.295 451.292 124.1 450.728 124.1z" mask="url(#prefix__d)"/>
                    <path fill="#FFF" d="M454.21 124.1L454.21 130.295" mask="url(#prefix__d)"/>
                    <path fill="#000" d="M453.929 130.295L454.493 130.295 454.493 124.1 453.929 124.1z" mask="url(#prefix__d)"/>
                    <path fill="#FFF" d="M439.805 124.1L439.805 130.295" mask="url(#prefix__d)"/>
                    <path fill="#000" d="M439.523 130.295L440.087 130.295 440.087 124.1 439.523 124.1z" mask="url(#prefix__d)"/>
                    <path fill="#FFF" d="M443.006 124.1L443.006 130.295" mask="url(#prefix__d)"/>
                    <path fill="#000" d="M442.725 130.295L443.289 130.295 443.289 124.1 442.725 124.1z" mask="url(#prefix__d)"/>
                    <path fill="#FFF" d="M446.207 124.1L446.207 130.295" mask="url(#prefix__d)"/>
                    <path fill="#000" d="M445.926 130.295L446.49 130.295 446.49 124.1 445.926 124.1z" mask="url(#prefix__d)"/>
                    <path fill="#FFF" d="M449.409 124.1L449.409 130.295" mask="url(#prefix__d)"/>
                    <path fill="#000" d="M449.127 130.295L449.691 130.295 449.691 124.1 449.127 124.1z" mask="url(#prefix__d)"/>
                    <path fill="#FFF" d="M452.61 124.1L452.61 130.295" mask="url(#prefix__d)"/>
                    <path fill="#000" d="M452.328 130.295L452.892 130.295 452.892 124.1 452.328 124.1z" mask="url(#prefix__d)"/>
                    <path fill="#FFF" d="M438.205 138.355L438.205 144.549" mask="url(#prefix__d)"/>
                    <path fill="#000" d="M437.923 144.55L438.487 144.55 438.487 138.355 437.923 138.355z" mask="url(#prefix__d)"/>
                    <path fill="#FFF" d="M441.406 138.355L441.406 144.549" mask="url(#prefix__d)"/>
                    <path fill="#000" d="M441.124 144.55L441.688 144.55 441.688 138.355 441.124 138.355z" mask="url(#prefix__d)"/>
                    <path fill="#FFF" d="M444.607 138.355L444.607 144.549" mask="url(#prefix__d)"/>
                    <path fill="#000" d="M444.325 144.55L444.889 144.55 444.889 138.355 444.325 138.355z" mask="url(#prefix__d)"/>
                    <path fill="#FFF" d="M447.808 138.355L447.808 144.549" mask="url(#prefix__d)"/>
                    <path fill="#000" d="M447.526 144.55L448.09 144.55 448.09 138.355 447.526 138.355z" mask="url(#prefix__d)"/>
                    <path fill="#FFF" d="M451.009 138.355L451.009 144.549" mask="url(#prefix__d)"/>
                    <path fill="#000" d="M450.728 144.55L451.292 144.55 451.292 138.355 450.728 138.355z" mask="url(#prefix__d)"/>
                    <path fill="#FFF" d="M454.21 138.355L454.21 144.549" mask="url(#prefix__d)"/>
                    <path fill="#000" d="M453.929 144.55L454.493 144.55 454.493 138.355 453.929 138.355z" mask="url(#prefix__d)"/>
                    <path fill="#FFF" d="M439.805 138.355L439.805 144.549" mask="url(#prefix__d)"/>
                    <path fill="#000" d="M439.523 144.55L440.087 144.55 440.087 138.355 439.523 138.355z" mask="url(#prefix__d)"/>
                    <path fill="#FFF" d="M443.006 138.355L443.006 144.549" mask="url(#prefix__d)"/>
                    <path fill="#000" d="M442.725 144.55L443.289 144.55 443.289 138.355 442.725 138.355z" mask="url(#prefix__d)"/>
                    <path fill="#FFF" d="M446.207 138.355L446.207 144.549" mask="url(#prefix__d)"/>
                    <path fill="#000" d="M445.926 144.55L446.49 144.55 446.49 138.355 445.926 138.355z" mask="url(#prefix__d)"/>
                    <path fill="#FFF" d="M449.409 138.355L449.409 144.549" mask="url(#prefix__d)"/>
                    <path fill="#000" d="M449.127 144.55L449.691 144.55 449.691 138.355 449.127 138.355z" mask="url(#prefix__d)"/>
                    <path fill="#FFF" d="M452.61 138.355L452.61 144.549" mask="url(#prefix__d)"/>
                    <path fill="#000" d="M452.328 144.55L452.892 144.55 452.892 138.355 452.328 138.355z" mask="url(#prefix__d)"/>
                    <path fill="#E6E8EB" d="M471.043 138.49s.188-1.194 1.877-2.008c1.69-.813 5.93-1.964 11.108-1.249 5.18.715 6.54 2 6.54 2l.624 1.377-.002 15.146s-.683 1.814-4.157 2.565c-3.474.751-10.39 1.002-13.707-.53 0 0-2.096-.878-2.284-2.192v-15.11z" mask="url(#prefix__d)"/>
                    <path fill="#000" d="M471.325 153.585c.143.334 1.614 3.208 9.787 3.208 8.157 0 9.647-2.864 9.796-3.209v-15.187c-.105-.295-1.353-3.106-10.094-3.106-9.134 0-9.487 3.12-9.49 3.152v15.142zm9.787 3.772c-9.118 0-10.293-3.489-10.34-3.637l-.011-.083v-15.212c.007-.165.297-3.698 10.053-3.698 9.712 0 10.619 3.419 10.653 3.564l.007.064-.014 15.366c-.046.148-1.232 3.636-10.348 3.636z" mask="url(#prefix__d)"/>
                    <path fill="#000" d="M480.897 147.297c-8.858 0-10.073-3.262-10.121-3.402l.532-.185c.012.03 1.206 3.023 9.591 3.023l.346-.002c8.678-.082 9.666-2.977 9.675-3.006l.543.154c-.038.136-1.026 3.329-10.213 3.416l-.353.002M480.897 152.255c-8.858 0-10.073-3.263-10.121-3.403l.534-.182-.267.09.265-.093c.012.03 1.243 3.11 9.937 3.022 8.678-.083 9.666-2.978 9.675-3.007l.543.154c-.038.136-1.026 3.329-10.213 3.417l-.353.002M480.897 142.34c-8.858 0-10.073-3.263-10.121-3.403l.534-.182-.267.09.265-.093c.012.03 1.243 3.1 9.937 3.022 8.678-.083 9.666-2.978 9.675-3.007l.543.154c-.038.136-1.026 3.329-10.213 3.417l-.353.002M33.727 231.295h1.247V220.43h-1.247v10.865zm-5.769-3.682c2.015-.011 3.31-.072 4.761-.347l.133 1.031c-1.571.288-2.975.348-5.218.348h-.899v-7.208h5.157v1.02h-3.934v5.156zM44.767 231.271h1.247v-10.83h-1.247v10.83zm-3.67-7.699c0 1.799 1.115 3.67 2.807 4.389l-.684.973c-1.26-.553-2.231-1.728-2.734-3.131-.481 1.511-1.451 2.795-2.723 3.406l-.708-.984c1.68-.78 2.795-2.794 2.795-4.653v-1.031h-2.411v-1.02h6.069v1.02h-2.411v1.031zM55.867 223.824h-1.87v-.984h1.87v-2.41h1.248v5.804h-1.248v-2.41zm1.607 6.393v.96h-7.4v-2.724h5.817v-.816h-5.83v-.959h7.054v2.663h-5.817v.876h6.176zm-3.31-4.559c-1.427.23-2.638.24-4.69.24h-.815v-4.82h4.94v.971h-3.705v.935h3.395v.936h-3.395v1.008c1.776 0 2.879-.038 4.174-.252l.097.982zM71.262 227.158h-7.508v-5.842h7.424v.996h-6.165v1.391h5.925v.973h-5.925v1.486h6.25v.996zm-8.719 2.782h9.823v-1.007h-9.823v1.007zM81.235 228.669h1.247v-8.228h-1.247v8.228zm-5.673-5.78c0 .683.623 1.103 1.571 1.103.936 0 1.571-.42 1.571-1.103 0-.672-.635-1.092-1.571-1.092-.948 0-1.571.42-1.571 1.092zm7.195 7.172v1.007h-7.723v-3.119h1.235v2.112h6.488zm-8.371-7.172c0-1.224 1.115-2.016 2.747-2.016 1.619 0 2.735.792 2.735 2.016 0 1.234-1.116 2.039-2.735 2.039-1.632 0-2.747-.805-2.747-2.039zm2.291 3.693c-1.044.036-2.039.049-2.914.049l-.156-1.008c1.991 0 4.653-.012 6.944-.324l.084.875c-.899.168-1.811.276-2.722.324v1.823h-1.236v-1.739zM28.89 241.742h-1.643v5.517h-1.235v-10.83h1.235v4.282h1.643v1.031zm-4.473-4.162c0 3.142-1.343 5.925-4.88 7.712l-.685-.947c2.65-1.356 4.078-3.262 4.33-5.757h-3.79v-1.008h5.025zM39.895 239.115v1.02H38.36v2.806h-1.236v-6.513h1.236v2.687h1.535zm-2.639 6.117c0-.672-.876-1.055-2.386-1.055-1.512 0-2.387.383-2.387 1.055 0 .695.875 1.068 2.387 1.068 1.51 0 2.386-.373 2.386-1.068zm1.223 0c0 1.283-1.367 2.04-3.609 2.04-2.232 0-3.611-.757-3.611-2.04 0-1.27 1.379-2.027 3.611-2.027 2.242 0 3.609.756 3.609 2.027zm-2.926-2.866c-1.163-.42-2.027-1.248-2.482-2.268-.481 1.176-1.367 2.112-2.615 2.568l-.66-.984c1.703-.588 2.626-2.063 2.626-3.622v-1.067h1.248v1.163c0 1.392.923 2.71 2.531 3.238l-.648.972zM51.716 245.244c0-.672-.959-1.067-2.555-1.067-1.606 0-2.59.395-2.59 1.067 0 .684.984 1.08 2.59 1.08 1.596 0 2.555-.396 2.555-1.08zm-.348-4.629c.276-1.067.288-1.848.288-2.663h-6.212v-.995h7.435v.911c0 .863 0 1.763-.3 2.88l-1.21-.133zm1.583 4.63c0 1.26-1.487 2.026-3.79 2.026-2.339 0-3.813-.767-3.813-2.027 0-1.247 1.474-2.015 3.813-2.015 2.303 0 3.79.768 3.79 2.015zm1.128-3.85v.995h-9.762v-.996h3.837v-1.99h1.248v1.99h4.677zM65.335 239.607v1.02h-1.548v3.658H62.55v-7.844h1.235v3.166h1.549zm-7.16 6.452h6.044v1.008h-7.292v-3.574h1.248v2.566zm2.71-8.79c0 2.865-1.907 4.904-5.061 5.864l-.515-.983c2.482-.756 4.017-2.159 4.233-3.874h-3.779v-1.008h5.122zM79.543 242.75h-4.318v4.521H73.98v-4.521h-4.236v-1.02h7.04c.314-1.511.314-2.638.314-3.634H70.92v-.995h7.388v.947c0 1.019 0 2.147-.277 3.682h1.511v1.02zM81.288 240.398c2.195-.167 3.563-.97 3.683-1.954h-3.227v-.972h3.31v-1.067h1.235v1.067h3.299v.972h-3.215c.12.983 1.476 1.787 3.683 1.954l-.384.936c-1.883-.156-3.334-.78-4.006-1.75-.672.97-2.123 1.594-4.006 1.75l-.372-.936zm5 2.436v1.09h3.084v3.334h-1.235v-2.35h-6.273v-.984h3.19v-1.09h-4.282v-.997h9.799v.997h-4.282z" mask="url(#prefix__d)"/>
                    <path fill="#FFF" d="M113.09 150.296c0 31.125-25.233 56.357-56.358 56.357-31.125 0-56.357-25.232-56.357-56.357s25.232-56.357 56.357-56.357 56.357 25.232 56.357 56.357" mask="url(#prefix__d)"/>
                    <path fill="#C5C8CF" d="M56.732 94.314C25.862 94.314.75 119.427.75 150.296c0 30.87 25.113 55.983 55.982 55.983s55.982-25.113 55.982-55.983c0-30.87-25.113-55.982-55.982-55.982m0 112.715C25.45 207.029 0 181.579 0 150.296c0-31.282 25.45-56.732 56.732-56.732s56.732 25.45 56.732 56.732-25.45 56.733-56.732 56.733" mask="url(#prefix__d)"/>
                    <path fill="#E6E8EB" d="M56.83 135.783L56.83 144.247 44.487 144.247 44.487 135.783 39.127 135.783 39.127 160.483 43.886 160.483 44.487 160.483 56.83 160.483 67.213 160.483 74.338 160.483 74.338 138.98 68.469 135.783 68.469 138.933 62.675 135.783 62.675 138.933z" mask="url(#prefix__d)"/>
                    <path fill="#000" d="M39.517 160.094h34.432v-20.882l-5.09-2.773v3.15l-5.794-3.15v3.147l-5.845-3.15v8.2H44.098v-8.463h-4.581v23.92zm35.21.779h-35.99v-25.48h6.14v8.465H56.44v-8.727l5.845 3.15v-3.153l5.794 3.15v-3.15l6.648 3.62v22.125z" mask="url(#prefix__d)"/>
                    <path fill="#FFF" d="M39.127 160.483L44.472 160.483 44.472 135.783 39.127 135.783z" mask="url(#prefix__d)"/>
                    <path fill="#000" d="M39.517 160.094h4.565v-23.921h-4.565v23.921zm-.78.779h6.124v-25.479h-6.124v25.479z" mask="url(#prefix__d)"/>
                    <path fill="#FFF" d="M39.127 138.698L44.315 138.698" mask="url(#prefix__d)"/>
                    <path fill="#000" d="M39.127 139.088L44.315 139.088 44.315 138.309 39.127 138.309z" mask="url(#prefix__d)"/>
                    <path fill="#FFF" d="M44.471 160.483L67.406 160.483 67.406 144.247 44.471 144.247z" mask="url(#prefix__d)"/>
                    <path fill="#000" d="M44.86 160.095h22.158v-15.459H44.86v15.459zm-.777.777h23.711v-17.014H44.083v17.014z" mask="url(#prefix__d)"/>
                    <path fill="#E6E8EB" d="M50.163 154.215h-2.346c-.374 0-.676-.303-.676-.676v-2.346c0-.374.302-.677.676-.677h2.346c.374 0 .676.303.676.677v2.346c0 .373-.302.676-.676.676" mask="url(#prefix__d)"/>
                    <path fill="#000" d="M47.816 150.905c-.158 0-.287.13-.287.287v2.347c0 .158.13.286.287.286h2.346c.158 0 .287-.128.287-.286v-2.347c0-.158-.129-.287-.287-.287h-2.346zm2.346 3.7h-2.346c-.588 0-1.066-.479-1.066-1.066v-2.347c0-.588.478-1.066 1.066-1.066h2.346c.588 0 1.066.478 1.066 1.066v2.347c0 .587-.478 1.065-1.066 1.065z" mask="url(#prefix__d)"/>
                    <path fill="#E6E8EB" d="M57.005 154.215H54.66c-.374 0-.677-.303-.677-.676v-2.346c0-.374.303-.677.677-.677h2.346c.374 0 .676.303.676.677v2.346c0 .373-.302.676-.676.676" mask="url(#prefix__d)"/>
                    <path fill="#000" d="M54.66 150.905c-.159 0-.288.13-.288.287v2.347c0 .158.13.286.287.286h2.346c.158 0 .287-.128.287-.286v-2.347c0-.158-.129-.287-.287-.287H54.66zm2.345 3.7H54.66c-.588 0-1.066-.479-1.066-1.066v-2.347c0-.588.478-1.066 1.066-1.066h2.346c.588 0 1.066.478 1.066 1.066v2.347c0 .587-.478 1.065-1.066 1.065z" mask="url(#prefix__d)"/>
                    <path fill="#E6E8EB" d="M63.848 154.215h-2.347c-.373 0-.676-.303-.676-.676v-2.346c0-.374.303-.677.676-.677h2.347c.374 0 .676.303.676.677v2.346c0 .373-.302.676-.676.676" mask="url(#prefix__d)"/>
                    <path fill="#000" d="M61.502 150.905c-.159 0-.288.13-.288.287v2.347c0 .158.13.286.288.286h2.346c.159 0 .287-.128.287-.286v-2.347c0-.158-.129-.287-.287-.287h-2.346zm2.346 3.7h-2.346c-.589 0-1.067-.479-1.067-1.066v-2.347c0-.588.478-1.066 1.066-1.066h2.348c.587 0 1.066.478 1.066 1.066v2.347c0 .587-.479 1.065-1.067 1.065z" mask="url(#prefix__d)"/>
                    <path fill="#FFF" d="M44.472 147.226L67.214 147.226" mask="url(#prefix__d)"/>
                    <path fill="#000" d="M44.471 147.615L67.213 147.615 67.213 146.836 44.471 146.836zM80.232 129.314L79.453 129.314 79.453 125.99 76.13 125.99 76.13 125.21 80.232 125.21zM34.052 129.314L33.273 129.314 33.273 125.21 37.375 125.21 37.375 125.99 34.052 125.99zM37.376 171.049L33.273 171.049 33.273 166.946 34.053 166.946 34.053 170.27 37.376 170.27zM80.232 171.049L76.13 171.049 76.13 170.27 79.453 170.27 79.453 166.946 80.232 166.946z" mask="url(#prefix__d)"/>
                    <path fill="#0A51B7" d="M39.127 139.378L44.472 139.378 44.472 135.783 39.127 135.783z" mask="url(#prefix__d)"/>
                    <path fill="#000" d="M39.517 138.988h4.565v-2.815h-4.565v2.815zm-.78.78h6.124v-4.374h-6.124v4.374z" mask="url(#prefix__d)"/>
                    <path fill="#FFF" d="M276.636 150.413c0 31.125-25.232 56.357-56.357 56.357s-56.357-25.232-56.357-56.357 25.232-56.357 56.357-56.357 56.357 25.232 56.357 56.357" mask="url(#prefix__d)"/>
                    <path fill="#C5C8CF" d="M220.28 94.43c-30.87 0-55.983 25.114-55.983 55.983 0 30.87 25.113 55.983 55.982 55.983 30.87 0 55.982-25.113 55.982-55.983 0-30.87-25.113-55.982-55.982-55.982m0 112.715c-31.282 0-56.732-25.45-56.732-56.733 0-31.282 25.45-56.732 56.732-56.732s56.732 25.45 56.732 56.732c0 31.283-25.45 56.733-56.732 56.733" mask="url(#prefix__d)"/>
                    <path fill="#007CF7" d="M193.671 159.362L189.332 155.895 189.332 144.672 193.671 141.204z" mask="url(#prefix__d)"/>
                    <path fill="#6FB6FB" d="M201.387 159.362L205.726 155.895 205.726 144.672 201.387 141.204z" mask="url(#prefix__d)"/>
                    <path fill="#0065C7" d="M201.387 141.205L197.53 143.738 201.387 146.334zM193.671 141.205L197.529 143.738 193.671 146.334zM201.387 154.233L197.53 156.767 201.387 159.362zM193.671 154.233L197.529 156.767 193.671 159.362z" mask="url(#prefix__d)"/>
                    <path fill="#273A5B" d="M233.746 154.308L231.571 147.656 229.622 147.656 227.446 154.31 225.486 147.656 223.438 147.656 226.466 157.045 228.378 157.045 230.55 150.295 232.741 157.045 234.671 157.045 237.699 147.656 235.688 147.656zM250.29 148.356c-.626-.664-1.525-1-2.675-1-.603 0-1.19.155-1.748.463-.465.256-.834.57-1.1.936v-1.1h-1.885v9.39h1.96v-5.18c0-.739.222-1.383.662-1.913.441-.53.972-.788 1.625-.788 1.404 0 2.104.696 2.14 2.122v5.758h1.958v-5.87c0-1.209-.315-2.157-.938-2.818M238.924 157.045L240.881 157.045 240.881 147.365 238.924 147.365zM238.836 145.579L240.969 145.579 240.969 143.447 238.836 143.447z" mask="url(#prefix__d)"/>
                    <path fill="#273A5B" d="M225.683 143.436L213.208 143.436 213.208 145.331 218.46 145.331 218.46 157.131 220.43 157.131 220.43 145.331 225.683 145.331z" mask="url(#prefix__d)"/>
                    <path fill="#000" d="M550.043 249.129h1.175v-8.119h-1.175v8.119zm-2.123-4.485h-1.523v-1.02h1.523v-2.411h1.163v7.604h-1.163v-4.173zm3.598 5.984v1.008h-7.46v-3.466h1.248v2.458h6.212zm-4.833-3.262c-.911-.42-1.56-1.164-1.919-2.075-.395 1.008-1.079 1.883-2.087 2.351l-.683-.936c1.439-.695 2.159-2.146 2.159-3.441v-1.512h1.199v1.512c0 1.27.659 2.542 2.003 3.166l-.672.935zM562.09 240.985v10.866h-1.247v-6.297h-2.315v-1.006h2.315v-3.563h1.247zm-5.073 2.687c0 2.014 1.032 3.982 2.686 4.75l-.73.995c-1.225-.613-2.1-1.799-2.568-3.25-.479 1.535-1.367 2.794-2.602 3.43l-.779-.984c1.69-.827 2.746-2.914 2.746-4.94v-1.789h1.247v1.788zM575.555 251.827h1.187v-10.83h-1.187v10.83zm-2.207-10.59h1.163v10.087h-1.163v-5.254h-2.135v-1.007h2.135v-3.826zm-4.27 7.065c1.343-.013 2.267-.073 3.335-.3l.107 1.019c-1.223.24-2.278.3-3.934.3h-.731v-7.04h4.102v1.007h-2.879v5.014zM586.199 251.863h1.247v-10.866h-1.247v10.866zm-6.116-6.248c0 1.703.659 2.723 1.594 2.723.948 0 1.608-1.02 1.608-2.723 0-1.679-.66-2.699-1.608-2.699-.935 0-1.594 1.02-1.594 2.699zm4.389 0c0 2.351-1.176 3.825-2.795 3.825-1.607 0-2.782-1.474-2.782-3.825 0-2.327 1.175-3.814 2.782-3.814 1.619 0 2.795 1.487 2.795 3.814zM598.57 240.985v10.866h-1.247v-5.865h-2.075v-1.02h2.075v-3.98h1.247zm-7.28 7.328c1.727-.012 2.963-.072 4.378-.31l.108.994c-1.548.275-2.902.324-4.87.324h-.851v-7.376h5.025v1.02h-3.79v2.026h3.346v.983h-3.345v2.34zM552.022 41.076v1.02h-1.439v3.681h-1.248v-8.13h1.248v3.43h1.439zm-7.208 6.19h6.116v1.007h-7.363v-3.215h1.247v2.207zm1.751-5.11c.216-1.164.252-2.016.264-2.687h-4.234v-1.006h5.446v.623c0 .732 0 1.8-.264 3.203l-1.212-.133zm2.195 1.57c-2.255.397-4.809.457-6.692.457l-.132-1.007c.648 0 1.391 0 2.158-.024v-2.219h1.224v2.182c1.127-.047 2.291-.119 3.358-.287l.084.898zM560.784 48.5h1.247V37.623h-1.247V48.5zm-5.829-3.598c1.714-.011 3.213-.095 4.929-.371l.132 1.008c-1.859.322-3.478.383-5.386.383h-.922v-4.293h3.777v-2.016h-3.802v-1.008h5.05v4.018h-3.778v2.279zM575.556 48.465h1.187v-10.83h-1.187v10.83zm-2.207-10.59h1.163v10.086h-1.163v-5.254h-2.135v-1.006h2.135v-3.826zm-4.27 7.064c1.343-.013 2.267-.072 3.335-.3l.107 1.019c-1.223.24-2.278.301-3.934.301h-.731v-7.041h4.102v1.008h-2.879v5.013zM586.199 48.5h1.247V37.635h-1.247V48.5zm-6.116-6.248c0 1.703.659 2.723 1.594 2.723.948 0 1.608-1.02 1.608-2.723 0-1.68-.66-2.699-1.608-2.699-.935 0-1.594 1.019-1.594 2.699zm4.389 0c0 2.352-1.176 3.826-2.795 3.826-1.607 0-2.782-1.474-2.782-3.826 0-2.326 1.175-3.814 2.782-3.814 1.619 0 2.795 1.488 2.795 3.814zM598.57 37.623v10.865h-1.247v-5.865h-2.075v-1.02h2.075v-3.98h1.247zm-7.28 7.328c1.727-.012 2.963-.072 4.378-.312l.108.996c-1.548.275-2.902.324-4.87.324h-.851v-7.377h5.025v1.02h-3.79v2.027h3.346v.982h-3.345v2.34zM615.742 302.787h-1.655v-.996h1.655v-1.295h-1.655v-1.008h1.655v-2.793h1.235v8.262h-1.235v-2.17zm1.487 3.525v1.008h-7.304v-3.058h1.248v2.05h6.056zm-6.153-3.67c.792 0 1.332-.419 1.332-1.126 0-.696-.54-1.139-1.332-1.139-.779 0-1.319.443-1.319 1.14 0 .706.54 1.125 1.32 1.125zm0 .973c-1.463 0-2.482-.85-2.482-2.099 0-1.26 1.02-2.098 2.482-2.098 1.476 0 2.495.838 2.495 2.098 0 1.248-1.019 2.1-2.495 2.1zm2.963-4.7h-6.009v-.985h2.435v-1.26h1.235v1.26h2.34v.984zM629.037 299.334v1.018h-1.535v2.82h-1.236v-6.477h1.236v2.639h1.535zm-2.639 6.141c0-.709-.876-1.08-2.386-1.08-1.512 0-2.387.371-2.387 1.08 0 .695.875 1.078 2.387 1.078 1.51 0 2.386-.383 2.386-1.078zm1.223 0c0 1.283-1.379 2.05-3.609 2.05-2.232 0-3.61-.767-3.61-2.05 0-1.297 1.378-2.053 3.61-2.053 2.23 0 3.61.756 3.61 2.053zm-2.818-2.723c-1.21-.385-2.075-1.164-2.542-2.172-.48 1.152-1.392 2.074-2.687 2.52l-.624-.973c1.703-.588 2.65-1.979 2.65-3.453v-.217h-2.302v-.994h5.817v.994h-2.267v.205c0 1.342.9 2.602 2.554 3.129l-.599.961zM641.182 299.418v-2.723h1.235v6.452h-1.235v-2.723h-1.92v-1.006h1.92zm.048 6.068c0-.709-.888-1.091-2.411-1.091-1.547 0-2.422.382-2.422 1.091 0 .707.875 1.09 2.422 1.09 1.523 0 2.41-.383 2.41-1.09zm1.235 0c0 1.295-1.391 2.051-3.646 2.051-2.267 0-3.658-.756-3.658-2.051 0-1.283 1.39-2.05 3.658-2.05 2.255 0 3.646.767 3.646 2.05zm-3.19-2.687c-1.2-.42-2.063-1.272-2.52-2.315-.478 1.188-1.39 2.147-2.674 2.604l-.635-.984c1.679-.6 2.65-2.04 2.65-3.526v-.156h-2.29v-.996h5.793v.996h-2.255v.144c0 1.354.923 2.698 2.542 3.262l-.611.971zM646.812 302.008h5.133v-1.775h-5.133v1.775zm7.484 3.178v1.019h-9.811v-1.019h4.27v-2.182h-3.166v-5.59h1.223v1.822h5.133v-1.822h1.224v5.59h-3.179v2.182h4.306zM655.981 302.848c0-2.363.66-4.318 1.775-6.13l.864.372c-1.032 1.727-1.512 3.754-1.512 5.758 0 2.014.48 4.04 1.512 5.756l-.864.385c-1.116-1.825-1.775-3.754-1.775-6.141M669.777 300.473h-1.535v2.746h-1.236v-6.537h1.236v2.77h1.535v1.02zm-8.659 3.273h7.124v3.78h-1.236v-2.783h-5.888v-.997zm4.401-.96c-1.212-.395-2.075-1.221-2.543-2.252-.479 1.138-1.379 2.025-2.65 2.47l-.648-.972c1.715-.577 2.662-1.955 2.662-3.442v-.191h-2.302v-1.008h5.817v1.008h-2.267v.19c0 1.368.912 2.698 2.567 3.25l-.636.948zM673.98 306.396h4.594v-1.199h-4.594v1.199zm4.594-3.38h1.224v4.377h-7.04v-4.377h1.222v1.222h4.594v-1.222zm-3.142-3.311c0-.924-.696-1.512-1.631-1.512-.959 0-1.643.588-1.643 1.512 0 .912.684 1.524 1.643 1.524.935 0 1.631-.612 1.631-1.524zm4.366-3.01v5.805h-1.236v-2.303h-2.002c-.216 1.223-1.32 2.051-2.759 2.051-1.631 0-2.83-1.045-2.83-2.543 0-1.488 1.199-2.531 2.83-2.531 1.428 0 2.518.805 2.759 2.015h2.002v-2.494h1.236zM681.89 308.22c.815-.335 1.295-.935 1.308-1.644-.05.014-.084.014-.133.014-.491 0-.923-.312-.923-.89 0-.538.432-.885.959-.885.672 0 1.067.562 1.067 1.486 0 1.26-.731 2.23-1.966 2.699l-.312-.78zM695.878 299.488h-2.195v-.994h2.195v-1.813h1.235v5.567h-1.235v-2.76zm1.606 6.934v.97h-7.4v-2.806h5.806v-.864h-5.83v-.959h7.053v2.735h-5.804v.924h6.175zm-3.597-4.354c-1.176-.396-2.04-1.199-2.494-2.207-.481 1.127-1.38 2.002-2.652 2.445l-.635-.97c1.69-.55 2.638-1.907 2.638-3.395v-.91h1.236v.91c0 1.367.935 2.64 2.554 3.166l-.647.961zM706.846 307.549h1.247v-10.867h-1.247v10.867zm-5.865-3.574h2.746v-2.65h-2.746v2.65zm0-6.393v2.758h2.747v-2.758h1.235v7.389h-5.205v-7.389h1.223zM710.162 308.603c1.031-1.714 1.511-3.742 1.511-5.755 0-2.005-.48-4.031-1.51-5.759l.862-.37c1.128 1.81 1.787 3.766 1.787 6.129 0 2.387-.659 4.316-1.787 6.14l-.863-.385zM725.17 304.814h1.175v-8.119h-1.175v8.119zm-2.123-4.486h-1.524v-1.019h1.524v-2.411h1.163v7.604h-1.163v-4.174zm3.598 5.984v1.008h-7.46v-3.465h1.248v2.457h6.212zm-4.833-3.261c-.912-.42-1.56-1.164-1.919-2.074-.396 1.007-1.08 1.882-2.087 2.349l-.684-.935c1.44-.696 2.159-2.147 2.159-3.442v-1.512h1.199v1.512c0 1.272.66 2.543 2.003 3.166l-.671.936zM735.91 303.135h1.235v-6.428h-1.235v6.428zm.07 2.291c0-.707-.899-1.104-2.434-1.104-1.535 0-2.435.397-2.435 1.104 0 .719.9 1.103 2.435 1.103 1.535 0 2.434-.384 2.434-1.103zm1.236 0c0 1.306-1.404 2.074-3.67 2.074-2.267 0-3.67-.768-3.67-2.074 0-1.295 1.403-2.063 3.67-2.063 2.266 0 3.67.768 3.67 2.063zm-3.023-2.891c-1.235-.42-2.146-1.26-2.626-2.326-.492 1.199-1.403 2.146-2.698 2.613l-.624-.982c1.703-.6 2.662-2.1 2.662-3.61v-1.056h1.26v1.056c0 1.452.959 2.793 2.626 3.334l-.6.971zM637.334 137.707h1.235v-10.83h-1.235v10.83zm-1.956-9.691c0 3.226-1.295 5.961-5.013 7.759l-.659-.982c2.842-1.367 4.185-3.273 4.401-5.77h-3.861v-1.007h5.132zM643.144 136.496h6.225v1.008h-7.472v-3.082h1.247v2.074zm-1.955-5.744c2.052-.252 3.454-1.272 3.551-2.387h-3.167v-.984h8v.984h-3.191c.096 1.115 1.524 2.135 3.563 2.387l-.456.982c-1.883-.24-3.346-1.115-3.934-2.314-.576 1.2-2.027 2.074-3.898 2.314l-.468-.982zm9.295 1.883v.994h-9.822v-.994h4.269v-1.657h1.235v1.657h4.318zM665.04 130.307v1.02h-1.438v3.68h-1.248v-8.13h1.247v3.43h1.44zm-7.207 6.189h6.115v1.008h-7.362v-3.215h1.246v2.207zm1.75-5.11c.216-1.163.253-2.015.264-2.686h-4.233v-1.006h5.445v.623c0 .732 0 1.799-.264 3.203l-1.212-.133zm2.196 1.57c-2.255.398-4.81.458-6.692.458l-.132-1.007c.647 0 1.39 0 2.157-.024v-2.22h1.225v2.183c1.126-.047 2.29-.12 3.357-.287l.085.898zM673.801 137.73h1.247v-10.877h-1.247v10.877zm-5.829-3.597c1.715-.012 3.214-.096 4.93-.371l.132 1.008c-1.86.322-3.479.382-5.386.382h-.923v-4.293h3.777v-2.015h-3.801v-1.008h5.049v4.018h-3.778v2.279zM688.177 137.73h1.247v-10.865h-1.247v10.865zm-3.67-8.179c0 1.992 1.104 3.982 2.807 4.75l-.72.984c-1.247-.588-2.195-1.787-2.686-3.25-.492 1.57-1.451 2.854-2.759 3.488l-.732-1.031c1.728-.779 2.855-2.853 2.855-4.941v-1.774h1.235v1.774zM700.405 133.185c-1.763-.358-3.286-1.486-3.994-2.975-.707 1.49-2.231 2.617-3.993 2.975l-.53-1.02c2.136-.395 3.875-2.061 3.875-3.776v-.817h1.308v.816c0 1.727 1.739 3.395 3.874 3.778l-.54 1.02zm-8.852 3.131h9.81v-1.02h-9.81v1.02zM710.581 133.377h1.175v-6.512h-1.175v6.512zm-2.086-2.842h-1.284v-.996h1.284v-2.494h1.151v6.236h-1.151v-2.746zm-2.723 6.057h4.785v-1.764h-4.785v1.764zm-1.224.984h7.208v-3.73h-7.208v3.73zm3.155-5.013c-1.236.226-2.267.263-3.946.263h-.708v-5.277h4.078v.996h-2.89v1.127h2.494v.947h-2.494v1.223c1.367-.012 2.278-.072 3.346-.264l.12.985z" mask="url(#prefix__d)"/>
                    <path fill="#C5C8CF" d="M615.301 229.678L536.543 229.678 536.543 57.139 615.301 57.139 615.301 57.889 537.293 57.889 537.293 228.928 615.301 228.928z" mask="url(#prefix__d)"/>
                    <path fill="#C5C8CF" d="M512.652 143.783L536.918 143.783 536.918 143.033 512.652 143.033z" mask="url(#prefix__d)"/>
                    <path fill="#C5C8CF" d="M518.705 143.408L518.705 148.17 514.581 145.789 510.457 143.408 514.581 141.026 518.705 138.645z" mask="url(#prefix__d)"/>
                    <path fill="#FFF" d="M728.015 57.198c0 31.126-25.232 56.357-56.357 56.357s-56.357-25.23-56.357-56.357c0-31.125 25.232-56.356 56.357-56.356s56.357 25.231 56.357 56.356" mask="url(#prefix__d)"/>
                    <path fill="#C5C8CF" d="M671.658 1.217c-30.869 0-55.982 25.113-55.982 55.98 0 30.87 25.113 55.984 55.982 55.984 30.87 0 55.982-25.113 55.982-55.983 0-30.868-25.113-55.981-55.982-55.981m0 112.714c-31.282 0-56.732-25.45-56.732-56.733 0-31.282 25.45-56.731 56.732-56.731s56.732 25.449 56.732 56.73c0 31.284-25.45 56.734-56.732 56.734" mask="url(#prefix__d)"/>
                    <path fill="#E6E8EB" d="M654.018 46.61L654.018 73.126 686.027 73.126 686.027 46.364z" mask="url(#prefix__d)"/>
                    <path fill="#000" d="M654.256 72.887h31.532V46.605l-31.532.243v26.039zm32.01.479h-32.488V46.373l32.487-.25v27.243z" mask="url(#prefix__d)"/>
                    <path fill="#FFF" d="M686.958 46.805h-33.992c-1.298 0-2.36-1.062-2.36-2.36v-5.207c0-1.298 1.062-2.361 2.36-2.361h33.992c1.298 0 2.36 1.063 2.36 2.36v5.208c0 1.298-1.062 2.36-2.36 2.36" mask="url(#prefix__d)"/>
                    <path fill="#000" d="M686.958 36.877h-33.992c-1.298 0-2.36 1.062-2.36 2.359v5.209c0 1.297 1.062 2.36 2.36 2.36h33.992c1.298 0 2.36-1.063 2.36-2.36v-5.209c0-1.297-1.062-2.359-2.36-2.359m0 .478c1.038 0 1.882.844 1.882 1.881v5.209c0 1.037-.844 1.882-1.882 1.882h-33.992c-1.038 0-1.883-.845-1.883-1.882v-5.209c0-1.037.845-1.881 1.883-1.881h33.992" mask="url(#prefix__d)"/>
                    <path fill="#FFF" d="M686.958 58.865h-33.992c-1.298 0-2.36-1.062-2.36-2.359v-5.208c0-1.298 1.062-2.36 2.36-2.36h33.992c1.298 0 2.36 1.062 2.36 2.36v5.208c0 1.297-1.062 2.36-2.36 2.36" mask="url(#prefix__d)"/>
                    <path fill="#000" d="M686.958 48.938h-33.992c-1.298 0-2.36 1.061-2.36 2.36v5.207c0 1.297 1.062 2.36 2.36 2.36h33.992c1.298 0 2.36-1.063 2.36-2.36v-5.208c0-1.297-1.062-2.36-2.36-2.36m0 .48c1.038 0 1.882.843 1.882 1.88v5.209c0 1.036-.844 1.882-1.882 1.882h-33.992c-1.038 0-1.883-.846-1.883-1.883v-5.208c0-1.037.845-1.88 1.883-1.88h33.992" mask="url(#prefix__d)"/>
                    <path fill="#FFF" d="M686.958 70.858h-33.992c-1.298 0-2.36-1.062-2.36-2.359v-5.208c0-1.298 1.062-2.36 2.36-2.36h33.992c1.298 0 2.36 1.062 2.36 2.36V68.5c0 1.297-1.062 2.36-2.36 2.36" mask="url(#prefix__d)"/>
                    <path fill="#000" d="M686.958 60.932h-33.992c-1.298 0-2.36 1.062-2.36 2.359v5.207c0 1.299 1.062 2.36 2.36 2.36h33.992c1.298 0 2.36-1.061 2.36-2.36V63.29c0-1.297-1.062-2.36-2.36-2.36m0 .478c1.038 0 1.882.845 1.882 1.882v5.207c0 1.038-.844 1.883-1.882 1.883h-33.992c-1.038 0-1.883-.845-1.883-1.883V63.29c0-1.037.845-1.882 1.883-1.882h33.992" mask="url(#prefix__d)"/>
                    <path fill="#0A51B7" d="M676.3 41.84c0 .883-.714 1.598-1.596 1.598-.882 0-1.597-.715-1.597-1.597s.715-1.597 1.597-1.597 1.597.715 1.597 1.597" mask="url(#prefix__d)"/>
                    <path fill="#000" d="M674.704 40.244c-.882 0-1.597.715-1.597 1.597s.715 1.596 1.597 1.596 1.597-.714 1.597-1.596c0-.882-.715-1.597-1.597-1.597m0 .478c.617 0 1.12.501 1.12 1.12 0 .616-.503 1.118-1.12 1.118-.617 0-1.119-.502-1.119-1.119 0-.618.502-1.119 1.12-1.119" mask="url(#prefix__d)"/>
                    <path fill="#0A51B7" d="M681.227 41.84c0 .883-.715 1.598-1.597 1.598s-1.597-.715-1.597-1.597.715-1.597 1.597-1.597 1.597.715 1.597 1.597" mask="url(#prefix__d)"/>
                    <path fill="#000" d="M679.63 40.244c-.883 0-1.598.715-1.598 1.597s.715 1.596 1.597 1.596 1.597-.714 1.597-1.596c0-.882-.715-1.597-1.597-1.597m0 .478c.617 0 1.12.501 1.12 1.12 0 .616-.503 1.118-1.12 1.118-.617 0-1.119-.502-1.119-1.119 0-.618.502-1.119 1.12-1.119" mask="url(#prefix__d)"/>
                    <path fill="#0A51B7" d="M686.152 41.84c0 .883-.715 1.598-1.597 1.598s-1.597-.715-1.597-1.597.715-1.597 1.597-1.597 1.597.715 1.597 1.597" mask="url(#prefix__d)"/>
                    <path fill="#000" d="M684.555 40.244c-.882 0-1.597.715-1.597 1.597s.715 1.596 1.597 1.596 1.597-.714 1.597-1.596c0-.882-.715-1.597-1.597-1.597m0 .478c.617 0 1.119.501 1.119 1.12 0 .616-.502 1.118-1.12 1.118-.616 0-1.118-.502-1.118-1.119 0-.618.502-1.119 1.119-1.119" mask="url(#prefix__d)"/>
                    <path fill="#0A51B7" d="M676.3 53.901c0 .882-.714 1.597-1.596 1.597-.882 0-1.597-.715-1.597-1.597s.715-1.597 1.597-1.597 1.597.715 1.597 1.597" mask="url(#prefix__d)"/>
                    <path fill="#000" d="M674.704 52.305c-.882 0-1.597.715-1.597 1.597s.715 1.596 1.597 1.596 1.597-.714 1.597-1.596c0-.882-.715-1.597-1.597-1.597m0 .478c.617 0 1.12.5 1.12 1.119 0 .617-.503 1.12-1.12 1.12-.617 0-1.119-.503-1.119-1.12 0-.618.502-1.12 1.12-1.12" mask="url(#prefix__d)"/>
                    <path fill="#0A51B7" d="M681.227 53.901c0 .882-.715 1.597-1.597 1.597s-1.597-.715-1.597-1.597.715-1.597 1.597-1.597 1.597.715 1.597 1.597" mask="url(#prefix__d)"/>
                    <path fill="#000" d="M679.63 52.305c-.883 0-1.598.715-1.598 1.597s.715 1.596 1.597 1.596 1.597-.714 1.597-1.596c0-.882-.715-1.597-1.597-1.597m0 .478c.617 0 1.12.5 1.12 1.119 0 .617-.503 1.12-1.12 1.12-.617 0-1.119-.503-1.119-1.12 0-.618.502-1.12 1.12-1.12" mask="url(#prefix__d)"/>
                    <path fill="#0A51B7" d="M686.152 53.901c0 .882-.715 1.597-1.597 1.597s-1.597-.715-1.597-1.597.715-1.597 1.597-1.597 1.597.715 1.597 1.597" mask="url(#prefix__d)"/>
                    <path fill="#000" d="M684.555 52.305c-.882 0-1.597.715-1.597 1.597s.715 1.596 1.597 1.596 1.597-.714 1.597-1.596c0-.882-.715-1.597-1.597-1.597m0 .478c.617 0 1.119.5 1.119 1.119 0 .617-.502 1.12-1.12 1.12-.616 0-1.118-.503-1.118-1.12 0-.618.502-1.12 1.119-1.12" mask="url(#prefix__d)"/>
                    <path fill="#0A51B7" d="M676.3 65.894c0 .882-.714 1.597-1.596 1.597-.882 0-1.597-.715-1.597-1.597s.715-1.597 1.597-1.597 1.597.716 1.597 1.597" mask="url(#prefix__d)"/>
                    <path fill="#000" d="M674.704 64.298c-.882 0-1.597.715-1.597 1.597s.715 1.597 1.597 1.597 1.597-.715 1.597-1.597-.715-1.597-1.597-1.597m0 .478c.617 0 1.12.5 1.12 1.119 0 .617-.503 1.119-1.12 1.119-.617 0-1.119-.502-1.119-1.12 0-.617.502-1.118 1.12-1.118" mask="url(#prefix__d)"/>
                    <path fill="#0A51B7" d="M681.227 65.894c0 .882-.715 1.597-1.597 1.597s-1.597-.715-1.597-1.597.715-1.597 1.597-1.597 1.597.716 1.597 1.597" mask="url(#prefix__d)"/>
                    <path fill="#000" d="M679.63 64.298c-.883 0-1.598.715-1.598 1.597s.715 1.597 1.597 1.597 1.597-.715 1.597-1.597-.715-1.597-1.597-1.597m0 .478c.617 0 1.12.5 1.12 1.119 0 .617-.503 1.119-1.12 1.119-.617 0-1.119-.502-1.119-1.12 0-.617.502-1.118 1.12-1.118" mask="url(#prefix__d)"/>
                    <path fill="#0A51B7" d="M686.152 65.894c0 .882-.715 1.597-1.597 1.597s-1.597-.715-1.597-1.597.715-1.597 1.597-1.597 1.597.716 1.597 1.597" mask="url(#prefix__d)"/>
                    <path fill="#000" d="M684.555 64.298c-.882 0-1.597.715-1.597 1.597s.715 1.597 1.597 1.597 1.597-.715 1.597-1.597-.715-1.597-1.597-1.597m0 .478c.617 0 1.119.5 1.119 1.119 0 .617-.502 1.119-1.12 1.119-.616 0-1.118-.502-1.118-1.12 0-.617.502-1.118 1.119-1.118" mask="url(#prefix__d)"/>
                    <path fill="#FFF" d="M654.697 39.22L654.697 44.462" mask="url(#prefix__d)"/>
                    <path fill="#000" d="M654.458 44.462L654.936 44.462 654.936 39.22 654.458 39.22z" mask="url(#prefix__d)"/>
                    <path fill="#FFF" d="M657.406 39.22L657.406 44.462" mask="url(#prefix__d)"/>
                    <path fill="#000" d="M657.167 44.462L657.645 44.462 657.645 39.22 657.167 39.22z" mask="url(#prefix__d)"/>
                    <path fill="#FFF" d="M660.114 39.22L660.114 44.462" mask="url(#prefix__d)"/>
                    <path fill="#000" d="M659.875 44.462L660.353 44.462 660.353 39.22 659.875 39.22z" mask="url(#prefix__d)"/>
                    <path fill="#FFF" d="M662.823 39.22L662.823 44.462" mask="url(#prefix__d)"/>
                    <path fill="#000" d="M662.584 44.462L663.062 44.462 663.062 39.22 662.584 39.22z" mask="url(#prefix__d)"/>
                    <path fill="#FFF" d="M665.531 39.22L665.531 44.462" mask="url(#prefix__d)"/>
                    <path fill="#000" d="M665.292 44.462L665.77 44.462 665.77 39.22 665.292 39.22z" mask="url(#prefix__d)"/>
                    <path fill="#FFF" d="M668.24 39.22L668.24 44.462" mask="url(#prefix__d)"/>
                    <path fill="#000" d="M668.001 44.462L668.479 44.462 668.479 39.22 668.001 39.22z" mask="url(#prefix__d)"/>
                    <path fill="#FFF" d="M656.051 39.22L656.051 44.462" mask="url(#prefix__d)"/>
                    <path fill="#000" d="M655.812 44.462L656.29 44.462 656.29 39.22 655.812 39.22z" mask="url(#prefix__d)"/>
                    <path fill="#FFF" d="M658.76 39.22L658.76 44.462" mask="url(#prefix__d)"/>
                    <path fill="#000" d="M658.521 44.462L658.999 44.462 658.999 39.22 658.521 39.22z" mask="url(#prefix__d)"/>
                    <path fill="#FFF" d="M661.468 39.22L661.468 44.462" mask="url(#prefix__d)"/>
                    <path fill="#000" d="M661.229 44.462L661.707 44.462 661.707 39.22 661.229 39.22z" mask="url(#prefix__d)"/>
                    <path fill="#FFF" d="M664.177 39.22L664.177 44.462" mask="url(#prefix__d)"/>
                    <path fill="#000" d="M663.938 44.462L664.416 44.462 664.416 39.22 663.938 39.22z" mask="url(#prefix__d)"/>
                    <path fill="#FFF" d="M666.885 39.22L666.885 44.462" mask="url(#prefix__d)"/>
                    <path fill="#000" d="M666.646 44.462L667.124 44.462 667.124 39.22 666.646 39.22z" mask="url(#prefix__d)"/>
                    <path fill="#FFF" d="M654.697 51.28L654.697 56.522" mask="url(#prefix__d)"/>
                    <path fill="#000" d="M654.458 56.522L654.936 56.522 654.936 51.28 654.458 51.28z" mask="url(#prefix__d)"/>
                    <path fill="#FFF" d="M657.406 51.28L657.406 56.522" mask="url(#prefix__d)"/>
                    <path fill="#000" d="M657.167 56.522L657.645 56.522 657.645 51.28 657.167 51.28z" mask="url(#prefix__d)"/>
                    <path fill="#FFF" d="M660.114 51.28L660.114 56.522" mask="url(#prefix__d)"/>
                    <path fill="#000" d="M659.875 56.522L660.353 56.522 660.353 51.28 659.875 51.28z" mask="url(#prefix__d)"/>
                    <path fill="#FFF" d="M662.823 51.28L662.823 56.522" mask="url(#prefix__d)"/>
                    <path fill="#000" d="M662.584 56.522L663.062 56.522 663.062 51.28 662.584 51.28z" mask="url(#prefix__d)"/>
                    <path fill="#FFF" d="M665.531 51.28L665.531 56.522" mask="url(#prefix__d)"/>
                    <path fill="#000" d="M665.292 56.522L665.77 56.522 665.77 51.28 665.292 51.28z" mask="url(#prefix__d)"/>
                    <path fill="#FFF" d="M668.24 51.28L668.24 56.522" mask="url(#prefix__d)"/>
                    <path fill="#000" d="M668.001 56.522L668.479 56.522 668.479 51.28 668.001 51.28z" mask="url(#prefix__d)"/>
                    <path fill="#FFF" d="M656.051 51.28L656.051 56.522" mask="url(#prefix__d)"/>
                    <path fill="#000" d="M655.812 56.522L656.29 56.522 656.29 51.28 655.812 51.28z" mask="url(#prefix__d)"/>
                    <path fill="#FFF" d="M658.76 51.28L658.76 56.522" mask="url(#prefix__d)"/>
                    <path fill="#000" d="M658.521 56.522L658.999 56.522 658.999 51.28 658.521 51.28z" mask="url(#prefix__d)"/>
                    <path fill="#FFF" d="M661.468 51.28L661.468 56.522" mask="url(#prefix__d)"/>
                    <path fill="#000" d="M661.229 56.522L661.707 56.522 661.707 51.28 661.229 51.28z" mask="url(#prefix__d)"/>
                    <path fill="#FFF" d="M664.177 51.28L664.177 56.522" mask="url(#prefix__d)"/>
                    <path fill="#000" d="M663.938 56.522L664.416 56.522 664.416 51.28 663.938 51.28z" mask="url(#prefix__d)"/>
                    <path fill="#FFF" d="M666.885 51.28L666.885 56.522" mask="url(#prefix__d)"/>
                    <path fill="#000" d="M666.646 56.522L667.124 56.522 667.124 51.28 666.646 51.28z" mask="url(#prefix__d)"/>
                    <path fill="#FFF" d="M654.697 63.341L654.697 68.583" mask="url(#prefix__d)"/>
                    <path fill="#000" d="M654.458 68.583L654.936 68.583 654.936 63.341 654.458 63.341z" mask="url(#prefix__d)"/>
                    <path fill="#FFF" d="M657.406 63.341L657.406 68.583" mask="url(#prefix__d)"/>
                    <path fill="#000" d="M657.167 68.583L657.645 68.583 657.645 63.341 657.167 63.341z" mask="url(#prefix__d)"/>
                    <path fill="#FFF" d="M660.114 63.341L660.114 68.583" mask="url(#prefix__d)"/>
                    <path fill="#000" d="M659.875 68.583L660.353 68.583 660.353 63.341 659.875 63.341z" mask="url(#prefix__d)"/>
                    <path fill="#FFF" d="M662.823 63.341L662.823 68.583" mask="url(#prefix__d)"/>
                    <path fill="#000" d="M662.584 68.583L663.062 68.583 663.062 63.341 662.584 63.341z" mask="url(#prefix__d)"/>
                    <path fill="#FFF" d="M665.531 63.341L665.531 68.583" mask="url(#prefix__d)"/>
                    <path fill="#000" d="M665.292 68.583L665.77 68.583 665.77 63.341 665.292 63.341z" mask="url(#prefix__d)"/>
                    <path fill="#FFF" d="M668.24 63.341L668.24 68.583" mask="url(#prefix__d)"/>
                    <path fill="#000" d="M668.001 68.583L668.479 68.583 668.479 63.341 668.001 63.341z" mask="url(#prefix__d)"/>
                    <path fill="#FFF" d="M656.051 63.341L656.051 68.583" mask="url(#prefix__d)"/>
                    <path fill="#000" d="M655.812 68.583L656.29 68.583 656.29 63.341 655.812 63.341z" mask="url(#prefix__d)"/>
                    <path fill="#FFF" d="M658.76 63.341L658.76 68.583" mask="url(#prefix__d)"/>
                    <path fill="#000" d="M658.521 68.583L658.999 68.583 658.999 63.341 658.521 63.341z" mask="url(#prefix__d)"/>
                    <path fill="#FFF" d="M661.468 63.341L661.468 68.583" mask="url(#prefix__d)"/>
                    <path fill="#000" d="M661.229 68.583L661.707 68.583 661.707 63.341 661.229 63.341z" mask="url(#prefix__d)"/>
                    <path fill="#FFF" d="M664.177 63.341L664.177 68.583" mask="url(#prefix__d)"/>
                    <path fill="#000" d="M663.938 68.583L664.416 68.583 664.416 63.341 663.938 63.341z" mask="url(#prefix__d)"/>
                    <path fill="#FFF" d="M666.885 63.341L666.885 68.583" mask="url(#prefix__d)"/>
                    <path fill="#000" d="M666.646 68.583L667.124 68.583 667.124 63.341 666.646 63.341z" mask="url(#prefix__d)"/>
                    <path fill="#E6E8EB" d="M682.48 63.455s.16-1.009 1.59-1.697c1.43-.689 5.015-1.662 9.398-1.058 4.383.606 5.534 1.693 5.534 1.693l.527 1.165-.001 12.814s-.58 1.535-3.519 2.171c-2.938.636-8.79.848-11.596-.45 0 0-1.774-.742-1.933-1.854V63.455z" mask="url(#prefix__d)"/>
                    <path fill="#000" d="M682.72 76.228c.12.282 1.365 2.714 8.28 2.714 6.902 0 8.162-2.423 8.288-2.715l.001-12.85c-.09-.25-1.146-2.628-8.54-2.628-7.729 0-8.029 2.64-8.03 2.667v12.812zM691 79.42c-7.715 0-8.71-2.954-8.748-3.079l-.01-.07v-12.87c.006-.14.251-3.13 8.506-3.13 8.217 0 8.984 2.893 9.013 3.017l.006.053-.012 13c-.039.127-1.042 3.079-8.756 3.079z" mask="url(#prefix__d)"/>
                    <path fill="#000" d="M690.82 70.907c-7.496 0-8.525-2.759-8.565-2.878l.45-.157c.01.026 1.02 2.557 8.117 2.557h.29c7.344-.07 8.18-2.519 8.187-2.543l.459.13c-.031.115-.868 2.816-8.641 2.89l-.297.001M690.82 75.103c-7.495 0-8.525-2.76-8.565-2.88l.452-.153-.226.077.225-.08c.01.027 1.065 2.62 8.406 2.557 7.344-.072 8.18-2.52 8.187-2.543l.459.129c-.031.116-.868 2.817-8.641 2.892h-.297M690.82 66.713c-7.495 0-8.525-2.76-8.565-2.88l.452-.153-.226.077.225-.08c.01.027 1.065 2.612 8.406 2.557 7.344-.07 8.18-2.52 8.187-2.543l.459.129c-.031.116-.868 2.818-8.641 2.892h-.297" mask="url(#prefix__d)"/>
                    <path fill="#FFF" d="M728.015 229.016c0 31.125-25.232 56.357-56.357 56.357s-56.357-25.232-56.357-56.357 25.232-56.356 56.357-56.356 56.357 25.23 56.357 56.356" mask="url(#prefix__d)"/>
                    <path fill="#C5C8CF" d="M671.658 173.034c-30.869 0-55.982 25.113-55.982 55.981 0 30.87 25.113 55.983 55.982 55.983 30.87 0 55.982-25.113 55.982-55.983 0-30.868-25.113-55.98-55.982-55.98m0 112.713c-31.282 0-56.732-25.45-56.732-56.733 0-31.282 25.45-56.73 56.732-56.73s56.732 25.448 56.732 56.73c0 31.283-25.45 56.733-56.732 56.733" mask="url(#prefix__d)"/>
                    <path fill="#0A51B7" d="M657.064 226.58v-12.853s-.127-1.007.721-1.007.738 1.365.738 1.365l.221 12.494" mask="url(#prefix__d)"/>
                    <path fill="#000" d="M658.744 226.878c-.163 0-.296-.13-.299-.294l-.22-12.494c.013-.202.004-.75-.205-.975-.062-.066-.134-.096-.235-.096-.18 0-.257.062-.299.108-.138.155-.137.468-.125.564l.002 12.888c0 .165-.134.299-.299.299-.165 0-.299-.134-.299-.3v-12.85c-.006-.028-.068-.61.271-.996.126-.141.358-.311.75-.311.266 0 .5.1.674.289.424.459.368 1.305.361 1.399l.222 12.465c.003.165-.129.3-.294.304h-.005z" mask="url(#prefix__d)"/>
                    <path fill="#FFF" d="M652.654 229.695v-1.426s.1-1.69 1.724-1.69h34.924s1.359.264 1.359 2.121v.995" mask="url(#prefix__d)"/>
                    <path fill="#000" d="M690.96 229.695h-.598v-.995c0-1.572-1.074-1.818-1.12-1.828l-34.864.006c-1.295 0-1.416 1.265-1.426 1.41l.001 1.407h-.598v-1.426c.041-.699.515-1.989 2.023-1.989h34.924c.611.113 1.658.757 1.658 2.42v.995z" mask="url(#prefix__d)"/>
                    <path fill="#FFF" d="M651.07 241.928v-10.542s.1-1.69 1.724-1.69h38.091s1.36.264 1.36 2.12v10.112" mask="url(#prefix__d)"/>
                    <path fill="#000" d="M692.544 241.928h-.6v-10.111c0-1.573-1.072-1.82-1.118-1.828l-38.032.005c-1.294 0-1.416 1.266-1.425 1.41v10.524h-.598v-10.542c.04-.7.516-1.99 2.023-1.99h38.09c.612.114 1.66.758 1.66 2.42v10.112z" mask="url(#prefix__d)"/>
                    <path fill="#E6E8EB" d="M649.662 244.878v-1.43s-.033-1.52 1.558-1.52h41.075s1.359.133 1.359 1.475v1.343l-43.992.132z" mask="url(#prefix__d)"/>
                    <path fill="#000" d="M692.264 242.226H651.22c-.396 0-.704.109-.915.323-.347.35-.345.89-.345.896v1.134l43.394-.13v-1.045c0-1.032-.979-1.166-1.09-1.178zm-42.902 2.952v-1.728c0-.026-.01-.782.512-1.316.328-.335.781-.505 1.346-.505h41.074c.593.057 1.66.498 1.66 1.775v1.64l-44.592.134z" mask="url(#prefix__d)"/>
                    <path fill="#FFF" d="M653.391 232.347L689.924 232.347" mask="url(#prefix__d)"/>
                    <path fill="#000" d="M689.924 232.645H653.39c-.165 0-.3-.133-.3-.299 0-.165.135-.298.3-.298h36.533c.165 0 .299.133.299.298 0 .166-.134.3-.3.3" mask="url(#prefix__d)"/>
                    <path fill="#E6E8EB" d="M677.097 222.576c-.887 0-1.607-.72-1.607-1.607s.72-1.608 1.607-1.608 1.608.721 1.608 1.608c0 .886-.721 1.607-1.608 1.607" mask="url(#prefix__d)"/>
                    <path fill="#000" d="M677.097 219.66c-.721 0-1.308.587-1.308 1.31 0 .72.587 1.307 1.308 1.307.722 0 1.309-.587 1.309-1.308 0-.722-.587-1.309-1.31-1.309m0 3.215c-1.05 0-1.906-.856-1.906-1.906 0-1.05.856-1.907 1.907-1.907 1.052 0 1.907.856 1.907 1.907 0 1.05-.855 1.906-1.907 1.906" mask="url(#prefix__d)"/>
                    <path fill="#E6E8EB" d="M670.216 219.303c-.533 0-1.028-.262-1.327-.701-.324-.473-.37-1.09-.118-1.61 1.522-3.19 4.79-5.251 8.326-5.251 3.534 0 6.802 2.06 8.325 5.249.185.388.208.824.065 1.229-.145.406-.437.73-.824.916-.211.103-.45.156-.692.156-.614-.001-1.183-.36-1.452-.917-.992-2.077-3.12-3.418-5.422-3.418-2.302 0-4.431 1.344-5.424 3.42-.246.523-.754.877-1.327.922l-.13.005z" mask="url(#prefix__d)"/>
                    <path fill="#000" d="M677.097 212.04c-3.421 0-6.583 1.994-8.056 5.081-.205.425-.17.927.095 1.312.243.356.644.569 1.075.571l.124-.005c.453-.036.867-.323 1.068-.749 1.043-2.184 3.278-3.593 5.694-3.593 2.417 0 4.65 1.408 5.692 3.588.305.63 1.142.909 1.743.621.317-.151.555-.416.673-.747.116-.329.098-.684-.053-1-1.473-3.085-4.635-5.079-8.055-5.079zm-6.875 7.562h-.006c-.631 0-1.22-.311-1.574-.833-.384-.56-.438-1.291-.141-1.907 1.572-3.292 4.946-5.42 8.596-5.42 3.649 0 7.022 2.127 8.595 5.419.219.46.246.978.076 1.457-.171.483-.517.868-.977 1.087-.247.12-.532.185-.82.185-.728-.001-1.403-.427-1.721-1.086-.943-1.974-2.965-3.249-5.153-3.249-2.187 0-4.21 1.276-5.154 3.251-.291.619-.894 1.037-1.574 1.09l-.147.006z" mask="url(#prefix__d)"/>
                    <path fill="#E6E8EB" d="M689.475 215.893c-.614-.001-1.186-.36-1.455-.917-2.001-4.181-6.29-6.882-10.925-6.882-4.637 0-8.926 2.702-10.927 6.884-.272.553-.825.894-1.443.894-.24 0-.474-.052-.693-.158-.793-.381-1.134-1.338-.761-2.133 2.532-5.288 7.958-8.703 13.824-8.703 5.865 0 11.293 3.419 13.826 8.709.24.502.208 1.083-.087 1.554-.295.47-.802.75-1.357.752h-.002z" mask="url(#prefix__d)"/>
                    <path fill="#000" d="M689.475 215.594h.002c.451-.001.863-.23 1.103-.612.241-.383.267-.857.071-1.266-2.485-5.187-7.805-8.54-13.556-8.54-5.753 0-11.073 3.35-13.555 8.534-.302.646-.024 1.425.621 1.735.632.302 1.431.024 1.74-.6 2.048-4.281 6.443-7.05 11.194-7.05 4.75 0 9.144 2.768 11.194 7.052.22.452.685.746 1.186.747m.002.598h-.003c-.728-.001-1.405-.427-1.723-1.086-1.952-4.078-6.135-6.713-10.656-6.713-4.523 0-8.706 2.636-10.657 6.714-.325.658-.98 1.064-1.713 1.064-.288 0-.564-.062-.824-.187-.939-.452-1.343-1.586-.902-2.53 2.582-5.392 8.115-8.875 14.096-8.875 5.98 0 11.512 3.486 14.095 8.879.286.595.247 1.283-.103 1.842-.35.558-.95.89-1.61.892" mask="url(#prefix__d)"/>
                    <path fill="#C5C8CF" d="M291.062 143.783L405.668 143.783 405.668 143.033 291.062 143.033z" mask="url(#prefix__d)"/>
                    <path fill="#C5C8CF" d="M399.693 143.408L399.693 138.645 403.817 141.026 407.941 143.408 403.817 145.789 399.693 148.17zM289.21 156.848L403.817 156.848 403.817 156.098 289.21 156.098z" mask="url(#prefix__d)"/>
                    <path fill="#C5C8CF" d="M295.185 156.473L295.185 161.235 291.062 158.854 286.938 156.473 291.062 154.092 295.185 151.711z" mask="url(#prefix__d)"/>
                    <path fill="#000" d="M325.012 171.037c.084.252.12.516.12.804 0 .288-.036.551-.12.803h2.075v-1.607h-2.075zm3.586 7.004v1.008h-7.292v-3.454h1.235v2.446h6.057zm-6.273-4.522c.924 0 1.631-.67 1.631-1.678 0-.984-.707-1.656-1.63-1.656-.948 0-1.656.672-1.656 1.656 0 1.007.708 1.678 1.655 1.678zm2.16.133c-.504.587-1.272.948-2.16.936-1.607 0-2.83-1.153-2.83-2.747 0-1.595 1.223-2.747 2.83-2.747.888 0 1.656.36 2.16.935h2.602v-1.595h1.236v7.964h-1.236v-2.746h-2.602zM338.463 179.252h1.187v-10.83h-1.187v10.83zm-2.183-10.565h1.151v10.038h-1.151v-3.646h-1.775v-1.008h1.775v-1.715h-1.583c-.503 1.824-1.643 3.394-3.67 4.606l-.707-.876c2.23-1.356 3.309-3.117 3.489-5.336h-2.962v-.996h4.186c0 .552-.036 1.092-.12 1.596h1.367v-2.663zM352.852 179.24h1.187v-10.83h-1.187v10.83zm-2.207-10.59h1.163v10.086h-1.163v-5.252h-2.135v-1.007h2.135v-3.827zm-4.27 7.065c1.343-.012 2.267-.072 3.334-.301l.108 1.02c-1.223.24-2.278.3-3.934.3h-.731v-7.041h4.101v1.008h-2.878v5.014zM363.495 179.276h1.247V168.41h-1.247v10.866zm-6.117-6.249c0 1.703.66 2.723 1.595 2.723.947 0 1.608-1.02 1.608-2.723 0-1.677-.661-2.697-1.608-2.697-.935 0-1.595 1.02-1.595 2.697zm4.39 0c0 2.352-1.176 3.827-2.795 3.827-1.607 0-2.782-1.475-2.782-3.827 0-2.326 1.175-3.812 2.782-3.812 1.619 0 2.795 1.486 2.795 3.812zM375.866 168.398v10.866h-1.247V173.4h-2.075v-1.02h2.075v-3.982h1.247zm-7.28 7.328c1.727-.012 2.963-.072 4.378-.312l.108.996c-1.548.275-2.902.324-4.87.324h-.851v-7.377h5.025v1.02h-3.79v2.027h3.346v.983h-3.345v2.34zM316.494 125.313v1.02h-1.44v3.68h-1.247v-8.132h1.248v3.431h1.439zm-7.208 6.187h6.116v1.007h-7.363v-3.214h1.247v2.207zm1.75-5.109c.217-1.163.253-2.015.265-2.686h-4.234v-1.007h5.446v.624c0 .73 0 1.799-.265 3.201l-1.211-.132zm2.196 1.572c-2.255.395-4.81.454-6.692.454l-.132-1.005c.648 0 1.39 0 2.158-.026v-2.218h1.224v2.183c1.127-.049 2.29-.12 3.358-.288l.084.9zM325.255 132.736h1.247v-10.879h-1.247v10.879zm-5.829-3.597c1.715-.013 3.214-.097 4.93-.373l.132 1.007c-1.86.325-3.479.385-5.386.385h-.923v-4.295h3.778v-2.013h-3.802v-1.008h5.05v4.017h-3.779v2.28zM331.474 122.218L332.433 122.218 329.099 133.947 328.139 133.947zM340.65 130.95c0-.553-.851-.829-2.493-.829-1.632 0-2.484.276-2.484.828 0 .576.852.84 2.484.84 1.642 0 2.494-.264 2.494-.84zm1.236 0c0 1.15-1.367 1.762-3.73 1.762-2.351 0-3.73-.612-3.73-1.763 0-1.14 1.379-1.739 3.73-1.739 2.363 0 3.73.6 3.73 1.74zm1.176-3.407v.996h-9.8v-.996h4.283v-.888h-3.023v-4.474h7.376v.948h-6.141v.816h5.877v.923h-5.877v.84h6.213v.947h-3.178v.888h4.27zM352.386 132.7h1.176v-10.83h-1.176v10.83zm-2.182-10.614h1.163v10.099h-1.163v-5.494h-1.595v-1.007h1.595v-3.598zm-2.591 2.77c0 1.847.696 3.718 2.207 4.593l-.72.901c-1.019-.6-1.69-1.668-2.074-2.927-.384 1.367-1.08 2.53-2.123 3.19l-.744-.912c1.535-.959 2.255-2.914 2.255-4.845v-.78h-1.907v-1.019h4.893v1.019h-1.787v.78zM366.787 132.7h1.187v-10.83h-1.187v10.83zm-2.206-10.591h1.163v10.087h-1.163v-5.253h-2.135v-1.007h2.135v-3.827zm-4.271 7.065c1.344-.012 2.268-.072 3.335-.3l.107 1.02c-1.223.239-2.278.299-3.933.299h-.732v-7.04h4.102v1.007h-2.879v5.014zM377.431 132.736h1.247V121.87h-1.247v10.866zm-6.116-6.249c0 1.703.659 2.723 1.595 2.723.947 0 1.607-1.02 1.607-2.723 0-1.678-.66-2.698-1.607-2.698-.936 0-1.595 1.02-1.595 2.698zm4.39 0c0 2.351-1.176 3.826-2.795 3.826-1.608 0-2.783-1.475-2.783-3.826 0-2.327 1.175-3.813 2.783-3.813 1.619 0 2.795 1.486 2.795 3.813zM389.802 121.857v10.867h-1.247v-5.865h-2.075v-1.02h2.075v-3.982h1.247zm-7.279 7.328c1.726-.012 2.962-.07 4.377-.31l.108.994c-1.548.276-2.902.324-4.869.324h-.852v-7.376h5.025v1.02h-3.789v2.026h3.345v.984h-3.345v2.338z" mask="url(#prefix__d)"/>
                    <path fill="#0A51B7" d="M33.642 158.337L79.822 158.337 79.822 157.558 33.642 157.558z" mask="url(#prefix__d)"/>
                </g>
            </g>
        </g>
    </g>
</svg>
