<svg xmlns="http://www.w3.org/2000/svg" xmlns:xlink="http://www.w3.org/1999/xlink" width="780" height="370" viewBox="0 0 780 370">
    <defs>
        <path id="8lbavt269a" d="M0 0H780V370H0z"/>
        <path id="mge6i7c61c" d="M0 359L772.987 359 772.987 0.316 0 0.316z"/>
    </defs>
    <g fill="none" fill-rule="evenodd">
        <g>
            <g>
                <g>
                    <g>
                        <g transform="translate(-760 -4613) translate(0 2554) translate(320 636) translate(60 1286) translate(379 137)">
                            <mask id="wh7hrjxr7b" fill="#fff">
                                <use xlink:href="#8lbavt269a"/>
                            </mask>
                            <use fill="#F8F9FB" xlink:href="#8lbavt269a"/>
                            <g mask="url(#wh7hrjxr7b)">
                                <g>
                                    <path stroke="#C5C8CF" stroke-width=".75" d="M177.8 170.814L145.972 170.814" transform="translate(0 -1)"/>
                                    <path fill="#C5C8CF" d="M171.825 170.814L171.825 166.052 175.949 168.433 180.073 170.814 175.949 173.195 171.825 175.576z" transform="translate(0 -1)"/>
                                    <text font-family="NotoSansCJKkr-Medium, Noto Sans CJK KR" font-size="12" font-weight="400" transform="translate(0 -1)">
                                        <tspan x="175.022" y="248.106" fill="#000">S</tspan> <tspan x="182.317" y="248.106" fill="#000" letter-spacing="-.18">p</tspan> <tspan x="189.518" y="248.106" fill="#000">a</tspan> <tspan x="196.417" y="248.106" fill="#000" letter-spacing="-.312">c</tspan> <tspan x="201.998" y="248.106" fill="#000">e &amp; </tspan> <tspan x="222.637" y="248.106" fill="#000" letter-spacing="-.288">t</tspan> <tspan x="226.814" y="248.106" fill="#000">ask moni</tspan> <tspan x="278.678" y="248.106" fill="#000" letter-spacing="-.204">t</tspan> <tspan x="283.022" y="248.106" fill="#000">oring</tspan>
                                    </text>
                                    <text font-family="NotoSansCJKkr-Bold, Noto Sans CJK KR" font-size="18" font-weight="bold" transform="translate(0 -1)">
                                        <tspan x="431.796" y="198.871" fill="#092E6E">Digi</tspan> <tspan x="466.338" y="198.871" fill="#092E6E" letter-spacing="-.412">t</tspan> <tspan x="473.072" y="198.871" fill="#092E6E">al </tspan> <tspan x="493.466" y="198.871" fill="#092E6E" letter-spacing="-.54">T</tspan> <tspan x="503.636" y="198.871" fill="#092E6E">win</tspan>
                                    </text>
                                    <text font-family="NotoSansCJKkr-Bold, Noto Sans CJK KR" font-size="18" font-weight="bold" transform="translate(0 -1)">
                                        <tspan x="426.486" y="220.867" fill="#092E6E">Mana</tspan> <tspan x="474.672" y="220.867" fill="#092E6E" letter-spacing="-.344">g</tspan> <tspan x="484.732" y="220.867" fill="#092E6E">ement</tspan>
                                    </text>
                                    <text font-family="NotoSansCJKkr-Bold, Noto Sans CJK KR" font-size="18" font-weight="bold" transform="translate(0 -1)">
                                        <tspan x="455.304" y="242.863" fill="#092E6E">Se</tspan> <tspan x="476.994" y="242.863" fill="#092E6E" letter-spacing=".25">r</tspan> <tspan x="485.344" y="242.863" fill="#092E6E" letter-spacing="-.142">v</tspan> <tspan x="495.426" y="242.863" fill="#092E6E">er</tspan>
                                    </text>
                                    <path fill="#E6E8EB" d="M461.706 139.097L461.706 170.437 499.539 170.437 499.539 138.807z" transform="translate(0 -1)"/>
                                    <path stroke="#000" stroke-width=".565" d="M461.706 139.097L461.706 170.437 499.539 170.437 499.539 138.807z" transform="translate(0 -1)"/>
                                    <g>
                                        <path fill="#FFF" d="M3.463 12.361c-1.382 0-2.507-1.125-2.507-2.508V3.7c0-1.383 1.125-2.508 2.507-2.508H43.64c1.383 0 2.507 1.125 2.507 2.508v6.154c0 1.383-1.124 2.508-2.507 2.508H3.463z" transform="translate(0 -1) translate(457 126.684)"/>
                                        <path fill="#000" d="M43.64.91H3.462C1.93.91.674 2.164.674 3.7v6.153c0 1.536 1.255 2.79 2.79 2.79h40.175c1.534 0 2.79-1.254 2.79-2.79V3.7c0-1.535-1.256-2.789-2.79-2.789m0 .564c1.227 0 2.225.998 2.225 2.225v6.154c0 1.227-.998 2.225-2.225 2.225H3.463c-1.227 0-2.225-.998-2.225-2.225V3.7c0-1.227.998-2.225 2.225-2.225H43.64" transform="translate(0 -1) translate(457 126.684)"/>
                                        <path fill="#FFF" d="M3.463 26.616c-1.382 0-2.507-1.125-2.507-2.508v-6.154c0-1.383 1.125-2.508 2.507-2.508H43.64c1.383 0 2.507 1.125 2.507 2.508v6.154c0 1.383-1.124 2.508-2.507 2.508H3.463z" transform="translate(0 -1) translate(457 126.684)"/>
                                        <path fill="#000" d="M43.64 15.164H3.462c-1.534 0-2.789 1.256-2.789 2.79v6.155c0 1.534 1.255 2.79 2.79 2.79h40.175c1.534 0 2.79-1.256 2.79-2.79v-6.156c0-1.533-1.256-2.789-2.79-2.789m0 .564c1.227 0 2.225.998 2.225 2.225v6.156c0 1.227-.998 2.225-2.225 2.225H3.463c-1.227 0-2.225-.998-2.225-2.225v-6.156c0-1.227.998-2.225 2.225-2.225H43.64" transform="translate(0 -1) translate(457 126.684)"/>
                                        <path fill="#FFF" d="M3.463 40.791c-1.382 0-2.507-1.125-2.507-2.507v-6.155c0-1.382 1.125-2.507 2.507-2.507H43.64c1.383 0 2.507 1.125 2.507 2.507v6.155c0 1.382-1.124 2.507-2.507 2.507H3.463z" transform="translate(0 -1) translate(457 126.684)"/>
                                        <path fill="#000" d="M43.64 29.34H3.462c-1.534 0-2.789 1.255-2.789 2.789v6.154c0 1.536 1.255 2.79 2.79 2.79h40.175c1.534 0 2.79-1.254 2.79-2.79v-6.154c0-1.534-1.256-2.79-2.79-2.79m0 .565c1.227 0 2.225.998 2.225 2.225v6.154c0 1.228-.998 2.226-2.225 2.226H3.463c-1.227 0-2.225-.998-2.225-2.226v-6.154c0-1.227.998-2.225 2.225-2.225H43.64" transform="translate(0 -1) translate(457 126.684)"/>
                                        <path fill="#0A51B7" d="M29.156 8.382c-.885 0-1.605-.721-1.605-1.605 0-.885.72-1.606 1.605-1.606s1.605.72 1.605 1.606c0 .884-.72 1.605-1.605 1.605" transform="translate(0 -1) translate(457 126.684)"/>
                                        <path fill="#000" d="M29.156 4.889c-1.042 0-1.888.846-1.888 1.888 0 1.042.846 1.887 1.888 1.887 1.042 0 1.888-.845 1.888-1.887s-.846-1.888-1.888-1.888m0 .564c.729 0 1.323.594 1.323 1.324 0 .729-.594 1.323-1.323 1.323s-1.323-.594-1.323-1.323c0-.73.594-1.324 1.323-1.324" transform="translate(0 -1) translate(457 126.684)"/>
                                        <path fill="#0A51B7" d="M34.977 8.382c-.885 0-1.605-.721-1.605-1.605 0-.885.72-1.606 1.605-1.606s1.605.72 1.605 1.606c0 .884-.72 1.605-1.605 1.605" transform="translate(0 -1) translate(457 126.684)"/>
                                        <path fill="#000" d="M34.977 4.889c-1.042 0-1.887.846-1.887 1.888 0 1.042.845 1.887 1.887 1.887s1.888-.845 1.888-1.887-.846-1.888-1.888-1.888m0 .564c.73 0 1.323.594 1.323 1.324 0 .729-.594 1.323-1.323 1.323s-1.323-.594-1.323-1.323c0-.73.594-1.324 1.323-1.324" transform="translate(0 -1) translate(457 126.684)"/>
                                        <path fill="#0A51B7" d="M40.8 8.382c-.886 0-1.606-.721-1.606-1.605 0-.885.72-1.606 1.605-1.606s1.605.72 1.605 1.606c0 .884-.72 1.605-1.605 1.605" transform="translate(0 -1) translate(457 126.684)"/>
                                        <path fill="#000" d="M40.8 4.889c-1.043 0-1.889.846-1.889 1.888 0 1.042.846 1.887 1.888 1.887 1.042 0 1.887-.845 1.887-1.887s-.845-1.888-1.887-1.888m0 .564c.73 0 1.323.594 1.323 1.324 0 .729-.594 1.323-1.323 1.323s-1.323-.594-1.323-1.323c0-.73.594-1.324 1.323-1.324" transform="translate(0 -1) translate(457 126.684)"/>
                                        <path fill="#0A51B7" d="M29.156 22.637c-.885 0-1.605-.721-1.605-1.605 0-.885.72-1.606 1.605-1.606s1.605.72 1.605 1.606c0 .884-.72 1.605-1.605 1.605" transform="translate(0 -1) translate(457 126.684)"/>
                                        <path fill="#000" d="M29.156 19.145c-1.042 0-1.888.843-1.888 1.887 0 1.043.846 1.886 1.888 1.886 1.042 0 1.888-.843 1.888-1.886 0-1.044-.846-1.887-1.888-1.887m0 .564c.729 0 1.323.593 1.323 1.323 0 .729-.594 1.322-1.323 1.322s-1.323-.593-1.323-1.322c0-.73.594-1.323 1.323-1.323" transform="translate(0 -1) translate(457 126.684)"/>
                                        <path fill="#0A51B7" d="M34.977 22.637c-.885 0-1.605-.721-1.605-1.605 0-.885.72-1.606 1.605-1.606s1.605.72 1.605 1.606c0 .884-.72 1.605-1.605 1.605" transform="translate(0 -1) translate(457 126.684)"/>
                                        <path fill="#000" d="M34.977 19.145c-1.042 0-1.887.843-1.887 1.887 0 1.043.845 1.886 1.887 1.886s1.888-.843 1.888-1.886c0-1.044-.846-1.887-1.888-1.887m0 .564c.73 0 1.323.593 1.323 1.323 0 .729-.594 1.322-1.323 1.322s-1.323-.593-1.323-1.322c0-.73.594-1.323 1.323-1.323" transform="translate(0 -1) translate(457 126.684)"/>
                                        <path fill="#0A51B7" d="M40.8 22.637c-.886 0-1.606-.721-1.606-1.605 0-.885.72-1.606 1.605-1.606s1.605.72 1.605 1.606c0 .884-.72 1.605-1.605 1.605" transform="translate(0 -1) translate(457 126.684)"/>
                                        <path fill="#000" d="M40.8 19.145c-1.043 0-1.889.843-1.889 1.887 0 1.043.846 1.886 1.888 1.886 1.042 0 1.887-.843 1.887-1.886 0-1.044-.845-1.887-1.887-1.887m0 .564c.73 0 1.323.593 1.323 1.323 0 .729-.594 1.322-1.323 1.322s-1.323-.593-1.323-1.322c0-.73.594-1.323 1.323-1.323" transform="translate(0 -1) translate(457 126.684)"/>
                                        <path fill="#0A51B7" d="M29.156 36.812c-.885 0-1.605-.721-1.605-1.605 0-.886.72-1.607 1.605-1.607s1.605.721 1.605 1.606c0 .884-.72 1.605-1.605 1.605" transform="translate(0 -1) translate(457 126.684)"/>
                                        <path fill="#000" d="M29.156 33.318c-1.042 0-1.888.846-1.888 1.888 0 1.042.846 1.887 1.888 1.887 1.042 0 1.888-.845 1.888-1.887s-.846-1.888-1.888-1.888m0 .564c.729 0 1.323.594 1.323 1.324 0 .73-.594 1.323-1.323 1.323s-1.323-.594-1.323-1.323c0-.73.594-1.324 1.323-1.324" transform="translate(0 -1) translate(457 126.684)"/>
                                        <path fill="#0A51B7" d="M34.977 36.812c-.885 0-1.605-.721-1.605-1.605 0-.886.72-1.607 1.605-1.607s1.605.721 1.605 1.606c0 .884-.72 1.605-1.605 1.605" transform="translate(0 -1) translate(457 126.684)"/>
                                        <path fill="#000" d="M34.977 33.318c-1.042 0-1.887.846-1.887 1.888 0 1.042.845 1.887 1.887 1.887s1.888-.845 1.888-1.887-.846-1.888-1.888-1.888m0 .564c.73 0 1.323.594 1.323 1.324 0 .73-.594 1.323-1.323 1.323s-1.323-.594-1.323-1.323c0-.73.594-1.324 1.323-1.324" transform="translate(0 -1) translate(457 126.684)"/>
                                        <path fill="#0A51B7" d="M40.8 36.812c-.886 0-1.606-.721-1.606-1.605 0-.886.72-1.607 1.605-1.607s1.605.721 1.605 1.606c0 .884-.72 1.605-1.605 1.605" transform="translate(0 -1) translate(457 126.684)"/>
                                        <path fill="#000" d="M40.8 33.318c-1.043 0-1.889.846-1.889 1.888 0 1.042.846 1.887 1.888 1.887 1.042 0 1.887-.845 1.887-1.887s-.845-1.888-1.887-1.888m0 .564c.73 0 1.323.594 1.323 1.324 0 .73-.594 1.323-1.323 1.323s-1.323-.594-1.323-1.323c0-.73.594-1.324 1.323-1.324" transform="translate(0 -1) translate(457 126.684)"/>
                                        <g>
                                            <path fill="#FFF" d="M0.509 0.679L0.509 6.874" transform="translate(0 -1) translate(457 126.684) translate(5 3)"/>
                                            <path stroke="#000" stroke-width=".565" d="M0.509 0.679L0.509 6.874" transform="translate(0 -1) translate(457 126.684) translate(5 3)"/>
                                        </g>
                                        <g>
                                            <path fill="#FFF" d="M0.711 0.679L0.711 6.874" transform="translate(0 -1) translate(457 126.684) translate(8 3)"/>
                                            <path stroke="#000" stroke-width=".565" d="M0.711 0.679L0.711 6.874" transform="translate(0 -1) translate(457 126.684) translate(8 3)"/>
                                        </g>
                                        <g>
                                            <path fill="#FFF" d="M0.912 0.679L0.912 6.874" transform="translate(0 -1) translate(457 126.684) translate(11 3)"/>
                                            <path stroke="#000" stroke-width=".565" d="M0.912 0.679L0.912 6.874" transform="translate(0 -1) translate(457 126.684) translate(11 3)"/>
                                        </g>
                                        <g>
                                            <path fill="#FFF" d="M1.113 0.679L1.113 6.874" transform="translate(0 -1) translate(457 126.684) translate(14 3)"/>
                                            <path stroke="#000" stroke-width=".565" d="M1.113 0.679L1.113 6.874" transform="translate(0 -1) translate(457 126.684) translate(14 3)"/>
                                        </g>
                                        <g>
                                            <path fill="#FFF" d="M1.314 0.679L1.314 6.874" transform="translate(0 -1) translate(457 126.684) translate(17 3)"/>
                                            <path stroke="#000" stroke-width=".565" d="M1.314 0.679L1.314 6.874" transform="translate(0 -1) translate(457 126.684) translate(17 3)"/>
                                        </g>
                                        <g>
                                            <path fill="#FFF" d="M0.515 0.679L0.515 6.874" transform="translate(0 -1) translate(457 126.684) translate(21 3)"/>
                                            <path stroke="#000" stroke-width=".565" d="M0.515 0.679L0.515 6.874" transform="translate(0 -1) translate(457 126.684) translate(21 3)"/>
                                        </g>
                                        <g>
                                            <path fill="#FFF" d="M1.11 0.679L1.11 6.874" transform="translate(0 -1) translate(457 126.684) translate(6 3)"/>
                                            <path stroke="#000" stroke-width=".565" d="M1.11 0.679L1.11 6.874" transform="translate(0 -1) translate(457 126.684) translate(6 3)"/>
                                        </g>
                                        <g>
                                            <path fill="#FFF" d="M1.311 0.679L1.311 6.874" transform="translate(0 -1) translate(457 126.684) translate(9 3)"/>
                                            <path stroke="#000" stroke-width=".565" d="M1.311 0.679L1.311 6.874" transform="translate(0 -1) translate(457 126.684) translate(9 3)"/>
                                        </g>
                                        <g>
                                            <path fill="#FFF" d="M0.512 0.679L0.512 6.874" transform="translate(0 -1) translate(457 126.684) translate(13 3)"/>
                                            <path stroke="#000" stroke-width=".565" d="M0.512 0.679L0.512 6.874" transform="translate(0 -1) translate(457 126.684) translate(13 3)"/>
                                        </g>
                                        <g>
                                            <path fill="#FFF" d="M0.714 0.679L0.714 6.874" transform="translate(0 -1) translate(457 126.684) translate(16 3)"/>
                                            <path stroke="#000" stroke-width=".565" d="M0.714 0.679L0.714 6.874" transform="translate(0 -1) translate(457 126.684) translate(16 3)"/>
                                        </g>
                                        <g>
                                            <path fill="#FFF" d="M0.915 0.679L0.915 6.874" transform="translate(0 -1) translate(457 126.684) translate(19 3)"/>
                                            <path stroke="#000" stroke-width=".565" d="M0.915 0.679L0.915 6.874" transform="translate(0 -1) translate(457 126.684) translate(19 3)"/>
                                        </g>
                                        <g>
                                            <path fill="#FFF" d="M0.509 0.934L0.509 7.129" transform="translate(0 -1) translate(457 126.684) translate(5 17)"/>
                                            <path stroke="#000" stroke-width=".565" d="M0.509 0.934L0.509 7.129" transform="translate(0 -1) translate(457 126.684) translate(5 17)"/>
                                        </g>
                                        <g>
                                            <path fill="#FFF" d="M0.711 0.934L0.711 7.129" transform="translate(0 -1) translate(457 126.684) translate(8 17)"/>
                                            <path stroke="#000" stroke-width=".565" d="M0.711 0.934L0.711 7.129" transform="translate(0 -1) translate(457 126.684) translate(8 17)"/>
                                        </g>
                                        <g>
                                            <path fill="#FFF" d="M0.912 0.934L0.912 7.129" transform="translate(0 -1) translate(457 126.684) translate(11 17)"/>
                                            <path stroke="#000" stroke-width=".565" d="M0.912 0.934L0.912 7.129" transform="translate(0 -1) translate(457 126.684) translate(11 17)"/>
                                        </g>
                                        <g>
                                            <path fill="#FFF" d="M1.113 0.934L1.113 7.129" transform="translate(0 -1) translate(457 126.684) translate(14 17)"/>
                                            <path stroke="#000" stroke-width=".565" d="M1.113 0.934L1.113 7.129" transform="translate(0 -1) translate(457 126.684) translate(14 17)"/>
                                        </g>
                                        <g>
                                            <path fill="#FFF" d="M1.314 0.934L1.314 7.129" transform="translate(0 -1) translate(457 126.684) translate(17 17)"/>
                                            <path stroke="#000" stroke-width=".565" d="M1.314 0.934L1.314 7.129" transform="translate(0 -1) translate(457 126.684) translate(17 17)"/>
                                        </g>
                                        <g>
                                            <path fill="#FFF" d="M0.515 0.934L0.515 7.129" transform="translate(0 -1) translate(457 126.684) translate(21 17)"/>
                                            <path stroke="#000" stroke-width=".565" d="M0.515 0.934L0.515 7.129" transform="translate(0 -1) translate(457 126.684) translate(21 17)"/>
                                        </g>
                                        <g>
                                            <path fill="#FFF" d="M1.11 0.934L1.11 7.129" transform="translate(0 -1) translate(457 126.684) translate(6 17)"/>
                                            <path stroke="#000" stroke-width=".565" d="M1.11 0.934L1.11 7.129" transform="translate(0 -1) translate(457 126.684) translate(6 17)"/>
                                        </g>
                                        <g>
                                            <path fill="#FFF" d="M1.311 0.934L1.311 7.129" transform="translate(0 -1) translate(457 126.684) translate(9 17)"/>
                                            <path stroke="#000" stroke-width=".565" d="M1.311 0.934L1.311 7.129" transform="translate(0 -1) translate(457 126.684) translate(9 17)"/>
                                        </g>
                                        <g>
                                            <path fill="#FFF" d="M0.512 0.934L0.512 7.129" transform="translate(0 -1) translate(457 126.684) translate(13 17)"/>
                                            <path stroke="#000" stroke-width=".565" d="M0.512 0.934L0.512 7.129" transform="translate(0 -1) translate(457 126.684) translate(13 17)"/>
                                        </g>
                                        <g>
                                            <path fill="#FFF" d="M0.714 0.934L0.714 7.129" transform="translate(0 -1) translate(457 126.684) translate(16 17)"/>
                                            <path stroke="#000" stroke-width=".565" d="M0.714 0.934L0.714 7.129" transform="translate(0 -1) translate(457 126.684) translate(16 17)"/>
                                        </g>
                                        <g>
                                            <path fill="#FFF" d="M0.915 0.934L0.915 7.129" transform="translate(0 -1) translate(457 126.684) translate(19 17)"/>
                                            <path stroke="#000" stroke-width=".565" d="M0.915 0.934L0.915 7.129" transform="translate(0 -1) translate(457 126.684) translate(19 17)"/>
                                        </g>
                                        <g>
                                            <path fill="#FFF" d="M0.509 0.189L0.509 6.383" transform="translate(0 -1) translate(457 126.684) translate(5 32)"/>
                                            <path stroke="#000" stroke-width=".565" d="M0.509 0.189L0.509 6.383" transform="translate(0 -1) translate(457 126.684) translate(5 32)"/>
                                        </g>
                                        <g>
                                            <path fill="#FFF" d="M0.711 0.189L0.711 6.383" transform="translate(0 -1) translate(457 126.684) translate(8 32)"/>
                                            <path stroke="#000" stroke-width=".565" d="M0.711 0.189L0.711 6.383" transform="translate(0 -1) translate(457 126.684) translate(8 32)"/>
                                        </g>
                                        <g>
                                            <path fill="#FFF" d="M0.912 0.189L0.912 6.383" transform="translate(0 -1) translate(457 126.684) translate(11 32)"/>
                                            <path stroke="#000" stroke-width=".565" d="M0.912 0.189L0.912 6.383" transform="translate(0 -1) translate(457 126.684) translate(11 32)"/>
                                        </g>
                                        <g>
                                            <path fill="#FFF" d="M1.113 0.189L1.113 6.383" transform="translate(0 -1) translate(457 126.684) translate(14 32)"/>
                                            <path stroke="#000" stroke-width=".565" d="M1.113 0.189L1.113 6.383" transform="translate(0 -1) translate(457 126.684) translate(14 32)"/>
                                        </g>
                                        <g>
                                            <path fill="#FFF" d="M1.314 0.189L1.314 6.383" transform="translate(0 -1) translate(457 126.684) translate(17 32)"/>
                                            <path stroke="#000" stroke-width=".565" d="M1.314 0.189L1.314 6.383" transform="translate(0 -1) translate(457 126.684) translate(17 32)"/>
                                        </g>
                                        <g>
                                            <path fill="#FFF" d="M0.515 0.189L0.515 6.383" transform="translate(0 -1) translate(457 126.684) translate(21 32)"/>
                                            <path stroke="#000" stroke-width=".565" d="M0.515 0.189L0.515 6.383" transform="translate(0 -1) translate(457 126.684) translate(21 32)"/>
                                        </g>
                                        <g>
                                            <path fill="#FFF" d="M1.11 0.189L1.11 6.383" transform="translate(0 -1) translate(457 126.684) translate(6 32)"/>
                                            <path stroke="#000" stroke-width=".565" d="M1.11 0.189L1.11 6.383" transform="translate(0 -1) translate(457 126.684) translate(6 32)"/>
                                        </g>
                                        <g>
                                            <path fill="#FFF" d="M1.311 0.189L1.311 6.383" transform="translate(0 -1) translate(457 126.684) translate(9 32)"/>
                                            <path stroke="#000" stroke-width=".565" d="M1.311 0.189L1.311 6.383" transform="translate(0 -1) translate(457 126.684) translate(9 32)"/>
                                        </g>
                                        <g>
                                            <path fill="#FFF" d="M0.512 0.189L0.512 6.383" transform="translate(0 -1) translate(457 126.684) translate(13 32)"/>
                                            <path stroke="#000" stroke-width=".565" d="M0.512 0.189L0.512 6.383" transform="translate(0 -1) translate(457 126.684) translate(13 32)"/>
                                        </g>
                                        <g>
                                            <path fill="#FFF" d="M0.714 0.189L0.714 6.383" transform="translate(0 -1) translate(457 126.684) translate(16 32)"/>
                                            <path stroke="#000" stroke-width=".565" d="M0.714 0.189L0.714 6.383" transform="translate(0 -1) translate(457 126.684) translate(16 32)"/>
                                        </g>
                                        <g>
                                            <path fill="#FFF" d="M0.915 0.189L0.915 6.383" transform="translate(0 -1) translate(457 126.684) translate(19 32)"/>
                                            <path stroke="#000" stroke-width=".565" d="M0.915 0.189L0.915 6.383" transform="translate(0 -1) translate(457 126.684) translate(19 32)"/>
                                        </g>
                                        <path fill="#E6E8EB" d="M38.347 32.323s.188-1.193 1.877-2.007c1.69-.813 5.93-1.964 11.11-1.249 5.18.715 6.54 2 6.54 2l.622 1.377V47.59s-.685 1.814-4.159 2.565c-3.473.751-10.389 1.002-13.706-.53 0 0-2.096-.878-2.284-2.192v-15.11z" transform="translate(0 -1) translate(457 126.684)"/>
                                        <path stroke="#000" stroke-width=".565" d="M58.496 32.188s-.778-3.346-10.378-3.346-9.77 3.416-9.77 3.416V47.47s1.054 3.44 10.068 3.44c9.013 0 10.08-3.44 10.08-3.44V32.189z" transform="translate(0 -1) translate(457 126.684)"/>
                                        <path stroke="#000" stroke-width=".565" d="M38.347 37.638s1.125 3.296 10.205 3.209c9.08-.086 9.944-3.21 9.944-3.21M38.347 42.595s1.125 3.297 10.205 3.21c9.08-.087 9.944-3.21 9.944-3.21M38.347 32.68s1.125 3.297 10.205 3.21c9.08-.087 9.944-3.21 9.944-3.21" transform="translate(0 -1) translate(457 126.684)"/>
                                    </g>
                                    <text font-family="NotoSansCJKkr-Medium, Noto Sans CJK KR" font-size="12" font-weight="400" transform="translate(0 -1)">
                                        <tspan x="15.188" y="248.106" fill="#000">Con</tspan> <tspan x="37.795" y="248.106" fill="#000" letter-spacing="-.264">s</tspan> <tspan x="43.028" y="248.106" fill="#000">tru</tspan> <tspan x="60.127" y="248.106" fill="#000" letter-spacing="-.132">c</tspan> <tspan x="66.067" y="248.106" fill="#000">t virtual s</tspan> <tspan x="119.54" y="248.106" fill="#000" letter-spacing="-.18">p</tspan> <tspan x="126.74" y="248.106" fill="#000">a</tspan> <tspan x="133.639" y="248.106" fill="#000" letter-spacing="-.312">c</tspan> <tspan x="139.22" y="248.106" fill="#000">e</tspan>
                                    </text>
                                    <text font-family="NotoSansCJKkr-Medium, Noto Sans CJK KR" font-size="12" font-weight="400" transform="translate(0 -1)">
                                        <tspan x="41.9" y="264.102" fill="#000">in digi</tspan> <tspan x="76.915" y="264.102" fill="#000" letter-spacing="-.287">t</tspan> <tspan x="81.093" y="264.102" fill="#000">al twin</tspan>
                                    </text>
                                    <g transform="translate(0 -1) translate(0 .684)">
                                        <path fill="#FFF" d="M137.394 170.13c0 31.125-25.232 56.357-56.357 56.357S24.68 201.255 24.68 170.13s25.232-56.357 56.357-56.357 56.357 25.232 56.357 56.357"/>
                                        <path stroke="#C5C8CF" stroke-width=".75" d="M137.394 170.13c0 31.125-25.232 56.357-56.357 56.357S24.68 201.255 24.68 170.13s25.232-56.357 56.357-56.357 56.357 25.232 56.357 56.357z"/>
                                        <path fill="#E6E8EB" d="M81.135 155.617L81.135 164.081 68.792 164.081 68.792 155.617 63.432 155.617 63.432 180.317 68.191 180.317 68.792 180.317 81.135 180.317 91.518 180.317 98.643 180.317 98.643 158.814 92.774 155.617 92.774 158.767 86.98 155.617 86.98 158.767z"/>
                                        <path stroke="#000" stroke-width=".779" d="M81.135 155.617L81.135 164.081 68.792 164.081 68.792 155.617 63.432 155.617 63.432 180.317 68.191 180.317 68.792 180.317 81.135 180.317 91.518 180.317 98.643 180.317 98.643 158.814 92.774 155.617 92.774 158.767 86.98 155.617 86.98 158.767z"/>
                                        <mask id="cqktjmagid" fill="#fff">
                                            <use xlink:href="#mge6i7c61c"/>
                                        </mask>
                                        <path fill="#FFF" d="M63.432 180.317L68.777 180.317 68.777 155.617 63.432 155.617z" mask="url(#cqktjmagid)"/>
                                        <path stroke="#000" stroke-width=".779" d="M63.432 180.317L68.777 180.317 68.777 155.617 63.432 155.617z" mask="url(#cqktjmagid)"/>
                                        <g mask="url(#cqktjmagid)">
                                            <g>
                                                <path fill="#FFF" d="M0.432 0.532L5.62 0.532" transform="translate(63 158)"/>
                                                <path stroke="#000" stroke-width=".779" d="M0.432 0.532L5.62 0.532" transform="translate(63 158)"/>
                                            </g>
                                        </g>
                                        <path fill="#FFF" d="M68.776 180.317L91.711 180.317 91.711 164.081 68.776 164.081z" mask="url(#cqktjmagid)"/>
                                        <path stroke="#000" stroke-width=".776" d="M68.776 180.317L91.711 180.317 91.711 164.081 68.776 164.081z" mask="url(#cqktjmagid)"/>
                                        <path fill="#E6E8EB" d="M74.468 174.049H72.12c-.373 0-.675-.303-.675-.676v-2.346c0-.374.302-.677.675-.677h2.347c.373 0 .675.303.675.677v2.346c0 .373-.302.676-.675.676" mask="url(#cqktjmagid)"/>
                                        <path stroke="#000" stroke-width=".779" d="M74.468 174.049H72.12c-.373 0-.675-.303-.675-.676v-2.346c0-.374.302-.677.675-.677h2.347c.373 0 .675.303.675.677v2.346c0 .373-.302.676-.675.676z" mask="url(#cqktjmagid)"/>
                                        <path fill="#E6E8EB" d="M81.31 174.049h-2.346c-.374 0-.677-.303-.677-.676v-2.346c0-.374.303-.677.677-.677h2.346c.374 0 .676.303.676.677v2.346c0 .373-.302.676-.676.676" mask="url(#cqktjmagid)"/>
                                        <path stroke="#000" stroke-width=".779" d="M81.31 174.049h-2.346c-.374 0-.677-.303-.677-.676v-2.346c0-.374.303-.677.677-.677h2.346c.374 0 .676.303.676.677v2.346c0 .373-.302.676-.676.676z" mask="url(#cqktjmagid)"/>
                                        <path fill="#E6E8EB" d="M88.153 174.049h-2.347c-.373 0-.676-.303-.676-.676v-2.346c0-.374.303-.677.676-.677h2.347c.374 0 .676.303.676.677v2.346c0 .373-.302.676-.676.676" mask="url(#cqktjmagid)"/>
                                        <path stroke="#000" stroke-width=".779" d="M88.153 174.049h-2.347c-.373 0-.676-.303-.676-.676v-2.346c0-.374.303-.677.676-.677h2.347c.374 0 .676.303.676.677v2.346c0 .373-.302.676-.676.676z" mask="url(#cqktjmagid)"/>
                                        <g mask="url(#cqktjmagid)">
                                            <g>
                                                <path fill="#FFF" d="M0.777 1.06L23.519 1.06" transform="translate(68 166)"/>
                                                <path stroke="#000" stroke-width=".779" d="M0.777 1.06L23.519 1.06" transform="translate(68 166)"/>
                                            </g>
                                        </g>
                                        <path stroke="#000" stroke-width=".779" d="M100.435 145.435L104.147 145.435 104.147 149.148M61.68 145.435L57.967 145.435 57.967 149.148M61.68 190.493L57.967 190.493 57.967 186.78M100.435 190.493L104.147 190.493 104.147 186.78" mask="url(#cqktjmagid)"/>
                                        <path fill="#0A51B7" d="M63.432 159.212L68.777 159.212 68.777 155.617 63.432 155.617z" mask="url(#cqktjmagid)"/>
                                        <path stroke="#000" stroke-width=".779" d="M63.432 159.212L68.777 159.212 68.777 155.617 63.432 155.617z" mask="url(#cqktjmagid)"/>
                                        <path fill="#FFF" d="M300.941 170.247c0 31.125-25.232 56.357-56.357 56.357s-56.357-25.232-56.357-56.357 25.232-56.357 56.357-56.357 56.357 25.232 56.357 56.357" mask="url(#cqktjmagid)"/>
                                        <path stroke="#C5C8CF" stroke-width=".75" d="M300.941 170.247c0 31.125-25.232 56.357-56.357 56.357s-56.357-25.232-56.357-56.357 25.232-56.357 56.357-56.357 56.357 25.232 56.357 56.357z" mask="url(#cqktjmagid)"/>
                                        <path fill="#007CF7" d="M217.976 179.196L213.637 175.729 213.637 164.506 217.976 161.038z" mask="url(#cqktjmagid)"/>
                                        <path fill="#6FB6FB" d="M225.692 179.196L230.031 175.729 230.031 164.506 225.692 161.038z" mask="url(#cqktjmagid)"/>
                                        <path fill="#0065C7" d="M225.692 161.039L221.835 163.572 225.692 166.168zM217.976 161.039L221.834 163.572 217.976 166.168zM225.692 174.067L221.835 176.601 225.692 179.196zM217.976 174.067L221.834 176.601 217.976 179.196z" mask="url(#cqktjmagid)"/>
                                        <path fill="#273A5B" d="M258.051 174.142L255.876 167.49 253.927 167.49 251.751 174.144 249.791 167.49 247.743 167.49 250.771 176.879 252.683 176.879 254.855 170.129 257.046 176.879 258.976 176.879 262.004 167.49 259.993 167.49zM274.594 168.19c-.625-.664-1.524-1-2.674-1-.603 0-1.191.155-1.748.463-.465.256-.834.57-1.101.936v-1.1h-1.884v9.39h1.959v-5.18c0-.739.223-1.383.663-1.913.441-.53.972-.788 1.625-.788 1.404 0 2.104.696 2.139 2.122v5.758h1.959v-5.87c0-1.209-.315-2.157-.938-2.818M263.229 176.879L265.186 176.879 265.186 167.199 263.229 167.199zM263.141 165.413L265.274 165.413 265.274 163.281 263.141 163.281z" mask="url(#cqktjmagid)"/>
                                        <path fill="#273A5B" d="M249.988 163.27L237.512 163.27 237.512 165.165 242.764 165.165 242.764 176.964 244.734 176.964 244.734 165.165 249.988 165.165z" mask="url(#cqktjmagid)"/>
                                    </g>
                                    <text font-family="NotoSansCJKkr-Medium, Noto Sans CJK KR" font-size="12" font-weight="400" transform="translate(0 -1)">
                                        <tspan x="534.273" y="267.674" fill="#000">D</tspan> <tspan x="542.661" y="267.674" fill="#000" letter-spacing="-.204">a</tspan> <tspan x="549.153" y="267.674" fill="#000" letter-spacing="-.288">t</tspan> <tspan x="553.329" y="267.674" fill="#000">a f</tspan> <tspan x="567.069" y="267.674" fill="#000" letter-spacing="-.132">r</tspan> <tspan x="571.713" y="267.674" fill="#000">om sensor</tspan>
                                    </text>
                                    <text font-family="NotoSansCJKkr-Medium, Noto Sans CJK KR" font-size="12" font-weight="400" transform="translate(0 -1)">
                                        <tspan x="531.333" y="61.31" fill="#000">Mana</tspan> <tspan x="562.581" y="61.31" fill="#000" letter-spacing="-.204">g</tspan> <tspan x="569.109" y="61.31" fill="#000">ement d</tspan> <tspan x="616.473" y="61.31" fill="#000" letter-spacing="-.204">a</tspan> <tspan x="622.965" y="61.31" fill="#000" letter-spacing="-.288">t</tspan> <tspan x="627.141" y="61.31" fill="#000">a</tspan>
                                    </text>
                                    <g fill="#000" font-family="NotoSansCJKkr-Medium, Noto Sans CJK KR" font-size="12" font-weight="400">
                                        <text transform="translate(0 -1) translate(621 312.684)">
                                            <tspan x=".668" y="14.675">D</tspan> <tspan x="9.056" y="14.675" letter-spacing="-.204">a</tspan> <tspan x="15.548" y="14.675" letter-spacing="-.288">t</tspan> <tspan x="19.724" y="14.675">a </tspan> <tspan x="29.324" y="14.675" letter-spacing="-.312">c</tspan> <tspan x="34.904" y="14.675">olle</tspan> <tspan x="56.204" y="14.675" letter-spacing="-.132">c</tspan> <tspan x="62.144" y="14.675">tion </tspan> <tspan x="87.896" y="14.675" letter-spacing="-.036">o</tspan> <tspan x="95.192" y="14.675">f ﬁeld si</tspan> <tspan x="139.688" y="14.675" letter-spacing="-.205">t</tspan> <tspan x="144.031" y="14.675">e</tspan>
                                        </text>
                                        <text transform="translate(0 -1) translate(621 312.684)">
                                            <tspan x="21.572" y="30.671">(</tspan> <tspan x="25.832" y="30.671" letter-spacing="-.288">t</tspan> <tspan x="30.008" y="30.671">ask &amp; equipment)</tspan>
                                        </text>
                                    </g>
                                    <text font-family="NotoSansCJKkr-Medium, Noto Sans CJK KR" font-size="12" font-weight="400" letter-spacing="-.468" transform="translate(0 -1)">
                                        <tspan x="635.462" y="155.541" fill="#000">E</tspan> <tspan x="641.726" y="155.541" fill="#000">xi</tspan> <tspan x="651.482" y="155.541" fill="#000" letter-spacing="-.264">s</tspan> <tspan x="656.714" y="155.541" fill="#000">ting mana</tspan> <tspan x="714.626" y="155.541" fill="#000" letter-spacing="-.204">g</tspan> <tspan x="721.154" y="155.541" fill="#000">ement</tspan>
                                    </text>
                                    <text font-family="NotoSansCJKkr-Medium, Noto Sans CJK KR" font-size="12" font-weight="400" transform="translate(0 -1)">
                                        <tspan x="677.114" y="171.537" fill="#000">sy</tspan> <tspan x="689.402" y="171.537" fill="#000" letter-spacing="-.264">s</tspan> <tspan x="694.634" y="171.537" fill="#000" letter-spacing="-.204">t</tspan> <tspan x="698.978" y="171.537" fill="#000">em</tspan>
                                    </text>
                                    <g>
                                        <path stroke="#C5C8CF" stroke-width=".75" d="M331.606 229.137L250.223 229.137 250.223 143.242 250.223 57.348 331.606 57.348M225.957 143.242L250.223 143.242" transform="translate(0 -1) translate(311 20.684)"/>
                                        <path fill="#C5C8CF" d="M232.01 143.242L232.01 148.004 227.886 145.623 223.762 143.242 227.886 140.86 232.01 138.479z" transform="translate(0 -1) translate(311 20.684)"/>
                                        <path fill="#FFF" d="M444.32 57.032c0 31.126-25.232 56.357-56.357 56.357s-56.357-25.23-56.357-56.357c0-31.125 25.232-56.356 56.357-56.356s56.357 25.231 56.357 56.356" transform="translate(0 -1) translate(311 20.684)"/>
                                        <path stroke="#C5C8CF" stroke-width=".75" d="M444.32 57.032c0 31.126-25.232 56.357-56.357 56.357s-56.357-25.23-56.357-56.357c0-31.125 25.232-56.356 56.357-56.356s56.357 25.231 56.357 56.356z" transform="translate(0 -1) translate(311 20.684)"/>
                                        <path fill="#E6E8EB" d="M370.322 46.444L370.322 72.96 402.332 72.96 402.332 46.198z" transform="translate(0 -1) translate(311 20.684)"/>
                                        <path stroke="#000" stroke-width=".478" d="M370.322 46.444L370.322 72.96 402.332 72.96 402.332 46.198z" transform="translate(0 -1) translate(311 20.684)"/>
                                        <path fill="#FFF" d="M369.27 46.4c-1.168 0-2.12-.952-2.12-2.122v-5.207c0-1.17.952-2.12 2.12-2.12h33.993c1.17 0 2.12.95 2.12 2.12v5.207c0 1.17-.95 2.121-2.12 2.121H369.27z" transform="translate(0 -1) translate(311 20.684)"/>
                                        <path fill="#000" d="M403.263 36.71H369.27c-1.298 0-2.36 1.063-2.36 2.36v5.209c0 1.297 1.062 2.36 2.36 2.36h33.992c1.298 0 2.36-1.063 2.36-2.36V39.07c0-1.298-1.062-2.36-2.36-2.36m0 .478c1.038 0 1.882.844 1.882 1.882v5.208c0 1.037-.844 1.882-1.882 1.882H369.27c-1.038 0-1.883-.845-1.883-1.882V39.07c0-1.038.845-1.882 1.883-1.882h33.992" transform="translate(0 -1) translate(311 20.684)"/>
                                        <path fill="#FFF" d="M369.27 58.46c-1.168 0-2.12-.951-2.12-2.12v-5.208c0-1.17.952-2.121 2.12-2.121h33.993c1.17 0 2.12.951 2.12 2.121v5.208c0 1.169-.95 2.12-2.12 2.12H369.27z" transform="translate(0 -1) translate(311 20.684)"/>
                                        <path fill="#000" d="M403.263 48.772H369.27c-1.298 0-2.36 1.062-2.36 2.36v5.208c0 1.296 1.062 2.36 2.36 2.36h33.992c1.298 0 2.36-1.064 2.36-2.36V51.13c0-1.297-1.062-2.36-2.36-2.36m0 .48c1.038 0 1.882.843 1.882 1.88v5.209c0 1.036-.844 1.881-1.882 1.881H369.27c-1.038 0-1.883-.844-1.883-1.881V51.13c0-1.038.845-1.88 1.883-1.88h33.992" transform="translate(0 -1) translate(311 20.684)"/>
                                        <path fill="#FFF" d="M369.27 70.453c-1.168 0-2.12-.95-2.12-2.12v-5.208c0-1.17.952-2.12 2.12-2.12h33.993c1.17 0 2.12.95 2.12 2.12v5.208c0 1.17-.95 2.12-2.12 2.12H369.27z" transform="translate(0 -1) translate(311 20.684)"/>
                                        <path fill="#000" d="M403.263 60.766H369.27c-1.298 0-2.36 1.062-2.36 2.359v5.207c0 1.299 1.062 2.36 2.36 2.36h33.992c1.298 0 2.36-1.061 2.36-2.36v-5.207c0-1.297-1.062-2.36-2.36-2.36m0 .478c1.038 0 1.882.845 1.882 1.882v5.207c0 1.038-.844 1.883-1.882 1.883H369.27c-1.038 0-1.883-.845-1.883-1.883v-5.207c0-1.037.845-1.882 1.883-1.882h33.992" transform="translate(0 -1) translate(311 20.684)"/>
                                        <path fill="#0A51B7" d="M391.009 43.032c-.749 0-1.358-.608-1.358-1.357s.609-1.358 1.358-1.358c.749 0 1.358.61 1.358 1.358 0 .75-.609 1.357-1.358 1.357" transform="translate(0 -1) translate(311 20.684)"/>
                                        <path fill="#000" d="M391.009 40.078c-.882 0-1.597.715-1.597 1.597s.715 1.596 1.597 1.596 1.597-.714 1.597-1.596c0-.882-.715-1.597-1.597-1.597m0 .478c.617 0 1.119.501 1.119 1.12 0 .616-.502 1.118-1.119 1.118s-1.119-.502-1.119-1.119c0-.618.502-1.119 1.119-1.119" transform="translate(0 -1) translate(311 20.684)"/>
                                        <path fill="#0A51B7" d="M395.934 43.032c-.749 0-1.358-.608-1.358-1.357s.61-1.358 1.358-1.358c.75 0 1.358.61 1.358 1.358 0 .75-.609 1.357-1.358 1.357" transform="translate(0 -1) translate(311 20.684)"/>
                                        <path fill="#000" d="M395.934 40.078c-.882 0-1.597.715-1.597 1.597s.715 1.596 1.597 1.596 1.597-.714 1.597-1.596c0-.882-.715-1.597-1.597-1.597m0 .478c.617 0 1.12.501 1.12 1.12 0 .616-.503 1.118-1.12 1.118-.617 0-1.119-.502-1.119-1.119 0-.618.502-1.119 1.12-1.119" transform="translate(0 -1) translate(311 20.684)"/>
                                        <path fill="#0A51B7" d="M400.86 43.032c-.75 0-1.358-.608-1.358-1.357s.609-1.358 1.358-1.358c.749 0 1.358.61 1.358 1.358 0 .75-.61 1.357-1.358 1.357" transform="translate(0 -1) translate(311 20.684)"/>
                                        <path fill="#000" d="M400.86 40.078c-.882 0-1.597.715-1.597 1.597s.715 1.596 1.597 1.596 1.597-.714 1.597-1.596c0-.882-.715-1.597-1.597-1.597m0 .478c.617 0 1.119.501 1.119 1.12 0 .616-.502 1.118-1.12 1.118-.616 0-1.118-.502-1.118-1.119 0-.618.502-1.119 1.119-1.119" transform="translate(0 -1) translate(311 20.684)"/>
                                        <path fill="#0A51B7" d="M391.009 55.093c-.749 0-1.358-.608-1.358-1.357 0-.75.609-1.358 1.358-1.358.749 0 1.358.609 1.358 1.358 0 .749-.609 1.357-1.358 1.357" transform="translate(0 -1) translate(311 20.684)"/>
                                        <path fill="#000" d="M391.009 52.139c-.882 0-1.597.715-1.597 1.597s.715 1.596 1.597 1.596 1.597-.714 1.597-1.596c0-.882-.715-1.597-1.597-1.597m0 .478c.617 0 1.119.5 1.119 1.119 0 .617-.502 1.12-1.119 1.12s-1.119-.503-1.119-1.12c0-.618.502-1.12 1.119-1.12" transform="translate(0 -1) translate(311 20.684)"/>
                                        <path fill="#0A51B7" d="M395.934 55.093c-.749 0-1.358-.608-1.358-1.357 0-.75.61-1.358 1.358-1.358.75 0 1.358.609 1.358 1.358 0 .749-.609 1.357-1.358 1.357" transform="translate(0 -1) translate(311 20.684)"/>
                                        <path fill="#000" d="M395.934 52.139c-.882 0-1.597.715-1.597 1.597s.715 1.596 1.597 1.596 1.597-.714 1.597-1.596c0-.882-.715-1.597-1.597-1.597m0 .478c.617 0 1.12.5 1.12 1.119 0 .617-.503 1.12-1.12 1.12-.617 0-1.119-.503-1.119-1.12 0-.618.502-1.12 1.12-1.12" transform="translate(0 -1) translate(311 20.684)"/>
                                        <path fill="#0A51B7" d="M400.86 55.093c-.75 0-1.358-.608-1.358-1.357 0-.75.609-1.358 1.358-1.358.749 0 1.358.609 1.358 1.358 0 .749-.61 1.357-1.358 1.357" transform="translate(0 -1) translate(311 20.684)"/>
                                        <path fill="#000" d="M400.86 52.139c-.882 0-1.597.715-1.597 1.597s.715 1.596 1.597 1.596 1.597-.714 1.597-1.596c0-.882-.715-1.597-1.597-1.597m0 .478c.617 0 1.119.5 1.119 1.119 0 .617-.502 1.12-1.12 1.12-.616 0-1.118-.503-1.118-1.12 0-.618.502-1.12 1.119-1.12" transform="translate(0 -1) translate(311 20.684)"/>
                                        <path fill="#0A51B7" d="M391.009 67.086c-.749 0-1.358-.608-1.358-1.357 0-.75.609-1.358 1.358-1.358.749 0 1.358.609 1.358 1.358 0 .749-.609 1.357-1.358 1.357" transform="translate(0 -1) translate(311 20.684)"/>
                                        <path fill="#000" d="M391.009 64.132c-.882 0-1.597.715-1.597 1.597s.715 1.597 1.597 1.597 1.597-.715 1.597-1.597-.715-1.597-1.597-1.597m0 .478c.617 0 1.119.5 1.119 1.119 0 .617-.502 1.119-1.119 1.119s-1.119-.502-1.119-1.12c0-.617.502-1.118 1.119-1.118" transform="translate(0 -1) translate(311 20.684)"/>
                                        <path fill="#0A51B7" d="M395.934 67.086c-.749 0-1.358-.608-1.358-1.357 0-.75.61-1.358 1.358-1.358.75 0 1.358.609 1.358 1.358 0 .749-.609 1.357-1.358 1.357" transform="translate(0 -1) translate(311 20.684)"/>
                                        <path fill="#000" d="M395.934 64.132c-.882 0-1.597.715-1.597 1.597s.715 1.597 1.597 1.597 1.597-.715 1.597-1.597-.715-1.597-1.597-1.597m0 .478c.617 0 1.12.5 1.12 1.119 0 .617-.503 1.119-1.12 1.119-.617 0-1.119-.502-1.119-1.12 0-.617.502-1.118 1.12-1.118" transform="translate(0 -1) translate(311 20.684)"/>
                                        <path fill="#0A51B7" d="M400.86 67.086c-.75 0-1.358-.608-1.358-1.357 0-.75.609-1.358 1.358-1.358.749 0 1.358.609 1.358 1.358 0 .749-.61 1.357-1.358 1.357" transform="translate(0 -1) translate(311 20.684)"/>
                                        <path fill="#000" d="M400.86 64.132c-.882 0-1.597.715-1.597 1.597s.715 1.597 1.597 1.597 1.597-.715 1.597-1.597-.715-1.597-1.597-1.597m0 .478c.617 0 1.119.5 1.119 1.119 0 .617-.502 1.119-1.12 1.119-.616 0-1.118-.502-1.118-1.12 0-.617.502-1.118 1.119-1.118" transform="translate(0 -1) translate(311 20.684)"/>
                                        <g>
                                            <path fill="#FFF" d="M1.002 0.054L1.002 5.296" transform="translate(0 -1) translate(311 20.684) translate(370 39)"/>
                                            <path stroke="#000" stroke-width=".478" d="M1.002 0.054L1.002 5.296" transform="translate(0 -1) translate(311 20.684) translate(370 39)"/>
                                        </g>
                                        <g>
                                            <path fill="#FFF" d="M0.711 0.054L0.711 5.296" transform="translate(0 -1) translate(311 20.684) translate(373 39)"/>
                                            <path stroke="#000" stroke-width=".478" d="M0.711 0.054L0.711 5.296" transform="translate(0 -1) translate(311 20.684) translate(373 39)"/>
                                        </g>
                                        <g>
                                            <path fill="#FFF" d="M1.419 0.054L1.419 5.296" transform="translate(0 -1) translate(311 20.684) translate(375 39)"/>
                                            <path stroke="#000" stroke-width=".478" d="M1.419 0.054L1.419 5.296" transform="translate(0 -1) translate(311 20.684) translate(375 39)"/>
                                        </g>
                                        <g>
                                            <path fill="#FFF" d="M1.128 0.054L1.128 5.296" transform="translate(0 -1) translate(311 20.684) translate(378 39)"/>
                                            <path stroke="#000" stroke-width=".478" d="M1.128 0.054L1.128 5.296" transform="translate(0 -1) translate(311 20.684) translate(378 39)"/>
                                        </g>
                                        <g>
                                            <path fill="#FFF" d="M0.836 0.054L0.836 5.296" transform="translate(0 -1) translate(311 20.684) translate(381 39)"/>
                                            <path stroke="#000" stroke-width=".478" d="M0.836 0.054L0.836 5.296" transform="translate(0 -1) translate(311 20.684) translate(381 39)"/>
                                        </g>
                                        <g>
                                            <path fill="#FFF" d="M0.545 0.054L0.545 5.296" transform="translate(0 -1) translate(311 20.684) translate(384 39)"/>
                                            <path stroke="#000" stroke-width=".478" d="M0.545 0.054L0.545 5.296" transform="translate(0 -1) translate(311 20.684) translate(384 39)"/>
                                        </g>
                                        <g>
                                            <path fill="#FFF" d="M1.356 0.054L1.356 5.296" transform="translate(0 -1) translate(311 20.684) translate(371 39)"/>
                                            <path stroke="#000" stroke-width=".478" d="M1.356 0.054L1.356 5.296" transform="translate(0 -1) translate(311 20.684) translate(371 39)"/>
                                        </g>
                                        <g>
                                            <path fill="#FFF" d="M1.065 0.054L1.065 5.296" transform="translate(0 -1) translate(311 20.684) translate(374 39)"/>
                                            <path stroke="#000" stroke-width=".478" d="M1.065 0.054L1.065 5.296" transform="translate(0 -1) translate(311 20.684) translate(374 39)"/>
                                        </g>
                                        <g>
                                            <path fill="#FFF" d="M0.773 0.054L0.773 5.296" transform="translate(0 -1) translate(311 20.684) translate(377 39)"/>
                                            <path stroke="#000" stroke-width=".478" d="M0.773 0.054L0.773 5.296" transform="translate(0 -1) translate(311 20.684) translate(377 39)"/>
                                        </g>
                                        <g>
                                            <path fill="#FFF" d="M1.482 0.054L1.482 5.296" transform="translate(0 -1) translate(311 20.684) translate(379 39)"/>
                                            <path stroke="#000" stroke-width=".478" d="M1.482 0.054L1.482 5.296" transform="translate(0 -1) translate(311 20.684) translate(379 39)"/>
                                        </g>
                                        <g>
                                            <path fill="#FFF" d="M1.19 0.054L1.19 5.296" transform="translate(0 -1) translate(311 20.684) translate(382 39)"/>
                                            <path stroke="#000" stroke-width=".478" d="M1.19 0.054L1.19 5.296" transform="translate(0 -1) translate(311 20.684) translate(382 39)"/>
                                        </g>
                                        <g>
                                            <path fill="#FFF" d="M1.002 0.114L1.002 5.356" transform="translate(0 -1) translate(311 20.684) translate(370 51)"/>
                                            <path stroke="#000" stroke-width=".478" d="M1.002 0.114L1.002 5.356" transform="translate(0 -1) translate(311 20.684) translate(370 51)"/>
                                        </g>
                                        <g>
                                            <path fill="#FFF" d="M0.711 0.114L0.711 5.356" transform="translate(0 -1) translate(311 20.684) translate(373 51)"/>
                                            <path stroke="#000" stroke-width=".478" d="M0.711 0.114L0.711 5.356" transform="translate(0 -1) translate(311 20.684) translate(373 51)"/>
                                        </g>
                                        <g>
                                            <path fill="#FFF" d="M1.419 0.114L1.419 5.356" transform="translate(0 -1) translate(311 20.684) translate(375 51)"/>
                                            <path stroke="#000" stroke-width=".478" d="M1.419 0.114L1.419 5.356" transform="translate(0 -1) translate(311 20.684) translate(375 51)"/>
                                        </g>
                                        <g>
                                            <path fill="#FFF" d="M1.128 0.114L1.128 5.356" transform="translate(0 -1) translate(311 20.684) translate(378 51)"/>
                                            <path stroke="#000" stroke-width=".478" d="M1.128 0.114L1.128 5.356" transform="translate(0 -1) translate(311 20.684) translate(378 51)"/>
                                        </g>
                                        <g>
                                            <path fill="#FFF" d="M0.836 0.114L0.836 5.356" transform="translate(0 -1) translate(311 20.684) translate(381 51)"/>
                                            <path stroke="#000" stroke-width=".478" d="M0.836 0.114L0.836 5.356" transform="translate(0 -1) translate(311 20.684) translate(381 51)"/>
                                        </g>
                                        <g>
                                            <path fill="#FFF" d="M0.545 0.114L0.545 5.356" transform="translate(0 -1) translate(311 20.684) translate(384 51)"/>
                                            <path stroke="#000" stroke-width=".478" d="M0.545 0.114L0.545 5.356" transform="translate(0 -1) translate(311 20.684) translate(384 51)"/>
                                        </g>
                                        <g>
                                            <path fill="#FFF" d="M1.356 0.114L1.356 5.356" transform="translate(0 -1) translate(311 20.684) translate(371 51)"/>
                                            <path stroke="#000" stroke-width=".478" d="M1.356 0.114L1.356 5.356" transform="translate(0 -1) translate(311 20.684) translate(371 51)"/>
                                        </g>
                                        <g>
                                            <path fill="#FFF" d="M1.065 0.114L1.065 5.356" transform="translate(0 -1) translate(311 20.684) translate(374 51)"/>
                                            <path stroke="#000" stroke-width=".478" d="M1.065 0.114L1.065 5.356" transform="translate(0 -1) translate(311 20.684) translate(374 51)"/>
                                        </g>
                                        <g>
                                            <path fill="#FFF" d="M0.773 0.114L0.773 5.356" transform="translate(0 -1) translate(311 20.684) translate(377 51)"/>
                                            <path stroke="#000" stroke-width=".478" d="M0.773 0.114L0.773 5.356" transform="translate(0 -1) translate(311 20.684) translate(377 51)"/>
                                        </g>
                                        <g>
                                            <path fill="#FFF" d="M1.482 0.114L1.482 5.356" transform="translate(0 -1) translate(311 20.684) translate(379 51)"/>
                                            <path stroke="#000" stroke-width=".478" d="M1.482 0.114L1.482 5.356" transform="translate(0 -1) translate(311 20.684) translate(379 51)"/>
                                        </g>
                                        <g>
                                            <path fill="#FFF" d="M1.19 0.114L1.19 5.356" transform="translate(0 -1) translate(311 20.684) translate(382 51)"/>
                                            <path stroke="#000" stroke-width=".478" d="M1.19 0.114L1.19 5.356" transform="translate(0 -1) translate(311 20.684) translate(382 51)"/>
                                        </g>
                                        <g>
                                            <path fill="#FFF" d="M1.002 0.175L1.002 5.417" transform="translate(0 -1) translate(311 20.684) translate(370 63)"/>
                                            <path stroke="#000" stroke-width=".478" d="M1.002 0.175L1.002 5.417" transform="translate(0 -1) translate(311 20.684) translate(370 63)"/>
                                        </g>
                                        <g>
                                            <path fill="#FFF" d="M0.711 0.175L0.711 5.417" transform="translate(0 -1) translate(311 20.684) translate(373 63)"/>
                                            <path stroke="#000" stroke-width=".478" d="M0.711 0.175L0.711 5.417" transform="translate(0 -1) translate(311 20.684) translate(373 63)"/>
                                        </g>
                                        <g>
                                            <path fill="#FFF" d="M1.419 0.175L1.419 5.417" transform="translate(0 -1) translate(311 20.684) translate(375 63)"/>
                                            <path stroke="#000" stroke-width=".478" d="M1.419 0.175L1.419 5.417" transform="translate(0 -1) translate(311 20.684) translate(375 63)"/>
                                        </g>
                                        <g>
                                            <path fill="#FFF" d="M1.128 0.175L1.128 5.417" transform="translate(0 -1) translate(311 20.684) translate(378 63)"/>
                                            <path stroke="#000" stroke-width=".478" d="M1.128 0.175L1.128 5.417" transform="translate(0 -1) translate(311 20.684) translate(378 63)"/>
                                        </g>
                                        <g>
                                            <path fill="#FFF" d="M0.836 0.175L0.836 5.417" transform="translate(0 -1) translate(311 20.684) translate(381 63)"/>
                                            <path stroke="#000" stroke-width=".478" d="M0.836 0.175L0.836 5.417" transform="translate(0 -1) translate(311 20.684) translate(381 63)"/>
                                        </g>
                                        <g>
                                            <path fill="#FFF" d="M0.545 0.175L0.545 5.417" transform="translate(0 -1) translate(311 20.684) translate(384 63)"/>
                                            <path stroke="#000" stroke-width=".478" d="M0.545 0.175L0.545 5.417" transform="translate(0 -1) translate(311 20.684) translate(384 63)"/>
                                        </g>
                                        <g>
                                            <path fill="#FFF" d="M1.356 0.175L1.356 5.417" transform="translate(0 -1) translate(311 20.684) translate(371 63)"/>
                                            <path stroke="#000" stroke-width=".478" d="M1.356 0.175L1.356 5.417" transform="translate(0 -1) translate(311 20.684) translate(371 63)"/>
                                        </g>
                                        <g>
                                            <path fill="#FFF" d="M1.065 0.175L1.065 5.417" transform="translate(0 -1) translate(311 20.684) translate(374 63)"/>
                                            <path stroke="#000" stroke-width=".478" d="M1.065 0.175L1.065 5.417" transform="translate(0 -1) translate(311 20.684) translate(374 63)"/>
                                        </g>
                                        <g>
                                            <path fill="#FFF" d="M0.773 0.175L0.773 5.417" transform="translate(0 -1) translate(311 20.684) translate(377 63)"/>
                                            <path stroke="#000" stroke-width=".478" d="M0.773 0.175L0.773 5.417" transform="translate(0 -1) translate(311 20.684) translate(377 63)"/>
                                        </g>
                                        <g>
                                            <path fill="#FFF" d="M1.482 0.175L1.482 5.417" transform="translate(0 -1) translate(311 20.684) translate(379 63)"/>
                                            <path stroke="#000" stroke-width=".478" d="M1.482 0.175L1.482 5.417" transform="translate(0 -1) translate(311 20.684) translate(379 63)"/>
                                        </g>
                                        <g>
                                            <path fill="#FFF" d="M1.19 0.175L1.19 5.417" transform="translate(0 -1) translate(311 20.684) translate(382 63)"/>
                                            <path stroke="#000" stroke-width=".478" d="M1.19 0.175L1.19 5.417" transform="translate(0 -1) translate(311 20.684) translate(382 63)"/>
                                        </g>
                                        <path fill="#E6E8EB" d="M398.785 63.29s.16-1.01 1.59-1.698c1.43-.689 5.015-1.662 9.398-1.058 4.382.606 5.533 1.693 5.533 1.693l.527 1.165v12.814s-.58 1.535-3.519 2.171c-2.939.636-8.79.848-11.596-.45 0 0-1.774-.742-1.933-1.854V63.29z" transform="translate(0 -1) translate(311 20.684)"/>
                                        <path stroke="#000" stroke-width=".478" d="M415.833 63.175s-.658-2.83-8.78-2.83c-8.123 0-8.268 2.89-8.268 2.89v12.87s.893 2.91 8.52 2.91c7.625 0 8.527-2.91 8.527-2.91l.001-12.93z" transform="translate(0 -1) translate(311 20.684)"/>
                                        <path stroke="#000" stroke-width=".478" d="M398.785 67.786s.953 2.788 8.634 2.715c7.682-.073 8.414-2.715 8.414-2.715M398.785 71.98s.953 2.79 8.634 2.716c7.682-.073 8.414-2.715 8.414-2.715M398.785 63.59s.953 2.79 8.634 2.717c7.682-.073 8.414-2.716 8.414-2.716" transform="translate(0 -1) translate(311 20.684)"/>
                                        <path fill="#FFF" d="M444.32 228.85c0 31.125-25.232 56.357-56.357 56.357s-56.357-25.232-56.357-56.357 25.232-56.356 56.357-56.356 56.357 25.23 56.357 56.356" transform="translate(0 -1) translate(311 20.684)"/>
                                        <path stroke="#C5C8CF" stroke-width=".75" d="M444.32 228.85c0 31.125-25.232 56.357-56.357 56.357s-56.357-25.232-56.357-56.357 25.232-56.356 56.357-56.356 56.357 25.23 56.357 56.356z" transform="translate(0 -1) translate(311 20.684)"/>
                                        <g>
                                            <path fill="#0A51B7" d="M.369 14.413V1.561S.242.554 1.089.554c.849 0 .739 1.365.739 1.365l.22 12.494" transform="translate(0 -1) translate(311 20.684) translate(373 212)"/>
                                            <path stroke="#000" stroke-linecap="round" stroke-width=".598" d="M.369 14.413V1.561S.242.554 1.089.554c.849 0 .739 1.365.739 1.365l.22 12.494" transform="translate(0 -1) translate(311 20.684) translate(373 212)"/>
                                        </g>
                                        <g>
                                            <path fill="#FFF" d="M.959 3.53V2.102s.1-1.69 1.724-1.69h34.924s1.359.264 1.359 2.121v.995" transform="translate(0 -1) translate(311 20.684) translate(368 226)"/>
                                            <path stroke="#000" stroke-width=".598" d="M.959 3.53V2.102s.1-1.69 1.724-1.69h34.924s1.359.264 1.359 2.121v.995" transform="translate(0 -1) translate(311 20.684) translate(368 226)"/>
                                        </g>
                                        <g>
                                            <path fill="#FFF" d="M.375 12.762V2.22S.475.53 2.1.53H40.19s1.36.264 1.36 2.12v10.112" transform="translate(0 -1) translate(311 20.684) translate(367 229)"/>
                                            <path stroke="#000" stroke-width=".598" d="M.375 12.762V2.22S.475.53 2.1.53H40.19s1.36.264 1.36 2.12v10.112" transform="translate(0 -1) translate(311 20.684) translate(367 229)"/>
                                        </g>
                                        <path fill="#E6E8EB" d="M365.967 244.712v-1.43s-.033-1.52 1.558-1.52H408.6s1.359.133 1.359 1.475v1.343l-43.992.132z" transform="translate(0 -1) translate(311 20.684)"/>
                                        <path stroke="#000" stroke-width=".598" d="M365.967 244.712v-1.43s-.033-1.52 1.558-1.52H408.6s1.359.133 1.359 1.475v1.343l-43.992.132z" transform="translate(0 -1) translate(311 20.684)"/>
                                        <g>
                                            <path fill="#FFF" d="M0.696 1.181L37.229 1.181" transform="translate(0 -1) translate(311 20.684) translate(369 231)"/>
                                            <path stroke="#000" stroke-linecap="round" stroke-width=".598" d="M0.696 1.181L37.229 1.181" transform="translate(0 -1) translate(311 20.684) translate(369 231)"/>
                                        </g>
                                        <path fill="#E6E8EB" d="M393.402 222.41c-.887 0-1.607-.72-1.607-1.607s.72-1.608 1.607-1.608 1.608.721 1.608 1.608c0 .886-.721 1.607-1.608 1.607" transform="translate(0 -1) translate(311 20.684)"/>
                                        <path stroke="#000" stroke-linecap="round" stroke-width=".598" d="M393.402 222.41c-.887 0-1.607-.72-1.607-1.607s.72-1.608 1.607-1.608 1.608.721 1.608 1.608c0 .886-.721 1.607-1.608 1.607z" transform="translate(0 -1) translate(311 20.684)"/>
                                        <path fill="#E6E8EB" d="M386.52 219.137c-.532 0-1.027-.262-1.326-.701-.324-.473-.37-1.09-.118-1.61 1.522-3.19 4.79-5.251 8.326-5.251 3.534 0 6.802 2.06 8.325 5.249.185.388.208.824.065 1.229-.145.406-.437.73-.824.916-.211.103-.45.156-.692.156-.614-.001-1.183-.36-1.452-.917-.992-2.077-3.12-3.418-5.422-3.418-2.302 0-4.431 1.344-5.424 3.42-.246.523-.754.877-1.327.922l-.13.005z" transform="translate(0 -1) translate(311 20.684)"/>
                                        <path stroke="#000" stroke-linecap="round" stroke-width=".598" d="M386.52 219.137c-.532 0-1.027-.262-1.326-.701-.324-.473-.37-1.09-.118-1.61 1.522-3.19 4.79-5.251 8.326-5.251 3.534 0 6.802 2.06 8.325 5.249.185.388.208.824.065 1.229-.145.406-.437.73-.824.916-.211.103-.45.156-.692.156-.614-.001-1.183-.36-1.452-.917-.992-2.077-3.12-3.418-5.422-3.418-2.302 0-4.431 1.344-5.424 3.42-.246.523-.754.877-1.327.922l-.13.005z" transform="translate(0 -1) translate(311 20.684)"/>
                                        <path fill="#E6E8EB" d="M405.78 215.727c-.614-.001-1.186-.36-1.455-.917-2.001-4.181-6.29-6.882-10.925-6.882-4.637 0-8.926 2.702-10.927 6.884-.273.553-.826.894-1.444.894-.24 0-.474-.052-.692-.158-.793-.381-1.135-1.338-.762-2.133 2.533-5.288 7.959-8.703 13.825-8.703 5.865 0 11.293 3.419 13.826 8.709.24.502.207 1.083-.087 1.554-.296.47-.803.75-1.358.752h-.002z" transform="translate(0 -1) translate(311 20.684)"/>
                                        <path stroke="#000" stroke-linecap="round" stroke-width=".598" d="M405.78 215.727c-.614-.001-1.186-.36-1.455-.917-2.001-4.181-6.29-6.882-10.925-6.882-4.637 0-8.926 2.702-10.927 6.884-.273.553-.826.894-1.444.894-.24 0-.474-.052-.692-.158-.793-.381-1.135-1.338-.762-2.133 2.533-5.288 7.959-8.703 13.825-8.703 5.865 0 11.293 3.419 13.826 8.709.24.502.207 1.083-.087 1.554-.296.47-.803.75-1.358.752h-.002z" transform="translate(0 -1) translate(311 20.684)"/>
                                        <path stroke="#C5C8CF" stroke-width=".75" d="M118.973 143.242L4.367 143.242" transform="translate(0 -1) translate(311 20.684)"/>
                                        <path fill="#C5C8CF" d="M112.998 143.242L112.998 138.479 117.122 140.86 121.246 143.242 117.122 145.623 112.998 148.004z" transform="translate(0 -1) translate(311 20.684)"/>
                                        <path stroke="#C5C8CF" stroke-width=".75" d="M2.515 156.307L117.122 156.307" transform="translate(0 -1) translate(311 20.684)"/>
                                        <path fill="#C5C8CF" d="M8.491 156.307L8.491 161.069 4.367 158.688 0.242 156.307 4.367 153.926 8.491 151.545z" transform="translate(0 -1) translate(311 20.684)"/>
                                    </g>
                                    <text font-family="NotoSansCJKkr-Medium, Noto Sans CJK KR" font-size="12" font-weight="400" transform="translate(0 -1)">
                                        <tspan x="349.047" y="195.087" fill="#000">D</tspan> <tspan x="357.435" y="195.087" fill="#000" letter-spacing="-.204">a</tspan> <tspan x="363.927" y="195.087" fill="#000" letter-spacing="-.288">t</tspan> <tspan x="368.103" y="195.087" fill="#000">a link</tspan>
                                    </text>
                                    <text font-family="NotoSansCJKkr-Medium, Noto Sans CJK KR" font-size="12" font-weight="400" transform="translate(0 -1)">
                                        <tspan x="331.647" y="133.551" fill="#000">Mana</tspan> <tspan x="362.895" y="133.551" fill="#000" letter-spacing="-.204">g</tspan> <tspan x="369.423" y="133.551" fill="#000">ement /</tspan>
                                    </text>
                                    <text font-family="NotoSansCJKkr-Medium, Noto Sans CJK KR" font-size="12" font-weight="400" letter-spacing="-.312" transform="translate(0 -1)">
                                        <tspan x="338.103" y="149.547" fill="#000">c</tspan> <tspan x="343.683" y="149.547" fill="#000">ont</tspan> <tspan x="363.291" y="149.547" fill="#000" letter-spacing="-.132">r</tspan> <tspan x="367.935" y="149.547" fill="#000">ol d</tspan> <tspan x="389.139" y="149.547" fill="#000" letter-spacing="-.204">a</tspan> <tspan x="395.631" y="149.547" fill="#000" letter-spacing="-.288">t</tspan> <tspan x="399.807" y="149.547" fill="#000">a</tspan>
                                    </text>
                                    <path stroke="#0A51B7" stroke-width=".779" d="M57.947 178.465L104.126 178.465" transform="translate(0 -1)"/>
                                </g>
                            </g>
                        </g>
                    </g>
                </g>
            </g>
        </g>
    </g>
</svg>
