<svg xmlns="http://www.w3.org/2000/svg" xmlns:xlink="http://www.w3.org/1999/xlink" width="780" height="210" viewBox="0 0 780 210">
    <defs>
        <path id="prefix__a" d="M0 141L731.393 141 731.393 0.942 0 0.942z"/>
        <path id="prefix__c" d="M0.445 7.427L0.445 20.459 11.732 26.975 23.018 20.459 23.018 7.427 11.732 0.911z"/>
        <path id="prefix__e" d="M0.665 13.459L11.732 19.779 11.732 6.943 0.665 0.553z"/>
        <path id="prefix__g" d="M.445 7.427V20.46l11.287 6.515 11.286-6.515V7.427L11.732.911.445 7.427zm.389 12.808V7.652L11.732 1.36 22.63 7.652v12.583l-10.898 6.292L.834 20.235z"/>
    </defs>
    <g fill="none" fill-rule="evenodd">
        <path fill="#F8F9FB" d="M0 0H780V210H0z"/>
        <g>
            <path fill="#C5C8CF" d="M124.08 57.984L199.687 57.984 199.687 57.234 124.08 57.234z" transform="translate(24 31)"/>
            <path fill="#C5C8CF" d="M193.712 57.61L193.712 52.848 197.836 55.229 201.96 57.61 197.836 59.991 193.712 62.372zM528.471 57.984L605.93 57.984 605.93 57.234 528.471 57.234z" transform="translate(24 31)"/>
            <path fill="#C5C8CF" d="M599.955 57.61L599.955 52.848 604.079 55.229 608.203 57.61 604.079 59.991 599.955 62.372z" transform="translate(24 31)"/>
            <path fill="#000" d="M564.795 27.947L564.795 28.967 554.984 28.967 554.984 27.947 559.254 27.947 559.254 25.392 556.184 25.392 556.184 20.248 563.596 20.248 563.596 21.243 557.419 21.243 557.419 24.397 563.692 24.397 563.692 25.392 560.489 25.392 560.489 27.947zM571.506 23.57h2.255v-1.319h-2.255v1.319zm3.742 5.48v1.008h-7.305v-3.442h1.248v2.434h6.057zm-7.544-4.521h2.603v-3.214h-2.603v3.214zm3.802.984h-5.014v-5.182h5.014v.912h2.255v-1.812h1.235v7.904h-1.235v-2.77h-2.255v.948z" transform="translate(24 31)"/>
            <g transform="translate(24 31) translate(0 .058)">
                <path fill="#000" d="M577.089 30.9c.815-.337 1.295-.937 1.308-1.645-.05.012-.084.012-.133.012-.491 0-.923-.31-.923-.887 0-.54.432-.887.959-.887.672 0 1.067.563 1.067 1.487 0 1.26-.731 2.231-1.966 2.698l-.312-.779zM542.59 35.373v10.818h-1.175v-5.588h-1.235v5.084h-1.164V35.578h1.164v4.018h1.235v-4.223h1.175zm-7.735 7.029h1.87v-4.857h-1.87v4.857zm-1.152.982h4.174V36.56h-4.174v6.824zM553.055 39.92h-7.46v-4.03h1.247v3.022h6.213v1.008zm1.127 2.398h-2.41v3.898h-1.236v-3.898h-2.518v3.898h-1.235v-3.898h-2.4V41.31h9.799v1.007zM564.754 45.1v.973h-7.4V43.23h5.817v-.888h-5.83v-.96h7.054v2.759h-5.818v.96h6.177zm-6.356-5.444c.935 0 1.63-.587 1.63-1.476 0-.887-.695-1.475-1.63-1.475-.96 0-1.643.588-1.643 1.475 0 .889.684 1.476 1.643 1.476zm2.758-.984c-.228 1.176-1.32 1.99-2.758 1.99-1.631 0-2.831-1.031-2.831-2.482 0-1.451 1.2-2.482 2.83-2.482 1.428 0 2.507.792 2.748 1.966h2.002v-2.302h1.248v5.48h-1.248v-2.17h-1.991z"/>
                <mask id="prefix__b" fill="#fff">
                    <use xlink:href="#prefix__a"/>
                </mask>
                <path fill="#000" d="M577.222 46.191h1.187v-10.83h-1.187v10.83zm-2.206-10.589h1.163v10.085h-1.163v-5.251h-2.135v-1.008h2.135v-3.826zm-4.271 7.064c1.344-.012 2.268-.072 3.335-.301l.107 1.02c-1.222.24-2.278.301-3.933.301h-.732v-7.041h4.102v1.007h-2.879v5.014zM587.866 46.228h1.247V35.362h-1.247v10.866zm-6.116-6.249c0 1.703.659 2.722 1.595 2.722.947 0 1.607-1.019 1.607-2.722 0-1.678-.66-2.698-1.607-2.698-.936 0-1.595 1.02-1.595 2.698zm4.39 0c0 2.351-1.176 3.826-2.795 3.826-1.608 0-2.783-1.475-2.783-3.826 0-2.327 1.175-3.814 2.783-3.814 1.619 0 2.795 1.487 2.795 3.814zM600.237 35.35v10.866h-1.247v-5.864h-2.075v-1.02h2.075V35.35h1.247zm-7.279 7.328c1.726-.012 2.962-.072 4.377-.312l.108.996c-1.548.275-2.902.324-4.869.324h-.852v-7.377h5.025v1.02h-3.789v2.027h3.345v.983h-3.345v2.339zM134.37 42.625l.672-.887c.515.528 1.175.971 2.087.971.995 0 1.678-.551 1.678-1.463 0-.982-.624-1.619-2.614-1.619v-1.02c1.74 0 2.315-.659 2.315-1.546 0-.78-.516-1.272-1.356-1.284-.683.012-1.259.348-1.762.84l-.72-.863c.695-.624 1.511-1.068 2.53-1.068 1.583 0 2.7.816 2.7 2.279 0 1.019-.589 1.726-1.524 2.074v.061c1.02.252 1.823 1.019 1.823 2.207 0 1.594-1.332 2.53-2.95 2.53-1.392 0-2.29-.552-2.879-1.212M151.56 39.136h-1.69v5.469h-1.237V33.763h1.236v4.353h1.691v1.02zm-6.333-1.92c0 1.655.947 3.419 2.555 4.198l-.684.948c-1.163-.563-2.027-1.666-2.47-2.974-.48 1.403-1.38 2.59-2.614 3.166l-.684-.947c1.655-.792 2.662-2.615 2.662-4.39v-.623h-2.326v-.996h2.327V33.99h1.234v1.608h2.291v.996h-2.29v.623zM160.262 40.13v-6.367h1.235v8.239h-1.235v-1.008h-2.123v-.863h2.123zm-5.793-4.04c0 .61.61.995 1.51.995.888 0 1.5-.384 1.5-.995 0-.612-.612-.996-1.5-.996-.9 0-1.51.384-1.51.996zm7.28 7.303V44.4h-7.82v-3.202h1.235v2.194h6.585zm-8.456-7.303c0-1.152 1.092-1.908 2.687-1.908 1.583 0 2.675.756 2.675 1.908 0 1.15-1.092 1.906-2.675 1.906-1.595 0-2.687-.756-2.687-1.906zm2.196 3.549c-1.032.049-2.015.06-2.867.06l-.156-1.007c1.99-.012 4.653-.036 6.944-.324l.096.888c-.911.156-1.86.264-2.782.312v2.086h-1.235v-2.015zM176.076 42.29L176.076 43.31 166.265 43.31 166.265 42.29 170.535 42.29 170.535 39.735 167.465 39.735 167.465 34.59 174.877 34.59 174.877 35.586 168.7 35.586 168.7 38.74 174.973 38.74 174.973 39.735 171.77 39.735 171.77 42.29zM182.787 37.912h2.255v-1.318h-2.255v1.318zm3.742 5.481V44.4h-7.304v-3.441h1.248v2.434h6.056zm-7.544-4.522h2.603v-3.213h-2.603v3.213zm3.802.984h-5.014v-5.181h5.014v.912h2.255v-1.812h1.235v7.904h-1.235v-2.77h-2.255v.947zM202.466 134.992l-.348-1.187c-.3-.96-.563-1.944-.84-2.94h-.047c-.252 1.008-.528 1.98-.816 2.94l-.36 1.187h2.41zm.336 1.091h-3.07l-.756 2.518h-1.415l2.926-8.827h1.607l2.927 8.827h-1.476l-.743-2.518zM207.58 133.924h1.33c1.283 0 1.98-.527 1.98-1.595 0-1.067-.697-1.44-1.98-1.44h-1.33v3.035zm3.43 4.678l-2.004-3.563h-1.427v3.563h-1.392v-8.827h2.891c1.823 0 3.19.647 3.19 2.554 0 1.367-.73 2.183-1.846 2.53l2.158 3.743h-1.57zM225.443 128.695v10.818h-1.175v-5.589h-1.235v5.085h-1.164V128.9h1.164v4.017h1.235v-4.22h1.175zm-7.735 7.027h1.871v-4.857h-1.87v4.857zm-1.152.984h4.174v-6.824h-4.174v6.824zM234.925 134.68h1.235v-5.984h-1.235v5.984zm-4.63 3.718h4.642v-1.127h-4.642v1.127zm4.642-3.214h1.223v4.209h-7.1v-4.209h1.235v1.115h4.642v-1.115zm-.996-1.032c-1.703.276-3.167.324-5.241.324h-.912v-3.142h3.718v-1.128h-3.741v-1.007h4.953v3.071h-3.706v1.199c1.859 0 3.214-.061 4.785-.324l.144 1.007zM238.3 140.22c.816-.335 1.296-.935 1.309-1.642-.05.012-.084.012-.133.012-.491 0-.923-.312-.923-.888 0-.54.432-.887.959-.887.672 0 1.067.564 1.067 1.487 0 1.259-.731 2.23-1.966 2.698l-.312-.78zM253.8 128.695v10.818h-1.175v-5.589h-1.235v5.085h-1.164V128.9h1.164v4.017h1.235v-4.22h1.175zm-7.735 7.027h1.87v-4.857h-1.87v4.857zm-1.152.984h4.174v-6.824h-4.174v6.824zM263.33 131.49h-2.196v-.996h2.195v-1.81h1.235v5.564h-1.235v-2.759zm1.605 6.932v.97h-7.399v-2.805h5.805v-.865h-5.829v-.959h7.052v2.735h-5.804v.924h6.175zm-3.597-4.354c-1.176-.396-2.039-1.199-2.494-2.207-.48 1.127-1.38 2.003-2.652 2.447l-.635-.972c1.691-.55 2.638-1.907 2.638-3.394v-.91h1.236v.91c0 1.367.935 2.64 2.554 3.166l-.647.96zM279.804 137.211L279.804 138.231 269.993 138.231 269.993 137.211 274.263 137.211 274.263 134.656 271.193 134.656 271.193 129.511 278.605 129.511 278.605 130.506 272.428 130.506 272.428 133.66 278.701 133.66 278.701 134.656 275.498 134.656 275.498 137.211zM286.515 132.832h2.255v-1.318h-2.255v1.318zm3.742 5.481v1.008h-7.305v-3.442h1.248v2.434h6.057zm-7.545-4.521h2.603v-3.214h-2.603v3.214zm3.803.983h-5.014v-5.18h5.014v.911h2.255v-1.811h1.235v7.904h-1.235v-2.771h-2.255v.947zM302.833 139.514h1.176v-10.83h-1.176v10.83zm-2.183-10.616h1.163v10.1h-1.163v-5.494h-1.594v-1.007h1.594v-3.599zm-2.59 2.772c0 1.847.696 3.717 2.207 4.593l-.72.899c-1.02-.599-1.691-1.667-2.074-2.926-.384 1.368-1.08 2.531-2.123 3.19l-.745-.911c1.536-.96 2.255-2.915 2.255-4.845v-.78h-1.906v-1.02h4.893v1.02h-1.787v.78zM315.805 132.473h-1.535v2.746h-1.236v-6.535h1.236v2.769h1.535v1.02zm-8.66 3.274h7.125v3.779h-1.236v-2.783h-5.888v-.996zm4.402-.96c-1.212-.394-2.075-1.222-2.543-2.253-.48 1.138-1.38 2.026-2.65 2.47l-.648-.971c1.715-.576 2.662-1.956 2.662-3.443v-.191h-2.302v-1.008h5.817v1.008h-2.267v.19c0 1.368.912 2.7 2.567 3.25l-.636.948zM319.721 129.031L320.68 129.031 317.346 140.76 316.386 140.76zM330.42 133.684c-1.798-.287-3.273-1.2-3.981-2.445-.696 1.258-2.195 2.158-3.994 2.445l-.48-.994c2.207-.313 3.814-1.644 3.814-3.07v-.577h1.308v.577c0 1.402 1.63 2.757 3.813 3.07l-.48.994zm.9 2.027h-4.305v3.827h-1.236v-3.827h-4.246v-1.007h9.787v1.007zM340.31 131.418v-2.723h1.235v6.452h-1.235v-2.722h-1.92v-1.007h1.92zm.048 6.068c0-.708-.888-1.091-2.411-1.091-1.547 0-2.422.383-2.422 1.091 0 .707.875 1.092 2.422 1.092 1.523 0 2.41-.385 2.41-1.092zm1.235 0c0 1.295-1.391 2.051-3.646 2.051-2.267 0-3.658-.756-3.658-2.051 0-1.283 1.39-2.05 3.658-2.05 2.255 0 3.646.767 3.646 2.05zm-3.19-2.686c-1.2-.42-2.063-1.272-2.52-2.316-.478 1.188-1.39 2.148-2.674 2.604l-.635-.984c1.679-.6 2.65-2.04 2.65-3.526v-.156h-2.29v-.995h5.793v.995h-2.255v.144c0 1.356.923 2.699 2.542 3.262l-.611.972z" mask="url(#prefix__b)"/>
                <path fill="#FFF" d="M326.636 57.675c0 31.125-25.231 56.356-56.356 56.356S213.922 88.8 213.922 57.675c0-31.126 25.233-56.357 56.358-56.357 31.125 0 56.356 25.23 56.356 56.357" mask="url(#prefix__b)"/>
                <path fill="#C5C8CF" d="M270.28 1.692c-30.87 0-55.983 25.113-55.983 55.982 0 30.87 25.113 55.982 55.982 55.982 30.868 0 55.981-25.113 55.981-55.982S301.147 1.692 270.28 1.692m0 112.714c-31.283 0-56.733-25.449-56.733-56.732 0-31.282 25.45-56.732 56.732-56.732s56.731 25.45 56.731 56.732c0 31.283-25.449 56.732-56.73 56.732" mask="url(#prefix__b)"/>
                <path fill="#273A5B" d="M268.54 58.249L263.944 50.904 263.909 50.849 262 50.849 262 64.489 263.963 64.489 263.963 56.411 263.898 54.484 267.933 60.877 267.968 60.933 269.111 60.933 273.181 54.484 273.117 56.415 273.117 64.489 275.079 64.489 275.079 50.849 273.171 50.849zM283.356 60.438c-.016.661-.289 1.247-.813 1.743-.542.513-1.166.773-1.854.773-.482 0-.907-.144-1.264-.425-.353-.277-.525-.613-.525-1.028 0-.46.214-.838.652-1.157.446-.319 1.01-.482 1.68-.482.9 0 1.615.194 2.124.575m-2.42-5.718c-1.428 0-2.705.623-3.696 1.806l-.07.084 1.374 1.375.083-.105c.415-.517 1.268-1.384 2.332-1.384.726 0 1.26.184 1.728.596.45.398.67.867.67 1.435v.192c-.649-.319-1.458-.48-2.406-.48-1.22 0-2.21.291-2.948.867-.744.583-1.122 1.377-1.122 2.359 0 .93.358 1.717 1.061 2.337.7.615 1.58.927 2.616.927 1.143 0 2.083-.477 2.8-1.42v1.185h1.887v-5.835c0-1.215-.385-2.187-1.144-2.889-.745-.686-1.84-1.05-3.165-1.05M295.187 55.326L295.187 55.081 292.808 55.081 289.01 58.931 289.01 50.851 288.771 50.851 287.048 52.341 287.048 64.492 289.01 64.492 289.01 61.484 290.274 60.238 293.091 64.492 295.356 64.492 295.356 64.26 291.647 58.847z" mask="url(#prefix__b)"/>
                <path fill="#273A5B" d="M297.392 58.571c.163-.625.456-1.13.852-1.468.443-.38.98-.57 1.597-.57.752 0 1.359.2 1.802.596.396.354.65.862.724 1.442h-4.975zm7.063 1.356c0-1.632-.428-2.964-1.24-3.849-.824-.903-1.946-1.36-3.336-1.36-1.352 0-2.478.482-3.347 1.434-.853.936-1.305 2.196-1.305 3.645 0 1.408.44 2.556 1.344 3.512.893.946 2.044 1.424 3.42 1.424.94 0 1.797-.226 2.543-.674.597-.356 1.167-.9 1.56-1.49l.059-.087-1.407-1.298-.078.117c-.662.998-1.586 1.547-2.602 1.547-.835 0-1.463-.228-1.976-.719-.544-.52-.811-1.108-.856-1.894h7.19l.03-.308z" mask="url(#prefix__b)"/>
                <path fill="#6FB6FB" d="M237.523 58.274L236.105 59.092 236.114 62.686 244.804 57.674 241.683 55.872zM253.502 59.093L252.084 58.275 247.925 55.873 244.805 57.675 253.503 62.697z" mask="url(#prefix__b)"/>
                <path fill="#BFDCFF" d="M253.503 59.093L253.503 62.697 244.804 67.719 244.804 64.115 246.223 63.297z" mask="url(#prefix__b)"/>
                <path fill="#007CF7" d="M236.106 59.093L236.106 62.697 244.804 67.719 244.804 64.115 243.387 63.297z" mask="url(#prefix__b)"/>
                <path fill="#6FB6FB" d="M252.084 51.834L244.803 47.63 237.522 51.834 236.105 52.652 236.114 56.246 244.809 51.23 253.503 56.256 253.502 52.652z" mask="url(#prefix__b)"/>
                <path fill="#BFDCFF" d="M253.503 52.652L253.503 56.256 244.804 61.278 244.804 57.674 246.223 56.855z" mask="url(#prefix__b)"/>
                <path fill="#007CF7" d="M236.106 52.652L236.106 56.256 244.804 61.278 244.804 57.674 243.387 56.855z" mask="url(#prefix__b)"/>
                <path fill="#000" d="M641.275 134.992l-.348-1.187c-.299-.96-.563-1.944-.839-2.94h-.048c-.252 1.008-.528 1.98-.816 2.94l-.36 1.187h2.411zm.336 1.091h-3.07l-.756 2.518h-1.415l2.926-8.827h1.607l2.927 8.827h-1.476l-.743-2.518zM646.389 133.924h1.33c1.284 0 1.98-.527 1.98-1.595 0-1.067-.696-1.44-1.98-1.44h-1.33v3.035zm3.43 4.678l-2.003-3.563h-1.427v3.563h-1.392v-8.827h2.89c1.824 0 3.19.647 3.19 2.554 0 1.367-.73 2.183-1.845 2.53l2.158 3.743h-1.571zM664.816 137.211L664.816 138.231 655.005 138.231 655.005 137.211 659.275 137.211 659.275 134.656 656.205 134.656 656.205 129.511 663.617 129.511 663.617 130.506 657.44 130.506 657.44 133.66 663.713 133.66 663.713 134.656 660.51 134.656 660.51 137.211zM671.527 132.832h2.255v-1.318h-2.255v1.318zm3.743 5.481v1.008h-7.305v-3.442h1.248v2.434h6.057zm-7.545-4.521h2.603v-3.214h-2.603v3.214zm3.802.983h-5.013v-5.18h5.013v.911h2.255v-1.811h1.236v7.904h-1.236v-2.771h-2.255v.947zM688.11 139.549h1.247v-10.865h-1.247v10.865zm-3.67-8.18c0 1.991 1.104 3.983 2.807 4.75l-.72.984c-1.247-.588-2.195-1.788-2.686-3.251-.492 1.572-1.451 2.855-2.759 3.49l-.731-1.031c1.727-.78 2.854-2.854 2.854-4.942v-1.774h1.235v1.774zM701.477 132.365h-1.534v2.65h-1.236v-6.332h1.236v2.662h1.534v1.02zm-8.659 3.13h7.125v4.042h-1.236v-3.047h-5.889v-.995zm4.139-6.152c0 2.805-1.86 4.76-5.05 5.612l-.505-.97c2.543-.649 4.03-1.992 4.246-3.647h-3.73v-.995h5.038zM712.541 134.236h-1.547v5.29h-1.235v-10.843h1.235v4.533h1.547v1.02zm-6.716.336c.852 0 1.427-.408 1.427-1.068 0-.672-.575-1.08-1.427-1.08-.851 0-1.439.408-1.439 1.08 0 .66.588 1.068 1.439 1.068zm3.202-3.635h-6.44v-.995h2.614v-1.224h1.236v1.224h2.59v.995zm-2.59 5.541c.923-.048 1.846-.107 2.71-.24l.096.912c-2.314.408-4.821.432-6.681.432l-.167-1.02c.828 0 1.798 0 2.806-.035v-1.057c-1.199-.203-1.978-.935-1.978-1.966 0-1.223 1.054-2.027 2.602-2.027 1.535 0 2.59.804 2.59 2.027 0 1.031-.779 1.775-1.978 1.966v1.008z" mask="url(#prefix__b)"/>
                <path fill="#FFF" d="M731.018 57.675c0 31.125-25.231 56.356-56.356 56.356-31.126 0-56.358-25.231-56.358-56.356 0-31.126 25.232-56.357 56.358-56.357 31.125 0 56.356 25.23 56.356 56.357" mask="url(#prefix__b)"/>
                <path fill="#C5C8CF" d="M674.661 1.692c-30.869 0-55.982 25.113-55.982 55.982 0 30.87 25.113 55.982 55.982 55.982 30.868 0 55.981-25.113 55.981-55.982S705.53 1.692 674.662 1.692m0 112.714c-31.283 0-56.733-25.449-56.733-56.732 0-31.282 25.45-56.732 56.732-56.732s56.731 25.45 56.731 56.732c0 31.283-25.449 56.732-56.73 56.732" mask="url(#prefix__b)"/>
                <path fill="#273A5B" d="M680.401 65.472L682.363 65.472 682.363 55.768 680.401 55.768zM680.314 53.978L682.451 53.978 682.451 51.84 680.314 51.84zM705.845 56.066L703.901 62.73 701.722 56.066 699.77 56.066 697.59 62.73 695.653 56.153 695.627 56.066 693.575 56.066 696.582 65.388 696.609 65.471 698.524 65.471 700.699 58.712 702.893 65.471 704.826 65.471 707.86 56.066zM687.152 58.083c.444-.38.982-.571 1.6-.571.752 0 1.358.201 1.802.597.397.355.652.864.725 1.445h-4.98c.164-.627.457-1.133.853-1.471m1.637-2.387c-1.353 0-2.48.483-3.35 1.436-.854.936-1.307 2.197-1.307 3.647 0 1.41.44 2.56 1.345 3.517.895.945 2.046 1.425 3.424 1.425.942 0 1.8-.227 2.545-.674.598-.357 1.167-.902 1.563-1.492l.057-.087-1.406-1.299-.079.118c-.662.998-1.587 1.548-2.605 1.548-.836 0-1.464-.23-1.978-.721-.537-.513-.812-1.118-.858-1.895h7.22l.005-.115c.005-.099.005-.193.005-.193 0-1.635-.429-2.967-1.24-3.854-.827-.904-1.95-1.361-3.34-1.361M672.739 62.591L668.635 51.842 666.469 51.842 671.727 65.395 671.758 65.471 673.717 65.471 679.091 52.007 679.156 51.842 676.989 51.842z" mask="url(#prefix__b)"/>
                <path fill="#6FB6FB" d="M654.572 51.28L650.164 48.735 647.735 50.136 654.557 56.96z" mask="url(#prefix__b)"/>
                <path fill="#007CF7" d="M654.558 60.599L658.862 56.109 658.862 53.757 654.571 51.28z" mask="url(#prefix__b)"/>
                <path fill="#0065C7" d="M645.745 66.274L650.162 68.825 652.594 67.42 645.767 60.6z" mask="url(#prefix__b)"/>
                <path fill="#BFDCFF" d="M641.465 54.385L641.465 53.757 647.736 50.137 651.984 54.385z" mask="url(#prefix__b)"/>
                <path fill="#DEEDFF" d="M641.465 54.385L641.465 61.261 648.342 54.385z" mask="url(#prefix__b)"/>
                <path fill="#007CF7" d="M645.768 56.96L641.463 61.261 641.463 63.802 645.65 66.219 645.764 66.285z" mask="url(#prefix__b)"/>
                <path fill="#6FB6FB" d="M658.86 63.803L652.593 67.421 648.341 63.176 658.861 63.176z" mask="url(#prefix__b)"/>
                <path fill="#007CF7" d="M650.124 56.044c-1.489 0-2.696 1.207-2.696 2.695 0 1.49 1.207 2.696 2.696 2.696 1.488 0 2.695-1.206 2.695-2.696 0-1.488-1.207-2.695-2.695-2.695" mask="url(#prefix__b)"/>
                <path fill="#FFF" d="M651.483 56.606c-.427 0-.773.347-.773.773 0 .427.346.773.773.773.427 0 .773-.346.773-.773 0-.426-.346-.773-.773-.773" mask="url(#prefix__b)"/>
                <path fill="#BFDCFF" d="M651.983 63.176L654.557 60.6 658.861 56.109 658.861 63.176z" mask="url(#prefix__b)"/>
                <path fill="#092E6E" d="M448.938 97.402l-.397-1.459c-.414-1.386-.774-2.916-1.17-4.357h-.072c-.341 1.46-.738 2.971-1.135 4.357l-.395 1.46h3.168zm.576 2.07h-4.322l-.937 3.422h-2.7l4.267-13.324h3.133l4.286 13.324h-2.791l-.936-3.422zM457.469 95.746h1.729c1.709 0 2.646-.72 2.646-2.143 0-1.44-.937-1.926-2.646-1.926h-1.73v4.07zm4.59 7.148l-2.736-5.042h-1.854v5.042h-2.665V89.57h4.645c2.79 0 5.005.973 5.005 4.033 0 1.998-1.007 3.241-2.538 3.835l3.115 5.456h-2.971zM474.441 102.3h9.417v1.909h-11.793v-4.933h2.376v3.024zm6.771-10.714c.017-.395.017-.81.017-1.205h-9.236V88.49h11.595v1.567c0 1.639 0 3.295-.468 5.455l-2.34-.162c.143-.738.252-1.387.323-2.017l-9.272.415-.27-1.963 9.651-.2zm4.05 4.772v1.873h-14.925v-1.873h5.527v-2.016h2.377v2.016h7.021zM498.744 100.247h2.25V87.859h-2.25v12.388zm-3.26-5.977h-1.62v-1.891h1.62v-4.195h2.215v11.703h-2.215V94.27zm5.924 7.994v1.89h-11.451v-5.22h2.377v3.33h9.074zm-6.878-4.7c-1.872.342-3.438.378-5.887.378h-1.134v-8.803h6.229v1.871h-3.943v1.603h3.367v1.783h-3.367v1.674c1.747-.017 3.043-.108 4.537-.36l.198 1.854zM503.924 96.538c3.764-.522 5.618-2.538 5.779-4.5h-4.987v-1.892h5.023v-2.035h2.377v2.035h5.024v1.891h-4.987c.162 1.963 2.016 3.98 5.76 4.501l-.863 1.927c-2.935-.432-5.023-1.765-6.122-3.547-1.098 1.782-3.187 3.115-6.121 3.547l-.883-1.927zm-.504 5.995h15.017v-1.926H503.42v1.926zM460.766 115.501v1.963h-1.98v5.401h-2.376v-12.424h2.376v5.06h1.98zm-10.658 9.362h9.2v1.891H447.73v-4.986h2.377v3.095zm1.98-7.561c.27-1.548.342-2.755.36-3.745h-6.176v-1.891h8.516v1.026c0 1.153 0 2.79-.377 4.88l-2.323-.27zm3.565 2.629c-3.421.63-7.274.702-10.12.719l-.215-1.89c.918 0 1.944 0 3.025-.018v-3.222h2.322v3.132c1.639-.072 3.295-.198 4.844-.414l.144 1.693zM473.526 127.078h2.377v-16.637h-2.377v16.637zm-8.102-5.815c2.521-.019 4.609-.144 6.95-.54l.252 1.926c-2.7.468-5.131.577-8.138.577h-1.495v-6.825h5.384v-2.647h-5.401v-1.89h7.832v6.409h-5.384v2.99zM497.629 110.441v16.637h-2.377v-9.525h-3.186v-1.909h3.186v-5.203h2.377zm-7.688 3.691c0 3.133 1.206 6.176 3.943 7.401l-1.404 1.89c-1.82-.882-3.026-2.503-3.71-4.502-.72 2.125-1.962 3.854-3.817 4.79l-1.476-1.909c2.808-1.296 4.069-4.519 4.069-7.67v-2.394h2.395v2.394zM503.241 121.281h3.259v-3.674h-3.259v3.674zm10.947-10.84v16.637h-2.376v-8.894h-2.971v4.988h-7.958v-11.416h2.358v3.998h3.259v-3.998h2.341v4.519h2.971v-5.834h2.376z" mask="url(#prefix__b)"/>
                <path fill="#E6E8EB" d="M459.337 37.481L459.337 68.821 497.17 68.821 497.17 37.191z" mask="url(#prefix__b)"/>
                <path fill="#000" d="M459.62 68.54h37.268V37.475l-37.269.286V68.54zm37.832.563h-38.397V37.201l38.397-.294v32.196z" mask="url(#prefix__b)"/>
                <path fill="#FFF" d="M498.27 37.712h-40.176c-1.534 0-2.79-1.256-2.79-2.79v-6.154c0-1.535 1.256-2.79 2.79-2.79h40.177c1.534 0 2.788 1.255 2.788 2.79v6.154c0 1.534-1.255 2.79-2.788 2.79" mask="url(#prefix__b)"/>
                <path fill="#000" d="M498.27 25.979h-40.176c-1.534 0-2.79 1.254-2.79 2.788v6.155c0 1.536 1.256 2.789 2.79 2.789h40.177c1.534 0 2.788-1.253 2.788-2.79v-6.154c0-1.534-1.255-2.788-2.788-2.788m0 .564c1.226 0 2.224.998 2.224 2.224v6.155c0 1.227-.998 2.225-2.224 2.225h-40.178c-1.226 0-2.224-.998-2.224-2.225v-6.154c0-1.227.998-2.226 2.224-2.226h40.178" mask="url(#prefix__b)"/>
                <path fill="#FFF" d="M498.27 51.967h-40.176c-1.534 0-2.79-1.256-2.79-2.79v-6.154c0-1.535 1.256-2.79 2.79-2.79h40.177c1.534 0 2.788 1.255 2.788 2.79v6.154c0 1.534-1.255 2.79-2.788 2.79" mask="url(#prefix__b)"/>
                <path fill="#000" d="M498.27 40.232h-40.176c-1.534 0-2.79 1.256-2.79 2.79v6.155c0 1.534 1.256 2.79 2.79 2.79h40.177c1.534 0 2.788-1.256 2.788-2.79v-6.156c0-1.533-1.255-2.789-2.788-2.789m0 .564c1.226 0 2.224.998 2.224 2.225v6.156c0 1.227-.998 2.225-2.224 2.225h-40.178c-1.226 0-2.224-.998-2.224-2.225v-6.156c0-1.227.998-2.225 2.224-2.225h40.178" mask="url(#prefix__b)"/>
                <path fill="#FFF" d="M498.27 66.142h-40.176c-1.534 0-2.79-1.256-2.79-2.79v-6.154c0-1.535 1.256-2.79 2.79-2.79h40.177c1.534 0 2.788 1.255 2.788 2.79v6.154c0 1.534-1.255 2.79-2.788 2.79" mask="url(#prefix__b)"/>
                <path fill="#000" d="M498.27 54.408h-40.176c-1.534 0-2.79 1.255-2.79 2.79v6.153c0 1.536 1.256 2.79 2.79 2.79h40.177c1.534 0 2.788-1.254 2.788-2.79v-6.154c0-1.534-1.255-2.789-2.788-2.789m0 .564c1.226 0 2.224.998 2.224 2.225v6.154c0 1.228-.998 2.226-2.224 2.226h-40.178c-1.226 0-2.224-.998-2.224-2.226v-6.154c0-1.227.998-2.225 2.224-2.225h40.178" mask="url(#prefix__b)"/>
                <path fill="#0A51B7" d="M485.674 31.845c0 1.042-.845 1.888-1.887 1.888-1.043 0-1.887-.846-1.887-1.888 0-1.042.844-1.888 1.887-1.888 1.042 0 1.887.846 1.887 1.888" mask="url(#prefix__b)"/>
                <path fill="#000" d="M483.787 29.957c-1.043 0-1.888.846-1.888 1.888 0 1.042.845 1.887 1.888 1.887 1.042 0 1.888-.845 1.888-1.887s-.846-1.888-1.888-1.888m0 .564c.73 0 1.322.594 1.322 1.324 0 .729-.593 1.323-1.322 1.323-.729 0-1.323-.594-1.323-1.323 0-.73.594-1.324 1.323-1.324" mask="url(#prefix__b)"/>
                <path fill="#0A51B7" d="M491.496 31.845c0 1.042-.846 1.888-1.888 1.888-1.043 0-1.887-.846-1.887-1.888 0-1.042.844-1.888 1.887-1.888 1.042 0 1.888.846 1.888 1.888" mask="url(#prefix__b)"/>
                <path fill="#000" d="M489.608 29.957c-1.043 0-1.888.846-1.888 1.888 0 1.042.845 1.887 1.888 1.887 1.042 0 1.888-.845 1.888-1.887s-.846-1.888-1.888-1.888m0 .564c.73 0 1.322.594 1.322 1.324 0 .729-.593 1.323-1.322 1.323-.729 0-1.323-.594-1.323-1.323 0-.73.594-1.324 1.323-1.324" mask="url(#prefix__b)"/>
                <path fill="#0A51B7" d="M497.317 31.845c0 1.042-.846 1.888-1.888 1.888-1.042 0-1.887-.846-1.887-1.888 0-1.042.845-1.888 1.887-1.888s1.888.846 1.888 1.888" mask="url(#prefix__b)"/>
                <path fill="#000" d="M495.43 29.957c-1.042 0-1.888.846-1.888 1.888 0 1.042.846 1.887 1.888 1.887 1.042 0 1.888-.845 1.888-1.887s-.846-1.888-1.888-1.888m0 .564c.729 0 1.323.594 1.323 1.324 0 .729-.594 1.323-1.323 1.323-.73 0-1.323-.594-1.323-1.323 0-.73.594-1.324 1.323-1.324" mask="url(#prefix__b)"/>
                <path fill="#0A51B7" d="M485.674 46.1c0 1.042-.845 1.888-1.887 1.888-1.043 0-1.887-.846-1.887-1.888 0-1.042.844-1.888 1.887-1.888 1.042 0 1.887.846 1.887 1.888" mask="url(#prefix__b)"/>
                <path fill="#000" d="M483.787 44.212c-1.043 0-1.888.845-1.888 1.888s.845 1.886 1.888 1.886c1.042 0 1.888-.843 1.888-1.886s-.846-1.888-1.888-1.888m0 .564c.73 0 1.322.594 1.322 1.324 0 .729-.593 1.322-1.322 1.322-.729 0-1.323-.593-1.323-1.322 0-.73.594-1.324 1.323-1.324" mask="url(#prefix__b)"/>
                <path fill="#0A51B7" d="M491.496 46.1c0 1.042-.846 1.888-1.888 1.888-1.043 0-1.887-.846-1.887-1.888 0-1.042.844-1.888 1.887-1.888 1.042 0 1.888.846 1.888 1.888" mask="url(#prefix__b)"/>
                <path fill="#000" d="M489.608 44.212c-1.043 0-1.888.845-1.888 1.888s.845 1.886 1.888 1.886c1.042 0 1.888-.843 1.888-1.886s-.846-1.888-1.888-1.888m0 .564c.73 0 1.322.594 1.322 1.324 0 .729-.593 1.322-1.322 1.322-.729 0-1.323-.593-1.323-1.322 0-.73.594-1.324 1.323-1.324" mask="url(#prefix__b)"/>
                <path fill="#0A51B7" d="M497.317 46.1c0 1.042-.846 1.888-1.888 1.888-1.042 0-1.887-.846-1.887-1.888 0-1.042.845-1.888 1.887-1.888s1.888.846 1.888 1.888" mask="url(#prefix__b)"/>
                <path fill="#000" d="M495.43 44.212c-1.042 0-1.888.845-1.888 1.888s.846 1.886 1.888 1.886c1.042 0 1.888-.843 1.888-1.886s-.846-1.888-1.888-1.888m0 .564c.729 0 1.323.594 1.323 1.324 0 .729-.594 1.322-1.323 1.322-.73 0-1.323-.593-1.323-1.322 0-.73.594-1.324 1.323-1.324" mask="url(#prefix__b)"/>
                <path fill="#0A51B7" d="M485.674 60.274c0 1.043-.845 1.888-1.887 1.888-1.043 0-1.887-.845-1.887-1.888 0-1.042.844-1.888 1.887-1.888 1.042 0 1.887.846 1.887 1.888" mask="url(#prefix__b)"/>
                <path fill="#000" d="M483.787 58.387c-1.043 0-1.888.846-1.888 1.888 0 1.042.845 1.887 1.888 1.887 1.042 0 1.888-.845 1.888-1.887s-.846-1.888-1.888-1.888m0 .564c.73 0 1.322.594 1.322 1.324 0 .729-.593 1.323-1.322 1.323-.729 0-1.323-.594-1.323-1.323 0-.73.594-1.324 1.323-1.324" mask="url(#prefix__b)"/>
                <path fill="#0A51B7" d="M491.496 60.274c0 1.043-.846 1.888-1.888 1.888-1.043 0-1.887-.845-1.887-1.888 0-1.042.844-1.888 1.887-1.888 1.042 0 1.888.846 1.888 1.888" mask="url(#prefix__b)"/>
                <path fill="#000" d="M489.608 58.387c-1.043 0-1.888.846-1.888 1.888 0 1.042.845 1.887 1.888 1.887 1.042 0 1.888-.845 1.888-1.887s-.846-1.888-1.888-1.888m0 .564c.73 0 1.322.594 1.322 1.324 0 .729-.593 1.323-1.322 1.323-.729 0-1.323-.594-1.323-1.323 0-.73.594-1.324 1.323-1.324" mask="url(#prefix__b)"/>
                <path fill="#0A51B7" d="M497.317 60.274c0 1.043-.846 1.888-1.888 1.888-1.042 0-1.887-.845-1.887-1.888 0-1.042.845-1.888 1.887-1.888s1.888.846 1.888 1.888" mask="url(#prefix__b)"/>
                <path fill="#000" d="M495.43 58.387c-1.042 0-1.888.846-1.888 1.888 0 1.042.846 1.887 1.888 1.887 1.042 0 1.888-.845 1.888-1.887s-.846-1.888-1.888-1.888m0 .564c.729 0 1.323.594 1.323 1.324 0 .729-.594 1.323-1.323 1.323-.73 0-1.323-.594-1.323-1.323 0-.73.594-1.324 1.323-1.324" mask="url(#prefix__b)"/>
                <path fill="#FFF" d="M460.141 28.747L460.141 34.942" mask="url(#prefix__b)"/>
                <path fill="#000" d="M459.859 34.942L460.423 34.942 460.423 28.747 459.859 28.747z" mask="url(#prefix__b)"/>
                <path fill="#FFF" d="M463.342 28.747L463.342 34.942" mask="url(#prefix__b)"/>
                <path fill="#000" d="M463.06 34.942L463.624 34.942 463.624 28.747 463.06 28.747z" mask="url(#prefix__b)"/>
                <path fill="#FFF" d="M466.543 28.747L466.543 34.942" mask="url(#prefix__b)"/>
                <path fill="#000" d="M466.261 34.942L466.825 34.942 466.825 28.747 466.261 28.747z" mask="url(#prefix__b)"/>
                <path fill="#FFF" d="M469.744 28.747L469.744 34.942" mask="url(#prefix__b)"/>
                <path fill="#000" d="M469.462 34.942L470.026 34.942 470.026 28.747 469.462 28.747z" mask="url(#prefix__b)"/>
                <path fill="#FFF" d="M472.945 28.747L472.945 34.942" mask="url(#prefix__b)"/>
                <path fill="#000" d="M472.664 34.942L473.228 34.942 473.228 28.747 472.664 28.747z" mask="url(#prefix__b)"/>
                <path fill="#FFF" d="M476.147 28.747L476.147 34.942" mask="url(#prefix__b)"/>
                <path fill="#000" d="M475.865 34.942L476.429 34.942 476.429 28.747 475.865 28.747z" mask="url(#prefix__b)"/>
                <path fill="#FFF" d="M461.741 28.747L461.741 34.942" mask="url(#prefix__b)"/>
                <path fill="#000" d="M461.459 34.942L462.023 34.942 462.023 28.747 461.459 28.747z" mask="url(#prefix__b)"/>
                <path fill="#FFF" d="M464.942 28.747L464.942 34.942" mask="url(#prefix__b)"/>
                <path fill="#000" d="M464.661 34.942L465.225 34.942 465.225 28.747 464.661 28.747z" mask="url(#prefix__b)"/>
                <path fill="#FFF" d="M468.144 28.747L468.144 34.942" mask="url(#prefix__b)"/>
                <path fill="#000" d="M467.862 34.942L468.426 34.942 468.426 28.747 467.862 28.747z" mask="url(#prefix__b)"/>
                <path fill="#FFF" d="M471.345 28.747L471.345 34.942" mask="url(#prefix__b)"/>
                <path fill="#000" d="M471.063 34.942L471.627 34.942 471.627 28.747 471.063 28.747z" mask="url(#prefix__b)"/>
                <path fill="#FFF" d="M474.546 28.747L474.546 34.942" mask="url(#prefix__b)"/>
                <path fill="#000" d="M474.264 34.942L474.828 34.942 474.828 28.747 474.264 28.747z" mask="url(#prefix__b)"/>
                <path fill="#FFF" d="M460.141 43.002L460.141 49.197" mask="url(#prefix__b)"/>
                <path fill="#000" d="M459.859 49.197L460.423 49.197 460.423 43.002 459.859 43.002z" mask="url(#prefix__b)"/>
                <path fill="#FFF" d="M463.342 43.002L463.342 49.197" mask="url(#prefix__b)"/>
                <path fill="#000" d="M463.06 49.197L463.624 49.197 463.624 43.002 463.06 43.002z" mask="url(#prefix__b)"/>
                <path fill="#FFF" d="M466.543 43.002L466.543 49.197" mask="url(#prefix__b)"/>
                <path fill="#000" d="M466.261 49.197L466.825 49.197 466.825 43.002 466.261 43.002z" mask="url(#prefix__b)"/>
                <path fill="#FFF" d="M469.744 43.002L469.744 49.197" mask="url(#prefix__b)"/>
                <path fill="#000" d="M469.462 49.197L470.026 49.197 470.026 43.002 469.462 43.002z" mask="url(#prefix__b)"/>
                <path fill="#FFF" d="M472.945 43.002L472.945 49.197" mask="url(#prefix__b)"/>
                <path fill="#000" d="M472.664 49.197L473.228 49.197 473.228 43.002 472.664 43.002z" mask="url(#prefix__b)"/>
                <path fill="#FFF" d="M476.147 43.002L476.147 49.197" mask="url(#prefix__b)"/>
                <path fill="#000" d="M475.865 49.197L476.429 49.197 476.429 43.002 475.865 43.002z" mask="url(#prefix__b)"/>
                <path fill="#FFF" d="M461.741 43.002L461.741 49.197" mask="url(#prefix__b)"/>
                <path fill="#000" d="M461.459 49.197L462.023 49.197 462.023 43.002 461.459 43.002z" mask="url(#prefix__b)"/>
                <path fill="#FFF" d="M464.942 43.002L464.942 49.197" mask="url(#prefix__b)"/>
                <path fill="#000" d="M464.661 49.197L465.225 49.197 465.225 43.002 464.661 43.002z" mask="url(#prefix__b)"/>
                <path fill="#FFF" d="M468.144 43.002L468.144 49.197" mask="url(#prefix__b)"/>
                <path fill="#000" d="M467.862 49.197L468.426 49.197 468.426 43.002 467.862 43.002z" mask="url(#prefix__b)"/>
                <path fill="#FFF" d="M471.345 43.002L471.345 49.197" mask="url(#prefix__b)"/>
                <path fill="#000" d="M471.063 49.197L471.627 49.197 471.627 43.002 471.063 43.002z" mask="url(#prefix__b)"/>
                <path fill="#FFF" d="M474.546 43.002L474.546 49.197" mask="url(#prefix__b)"/>
                <path fill="#000" d="M474.264 49.197L474.828 49.197 474.828 43.002 474.264 43.002z" mask="url(#prefix__b)"/>
                <path fill="#FFF" d="M460.141 57.257L460.141 63.452" mask="url(#prefix__b)"/>
                <path fill="#000" d="M459.859 63.452L460.423 63.452 460.423 57.257 459.859 57.257z" mask="url(#prefix__b)"/>
                <path fill="#FFF" d="M463.342 57.257L463.342 63.452" mask="url(#prefix__b)"/>
                <path fill="#000" d="M463.06 63.452L463.624 63.452 463.624 57.257 463.06 57.257z" mask="url(#prefix__b)"/>
                <path fill="#FFF" d="M466.543 57.257L466.543 63.452" mask="url(#prefix__b)"/>
                <path fill="#000" d="M466.261 63.452L466.825 63.452 466.825 57.257 466.261 57.257z" mask="url(#prefix__b)"/>
                <path fill="#FFF" d="M469.744 57.257L469.744 63.452" mask="url(#prefix__b)"/>
                <path fill="#000" d="M469.462 63.452L470.026 63.452 470.026 57.257 469.462 57.257z" mask="url(#prefix__b)"/>
                <path fill="#FFF" d="M472.945 57.257L472.945 63.452" mask="url(#prefix__b)"/>
                <path fill="#000" d="M472.664 63.452L473.228 63.452 473.228 57.257 472.664 57.257z" mask="url(#prefix__b)"/>
                <path fill="#FFF" d="M476.147 57.257L476.147 63.452" mask="url(#prefix__b)"/>
                <path fill="#000" d="M475.865 63.452L476.429 63.452 476.429 57.257 475.865 57.257z" mask="url(#prefix__b)"/>
                <path fill="#FFF" d="M461.741 57.257L461.741 63.452" mask="url(#prefix__b)"/>
                <path fill="#000" d="M461.459 63.452L462.023 63.452 462.023 57.257 461.459 57.257z" mask="url(#prefix__b)"/>
                <path fill="#FFF" d="M464.942 57.257L464.942 63.452" mask="url(#prefix__b)"/>
                <path fill="#000" d="M464.661 63.452L465.225 63.452 465.225 57.257 464.661 57.257z" mask="url(#prefix__b)"/>
                <path fill="#FFF" d="M468.144 57.257L468.144 63.452" mask="url(#prefix__b)"/>
                <path fill="#000" d="M467.862 63.452L468.426 63.452 468.426 57.257 467.862 57.257z" mask="url(#prefix__b)"/>
                <path fill="#FFF" d="M471.345 57.257L471.345 63.452" mask="url(#prefix__b)"/>
                <path fill="#000" d="M471.063 63.452L471.627 63.452 471.627 57.257 471.063 57.257z" mask="url(#prefix__b)"/>
                <path fill="#FFF" d="M474.546 57.257L474.546 63.452" mask="url(#prefix__b)"/>
                <path fill="#000" d="M474.264 63.452L474.828 63.452 474.828 57.257 474.264 57.257z" mask="url(#prefix__b)"/>
                <path fill="#E6E8EB" d="M492.978 57.392s.188-1.193 1.877-2.007c1.69-.813 5.93-1.964 11.11-1.25 5.179.716 6.54 2 6.54 2l.621 1.378v15.146s-.683 1.814-4.157 2.565c-3.474.75-10.39 1.002-13.707-.531 0 0-2.096-.877-2.284-2.191v-15.11z" mask="url(#prefix__b)"/>
                <path fill="#000" d="M493.26 72.487c.144.334 1.614 3.208 9.787 3.208 8.158 0 9.648-2.864 9.797-3.209V57.3c-.105-.295-1.353-3.106-10.095-3.106-9.133 0-9.486 3.12-9.49 3.152l.002 15.142zm9.787 3.772c-9.117 0-10.293-3.489-10.338-3.637l-.012-.083V57.327c.007-.164.296-3.698 10.052-3.698 9.713 0 10.619 3.42 10.654 3.564l.006.064-.013 15.366c-.046.148-1.232 3.636-10.35 3.636z" mask="url(#prefix__b)"/>
                <path fill="#000" d="M502.833 66.2c-8.857 0-10.073-3.263-10.122-3.403l.535-.182-.267.091.266-.094c.011.03 1.204 3.023 9.591 3.023.114 0 .228 0 .345-.002 8.678-.083 9.666-2.977 9.674-3.006l.544.154c-.038.136-1.027 3.328-10.212 3.416l-.354.002M502.834 71.157c-8.858 0-10.074-3.263-10.123-3.403l.534-.185c.011.03 1.203 3.024 9.591 3.024.113 0 .228 0 .345-.002 8.678-.083 9.666-2.978 9.674-3.007l.544.154c-.038.136-1.027 3.33-10.212 3.417l-.353.002M502.834 61.242c-8.858 0-10.074-3.263-10.123-3.403l.534-.185c.011.03 1.203 3.024 9.591 3.024.113 0 .228 0 .345-.002 8.678-.083 9.666-2.978 9.674-3.007l.544.154c-.038.136-1.027 3.33-10.212 3.417l-.353.002M8.804 137.799c2.603-2.303 3.946-4.018 3.946-5.47 0-.96-.515-1.618-1.5-1.618-.695 0-1.27.443-1.738.983l-.78-.768c.756-.814 1.536-1.318 2.687-1.318 1.619 0 2.662 1.054 2.662 2.65 0 1.703-1.355 3.466-3.226 5.253.456-.048 1.008-.084 1.439-.084H14.5v1.175H8.804v-.803zM18.475 137.463c1.895 0 2.914-1.115 2.914-3.311 0-2.207-1.02-3.25-2.914-3.25h-.804v6.56h.804zm-2.195-7.687h2.29c2.712 0 4.259 1.498 4.259 4.376 0 2.868-1.547 4.45-4.186 4.45H16.28v-8.826zM26.888 134.213c0-2.88 1.75-4.605 3.98-4.605 1.105 0 1.969.527 2.508 1.115l-.756.886c-.455-.466-1.006-.791-1.726-.791-1.524 0-2.58 1.272-2.58 3.346 0 2.1.985 3.383 2.544 3.383.803 0 1.427-.36 1.955-.936l.743.875c-.707.817-1.606 1.272-2.746 1.272-2.22 0-3.922-1.654-3.922-4.545M38.861 134.992l-.348-1.187c-.299-.959-.563-1.944-.839-2.939h-.048c-.252 1.007-.528 1.98-.816 2.94l-.359 1.186h2.41zm.336 1.092h-3.07l-.756 2.517h-1.415l2.926-8.826h1.607l2.927 8.826H39.94l-.743-2.517zM44.778 137.463c1.895 0 2.914-1.115 2.914-3.311 0-2.207-1.019-3.25-2.914-3.25h-.804v6.56h.804zm-2.195-7.687h2.291c2.711 0 4.258 1.498 4.258 4.376 0 2.868-1.547 4.45-4.186 4.45h-2.363v-8.826zM50.875 134.848c0-2.362.66-4.317 1.775-6.128l.864.372c-1.032 1.727-1.512 3.754-1.512 5.756 0 2.016.48 4.042 1.512 5.758l-.864.383c-1.115-1.823-1.775-3.754-1.775-6.141M64.489 137.211L64.489 138.231 54.678 138.231 54.678 137.211 58.948 137.211 58.948 134.656 55.878 134.656 55.878 129.512 63.29 129.512 63.29 130.506 57.113 130.506 57.113 133.66 63.386 133.66 63.386 134.656 60.183 134.656 60.183 137.211zM71.2 132.833h2.255v-1.319H71.2v1.319zm3.742 5.481v1.008h-7.304v-3.443h1.248v2.435h6.056zm-7.544-4.521h2.603v-3.215h-2.603v3.215zm3.802.983h-5.013v-5.18H71.2v.91h2.255v-1.811h1.235v7.905h-1.235v-2.772H71.2v.948zM76.7 140.606c1.03-1.716 1.51-3.743 1.51-5.758 0-2.003-.48-4.03-1.51-5.757l.862-.371c1.128 1.81 1.787 3.766 1.787 6.127 0 2.387-.659 4.32-1.787 6.141l-.863-.382zM89.2 132.93h2.255v-1.332H89.2v1.332zm3.742 5.384v1.008h-7.304v-3.394h1.248v2.386h6.056zm-7.508-4.377h2.554v-1.763h-2.554v1.763zm3.766 1.006h-4.989v-5.528h1.224v1.787h2.553v-1.787H89.2v1.188h2.255v-1.896h1.235v8h-1.235v-2.77H89.2v1.006zM104.726 132.365v1.02h-1.487v3.778h-1.236v-8.48h1.236v3.682h1.487zm-6.692 1.068c.863 0 1.415-.3 1.415-.804 0-.516-.552-.827-1.415-.827-.864 0-1.415.311-1.415.827 0 .504.55.804 1.415.804zm-.564 4.881h6.14v1.008h-7.375v-2.699h1.235v1.691zm3.658-7.736H94.94v-.91h2.482v-1.02h1.247v1.02h2.459v.91zm.396 4.941c-2.267.432-4.846.481-6.717.492l-.144-.984c.804 0 1.763-.012 2.759-.035v-.744c-1.212-.144-1.967-.732-1.967-1.619 0-1.032 1.02-1.666 2.579-1.666 1.559 0 2.579.634 2.579 1.666 0 .876-.744 1.475-1.944 1.62v.682c.936-.059 1.883-.13 2.759-.263l.096.851z" mask="url(#prefix__b)"/>
                <path fill="#FFF" d="M113.089 57.675c0 31.125-25.231 56.356-56.357 56.356C25.607 114.03.375 88.8.375 57.675c0-31.126 25.232-56.357 56.357-56.357 31.126 0 56.357 25.23 56.357 56.357" mask="url(#prefix__b)"/>
                <path fill="#C5C8CF" d="M56.731 1.692C25.863 1.692.751 26.805.751 57.674c0 30.87 25.112 55.982 55.98 55.982 30.87 0 55.982-25.113 55.982-55.982S87.6 1.692 56.731 1.692m0 112.714c-31.282 0-56.73-25.449-56.73-56.732C0 26.392 25.448.942 56.73.942c31.282 0 56.732 25.45 56.732 56.732 0 31.283-25.45 56.732-56.732 56.732" mask="url(#prefix__b)"/>
                <path fill="#231916" d="M81.065 55.79l-.027-.485c.164-.009.33-.014.498-.014v.484c-.159 0-.317.005-.47.014M57.246 55.79c-.308-.017-.643-.019-.957-.006l-.02-.484c.328-.013.682-.01 1.002.005l-.025.484zm-2.836.27l-.127-.468c.308-.085.641-.153.988-.203l.07.48c-.328.047-.64.11-.93.19zm4.697.055c-.29-.093-.599-.168-.917-.223l.082-.477c.34.06.671.14.984.24l-.149.46zm20.094.013l-.146-.46c.317-.102.646-.184.98-.244l.086.476c-.313.057-.622.134-.92.228zm-44.925.08c-.295-.112-.598-.203-.904-.272l.105-.472c.33.073.655.171.971.291l-.172.453zm18.42.608l-.266-.406c.28-.183.582-.345.897-.482l.193.443c-.29.127-.568.277-.825.445zm24.797.12l-.266-.407c.284-.184.581-.35.885-.493l.207.438c-.284.133-.562.29-.826.461zm-16.719.031c-.254-.188-.522-.354-.798-.494l.221-.432c.3.153.59.333.864.535l-.287.391zm-24.827.134c-.264-.186-.537-.354-.808-.5l.228-.427c.29.155.578.334.858.53l-.278.397zm15.376.987l-.383-.297c.213-.273.444-.526.687-.752l.33.355c-.225.208-.438.442-.634.694zm24.77.096l-.376-.307c.21-.256.447-.503.706-.733l.322.364c-.24.212-.46.44-.653.676zm-13.945.093c-.232-.27-.446-.498-.654-.697l.336-.35c.22.21.442.45.686.731l-.368.316zm-24.766.08c-.22-.236-.452-.46-.687-.666l.32-.365c.247.217.49.452.72.698l-.353.332zm12.874 1.366l-.389-.289c.16-.217.313-.454.451-.703l.058-.1.42.242-.054.095c-.149.266-.312.52-.486.755zm13.137.068c-.213-.247-.42-.504-.628-.764l.378-.302c.205.255.408.506.618.75l-.368.316zm11.58.001l-.374-.31c.202-.243.378-.496.526-.753.011-.018.023-.036.04-.05l.131.131.265.132-.018.027.002.001c-.16.281-.355.558-.573.822zm-36.297.043c-.235-.238-.459-.49-.667-.749l.377-.305c.198.246.412.487.635.714l-.345.34zm1.543 1.282c-.273-.18-.544-.383-.807-.6l.311-.374c.248.208.505.4.763.57l-.267.404zm33.24.018l-.268-.405c.267-.175.52-.369.751-.574l.321.363c-.248.22-.519.427-.804.616zm-24.646.01l-.279-.394c.255-.182.497-.385.718-.604l.342.344c-.24.238-.503.458-.78.654zm16.041.028c-.26-.19-.515-.403-.774-.652l.336-.349c.242.233.478.432.722.608l-.284.393zm6.787.84l-.153-.462c.3-.099.596-.218.88-.355l.21.438c-.303.145-.618.272-.937.378zm-29.619.005c-.317-.11-.63-.243-.93-.395l.217-.432c.282.143.575.267.872.37l-.159.457zm4.97.016l-.144-.463c.306-.095.602-.212.877-.345l.211.436c-.296.145-.615.27-.944.372zm19.677.041c-.332-.102-.65-.228-.945-.376l.216-.433c.271.135.565.252.871.346l-.142.463zm-21.656.312l-.032-.485c.328-.02.647-.057.947-.109l.084.476c-.318.056-.655.095-.999.118zm24.65.006l-.032-.485c.317-.02.634-.06.94-.12l.092.477c-.327.062-.663.105-1 .128zm-1.006.005c-.349-.015-.686-.048-1-.098l.073-.479c.298.047.618.078.95.093l-.023.484zm-24.65.003c-.334-.015-.673-.056-1.007-.12l.092-.476c.311.06.627.097.937.112l-.023.484zM32.395 55.792c-.154-.011-.31-.017-.469-.017v-.484c.17 0 .338.006.503.019l-.035.482z" mask="url(#prefix__b)"/>
                <path fill="#0A51B7" d="M81.536 62.41c-2.698 0-5.215-1.35-6.41-3.44-.91-1.587-3.26-3.195-5.992-3.195-2.286 0-4.309 1.085-6.012 3.225-1.483 1.865-2.988 3.41-6.39 3.41-3.016 0-5.114-1.127-6.413-3.442-.827-1.473-2.89-3.193-5.99-3.193-2.998 0-5.054 2.021-6.012 3.225-1.483 1.865-2.988 3.41-6.39 3.41v-.485c3.191 0 4.557-1.399 6.011-3.226 1.013-1.273 3.19-3.408 6.391-3.408 3.308 0 5.521 1.853 6.412 3.44 1.206 2.15 3.166 3.194 5.99 3.194 3.192 0 4.558-1.399 6.012-3.226 1.8-2.262 3.95-3.408 6.391-3.408 2.917 0 5.433 1.73 6.411 3.438 1.112 1.941 3.464 3.196 5.991 3.196v.484z" mask="url(#prefix__b)"/>
            </g>
            <g transform="translate(24 31) translate(45 45.058)">
                <mask id="prefix__d" fill="#fff">
                    <use xlink:href="#prefix__c"/>
                </mask>
                <path fill="#FFF" d="M-1.977 29.398L25.44 29.398 25.44 -1.511 -1.977 -1.511z" mask="url(#prefix__d)"/>
            </g>
            <g transform="translate(24 31) translate(45 52.058)">
                <mask id="prefix__f" fill="#fff">
                    <use xlink:href="#prefix__e"/>
                </mask>
                <path fill="#0A51B7" d="M-1.758 22.201L14.154 22.201 14.154 -1.868 -1.758 -1.868z" mask="url(#prefix__f)"/>
            </g>
            <g transform="translate(24 31) translate(45 45.058)">
                <mask id="prefix__h" fill="#fff">
                    <use xlink:href="#prefix__g"/>
                </mask>
                <path fill="#000" d="M-1.977 29.398L25.44 29.398 25.44 -1.511 -1.977 -1.511z" mask="url(#prefix__h)"/>
            </g>
            <g>
                <path fill="#000" d="M23.538 42.779L23.925 42.779 23.925 29.943 23.538 29.943z" transform="translate(24 31) translate(33 29.058)"/>
                <path fill="#000" d="M23.635 30.111L12.569 23.722 12.762 23.386 23.828 29.775z" transform="translate(24 31) translate(33 29.058)"/>
                <path fill="#000" d="M23.828 30.111L23.635 29.775 34.67 23.404 34.863 23.74zM47.212 11.033L46.433 11.033 46.433 7.71 43.11 7.71 43.11 6.93 47.212 6.93zM1.032 11.033L.253 11.033.253 6.93 4.354 6.93 4.354 7.71 1.032 7.71zM4.354 52.769L.253 52.769.253 48.666 1.032 48.666 1.032 51.99 4.354 51.99zM47.212 52.769L43.11 52.769 43.11 51.99 46.433 51.99 46.433 48.666 47.212 48.666z" transform="translate(24 31) translate(33 29.058)"/>
                <path fill="#C5C8CF" d="M310.198 22.682L400.804 22.682 400.804 21.932 310.198 21.932z" transform="translate(24 31) translate(33 29.058)"/>
                <path fill="#C5C8CF" d="M394.828 22.307L394.828 17.544 398.952 19.926 403.076 22.307 398.952 24.688 394.828 27.069zM308.346 35.746L398.952 35.746 398.952 34.996 308.346 34.996z" transform="translate(24 31) translate(33 29.058)"/>
                <path fill="#C5C8CF" d="M314.321 35.371L314.321 40.134 310.197 37.752 306.073 35.371 310.197 32.99 314.321 30.609z" transform="translate(24 31) translate(33 29.058)"/>
                <path fill="#000" d="M332.493 49.93c.084.253.12.517.12.805 0 .287-.036.55-.12.802h2.075V49.93h-2.075zm3.586 7.006v1.007h-7.292v-3.454h1.235v2.447h6.057zm-6.273-4.523c.924 0 1.631-.67 1.631-1.678 0-.984-.707-1.656-1.63-1.656-.948 0-1.656.672-1.656 1.656 0 1.008.708 1.678 1.655 1.678zm2.16.132c-.504.588-1.272.948-2.16.936-1.607 0-2.83-1.151-2.83-2.746 0-1.596 1.223-2.746 2.83-2.746.888 0 1.656.359 2.16.935h2.602v-1.596h1.236v7.963h-1.236v-2.746h-2.602zM345.944 58.146h1.187v-10.83h-1.187v10.83zm-2.183-10.566h1.151v10.039h-1.151v-3.646h-1.775v-1.008h1.775V51.25h-1.583c-.503 1.822-1.643 3.395-3.67 4.605l-.707-.875c2.23-1.355 3.309-3.119 3.489-5.337h-2.962v-.996h4.186c0 .552-.036 1.091-.12 1.595h1.367V47.58zM360.333 58.135h1.187v-10.83h-1.187v10.83zm-2.207-10.591h1.163v10.087h-1.163v-5.254h-2.135v-1.008h2.135v-3.825zm-4.271 7.063c1.344-.011 2.268-.071 3.335-.298l.108 1.019c-1.223.239-2.278.299-3.934.299h-.731v-7.039h4.101v1.007h-2.879v5.012zM370.977 58.17h1.247V47.305h-1.247V58.17zm-6.117-6.248c0 1.703.66 2.723 1.595 2.723.947 0 1.607-1.02 1.607-2.723 0-1.68-.66-2.699-1.607-2.699-.935 0-1.595 1.019-1.595 2.699zm4.39 0c0 2.35-1.176 3.826-2.795 3.826-1.607 0-2.782-1.476-2.782-3.826 0-2.327 1.175-3.815 2.782-3.815 1.619 0 2.795 1.488 2.795 3.815zM383.348 47.292v10.866H382.1v-5.865h-2.075v-1.02h2.075v-3.981h1.247zm-7.28 7.328c1.727-.013 2.963-.071 4.378-.311l.108.995c-1.548.276-2.902.323-4.87.323h-.851v-7.375h5.025v1.019h-3.79v2.027h3.346v.983h-3.345v2.339zM334.834 7.072l-.348-1.187c-.299-.959-.563-1.944-.839-2.939h-.048c-.252 1.007-.528 1.98-.816 2.94l-.36 1.186h2.411zm.336 1.092h-3.07l-.756 2.517h-1.415l2.926-8.826h1.607l2.927 8.826h-1.476l-.743-2.517zM339.947 6.005h1.331c1.283 0 1.98-.528 1.98-1.595 0-1.068-.697-1.44-1.98-1.44h-1.33v3.035zm3.43 4.677l-2.003-3.562h-1.427v3.562h-1.392V1.856h2.891c1.823 0 3.19.646 3.19 2.554 0 1.367-.73 2.182-1.846 2.53l2.158 3.742h-1.57zM356.625 11.594h1.187V.764h-1.187v10.83zm-2.207-10.59h1.163V11.09h-1.163V5.837h-2.135V4.83h2.135V1.004zm-4.271 7.063c1.344-.011 2.268-.071 3.335-.299l.108 1.019c-1.224.24-2.278.3-3.934.3h-.731v-7.04h4.101v1.008h-2.879v5.012zM367.269 11.629h1.247V.764h-1.247v10.865zm-6.117-6.248c0 1.703.66 2.723 1.595 2.723.947 0 1.607-1.02 1.607-2.723 0-1.679-.66-2.698-1.607-2.698-.935 0-1.595 1.019-1.595 2.698zm4.39 0c0 2.351-1.176 3.826-2.795 3.826-1.607 0-2.782-1.475-2.782-3.826 0-2.326 1.175-3.815 2.782-3.815 1.619 0 2.795 1.489 2.795 3.815zM379.64.752v10.865h-1.247V5.753h-2.075v-1.02h2.075V.752h1.247zm-7.28 7.328c1.727-.013 2.963-.072 4.378-.312l.108.996c-1.548.275-2.902.323-4.87.323h-.851V1.711h5.025v1.02h-3.79v2.027h3.346v.982h-3.345v2.34z" transform="translate(24 31) translate(33 29.058)"/>
            </g>
        </g>
    </g>
</svg>
