<svg xmlns="http://www.w3.org/2000/svg" xmlns:xlink="http://www.w3.org/1999/xlink" width="780" height="380" viewBox="0 0 780 380">
    <defs>
        <path id="prefix__a" d="M0 0L730.392 0 730.392 309.534 0 309.534z"/>
    </defs>
    <g fill="none" fill-rule="evenodd">
        <path fill="#F8F9FB" d="M0 0H780V380H0z"/>
        <g transform="translate(23 34)">
            <mask id="prefix__b" fill="#fff">
                <use xlink:href="#prefix__a"/>
            </mask>
            <path fill="#000" d="M35.727 231.828h1.247v-10.866h-1.247v10.866zm-5.769-3.682c2.015-.012 3.31-.072 4.761-.348l.133 1.032c-1.571.288-2.975.348-5.218.348h-.899v-7.208h5.157v1.019h-3.934v5.157zM46.767 231.804h1.247v-10.83h-1.247v10.83zm-3.67-7.7c0 1.799 1.115 3.67 2.807 4.39l-.684.972c-1.26-.552-2.231-1.727-2.734-3.131-.481 1.511-1.451 2.795-2.723 3.406l-.708-.983c1.68-.78 2.795-2.794 2.795-4.654v-1.031h-2.411v-1.019h6.069v1.019h-2.411v1.031zM57.867 224.356h-1.87v-.983h1.87v-2.412h1.248v5.805h-1.248v-2.41zm1.607 6.393v.96h-7.4v-2.724h5.817v-.815h-5.83v-.96h7.054v2.664h-5.817v.875h6.176zm-3.31-4.558c-1.427.228-2.638.24-4.69.24h-.815v-4.82h4.94v.97h-3.705v.935h3.395v.936h-3.395v1.008c1.776 0 2.879-.037 4.174-.252l.097.983zM73.262 227.69h-7.508v-5.84h7.424v.994h-6.165v1.392h5.925v.972h-5.925v1.487h6.25v.995zm-8.719 2.783h9.823v-1.008h-9.823v1.008zM83.235 229.202h1.247v-8.229h-1.247v8.229zm-5.673-5.781c0 .683.623 1.103 1.571 1.103.936 0 1.571-.42 1.571-1.103 0-.672-.635-1.092-1.571-1.092-.948 0-1.571.42-1.571 1.092zm7.195 7.172v1.007h-7.723v-3.119h1.235v2.112h6.488zm-8.371-7.172c0-1.223 1.115-2.015 2.747-2.015 1.619 0 2.735.792 2.735 2.015 0 1.235-1.116 2.039-2.735 2.039-1.632 0-2.747-.804-2.747-2.039zm2.291 3.693c-1.044.037-2.039.049-2.914.049l-.156-1.008c1.991 0 4.653-.012 6.944-.324l.084.876c-.899.168-1.811.276-2.722.323v1.824h-1.236v-1.74zM30.89 242.274h-1.643v5.518h-1.235v-10.83h1.235v4.281h1.643v1.031zm-4.473-4.162c0 3.142-1.343 5.926-4.88 7.713l-.685-.947c2.65-1.356 4.078-3.262 4.33-5.758h-3.79v-1.008h5.025zM41.895 239.647v1.02H40.36v2.806h-1.236v-6.512h1.236v2.686h1.535zm-2.639 6.117c0-.672-.876-1.055-2.386-1.055-1.512 0-2.387.383-2.387 1.055 0 .695.875 1.07 2.387 1.07 1.51 0 2.386-.375 2.386-1.07zm1.223 0c0 1.283-1.367 2.04-3.609 2.04-2.232 0-3.611-.757-3.611-2.04 0-1.27 1.379-2.027 3.611-2.027 2.242 0 3.609.756 3.609 2.027zm-2.926-2.865c-1.163-.42-2.027-1.248-2.482-2.268-.481 1.176-1.367 2.112-2.615 2.567l-.66-.983c1.703-.588 2.626-2.064 2.626-3.623v-1.066h1.248v1.162c0 1.393.923 2.711 2.531 3.238l-.648.973zM53.716 245.776c0-.672-.959-1.066-2.555-1.066-1.606 0-2.59.394-2.59 1.066 0 .684.984 1.08 2.59 1.08 1.596 0 2.555-.396 2.555-1.08zm-.348-4.629c.276-1.066.288-1.848.288-2.662h-6.212v-.996h7.435v.912c0 .863 0 1.762-.3 2.88l-1.21-.134zm1.583 4.63c0 1.26-1.487 2.026-3.79 2.026-2.339 0-3.813-.767-3.813-2.027 0-1.246 1.474-2.014 3.813-2.014 2.303 0 3.79.768 3.79 2.014zm1.128-3.85v.995h-9.762v-.996h3.837v-1.99h1.248v1.99h4.677zM67.335 240.14v1.02h-1.548v3.657H64.55v-7.844h1.236v3.166h1.547zm-7.16 6.453h6.044v1.008h-7.292v-3.575h1.248v2.566zm2.71-8.791c0 2.865-1.907 4.904-5.061 5.865l-.515-.984c2.482-.756 4.017-2.159 4.233-3.873h-3.779v-1.008h5.122zM81.543 243.282h-4.318v4.521H75.98v-4.521h-4.236v-1.02h7.04c.314-1.511.314-2.638.314-3.634H72.92v-.994h7.388v.947c0 1.019 0 2.146-.277 3.681h1.511v1.02zM83.288 240.93c2.195-.166 3.563-.97 3.683-1.953h-3.227v-.972h3.31v-1.066h1.235v1.066h3.299v.972h-3.215c.12.982 1.476 1.787 3.683 1.953l-.384.936c-1.883-.155-3.334-.78-4.006-1.75-.672.97-2.123 1.595-4.006 1.75l-.372-.936zm5 2.436v1.091h3.084v3.335h-1.235v-2.352h-6.273v-.982h3.19v-1.091h-4.282v-.998h9.799v.998h-4.282z" mask="url(#prefix__b)"/>
            <path fill="#C5C8CF" d="M121.667 150.204L153.496 150.204 153.496 149.454 121.667 149.454z" mask="url(#prefix__b)"/>
            <path fill="#C5C8CF" d="M147.52 149.829L147.52 145.067 151.644 147.448 155.768 149.829 151.644 152.21 147.52 154.592z" mask="url(#prefix__b)"/>
            <path fill="#000" d="M182.272 227.282h-1.163v-6.104h1.163v2.579h1.14v-2.772h1.174v6.645h-1.174v-2.867h-1.14v2.519zm1.14 2.543c0-.672-.912-1.043-2.435-1.043-1.523 0-2.435.371-2.435 1.043 0 .659.912 1.031 2.435 1.031 1.523 0 2.435-.372 2.435-1.031zm1.235 0c0 1.234-1.416 1.978-3.67 1.978-2.255 0-3.671-.744-3.671-1.978 0-1.248 1.416-1.991 3.671-1.991 2.254 0 3.67.743 3.67 1.991zm-4.45-2.963c-.959-.371-1.631-1.092-2.039-1.955-.396.996-1.103 1.836-2.147 2.291l-.647-.947c1.451-.66 2.182-2.016 2.182-3.25v-1.367h1.2v1.367c0 1.199.708 2.386 2.111 2.937l-.66.924zM196.455 224.212v1.02h-1.535v3.717h-1.236v-7.987h1.236v3.25h1.535zm-7.137 6.38h6.033v1.009h-7.268v-3.42h1.235v2.412zm2.903-3.333c-1.2-.42-2.075-1.283-2.555-2.34-.468 1.188-1.367 2.11-2.638 2.567l-.672-.96c1.74-.587 2.662-2.05 2.662-3.633v-1.26h1.248v1.272c0 1.439.935 2.807 2.579 3.37l-.624.984zM208.275 229.776c0-.67-.96-1.066-2.555-1.066-1.606 0-2.59.395-2.59 1.066 0 .684.984 1.08 2.59 1.08 1.596 0 2.555-.396 2.555-1.08zm-.348-4.629c.276-1.067.288-1.848.288-2.662h-6.212v-.996h7.435v.912c0 .863 0 1.763-.3 2.878l-1.211-.132zm1.583 4.63c0 1.26-1.487 2.026-3.79 2.026-2.34 0-3.813-.767-3.813-2.027 0-1.246 1.474-2.014 3.813-2.014 2.303 0 3.79.768 3.79 2.014zm1.128-3.85v.995h-9.762v-.996h3.837v-1.99h1.248v1.99h4.677zM219.64 223.696v-2.723h1.234v6.453h-1.235v-2.722h-1.919v-1.008h1.92zm.047 6.068c0-.707-.888-1.09-2.41-1.09-1.548 0-2.423.383-2.423 1.09 0 .708.875 1.092 2.422 1.092 1.523 0 2.411-.384 2.411-1.092zm1.235 0c0 1.295-1.39 2.051-3.646 2.051-2.267 0-3.658-.756-3.658-2.05 0-1.284 1.391-2.05 3.658-2.05 2.255 0 3.646.766 3.646 2.05zm-3.19-2.685c-1.199-.42-2.063-1.272-2.519-2.316-.479 1.188-1.39 2.148-2.675 2.603l-.635-.983c1.68-.6 2.651-2.04 2.651-3.527v-.156h-2.29v-.994h5.792v.994h-2.255v.144c0 1.356.923 2.7 2.542 3.262l-.61.973zM233.979 227.15h1.248v-6.188h-1.248v6.188zm-5.912-1.991h2.723v-2.53h-2.723v2.53zm4.269 3.61c.096.888 1.488 1.859 3.491 2.076l-.409.935c-1.714-.204-3.058-.9-3.717-1.836-.66.948-2.028 1.632-3.754 1.836l-.408-.935c2.027-.205 3.43-1.153 3.526-2.076h-3.107v-.947h3.107v-.972h1.26v.972h3.105v.947h-3.094zm-5.481-2.626h5.134v-4.498h-5.134v4.498zM248.44 223.768h-2.195v-.996h2.195v-1.81h1.235v5.564h-1.235v-2.758zm1.606 6.932v.971h-7.4v-2.805h5.806v-.865h-5.83v-.96h7.053v2.735h-5.804v.924h6.175zm-3.597-4.354c-1.176-.395-2.04-1.199-2.494-2.207-.481 1.128-1.38 2.004-2.652 2.447l-.635-.97c1.69-.553 2.638-1.909 2.638-3.395v-.912h1.236v.912c0 1.367.935 2.64 2.554 3.166l-.647.96zM259.408 231.827h1.247v-10.865h-1.247v10.865zm-5.865-3.573h2.746v-2.651h-2.746v2.651zm0-6.393v2.759h2.747v-2.759h1.235v7.388h-5.205v-7.388h1.223zM262.807 232.499c.815-.336 1.295-.936 1.308-1.643-.049.012-.084.012-.133.012-.49 0-.923-.311-.923-.887 0-.541.432-.888.96-.888.671 0 1.066.564 1.066 1.488 0 1.259-.73 2.23-1.966 2.697l-.312-.78zM177.842 240.75h-1.535v2.749h-1.236v-6.537h1.236v2.769h1.535v1.02zm-8.659 3.276h7.124v3.778h-1.236v-2.783h-5.888v-.995zm4.401-.96c-1.212-.395-2.075-1.223-2.543-2.254-.479 1.138-1.379 2.027-2.65 2.47l-.648-.97c1.715-.577 2.662-1.956 2.662-3.444v-.191h-2.302v-1.008h5.817v1.008h-2.266v.19c0 1.368.911 2.7 2.566 3.25l-.636.95zM182.045 246.676h4.594v-1.199h-4.594v1.199zm4.594-3.382h1.224v4.379h-7.04v-4.379h1.222v1.224h4.594v-1.224zm-3.142-3.311c0-.922-.696-1.51-1.631-1.51-.959 0-1.643.588-1.643 1.51 0 .912.684 1.524 1.643 1.524.935 0 1.631-.612 1.631-1.524zm4.366-3.01v5.805h-1.236v-2.303h-2.002c-.216 1.223-1.32 2.051-2.759 2.051-1.631 0-2.83-1.043-2.83-2.543 0-1.486 1.199-2.529 2.83-2.529 1.427 0 2.518.803 2.759 2.014h2.002v-2.495h1.236zM200.006 242.262h-1.69v5.542h-1.237v-10.83h1.236v4.269h1.691v1.02zm-6.285-2.145c0 1.679 1.067 3.597 2.711 4.376l-.684.972c-1.212-.576-2.135-1.775-2.627-3.142-.479 1.511-1.439 2.806-2.686 3.418l-.707-.985c1.654-.79 2.757-2.841 2.757-4.64v-1.043h-2.362v-1.02h5.89v1.02h-2.292v1.043zM212.055 247.815h1.235v-10.842h-1.235v10.842zm-5.805-8.107c0 .767.671 1.26 1.607 1.26.947 0 1.607-.493 1.607-1.26 0-.756-.66-1.246-1.607-1.246-.936 0-1.607.49-1.607 1.246zm-1.188 0c0-1.33 1.176-2.266 2.795-2.266s2.795.936 2.795 2.266c0 1.344-1.176 2.279-2.795 2.279s-2.795-.935-2.795-2.279zm6.369 3.597c-.947.194-1.943.301-2.902.374v3.8h-1.236v-3.728c-1.019.035-1.979.047-2.818.047l-.144-1.02c1.955 0 4.677-.035 7.016-.383l.084.91zM223.046 247.792h1.248v-10.83h-1.248v10.83zm-3.586-7.377c0 1.703 1.056 3.467 2.735 4.199l-.659.959c-1.236-.539-2.183-1.654-2.675-3.01-.48 1.438-1.427 2.614-2.687 3.19l-.683-.948c1.703-.767 2.734-2.603 2.734-4.39v-.623h-2.398v-.996h2.398v-1.606h1.235v1.606h2.351v.996h-2.351v.623zM232.074 242.034h5.157v-3.213h-5.157v3.213zm7.508 3.432v1.005h-9.811v-1.005h4.27v-2.448h-3.178v-5.181h7.58v5.181h-3.167v2.448h4.306zM248.523 247.804h1.235v-10.83h-1.235v10.83zm-5.853-3.79c1.536-.013 3.155-.144 4.858-.492l.132 1.032c-1.86.382-3.611.515-5.289.515h-.924v-7.041h1.223v5.986zM260.846 236.95v10.865H259.6v-5.865h-2.075v-1.02h2.075v-3.98h1.247zm-7.279 7.328c1.726-.012 2.962-.072 4.377-.312l.108.996c-1.548.275-2.902.324-4.869.324h-.852v-7.377h5.025v1.02h-3.789v2.027h3.345v.982h-3.345v2.34zM270.58 243.606h1.235v-6.633h-1.235v6.633zm.071 2.207c0-.672-.875-1.031-2.435-1.031-1.547 0-2.434.359-2.434 1.031 0 .658.887 1.02 2.434 1.02 1.56 0 2.435-.362 2.435-1.02zm1.235 0c0 1.258-1.39 2.002-3.67 2.002-2.278 0-3.658-.744-3.658-2.002 0-1.259 1.38-2.004 3.658-2.004 2.28 0 3.67.745 3.67 2.004zm-2.29-3.107c-1.703.277-3.167.324-5.241.324h-.912v-3.201h3.718v-1.201h-3.742v-.994h4.954v3.13h-3.706v1.258c1.859 0 3.213-.058 4.785-.324l.144 1.008z" mask="url(#prefix__b)"/>
            <path fill="#092E6E" d="M428.374 185.129h2.377v-16.638h-2.377v16.638zm-7.994-5.943c2.898-.017 4.753-.107 6.752-.485l.216 1.962c-2.251.433-4.358.504-7.887.504h-1.458v-11.199h8.013v1.927h-5.636v7.291zM444.934 185.075h2.377v-16.584h-2.377v16.584zm-4.952-12.118c0 2.701 1.332 5.563 4.105 6.716l-1.296 1.873c-1.927-.828-3.241-2.449-3.979-4.448-.739 2.161-2.071 3.979-4.015 4.862l-1.351-1.891c2.773-1.242 4.123-4.285 4.123-7.112v-.918h-3.457v-1.963h9.291v1.963h-3.421v.918zM461.62 173.876h-2.63v-1.873h2.63v-3.512h2.376v8.77h-2.377v-3.385zm2.844 9.29v1.782h-11.379v-4.392h8.552v-.901h-8.588v-1.783h10.947v4.358h-8.57v.936h9.038zm-5.186-6.554c-2.179.307-4.033.325-7.094.325h-1.296v-7.527h7.652v1.837h-5.293v1.025h4.79V174h-4.79v1.08c2.376-.018 3.978-.053 5.851-.323l.18 1.854zM485.146 178.917h-11.65v-9.22h11.524v1.909h-9.111v1.748h8.733v1.836h-8.733v1.854h9.237v1.873zm-13.415 4.249h15.017v-1.927h-15.017v1.927zM499.725 181.042h2.376v-12.568h-2.376v12.568zm-8.031-8.805c0 .901.792 1.387 1.998 1.387 1.189 0 1.981-.486 1.981-1.387 0-.9-.792-1.387-1.981-1.387-1.206 0-1.998.487-1.998 1.387zm-2.251 0c0-1.873 1.765-3.151 4.249-3.151 2.485 0 4.232 1.278 4.232 3.151 0 1.891-1.747 3.151-4.232 3.151-2.484 0-4.249-1.26-4.249-3.151zm13.018 10.658v1.891h-12.1v-4.772h2.377v-1.98c-1.459.072-2.881.091-4.123.091l-.288-1.891c3.007 0 7.022-.036 10.497-.486l.126 1.675c-1.278.234-2.556.378-3.853.467v2.665h-2.359v2.34h9.723zM440.507 195.134v1.963h-1.98v5.4h-2.376v-12.423h2.376v5.06h1.98zm-10.658 9.362h9.2v1.89h-11.577V201.4h2.377v3.096zm1.98-7.561c.27-1.55.342-2.756.36-3.746h-6.176v-1.891h8.516v1.027c0 1.153 0 2.79-.377 4.879l-2.323-.27zm3.565 2.629c-3.421.629-7.274.7-10.12.719l-.215-1.89c.918 0 1.944 0 3.025-.02v-3.221h2.322v3.132c1.639-.072 3.295-.197 4.844-.414l.144 1.694zM453.268 206.711h2.377v-16.637h-2.377v16.637zm-8.103-5.816c2.522-.018 4.609-.144 6.95-.541l.252 1.928c-2.7.468-5.131.576-8.138.576h-1.495v-6.824h5.384v-2.647h-5.401v-1.89h7.832v6.409h-5.384v2.989zM477.37 190.074v16.637h-2.377v-9.525h-3.186v-1.909h3.186v-5.203h2.377zm-7.688 3.69c0 3.133 1.206 6.176 3.943 7.401l-1.404 1.89c-1.819-.881-3.026-2.502-3.709-4.501-.72 2.124-1.963 3.853-3.818 4.79l-1.476-1.909c2.808-1.296 4.07-4.519 4.07-7.671v-2.394h2.394v2.394zM482.982 200.913h3.259v-3.673h-3.259v3.673zm10.948-10.839v16.637h-2.377v-8.895h-2.971v4.988h-7.958v-11.416h2.358v3.998h3.259v-3.998h2.341v4.519h2.971v-5.833h2.377z" mask="url(#prefix__b)"/>
            <path fill="#E6E8EB" d="M437.401 118.112L437.401 149.452 475.234 149.452 475.234 117.822z" mask="url(#prefix__b)"/>
            <path fill="#000" d="M437.683 149.17h37.27v-31.063l-37.27.286v30.777zm37.833.564H437.12v-31.902l38.397-.294v32.196z" mask="url(#prefix__b)"/>
            <path fill="#FFF" d="M476.334 118.343H436.16c-1.534 0-2.79-1.256-2.79-2.79v-6.154c0-1.535 1.255-2.79 2.79-2.79h40.175c1.534 0 2.79 1.255 2.79 2.79v6.154c0 1.534-1.256 2.79-2.79 2.79" mask="url(#prefix__b)"/>
            <path fill="#000" d="M476.334 106.608h-40.176c-1.534 0-2.789 1.256-2.789 2.79v6.155c0 1.534 1.255 2.79 2.789 2.79h40.176c1.534 0 2.79-1.256 2.79-2.79v-6.156c0-1.533-1.256-2.789-2.79-2.789m0 .564c1.227 0 2.225.998 2.225 2.225v6.156c0 1.227-.998 2.225-2.225 2.225h-40.176c-1.226 0-2.224-.998-2.224-2.225v-6.156c0-1.227.998-2.225 2.224-2.225h40.176" mask="url(#prefix__b)"/>
            <path fill="#FFF" d="M476.334 132.597H436.16c-1.534 0-2.79-1.256-2.79-2.79v-6.153c0-1.535 1.255-2.79 2.79-2.79h40.175c1.534 0 2.79 1.254 2.79 2.79v6.154c0 1.534-1.256 2.79-2.79 2.79" mask="url(#prefix__b)"/>
            <path fill="#000" d="M476.334 120.864h-40.176c-1.534 0-2.789 1.254-2.789 2.79v6.153c0 1.536 1.255 2.79 2.789 2.79h40.176c1.534 0 2.79-1.254 2.79-2.79v-6.154c0-1.535-1.256-2.789-2.79-2.789m0 .564c1.227 0 2.225.998 2.225 2.225v6.154c0 1.227-.998 2.225-2.225 2.225h-40.176c-1.226 0-2.224-.998-2.224-2.225v-6.154c0-1.227.998-2.225 2.224-2.225h40.176" mask="url(#prefix__b)"/>
            <path fill="#FFF" d="M476.334 146.772H436.16c-1.534 0-2.79-1.255-2.79-2.789v-6.155c0-1.535 1.255-2.789 2.79-2.789h40.175c1.534 0 2.79 1.254 2.79 2.79v6.154c0 1.534-1.256 2.79-2.79 2.79" mask="url(#prefix__b)"/>
            <path fill="#000" d="M476.334 135.038h-40.176c-1.534 0-2.789 1.256-2.789 2.79v6.155c0 1.534 1.255 2.789 2.789 2.789h40.176c1.534 0 2.79-1.255 2.79-2.79v-6.154c0-1.534-1.256-2.79-2.79-2.79m0 .564c1.227 0 2.225.998 2.225 2.226v6.155c0 1.227-.998 2.225-2.225 2.225h-40.176c-1.226 0-2.224-.998-2.224-2.225v-6.155c0-1.228.998-2.226 2.224-2.226h40.176" mask="url(#prefix__b)"/>
            <path fill="#0A51B7" d="M463.738 112.475c0 1.042-.845 1.888-1.887 1.888-1.043 0-1.888-.846-1.888-1.888 0-1.042.845-1.888 1.888-1.888 1.042 0 1.887.846 1.887 1.888" mask="url(#prefix__b)"/>
            <path fill="#000" d="M461.851 110.589c-1.042 0-1.888.844-1.888 1.887 0 1.043.846 1.887 1.888 1.887 1.042 0 1.887-.844 1.887-1.887 0-1.043-.845-1.887-1.887-1.887m0 .564c.73 0 1.323.593 1.323 1.323 0 .729-.594 1.323-1.323 1.323s-1.323-.594-1.323-1.323c0-.73.594-1.323 1.323-1.323" mask="url(#prefix__b)"/>
            <path fill="#0A51B7" d="M469.56 112.475c0 1.042-.845 1.888-1.888 1.888-1.042 0-1.887-.846-1.887-1.888 0-1.042.845-1.888 1.887-1.888 1.043 0 1.888.846 1.888 1.888" mask="url(#prefix__b)"/>
            <path fill="#000" d="M467.672 110.589c-1.042 0-1.887.844-1.887 1.887 0 1.043.845 1.887 1.887 1.887s1.888-.844 1.888-1.887c0-1.043-.846-1.887-1.888-1.887m0 .564c.73 0 1.323.593 1.323 1.323 0 .729-.594 1.323-1.323 1.323s-1.323-.594-1.323-1.323c0-.73.594-1.323 1.323-1.323" mask="url(#prefix__b)"/>
            <path fill="#0A51B7" d="M475.381 112.475c0 1.042-.845 1.888-1.888 1.888-1.042 0-1.887-.846-1.887-1.888 0-1.042.845-1.888 1.887-1.888 1.043 0 1.888.846 1.888 1.888" mask="url(#prefix__b)"/>
            <path fill="#000" d="M473.494 110.589c-1.042 0-1.888.844-1.888 1.887 0 1.043.846 1.887 1.888 1.887 1.042 0 1.887-.844 1.887-1.887 0-1.043-.845-1.887-1.887-1.887m0 .564c.73 0 1.323.593 1.323 1.323 0 .729-.594 1.323-1.323 1.323s-1.323-.594-1.323-1.323c0-.73.594-1.323 1.323-1.323" mask="url(#prefix__b)"/>
            <path fill="#0A51B7" d="M463.738 126.73c0 1.042-.845 1.888-1.887 1.888-1.043 0-1.888-.846-1.888-1.888 0-1.042.845-1.888 1.888-1.888 1.042 0 1.887.846 1.887 1.888" mask="url(#prefix__b)"/>
            <path fill="#000" d="M461.851 124.843c-1.042 0-1.888.846-1.888 1.888 0 1.042.846 1.887 1.888 1.887 1.042 0 1.887-.845 1.887-1.887s-.845-1.888-1.887-1.888m0 .564c.73 0 1.323.594 1.323 1.324 0 .729-.594 1.323-1.323 1.323s-1.323-.594-1.323-1.323c0-.73.594-1.324 1.323-1.324" mask="url(#prefix__b)"/>
            <path fill="#0A51B7" d="M469.56 126.73c0 1.042-.845 1.888-1.888 1.888-1.042 0-1.887-.846-1.887-1.888 0-1.042.845-1.888 1.887-1.888 1.043 0 1.888.846 1.888 1.888" mask="url(#prefix__b)"/>
            <path fill="#000" d="M467.672 124.843c-1.042 0-1.887.846-1.887 1.888 0 1.042.845 1.887 1.887 1.887s1.888-.845 1.888-1.887-.846-1.888-1.888-1.888m0 .564c.73 0 1.323.594 1.323 1.324 0 .729-.594 1.323-1.323 1.323s-1.323-.594-1.323-1.323c0-.73.594-1.324 1.323-1.324" mask="url(#prefix__b)"/>
            <path fill="#0A51B7" d="M475.381 126.73c0 1.042-.845 1.888-1.888 1.888-1.042 0-1.887-.846-1.887-1.888 0-1.042.845-1.888 1.887-1.888 1.043 0 1.888.846 1.888 1.888" mask="url(#prefix__b)"/>
            <path fill="#000" d="M473.494 124.843c-1.042 0-1.888.846-1.888 1.888 0 1.042.846 1.887 1.888 1.887 1.042 0 1.887-.845 1.887-1.887s-.845-1.888-1.887-1.888m0 .564c.73 0 1.323.594 1.323 1.324 0 .729-.594 1.323-1.323 1.323s-1.323-.594-1.323-1.323c0-.73.594-1.324 1.323-1.324" mask="url(#prefix__b)"/>
            <path fill="#0A51B7" d="M463.738 140.905c0 1.043-.845 1.888-1.887 1.888-1.043 0-1.888-.845-1.888-1.888 0-1.042.845-1.887 1.888-1.887 1.042 0 1.887.845 1.887 1.887" mask="url(#prefix__b)"/>
            <path fill="#000" d="M461.851 139.018c-1.042 0-1.888.845-1.888 1.887 0 1.043.846 1.887 1.888 1.887 1.042 0 1.887-.844 1.887-1.887 0-1.042-.845-1.887-1.887-1.887m0 .564c.73 0 1.323.593 1.323 1.323s-.594 1.323-1.323 1.323-1.323-.594-1.323-1.323c0-.73.594-1.323 1.323-1.323" mask="url(#prefix__b)"/>
            <path fill="#0A51B7" d="M469.56 140.905c0 1.043-.845 1.888-1.888 1.888-1.042 0-1.887-.845-1.887-1.888 0-1.042.845-1.887 1.887-1.887 1.043 0 1.888.845 1.888 1.887" mask="url(#prefix__b)"/>
            <path fill="#000" d="M467.672 139.018c-1.042 0-1.887.845-1.887 1.887 0 1.043.845 1.887 1.887 1.887s1.888-.844 1.888-1.887c0-1.042-.846-1.887-1.888-1.887m0 .564c.73 0 1.323.593 1.323 1.323s-.594 1.323-1.323 1.323-1.323-.594-1.323-1.323c0-.73.594-1.323 1.323-1.323" mask="url(#prefix__b)"/>
            <path fill="#0A51B7" d="M475.381 140.905c0 1.043-.845 1.888-1.888 1.888-1.042 0-1.887-.845-1.887-1.888 0-1.042.845-1.887 1.887-1.887 1.043 0 1.888.845 1.888 1.887" mask="url(#prefix__b)"/>
            <path fill="#000" d="M473.494 139.018c-1.042 0-1.888.845-1.888 1.887 0 1.043.846 1.887 1.888 1.887 1.042 0 1.887-.844 1.887-1.887 0-1.042-.845-1.887-1.887-1.887m0 .564c.73 0 1.323.593 1.323 1.323s-.594 1.323-1.323 1.323-1.323-.594-1.323-1.323c0-.73.594-1.323 1.323-1.323" mask="url(#prefix__b)"/>
            <path fill="#FFF" d="M438.205 109.378L438.205 115.573" mask="url(#prefix__b)"/>
            <path fill="#000" d="M437.923 115.573L438.487 115.573 438.487 109.378 437.923 109.378z" mask="url(#prefix__b)"/>
            <path fill="#FFF" d="M441.406 109.378L441.406 115.573" mask="url(#prefix__b)"/>
            <path fill="#000" d="M441.124 115.573L441.688 115.573 441.688 109.378 441.124 109.378z" mask="url(#prefix__b)"/>
            <path fill="#FFF" d="M444.607 109.378L444.607 115.573" mask="url(#prefix__b)"/>
            <path fill="#000" d="M444.325 115.573L444.889 115.573 444.889 109.378 444.325 109.378z" mask="url(#prefix__b)"/>
            <path fill="#FFF" d="M447.808 109.378L447.808 115.573" mask="url(#prefix__b)"/>
            <path fill="#000" d="M447.526 115.573L448.09 115.573 448.09 109.378 447.526 109.378z" mask="url(#prefix__b)"/>
            <path fill="#FFF" d="M451.009 109.378L451.009 115.573" mask="url(#prefix__b)"/>
            <path fill="#000" d="M450.728 115.573L451.292 115.573 451.292 109.378 450.728 109.378z" mask="url(#prefix__b)"/>
            <path fill="#FFF" d="M454.21 109.378L454.21 115.573" mask="url(#prefix__b)"/>
            <path fill="#000" d="M453.929 115.573L454.493 115.573 454.493 109.378 453.929 109.378z" mask="url(#prefix__b)"/>
            <path fill="#FFF" d="M439.805 109.378L439.805 115.573" mask="url(#prefix__b)"/>
            <path fill="#000" d="M439.523 115.573L440.087 115.573 440.087 109.378 439.523 109.378z" mask="url(#prefix__b)"/>
            <path fill="#FFF" d="M443.006 109.378L443.006 115.573" mask="url(#prefix__b)"/>
            <path fill="#000" d="M442.725 115.573L443.289 115.573 443.289 109.378 442.725 109.378z" mask="url(#prefix__b)"/>
            <path fill="#FFF" d="M446.207 109.378L446.207 115.573" mask="url(#prefix__b)"/>
            <path fill="#000" d="M445.926 115.573L446.49 115.573 446.49 109.378 445.926 109.378z" mask="url(#prefix__b)"/>
            <path fill="#FFF" d="M449.409 109.378L449.409 115.573" mask="url(#prefix__b)"/>
            <path fill="#000" d="M449.127 115.573L449.691 115.573 449.691 109.378 449.127 109.378z" mask="url(#prefix__b)"/>
            <path fill="#FFF" d="M452.61 109.378L452.61 115.573" mask="url(#prefix__b)"/>
            <path fill="#000" d="M452.328 115.573L452.892 115.573 452.892 109.378 452.328 109.378z" mask="url(#prefix__b)"/>
            <path fill="#FFF" d="M438.205 123.633L438.205 129.828" mask="url(#prefix__b)"/>
            <path fill="#000" d="M437.923 129.828L438.487 129.828 438.487 123.633 437.923 123.633z" mask="url(#prefix__b)"/>
            <path fill="#FFF" d="M441.406 123.633L441.406 129.828" mask="url(#prefix__b)"/>
            <path fill="#000" d="M441.124 129.828L441.688 129.828 441.688 123.633 441.124 123.633z" mask="url(#prefix__b)"/>
            <path fill="#FFF" d="M444.607 123.633L444.607 129.828" mask="url(#prefix__b)"/>
            <path fill="#000" d="M444.325 129.828L444.889 129.828 444.889 123.633 444.325 123.633z" mask="url(#prefix__b)"/>
            <path fill="#FFF" d="M447.808 123.633L447.808 129.828" mask="url(#prefix__b)"/>
            <path fill="#000" d="M447.526 129.828L448.09 129.828 448.09 123.633 447.526 123.633z" mask="url(#prefix__b)"/>
            <path fill="#FFF" d="M451.009 123.633L451.009 129.828" mask="url(#prefix__b)"/>
            <path fill="#000" d="M450.728 129.828L451.292 129.828 451.292 123.633 450.728 123.633z" mask="url(#prefix__b)"/>
            <path fill="#FFF" d="M454.21 123.633L454.21 129.828" mask="url(#prefix__b)"/>
            <path fill="#000" d="M453.929 129.828L454.493 129.828 454.493 123.633 453.929 123.633z" mask="url(#prefix__b)"/>
            <path fill="#FFF" d="M439.805 123.633L439.805 129.828" mask="url(#prefix__b)"/>
            <path fill="#000" d="M439.523 129.828L440.087 129.828 440.087 123.633 439.523 123.633z" mask="url(#prefix__b)"/>
            <path fill="#FFF" d="M443.006 123.633L443.006 129.828" mask="url(#prefix__b)"/>
            <path fill="#000" d="M442.725 129.828L443.289 129.828 443.289 123.633 442.725 123.633z" mask="url(#prefix__b)"/>
            <path fill="#FFF" d="M446.207 123.633L446.207 129.828" mask="url(#prefix__b)"/>
            <path fill="#000" d="M445.926 129.828L446.49 129.828 446.49 123.633 445.926 123.633z" mask="url(#prefix__b)"/>
            <path fill="#FFF" d="M449.409 123.633L449.409 129.828" mask="url(#prefix__b)"/>
            <path fill="#000" d="M449.127 129.828L449.691 129.828 449.691 123.633 449.127 123.633z" mask="url(#prefix__b)"/>
            <path fill="#FFF" d="M452.61 123.633L452.61 129.828" mask="url(#prefix__b)"/>
            <path fill="#000" d="M452.328 129.828L452.892 129.828 452.892 123.633 452.328 123.633z" mask="url(#prefix__b)"/>
            <path fill="#FFF" d="M438.205 137.887L438.205 144.083" mask="url(#prefix__b)"/>
            <path fill="#000" d="M437.923 144.083L438.487 144.083 438.487 137.888 437.923 137.888z" mask="url(#prefix__b)"/>
            <path fill="#FFF" d="M441.406 137.887L441.406 144.083" mask="url(#prefix__b)"/>
            <path fill="#000" d="M441.124 144.083L441.688 144.083 441.688 137.888 441.124 137.888z" mask="url(#prefix__b)"/>
            <path fill="#FFF" d="M444.607 137.887L444.607 144.083" mask="url(#prefix__b)"/>
            <path fill="#000" d="M444.325 144.083L444.889 144.083 444.889 137.888 444.325 137.888z" mask="url(#prefix__b)"/>
            <path fill="#FFF" d="M447.808 137.887L447.808 144.083" mask="url(#prefix__b)"/>
            <path fill="#000" d="M447.526 144.083L448.09 144.083 448.09 137.888 447.526 137.888z" mask="url(#prefix__b)"/>
            <path fill="#FFF" d="M451.009 137.887L451.009 144.083" mask="url(#prefix__b)"/>
            <path fill="#000" d="M450.728 144.083L451.292 144.083 451.292 137.888 450.728 137.888z" mask="url(#prefix__b)"/>
            <path fill="#FFF" d="M454.21 137.887L454.21 144.083" mask="url(#prefix__b)"/>
            <path fill="#000" d="M453.929 144.083L454.493 144.083 454.493 137.888 453.929 137.888z" mask="url(#prefix__b)"/>
            <path fill="#FFF" d="M439.805 137.887L439.805 144.083" mask="url(#prefix__b)"/>
            <path fill="#000" d="M439.523 144.083L440.087 144.083 440.087 137.888 439.523 137.888z" mask="url(#prefix__b)"/>
            <path fill="#FFF" d="M443.006 137.887L443.006 144.083" mask="url(#prefix__b)"/>
            <path fill="#000" d="M442.725 144.083L443.289 144.083 443.289 137.888 442.725 137.888z" mask="url(#prefix__b)"/>
            <path fill="#FFF" d="M446.207 137.887L446.207 144.083" mask="url(#prefix__b)"/>
            <path fill="#000" d="M445.926 144.083L446.49 144.083 446.49 137.888 445.926 137.888z" mask="url(#prefix__b)"/>
            <path fill="#FFF" d="M449.409 137.887L449.409 144.083" mask="url(#prefix__b)"/>
            <path fill="#000" d="M449.127 144.083L449.691 144.083 449.691 137.888 449.127 137.888z" mask="url(#prefix__b)"/>
            <path fill="#FFF" d="M452.61 137.887L452.61 144.083" mask="url(#prefix__b)"/>
            <path fill="#000" d="M452.328 144.083L452.892 144.083 452.892 137.888 452.328 137.888z" mask="url(#prefix__b)"/>
            <path fill="#E6E8EB" d="M471.043 138.022s.186-1.193 1.877-2.007c1.69-.813 5.93-1.964 11.108-1.249 5.18.715 6.54 2 6.54 2l.624 1.377-.002 15.146s-.685 1.814-4.157 2.565c-3.474.751-10.39 1.002-13.707-.53 0 0-2.097-.878-2.284-2.192v-15.11z" mask="url(#prefix__b)"/>
            <path fill="#000" d="M471.325 153.118c.143.334 1.614 3.208 9.786 3.208 8.157 0 9.648-2.864 9.797-3.209V137.93c-.105-.295-1.353-3.106-10.094-3.106-9.134 0-9.487 3.12-9.49 3.152v15.142zm9.786 3.772c-9.117 0-10.292-3.489-10.338-3.637l-.012-.083v-15.212c.007-.165.297-3.698 10.053-3.698 9.712 0 10.619 3.419 10.653 3.564l.007.064-.014 15.366c-.046.148-1.233 3.636-10.35 3.636z" mask="url(#prefix__b)"/>
            <path fill="#000" d="M480.897 146.83c-8.857 0-10.074-3.262-10.122-3.402l.535-.182-.267.09.266-.093c.011.03 1.205 3.023 9.59 3.023l.345-.002c8.679-.082 9.668-2.977 9.676-3.006l.543.154c-.037.136-1.026 3.329-10.213 3.416l-.353.002M480.897 151.788c-8.857 0-10.074-3.263-10.122-3.403l.535-.182-.267.09.266-.093c.011.03 1.248 3.112 9.935 3.022 8.679-.083 9.668-2.978 9.676-3.007l.543.154c-.037.136-1.026 3.329-10.213 3.417l-.353.002M480.897 141.873c-8.857 0-10.074-3.263-10.122-3.403l.535-.182-.267.09.266-.093c.011.03 1.248 3.104 9.935 3.022 8.679-.083 9.668-2.978 9.676-3.007l.543.154c-.037.136-1.026 3.329-10.213 3.417l-.353.002" mask="url(#prefix__b)"/>
            <path fill="#FFF" d="M113.089 149.829c0 31.125-25.232 56.357-56.357 56.357S.375 180.954.375 149.829s25.232-56.356 56.357-56.356 56.357 25.23 56.357 56.356" mask="url(#prefix__b)"/>
            <path fill="#C5C8CF" d="M56.732 93.847C25.862 93.847.75 118.962.75 149.828c0 30.87 25.113 55.983 55.982 55.983s55.982-25.113 55.982-55.983c0-30.868-25.113-55.98-55.982-55.98m0 112.713C25.45 206.561 0 181.112 0 149.828c0-31.282 25.45-56.73 56.732-56.73s56.732 25.448 56.732 56.73c0 31.284-25.45 56.733-56.732 56.733" mask="url(#prefix__b)"/>
            <path fill="#E6E8EB" d="M56.83 135.316L56.83 143.78 44.487 143.78 44.487 135.316 39.126 135.316 39.126 160.016 43.886 160.016 44.487 160.016 56.83 160.016 67.213 160.016 74.338 160.016 74.338 138.513 68.469 135.316 68.469 138.466 62.675 135.316 62.675 138.466z" mask="url(#prefix__b)"/>
            <path fill="#000" d="M39.516 159.627H73.95v-20.882l-5.09-2.773v3.15l-5.795-3.15v3.147l-5.844-3.15v8.2H44.098v-8.463h-4.582v23.92zm35.212.779h-35.99v-25.48h6.14v8.465H56.44v-8.727l5.845 3.15v-3.153l5.794 3.15v-3.15l6.65 3.62v22.125z" mask="url(#prefix__b)"/>
            <path fill="#FFF" d="M39.127 160.016L44.472 160.016 44.472 135.316 39.127 135.316z" mask="url(#prefix__b)"/>
            <path fill="#000" d="M39.516 159.627h4.566v-23.921h-4.566v23.921zm-.78.779h6.125v-25.479h-6.125v25.479z" mask="url(#prefix__b)"/>
            <path fill="#FFF" d="M39.127 138.231L44.315 138.231" mask="url(#prefix__b)"/>
            <path fill="#000" d="M39.127 138.621L44.315 138.621 44.315 137.842 39.127 137.842z" mask="url(#prefix__b)"/>
            <path fill="#FFF" d="M44.471 160.016L67.406 160.016 67.406 143.78 44.471 143.78z" mask="url(#prefix__b)"/>
            <path fill="#000" d="M44.86 159.628h22.158v-15.459H44.86v15.459zm-.777.777h23.711v-17.014H44.083v17.014z" mask="url(#prefix__b)"/>
            <path fill="#E6E8EB" d="M50.163 153.748h-2.346c-.374 0-.677-.303-.677-.676v-2.346c0-.374.303-.677.677-.677h2.346c.374 0 .676.303.676.677v2.346c0 .373-.302.676-.676.676" mask="url(#prefix__b)"/>
            <path fill="#000" d="M47.816 150.438c-.158 0-.287.13-.287.287v2.347c0 .158.13.286.287.286h2.346c.158 0 .287-.128.287-.286v-2.347c0-.158-.129-.287-.287-.287h-2.346zm2.346 3.7h-2.346c-.588 0-1.066-.479-1.066-1.066v-2.347c0-.588.478-1.066 1.066-1.066h2.346c.588 0 1.066.478 1.066 1.066v2.347c0 .587-.478 1.065-1.066 1.065z" mask="url(#prefix__b)"/>
            <path fill="#E6E8EB" d="M57.005 153.748h-2.347c-.373 0-.676-.303-.676-.676v-2.346c0-.374.303-.677.676-.677h2.347c.374 0 .676.303.676.677v2.346c0 .373-.302.676-.676.676" mask="url(#prefix__b)"/>
            <path fill="#000" d="M54.659 150.438c-.158 0-.287.13-.287.287v2.347c0 .158.129.286.287.286h2.347c.158 0 .286-.128.286-.286v-2.347c0-.158-.128-.287-.286-.287h-2.347zm2.347 3.7h-2.347c-.588 0-1.066-.479-1.066-1.066v-2.347c0-.588.478-1.066 1.066-1.066h2.347c.588 0 1.066.478 1.066 1.066v2.347c0 .587-.478 1.065-1.066 1.065z" mask="url(#prefix__b)"/>
            <path fill="#E6E8EB" d="M63.848 153.748h-2.346c-.374 0-.676-.303-.676-.676v-2.346c0-.374.302-.677.676-.677h2.346c.374 0 .677.303.677.677v2.346c0 .373-.303.676-.677.676" mask="url(#prefix__b)"/>
            <path fill="#000" d="M61.502 150.438c-.159 0-.288.13-.288.287v2.347c0 .158.13.286.288.286h2.345c.158 0 .288-.128.288-.286v-2.347c0-.158-.13-.287-.288-.287h-2.346zm2.345 3.7h-2.346c-.587 0-1.066-.479-1.066-1.066v-2.347c0-.588.478-1.066 1.066-1.066h2.346c.589 0 1.068.478 1.068 1.066v2.347c0 .587-.48 1.065-1.068 1.065z" mask="url(#prefix__b)"/>
            <path fill="#FFF" d="M44.472 146.759L67.213 146.759" mask="url(#prefix__b)"/>
            <path fill="#000" d="M44.472 147.148L67.213 147.148 67.213 146.369 44.472 146.369zM80.232 128.846L79.453 128.846 79.453 125.523 76.13 125.523 76.13 124.743 80.232 124.743zM34.052 128.846L33.273 128.846 33.273 124.743 37.375 124.743 37.375 125.523 34.052 125.523zM37.375 170.582L33.273 170.582 33.273 166.479 34.052 166.479 34.052 169.803 37.375 169.803zM80.232 170.582L76.13 170.582 76.13 169.803 79.453 169.803 79.453 166.479 80.232 166.479z" mask="url(#prefix__b)"/>
            <path fill="#0A51B7" d="M39.127 138.911L44.472 138.911 44.472 135.316 39.127 135.316z" mask="url(#prefix__b)"/>
            <path fill="#000" d="M39.516 138.521h4.566v-2.815h-4.566v2.815zm-.78.78h6.125v-4.374h-6.125v4.374z" mask="url(#prefix__b)"/>
            <path fill="#FFF" d="M276.636 149.946c0 31.125-25.232 56.357-56.357 56.357s-56.357-25.232-56.357-56.357S189.154 93.59 220.28 93.59s56.357 25.232 56.357 56.357" mask="url(#prefix__b)"/>
            <path fill="#C5C8CF" d="M220.28 93.964c-30.87 0-55.983 25.113-55.983 55.982 0 30.87 25.113 55.983 55.982 55.983 30.87 0 55.982-25.113 55.982-55.983 0-30.87-25.113-55.982-55.982-55.982m0 112.715c-31.282 0-56.732-25.45-56.732-56.733 0-31.282 25.45-56.732 56.732-56.732s56.732 25.45 56.732 56.732c0 31.283-25.45 56.733-56.732 56.733" mask="url(#prefix__b)"/>
            <path fill="#007CF7" d="M193.671 158.895L189.332 155.428 189.332 144.205 193.671 140.737z" mask="url(#prefix__b)"/>
            <path fill="#6FB6FB" d="M201.387 158.895L205.726 155.428 205.726 144.205 201.387 140.737z" mask="url(#prefix__b)"/>
            <path fill="#0065C7" d="M201.387 140.738L197.529 143.271 201.387 145.867zM193.671 140.738L197.529 143.271 193.671 145.867zM201.387 153.766L197.529 156.3 201.387 158.895zM193.671 153.766L197.529 156.3 193.671 158.895z" mask="url(#prefix__b)"/>
            <path fill="#273A5B" d="M233.746 153.841L231.571 147.189 229.622 147.189 227.446 153.843 225.486 147.189 223.438 147.189 226.466 156.578 228.377 156.578 230.55 149.828 232.741 156.578 234.671 156.578 237.699 147.189 235.688 147.189zM250.289 147.89c-.625-.664-1.524-1-2.674-1-.602 0-1.191.155-1.748.463-.464.255-.833.57-1.1.935v-1.1h-1.885v9.39h1.959v-5.18c0-.738.223-1.382.663-1.912.44-.53.973-.788 1.626-.788 1.404 0 2.103.695 2.138 2.121v5.758h1.959v-5.87c0-1.208-.315-2.156-.938-2.817M238.924 156.578L240.881 156.578 240.881 146.898 238.924 146.898zM238.836 145.112L240.969 145.112 240.969 142.98 238.836 142.98z" mask="url(#prefix__b)"/>
            <path fill="#273A5B" d="M225.682 142.97L213.207 142.97 213.207 144.863 218.46 144.863 218.46 156.663 220.429 156.663 220.429 144.863 225.682 144.863z" mask="url(#prefix__b)"/>
            <path fill="#000" d="M553.044 248.663h1.175v-8.119h-1.175v8.119zm-2.123-4.485h-1.524v-1.02h1.524v-2.411h1.163v7.604h-1.163v-4.173zm3.598 5.984v1.008h-7.46v-3.466h1.248v2.458h6.212zm-4.833-3.262c-.912-.42-1.56-1.164-1.919-2.075-.396 1.008-1.08 1.883-2.087 2.351l-.684-.936c1.44-.695 2.159-2.146 2.159-3.441v-1.512h1.199v1.512c0 1.27.66 2.542 2.003 3.166l-.671.935zM565.09 240.52v10.865h-1.246v-6.297h-2.315v-1.006h2.315v-3.563h1.247zm-5.072 2.686c0 2.014 1.032 3.982 2.686 4.75l-.731.995c-1.224-.613-2.1-1.799-2.567-3.25-.48 1.535-1.367 2.794-2.602 3.43l-.78-.984c1.69-.827 2.747-2.914 2.747-4.94v-1.789h1.247v1.788zM578.555 251.361h1.187v-10.83h-1.187v10.83zm-2.206-10.59h1.163v10.087h-1.163v-5.254h-2.135v-1.007h2.135v-3.826zm-4.271 7.065c1.344-.013 2.268-.073 3.335-.3l.108 1.019c-1.223.24-2.279.3-3.934.3h-.732v-7.04h4.102v1.007h-2.879v5.014zM589.199 251.397h1.247v-10.866h-1.247v10.866zm-6.116-6.248c0 1.703.659 2.723 1.595 2.723.947 0 1.607-1.02 1.607-2.723 0-1.679-.66-2.699-1.607-2.699-.936 0-1.595 1.02-1.595 2.699zm4.39 0c0 2.351-1.176 3.825-2.795 3.825-1.608 0-2.782-1.474-2.782-3.825 0-2.327 1.174-3.814 2.782-3.814 1.619 0 2.795 1.487 2.795 3.814zM601.57 240.52v10.865h-1.247v-5.865h-2.075v-1.02h2.075v-3.98h1.247zm-7.279 7.327c1.726-.012 2.962-.072 4.377-.31l.108.994c-1.548.275-2.902.324-4.869.324h-.852v-7.376h5.025v1.02h-3.789v2.026h3.345v.983h-3.345v2.34zM555.023 40.61v1.02h-1.44v3.681h-1.247v-8.13h1.247v3.43h1.44zm-7.209 6.19h6.117v1.007h-7.364v-3.215h1.247V46.8zm1.752-5.11c.216-1.164.251-2.016.264-2.687h-4.235v-1.006h5.447v.623c0 .732 0 1.8-.264 3.203l-1.212-.133zm2.194 1.57c-2.255.397-4.808.457-6.692.457l-.131-1.007c.648 0 1.39 0 2.158-.024v-2.219h1.223v2.182c1.128-.047 2.292-.119 3.359-.287l.083.898zM563.784 48.034h1.247V37.157h-1.247v10.877zm-5.829-3.598c1.715-.011 3.214-.095 4.93-.371l.132 1.008c-1.86.322-3.479.383-5.386.383h-.923v-4.293h3.777v-2.016h-3.801v-1.008h5.049v4.018h-3.778v2.279zM578.556 47.999h1.187v-10.83h-1.187v10.83zm-2.206-10.59h1.163v10.086h-1.163v-5.254h-2.135v-1.006h2.135v-3.826zm-4.271 7.064c1.344-.013 2.268-.072 3.335-.3l.107 1.019c-1.222.24-2.278.301-3.933.301h-.732v-7.041h4.102v1.008h-2.879v5.013zM589.199 48.034h1.247V37.169h-1.247v10.865zm-6.116-6.248c0 1.703.659 2.723 1.595 2.723.947 0 1.607-1.02 1.607-2.723 0-1.68-.66-2.699-1.607-2.699-.936 0-1.595 1.019-1.595 2.699zm4.39 0c0 2.352-1.176 3.826-2.795 3.826-1.608 0-2.782-1.474-2.782-3.826 0-2.326 1.174-3.814 2.782-3.814 1.619 0 2.795 1.488 2.795 3.814zM601.57 37.157v10.865h-1.247v-5.865h-2.075v-1.02h2.075v-3.98h1.247zm-7.279 7.328c1.726-.012 2.962-.072 4.377-.312l.108.996c-1.548.275-2.902.324-4.869.324h-.852v-7.377h5.025v1.02h-3.789v2.027h3.345v.982h-3.345v2.34zM625.192 300.022h-2.195v-.994h2.195v-1.813h1.235v5.567h-1.235v-2.76zm1.606 6.934v.97H619.4v-2.806h5.805v-.864h-5.829v-.959h7.052v2.735h-5.804v.924h6.175zm-3.597-4.354c-1.176-.396-2.039-1.199-2.494-2.207-.48 1.127-1.38 2.002-2.652 2.445l-.635-.97c1.691-.55 2.638-1.907 2.638-3.395v-.91h1.236v.91c0 1.367.935 2.64 2.554 3.166l-.647.961zM636.16 308.083h1.247v-10.867h-1.247v10.867zm-5.864-3.574h2.746v-2.65h-2.746v2.65zm0-6.393v2.758h2.746v-2.758h1.235v7.389h-5.205v-7.389h1.224zM639.56 308.755c.816-.336 1.296-.936 1.309-1.645-.05.014-.085.014-.134.014-.49 0-.923-.312-.923-.89 0-.538.433-.885.96-.885.671 0 1.066.562 1.066 1.486 0 1.26-.73 2.23-1.966 2.699l-.311-.78zM655.803 301.007h-1.535v2.746h-1.236v-6.537h1.236v2.77h1.535v1.02zm-8.66 3.273h7.125v3.78h-1.236v-2.783h-5.888v-.997zm4.402-.96c-1.212-.395-2.075-1.221-2.543-2.252-.48 1.138-1.38 2.025-2.65 2.47l-.648-.972c1.715-.577 2.662-1.955 2.662-3.442v-.191h-2.302v-1.008h5.817v1.008h-2.267v.19c0 1.368.912 2.698 2.567 3.25l-.636.948zM660.006 306.93h4.594v-1.199h-4.594v1.199zm4.594-3.38h1.223v4.377h-7.04v-4.377h1.223v1.222h4.594v-1.222zm-3.143-3.311c0-.924-.695-1.512-1.631-1.512-.959 0-1.642.588-1.642 1.512 0 .912.683 1.524 1.642 1.524.936 0 1.631-.612 1.631-1.524zm4.366-3.01v5.805h-1.235v-2.303h-2.003c-.216 1.223-1.319 2.051-2.759 2.051-1.631 0-2.83-1.045-2.83-2.543 0-1.488 1.199-2.531 2.83-2.531 1.428 0 2.519.805 2.759 2.015h2.003v-2.494h1.235zM677.967 302.518h-1.691v5.541h-1.236v-10.83h1.236v4.27h1.69v1.02zm-6.285-2.148c0 1.68 1.067 3.6 2.71 4.378l-.683.971c-1.212-.576-2.135-1.775-2.627-3.142-.48 1.511-1.44 2.806-2.686 3.418l-.707-.983c1.654-.79 2.757-2.842 2.757-4.642v-1.043h-2.362v-1.02h5.889v1.02h-2.291v1.043zM690.016 308.071h1.235v-10.842h-1.235v10.842zm-5.805-8.107c0 .767.672 1.257 1.607 1.257.948 0 1.608-.49 1.608-1.257 0-.756-.66-1.248-1.608-1.248-.935 0-1.607.492-1.607 1.248zm-1.188 0c0-1.332 1.176-2.268 2.795-2.268s2.795.936 2.795 2.268c0 1.341-1.176 2.277-2.795 2.277s-2.795-.936-2.795-2.277zm6.37 3.597c-.948.192-1.944.299-2.903.371v3.803h-1.235v-3.73c-1.02.035-1.98.049-2.818.049l-.145-1.02c1.955 0 4.678-.037 7.017-.385l.084.912zM701.008 308.046h1.248v-10.83h-1.248v10.83zm-3.586-7.375c0 1.703 1.056 3.467 2.734 4.197l-.659.959c-1.235-.539-2.183-1.654-2.675-3.01-.479 1.44-1.426 2.615-2.686 3.192l-.684-.95c1.703-.767 2.735-2.601 2.735-4.388v-.623h-2.399v-.996h2.399v-1.608h1.235v1.608h2.35v.996h-2.35v.623zM715.72 305.348h1.175v-8.119h-1.175v8.119zm-2.123-4.486h-1.524v-1.019h1.524v-2.411h1.163v7.604h-1.163v-4.174zm3.597 5.984v1.008h-7.46v-3.465h1.248v2.457h6.212zm-4.833-3.261c-.911-.42-1.559-1.164-1.919-2.074-.395 1.007-1.079 1.882-2.087 2.349l-.683-.935c1.439-.696 2.159-2.147 2.159-3.442v-1.512h1.199v1.512c0 1.272.659 2.543 2.003 3.166l-.672.936zM726.46 303.669h1.235v-6.428h-1.235v6.428zm.071 2.291c0-.707-.899-1.104-2.434-1.104-1.535 0-2.435.397-2.435 1.104 0 .719.9 1.103 2.435 1.103 1.535 0 2.434-.384 2.434-1.103zm1.236 0c0 1.306-1.404 2.074-3.67 2.074-2.267 0-3.67-.768-3.67-2.074 0-1.295 1.403-2.063 3.67-2.063 2.266 0 3.67.768 3.67 2.063zm-3.023-2.891c-1.235-.42-2.146-1.26-2.626-2.326-.492 1.199-1.403 2.146-2.698 2.613l-.624-.982c1.703-.6 2.662-2.1 2.662-3.61v-1.056h1.26v1.056c0 1.452.959 2.793 2.626 3.334l-.6.971zM624.763 132.72H623.6v-6.105h1.163v2.58h1.14v-2.771h1.174v6.644h-1.174v-2.867h-1.14v2.52zm1.14 2.542c0-.67-.912-1.042-2.435-1.042-1.523 0-2.435.371-2.435 1.042 0 .66.912 1.031 2.435 1.031 1.523 0 2.435-.37 2.435-1.03zm1.235 0c0 1.236-1.416 1.98-3.67 1.98-2.255 0-3.671-.744-3.671-1.98 0-1.246 1.416-1.99 3.67-1.99 2.255 0 3.67.744 3.67 1.99zm-4.45-2.962c-.96-.371-1.631-1.092-2.04-1.955-.395.995-1.102 1.835-2.146 2.292l-.647-.948c1.45-.66 2.182-2.016 2.182-3.25v-1.367h1.2v1.367c0 1.198.708 2.386 2.11 2.938l-.66.923zM638.945 129.65v1.02h-1.535v3.717h-1.236V126.4h1.236v3.251h1.535zm-7.137 6.38h6.033v1.008h-7.268v-3.418h1.235v2.41zm2.903-3.334c-1.2-.42-2.075-1.283-2.555-2.339-.468 1.188-1.367 2.111-2.638 2.566l-.672-.959c1.74-.587 2.662-2.05 2.662-3.633v-1.26h1.248v1.271c0 1.44.935 2.807 2.58 3.371l-.625.983zM650.766 135.215c0-.672-.96-1.067-2.555-1.067-1.606 0-2.59.395-2.59 1.067 0 .684.984 1.079 2.59 1.079 1.596 0 2.555-.395 2.555-1.08zm-.348-4.63c.276-1.066.288-1.847.288-2.662h-6.212v-.995h7.435v.91c0 .864 0 1.764-.3 2.88l-1.211-.132zm1.583 4.63c0 1.26-1.487 2.027-3.79 2.027-2.34 0-3.813-.767-3.813-2.027 0-1.247 1.474-2.015 3.813-2.015 2.303 0 3.79.768 3.79 2.015zm1.128-3.85v.996h-9.762v-.996h3.837v-1.991h1.248v1.99h4.677zM662.13 129.135v-2.723h1.235v6.452h-1.235v-2.722h-1.92v-1.007h1.92zm.048 6.068c0-.708-.888-1.091-2.411-1.091-1.547 0-2.422.383-2.422 1.09 0 .708.875 1.092 2.422 1.092 1.523 0 2.41-.384 2.41-1.091zm1.235 0c0 1.295-1.391 2.05-3.646 2.05-2.267 0-3.658-.755-3.658-2.05 0-1.283 1.39-2.05 3.658-2.05 2.255 0 3.646.767 3.646 2.05zm-3.19-2.686c-1.2-.42-2.063-1.272-2.52-2.315-.478 1.187-1.39 2.147-2.674 2.603l-.635-.983c1.679-.601 2.65-2.04 2.65-3.527v-.156h-2.29v-.995h5.793v.995h-2.255v.144c0 1.355.923 2.699 2.542 3.262l-.611.972zM678.76 129.842v1.02h-1.438v3.68h-1.248v-8.13h1.248v3.43h1.439zm-7.207 6.188h6.116v1.008h-7.363v-3.214h1.247v2.206zm1.75-5.11c.217-1.162.253-2.014.265-2.685h-4.234v-1.007h5.446v.623c0 .732 0 1.8-.264 3.203l-1.212-.133zm2.196 1.572c-2.255.397-4.81.456-6.692.456l-.132-1.007c.648 0 1.39 0 2.158-.024v-2.22h1.224v2.184c1.127-.048 2.29-.12 3.358-.288l.084.899zM687.523 137.265h1.247v-10.878h-1.247v10.878zm-5.83-3.597c1.715-.012 3.214-.096 4.93-.372l.132 1.008c-1.859.323-3.479.383-5.386.383h-.923v-4.294h3.778v-2.014h-3.802v-1.008h5.05v4.017h-3.779v2.28zM701.899 137.265h1.247v-10.866h-1.247v10.866zm-3.67-8.179c0 1.991 1.103 3.982 2.806 4.75l-.72.983c-1.247-.588-2.195-1.787-2.686-3.25-.492 1.57-1.451 2.855-2.759 3.489l-.731-1.031c1.727-.779 2.854-2.854 2.854-4.941v-1.775h1.236v1.775zM714.125 132.72c-1.763-.36-3.286-1.487-3.994-2.975-.707 1.488-2.231 2.615-3.993 2.975l-.529-1.02c2.135-.395 3.874-2.063 3.874-3.777v-.816h1.308v.816c0 1.727 1.738 3.394 3.874 3.778l-.54 1.02zm-8.852 3.13h9.811v-1.02h-9.811v1.02zM724.302 132.912h1.175v-6.513h-1.175v6.513zm-2.087-2.843h-1.283v-.995h1.283v-2.494h1.151v6.236h-1.151v-2.747zm-2.723 6.058h4.785v-1.764h-4.785v1.764zm-1.223.983h7.208v-3.73h-7.208v3.73zm3.154-5.013c-1.236.227-2.267.263-3.945.263h-.708v-5.277h4.078v.996h-2.891v1.127h2.494v.947h-2.494v1.224c1.367-.012 2.278-.072 3.346-.264l.12.984z" mask="url(#prefix__b)"/>
            <path fill="#C5C8CF" d="M617.301 229.211L536.543 229.211 536.543 56.672 617.301 56.672 617.301 57.422 537.293 57.422 537.293 228.461 617.301 228.461z" mask="url(#prefix__b)"/>
            <path fill="#C5C8CF" d="M512.652 143.316L536.918 143.316 536.918 142.566 512.652 142.566z" mask="url(#prefix__b)"/>
            <path fill="#C5C8CF" d="M518.705 142.941L518.705 147.703 514.581 145.322 510.457 142.941 514.581 140.56 518.705 138.178z" mask="url(#prefix__b)"/>
            <path fill="#FFF" d="M730.015 56.731c0 31.126-25.231 56.357-56.356 56.357-31.126 0-56.358-25.23-56.358-56.357 0-31.125 25.232-56.356 56.358-56.356 31.125 0 56.356 25.231 56.356 56.356" mask="url(#prefix__b)"/>
            <path fill="#C5C8CF" d="M673.658.75c-30.869 0-55.982 25.113-55.982 55.98 0 30.87 25.113 55.984 55.982 55.984 30.868 0 55.981-25.113 55.981-55.983C729.64 25.863 704.526.75 673.66.75m0 112.714c-31.283 0-56.733-25.45-56.733-56.733C616.926 25.449 642.376 0 673.658 0s56.731 25.449 56.731 56.73c0 31.284-25.449 56.734-56.73 56.734" mask="url(#prefix__b)"/>
            <path fill="#E6E8EB" d="M656.018 46.143L656.018 72.659 688.027 72.659 688.027 45.897z" mask="url(#prefix__b)"/>
            <path fill="#000" d="M656.257 72.42h31.53V46.138l-31.53.243V72.42zm32.009.479h-32.488V45.906l32.488-.25V72.9z" mask="url(#prefix__b)"/>
            <path fill="#FFF" d="M688.958 46.338h-33.992c-1.298 0-2.361-1.062-2.361-2.36V38.77c0-1.298 1.063-2.361 2.361-2.361h33.992c1.298 0 2.36 1.063 2.36 2.36v5.208c0 1.298-1.062 2.36-2.36 2.36" mask="url(#prefix__b)"/>
            <path fill="#000" d="M688.958 36.41h-33.992c-1.298 0-2.361 1.062-2.361 2.36v5.207c0 1.299 1.063 2.361 2.361 2.361h33.992c1.298 0 2.36-1.062 2.36-2.361V38.77c0-1.298-1.062-2.36-2.36-2.36m0 .478c1.038 0 1.882.844 1.882 1.882v5.207c0 1.038-.844 1.883-1.882 1.883h-33.992c-1.038 0-1.882-.845-1.882-1.883V38.77c0-1.038.844-1.882 1.882-1.882h33.992" mask="url(#prefix__b)"/>
            <path fill="#FFF" d="M688.958 58.398h-33.992c-1.298 0-2.361-1.062-2.361-2.359v-5.208c0-1.298 1.063-2.36 2.361-2.36h33.992c1.298 0 2.36 1.062 2.36 2.36v5.208c0 1.297-1.062 2.36-2.36 2.36" mask="url(#prefix__b)"/>
            <path fill="#000" d="M688.958 48.471h-33.992c-1.298 0-2.361 1.063-2.361 2.36v5.206c0 1.3 1.063 2.361 2.361 2.361h33.992c1.298 0 2.36-1.062 2.36-2.36V50.83c0-1.298-1.062-2.36-2.36-2.36m0 .478c1.038 0 1.882.845 1.882 1.882v5.206c0 1.038-.844 1.883-1.882 1.883h-33.992c-1.038 0-1.882-.845-1.882-1.883v-5.206c0-1.038.844-1.883 1.882-1.883h33.992" mask="url(#prefix__b)"/>
            <path fill="#FFF" d="M688.958 70.391h-33.992c-1.298 0-2.361-1.062-2.361-2.359v-5.208c0-1.298 1.063-2.36 2.361-2.36h33.992c1.298 0 2.36 1.062 2.36 2.36v5.208c0 1.297-1.062 2.36-2.36 2.36" mask="url(#prefix__b)"/>
            <path fill="#000" d="M688.958 60.464h-33.992c-1.298 0-2.361 1.062-2.361 2.36v5.208c0 1.297 1.063 2.36 2.361 2.36h33.992c1.298 0 2.36-1.063 2.36-2.36v-5.208c0-1.298-1.062-2.36-2.36-2.36m0 .479c1.038 0 1.882.843 1.882 1.88v5.209c0 1.037-.844 1.882-1.882 1.882h-33.992c-1.038 0-1.882-.845-1.882-1.882v-5.208c0-1.038.844-1.881 1.882-1.881h33.992" mask="url(#prefix__b)"/>
            <path fill="#0A51B7" d="M678.3 41.374c0 .882-.714 1.597-1.596 1.597-.882 0-1.596-.715-1.596-1.597s.714-1.597 1.596-1.597c.882 0 1.597.715 1.597 1.597" mask="url(#prefix__b)"/>
            <path fill="#000" d="M676.704 39.777c-.882 0-1.597.715-1.597 1.597s.715 1.597 1.597 1.597 1.597-.715 1.597-1.597-.715-1.597-1.597-1.597m0 .478c.617 0 1.12.501 1.12 1.12 0 .616-.503 1.118-1.12 1.118-.617 0-1.119-.502-1.119-1.119 0-.618.502-1.119 1.12-1.119" mask="url(#prefix__b)"/>
            <path fill="#0A51B7" d="M683.227 41.374c0 .882-.715 1.597-1.598 1.597-.881 0-1.596-.715-1.596-1.597s.715-1.597 1.596-1.597c.883 0 1.598.715 1.598 1.597" mask="url(#prefix__b)"/>
            <path fill="#000" d="M681.629 39.777c-.882 0-1.597.715-1.597 1.597s.715 1.597 1.597 1.597c.883 0 1.598-.715 1.598-1.597s-.715-1.597-1.598-1.597m0 .478c.617 0 1.119.501 1.119 1.12 0 .616-.502 1.118-1.12 1.118-.616 0-1.118-.502-1.118-1.119 0-.618.502-1.119 1.119-1.119" mask="url(#prefix__b)"/>
            <path fill="#0A51B7" d="M688.151 41.374c0 .882-.715 1.597-1.597 1.597s-1.596-.715-1.596-1.597.714-1.597 1.596-1.597c.882 0 1.597.715 1.597 1.597" mask="url(#prefix__b)"/>
            <path fill="#000" d="M686.555 39.777c-.882 0-1.597.715-1.597 1.597s.715 1.597 1.597 1.597 1.597-.715 1.597-1.597-.715-1.597-1.597-1.597m0 .478c.617 0 1.119.501 1.119 1.12 0 .616-.502 1.118-1.12 1.118-.616 0-1.118-.502-1.118-1.119 0-.618.502-1.119 1.119-1.119" mask="url(#prefix__b)"/>
            <path fill="#0A51B7" d="M678.3 53.434c0 .882-.714 1.598-1.596 1.598-.882 0-1.596-.716-1.596-1.598 0-.882.714-1.597 1.596-1.597.882 0 1.597.715 1.597 1.597" mask="url(#prefix__b)"/>
            <path fill="#000" d="M676.704 51.838c-.882 0-1.597.715-1.597 1.597s.715 1.597 1.597 1.597 1.597-.715 1.597-1.597-.715-1.597-1.597-1.597m0 .478c.617 0 1.12.5 1.12 1.119 0 .617-.503 1.119-1.12 1.119-.617 0-1.119-.502-1.119-1.12 0-.617.502-1.118 1.12-1.118" mask="url(#prefix__b)"/>
            <path fill="#0A51B7" d="M683.227 53.434c0 .882-.715 1.598-1.598 1.598-.881 0-1.596-.716-1.596-1.598 0-.882.715-1.597 1.596-1.597.883 0 1.598.715 1.598 1.597" mask="url(#prefix__b)"/>
            <path fill="#000" d="M681.629 51.838c-.882 0-1.597.715-1.597 1.597s.715 1.597 1.597 1.597c.883 0 1.598-.715 1.598-1.597s-.715-1.597-1.598-1.597m0 .478c.617 0 1.119.5 1.119 1.119 0 .617-.502 1.119-1.12 1.119-.616 0-1.118-.502-1.118-1.12 0-.617.502-1.118 1.119-1.118" mask="url(#prefix__b)"/>
            <path fill="#0A51B7" d="M688.151 53.434c0 .882-.715 1.598-1.597 1.598s-1.596-.716-1.596-1.598c0-.882.714-1.597 1.596-1.597.882 0 1.597.715 1.597 1.597" mask="url(#prefix__b)"/>
            <path fill="#000" d="M686.555 51.838c-.882 0-1.597.715-1.597 1.597s.715 1.597 1.597 1.597 1.597-.715 1.597-1.597-.715-1.597-1.597-1.597m0 .478c.617 0 1.119.5 1.119 1.119 0 .617-.502 1.119-1.12 1.119-.616 0-1.118-.502-1.118-1.12 0-.617.502-1.118 1.119-1.118" mask="url(#prefix__b)"/>
            <path fill="#0A51B7" d="M678.3 65.428c0 .882-.714 1.598-1.596 1.598-.882 0-1.596-.716-1.596-1.598 0-.882.714-1.597 1.596-1.597.882 0 1.597.715 1.597 1.597" mask="url(#prefix__b)"/>
            <path fill="#000" d="M676.704 63.83c-.882 0-1.597.716-1.597 1.599 0 .88.715 1.595 1.597 1.595s1.597-.714 1.597-1.595c0-.883-.715-1.598-1.597-1.598m0 .478c.617 0 1.12.502 1.12 1.12 0 .617-.503 1.119-1.12 1.119-.617 0-1.119-.502-1.119-1.12 0-.617.502-1.12 1.12-1.12" mask="url(#prefix__b)"/>
            <path fill="#0A51B7" d="M683.227 65.428c0 .882-.715 1.598-1.598 1.598-.881 0-1.596-.716-1.596-1.598 0-.882.715-1.597 1.596-1.597.883 0 1.598.715 1.598 1.597" mask="url(#prefix__b)"/>
            <path fill="#000" d="M681.629 63.83c-.882 0-1.597.716-1.597 1.599 0 .88.715 1.595 1.597 1.595.883 0 1.598-.714 1.598-1.595 0-.883-.715-1.598-1.598-1.598m0 .478c.617 0 1.119.502 1.119 1.12 0 .617-.502 1.119-1.12 1.119-.616 0-1.118-.502-1.118-1.12 0-.617.502-1.12 1.119-1.12" mask="url(#prefix__b)"/>
            <path fill="#0A51B7" d="M688.151 65.428c0 .882-.715 1.598-1.597 1.598s-1.596-.716-1.596-1.598c0-.882.714-1.597 1.596-1.597.882 0 1.597.715 1.597 1.597" mask="url(#prefix__b)"/>
            <path fill="#000" d="M686.555 63.83c-.882 0-1.597.716-1.597 1.599 0 .88.715 1.595 1.597 1.595s1.597-.714 1.597-1.595c0-.883-.715-1.598-1.597-1.598m0 .478c.617 0 1.119.502 1.119 1.12 0 .617-.502 1.119-1.12 1.119-.616 0-1.118-.502-1.118-1.12 0-.617.502-1.12 1.119-1.12" mask="url(#prefix__b)"/>
            <path fill="#FFF" d="M656.697 38.753L656.697 43.995" mask="url(#prefix__b)"/>
            <path fill="#000" d="M656.458 43.995L656.937 43.995 656.937 38.753 656.458 38.753z" mask="url(#prefix__b)"/>
            <path fill="#FFF" d="M659.405 38.753L659.405 43.995" mask="url(#prefix__b)"/>
            <path fill="#000" d="M659.166 43.995L659.645 43.995 659.645 38.753 659.166 38.753z" mask="url(#prefix__b)"/>
            <path fill="#FFF" d="M662.114 38.753L662.114 43.995" mask="url(#prefix__b)"/>
            <path fill="#000" d="M661.875 43.995L662.354 43.995 662.354 38.753 661.875 38.753z" mask="url(#prefix__b)"/>
            <path fill="#FFF" d="M664.822 38.753L664.822 43.995" mask="url(#prefix__b)"/>
            <path fill="#000" d="M664.583 43.995L665.062 43.995 665.062 38.753 664.583 38.753z" mask="url(#prefix__b)"/>
            <path fill="#FFF" d="M667.531 38.753L667.531 43.995" mask="url(#prefix__b)"/>
            <path fill="#000" d="M667.292 43.995L667.771 43.995 667.771 38.753 667.292 38.753z" mask="url(#prefix__b)"/>
            <path fill="#FFF" d="M670.239 38.753L670.239 43.995" mask="url(#prefix__b)"/>
            <path fill="#000" d="M670 43.995L670.479 43.995 670.479 38.753 670 38.753z" mask="url(#prefix__b)"/>
            <path fill="#FFF" d="M658.052 38.753L658.052 43.995" mask="url(#prefix__b)"/>
            <path fill="#000" d="M657.812 43.995L658.291 43.995 658.291 38.753 657.812 38.753z" mask="url(#prefix__b)"/>
            <path fill="#FFF" d="M660.76 38.753L660.76 43.995" mask="url(#prefix__b)"/>
            <path fill="#000" d="M660.52 43.995L660.999 43.995 660.999 38.753 660.52 38.753z" mask="url(#prefix__b)"/>
            <path fill="#FFF" d="M663.469 38.753L663.469 43.995" mask="url(#prefix__b)"/>
            <path fill="#000" d="M663.229 43.995L663.708 43.995 663.708 38.753 663.229 38.753z" mask="url(#prefix__b)"/>
            <path fill="#FFF" d="M666.177 38.753L666.177 43.995" mask="url(#prefix__b)"/>
            <path fill="#000" d="M665.937 43.995L666.416 43.995 666.416 38.753 665.937 38.753z" mask="url(#prefix__b)"/>
            <path fill="#FFF" d="M668.885 38.753L668.885 43.995" mask="url(#prefix__b)"/>
            <path fill="#000" d="M668.645 43.995L669.124 43.995 669.124 38.753 668.645 38.753z" mask="url(#prefix__b)"/>
            <path fill="#FFF" d="M656.697 50.813L656.697 56.055" mask="url(#prefix__b)"/>
            <path fill="#000" d="M656.458 56.055L656.937 56.055 656.937 50.813 656.458 50.813z" mask="url(#prefix__b)"/>
            <path fill="#FFF" d="M659.405 50.813L659.405 56.055" mask="url(#prefix__b)"/>
            <path fill="#000" d="M659.166 56.055L659.645 56.055 659.645 50.813 659.166 50.813z" mask="url(#prefix__b)"/>
            <path fill="#FFF" d="M662.114 50.813L662.114 56.055" mask="url(#prefix__b)"/>
            <path fill="#000" d="M661.875 56.055L662.354 56.055 662.354 50.813 661.875 50.813z" mask="url(#prefix__b)"/>
            <path fill="#FFF" d="M664.822 50.813L664.822 56.055" mask="url(#prefix__b)"/>
            <path fill="#000" d="M664.583 56.055L665.062 56.055 665.062 50.813 664.583 50.813z" mask="url(#prefix__b)"/>
            <path fill="#FFF" d="M667.531 50.813L667.531 56.055" mask="url(#prefix__b)"/>
            <path fill="#000" d="M667.292 56.055L667.771 56.055 667.771 50.813 667.292 50.813z" mask="url(#prefix__b)"/>
            <path fill="#FFF" d="M670.239 50.813L670.239 56.055" mask="url(#prefix__b)"/>
            <path fill="#000" d="M670 56.055L670.479 56.055 670.479 50.813 670 50.813z" mask="url(#prefix__b)"/>
            <path fill="#FFF" d="M658.052 50.813L658.052 56.055" mask="url(#prefix__b)"/>
            <path fill="#000" d="M657.812 56.055L658.291 56.055 658.291 50.813 657.812 50.813z" mask="url(#prefix__b)"/>
            <path fill="#FFF" d="M660.76 50.813L660.76 56.055" mask="url(#prefix__b)"/>
            <path fill="#000" d="M660.52 56.055L660.999 56.055 660.999 50.813 660.52 50.813z" mask="url(#prefix__b)"/>
            <path fill="#FFF" d="M663.469 50.813L663.469 56.055" mask="url(#prefix__b)"/>
            <path fill="#000" d="M663.229 56.055L663.708 56.055 663.708 50.813 663.229 50.813z" mask="url(#prefix__b)"/>
            <path fill="#FFF" d="M666.177 50.813L666.177 56.055" mask="url(#prefix__b)"/>
            <path fill="#000" d="M665.937 56.055L666.416 56.055 666.416 50.813 665.937 50.813z" mask="url(#prefix__b)"/>
            <path fill="#FFF" d="M668.885 50.813L668.885 56.055" mask="url(#prefix__b)"/>
            <path fill="#000" d="M668.645 56.055L669.124 56.055 669.124 50.813 668.645 50.813z" mask="url(#prefix__b)"/>
            <path fill="#FFF" d="M656.697 62.875L656.697 68.116" mask="url(#prefix__b)"/>
            <path fill="#000" d="M656.458 68.116L656.937 68.116 656.937 62.875 656.458 62.875z" mask="url(#prefix__b)"/>
            <path fill="#FFF" d="M659.405 62.875L659.405 68.116" mask="url(#prefix__b)"/>
            <path fill="#000" d="M659.166 68.116L659.645 68.116 659.645 62.875 659.166 62.875z" mask="url(#prefix__b)"/>
            <path fill="#FFF" d="M662.114 62.875L662.114 68.116" mask="url(#prefix__b)"/>
            <path fill="#000" d="M661.875 68.116L662.354 68.116 662.354 62.875 661.875 62.875z" mask="url(#prefix__b)"/>
            <path fill="#FFF" d="M664.822 62.875L664.822 68.116" mask="url(#prefix__b)"/>
            <path fill="#000" d="M664.583 68.116L665.062 68.116 665.062 62.875 664.583 62.875z" mask="url(#prefix__b)"/>
            <path fill="#FFF" d="M667.531 62.875L667.531 68.116" mask="url(#prefix__b)"/>
            <path fill="#000" d="M667.292 68.116L667.771 68.116 667.771 62.875 667.292 62.875z" mask="url(#prefix__b)"/>
            <path fill="#FFF" d="M670.239 62.875L670.239 68.116" mask="url(#prefix__b)"/>
            <path fill="#000" d="M670 68.116L670.479 68.116 670.479 62.875 670 62.875z" mask="url(#prefix__b)"/>
            <path fill="#FFF" d="M658.052 62.875L658.052 68.116" mask="url(#prefix__b)"/>
            <path fill="#000" d="M657.812 68.116L658.291 68.116 658.291 62.875 657.812 62.875z" mask="url(#prefix__b)"/>
            <path fill="#FFF" d="M660.76 62.875L660.76 68.116" mask="url(#prefix__b)"/>
            <path fill="#000" d="M660.52 68.116L660.999 68.116 660.999 62.875 660.52 62.875z" mask="url(#prefix__b)"/>
            <path fill="#FFF" d="M663.469 62.875L663.469 68.116" mask="url(#prefix__b)"/>
            <path fill="#000" d="M663.229 68.116L663.708 68.116 663.708 62.875 663.229 62.875z" mask="url(#prefix__b)"/>
            <path fill="#FFF" d="M666.177 62.875L666.177 68.116" mask="url(#prefix__b)"/>
            <path fill="#000" d="M665.937 68.116L666.416 68.116 666.416 62.875 665.937 62.875z" mask="url(#prefix__b)"/>
            <path fill="#FFF" d="M668.885 62.875L668.885 68.116" mask="url(#prefix__b)"/>
            <path fill="#000" d="M668.645 68.116L669.124 68.116 669.124 62.875 668.645 62.875z" mask="url(#prefix__b)"/>
            <path fill="#E6E8EB" d="M684.48 62.988s.16-1.009 1.59-1.697c1.43-.689 5.015-1.662 9.397-1.057 4.383.605 5.534 1.692 5.534 1.692l.528 1.165-.001 12.814s-.58 1.535-3.519 2.171c-2.938.636-8.79.848-11.596-.45 0 0-1.774-.742-1.933-1.854V62.988z" mask="url(#prefix__b)"/>
            <path fill="#000" d="M684.72 75.76c.12.283 1.365 2.715 8.279 2.715 6.902 0 8.163-2.423 8.289-2.715V62.91c-.09-.25-1.144-2.627-8.54-2.627-7.728 0-8.027 2.64-8.03 2.667l.002 12.81zm8.279 3.193c-7.714 0-8.708-2.953-8.747-3.078l-.011-.07v-12.87c.007-.14.252-3.13 8.507-3.13 8.217 0 8.985 2.893 9.013 3.017l.007.053-.012 13c-.04.126-1.044 3.078-8.757 3.078z" mask="url(#prefix__b)"/>
            <path fill="#000" d="M692.815 70.44c-7.49 0-8.52-2.759-8.56-2.878l.451-.156c.008.025 1.067 2.617 8.406 2.555 7.343-.07 8.18-2.518 8.186-2.542l.46.13c-.032.115-.869 2.816-8.642 2.89l-.3.001M692.82 74.636c-7.496 0-8.525-2.76-8.565-2.88l.451-.155c.01.025 1.018 2.557 8.115 2.557l.291-.001c7.343-.071 8.18-2.52 8.186-2.543l.46.129c-.032.116-.869 2.817-8.642 2.892h-.297M692.82 66.246c-7.496 0-8.525-2.76-8.565-2.88l.451-.155c.01.025 1.058 2.624 8.406 2.556 7.343-.07 8.18-2.52 8.186-2.543l.46.129c-.032.116-.869 2.818-8.642 2.892h-.297" mask="url(#prefix__b)"/>
            <path fill="#C5C8CF" d="M291.061 143.51L405.668 143.51 405.668 142.373 291.061 142.373z" mask="url(#prefix__b)"/>
            <path fill="#C5C8CF" d="M399.693 142.941L399.693 138.178 403.817 140.56 407.941 142.941 403.817 145.322 399.693 147.703zM289.21 156.574L403.816 156.574 403.816 155.437 289.21 155.437z" mask="url(#prefix__b)"/>
            <path fill="#C5C8CF" d="M295.185 156.006L295.185 160.768 291.061 158.387 286.937 156.006 291.061 153.625 295.185 151.244z" mask="url(#prefix__b)"/>
            <path fill="#000" d="M327.63 170.749h-2.195v-.994h2.195v-1.812h1.235v5.566h-1.235v-2.76zm1.606 6.934v.97h-7.4v-2.806h5.806v-.864h-5.83v-.96h7.053v2.736h-5.804v.924h6.175zm-3.597-4.355c-1.175-.395-2.04-1.2-2.494-2.206-.481 1.127-1.38 2.002-2.652 2.446l-.634-.971c1.69-.552 2.637-1.907 2.637-3.395v-.911h1.236v.91c0 1.368.935 2.64 2.554 3.167l-.647.96zM338.598 178.809h1.247v-10.866h-1.247v10.866zm-5.865-3.574h2.746v-2.65h-2.746v2.65zm0-6.392v2.757h2.746v-2.757h1.236v7.387h-5.205v-7.387h1.223zM341.998 179.481c.815-.336 1.295-.936 1.308-1.644-.049.012-.084.012-.133.012-.491 0-.923-.31-.923-.888 0-.539.432-.886.959-.886.672 0 1.067.563 1.067 1.486 0 1.26-.731 2.232-1.966 2.7l-.312-.78zM358.24 171.733h-1.535v2.746h-1.236v-6.536h1.236v2.77h1.535v1.02zm-8.659 3.273h7.124v3.78h-1.236v-2.783h-5.888v-.997zm4.401-.959c-1.212-.395-2.075-1.222-2.543-2.254-.479 1.14-1.379 2.026-2.65 2.47l-.648-.97c1.715-.577 2.662-1.956 2.662-3.443v-.192h-2.302v-1.007h5.817v1.007h-2.266v.192c0 1.367.911 2.698 2.566 3.25l-.636.947zM362.443 177.657h4.594v-1.199h-4.594v1.199zm4.594-3.381h1.224v4.377h-7.04v-4.377h1.222v1.223h4.594v-1.223zm-3.142-3.31c0-.924-.696-1.512-1.631-1.512-.959 0-1.643.588-1.643 1.512 0 .911.684 1.523 1.643 1.523.935 0 1.631-.612 1.631-1.523zm4.366-3.011v5.806h-1.236v-2.303h-2.003c-.215 1.222-1.319 2.051-2.758 2.051-1.631 0-2.83-1.044-2.83-2.543 0-1.488 1.199-2.532 2.83-2.532 1.427 0 2.518.805 2.758 2.016h2.003v-2.495h1.236zM380.404 173.244h-1.69v5.541h-1.237v-10.83h1.236v4.27h1.691v1.019zm-6.285-2.146c0 1.678 1.067 3.597 2.711 4.377l-.684.971c-1.212-.575-2.135-1.775-2.627-3.142-.479 1.511-1.439 2.806-2.686 3.419l-.707-.984c1.654-.792 2.757-2.843 2.757-4.641v-1.044h-2.362v-1.02h5.89v1.02h-2.292v1.044zM329.076 192.798h1.235v-10.843h-1.235v10.843zm-5.805-8.108c0 .768.671 1.259 1.607 1.259.947 0 1.607-.491 1.607-1.259 0-.756-.66-1.248-1.607-1.248-.936 0-1.607.492-1.607 1.248zm-1.188 0c0-1.332 1.176-2.267 2.795-2.267s2.795.935 2.795 2.267c0 1.343-1.176 2.279-2.795 2.279s-2.795-.936-2.795-2.279zm6.369 3.598c-.947.191-1.943.299-2.902.371v3.803h-1.236v-3.731c-1.019.036-1.979.048-2.818.048l-.144-1.018c1.955 0 4.677-.038 7.016-.385l.084.912zM340.067 192.773h1.248v-10.83h-1.248v10.83zm-3.586-7.376c0 1.703 1.056 3.466 2.735 4.198l-.659.96c-1.236-.541-2.183-1.656-2.675-3.011-.48 1.439-1.427 2.615-2.687 3.19l-.683-.947c1.703-.768 2.734-2.603 2.734-4.39v-.623h-2.398v-.996h2.398v-1.607h1.235v1.607h2.351v.996h-2.351v.623zM354.852 192.773h1.187v-10.83h-1.187v10.83zm-2.206-10.591h1.163v10.087h-1.163v-5.253h-2.135v-1.007h2.135v-3.827zm-4.271 7.065c1.344-.012 2.268-.072 3.335-.3l.107 1.02c-1.222.239-2.278.299-3.933.299h-.732v-7.04h4.102v1.007h-2.879v5.014zM365.495 192.809h1.247v-10.866h-1.247v10.866zm-6.116-6.249c0 1.703.659 2.723 1.595 2.723.947 0 1.607-1.02 1.607-2.723 0-1.678-.66-2.698-1.607-2.698-.936 0-1.595 1.02-1.595 2.698zm4.39 0c0 2.351-1.176 3.827-2.795 3.827-1.608 0-2.783-1.476-2.783-3.827 0-2.327 1.175-3.813 2.783-3.813 1.619 0 2.795 1.486 2.795 3.813zM377.866 181.93v10.868h-1.247v-5.865h-2.075v-1.02h2.075v-3.983h1.247zm-7.279 7.328c1.726-.012 2.962-.07 4.377-.31l.108.994c-1.548.276-2.902.325-4.869.325h-.852v-7.376h5.025v1.019h-3.789v2.026h3.345v.984h-3.345v2.339zM327.013 206.17c.084.252.12.516.12.804 0 .287-.036.55-.12.802h2.075v-1.606h-2.075zm3.586 7.004v1.008h-7.292v-3.454h1.235v2.446h6.057zm-6.273-4.522c.924 0 1.63-.67 1.63-1.678 0-.984-.706-1.656-1.63-1.656-.947 0-1.655.672-1.655 1.656 0 1.008.708 1.678 1.655 1.678zm2.16.132c-.504.588-1.272.948-2.16.936-1.607 0-2.83-1.152-2.83-2.746 0-1.596 1.223-2.746 2.83-2.746.888 0 1.656.359 2.16.935h2.602v-1.596h1.236v7.963h-1.236v-2.746h-2.602zM340.463 214.386h1.187v-10.83h-1.187v10.83zm-2.183-10.567h1.152v10.039h-1.152v-3.646h-1.774v-1.008h1.774v-1.715h-1.583c-.503 1.822-1.642 3.395-3.67 4.606l-.707-.875c2.231-1.356 3.31-3.12 3.49-5.338h-2.962v-.995h4.185c0 .551-.036 1.09-.12 1.594h1.367v-2.662zM354.852 214.374h1.187v-10.83h-1.187v10.83zm-2.206-10.591h1.163v10.087h-1.163v-5.254h-2.135v-1.007h2.135v-3.826zm-4.271 7.063c1.344-.011 2.268-.071 3.335-.298l.107 1.019c-1.222.239-2.278.299-3.933.299h-.732v-7.039h4.102v1.007h-2.879v5.012zM365.495 214.409h1.247v-10.865h-1.247v10.865zm-6.116-6.248c0 1.703.659 2.723 1.595 2.723.947 0 1.607-1.02 1.607-2.723 0-1.68-.66-2.699-1.607-2.699-.936 0-1.595 1.019-1.595 2.699zm4.39 0c0 2.351-1.176 3.826-2.795 3.826-1.608 0-2.783-1.475-2.783-3.826 0-2.327 1.175-3.815 2.783-3.815 1.619 0 2.795 1.488 2.795 3.815zM377.866 203.531v10.866h-1.247v-5.865h-2.075v-1.02h2.075v-3.98h1.247zm-7.279 7.328c1.726-.013 2.962-.07 4.377-.31l.108.994c-1.548.276-2.902.323-4.869.323h-.852v-7.375h5.025v1.02h-3.789v2.026h3.345v.983h-3.345v2.34zM316.494 124.844v1.02h-1.44v3.681h-1.247v-8.13h1.248v3.43h1.439zm-7.208 6.189h6.116v1.008h-7.363v-3.214h1.247v2.206zm1.75-5.108c.217-1.165.253-2.016.265-2.688h-4.234v-1.006h5.446v.624c0 .73 0 1.798-.265 3.2l-1.211-.13zm2.196 1.57c-2.255.396-4.81.456-6.692.456l-.132-1.006c.648 0 1.39 0 2.158-.025v-2.22h1.224v2.183c1.127-.047 2.29-.12 3.358-.287l.084.898zM325.255 132.268h1.247V121.39h-1.247v10.878zm-5.829-3.597c1.715-.012 3.214-.096 4.93-.372l.132 1.007c-1.86.324-3.479.384-5.386.384h-.923v-4.294h3.778v-2.014h-3.802v-1.008h5.05v4.017h-3.779v2.28zM331.474 121.751L332.433 121.751 329.099 133.48 328.139 133.48zM340.65 130.481c0-.55-.851-.827-2.493-.827-1.632 0-2.484.276-2.484.827 0 .576.852.84 2.484.84 1.642 0 2.494-.264 2.494-.84zm1.236 0c0 1.152-1.367 1.764-3.73 1.764-2.351 0-3.73-.612-3.73-1.764 0-1.139 1.379-1.738 3.73-1.738 2.363 0 3.73.6 3.73 1.738zm1.176-3.406v.996h-9.8v-.996h4.283v-.887h-3.023v-4.475h7.376v.95h-6.141v.814h5.877v.924h-5.877v.84h6.213v.947h-3.178v.887h4.27zM352.386 132.233h1.176v-10.83h-1.176v10.83zm-2.182-10.615h1.163v10.1h-1.163v-5.495h-1.595v-1.006h1.595v-3.599zm-2.591 2.771c0 1.847.696 3.717 2.207 4.593l-.72.9c-1.019-.6-1.69-1.667-2.074-2.926-.384 1.367-1.08 2.53-2.123 3.189l-.744-.911c1.535-.96 2.255-2.915 2.255-4.845v-.78h-1.907v-1.019h4.893v1.019h-1.787v.78zM366.787 132.233h1.187v-10.83h-1.187v10.83zm-2.206-10.591h1.163v10.087h-1.163v-5.254h-2.135v-1.006h2.135v-3.827zm-4.271 7.064c1.344-.012 2.268-.071 3.335-.299l.107 1.02c-1.223.239-2.278.298-3.933.298h-.732v-7.039h4.102v1.007h-2.879v5.013zM377.431 132.268h1.247v-10.865h-1.247v10.865zm-6.116-6.248c0 1.703.659 2.723 1.595 2.723.947 0 1.607-1.02 1.607-2.723 0-1.679-.66-2.699-1.607-2.699-.936 0-1.595 1.02-1.595 2.699zm4.39 0c0 2.351-1.176 3.827-2.795 3.827-1.608 0-2.783-1.476-2.783-3.827 0-2.327 1.175-3.814 2.783-3.814 1.619 0 2.795 1.487 2.795 3.814zM389.802 121.39v10.866h-1.247v-5.865h-2.075v-1.02h2.075v-3.98h1.247zm-7.279 7.328c1.726-.013 2.962-.07 4.377-.31l.108.994c-1.548.276-2.902.323-4.869.323h-.852v-7.375h5.025v1.02h-3.789v2.026h3.345v.983h-3.345v2.34z" mask="url(#prefix__b)"/>
            <path fill="#FFF" d="M730.018 228.549c0 31.126-25.231 56.357-56.356 56.357-31.126 0-56.358-25.231-56.358-56.357 0-31.125 25.232-56.356 56.358-56.356 31.125 0 56.356 25.23 56.356 56.356" mask="url(#prefix__b)"/>
            <path fill="#C5C8CF" d="M673.661 172.567c-30.869 0-55.982 25.113-55.982 55.981 0 30.87 25.113 55.983 55.982 55.983 30.868 0 55.981-25.113 55.981-55.983 0-30.868-25.113-55.98-55.98-55.98m0 112.713c-31.283 0-56.733-25.45-56.733-56.733 0-31.282 25.45-56.73 56.732-56.73s56.731 25.448 56.731 56.73c0 31.283-25.449 56.733-56.73 56.733" mask="url(#prefix__b)"/>
            <path fill="#FFF" d="M663.981 228.779L657.191 228.779 646.723 248.329 702.597 248.329 692.002 228.779 685.248 228.779" mask="url(#prefix__b)"/>
            <path fill="#231916" d="M702.598 248.665h-55.875c-.118 0-.228-.062-.288-.163-.061-.102-.064-.228-.008-.332l10.468-19.55c.058-.11.173-.177.297-.177h6.79c.185 0 .336.15.336.336 0 .186-.151.336-.336.336h-6.59l-10.107 18.878h54.749l-10.231-18.878h-6.555c-.185 0-.336-.15-.336-.336 0-.185.15-.336.336-.336h6.755c.123 0 .238.068.296.176l10.595 19.55c.057.104.054.23-.007.332-.06.102-.171.164-.29.164" mask="url(#prefix__b)"/>
            <path fill="#231916" d="M673.935 248.69c-.154 0-.293-.106-.328-.263-.427-1.89-1.78-2.223-3.494-2.643-1.79-.439-3.818-.936-5.06-3.412-.445-.889-.843-1.87-1.228-2.817-1.522-3.745-3.096-7.617-8.145-7.617-.185 0-.336-.15-.336-.336 0-.185.15-.336.336-.336 5.502 0 7.237 4.27 8.768 8.035.398.98.773 1.904 1.208 2.77 1.102 2.198 2.889 2.636 4.617 3.06 1.707.418 3.473.85 3.99 3.148.04.182-.073.361-.254.402-.025.006-.05.01-.074.01M690.892 239.46c-6.46 0-9.79-5.911-9.832-5.987-.09-.162-.03-.366.133-.456.164-.09.367-.031.457.132.203.372 5.103 9.024 14.827 4.199.164-.081.369-.014.45.152.083.166.015.368-.151.45-2.185 1.084-4.148 1.51-5.884 1.51" mask="url(#prefix__b)"/>
            <path fill="#231916" d="M681.355 248.665c-.187 0-.337-.15-.337-.336 0-5.755 4.514-8.483 8.14-10.676 2.562-1.55 4.774-2.885 4.774-4.83 0-.185.15-.336.336-.336.185 0 .336.15.336.336 0 2.323-2.362 3.752-5.098 5.405-3.663 2.215-7.815 4.725-7.815 10.1 0 .187-.15.337-.337.337" mask="url(#prefix__b)"/>
            <path fill="#0A51B7" d="M693.3 236.853c-.014-2.02-1.617-3.657-3.616-3.733-1.951-.076-3.685 1.46-3.891 3.401-.13 1.211.41 2.237 1.02 3.184.412.638 1.717 2.226 2.379 3.021.204.245.576.242.775-.007.469-.586 1.312-1.655 2.212-2.87.499-.675 1.13-1.893 1.122-2.996" mask="url(#prefix__b)"/>
            <path fill="#000" d="M689.547 233.454c-1.715 0-3.235 1.367-3.42 3.103-.11 1.043.308 1.94.969 2.965.393.61 1.643 2.135 2.354 2.99.044.05.098.06.127.06.03 0 .084-.01.127-.062.43-.537 1.286-1.622 2.204-2.862.53-.715 1.063-1.857 1.057-2.793-.014-1.836-1.461-3.33-3.294-3.4l-.124-.001zm.029 9.79c-.248 0-.482-.11-.643-.303-.72-.866-1.99-2.414-2.403-3.054-.638-.992-1.212-2.09-1.072-3.401.226-2.124 2.126-3.786 4.238-3.702 2.195.083 3.925 1.87 3.94 4.067.01 1.165-.634 2.45-1.187 3.198-.924 1.248-1.787 2.34-2.22 2.88-.158.199-.393.313-.644.316h-.01z" mask="url(#prefix__b)"/>
            <path fill="#FFF" d="M691.416 236.867c.008 1.037-.827 1.885-1.865 1.892-1.037.007-1.885-.828-1.893-1.866-.007-1.037.828-1.884 1.865-1.891 1.039-.008 1.886.827 1.893 1.865" mask="url(#prefix__b)"/>
            <path fill="#000" d="M689.538 235.338h-.012c-.85.006-1.537.703-1.532 1.554.004.41.167.798.461 1.087.293.29.676.41 1.093.444.413-.003.8-.166 1.088-.46.29-.293.447-.682.444-1.093v-.001c-.003-.412-.166-.798-.46-1.087-.29-.287-.675-.444-1.082-.444m-.002 3.758c-.585 0-1.137-.227-1.554-.638-.422-.415-.656-.97-.66-1.561-.004-.592.223-1.151.638-1.572.415-.422.97-.655 1.561-.66h.017c.586 0 1.137.227 1.555.638.422.415.655.97.66 1.562.004.59-.223 1.15-.638 1.57-.416.423-.97.656-1.562.66h-.017" mask="url(#prefix__b)"/>
            <path fill="#E6E8EB" d="M685.05 232.021L664.189 232.021 665.893 226.994 683.346 226.994z" mask="url(#prefix__b)"/>
            <path fill="#000" d="M664.657 231.685h19.924l-1.477-4.355h-16.97l-1.477 4.355zm20.393.672h-20.862c-.108 0-.21-.052-.273-.14-.064-.089-.08-.2-.045-.304l1.704-5.028c.046-.136.174-.227.318-.227h17.453c.145 0 .273.091.32.227l1.703 5.028c.035.103.018.215-.045.304-.063.088-.165.14-.273.14z" mask="url(#prefix__b)"/>
            <path fill="#FFF" d="M682.568 226.994h-15.897v-10.531c0-4.39 3.558-7.948 7.948-7.948 4.39 0 7.95 3.558 7.95 7.948v10.531z" mask="url(#prefix__b)"/>
            <path fill="#000" d="M667.007 226.658h15.226v-10.195c0-4.198-3.416-7.613-7.614-7.613-4.197 0-7.612 3.415-7.612 7.613v10.195zm15.562.672H666.67c-.185 0-.336-.151-.336-.336v-10.531c0-4.569 3.716-8.284 8.284-8.284 4.569 0 8.285 3.715 8.285 8.284v10.531c0 .185-.15.336-.335.336z" mask="url(#prefix__b)"/>
            <path fill="#0A51B7" d="M674.672 219.724c-.75 0-1.358-.608-1.358-1.358v-3.942c0-.75.608-1.359 1.358-1.359.75 0 1.359.608 1.359 1.36v3.94c0 .75-.608 1.358-1.36 1.358M674.672 223.257c-.75 0-1.358-.608-1.358-1.358 0-.751.608-1.36 1.358-1.36.75 0 1.359.61 1.359 1.36 0 .75-.608 1.358-1.36 1.358M674.619 199.937L674.619 204.177" mask="url(#prefix__b)"/>
            <path fill="#000" d="M674.62 204.513c-.187 0-.337-.15-.337-.335v-4.24c0-.186.15-.337.336-.337.186 0 .336.15.336.337v4.24c0 .185-.15.335-.336.335" mask="url(#prefix__b)"/>
            <path fill="#0A51B7" d="M687.401 205.38L684.403 208.378" mask="url(#prefix__b)"/>
            <path fill="#000" d="M684.403 208.714c-.086 0-.172-.032-.238-.098-.13-.131-.13-.344 0-.476l2.998-2.998c.133-.131.344-.131.476 0 .131.132.131.344 0 .476l-2.998 2.998c-.066.066-.152.098-.238.098" mask="url(#prefix__b)"/>
            <path fill="#0A51B7" d="M690.68 218.161L686.44 218.161" mask="url(#prefix__b)"/>
            <path fill="#000" d="M690.68 218.497h-4.24c-.186 0-.336-.15-.336-.336 0-.185.15-.336.336-.336h4.24c.186 0 .336.15.336.336 0 .186-.15.336-.336.336" mask="url(#prefix__b)"/>
            <path fill="#0A51B7" d="M658.641 218.161L662.881 218.161" mask="url(#prefix__b)"/>
            <path fill="#000" d="M662.88 218.497h-4.24c-.185 0-.335-.15-.335-.336 0-.185.15-.336.336-.336h4.24c.186 0 .336.15.336.336 0 .186-.15.336-.336.336" mask="url(#prefix__b)"/>
            <path fill="#0A51B7" d="M661.837 205.38L664.836 208.378" mask="url(#prefix__b)"/>
            <path fill="#000" d="M664.836 208.714c-.086 0-.172-.032-.238-.098l-3-2.998c-.13-.132-.13-.344 0-.476.134-.131.344-.131.477 0l2.999 2.998c.13.132.13.345 0 .476-.066.066-.152.098-.238.098M662.799 213.283c-.042 0-.085-.009-.127-.025l-2.237-.91c-.172-.069-.255-.265-.185-.438.07-.171.263-.252.439-.185l2.237.91c.172.069.255.265.185.438-.053.13-.18.21-.312.21M686.44 213.283c-.134 0-.26-.08-.313-.21-.07-.173.014-.369.186-.438l2.236-.91c.174-.067.37.014.44.185.07.173-.014.369-.186.438l-2.236.91c-.043.016-.086.025-.128.025M679.812 205.977c-.044 0-.089-.009-.131-.027-.172-.073-.252-.27-.18-.44l.94-2.226c.072-.17.27-.252.44-.179.172.072.252.27.18.44l-.94 2.226c-.053.128-.178.206-.31.206M669.427 205.977c-.131 0-.256-.077-.31-.206l-.94-2.226c-.071-.17.009-.368.18-.44.17-.073.369.007.44.18l.94 2.224c.072.171-.008.368-.18.441-.042.018-.086.027-.13.027" mask="url(#prefix__b)"/>
            <path fill="#0A51B7" d="M33.642 157.871L79.822 157.871 79.822 157.092 33.642 157.092z" mask="url(#prefix__b)"/>
        </g>
    </g>
</svg>
