<svg xmlns="http://www.w3.org/2000/svg" xmlns:xlink="http://www.w3.org/1999/xlink" width="780" height="460" viewBox="0 0 780 460">
    <defs>
        <path id="inm4qrdwra" d="M0 0H780V460H0z"/>
        <path id="u42jgbu82c" d="M0 454L767.714 454 767.714 0.274 0 0.274z"/>
        <path id="emlcnba5te" d="M0 454L767.714 454 767.714 0.274 0 0.274z"/>
        <path id="7lhz4959eg" d="M0.583 0.645L66.714 0.645 66.714 18.645 0.583 18.645z"/>
    </defs>
    <g fill="none" fill-rule="evenodd">
        <g>
            <g>
                <g>
                    <g>
                        <g transform="translate(-760 -7038) translate(0 2554) translate(320 636) translate(60 3711) translate(380 137)">
                            <mask id="yqttg0ns7b" fill="#fff">
                                <use xlink:href="#inm4qrdwra"/>
                            </mask>
                            <use fill="#F8F9FB" xlink:href="#inm4qrdwra"/>
                            <g mask="url(#yqttg0ns7b)">
                                <g>
                                    <g>
                                        <path fill="#FFF" d="M113.067 56.6c0 31.126-25.232 56.358-56.357 56.358C25.583 112.958.352 87.726.352 56.6S25.584.244 56.71.244c31.125 0 56.357 25.232 56.357 56.357" transform="translate(0 -3) translate(363 291.726)"/>
                                        <path stroke="#C5C8CF" stroke-width=".75" d="M113.067 56.6c0 31.126-25.232 56.358-56.357 56.358C25.583 112.958.352 87.726.352 56.6S25.584.244 56.71.244c31.125 0 56.357 25.232 56.357 56.357z" transform="translate(0 -3) translate(363 291.726)"/>
                                    </g>
                                    <text font-family="NotoSansCJKkr-Medium, Noto Sans CJK KR" font-size="12" font-weight="400" transform="translate(0 -3)">
                                        <tspan x="432.296" y="271.59" fill="#000">Mana</tspan> <tspan x="463.544" y="271.59" fill="#000" letter-spacing="-.204">g</tspan> <tspan x="470.072" y="271.59" fill="#000">ement d</tspan> <tspan x="517.436" y="271.59" fill="#000" letter-spacing="-.204">a</tspan> <tspan x="523.928" y="271.59" fill="#000" letter-spacing="-.288">t</tspan> <tspan x="528.104" y="271.59" fill="#000">a</tspan>
                                    </text>
                                    <text font-family="NotoSansCJKkr-Medium, Noto Sans CJK KR" font-size="12" font-weight="400" transform="translate(0 -3)">
                                        <tspan x="209.012" y="113.526" fill="#000">A</tspan> <tspan x="216.476" y="113.526" fill="#000" letter-spacing="-.312">c</tspan> <tspan x="222.056" y="113.526" fill="#000">cident risk modeling d</tspan> <tspan x="349.412" y="113.526" fill="#000" letter-spacing="-.203">a</tspan> <tspan x="355.905" y="113.526" fill="#000" letter-spacing="-.289">t</tspan> <tspan x="360.08" y="113.526" fill="#000">a</tspan>
                                    </text>
                                    <text font-family="NotoSansCJKkr-Medium, Noto Sans CJK KR" font-size="12" font-weight="400" transform="translate(0 -3)">
                                        <tspan x="213.224" y="135.126" fill="#000">AR a</tspan> <tspan x="238.148" y="135.126" fill="#000" letter-spacing="-.312">c</tspan> <tspan x="243.728" y="135.126" fill="#000">cident </tspan> <tspan x="282.656" y="135.126" fill="#000" letter-spacing="-.131">r</tspan> <tspan x="287.301" y="135.126" fill="#000">esponse d</tspan> <tspan x="345.057" y="135.126" fill="#000" letter-spacing="-.204">a</tspan> <tspan x="351.549" y="135.126" fill="#000" letter-spacing="-.288">t</tspan> <tspan x="355.725" y="135.126" fill="#000">a</tspan>
                                    </text>
                                    <text font-family="NotoSansCJKkr-Medium, Noto Sans CJK KR" font-size="12" font-weight="400" letter-spacing="-.468" transform="translate(0 -3)">
                                        <tspan x="368.036" y="422.406" fill="#000">E</tspan> <tspan x="374.3" y="422.406" fill="#000">xi</tspan> <tspan x="384.056" y="422.406" fill="#000" letter-spacing="-.264">s</tspan> <tspan x="389.288" y="422.406" fill="#000">ting ope</tspan> <tspan x="436.316" y="422.406" fill="#000" letter-spacing="-.336">r</tspan> <tspan x="440.552" y="422.406" fill="#000" letter-spacing="-.204">a</tspan> <tspan x="447.044" y="422.406" fill="#000">tion</tspan>
                                    </text>
                                    <g>
                                        <text fill="#000" font-family="NotoSansCJKkr-Medium, Noto Sans CJK KR" font-size="12" font-weight="400" transform="translate(0 -3) translate(205 145.726)">
                                            <tspan x="154.936" y="292.675">mana</tspan> <tspan x="187.528" y="292.675" letter-spacing="-.205">g</tspan> <tspan x="194.055" y="292.675">ement sy</tspan> <tspan x="246.147" y="292.675" letter-spacing="-.264">s</tspan> <tspan x="251.379" y="292.675" letter-spacing="-.204">t</tspan> <tspan x="255.723" y="292.675">em</tspan>
                                        </text>
                                        <path fill="#E6E8EB" d="M194.629 190.038L194.629 221.378 232.462 221.378 232.462 189.747z" transform="translate(0 -3) translate(205 145.726)"/>
                                        <path stroke="#000" stroke-width=".565" d="M194.629 190.038L194.629 221.378 232.462 221.378 232.462 189.747z" transform="translate(0 -3) translate(205 145.726)"/>
                                        <path fill="#FFF" d="M193.385 189.985c-1.382 0-2.507-1.125-2.507-2.507v-6.155c0-1.382 1.125-2.507 2.507-2.507h40.176c1.383 0 2.507 1.125 2.507 2.507v6.155c0 1.382-1.124 2.507-2.507 2.507h-40.176z" transform="translate(0 -3) translate(205 145.726)"/>
                                        <path fill="#000" d="M233.561 178.534h-40.176c-1.534 0-2.789 1.255-2.789 2.79v6.154c0 1.535 1.255 2.79 2.79 2.79h40.175c1.534 0 2.79-1.255 2.79-2.79v-6.155c0-1.534-1.256-2.789-2.79-2.789m0 .564c1.227 0 2.225.998 2.225 2.225v6.155c0 1.227-.998 2.225-2.225 2.225h-40.176c-1.226 0-2.224-.998-2.224-2.225v-6.155c0-1.227.998-2.225 2.224-2.225h40.176" transform="translate(0 -3) translate(205 145.726)"/>
                                        <path fill="#FFF" d="M193.385 204.24c-1.382 0-2.507-1.125-2.507-2.507v-6.155c0-1.382 1.125-2.507 2.507-2.507h40.176c1.383 0 2.507 1.125 2.507 2.507v6.155c0 1.382-1.124 2.507-2.507 2.507h-40.176z" transform="translate(0 -3) translate(205 145.726)"/>
                                        <path fill="#000" d="M233.561 192.79h-40.176c-1.534 0-2.789 1.254-2.789 2.788v6.155c0 1.534 1.255 2.79 2.79 2.79h40.175c1.534 0 2.79-1.256 2.79-2.79v-6.155c0-1.534-1.256-2.789-2.79-2.789m0 .564c1.227 0 2.225.998 2.225 2.225v6.155c0 1.227-.998 2.225-2.225 2.225h-40.176c-1.226 0-2.224-.998-2.224-2.225v-6.155c0-1.227.998-2.225 2.224-2.225h40.176" transform="translate(0 -3) translate(205 145.726)"/>
                                        <path fill="#FFF" d="M193.385 218.415c-1.382 0-2.507-1.125-2.507-2.507v-6.155c0-1.382 1.125-2.507 2.507-2.507h40.176c1.383 0 2.507 1.125 2.507 2.507v6.155c0 1.382-1.124 2.507-2.507 2.507h-40.176z" transform="translate(0 -3) translate(205 145.726)"/>
                                        <path fill="#000" d="M233.561 206.964h-40.176c-1.534 0-2.789 1.256-2.789 2.789v6.155c0 1.535 1.255 2.79 2.79 2.79h40.175c1.534 0 2.79-1.255 2.79-2.79v-6.155c0-1.533-1.256-2.79-2.79-2.79m0 .565c1.227 0 2.225.998 2.225 2.225v6.155c0 1.228-.998 2.226-2.225 2.226h-40.176c-1.226 0-2.224-.998-2.224-2.226v-6.155c0-1.227.998-2.225 2.224-2.225h40.176" transform="translate(0 -3) translate(205 145.726)"/>
                                        <path fill="#0A51B7" d="M219.078 186.006c-.885 0-1.605-.721-1.605-1.605 0-.885.72-1.605 1.605-1.605s1.605.72 1.605 1.605c0 .884-.72 1.605-1.605 1.605" transform="translate(0 -3) translate(205 145.726)"/>
                                        <path fill="#000" d="M219.078 182.513c-1.042 0-1.887.846-1.887 1.889 0 1.042.845 1.886 1.887 1.886s1.887-.844 1.887-1.886c0-1.043-.845-1.89-1.887-1.89m0 .565c.73 0 1.323.594 1.323 1.325 0 .728-.594 1.322-1.323 1.322s-1.323-.594-1.323-1.322c0-.731.594-1.325 1.323-1.325" transform="translate(0 -3) translate(205 145.726)"/>
                                        <path fill="#0A51B7" d="M224.9 186.006c-.886 0-1.606-.721-1.606-1.605 0-.885.72-1.605 1.605-1.605.886 0 1.606.72 1.606 1.605 0 .884-.72 1.605-1.606 1.605" transform="translate(0 -3) translate(205 145.726)"/>
                                        <path fill="#000" d="M224.9 182.513c-1.043 0-1.888.846-1.888 1.889 0 1.042.845 1.886 1.887 1.886s1.887-.844 1.887-1.886c0-1.043-.845-1.89-1.887-1.89m0 .565c.73 0 1.323.594 1.323 1.325 0 .728-.594 1.322-1.323 1.322-.728 0-1.322-.594-1.322-1.322 0-.731.594-1.325 1.322-1.325" transform="translate(0 -3) translate(205 145.726)"/>
                                        <path fill="#0A51B7" d="M230.721 186.006c-.885 0-1.605-.721-1.605-1.605 0-.885.72-1.605 1.605-1.605s1.605.72 1.605 1.605c0 .884-.72 1.605-1.605 1.605" transform="translate(0 -3) translate(205 145.726)"/>
                                        <path fill="#000" d="M230.721 182.513c-1.043 0-1.888.846-1.888 1.889 0 1.042.845 1.886 1.888 1.886 1.042 0 1.887-.844 1.887-1.886 0-1.043-.845-1.89-1.887-1.89m0 .565c.73 0 1.322.594 1.322 1.325 0 .728-.593 1.322-1.322 1.322-.729 0-1.323-.594-1.323-1.322 0-.731.594-1.325 1.323-1.325" transform="translate(0 -3) translate(205 145.726)"/>
                                        <path fill="#0A51B7" d="M219.078 200.26c-.885 0-1.605-.72-1.605-1.604 0-.885.72-1.605 1.605-1.605s1.605.72 1.605 1.605c0 .884-.72 1.605-1.605 1.605" transform="translate(0 -3) translate(205 145.726)"/>
                                        <path fill="#000" d="M219.078 196.769c-1.042 0-1.887.845-1.887 1.887 0 1.043.845 1.887 1.887 1.887s1.887-.844 1.887-1.887c0-1.042-.845-1.887-1.887-1.887m0 .564c.73 0 1.323.594 1.323 1.323 0 .73-.594 1.323-1.323 1.323s-1.323-.593-1.323-1.323.594-1.323 1.323-1.323" transform="translate(0 -3) translate(205 145.726)"/>
                                        <path fill="#0A51B7" d="M224.9 200.26c-.886 0-1.606-.72-1.606-1.604 0-.885.72-1.605 1.605-1.605.886 0 1.606.72 1.606 1.605 0 .884-.72 1.605-1.606 1.605" transform="translate(0 -3) translate(205 145.726)"/>
                                        <path fill="#000" d="M224.9 196.769c-1.043 0-1.888.845-1.888 1.887 0 1.043.845 1.887 1.887 1.887s1.887-.844 1.887-1.887c0-1.042-.845-1.887-1.887-1.887m0 .564c.73 0 1.323.594 1.323 1.323 0 .73-.594 1.323-1.323 1.323-.728 0-1.322-.593-1.322-1.323s.594-1.323 1.322-1.323" transform="translate(0 -3) translate(205 145.726)"/>
                                        <path fill="#0A51B7" d="M230.721 200.26c-.885 0-1.605-.72-1.605-1.604 0-.885.72-1.605 1.605-1.605s1.605.72 1.605 1.605c0 .884-.72 1.605-1.605 1.605" transform="translate(0 -3) translate(205 145.726)"/>
                                        <path fill="#000" d="M230.721 196.769c-1.043 0-1.888.845-1.888 1.887 0 1.043.845 1.887 1.888 1.887 1.042 0 1.887-.844 1.887-1.887 0-1.042-.845-1.887-1.887-1.887m0 .564c.73 0 1.322.594 1.322 1.323 0 .73-.593 1.323-1.322 1.323-.729 0-1.323-.593-1.323-1.323s.594-1.323 1.323-1.323" transform="translate(0 -3) translate(205 145.726)"/>
                                        <path fill="#0A51B7" d="M219.078 214.435c-.885 0-1.605-.72-1.605-1.603 0-.886.72-1.606 1.605-1.606s1.605.72 1.605 1.606c0 .883-.72 1.603-1.605 1.603" transform="translate(0 -3) translate(205 145.726)"/>
                                        <path fill="#000" d="M219.078 210.943c-1.042 0-1.887.845-1.887 1.888 0 1.042.845 1.886 1.887 1.886s1.887-.844 1.887-1.886c0-1.043-.845-1.888-1.887-1.888m0 .564c.73 0 1.323.593 1.323 1.324 0 .728-.594 1.322-1.323 1.322s-1.323-.594-1.323-1.322c0-.73.594-1.324 1.323-1.324" transform="translate(0 -3) translate(205 145.726)"/>
                                        <path fill="#0A51B7" d="M224.9 214.435c-.886 0-1.606-.72-1.606-1.603 0-.886.72-1.606 1.605-1.606.886 0 1.606.72 1.606 1.606 0 .883-.72 1.603-1.606 1.603" transform="translate(0 -3) translate(205 145.726)"/>
                                        <path fill="#000" d="M224.9 210.943c-1.043 0-1.888.845-1.888 1.888 0 1.042.845 1.886 1.887 1.886s1.887-.844 1.887-1.886c0-1.043-.845-1.888-1.887-1.888m0 .564c.73 0 1.323.593 1.323 1.324 0 .728-.594 1.322-1.323 1.322-.728 0-1.322-.594-1.322-1.322 0-.73.594-1.324 1.322-1.324" transform="translate(0 -3) translate(205 145.726)"/>
                                        <path fill="#0A51B7" d="M230.721 214.435c-.885 0-1.605-.72-1.605-1.603 0-.886.72-1.606 1.605-1.606s1.605.72 1.605 1.606c0 .883-.72 1.603-1.605 1.603" transform="translate(0 -3) translate(205 145.726)"/>
                                        <path fill="#000" d="M230.721 210.943c-1.043 0-1.888.845-1.888 1.888 0 1.042.845 1.886 1.888 1.886 1.042 0 1.887-.844 1.887-1.886 0-1.043-.845-1.888-1.887-1.888m0 .564c.73 0 1.322.593 1.322 1.324 0 .728-.593 1.322-1.322 1.322-.729 0-1.323-.594-1.323-1.322 0-.73.594-1.324 1.323-1.324" transform="translate(0 -3) translate(205 145.726)"/>
                                        <g>
                                            <path fill="#FFF" d="M1.432 0.303L1.432 6.499" transform="translate(0 -3) translate(205 145.726) translate(194 181)"/>
                                            <path stroke="#000" stroke-width=".565" d="M1.432 0.303L1.432 6.499" transform="translate(0 -3) translate(205 145.726) translate(194 181)"/>
                                        </g>
                                        <g>
                                            <path fill="#FFF" d="M0.633 0.303L0.633 6.499" transform="translate(0 -3) translate(205 145.726) translate(198 181)"/>
                                            <path stroke="#000" stroke-width=".565" d="M0.633 0.303L0.633 6.499" transform="translate(0 -3) translate(205 145.726) translate(198 181)"/>
                                        </g>
                                        <g>
                                            <path fill="#FFF" d="M0.834 0.303L0.834 6.499" transform="translate(0 -3) translate(205 145.726) translate(201 181)"/>
                                            <path stroke="#000" stroke-width=".565" d="M0.834 0.303L0.834 6.499" transform="translate(0 -3) translate(205 145.726) translate(201 181)"/>
                                        </g>
                                        <g>
                                            <path fill="#FFF" d="M1.035 0.303L1.035 6.499" transform="translate(0 -3) translate(205 145.726) translate(204 181)"/>
                                            <path stroke="#000" stroke-width=".565" d="M1.035 0.303L1.035 6.499" transform="translate(0 -3) translate(205 145.726) translate(204 181)"/>
                                        </g>
                                        <g>
                                            <path fill="#FFF" d="M1.236 0.303L1.236 6.499" transform="translate(0 -3) translate(205 145.726) translate(207 181)"/>
                                            <path stroke="#000" stroke-width=".565" d="M1.236 0.303L1.236 6.499" transform="translate(0 -3) translate(205 145.726) translate(207 181)"/>
                                        </g>
                                        <g>
                                            <path fill="#FFF" d="M1.438 0.303L1.438 6.499" transform="translate(0 -3) translate(205 145.726) translate(210 181)"/>
                                            <path stroke="#000" stroke-width=".565" d="M1.438 0.303L1.438 6.499" transform="translate(0 -3) translate(205 145.726) translate(210 181)"/>
                                        </g>
                                        <g>
                                            <path fill="#FFF" d="M1.032 0.303L1.032 6.499" transform="translate(0 -3) translate(205 145.726) translate(196 181)"/>
                                            <path stroke="#000" stroke-width=".565" d="M1.032 0.303L1.032 6.499" transform="translate(0 -3) translate(205 145.726) translate(196 181)"/>
                                        </g>
                                        <g>
                                            <path fill="#FFF" d="M1.234 0.303L1.234 6.499" transform="translate(0 -3) translate(205 145.726) translate(199 181)"/>
                                            <path stroke="#000" stroke-width=".565" d="M1.234 0.303L1.234 6.499" transform="translate(0 -3) translate(205 145.726) translate(199 181)"/>
                                        </g>
                                        <g>
                                            <path fill="#FFF" d="M1.435 0.303L1.435 6.499" transform="translate(0 -3) translate(205 145.726) translate(202 181)"/>
                                            <path stroke="#000" stroke-width=".565" d="M1.435 0.303L1.435 6.499" transform="translate(0 -3) translate(205 145.726) translate(202 181)"/>
                                        </g>
                                        <g>
                                            <path fill="#FFF" d="M0.636 0.303L0.636 6.499" transform="translate(0 -3) translate(205 145.726) translate(206 181)"/>
                                            <path stroke="#000" stroke-width=".565" d="M0.636 0.303L0.636 6.499" transform="translate(0 -3) translate(205 145.726) translate(206 181)"/>
                                        </g>
                                        <g>
                                            <path fill="#FFF" d="M0.837 0.303L0.837 6.499" transform="translate(0 -3) translate(205 145.726) translate(209 181)"/>
                                            <path stroke="#000" stroke-width=".565" d="M0.837 0.303L0.837 6.499" transform="translate(0 -3) translate(205 145.726) translate(209 181)"/>
                                        </g>
                                        <g>
                                            <path fill="#FFF" d="M1.432 0.558L1.432 6.754" transform="translate(0 -3) translate(205 145.726) translate(194 195)"/>
                                            <path stroke="#000" stroke-width=".565" d="M1.432 0.558L1.432 6.754" transform="translate(0 -3) translate(205 145.726) translate(194 195)"/>
                                        </g>
                                        <g>
                                            <path fill="#FFF" d="M0.633 0.558L0.633 6.754" transform="translate(0 -3) translate(205 145.726) translate(198 195)"/>
                                            <path stroke="#000" stroke-width=".565" d="M0.633 0.558L0.633 6.754" transform="translate(0 -3) translate(205 145.726) translate(198 195)"/>
                                        </g>
                                        <g>
                                            <path fill="#FFF" d="M0.834 0.558L0.834 6.754" transform="translate(0 -3) translate(205 145.726) translate(201 195)"/>
                                            <path stroke="#000" stroke-width=".565" d="M0.834 0.558L0.834 6.754" transform="translate(0 -3) translate(205 145.726) translate(201 195)"/>
                                        </g>
                                        <g>
                                            <path fill="#FFF" d="M1.035 0.558L1.035 6.754" transform="translate(0 -3) translate(205 145.726) translate(204 195)"/>
                                            <path stroke="#000" stroke-width=".565" d="M1.035 0.558L1.035 6.754" transform="translate(0 -3) translate(205 145.726) translate(204 195)"/>
                                        </g>
                                        <g>
                                            <path fill="#FFF" d="M1.236 0.558L1.236 6.754" transform="translate(0 -3) translate(205 145.726) translate(207 195)"/>
                                            <path stroke="#000" stroke-width=".565" d="M1.236 0.558L1.236 6.754" transform="translate(0 -3) translate(205 145.726) translate(207 195)"/>
                                        </g>
                                        <g>
                                            <path fill="#FFF" d="M1.438 0.558L1.438 6.754" transform="translate(0 -3) translate(205 145.726) translate(210 195)"/>
                                            <path stroke="#000" stroke-width=".565" d="M1.438 0.558L1.438 6.754" transform="translate(0 -3) translate(205 145.726) translate(210 195)"/>
                                        </g>
                                        <g>
                                            <path fill="#FFF" d="M1.032 0.558L1.032 6.754" transform="translate(0 -3) translate(205 145.726) translate(196 195)"/>
                                            <path stroke="#000" stroke-width=".565" d="M1.032 0.558L1.032 6.754" transform="translate(0 -3) translate(205 145.726) translate(196 195)"/>
                                        </g>
                                        <g>
                                            <path fill="#FFF" d="M1.234 0.558L1.234 6.754" transform="translate(0 -3) translate(205 145.726) translate(199 195)"/>
                                            <path stroke="#000" stroke-width=".565" d="M1.234 0.558L1.234 6.754" transform="translate(0 -3) translate(205 145.726) translate(199 195)"/>
                                        </g>
                                        <g>
                                            <path fill="#FFF" d="M1.435 0.558L1.435 6.754" transform="translate(0 -3) translate(205 145.726) translate(202 195)"/>
                                            <path stroke="#000" stroke-width=".565" d="M1.435 0.558L1.435 6.754" transform="translate(0 -3) translate(205 145.726) translate(202 195)"/>
                                        </g>
                                        <g>
                                            <path fill="#FFF" d="M0.636 0.558L0.636 6.754" transform="translate(0 -3) translate(205 145.726) translate(206 195)"/>
                                            <path stroke="#000" stroke-width=".565" d="M0.636 0.558L0.636 6.754" transform="translate(0 -3) translate(205 145.726) translate(206 195)"/>
                                        </g>
                                        <g>
                                            <path fill="#FFF" d="M0.837 0.558L0.837 6.754" transform="translate(0 -3) translate(205 145.726) translate(209 195)"/>
                                            <path stroke="#000" stroke-width=".565" d="M0.837 0.558L0.837 6.754" transform="translate(0 -3) translate(205 145.726) translate(209 195)"/>
                                        </g>
                                        <g>
                                            <path fill="#FFF" d="M1.432 0.813L1.432 7.008" transform="translate(0 -3) translate(205 145.726) translate(194 209)"/>
                                            <path stroke="#000" stroke-width=".565" d="M1.432 0.813L1.432 7.008" transform="translate(0 -3) translate(205 145.726) translate(194 209)"/>
                                        </g>
                                        <g>
                                            <path fill="#FFF" d="M0.633 0.813L0.633 7.008" transform="translate(0 -3) translate(205 145.726) translate(198 209)"/>
                                            <path stroke="#000" stroke-width=".565" d="M0.633 0.813L0.633 7.008" transform="translate(0 -3) translate(205 145.726) translate(198 209)"/>
                                        </g>
                                        <g>
                                            <path fill="#FFF" d="M0.834 0.813L0.834 7.008" transform="translate(0 -3) translate(205 145.726) translate(201 209)"/>
                                            <path stroke="#000" stroke-width=".565" d="M0.834 0.813L0.834 7.008" transform="translate(0 -3) translate(205 145.726) translate(201 209)"/>
                                        </g>
                                        <g>
                                            <path fill="#FFF" d="M1.035 0.813L1.035 7.008" transform="translate(0 -3) translate(205 145.726) translate(204 209)"/>
                                            <path stroke="#000" stroke-width=".565" d="M1.035 0.813L1.035 7.008" transform="translate(0 -3) translate(205 145.726) translate(204 209)"/>
                                        </g>
                                        <g>
                                            <path fill="#FFF" d="M1.236 0.813L1.236 7.008" transform="translate(0 -3) translate(205 145.726) translate(207 209)"/>
                                            <path stroke="#000" stroke-width=".565" d="M1.236 0.813L1.236 7.008" transform="translate(0 -3) translate(205 145.726) translate(207 209)"/>
                                        </g>
                                        <g>
                                            <path fill="#FFF" d="M1.438 0.813L1.438 7.008" transform="translate(0 -3) translate(205 145.726) translate(210 209)"/>
                                            <path stroke="#000" stroke-width=".565" d="M1.438 0.813L1.438 7.008" transform="translate(0 -3) translate(205 145.726) translate(210 209)"/>
                                        </g>
                                        <g>
                                            <path fill="#FFF" d="M1.032 0.813L1.032 7.008" transform="translate(0 -3) translate(205 145.726) translate(196 209)"/>
                                            <path stroke="#000" stroke-width=".565" d="M1.032 0.813L1.032 7.008" transform="translate(0 -3) translate(205 145.726) translate(196 209)"/>
                                        </g>
                                        <g>
                                            <path fill="#FFF" d="M1.234 0.813L1.234 7.008" transform="translate(0 -3) translate(205 145.726) translate(199 209)"/>
                                            <path stroke="#000" stroke-width=".565" d="M1.234 0.813L1.234 7.008" transform="translate(0 -3) translate(205 145.726) translate(199 209)"/>
                                        </g>
                                        <g>
                                            <path fill="#FFF" d="M1.435 0.813L1.435 7.008" transform="translate(0 -3) translate(205 145.726) translate(202 209)"/>
                                            <path stroke="#000" stroke-width=".565" d="M1.435 0.813L1.435 7.008" transform="translate(0 -3) translate(205 145.726) translate(202 209)"/>
                                        </g>
                                        <g>
                                            <path fill="#FFF" d="M0.636 0.813L0.636 7.008" transform="translate(0 -3) translate(205 145.726) translate(206 209)"/>
                                            <path stroke="#000" stroke-width=".565" d="M0.636 0.813L0.636 7.008" transform="translate(0 -3) translate(205 145.726) translate(206 209)"/>
                                        </g>
                                        <g>
                                            <path fill="#FFF" d="M0.837 0.813L0.837 7.008" transform="translate(0 -3) translate(205 145.726) translate(209 209)"/>
                                            <path stroke="#000" stroke-width=".565" d="M0.837 0.813L0.837 7.008" transform="translate(0 -3) translate(205 145.726) translate(209 209)"/>
                                        </g>
                                        <path fill="#E6E8EB" d="M228.27 209.947s.187-1.192 1.877-2.007c1.69-.813 5.93-1.964 11.109-1.249 5.18.715 6.54 2 6.54 2l.623 1.377-.001 15.146s-.685 1.815-4.158 2.566c-3.473.751-10.39 1.001-13.706-.532 0 0-2.097-.876-2.284-2.19v-15.11z" transform="translate(0 -3) translate(205 145.726)"/>
                                        <path stroke="#000" stroke-width=".565" d="M248.419 209.813s-.778-3.346-10.378-3.346-9.771 3.416-9.771 3.416v15.212s1.055 3.44 10.068 3.44c9.014 0 10.08-3.44 10.08-3.44v-15.282z" transform="translate(0 -3) translate(205 145.726)"/>
                                        <path stroke="#000" stroke-width=".565" d="M228.27 215.262s1.125 3.297 10.205 3.21c9.079-.087 9.944-3.21 9.944-3.21M228.27 220.22s1.125 3.296 10.205 3.209c9.079-.086 9.944-3.21 9.944-3.21M228.27 210.305s1.125 3.296 10.205 3.209c9.079-.087 9.944-3.21 9.944-3.21" transform="translate(0 -3) translate(205 145.726)"/>
                                        <path stroke="#C5C8CF" stroke-width=".75" d="M165.558 5.598L4.951 5.598" transform="translate(0 -3) translate(205 145.726)"/>
                                        <path fill="#C5C8CF" d="M159.582 5.598L159.582 0.836 163.706 3.217 167.83 5.598 163.706 7.979 159.582 10.361z" transform="translate(0 -3) translate(205 145.726)"/>
                                        <path stroke="#C5C8CF" stroke-width=".75" d="M3.099 18.663L163.706 18.663" transform="translate(0 -3) translate(205 145.726)"/>
                                        <path fill="#C5C8CF" d="M9.075 18.663L9.075 23.425 4.951 21.044 0.827 18.663 4.951 16.282 9.075 13.901z" transform="translate(0 -3) translate(205 145.726)"/>
                                    </g>
                                    <text font-family="NotoSansCJKkr-Medium, Noto Sans CJK KR" font-size="12" font-weight="400" transform="translate(0 -3)">
                                        <tspan x="238.553" y="182.48" fill="#000">Mana</tspan> <tspan x="269.801" y="182.48" fill="#000" letter-spacing="-.204">g</tspan> <tspan x="276.329" y="182.48" fill="#000">ement d</tspan> <tspan x="323.693" y="182.48" fill="#000" letter-spacing="-.204">a</tspan> <tspan x="330.185" y="182.48" fill="#000" letter-spacing="-.288">t</tspan> <tspan x="334.361" y="182.48" fill="#000">a</tspan>
                                    </text>
                                    <text font-family="NotoSansCJKkr-Medium, Noto Sans CJK KR" font-size="12" font-weight="400" transform="translate(0 -3)">
                                        <tspan x="205.925" y="204.08" fill="#000">A</tspan> <tspan x="213.389" y="204.08" fill="#000" letter-spacing="-.312">c</tspan> <tspan x="218.969" y="204.08" fill="#000">cident </tspan> <tspan x="257.897" y="204.08" fill="#000" letter-spacing="-.131">r</tspan> <tspan x="262.542" y="204.08" fill="#000">esponse </tspan> <tspan x="312.738" y="204.08" fill="#000" letter-spacing="-.132">r</tspan> <tspan x="317.382" y="204.08" fill="#000">esult d</tspan> <tspan x="355.95" y="204.08" fill="#000" letter-spacing="-.205">a</tspan> <tspan x="362.441" y="204.08" fill="#000" letter-spacing="-.287">t</tspan> <tspan x="366.618" y="204.08" fill="#000">a</tspan>
                                    </text>
                                    <text font-family="NotoSansCJKkr-Medium, Noto Sans CJK KR" font-size="12" font-weight="400" transform="translate(0 -3)">
                                        <tspan x="493.529" y="111.524" fill="#000">A</tspan> <tspan x="500.993" y="111.524" fill="#000" letter-spacing="-.312">c</tspan> <tspan x="506.573" y="111.524" fill="#000">cident risk d</tspan> <tspan x="576.773" y="111.524" fill="#000" letter-spacing="-.204">a</tspan> <tspan x="583.265" y="111.524" fill="#000" letter-spacing="-.288">t</tspan> <tspan x="587.441" y="111.524" fill="#000">a</tspan>
                                    </text>
                                    <text font-family="NotoSansCJKkr-Medium, Noto Sans CJK KR" font-size="12" font-weight="400" transform="translate(0 -3)">
                                        <tspan x="469.169" y="133.124" fill="#000">AR a</tspan> <tspan x="494.093" y="133.124" fill="#000" letter-spacing="-.312">c</tspan> <tspan x="499.673" y="133.124" fill="#000">cident </tspan> <tspan x="538.601" y="133.124" fill="#000" letter-spacing="-.131">r</tspan> <tspan x="543.246" y="133.124" fill="#000">esponse d</tspan> <tspan x="601.002" y="133.124" fill="#000" letter-spacing="-.204">a</tspan> <tspan x="607.494" y="133.124" fill="#000" letter-spacing="-.288">t</tspan> <tspan x="611.67" y="133.124" fill="#000">a</tspan>
                                    </text>
                                    <g>
                                        <path stroke="#C5C8CF" stroke-width=".75" d="M165.494 5.598L4.887 5.598" transform="translate(0 -3) translate(461 145.726)"/>
                                        <path fill="#C5C8CF" d="M159.519 5.598L159.519 0.836 163.643 3.217 167.767 5.598 163.643 7.979 159.519 10.361z" transform="translate(0 -3) translate(461 145.726)"/>
                                        <path stroke="#C5C8CF" stroke-width=".75" d="M3.036 18.663L163.643 18.663" transform="translate(0 -3) translate(461 145.726)"/>
                                        <path fill="#C5C8CF" d="M9.011 18.663L9.011 23.425 4.887 21.044 0.763 18.663 4.887 16.282 9.011 13.901z" transform="translate(0 -3) translate(461 145.726)"/>
                                    </g>
                                    <text font-family="NotoSansCJKkr-Medium, Noto Sans CJK KR" font-size="12" font-weight="400" transform="translate(0 -3)">
                                        <tspan x="493.914" y="182.48" fill="#000">A</tspan> <tspan x="501.378" y="182.48" fill="#000" letter-spacing="-.312">c</tspan> <tspan x="506.958" y="182.48" fill="#000">cident </tspan> <tspan x="545.886" y="182.48" fill="#000" letter-spacing="-.131">r</tspan> <tspan x="550.531" y="182.48" fill="#000">esponse</tspan>
                                    </text>
                                    <text font-family="NotoSansCJKkr-Medium, Noto Sans CJK KR" font-size="12" font-weight="400" letter-spacing="-.132" transform="translate(0 -3)">
                                        <tspan x="515.49" y="198.476" fill="#000">r</tspan> <tspan x="520.134" y="198.476" fill="#000">esult d</tspan> <tspan x="558.702" y="198.476" fill="#000" letter-spacing="-.205">a</tspan> <tspan x="565.193" y="198.476" fill="#000" letter-spacing="-.287">t</tspan> <tspan x="569.37" y="198.476" fill="#000">a</tspan>
                                    </text>
                                    <g>
                                        <path fill="#E6E8EB" d="M83.019.138C37.735.138.894 36.978.894 82.262v234.166c0 45.282 36.84 82.123 82.125 82.123 45.283 0 82.123-36.841 82.123-82.123V82.262c0-45.283-36.84-82.124-82.123-82.124" transform="translate(0 -3) translate(24 24.726)"/>
                                        <path stroke="#0A51B7" stroke-dasharray="2.268 2.268" stroke-width=".75" d="M83.018.138C37.734.138.893 36.98.893 82.262v234.166c0 45.282 36.841 82.123 82.125 82.123 45.283 0 82.124-36.841 82.124-82.123V82.262c0-45.282-36.84-82.124-82.124-82.124z" transform="translate(0 -3) translate(24 24.726)"/>
                                    </g>
                                    <text font-family="NotoSansCJKkr-Medium, Noto Sans CJK KR" font-size="12" font-weight="400" transform="translate(0 -3)">
                                        <tspan x="28.139" y="182.46" fill="#000">Check a</tspan> <tspan x="72.827" y="182.46" fill="#000" letter-spacing="-.312">c</tspan> <tspan x="78.407" y="182.46" fill="#000">cident in</tspan> <tspan x="128.267" y="182.46" fill="#000" letter-spacing="-.132">f</tspan> <tspan x="132.143" y="182.46" fill="#000">orm</tspan> <tspan x="155.723" y="182.46" fill="#000" letter-spacing="-.204">a</tspan> <tspan x="162.215" y="182.46" fill="#000">tion</tspan>
                                    </text>
                                    <text font-family="NotoSansCJKkr-Medium, Noto Sans CJK KR" font-size="12" font-weight="400" transform="translate(0 -3)">
                                        <tspan x="37.835" y="198.456" fill="#000">&amp; risk analysis modeling</tspan>
                                    </text>
                                    <text font-family="NotoSansCJKkr-Medium, Noto Sans CJK KR" font-size="12" font-weight="400" letter-spacing="-.132" transform="translate(0 -3)">
                                        <tspan x="34.715" y="347.724" fill="#000">E</tspan> <tspan x="41.651" y="347.724" fill="#000">dit / p</tspan> <tspan x="75.047" y="347.724" fill="#000">r</tspan> <tspan x="79.691" y="347.724" fill="#000">odu</tspan> <tspan x="102.059" y="347.724" fill="#000" letter-spacing="-.312">c</tspan> <tspan x="107.639" y="347.724" fill="#000">e AR manual</tspan>
                                    </text>
                                    <text font-family="NotoSansCJKkr-Medium, Noto Sans CJK KR" font-size="12" font-weight="400" letter-spacing="-.132" transform="translate(0 -3)">
                                        <tspan x="38.231" y="363.72" fill="#000">f</tspan> <tspan x="42.107" y="363.72" fill="#000">or </tspan> <tspan x="57.083" y="363.72" fill="#000" letter-spacing="-.131">r</tspan> <tspan x="61.728" y="363.72" fill="#000">esponse </tspan> <tspan x="111.924" y="363.72" fill="#000" letter-spacing="-.204">t</tspan> <tspan x="116.268" y="363.72" fill="#000">o a</tspan> <tspan x="133.236" y="363.72" fill="#000" letter-spacing="-.312">c</tspan> <tspan x="138.816" y="363.72" fill="#000">cident</tspan>
                                    </text>
                                    <g transform="translate(0 -3) translate(0 .726)">
                                        <path fill="#FFF" d="M163.384 273.086c0 31.125-25.232 56.357-56.357 56.357S50.67 304.21 50.67 273.086s25.232-56.357 56.357-56.357 56.357 25.232 56.357 56.357"/>
                                        <path stroke="#C5C8CF" stroke-width=".75" d="M163.384 273.086c0 31.125-25.232 56.357-56.357 56.357S50.67 304.21 50.67 273.086s25.232-56.357 56.357-56.357 56.357 25.232 56.357 56.357z"/>
                                        <path fill="#FFF" d="M163.384 108.38c0 31.126-25.232 56.358-56.357 56.358S50.67 139.506 50.67 108.38s25.232-56.357 56.357-56.357 56.357 25.232 56.357 56.357"/>
                                        <path stroke="#C5C8CF" stroke-width=".75" d="M163.384 108.38c0 31.126-25.232 56.358-56.357 56.358S50.67 139.506 50.67 108.38s25.232-56.357 56.357-56.357 56.357 25.232 56.357 56.357z"/>
                                        <path fill="#007CF7" d="M80.419 117.33L76.08 113.862 76.08 102.64 80.419 99.172z"/>
                                        <path fill="#6FB6FB" d="M88.134 117.33L92.473 113.862 92.473 102.64 88.134 99.172z"/>
                                        <path fill="#0065C7" d="M88.134 99.172L84.276 101.706 88.134 104.302z"/>
                                        <path fill="#0065C7" d="M80.419 99.172L84.277 101.706 80.419 104.302zM88.134 112.2L84.276 114.734 88.134 117.33z"/>
                                        <path fill="#0065C7" d="M80.419 112.2L84.277 114.734 80.419 117.33z"/>
                                        <path fill="#273A5B" d="M120.494 112.275L118.319 105.623 116.37 105.623 114.194 112.277 112.234 105.623 110.186 105.623 113.214 115.012 115.125 115.012 117.298 108.262 119.489 115.012 121.419 115.012 124.447 105.623 122.436 105.623zM137.036 106.323c-.625-.663-1.524-.999-2.674-.999-.602 0-1.19.155-1.748.462-.464.257-.833.571-1.1.936v-1.099h-1.885v9.39h1.96v-5.18c0-.74.222-1.383.662-1.913.441-.53.973-.788 1.626-.788 1.404 0 2.103.695 2.138 2.121v5.76h1.96v-5.873c0-1.208-.316-2.155-.939-2.817"/>
                                        <mask id="6u1clrqfkd" fill="#fff">
                                            <use xlink:href="#u42jgbu82c"/>
                                        </mask>
                                        <path fill="#273A5B" d="M125.672 115.013L127.629 115.013 127.629 105.333 125.672 105.333zM125.584 103.546L127.717 103.546 127.717 101.415 125.584 101.415zM112.43 101.404L99.955 101.404 99.955 103.298 105.208 103.298 105.208 115.098 107.177 115.098 107.177 103.298 112.43 103.298z" mask="url(#6u1clrqfkd)"/>
                                    </g>
                                    <text font-family="NotoSansCJKkr-Bold, Noto Sans CJK KR" font-size="18" font-weight="bold" transform="translate(0 -3)">
                                        <tspan x="381.413" y="209.694" fill="#092E6E">A</tspan> <tspan x="392.951" y="209.694" fill="#092E6E" letter-spacing="-.54">c</tspan> <tspan x="401.357" y="209.694" fill="#092E6E">cident</tspan>
                                    </text>
                                    <text font-family="NotoSansCJKkr-Bold, Noto Sans CJK KR" font-size="18" font-weight="bold" transform="translate(0 -3)">
                                        <tspan x="330.527" y="231.294" fill="#092E6E">Mana</tspan> <tspan x="378.713" y="231.294" fill="#092E6E" letter-spacing="-.344">g</tspan> <tspan x="388.773" y="231.294" fill="#092E6E">ement Se</tspan> <tspan x="471.915" y="231.294" fill="#092E6E" letter-spacing=".252">r</tspan> <tspan x="480.267" y="231.294" fill="#092E6E" letter-spacing="-.144">v</tspan> <tspan x="490.347" y="231.294" fill="#092E6E">er</tspan>
                                    </text>
                                    <g transform="translate(0 -3) translate(0 .726)">
                                        <path fill="#E6E8EB" d="M398.628 150.332L398.628 181.672 436.461 181.672 436.461 150.042z"/>
                                        <path stroke="#000" stroke-width=".565" d="M398.628 150.332L398.628 181.672 436.461 181.672 436.461 150.042z"/>
                                        <path fill="#FFF" d="M397.385 150.28c-1.382 0-2.507-1.126-2.507-2.508v-6.155c0-1.382 1.125-2.507 2.507-2.507h40.176c1.383 0 2.507 1.125 2.507 2.507v6.155c0 1.382-1.124 2.507-2.507 2.507h-40.176z"/>
                                        <path fill="#000" d="M437.561 138.828h-40.176c-1.534 0-2.79 1.255-2.79 2.79v6.154c0 1.535 1.256 2.79 2.79 2.79h40.176c1.534 0 2.79-1.255 2.79-2.79v-6.154c0-1.535-1.256-2.79-2.79-2.79m0 .564c1.227 0 2.225.998 2.225 2.226v6.154c0 1.227-.998 2.225-2.225 2.225h-40.176c-1.227 0-2.225-.998-2.225-2.225v-6.154c0-1.228.998-2.226 2.225-2.226h40.176"/>
                                        <path fill="#FFF" d="M397.385 164.534c-1.382 0-2.507-1.125-2.507-2.507v-6.155c0-1.382 1.125-2.507 2.507-2.507h40.176c1.383 0 2.507 1.125 2.507 2.507v6.155c0 1.382-1.124 2.507-2.507 2.507h-40.176z"/>
                                        <path fill="#000" d="M437.561 153.083h-40.176c-1.534 0-2.79 1.256-2.79 2.789v6.155c0 1.535 1.256 2.79 2.79 2.79h40.176c1.534 0 2.79-1.255 2.79-2.79v-6.155c0-1.533-1.256-2.789-2.79-2.789m0 .564c1.227 0 2.225.998 2.225 2.225v6.155c0 1.228-.998 2.226-2.225 2.226h-40.176c-1.227 0-2.225-.998-2.225-2.226v-6.155c0-1.227.998-2.225 2.225-2.225h40.176"/>
                                        <path fill="#FFF" d="M397.385 178.71c-1.382 0-2.507-1.125-2.507-2.508v-6.154c0-1.383 1.125-2.508 2.507-2.508h40.176c1.383 0 2.507 1.125 2.507 2.508v6.154c0 1.383-1.124 2.508-2.507 2.508h-40.176z"/>
                                        <path fill="#000" d="M437.561 167.259h-40.176c-1.534 0-2.79 1.254-2.79 2.789v6.154c0 1.536 1.256 2.789 2.79 2.789h40.176c1.534 0 2.79-1.253 2.79-2.79v-6.153c0-1.535-1.256-2.79-2.79-2.79m0 .565c1.227 0 2.225.998 2.225 2.225v6.154c0 1.227-.998 2.225-2.225 2.225h-40.176c-1.227 0-2.225-.998-2.225-2.225v-6.154c0-1.227.998-2.225 2.225-2.225h40.176"/>
                                        <path fill="#0A51B7" d="M423.078 146.3c-.885 0-1.605-.72-1.605-1.604 0-.885.72-1.606 1.605-1.606s1.605.72 1.605 1.606c0 .884-.72 1.605-1.605 1.605"/>
                                        <path fill="#000" d="M423.078 142.808c-1.042 0-1.888.846-1.888 1.888 0 1.042.846 1.887 1.888 1.887 1.042 0 1.887-.845 1.887-1.887s-.845-1.888-1.887-1.888m0 .564c.729 0 1.322.594 1.322 1.324 0 .729-.593 1.323-1.322 1.323-.73 0-1.323-.594-1.323-1.323 0-.73.594-1.324 1.323-1.324"/>
                                        <path fill="#0A51B7" d="M428.899 146.3c-.885 0-1.605-.72-1.605-1.604 0-.885.72-1.606 1.605-1.606s1.605.72 1.605 1.606c0 .884-.72 1.605-1.605 1.605"/>
                                        <path fill="#000" d="M428.899 142.808c-1.042 0-1.888.846-1.888 1.888 0 1.042.846 1.887 1.888 1.887 1.042 0 1.888-.845 1.888-1.887s-.846-1.888-1.888-1.888m0 .564c.729 0 1.323.594 1.323 1.324 0 .729-.594 1.323-1.323 1.323s-1.323-.594-1.323-1.323c0-.73.594-1.324 1.323-1.324"/>
                                        <path fill="#0A51B7" d="M434.72 146.3c-.885 0-1.605-.72-1.605-1.604 0-.885.72-1.606 1.605-1.606s1.605.72 1.605 1.606c0 .884-.72 1.605-1.605 1.605"/>
                                        <path fill="#000" d="M434.72 142.808c-1.042 0-1.887.846-1.887 1.888 0 1.042.845 1.887 1.887 1.887 1.043 0 1.888-.845 1.888-1.887s-.845-1.888-1.888-1.888m0 .564c.73 0 1.323.594 1.323 1.324 0 .729-.594 1.323-1.323 1.323s-1.322-.594-1.322-1.323c0-.73.593-1.324 1.322-1.324"/>
                                        <path fill="#0A51B7" d="M423.078 160.556c-.885 0-1.605-.721-1.605-1.605 0-.885.72-1.606 1.605-1.606s1.605.72 1.605 1.606c0 .884-.72 1.605-1.605 1.605"/>
                                        <path fill="#000" d="M423.078 157.063c-1.042 0-1.888.845-1.888 1.888 0 1.042.846 1.886 1.888 1.886 1.042 0 1.887-.844 1.887-1.886 0-1.043-.845-1.888-1.887-1.888m0 .564c.729 0 1.322.593 1.322 1.323s-.593 1.323-1.322 1.323c-.73 0-1.323-.594-1.323-1.322 0-.73.594-1.325 1.323-1.325"/>
                                        <path fill="#0A51B7" d="M428.899 160.556c-.885 0-1.605-.721-1.605-1.605 0-.885.72-1.606 1.605-1.606s1.605.72 1.605 1.606c0 .884-.72 1.605-1.605 1.605"/>
                                        <path fill="#000" d="M428.899 157.063c-1.042 0-1.888.845-1.888 1.888 0 1.042.846 1.886 1.888 1.886 1.042 0 1.888-.844 1.888-1.886 0-1.043-.846-1.888-1.888-1.888m0 .564c.729 0 1.323.593 1.323 1.323s-.594 1.323-1.323 1.323-1.323-.594-1.323-1.322c0-.73.594-1.325 1.323-1.325"/>
                                        <path fill="#0A51B7" d="M434.72 160.556c-.885 0-1.605-.721-1.605-1.605 0-.885.72-1.606 1.605-1.606s1.605.72 1.605 1.606c0 .884-.72 1.605-1.605 1.605"/>
                                        <path fill="#000" d="M434.72 157.063c-1.042 0-1.887.845-1.887 1.888 0 1.042.845 1.886 1.887 1.886 1.043 0 1.888-.844 1.888-1.886 0-1.043-.845-1.888-1.888-1.888m0 .564c.73 0 1.323.593 1.323 1.323s-.594 1.323-1.323 1.323-1.322-.594-1.322-1.322c0-.73.593-1.325 1.322-1.325"/>
                                        <path fill="#0A51B7" d="M423.078 174.73c-.885 0-1.605-.72-1.605-1.605s.72-1.606 1.605-1.606 1.605.721 1.605 1.606c0 .885-.72 1.606-1.605 1.606"/>
                                        <path fill="#000" d="M423.078 171.237c-1.042 0-1.888.846-1.888 1.888 0 1.042.846 1.887 1.888 1.887 1.042 0 1.887-.845 1.887-1.887s-.845-1.888-1.887-1.888m0 .564c.729 0 1.322.594 1.322 1.324 0 .73-.593 1.323-1.322 1.323-.73 0-1.323-.594-1.323-1.323 0-.73.594-1.324 1.323-1.324"/>
                                        <path fill="#0A51B7" d="M428.899 174.73c-.885 0-1.605-.72-1.605-1.605s.72-1.606 1.605-1.606 1.605.721 1.605 1.606c0 .885-.72 1.606-1.605 1.606"/>
                                        <path fill="#000" d="M428.899 171.237c-1.042 0-1.888.846-1.888 1.888 0 1.042.846 1.887 1.888 1.887 1.042 0 1.888-.845 1.888-1.887s-.846-1.888-1.888-1.888m0 .564c.729 0 1.323.594 1.323 1.324 0 .73-.594 1.323-1.323 1.323s-1.323-.594-1.323-1.323c0-.73.594-1.324 1.323-1.324"/>
                                        <path fill="#0A51B7" d="M434.72 174.73c-.885 0-1.605-.72-1.605-1.605s.72-1.606 1.605-1.606 1.605.721 1.605 1.606c0 .885-.72 1.606-1.605 1.606"/>
                                        <path fill="#000" d="M434.72 171.237c-1.042 0-1.887.846-1.887 1.888 0 1.042.845 1.887 1.887 1.887 1.043 0 1.888-.845 1.888-1.887s-.845-1.888-1.888-1.888m0 .564c.73 0 1.323.594 1.323 1.324 0 .73-.594 1.323-1.323 1.323s-1.322-.594-1.322-1.323c0-.73.593-1.324 1.322-1.324"/>
                                        <g>
                                            <path fill="#FFF" d="M1.431 0.598L1.431 6.793" transform="translate(398 141)"/>
                                            <path stroke="#000" stroke-width=".565" d="M1.431 0.598L1.431 6.793" transform="translate(398 141)"/>
                                        </g>
                                        <g>
                                            <path fill="#FFF" d="M0.632 0.598L0.632 6.793" transform="translate(402 141)"/>
                                            <path stroke="#000" stroke-width=".565" d="M0.632 0.598L0.632 6.793" transform="translate(402 141)"/>
                                        </g>
                                        <g>
                                            <path fill="#FFF" d="M0.834 0.598L0.834 6.793" transform="translate(405 141)"/>
                                            <path stroke="#000" stroke-width=".565" d="M0.834 0.598L0.834 6.793" transform="translate(405 141)"/>
                                        </g>
                                        <g>
                                            <path fill="#FFF" d="M1.035 0.598L1.035 6.793" transform="translate(408 141)"/>
                                            <path stroke="#000" stroke-width=".565" d="M1.035 0.598L1.035 6.793" transform="translate(408 141)"/>
                                        </g>
                                        <g>
                                            <path fill="#FFF" d="M1.236 0.598L1.236 6.793" transform="translate(411 141)"/>
                                            <path stroke="#000" stroke-width=".565" d="M1.236 0.598L1.236 6.793" transform="translate(411 141)"/>
                                        </g>
                                        <g>
                                            <path fill="#FFF" d="M1.437 0.598L1.437 6.793" transform="translate(414 141)"/>
                                            <path stroke="#000" stroke-width=".565" d="M1.437 0.598L1.437 6.793" transform="translate(414 141)"/>
                                        </g>
                                        <g>
                                            <path fill="#FFF" d="M1.032 0.598L1.032 6.793" transform="translate(400 141)"/>
                                            <path stroke="#000" stroke-width=".565" d="M1.032 0.598L1.032 6.793" transform="translate(400 141)"/>
                                        </g>
                                        <g>
                                            <path fill="#FFF" d="M1.233 0.598L1.233 6.793" transform="translate(403 141)"/>
                                            <path stroke="#000" stroke-width=".565" d="M1.233 0.598L1.233 6.793" transform="translate(403 141)"/>
                                        </g>
                                        <g>
                                            <path fill="#FFF" d="M1.434 0.598L1.434 6.793" transform="translate(406 141)"/>
                                            <path stroke="#000" stroke-width=".565" d="M1.434 0.598L1.434 6.793" transform="translate(406 141)"/>
                                        </g>
                                        <g>
                                            <path fill="#FFF" d="M0.635 0.598L0.635 6.793" transform="translate(410 141)"/>
                                            <path stroke="#000" stroke-width=".565" d="M0.635 0.598L0.635 6.793" transform="translate(410 141)"/>
                                        </g>
                                        <g>
                                            <path fill="#FFF" d="M0.837 0.598L0.837 6.793" transform="translate(413 141)"/>
                                            <path stroke="#000" stroke-width=".565" d="M0.837 0.598L0.837 6.793" transform="translate(413 141)"/>
                                        </g>
                                        <g>
                                            <path fill="#FFF" d="M1.431 0.853L1.431 7.048" transform="translate(398 155)"/>
                                            <path stroke="#000" stroke-width=".565" d="M1.431 0.853L1.431 7.048" transform="translate(398 155)"/>
                                        </g>
                                        <g>
                                            <path fill="#FFF" d="M0.632 0.853L0.632 7.048" transform="translate(402 155)"/>
                                            <path stroke="#000" stroke-width=".565" d="M0.632 0.853L0.632 7.048" transform="translate(402 155)"/>
                                        </g>
                                        <g>
                                            <path fill="#FFF" d="M0.834 0.853L0.834 7.048" transform="translate(405 155)"/>
                                            <path stroke="#000" stroke-width=".565" d="M0.834 0.853L0.834 7.048" transform="translate(405 155)"/>
                                        </g>
                                        <g>
                                            <path fill="#FFF" d="M1.035 0.853L1.035 7.048" transform="translate(408 155)"/>
                                            <path stroke="#000" stroke-width=".565" d="M1.035 0.853L1.035 7.048" transform="translate(408 155)"/>
                                        </g>
                                        <g>
                                            <path fill="#FFF" d="M1.236 0.853L1.236 7.048" transform="translate(411 155)"/>
                                            <path stroke="#000" stroke-width=".565" d="M1.236 0.853L1.236 7.048" transform="translate(411 155)"/>
                                        </g>
                                        <g>
                                            <path fill="#FFF" d="M1.437 0.853L1.437 7.048" transform="translate(414 155)"/>
                                            <path stroke="#000" stroke-width=".565" d="M1.437 0.853L1.437 7.048" transform="translate(414 155)"/>
                                        </g>
                                        <g>
                                            <path fill="#FFF" d="M1.032 0.853L1.032 7.048" transform="translate(400 155)"/>
                                            <path stroke="#000" stroke-width=".565" d="M1.032 0.853L1.032 7.048" transform="translate(400 155)"/>
                                        </g>
                                        <g>
                                            <path fill="#FFF" d="M1.233 0.853L1.233 7.048" transform="translate(403 155)"/>
                                            <path stroke="#000" stroke-width=".565" d="M1.233 0.853L1.233 7.048" transform="translate(403 155)"/>
                                        </g>
                                        <g>
                                            <path fill="#FFF" d="M1.434 0.853L1.434 7.048" transform="translate(406 155)"/>
                                            <path stroke="#000" stroke-width=".565" d="M1.434 0.853L1.434 7.048" transform="translate(406 155)"/>
                                        </g>
                                        <g>
                                            <path fill="#FFF" d="M0.635 0.853L0.635 7.048" transform="translate(410 155)"/>
                                            <path stroke="#000" stroke-width=".565" d="M0.635 0.853L0.635 7.048" transform="translate(410 155)"/>
                                        </g>
                                        <g>
                                            <path fill="#FFF" d="M0.837 0.853L0.837 7.048" transform="translate(413 155)"/>
                                            <path stroke="#000" stroke-width=".565" d="M0.837 0.853L0.837 7.048" transform="translate(413 155)"/>
                                        </g>
                                        <g>
                                            <path fill="#FFF" d="M1.431 0.107L1.431 6.302" transform="translate(398 170)"/>
                                            <path stroke="#000" stroke-width=".565" d="M1.431 0.107L1.431 6.302" transform="translate(398 170)"/>
                                        </g>
                                        <g>
                                            <path fill="#FFF" d="M0.632 0.107L0.632 6.302" transform="translate(402 170)"/>
                                            <path stroke="#000" stroke-width=".565" d="M0.632 0.107L0.632 6.302" transform="translate(402 170)"/>
                                        </g>
                                        <g>
                                            <path fill="#FFF" d="M0.834 0.107L0.834 6.302" transform="translate(405 170)"/>
                                            <path stroke="#000" stroke-width=".565" d="M0.834 0.107L0.834 6.302" transform="translate(405 170)"/>
                                        </g>
                                        <g>
                                            <path fill="#FFF" d="M1.035 0.107L1.035 6.302" transform="translate(408 170)"/>
                                            <path stroke="#000" stroke-width=".565" d="M1.035 0.107L1.035 6.302" transform="translate(408 170)"/>
                                        </g>
                                        <g>
                                            <path fill="#FFF" d="M1.236 0.107L1.236 6.302" transform="translate(411 170)"/>
                                            <path stroke="#000" stroke-width=".565" d="M1.236 0.107L1.236 6.302" transform="translate(411 170)"/>
                                        </g>
                                        <g>
                                            <path fill="#FFF" d="M1.437 0.107L1.437 6.302" transform="translate(414 170)"/>
                                            <path stroke="#000" stroke-width=".565" d="M1.437 0.107L1.437 6.302" transform="translate(414 170)"/>
                                        </g>
                                        <g>
                                            <path fill="#FFF" d="M1.032 0.107L1.032 6.302" transform="translate(400 170)"/>
                                            <path stroke="#000" stroke-width=".565" d="M1.032 0.107L1.032 6.302" transform="translate(400 170)"/>
                                        </g>
                                        <g>
                                            <path fill="#FFF" d="M1.233 0.107L1.233 6.302" transform="translate(403 170)"/>
                                            <path stroke="#000" stroke-width=".565" d="M1.233 0.107L1.233 6.302" transform="translate(403 170)"/>
                                        </g>
                                        <g>
                                            <path fill="#FFF" d="M1.434 0.107L1.434 6.302" transform="translate(406 170)"/>
                                            <path stroke="#000" stroke-width=".565" d="M1.434 0.107L1.434 6.302" transform="translate(406 170)"/>
                                        </g>
                                        <g>
                                            <path fill="#FFF" d="M0.635 0.107L0.635 6.302" transform="translate(410 170)"/>
                                            <path stroke="#000" stroke-width=".565" d="M0.635 0.107L0.635 6.302" transform="translate(410 170)"/>
                                        </g>
                                        <g>
                                            <path fill="#FFF" d="M0.837 0.107L0.837 6.302" transform="translate(413 170)"/>
                                            <path stroke="#000" stroke-width=".565" d="M0.837 0.107L0.837 6.302" transform="translate(413 170)"/>
                                        </g>
                                        <path fill="#E6E8EB" d="M432.27 170.242s.186-1.193 1.876-2.007c1.69-.813 5.93-1.964 11.11-1.249 5.178.715 6.54 2 6.54 2l.622 1.377v15.146s-.686 1.814-4.159 2.565c-3.473.751-10.389 1.001-13.706-.532 0 0-2.097-.876-2.284-2.19v-15.11z"/>
                                        <path stroke="#000" stroke-width=".565" d="M452.418 170.107s-.778-3.346-10.378-3.346-9.77 3.416-9.77 3.416v15.212s1.054 3.44 10.067 3.44c9.014 0 10.08-3.44 10.08-3.44l.001-15.282z"/>
                                        <path stroke="#000" stroke-width=".565" d="M432.27 175.557s1.124 3.296 10.204 3.209c9.08-.087 9.944-3.21 9.944-3.21M432.27 180.514s1.124 3.297 10.204 3.21c9.08-.087 9.944-3.21 9.944-3.21M432.27 170.599s1.124 3.296 10.204 3.21c9.08-.087 9.944-3.21 9.944-3.21"/>
                                        <path fill="#FFF" d="M754.559 155.214c0 31.125-25.232 56.356-56.357 56.356s-56.357-25.231-56.357-56.356c0-31.126 25.232-56.357 56.357-56.357s56.357 25.23 56.357 56.357"/>
                                        <path stroke="#C5C8CF" stroke-width=".75" d="M754.559 155.214c0 31.125-25.232 56.356-56.357 56.356s-56.357-25.231-56.357-56.356c0-31.126 25.232-56.357 56.357-56.357s56.357 25.23 56.357 56.357zM419.708 249.492L419.708 283.32"/>
                                        <path fill="#C5C8CF" d="M419.708 255.468L414.946 255.468 417.327 251.344 419.708 247.22 422.089 251.344 424.47 255.468z"/>
                                        <path fill="#273A5B" d="M105.278 273.563L100.683 266.217 100.647 266.163 98.739 266.163 98.739 279.803 100.701 279.803 100.701 271.724 100.638 269.796 104.671 276.19 104.707 276.247 105.85 276.247 109.921 269.798 109.856 271.728 109.856 279.803 111.819 279.803 111.819 266.163 109.909 266.163zM120.095 275.751c-.016.662-.289 1.248-.813 1.743-.542.513-1.166.773-1.854.773-.482 0-.907-.143-1.264-.424-.353-.278-.525-.613-.525-1.028 0-.462.213-.84.652-1.157.445-.32 1.01-.482 1.68-.482.9 0 1.615.194 2.124.575m-2.42-5.719c-1.427 0-2.705.624-3.696 1.806l-.07.085 1.373 1.374.084-.105c.415-.517 1.268-1.384 2.332-1.384.726 0 1.26.184 1.728.596.451.399.67.868.67 1.436v.192c-.649-.32-1.458-.481-2.406-.481-1.22 0-2.21.291-2.947.867-.745.583-1.123 1.377-1.123 2.359 0 .931.357 1.717 1.061 2.337.7.616 1.58.928 2.616.928 1.143 0 2.083-.478 2.798-1.422v1.186h1.89v-5.835c0-1.215-.386-2.187-1.144-2.888-.746-.687-1.84-1.051-3.166-1.051M131.925 270.64L131.925 270.395 129.546 270.395 125.749 274.244 125.749 266.165 125.509 266.165 123.786 267.654 123.786 279.805 125.749 279.805 125.749 276.798 127.013 275.551 129.831 279.805 132.093 279.805 132.093 279.574 128.386 274.161z"/>
                                        <path fill="#273A5B" d="M134.13 273.885c.163-.625.457-1.131.852-1.47.444-.378.982-.57 1.599-.57.752 0 1.358.2 1.8.598.397.354.65.862.725 1.442h-4.975zm7.064 1.355c0-1.632-.428-2.963-1.24-3.85-.823-.901-1.948-1.358-3.337-1.358-1.351 0-2.478.482-3.346 1.434-.853.936-1.305 2.196-1.305 3.644 0 1.409.44 2.557 1.344 3.513.892.945 2.043 1.423 3.42 1.423.94 0 1.797-.225 2.543-.673.596-.357 1.166-.9 1.56-1.492l.058-.085-1.406-1.298-.079.117c-.662.998-1.585 1.546-2.602 1.546-.834 0-1.463-.228-1.976-.718-.543-.521-.81-1.108-.856-1.894h7.191l.03-.31z"/>
                                        <path fill="#6FB6FB" d="M74.261 273.588L72.844 274.406 72.854 278 81.543 272.987 78.422 271.186zM90.241 274.406L88.823 273.588 84.663 271.185 81.543 272.987 90.241 278.01z"/>
                                        <path fill="#BFDCFF" d="M90.242 274.406L90.242 278.01 81.543 283.032 81.543 279.428 82.961 278.609z"/>
                                        <path fill="#007CF7" d="M72.844 274.406L72.844 278.01 81.543 283.032 81.543 279.428 80.125 278.609z"/>
                                        <path fill="#6FB6FB" d="M88.823 267.147L81.542 262.943 74.261 267.147 72.844 267.966 72.854 271.558 81.548 266.543 90.242 271.568 90.241 267.966z"/>
                                        <path fill="#BFDCFF" d="M90.242 267.965L90.242 271.569 81.543 276.591 81.543 272.987 82.961 272.169z"/>
                                        <path fill="#007CF7" d="M72.844 267.965L72.844 271.569 81.543 276.591 81.543 272.987 80.125 272.169z"/>
                                        <mask id="xu902yg35f" fill="#fff">
                                            <use xlink:href="#emlcnba5te"/>
                                        </mask>
                                        <path fill="#273A5B" d="M703.943 163.061L705.904 163.061 705.904 153.358 703.943 153.358zM703.856 151.566L705.993 151.566 705.993 149.428 703.856 149.428zM729.386 153.656L727.441 160.319 725.263 153.656 723.311 153.656 721.131 160.319 719.194 153.742 719.168 153.656 717.116 153.656 720.123 162.978 720.15 163.061 722.065 163.061 724.241 156.301 726.434 163.061 728.367 163.061 731.401 153.656zM710.694 155.672c.444-.38.982-.571 1.6-.571.752 0 1.358.202 1.802.597.397.355.652.865.725 1.445h-4.98c.163-.626.457-1.133.853-1.471m1.637-2.386c-1.353 0-2.48.483-3.35 1.435-.855.937-1.307 2.198-1.307 3.647 0 1.41.44 2.56 1.345 3.517.895.945 2.046 1.425 3.424 1.425.942 0 1.799-.226 2.545-.673.597-.358 1.167-.902 1.563-1.493l.058-.086-1.407-1.3-.079.118c-.662.998-1.588 1.548-2.605 1.548-.836 0-1.464-.23-1.978-.72-.537-.514-.812-1.12-.858-1.895h7.219l.005-.115c.005-.1.005-.194.005-.194 0-1.634-.428-2.967-1.239-3.853-.826-.904-1.95-1.361-3.341-1.361M696.28 160.18L692.177 149.432 690.011 149.432 695.269 162.984 695.299 163.061 697.258 163.061 702.632 149.597 702.698 149.432 700.531 149.432z" mask="url(#xu902yg35f)"/>
                                        <path fill="#6FB6FB" d="M678.114 148.87L673.705 146.325 671.277 147.726 678.099 154.549z" mask="url(#xu902yg35f)"/>
                                        <path fill="#007CF7" d="M678.099 158.189L682.403 153.697 682.403 151.346 678.112 148.869z" mask="url(#xu902yg35f)"/>
                                        <path fill="#0065C7" d="M669.287 163.864L673.704 166.415 676.135 165.01 669.309 158.19z" mask="url(#xu902yg35f)"/>
                                        <path fill="#BFDCFF" d="M665.006 151.975L665.006 151.347 671.277 147.727 675.525 151.975z" mask="url(#xu902yg35f)"/>
                                        <path fill="#DEEDFF" d="M665.006 151.975L665.006 158.851 671.883 151.975z" mask="url(#xu902yg35f)"/>
                                        <path fill="#007CF7" d="M669.309 154.549L665.005 158.851 665.005 161.392 669.191 163.808 669.306 163.875z" mask="url(#xu902yg35f)"/>
                                        <path fill="#6FB6FB" d="M682.403 161.392L676.135 165.011 671.884 160.765 682.403 160.765z" mask="url(#xu902yg35f)"/>
                                        <path fill="#007CF7" d="M673.665 153.633c-1.489 0-2.696 1.207-2.696 2.696s1.207 2.696 2.696 2.696c1.49 0 2.696-1.207 2.696-2.696 0-1.49-1.207-2.696-2.696-2.696" mask="url(#xu902yg35f)"/>
                                        <path fill="#FFF" d="M675.025 154.196c-.427 0-.773.346-.773.772 0 .428.346.774.773.774.427 0 .773-.346.773-.774 0-.426-.346-.772-.773-.772" mask="url(#xu902yg35f)"/>
                                        <path fill="#BFDCFF" d="M675.524 160.765L678.098 158.189 682.403 153.699 682.403 160.765z" mask="url(#xu902yg35f)"/>
                                    </g>
                                    <text font-family="NotoSansCJKkr-Medium, Noto Sans CJK KR" font-size="12" font-weight="400" transform="translate(0 -3)">
                                        <tspan x="654.675" y="232.371" fill="#000">Visuali</tspan> <tspan x="692.367" y="232.371" fill="#000" letter-spacing="-.277">z</tspan> <tspan x="697.694" y="232.371" fill="#000" letter-spacing="-.204">a</tspan> <tspan x="704.186" y="232.371" fill="#000">tion </tspan> <tspan x="729.938" y="232.371" fill="#000" letter-spacing="-.036">o</tspan> <tspan x="737.234" y="232.371" fill="#000">f</tspan>
                                    </text>
                                    <text font-family="NotoSansCJKkr-Medium, Noto Sans CJK KR" font-size="12" font-weight="400" transform="translate(0 -3)">
                                        <tspan x="628.851" y="248.367" fill="#000">a</tspan> <tspan x="635.751" y="248.367" fill="#000" letter-spacing="-.312">c</tspan> <tspan x="641.331" y="248.367" fill="#000">cident risk</tspan>
                                    </text>
                                    <g transform="translate(0 -3) translate(701 233.726)">
                                        <mask id="o3k40ra9ch" fill="#fff">
                                            <use xlink:href="#7lhz4959eg"/>
                                        </mask>
                                        <text fill="#000" font-family="NotoSansCJKkr-Medium, Noto Sans CJK KR" font-size="12" font-weight="400" mask="url(#o3k40ra9ch)">
                                            <tspan x=".583" y="14.645"> &amp; </tspan> <tspan x="14.443" y="14.645" letter-spacing="-.131">r</tspan> <tspan x="19.088" y="14.645">esponse</tspan>
                                        </text>
                                    </g>
                                    <text font-family="NotoSansCJKkr-Medium, Noto Sans CJK KR" font-size="12" font-weight="400" transform="translate(0 -3)">
                                        <tspan x="641.127" y="264.371" fill="#000">manual </tspan> <tspan x="687.435" y="264.371" fill="#000" letter-spacing="-.133">f</tspan> <tspan x="691.31" y="264.371" fill="#000">or a</tspan> <tspan x="713.186" y="264.371" fill="#000" letter-spacing="-.312">c</tspan> <tspan x="718.766" y="264.371" fill="#000">cident</tspan>
                                    </text>
                                    <text font-family="NotoSansCJKkr-Medium, Noto Sans CJK KR" font-size="12" font-weight="400" transform="translate(0 -3)">
                                        <tspan x="637.443" y="285.971" fill="#000">En</tspan> <tspan x="652.131" y="285.971" fill="#000" letter-spacing="-.205">t</tspan> <tspan x="656.474" y="285.971" fill="#000">er </tspan> <tspan x="670.862" y="285.971" fill="#000" letter-spacing="-.131">r</tspan> <tspan x="675.507" y="285.971" fill="#000">esponse </tspan> <tspan x="725.703" y="285.971" fill="#000" letter-spacing="-.132">r</tspan> <tspan x="730.347" y="285.971" fill="#000">esult</tspan>
                                    </text>
                                    <text font-family="NotoSansCJKkr-Medium, Noto Sans CJK KR" font-size="12" font-weight="400" letter-spacing="-.036" transform="translate(0 -3)">
                                        <tspan x="666.687" y="301.967" fill="#000">o</tspan> <tspan x="673.983" y="301.967" fill="#000">f a</tspan> <tspan x="687.723" y="301.967" fill="#000" letter-spacing="-.311">c</tspan> <tspan x="693.304" y="301.967" fill="#000">cident</tspan>
                                    </text>
                                </g>
                            </g>
                        </g>
                    </g>
                </g>
            </g>
        </g>
    </g>
</svg>
