<svg xmlns="http://www.w3.org/2000/svg" xmlns:xlink="http://www.w3.org/1999/xlink" width="780" height="420" viewBox="0 0 780 420">
    <defs>
        <path id="xcuauzta5a" d="M0 0H780V420H0z"/>
        <path id="rt8h52z31c" d="M0.712 0.041L47.308 0.041 47.308 18.041 0.712 18.041z"/>
        <path id="u0bqudsy9e" d="M0 417L772.308 417 772.308 0.587 0 0.587z"/>
    </defs>
    <g fill="none" fill-rule="evenodd">
        <g>
            <g>
                <g>
                    <g>
                        <g transform="translate(-760 -5268) translate(0 2554) translate(320 636) translate(60 1941) translate(380 137)">
                            <mask id="4irirptnmb" fill="#fff">
                                <use xlink:href="#xcuauzta5a"/>
                            </mask>
                            <use fill="#F8F9FB" xlink:href="#xcuauzta5a"/>
                            <g mask="url(#4irirptnmb)">
                                <g>
                                    <g>
                                        <path fill="#FFF" d="M113.653 56.58c0 31.125-25.232 56.357-56.357 56.357S.939 87.705.939 56.58 26.171.223 57.296.223s56.357 25.232 56.357 56.357" transform="translate(0 -1) translate(386 255.413)"/>
                                        <path stroke="#C5C8CF" stroke-width=".75" d="M113.653 56.58c0 31.125-25.232 56.357-56.357 56.357S.939 87.705.939 56.58 26.171.223 57.296.223s56.357 25.232 56.357 56.357z" transform="translate(0 -1) translate(386 255.413)"/>
                                    </g>
                                    <text font-family="NotoSansCJKkr-Medium, Noto Sans CJK KR" font-size="12" font-weight="400" transform="translate(0 -1)">
                                        <tspan x="181.59" y="174.453" fill="#000">Check dan</tspan> <tspan x="241.326" y="174.453" fill="#000" letter-spacing="-.204">g</tspan> <tspan x="247.854" y="174.453" fill="#000">er indi</tspan> <tspan x="284.178" y="174.453" fill="#000" letter-spacing="-.131">c</tspan> <tspan x="290.119" y="174.453" fill="#000" letter-spacing="-.204">at</tspan> <tspan x="300.955" y="174.453" fill="#000">or</tspan>
                                    </text>
                                    <text font-family="NotoSansCJKkr-Medium, Noto Sans CJK KR" font-size="12" font-weight="400" transform="translate(0 -1)">
                                        <tspan x="162.042" y="190.449" fill="#000">&amp; ope</tspan> <tspan x="194.91" y="190.449" fill="#000" letter-spacing="-.335">r</tspan> <tspan x="199.147" y="190.449" fill="#000" letter-spacing="-.204">a</tspan> <tspan x="205.639" y="190.449" fill="#000">tion </tspan> <tspan x="231.391" y="190.449" fill="#000" letter-spacing="-.264">s</tspan> <tspan x="236.623" y="190.449" fill="#000" letter-spacing="-.288">t</tspan> <tspan x="240.799" y="190.449" fill="#000" letter-spacing="-.204">a</tspan> <tspan x="247.291" y="190.449" fill="#000">tus moni</tspan> <tspan x="297.547" y="190.449" fill="#000" letter-spacing="-.204">t</tspan> <tspan x="301.891" y="190.449" fill="#000">oring</tspan>
                                    </text>
                                    <g>
                                        <path stroke="#C5C8CF" stroke-width=".75" d="M2.759 5.614L90.192 5.614" transform="translate(0 -1) translate(315 93.413)"/>
                                        <path fill="#C5C8CF" d="M8.735 5.614L8.735 10.376 4.611 7.995 0.487 5.614 4.611 3.232 8.735 0.851z" transform="translate(0 -1) translate(315 93.413)"/>
                                    </g>
                                    <text font-family="NotoSansCJKkr-Medium, Noto Sans CJK KR" font-size="12" font-weight="400" transform="translate(0 -1)">
                                        <tspan x="655.356" y="174.454" fill="#000">Visuali</tspan> <tspan x="693.048" y="174.454" fill="#000" letter-spacing="-.277">z</tspan> <tspan x="698.375" y="174.454" fill="#000" letter-spacing="-.204">a</tspan> <tspan x="704.867" y="174.454" fill="#000">tion </tspan> <tspan x="730.619" y="174.454" fill="#000" letter-spacing="-.036">o</tspan> <tspan x="737.915" y="174.454" fill="#000">f</tspan>
                                    </text>
                                    <text font-family="NotoSansCJKkr-Medium, Noto Sans CJK KR" font-size="12" font-weight="400" transform="translate(0 -1)">
                                        <tspan x="625.62" y="190.45" fill="#000">inspe</tspan> <tspan x="656.652" y="190.45" fill="#000" letter-spacing="-.131">c</tspan> <tspan x="662.594" y="190.45" fill="#000">tion i</tspan> <tspan x="691.79" y="190.45" fill="#000" letter-spacing="-.204">t</tspan> <tspan x="696.134" y="190.45" fill="#000">em &amp;</tspan>
                                    </text>
                                    <g transform="translate(0 -1) translate(725 176.413)">
                                        <mask id="k9n186j3dd" fill="#fff">
                                            <use xlink:href="#rt8h52z31c"/>
                                        </mask>
                                        <text fill="#000" font-family="NotoSansCJKkr-Medium, Noto Sans CJK KR" font-size="12" font-weight="400" mask="url(#k9n186j3dd)">
                                            <tspan x=".712" y="14.041"> p</tspan> <tspan x="10.972" y="14.041" letter-spacing="-.133">r</tspan> <tspan x="15.615" y="14.041">o</tspan> <tspan x="22.983" y="14.041" letter-spacing="-.311">c</tspan> <tspan x="28.564" y="14.041">ess</tspan>
                                        </text>
                                    </g>
                                    <text font-family="NotoSansCJKkr-Medium, Noto Sans CJK KR" font-size="12" font-weight="400" transform="translate(0 -1)">
                                        <tspan x="636.709" y="212.053" fill="#000">Visuali</tspan> <tspan x="674.401" y="212.053" fill="#000" letter-spacing="-.277">z</tspan> <tspan x="679.728" y="212.053" fill="#000" letter-spacing="-.204">a</tspan> <tspan x="686.22" y="212.053" fill="#000">tion </tspan> <tspan x="711.972" y="212.053" fill="#000" letter-spacing="-.036">o</tspan> <tspan x="719.268" y="212.053" fill="#000">f sa</tspan> <tspan x="738.768" y="212.053" fill="#000" letter-spacing="-.132">fe</tspan> <tspan x="749.16" y="212.053" fill="#000">ty</tspan>
                                    </text>
                                    <text font-family="NotoSansCJKkr-Medium, Noto Sans CJK KR" font-size="12" font-weight="400" transform="translate(0 -1)">
                                        <tspan x="630.625" y="228.049" fill="#000">check li</tspan> <tspan x="673.885" y="228.049" fill="#000" letter-spacing="-.264">s</tspan> <tspan x="679.117" y="228.049" fill="#000">t &amp; check </tspan> <tspan x="733.969" y="228.049" fill="#000" letter-spacing="-.132">r</tspan> <tspan x="738.613" y="228.049" fill="#000">esult</tspan>
                                    </text>
                                    <text font-family="NotoSansCJKkr-Medium, Noto Sans CJK KR" font-size="12" font-weight="400" transform="translate(0 -1)">
                                        <tspan x="638.125" y="244.045" fill="#000">En</tspan> <tspan x="652.813" y="244.045" fill="#000" letter-spacing="-.205">t</tspan> <tspan x="657.156" y="244.045" fill="#000">er </tspan> <tspan x="671.544" y="244.045" fill="#000" letter-spacing="-.132">r</tspan> <tspan x="676.188" y="244.045" fill="#000">esponse </tspan> <tspan x="726.384" y="244.045" fill="#000" letter-spacing="-.132">r</tspan> <tspan x="731.028" y="244.045" fill="#000">esult</tspan>
                                    </text>
                                    <text font-family="NotoSansCJKkr-Medium, Noto Sans CJK KR" font-size="12" font-weight="400" letter-spacing="-.036" transform="translate(0 -1)">
                                        <tspan x="667.369" y="260.041" fill="#000">o</tspan> <tspan x="674.665" y="260.041" fill="#000">f a</tspan> <tspan x="688.405" y="260.041" fill="#000" letter-spacing="-.311">c</tspan> <tspan x="693.986" y="260.041" fill="#000">cident</tspan>
                                    </text>
                                    <text font-family="NotoSansCJKkr-Medium, Noto Sans CJK KR" font-size="12" font-weight="400" transform="translate(0 -1)">
                                        <tspan x="456.421" y="234.913" fill="#000">Mana</tspan> <tspan x="487.669" y="234.913" fill="#000" letter-spacing="-.204">g</tspan> <tspan x="494.197" y="234.913" fill="#000">ement d</tspan> <tspan x="541.561" y="234.913" fill="#000" letter-spacing="-.204">a</tspan> <tspan x="548.053" y="234.913" fill="#000" letter-spacing="-.288">t</tspan> <tspan x="552.229" y="234.913" fill="#000">a</tspan>
                                    </text>
                                    <text font-family="NotoSansCJKkr-Bold, Noto Sans CJK KR" font-size="18" font-weight="bold" transform="translate(0 -1)">
                                        <tspan x="385.922" y="155.343" fill="#092E6E">Sa</tspan> <tspan x="407.792" y="155.343" fill="#092E6E" letter-spacing="-.216">fe</tspan> <tspan x="424.082" y="155.343" fill="#092E6E">ty Check</tspan>
                                    </text>
                                    <text font-family="NotoSansCJKkr-Bold, Noto Sans CJK KR" font-size="18" font-weight="bold" transform="translate(0 -1)">
                                        <tspan x="346.556" y="176.943" fill="#092E6E">&amp; </tspan> <tspan x="363.944" y="176.943" fill="#092E6E" letter-spacing="-.558">S</tspan> <tspan x="374.06" y="176.943" fill="#092E6E" letter-spacing="-.414">t</tspan> <tspan x="380.792" y="176.943" fill="#092E6E" letter-spacing="-.342">a</tspan> <tspan x="390.746" y="176.943" fill="#092E6E">tus Mana</tspan> <tspan x="470.954" y="176.943" fill="#092E6E" letter-spacing="-.342">g</tspan> <tspan x="481.016" y="176.943" fill="#092E6E">ement</tspan>
                                    </text>
                                    <text font-family="NotoSansCJKkr-Bold, Noto Sans CJK KR" font-size="18" font-weight="bold" transform="translate(0 -1)">
                                        <tspan x="414.146" y="198.543" fill="#092E6E">Se</tspan> <tspan x="435.836" y="198.543" fill="#092E6E" letter-spacing=".25">r</tspan> <tspan x="444.186" y="198.543" fill="#092E6E" letter-spacing="-.142">v</tspan> <tspan x="454.268" y="198.543" fill="#092E6E">er</tspan>
                                    </text>
                                    <g>
                                        <path fill="#E6E8EB" d="M4.217 12.162L4.217 43.502 42.05 43.502 42.05 11.871z" transform="translate(0 -1) translate(420 83.413)"/>
                                        <path stroke="#000" stroke-width=".565" d="M4.217 12.162L4.217 43.502 42.05 43.502 42.05 11.871z" transform="translate(0 -1) translate(420 83.413)"/>
                                        <path fill="#FFF" d="M2.974 12.11c-1.382 0-2.507-1.126-2.507-2.508V3.447C.467 2.065 1.592.94 2.974.94H43.15c1.383 0 2.507 1.125 2.507 2.507v6.155c0 1.382-1.124 2.507-2.507 2.507H2.974z" transform="translate(0 -1) translate(420 83.413)"/>
                                        <path fill="#000" d="M43.15.658H2.976C1.44.658.184 1.913.184 3.448V9.6c0 1.536 1.255 2.79 2.79 2.79H43.15c1.535 0 2.79-1.254 2.79-2.79V3.447c0-1.534-1.255-2.789-2.79-2.789m0 .564c1.227 0 2.226.998 2.226 2.225v6.154c0 1.228-.998 2.226-2.225 2.226H2.974C1.747 11.827.75 10.83.75 9.601V3.447c0-1.227.998-2.225 2.224-2.225h40.177" transform="translate(0 -1) translate(420 83.413)"/>
                                        <path fill="#FFF" d="M2.974 26.364c-1.382 0-2.507-1.125-2.507-2.507v-6.155c0-1.382 1.125-2.507 2.507-2.507H43.15c1.383 0 2.507 1.125 2.507 2.507v6.155c0 1.382-1.124 2.507-2.507 2.507H2.974z" transform="translate(0 -1) translate(420 83.413)"/>
                                        <path fill="#000" d="M43.15 14.912H2.976c-1.535 0-2.79 1.256-2.79 2.79v6.155c0 1.534 1.255 2.79 2.79 2.79H43.15c1.535 0 2.79-1.256 2.79-2.79v-6.155c0-1.534-1.255-2.79-2.79-2.79m0 .564c1.227 0 2.226.998 2.226 2.226v6.155c0 1.227-.998 2.225-2.225 2.225H2.974c-1.227 0-2.224-.998-2.224-2.225v-6.155c0-1.228.998-2.226 2.224-2.226h40.177" transform="translate(0 -1) translate(420 83.413)"/>
                                        <path fill="#FFF" d="M2.974 40.54c-1.382 0-2.507-1.126-2.507-2.508v-6.155c0-1.382 1.125-2.507 2.507-2.507H43.15c1.383 0 2.507 1.125 2.507 2.507v6.155c0 1.382-1.124 2.507-2.507 2.507H2.974z" transform="translate(0 -1) translate(420 83.413)"/>
                                        <path fill="#000" d="M43.15 29.088H2.976c-1.535 0-2.79 1.255-2.79 2.789v6.155c0 1.535 1.255 2.789 2.79 2.789H43.15c1.535 0 2.79-1.254 2.79-2.79v-6.154c0-1.534-1.255-2.79-2.79-2.79m0 .565c1.227 0 2.226.998 2.226 2.225v6.155c0 1.227-.998 2.225-2.225 2.225H2.974c-1.227 0-2.224-.998-2.224-2.225v-6.155c0-1.227.998-2.225 2.224-2.225h40.177" transform="translate(0 -1) translate(420 83.413)"/>
                                        <path fill="#0A51B7" d="M28.667 8.13c-.885 0-1.605-.721-1.605-1.605 0-.885.72-1.605 1.605-1.605s1.605.72 1.605 1.605c0 .884-.72 1.605-1.605 1.605" transform="translate(0 -1) translate(420 83.413)"/>
                                        <path fill="#000" d="M28.667 4.637c-1.042 0-1.887.846-1.887 1.889 0 1.04.845 1.886 1.887 1.886s1.887-.845 1.887-1.886c0-1.043-.845-1.89-1.887-1.89m0 .565c.73 0 1.323.594 1.323 1.325 0 .728-.594 1.322-1.323 1.322s-1.323-.594-1.323-1.322c0-.731.594-1.325 1.323-1.325" transform="translate(0 -1) translate(420 83.413)"/>
                                        <path fill="#0A51B7" d="M34.488 8.13c-.885 0-1.605-.721-1.605-1.605 0-.885.72-1.605 1.605-1.605s1.605.72 1.605 1.605c0 .884-.72 1.605-1.605 1.605" transform="translate(0 -1) translate(420 83.413)"/>
                                        <path fill="#000" d="M34.489 4.637c-1.043 0-1.888.846-1.888 1.889 0 1.04.845 1.886 1.888 1.886 1.042 0 1.887-.845 1.887-1.886 0-1.043-.845-1.89-1.887-1.89m0 .565c.729 0 1.322.594 1.322 1.325 0 .728-.593 1.322-1.322 1.322-.73 0-1.323-.594-1.323-1.322 0-.731.594-1.325 1.323-1.325" transform="translate(0 -1) translate(420 83.413)"/>
                                        <path fill="#0A51B7" d="M40.31 8.13c-.885 0-1.605-.721-1.605-1.605 0-.885.72-1.605 1.605-1.605s1.605.72 1.605 1.605c0 .884-.72 1.605-1.605 1.605" transform="translate(0 -1) translate(420 83.413)"/>
                                        <path fill="#000" d="M40.31 4.637c-1.042 0-1.888.846-1.888 1.889 0 1.04.846 1.886 1.888 1.886 1.042 0 1.887-.845 1.887-1.886 0-1.043-.845-1.89-1.887-1.89m0 .565c.73 0 1.322.594 1.322 1.325 0 .728-.593 1.322-1.322 1.322-.729 0-1.323-.594-1.323-1.322 0-.731.594-1.325 1.323-1.325" transform="translate(0 -1) translate(420 83.413)"/>
                                        <path fill="#0A51B7" d="M28.667 22.385c-.885 0-1.605-.721-1.605-1.605 0-.885.72-1.605 1.605-1.605s1.605.72 1.605 1.605c0 .884-.72 1.605-1.605 1.605" transform="translate(0 -1) translate(420 83.413)"/>
                                        <path fill="#000" d="M28.667 18.893c-1.042 0-1.887.845-1.887 1.887 0 1.043.845 1.887 1.887 1.887s1.887-.844 1.887-1.887c0-1.042-.845-1.887-1.887-1.887m0 .564c.73 0 1.323.594 1.323 1.323 0 .73-.594 1.323-1.323 1.323s-1.323-.593-1.323-1.323.594-1.323 1.323-1.323" transform="translate(0 -1) translate(420 83.413)"/>
                                        <path fill="#0A51B7" d="M34.488 22.385c-.885 0-1.605-.721-1.605-1.605 0-.885.72-1.605 1.605-1.605s1.605.72 1.605 1.605c0 .884-.72 1.605-1.605 1.605" transform="translate(0 -1) translate(420 83.413)"/>
                                        <path fill="#000" d="M34.489 18.893c-1.043 0-1.888.845-1.888 1.887 0 1.043.845 1.887 1.888 1.887 1.042 0 1.887-.844 1.887-1.887 0-1.042-.845-1.887-1.887-1.887m0 .564c.729 0 1.322.594 1.322 1.323 0 .73-.593 1.323-1.322 1.323-.73 0-1.323-.593-1.323-1.323s.594-1.323 1.323-1.323" transform="translate(0 -1) translate(420 83.413)"/>
                                        <path fill="#0A51B7" d="M40.31 22.385c-.885 0-1.605-.721-1.605-1.605 0-.885.72-1.605 1.605-1.605s1.605.72 1.605 1.605c0 .884-.72 1.605-1.605 1.605" transform="translate(0 -1) translate(420 83.413)"/>
                                        <path fill="#000" d="M40.31 18.893c-1.042 0-1.888.845-1.888 1.887 0 1.043.846 1.887 1.888 1.887 1.042 0 1.887-.844 1.887-1.887 0-1.042-.845-1.887-1.887-1.887m0 .564c.73 0 1.322.594 1.322 1.323 0 .73-.593 1.323-1.322 1.323-.729 0-1.323-.593-1.323-1.323s.594-1.323 1.323-1.323" transform="translate(0 -1) translate(420 83.413)"/>
                                        <path fill="#0A51B7" d="M28.667 36.56c-.885 0-1.605-.721-1.605-1.605 0-.885.72-1.605 1.605-1.605s1.605.72 1.605 1.605c0 .884-.72 1.605-1.605 1.605" transform="translate(0 -1) translate(420 83.413)"/>
                                        <path fill="#000" d="M28.667 33.066c-1.042 0-1.887.846-1.887 1.89 0 1.041.845 1.885 1.887 1.885s1.887-.844 1.887-1.886c0-1.043-.845-1.889-1.887-1.889m0 .564c.73 0 1.323.594 1.323 1.325 0 .728-.594 1.322-1.323 1.322s-1.323-.594-1.323-1.322c0-.73.594-1.325 1.323-1.325" transform="translate(0 -1) translate(420 83.413)"/>
                                        <path fill="#0A51B7" d="M34.488 36.56c-.885 0-1.605-.721-1.605-1.605 0-.885.72-1.605 1.605-1.605s1.605.72 1.605 1.605c0 .884-.72 1.605-1.605 1.605" transform="translate(0 -1) translate(420 83.413)"/>
                                        <path fill="#000" d="M34.489 33.066c-1.043 0-1.888.846-1.888 1.89 0 1.041.845 1.885 1.888 1.885 1.042 0 1.887-.844 1.887-1.886 0-1.043-.845-1.889-1.887-1.889m0 .564c.729 0 1.322.594 1.322 1.325 0 .728-.593 1.322-1.322 1.322-.73 0-1.323-.594-1.323-1.322 0-.73.594-1.325 1.323-1.325" transform="translate(0 -1) translate(420 83.413)"/>
                                        <path fill="#0A51B7" d="M40.31 36.56c-.885 0-1.605-.721-1.605-1.605 0-.885.72-1.605 1.605-1.605s1.605.72 1.605 1.605c0 .884-.72 1.605-1.605 1.605" transform="translate(0 -1) translate(420 83.413)"/>
                                        <path fill="#000" d="M40.31 33.066c-1.042 0-1.888.846-1.888 1.89 0 1.041.846 1.885 1.888 1.885 1.042 0 1.887-.844 1.887-1.886 0-1.043-.845-1.889-1.887-1.889m0 .564c.73 0 1.322.594 1.322 1.325 0 .728-.593 1.322-1.322 1.322-.729 0-1.323-.594-1.323-1.322 0-.73.594-1.325 1.323-1.325" transform="translate(0 -1) translate(420 83.413)"/>
                                        <g>
                                            <path fill="#FFF" d="M1.021 0.427L1.021 6.623" transform="translate(0 -1) translate(420 83.413) translate(4 3)"/>
                                            <path stroke="#000" stroke-width=".565" d="M1.021 0.427L1.021 6.623" transform="translate(0 -1) translate(420 83.413) translate(4 3)"/>
                                        </g>
                                        <g>
                                            <path fill="#FFF" d="M1.222 0.427L1.222 6.623" transform="translate(0 -1) translate(420 83.413) translate(7 3)"/>
                                            <path stroke="#000" stroke-width=".565" d="M1.222 0.427L1.222 6.623" transform="translate(0 -1) translate(420 83.413) translate(7 3)"/>
                                        </g>
                                        <g>
                                            <path fill="#FFF" d="M1.423 0.427L1.423 6.623" transform="translate(0 -1) translate(420 83.413) translate(10 3)"/>
                                            <path stroke="#000" stroke-width=".565" d="M1.423 0.427L1.423 6.623" transform="translate(0 -1) translate(420 83.413) translate(10 3)"/>
                                        </g>
                                        <g>
                                            <path fill="#FFF" d="M0.624 0.427L0.624 6.623" transform="translate(0 -1) translate(420 83.413) translate(14 3)"/>
                                            <path stroke="#000" stroke-width=".565" d="M0.624 0.427L0.624 6.623" transform="translate(0 -1) translate(420 83.413) translate(14 3)"/>
                                        </g>
                                        <g>
                                            <path fill="#FFF" d="M0.825 0.427L0.825 6.623" transform="translate(0 -1) translate(420 83.413) translate(17 3)"/>
                                            <path stroke="#000" stroke-width=".565" d="M0.825 0.427L0.825 6.623" transform="translate(0 -1) translate(420 83.413) translate(17 3)"/>
                                        </g>
                                        <g>
                                            <path fill="#FFF" d="M1.026 0.427L1.026 6.623" transform="translate(0 -1) translate(420 83.413) translate(20 3)"/>
                                            <path stroke="#000" stroke-width=".565" d="M1.026 0.427L1.026 6.623" transform="translate(0 -1) translate(420 83.413) translate(20 3)"/>
                                        </g>
                                        <g>
                                            <path fill="#FFF" d="M0.621 0.427L0.621 6.623" transform="translate(0 -1) translate(420 83.413) translate(6 3)"/>
                                            <path stroke="#000" stroke-width=".565" d="M0.621 0.427L0.621 6.623" transform="translate(0 -1) translate(420 83.413) translate(6 3)"/>
                                        </g>
                                        <g>
                                            <path fill="#FFF" d="M0.822 0.427L0.822 6.623" transform="translate(0 -1) translate(420 83.413) translate(9 3)"/>
                                            <path stroke="#000" stroke-width=".565" d="M0.822 0.427L0.822 6.623" transform="translate(0 -1) translate(420 83.413) translate(9 3)"/>
                                        </g>
                                        <g>
                                            <path fill="#FFF" d="M1.024 0.427L1.024 6.623" transform="translate(0 -1) translate(420 83.413) translate(12 3)"/>
                                            <path stroke="#000" stroke-width=".565" d="M1.024 0.427L1.024 6.623" transform="translate(0 -1) translate(420 83.413) translate(12 3)"/>
                                        </g>
                                        <g>
                                            <path fill="#FFF" d="M1.225 0.427L1.225 6.623" transform="translate(0 -1) translate(420 83.413) translate(15 3)"/>
                                            <path stroke="#000" stroke-width=".565" d="M1.225 0.427L1.225 6.623" transform="translate(0 -1) translate(420 83.413) translate(15 3)"/>
                                        </g>
                                        <g>
                                            <path fill="#FFF" d="M1.426 0.427L1.426 6.623" transform="translate(0 -1) translate(420 83.413) translate(18 3)"/>
                                            <path stroke="#000" stroke-width=".565" d="M1.426 0.427L1.426 6.623" transform="translate(0 -1) translate(420 83.413) translate(18 3)"/>
                                        </g>
                                        <g>
                                            <path fill="#FFF" d="M1.021 0.682L1.021 6.878" transform="translate(0 -1) translate(420 83.413) translate(4 17)"/>
                                            <path stroke="#000" stroke-width=".565" d="M1.021 0.682L1.021 6.878" transform="translate(0 -1) translate(420 83.413) translate(4 17)"/>
                                        </g>
                                        <g>
                                            <path fill="#FFF" d="M1.222 0.682L1.222 6.878" transform="translate(0 -1) translate(420 83.413) translate(7 17)"/>
                                            <path stroke="#000" stroke-width=".565" d="M1.222 0.682L1.222 6.878" transform="translate(0 -1) translate(420 83.413) translate(7 17)"/>
                                        </g>
                                        <g>
                                            <path fill="#FFF" d="M1.423 0.682L1.423 6.878" transform="translate(0 -1) translate(420 83.413) translate(10 17)"/>
                                            <path stroke="#000" stroke-width=".565" d="M1.423 0.682L1.423 6.878" transform="translate(0 -1) translate(420 83.413) translate(10 17)"/>
                                        </g>
                                        <g>
                                            <path fill="#FFF" d="M0.624 0.682L0.624 6.878" transform="translate(0 -1) translate(420 83.413) translate(14 17)"/>
                                            <path stroke="#000" stroke-width=".565" d="M0.624 0.682L0.624 6.878" transform="translate(0 -1) translate(420 83.413) translate(14 17)"/>
                                        </g>
                                        <g>
                                            <path fill="#FFF" d="M0.825 0.682L0.825 6.878" transform="translate(0 -1) translate(420 83.413) translate(17 17)"/>
                                            <path stroke="#000" stroke-width=".565" d="M0.825 0.682L0.825 6.878" transform="translate(0 -1) translate(420 83.413) translate(17 17)"/>
                                        </g>
                                        <g>
                                            <path fill="#FFF" d="M1.026 0.682L1.026 6.878" transform="translate(0 -1) translate(420 83.413) translate(20 17)"/>
                                            <path stroke="#000" stroke-width=".565" d="M1.026 0.682L1.026 6.878" transform="translate(0 -1) translate(420 83.413) translate(20 17)"/>
                                        </g>
                                        <g>
                                            <path fill="#FFF" d="M0.621 0.682L0.621 6.878" transform="translate(0 -1) translate(420 83.413) translate(6 17)"/>
                                            <path stroke="#000" stroke-width=".565" d="M0.621 0.682L0.621 6.878" transform="translate(0 -1) translate(420 83.413) translate(6 17)"/>
                                        </g>
                                        <g>
                                            <path fill="#FFF" d="M0.822 0.682L0.822 6.878" transform="translate(0 -1) translate(420 83.413) translate(9 17)"/>
                                            <path stroke="#000" stroke-width=".565" d="M0.822 0.682L0.822 6.878" transform="translate(0 -1) translate(420 83.413) translate(9 17)"/>
                                        </g>
                                        <g>
                                            <path fill="#FFF" d="M1.024 0.682L1.024 6.878" transform="translate(0 -1) translate(420 83.413) translate(12 17)"/>
                                            <path stroke="#000" stroke-width=".565" d="M1.024 0.682L1.024 6.878" transform="translate(0 -1) translate(420 83.413) translate(12 17)"/>
                                        </g>
                                        <g>
                                            <path fill="#FFF" d="M1.225 0.682L1.225 6.878" transform="translate(0 -1) translate(420 83.413) translate(15 17)"/>
                                            <path stroke="#000" stroke-width=".565" d="M1.225 0.682L1.225 6.878" transform="translate(0 -1) translate(420 83.413) translate(15 17)"/>
                                        </g>
                                        <g>
                                            <path fill="#FFF" d="M1.426 0.682L1.426 6.878" transform="translate(0 -1) translate(420 83.413) translate(18 17)"/>
                                            <path stroke="#000" stroke-width=".565" d="M1.426 0.682L1.426 6.878" transform="translate(0 -1) translate(420 83.413) translate(18 17)"/>
                                        </g>
                                        <g>
                                            <path fill="#FFF" d="M1.021 0.936L1.021 7.133" transform="translate(0 -1) translate(420 83.413) translate(4 31)"/>
                                            <path stroke="#000" stroke-width=".565" d="M1.021 0.936L1.021 7.133" transform="translate(0 -1) translate(420 83.413) translate(4 31)"/>
                                        </g>
                                        <g>
                                            <path fill="#FFF" d="M1.222 0.936L1.222 7.133" transform="translate(0 -1) translate(420 83.413) translate(7 31)"/>
                                            <path stroke="#000" stroke-width=".565" d="M1.222 0.936L1.222 7.133" transform="translate(0 -1) translate(420 83.413) translate(7 31)"/>
                                        </g>
                                        <g>
                                            <path fill="#FFF" d="M1.423 0.936L1.423 7.133" transform="translate(0 -1) translate(420 83.413) translate(10 31)"/>
                                            <path stroke="#000" stroke-width=".565" d="M1.423 0.936L1.423 7.133" transform="translate(0 -1) translate(420 83.413) translate(10 31)"/>
                                        </g>
                                        <g>
                                            <path fill="#FFF" d="M0.624 0.936L0.624 7.133" transform="translate(0 -1) translate(420 83.413) translate(14 31)"/>
                                            <path stroke="#000" stroke-width=".565" d="M0.624 0.936L0.624 7.133" transform="translate(0 -1) translate(420 83.413) translate(14 31)"/>
                                        </g>
                                        <g>
                                            <path fill="#FFF" d="M0.825 0.936L0.825 7.133" transform="translate(0 -1) translate(420 83.413) translate(17 31)"/>
                                            <path stroke="#000" stroke-width=".565" d="M0.825 0.936L0.825 7.133" transform="translate(0 -1) translate(420 83.413) translate(17 31)"/>
                                        </g>
                                        <g>
                                            <path fill="#FFF" d="M1.026 0.936L1.026 7.133" transform="translate(0 -1) translate(420 83.413) translate(20 31)"/>
                                            <path stroke="#000" stroke-width=".565" d="M1.026 0.936L1.026 7.133" transform="translate(0 -1) translate(420 83.413) translate(20 31)"/>
                                        </g>
                                        <g>
                                            <path fill="#FFF" d="M0.621 0.936L0.621 7.133" transform="translate(0 -1) translate(420 83.413) translate(6 31)"/>
                                            <path stroke="#000" stroke-width=".565" d="M0.621 0.936L0.621 7.133" transform="translate(0 -1) translate(420 83.413) translate(6 31)"/>
                                        </g>
                                        <g>
                                            <path fill="#FFF" d="M0.822 0.936L0.822 7.133" transform="translate(0 -1) translate(420 83.413) translate(9 31)"/>
                                            <path stroke="#000" stroke-width=".565" d="M0.822 0.936L0.822 7.133" transform="translate(0 -1) translate(420 83.413) translate(9 31)"/>
                                        </g>
                                        <g>
                                            <path fill="#FFF" d="M1.024 0.936L1.024 7.133" transform="translate(0 -1) translate(420 83.413) translate(12 31)"/>
                                            <path stroke="#000" stroke-width=".565" d="M1.024 0.936L1.024 7.133" transform="translate(0 -1) translate(420 83.413) translate(12 31)"/>
                                        </g>
                                        <g>
                                            <path fill="#FFF" d="M1.225 0.936L1.225 7.133" transform="translate(0 -1) translate(420 83.413) translate(15 31)"/>
                                            <path stroke="#000" stroke-width=".565" d="M1.225 0.936L1.225 7.133" transform="translate(0 -1) translate(420 83.413) translate(15 31)"/>
                                        </g>
                                        <g>
                                            <path fill="#FFF" d="M1.426 0.936L1.426 7.133" transform="translate(0 -1) translate(420 83.413) translate(18 31)"/>
                                            <path stroke="#000" stroke-width=".565" d="M1.426 0.936L1.426 7.133" transform="translate(0 -1) translate(420 83.413) translate(18 31)"/>
                                        </g>
                                        <path fill="#E6E8EB" d="M37.858 32.071s.189-1.193 1.878-2.007c1.69-.813 5.93-1.964 11.108-1.249 5.18.715 6.54 2 6.54 2l.623 1.377v15.146s-.684 1.815-4.158 2.566c-3.473.751-10.388 1.001-13.706-.532 0 0-2.096-.876-2.285-2.19v-15.11z" transform="translate(0 -1) translate(420 83.413)"/>
                                        <path stroke="#000" stroke-width=".565" d="M58.007 31.936S57.23 28.59 47.63 28.59s-9.77 3.418-9.77 3.418v15.21s1.054 3.44 10.068 3.44c9.013 0 10.08-3.44 10.08-3.44V31.936z" transform="translate(0 -1) translate(420 83.413)"/>
                                        <path stroke="#000" stroke-width=".565" d="M37.858 37.386s1.126 3.296 10.206 3.21c9.078-.087 9.944-3.21 9.944-3.21M37.858 42.344s1.126 3.296 10.206 3.209c9.078-.087 9.944-3.21 9.944-3.21M37.858 32.428s1.126 3.297 10.206 3.21c9.078-.087 9.944-3.21 9.944-3.21" transform="translate(0 -1) translate(420 83.413)"/>
                                    </g>
                                    <text font-family="NotoSansCJKkr-Medium, Noto Sans CJK KR" font-size="12" font-weight="400" transform="translate(0 -1)">
                                        <tspan x="296.606" y="23.45" fill="#000">Sa</tspan> <tspan x="310.802" y="23.45" fill="#000" letter-spacing="-.132">fe</tspan> <tspan x="321.194" y="23.45" fill="#000">ty check </tspan> <tspan x="371.414" y="23.45" fill="#000" letter-spacing="-.132">r</tspan> <tspan x="376.058" y="23.45" fill="#000">esult d</tspan> <tspan x="414.626" y="23.45" fill="#000" letter-spacing="-.203">a</tspan> <tspan x="421.12" y="23.45" fill="#000" letter-spacing="-.288">t</tspan> <tspan x="425.296" y="23.45" fill="#000">a</tspan>
                                    </text>
                                    <text font-family="NotoSansCJKkr-Medium, Noto Sans CJK KR" font-size="12" font-weight="400" transform="translate(0 -1)">
                                        <tspan x="296.99" y="45.05" fill="#000">Gas / engine </tspan> <tspan x="369.758" y="45.05" fill="#000" letter-spacing="-.264">s</tspan> <tspan x="374.99" y="45.05" fill="#000" letter-spacing="-.288">t</tspan> <tspan x="379.166" y="45.05" fill="#000" letter-spacing="-.204">a</tspan> <tspan x="385.658" y="45.05" fill="#000">tus d</tspan> <tspan x="413.87" y="45.05" fill="#000" letter-spacing="-.205">a</tspan> <tspan x="420.361" y="45.05" fill="#000" letter-spacing="-.287">t</tspan> <tspan x="424.538" y="45.05" fill="#000">a</tspan>
                                    </text>
                                    <text font-family="NotoSansCJKkr-Medium, Noto Sans CJK KR" font-size="12" font-weight="400" letter-spacing="-.468" transform="translate(0 -1)">
                                        <tspan x="302.978" y="66.65" fill="#000">E</tspan> <tspan x="309.242" y="66.65" fill="#000">xi</tspan> <tspan x="318.998" y="66.65" fill="#000" letter-spacing="-.264">s</tspan> <tspan x="324.23" y="66.65" fill="#000">ting mana</tspan> <tspan x="382.142" y="66.65" fill="#000" letter-spacing="-.204">g</tspan> <tspan x="388.67" y="66.65" fill="#000">ement</tspan>
                                    </text>
                                    <text font-family="NotoSansCJKkr-Medium, Noto Sans CJK KR" font-size="12" font-weight="400" transform="translate(0 -1)">
                                        <tspan x="352.034" y="82.646" fill="#000">da</tspan>
                                    </text>
                                    <text font-family="NotoSansCJKkr-Medium, Noto Sans CJK KR" font-size="12" font-weight="400" letter-spacing="-.024" transform="translate(0 -1)">
                                        <tspan x="366.29" y="82.646" fill="#000">ta</tspan>
                                    </text>
                                    <text font-family="NotoSansCJKkr-Medium, Noto Sans CJK KR" font-size="12" font-weight="400" letter-spacing="-.468" transform="translate(0 -1)">
                                        <tspan x="391.634" y="385.082" fill="#000">E</tspan> <tspan x="397.898" y="385.082" fill="#000">xi</tspan> <tspan x="407.654" y="385.082" fill="#000" letter-spacing="-.264">s</tspan> <tspan x="412.886" y="385.082" fill="#000">ting ope</tspan> <tspan x="459.914" y="385.082" fill="#000" letter-spacing="-.336">r</tspan> <tspan x="464.15" y="385.082" fill="#000" letter-spacing="-.204">a</tspan> <tspan x="470.642" y="385.082" fill="#000">tion</tspan>
                                    </text>
                                    <g>
                                        <text fill="#000" font-family="NotoSansCJKkr-Medium, Noto Sans CJK KR" font-size="12" font-weight="400" transform="translate(0 -1) translate(191 42.413)">
                                            <tspan x="192.525" y="358.675">mana</tspan> <tspan x="225.117" y="358.675" letter-spacing="-.205">g</tspan> <tspan x="231.644" y="358.675">ement sy</tspan> <tspan x="283.736" y="358.675" letter-spacing="-.264">s</tspan> <tspan x="288.968" y="358.675" letter-spacing="-.204">t</tspan> <tspan x="293.312" y="358.675">em</tspan>
                                        </text>
                                        <path fill="#FFF" d="M113.137 56.355c0 31.125-25.232 56.357-56.357 56.357S.423 87.478.423 56.354C.423 25.23 25.655-.002 56.78-.002s56.357 25.232 56.357 56.357" transform="translate(0 -1) translate(191 42.413)"/>
                                        <path stroke="#C5C8CF" stroke-width=".75" d="M113.137 56.355c0 31.125-25.232 56.357-56.357 56.357S.423 87.478.423 56.354C.423 25.23 25.655-.002 56.78-.002s56.357 25.232 56.357 56.357z" transform="translate(0 -1) translate(191 42.413)"/>
                                        <path fill="#007CF7" d="M30.172 65.304L25.833 61.836 25.833 50.614 30.172 47.146z" transform="translate(0 -1) translate(191 42.413)"/>
                                        <path fill="#6FB6FB" d="M37.888 65.304L42.227 61.836 42.227 50.614 37.888 47.146z" transform="translate(0 -1) translate(191 42.413)"/>
                                        <path fill="#0065C7" d="M37.888 47.145L34.03 49.679 37.888 52.276zM30.172 47.145L34.03 49.679 30.172 52.276zM37.888 60.174L34.03 62.708 37.888 65.304zM30.172 60.174L34.03 62.708 30.172 65.304z" transform="translate(0 -1) translate(191 42.413)"/>
                                        <path fill="#273A5B" d="M70.247 60.249L68.072 53.597 66.123 53.597 63.948 60.251 61.987 53.597 59.939 53.597 62.967 62.986 64.879 62.986 67.052 56.236 69.242 62.986 71.172 62.986 74.2 53.597 72.189 53.597zM86.79 54.297c-.625-.663-1.524-1-2.674-1-.603 0-1.191.156-1.748.463-.465.257-.833.57-1.101.936v-1.1h-1.884v9.39h1.959v-5.18c0-.74.223-1.382.663-1.912.44-.53.972-.788 1.625-.788 1.405 0 2.104.695 2.139 2.122v5.758h1.959v-5.872c0-1.208-.315-2.155-.938-2.817M75.425 62.986L77.382 62.986 77.382 53.306 75.425 53.306zM75.337 51.52L77.47 51.52 77.47 49.389 75.337 49.389z" transform="translate(0 -1) translate(191 42.413)"/>
                                        <path fill="#273A5B" d="M62.183 49.378L49.708 49.378 49.708 51.272 54.96 51.272 54.96 63.072 56.93 63.072 56.93 51.272 62.183 51.272z" transform="translate(0 -1) translate(191 42.413)"/>
                                        <path fill="#FFF" d="M564.318 56.379c0 31.125-25.231 56.356-56.356 56.356s-56.358-25.231-56.358-56.356c0-31.126 25.233-56.357 56.358-56.357 31.125 0 56.356 25.23 56.356 56.357" transform="translate(0 -1) translate(191 42.413)"/>
                                        <path stroke="#C5C8CF" stroke-width=".75" d="M564.318 56.379c0 31.125-25.231 56.356-56.356 56.356s-56.358-25.231-56.358-56.356c0-31.126 25.233-56.357 56.358-56.357 31.125 0 56.356 25.23 56.356 56.357z" transform="translate(0 -1) translate(191 42.413)"/>
                                        <path fill="#273A5B" d="M513.702 64.176L515.663 64.176 515.663 54.472 513.702 54.472zM513.615 52.682L515.752 52.682 515.752 50.544 513.615 50.544zM539.145 54.77L537.201 61.434 535.022 54.77 533.07 54.77 530.89 61.434 528.953 54.858 528.927 54.77 526.875 54.77 529.882 64.093 529.909 64.177 531.824 64.177 534 57.416 536.193 64.177 538.127 64.177 541.16 54.77zM520.453 56.787c.445-.38.982-.57 1.6-.57.752 0 1.358.2 1.803.596.396.355.65.864.724 1.445h-4.98c.164-.627.457-1.133.853-1.47m1.637-2.388c-1.353 0-2.48.483-3.35 1.436-.854.936-1.306 2.197-1.306 3.647 0 1.41.439 2.56 1.345 3.517.894.945 2.046 1.425 3.424 1.425.942 0 1.798-.227 2.544-.674.598-.357 1.167-.902 1.563-1.492l.058-.086-1.407-1.3-.08.118c-.661.998-1.587 1.548-2.603 1.548-.836 0-1.465-.23-1.98-.72-.536-.514-.81-1.119-.856-1.896h7.218l.006-.115c.005-.099.005-.193.005-.193 0-1.635-.428-2.967-1.24-3.854-.826-.904-1.95-1.36-3.341-1.36M506.04 61.295L501.937 50.547 499.77 50.547 505.028 64.099 505.059 64.175 507.018 64.175 512.392 50.711 512.457 50.547 510.29 50.547z" transform="translate(0 -1) translate(191 42.413)"/>
                                        <path fill="#6FB6FB" d="M487.873 49.985L483.464 47.439 481.036 48.841 487.858 55.664z" transform="translate(0 -1) translate(191 42.413)"/>
                                        <path fill="#007CF7" d="M487.858 59.303L492.162 54.813 492.162 52.461 487.871 49.985z" transform="translate(0 -1) translate(191 42.413)"/>
                                        <path fill="#0065C7" d="M479.046 64.978L483.463 67.529 485.894 66.124 479.068 59.304z" transform="translate(0 -1) translate(191 42.413)"/>
                                        <path fill="#BFDCFF" d="M474.765 53.089L474.765 52.461 481.036 48.842 485.284 53.089z" transform="translate(0 -1) translate(191 42.413)"/>
                                        <path fill="#DEEDFF" d="M474.765 53.089L474.765 59.965 481.642 53.089z" transform="translate(0 -1) translate(191 42.413)"/>
                                        <path fill="#007CF7" d="M479.068 55.664L474.764 59.965 474.764 62.506 478.95 64.923 479.064 64.989z" transform="translate(0 -1) translate(191 42.413)"/>
                                        <path fill="#6FB6FB" d="M492.161 62.507L485.894 66.125 481.642 61.88 492.162 61.88z" transform="translate(0 -1) translate(191 42.413)"/>
                                        <path fill="#007CF7" d="M483.424 54.748c-1.489 0-2.696 1.207-2.696 2.695 0 1.49 1.207 2.697 2.696 2.697 1.49 0 2.696-1.207 2.696-2.697 0-1.488-1.207-2.695-2.696-2.695" transform="translate(0 -1) translate(191 42.413)"/>
                                        <path fill="#FFF" d="M484.784 55.31c-.427 0-.773.347-.773.773 0 .428.346.773.773.773.427 0 .773-.346.773-.773 0-.425-.346-.773-.773-.773" transform="translate(0 -1) translate(191 42.413)"/>
                                        <path fill="#BFDCFF" d="M485.284 61.88L487.858 59.304 492.162 54.814 492.162 61.88z" transform="translate(0 -1) translate(191 42.413)"/>
                                        <path fill="#E6E8EB" d="M232.217 257.017L232.217 288.358 270.05 288.358 270.05 256.727z" transform="translate(0 -1) translate(191 42.413)"/>
                                        <path stroke="#000" stroke-width=".565" d="M232.217 257.017L232.217 288.358 270.05 288.358 270.05 256.727z" transform="translate(0 -1) translate(191 42.413)"/>
                                        <path fill="#FFF" d="M230.975 256.965c-1.382 0-2.507-1.125-2.507-2.507v-6.155c0-1.382 1.125-2.507 2.507-2.507h40.176c1.382 0 2.507 1.125 2.507 2.507v6.155c0 1.382-1.125 2.507-2.507 2.507h-40.176z" transform="translate(0 -1) translate(191 42.413)"/>
                                        <path fill="#000" d="M271.151 245.514h-40.176c-1.534 0-2.79 1.255-2.79 2.789v6.154c0 1.536 1.256 2.79 2.79 2.79h40.176c1.534 0 2.789-1.254 2.789-2.79v-6.154c0-1.534-1.255-2.79-2.789-2.79m0 .565c1.227 0 2.225.998 2.225 2.225v6.154c0 1.228-.998 2.226-2.225 2.226h-40.176c-1.227 0-2.225-.998-2.225-2.226v-6.154c0-1.227.998-2.225 2.225-2.225h40.176" transform="translate(0 -1) translate(191 42.413)"/>
                                        <path fill="#FFF" d="M230.975 271.22c-1.382 0-2.507-1.125-2.507-2.507v-6.155c0-1.382 1.125-2.507 2.507-2.507h40.176c1.382 0 2.507 1.125 2.507 2.507v6.155c0 1.382-1.125 2.507-2.507 2.507h-40.176z" transform="translate(0 -1) translate(191 42.413)"/>
                                        <path fill="#000" d="M271.151 259.768h-40.176c-1.534 0-2.79 1.256-2.79 2.79v6.155c0 1.534 1.256 2.789 2.79 2.789h40.176c1.534 0 2.789-1.255 2.789-2.79v-6.154c0-1.534-1.255-2.79-2.789-2.79m0 .564c1.227 0 2.225.998 2.225 2.226v6.155c0 1.227-.998 2.225-2.225 2.225h-40.176c-1.227 0-2.225-.998-2.225-2.225v-6.155c0-1.228.998-2.226 2.225-2.226h40.176" transform="translate(0 -1) translate(191 42.413)"/>
                                        <path fill="#FFF" d="M230.975 285.394c-1.382 0-2.507-1.125-2.507-2.507v-6.154c0-1.382 1.125-2.507 2.507-2.507h40.176c1.382 0 2.507 1.125 2.507 2.507v6.154c0 1.382-1.125 2.507-2.507 2.507h-40.176z" transform="translate(0 -1) translate(191 42.413)"/>
                                        <path fill="#000" d="M271.151 273.943h-40.176c-1.534 0-2.79 1.255-2.79 2.79v6.153c0 1.536 1.256 2.79 2.79 2.79h40.176c1.534 0 2.789-1.254 2.789-2.79v-6.154c0-1.534-1.255-2.789-2.789-2.789m0 .564c1.227 0 2.225.998 2.225 2.225v6.154c0 1.228-.998 2.226-2.225 2.226h-40.176c-1.227 0-2.225-.998-2.225-2.226v-6.154c0-1.227.998-2.225 2.225-2.225h40.176" transform="translate(0 -1) translate(191 42.413)"/>
                                        <path fill="#0A51B7" d="M256.668 252.985c-.885 0-1.605-.72-1.605-1.605s.72-1.606 1.605-1.606 1.605.721 1.605 1.606c0 .884-.72 1.605-1.605 1.605" transform="translate(0 -1) translate(191 42.413)"/>
                                        <path fill="#000" d="M256.668 249.492c-1.042 0-1.888.846-1.888 1.888 0 1.042.846 1.887 1.888 1.887 1.042 0 1.887-.845 1.887-1.887s-.845-1.888-1.887-1.888m0 .564c.729 0 1.322.594 1.322 1.324 0 .73-.593 1.323-1.322 1.323-.73 0-1.323-.594-1.323-1.323 0-.73.594-1.324 1.323-1.324" transform="translate(0 -1) translate(191 42.413)"/>
                                        <path fill="#0A51B7" d="M262.489 252.985c-.885 0-1.605-.72-1.605-1.605s.72-1.606 1.605-1.606 1.605.721 1.605 1.606c0 .884-.72 1.605-1.605 1.605" transform="translate(0 -1) translate(191 42.413)"/>
                                        <path fill="#000" d="M262.489 249.492c-1.042 0-1.888.846-1.888 1.888 0 1.042.846 1.887 1.888 1.887 1.042 0 1.888-.845 1.888-1.887s-.846-1.888-1.888-1.888m0 .564c.729 0 1.323.594 1.323 1.324 0 .73-.594 1.323-1.323 1.323-.73 0-1.323-.594-1.323-1.323 0-.73.594-1.324 1.323-1.324" transform="translate(0 -1) translate(191 42.413)"/>
                                        <path fill="#0A51B7" d="M268.31 252.985c-.885 0-1.605-.72-1.605-1.605s.72-1.606 1.605-1.606 1.605.721 1.605 1.606c0 .884-.72 1.605-1.605 1.605" transform="translate(0 -1) translate(191 42.413)"/>
                                        <path fill="#000" d="M268.31 249.492c-1.042 0-1.887.846-1.887 1.888 0 1.042.845 1.887 1.887 1.887s1.888-.845 1.888-1.887-.846-1.888-1.888-1.888m0 .564c.73 0 1.323.594 1.323 1.324 0 .73-.594 1.323-1.323 1.323s-1.322-.594-1.322-1.323c0-.73.593-1.324 1.322-1.324" transform="translate(0 -1) translate(191 42.413)"/>
                                        <path fill="#0A51B7" d="M256.668 267.24c-.885 0-1.605-.72-1.605-1.605s.72-1.606 1.605-1.606 1.605.721 1.605 1.606c0 .884-.72 1.605-1.605 1.605" transform="translate(0 -1) translate(191 42.413)"/>
                                        <path fill="#000" d="M256.668 263.748c-1.042 0-1.888.845-1.888 1.887 0 1.043.846 1.887 1.888 1.887 1.042 0 1.887-.844 1.887-1.887 0-1.042-.845-1.887-1.887-1.887m0 .564c.729 0 1.322.593 1.322 1.323 0 .729-.593 1.323-1.322 1.323-.73 0-1.323-.594-1.323-1.323 0-.73.594-1.323 1.323-1.323" transform="translate(0 -1) translate(191 42.413)"/>
                                        <path fill="#0A51B7" d="M262.489 267.24c-.885 0-1.605-.72-1.605-1.605s.72-1.606 1.605-1.606 1.605.721 1.605 1.606c0 .884-.72 1.605-1.605 1.605" transform="translate(0 -1) translate(191 42.413)"/>
                                        <path fill="#000" d="M262.489 263.748c-1.042 0-1.888.845-1.888 1.887 0 1.043.846 1.887 1.888 1.887 1.042 0 1.888-.844 1.888-1.887 0-1.042-.846-1.887-1.888-1.887m0 .564c.729 0 1.323.593 1.323 1.323 0 .729-.594 1.323-1.323 1.323-.73 0-1.323-.594-1.323-1.323 0-.73.594-1.323 1.323-1.323" transform="translate(0 -1) translate(191 42.413)"/>
                                        <path fill="#0A51B7" d="M268.31 267.24c-.885 0-1.605-.72-1.605-1.605s.72-1.606 1.605-1.606 1.605.721 1.605 1.606c0 .884-.72 1.605-1.605 1.605" transform="translate(0 -1) translate(191 42.413)"/>
                                        <path fill="#000" d="M268.31 263.748c-1.042 0-1.887.845-1.887 1.887 0 1.043.845 1.887 1.887 1.887s1.888-.844 1.888-1.887c0-1.042-.846-1.887-1.888-1.887m0 .564c.73 0 1.323.593 1.323 1.323 0 .729-.594 1.323-1.323 1.323s-1.322-.594-1.322-1.323c0-.73.593-1.323 1.322-1.323" transform="translate(0 -1) translate(191 42.413)"/>
                                        <path fill="#0A51B7" d="M256.668 281.415c-.885 0-1.605-.721-1.605-1.605 0-.885.72-1.605 1.605-1.605s1.605.72 1.605 1.605c0 .884-.72 1.605-1.605 1.605" transform="translate(0 -1) translate(191 42.413)"/>
                                        <path fill="#000" d="M256.668 277.922c-1.042 0-1.888.846-1.888 1.889 0 1.042.846 1.886 1.888 1.886 1.042 0 1.887-.844 1.887-1.886 0-1.043-.845-1.89-1.887-1.89m0 .565c.729 0 1.322.594 1.322 1.325 0 .728-.593 1.322-1.322 1.322-.73 0-1.323-.594-1.323-1.322 0-.731.594-1.325 1.323-1.325" transform="translate(0 -1) translate(191 42.413)"/>
                                        <path fill="#0A51B7" d="M262.489 281.415c-.885 0-1.605-.721-1.605-1.605 0-.885.72-1.605 1.605-1.605s1.605.72 1.605 1.605c0 .884-.72 1.605-1.605 1.605" transform="translate(0 -1) translate(191 42.413)"/>
                                        <path fill="#000" d="M262.489 277.922c-1.042 0-1.888.846-1.888 1.889 0 1.042.846 1.886 1.888 1.886 1.042 0 1.888-.844 1.888-1.886 0-1.043-.846-1.89-1.888-1.89m0 .565c.729 0 1.323.594 1.323 1.325 0 .728-.594 1.322-1.323 1.322-.73 0-1.323-.594-1.323-1.322 0-.731.594-1.325 1.323-1.325" transform="translate(0 -1) translate(191 42.413)"/>
                                        <path fill="#0A51B7" d="M268.31 281.415c-.885 0-1.605-.721-1.605-1.605 0-.885.72-1.605 1.605-1.605s1.605.72 1.605 1.605c0 .884-.72 1.605-1.605 1.605" transform="translate(0 -1) translate(191 42.413)"/>
                                        <path fill="#000" d="M268.31 277.922c-1.042 0-1.887.846-1.887 1.889 0 1.042.845 1.886 1.887 1.886s1.888-.844 1.888-1.886c0-1.043-.846-1.89-1.888-1.89m0 .565c.73 0 1.323.594 1.323 1.325 0 .728-.594 1.322-1.323 1.322s-1.322-.594-1.322-1.322c0-.731.593-1.325 1.322-1.325" transform="translate(0 -1) translate(191 42.413)"/>
                                        <g>
                                            <path fill="#FFF" d="M1.021 0.282L1.021 6.477" transform="translate(0 -1) translate(191 42.413) translate(232 248)"/>
                                            <path stroke="#000" stroke-width=".565" d="M1.021 0.282L1.021 6.477" transform="translate(0 -1) translate(191 42.413) translate(232 248)"/>
                                        </g>
                                        <g>
                                            <path fill="#FFF" d="M1.222 0.282L1.222 6.477" transform="translate(0 -1) translate(191 42.413) translate(235 248)"/>
                                            <path stroke="#000" stroke-width=".565" d="M1.222 0.282L1.222 6.477" transform="translate(0 -1) translate(191 42.413) translate(235 248)"/>
                                        </g>
                                        <g>
                                            <path fill="#FFF" d="M1.423 0.282L1.423 6.477" transform="translate(0 -1) translate(191 42.413) translate(238 248)"/>
                                            <path stroke="#000" stroke-width=".565" d="M1.423 0.282L1.423 6.477" transform="translate(0 -1) translate(191 42.413) translate(238 248)"/>
                                        </g>
                                        <g>
                                            <path fill="#FFF" d="M0.625 0.282L0.625 6.477" transform="translate(0 -1) translate(191 42.413) translate(242 248)"/>
                                            <path stroke="#000" stroke-width=".565" d="M0.625 0.282L0.625 6.477" transform="translate(0 -1) translate(191 42.413) translate(242 248)"/>
                                        </g>
                                        <g>
                                            <path fill="#FFF" d="M0.826 0.282L0.826 6.477" transform="translate(0 -1) translate(191 42.413) translate(245 248)"/>
                                            <path stroke="#000" stroke-width=".565" d="M0.826 0.282L0.826 6.477" transform="translate(0 -1) translate(191 42.413) translate(245 248)"/>
                                        </g>
                                        <g>
                                            <path fill="#FFF" d="M1.027 0.282L1.027 6.477" transform="translate(0 -1) translate(191 42.413) translate(248 248)"/>
                                            <path stroke="#000" stroke-width=".565" d="M1.027 0.282L1.027 6.477" transform="translate(0 -1) translate(191 42.413) translate(248 248)"/>
                                        </g>
                                        <g>
                                            <path fill="#FFF" d="M0.622 0.282L0.622 6.477" transform="translate(0 -1) translate(191 42.413) translate(234 248)"/>
                                            <path stroke="#000" stroke-width=".565" d="M0.622 0.282L0.622 6.477" transform="translate(0 -1) translate(191 42.413) translate(234 248)"/>
                                        </g>
                                        <g>
                                            <path fill="#FFF" d="M0.823 0.282L0.823 6.477" transform="translate(0 -1) translate(191 42.413) translate(237 248)"/>
                                            <path stroke="#000" stroke-width=".565" d="M0.823 0.282L0.823 6.477" transform="translate(0 -1) translate(191 42.413) translate(237 248)"/>
                                        </g>
                                        <g>
                                            <path fill="#FFF" d="M1.024 0.282L1.024 6.477" transform="translate(0 -1) translate(191 42.413) translate(240 248)"/>
                                            <path stroke="#000" stroke-width=".565" d="M1.024 0.282L1.024 6.477" transform="translate(0 -1) translate(191 42.413) translate(240 248)"/>
                                        </g>
                                        <g>
                                            <path fill="#FFF" d="M1.225 0.282L1.225 6.477" transform="translate(0 -1) translate(191 42.413) translate(243 248)"/>
                                            <path stroke="#000" stroke-width=".565" d="M1.225 0.282L1.225 6.477" transform="translate(0 -1) translate(191 42.413) translate(243 248)"/>
                                        </g>
                                        <g>
                                            <path fill="#FFF" d="M1.426 0.282L1.426 6.477" transform="translate(0 -1) translate(191 42.413) translate(246 248)"/>
                                            <path stroke="#000" stroke-width=".565" d="M1.426 0.282L1.426 6.477" transform="translate(0 -1) translate(191 42.413) translate(246 248)"/>
                                        </g>
                                        <g>
                                            <path fill="#FFF" d="M1.021 0.537L1.021 6.732" transform="translate(0 -1) translate(191 42.413) translate(232 262)"/>
                                            <path stroke="#000" stroke-width=".565" d="M1.021 0.537L1.021 6.732" transform="translate(0 -1) translate(191 42.413) translate(232 262)"/>
                                        </g>
                                        <g>
                                            <path fill="#FFF" d="M1.222 0.537L1.222 6.732" transform="translate(0 -1) translate(191 42.413) translate(235 262)"/>
                                            <path stroke="#000" stroke-width=".565" d="M1.222 0.537L1.222 6.732" transform="translate(0 -1) translate(191 42.413) translate(235 262)"/>
                                        </g>
                                        <g>
                                            <path fill="#FFF" d="M1.423 0.537L1.423 6.732" transform="translate(0 -1) translate(191 42.413) translate(238 262)"/>
                                            <path stroke="#000" stroke-width=".565" d="M1.423 0.537L1.423 6.732" transform="translate(0 -1) translate(191 42.413) translate(238 262)"/>
                                        </g>
                                        <g>
                                            <path fill="#FFF" d="M0.625 0.537L0.625 6.732" transform="translate(0 -1) translate(191 42.413) translate(242 262)"/>
                                            <path stroke="#000" stroke-width=".565" d="M0.625 0.537L0.625 6.732" transform="translate(0 -1) translate(191 42.413) translate(242 262)"/>
                                        </g>
                                        <g>
                                            <path fill="#FFF" d="M0.826 0.537L0.826 6.732" transform="translate(0 -1) translate(191 42.413) translate(245 262)"/>
                                            <path stroke="#000" stroke-width=".565" d="M0.826 0.537L0.826 6.732" transform="translate(0 -1) translate(191 42.413) translate(245 262)"/>
                                        </g>
                                        <g>
                                            <path fill="#FFF" d="M1.027 0.537L1.027 6.732" transform="translate(0 -1) translate(191 42.413) translate(248 262)"/>
                                            <path stroke="#000" stroke-width=".565" d="M1.027 0.537L1.027 6.732" transform="translate(0 -1) translate(191 42.413) translate(248 262)"/>
                                        </g>
                                        <g>
                                            <path fill="#FFF" d="M0.622 0.537L0.622 6.732" transform="translate(0 -1) translate(191 42.413) translate(234 262)"/>
                                            <path stroke="#000" stroke-width=".565" d="M0.622 0.537L0.622 6.732" transform="translate(0 -1) translate(191 42.413) translate(234 262)"/>
                                        </g>
                                        <g>
                                            <path fill="#FFF" d="M0.823 0.537L0.823 6.732" transform="translate(0 -1) translate(191 42.413) translate(237 262)"/>
                                            <path stroke="#000" stroke-width=".565" d="M0.823 0.537L0.823 6.732" transform="translate(0 -1) translate(191 42.413) translate(237 262)"/>
                                        </g>
                                        <g>
                                            <path fill="#FFF" d="M1.024 0.537L1.024 6.732" transform="translate(0 -1) translate(191 42.413) translate(240 262)"/>
                                            <path stroke="#000" stroke-width=".565" d="M1.024 0.537L1.024 6.732" transform="translate(0 -1) translate(191 42.413) translate(240 262)"/>
                                        </g>
                                        <g>
                                            <path fill="#FFF" d="M1.225 0.537L1.225 6.732" transform="translate(0 -1) translate(191 42.413) translate(243 262)"/>
                                            <path stroke="#000" stroke-width=".565" d="M1.225 0.537L1.225 6.732" transform="translate(0 -1) translate(191 42.413) translate(243 262)"/>
                                        </g>
                                        <g>
                                            <path fill="#FFF" d="M1.426 0.537L1.426 6.732" transform="translate(0 -1) translate(191 42.413) translate(246 262)"/>
                                            <path stroke="#000" stroke-width=".565" d="M1.426 0.537L1.426 6.732" transform="translate(0 -1) translate(191 42.413) translate(246 262)"/>
                                        </g>
                                        <g>
                                            <path fill="#FFF" d="M1.021 0.792L1.021 6.987" transform="translate(0 -1) translate(191 42.413) translate(232 276)"/>
                                            <path stroke="#000" stroke-width=".565" d="M1.021 0.792L1.021 6.987" transform="translate(0 -1) translate(191 42.413) translate(232 276)"/>
                                        </g>
                                        <g>
                                            <path fill="#FFF" d="M1.222 0.792L1.222 6.987" transform="translate(0 -1) translate(191 42.413) translate(235 276)"/>
                                            <path stroke="#000" stroke-width=".565" d="M1.222 0.792L1.222 6.987" transform="translate(0 -1) translate(191 42.413) translate(235 276)"/>
                                        </g>
                                        <g>
                                            <path fill="#FFF" d="M1.423 0.792L1.423 6.987" transform="translate(0 -1) translate(191 42.413) translate(238 276)"/>
                                            <path stroke="#000" stroke-width=".565" d="M1.423 0.792L1.423 6.987" transform="translate(0 -1) translate(191 42.413) translate(238 276)"/>
                                        </g>
                                        <g>
                                            <path fill="#FFF" d="M0.625 0.792L0.625 6.987" transform="translate(0 -1) translate(191 42.413) translate(242 276)"/>
                                            <path stroke="#000" stroke-width=".565" d="M0.625 0.792L0.625 6.987" transform="translate(0 -1) translate(191 42.413) translate(242 276)"/>
                                        </g>
                                        <g>
                                            <path fill="#FFF" d="M0.826 0.792L0.826 6.987" transform="translate(0 -1) translate(191 42.413) translate(245 276)"/>
                                            <path stroke="#000" stroke-width=".565" d="M0.826 0.792L0.826 6.987" transform="translate(0 -1) translate(191 42.413) translate(245 276)"/>
                                        </g>
                                        <g>
                                            <path fill="#FFF" d="M1.027 0.792L1.027 6.987" transform="translate(0 -1) translate(191 42.413) translate(248 276)"/>
                                            <path stroke="#000" stroke-width=".565" d="M1.027 0.792L1.027 6.987" transform="translate(0 -1) translate(191 42.413) translate(248 276)"/>
                                        </g>
                                        <g>
                                            <path fill="#FFF" d="M0.622 0.792L0.622 6.987" transform="translate(0 -1) translate(191 42.413) translate(234 276)"/>
                                            <path stroke="#000" stroke-width=".565" d="M0.622 0.792L0.622 6.987" transform="translate(0 -1) translate(191 42.413) translate(234 276)"/>
                                        </g>
                                        <g>
                                            <path fill="#FFF" d="M0.823 0.792L0.823 6.987" transform="translate(0 -1) translate(191 42.413) translate(237 276)"/>
                                            <path stroke="#000" stroke-width=".565" d="M0.823 0.792L0.823 6.987" transform="translate(0 -1) translate(191 42.413) translate(237 276)"/>
                                        </g>
                                        <g>
                                            <path fill="#FFF" d="M1.024 0.792L1.024 6.987" transform="translate(0 -1) translate(191 42.413) translate(240 276)"/>
                                            <path stroke="#000" stroke-width=".565" d="M1.024 0.792L1.024 6.987" transform="translate(0 -1) translate(191 42.413) translate(240 276)"/>
                                        </g>
                                        <g>
                                            <path fill="#FFF" d="M1.225 0.792L1.225 6.987" transform="translate(0 -1) translate(191 42.413) translate(243 276)"/>
                                            <path stroke="#000" stroke-width=".565" d="M1.225 0.792L1.225 6.987" transform="translate(0 -1) translate(191 42.413) translate(243 276)"/>
                                        </g>
                                        <g>
                                            <path fill="#FFF" d="M1.426 0.792L1.426 6.987" transform="translate(0 -1) translate(191 42.413) translate(246 276)"/>
                                            <path stroke="#000" stroke-width=".565" d="M1.426 0.792L1.426 6.987" transform="translate(0 -1) translate(191 42.413) translate(246 276)"/>
                                        </g>
                                        <path fill="#E6E8EB" d="M265.859 276.927s.187-1.193 1.877-2.007c1.69-.813 5.93-1.964 11.109-1.25 5.179.716 6.54 2 6.54 2l.623 1.378-.001 15.146s-.685 1.814-4.158 2.565c-3.473.75-10.389 1.002-13.706-.531 0 0-2.097-.876-2.284-2.191v-15.11z" transform="translate(0 -1) translate(191 42.413)"/>
                                        <path stroke="#000" stroke-width=".565" d="M286.008 276.792s-.778-3.346-10.378-3.346-9.771 3.417-9.771 3.417v15.211s1.055 3.44 10.068 3.44c9.014 0 10.08-3.44 10.08-3.44v-15.282z" transform="translate(0 -1) translate(191 42.413)"/>
                                        <path stroke="#000" stroke-width=".565" d="M265.859 282.241s1.125 3.296 10.205 3.21c9.079-.087 9.944-3.21 9.944-3.21M265.859 287.2s1.125 3.295 10.205 3.208c9.079-.087 9.944-3.209 9.944-3.209M265.859 277.283s1.125 3.297 10.205 3.21c9.079-.087 9.944-3.21 9.944-3.21" transform="translate(0 -1) translate(191 42.413)"/>
                                        <path stroke="#C5C8CF" stroke-width=".75" d="M252.296 171.365L252.296 207.193" transform="translate(0 -1) translate(191 42.413)"/>
                                        <path fill="#C5C8CF" d="M252.296 177.341L247.534 177.341 249.915 173.217 252.296 169.093 254.677 173.217 257.058 177.341z" transform="translate(0 -1) translate(191 42.413)"/>
                                        <path stroke="#C5C8CF" stroke-width=".75" d="M438.236 49.382L302.629 49.382" transform="translate(0 -1) translate(191 42.413)"/>
                                        <path fill="#C5C8CF" d="M432.26 49.382L432.26 44.62 436.384 47.001 440.508 49.382 436.384 51.763 432.26 54.144z" transform="translate(0 -1) translate(191 42.413)"/>
                                        <path stroke="#C5C8CF" stroke-width=".75" d="M300.777 62.447L436.385 62.447" transform="translate(0 -1) translate(191 42.413)"/>
                                        <path fill="#C5C8CF" d="M306.753 62.447L306.753 67.209 302.629 64.828 298.505 62.447 302.629 60.066 306.753 57.684z" transform="translate(0 -1) translate(191 42.413)"/>
                                    </g>
                                    <text font-family="NotoSansCJKkr-Medium, Noto Sans CJK KR" font-size="12" font-weight="400" transform="translate(0 -1)">
                                        <tspan x="496.085" y="124.953" fill="#000">Gas / engine </tspan> <tspan x="568.853" y="124.953" fill="#000" letter-spacing="-.264">s</tspan> <tspan x="574.085" y="124.953" fill="#000" letter-spacing="-.288">t</tspan> <tspan x="578.261" y="124.953" fill="#000" letter-spacing="-.204">a</tspan> <tspan x="584.753" y="124.953" fill="#000">tus d</tspan> <tspan x="612.965" y="124.953" fill="#000" letter-spacing="-.205">a</tspan> <tspan x="619.456" y="124.953" fill="#000" letter-spacing="-.287">t</tspan> <tspan x="623.633" y="124.953" fill="#000">a</tspan>
                                    </text>
                                    <text font-family="NotoSansCJKkr-Medium, Noto Sans CJK KR" font-size="12" font-weight="400" transform="translate(0 -1)">
                                        <tspan x="527.753" y="140.949" fill="#000">Sa</tspan> <tspan x="541.949" y="140.949" fill="#000" letter-spacing="-.131">f</tspan> <tspan x="545.826" y="140.949" fill="#000" letter-spacing="-.132">e</tspan> <tspan x="552.342" y="140.949" fill="#000">ty check</tspan>
                                    </text>
                                    <text font-family="NotoSansCJKkr-Medium, Noto Sans CJK KR" font-size="12" font-weight="400" letter-spacing="-.132" transform="translate(0 -1)">
                                        <tspan x="533.237" y="156.945" fill="#000">r</tspan> <tspan x="537.881" y="156.945" fill="#000">esult d</tspan> <tspan x="576.449" y="156.945" fill="#000" letter-spacing="-.205">a</tspan> <tspan x="582.94" y="156.945" fill="#000" letter-spacing="-.287">t</tspan> <tspan x="587.117" y="156.945" fill="#000">a</tspan>
                                    </text>
                                    <text font-family="NotoSansCJKkr-Medium, Noto Sans CJK KR" font-size="12" font-weight="400" transform="translate(0 -1)">
                                        <tspan x="495.701" y="40.077" fill="#000">Sa</tspan> <tspan x="509.897" y="40.077" fill="#000" letter-spacing="-.132">fe</tspan> <tspan x="520.289" y="40.077" fill="#000">ty check </tspan> <tspan x="570.509" y="40.077" fill="#000" letter-spacing="-.132">r</tspan> <tspan x="575.153" y="40.077" fill="#000">esult d</tspan> <tspan x="613.721" y="40.077" fill="#000" letter-spacing="-.203">a</tspan> <tspan x="620.214" y="40.077" fill="#000" letter-spacing="-.288">t</tspan> <tspan x="624.39" y="40.077" fill="#000">a</tspan>
                                    </text>
                                    <text font-family="NotoSansCJKkr-Medium, Noto Sans CJK KR" font-size="12" font-weight="400" transform="translate(0 -1)">
                                        <tspan x="519.341" y="56.073" fill="#000">Inspe</tspan> <tspan x="550.637" y="56.073" fill="#000" letter-spacing="-.133">c</tspan> <tspan x="556.576" y="56.073" fill="#000">tion i</tspan> <tspan x="585.772" y="56.073" fill="#000" letter-spacing="-.205">t</tspan> <tspan x="590.115" y="56.073" fill="#000">em</tspan>
                                    </text>
                                    <text font-family="NotoSansCJKkr-Medium, Noto Sans CJK KR" font-size="12" font-weight="400" transform="translate(0 -1)">
                                        <tspan x="506.693" y="72.069" fill="#000">&amp; main</tspan> <tspan x="546.989" y="72.069" fill="#000" letter-spacing="-.204">t</tspan> <tspan x="551.333" y="72.069" fill="#000">enan</tspan> <tspan x="579.989" y="72.069" fill="#000" letter-spacing="-.312">c</tspan> <tspan x="585.569" y="72.069" fill="#000">e d</tspan> <tspan x="602.609" y="72.069" fill="#000" letter-spacing="-.204">a</tspan> <tspan x="609.101" y="72.069" fill="#000" letter-spacing="-.288">t</tspan> <tspan x="613.277" y="72.069" fill="#000">a</tspan>
                                    </text>
                                    <g>
                                        <path stroke="#C5C8CF" stroke-width=".75" d="M34.801 5.354L0.972 5.354" transform="translate(0 -1) translate(146 93.413)"/>
                                        <path fill="#C5C8CF" d="M28.825 5.354L28.825 0.593 32.949 2.974 37.073 5.354 32.949 7.736 28.825 10.117z" transform="translate(0 -1) translate(146 93.413)"/>
                                    </g>
                                    <text font-family="NotoSansCJKkr-Medium, Noto Sans CJK KR" font-size="12" font-weight="400" transform="translate(0 -1)">
                                        <tspan x="32.894" y="174.453" fill="#000">Con</tspan> <tspan x="55.502" y="174.453" fill="#000" letter-spacing="-.264">s</tspan> <tspan x="60.734" y="174.453" fill="#000">tru</tspan> <tspan x="77.834" y="174.453" fill="#000" letter-spacing="-.132">c</tspan> <tspan x="83.774" y="174.453" fill="#000">t virtual</tspan>
                                    </text>
                                    <text font-family="NotoSansCJKkr-Medium, Noto Sans CJK KR" font-size="12" font-weight="400" transform="translate(0 -1)">
                                        <tspan x="24.194" y="190.449" fill="#000">s</tspan> <tspan x="29.954" y="190.449" fill="#000" letter-spacing="-.18">p</tspan> <tspan x="37.154" y="190.449" fill="#000">a</tspan> <tspan x="44.054" y="190.449" fill="#000" letter-spacing="-.312">c</tspan> <tspan x="49.634" y="190.449" fill="#000">e in digi</tspan> <tspan x="94.13" y="190.449" fill="#000" letter-spacing="-.288">t</tspan> <tspan x="98.306" y="190.449" fill="#000">al twin</tspan>
                                    </text>
                                    <g transform="translate(0 -1) translate(0 .413)">
                                        <path fill="#FFF" d="M137.394 98.355c0 31.124-25.232 56.356-56.357 56.356S24.68 129.48 24.68 98.355c0-31.124 25.232-56.356 56.357-56.356s56.357 25.232 56.357 56.357"/>
                                        <path stroke="#C5C8CF" stroke-width=".75" d="M137.394 98.355c0 31.124-25.232 56.356-56.357 56.356S24.68 129.48 24.68 98.355c0-31.124 25.232-56.356 56.357-56.356s56.357 25.232 56.357 56.357z"/>
                                        <path fill="#E6E8EB" d="M81.135 83.842L81.135 92.306 68.792 92.306 68.792 83.842 63.432 83.842 63.432 108.542 68.191 108.542 68.792 108.542 81.135 108.542 91.518 108.542 98.643 108.542 98.643 87.039 92.774 83.842 92.774 86.992 86.98 83.842 86.98 86.992z"/>
                                        <path stroke="#000" stroke-width=".779" d="M81.135 83.842L81.135 92.306 68.792 92.306 68.792 83.842 63.432 83.842 63.432 108.542 68.191 108.542 68.792 108.542 81.135 108.542 91.518 108.542 98.643 108.542 98.643 87.039 92.774 83.842 92.774 86.992 86.98 83.842 86.98 86.992z"/>
                                        <mask id="rbqguxl9xf" fill="#fff">
                                            <use xlink:href="#u0bqudsy9e"/>
                                        </mask>
                                        <path fill="#FFF" d="M63.432 108.542L68.777 108.542 68.777 83.842 63.432 83.842z" mask="url(#rbqguxl9xf)"/>
                                        <path stroke="#000" stroke-width=".779" d="M63.432 108.542L68.777 108.542 68.777 83.842 63.432 83.842z" mask="url(#rbqguxl9xf)"/>
                                        <g mask="url(#rbqguxl9xf)">
                                            <g>
                                                <path fill="#FFF" d="M0.432 0.757L5.62 0.757" transform="translate(63 86)"/>
                                                <path stroke="#000" stroke-width=".779" d="M0.432 0.757L5.62 0.757" transform="translate(63 86)"/>
                                            </g>
                                        </g>
                                        <path fill="#FFF" d="M68.776 108.542L91.711 108.542 91.711 92.306 68.776 92.306z" mask="url(#rbqguxl9xf)"/>
                                        <path stroke="#000" stroke-width=".776" d="M68.776 108.542L91.711 108.542 91.711 92.306 68.776 92.306z" mask="url(#rbqguxl9xf)"/>
                                        <path fill="#E6E8EB" d="M74.467 102.273h-2.346c-.374 0-.676-.303-.676-.677v-2.345c0-.374.302-.677.676-.677h2.346c.374 0 .677.303.677.677v2.345c0 .374-.303.677-.677.677" mask="url(#rbqguxl9xf)"/>
                                        <path stroke="#000" stroke-width=".779" d="M74.467 102.273h-2.346c-.374 0-.676-.303-.676-.677v-2.345c0-.374.302-.677.676-.677h2.346c.374 0 .677.303.677.677v2.345c0 .374-.303.677-.677.677z" mask="url(#rbqguxl9xf)"/>
                                        <path fill="#E6E8EB" d="M81.31 102.273h-2.346c-.374 0-.676-.303-.676-.677v-2.345c0-.374.302-.677.676-.677h2.346c.374 0 .676.303.676.677v2.345c0 .374-.302.677-.676.677" mask="url(#rbqguxl9xf)"/>
                                        <path stroke="#000" stroke-width=".779" d="M81.31 102.273h-2.346c-.374 0-.676-.303-.676-.677v-2.345c0-.374.302-.677.676-.677h2.346c.374 0 .676.303.676.677v2.345c0 .374-.302.677-.676.677z" mask="url(#rbqguxl9xf)"/>
                                        <path fill="#E6E8EB" d="M88.153 102.273h-2.346c-.374 0-.677-.303-.677-.677v-2.345c0-.374.303-.677.677-.677h2.346c.374 0 .676.303.676.677v2.345c0 .374-.302.677-.676.677" mask="url(#rbqguxl9xf)"/>
                                        <path stroke="#000" stroke-width=".779" d="M88.153 102.273h-2.346c-.374 0-.677-.303-.677-.677v-2.345c0-.374.303-.677.677-.677h2.346c.374 0 .676.303.676.677v2.345c0 .374-.302.677-.676.677z" mask="url(#rbqguxl9xf)"/>
                                        <g mask="url(#rbqguxl9xf)">
                                            <g>
                                                <path fill="#FFF" d="M0.776 1.284L23.518 1.284" transform="translate(68 94)"/>
                                                <path stroke="#000" stroke-width=".779" d="M0.776 1.284L23.518 1.284" transform="translate(68 94)"/>
                                            </g>
                                        </g>
                                        <path stroke="#000" stroke-width=".779" d="M100.435 73.659L104.147 73.659 104.147 77.371M61.68 73.659L57.967 73.659 57.967 77.371M61.68 118.717L57.967 118.717 57.967 115.004M100.435 118.717L104.147 118.717 104.147 115.004" mask="url(#rbqguxl9xf)"/>
                                        <path fill="#0A51B7" d="M63.432 87.437L68.777 87.437 68.777 83.842 63.432 83.842z" mask="url(#rbqguxl9xf)"/>
                                        <path stroke="#000" stroke-width=".779" d="M63.432 87.437L68.777 87.437 68.777 83.842 63.432 83.842z" mask="url(#rbqguxl9xf)"/>
                                        <path stroke="#0A51B7" stroke-width=".779" d="M57.947 106.006L104.127 106.006" mask="url(#rbqguxl9xf)"/>
                                    </g>
                                </g>
                            </g>
                        </g>
                    </g>
                </g>
            </g>
        </g>
    </g>
</svg>
