<svg xmlns="http://www.w3.org/2000/svg" xmlns:xlink="http://www.w3.org/1999/xlink" width="780" height="210" viewBox="0 0 780 210">
    <defs>
        <path id="2i4s4isara" d="M0 0H780V210H0z"/>
        <path id="gsxzvrkxvc" d="M0.571 0.675L137.357 0.675 137.357 18.675 0.571 18.675z"/>
        <path id="1m3d3lz46e" d="M0.749 7.261L0.749 20.292 12.035 26.809 23.321 20.292 23.321 7.261 12.035 0.745z"/>
        <path id="bdcc37n2lg" d="M0.969 13.293L12.035 19.613 12.035 6.777 0.969 0.388z"/>
        <path id="46vcd5l7ei" d="M.749 7.261v13.032l11.286 6.516 11.286-6.516V7.261L12.035.745.749 7.261zm.388 12.809V7.484l10.898-6.292 10.898 6.292V20.07l-10.898 6.291L1.137 20.07z"/>
    </defs>
    <g fill="none" fill-rule="evenodd">
        <g>
            <g>
                <g>
                    <g>
                        <g transform="translate(-760 -6001) translate(0 2554) translate(320 636) translate(60 2674) translate(380 137)">
                            <mask id="fzefv04fnb" fill="#fff">
                                <use xlink:href="#2i4s4isara"/>
                            </mask>
                            <use fill="#F8F9FB" xlink:href="#2i4s4isara"/>
                            <g mask="url(#fzefv04fnb)">
                                <g>
                                    <text font-family="NotoSansCJKkr-Medium, Noto Sans CJK KR" font-size="12" font-weight="400" transform="translate(24 26)">
                                        <tspan x="8.521" y="133.96" fill="#000">2D CAD(d</tspan> <tspan x="61.873" y="133.96" fill="#000" letter-spacing="-.337">r</tspan> <tspan x="66.108" y="133.96" fill="#000">awin</tspan> <tspan x="93.876" y="133.96" fill="#000" letter-spacing=".144">g</tspan> <tspan x="101.1" y="133.96" fill="#000">)</tspan>
                                    </text>
                                    <text font-family="NotoSansCJKkr-Medium, Noto Sans CJK KR" font-size="12" font-weight="400" letter-spacing="-.312" transform="translate(24 26)">
                                        <tspan x="25.592" y="149.959" fill="#000">c</tspan> <tspan x="31.172" y="149.959" fill="#000">on</tspan> <tspan x="46.028" y="149.959" fill="#000" letter-spacing="-.072">v</tspan> <tspan x="52.424" y="149.959" fill="#000">e</tspan> <tspan x="59.204" y="149.959" fill="#000" letter-spacing="-.072">r</tspan> <tspan x="63.968" y="149.959" fill="#000">sion</tspan>
                                    </text>
                                    <path stroke="#C5C8CF" stroke-width=".75" d="M198.991 56.669L123.384 56.669" transform="translate(24 26)"/>
                                    <path fill="#C5C8CF" d="M193.015 56.669L193.015 51.907 197.139 54.288 201.263 56.669 197.139 59.05 193.015 61.432z" transform="translate(24 26)"/>
                                    <path stroke="#C5C8CF" stroke-width=".75" d="M605.234 56.669L527.775 56.669" transform="translate(24 26)"/>
                                    <path fill="#C5C8CF" d="M599.259 56.669L599.259 51.907 603.383 54.288 607.507 56.669 603.383 59.05 599.259 61.432z" transform="translate(24 26)"/>
                                    <g transform="translate(24 26) translate(606 119.284)">
                                        <mask id="l7kh1j5wld" fill="#fff">
                                            <use xlink:href="#gsxzvrkxvc"/>
                                        </mask>
                                        <text fill="#000" font-family="NotoSansCJKkr-Medium, Noto Sans CJK KR" font-size="12" font-weight="400" mask="url(#l7kh1j5wld)">
                                            <tspan x=".571" y="14.675">AR manual visuali</tspan> <tspan x="102.007" y="14.675" letter-spacing="-.277">z</tspan> <tspan x="107.334" y="14.675" letter-spacing="-.203">a</tspan> <tspan x="113.827" y="14.675">tion</tspan>
                                        </text>
                                    </g>
                                    <text font-family="NotoSansCJKkr-Medium, Noto Sans CJK KR" font-size="12" font-weight="400" transform="translate(24 26)">
                                        <tspan x="537.095" y="23.638" fill="#000">D</tspan> <tspan x="545.483" y="23.638" fill="#000" letter-spacing="-.336">r</tspan> <tspan x="549.719" y="23.638" fill="#000">awing &amp;</tspan>
                                    </text>
                                    <text font-family="NotoSansCJKkr-Medium, Noto Sans CJK KR" font-size="12" font-weight="400" transform="translate(24 26)">
                                        <tspan x="521.195" y="39.634" fill="#000">manual </tspan> <tspan x="567.503" y="39.634" fill="#000" letter-spacing="-.313">c</tspan> <tspan x="573.082" y="39.634" fill="#000">on</tspan> <tspan x="587.938" y="39.634" fill="#000" letter-spacing="-.204">t</tspan> <tspan x="592.282" y="39.634" fill="#000">ent</tspan>
                                    </text>
                                    <text font-family="NotoSansCJKkr-Medium, Noto Sans CJK KR" font-size="12" font-weight="400" transform="translate(24 26)">
                                        <tspan x="220.475" y="133.954" fill="#000">P</tspan> <tspan x="228.239" y="133.954" fill="#000" letter-spacing="-.132">r</tspan> <tspan x="232.883" y="133.954" fill="#000">odu</tspan> <tspan x="255.251" y="133.954" fill="#000" letter-spacing="-.312">c</tspan> <tspan x="260.831" y="133.954" fill="#000">e / edit AR</tspan>
                                    </text>
                                    <g>
                                        <text fill="#000" font-family="NotoSansCJKkr-Medium, Noto Sans CJK KR" font-size="12" font-weight="400" transform="translate(24 26) translate(213 .284)">
                                            <tspan x="5.069" y="149.675">blueprint d</tspan> <tspan x="68.825" y="149.675" letter-spacing="-.336">r</tspan> <tspan x="73.061" y="149.675">awing</tspan>
                                        </text>
                                        <path fill="#FFF" d="M112.94 56.508c0 31.125-25.232 56.357-56.357 56.357S.226 87.633.226 56.508 25.458.15 56.583.15s56.357 25.232 56.357 56.357" transform="translate(24 26) translate(213 .284)"/>
                                        <path stroke="#C5C8CF" stroke-width=".75" d="M112.94 56.508c0 31.125-25.232 56.357-56.357 56.357S.226 87.633.226 56.508 25.458.15 56.583.15s56.357 25.232 56.357 56.357z" transform="translate(24 26) translate(213 .284)"/>
                                        <path fill="#273A5B" d="M54.843 57.082L50.248 49.738 50.212 49.682 48.303 49.682 48.303 63.322 50.267 63.322 50.267 55.244 50.202 53.317 54.236 59.71 54.272 59.766 55.414 59.766 59.484 53.317 59.42 55.248 59.42 63.322 61.383 63.322 61.383 49.682 59.474 49.682zM69.66 59.27c-.015.662-.29 1.248-.813 1.744-.542.512-1.166.772-1.854.772-.482 0-.907-.142-1.264-.422-.353-.278-.525-.614-.525-1.03 0-.46.214-.839.653-1.156.445-.32 1.01-.481 1.679-.481.9 0 1.615.192 2.124.573m-2.42-5.719c-1.427 0-2.705.624-3.696 1.807l-.071.085 1.375 1.375.083-.106c.415-.517 1.268-1.385 2.332-1.385.726 0 1.259.184 1.728.598.45.398.67.867.67 1.434v.192c-.65-.319-1.458-.48-2.406-.48-1.22 0-2.211.291-2.947.867-.745.582-1.123 1.377-1.123 2.358 0 .932.358 1.718 1.06 2.337.7.616 1.58.928 2.617.928 1.143 0 2.083-.477 2.799-1.42v1.186h1.888V57.49c0-1.214-.385-2.186-1.143-2.887-.746-.688-1.84-1.052-3.166-1.052M81.49 54.16L81.49 53.914 79.112 53.914 75.314 57.764 75.314 49.684 75.075 49.684 73.352 51.174 73.352 63.325 75.314 63.325 75.314 60.317 76.578 59.071 79.395 63.325 81.659 63.325 81.659 63.094 77.951 57.68z" transform="translate(24 26) translate(213 .284)"/>
                                        <path fill="#273A5B" d="M83.696 57.405c.163-.626.456-1.132.852-1.469.443-.379.98-.57 1.597-.57.752 0 1.358.2 1.8.596.398.354.652.863.726 1.443h-4.975zm7.063 1.355c0-1.632-.43-2.963-1.24-3.849-.824-.902-1.947-1.36-3.336-1.36-1.353 0-2.48.483-3.347 1.434-.854.936-1.305 2.196-1.305 3.645 0 1.408.44 2.557 1.344 3.512.893.946 2.044 1.424 3.42 1.424.94 0 1.796-.226 2.543-.674.597-.356 1.166-.9 1.56-1.49l.058-.087-1.406-1.298-.078.118c-.662.997-1.586 1.546-2.602 1.546-.836 0-1.464-.228-1.976-.719-.544-.52-.811-1.108-.857-1.894h7.192l.03-.308z" transform="translate(24 26) translate(213 .284)"/>
                                        <path fill="#6FB6FB" d="M23.826 57.107L22.408 57.926 22.418 61.519 31.108 56.507 27.987 54.705zM39.806 57.927L38.388 57.108 34.228 54.706 31.108 56.508 39.806 61.53z" transform="translate(24 26) translate(213 .284)"/>
                                        <path fill="#BFDCFF" d="M39.807 57.926L39.807 61.53 31.108 66.552 31.108 62.948 32.526 62.13z" transform="translate(24 26) translate(213 .284)"/>
                                        <path fill="#007CF7" d="M22.409 57.926L22.409 61.53 31.108 66.552 31.108 62.948 29.69 62.13z" transform="translate(24 26) translate(213 .284)"/>
                                        <path fill="#6FB6FB" d="M38.388 50.667L31.107 46.463 23.826 50.667 22.408 51.485 22.418 55.079 31.112 50.063 39.806 55.089 39.806 51.485z" transform="translate(24 26) translate(213 .284)"/>
                                        <path fill="#BFDCFF" d="M39.807 51.485L39.807 55.089 31.108 60.111 31.108 56.507 32.526 55.688z" transform="translate(24 26) translate(213 .284)"/>
                                        <path fill="#007CF7" d="M22.409 51.485L22.409 55.089 31.108 60.111 31.108 56.507 29.69 55.688z" transform="translate(24 26) translate(213 .284)"/>
                                        <path fill="#FFF" d="M518.319 56.508c0 31.125-25.232 56.357-56.357 56.357s-56.357-25.232-56.357-56.357S430.837.15 461.962.15s56.357 25.232 56.357 56.357" transform="translate(24 26) translate(213 .284)"/>
                                        <path stroke="#C5C8CF" stroke-width=".75" d="M518.319 56.508c0 31.125-25.232 56.357-56.357 56.357s-56.357-25.232-56.357-56.357S430.837.15 461.962.15s56.357 25.232 56.357 56.357z" transform="translate(24 26) translate(213 .284)"/>
                                        <path fill="#273A5B" d="M467.702 64.305L469.663 64.305 469.663 54.601 467.702 54.601zM467.615 52.811L469.752 52.811 469.752 50.673 467.615 50.673zM493.146 54.899L491.201 61.563 489.023 54.899 487.07 54.899 484.891 61.563 482.954 54.986 482.928 54.899 480.876 54.899 483.883 64.222 483.91 64.305 485.825 64.305 488 57.545 490.194 64.305 492.127 64.305 495.16 54.899zM474.453 56.916c.445-.38.982-.571 1.6-.571.752 0 1.358.201 1.803.597.396.355.65.865.724 1.445h-4.98c.164-.627.457-1.133.853-1.471m1.637-2.387c-1.353 0-2.48.483-3.35 1.436-.854.937-1.306 2.198-1.306 3.647 0 1.41.439 2.56 1.345 3.517.894.945 2.046 1.425 3.424 1.425.942 0 1.798-.227 2.544-.674.598-.357 1.167-.901 1.563-1.492l.058-.086-1.407-1.3-.08.118c-.661.998-1.586 1.548-2.603 1.548-.836 0-1.465-.23-1.98-.721-.536-.513-.81-1.118-.856-1.895h7.218l.006-.115c.005-.098.005-.193.005-.193 0-1.635-.428-2.967-1.24-3.854-.826-.904-1.95-1.361-3.341-1.361M460.04 61.424L455.937 50.676 453.77 50.676 459.028 64.228 459.059 64.304 461.018 64.304 466.392 50.841 466.458 50.676 464.291 50.676z" transform="translate(24 26) translate(213 .284)"/>
                                        <path fill="#6FB6FB" d="M441.873 50.114L437.464 47.568 435.036 48.97 441.858 55.793z" transform="translate(24 26) translate(213 .284)"/>
                                        <path fill="#007CF7" d="M441.859 59.432L446.163 54.942 446.163 52.59 441.872 50.114z" transform="translate(24 26) translate(213 .284)"/>
                                        <path fill="#0065C7" d="M433.046 65.107L437.463 67.658 439.894 66.253 433.068 59.433z" transform="translate(24 26) translate(213 .284)"/>
                                        <path fill="#BFDCFF" d="M428.765 53.218L428.765 52.59 435.036 48.971 439.284 53.218z" transform="translate(24 26) translate(213 .284)"/>
                                        <path fill="#DEEDFF" d="M428.765 53.218L428.765 60.094 435.642 53.218z" transform="translate(24 26) translate(213 .284)"/>
                                        <path fill="#007CF7" d="M433.068 55.793L428.764 60.094 428.764 62.635 432.95 65.052 433.064 65.118z" transform="translate(24 26) translate(213 .284)"/>
                                        <path fill="#6FB6FB" d="M446.162 62.636L439.894 66.254 435.643 62.009 446.162 62.009z" transform="translate(24 26) translate(213 .284)"/>
                                        <path fill="#007CF7" d="M437.425 54.877c-1.49 0-2.696 1.207-2.696 2.695 0 1.49 1.207 2.697 2.696 2.697s2.696-1.207 2.696-2.697c0-1.488-1.207-2.695-2.696-2.695" transform="translate(24 26) translate(213 .284)"/>
                                        <path fill="#FFF" d="M438.784 55.44c-.427 0-.773.346-.773.773 0 .426.346.773.773.773.427 0 .773-.346.773-.773 0-.427-.346-.773-.773-.773" transform="translate(24 26) translate(213 .284)"/>
                                        <path fill="#BFDCFF" d="M439.284 62.009L441.858 59.433 446.162 54.943 446.162 62.009z" transform="translate(24 26) translate(213 .284)"/>
                                    </g>
                                    <text font-family="NotoSansCJKkr-Bold, Noto Sans CJK KR" font-size="18" font-weight="bold" transform="translate(24 26)">
                                        <tspan x="430.07" y="96.372" fill="#092E6E">AR Con</tspan> <tspan x="492.602" y="96.372" fill="#092E6E" letter-spacing="-.344">t</tspan> <tspan x="499.476" y="96.372" fill="#092E6E">ent</tspan>
                                    </text>
                                    <text font-family="NotoSansCJKkr-Bold, Noto Sans CJK KR" font-size="18" font-weight="bold" transform="translate(24 26)">
                                        <tspan x="421.736" y="118.368" fill="#092E6E">Mana</tspan> <tspan x="469.922" y="118.368" fill="#092E6E" letter-spacing="-.344">g</tspan> <tspan x="479.983" y="118.368" fill="#092E6E">ement</tspan>
                                    </text>
                                    <text font-family="NotoSansCJKkr-Bold, Noto Sans CJK KR" font-size="18" font-weight="bold" transform="translate(24 26)">
                                        <tspan x="450.554" y="140.364" fill="#092E6E">Se</tspan> <tspan x="472.244" y="140.364" fill="#092E6E" letter-spacing=".25">r</tspan> <tspan x="480.594" y="140.364" fill="#092E6E" letter-spacing="-.142">v</tspan> <tspan x="490.676" y="140.364" fill="#092E6E">er</tspan>
                                    </text>
                                    <g>
                                        <path fill="#E6E8EB" d="M458.641 36.315L458.641 67.656 496.474 67.656 496.474 36.025z" transform="translate(24 26) translate(0 .284)"/>
                                        <path stroke="#000" stroke-width=".565" d="M458.641 36.315L458.641 67.656 496.474 67.656 496.474 36.025z" transform="translate(24 26) translate(0 .284)"/>
                                        <path fill="#FFF" d="M457.398 36.263c-1.382 0-2.507-1.125-2.507-2.507V27.6c0-1.382 1.125-2.507 2.507-2.507h40.176c1.383 0 2.507 1.125 2.507 2.507v6.155c0 1.382-1.124 2.507-2.507 2.507h-40.176z" transform="translate(24 26) translate(0 .284)"/>
                                        <path fill="#000" d="M497.574 24.81h-40.176c-1.534 0-2.789 1.257-2.789 2.79v6.155c0 1.534 1.255 2.79 2.789 2.79h40.176c1.534 0 2.789-1.256 2.789-2.79V27.6c0-1.534-1.255-2.79-2.789-2.79m0 .565c1.227 0 2.225.997 2.225 2.226v6.154c0 1.227-.998 2.225-2.225 2.225h-40.176c-1.227 0-2.225-.997-2.225-2.224V27.6c0-1.229.998-2.226 2.225-2.226h40.176" transform="translate(24 26) translate(0 .284)"/>
                                        <path fill="#FFF" d="M457.398 50.518c-1.382 0-2.507-1.125-2.507-2.507v-6.155c0-1.382 1.125-2.507 2.507-2.507h40.176c1.383 0 2.507 1.125 2.507 2.507v6.155c0 1.382-1.124 2.507-2.507 2.507h-40.176z" transform="translate(24 26) translate(0 .284)"/>
                                        <path fill="#000" d="M497.574 39.066h-40.176c-1.534 0-2.789 1.255-2.789 2.79v6.153c0 1.536 1.255 2.79 2.789 2.79h40.176c1.534 0 2.789-1.254 2.789-2.79v-6.154c0-1.534-1.255-2.789-2.789-2.789m0 .564c1.227 0 2.225.998 2.225 2.225v6.154c0 1.228-.998 2.226-2.225 2.226h-40.176c-1.227 0-2.225-.998-2.225-2.226v-6.154c0-1.227.998-2.225 2.225-2.225h40.176" transform="translate(24 26) translate(0 .284)"/>
                                        <path fill="#FFF" d="M457.398 64.692c-1.382 0-2.507-1.125-2.507-2.507V56.03c0-1.382 1.125-2.507 2.507-2.507h40.176c1.383 0 2.507 1.125 2.507 2.507v6.155c0 1.382-1.124 2.507-2.507 2.507h-40.176z" transform="translate(24 26) translate(0 .284)"/>
                                        <path fill="#000" d="M497.574 53.24h-40.176c-1.534 0-2.789 1.256-2.789 2.79v6.155c0 1.534 1.255 2.79 2.789 2.79h40.176c1.534 0 2.789-1.256 2.789-2.79V56.03c0-1.534-1.255-2.79-2.789-2.79m0 .564c1.227 0 2.225.998 2.225 2.226v6.155c0 1.227-.998 2.225-2.225 2.225h-40.176c-1.227 0-2.225-.998-2.225-2.225V56.03c0-1.228.998-2.226 2.225-2.226h40.176" transform="translate(24 26) translate(0 .284)"/>
                                        <path fill="#0A51B7" d="M483.09 32.283c-.884 0-1.604-.72-1.604-1.605s.72-1.606 1.605-1.606 1.605.721 1.605 1.606c0 .884-.72 1.605-1.605 1.605" transform="translate(24 26) translate(0 .284)"/>
                                        <path fill="#000" d="M483.09 28.791c-1.041 0-1.887.845-1.887 1.887 0 1.043.846 1.887 1.888 1.887 1.042 0 1.887-.844 1.887-1.887 0-1.042-.845-1.887-1.887-1.887m0 .564c.729 0 1.323.593 1.323 1.323 0 .729-.594 1.323-1.323 1.323-.73 0-1.323-.594-1.323-1.323 0-.73.594-1.323 1.323-1.323" transform="translate(24 26) translate(0 .284)"/>
                                        <path fill="#0A51B7" d="M488.912 32.283c-.885 0-1.605-.72-1.605-1.605s.72-1.606 1.605-1.606 1.605.721 1.605 1.606c0 .884-.72 1.605-1.605 1.605" transform="translate(24 26) translate(0 .284)"/>
                                        <path fill="#000" d="M488.912 28.791c-1.042 0-1.887.845-1.887 1.887 0 1.043.845 1.887 1.887 1.887s1.888-.844 1.888-1.887c0-1.042-.846-1.887-1.888-1.887m0 .564c.729 0 1.323.593 1.323 1.323 0 .729-.594 1.323-1.323 1.323-.73 0-1.323-.594-1.323-1.323 0-.73.594-1.323 1.323-1.323" transform="translate(24 26) translate(0 .284)"/>
                                        <path fill="#0A51B7" d="M494.734 32.283c-.885 0-1.605-.72-1.605-1.605s.72-1.606 1.605-1.606 1.605.721 1.605 1.606c0 .884-.72 1.605-1.605 1.605" transform="translate(24 26) translate(0 .284)"/>
                                        <path fill="#000" d="M494.734 28.791c-1.042 0-1.888.845-1.888 1.887 0 1.043.846 1.887 1.888 1.887 1.042 0 1.887-.844 1.887-1.887 0-1.042-.845-1.887-1.887-1.887m0 .564c.729 0 1.323.593 1.323 1.323 0 .729-.594 1.323-1.323 1.323-.73 0-1.323-.594-1.323-1.323 0-.73.594-1.323 1.323-1.323" transform="translate(24 26) translate(0 .284)"/>
                                        <path fill="#0A51B7" d="M483.09 46.538c-.884 0-1.604-.72-1.604-1.605s.72-1.606 1.605-1.606 1.605.721 1.605 1.606c0 .884-.72 1.605-1.605 1.605" transform="translate(24 26) translate(0 .284)"/>
                                        <path fill="#000" d="M483.09 43.045c-1.041 0-1.887.846-1.887 1.888 0 1.042.846 1.887 1.888 1.887 1.042 0 1.887-.845 1.887-1.887s-.845-1.888-1.887-1.888m0 .564c.729 0 1.323.594 1.323 1.324 0 .729-.594 1.323-1.323 1.323-.73 0-1.323-.594-1.323-1.323 0-.73.594-1.324 1.323-1.324" transform="translate(24 26) translate(0 .284)"/>
                                        <path fill="#0A51B7" d="M488.912 46.538c-.885 0-1.605-.72-1.605-1.605s.72-1.606 1.605-1.606 1.605.721 1.605 1.606c0 .884-.72 1.605-1.605 1.605" transform="translate(24 26) translate(0 .284)"/>
                                        <path fill="#000" d="M488.912 43.045c-1.042 0-1.887.846-1.887 1.888 0 1.042.845 1.887 1.887 1.887s1.888-.845 1.888-1.887-.846-1.888-1.888-1.888m0 .564c.729 0 1.323.594 1.323 1.324 0 .729-.594 1.323-1.323 1.323-.73 0-1.323-.594-1.323-1.323 0-.73.594-1.324 1.323-1.324" transform="translate(24 26) translate(0 .284)"/>
                                        <path fill="#0A51B7" d="M494.734 46.538c-.885 0-1.605-.72-1.605-1.605s.72-1.606 1.605-1.606 1.605.721 1.605 1.606c0 .884-.72 1.605-1.605 1.605" transform="translate(24 26) translate(0 .284)"/>
                                        <path fill="#000" d="M494.734 43.045c-1.042 0-1.888.846-1.888 1.888 0 1.042.846 1.887 1.888 1.887 1.042 0 1.887-.845 1.887-1.887s-.845-1.888-1.887-1.888m0 .564c.729 0 1.323.594 1.323 1.324 0 .729-.594 1.323-1.323 1.323-.73 0-1.323-.594-1.323-1.323 0-.73.594-1.324 1.323-1.324" transform="translate(24 26) translate(0 .284)"/>
                                        <path fill="#0A51B7" d="M483.09 60.713c-.884 0-1.604-.721-1.604-1.605 0-.885.72-1.605 1.605-1.605s1.605.72 1.605 1.605c0 .884-.72 1.605-1.605 1.605" transform="translate(24 26) translate(0 .284)"/>
                                        <path fill="#000" d="M483.09 57.22c-1.041 0-1.887.846-1.887 1.888 0 1.043.846 1.887 1.888 1.887 1.042 0 1.887-.844 1.887-1.887 0-1.042-.845-1.887-1.887-1.887m0 .564c.729 0 1.323.594 1.323 1.323 0 .73-.594 1.323-1.323 1.323-.73 0-1.323-.593-1.323-1.323s.594-1.323 1.323-1.323" transform="translate(24 26) translate(0 .284)"/>
                                        <path fill="#0A51B7" d="M488.912 60.713c-.885 0-1.605-.721-1.605-1.605 0-.885.72-1.605 1.605-1.605s1.605.72 1.605 1.605c0 .884-.72 1.605-1.605 1.605" transform="translate(24 26) translate(0 .284)"/>
                                        <path fill="#000" d="M488.912 57.22c-1.042 0-1.887.846-1.887 1.888 0 1.043.845 1.887 1.887 1.887s1.888-.844 1.888-1.887c0-1.042-.846-1.887-1.888-1.887m0 .564c.729 0 1.323.594 1.323 1.323 0 .73-.594 1.323-1.323 1.323-.73 0-1.323-.593-1.323-1.323s.594-1.323 1.323-1.323" transform="translate(24 26) translate(0 .284)"/>
                                        <path fill="#0A51B7" d="M494.734 60.713c-.885 0-1.605-.721-1.605-1.605 0-.885.72-1.605 1.605-1.605s1.605.72 1.605 1.605c0 .884-.72 1.605-1.605 1.605" transform="translate(24 26) translate(0 .284)"/>
                                        <path fill="#000" d="M494.734 57.22c-1.042 0-1.888.846-1.888 1.888 0 1.043.846 1.887 1.888 1.887 1.042 0 1.887-.844 1.887-1.887 0-1.042-.845-1.887-1.887-1.887m0 .564c.729 0 1.323.594 1.323 1.323 0 .73-.594 1.323-1.323 1.323-.73 0-1.323-.593-1.323-1.323s.594-1.323 1.323-1.323" transform="translate(24 26) translate(0 .284)"/>
                                        <g>
                                            <path fill="#FFF" d="M1.444 0.58L1.444 6.775" transform="translate(24 26) translate(0 .284) translate(458 27)"/>
                                            <path stroke="#000" stroke-width=".565" d="M1.444 0.58L1.444 6.775" transform="translate(24 26) translate(0 .284) translate(458 27)"/>
                                        </g>
                                        <g>
                                            <path fill="#FFF" d="M0.645 0.58L0.645 6.775" transform="translate(24 26) translate(0 .284) translate(462 27)"/>
                                            <path stroke="#000" stroke-width=".565" d="M0.645 0.58L0.645 6.775" transform="translate(24 26) translate(0 .284) translate(462 27)"/>
                                        </g>
                                        <g>
                                            <path fill="#FFF" d="M0.846 0.58L0.846 6.775" transform="translate(24 26) translate(0 .284) translate(465 27)"/>
                                            <path stroke="#000" stroke-width=".565" d="M0.846 0.58L0.846 6.775" transform="translate(24 26) translate(0 .284) translate(465 27)"/>
                                        </g>
                                        <g>
                                            <path fill="#FFF" d="M1.048 0.58L1.048 6.775" transform="translate(24 26) translate(0 .284) translate(468 27)"/>
                                            <path stroke="#000" stroke-width=".565" d="M1.048 0.58L1.048 6.775" transform="translate(24 26) translate(0 .284) translate(468 27)"/>
                                        </g>
                                        <g>
                                            <path fill="#FFF" d="M1.249 0.58L1.249 6.775" transform="translate(24 26) translate(0 .284) translate(471 27)"/>
                                            <path stroke="#000" stroke-width=".565" d="M1.249 0.58L1.249 6.775" transform="translate(24 26) translate(0 .284) translate(471 27)"/>
                                        </g>
                                        <g>
                                            <path fill="#FFF" d="M1.45 0.58L1.45 6.775" transform="translate(24 26) translate(0 .284) translate(474 27)"/>
                                            <path stroke="#000" stroke-width=".565" d="M1.45 0.58L1.45 6.775" transform="translate(24 26) translate(0 .284) translate(474 27)"/>
                                        </g>
                                        <g>
                                            <path fill="#FFF" d="M1.045 0.58L1.045 6.775" transform="translate(24 26) translate(0 .284) translate(460 27)"/>
                                            <path stroke="#000" stroke-width=".565" d="M1.045 0.58L1.045 6.775" transform="translate(24 26) translate(0 .284) translate(460 27)"/>
                                        </g>
                                        <g>
                                            <path fill="#FFF" d="M1.246 0.58L1.246 6.775" transform="translate(24 26) translate(0 .284) translate(463 27)"/>
                                            <path stroke="#000" stroke-width=".565" d="M1.246 0.58L1.246 6.775" transform="translate(24 26) translate(0 .284) translate(463 27)"/>
                                        </g>
                                        <g>
                                            <path fill="#FFF" d="M1.447 0.58L1.447 6.775" transform="translate(24 26) translate(0 .284) translate(466 27)"/>
                                            <path stroke="#000" stroke-width=".565" d="M1.447 0.58L1.447 6.775" transform="translate(24 26) translate(0 .284) translate(466 27)"/>
                                        </g>
                                        <g>
                                            <path fill="#FFF" d="M0.648 0.58L0.648 6.775" transform="translate(24 26) translate(0 .284) translate(470 27)"/>
                                            <path stroke="#000" stroke-width=".565" d="M0.648 0.58L0.648 6.775" transform="translate(24 26) translate(0 .284) translate(470 27)"/>
                                        </g>
                                        <g>
                                            <path fill="#FFF" d="M0.849 0.58L0.849 6.775" transform="translate(24 26) translate(0 .284) translate(473 27)"/>
                                            <path stroke="#000" stroke-width=".565" d="M0.849 0.58L0.849 6.775" transform="translate(24 26) translate(0 .284) translate(473 27)"/>
                                        </g>
                                        <g>
                                            <path fill="#FFF" d="M1.444 0.835L1.444 7.03" transform="translate(24 26) translate(0 .284) translate(458 41)"/>
                                            <path stroke="#000" stroke-width=".565" d="M1.444 0.835L1.444 7.03" transform="translate(24 26) translate(0 .284) translate(458 41)"/>
                                        </g>
                                        <g>
                                            <path fill="#FFF" d="M0.645 0.835L0.645 7.03" transform="translate(24 26) translate(0 .284) translate(462 41)"/>
                                            <path stroke="#000" stroke-width=".565" d="M0.645 0.835L0.645 7.03" transform="translate(24 26) translate(0 .284) translate(462 41)"/>
                                        </g>
                                        <g>
                                            <path fill="#FFF" d="M0.846 0.835L0.846 7.03" transform="translate(24 26) translate(0 .284) translate(465 41)"/>
                                            <path stroke="#000" stroke-width=".565" d="M0.846 0.835L0.846 7.03" transform="translate(24 26) translate(0 .284) translate(465 41)"/>
                                        </g>
                                        <g>
                                            <path fill="#FFF" d="M1.048 0.835L1.048 7.03" transform="translate(24 26) translate(0 .284) translate(468 41)"/>
                                            <path stroke="#000" stroke-width=".565" d="M1.048 0.835L1.048 7.03" transform="translate(24 26) translate(0 .284) translate(468 41)"/>
                                        </g>
                                        <g>
                                            <path fill="#FFF" d="M1.249 0.835L1.249 7.03" transform="translate(24 26) translate(0 .284) translate(471 41)"/>
                                            <path stroke="#000" stroke-width=".565" d="M1.249 0.835L1.249 7.03" transform="translate(24 26) translate(0 .284) translate(471 41)"/>
                                        </g>
                                        <g>
                                            <path fill="#FFF" d="M1.45 0.835L1.45 7.03" transform="translate(24 26) translate(0 .284) translate(474 41)"/>
                                            <path stroke="#000" stroke-width=".565" d="M1.45 0.835L1.45 7.03" transform="translate(24 26) translate(0 .284) translate(474 41)"/>
                                        </g>
                                        <g>
                                            <path fill="#FFF" d="M1.045 0.835L1.045 7.03" transform="translate(24 26) translate(0 .284) translate(460 41)"/>
                                            <path stroke="#000" stroke-width=".565" d="M1.045 0.835L1.045 7.03" transform="translate(24 26) translate(0 .284) translate(460 41)"/>
                                        </g>
                                        <g>
                                            <path fill="#FFF" d="M1.246 0.835L1.246 7.03" transform="translate(24 26) translate(0 .284) translate(463 41)"/>
                                            <path stroke="#000" stroke-width=".565" d="M1.246 0.835L1.246 7.03" transform="translate(24 26) translate(0 .284) translate(463 41)"/>
                                        </g>
                                        <g>
                                            <path fill="#FFF" d="M1.447 0.835L1.447 7.03" transform="translate(24 26) translate(0 .284) translate(466 41)"/>
                                            <path stroke="#000" stroke-width=".565" d="M1.447 0.835L1.447 7.03" transform="translate(24 26) translate(0 .284) translate(466 41)"/>
                                        </g>
                                        <g>
                                            <path fill="#FFF" d="M0.648 0.835L0.648 7.03" transform="translate(24 26) translate(0 .284) translate(470 41)"/>
                                            <path stroke="#000" stroke-width=".565" d="M0.648 0.835L0.648 7.03" transform="translate(24 26) translate(0 .284) translate(470 41)"/>
                                        </g>
                                        <g>
                                            <path fill="#FFF" d="M0.849 0.835L0.849 7.03" transform="translate(24 26) translate(0 .284) translate(473 41)"/>
                                            <path stroke="#000" stroke-width=".565" d="M0.849 0.835L0.849 7.03" transform="translate(24 26) translate(0 .284) translate(473 41)"/>
                                        </g>
                                        <g>
                                            <path fill="#FFF" d="M1.444 0.09L1.444 6.285" transform="translate(24 26) translate(0 .284) translate(458 56)"/>
                                            <path stroke="#000" stroke-width=".565" d="M1.444 0.09L1.444 6.285" transform="translate(24 26) translate(0 .284) translate(458 56)"/>
                                        </g>
                                        <g>
                                            <path fill="#FFF" d="M0.645 0.09L0.645 6.285" transform="translate(24 26) translate(0 .284) translate(462 56)"/>
                                            <path stroke="#000" stroke-width=".565" d="M0.645 0.09L0.645 6.285" transform="translate(24 26) translate(0 .284) translate(462 56)"/>
                                        </g>
                                        <g>
                                            <path fill="#FFF" d="M0.846 0.09L0.846 6.285" transform="translate(24 26) translate(0 .284) translate(465 56)"/>
                                            <path stroke="#000" stroke-width=".565" d="M0.846 0.09L0.846 6.285" transform="translate(24 26) translate(0 .284) translate(465 56)"/>
                                        </g>
                                        <g>
                                            <path fill="#FFF" d="M1.048 0.09L1.048 6.285" transform="translate(24 26) translate(0 .284) translate(468 56)"/>
                                            <path stroke="#000" stroke-width=".565" d="M1.048 0.09L1.048 6.285" transform="translate(24 26) translate(0 .284) translate(468 56)"/>
                                        </g>
                                        <g>
                                            <path fill="#FFF" d="M1.249 0.09L1.249 6.285" transform="translate(24 26) translate(0 .284) translate(471 56)"/>
                                            <path stroke="#000" stroke-width=".565" d="M1.249 0.09L1.249 6.285" transform="translate(24 26) translate(0 .284) translate(471 56)"/>
                                        </g>
                                        <g>
                                            <path fill="#FFF" d="M1.45 0.09L1.45 6.285" transform="translate(24 26) translate(0 .284) translate(474 56)"/>
                                            <path stroke="#000" stroke-width=".565" d="M1.45 0.09L1.45 6.285" transform="translate(24 26) translate(0 .284) translate(474 56)"/>
                                        </g>
                                        <g>
                                            <path fill="#FFF" d="M1.045 0.09L1.045 6.285" transform="translate(24 26) translate(0 .284) translate(460 56)"/>
                                            <path stroke="#000" stroke-width=".565" d="M1.045 0.09L1.045 6.285" transform="translate(24 26) translate(0 .284) translate(460 56)"/>
                                        </g>
                                        <g>
                                            <path fill="#FFF" d="M1.246 0.09L1.246 6.285" transform="translate(24 26) translate(0 .284) translate(463 56)"/>
                                            <path stroke="#000" stroke-width=".565" d="M1.246 0.09L1.246 6.285" transform="translate(24 26) translate(0 .284) translate(463 56)"/>
                                        </g>
                                        <g>
                                            <path fill="#FFF" d="M1.447 0.09L1.447 6.285" transform="translate(24 26) translate(0 .284) translate(466 56)"/>
                                            <path stroke="#000" stroke-width=".565" d="M1.447 0.09L1.447 6.285" transform="translate(24 26) translate(0 .284) translate(466 56)"/>
                                        </g>
                                        <g>
                                            <path fill="#FFF" d="M0.648 0.09L0.648 6.285" transform="translate(24 26) translate(0 .284) translate(470 56)"/>
                                            <path stroke="#000" stroke-width=".565" d="M0.648 0.09L0.648 6.285" transform="translate(24 26) translate(0 .284) translate(470 56)"/>
                                        </g>
                                        <g>
                                            <path fill="#FFF" d="M0.849 0.09L0.849 6.285" transform="translate(24 26) translate(0 .284) translate(473 56)"/>
                                            <path stroke="#000" stroke-width=".565" d="M0.849 0.09L0.849 6.285" transform="translate(24 26) translate(0 .284) translate(473 56)"/>
                                        </g>
                                        <path fill="#E6E8EB" d="M492.282 56.225s.188-1.193 1.877-2.007c1.69-.813 5.93-1.964 11.109-1.25 5.18.716 6.54 2 6.54 2l.623 1.378-.001 15.146s-.684 1.814-4.158 2.565c-3.473.75-10.389 1.002-13.706-.531 0 0-2.096-.876-2.284-2.191v-15.11z" transform="translate(24 26) translate(0 .284)"/>
                                        <path stroke="#000" stroke-width=".565" d="M512.43 56.09s-.777-3.346-10.377-3.346c-9.6 0-9.771 3.417-9.771 3.417v15.21s1.055 3.44 10.068 3.44c9.014 0 10.08-3.44 10.08-3.44V56.09z" transform="translate(24 26) translate(0 .284)"/>
                                        <path stroke="#000" stroke-width=".565" d="M492.282 61.54s1.125 3.295 10.205 3.21c9.079-.088 9.944-3.21 9.944-3.21M492.282 66.497s1.125 3.296 10.205 3.21c9.079-.088 9.944-3.21 9.944-3.21M492.282 56.581s1.125 3.297 10.205 3.21c9.079-.087 9.944-3.21 9.944-3.21" transform="translate(24 26) translate(0 .284)"/>
                                        <path fill="#FFF" d="M113.393 56.508c0 31.125-25.232 56.357-56.357 56.357S.679 87.633.679 56.508 25.91.15 57.036.15s56.357 25.232 56.357 56.357" transform="translate(24 26) translate(0 .284)"/>
                                        <path stroke="#C5C8CF" stroke-width=".75" d="M113.393 56.508c0 31.125-25.232 56.357-56.357 56.357S.679 87.633.679 56.508 25.91.15 57.036.15s56.357 25.232 56.357 56.357z" transform="translate(24 26) translate(0 .284)"/>
                                        <path stroke="#231916" stroke-linejoin="round" stroke-width=".485" d="M81.84 54.366c-.164 0-.326.005-.485.014" transform="translate(24 26) translate(0 .284)"/>
                                        <path stroke="#231916" stroke-dasharray=".98 .98" stroke-linejoin="round" stroke-width=".485" d="M80.382 54.496c-2.18.395-3.866 1.654-4.743 3.187C74.64 59.426 72.35 61 69.44 61c-3.426 0-4.807-1.563-6.203-3.316-1.33-1.67-2.776-3.317-6.2-3.317-3.425 0-5.178 1.492-6.202 3.317-.98 1.747-2.776 3.316-6.2 3.316-2.662 0-4.807-1.563-6.202-3.316-1.17-1.47-2.938-2.918-5.228-3.248" transform="translate(24 26) translate(0 .284)"/>
                                        <path stroke="#231916" stroke-linejoin="round" stroke-width=".485" d="M32.716 54.384c-.16-.012-.321-.018-.485-.018" transform="translate(24 26) translate(0 .284)"/>
                                        <path stroke="#0A51B7" stroke-width=".485" d="M81.84 61c-2.803 0-5.137-1.459-6.202-3.317-.998-1.743-3.476-3.316-6.2-3.316-2.78 0-4.806 1.563-6.202 3.316-1.33 1.671-2.776 3.317-6.2 3.317-3.426 0-5.178-1.492-6.202-3.317-.98-1.746-3.269-3.316-6.2-3.316-2.662 0-4.807 1.563-6.202 3.316C37.102 59.354 35.655 61 32.23 61" transform="translate(24 26) translate(0 .284)"/>
                                    </g>
                                    <g transform="translate(24 26) translate(45 44.284)">
                                        <mask id="xk73y2l2gf" fill="#fff">
                                            <use xlink:href="#1m3d3lz46e"/>
                                        </mask>
                                        <path fill="#FFF" d="M-1.673 29.231L25.744 29.231 25.744 -1.678 -1.673 -1.678z" mask="url(#xk73y2l2gf)"/>
                                    </g>
                                    <g transform="translate(24 26) translate(45 51.284)">
                                        <mask id="emaagg5j0h" fill="#fff">
                                            <use xlink:href="#bdcc37n2lg"/>
                                        </mask>
                                        <path fill="#0A51B7" d="M-1.454 22.035L14.458 22.035 14.458 -2.035 -1.454 -2.035z" mask="url(#emaagg5j0h)"/>
                                    </g>
                                    <g transform="translate(24 26) translate(45 44.284)">
                                        <mask id="v1wj02actj" fill="#fff">
                                            <use xlink:href="#46vcd5l7ei"/>
                                        </mask>
                                        <path fill="#000" d="M-1.674 29.231L25.743 29.231 25.743 -1.678 -1.674 -1.678z" mask="url(#v1wj02actj)"/>
                                    </g>
                                    <g>
                                        <path stroke="#000" stroke-width=".388" d="M24.035 35.612L24.035 22.776M12.969 16.388L24.035 22.778M24.035 22.776L35.07 16.405" transform="translate(24 26) translate(33 35.284)"/>
                                        <path stroke="#000" stroke-width=".779" d="M43.413.154L47.126.154 47.126 3.866M4.658.154L.946.154.946 3.866M4.658 45.212L.946 45.212.946 41.499M43.413 45.212L47.126 45.212 47.126 41.499" transform="translate(24 26) translate(33 35.284)"/>
                                        <path stroke="#C5C8CF" stroke-width=".75" d="M400.108 15.14L309.501 15.14" transform="translate(24 26) translate(33 35.284)"/>
                                        <path fill="#C5C8CF" d="M394.132 15.14L394.132 10.378 398.256 12.759 402.38 15.14 398.256 17.521 394.132 19.902z" transform="translate(24 26) translate(33 35.284)"/>
                                        <path stroke="#C5C8CF" stroke-width=".75" d="M307.649 28.204L398.256 28.204" transform="translate(24 26) translate(33 35.284)"/>
                                        <path fill="#C5C8CF" d="M313.625 28.204L313.625 32.967 309.501 30.586 305.377 28.204 309.501 25.823 313.625 23.442z" transform="translate(24 26) translate(33 35.284)"/>
                                    </g>
                                    <text font-family="NotoSansCJKkr-Medium, Noto Sans CJK KR" font-size="12" font-weight="400" transform="translate(24 26)">
                                        <tspan x="362.529" y="81.581" fill="#000">D</tspan> <tspan x="370.917" y="81.581" fill="#000" letter-spacing="-.204">a</tspan> <tspan x="377.409" y="81.581" fill="#000" letter-spacing="-.288">t</tspan> <tspan x="381.585" y="81.581" fill="#000">a link</tspan>
                                    </text>
                                    <text font-family="NotoSansCJKkr-Medium, Noto Sans CJK KR" font-size="12" font-weight="400" transform="translate(24 26)">
                                        <tspan x="356.637" y="35.045" fill="#000">AR </tspan> <tspan x="374.661" y="35.045" fill="#000" letter-spacing="-.311">c</tspan> <tspan x="380.243" y="35.045" fill="#000">on</tspan> <tspan x="395.099" y="35.045" fill="#000" letter-spacing="-.204">t</tspan> <tspan x="399.442" y="35.045" fill="#000">ent</tspan>
                                    </text>
                                </g>
                            </g>
                        </g>
                    </g>
                </g>
            </g>
        </g>
    </g>
</svg>
