<svg xmlns="http://www.w3.org/2000/svg" xmlns:xlink="http://www.w3.org/1999/xlink" width="780" height="420" viewBox="0 0 780 420">
    <defs>
        <path id="prefix__a" d="M0 0H780V420H0z"/>
        <path id="prefix__c" d="M0 366.646L734.484 366.646 734.484 0 0 0z"/>
    </defs>
    <g fill="none" fill-rule="evenodd">
        <mask id="prefix__b" fill="#fff">
            <use xlink:href="#prefix__a"/>
        </mask>
        <use fill="#F8F9FB" xlink:href="#prefix__a"/>
        <g mask="url(#prefix__b)">
            <g transform="translate(23 31)">
                <path fill="#FFF" d="M497.348 286.842c0 31.125-25.232 56.357-56.357 56.357s-56.357-25.232-56.357-56.357 25.232-56.357 56.357-56.357 56.357 25.232 56.357 56.357"/>
                <path fill="#C5C8CF" d="M440.991 230.86c-30.869 0-55.982 25.113-55.982 55.982 0 30.87 25.113 55.983 55.982 55.983 30.87 0 55.982-25.113 55.982-55.983 0-30.87-25.113-55.982-55.982-55.982m0 112.715c-31.282 0-56.732-25.45-56.732-56.733 0-31.282 25.45-56.732 56.732-56.732s56.732 25.45 56.732 56.732c0 31.283-25.45 56.733-56.732 56.733"/>
                <mask id="prefix__d" fill="#fff">
                    <use xlink:href="#prefix__c"/>
                </mask>
                <path fill="#000" d="M188.132 146.999h1.235v-10.843h-1.235v10.843zm-5.805-8.108c0 .768.672 1.259 1.607 1.259.947 0 1.608-.491 1.608-1.259 0-.756-.661-1.248-1.608-1.248-.935 0-1.607.492-1.607 1.248zm-1.187 0c0-1.332 1.175-2.267 2.794-2.267s2.795.935 2.795 2.267c0 1.343-1.176 2.278-2.795 2.278s-2.794-.935-2.794-2.278zm6.368 3.598c-.947.191-1.943.299-2.902.371v3.803h-1.235v-3.731c-1.02.036-1.98.048-2.819.048l-.144-1.019c1.955 0 4.677-.037 7.016-.384l.084.912zM200.42 136.144v6.561h-1.236v-2.303h-1.608v-1.02h1.608v-3.238h1.235zm-5.902 9.727h4.69v-1.667h-4.69v1.667zm-1.21.983h7.111v-3.622h-7.112v3.622zm1.306-5.241c.803 0 1.368-.396 1.368-1.02 0-.611-.565-1.007-1.368-1.007-.803 0-1.367.396-1.367 1.007 0 .624.564 1.02 1.367 1.02zm0 .924c-1.487 0-2.543-.781-2.543-1.944 0-1.151 1.056-1.942 2.543-1.942s2.542.791 2.542 1.942c0 1.163-1.055 1.944-2.542 1.944zm3.142-4.355h-6.284v-.982h2.518v-1.153h1.247v1.153h2.52v.982zM213.511 146.986h1.247v-10.83h-1.247v10.83zm-3.67-7.7c0 1.799 1.116 3.67 2.807 4.39l-.684.971c-1.259-.551-2.231-1.727-2.734-3.13-.48 1.511-1.451 2.794-2.723 3.406l-.708-.983c1.68-.779 2.795-2.795 2.795-4.654v-1.032h-2.411v-1.019h6.069v1.019h-2.411v1.032zM220.702 144.719h2.135v-2.326h-2.135v2.326zm-.18-3.322h2.494v-3.311h-2.494v3.311zm6.188 3.322v1.02h-9.823v-1.02h2.579v-2.326h-1.739v-.996h1.56v-3.311h-1.596v-.995h8.143v.995h-1.594v3.311h1.558v.996h-1.738v2.326h2.65zM241.254 140.377h-1.487v3.106h-1.236v-7.315h1.236v3.19h1.487v1.02zm-6.692.312c.863 0 1.415-.288 1.415-.767 0-.492-.552-.792-1.415-.792-.864 0-1.415.3-1.415.792 0 .48.551.767 1.415.767zm-2.027 3.274h7.232v3.035h-1.236v-2.05h-5.996v-.985zm5.121-5.996h-6.188v-.9h2.482v-1.007h1.247v1.006h2.46v.901zm.396 4.808c-2.29.41-4.82.42-6.717.432l-.144-.982c.816 0 1.763 0 2.76-.025v-.719c-1.224-.132-1.968-.708-1.968-1.559 0-1.008 1.02-1.619 2.58-1.619 1.558 0 2.578.611 2.578 1.62 0 .85-.744 1.413-1.944 1.558v.671c.936-.048 1.883-.107 2.76-.24l.095.863zM250.016 144.024h1.235v-7.868h-1.235v7.868zm1.547 1.751v1.007h-7.388v-3.55h1.247v2.543h6.141zm-6.152-4.546c.947 0 1.667-.66 1.667-1.643 0-.996-.72-1.643-1.667-1.643-.96 0-1.667.647-1.667 1.643 0 .983.707 1.643 1.667 1.643zm0 1.067c-1.632 0-2.879-1.139-2.879-2.71 0-1.584 1.247-2.711 2.879-2.711 1.631 0 2.866 1.127 2.866 2.711 0 1.571-1.235 2.71-2.866 2.71zM264.404 142.333h1.248v-6.188h-1.248v6.188zm-5.913-1.991h2.723v-2.531h-2.723v2.531zm4.27 3.61c.096.887 1.488 1.859 3.49 2.074l-.408.935c-1.715-.203-3.058-.898-3.718-1.834-.66.948-2.027 1.631-3.753 1.834l-.409-.935c2.028-.203 3.431-1.151 3.527-2.074h-3.107v-.948h3.107v-.971h1.26v.971h3.105v.948h-3.094zm-5.481-2.627h5.134v-4.497h-5.134v4.497zM178.931 154.602c0 .768.995 1.211 2.53 1.211 1.524 0 2.52-.443 2.52-1.21 0-.769-.996-1.212-2.52-1.212-1.535 0-2.53.443-2.53 1.211zm.084 7.172h6.284v1.008h-7.532v-3.202h1.248v2.194zm-1.392-7.172c0-1.355 1.512-2.207 3.838-2.207 2.315 0 3.838.852 3.838 2.207s-1.523 2.207-3.838 2.207c-2.326 0-3.838-.852-3.838-2.207zm8.755 2.938v1.008h-4.197v2.051h-1.26v-2.05h-4.365v-1.009h9.822zM193.293 154.65c.06.229.096.468.096.73 0 .266-.036.505-.109.733h2.065v-1.463h-2.052zm2.11 6.225c0-.72-.886-1.127-2.433-1.127-1.535 0-2.435.407-2.435 1.127 0 .744.9 1.139 2.435 1.139 1.547 0 2.434-.395 2.434-1.14zm1.225 0c0 1.33-1.403 2.11-3.658 2.11-2.256 0-3.647-.78-3.647-2.11 0-1.32 1.391-2.1 3.647-2.1 2.255 0 3.657.78 3.657 2.1zm-6.045-3.934c.935 0 1.63-.624 1.63-1.56 0-.947-.695-1.571-1.63-1.571-.96 0-1.655.624-1.655 1.57 0 .937.696 1.56 1.655 1.56zm2.147.168c-.504.552-1.272.875-2.147.875-1.62 0-2.83-1.08-2.83-2.603 0-1.535 1.21-2.614 2.83-2.614.887 0 1.643.336 2.147.876h2.615v-1.5h1.234v6.393h-1.234v-1.427h-2.615zM209.744 158.249h-1.655v-.996h1.655v-1.295h-1.655v-1.008h1.655v-2.794h1.235v8.262h-1.235v-2.17zm1.487 3.525v1.007h-7.304v-3.058h1.248v2.05h6.056zm-6.153-3.67c.792 0 1.332-.42 1.332-1.127 0-.697-.54-1.14-1.332-1.14-.78 0-1.32.444-1.32 1.14 0 .708.54 1.126 1.32 1.126zm0 .971c-1.463 0-2.482-.85-2.482-2.097 0-1.26 1.019-2.1 2.482-2.1 1.476 0 2.495.84 2.495 2.1 0 1.246-1.02 2.097-2.495 2.097zm2.963-4.7h-6.01v-.983h2.436v-1.26h1.235v1.26h2.339v.983zM223.014 155.333v1.02h-1.487v3.118h-1.236v-7.304h1.236v3.166h1.487zm-2.662 5.974c0-.528-.804-.791-2.363-.791-1.572 0-2.374.263-2.374.79 0 .515.802.78 2.374.78 1.56 0 2.363-.265 2.363-.78zm-4.03-4.738c.876 0 1.415-.263 1.415-.731 0-.457-.539-.72-1.415-.72-.864 0-1.415.263-1.415.72 0 .468.551.73 1.415.73zm5.277 4.738c0 1.09-1.33 1.69-3.61 1.69-2.29 0-3.622-.6-3.622-1.69 0-1.105 1.332-1.691 3.622-1.691 2.28 0 3.61.586 3.61 1.69zm-2.183-7.376h-6.188v-.912h2.482v-.948h1.247v.948h2.46v.911zm.396 4.724c-2.278.409-4.82.446-6.717.446l-.144-.96c.816 0 1.763 0 2.76-.036v-.756c-1.224-.144-1.968-.684-1.968-1.511 0-.96 1.02-1.535 2.58-1.535 1.558 0 2.578.576 2.578 1.535 0 .815-.744 1.367-1.944 1.51v.708c.936-.048 1.883-.12 2.76-.24l.095.84zM229.75 157.216h5.157v-3.214h-5.157v3.214zm7.508 3.431v1.007h-9.81v-1.007h4.269V158.2h-3.177v-5.181h7.58v5.181h-3.167v2.447h4.305zM246.2 162.986h1.235v-10.83H246.2v10.83zm-5.853-3.79c1.535-.013 3.154-.145 4.858-.492l.131 1.031c-1.859.384-3.61.516-5.289.516h-.923v-7.041h1.223v5.986zM258.523 152.131v10.866h-1.247v-5.865H255.2v-1.02h2.075v-3.98h1.247zm-7.28 7.328c1.727-.012 2.963-.072 4.378-.31l.108.994c-1.548.275-2.902.324-4.87.324h-.851v-7.376h5.025v1.02h-3.79v2.026h3.346v.983h-3.345v2.34zM268.257 158.788h1.235v-6.632h-1.235v6.632zm.071 2.207c0-.672-.875-1.032-2.435-1.032-1.547 0-2.435.36-2.435 1.032 0 .659.888 1.019 2.435 1.019 1.56 0 2.435-.36 2.435-1.019zm1.235 0c0 1.258-1.391 2.003-3.67 2.003-2.278 0-3.658-.745-3.658-2.003 0-1.26 1.38-2.003 3.658-2.003 2.279 0 3.67.743 3.67 2.003zm-2.29-3.107c-1.703.277-3.167.324-5.241.324h-.912v-3.202h3.717v-1.2h-3.741v-.995h4.953v3.131h-3.706v1.259c1.86 0 3.214-.06 4.785-.325l.145 1.008z" mask="url(#prefix__d)"/>
                <path fill="#C5C8CF" d="M293.454 67.251L390.887 67.251 390.887 66.501 293.454 66.501z" mask="url(#prefix__d)"/>
                <path fill="#C5C8CF" d="M299.43 66.876L299.43 71.638 295.306 69.257 291.182 66.876 295.306 64.495 299.43 62.114z" mask="url(#prefix__d)"/>
                <path fill="#000" d="M658.694 136.144v6.309h-1.235v-2.663h-1.919v-1.007h1.92v-2.639h1.234zm-5.9 9.727h4.688v-1.942h-4.689v1.942zm-1.212.983h7.112v-3.91h-7.112v3.91zm3.97-4.678c-1.2-.42-2.076-1.259-2.53-2.314-.48 1.164-1.392 2.111-2.676 2.554l-.635-.971c1.678-.587 2.662-2.015 2.662-3.489v-.181h-2.29v-.995h5.793v.995h-2.255v.181c0 1.342.923 2.697 2.53 3.261l-.6.959zM669.734 136.144v6.141H668.5v-2.423h-2.148v-1.02h2.148v-2.698h1.235zm-5.84 9.714h4.628v-2.146h-4.629v2.146zm-1.213.996h7.053v-4.125h-7.053v4.125zm3.647-10.051c0 2.807-1.86 4.75-4.99 5.637l-.503-.983c2.482-.671 3.946-1.979 4.162-3.646h-3.586v-1.008h4.917zM685.153 139.06v1.018h-1.535v3h-1.236v-6.922h1.236v2.903h1.535zm-2.639 6.02c0-.625-.864-.949-2.35-.949-1.488 0-2.352.324-2.352.948 0 .636.864.96 2.352.96 1.486 0 2.35-.324 2.35-.96zm-4.15-3.408c.864 0 1.451-.394 1.451-1.007 0-.635-.587-1.019-1.45-1.019-.864 0-1.44.384-1.44 1.02 0 .612.576 1.006 1.44 1.006zm5.373 3.407c0 1.2-1.367 1.907-3.573 1.907-2.207 0-3.574-.708-3.574-1.907 0-1.188 1.367-1.895 3.574-1.895 2.206 0 3.573.707 3.573 1.895zm-5.373-2.495c-1.559 0-2.626-.755-2.626-1.919 0-1.174 1.067-1.93 2.626-1.93 1.571 0 2.627.756 2.627 1.93 0 1.164-1.056 1.92-2.627 1.92zm3.203-4.305h-6.393v-.984h2.58v-1.223h1.234v1.223h2.58v.984zM688.649 139.358h4.881v-1.787h-4.881v1.787zm-1.355 4.15h7.496v3.478h-1.235v-2.483h-6.261v-.995zm8.707-1.955v.995h-9.811v-.995h4.27v-1.211h-3.023v-3.754h7.305v3.754h-3.035v1.211h4.294zM697.267 147.682c.815-.336 1.295-.936 1.308-1.644-.05.012-.084.012-.133.012-.491 0-.923-.31-.923-.888 0-.539.432-.886.959-.886.672 0 1.067.563 1.067 1.486 0 1.26-.731 2.232-1.966 2.7l-.312-.78zM629.967 154.88v-2.724h1.235v6.452h-1.235v-2.723h-1.92v-1.006h1.92zm.048 6.067c0-.709-.888-1.09-2.411-1.09-1.547 0-2.422.381-2.422 1.09 0 .707.875 1.09 2.422 1.09 1.523 0 2.41-.383 2.41-1.09zm1.235 0c0 1.295-1.391 2.051-3.646 2.051-2.267 0-3.658-.756-3.658-2.05 0-1.284 1.39-2.05 3.658-2.05 2.255 0 3.646.766 3.646 2.05zm-3.19-2.687c-1.2-.42-2.063-1.272-2.52-2.315-.478 1.188-1.39 2.147-2.674 2.604l-.635-.984c1.679-.6 2.65-2.04 2.65-3.526v-.156h-2.29v-.996h5.793v.996h-2.255v.144c0 1.354.923 2.698 2.542 3.262l-.611.971zM640.935 163.01h1.247v-10.867h-1.247v10.867zm-5.865-3.574h2.746v-2.65h-2.746v2.65zm0-6.393v2.758h2.746v-2.758h1.236v7.389h-5.205v-7.389h1.223zM651.305 157.709h2.494v-3.539h-2.494v3.539zm-1.236-3.539h-1.595v-.994h8.143v.994h-1.595v3.539h1.572v1.008h-8.084v-1.008h1.559v-3.539zm-2.411 7.485h9.835v-1.02h-9.835v1.02zM668.52 160.696L668.52 161.716 658.71 161.716 658.71 160.696 662.98 160.696 662.98 158.848 659.898 158.848 659.898 155.358 666.134 155.358 666.134 153.907 659.875 153.907 659.875 152.911 667.357 152.911 667.357 156.342 661.11 156.342 661.11 157.852 667.597 157.852 667.597 158.848 664.215 158.848 664.215 160.696zM677.822 162.987h1.175v-10.83h-1.175v10.83zm-2.207-10.627h1.163v10.123h-1.163v-5.529h-1.595v-1.008h1.595v-3.586zm-2.543 2.685c0 1.752.66 3.588 2.112 4.498l-.697.959c-.983-.599-1.631-1.654-2.003-2.865-.383 1.33-1.09 2.471-2.134 3.106l-.755-.936c1.535-.91 2.278-2.853 2.278-4.701v-1.955h1.199v1.894zM689.642 158.465c-1.763-.36-3.286-1.488-3.994-2.975-.707 1.487-2.231 2.614-3.993 2.975l-.53-1.02c2.136-.396 3.875-2.064 3.875-3.779v-.814h1.308v.814c0 1.73 1.739 3.395 3.874 3.78l-.54 1.02zm-8.852 3.13h9.81v-1.02h-9.81v1.02zM702.855 163.01h1.247v-10.867h-1.247v10.867zm-3.67-8.179c0 1.99 1.103 3.982 2.806 4.75l-.72.982c-1.247-.588-2.195-1.787-2.686-3.25-.492 1.57-1.451 2.855-2.759 3.49l-.731-1.031c1.727-.779 2.854-2.855 2.854-4.941v-1.776h1.236v1.776zM716.222 155.827h-1.535v2.65h-1.236v-6.334h1.236v2.664h1.535v1.02zm-8.66 3.129h7.125v4.043h-1.236v-3.047h-5.888v-.996zm4.139-6.152c0 2.806-1.86 4.76-5.05 5.613l-.504-.971c2.543-.648 4.03-1.992 4.246-3.646h-3.731v-.996h5.039zM727.285 157.698h-1.547v5.289h-1.235v-10.844h1.235v4.535h1.547v1.02zm-6.716.336c.852 0 1.427-.408 1.427-1.068 0-.672-.575-1.08-1.427-1.08-.85 0-1.439.408-1.439 1.08 0 .66.588 1.068 1.44 1.068zm3.202-3.635h-6.44v-.996h2.614v-1.223h1.236v1.223h2.59v.996zm-2.59 5.54c.923-.048 1.846-.106 2.71-.24l.096.913c-2.314.408-4.82.432-6.68.432l-.168-1.02c.828 0 1.798 0 2.806-.037v-1.055c-1.199-.203-1.978-.935-1.978-1.966 0-1.223 1.054-2.028 2.602-2.028 1.535 0 2.59.805 2.59 2.028 0 1.03-.779 1.775-1.978 1.966v1.008zM625.021 179.37v1.02h-1.534v3.707h-1.236v-7.94h1.236v3.213h1.534zm-7.147 6.404h6.043v1.008h-7.292v-3.502h1.249v2.494zm.168-4.545c.947 0 1.678-.648 1.678-1.642 0-.985-.731-1.631-1.678-1.631-.949 0-1.668.646-1.668 1.63 0 .995.72 1.643 1.668 1.643zm0 1.069c-1.632 0-2.88-1.13-2.88-2.711 0-1.584 1.248-2.7 2.88-2.7 1.641 0 2.89 1.116 2.89 2.7 0 1.582-1.249 2.71-2.89 2.71zM633.807 179.06v-2.892h1.235v7.916h-1.235v-4.005h-1.967v-1.02h1.967zm1.51 6.714v1.008h-7.291v-3.38h1.235v2.372h6.057zm-3.417-3.225c-1.2-.408-2.075-1.26-2.53-2.328-.481 1.176-1.392 2.123-2.675 2.567l-.636-.97c1.679-.589 2.662-2.017 2.662-3.48v-.37h-2.29v-.997h5.793v.996h-2.255v.371c0 1.332.923 2.688 2.542 3.25l-.611.961zM640.89 181.553c2.112-.336 3.827-1.836 3.827-3.467v-.023h-3.442v-.996h8.179v.996h-3.442v.023c0 1.631 1.728 3.096 3.874 3.43l-.504.984c-1.787-.336-3.31-1.343-4.017-2.722-.696 1.39-2.207 2.421-3.958 2.757l-.516-.982zm9.392 3.094v1.008h-9.811v-1.008h4.282v-2.532H646v2.532h4.282zM661.585 181.47h-1.691v5.517h-1.236v-10.83h1.236v4.292h1.691v1.02zm-6.285-2.64c0 1.932 1.008 3.887 2.639 4.69l-.756.982c-1.163-.599-2.027-1.773-2.494-3.189-.468 1.5-1.379 2.758-2.615 3.394l-.756-.996c1.692-.828 2.746-2.879 2.746-4.88v-1.776h1.236v1.775zM673.599 187.01h1.247v-10.879h-1.247v10.879zm-5.829-3.597c1.714-.012 3.213-.096 4.929-.373l.132 1.007c-1.859.325-3.478.385-5.386.385h-.923v-4.295h3.778v-2.013h-3.802v-1.008h5.05v4.017h-3.778v2.28zM685.802 182.465c-1.763-.36-3.286-1.488-3.994-2.975-.707 1.487-2.231 2.614-3.993 2.975l-.53-1.02c2.136-.396 3.875-2.064 3.875-3.779v-.814h1.308v.814c0 1.73 1.739 3.395 3.874 3.78l-.54 1.02zm-8.852 3.13h9.81v-1.02h-9.81v1.02zM696.71 182.872h-7.508v-5.84h7.424v.996h-6.165v1.39h5.925v.972h-5.925v1.488h6.249v.994zm-8.719 2.783h9.823v-1.008h-9.823v1.008zM710.054 187.01h1.247v-10.867h-1.247v10.867zm-3.67-8.179c0 1.99 1.103 3.982 2.806 4.75l-.719.982c-1.247-.588-2.196-1.787-2.687-3.25-.492 1.57-1.451 2.855-2.759 3.49l-.731-1.031c1.727-.779 2.854-2.855 2.854-4.941v-1.776h1.236v1.776zM723.42 179.827h-1.534v2.65h-1.236v-6.334h1.236v2.664h1.535v1.02zm-8.658 3.129h7.124v4.043h-1.236v-3.047h-5.888v-.996zm4.138-6.152c0 2.806-1.86 4.76-5.05 5.613l-.504-.971c2.543-.648 4.03-1.992 4.246-3.646h-3.731v-.996h5.039zM734.484 181.698h-1.547v5.289h-1.235v-10.844h1.235v4.535h1.547v1.02zm-6.716.336c.852 0 1.427-.408 1.427-1.068 0-.672-.575-1.08-1.427-1.08-.85 0-1.439.408-1.439 1.08 0 .66.588 1.068 1.44 1.068zm3.202-3.635h-6.44v-.996h2.614v-1.223h1.236v1.223h2.59v.996zm-2.59 5.54c.923-.048 1.846-.106 2.71-.24l.096.913c-2.314.408-4.82.432-6.68.432l-.168-1.02c.828 0 1.798 0 2.806-.037v-1.055c-1.199-.203-1.978-.935-1.978-1.966 0-1.223 1.054-2.028 2.602-2.028 1.535 0 2.59.805 2.59 2.028 0 1.03-.779 1.775-1.978 1.966v1.008zM639.267 198.333h1.248v-6.189h-1.248v6.189zm-5.913-1.991h2.723v-2.531h-2.723v2.531zm4.27 3.61c.096.886 1.487 1.859 3.49 2.074l-.408.935c-1.715-.203-3.059-.898-3.718-1.834-.66.948-2.027 1.631-3.754 1.834l-.408-.935c2.028-.203 3.431-1.151 3.527-2.074h-3.107v-.948h3.107v-.97h1.259v.97h3.106v.948h-3.094zm-5.482-2.627h5.134v-4.498h-5.134v4.498zM646.411 197.553c2.111-.336 3.826-1.836 3.826-3.467v-.023h-3.442v-.996h8.18v.996h-3.443v.023c0 1.631 1.728 3.096 3.874 3.43l-.504.984c-1.787-.336-3.309-1.343-4.017-2.722-.696 1.39-2.207 2.421-3.958 2.757l-.516-.982zm9.391 3.094v1.008h-9.81v-1.008h4.281v-2.532h1.247v2.532h4.282zM667.106 197.47h-1.69v5.517h-1.237v-10.83h1.236v4.292h1.691v1.02zm-6.285-2.64c0 1.932 1.008 3.887 2.64 4.69l-.757.982c-1.163-.599-2.027-1.773-2.494-3.189-.468 1.5-1.379 2.758-2.615 3.394l-.756-.996c1.692-.828 2.746-2.879 2.746-4.88v-1.776h1.236v1.775zM680.702 201.895v.994h-7.328v-2.914h5.793v-.898h-5.818v-.985h7.053v2.807h-5.793v.996h6.093zm-4.042-7.305c-.672 1.657-2.267 2.758-4.653 3.299l-.432-1.008c2.566-.55 3.898-1.738 4.065-3.25h-3.478v-.996h4.846c0 .348-.024.684-.084.996h2.243v-1.474h1.235v5.492h-1.235v-.984h-2.65v-.959h2.65v-1.116h-2.507zM692.462 197.649h-1.596v5.338h-1.247v-10.83h1.247v4.449h1.596v1.043zm-5.53.492c.276-1.68.3-2.94.3-3.85h-4.293v-.996h5.504v.719c0 .949 0 2.317-.3 4.235l-1.21-.108zm-1.21 1.487c1.127-.047 2.266-.108 3.32-.252l.062.912c-2.231.37-4.714.42-6.61.42l-.131-1.02c.66 0 1.39-.012 2.147-.023V196.4h1.212v3.227zM704.56 197.973h1.235v-5.816h-1.235v5.816zm-4.619 3.885h4.63v-1.223h-4.63v1.223zm0-3.381v1.199h4.63v-1.199h1.224v4.377h-7.076v-4.377h1.222zm-1.654-3.31c0 .912.684 1.498 1.667 1.498.971 0 1.667-.586 1.667-1.498 0-.901-.696-1.5-1.667-1.5-.983 0-1.667.599-1.667 1.5zm4.533 0c0 1.486-1.212 2.517-2.866 2.517-1.655 0-2.879-1.031-2.879-2.517 0-1.489 1.224-2.52 2.879-2.52 1.654 0 2.866 1.031 2.866 2.52zM716.882 192.157v6.668h-1.235v-1.848h-1.944v-.996h1.944v-1.27h-1.944v-.995h1.944v-1.56h1.235zm-7.328 7.207h7.328v3.647h-1.235v-2.64h-6.093v-1.007zm4.113-1.2c-1.306.229-2.41.264-4.533.264h-.792v-3.357h3.454v-1.295h-3.477v-.996h4.7v3.238h-3.465v1.403c1.81 0 2.807-.047 3.98-.252l.133.996zM464.159 201.058v1.02h-1.44v3.682h-1.247v-8.133h1.248v3.431h1.439zm-7.208 6.188h6.116v1.008h-7.363v-3.215h1.247v2.207zm1.75-5.109c.217-1.163.253-2.015.265-2.685h-4.234v-1.008h5.446v.623c0 .732 0 1.8-.265 3.203l-1.211-.133zm2.196 1.572c-2.255.395-4.81.455-6.692.455l-.132-1.007c.648 0 1.39 0 2.158-.024v-2.219h1.224v2.183c1.127-.048 2.29-.12 3.358-.288l.084.9zM472.92 208.482h1.247v-10.878h-1.247v10.878zm-5.829-3.598c1.715-.012 3.214-.096 4.93-.372l.132 1.008c-1.86.324-3.479.384-5.386.384h-.923v-4.294h3.778v-2.015h-3.802v-1.008h5.05v4.019h-3.779v2.278zM487.692 208.446h1.187v-10.83h-1.187v10.83zm-2.206-10.59h1.163v10.086h-1.163v-5.252h-2.135v-1.008h2.135v-3.826zm-4.271 7.064c1.344-.011 2.268-.072 3.335-.3l.108 1.019c-1.224.24-2.279.301-3.934.301h-.731v-7.041h4.101v1.008h-2.879v5.013zM498.336 208.482h1.247v-10.866h-1.247v10.866zm-6.116-6.249c0 1.703.659 2.723 1.595 2.723.947 0 1.607-1.02 1.607-2.723 0-1.678-.66-2.697-1.607-2.697-.936 0-1.595 1.019-1.595 2.697zm4.39 0c0 2.351-1.176 3.826-2.795 3.826-1.607 0-2.782-1.475-2.782-3.826 0-2.326 1.175-3.814 2.782-3.814 1.619 0 2.795 1.488 2.795 3.814zM510.707 197.604v10.866h-1.246v-5.864h-2.076v-1.02h2.076v-3.982h1.246zm-7.279 7.328c1.726-.012 2.962-.072 4.377-.312l.108.996c-1.548.275-2.901.324-4.868.324h-.853v-7.377h5.025v1.02h-3.788v2.027h3.345v.983h-3.346v2.339z" mask="url(#prefix__d)"/>
                <path fill="#092E6E" d="M421.377 111.551v1.945h-2.197v5.366h-2.377v-12.065h2.377v4.754h2.197zm-10.624 2.684c1.226 0 2.18-.81 2.18-2.162 0-1.35-.954-2.16-2.18-2.16-1.241 0-2.178.81-2.178 2.16 0 1.351.937 2.162 2.178 2.162zm.108 6.966h8.913v1.891h-11.29v-5.473h2.377v3.582zm-.108-4.915c-2.537 0-4.5-1.782-4.5-4.213 0-2.448 1.963-4.213 4.5-4.213 2.52 0 4.483 1.765 4.483 4.213 0 2.431-1.962 4.213-4.483 4.213zM434.173 111.084v-4.287h2.377v12.1h-2.377v-5.887h-2.593v-1.927h2.593zm2.755 10.117v1.892H425.62v-5.204h2.377v3.313h8.931zm-5.4-4.447c-1.82-.594-3.063-1.78-3.765-3.276-.738 1.639-2.034 2.954-3.98 3.6l-1.187-1.89c2.72-.882 3.907-3.06 3.907-5.148v-.235h-3.26v-1.89h8.913v1.89h-3.222v.216c0 1.962 1.134 3.998 3.745 4.88l-1.152 1.853zM444.88 114.72c3.475-.54 5.401-2.61 5.617-4.77h-4.97v-1.89h12.497v1.89h-4.97c.216 2.16 2.142 4.158 5.708 4.68l-.9 1.872c-2.918-.52-5.024-1.908-6.069-3.852-1.026 1.98-3.114 3.421-5.995 3.942l-.919-1.872zm14.422 4.808v1.926h-15.017v-1.926h6.32v-3.656h2.377v3.656h6.32zM476.24 115.153h-2.413v8.229h-2.377v-16.584h2.377v6.375h2.413v1.98zm-9.291-4.664c0 2.989 1.17 5.996 3.835 7.31l-1.44 1.874c-1.73-.883-2.9-2.486-3.583-4.466-.72 2.106-1.962 3.852-3.835 4.77l-1.423-1.926c2.79-1.314 4.05-4.483 4.05-7.562v-2.412h2.396v2.412zM407.182 138.815h2.377v-9.398h-2.377v9.398zm-8.21-3.259h3.385v-3.295h-3.385v3.295zm6.284 5.905c.252 1.099 1.909 2.432 5.186 2.702l-.757 1.764c-2.755-.234-4.682-1.224-5.689-2.485-1.009 1.279-2.954 2.251-5.745 2.485l-.738-1.764c3.314-.288 4.988-1.549 5.222-2.702h-4.591v-1.763h4.646v-1.352h2.412v1.352h4.628v1.763h-4.574zm-8.625-4.05h8.049v-7.022h-8.049v7.022zM432.653 133.251v1.963h-2.196v3.998h-2.377v-9.795h2.377v3.834h2.196zm-4.375 9.524c0-.918-1.135-1.349-3.241-1.349-2.124 0-3.26.431-3.26 1.35 0 .936 1.136 1.37 3.26 1.37 2.106 0 3.24-.433 3.24-1.37zm2.358 0c0 2.017-2.16 3.206-5.6 3.206-3.456 0-5.616-1.189-5.616-3.206 0-1.998 2.16-3.186 5.617-3.186 3.439 0 5.599 1.189 5.599 3.186zm-4.7-4.195c-1.745-.576-2.952-1.692-3.654-3.097-.72 1.64-1.998 2.917-3.89 3.566l-1.241-1.873c2.773-.917 3.889-3.132 3.889-5.382v-1.496h2.413v1.692c0 2 1.116 3.945 3.726 4.754l-1.242 1.837zM448.186 129.38v16.601h-2.25v-8.264h-1.333v7.525h-2.214v-15.59h2.214v6.156h1.333v-6.428h2.25zm-11.415 10.875c1.837-.019 3.169-.09 4.718-.324l.216 1.91c-1.909.323-3.547.358-6.033.358h-1.152v-11.09h6.698V133h-4.447v2.448h4.105v1.837h-4.105v2.971zM469.823 134.44v1.963h-1.981v5.4h-2.376V129.38h2.376v5.06h1.98zm-10.66 9.362h9.2v1.89h-11.576v-4.986h2.376v3.096zm1.98-7.561c.27-1.55.343-2.756.36-3.746h-6.175v-1.891h8.516v1.027c0 1.153 0 2.79-.377 4.879l-2.323-.27zm3.566 2.629c-3.421.629-7.275.7-10.12.719l-.215-1.89c.918 0 1.944 0 3.025-.02v-3.221h2.322v3.132c1.639-.072 3.295-.197 4.844-.414l.144 1.694zM482.582 146.017h2.377V129.38h-2.377v16.637zm-8.102-5.815c2.521-.019 4.609-.145 6.95-.541l.252 1.927c-2.7.468-5.131.577-8.138.577h-1.495v-6.825h5.384v-2.647h-5.401v-1.89h7.832v6.409h-5.384v2.99zM437.125 151.98v16.638h-2.377v-9.526h-3.186v-1.908h3.185v-5.204h2.377zm-7.688 3.691c0 3.133 1.207 6.176 3.942 7.401l-1.404 1.889c-1.819-.881-3.026-2.502-3.709-4.5-.72 2.124-1.963 3.853-3.817 4.79l-1.476-1.909c2.808-1.297 4.068-4.519 4.068-7.671v-2.394h2.396v2.394zM442.737 162.819h3.259v-3.672h-3.259v3.672zm10.947-10.839v16.638h-2.377v-8.895h-2.971v4.986h-7.958v-11.415h2.359v3.998h3.259v-3.998h2.34v4.52h2.971v-5.834h2.377z" mask="url(#prefix__d)"/>
                <path fill="#E6E8EB" d="M419.913 56.424L419.913 87.764 457.746 87.764 457.746 56.133z" mask="url(#prefix__d)"/>
                <path fill="#000" d="M420.195 87.482h37.268V56.418l-37.268.287v30.777zm37.833.564H419.63V56.144l38.397-.295v32.197z" mask="url(#prefix__d)"/>
                <path fill="#FFF" d="M458.846 56.654H418.67c-1.534 0-2.79-1.255-2.79-2.79V47.71c0-1.535 1.256-2.79 2.79-2.79h40.176c1.534 0 2.789 1.255 2.789 2.79v6.155c0 1.534-1.255 2.789-2.79 2.789" mask="url(#prefix__d)"/>
                <path fill="#000" d="M458.846 44.92H418.67c-1.534 0-2.79 1.255-2.79 2.79v6.153c0 1.536 1.256 2.79 2.79 2.79h40.176c1.534 0 2.79-1.254 2.79-2.79V47.71c0-1.534-1.256-2.789-2.79-2.789m0 .564c1.227 0 2.225.998 2.225 2.225v6.154c0 1.228-.998 2.226-2.225 2.226H418.67c-1.227 0-2.225-.998-2.225-2.226V47.71c0-1.227.998-2.225 2.225-2.225h40.176" mask="url(#prefix__d)"/>
                <path fill="#FFF" d="M458.846 70.909H418.67c-1.534 0-2.79-1.255-2.79-2.79v-6.154c0-1.535 1.256-2.79 2.79-2.79h40.176c1.534 0 2.789 1.255 2.789 2.79v6.155c0 1.534-1.255 2.789-2.79 2.789" mask="url(#prefix__d)"/>
                <path fill="#000" d="M458.846 59.174H418.67c-1.534 0-2.79 1.256-2.79 2.79v6.155c0 1.534 1.256 2.79 2.79 2.79h40.176c1.534 0 2.79-1.256 2.79-2.79v-6.155c0-1.534-1.256-2.79-2.79-2.79m0 .564c1.227 0 2.225.998 2.225 2.226v6.155c0 1.227-.998 2.225-2.225 2.225H418.67c-1.227 0-2.225-.998-2.225-2.225v-6.155c0-1.228.998-2.226 2.225-2.226h40.176" mask="url(#prefix__d)"/>
                <path fill="#FFF" d="M458.846 85.084H418.67c-1.534 0-2.79-1.255-2.79-2.79V76.14c0-1.535 1.256-2.79 2.79-2.79h40.176c1.534 0 2.789 1.255 2.789 2.79v6.154c0 1.535-1.255 2.79-2.79 2.79" mask="url(#prefix__d)"/>
                <path fill="#000" d="M458.846 73.35H418.67c-1.534 0-2.79 1.255-2.79 2.79v6.154c0 1.535 1.256 2.79 2.79 2.79h40.176c1.534 0 2.79-1.255 2.79-2.79V76.14c0-1.534-1.256-2.789-2.79-2.789m0 .564c1.227 0 2.225.998 2.225 2.225v6.155c0 1.227-.998 2.225-2.225 2.225H418.67c-1.227 0-2.225-.998-2.225-2.225V76.14c0-1.227.998-2.225 2.225-2.225h40.176" mask="url(#prefix__d)"/>
                <path fill="#0A51B7" d="M446.25 50.787c0 1.043-.845 1.888-1.888 1.888-1.042 0-1.887-.845-1.887-1.888 0-1.042.845-1.887 1.887-1.887 1.043 0 1.888.845 1.888 1.887" mask="url(#prefix__d)"/>
                <path fill="#000" d="M444.362 48.899c-1.042 0-1.887.846-1.887 1.889 0 1.04.845 1.886 1.887 1.886s1.887-.845 1.887-1.886c0-1.043-.845-1.89-1.887-1.89m0 .565c.73 0 1.323.594 1.323 1.325 0 .728-.594 1.322-1.323 1.322s-1.323-.594-1.323-1.322c0-.731.594-1.325 1.323-1.325" mask="url(#prefix__d)"/>
                <path fill="#0A51B7" d="M452.071 50.787c0 1.043-.845 1.888-1.888 1.888-1.042 0-1.887-.845-1.887-1.888 0-1.042.845-1.887 1.887-1.887 1.043 0 1.888.845 1.888 1.887" mask="url(#prefix__d)"/>
                <path fill="#000" d="M450.184 48.899c-1.043 0-1.888.846-1.888 1.889 0 1.04.845 1.886 1.888 1.886 1.042 0 1.887-.845 1.887-1.886 0-1.043-.845-1.89-1.887-1.89m0 .565c.73 0 1.322.594 1.322 1.325 0 .728-.593 1.322-1.322 1.322-.729 0-1.323-.594-1.323-1.322 0-.731.594-1.325 1.323-1.325" mask="url(#prefix__d)"/>
                <path fill="#0A51B7" d="M457.893 50.787c0 1.043-.845 1.888-1.887 1.888-1.043 0-1.888-.845-1.888-1.888 0-1.042.845-1.887 1.888-1.887 1.042 0 1.887.845 1.887 1.887" mask="url(#prefix__d)"/>
                <path fill="#000" d="M456.005 48.899c-1.042 0-1.888.846-1.888 1.889 0 1.04.846 1.886 1.888 1.886 1.042 0 1.887-.845 1.887-1.886 0-1.043-.845-1.89-1.887-1.89m0 .565c.73 0 1.322.594 1.322 1.325 0 .728-.593 1.322-1.322 1.322-.729 0-1.323-.594-1.323-1.322 0-.731.594-1.325 1.323-1.325" mask="url(#prefix__d)"/>
                <path fill="#0A51B7" d="M446.25 65.041c0 1.044-.845 1.889-1.888 1.889-1.042 0-1.887-.846-1.887-1.889 0-1.041.845-1.886 1.887-1.886 1.043 0 1.888.844 1.888 1.886" mask="url(#prefix__d)"/>
                <path fill="#000" d="M444.362 63.155c-1.042 0-1.887.845-1.887 1.887 0 1.043.845 1.887 1.887 1.887s1.887-.844 1.887-1.887c0-1.042-.845-1.887-1.887-1.887m0 .564c.73 0 1.323.594 1.323 1.323 0 .73-.594 1.323-1.323 1.323s-1.323-.593-1.323-1.323.594-1.323 1.323-1.323" mask="url(#prefix__d)"/>
                <path fill="#0A51B7" d="M452.071 65.041c0 1.044-.845 1.889-1.888 1.889-1.042 0-1.887-.846-1.887-1.889 0-1.041.845-1.886 1.887-1.886 1.043 0 1.888.844 1.888 1.886" mask="url(#prefix__d)"/>
                <path fill="#000" d="M450.184 63.155c-1.043 0-1.888.845-1.888 1.887 0 1.043.845 1.887 1.888 1.887 1.042 0 1.887-.844 1.887-1.887 0-1.042-.845-1.887-1.887-1.887m0 .564c.73 0 1.322.594 1.322 1.323 0 .73-.593 1.323-1.322 1.323-.729 0-1.323-.593-1.323-1.323s.594-1.323 1.323-1.323" mask="url(#prefix__d)"/>
                <path fill="#0A51B7" d="M457.893 65.041c0 1.044-.845 1.889-1.887 1.889-1.043 0-1.888-.846-1.888-1.889 0-1.041.845-1.886 1.888-1.886 1.042 0 1.887.844 1.887 1.886" mask="url(#prefix__d)"/>
                <path fill="#000" d="M456.005 63.155c-1.042 0-1.888.845-1.888 1.887 0 1.043.846 1.887 1.888 1.887 1.042 0 1.887-.844 1.887-1.887 0-1.042-.845-1.887-1.887-1.887m0 .564c.73 0 1.322.594 1.322 1.323 0 .73-.593 1.323-1.322 1.323-.729 0-1.323-.593-1.323-1.323s.594-1.323 1.323-1.323" mask="url(#prefix__d)"/>
                <path fill="#0A51B7" d="M446.25 79.216c0 1.043-.845 1.888-1.888 1.888-1.042 0-1.887-.845-1.887-1.888 0-1.042.845-1.887 1.887-1.887 1.043 0 1.888.845 1.888 1.887" mask="url(#prefix__d)"/>
                <path fill="#000" d="M444.362 77.329c-1.042 0-1.887.846-1.887 1.889 0 1.042.845 1.886 1.887 1.886s1.887-.844 1.887-1.886c0-1.043-.845-1.89-1.887-1.89m0 .565c.73 0 1.323.594 1.323 1.325 0 .728-.594 1.322-1.323 1.322s-1.323-.594-1.323-1.322c0-.731.594-1.325 1.323-1.325" mask="url(#prefix__d)"/>
                <path fill="#0A51B7" d="M452.071 79.216c0 1.043-.845 1.888-1.888 1.888-1.042 0-1.887-.845-1.887-1.888 0-1.042.845-1.887 1.887-1.887 1.043 0 1.888.845 1.888 1.887" mask="url(#prefix__d)"/>
                <path fill="#000" d="M450.184 77.329c-1.043 0-1.888.846-1.888 1.889 0 1.042.845 1.886 1.888 1.886 1.042 0 1.887-.844 1.887-1.886 0-1.043-.845-1.89-1.887-1.89m0 .565c.73 0 1.322.594 1.322 1.325 0 .728-.593 1.322-1.322 1.322-.729 0-1.323-.594-1.323-1.322 0-.731.594-1.325 1.323-1.325" mask="url(#prefix__d)"/>
                <path fill="#0A51B7" d="M457.893 79.216c0 1.043-.845 1.888-1.887 1.888-1.043 0-1.888-.845-1.888-1.888 0-1.042.845-1.887 1.888-1.887 1.042 0 1.887.845 1.887 1.887" mask="url(#prefix__d)"/>
                <path fill="#000" d="M456.005 77.329c-1.042 0-1.888.846-1.888 1.889 0 1.042.846 1.886 1.888 1.886 1.042 0 1.887-.844 1.887-1.886 0-1.043-.845-1.89-1.887-1.89m0 .565c.73 0 1.322.594 1.322 1.325 0 .728-.593 1.322-1.322 1.322-.729 0-1.323-.594-1.323-1.322 0-.731.594-1.325 1.323-1.325" mask="url(#prefix__d)"/>
                <path fill="#FFF" d="M420.716 47.689L420.716 53.885" mask="url(#prefix__d)"/>
                <path fill="#000" d="M420.434 53.885L420.998 53.885 420.998 47.689 420.434 47.689z" mask="url(#prefix__d)"/>
                <path fill="#FFF" d="M423.917 47.689L423.917 53.885" mask="url(#prefix__d)"/>
                <path fill="#000" d="M423.635 53.885L424.199 53.885 424.199 47.689 423.635 47.689z" mask="url(#prefix__d)"/>
                <path fill="#FFF" d="M427.118 47.689L427.118 53.885" mask="url(#prefix__d)"/>
                <path fill="#000" d="M426.836 53.885L427.4 53.885 427.4 47.689 426.836 47.689z" mask="url(#prefix__d)"/>
                <path fill="#FFF" d="M430.319 47.689L430.319 53.885" mask="url(#prefix__d)"/>
                <path fill="#000" d="M430.038 53.885L430.602 53.885 430.602 47.689 430.038 47.689z" mask="url(#prefix__d)"/>
                <path fill="#FFF" d="M433.521 47.689L433.521 53.885" mask="url(#prefix__d)"/>
                <path fill="#000" d="M433.239 53.885L433.803 53.885 433.803 47.689 433.239 47.689z" mask="url(#prefix__d)"/>
                <path fill="#FFF" d="M436.722 47.689L436.722 53.885" mask="url(#prefix__d)"/>
                <path fill="#000" d="M436.44 53.885L437.004 53.885 437.004 47.689 436.44 47.689z" mask="url(#prefix__d)"/>
                <path fill="#FFF" d="M422.316 47.689L422.316 53.885" mask="url(#prefix__d)"/>
                <path fill="#000" d="M422.035 53.885L422.599 53.885 422.599 47.689 422.035 47.689z" mask="url(#prefix__d)"/>
                <path fill="#FFF" d="M425.518 47.689L425.518 53.885" mask="url(#prefix__d)"/>
                <path fill="#000" d="M425.236 53.885L425.8 53.885 425.8 47.689 425.236 47.689z" mask="url(#prefix__d)"/>
                <path fill="#FFF" d="M428.719 47.689L428.719 53.885" mask="url(#prefix__d)"/>
                <path fill="#000" d="M428.437 53.885L429.001 53.885 429.001 47.689 428.437 47.689z" mask="url(#prefix__d)"/>
                <path fill="#FFF" d="M431.92 47.689L431.92 53.885" mask="url(#prefix__d)"/>
                <path fill="#000" d="M431.638 53.885L432.202 53.885 432.202 47.689 431.638 47.689z" mask="url(#prefix__d)"/>
                <path fill="#FFF" d="M435.121 47.689L435.121 53.885" mask="url(#prefix__d)"/>
                <path fill="#000" d="M434.839 53.885L435.403 53.885 435.403 47.689 434.839 47.689z" mask="url(#prefix__d)"/>
                <path fill="#FFF" d="M420.716 61.944L420.716 68.14" mask="url(#prefix__d)"/>
                <path fill="#000" d="M420.434 68.14L420.998 68.14 420.998 61.944 420.434 61.944z" mask="url(#prefix__d)"/>
                <path fill="#FFF" d="M423.917 61.944L423.917 68.14" mask="url(#prefix__d)"/>
                <path fill="#000" d="M423.635 68.14L424.199 68.14 424.199 61.944 423.635 61.944z" mask="url(#prefix__d)"/>
                <path fill="#FFF" d="M427.118 61.944L427.118 68.14" mask="url(#prefix__d)"/>
                <path fill="#000" d="M426.836 68.14L427.4 68.14 427.4 61.944 426.836 61.944z" mask="url(#prefix__d)"/>
                <path fill="#FFF" d="M430.319 61.944L430.319 68.14" mask="url(#prefix__d)"/>
                <path fill="#000" d="M430.038 68.14L430.602 68.14 430.602 61.944 430.038 61.944z" mask="url(#prefix__d)"/>
                <path fill="#FFF" d="M433.521 61.944L433.521 68.14" mask="url(#prefix__d)"/>
                <path fill="#000" d="M433.239 68.14L433.803 68.14 433.803 61.944 433.239 61.944z" mask="url(#prefix__d)"/>
                <path fill="#FFF" d="M436.722 61.944L436.722 68.14" mask="url(#prefix__d)"/>
                <path fill="#000" d="M436.44 68.14L437.004 68.14 437.004 61.944 436.44 61.944z" mask="url(#prefix__d)"/>
                <path fill="#FFF" d="M422.316 61.944L422.316 68.14" mask="url(#prefix__d)"/>
                <path fill="#000" d="M422.035 68.14L422.599 68.14 422.599 61.944 422.035 61.944z" mask="url(#prefix__d)"/>
                <path fill="#FFF" d="M425.518 61.944L425.518 68.14" mask="url(#prefix__d)"/>
                <path fill="#000" d="M425.236 68.14L425.8 68.14 425.8 61.944 425.236 61.944z" mask="url(#prefix__d)"/>
                <path fill="#FFF" d="M428.719 61.944L428.719 68.14" mask="url(#prefix__d)"/>
                <path fill="#000" d="M428.437 68.14L429.001 68.14 429.001 61.944 428.437 61.944z" mask="url(#prefix__d)"/>
                <path fill="#FFF" d="M431.92 61.944L431.92 68.14" mask="url(#prefix__d)"/>
                <path fill="#000" d="M431.638 68.14L432.202 68.14 432.202 61.944 431.638 61.944z" mask="url(#prefix__d)"/>
                <path fill="#FFF" d="M435.121 61.944L435.121 68.14" mask="url(#prefix__d)"/>
                <path fill="#000" d="M434.839 68.14L435.403 68.14 435.403 61.944 434.839 61.944z" mask="url(#prefix__d)"/>
                <path fill="#FFF" d="M420.716 76.199L420.716 82.395" mask="url(#prefix__d)"/>
                <path fill="#000" d="M420.434 82.395L420.998 82.395 420.998 76.199 420.434 76.199z" mask="url(#prefix__d)"/>
                <path fill="#FFF" d="M423.917 76.199L423.917 82.395" mask="url(#prefix__d)"/>
                <path fill="#000" d="M423.635 82.395L424.199 82.395 424.199 76.199 423.635 76.199z" mask="url(#prefix__d)"/>
                <path fill="#FFF" d="M427.118 76.199L427.118 82.395" mask="url(#prefix__d)"/>
                <path fill="#000" d="M426.836 82.395L427.4 82.395 427.4 76.199 426.836 76.199z" mask="url(#prefix__d)"/>
                <path fill="#FFF" d="M430.319 76.199L430.319 82.395" mask="url(#prefix__d)"/>
                <path fill="#000" d="M430.038 82.395L430.602 82.395 430.602 76.199 430.038 76.199z" mask="url(#prefix__d)"/>
                <path fill="#FFF" d="M433.521 76.199L433.521 82.395" mask="url(#prefix__d)"/>
                <path fill="#000" d="M433.239 82.395L433.803 82.395 433.803 76.199 433.239 76.199z" mask="url(#prefix__d)"/>
                <path fill="#FFF" d="M436.722 76.199L436.722 82.395" mask="url(#prefix__d)"/>
                <path fill="#000" d="M436.44 82.395L437.004 82.395 437.004 76.199 436.44 76.199z" mask="url(#prefix__d)"/>
                <path fill="#FFF" d="M422.316 76.199L422.316 82.395" mask="url(#prefix__d)"/>
                <path fill="#000" d="M422.035 82.395L422.599 82.395 422.599 76.199 422.035 76.199z" mask="url(#prefix__d)"/>
                <path fill="#FFF" d="M425.518 76.199L425.518 82.395" mask="url(#prefix__d)"/>
                <path fill="#000" d="M425.236 82.395L425.8 82.395 425.8 76.199 425.236 76.199z" mask="url(#prefix__d)"/>
                <path fill="#FFF" d="M428.719 76.199L428.719 82.395" mask="url(#prefix__d)"/>
                <path fill="#000" d="M428.437 82.395L429.001 82.395 429.001 76.199 428.437 76.199z" mask="url(#prefix__d)"/>
                <path fill="#FFF" d="M431.92 76.199L431.92 82.395" mask="url(#prefix__d)"/>
                <path fill="#000" d="M431.638 82.395L432.202 82.395 432.202 76.199 431.638 76.199z" mask="url(#prefix__d)"/>
                <path fill="#FFF" d="M435.121 76.199L435.121 82.395" mask="url(#prefix__d)"/>
                <path fill="#000" d="M434.839 82.395L435.403 82.395 435.403 76.199 434.839 76.199z" mask="url(#prefix__d)"/>
                <path fill="#E6E8EB" d="M453.554 76.334s.188-1.194 1.877-2.008c1.69-.813 5.93-1.963 11.109-1.248 5.18.715 6.54 2 6.54 2l.623 1.376-.001 15.147s-.684 1.814-4.158 2.566c-3.473.75-10.388 1-13.706-.532 0 0-2.096-.877-2.284-2.192v-15.11z" mask="url(#prefix__d)"/>
                <path fill="#000" d="M453.836 91.43c.143.333 1.614 3.208 9.787 3.208 8.157 0 9.648-2.865 9.796-3.21V76.241c-.105-.295-1.353-3.106-10.094-3.106-9.134 0-9.487 3.121-9.49 3.153V91.43zm9.787 3.772c-9.118 0-10.293-3.49-10.34-3.638l-.011-.083v-15.21c.007-.166.297-3.7 10.053-3.7 9.712 0 10.619 3.42 10.653 3.564l.007.064-.014 15.366c-.046.148-1.232 3.637-10.348 3.637z" mask="url(#prefix__d)"/>
                <path fill="#000" d="M463.413 85.142c-8.862 0-10.078-3.263-10.126-3.403l.534-.182-.267.091.266-.094c.01.03 1.205 3.024 9.595 3.024.113 0 .227 0 .342-.002 8.678-.083 9.666-2.978 9.675-3.007l.543.154c-.038.136-1.027 3.33-10.213 3.417l-.35.002M463.409 90.1c-8.858 0-10.074-3.263-10.122-3.403l.534-.182-.267.091.266-.094c.01.03 1.205 3.023 9.59 3.023.116 0 .229 0 .346-.002 8.678-.083 9.667-2.977 9.676-3.006l.543.154c-.038.136-1.027 3.328-10.213 3.416l-.353.002M463.409 80.184c-8.858 0-10.074-3.263-10.122-3.403l.534-.182-.267.091.266-.094c.01.031 1.25 3.114 9.936 3.022 8.679-.083 9.667-2.978 9.676-3.007l.543.154c-.038.136-1.027 3.33-10.213 3.417l-.353.002M301.421 3.239v1.02h-1.535v3.706h-1.236V.025h1.236v3.214h1.535zm-7.148 6.405h6.044v1.007h-7.292V7.149h1.248v2.495zm.168-4.546c.947 0 1.678-.647 1.678-1.643 0-.984-.73-1.631-1.678-1.631s-1.667.647-1.667 1.63c0 .997.72 1.644 1.667 1.644zm0 1.068c-1.63 0-2.879-1.127-2.879-2.711 0-1.583 1.248-2.698 2.88-2.698 1.641 0 2.89 1.115 2.89 2.698 0 1.584-1.249 2.71-2.89 2.71zM310.207 2.927V.037h1.235v7.915h-1.236V3.947h-1.966v-1.02h1.966zm1.51 6.717v1.007h-7.291V7.27h1.235v2.375h6.056zM308.3 6.417c-1.2-.408-2.076-1.26-2.53-2.327-.481 1.176-1.392 2.123-2.675 2.566l-.637-.97c1.68-.588 2.662-2.016 2.662-3.479v-.372h-2.29V.84h5.793v.995h-2.255v.372c0 1.331.923 2.687 2.543 3.25l-.611.96zM317.29 5.422c2.111-.336 3.826-1.836 3.826-3.467v-.023h-3.441V.936h8.178v.996h-3.442v.023c0 1.631 1.728 3.095 3.875 3.431l-.505.983c-1.786-.336-3.308-1.343-4.017-2.722-.696 1.391-2.207 2.422-3.957 2.758l-.517-.983zm9.392 3.094v1.008h-9.812V8.516h4.282v-2.53h1.248v2.53h4.282zM337.986 5.338h-1.691v5.517h-1.236V.025h1.236v4.293h1.69v1.02zM331.7 2.7c0 1.931 1.008 3.886 2.639 4.69l-.756.983c-1.163-.599-2.027-1.775-2.494-3.19-.468 1.5-1.38 2.76-2.615 3.393l-.756-.995c1.69-.827 2.746-2.878 2.746-4.88V.923h1.236V2.7zM351.582 9.763v.996h-7.327V7.844h5.793v-.899h-5.819v-.984h7.054v2.807h-5.793v.995h6.092zm-4.041-7.304c-.673 1.656-2.267 2.76-4.654 3.298l-.432-1.007c2.567-.55 3.899-1.739 4.066-3.25h-3.478V.504h4.846c0 .348-.024.684-.084.996h2.243V.025h1.235v5.493h-1.236v-.984h-2.65v-.959h2.65V2.46h-2.507zM363.342 5.518h-1.596v5.337H360.5V.025h1.247v4.45h1.596v1.043zm-5.529.491c.275-1.678.3-2.938.3-3.849h-4.294v-.996h5.504v.72c0 .947 0 2.315-.299 4.234l-1.21-.109zm-1.21 1.488c1.126-.048 2.265-.108 3.32-.252l.061.912c-2.23.371-4.714.42-6.609.42l-.132-1.02c.66 0 1.391-.013 2.147-.024V4.271h1.212v3.226zM375.812 10.843h1.187V.013h-1.187v10.83zM373.605.252h1.163v10.087h-1.163V5.086h-2.135V4.079h2.135V.252zm-4.271 7.065c1.344-.012 2.268-.072 3.335-.3l.108 1.02c-1.223.239-2.278.299-3.934.299h-.731v-7.04h4.101v1.007h-2.879v5.014zM386.456 10.878h1.247V.013h-1.247v10.865zm-6.117-6.248c0 1.704.66 2.723 1.595 2.723.947 0 1.608-1.019 1.608-2.723 0-1.678-.661-2.698-1.608-2.698-.935 0-1.595 1.02-1.595 2.698zm4.39 0c0 2.351-1.176 3.827-2.795 3.827-1.607 0-2.782-1.476-2.782-3.827 0-2.327 1.175-3.813 2.782-3.813 1.619 0 2.795 1.486 2.795 3.813zM398.827 0v10.867h-1.247V5.002h-2.075v-1.02h2.075V0h1.247zm-7.28 7.329c1.727-.013 2.963-.071 4.378-.311l.108.994c-1.548.277-2.902.324-4.87.324h-.851V.96h5.025v1.02h-3.79v2.027h3.346v.982h-3.345v2.34zM297.673 32.455h1.235v-10.83h-1.235v10.83zm-1.956-9.691c0 3.227-1.295 5.961-5.012 7.76l-.661-.983c2.843-1.368 4.186-3.275 4.402-5.769h-3.862v-1.008h5.133zM309.072 32.455h1.176v-10.83h-1.176v10.83zm-2.183-10.614h1.163v10.086h-1.163v-5.096h-1.463v-1.008h1.463v-3.982zm-2.626 3.094c0 1.691.732 3.418 2.219 4.222l-.684.924c-1.019-.552-1.715-1.548-2.111-2.723-.384 1.271-1.067 2.362-2.099 2.962l-.708-.936c1.488-.875 2.207-2.721 2.207-4.449v-.384h-1.871v-1.019h1.871v-1.535h1.176v1.535h1.859v1.019h-1.859v.384zM312.077 33.15c.815-.335 1.295-.935 1.308-1.643-.05.012-.084.012-.133.012-.491 0-.923-.311-.923-.887 0-.54.432-.887.959-.887.672 0 1.067.563 1.067 1.487 0 1.259-.731 2.23-1.966 2.698l-.312-.78zM326.029 32.455h1.235v-10.83h-1.235v10.83zm-1.955-9.691c0 3.227-1.295 5.961-5.014 7.76l-.659-.983c2.843-1.368 4.185-3.275 4.401-5.769h-3.861v-1.008h5.133zM339.335 25.055v1.02h-1.439v3.681h-1.248v-8.132h1.248v3.431h1.44zm-7.208 6.188h6.116v1.008h-7.363v-3.215h1.247v2.207zm1.751-5.109c.216-1.163.252-2.015.264-2.686h-4.234v-1.007h5.446v.623c0 .731 0 1.8-.265 3.202l-1.21-.132zm2.195 1.571c-2.255.396-4.809.456-6.692.456l-.132-1.007c.648 0 1.391 0 2.158-.024v-2.219h1.224v2.183c1.127-.048 2.291-.12 3.358-.288l.084.9zM353.76 24.3v1.02h-1.535v2.805h-1.236v-6.513h1.236V24.3h1.535zm-2.639 6.116c0-.672-.876-1.055-2.386-1.055-1.512 0-2.387.383-2.387 1.055 0 .695.875 1.068 2.387 1.068 1.51 0 2.386-.373 2.386-1.068zm1.223 0c0 1.283-1.367 2.038-3.609 2.038-2.232 0-3.61-.755-3.61-2.038 0-1.27 1.378-2.027 3.61-2.027 2.242 0 3.61.756 3.61 2.027zm-2.926-2.867c-1.163-.419-2.027-1.247-2.482-2.267-.48 1.176-1.367 2.112-2.615 2.567l-.66-.984c1.703-.587 2.626-2.062 2.626-3.622v-1.067h1.248v1.164c0 1.391.923 2.71 2.531 3.238l-.648.971zM364.056 21.625v10.818h-1.175v-5.53h-1.212v5.026h-1.15v-10.11h1.15v4.078h1.212v-4.282h1.175zm-7.676 7.22c1.392-.012 2.327-.06 3.431-.252l.107 1.008c-1.247.227-2.302.264-3.993.264h-.732v-7.053h4.318v.996h-3.13v1.858h2.938v.973h-2.939v2.207zM377.27 32.443h1.187v-10.83h-1.187v10.83zm-2.207-10.59h1.163v10.086h-1.163v-5.253h-2.135v-1.007h2.135v-3.826zm-4.271 7.064c1.344-.012 2.268-.072 3.335-.3l.108 1.019c-1.224.24-2.278.3-3.934.3h-.731v-7.04h4.101v1.008h-2.879v5.013zM387.914 32.479h1.247V21.613h-1.247v10.866zm-6.117-6.249c0 1.703.66 2.723 1.595 2.723.947 0 1.608-1.02 1.608-2.723 0-1.679-.661-2.698-1.608-2.698-.935 0-1.595 1.019-1.595 2.698zm4.39 0c0 2.352-1.176 3.826-2.795 3.826-1.607 0-2.782-1.474-2.782-3.826 0-2.326 1.175-3.813 2.782-3.813 1.619 0 2.795 1.487 2.795 3.813zM400.285 21.601v10.866h-1.247v-5.865h-2.075v-1.02h2.075v-3.98h1.247zm-7.28 7.328c1.727-.013 2.963-.072 4.378-.312l.108.996c-1.548.275-2.902.323-4.87.323h-.851V22.56h5.025v1.02h-3.79v2.027h3.346v.983h-3.345v2.34zM311.85 54.055h1.235v-10.83h-1.235v10.83zm-1.955-9.69c0 3.225-1.295 5.96-5.013 7.76l-.66-.984c2.843-1.367 4.186-3.274 4.402-5.769h-3.862v-1.007h5.133zM317.66 52.844h6.226v1.007h-7.472V50.77h1.247v2.075zm-1.954-5.745c2.052-.252 3.454-1.272 3.55-2.387h-3.166v-.983h8v.983h-3.191c.096 1.115 1.524 2.135 3.563 2.387l-.456.983c-1.883-.24-3.346-1.115-3.934-2.314-.576 1.2-2.027 2.074-3.898 2.314l-.468-.983zM325 48.982v.995h-9.822v-.995h4.269v-1.656h1.235v1.656H325zM339.557 46.655v1.02h-1.439v3.682h-1.248v-8.132h1.248v3.43h1.44zm-7.208 6.189h6.116v1.007h-7.363v-3.214h1.247v2.207zm1.751-5.11c.216-1.163.252-2.015.264-2.685h-4.234V44.04h5.446v.624c0 .73 0 1.799-.264 3.202l-1.212-.132zm2.195 1.572c-2.255.396-4.809.455-6.692.455l-.132-1.006c.648 0 1.391 0 2.158-.025v-2.22h1.224v2.184c1.127-.048 2.291-.12 3.358-.288l.084.9zM348.319 54.079h1.247V43.201h-1.247v10.878zm-5.829-3.598c1.715-.012 3.214-.096 4.929-.372l.132 1.008c-1.859.324-3.478.383-5.385.383h-.923v-4.293h3.777v-2.015h-3.802v-1.008h5.05v4.019h-3.778v2.278zM363.091 54.043h1.187v-10.83h-1.187v10.83zm-2.207-10.59h1.163V53.54h-1.163v-5.253h-2.134v-1.008h2.134v-3.826zm-4.27 7.064c1.344-.012 2.267-.072 3.335-.3l.107 1.02c-1.223.239-2.278.3-3.933.3h-.732v-7.04h4.102v1.006h-2.879v5.014zM373.735 54.079h1.247V43.214h-1.247v10.865zm-6.116-6.248c0 1.703.659 2.722 1.594 2.722.948 0 1.608-1.019 1.608-2.722 0-1.679-.66-2.699-1.608-2.699-.935 0-1.594 1.02-1.594 2.699zm4.389 0c0 2.35-1.175 3.826-2.795 3.826-1.607 0-2.782-1.476-2.782-3.826 0-2.328 1.175-3.814 2.782-3.814 1.62 0 2.795 1.486 2.795 3.814zM386.106 43.2v10.867h-1.247v-5.864h-2.075v-1.02h2.075V43.2h1.247zm-7.279 7.329c1.726-.012 2.962-.071 4.377-.311l.108.995c-1.548.276-2.902.324-4.869.324h-.852V44.16h5.025v1.019h-3.789v2.027h3.345v.983h-3.345v2.339zM394.585 366.622h1.235v-10.83h-1.235v10.83zm-1.956-9.69c0 3.226-1.295 5.96-5.013 7.76l-.659-.984c2.842-1.368 4.185-3.274 4.401-5.769h-3.861v-1.007h5.132zM400.395 365.41h6.225v1.009h-7.472v-3.082h1.247v2.074zm-1.955-5.743c2.052-.252 3.454-1.272 3.551-2.387h-3.167v-.984h8v.984h-3.191c.096 1.115 1.524 2.135 3.563 2.387l-.456.982c-1.883-.24-3.346-1.115-3.934-2.314-.576 1.199-2.027 2.075-3.898 2.314l-.468-.982zm9.295 1.883v.995h-9.822v-.995h4.269v-1.656h1.235v1.656h4.318zM414.688 358.239c0 .768.995 1.21 2.53 1.21 1.524 0 2.519-.442 2.519-1.21s-.995-1.211-2.519-1.211c-1.535 0-2.53.443-2.53 1.21zm.084 7.172h6.284v1.008h-7.532v-3.202h1.248v2.194zm-1.392-7.172c0-1.355 1.512-2.207 3.838-2.207 2.315 0 3.838.852 3.838 2.207s-1.523 2.207-3.838 2.207c-2.326 0-3.838-.852-3.838-2.207zm8.755 2.938v1.007h-4.197v2.05h-1.26v-2.05h-4.365v-1.007h9.822zM429.05 358.287c.06.228.096.468.096.73 0 .265-.036.505-.109.734h2.064v-1.464h-2.05zm2.11 6.225c0-.72-.887-1.128-2.434-1.128-1.535 0-2.435.408-2.435 1.128 0 .743.9 1.139 2.435 1.139 1.547 0 2.434-.396 2.434-1.14zm1.224 0c0 1.33-1.403 2.11-3.658 2.11s-3.646-.78-3.646-2.11c0-1.32 1.391-2.1 3.646-2.1s3.658.78 3.658 2.1zm-6.045-3.934c.936 0 1.631-.624 1.631-1.56 0-.947-.695-1.57-1.63-1.57-.96 0-1.656.623-1.656 1.57 0 .936.696 1.56 1.655 1.56zm2.147.168c-.503.552-1.27.876-2.147.876-1.619 0-2.83-1.08-2.83-2.604 0-1.535 1.211-2.614 2.83-2.614.888 0 1.644.336 2.147.876h2.615v-1.5h1.235v6.393h-1.235v-1.427h-2.615zM447.732 359.222v1.02h-1.44v3.682h-1.247v-8.133h1.248v3.431h1.439zm-7.208 6.188h6.116v1.008h-7.363v-3.215h1.247v2.207zm1.75-5.109c.217-1.163.253-2.015.265-2.685h-4.234v-1.008h5.446v.623c0 .732 0 1.8-.264 3.203l-1.212-.133zm2.196 1.572c-2.255.395-4.81.455-6.692.455l-.132-1.007c.648 0 1.39 0 2.158-.024v-2.219h1.224v2.183c1.127-.048 2.29-.12 3.358-.288l.084.9zM456.494 366.646h1.247v-10.878h-1.247v10.878zm-5.829-3.598c1.714-.012 3.213-.096 4.929-.372l.132 1.008c-1.859.324-3.478.383-5.386.383h-.923v-4.293h3.778v-2.015h-3.802v-1.008h5.05v4.019h-3.778v2.278zM470.87 366.646h1.247V355.78h-1.247v10.866zm-3.67-8.179c0 1.991 1.103 3.982 2.806 4.749l-.719.984c-1.247-.588-2.196-1.787-2.687-3.25-.492 1.57-1.451 2.853-2.759 3.49l-.731-1.031c1.727-.781 2.854-2.856 2.854-4.942v-1.775h1.236v1.775zM483.097 362.1c-1.763-.359-3.286-1.486-3.994-2.974-.707 1.488-2.23 2.615-3.993 2.974l-.529-1.02c2.135-.394 3.874-2.062 3.874-3.777v-.815h1.308v.815c0 1.727 1.74 3.395 3.874 3.777l-.54 1.02zm-8.852 3.131h9.811v-1.02h-9.81v1.02zM493.274 362.292h1.175v-6.513h-1.175v6.513zm-2.087-2.842h-1.283v-.995h1.283v-2.496h1.151v6.238h-1.151v-2.747zm-2.723 6.056h4.785v-1.763h-4.785v1.763zm-1.223.984h7.208v-3.73h-7.208v3.73zm3.154-5.013c-1.235.229-2.267.264-3.945.264h-.708v-5.278h4.078v.996h-2.891v1.127h2.494v.948h-2.494v1.223c1.367-.011 2.279-.071 3.346-.263l.12.983z" mask="url(#prefix__d)"/>
                <path fill="#FFF" d="M279.832 66.617c0 31.125-25.231 56.357-56.356 56.357s-56.357-25.232-56.357-56.357S192.35 10.26 223.476 10.26s56.356 25.232 56.356 56.357" mask="url(#prefix__d)"/>
                <path fill="#C5C8CF" d="M223.475 10.634c-30.869 0-55.982 25.113-55.982 55.982 0 30.87 25.113 55.983 55.982 55.983 30.87 0 55.982-25.113 55.982-55.983 0-30.869-25.113-55.982-55.982-55.982m0 112.715c-31.282 0-56.732-25.45-56.732-56.733 0-31.282 25.45-56.732 56.732-56.732s56.732 25.45 56.732 56.732c0 31.283-25.45 56.733-56.732 56.733" mask="url(#prefix__d)"/>
                <path fill="#007CF7" d="M196.867 75.566L192.528 72.098 192.528 60.876 196.867 57.408z" mask="url(#prefix__d)"/>
                <path fill="#6FB6FB" d="M204.583 75.566L208.922 72.098 208.922 60.876 204.583 57.408z" mask="url(#prefix__d)"/>
                <path fill="#0065C7" d="M204.583 57.408L200.725 59.942 204.583 62.538zM196.867 57.408L200.725 59.942 196.867 62.538zM204.583 70.436L200.725 72.97 204.583 75.566zM196.867 70.436L200.725 72.97 196.867 75.566z" mask="url(#prefix__d)"/>
                <path fill="#273A5B" d="M236.942 70.511L234.767 63.859 232.818 63.859 230.643 70.513 228.682 63.859 226.634 63.859 229.662 73.248 231.574 73.248 233.747 66.498 235.937 73.248 237.867 73.248 240.895 63.859 238.884 63.859zM253.485 64.56c-.625-.664-1.524-1-2.674-1-.603 0-1.191.155-1.748.462-.465.257-.833.571-1.101.936V63.86h-1.884v9.39h1.959v-5.18c0-.74.223-1.383.663-1.913.44-.53.972-.788 1.625-.788 1.405 0 2.104.695 2.139 2.122v5.758h1.959v-5.872c0-1.208-.315-2.155-.938-2.817M242.12 73.249L244.077 73.249 244.077 63.569 242.12 63.569zM242.032 61.782L244.165 61.782 244.165 59.651 242.032 59.651z" mask="url(#prefix__d)"/>
                <path fill="#273A5B" d="M228.878 59.64L216.403 59.64 216.403 61.534 221.655 61.534 221.655 73.334 223.625 73.334 223.625 61.534 228.878 61.534z" mask="url(#prefix__d)"/>
                <path fill="#FFF" d="M731.014 66.641c0 31.125-25.232 56.356-56.357 56.356S618.3 97.767 618.3 66.641s25.232-56.357 56.357-56.357 56.357 25.231 56.357 56.357" mask="url(#prefix__d)"/>
                <path fill="#C5C8CF" d="M674.657 10.659c-30.87 0-55.982 25.113-55.982 55.982s25.113 55.982 55.982 55.982 55.982-25.113 55.982-55.982c0-30.87-25.113-55.982-55.982-55.982m0 112.714c-31.282 0-56.732-25.45-56.732-56.732s25.45-56.732 56.732-56.732 56.732 25.45 56.732 56.732c0 31.283-25.45 56.732-56.732 56.732" mask="url(#prefix__d)"/>
                <path fill="#273A5B" d="M680.397 74.438L682.358 74.438 682.358 64.734 680.397 64.734zM680.31 62.944L682.447 62.944 682.447 60.806 680.31 60.806zM705.84 65.033L703.896 71.697 701.717 65.033 699.765 65.033 697.585 71.697 695.648 65.12 695.622 65.033 693.57 65.033 696.577 74.355 696.604 74.439 698.519 74.439 700.695 67.679 702.888 74.439 704.822 74.439 707.855 65.033zM687.148 67.05c.445-.38.982-.572 1.6-.572.752 0 1.358.201 1.803.597.396.355.65.864.724 1.445h-4.98c.164-.627.457-1.133.853-1.47m1.637-2.388c-1.353 0-2.48.483-3.35 1.436-.854.936-1.306 2.197-1.306 3.647 0 1.41.439 2.56 1.345 3.517.894.945 2.046 1.425 3.424 1.425.942 0 1.798-.227 2.544-.674.598-.357 1.167-.902 1.563-1.492l.058-.086-1.407-1.3-.08.118c-.661.998-1.587 1.548-2.603 1.548-.836 0-1.465-.23-1.98-.72-.536-.514-.81-1.119-.856-1.896h7.218l.006-.115c.005-.099.005-.193.005-.193 0-1.635-.428-2.967-1.24-3.854-.826-.904-1.95-1.36-3.341-1.36M672.735 71.557L668.632 60.809 666.465 60.809 671.723 74.361 671.754 74.437 673.713 74.437 679.087 60.973 679.152 60.809 676.985 60.809z" mask="url(#prefix__d)"/>
                <path fill="#6FB6FB" d="M654.568 60.248L650.159 57.702 647.731 59.104 654.553 65.927z" mask="url(#prefix__d)"/>
                <path fill="#007CF7" d="M654.553 69.565L658.857 65.075 658.857 62.723 654.566 60.247z" mask="url(#prefix__d)"/>
                <path fill="#0065C7" d="M645.741 75.241L650.158 77.792 652.589 76.387 645.763 69.567z" mask="url(#prefix__d)"/>
                <path fill="#BFDCFF" d="M641.46 63.351L641.46 62.723 647.731 59.104 651.979 63.351z" mask="url(#prefix__d)"/>
                <path fill="#DEEDFF" d="M641.46 63.351L641.46 70.227 648.337 63.351z" mask="url(#prefix__d)"/>
                <path fill="#007CF7" d="M645.763 65.926L641.459 70.227 641.459 72.768 645.645 75.185 645.759 75.251z" mask="url(#prefix__d)"/>
                <path fill="#6FB6FB" d="M658.856 72.769L652.589 76.387 648.337 72.142 658.857 72.142z" mask="url(#prefix__d)"/>
                <path fill="#007CF7" d="M650.12 65.01c-1.49 0-2.696 1.207-2.696 2.695 0 1.49 1.207 2.697 2.696 2.697s2.696-1.207 2.696-2.697c0-1.488-1.207-2.695-2.696-2.695" mask="url(#prefix__d)"/>
                <path fill="#FFF" d="M651.48 65.573c-.428 0-.774.347-.774.773 0 .427.346.773.774.773.427 0 .773-.346.773-.773 0-.426-.346-.773-.774-.773" mask="url(#prefix__d)"/>
                <path fill="#BFDCFF" d="M651.979 72.142L654.553 69.566 658.857 65.076 658.857 72.142z" mask="url(#prefix__d)"/>
                <path fill="#E6E8EB" d="M420.913 274.279L420.913 305.62 458.746 305.62 458.746 273.989z" mask="url(#prefix__d)"/>
                <path fill="#000" d="M421.195 305.337h37.269v-31.064l-37.27.286v30.778zm37.833.564H420.63v-31.903l38.397-.294v32.197z" mask="url(#prefix__d)"/>
                <path fill="#FFF" d="M459.846 274.51H419.67c-1.534 0-2.79-1.257-2.79-2.79v-6.155c0-1.535 1.256-2.789 2.79-2.789h40.176c1.534 0 2.79 1.254 2.79 2.79v6.154c0 1.533-1.256 2.79-2.79 2.79" mask="url(#prefix__d)"/>
                <path fill="#000" d="M459.846 262.776H419.67c-1.534 0-2.79 1.255-2.79 2.789v6.154c0 1.536 1.256 2.79 2.79 2.79h40.176c1.534 0 2.79-1.254 2.79-2.79v-6.154c0-1.534-1.256-2.79-2.79-2.79m0 .565c1.227 0 2.225.998 2.225 2.225v6.154c0 1.228-.998 2.226-2.225 2.226H419.67c-1.227 0-2.225-.998-2.225-2.226v-6.154c0-1.227.998-2.225 2.225-2.225h40.176" mask="url(#prefix__d)"/>
                <path fill="#FFF" d="M459.846 288.764H419.67c-1.534 0-2.79-1.256-2.79-2.789v-6.155c0-1.535 1.256-2.789 2.79-2.789h40.176c1.534 0 2.79 1.254 2.79 2.79v6.154c0 1.533-1.256 2.79-2.79 2.79" mask="url(#prefix__d)"/>
                <path fill="#000" d="M459.846 277.03H419.67c-1.534 0-2.79 1.256-2.79 2.79v6.155c0 1.534 1.256 2.789 2.79 2.789h40.176c1.534 0 2.79-1.255 2.79-2.79v-6.154c0-1.534-1.256-2.79-2.79-2.79m0 .564c1.227 0 2.225.998 2.225 2.226v6.155c0 1.227-.998 2.225-2.225 2.225H419.67c-1.227 0-2.225-.998-2.225-2.225v-6.155c0-1.228.998-2.226 2.225-2.226h40.176" mask="url(#prefix__d)"/>
                <path fill="#FFF" d="M459.846 302.939H419.67c-1.534 0-2.79-1.255-2.79-2.789v-6.155c0-1.535 1.256-2.789 2.79-2.789h40.176c1.534 0 2.79 1.254 2.79 2.789v6.155c0 1.534-1.256 2.789-2.79 2.789" mask="url(#prefix__d)"/>
                <path fill="#000" d="M459.846 291.206H419.67c-1.534 0-2.79 1.255-2.79 2.789v6.154c0 1.536 1.256 2.79 2.79 2.79h40.176c1.534 0 2.79-1.254 2.79-2.79v-6.154c0-1.534-1.256-2.79-2.79-2.79m0 .565c1.227 0 2.225.998 2.225 2.225v6.154c0 1.228-.998 2.226-2.225 2.226H419.67c-1.227 0-2.225-.998-2.225-2.226v-6.154c0-1.227.998-2.225 2.225-2.225h40.176" mask="url(#prefix__d)"/>
                <path fill="#0A51B7" d="M447.25 268.642c0 1.043-.845 1.888-1.887 1.888-1.043 0-1.888-.845-1.888-1.888 0-1.042.845-1.888 1.888-1.888 1.042 0 1.887.846 1.887 1.888" mask="url(#prefix__d)"/>
                <path fill="#000" d="M445.363 266.754c-1.042 0-1.888.846-1.888 1.888 0 1.042.846 1.887 1.888 1.887 1.042 0 1.887-.845 1.887-1.887s-.845-1.888-1.887-1.888m0 .564c.729 0 1.322.594 1.322 1.324 0 .73-.593 1.323-1.322 1.323-.73 0-1.323-.594-1.323-1.323 0-.73.594-1.324 1.323-1.324" mask="url(#prefix__d)"/>
                <path fill="#0A51B7" d="M453.072 268.642c0 1.043-.845 1.888-1.888 1.888-1.042 0-1.887-.845-1.887-1.888 0-1.042.845-1.888 1.887-1.888 1.043 0 1.888.846 1.888 1.888" mask="url(#prefix__d)"/>
                <path fill="#000" d="M451.184 266.754c-1.042 0-1.888.846-1.888 1.888 0 1.042.846 1.887 1.888 1.887 1.042 0 1.888-.845 1.888-1.887s-.846-1.888-1.888-1.888m0 .564c.73 0 1.323.594 1.323 1.324 0 .73-.594 1.323-1.323 1.323s-1.323-.594-1.323-1.323c0-.73.594-1.324 1.323-1.324" mask="url(#prefix__d)"/>
                <path fill="#0A51B7" d="M458.893 268.642c0 1.043-.845 1.888-1.888 1.888-1.042 0-1.887-.845-1.887-1.888 0-1.042.845-1.888 1.887-1.888 1.043 0 1.888.846 1.888 1.888" mask="url(#prefix__d)"/>
                <path fill="#000" d="M457.005 266.754c-1.042 0-1.887.846-1.887 1.888 0 1.042.845 1.887 1.887 1.887s1.888-.845 1.888-1.887-.846-1.888-1.888-1.888m0 .564c.73 0 1.323.594 1.323 1.324 0 .73-.594 1.323-1.323 1.323s-1.322-.594-1.322-1.323c0-.73.593-1.324 1.322-1.324" mask="url(#prefix__d)"/>
                <path fill="#0A51B7" d="M447.25 282.897c0 1.043-.845 1.888-1.887 1.888-1.043 0-1.888-.845-1.888-1.888 0-1.042.845-1.888 1.888-1.888 1.042 0 1.887.846 1.887 1.888" mask="url(#prefix__d)"/>
                <path fill="#000" d="M445.363 281.01c-1.042 0-1.888.845-1.888 1.887 0 1.043.846 1.887 1.888 1.887 1.042 0 1.887-.844 1.887-1.887 0-1.042-.845-1.887-1.887-1.887m0 .564c.729 0 1.322.593 1.322 1.323s-.593 1.323-1.322 1.323c-.73 0-1.323-.594-1.323-1.323 0-.73.594-1.323 1.323-1.323" mask="url(#prefix__d)"/>
                <path fill="#0A51B7" d="M453.072 282.897c0 1.043-.845 1.888-1.888 1.888-1.042 0-1.887-.845-1.887-1.888 0-1.042.845-1.888 1.887-1.888 1.043 0 1.888.846 1.888 1.888" mask="url(#prefix__d)"/>
                <path fill="#000" d="M451.184 281.01c-1.042 0-1.888.845-1.888 1.887 0 1.043.846 1.887 1.888 1.887 1.042 0 1.888-.844 1.888-1.887 0-1.042-.846-1.887-1.888-1.887m0 .564c.73 0 1.323.593 1.323 1.323s-.594 1.323-1.323 1.323-1.323-.594-1.323-1.323c0-.73.594-1.323 1.323-1.323" mask="url(#prefix__d)"/>
                <path fill="#0A51B7" d="M458.893 282.897c0 1.043-.845 1.888-1.888 1.888-1.042 0-1.887-.845-1.887-1.888 0-1.042.845-1.888 1.887-1.888 1.043 0 1.888.846 1.888 1.888" mask="url(#prefix__d)"/>
                <path fill="#000" d="M457.005 281.01c-1.042 0-1.887.845-1.887 1.887 0 1.043.845 1.887 1.887 1.887s1.888-.844 1.888-1.887c0-1.042-.846-1.887-1.888-1.887m0 .564c.73 0 1.323.593 1.323 1.323s-.594 1.323-1.323 1.323-1.322-.594-1.322-1.323c0-.73.593-1.323 1.322-1.323" mask="url(#prefix__d)"/>
                <path fill="#0A51B7" d="M447.25 297.072c0 1.043-.845 1.888-1.887 1.888-1.043 0-1.888-.845-1.888-1.888 0-1.042.845-1.887 1.888-1.887 1.042 0 1.887.845 1.887 1.887" mask="url(#prefix__d)"/>
                <path fill="#000" d="M445.363 295.184c-1.042 0-1.888.846-1.888 1.89 0 1.041.846 1.885 1.888 1.885 1.042 0 1.887-.844 1.887-1.886 0-1.043-.845-1.889-1.887-1.889m0 .564c.729 0 1.322.594 1.322 1.325 0 .728-.593 1.322-1.322 1.322-.73 0-1.323-.594-1.323-1.322 0-.73.594-1.325 1.323-1.325" mask="url(#prefix__d)"/>
                <path fill="#0A51B7" d="M453.072 297.072c0 1.043-.845 1.888-1.888 1.888-1.042 0-1.887-.845-1.887-1.888 0-1.042.845-1.887 1.887-1.887 1.043 0 1.888.845 1.888 1.887" mask="url(#prefix__d)"/>
                <path fill="#000" d="M451.184 295.184c-1.042 0-1.888.846-1.888 1.89 0 1.041.846 1.885 1.888 1.885 1.042 0 1.888-.844 1.888-1.886 0-1.043-.846-1.889-1.888-1.889m0 .564c.73 0 1.323.594 1.323 1.325 0 .728-.594 1.322-1.323 1.322s-1.323-.594-1.323-1.322c0-.73.594-1.325 1.323-1.325" mask="url(#prefix__d)"/>
                <path fill="#0A51B7" d="M458.893 297.072c0 1.043-.845 1.888-1.888 1.888-1.042 0-1.887-.845-1.887-1.888 0-1.042.845-1.887 1.887-1.887 1.043 0 1.888.845 1.888 1.887" mask="url(#prefix__d)"/>
                <path fill="#000" d="M457.005 295.184c-1.042 0-1.887.846-1.887 1.89 0 1.041.845 1.885 1.887 1.885s1.888-.844 1.888-1.886c0-1.043-.846-1.889-1.888-1.889m0 .564c.73 0 1.323.594 1.323 1.325 0 .728-.594 1.322-1.323 1.322s-1.322-.594-1.322-1.322c0-.73.593-1.325 1.322-1.325" mask="url(#prefix__d)"/>
                <path fill="#FFF" d="M421.716 265.544L421.716 271.739" mask="url(#prefix__d)"/>
                <path fill="#000" d="M421.435 271.74L421.999 271.74 421.999 265.545 421.435 265.545z" mask="url(#prefix__d)"/>
                <path fill="#FFF" d="M424.918 265.544L424.918 271.739" mask="url(#prefix__d)"/>
                <path fill="#000" d="M424.636 271.74L425.2 271.74 425.2 265.545 424.636 265.545z" mask="url(#prefix__d)"/>
                <path fill="#FFF" d="M428.119 265.544L428.119 271.739" mask="url(#prefix__d)"/>
                <path fill="#000" d="M427.837 271.74L428.401 271.74 428.401 265.545 427.837 265.545z" mask="url(#prefix__d)"/>
                <path fill="#FFF" d="M431.32 265.544L431.32 271.739" mask="url(#prefix__d)"/>
                <path fill="#000" d="M431.038 271.74L431.602 271.74 431.602 265.545 431.038 265.545z" mask="url(#prefix__d)"/>
                <path fill="#FFF" d="M434.521 265.544L434.521 271.739" mask="url(#prefix__d)"/>
                <path fill="#000" d="M434.239 271.74L434.803 271.74 434.803 265.545 434.239 265.545z" mask="url(#prefix__d)"/>
                <path fill="#FFF" d="M437.722 265.544L437.722 271.739" mask="url(#prefix__d)"/>
                <path fill="#000" d="M437.44 271.74L438.004 271.74 438.004 265.545 437.44 265.545z" mask="url(#prefix__d)"/>
                <path fill="#FFF" d="M423.317 265.544L423.317 271.739" mask="url(#prefix__d)"/>
                <path fill="#000" d="M423.035 271.74L423.599 271.74 423.599 265.545 423.035 265.545z" mask="url(#prefix__d)"/>
                <path fill="#FFF" d="M426.518 265.544L426.518 271.739" mask="url(#prefix__d)"/>
                <path fill="#000" d="M426.236 271.74L426.8 271.74 426.8 265.545 426.236 265.545z" mask="url(#prefix__d)"/>
                <path fill="#FFF" d="M429.719 265.544L429.719 271.739" mask="url(#prefix__d)"/>
                <path fill="#000" d="M429.437 271.74L430.001 271.74 430.001 265.545 429.437 265.545z" mask="url(#prefix__d)"/>
                <path fill="#FFF" d="M432.92 265.544L432.92 271.739" mask="url(#prefix__d)"/>
                <path fill="#000" d="M432.639 271.74L433.203 271.74 433.203 265.545 432.639 265.545z" mask="url(#prefix__d)"/>
                <path fill="#FFF" d="M436.122 265.544L436.122 271.739" mask="url(#prefix__d)"/>
                <path fill="#000" d="M435.84 271.74L436.404 271.74 436.404 265.545 435.84 265.545z" mask="url(#prefix__d)"/>
                <path fill="#FFF" d="M421.716 279.799L421.716 285.994" mask="url(#prefix__d)"/>
                <path fill="#000" d="M421.435 285.995L421.999 285.995 421.999 279.8 421.435 279.8z" mask="url(#prefix__d)"/>
                <path fill="#FFF" d="M424.918 279.799L424.918 285.994" mask="url(#prefix__d)"/>
                <path fill="#000" d="M424.636 285.995L425.2 285.995 425.2 279.8 424.636 279.8z" mask="url(#prefix__d)"/>
                <path fill="#FFF" d="M428.119 279.799L428.119 285.994" mask="url(#prefix__d)"/>
                <path fill="#000" d="M427.837 285.995L428.401 285.995 428.401 279.8 427.837 279.8z" mask="url(#prefix__d)"/>
                <path fill="#FFF" d="M431.32 279.799L431.32 285.994" mask="url(#prefix__d)"/>
                <path fill="#000" d="M431.038 285.995L431.602 285.995 431.602 279.8 431.038 279.8z" mask="url(#prefix__d)"/>
                <path fill="#FFF" d="M434.521 279.799L434.521 285.994" mask="url(#prefix__d)"/>
                <path fill="#000" d="M434.239 285.995L434.803 285.995 434.803 279.8 434.239 279.8z" mask="url(#prefix__d)"/>
                <path fill="#FFF" d="M437.722 279.799L437.722 285.994" mask="url(#prefix__d)"/>
                <path fill="#000" d="M437.44 285.995L438.004 285.995 438.004 279.8 437.44 279.8z" mask="url(#prefix__d)"/>
                <path fill="#FFF" d="M423.317 279.799L423.317 285.994" mask="url(#prefix__d)"/>
                <path fill="#000" d="M423.035 285.995L423.599 285.995 423.599 279.8 423.035 279.8z" mask="url(#prefix__d)"/>
                <path fill="#FFF" d="M426.518 279.799L426.518 285.994" mask="url(#prefix__d)"/>
                <path fill="#000" d="M426.236 285.995L426.8 285.995 426.8 279.8 426.236 279.8z" mask="url(#prefix__d)"/>
                <path fill="#FFF" d="M429.719 279.799L429.719 285.994" mask="url(#prefix__d)"/>
                <path fill="#000" d="M429.437 285.995L430.001 285.995 430.001 279.8 429.437 279.8z" mask="url(#prefix__d)"/>
                <path fill="#FFF" d="M432.92 279.799L432.92 285.994" mask="url(#prefix__d)"/>
                <path fill="#000" d="M432.639 285.995L433.203 285.995 433.203 279.8 432.639 279.8z" mask="url(#prefix__d)"/>
                <path fill="#FFF" d="M436.122 279.799L436.122 285.994" mask="url(#prefix__d)"/>
                <path fill="#000" d="M435.84 285.995L436.404 285.995 436.404 279.8 435.84 279.8z" mask="url(#prefix__d)"/>
                <path fill="#FFF" d="M421.716 294.054L421.716 300.249" mask="url(#prefix__d)"/>
                <path fill="#000" d="M421.435 300.25L421.999 300.25 421.999 294.055 421.435 294.055z" mask="url(#prefix__d)"/>
                <path fill="#FFF" d="M424.918 294.054L424.918 300.249" mask="url(#prefix__d)"/>
                <path fill="#000" d="M424.636 300.25L425.2 300.25 425.2 294.055 424.636 294.055z" mask="url(#prefix__d)"/>
                <path fill="#FFF" d="M428.119 294.054L428.119 300.249" mask="url(#prefix__d)"/>
                <path fill="#000" d="M427.837 300.25L428.401 300.25 428.401 294.055 427.837 294.055z" mask="url(#prefix__d)"/>
                <path fill="#FFF" d="M431.32 294.054L431.32 300.249" mask="url(#prefix__d)"/>
                <path fill="#000" d="M431.038 300.25L431.602 300.25 431.602 294.055 431.038 294.055z" mask="url(#prefix__d)"/>
                <path fill="#FFF" d="M434.521 294.054L434.521 300.249" mask="url(#prefix__d)"/>
                <path fill="#000" d="M434.239 300.25L434.803 300.25 434.803 294.055 434.239 294.055z" mask="url(#prefix__d)"/>
                <path fill="#FFF" d="M437.722 294.054L437.722 300.249" mask="url(#prefix__d)"/>
                <path fill="#000" d="M437.44 300.25L438.004 300.25 438.004 294.055 437.44 294.055z" mask="url(#prefix__d)"/>
                <path fill="#FFF" d="M423.317 294.054L423.317 300.249" mask="url(#prefix__d)"/>
                <path fill="#000" d="M423.035 300.25L423.599 300.25 423.599 294.055 423.035 294.055z" mask="url(#prefix__d)"/>
                <path fill="#FFF" d="M426.518 294.054L426.518 300.249" mask="url(#prefix__d)"/>
                <path fill="#000" d="M426.236 300.25L426.8 300.25 426.8 294.055 426.236 294.055z" mask="url(#prefix__d)"/>
                <path fill="#FFF" d="M429.719 294.054L429.719 300.249" mask="url(#prefix__d)"/>
                <path fill="#000" d="M429.437 300.25L430.001 300.25 430.001 294.055 429.437 294.055z" mask="url(#prefix__d)"/>
                <path fill="#FFF" d="M432.92 294.054L432.92 300.249" mask="url(#prefix__d)"/>
                <path fill="#000" d="M432.639 300.25L433.203 300.25 433.203 294.055 432.639 294.055z" mask="url(#prefix__d)"/>
                <path fill="#FFF" d="M436.122 294.054L436.122 300.249" mask="url(#prefix__d)"/>
                <path fill="#000" d="M435.84 300.25L436.404 300.25 436.404 294.055 435.84 294.055z" mask="url(#prefix__d)"/>
                <path fill="#E6E8EB" d="M454.554 294.189s.187-1.193 1.877-2.007c1.69-.813 5.93-1.964 11.11-1.249 5.178.715 6.54 2 6.54 2l.622 1.377v15.146s-.686 1.814-4.159 2.565c-3.473.751-10.389 1.002-13.706-.531 0 0-2.097-.876-2.284-2.191v-15.11z" mask="url(#prefix__d)"/>
                <path fill="#000" d="M454.836 309.285c.143.334 1.614 3.209 9.786 3.209 8.225 0 9.656-2.864 9.797-3.208l.001-15.19c-.106-.294-1.354-3.105-10.095-3.105-9.134 0-9.487 3.12-9.489 3.153v15.14zm9.786 3.773c-9.117 0-10.292-3.49-10.338-3.638l-.012-.083v-15.211c.007-.165.297-3.7 10.053-3.7 9.712 0 10.62 3.42 10.653 3.565l.007.064-.014 15.366c-.046.148-1.233 3.637-10.349 3.637z" mask="url(#prefix__d)"/>
                <path fill="#000" d="M464.413 302.998c-8.862 0-10.078-3.263-10.125-3.403l.533-.185c.01.03 1.255 3.08 9.936 3.022 8.678-.083 9.667-2.978 9.676-3.007l.543.154c-.038.136-1.027 3.329-10.214 3.417l-.35.002M464.409 307.955c-8.857 0-10.074-3.262-10.122-3.402l.534-.185c.01.03 1.236 3.089 9.935 3.02 8.679-.082 9.668-2.976 9.676-3.005l.543.154c-.037.136-1.026 3.328-10.213 3.416l-.353.002M464.409 298.04c-8.857 0-10.074-3.263-10.122-3.403l.535-.182-.267.09.266-.093c.01.03 1.263 3.119 9.935 3.022 8.679-.083 9.668-2.978 9.676-3.007l.543.154c-.037.136-1.026 3.329-10.213 3.417l-.353.002" mask="url(#prefix__d)"/>
                <path fill="#C5C8CF" d="M440.616 221.456L441.366 221.456 441.366 181.628 440.616 181.628z" mask="url(#prefix__d)"/>
                <path fill="#C5C8CF" d="M440.991 187.603L436.229 187.603 438.61 183.479 440.991 179.355 443.372 183.479 445.753 187.603zM494.324 61.019L604.931 61.019 604.931 60.269 494.324 60.269z" mask="url(#prefix__d)"/>
                <path fill="#C5C8CF" d="M598.956 60.644L598.956 55.882 603.08 58.263 607.204 60.644 603.08 63.025 598.956 65.406zM492.473 74.084L603.08 74.084 603.08 73.334 492.473 73.334z" mask="url(#prefix__d)"/>
                <path fill="#C5C8CF" d="M498.448 73.71L498.448 78.472 494.324 76.091 490.2 73.71 494.324 71.329 498.448 68.947z" mask="url(#prefix__d)"/>
                <path fill="#000" d="M502.762 98.486h1.235v-10.83h-1.235v10.83zm-1.955-9.691c0 3.227-1.295 5.961-5.013 7.76l-.66-.983c2.843-1.367 4.185-3.275 4.401-5.769h-3.861v-1.008h5.133zM514.161 98.486h1.176v-10.83h-1.176v10.83zm-2.182-10.614h1.163v10.087h-1.163v-5.098h-1.463v-1.007h1.463v-3.982zm-2.626 3.094c0 1.691.731 3.418 2.218 4.222l-.683.924c-1.02-.553-1.716-1.548-2.112-2.723-.383 1.272-1.067 2.362-2.098 2.962l-.708-.935c1.487-.876 2.207-2.722 2.207-4.45v-.383h-1.871v-1.02h1.871v-1.535h1.176v1.535h1.858v1.02h-1.858v.383zM517.166 99.182c.815-.336 1.295-.936 1.308-1.644-.049.012-.084.012-.133.012-.491 0-.923-.31-.923-.888 0-.539.432-.886.959-.886.672 0 1.067.563 1.067 1.486 0 1.26-.731 2.232-1.966 2.7l-.312-.78zM531.118 98.486h1.235v-10.83h-1.235v10.83zm-1.956-9.691c0 3.227-1.295 5.961-5.013 7.76l-.66-.983c2.843-1.367 4.186-3.275 4.402-5.769h-3.862v-1.008h5.133zM544.424 91.086v1.02h-1.44v3.681h-1.247v-8.132h1.248v3.431h1.439zm-7.208 6.188h6.116v1.007h-7.363v-3.214h1.247v2.207zm1.75-5.109c.217-1.163.253-2.015.265-2.686h-4.234v-1.008h5.446v.624c0 .731 0 1.8-.264 3.202l-1.212-.132zm2.196 1.571c-2.255.396-4.81.455-6.692.455l-.132-1.006c.648 0 1.39 0 2.158-.025v-2.219h1.224v2.184c1.127-.049 2.29-.12 3.358-.289l.084.9zM558.849 90.33v1.02h-1.535v2.807h-1.236v-6.513h1.236v2.687h1.535zm-2.64 6.118c0-.672-.875-1.056-2.385-1.056-1.512 0-2.387.384-2.387 1.056 0 .695.875 1.067 2.387 1.067 1.51 0 2.386-.372 2.386-1.067zm1.224 0c0 1.283-1.367 2.038-3.61 2.038-2.231 0-3.61-.755-3.61-2.038 0-1.271 1.379-2.027 3.61-2.027 2.243 0 3.61.756 3.61 2.027zm-2.926-2.867c-1.163-.42-2.027-1.247-2.482-2.267-.481 1.175-1.367 2.11-2.615 2.567l-.66-.984c1.703-.587 2.626-2.062 2.626-3.622v-1.067h1.248v1.164c0 1.39.923 2.71 2.53 3.238l-.647.97zM569.144 87.656v10.818h-1.174v-5.53h-1.212v5.026h-1.152V87.86h1.152v4.078h1.212v-4.282h1.174zm-7.676 7.22c1.393-.012 2.327-.06 3.432-.252l.106 1.008c-1.246.228-2.301.263-3.993.263h-.731v-7.052h4.317v.996h-3.13v1.859h2.938v.972h-2.939v2.206zM582.357 98.474h1.187v-10.83h-1.187v10.83zm-2.207-10.591h1.163V97.97h-1.163v-5.253h-2.134v-1.008h2.134v-3.826zm-4.27 7.065c1.344-.012 2.267-.073 3.335-.3l.107 1.019c-1.223.24-2.278.3-3.933.3h-.732v-7.04h4.102v1.007h-2.879v5.014zM593.001 98.51h1.247V87.644h-1.247V98.51zm-6.116-6.249c0 1.703.659 2.723 1.594 2.723.948 0 1.608-1.02 1.608-2.723 0-1.678-.66-2.698-1.608-2.698-.935 0-1.594 1.02-1.594 2.698zm4.389 0c0 2.351-1.175 3.826-2.795 3.826-1.607 0-2.782-1.475-2.782-3.826 0-2.327 1.175-3.813 2.782-3.813 1.62 0 2.795 1.486 2.795 3.813zM605.372 87.631v10.867h-1.247v-5.865h-2.075v-1.02h2.075v-3.982h1.247zm-7.279 7.328c1.726-.012 2.962-.07 4.377-.31l.108.994c-1.548.276-2.902.324-4.869.324h-.852v-7.376h5.025v1.02h-3.789v2.026h3.345v.984h-3.345v2.338zM507.51 106.87v1.02h-1.534v3.707h-1.236v-7.941h1.236v3.214h1.535zm-7.147 6.405h6.044v1.007h-7.292v-3.502h1.248v2.495zm.168-4.546c.947 0 1.678-.647 1.678-1.642 0-.985-.731-1.631-1.678-1.631-.948 0-1.667.646-1.667 1.63 0 .996.719 1.643 1.667 1.643zm0 1.068c-1.631 0-2.88-1.127-2.88-2.71 0-1.584 1.249-2.7 2.88-2.7 1.642 0 2.89 1.116 2.89 2.7 0 1.583-1.248 2.71-2.89 2.71zM516.296 106.558v-2.89h1.235v7.915h-1.235v-4.005h-1.967v-1.02h1.967zm1.51 6.717v1.007h-7.291V110.9h1.235v2.375h6.057zm-3.417-3.227c-1.2-.407-2.075-1.259-2.53-2.327-.481 1.176-1.392 2.123-2.675 2.566l-.636-.97c1.679-.588 2.662-2.016 2.662-3.479v-.37h-2.29v-.997h5.793v.996h-2.255v.371c0 1.332.923 2.688 2.542 3.25l-.611.96zM523.38 109.053c2.11-.336 3.826-1.836 3.826-3.467v-.023h-3.442v-.996h8.179v.996H528.5v.023c0 1.631 1.728 3.095 3.874 3.431l-.504.983c-1.787-.336-3.31-1.343-4.017-2.722-.696 1.391-2.207 2.422-3.958 2.758l-.516-.983zm9.39 3.094v1.008h-9.81v-1.008h4.282v-2.53h1.247v2.53h4.282zM544.074 108.97h-1.69v5.516h-1.237v-10.83h1.236v4.293h1.691v1.02zm-6.285-2.64c0 1.931 1.008 3.886 2.64 4.69l-.757.983c-1.163-.599-2.027-1.774-2.494-3.19-.468 1.5-1.379 2.76-2.615 3.394l-.756-.996c1.692-.827 2.746-2.878 2.746-4.88v-1.776h1.236v1.775zM557.67 113.395v.995h-7.327v-2.915h5.793v-.898h-5.818v-.985h7.053v2.807h-5.793v.996h6.093zm-4.041-7.305c-.672 1.656-2.267 2.759-4.653 3.299l-.432-1.008c2.566-.551 3.898-1.739 4.065-3.25h-3.477v-.996h4.845c0 .348-.024.684-.084.996h2.243v-1.475h1.235v5.493h-1.235v-.983h-2.651v-.96h2.65v-1.116h-2.506zM569.43 109.149h-1.595v5.337h-1.247v-10.83h1.247v4.45h1.596v1.043zm-5.528.492c.275-1.68.3-2.94.3-3.85h-4.294v-.996h5.504v.72c0 .947 0 2.315-.3 4.234l-1.21-.108zm-1.211 1.487c1.127-.047 2.266-.108 3.32-.252l.062.912c-2.231.37-4.714.42-6.61.42l-.131-1.02c.66 0 1.39-.012 2.147-.024v-3.262h1.212v3.226zM581.899 114.474h1.187v-10.83h-1.187v10.83zm-2.207-10.591h1.163v10.087h-1.163v-5.253h-2.134v-1.008h2.134v-3.826zm-4.27 7.065c1.344-.012 2.267-.073 3.335-.3l.107 1.019c-1.222.24-2.278.3-3.933.3h-.732v-7.04h4.102v1.007h-2.879v5.014zM592.543 114.51h1.247v-10.866h-1.247v10.866zm-6.116-6.249c0 1.703.659 2.723 1.594 2.723.948 0 1.608-1.02 1.608-2.723 0-1.678-.66-2.698-1.608-2.698-.935 0-1.594 1.02-1.594 2.698zm4.389 0c0 2.351-1.175 3.826-2.795 3.826-1.607 0-2.782-1.475-2.782-3.826 0-2.327 1.175-3.813 2.782-3.813 1.62 0 2.795 1.486 2.795 3.813zM604.914 103.631v10.867h-1.247v-5.865h-2.075v-1.02h2.075v-3.982h1.247zm-7.279 7.328c1.726-.012 2.962-.07 4.377-.31l.108.994c-1.548.276-2.902.324-4.869.324h-.852v-7.376h5.025v1.02h-3.789v2.026h3.345v.984h-3.345v2.338zM518.23 25.89v1.02h-1.534v3.705h-1.236v-7.94h1.236v3.214h1.534zm-7.148 6.403h6.044v1.008h-7.291V29.8h1.248v2.494zm.168-4.546c.947 0 1.678-.647 1.678-1.642 0-.984-.73-1.63-1.678-1.63-.947 0-1.666.646-1.666 1.63 0 .995.719 1.642 1.666 1.642zm0 1.068c-1.63 0-2.878-1.127-2.878-2.71s1.248-2.698 2.878-2.698c1.643 0 2.89 1.115 2.89 2.698s-1.247 2.71-2.89 2.71zM527.016 25.578v-2.891h1.235v7.915h-1.235v-4.005h-1.967v-1.02h1.967zm1.51 6.716v1.008h-7.291v-3.383h1.235v2.375h6.057zm-3.417-3.227c-1.2-.407-2.075-1.26-2.53-2.326-.481 1.175-1.392 2.123-2.675 2.566l-.636-.971c1.679-.588 2.663-2.015 2.663-3.478v-.372h-2.291v-.995h5.793v.995h-2.255v.372c0 1.33.923 2.687 2.542 3.25l-.611.959zM534.099 28.072c2.11-.336 3.826-1.835 3.826-3.466v-.024h-3.442v-.995h8.179v.995h-3.442v.024c0 1.63 1.728 3.094 3.874 3.43l-.504.983c-1.787-.336-3.31-1.343-4.017-2.722-.696 1.39-2.207 2.422-3.958 2.758l-.516-.983zm9.39 3.095v1.007h-9.81v-1.007h4.282v-2.532h1.247v2.532h4.282zM554.794 27.988h-1.691v5.517h-1.236v-10.83h1.236v4.293h1.69v1.02zm-6.285-2.64c0 1.932 1.008 3.887 2.639 4.69l-.756.984c-1.163-.6-2.027-1.774-2.494-3.19-.468 1.5-1.38 2.759-2.615 3.394l-.756-.995c1.69-.828 2.746-2.88 2.746-4.882v-1.774h1.236v1.774zM567.179 33.493h1.187v-10.83h-1.187v10.83zm-2.206-10.59h1.163v10.086h-1.163v-5.253h-2.135v-1.007h2.135v-3.826zm-4.271 7.063c1.344-.011 2.268-.071 3.335-.299l.108 1.019c-1.224.24-2.279.3-3.934.3h-.732v-7.04h4.102v1.008h-2.879v5.012zM577.823 33.529h1.247V22.663h-1.247v10.866zm-6.116-6.249c0 1.703.659 2.722 1.595 2.722.947 0 1.607-1.019 1.607-2.722 0-1.679-.66-2.698-1.607-2.698-.936 0-1.595 1.019-1.595 2.698zm4.39 0c0 2.351-1.176 3.826-2.795 3.826-1.608 0-2.782-1.475-2.782-3.826 0-2.326 1.174-3.814 2.782-3.814 1.619 0 2.795 1.488 2.795 3.814zM590.194 22.65v10.867h-1.247v-5.865h-2.075v-1.02h2.075V22.65h1.247zm-7.279 7.329c1.726-.013 2.962-.072 4.377-.312l.108.996c-1.548.275-2.902.323-4.869.323h-.852V23.61h5.025v1.02h-3.789v2.027h3.345v.983h-3.345v2.339zM503.033 38.663v6.309h-1.235v-2.663h-1.919v-1.007h1.92v-2.64h1.234zm-5.9 9.727h4.688v-1.942h-4.689v1.942zm-1.212.983h7.112v-3.91h-7.112v3.91zm3.97-4.677c-1.2-.42-2.076-1.26-2.53-2.315-.48 1.164-1.392 2.11-2.676 2.554l-.635-.971c1.678-.587 2.662-2.015 2.662-3.49v-.18h-2.29v-.995h5.793v.995h-2.255v.18c0 1.343.923 2.699 2.53 3.262l-.6.96zM514.073 38.663v6.14h-1.235v-2.422h-2.148v-1.02h2.148v-2.698h1.235zm-5.84 9.715h4.628v-2.146h-4.629v2.146zm-1.213.995h7.053v-4.125h-7.053v4.125zm3.647-10.05c0 2.806-1.86 4.749-4.99 5.637l-.503-.984c2.482-.671 3.946-1.98 4.162-3.646h-3.586v-1.007h4.917zM529.492 41.578v1.019h-1.535v2.999h-1.236v-6.921h1.236v2.903h1.535zm-2.639 6.02c0-.624-.864-.948-2.35-.948-1.488 0-2.352.324-2.352.949 0 .635.864.958 2.352.958 1.486 0 2.35-.323 2.35-.958zm-4.15-3.406c.864 0 1.451-.395 1.451-1.008 0-.635-.587-1.02-1.45-1.02-.864 0-1.44.385-1.44 1.02 0 .613.576 1.008 1.44 1.008zm5.373 3.407c0 1.199-1.367 1.906-3.573 1.906-2.207 0-3.574-.707-3.574-1.906 0-1.188 1.367-1.896 3.574-1.896 2.206 0 3.573.708 3.573 1.896zm-5.373-2.496c-1.559 0-2.626-.755-2.626-1.92 0-1.173 1.067-1.93 2.626-1.93 1.571 0 2.627.757 2.627 1.93 0 1.165-1.056 1.92-2.627 1.92zm3.203-4.305h-6.393v-.984h2.58V38.59h1.234v1.223h2.58v.984zM532.988 41.877h4.881V40.09h-4.881v1.787zm-1.355 4.15h7.496v3.477h-1.235v-2.482h-6.261v-.995zm8.707-1.955v.995h-9.811v-.995h4.27v-1.211h-3.023v-3.754h7.305v3.754h-3.035v1.211h4.294zM541.606 50.2c.814-.335 1.294-.935 1.308-1.643-.05.012-.084.012-.134.012-.49 0-.923-.311-.923-.887 0-.54.433-.887.96-.887.672 0 1.067.563 1.067 1.487 0 1.259-.731 2.23-1.966 2.698l-.313-.78zM555.594 41.397v-2.723h1.235v6.453h-1.235v-2.722h-1.92v-1.008h1.92zm.048 6.069c0-.708-.888-1.091-2.411-1.091-1.547 0-2.422.383-2.422 1.091 0 .707.875 1.091 2.422 1.091 1.523 0 2.41-.384 2.41-1.091zm1.235 0c0 1.295-1.391 2.051-3.646 2.051-2.267 0-3.658-.756-3.658-2.051 0-1.283 1.39-2.05 3.658-2.05 2.255 0 3.646.767 3.646 2.05zm-3.19-2.686c-1.2-.42-2.063-1.272-2.52-2.316-.478 1.188-1.39 2.148-2.674 2.603l-.635-.983c1.679-.6 2.65-2.04 2.65-3.526v-.156h-2.29v-.995h5.793v.995h-2.255v.143c0 1.356.923 2.7 2.542 3.263l-.611.972zM566.562 49.529h1.247V38.663h-1.247v10.866zm-5.865-3.574h2.746v-2.65h-2.746v2.65zm0-6.393v2.759h2.746v-2.759h1.236v7.389h-5.205v-7.389h1.223zM581.357 49.493h1.187v-10.83h-1.187v10.83zm-2.207-10.59h1.163v10.086h-1.163v-5.253h-2.134v-1.007h2.134v-3.826zm-4.27 7.063c1.344-.011 2.267-.071 3.335-.299l.107 1.019c-1.223.24-2.278.3-3.933.3h-.732v-7.04h4.102v1.008h-2.879v5.012zM592.001 49.529h1.247V38.663h-1.247v10.866zm-6.116-6.249c0 1.703.659 2.722 1.594 2.722.948 0 1.608-1.019 1.608-2.722 0-1.679-.66-2.698-1.608-2.698-.935 0-1.594 1.019-1.594 2.698zm4.389 0c0 2.351-1.175 3.826-2.795 3.826-1.607 0-2.782-1.475-2.782-3.826 0-2.326 1.175-3.814 2.782-3.814 1.62 0 2.795 1.488 2.795 3.814zM604.372 38.65v10.867h-1.247v-5.865h-2.075v-1.02h2.075V38.65h1.247zm-7.279 7.329c1.726-.013 2.962-.072 4.377-.312l.108.996c-1.548.275-2.902.323-4.869.323h-.852V39.61h5.025v1.02h-3.789v2.027h3.345v.983h-3.345v2.339z" mask="url(#prefix__d)"/>
                <path fill="#C5C8CF" d="M122.667 66.992L156.496 66.992 156.496 66.242 122.667 66.242z" mask="url(#prefix__d)"/>
                <path fill="#C5C8CF" d="M150.52 66.617L150.52 61.855 154.644 64.236 158.768 66.617 154.644 68.998 150.52 71.379z" mask="url(#prefix__d)"/>
                <path fill="#000" d="M35.728 147.01h1.247v-10.866h-1.247v10.866zm-5.769-3.681c2.015-.013 3.31-.073 4.761-.349l.133 1.032c-1.572.287-2.975.348-5.218.348h-.9v-7.209h5.158v1.019h-3.934v5.159zM46.768 146.986h1.247v-10.83h-1.247v10.83zm-3.67-7.7c0 1.799 1.115 3.67 2.806 4.39l-.683.971c-1.26-.551-2.232-1.727-2.735-3.13-.48 1.511-1.451 2.794-2.722 3.406l-.708-.983c1.679-.779 2.795-2.795 2.795-4.654v-1.032h-2.412v-1.019h6.07v1.019h-2.411v1.032zM57.867 139.538h-1.87v-.982h1.87v-2.412h1.248v5.805h-1.248v-2.411zm1.607 6.393v.96h-7.399v-2.723h5.816v-.816h-5.829v-.96h7.053v2.664h-5.817v.875h6.176zm-3.309-4.557c-1.428.227-2.639.239-4.69.239h-.816v-4.821H55.6v.972h-3.706v.935h3.395v.936h-3.395v1.007c1.776 0 2.88-.036 4.174-.252l.097.984zM73.264 142.872h-7.508v-5.84h7.424v.995h-6.165v1.392h5.925v.97h-5.925v1.489h6.249v.994zm-8.72 2.783h9.824v-1.008h-9.823v1.008zM83.236 144.383h1.247v-8.228h-1.247v8.228zm-5.673-5.781c0 .684.624 1.104 1.572 1.104.935 0 1.57-.42 1.57-1.104 0-.671-.635-1.091-1.57-1.091-.948 0-1.572.42-1.572 1.091zm7.197 7.173v1.007h-7.725v-3.118h1.236v2.111h6.489zm-8.372-7.173c0-1.223 1.115-2.014 2.747-2.014 1.619 0 2.734.791 2.734 2.014 0 1.236-1.115 2.039-2.734 2.039-1.632 0-2.747-.803-2.747-2.039zm2.291 3.694c-1.044.037-2.039.048-2.914.048l-.157-1.008c1.992 0 4.654-.011 6.945-.323l.084.876c-.9.168-1.812.276-2.723.323v1.824h-1.235v-1.74zM30.89 157.857h-1.642v5.517h-1.235v-10.83h1.235v4.282h1.643v1.03zm-4.472-4.162c0 3.142-1.343 5.925-4.881 7.712l-.684-.947c2.65-1.356 4.078-3.262 4.33-5.757h-3.79v-1.008h5.025zM41.895 155.23v1.02H40.36v2.806h-1.236v-6.513h1.236v2.687h1.535zm-2.639 6.117c0-.672-.876-1.055-2.386-1.055-1.511 0-2.386.383-2.386 1.055 0 .695.874 1.068 2.386 1.068 1.51 0 2.387-.373 2.387-1.068zm1.224 0c0 1.283-1.367 2.039-3.61 2.039-2.231 0-3.61-.756-3.61-2.039 0-1.271 1.379-2.027 3.61-2.027 2.242 0 3.61.756 3.61 2.027zm-2.926-2.866c-1.163-.42-2.028-1.248-2.483-2.268-.48 1.176-1.366 2.112-2.614 2.568l-.66-.984c1.702-.588 2.625-2.063 2.625-3.622v-1.067h1.248v1.163c0 1.392.923 2.71 2.532 3.238l-.648.972zM53.717 161.359c0-.672-.96-1.067-2.555-1.067-1.606 0-2.59.395-2.59 1.067 0 .684.984 1.079 2.59 1.079 1.596 0 2.555-.395 2.555-1.08zm-.348-4.63c.276-1.066.288-1.847.288-2.662h-6.212v-.995h7.435v.91c0 .864 0 1.764-.3 2.88l-1.211-.132zm1.583 4.63c0 1.26-1.487 2.027-3.79 2.027-2.34 0-3.813-.767-3.813-2.027 0-1.247 1.474-2.015 3.813-2.015 2.303 0 3.79.768 3.79 2.015zm1.128-3.85v.996h-9.762v-.996h3.837v-1.991h1.248v1.99h4.677zM67.336 155.722v1.02h-1.548v3.658h-1.235v-7.844h1.235v3.166h1.548zm-7.16 6.452h6.044v1.008h-7.292v-3.574h1.248v2.566zm2.71-8.79c0 2.865-1.906 4.904-5.061 5.864l-.516-.983c2.483-.756 4.018-2.159 4.234-3.874h-3.778v-1.008h5.12zM81.544 158.865h-4.317v4.52H75.98v-4.52h-4.235v-1.02h7.04c.313-1.511.313-2.638.313-3.634H72.92v-.995h7.388v.947c0 1.019 0 2.147-.276 3.682h1.51v1.02zM83.29 156.513c2.194-.167 3.562-.97 3.681-1.954h-3.226v-.972h3.31v-1.067h1.235v1.067h3.3v.972h-3.216c.12.983 1.476 1.787 3.683 1.954l-.384.936c-1.883-.156-3.334-.78-4.006-1.75-.672.97-2.123 1.594-4.006 1.75l-.372-.936zm5 2.436v1.09h3.083v3.334h-1.235v-2.35h-6.273v-.984h3.19v-1.09h-4.282v-.997h9.8v.997H88.29z" mask="url(#prefix__d)"/>
                <path fill="#FFF" d="M113.09 66.617c0 31.125-25.233 56.357-56.358 56.357-31.125 0-56.357-25.232-56.357-56.357S25.607 10.26 56.732 10.26s56.357 25.232 56.357 56.357" mask="url(#prefix__d)"/>
                <path fill="#C5C8CF" d="M56.732 10.634C25.862 10.634.75 35.747.75 66.616c0 30.87 25.113 55.983 55.982 55.983s55.982-25.113 55.982-55.983c0-30.869-25.113-55.982-55.982-55.982m0 112.715C25.45 123.35 0 97.9 0 66.616 0 35.334 25.45 9.884 56.732 9.884s56.732 25.45 56.732 56.732c0 31.283-25.45 56.733-56.732 56.733" mask="url(#prefix__d)"/>
                <path fill="#E6E8EB" d="M56.83 52.104L56.83 60.568 44.487 60.568 44.487 52.104 39.127 52.104 39.127 76.804 43.886 76.804 44.487 76.804 56.83 76.804 67.213 76.804 74.338 76.804 74.338 55.301 68.469 52.104 68.469 55.254 62.675 52.104 62.675 55.254z" mask="url(#prefix__d)"/>
                <path fill="#000" d="M39.517 76.415h34.432V55.533l-5.09-2.773v3.15l-5.794-3.15v3.147l-5.845-3.15v8.2H44.098v-8.463h-4.581v23.92zm35.21.779h-35.99v-25.48h6.14v8.465H56.44v-8.727l5.845 3.15V51.45l5.794 3.15v-3.15l6.648 3.62v22.125z" mask="url(#prefix__d)"/>
                <path fill="#FFF" d="M39.127 76.804L44.472 76.804 44.472 52.104 39.127 52.104z" mask="url(#prefix__d)"/>
                <path fill="#000" d="M39.517 76.415h4.565V52.494h-4.565v23.921zm-.78.779h6.124V51.715h-6.124v25.479z" mask="url(#prefix__d)"/>
                <path fill="#FFF" d="M39.127 55.019L44.315 55.019" mask="url(#prefix__d)"/>
                <path fill="#000" d="M39.127 55.409L44.315 55.409 44.315 54.63 39.127 54.63z" mask="url(#prefix__d)"/>
                <path fill="#FFF" d="M44.471 76.804L67.406 76.804 67.406 60.568 44.471 60.568z" mask="url(#prefix__d)"/>
                <path fill="#000" d="M44.86 76.416h22.158V60.957H44.86v15.459zm-.777.777h23.711V60.179H44.083v17.014z" mask="url(#prefix__d)"/>
                <path fill="#E6E8EB" d="M50.163 70.536h-2.346c-.374 0-.676-.303-.676-.677v-2.345c0-.374.302-.677.676-.677h2.346c.374 0 .677.303.677.677v2.345c0 .374-.303.677-.677.677" mask="url(#prefix__d)"/>
                <path fill="#000" d="M47.816 67.226c-.158 0-.287.13-.287.287v2.346c0 .158.13.287.287.287h2.346c.158 0 .287-.129.287-.287v-2.346c0-.158-.129-.287-.287-.287h-2.346zm2.346 3.7h-2.346c-.588 0-1.066-.479-1.066-1.067v-2.346c0-.588.478-1.066 1.066-1.066h2.346c.588 0 1.067.478 1.067 1.066v2.346c0 .588-.479 1.066-1.067 1.066z" mask="url(#prefix__d)"/>
                <path fill="#E6E8EB" d="M57.005 70.536H54.66c-.374 0-.676-.303-.676-.677v-2.345c0-.374.302-.677.676-.677h2.346c.374 0 .676.303.676.677v2.345c0 .374-.302.677-.676.677" mask="url(#prefix__d)"/>
                <path fill="#000" d="M54.66 67.226c-.159 0-.288.13-.288.287v2.346c0 .158.13.287.287.287h2.346c.158 0 .287-.129.287-.287v-2.346c0-.158-.129-.287-.287-.287H54.66zm2.345 3.7H54.66c-.588 0-1.066-.479-1.066-1.067v-2.346c0-.588.478-1.066 1.066-1.066h2.346c.588 0 1.066.478 1.066 1.066v2.346c0 .588-.478 1.066-1.066 1.066z" mask="url(#prefix__d)"/>
                <path fill="#E6E8EB" d="M63.848 70.536h-2.346c-.374 0-.677-.303-.677-.677v-2.345c0-.374.303-.677.677-.677h2.346c.374 0 .676.303.676.677v2.345c0 .374-.302.677-.676.677" mask="url(#prefix__d)"/>
                <path fill="#000" d="M61.502 67.226c-.158 0-.287.13-.287.287v2.346c0 .158.129.287.287.287h2.346c.158 0 .287-.129.287-.287v-2.346c0-.158-.129-.287-.287-.287h-2.346zm2.346 3.7h-2.346c-.588 0-1.066-.479-1.066-1.067v-2.346c0-.588.478-1.066 1.066-1.066h2.346c.588 0 1.066.478 1.066 1.066v2.346c0 .588-.478 1.066-1.066 1.066z" mask="url(#prefix__d)"/>
                <path fill="#FFF" d="M44.472 63.546L67.214 63.546" mask="url(#prefix__d)"/>
                <path fill="#000" d="M44.471 63.936L67.213 63.936 67.213 63.157 44.471 63.157zM80.232 45.633L79.453 45.633 79.453 42.311 76.13 42.311 76.13 41.531 80.232 41.531zM34.052 45.633L33.273 45.633 33.273 41.531 37.375 41.531 37.375 42.311 34.052 42.311zM37.376 87.369L33.273 87.369 33.273 83.266 34.053 83.266 34.053 86.59 37.376 86.59zM80.232 87.369L76.13 87.369 76.13 86.59 79.453 86.59 79.453 83.266 80.232 83.266z" mask="url(#prefix__d)"/>
                <path fill="#0A51B7" d="M39.127 55.699L44.472 55.699 44.472 52.104 39.127 52.104z" mask="url(#prefix__d)"/>
                <path fill="#000" d="M39.517 55.309h4.565v-2.815h-4.565v2.815zm-.78.779h6.124v-4.374h-6.124v4.374z" mask="url(#prefix__d)"/>
                <path fill="#0A51B7" d="M33.642 74.658L79.822 74.658 79.822 73.879 33.642 73.879z" mask="url(#prefix__d)"/>
            </g>
        </g>
    </g>
</svg>
