<svg xmlns="http://www.w3.org/2000/svg" xmlns:xlink="http://www.w3.org/1999/xlink" width="780" height="210" viewBox="0 0 780 210">
    <defs>
        <path id="prefix__a" d="M0 0H780V210H0z"/>
        <path id="prefix__c" d="M0.877 0.73L3.516 0.73 3.516 13 0.877 13z"/>
        <path id="prefix__e" d="M0 141L731.39 141 731.39 0.953 0 0.953z"/>
        <path id="prefix__g" d="M0.445 7.438L0.445 20.469 11.732 26.986 23.018 20.469 23.018 7.438 11.732 0.923z"/>
        <path id="prefix__i" d="M0.665 13.471L11.732 19.79 11.732 6.954 0.665 0.565z"/>
        <path id="prefix__k" d="M.445 7.438v13.033l11.287 6.515 11.286-6.515V7.438L11.732.923.445 7.438zm.389 12.809V7.662L11.732 1.37 22.63 7.662v12.585l-10.898 6.292L.834 20.247z"/>
    </defs>
    <g fill="none" fill-rule="evenodd">
        <mask id="prefix__b" fill="#fff">
            <use xlink:href="#prefix__a"/>
        </mask>
        <use fill="#F8F9FB" xlink:href="#prefix__a"/>
        <g mask="url(#prefix__b)">
            <g>
                <g transform="translate(25 32) translate(0 .047)">
                    <path fill="#000" d="M8.806 137.81c2.603-2.303 3.946-4.018 3.946-5.47 0-.96-.515-1.618-1.5-1.618-.695 0-1.27.444-1.738.984l-.78-.768c.756-.815 1.536-1.32 2.687-1.32 1.619 0 2.662 1.056 2.662 2.65 0 1.704-1.355 3.467-3.226 5.254.456-.047 1.008-.084 1.439-.084h2.207v1.176H8.806v-.804zM18.477 137.475c1.895 0 2.914-1.116 2.914-3.311 0-2.207-1.02-3.25-2.914-3.25h-.804v6.56h.804zm-2.195-7.688h2.29c2.712 0 4.259 1.499 4.259 4.377 0 2.867-1.547 4.45-4.186 4.45h-2.363v-8.827zM26.89 134.224c0-2.878 1.75-4.605 3.98-4.605 1.105 0 1.969.528 2.508 1.115l-.756.887c-.455-.467-1.006-.791-1.726-.791-1.524 0-2.58 1.272-2.58 3.346 0 2.099.985 3.383 2.544 3.383.803 0 1.427-.36 1.955-.936l.743.875c-.707.816-1.606 1.272-2.746 1.272-2.22 0-3.922-1.655-3.922-4.546M38.863 135.004l-.348-1.187c-.299-.96-.563-1.944-.839-2.94h-.048c-.252 1.008-.528 1.98-.816 2.94l-.359 1.187h2.41zm.336 1.09h-3.07l-.756 2.519h-1.415l2.926-8.827h1.607l2.927 8.827h-1.476l-.743-2.518zM44.78 137.475c1.895 0 2.914-1.116 2.914-3.311 0-2.207-1.019-3.25-2.914-3.25h-.804v6.56h.804zm-2.195-7.688h2.291c2.711 0 4.258 1.499 4.258 4.377 0 2.867-1.547 4.45-4.186 4.45h-2.363v-8.827z"/>
                    <g transform="translate(50 128)">
                        <mask id="prefix__d" fill="#fff">
                            <use xlink:href="#prefix__c"/>
                        </mask>
                        <path fill="#000" d="M.877 6.86c0-2.364.66-4.319 1.775-6.13l.864.372C2.484 2.83 2.004 4.856 2.004 6.86c0 2.015.48 4.041 1.512 5.757L2.652 13C1.537 11.176.877 9.246.877 6.86" mask="url(#prefix__d)"/>
                    </g>
                    <path fill="#000" d="M64.491 137.223L64.491 138.243 54.68 138.243 54.68 137.223 58.95 137.223 58.95 134.668 55.88 134.668 55.88 129.523 63.292 129.523 63.292 130.518 57.115 130.518 57.115 133.672 63.388 133.672 63.388 134.668 60.185 134.668 60.185 137.223z"/>
                    <mask id="prefix__f" fill="#fff">
                        <use xlink:href="#prefix__e"/>
                    </mask>
                    <path fill="#000" d="M71.202 132.844h2.255v-1.318h-2.255v1.318zm3.742 5.482v1.007H67.64v-3.442h1.248v2.435h6.056zm-7.544-4.522h2.603v-3.214H67.4v3.214zm3.802.983h-5.014v-5.181h5.014v.912h2.255v-1.811h1.235v7.903h-1.235v-2.77h-2.255v.947zM76.701 140.616c1.031-1.716 1.511-3.742 1.511-5.757 0-2.003-.48-4.029-1.51-5.757l.862-.372c1.128 1.811 1.787 3.766 1.787 6.13 0 2.386-.659 4.317-1.787 6.14l-.863-.384zM89.202 132.94h2.255v-1.331h-2.255v1.331zm3.742 5.386v1.007H85.64v-3.394h1.248v2.387h6.056zm-7.508-4.378h2.554v-1.762h-2.554v1.762zm3.766 1.007h-4.989v-5.529h1.224v1.787h2.553v-1.787h1.212v1.187h2.255v-1.894h1.235v8h-1.235v-2.772h-2.255v1.008zM104.728 132.377v1.02h-1.487v3.777h-1.237v-8.479h1.236v3.682h1.488zm-6.692 1.067c.862 0 1.415-.299 1.415-.803 0-.516-.552-.828-1.415-.828-.865 0-1.415.312-1.415.828 0 .504.55.803 1.415.803zm-.564 4.882h6.14v1.007h-7.375v-2.698h1.235v1.691zm3.657-7.736h-6.188v-.912h2.483v-1.02h1.246v1.02h2.46v.912zm.396 4.941c-2.267.432-4.846.48-6.717.492l-.144-.984c.805 0 1.763-.012 2.76-.035v-.744c-1.213-.145-1.968-.733-1.968-1.619 0-1.032 1.02-1.667 2.58-1.667 1.558 0 2.579.635 2.579 1.667 0 .875-.744 1.474-1.944 1.619v.683c.935-.06 1.882-.131 2.758-.263l.096.851z" mask="url(#prefix__f)"/>
                    <path fill="#C5C8CF" d="M123.08 57.937L198.687 57.937 198.687 57.187 123.08 57.187z" mask="url(#prefix__f)"/>
                    <path fill="#C5C8CF" d="M192.712 57.563L192.712 52.8 196.836 55.181 200.96 57.563 196.836 59.944 192.712 62.325zM527.472 57.937L604.931 57.937 604.931 57.187 527.472 57.187z" mask="url(#prefix__f)"/>
                    <path fill="#C5C8CF" d="M598.956 57.563L598.956 52.8 603.08 55.181 607.204 57.563 603.08 59.944 598.956 62.325z" mask="url(#prefix__f)"/>
                    <path fill="#000" d="M641.274 135.004l-.348-1.187c-.299-.96-.563-1.944-.839-2.94h-.048c-.252 1.008-.528 1.98-.816 2.94l-.36 1.187h2.411zm.336 1.092h-3.07l-.756 2.517h-1.415l2.926-8.826h1.607l2.927 8.826h-1.476l-.743-2.517zM646.388 133.936h1.33c1.284 0 1.98-.528 1.98-1.595s-.696-1.439-1.98-1.439h-1.33v3.035zm3.43 4.677l-2.003-3.561h-1.427v3.561h-1.392v-8.826h2.89c1.824 0 3.19.647 3.19 2.554 0 1.367-.73 2.183-1.845 2.53l2.158 3.742h-1.571zM664.815 137.223L664.815 138.243 655.004 138.243 655.004 137.223 659.274 137.223 659.274 134.668 656.204 134.668 656.204 129.524 663.616 129.524 663.616 130.518 657.439 130.518 657.439 133.672 663.712 133.672 663.712 134.668 660.509 134.668 660.509 137.223zM671.526 132.845h2.255v-1.319h-2.255v1.319zm3.743 5.481v1.008h-7.305v-3.443h1.248v2.435h6.057zm-7.545-4.521h2.603v-3.215h-2.603v3.215zm3.802.983h-5.013v-5.181h5.013v.911h2.255v-1.811h1.236v7.904h-1.236v-2.771h-2.255v.948zM688.109 139.561h1.247v-10.865h-1.247v10.865zm-3.67-8.179c0 1.991 1.104 3.981 2.807 4.749l-.72.984c-1.247-.588-2.195-1.787-2.686-3.251-.492 1.572-1.451 2.855-2.759 3.49l-.731-1.031c1.727-.78 2.854-2.854 2.854-4.941v-1.775h1.235v1.775zM701.477 132.377h-1.535v2.65h-1.236v-6.332h1.236v2.662h1.535v1.02zm-8.66 3.131h7.125v4.041h-1.236v-3.046h-5.888v-.995zm4.139-6.152c0 2.805-1.86 4.76-5.05 5.612l-.504-.972c2.543-.647 4.03-1.99 4.246-3.646h-3.731v-.994h5.039zM712.54 134.248h-1.547v5.289h-1.235v-10.842h1.235v4.533h1.547v1.02zm-6.716.336c.852 0 1.427-.408 1.427-1.067 0-.672-.575-1.08-1.427-1.08-.851 0-1.439.408-1.439 1.08 0 .659.588 1.067 1.439 1.067zm3.202-3.634h-6.44v-.995h2.614v-1.225h1.236v1.225h2.59v.995zm-2.59 5.54c.923-.047 1.846-.107 2.71-.239l.096.911c-2.314.408-4.821.432-6.681.432l-.167-1.02c.828 0 1.798 0 2.806-.035v-1.056c-1.199-.204-1.978-.935-1.978-1.966 0-1.224 1.054-2.027 2.602-2.027 1.535 0 2.59.803 2.59 2.027 0 1.031-.779 1.774-1.978 1.966v1.007zM215.645 135.004l-.347-1.187c-.3-.96-.564-1.944-.84-2.94h-.047c-.252 1.008-.529 1.98-.816 2.94l-.36 1.187h2.41zm.337 1.092h-3.07l-.757 2.517h-1.415l2.927-8.826h1.607l2.927 8.826h-1.476l-.743-2.517zM220.759 133.936h1.33c1.284 0 1.98-.528 1.98-1.595s-.696-1.439-1.98-1.439h-1.33v3.035zm3.43 4.677l-2.003-3.561h-1.427v3.561h-1.392v-8.826h2.89c1.824 0 3.19.647 3.19 2.554 0 1.367-.73 2.183-1.845 2.53l2.158 3.742h-1.571zM237.112 131.502h-2.195v-.996h2.195v-1.811h1.235v5.565h-1.235v-2.758zm1.606 6.932v.971h-7.399V136.6h5.805v-.865h-5.829v-.96h7.052v2.735h-5.804v.924h6.175zm-3.597-4.354c-1.176-.395-2.039-1.199-2.494-2.207-.48 1.128-1.38 2.004-2.652 2.447l-.635-.971c1.691-.552 2.638-1.908 2.638-3.394v-.912h1.236v.912c0 1.367.935 2.639 2.554 3.166l-.647.959zM248.488 139.537h1.187v-10.83h-1.187v10.83zm-2.183-10.566h1.151v10.039h-1.151v-3.647h-1.775v-1.008h1.775v-1.714h-1.583c-.503 1.823-1.643 3.394-3.67 4.605l-.707-.875c2.23-1.355 3.309-3.118 3.489-5.338h-2.962v-.994h4.186c0 .551-.037 1.091-.121 1.595h1.368v-2.663zM264.627 137.223L264.627 138.243 254.816 138.243 254.816 137.223 259.086 137.223 259.086 134.668 256.016 134.668 256.016 129.524 263.428 129.524 263.428 130.518 257.251 130.518 257.251 133.672 263.524 133.672 263.524 134.668 260.321 134.668 260.321 137.223zM271.338 132.845h2.255v-1.319h-2.255v1.319zm3.742 5.481v1.008h-7.305v-3.443h1.248v2.435h6.057zm-7.544-4.521h2.603v-3.215h-2.603v3.215zm3.802.983h-5.014v-5.181h5.014v.911h2.255v-1.811h1.235v7.904h-1.235v-2.771h-2.255v.948zM287.656 139.525h1.176v-10.83h-1.176v10.83zm-2.182-10.614h1.163v10.099h-1.163v-5.493h-1.595v-1.007h1.595v-3.599zm-2.591 2.771c0 1.847.696 3.717 2.207 4.593l-.72.899c-1.019-.6-1.69-1.666-2.074-2.926-.384 1.367-1.08 2.531-2.123 3.19l-.744-.911c1.535-.96 2.255-2.915 2.255-4.845v-.78h-1.907v-1.019h4.893v1.019h-1.787v.78zM300.628 132.485h-1.535v2.746h-1.236v-6.536h1.236v2.77h1.535v1.02zm-8.66 3.274h7.125v3.778h-1.236v-2.782h-5.888v-.996zm4.402-.96c-1.212-.395-2.075-1.223-2.543-2.254-.48 1.14-1.38 2.027-2.65 2.47l-.648-.97c1.715-.577 2.662-1.956 2.662-3.444v-.19h-2.302v-1.009h5.817v1.008h-2.266v.191c0 1.367.91 2.7 2.566 3.251l-.636.947zM304.544 129.043L305.503 129.043 302.169 140.772 301.209 140.772zM315.244 133.696c-1.799-.288-3.274-1.199-3.982-2.446-.696 1.26-2.195 2.158-3.994 2.446l-.48-.995c2.207-.313 3.814-1.643 3.814-3.07v-.577h1.308v.577c0 1.402 1.631 2.757 3.813 3.07l-.479.995zm.9 2.026h-4.306v3.827h-1.236v-3.827h-4.246v-1.006h9.787v1.006zM325.133 131.43v-2.723h1.235v6.453h-1.235v-2.722h-1.92v-1.008h1.92zm.048 6.068c0-.707-.888-1.091-2.411-1.091-1.547 0-2.422.384-2.422 1.09 0 .709.875 1.093 2.422 1.093 1.523 0 2.41-.384 2.41-1.092zm1.235 0c0 1.295-1.391 2.05-3.646 2.05-2.267 0-3.658-.755-3.658-2.05 0-1.283 1.39-2.05 3.658-2.05 2.255 0 3.646.767 3.646 2.05zm-3.19-2.685c-1.2-.42-2.063-1.272-2.52-2.316-.478 1.188-1.39 2.148-2.674 2.603l-.635-.983c1.679-.6 2.65-2.04 2.65-3.527v-.156h-2.29v-.994h5.793v.994h-2.255v.144c0 1.356.923 2.7 2.542 3.262l-.611.973z" mask="url(#prefix__f)"/>
                    <path fill="#FFF" d="M325.636 57.685c0 31.126-25.232 56.358-56.357 56.358s-56.357-25.233-56.357-56.358c0-31.125 25.232-56.357 56.357-56.357s56.357 25.233 56.357 56.357" mask="url(#prefix__f)"/>
                    <path fill="#C5C8CF" d="M269.28 1.703c-30.87 0-55.983 25.113-55.983 55.982 0 30.87 25.113 55.983 55.982 55.983 30.87 0 55.982-25.113 55.982-55.983 0-30.869-25.113-55.982-55.982-55.982m0 112.715c-31.282 0-56.732-25.45-56.732-56.733 0-31.282 25.45-56.732 56.732-56.732s56.732 25.45 56.732 56.732c0 31.283-25.45 56.733-56.732 56.733" mask="url(#prefix__f)"/>
                    <path fill="#273A5B" d="M267.54 58.26L262.945 50.916 262.909 50.86 261 50.86 261 64.5 262.963 64.5 262.963 56.422 262.898 54.495 266.933 60.888 266.968 60.944 268.111 60.944 272.181 54.495 272.117 56.426 272.117 64.5 274.08 64.5 274.08 50.86 272.171 50.86zM282.356 60.448c-.015.662-.289 1.248-.813 1.744-.542.512-1.166.772-1.854.772-.482 0-.907-.143-1.264-.423-.353-.278-.525-.614-.525-1.029 0-.46.214-.839.653-1.156.445-.32 1.01-.482 1.68-.482.9 0 1.614.193 2.123.574m-2.42-5.719c-1.427 0-2.705.624-3.696 1.807l-.07.084 1.374 1.375.083-.106c.415-.516 1.268-1.384 2.332-1.384.726 0 1.26.184 1.728.597.451.398.67.867.67 1.435v.192c-.649-.319-1.458-.48-2.406-.48-1.22 0-2.21.291-2.947.866-.745.583-1.123 1.377-1.123 2.36 0 .931.358 1.716 1.061 2.336.7.616 1.58.928 2.616.928 1.143 0 2.083-.477 2.8-1.42v1.185h1.887v-5.836c0-1.214-.385-2.186-1.143-2.887-.746-.688-1.84-1.052-3.166-1.052M294.187 55.338L294.187 55.092 291.808 55.092 288.011 58.942 288.011 50.862 287.771 50.862 286.048 52.352 286.048 64.503 288.011 64.503 288.011 61.495 289.274 60.249 292.092 64.503 294.355 64.503 294.355 64.272 290.648 58.858z" mask="url(#prefix__f)"/>
                    <path fill="#273A5B" d="M296.392 58.583c.163-.626.456-1.132.852-1.469.443-.379.981-.571 1.597-.571.752 0 1.358.201 1.801.597.397.354.651.863.725 1.443h-4.975zm7.063 1.355c0-1.632-.429-2.963-1.239-3.849-.825-.902-1.948-1.36-3.337-1.36-1.353 0-2.479.483-3.347 1.434-.854.936-1.305 2.196-1.305 3.645 0 1.408.44 2.557 1.344 3.512.893.946 2.044 1.424 3.42 1.424.941 0 1.796-.226 2.543-.674.597-.356 1.166-.9 1.561-1.491l.057-.086-1.406-1.298-.078.118c-.662.997-1.586 1.546-2.602 1.546-.836 0-1.464-.228-1.976-.719-.544-.52-.81-1.108-.857-1.894h7.192l.03-.308z" mask="url(#prefix__f)"/>
                    <path fill="#6FB6FB" d="M236.523 58.285L235.105 59.104 235.114 62.697 243.804 57.685 240.684 55.883zM252.502 59.105L251.084 58.285 246.924 55.883 243.804 57.685 252.502 62.708z" mask="url(#prefix__f)"/>
                    <path fill="#BFDCFF" d="M252.503 59.103L252.503 62.708 243.804 67.73 243.804 64.126 245.222 63.307z" mask="url(#prefix__f)"/>
                    <path fill="#007CF7" d="M235.106 59.103L235.106 62.708 243.804 67.73 243.804 64.126 242.387 63.307z" mask="url(#prefix__f)"/>
                    <path fill="#6FB6FB" d="M251.084 51.845L243.804 47.641 236.523 51.845 235.105 52.663 235.114 56.257 243.809 51.241 252.502 56.267 252.502 52.663z" mask="url(#prefix__f)"/>
                    <path fill="#BFDCFF" d="M252.503 52.663L252.503 56.267 243.804 61.289 243.804 57.685 245.222 56.866z" mask="url(#prefix__f)"/>
                    <path fill="#007CF7" d="M235.106 52.663L235.106 56.267 243.804 61.289 243.804 57.685 242.387 56.866z" mask="url(#prefix__f)"/>
                    <path fill="#FFF" d="M731.015 57.685c0 31.126-25.232 56.358-56.357 56.358s-56.357-25.233-56.357-56.358c0-31.125 25.232-56.357 56.357-56.357s56.357 25.233 56.357 56.357" mask="url(#prefix__f)"/>
                    <path fill="#C5C8CF" d="M674.658 1.703c-30.869 0-55.982 25.113-55.982 55.982 0 30.87 25.113 55.983 55.982 55.983 30.87 0 55.982-25.113 55.982-55.983 0-30.869-25.113-55.982-55.982-55.982m0 112.715c-31.282 0-56.732-25.45-56.732-56.733 0-31.282 25.45-56.732 56.732-56.732s56.732 25.45 56.732 56.732c0 31.283-25.45 56.733-56.732 56.733" mask="url(#prefix__f)"/>
                    <path fill="#273A5B" d="M680.399 65.482L682.36 65.482 682.36 55.778 680.399 55.778zM680.312 53.988L682.449 53.988 682.449 51.85 680.312 51.85zM705.842 56.077L703.897 62.741 701.719 56.077 699.766 56.077 697.587 62.741 695.65 56.164 695.624 56.077 693.572 56.077 696.579 65.4 696.606 65.483 698.521 65.483 700.696 58.723 702.89 65.483 704.823 65.483 707.856 56.077zM687.15 58.094c.444-.38.981-.571 1.6-.571.751 0 1.357.2 1.802.597.396.355.651.865.724 1.445h-4.98c.164-.627.457-1.133.853-1.471m1.637-2.387c-1.353 0-2.48.483-3.35 1.436-.854.937-1.306 2.198-1.306 3.647 0 1.41.44 2.56 1.345 3.517.894.945 2.046 1.425 3.424 1.425.942 0 1.798-.227 2.544-.674.598-.357 1.167-.901 1.563-1.492l.058-.086-1.407-1.3-.079.118c-.662.998-1.587 1.548-2.604 1.548-.836 0-1.465-.23-1.979-.721-.537-.513-.81-1.118-.857-1.895h7.218l.006-.115c.005-.098.005-.193.005-.193 0-1.635-.428-2.967-1.24-3.854-.826-.904-1.95-1.361-3.34-1.361M672.736 62.602L668.633 51.854 666.466 51.854 671.724 65.406 671.755 65.482 673.714 65.482 679.088 52.019 679.154 51.854 676.987 51.854z" mask="url(#prefix__f)"/>
                    <path fill="#6FB6FB" d="M654.57 51.292L650.161 48.746 647.733 50.148 654.555 56.971z" mask="url(#prefix__f)"/>
                    <path fill="#007CF7" d="M654.555 60.609L658.859 56.119 658.859 53.767 654.568 51.291z" mask="url(#prefix__f)"/>
                    <path fill="#0065C7" d="M645.743 66.285L650.16 68.836 652.591 67.431 645.765 60.611z" mask="url(#prefix__f)"/>
                    <path fill="#BFDCFF" d="M641.462 54.395L641.462 53.767 647.733 50.148 651.981 54.395z" mask="url(#prefix__f)"/>
                    <path fill="#DEEDFF" d="M641.462 54.395L641.462 61.272 648.339 54.395z" mask="url(#prefix__f)"/>
                    <path fill="#007CF7" d="M645.765 56.971L641.461 61.272 641.461 63.813 645.647 66.23 645.761 66.296z" mask="url(#prefix__f)"/>
                    <path fill="#6FB6FB" d="M658.858 63.813L652.59 67.431 648.339 63.187 658.858 63.187z" mask="url(#prefix__f)"/>
                    <path fill="#007CF7" d="M650.121 56.055c-1.489 0-2.696 1.207-2.696 2.695 0 1.49 1.207 2.697 2.696 2.697 1.49 0 2.696-1.207 2.696-2.697 0-1.488-1.207-2.695-2.696-2.695" mask="url(#prefix__f)"/>
                    <path fill="#FFF" d="M651.481 56.617c-.427 0-.773.347-.773.773 0 .427.346.773.773.773.427 0 .773-.346.773-.773 0-.426-.346-.773-.773-.773" mask="url(#prefix__f)"/>
                    <path fill="#BFDCFF" d="M651.981 63.187L654.554 60.611 658.859 56.12 658.859 63.187z" mask="url(#prefix__f)"/>
                    <path fill="#092E6E" d="M451.308 100.414l-.396-1.458c-.415-1.386-.775-2.917-1.17-4.357h-.073c-.341 1.458-.738 2.971-1.134 4.357l-.396 1.458h3.169zm.576 2.071h-4.321l-.937 3.421h-2.701l4.268-13.324h3.133l4.285 13.324h-2.791l-.936-3.42zM459.839 98.758h1.729c1.709 0 2.646-.72 2.646-2.143 0-1.44-.937-1.925-2.646-1.925h-1.73v4.068zm4.59 7.148l-2.736-5.041h-1.854v5.04h-2.665V92.583h4.645c2.79 0 5.005.973 5.005 4.033 0 1.999-1.007 3.242-2.538 3.836l3.115 5.455h-2.971zM476.812 105.313h9.416v1.907h-11.793v-4.933h2.377v3.025zm6.77-10.715c.017-.394.017-.808.017-1.206h-9.236v-1.89h11.596v1.567c0 1.638 0 3.294-.469 5.454l-2.34-.161c.144-.737.252-1.386.324-2.016l-9.272.413-.272-1.963 9.652-.198zm4.05 4.773v1.872h-14.925V99.37h5.528v-2.017h2.376v2.017h7.022zM501.114 103.26h2.25V90.871h-2.25v12.389zm-3.26-5.979h-1.62v-1.89h1.62v-4.196h2.215v11.704h-2.215v-5.618zm5.924 7.994v1.891h-11.451v-5.221h2.377v3.33h9.074zm-6.878-4.699c-1.872.343-3.438.379-5.887.379h-1.134V92.15h6.229v1.872h-3.943v1.603h3.367v1.783h-3.367v1.674c1.747-.018 3.043-.107 4.537-.359l.198 1.853zM506.295 99.55c3.763-.521 5.618-2.538 5.78-4.501h-4.988v-1.891h5.023v-2.034h2.377v2.034h5.024v1.89h-4.987c.162 1.964 2.016 3.98 5.76 4.503l-.863 1.926c-2.935-.432-5.023-1.764-6.122-3.547-1.098 1.783-3.187 3.115-6.122 3.547l-.882-1.926zm-.504 5.996h15.017v-1.927H505.79v1.927zM463.136 119.913v1.963h-1.98v5.401h-2.376v-12.424h2.376v5.06h1.98zm-10.658 9.362h9.2v1.891H450.1v-4.986h2.377v3.095zm1.98-7.56c.27-1.549.342-2.756.36-3.746h-6.176v-1.89h8.516v1.025c0 1.153 0 2.791-.377 4.88l-2.323-.27zm3.565 2.628c-3.421.63-7.274.702-10.12.72l-.215-1.89c.918 0 1.944 0 3.025-.019v-3.222h2.322v3.132c1.639-.072 3.295-.198 4.844-.414l.144 1.693zM475.896 131.49h2.377v-16.637h-2.377v16.637zm-8.102-5.815c2.521-.018 4.609-.144 6.95-.54l.252 1.927c-2.7.467-5.131.576-8.138.576h-1.495v-6.825h5.384v-2.646h-5.401v-1.891h7.832v6.41h-5.384v2.989zM500 114.853v16.638h-2.377v-9.526h-3.186v-1.909h3.186v-5.203H500zm-7.688 3.692c0 3.132 1.207 6.175 3.943 7.4l-1.404 1.89c-1.819-.881-3.026-2.502-3.709-4.501-.721 2.124-1.963 3.853-3.818 4.79l-1.476-1.91c2.808-1.296 4.069-4.519 4.069-7.67v-2.394h2.395v2.394zM505.612 125.694h3.259v-3.674h-3.259v3.674zm10.948-10.84v16.636h-2.377v-8.894h-2.971v4.988h-7.958v-11.416h2.358v3.998h3.259v-3.998h2.341v4.52h2.971v-5.834h2.377z" mask="url(#prefix__f)"/>
                    <path fill="#E6E8EB" d="M458.337 37.492L458.337 68.833 496.17 68.833 496.17 37.202z" mask="url(#prefix__f)"/>
                    <path fill="#000" d="M458.62 68.55h37.268V37.488l-37.268.286V68.55zm37.833.565h-38.397V37.212l38.397-.294v32.197z" mask="url(#prefix__f)"/>
                    <path fill="#FFF" d="M497.27 37.723h-40.175c-1.535 0-2.79-1.256-2.79-2.79V28.78c0-1.535 1.255-2.79 2.79-2.79h40.175c1.535 0 2.79 1.255 2.79 2.79v6.155c0 1.533-1.255 2.789-2.79 2.789" mask="url(#prefix__f)"/>
                    <path fill="#000" d="M497.27 25.988h-40.175c-1.535 0-2.79 1.256-2.79 2.79v6.155c0 1.534 1.255 2.79 2.79 2.79h40.175c1.535 0 2.79-1.256 2.79-2.79v-6.155c0-1.534-1.255-2.79-2.79-2.79m0 .564c1.228 0 2.226.998 2.226 2.226v6.155c0 1.227-.998 2.225-2.225 2.225h-40.177c-1.226 0-2.224-.998-2.224-2.225v-6.155c0-1.228.998-2.226 2.224-2.226h40.177" mask="url(#prefix__f)"/>
                    <path fill="#FFF" d="M497.27 51.977h-40.175c-1.535 0-2.79-1.255-2.79-2.788v-6.156c0-1.535 1.255-2.788 2.79-2.788h40.175c1.535 0 2.79 1.254 2.79 2.788v6.155c0 1.533-1.255 2.79-2.79 2.79" mask="url(#prefix__f)"/>
                    <path fill="#000" d="M497.27 40.244h-40.175c-1.535 0-2.79 1.255-2.79 2.79v6.153c0 1.536 1.255 2.79 2.79 2.79h40.175c1.535 0 2.79-1.254 2.79-2.79v-6.154c0-1.534-1.255-2.789-2.79-2.789m0 .564c1.228 0 2.226.998 2.226 2.225v6.154c0 1.228-.998 2.226-2.225 2.226h-40.177c-1.226 0-2.224-.998-2.224-2.226v-6.154c0-1.227.998-2.225 2.224-2.225h40.177" mask="url(#prefix__f)"/>
                    <path fill="#FFF" d="M497.27 66.152h-40.175c-1.535 0-2.79-1.255-2.79-2.789v-6.155c0-1.535 1.255-2.789 2.79-2.789h40.175c1.535 0 2.79 1.254 2.79 2.79v6.154c0 1.534-1.255 2.79-2.79 2.79" mask="url(#prefix__f)"/>
                    <path fill="#000" d="M497.27 54.418h-40.175c-1.535 0-2.79 1.256-2.79 2.79v6.155c0 1.534 1.255 2.789 2.79 2.789h40.175c1.535 0 2.79-1.255 2.79-2.789v-6.155c0-1.534-1.255-2.79-2.79-2.79m0 .564c1.228 0 2.226.998 2.226 2.226v6.155c0 1.227-.998 2.225-2.225 2.225h-40.177c-1.226 0-2.224-.998-2.224-2.225v-6.155c0-1.228.998-2.226 2.224-2.226h40.177" mask="url(#prefix__f)"/>
                    <path fill="#0A51B7" d="M484.674 31.855c0 1.043-.845 1.888-1.887 1.888-1.043 0-1.888-.845-1.888-1.888 0-1.041.845-1.887 1.888-1.887 1.042 0 1.887.846 1.887 1.887" mask="url(#prefix__f)"/>
                    <path fill="#000" d="M482.787 29.969c-1.042 0-1.888.845-1.888 1.887 0 1.043.846 1.887 1.888 1.887 1.042 0 1.887-.844 1.887-1.887 0-1.042-.845-1.887-1.887-1.887m0 .564c.73 0 1.323.593 1.323 1.323 0 .729-.594 1.323-1.323 1.323s-1.323-.594-1.323-1.323c0-.73.594-1.323 1.323-1.323" mask="url(#prefix__f)"/>
                    <path fill="#0A51B7" d="M490.496 31.855c0 1.043-.845 1.888-1.888 1.888-1.042 0-1.887-.845-1.887-1.888 0-1.041.845-1.887 1.887-1.887 1.043 0 1.888.846 1.888 1.887" mask="url(#prefix__f)"/>
                    <path fill="#000" d="M488.608 29.969c-1.042 0-1.887.845-1.887 1.887 0 1.043.845 1.887 1.887 1.887s1.888-.844 1.888-1.887c0-1.042-.846-1.887-1.888-1.887m0 .564c.73 0 1.323.593 1.323 1.323 0 .729-.594 1.323-1.323 1.323s-1.323-.594-1.323-1.323c0-.73.594-1.323 1.323-1.323" mask="url(#prefix__f)"/>
                    <path fill="#0A51B7" d="M496.317 31.855c0 1.043-.845 1.888-1.887 1.888-1.043 0-1.888-.845-1.888-1.888 0-1.041.845-1.887 1.888-1.887 1.042 0 1.887.846 1.887 1.887" mask="url(#prefix__f)"/>
                    <path fill="#000" d="M494.43 29.969c-1.042 0-1.888.845-1.888 1.887 0 1.043.846 1.887 1.888 1.887 1.042 0 1.887-.844 1.887-1.887 0-1.042-.845-1.887-1.887-1.887m0 .564c.73 0 1.323.593 1.323 1.323 0 .729-.594 1.323-1.323 1.323s-1.323-.594-1.323-1.323c0-.73.594-1.323 1.323-1.323" mask="url(#prefix__f)"/>
                    <path fill="#0A51B7" d="M484.674 46.11c0 1.043-.845 1.888-1.887 1.888-1.043 0-1.888-.845-1.888-1.888 0-1.042.845-1.888 1.888-1.888 1.042 0 1.887.846 1.887 1.888" mask="url(#prefix__f)"/>
                    <path fill="#000" d="M482.787 44.223c-1.042 0-1.888.846-1.888 1.888 0 1.042.846 1.887 1.888 1.887 1.042 0 1.887-.845 1.887-1.887s-.845-1.888-1.887-1.888m0 .564c.73 0 1.323.594 1.323 1.324 0 .729-.594 1.323-1.323 1.323s-1.323-.594-1.323-1.323c0-.73.594-1.324 1.323-1.324" mask="url(#prefix__f)"/>
                    <path fill="#0A51B7" d="M490.496 46.11c0 1.043-.845 1.888-1.888 1.888-1.042 0-1.887-.845-1.887-1.888 0-1.042.845-1.888 1.887-1.888 1.043 0 1.888.846 1.888 1.888" mask="url(#prefix__f)"/>
                    <path fill="#000" d="M488.608 44.223c-1.042 0-1.887.846-1.887 1.888 0 1.042.845 1.887 1.887 1.887s1.888-.845 1.888-1.887-.846-1.888-1.888-1.888m0 .564c.73 0 1.323.594 1.323 1.324 0 .729-.594 1.323-1.323 1.323s-1.323-.594-1.323-1.323c0-.73.594-1.324 1.323-1.324" mask="url(#prefix__f)"/>
                    <path fill="#0A51B7" d="M496.317 46.11c0 1.043-.845 1.888-1.887 1.888-1.043 0-1.888-.845-1.888-1.888 0-1.042.845-1.888 1.888-1.888 1.042 0 1.887.846 1.887 1.888" mask="url(#prefix__f)"/>
                    <path fill="#000" d="M494.43 44.223c-1.042 0-1.888.846-1.888 1.888 0 1.042.846 1.887 1.888 1.887 1.042 0 1.887-.845 1.887-1.887s-.845-1.888-1.887-1.888m0 .564c.73 0 1.323.594 1.323 1.324 0 .729-.594 1.323-1.323 1.323s-1.323-.594-1.323-1.323c0-.73.594-1.324 1.323-1.324" mask="url(#prefix__f)"/>
                    <path fill="#0A51B7" d="M484.674 60.285c0 1.043-.845 1.888-1.887 1.888-1.043 0-1.888-.845-1.888-1.888 0-1.042.845-1.887 1.888-1.887 1.042 0 1.887.845 1.887 1.887" mask="url(#prefix__f)"/>
                    <path fill="#000" d="M482.787 58.398c-1.042 0-1.888.845-1.888 1.887 0 1.043.846 1.887 1.888 1.887 1.042 0 1.887-.844 1.887-1.887 0-1.042-.845-1.887-1.887-1.887m0 .564c.73 0 1.323.594 1.323 1.323 0 .73-.594 1.323-1.323 1.323s-1.323-.593-1.323-1.323c0-.729.594-1.323 1.323-1.323" mask="url(#prefix__f)"/>
                    <path fill="#0A51B7" d="M490.496 60.285c0 1.043-.845 1.888-1.888 1.888-1.042 0-1.887-.845-1.887-1.888 0-1.042.845-1.887 1.887-1.887 1.043 0 1.888.845 1.888 1.887" mask="url(#prefix__f)"/>
                    <path fill="#000" d="M488.608 58.398c-1.042 0-1.887.845-1.887 1.887 0 1.043.845 1.887 1.887 1.887s1.888-.844 1.888-1.887c0-1.042-.846-1.887-1.888-1.887m0 .564c.73 0 1.323.594 1.323 1.323 0 .73-.594 1.323-1.323 1.323s-1.323-.593-1.323-1.323c0-.729.594-1.323 1.323-1.323" mask="url(#prefix__f)"/>
                    <path fill="#0A51B7" d="M496.317 60.285c0 1.043-.845 1.888-1.887 1.888-1.043 0-1.888-.845-1.888-1.888 0-1.042.845-1.887 1.888-1.887 1.042 0 1.887.845 1.887 1.887" mask="url(#prefix__f)"/>
                    <path fill="#000" d="M494.43 58.398c-1.042 0-1.888.845-1.888 1.887 0 1.043.846 1.887 1.888 1.887 1.042 0 1.887-.844 1.887-1.887 0-1.042-.845-1.887-1.887-1.887m0 .564c.73 0 1.323.594 1.323 1.323 0 .73-.594 1.323-1.323 1.323s-1.323-.593-1.323-1.323c0-.729.594-1.323 1.323-1.323" mask="url(#prefix__f)"/>
                    <path fill="#FFF" d="M459.141 28.758L459.141 34.953" mask="url(#prefix__f)"/>
                    <path fill="#000" d="M458.859 34.953L459.423 34.953 459.423 28.758 458.859 28.758z" mask="url(#prefix__f)"/>
                    <path fill="#FFF" d="M462.342 28.758L462.342 34.953" mask="url(#prefix__f)"/>
                    <path fill="#000" d="M462.06 34.953L462.624 34.953 462.624 28.758 462.06 28.758z" mask="url(#prefix__f)"/>
                    <path fill="#FFF" d="M465.543 28.758L465.543 34.953" mask="url(#prefix__f)"/>
                    <path fill="#000" d="M465.261 34.953L465.825 34.953 465.825 28.758 465.261 28.758z" mask="url(#prefix__f)"/>
                    <path fill="#FFF" d="M468.744 28.758L468.744 34.953" mask="url(#prefix__f)"/>
                    <path fill="#000" d="M468.462 34.953L469.026 34.953 469.026 28.758 468.462 28.758z" mask="url(#prefix__f)"/>
                    <path fill="#FFF" d="M471.945 28.758L471.945 34.953" mask="url(#prefix__f)"/>
                    <path fill="#000" d="M471.664 34.953L472.228 34.953 472.228 28.758 471.664 28.758z" mask="url(#prefix__f)"/>
                    <path fill="#FFF" d="M475.147 28.758L475.147 34.953" mask="url(#prefix__f)"/>
                    <path fill="#000" d="M474.865 34.953L475.429 34.953 475.429 28.758 474.865 28.758z" mask="url(#prefix__f)"/>
                    <path fill="#FFF" d="M460.741 28.758L460.741 34.953" mask="url(#prefix__f)"/>
                    <path fill="#000" d="M460.459 34.953L461.023 34.953 461.023 28.758 460.459 28.758z" mask="url(#prefix__f)"/>
                    <path fill="#FFF" d="M463.942 28.758L463.942 34.953" mask="url(#prefix__f)"/>
                    <path fill="#000" d="M463.661 34.953L464.225 34.953 464.225 28.758 463.661 28.758z" mask="url(#prefix__f)"/>
                    <path fill="#FFF" d="M467.144 28.758L467.144 34.953" mask="url(#prefix__f)"/>
                    <path fill="#000" d="M466.862 34.953L467.426 34.953 467.426 28.758 466.862 28.758z" mask="url(#prefix__f)"/>
                    <path fill="#FFF" d="M470.345 28.758L470.345 34.953" mask="url(#prefix__f)"/>
                    <path fill="#000" d="M470.063 34.953L470.627 34.953 470.627 28.758 470.063 28.758z" mask="url(#prefix__f)"/>
                    <path fill="#FFF" d="M473.546 28.758L473.546 34.953" mask="url(#prefix__f)"/>
                    <path fill="#000" d="M473.264 34.953L473.828 34.953 473.828 28.758 473.264 28.758z" mask="url(#prefix__f)"/>
                    <path fill="#FFF" d="M459.141 43.013L459.141 49.208" mask="url(#prefix__f)"/>
                    <path fill="#000" d="M458.859 49.208L459.423 49.208 459.423 43.013 458.859 43.013z" mask="url(#prefix__f)"/>
                    <path fill="#FFF" d="M462.342 43.013L462.342 49.208" mask="url(#prefix__f)"/>
                    <path fill="#000" d="M462.06 49.208L462.624 49.208 462.624 43.013 462.06 43.013z" mask="url(#prefix__f)"/>
                    <path fill="#FFF" d="M465.543 43.013L465.543 49.208" mask="url(#prefix__f)"/>
                    <path fill="#000" d="M465.261 49.208L465.825 49.208 465.825 43.013 465.261 43.013z" mask="url(#prefix__f)"/>
                    <path fill="#FFF" d="M468.744 43.013L468.744 49.208" mask="url(#prefix__f)"/>
                    <path fill="#000" d="M468.462 49.208L469.026 49.208 469.026 43.013 468.462 43.013z" mask="url(#prefix__f)"/>
                    <path fill="#FFF" d="M471.945 43.013L471.945 49.208" mask="url(#prefix__f)"/>
                    <path fill="#000" d="M471.664 49.208L472.228 49.208 472.228 43.013 471.664 43.013z" mask="url(#prefix__f)"/>
                    <path fill="#FFF" d="M475.147 43.013L475.147 49.208" mask="url(#prefix__f)"/>
                    <path fill="#000" d="M474.865 49.208L475.429 49.208 475.429 43.013 474.865 43.013z" mask="url(#prefix__f)"/>
                    <path fill="#FFF" d="M460.741 43.013L460.741 49.208" mask="url(#prefix__f)"/>
                    <path fill="#000" d="M460.459 49.208L461.023 49.208 461.023 43.013 460.459 43.013z" mask="url(#prefix__f)"/>
                    <path fill="#FFF" d="M463.942 43.013L463.942 49.208" mask="url(#prefix__f)"/>
                    <path fill="#000" d="M463.661 49.208L464.225 49.208 464.225 43.013 463.661 43.013z" mask="url(#prefix__f)"/>
                    <path fill="#FFF" d="M467.144 43.013L467.144 49.208" mask="url(#prefix__f)"/>
                    <path fill="#000" d="M466.862 49.208L467.426 49.208 467.426 43.013 466.862 43.013z" mask="url(#prefix__f)"/>
                    <path fill="#FFF" d="M470.345 43.013L470.345 49.208" mask="url(#prefix__f)"/>
                    <path fill="#000" d="M470.063 49.208L470.627 49.208 470.627 43.013 470.063 43.013z" mask="url(#prefix__f)"/>
                    <path fill="#FFF" d="M473.546 43.013L473.546 49.208" mask="url(#prefix__f)"/>
                    <path fill="#000" d="M473.264 49.208L473.828 49.208 473.828 43.013 473.264 43.013z" mask="url(#prefix__f)"/>
                    <path fill="#FFF" d="M459.141 57.268L459.141 63.463" mask="url(#prefix__f)"/>
                    <path fill="#000" d="M458.859 63.463L459.423 63.463 459.423 57.268 458.859 57.268z" mask="url(#prefix__f)"/>
                    <path fill="#FFF" d="M462.342 57.268L462.342 63.463" mask="url(#prefix__f)"/>
                    <path fill="#000" d="M462.06 63.463L462.624 63.463 462.624 57.268 462.06 57.268z" mask="url(#prefix__f)"/>
                    <path fill="#FFF" d="M465.543 57.268L465.543 63.463" mask="url(#prefix__f)"/>
                    <path fill="#000" d="M465.261 63.463L465.825 63.463 465.825 57.268 465.261 57.268z" mask="url(#prefix__f)"/>
                    <path fill="#FFF" d="M468.744 57.268L468.744 63.463" mask="url(#prefix__f)"/>
                    <path fill="#000" d="M468.462 63.463L469.026 63.463 469.026 57.268 468.462 57.268z" mask="url(#prefix__f)"/>
                    <path fill="#FFF" d="M471.945 57.268L471.945 63.463" mask="url(#prefix__f)"/>
                    <path fill="#000" d="M471.664 63.463L472.228 63.463 472.228 57.268 471.664 57.268z" mask="url(#prefix__f)"/>
                    <path fill="#FFF" d="M475.147 57.268L475.147 63.463" mask="url(#prefix__f)"/>
                    <path fill="#000" d="M474.865 63.463L475.429 63.463 475.429 57.268 474.865 57.268z" mask="url(#prefix__f)"/>
                    <path fill="#FFF" d="M460.741 57.268L460.741 63.463" mask="url(#prefix__f)"/>
                    <path fill="#000" d="M460.459 63.463L461.023 63.463 461.023 57.268 460.459 57.268z" mask="url(#prefix__f)"/>
                    <path fill="#FFF" d="M463.942 57.268L463.942 63.463" mask="url(#prefix__f)"/>
                    <path fill="#000" d="M463.661 63.463L464.225 63.463 464.225 57.268 463.661 57.268z" mask="url(#prefix__f)"/>
                    <path fill="#FFF" d="M467.144 57.268L467.144 63.463" mask="url(#prefix__f)"/>
                    <path fill="#000" d="M466.862 63.463L467.426 63.463 467.426 57.268 466.862 57.268z" mask="url(#prefix__f)"/>
                    <path fill="#FFF" d="M470.345 57.268L470.345 63.463" mask="url(#prefix__f)"/>
                    <path fill="#000" d="M470.063 63.463L470.627 63.463 470.627 57.268 470.063 57.268z" mask="url(#prefix__f)"/>
                    <path fill="#FFF" d="M473.546 57.268L473.546 63.463" mask="url(#prefix__f)"/>
                    <path fill="#000" d="M473.264 63.463L473.828 63.463 473.828 57.268 473.264 57.268z" mask="url(#prefix__f)"/>
                    <path fill="#E6E8EB" d="M491.978 57.402s.188-1.193 1.877-2.007c1.69-.813 5.93-1.964 11.11-1.249 5.18.715 6.54 2 6.54 2l.623 1.377-.002 15.146s-.683 1.814-4.157 2.565c-3.474.751-10.39 1.002-13.707-.53 0 0-2.096-.877-2.284-2.192v-15.11z" mask="url(#prefix__f)"/>
                    <path fill="#000" d="M492.26 72.498c.144.334 1.615 3.209 9.787 3.209 8.225 0 9.656-2.864 9.797-3.208V57.31c-.105-.295-1.353-3.106-10.094-3.106-9.134 0-9.487 3.121-9.49 3.153v15.141zm9.787 3.773c-9.117 0-10.292-3.49-10.338-3.638l-.012-.083V57.339c.007-.165.297-3.699 10.053-3.699 9.712 0 10.619 3.419 10.653 3.564l.007.064-.014 15.366c-.046.148-1.232 3.637-10.35 3.637z" mask="url(#prefix__f)"/>
                    <path fill="#000" d="M501.837 66.21c-8.862 0-10.078-3.262-10.125-3.402l.533-.185c.01.03 1.228 3.103 9.936 3.022 8.678-.083 9.667-2.978 9.676-3.007l.543.154c-.038.136-1.027 3.329-10.214 3.417l-.35.002M501.833 71.168c-8.857 0-10.074-3.262-10.122-3.402l.534-.185c.011.03 1.25 3.115 9.935 3.021 8.679-.083 9.668-2.977 9.676-3.006l.543.154c-.037.136-1.026 3.328-10.213 3.416l-.353.002M501.833 61.253c-8.857 0-10.074-3.263-10.122-3.403l.535-.182-.267.09.266-.093c.011.03 1.246 3.097 9.935 3.022 8.679-.083 9.668-2.978 9.676-3.007l.543.154c-.037.136-1.026 3.329-10.213 3.417l-.353.002" mask="url(#prefix__f)"/>
                    <path fill="#FFF" d="M113.09 57.685c0 31.126-25.233 56.358-56.358 56.358C25.607 114.043.375 88.81.375 57.685c0-31.125 25.232-56.357 56.357-56.357s56.357 25.233 56.357 56.357" mask="url(#prefix__f)"/>
                    <path fill="#C5C8CF" d="M56.732 1.703C25.862 1.703.75 26.816.75 57.685c0 30.87 25.113 55.983 55.982 55.983s55.982-25.113 55.982-55.983c0-30.869-25.113-55.982-55.982-55.982m0 112.715C25.45 114.418 0 88.968 0 57.685 0 26.403 25.45.953 56.732.953s56.732 25.45 56.732 56.732c0 31.283-25.45 56.733-56.732 56.733" mask="url(#prefix__f)"/>
                    <path fill="#231916" d="M81.065 55.8l-.026-.484c.163-.01.329-.014.498-.014v.484c-.16 0-.317.005-.472.014M57.246 55.799c-.166-.01-.343-.008-.513-.013-.152 0-.299.003-.444.009l-.019-.484c.166-.006.336-.011.508-.01.168 0 .333.006.493.014l-.025.484zm-2.836.27l-.128-.466c.31-.085.642-.154.988-.203l.07.48c-.327.047-.64.11-.93.19zm4.697.056c-.29-.093-.599-.168-.917-.223l.082-.477c.341.059.672.139.984.239l-.149.46zm20.094.015l-.145-.463c.32-.101.65-.182.98-.241l.086.476c-.31.057-.62.133-.92.228zm-44.923.079c-.295-.112-.599-.203-.904-.272l.105-.472c.328.073.655.17.971.29l-.172.454zm18.417.608l-.266-.406c.28-.182.581-.345.897-.482l.194.443c-.292.128-.569.277-.825.445zm24.801.118l-.266-.404c.281-.184.578-.35.884-.494l.206.438c-.285.134-.563.29-.824.46zm-16.722.033c-.255-.188-.523-.354-.799-.494l.221-.432c.3.152.59.333.865.535l-.287.39zm-24.827.133c-.263-.184-.534-.352-.807-.5l.23-.425c.29.155.577.334.855.529l-.278.396zm15.376.989l-.382-.3c.213-.272.443-.524.686-.75l.33.355c-.224.208-.437.442-.634.695zm24.767.095l-.374-.308c.212-.257.45-.503.707-.731l.322.362c-.239.212-.459.44-.655.677zm-13.94.093c-.23-.267-.445-.495-.654-.697l.335-.35c.222.213.445.453.686.73l-.368.317zm-24.768.079c-.22-.234-.45-.458-.687-.666l.321-.363c.247.218.49.452.72.697l-.354.332zm12.875 1.366l-.39-.288c.16-.217.313-.454.452-.703l.06-.102.416.246-.05.09c-.153.269-.316.523-.488.757zm13.136.068c-.214-.247-.42-.504-.628-.765l.38-.3c.202.254.405.505.615.749l-.367.316zm11.58 0l-.373-.308c.202-.245.38-.498.525-.753l.436.212-.027.047c-.148.26-.34.537-.56.803zm-36.298.045c-.23-.235-.456-.487-.668-.75l.376-.304c.202.249.417.489.638.714l-.346.34zm1.544 1.282c-.272-.181-.543-.383-.806-.6l.31-.374c.25.207.506.399.764.57l-.268.404zm33.24.018l-.268-.405c.267-.175.52-.37.752-.574l.32.363c-.248.22-.519.427-.804.616zm-24.646.01l-.279-.395c.254-.18.496-.381.72-.602l.34.344c-.243.24-.505.46-.78.654zm16.04.028c-.26-.19-.514-.402-.774-.652l.335-.35c.244.235.48.433.723.609l-.284.393zm6.79.839l-.153-.461c.3-.1.596-.218.88-.355l.21.438c-.303.144-.618.27-.938.378zm-29.62.005c-.317-.108-.63-.241-.933-.394l.22-.432c.282.143.575.267.871.369l-.159.457zm4.97.017l-.144-.463c.307-.096.602-.212.876-.345l.211.436c-.295.144-.613.269-.943.372zm19.676.04c-.33-.1-.649-.226-.945-.375l.215-.433c.274.135.567.252.873.346l-.143.463zm-21.657.313l-.03-.485c.327-.02.645-.057.945-.11l.084.477c-.318.056-.653.095-.999.118zm24.65.005l-.03-.484c.316-.02.633-.06.94-.12l.091.477c-.327.062-.664.105-1 .127zm-1.005.006c-.349-.015-.686-.048-1-.098l.075-.48c.297.048.615.079.947.094l-.022.484zm-24.65.003c-.334-.015-.673-.056-1.007-.12l.092-.476c.311.06.626.097.937.112l-.022.484zM32.395 55.803c-.154-.011-.31-.017-.468-.017v-.484c.17 0 .337.006.502.019l-.035.482z" mask="url(#prefix__f)"/>
                    <path fill="#0A51B7" d="M81.537 62.42c-2.698 0-5.215-1.35-6.412-3.44-.91-1.586-3.258-3.193-5.99-3.193-2.286 0-4.31 1.085-6.013 3.225-1.482 1.864-2.987 3.408-6.39 3.408-3.016 0-5.114-1.126-6.412-3.441-.892-1.588-3.09-3.192-5.99-3.192-2.998 0-5.053 2.02-6.012 3.224-1.483 1.865-2.99 3.409-6.391 3.409v-.484c3.192 0 4.558-1.4 6.012-3.226 1.013-1.272 3.189-3.407 6.39-3.407 3.309 0 5.522 1.852 6.414 3.439 1.205 2.149 3.164 3.194 5.989 3.194 3.192 0 4.558-1.4 6.012-3.226 1.799-2.261 3.949-3.407 6.39-3.407 2.917 0 5.433 1.729 6.412 3.437 1.112 1.94 3.463 3.196 5.99 3.196v.484z" mask="url(#prefix__f)"/>
                </g>
                <g transform="translate(25 32) translate(45 45.047)">
                    <mask id="prefix__h" fill="#fff">
                        <use xlink:href="#prefix__g"/>
                    </mask>
                    <path fill="#FFF" d="M-1.977 29.409L25.44 29.409 25.44 -1.5 -1.977 -1.5z" mask="url(#prefix__h)"/>
                </g>
                <g transform="translate(25 32) translate(45 52.047)">
                    <mask id="prefix__j" fill="#fff">
                        <use xlink:href="#prefix__i"/>
                    </mask>
                    <path fill="#0A51B7" d="M-1.757 22.213L14.155 22.213 14.155 -1.857 -1.757 -1.857z" mask="url(#prefix__j)"/>
                </g>
                <g transform="translate(25 32) translate(45 45.047)">
                    <mask id="prefix__l" fill="#fff">
                        <use xlink:href="#prefix__k"/>
                    </mask>
                    <path fill="#000" d="M-1.977 29.409L25.44 29.409 25.44 -1.5 -1.977 -1.5z" mask="url(#prefix__l)"/>
                </g>
                <g>
                    <path fill="#000" d="M23.538 52.79L23.926 52.79 23.926 39.954 23.538 39.954z" transform="translate(25 32) translate(33 19.047)"/>
                    <path fill="#000" d="M23.635 40.123L12.569 33.733 12.762 33.397 23.828 39.787z" transform="translate(25 32) translate(33 19.047)"/>
                    <path fill="#000" d="M23.829 40.122L23.636 39.786 34.671 33.415 34.864 33.751zM47.212 21.044L46.433 21.044 46.433 17.722 43.109 17.722 43.109 16.942 47.212 16.942zM1.032 21.044L.253 21.044.253 16.942 4.355 16.942 4.355 17.722 1.032 17.722zM4.355 62.779L.253 62.779.253 58.676 1.032 58.676 1.032 62 4.355 62zM47.212 62.779L43.109 62.779 43.109 62 46.433 62 46.433 58.676 47.212 58.676z" transform="translate(25 32) translate(33 19.047)"/>
                    <path fill="#C5C8CF" d="M309.197 32.692L399.804 32.692 399.804 31.942 309.197 31.942z" transform="translate(25 32) translate(33 19.047)"/>
                    <path fill="#C5C8CF" d="M393.829 32.317L393.829 27.555 397.953 29.936 402.077 32.317 397.953 34.698 393.829 37.079zM309.346 45.757L399.953 45.757 399.953 45.007 309.346 45.007z" transform="translate(25 32) translate(33 19.047)"/>
                    <path fill="#C5C8CF" d="M315.321 45.382L315.321 50.145 311.197 47.764 307.073 45.382 311.197 43.001 315.321 40.62z" transform="translate(25 32) translate(33 19.047)"/>
                    <path fill="#000" d="M331.495 59.943c.084.252.12.516.12.803 0 .288-.036.552-.12.803h2.075v-1.606h-2.075zm3.586 7.004v1.008h-7.292V64.5h1.235v2.447h6.057zm-6.273-4.522c.924 0 1.631-.67 1.631-1.679 0-.983-.707-1.655-1.63-1.655-.948 0-1.656.672-1.656 1.655 0 1.008.708 1.68 1.655 1.68zm2.16.132c-.504.587-1.272.948-2.16.936-1.607 0-2.83-1.152-2.83-2.747S327.201 58 328.808 58c.888 0 1.656.36 2.16.935h2.602V57.34h1.236v7.964h-1.236v-2.746h-2.602zM344.946 68.158h1.187v-10.83h-1.187v10.83zm-2.183-10.566h1.151v10.039h-1.151v-3.647h-1.775v-1.007h1.775v-1.715h-1.583c-.503 1.823-1.643 3.394-3.67 4.605l-.707-.875c2.23-1.355 3.309-3.118 3.489-5.337h-2.962v-.995h4.186c0 .551-.037 1.091-.12 1.595h1.367v-2.663zM359.334 68.146h1.187v-10.83h-1.187v10.83zm-2.206-10.589h1.163v10.086h-1.163V62.39h-2.135v-1.008h2.135v-3.825zm-4.271 7.063c1.344-.012 2.268-.071 3.335-.3l.108 1.02c-1.223.24-2.279.3-3.934.3h-.731V58.6h4.101v1.007h-2.879v5.013zM369.979 68.182h1.247V57.317h-1.247v10.865zm-6.117-6.248c0 1.703.659 2.722 1.595 2.722.947 0 1.607-1.019 1.607-2.722 0-1.679-.66-2.699-1.607-2.699-.936 0-1.595 1.02-1.595 2.699zm4.39 0c0 2.351-1.176 3.826-2.795 3.826-1.607 0-2.782-1.475-2.782-3.826 0-2.327 1.175-3.814 2.782-3.814 1.619 0 2.795 1.487 2.795 3.814zM382.35 57.305V68.17h-1.247v-5.864h-2.075v-1.02h2.075v-3.981h1.247zm-7.28 7.328c1.727-.013 2.963-.072 4.378-.312l.108.996c-1.548.275-2.902.323-4.87.323h-.851v-7.376h5.025v1.02h-3.79v2.027h3.346v.982h-3.345v2.34zM333.836 17.084l-.348-1.187c-.3-.959-.563-1.943-.84-2.938h-.047c-.252 1.007-.528 1.979-.816 2.938l-.36 1.187h2.41zm.336 1.092h-3.07l-.756 2.518h-1.415l2.926-8.827h1.607l2.927 8.827h-1.476l-.743-2.518zM338.95 16.018h1.33c1.283 0 1.98-.528 1.98-1.596 0-1.067-.697-1.44-1.98-1.44h-1.33v3.036zm3.43 4.677l-2.004-3.562h-1.427v3.562h-1.392v-8.827h2.891c1.823 0 3.19.647 3.19 2.554 0 1.367-.73 2.183-1.846 2.53l2.158 3.743h-1.57zM350.014 20.455h6.368v.994h-7.603V18.26h1.235v2.195zm4.929-7.197c.012-.335.012-.67.012-1.007h-6.25v-.995h7.473v.97c0 1.02 0 2.124-.3 3.575l-1.222-.096c.119-.552.179-1.056.227-1.523l-6.284.276-.168-1.02 6.512-.18zm2.399 3.178v.996h-9.763v-.996h3.814v-1.45h1.247v1.45h4.702zM366.595 18.907h1.175v-8.12h-1.175v8.12zm-2.087-4.101h-1.283v-1.007h1.283v-2.795h1.151v7.64h-1.151v-3.838zm3.561 5.6v1.008h-7.399V18.02h1.247v2.386h6.152zm-4.353-3.441c-1.236.227-2.267.264-3.945.264h-.709v-5.566h4.09v.995h-2.902v1.272h2.494v.96h-2.494v1.354c1.367-.012 2.278-.059 3.346-.264l.12.985zM370.114 16.64c2.255-.335 3.742-1.69 3.802-3.226h-3.394v-1.007h3.406v-1.403h1.236v1.403h3.393v1.007h-3.38c.058 1.536 1.545 2.89 3.8 3.227l-.467 1.02c-1.824-.325-3.262-1.224-3.97-2.495-.707 1.27-2.147 2.17-3.958 2.495l-.468-1.02zm-.468 3.659h9.811v-1.02h-9.81v1.02zM528.796 8.9L528.796 9.92 518.985 9.92 518.985 8.9 523.255 8.9 523.255 6.345 520.185 6.345 520.185 1.201 527.597 1.201 527.597 2.196 521.42 2.196 521.42 5.35 527.693 5.35 527.693 6.345 524.49 6.345 524.49 8.9zM535.507 4.523h2.255V3.204h-2.255v1.319zm3.743 5.481v1.008h-7.305V7.569h1.248v2.435h6.057zm-7.545-4.521h2.603V2.269h-2.603v3.214zm3.802.984h-5.013V1.285h5.013v.911h2.255V.385h1.236v7.904h-1.236v-2.77h-2.255v.948zM541.09 11.911c.815-.336 1.295-.936 1.308-1.644-.049.012-.084.012-.133.012-.49 0-.923-.31-.923-.887 0-.54.432-.887.96-.887.671 0 1.066.563 1.066 1.487 0 1.26-.73 2.231-1.966 2.698l-.312-.779zM506.591 16.385v10.818h-1.175v-5.588h-1.235v5.084h-1.164v-10.11h1.164v4.019h1.235v-4.223h1.175zm-7.735 7.029h1.871v-4.857h-1.87v4.857zm-1.152.982h4.174v-6.824h-4.174v6.824zM517.056 20.932h-7.46v-4.03h1.247v3.022h6.213v1.008zm1.127 2.398h-2.41v3.898h-1.236V23.33h-2.518v3.898h-1.235V23.33h-2.4v-1.007h9.8v1.007zM528.755 26.112v.972h-7.399v-2.843h5.816v-.888h-5.829v-.959h7.053v2.758h-5.818v.96h6.177zm-6.356-5.445c.935 0 1.63-.587 1.63-1.476 0-.887-.695-1.475-1.63-1.475-.959 0-1.643.588-1.643 1.475 0 .89.684 1.476 1.643 1.476zm2.758-.984c-.228 1.176-1.319 1.991-2.758 1.991-1.63 0-2.83-1.032-2.83-2.483 0-1.45 1.2-2.482 2.83-2.482 1.427 0 2.506.792 2.747 1.966h2.002v-2.302h1.248v5.481h-1.248v-2.17h-1.99zM535.61 26.053h6.369v.994h-7.603v-3.19h1.235v2.196zm4.93-7.197c.012-.335.012-.671.012-1.007h-6.25v-.995h7.473v.97c0 1.02 0 2.124-.3 3.575l-1.222-.096c.119-.552.179-1.056.227-1.523l-6.284.276-.168-1.02 6.512-.18zm2.399 3.178v.996h-9.763v-.996h3.814v-1.451h1.247v1.45h4.702zM552.192 24.505h1.175v-8.12h-1.175v8.12zm-2.087-4.102h-1.283v-1.007h1.283v-2.794h1.151v7.639h-1.151v-3.838zm3.562 5.601v1.008h-7.4v-3.395h1.247v2.387h6.153zm-4.354-3.442c-1.235.228-2.267.264-3.945.264h-.708v-5.565h4.09v.995h-2.903v1.271h2.494v.96h-2.494v1.355c1.367-.012 2.278-.06 3.346-.264l.12.984zM555.711 22.238c2.255-.336 3.742-1.69 3.802-3.227h-3.394v-1.007h3.406v-1.403h1.236v1.403h3.393v1.007h-3.38c.058 1.536 1.545 2.891 3.8 3.227l-.467 1.02c-1.824-.325-3.262-1.224-3.97-2.495-.708 1.271-2.147 2.17-3.958 2.495l-.468-1.02zm-.468 3.658h9.811v-1.02h-9.81v1.02z" transform="translate(25 32) translate(33 19.047)"/>
                </g>
            </g>
        </g>
    </g>
</svg>
