<svg xmlns="http://www.w3.org/2000/svg" xmlns:xlink="http://www.w3.org/1999/xlink" width="780" height="210" viewBox="0 0 780 210">
    <defs>
        <path id="bq3l0918na" d="M0 0H780V210H0z"/>
        <path id="tftapfmpjc" d="M0.627 0.676L147.301 0.676 147.301 18.676 0.627 18.676z"/>
        <path id="uizvrarvae" d="M0 195L772.301 195 772.301 0.775 0 0.775z"/>
        <path id="n4d1p9z36g" d="M0.751 7.261L0.751 20.293 12.037 26.809 23.323 20.293 23.323 7.261 12.037 0.745z"/>
        <path id="44gaid8dmi" d="M0.971 13.293L12.037 19.613 12.037 6.778 0.971 0.388z"/>
        <path id="ehunfz88dk" d="M.751 7.261v13.032l11.286 6.516 11.286-6.516V7.261L12.037.745.751 7.261zm.388 12.809V7.484l10.898-6.292 10.898 6.292V20.07l-10.898 6.291L1.139 20.07z"/>
        <path id="gai37zhvpm" d="M0 195L772.301 195 772.301 0.775 0 0.775z"/>
    </defs>
    <g fill="none" fill-rule="evenodd">
        <g>
            <g>
                <g>
                    <g>
                        <g transform="translate(-760 -6963) translate(0 2554) translate(319 636) translate(61 3636) translate(380 137)">
                            <mask id="8413rhv1jb" fill="#fff">
                                <use xlink:href="#bq3l0918na"/>
                            </mask>
                            <use fill="#F8F9FB" xlink:href="#bq3l0918na"/>
                            <g mask="url(#8413rhv1jb)">
                                <g>
                                    <text font-family="NotoSansCJKkr-Medium, Noto Sans CJK KR" font-size="12" font-weight="400" transform="translate(-2 -1)">
                                        <tspan x="32.522" y="162.902" fill="#000">2D CAD(d</tspan> <tspan x="85.874" y="162.902" fill="#000" letter-spacing="-.337">r</tspan> <tspan x="90.108" y="162.902" fill="#000">awin</tspan> <tspan x="117.876" y="162.902" fill="#000" letter-spacing=".144">g</tspan> <tspan x="125.1" y="162.902" fill="#000">)</tspan>
                                    </text>
                                    <text font-family="NotoSansCJKkr-Medium, Noto Sans CJK KR" font-size="12" font-weight="400" letter-spacing="-.312" transform="translate(-2 -1)">
                                        <tspan x="49.592" y="178.901" fill="#000">c</tspan> <tspan x="55.172" y="178.901" fill="#000">on</tspan> <tspan x="70.028" y="178.901" fill="#000" letter-spacing="-.072">v</tspan> <tspan x="76.424" y="178.901" fill="#000">e</tspan> <tspan x="83.204" y="178.901" fill="#000" letter-spacing="-.072">r</tspan> <tspan x="87.968" y="178.901" fill="#000">sion</tspan>
                                    </text>
                                    <path stroke="#C5C8CF" stroke-width=".75" d="M222.993 85.611L147.386 85.611" transform="translate(-2 -1)"/>
                                    <path fill="#C5C8CF" d="M217.017 85.611L217.017 80.848 221.141 83.23 225.265 85.611 221.141 87.992 217.017 90.373z" transform="translate(-2 -1)"/>
                                    <path stroke="#C5C8CF" stroke-width=".75" d="M629.236 85.611L551.777 85.611" transform="translate(-2 -1)"/>
                                    <path fill="#C5C8CF" d="M623.26 85.611L623.26 80.848 627.384 83.23 631.508 85.611 627.384 87.992 623.26 90.373z" transform="translate(-2 -1)"/>
                                    <path stroke="#C5C8CF" stroke-width=".75" d="M441.963 85.611L364.503 85.611" transform="translate(-2 -1)"/>
                                    <path fill="#C5C8CF" d="M435.987 85.611L435.987 80.848 440.111 83.23 444.235 85.611 440.111 87.992 435.987 90.373z" transform="translate(-2 -1)"/>
                                    <g transform="translate(-2 -1) translate(625 148.225)">
                                        <mask id="l5w36dgxud" fill="#fff">
                                            <use xlink:href="#tftapfmpjc"/>
                                        </mask>
                                        <text fill="#000" font-family="NotoSansCJKkr-Medium, Noto Sans CJK KR" font-size="12" font-weight="400" mask="url(#l5w36dgxud)">
                                            <tspan x=".627" y="14.676">AR blueprint visuali</tspan> <tspan x="111.951" y="14.676" letter-spacing="-.277">z</tspan> <tspan x="117.278" y="14.676" letter-spacing="-.204">a</tspan> <tspan x="123.77" y="14.676">tion</tspan>
                                        </text>
                                    </g>
                                    <text font-family="NotoSansCJKkr-Medium, Noto Sans CJK KR" font-size="12" font-weight="400" transform="translate(-2 -1)">
                                        <tspan x="367.474" y="53.58" fill="#000">AR blueprint</tspan>
                                    </text>
                                    <text font-family="NotoSansCJKkr-Medium, Noto Sans CJK KR" font-size="12" font-weight="400" letter-spacing=".264" transform="translate(-2 -1)">
                                        <tspan x="390.43" y="69.576" fill="#000">d</tspan> <tspan x="398.254" y="69.576" fill="#000" letter-spacing=".06">a</tspan> <tspan x="405.01" y="69.576" fill="#000" letter-spacing="-.024">ta</tspan>
                                    </text>
                                    <text font-family="NotoSansCJKkr-Medium, Noto Sans CJK KR" font-size="12" font-weight="400" transform="translate(-2 -1)">
                                        <tspan x="554.758" y="53.58" fill="#000">AR blueprint</tspan>
                                    </text>
                                    <text font-family="NotoSansCJKkr-Medium, Noto Sans CJK KR" font-size="12" font-weight="400" letter-spacing=".264" transform="translate(-2 -1)">
                                        <tspan x="577.714" y="69.576" fill="#000">d</tspan> <tspan x="585.538" y="69.576" fill="#000" letter-spacing=".06">a</tspan> <tspan x="592.294" y="69.576" fill="#000" letter-spacing="-.024">ta</tspan>
                                    </text>
                                    <text font-family="NotoSansCJKkr-Medium, Noto Sans CJK KR" font-size="12" font-weight="400" transform="translate(-2 -1)">
                                        <tspan x="152.83" y="67.98" fill="#000">3D d</tspan> <tspan x="178.318" y="67.98" fill="#000" letter-spacing="-.335">r</tspan> <tspan x="182.555" y="67.98" fill="#000">awing</tspan>
                                    </text>
                                    <text font-family="NotoSansCJKkr-Medium, Noto Sans CJK KR" font-size="12" font-weight="400" transform="translate(-2 -1)">
                                        <tspan x="226.018" y="162.9" fill="#000">Print / edit AR blueprint</tspan>
                                    </text>
                                    <g transform="translate(-2 -1) translate(0 .225)">
                                        <path fill="#FFF" d="M349.941 85.508c0 31.125-25.232 56.357-56.357 56.357s-56.357-25.232-56.357-56.357S262.46 29.15 293.584 29.15s56.357 25.232 56.357 56.357"/>
                                        <path stroke="#C5C8CF" stroke-width=".75" d="M349.941 85.508c0 31.125-25.232 56.357-56.357 56.357s-56.357-25.232-56.357-56.357S262.46 29.15 293.584 29.15s56.357 25.232 56.357 56.357z"/>
                                        <path fill="#273A5B" d="M291.845 86.083L287.25 78.738 287.215 78.682 285.305 78.682 285.305 92.323 287.268 92.323 287.268 84.244 287.204 82.317 291.238 88.71 291.274 88.767 292.417 88.767 296.487 82.318 296.423 84.248 296.423 92.323 298.385 92.323 298.385 78.682 296.476 78.682zM306.661 88.272c-.014.66-.288 1.247-.813 1.742-.541.514-1.166.773-1.853.773-.483 0-.908-.144-1.264-.424-.353-.278-.526-.612-.526-1.028 0-.461.215-.84.653-1.156.445-.32 1.01-.483 1.678-.483.901 0 1.616.195 2.125.576m-2.42-5.72c-1.426 0-2.704.624-3.695 1.806l-.072.085 1.375 1.374.084-.104c.415-.517 1.267-1.384 2.332-1.384.726 0 1.259.184 1.728.596.45.398.67.868.67 1.436v.191c-.65-.32-1.459-.48-2.406-.48-1.22 0-2.212.29-2.947.867-.745.583-1.123 1.377-1.123 2.359 0 .93.356 1.716 1.06 2.337.7.615 1.58.927 2.616.927 1.144 0 2.084-.477 2.8-1.421v1.185h1.887v-5.834c0-1.216-.385-2.188-1.142-2.889-.747-.686-1.84-1.05-3.167-1.05M318.492 83.16L318.492 82.915 316.113 82.915 312.316 86.764 312.316 78.685 312.076 78.685 310.353 80.174 310.353 92.325 312.316 92.325 312.316 89.317 313.579 88.071 316.397 92.325 318.66 92.325 318.66 92.094 314.953 86.681z"/>
                                        <path fill="#273A5B" d="M320.697 86.405c.163-.625.456-1.13.852-1.469.443-.379.981-.57 1.597-.57.752 0 1.358.2 1.801.597.396.354.651.862.725 1.442h-4.975zm7.063 1.355c0-1.632-.429-2.963-1.239-3.849-.825-.902-1.948-1.359-3.337-1.359-1.353 0-2.479.482-3.347 1.433-.854.937-1.305 2.197-1.305 3.645 0 1.41.44 2.557 1.344 3.513.893.945 2.044 1.423 3.42 1.423.941 0 1.796-.225 2.542-.673.598-.357 1.167-.9 1.562-1.492l.057-.085-1.406-1.299-.078.118c-.662.998-1.586 1.546-2.602 1.546-.836 0-1.464-.228-1.976-.718-.544-.52-.81-1.109-.857-1.894h7.191l.031-.309z"/>
                                        <path fill="#6FB6FB" d="M260.827 86.108L259.409 86.926 259.42 90.52 268.11 85.507 264.988 83.706zM276.808 86.927L275.389 86.109 271.229 83.706 268.11 85.508 276.808 90.531z"/>
                                        <path fill="#BFDCFF" d="M276.808 86.927L276.808 90.531 268.109 95.553 268.109 91.949 269.527 91.13z"/>
                                        <path fill="#007CF7" d="M259.411 86.927L259.411 90.531 268.11 95.553 268.11 91.949 266.692 91.13z"/>
                                        <path fill="#6FB6FB" d="M275.389 79.667L268.108 75.464 260.827 79.667 259.409 80.486 259.42 84.079 268.113 79.063 276.808 84.089 276.808 80.486z"/>
                                        <path fill="#BFDCFF" d="M276.808 80.485L276.808 84.089 268.109 89.111 268.109 85.507 269.527 84.689z"/>
                                        <path fill="#007CF7" d="M259.411 80.485L259.411 84.089 268.11 89.111 268.11 85.507 266.692 84.689z"/>
                                        <path fill="#FFF" d="M755.32 85.508c0 31.125-25.231 56.357-56.356 56.357-31.126 0-56.358-25.232-56.358-56.357s25.232-56.357 56.358-56.357c31.125 0 56.357 25.232 56.357 56.357"/>
                                        <path stroke="#C5C8CF" stroke-width=".75" d="M755.32 85.508c0 31.125-25.231 56.357-56.356 56.357-31.126 0-56.358-25.232-56.358-56.357s25.232-56.357 56.358-56.357c31.125 0 56.357 25.232 56.357 56.357z"/>
                                        <mask id="fmlf6pkbdf" fill="#fff">
                                            <use xlink:href="#uizvrarvae"/>
                                        </mask>
                                        <path fill="#273A5B" d="M704.704 93.305L706.665 93.305 706.665 83.602 704.704 83.602zM704.617 81.811L706.754 81.811 706.754 79.673 704.617 79.673zM730.147 83.9L728.203 90.563 726.024 83.9 724.072 83.9 721.892 90.563 719.956 83.986 719.929 83.9 717.877 83.9 720.884 93.222 720.911 93.305 722.827 93.305 725.002 86.545 727.196 93.305 729.128 93.305 732.162 83.9zM711.455 85.916c.443-.379.981-.571 1.6-.571.753 0 1.359.202 1.802.597.398.355.652.865.726 1.446h-4.981c.163-.627.457-1.134.853-1.472m1.636-2.386c-1.352 0-2.48.483-3.35 1.435-.853.937-1.305 2.198-1.305 3.647 0 1.41.44 2.561 1.343 3.517.895.945 2.048 1.425 3.426 1.425.94 0 1.798-.226 2.543-.673.598-.358 1.167-.902 1.563-1.493l.058-.086-1.407-1.299-.078.117c-.663.998-1.587 1.548-2.606 1.548-.835 0-1.464-.229-1.977-.72-.537-.514-.813-1.119-.859-1.895h7.22l.005-.115c.005-.099.005-.194.005-.194 0-1.634-.428-2.967-1.24-3.853-.826-.904-1.95-1.361-3.34-1.361M697.041 90.424L692.937 79.676 690.771 79.676 696.029 93.228 696.06 93.305 698.019 93.305 703.393 79.841 703.459 79.676 701.292 79.676z" mask="url(#fmlf6pkbdf)"/>
                                        <path fill="#6FB6FB" d="M678.874 79.114L674.466 76.569 672.037 77.97 678.859 84.793z" mask="url(#fmlf6pkbdf)"/>
                                        <path fill="#007CF7" d="M678.86 88.433L683.164 83.942 683.164 81.591 678.874 79.114z" mask="url(#fmlf6pkbdf)"/>
                                        <path fill="#0065C7" d="M670.047 94.108L674.464 96.659 676.896 95.254 670.069 88.434z" mask="url(#fmlf6pkbdf)"/>
                                        <path fill="#BFDCFF" d="M665.767 82.219L665.767 81.591 672.038 77.971 676.286 82.219z" mask="url(#fmlf6pkbdf)"/>
                                        <path fill="#DEEDFF" d="M665.767 82.219L665.767 89.095 672.644 82.219z" mask="url(#fmlf6pkbdf)"/>
                                        <path fill="#007CF7" d="M670.07 84.793L665.766 89.095 665.766 91.636 669.952 94.052 670.066 94.119z" mask="url(#fmlf6pkbdf)"/>
                                        <path fill="#6FB6FB" d="M683.163 91.636L676.895 95.255 672.644 91.009 683.163 91.009z" mask="url(#fmlf6pkbdf)"/>
                                        <path fill="#007CF7" d="M674.426 83.877c-1.489 0-2.696 1.207-2.696 2.696s1.207 2.696 2.696 2.696c1.49 0 2.695-1.207 2.695-2.696s-1.206-2.696-2.695-2.696" mask="url(#fmlf6pkbdf)"/>
                                        <path fill="#FFF" d="M675.786 84.44c-.427 0-.773.346-.773.772 0 .428.346.774.773.774.427 0 .773-.346.773-.774 0-.426-.346-.772-.773-.772" mask="url(#fmlf6pkbdf)"/>
                                        <path fill="#BFDCFF" d="M676.285 91.009L678.86 88.433 683.163 83.943 683.163 91.009z" mask="url(#fmlf6pkbdf)"/>
                                        <path fill="#FFF" d="M137.394 85.508c0 31.125-25.232 56.357-56.357 56.357S24.68 116.633 24.68 85.508 49.912 29.15 81.037 29.15s56.357 25.232 56.357 56.357" mask="url(#fmlf6pkbdf)"/>
                                        <path stroke="#C5C8CF" stroke-width=".75" d="M137.394 85.508c0 31.125-25.232 56.357-56.357 56.357S24.68 116.633 24.68 85.508 49.912 29.15 81.037 29.15s56.357 25.232 56.357 56.357z" mask="url(#fmlf6pkbdf)"/>
                                        <path stroke="#231916" stroke-linejoin="round" stroke-width=".485" d="M105.842 83.367c-.164 0-.326.005-.485.014" mask="url(#fmlf6pkbdf)"/>
                                        <path stroke="#231916" stroke-dasharray=".98 .98" stroke-linejoin="round" stroke-width=".485" d="M104.384 83.496c-2.181.396-3.866 1.655-4.744 3.188-.998 1.743-3.288 3.316-6.2 3.316-3.425 0-4.806-1.564-6.202-3.316-1.33-1.672-2.776-3.318-6.201-3.318-3.424 0-5.177 1.493-6.201 3.318C73.856 88.431 72.06 90 68.635 90c-2.661 0-4.806-1.564-6.201-3.316-1.17-1.47-2.94-2.919-5.228-3.249" mask="url(#fmlf6pkbdf)"/>
                                        <path stroke="#231916" stroke-linejoin="round" stroke-width=".485" d="M56.717 83.384c-.159-.011-.32-.017-.485-.017" mask="url(#fmlf6pkbdf)"/>
                                        <path stroke="#0A51B7" stroke-width=".485" d="M105.842 90c-2.803 0-5.137-1.458-6.202-3.316-.998-1.744-3.476-3.317-6.2-3.317-2.781 0-4.806 1.563-6.202 3.317C85.908 88.355 84.462 90 81.037 90s-5.177-1.492-6.201-3.316c-.98-1.747-3.27-3.317-6.201-3.317-2.661 0-4.806 1.563-6.201 3.317C61.104 88.355 59.657 90 56.232 90" mask="url(#fmlf6pkbdf)"/>
                                    </g>
                                    <g transform="translate(-2 -1) translate(69 73.225)">
                                        <mask id="5v8bxum56h" fill="#fff">
                                            <use xlink:href="#n4d1p9z36g"/>
                                        </mask>
                                        <path fill="#FFF" d="M-1.672 29.231L25.745 29.231 25.745 -1.678 -1.672 -1.678z" mask="url(#5v8bxum56h)"/>
                                    </g>
                                    <g transform="translate(-2 -1) translate(69 80.225)">
                                        <mask id="aobcv3uakj" fill="#fff">
                                            <use xlink:href="#44gaid8dmi"/>
                                        </mask>
                                        <path fill="#0A51B7" d="M-1.452 22.035L14.46 22.035 14.46 -2.035 -1.452 -2.035z" mask="url(#aobcv3uakj)"/>
                                    </g>
                                    <g transform="translate(-2 -1) translate(69 73.225)">
                                        <mask id="ivnfljl8vl" fill="#fff">
                                            <use xlink:href="#ehunfz88dk"/>
                                        </mask>
                                        <path fill="#000" d="M-1.672 29.231L25.745 29.231 25.745 -1.678 -1.672 -1.678z" mask="url(#ivnfljl8vl)"/>
                                    </g>
                                    <g stroke="#000">
                                        <path stroke-width=".388" d="M24.037 35.612L24.037 22.777M12.971 16.388L24.037 22.778M24.037 22.777L35.072 16.406" transform="translate(-2 -1) translate(57 64.225)"/>
                                        <path stroke-width=".779" d="M43.415.154L47.128.154 47.128 3.867M4.66.154L.948.154.948 3.867M4.66 45.212L.948 45.212.948 41.5M43.415 45.212L47.128 45.212 47.128 41.5" transform="translate(-2 -1) translate(57 64.225)"/>
                                    </g>
                                    <text font-family="NotoSansCJKkr-Bold, Noto Sans CJK KR" font-size="18" font-weight="bold" transform="translate(-2 -1)">
                                        <tspan x="446.658" y="125.314" fill="#092E6E">AR Con</tspan> <tspan x="509.19" y="125.314" fill="#092E6E" letter-spacing="-.344">t</tspan> <tspan x="516.064" y="125.314" fill="#092E6E">ent</tspan>
                                    </text>
                                    <text font-family="NotoSansCJKkr-Bold, Noto Sans CJK KR" font-size="18" font-weight="bold" transform="translate(-2 -1)">
                                        <tspan x="407.13" y="147.31" fill="#092E6E">Mana</tspan> <tspan x="455.316" y="147.31" fill="#092E6E" letter-spacing="-.344">g</tspan> <tspan x="465.376" y="147.31" fill="#092E6E">ement Se</tspan> <tspan x="548.518" y="147.31" fill="#092E6E" letter-spacing=".252">r</tspan> <tspan x="556.87" y="147.31" fill="#092E6E" letter-spacing="-.144">v</tspan> <tspan x="566.95" y="147.31" fill="#092E6E">er</tspan>
                                    </text>
                                    <g transform="translate(-2 -1) translate(0 .225)">
                                        <path fill="#E6E8EB" d="M475.23 65.315L475.23 96.655 513.063 96.655 513.063 65.024z"/>
                                        <path stroke="#000" stroke-width=".565" d="M475.23 65.315L475.23 96.655 513.063 96.655 513.063 65.024z"/>
                                        <path fill="#FFF" d="M473.987 65.263c-1.382 0-2.507-1.125-2.507-2.507V56.6c0-1.382 1.125-2.507 2.507-2.507h40.176c1.383 0 2.507 1.125 2.507 2.507v6.155c0 1.382-1.124 2.507-2.507 2.507h-40.176z"/>
                                        <path fill="#000" d="M514.163 53.812h-40.175c-1.534 0-2.79 1.255-2.79 2.788v6.155c0 1.535 1.256 2.79 2.79 2.79h40.175c1.534 0 2.79-1.255 2.79-2.79V56.6c0-1.534-1.255-2.788-2.79-2.788m0 .564c1.227 0 2.226.998 2.226 2.224v6.155c0 1.227-.999 2.226-2.226 2.226h-40.175c-1.228 0-2.226-.998-2.226-2.225V56.6c0-1.227.998-2.224 2.226-2.224h40.175"/>
                                        <path fill="#FFF" d="M473.987 79.518c-1.382 0-2.507-1.125-2.507-2.507v-6.155c0-1.382 1.125-2.507 2.507-2.507h40.176c1.383 0 2.507 1.125 2.507 2.507v6.155c0 1.382-1.124 2.507-2.507 2.507h-40.176z"/>
                                        <path fill="#000" d="M514.163 68.066h-40.175c-1.534 0-2.79 1.256-2.79 2.79v6.154c0 1.535 1.256 2.79 2.79 2.79h40.175c1.534 0 2.79-1.255 2.79-2.79v-6.155c0-1.533-1.255-2.789-2.79-2.789m0 .564c1.227 0 2.226.998 2.226 2.225v6.155c0 1.227-.999 2.225-2.226 2.225h-40.175c-1.228 0-2.226-.998-2.226-2.225v-6.155c0-1.227.998-2.225 2.226-2.225h40.175"/>
                                        <path fill="#FFF" d="M473.987 93.692c-1.382 0-2.507-1.125-2.507-2.507V85.03c0-1.382 1.125-2.507 2.507-2.507h40.176c1.383 0 2.507 1.125 2.507 2.507v6.155c0 1.382-1.124 2.507-2.507 2.507h-40.176z"/>
                                        <path fill="#000" d="M514.163 82.241h-40.175c-1.534 0-2.79 1.255-2.79 2.79v6.154c0 1.535 1.256 2.79 2.79 2.79h40.175c1.534 0 2.79-1.255 2.79-2.79v-6.154c0-1.535-1.255-2.79-2.79-2.79m0 .564c1.227 0 2.226.998 2.226 2.226v6.154c0 1.227-.999 2.225-2.226 2.225h-40.175c-1.228 0-2.226-.998-2.226-2.225v-6.154c0-1.228.998-2.226 2.226-2.226h40.175"/>
                                        <path fill="#0A51B7" d="M499.68 61.283c-.885 0-1.605-.72-1.605-1.604 0-.885.72-1.606 1.605-1.606s1.605.721 1.605 1.606c0 .884-.72 1.604-1.605 1.604"/>
                                        <path fill="#000" d="M499.68 57.791c-1.042 0-1.888.845-1.888 1.887 0 1.043.846 1.888 1.888 1.888 1.042 0 1.887-.845 1.887-1.888 0-1.042-.845-1.887-1.887-1.887m0 .564c.729 0 1.323.594 1.323 1.323 0 .73-.594 1.324-1.323 1.324s-1.323-.594-1.323-1.324c0-.729.594-1.323 1.323-1.323"/>
                                        <path fill="#0A51B7" d="M505.501 61.283c-.885 0-1.605-.72-1.605-1.604 0-.885.72-1.606 1.605-1.606s1.605.721 1.605 1.606c0 .884-.72 1.604-1.605 1.604"/>
                                        <path fill="#000" d="M505.501 57.791c-1.042 0-1.887.845-1.887 1.887 0 1.043.845 1.888 1.887 1.888s1.888-.845 1.888-1.888c0-1.042-.846-1.887-1.888-1.887m0 .564c.73 0 1.323.594 1.323 1.323 0 .73-.594 1.324-1.323 1.324s-1.323-.594-1.323-1.324c0-.729.594-1.323 1.323-1.323"/>
                                        <path fill="#0A51B7" d="M511.323 61.283c-.885 0-1.605-.72-1.605-1.604 0-.885.72-1.606 1.605-1.606s1.605.721 1.605 1.606c0 .884-.72 1.604-1.605 1.604"/>
                                        <path fill="#000" d="M511.323 57.791c-1.042 0-1.888.845-1.888 1.887 0 1.043.846 1.888 1.888 1.888 1.043 0 1.887-.845 1.887-1.888 0-1.042-.844-1.887-1.887-1.887m0 .564c.73 0 1.323.594 1.323 1.323 0 .73-.594 1.324-1.323 1.324S510 60.408 510 59.678c0-.729.594-1.323 1.323-1.323"/>
                                        <path fill="#0A51B7" d="M499.68 75.538c-.885 0-1.605-.72-1.605-1.604 0-.885.72-1.606 1.605-1.606s1.605.721 1.605 1.606c0 .884-.72 1.604-1.605 1.604"/>
                                        <path fill="#000" d="M499.68 72.046c-1.042 0-1.888.845-1.888 1.888 0 1.042.846 1.886 1.888 1.886 1.042 0 1.887-.844 1.887-1.886 0-1.043-.845-1.888-1.887-1.888m0 .564c.729 0 1.323.593 1.323 1.324 0 .728-.594 1.322-1.323 1.322s-1.323-.594-1.323-1.322c0-.731.594-1.324 1.323-1.324"/>
                                        <path fill="#0A51B7" d="M505.501 75.538c-.885 0-1.605-.72-1.605-1.604 0-.885.72-1.606 1.605-1.606s1.605.721 1.605 1.606c0 .884-.72 1.604-1.605 1.604"/>
                                        <path fill="#000" d="M505.501 72.046c-1.042 0-1.887.845-1.887 1.888 0 1.042.845 1.886 1.887 1.886s1.888-.844 1.888-1.886c0-1.043-.846-1.888-1.888-1.888m0 .564c.73 0 1.323.593 1.323 1.324 0 .728-.594 1.322-1.323 1.322s-1.323-.594-1.323-1.322c0-.731.594-1.324 1.323-1.324"/>
                                        <path fill="#0A51B7" d="M511.323 75.538c-.885 0-1.605-.72-1.605-1.604 0-.885.72-1.606 1.605-1.606s1.605.721 1.605 1.606c0 .884-.72 1.604-1.605 1.604"/>
                                        <path fill="#000" d="M511.323 72.046c-1.042 0-1.888.845-1.888 1.888 0 1.042.846 1.886 1.888 1.886 1.043 0 1.887-.844 1.887-1.886 0-1.043-.844-1.888-1.887-1.888m0 .564c.73 0 1.323.593 1.323 1.324 0 .728-.594 1.322-1.323 1.322S510 74.662 510 73.934c0-.731.594-1.324 1.323-1.324"/>
                                        <path fill="#0A51B7" d="M499.68 89.713c-.885 0-1.605-.72-1.605-1.604 0-.885.72-1.606 1.605-1.606s1.605.72 1.605 1.606c0 .884-.72 1.604-1.605 1.604"/>
                                        <path fill="#000" d="M499.68 86.22c-1.042 0-1.888.847-1.888 1.889s.846 1.887 1.888 1.887c1.042 0 1.887-.845 1.887-1.887s-.845-1.888-1.887-1.888m0 .564c.729 0 1.323.594 1.323 1.324 0 .729-.594 1.323-1.323 1.323s-1.323-.594-1.323-1.323c0-.73.594-1.324 1.323-1.324"/>
                                        <path fill="#0A51B7" d="M505.501 89.713c-.885 0-1.605-.72-1.605-1.604 0-.885.72-1.606 1.605-1.606s1.605.72 1.605 1.606c0 .884-.72 1.604-1.605 1.604"/>
                                        <path fill="#000" d="M505.501 86.22c-1.042 0-1.887.847-1.887 1.889s.845 1.887 1.887 1.887 1.888-.845 1.888-1.887-.846-1.888-1.888-1.888m0 .564c.73 0 1.323.594 1.323 1.324 0 .729-.594 1.323-1.323 1.323s-1.323-.594-1.323-1.323c0-.73.594-1.324 1.323-1.324"/>
                                        <path fill="#0A51B7" d="M511.323 89.713c-.885 0-1.605-.72-1.605-1.604 0-.885.72-1.606 1.605-1.606s1.605.72 1.605 1.606c0 .884-.72 1.604-1.605 1.604"/>
                                        <path fill="#000" d="M511.323 86.22c-1.042 0-1.888.847-1.888 1.889s.846 1.887 1.888 1.887c1.043 0 1.887-.845 1.887-1.887s-.844-1.888-1.887-1.888m0 .564c.73 0 1.323.594 1.323 1.324 0 .729-.594 1.323-1.323 1.323S510 88.838 510 88.109c0-.73.594-1.324 1.323-1.324"/>
                                        <g>
                                            <path fill="#FFF" d="M1.034 0.58L1.034 6.776" transform="translate(475 56)"/>
                                            <path stroke="#000" stroke-width=".565" d="M1.034 0.58L1.034 6.776" transform="translate(475 56)"/>
                                        </g>
                                        <g>
                                            <path fill="#FFF" d="M1.235 0.58L1.235 6.776" transform="translate(478 56)"/>
                                            <path stroke="#000" stroke-width=".565" d="M1.235 0.58L1.235 6.776" transform="translate(478 56)"/>
                                        </g>
                                        <g>
                                            <path fill="#FFF" d="M1.436 0.58L1.436 6.776" transform="translate(481 56)"/>
                                            <path stroke="#000" stroke-width=".565" d="M1.436 0.58L1.436 6.776" transform="translate(481 56)"/>
                                        </g>
                                        <g>
                                            <path fill="#FFF" d="M0.637 0.58L0.637 6.776" transform="translate(485 56)"/>
                                            <path stroke="#000" stroke-width=".565" d="M0.637 0.58L0.637 6.776" transform="translate(485 56)"/>
                                        </g>
                                        <g>
                                            <path fill="#FFF" d="M0.838 0.58L0.838 6.776" transform="translate(488 56)"/>
                                            <path stroke="#000" stroke-width=".565" d="M0.838 0.58L0.838 6.776" transform="translate(488 56)"/>
                                        </g>
                                        <g>
                                            <path fill="#FFF" d="M1.039 0.58L1.039 6.776" transform="translate(491 56)"/>
                                            <path stroke="#000" stroke-width=".565" d="M1.039 0.58L1.039 6.776" transform="translate(491 56)"/>
                                        </g>
                                        <g>
                                            <path fill="#FFF" d="M0.634 0.58L0.634 6.776" transform="translate(477 56)"/>
                                            <path stroke="#000" stroke-width=".565" d="M0.634 0.58L0.634 6.776" transform="translate(477 56)"/>
                                        </g>
                                        <g>
                                            <path fill="#FFF" d="M0.835 0.58L0.835 6.776" transform="translate(480 56)"/>
                                            <path stroke="#000" stroke-width=".565" d="M0.835 0.58L0.835 6.776" transform="translate(480 56)"/>
                                        </g>
                                        <g>
                                            <path fill="#FFF" d="M1.036 0.58L1.036 6.776" transform="translate(483 56)"/>
                                            <path stroke="#000" stroke-width=".565" d="M1.036 0.58L1.036 6.776" transform="translate(483 56)"/>
                                        </g>
                                        <g>
                                            <path fill="#FFF" d="M1.238 0.58L1.238 6.776" transform="translate(486 56)"/>
                                            <path stroke="#000" stroke-width=".565" d="M1.238 0.58L1.238 6.776" transform="translate(486 56)"/>
                                        </g>
                                        <g>
                                            <path fill="#FFF" d="M1.439 0.58L1.439 6.776" transform="translate(489 56)"/>
                                            <path stroke="#000" stroke-width=".565" d="M1.439 0.58L1.439 6.776" transform="translate(489 56)"/>
                                        </g>
                                        <g>
                                            <path fill="#FFF" d="M1.034 0.835L1.034 7.031" transform="translate(475 70)"/>
                                            <path stroke="#000" stroke-width=".565" d="M1.034 0.835L1.034 7.031" transform="translate(475 70)"/>
                                        </g>
                                        <g>
                                            <path fill="#FFF" d="M1.235 0.835L1.235 7.031" transform="translate(478 70)"/>
                                            <path stroke="#000" stroke-width=".565" d="M1.235 0.835L1.235 7.031" transform="translate(478 70)"/>
                                        </g>
                                        <g>
                                            <path fill="#FFF" d="M1.436 0.835L1.436 7.031" transform="translate(481 70)"/>
                                            <path stroke="#000" stroke-width=".565" d="M1.436 0.835L1.436 7.031" transform="translate(481 70)"/>
                                        </g>
                                        <g>
                                            <path fill="#FFF" d="M0.637 0.835L0.637 7.031" transform="translate(485 70)"/>
                                            <path stroke="#000" stroke-width=".565" d="M0.637 0.835L0.637 7.031" transform="translate(485 70)"/>
                                        </g>
                                        <g>
                                            <path fill="#FFF" d="M0.838 0.835L0.838 7.031" transform="translate(488 70)"/>
                                            <path stroke="#000" stroke-width=".565" d="M0.838 0.835L0.838 7.031" transform="translate(488 70)"/>
                                        </g>
                                        <g>
                                            <path fill="#FFF" d="M1.039 0.835L1.039 7.031" transform="translate(491 70)"/>
                                            <path stroke="#000" stroke-width=".565" d="M1.039 0.835L1.039 7.031" transform="translate(491 70)"/>
                                        </g>
                                        <g>
                                            <path fill="#FFF" d="M0.634 0.835L0.634 7.031" transform="translate(477 70)"/>
                                            <path stroke="#000" stroke-width=".565" d="M0.634 0.835L0.634 7.031" transform="translate(477 70)"/>
                                        </g>
                                        <g>
                                            <path fill="#FFF" d="M0.835 0.835L0.835 7.031" transform="translate(480 70)"/>
                                            <path stroke="#000" stroke-width=".565" d="M0.835 0.835L0.835 7.031" transform="translate(480 70)"/>
                                        </g>
                                        <g>
                                            <path fill="#FFF" d="M1.036 0.835L1.036 7.031" transform="translate(483 70)"/>
                                            <path stroke="#000" stroke-width=".565" d="M1.036 0.835L1.036 7.031" transform="translate(483 70)"/>
                                        </g>
                                        <g>
                                            <path fill="#FFF" d="M1.238 0.835L1.238 7.031" transform="translate(486 70)"/>
                                            <path stroke="#000" stroke-width=".565" d="M1.238 0.835L1.238 7.031" transform="translate(486 70)"/>
                                        </g>
                                        <g>
                                            <path fill="#FFF" d="M1.439 0.835L1.439 7.031" transform="translate(489 70)"/>
                                            <path stroke="#000" stroke-width=".565" d="M1.439 0.835L1.439 7.031" transform="translate(489 70)"/>
                                        </g>
                                        <g>
                                            <path fill="#FFF" d="M1.034 0.09L1.034 6.286" transform="translate(475 85)"/>
                                            <path stroke="#000" stroke-width=".565" d="M1.034 0.09L1.034 6.286" transform="translate(475 85)"/>
                                        </g>
                                        <g>
                                            <path fill="#FFF" d="M1.235 0.09L1.235 6.286" transform="translate(478 85)"/>
                                            <path stroke="#000" stroke-width=".565" d="M1.235 0.09L1.235 6.286" transform="translate(478 85)"/>
                                        </g>
                                        <g>
                                            <path fill="#FFF" d="M1.436 0.09L1.436 6.286" transform="translate(481 85)"/>
                                            <path stroke="#000" stroke-width=".565" d="M1.436 0.09L1.436 6.286" transform="translate(481 85)"/>
                                        </g>
                                        <g>
                                            <path fill="#FFF" d="M0.637 0.09L0.637 6.286" transform="translate(485 85)"/>
                                            <path stroke="#000" stroke-width=".565" d="M0.637 0.09L0.637 6.286" transform="translate(485 85)"/>
                                        </g>
                                        <g>
                                            <path fill="#FFF" d="M0.838 0.09L0.838 6.286" transform="translate(488 85)"/>
                                            <path stroke="#000" stroke-width=".565" d="M0.838 0.09L0.838 6.286" transform="translate(488 85)"/>
                                        </g>
                                        <g>
                                            <path fill="#FFF" d="M1.039 0.09L1.039 6.286" transform="translate(491 85)"/>
                                            <path stroke="#000" stroke-width=".565" d="M1.039 0.09L1.039 6.286" transform="translate(491 85)"/>
                                        </g>
                                        <g>
                                            <path fill="#FFF" d="M0.634 0.09L0.634 6.286" transform="translate(477 85)"/>
                                            <path stroke="#000" stroke-width=".565" d="M0.634 0.09L0.634 6.286" transform="translate(477 85)"/>
                                        </g>
                                        <g>
                                            <path fill="#FFF" d="M0.835 0.09L0.835 6.286" transform="translate(480 85)"/>
                                            <path stroke="#000" stroke-width=".565" d="M0.835 0.09L0.835 6.286" transform="translate(480 85)"/>
                                        </g>
                                        <g>
                                            <path fill="#FFF" d="M1.036 0.09L1.036 6.286" transform="translate(483 85)"/>
                                            <path stroke="#000" stroke-width=".565" d="M1.036 0.09L1.036 6.286" transform="translate(483 85)"/>
                                        </g>
                                        <g>
                                            <path fill="#FFF" d="M1.238 0.09L1.238 6.286" transform="translate(486 85)"/>
                                            <path stroke="#000" stroke-width=".565" d="M1.238 0.09L1.238 6.286" transform="translate(486 85)"/>
                                        </g>
                                        <g>
                                            <path fill="#FFF" d="M1.439 0.09L1.439 6.286" transform="translate(489 85)"/>
                                            <path stroke="#000" stroke-width=".565" d="M1.439 0.09L1.439 6.286" transform="translate(489 85)"/>
                                        </g>
                                        <path fill="#E6E8EB" d="M508.871 85.225s.188-1.192 1.877-2.006c1.69-.814 5.93-1.965 11.11-1.25 5.18.715 6.54 2 6.54 2l.622 1.377v15.146s-.685 1.815-4.159 2.566c-3.473.75-10.389 1-13.706-.532 0 0-2.096-.876-2.284-2.191v-15.11z"/>
                                        <path stroke="#000" stroke-width=".565" d="M529.02 85.09s-.778-3.345-10.378-3.345-9.77 3.416-9.77 3.416v15.212s1.054 3.439 10.067 3.439c9.014 0 10.08-3.44 10.08-3.44l.001-15.282z"/>
                                        <path stroke="#000" stroke-width=".565" d="M508.871 90.54s1.125 3.296 10.205 3.21c9.08-.088 9.944-3.21 9.944-3.21M508.871 95.497s1.125 3.296 10.205 3.21c9.08-.087 9.944-3.21 9.944-3.21M508.871 85.582s1.125 3.296 10.205 3.209c9.08-.087 9.944-3.209 9.944-3.209"/>
                                    </g>
                                </g>
                            </g>
                        </g>
                    </g>
                </g>
            </g>
        </g>
    </g>
</svg>
