<svg xmlns="http://www.w3.org/2000/svg" xmlns:xlink="http://www.w3.org/1999/xlink" width="780" height="210" viewBox="0 0 780 210">
    <defs>
        <path id="5z0toqzmfa" d="M0 0H780V210H0z"/>
        <path id="cuj3f2epzc" d="M0 195L760.703 195 760.703 0.74 0 0.74z"/>
    </defs>
    <g fill="none" fill-rule="evenodd">
        <g>
            <g>
                <g>
                    <g>
                        <g transform="translate(-760 -6714) translate(0 2554) translate(320 636) translate(60 3387) translate(380 137)">
                            <mask id="xklkyy16nb" fill="#fff">
                                <use xlink:href="#5z0toqzmfa"/>
                            </mask>
                            <use fill="#F8F9FB" xlink:href="#5z0toqzmfa"/>
                            <g mask="url(#xklkyy16nb)">
                                <g>
                                    <text font-family="NotoSansCJKkr-Medium, Noto Sans CJK KR" font-size="12" font-weight="400" letter-spacing="-.132" transform="translate(3 -3)">
                                        <tspan x="19.298" y="162.936" fill="#000">R</tspan> <tspan x="26.894" y="162.936" fill="#000">em</tspan> <tspan x="44.978" y="162.936" fill="#000" letter-spacing="-.276">o</tspan> <tspan x="51.794" y="162.936" fill="#000" letter-spacing="-.204">t</tspan> <tspan x="56.138" y="162.936" fill="#000">e </tspan> <tspan x="65.618" y="162.936" fill="#000" letter-spacing="-.313">c</tspan> <tspan x="71.197" y="162.936" fill="#000">ollabo</tspan> <tspan x="107.533" y="162.936" fill="#000" letter-spacing="-.335">r</tspan> <tspan x="111.77" y="162.936" fill="#000" letter-spacing="-.204">a</tspan> <tspan x="118.262" y="162.936" fill="#000">tion</tspan>
                                    </text>
                                    <text font-family="NotoSansCJKkr-Medium, Noto Sans CJK KR" font-size="12" font-weight="400" letter-spacing="-.132" transform="translate(3 -3)">
                                        <tspan x="7.682" y="178.935" fill="#000">f</tspan> <tspan x="11.558" y="178.935" fill="#000">or mana</tspan> <tspan x="59.126" y="178.935" fill="#000" letter-spacing="-.203">g</tspan> <tspan x="65.655" y="178.935" fill="#000">ement / </tspan> <tspan x="112.839" y="178.935" fill="#000" letter-spacing="-.312">c</tspan> <tspan x="118.419" y="178.935" fill="#000">ont</tspan> <tspan x="138.027" y="178.935" fill="#000">r</tspan> <tspan x="142.671" y="178.935" fill="#000">ol</tspan>
                                    </text>
                                    <path stroke="#C5C8CF" stroke-width=".75" d="M155.586 86.027L336.193 86.027" transform="translate(3 -3)"/>
                                    <path fill="#C5C8CF" d="M161.562 86.027L161.562 90.789 157.438 88.408 153.314 86.027 157.438 83.646 161.562 81.265z" transform="translate(3 -3)"/>
                                    <g fill="#000" font-family="NotoSansCJKkr-Medium, Noto Sans CJK KR" font-size="12" font-weight="400">
                                        <text letter-spacing="-.132" transform="translate(3 -3) translate(637 148.26)">
                                            <tspan x=".225" y="14.675">R</tspan> <tspan x="7.821" y="14.675">em</tspan> <tspan x="25.905" y="14.675" letter-spacing="-.276">o</tspan> <tspan x="32.721" y="14.675" letter-spacing="-.204">t</tspan> <tspan x="37.065" y="14.675">e </tspan> <tspan x="46.545" y="14.675" letter-spacing="-.312">c</tspan> <tspan x="52.125" y="14.675">ollabo</tspan> <tspan x="88.461" y="14.675" letter-spacing="-.335">r</tspan> <tspan x="92.698" y="14.675" letter-spacing="-.204">a</tspan> <tspan x="99.19" y="14.675">tion</tspan>
                                        </text>
                                        <text letter-spacing="-.204" transform="translate(3 -3) translate(637 148.26)">
                                            <tspan x="10.989" y="30.671">t</tspan> <tspan x="15.333" y="30.671">o sol</tspan> <tspan x="42.105" y="30.671" letter-spacing="-.072">v</tspan> <tspan x="48.501" y="30.671">e p</tspan> <tspan x="65.541" y="30.671" letter-spacing="-.131">r</tspan> <tspan x="70.186" y="30.671">oblems</tspan>
                                        </text>
                                    </g>
                                    <text font-family="NotoSansCJKkr-Medium, Noto Sans CJK KR" font-size="12" font-weight="400" transform="translate(3 -3)">
                                        <tspan x="170.387" y="70.647" fill="#000">Video &amp; </tspan> <tspan x="216.527" y="70.647" fill="#000" letter-spacing="-.312">c</tspan> <tspan x="222.107" y="70.647" fill="#000">ollabo</tspan> <tspan x="258.443" y="70.647" fill="#000" letter-spacing="-.336">r</tspan> <tspan x="262.679" y="70.647" fill="#000" letter-spacing="-.204">a</tspan> <tspan x="269.171" y="70.647" fill="#000">tion d</tspan> <tspan x="302.483" y="70.647" fill="#000" letter-spacing="-.204">a</tspan> <tspan x="308.975" y="70.647" fill="#000" letter-spacing="-.288">t</tspan> <tspan x="313.151" y="70.647" fill="#000">a</tspan>
                                    </text>
                                    <path stroke="#C5C8CF" stroke-width=".75" d="M623.291 86.027L442.684 86.027" transform="translate(3 -3)"/>
                                    <path fill="#C5C8CF" d="M617.315 86.027L617.315 81.265 621.439 83.646 625.563 86.027 621.439 88.408 617.315 90.789z" transform="translate(3 -3)"/>
                                    <text font-family="NotoSansCJKkr-Medium, Noto Sans CJK KR" font-size="12" font-weight="400" transform="translate(3 -3)">
                                        <tspan x="455.093" y="70.647" fill="#000">Video &amp; </tspan> <tspan x="501.233" y="70.647" fill="#000" letter-spacing="-.312">c</tspan> <tspan x="506.813" y="70.647" fill="#000">ollabo</tspan> <tspan x="543.149" y="70.647" fill="#000" letter-spacing="-.336">r</tspan> <tspan x="547.385" y="70.647" fill="#000" letter-spacing="-.204">a</tspan> <tspan x="553.877" y="70.647" fill="#000">tion d</tspan> <tspan x="587.189" y="70.647" fill="#000" letter-spacing="-.204">a</tspan> <tspan x="593.681" y="70.647" fill="#000" letter-spacing="-.288">t</tspan> <tspan x="597.857" y="70.647" fill="#000">a</tspan>
                                    </text>
                                    <text font-family="NotoSansCJKkr-Bold, Noto Sans CJK KR" font-size="18" font-weight="bold" transform="translate(3 -3)">
                                        <tspan x="319.161" y="135.348" fill="#092E6E">Communi</tspan> <tspan x="405.435" y="135.348" fill="#092E6E" letter-spacing="-.216">c</tspan> <tspan x="414.489" y="135.348" fill="#092E6E" letter-spacing="-.342">a</tspan> <tspan x="424.443" y="135.348" fill="#092E6E">tion</tspan>
                                    </text>
                                    <text font-family="NotoSansCJKkr-Bold, Noto Sans CJK KR" font-size="18" font-weight="bold" transform="translate(3 -3)">
                                        <tspan x="360.831" y="157.344" fill="#092E6E">Se</tspan> <tspan x="382.521" y="157.344" fill="#092E6E" letter-spacing=".25">r</tspan> <tspan x="390.871" y="157.344" fill="#092E6E" letter-spacing="-.142">v</tspan> <tspan x="400.953" y="157.344" fill="#092E6E">er</tspan>
                                    </text>
                                    <path fill="#E6E8EB" d="M368.921 75.575L368.921 106.915 406.754 106.915 406.754 75.284z" transform="translate(3 -3)"/>
                                    <path stroke="#000" stroke-width=".565" d="M368.921 75.575L368.921 106.915 406.754 106.915 406.754 75.284z" transform="translate(3 -3)"/>
                                    <g transform="translate(3 -3) translate(0 .26)">
                                        <path fill="#FFF" d="M367.678 75.262c-1.382 0-2.507-1.125-2.507-2.507V66.6c0-1.382 1.125-2.507 2.507-2.507h40.176c1.382 0 2.507 1.125 2.507 2.507v6.155c0 1.382-1.125 2.507-2.507 2.507h-40.176z"/>
                                        <path fill="#000" d="M407.854 63.81h-40.176c-1.534 0-2.79 1.255-2.79 2.79v6.154c0 1.535 1.256 2.79 2.79 2.79h40.176c1.534 0 2.79-1.254 2.79-2.79V66.6c0-1.534-1.256-2.79-2.79-2.79m0 .564c1.227 0 2.225.999 2.225 2.227v6.153c0 1.227-.998 2.225-2.225 2.225h-40.176c-1.227 0-2.225-.998-2.225-2.225V66.6c0-1.227.998-2.225 2.225-2.225h40.176"/>
                                        <path fill="#FFF" d="M367.678 89.517c-1.382 0-2.507-1.125-2.507-2.507v-6.155c0-1.382 1.125-2.507 2.507-2.507h40.176c1.382 0 2.507 1.125 2.507 2.507v6.155c0 1.382-1.125 2.507-2.507 2.507h-40.176z"/>
                                        <path fill="#000" d="M407.854 78.065h-40.176c-1.534 0-2.79 1.256-2.79 2.79v6.154c0 1.535 1.256 2.79 2.79 2.79h40.176c1.534 0 2.79-1.255 2.79-2.79v-6.155c0-1.533-1.256-2.789-2.79-2.789m0 .564c1.227 0 2.225.998 2.225 2.225v6.155c0 1.228-.998 2.226-2.225 2.226h-40.176c-1.227 0-2.225-.998-2.225-2.226v-6.155c0-1.227.998-2.225 2.225-2.225h40.176"/>
                                        <path fill="#FFF" d="M367.678 103.692c-1.382 0-2.507-1.125-2.507-2.508V95.03c0-1.383 1.125-2.508 2.507-2.508h40.176c1.382 0 2.507 1.125 2.507 2.508v6.154c0 1.383-1.125 2.508-2.507 2.508h-40.176z"/>
                                        <path fill="#000" d="M407.854 92.241h-40.176c-1.534 0-2.79 1.254-2.79 2.79v6.153c0 1.536 1.256 2.79 2.79 2.79h40.176c1.534 0 2.79-1.254 2.79-2.79V95.03c0-1.535-1.256-2.789-2.79-2.789m0 .564c1.227 0 2.225.998 2.225 2.225v6.154c0 1.227-.998 2.225-2.225 2.225h-40.176c-1.227 0-2.225-.998-2.225-2.225V95.03c0-1.227.998-2.225 2.225-2.225h40.176"/>
                                        <path fill="#0A51B7" d="M393.37 71.283c-.885 0-1.605-.72-1.605-1.605s.72-1.606 1.605-1.606 1.605.721 1.605 1.606c0 .884-.72 1.605-1.605 1.605"/>
                                        <path fill="#000" d="M393.37 67.79c-1.042 0-1.887.846-1.887 1.888 0 1.042.845 1.887 1.887 1.887s1.888-.845 1.888-1.887-.846-1.888-1.888-1.888m0 .564c.73 0 1.323.594 1.323 1.324 0 .729-.594 1.323-1.323 1.323s-1.323-.594-1.323-1.323c0-.73.594-1.324 1.323-1.324"/>
                                        <path fill="#0A51B7" d="M399.192 71.283c-.885 0-1.605-.72-1.605-1.605s.72-1.606 1.605-1.606 1.605.721 1.605 1.606c0 .884-.72 1.605-1.605 1.605"/>
                                        <path fill="#000" d="M399.192 67.79c-1.042 0-1.888.846-1.888 1.888 0 1.042.846 1.887 1.888 1.887 1.042 0 1.887-.845 1.887-1.887s-.845-1.888-1.887-1.888m0 .564c.73 0 1.323.594 1.323 1.324 0 .729-.594 1.323-1.323 1.323s-1.323-.594-1.323-1.323c0-.73.594-1.324 1.323-1.324"/>
                                        <path fill="#0A51B7" d="M405.013 71.283c-.885 0-1.605-.72-1.605-1.605s.72-1.606 1.605-1.606 1.605.721 1.605 1.606c0 .884-.72 1.605-1.605 1.605"/>
                                        <path fill="#000" d="M405.013 67.79c-1.042 0-1.887.846-1.887 1.888 0 1.042.845 1.887 1.887 1.887s1.888-.845 1.888-1.887-.846-1.888-1.888-1.888m0 .564c.73 0 1.323.594 1.323 1.324 0 .729-.594 1.323-1.323 1.323s-1.323-.594-1.323-1.323c0-.73.594-1.324 1.323-1.324"/>
                                        <path fill="#0A51B7" d="M393.37 85.538c-.885 0-1.605-.72-1.605-1.605s.72-1.606 1.605-1.606 1.605.721 1.605 1.606c0 .884-.72 1.605-1.605 1.605"/>
                                        <path fill="#000" d="M393.37 82.045c-1.042 0-1.887.845-1.887 1.888 0 1.042.845 1.886 1.887 1.886s1.888-.844 1.888-1.886c0-1.043-.846-1.888-1.888-1.888m0 .564c.73 0 1.323.594 1.323 1.324 0 .729-.594 1.322-1.323 1.322s-1.323-.593-1.323-1.322c0-.73.594-1.324 1.323-1.324"/>
                                        <path fill="#0A51B7" d="M399.192 85.538c-.885 0-1.605-.72-1.605-1.605s.72-1.606 1.605-1.606 1.605.721 1.605 1.606c0 .884-.72 1.605-1.605 1.605"/>
                                        <path fill="#000" d="M399.192 82.045c-1.042 0-1.888.845-1.888 1.888 0 1.042.846 1.886 1.888 1.886 1.042 0 1.887-.844 1.887-1.886 0-1.043-.845-1.888-1.887-1.888m0 .564c.73 0 1.323.594 1.323 1.324 0 .729-.594 1.322-1.323 1.322s-1.323-.593-1.323-1.322c0-.73.594-1.324 1.323-1.324"/>
                                        <path fill="#0A51B7" d="M405.013 85.538c-.885 0-1.605-.72-1.605-1.605s.72-1.606 1.605-1.606 1.605.721 1.605 1.606c0 .884-.72 1.605-1.605 1.605"/>
                                        <path fill="#000" d="M405.013 82.045c-1.042 0-1.887.845-1.887 1.888 0 1.042.845 1.886 1.887 1.886s1.888-.844 1.888-1.886c0-1.043-.846-1.888-1.888-1.888m0 .564c.73 0 1.323.594 1.323 1.324 0 .729-.594 1.322-1.323 1.322s-1.323-.593-1.323-1.322c0-.73.594-1.324 1.323-1.324"/>
                                        <path fill="#0A51B7" d="M393.37 99.713c-.885 0-1.605-.721-1.605-1.605 0-.885.72-1.606 1.605-1.606s1.605.72 1.605 1.606c0 .884-.72 1.605-1.605 1.605"/>
                                        <path fill="#000" d="M393.37 96.22c-1.042 0-1.887.846-1.887 1.888 0 1.042.845 1.887 1.887 1.887s1.888-.845 1.888-1.887-.846-1.888-1.888-1.888m0 .564c.73 0 1.323.594 1.323 1.324 0 .729-.594 1.323-1.323 1.323s-1.323-.594-1.323-1.323c0-.73.594-1.324 1.323-1.324"/>
                                        <path fill="#0A51B7" d="M399.192 99.713c-.885 0-1.605-.721-1.605-1.605 0-.885.72-1.606 1.605-1.606s1.605.72 1.605 1.606c0 .884-.72 1.605-1.605 1.605"/>
                                        <path fill="#000" d="M399.192 96.22c-1.042 0-1.888.846-1.888 1.888 0 1.042.846 1.887 1.888 1.887 1.042 0 1.887-.845 1.887-1.887s-.845-1.888-1.887-1.888m0 .564c.73 0 1.323.594 1.323 1.324 0 .729-.594 1.323-1.323 1.323s-1.323-.594-1.323-1.323c0-.73.594-1.324 1.323-1.324"/>
                                        <path fill="#0A51B7" d="M405.013 99.713c-.885 0-1.605-.721-1.605-1.605 0-.885.72-1.606 1.605-1.606s1.605.72 1.605 1.606c0 .884-.72 1.605-1.605 1.605"/>
                                        <path fill="#000" d="M405.013 96.22c-1.042 0-1.887.846-1.887 1.888 0 1.042.845 1.887 1.887 1.887s1.888-.845 1.888-1.887-.846-1.888-1.888-1.888m0 .564c.73 0 1.323.594 1.323 1.324 0 .729-.594 1.323-1.323 1.323s-1.323-.594-1.323-1.323c0-.73.594-1.324 1.323-1.324"/>
                                        <g>
                                            <path fill="#FFF" d="M0.724 0.58L0.724 6.775" transform="translate(369 66)"/>
                                            <path stroke="#000" stroke-width=".565" d="M0.724 0.58L0.724 6.775" transform="translate(369 66)"/>
                                        </g>
                                        <g>
                                            <path fill="#FFF" d="M0.925 0.58L0.925 6.775" transform="translate(372 66)"/>
                                            <path stroke="#000" stroke-width=".565" d="M0.925 0.58L0.925 6.775" transform="translate(372 66)"/>
                                        </g>
                                        <g>
                                            <path fill="#FFF" d="M1.127 0.58L1.127 6.775" transform="translate(375 66)"/>
                                            <path stroke="#000" stroke-width=".565" d="M1.127 0.58L1.127 6.775" transform="translate(375 66)"/>
                                        </g>
                                        <g>
                                            <path fill="#FFF" d="M1.328 0.58L1.328 6.775" transform="translate(378 66)"/>
                                            <path stroke="#000" stroke-width=".565" d="M1.328 0.58L1.328 6.775" transform="translate(378 66)"/>
                                        </g>
                                        <g>
                                            <path fill="#FFF" d="M0.529 0.58L0.529 6.775" transform="translate(382 66)"/>
                                            <path stroke="#000" stroke-width=".565" d="M0.529 0.58L0.529 6.775" transform="translate(382 66)"/>
                                        </g>
                                        <g>
                                            <path fill="#FFF" d="M0.73 0.58L0.73 6.775" transform="translate(385 66)"/>
                                            <path stroke="#000" stroke-width=".565" d="M0.73 0.58L0.73 6.775" transform="translate(385 66)"/>
                                        </g>
                                        <g>
                                            <path fill="#FFF" d="M1.325 0.58L1.325 6.775" transform="translate(370 66)"/>
                                            <path stroke="#000" stroke-width=".565" d="M1.325 0.58L1.325 6.775" transform="translate(370 66)"/>
                                        </g>
                                        <g>
                                            <path fill="#FFF" d="M0.526 0.58L0.526 6.775" transform="translate(374 66)"/>
                                            <path stroke="#000" stroke-width=".565" d="M0.526 0.58L0.526 6.775" transform="translate(374 66)"/>
                                        </g>
                                        <g>
                                            <path fill="#FFF" d="M0.727 0.58L0.727 6.775" transform="translate(377 66)"/>
                                            <path stroke="#000" stroke-width=".565" d="M0.727 0.58L0.727 6.775" transform="translate(377 66)"/>
                                        </g>
                                        <g>
                                            <path fill="#FFF" d="M0.928 0.58L0.928 6.775" transform="translate(380 66)"/>
                                            <path stroke="#000" stroke-width=".565" d="M0.928 0.58L0.928 6.775" transform="translate(380 66)"/>
                                        </g>
                                        <g>
                                            <path fill="#FFF" d="M1.13 0.58L1.13 6.775" transform="translate(383 66)"/>
                                            <path stroke="#000" stroke-width=".565" d="M1.13 0.58L1.13 6.775" transform="translate(383 66)"/>
                                        </g>
                                        <g>
                                            <path fill="#FFF" d="M0.724 0.835L0.724 7.03" transform="translate(369 80)"/>
                                            <path stroke="#000" stroke-width=".565" d="M0.724 0.835L0.724 7.03" transform="translate(369 80)"/>
                                        </g>
                                        <g>
                                            <path fill="#FFF" d="M0.925 0.835L0.925 7.03" transform="translate(372 80)"/>
                                            <path stroke="#000" stroke-width=".565" d="M0.925 0.835L0.925 7.03" transform="translate(372 80)"/>
                                        </g>
                                        <g>
                                            <path fill="#FFF" d="M1.127 0.835L1.127 7.03" transform="translate(375 80)"/>
                                            <path stroke="#000" stroke-width=".565" d="M1.127 0.835L1.127 7.03" transform="translate(375 80)"/>
                                        </g>
                                        <g>
                                            <path fill="#FFF" d="M1.328 0.835L1.328 7.03" transform="translate(378 80)"/>
                                            <path stroke="#000" stroke-width=".565" d="M1.328 0.835L1.328 7.03" transform="translate(378 80)"/>
                                        </g>
                                        <g>
                                            <path fill="#FFF" d="M0.529 0.835L0.529 7.03" transform="translate(382 80)"/>
                                            <path stroke="#000" stroke-width=".565" d="M0.529 0.835L0.529 7.03" transform="translate(382 80)"/>
                                        </g>
                                        <g>
                                            <path fill="#FFF" d="M0.73 0.835L0.73 7.03" transform="translate(385 80)"/>
                                            <path stroke="#000" stroke-width=".565" d="M0.73 0.835L0.73 7.03" transform="translate(385 80)"/>
                                        </g>
                                        <g>
                                            <path fill="#FFF" d="M1.325 0.835L1.325 7.03" transform="translate(370 80)"/>
                                            <path stroke="#000" stroke-width=".565" d="M1.325 0.835L1.325 7.03" transform="translate(370 80)"/>
                                        </g>
                                        <g>
                                            <path fill="#FFF" d="M0.526 0.835L0.526 7.03" transform="translate(374 80)"/>
                                            <path stroke="#000" stroke-width=".565" d="M0.526 0.835L0.526 7.03" transform="translate(374 80)"/>
                                        </g>
                                        <g>
                                            <path fill="#FFF" d="M0.727 0.835L0.727 7.03" transform="translate(377 80)"/>
                                            <path stroke="#000" stroke-width=".565" d="M0.727 0.835L0.727 7.03" transform="translate(377 80)"/>
                                        </g>
                                        <g>
                                            <path fill="#FFF" d="M0.928 0.835L0.928 7.03" transform="translate(380 80)"/>
                                            <path stroke="#000" stroke-width=".565" d="M0.928 0.835L0.928 7.03" transform="translate(380 80)"/>
                                        </g>
                                        <g>
                                            <path fill="#FFF" d="M1.13 0.835L1.13 7.03" transform="translate(383 80)"/>
                                            <path stroke="#000" stroke-width=".565" d="M1.13 0.835L1.13 7.03" transform="translate(383 80)"/>
                                        </g>
                                        <g>
                                            <path fill="#FFF" d="M0.724 0.09L0.724 6.285" transform="translate(369 95)"/>
                                            <path stroke="#000" stroke-width=".565" d="M0.724 0.09L0.724 6.285" transform="translate(369 95)"/>
                                        </g>
                                        <g>
                                            <path fill="#FFF" d="M0.925 0.09L0.925 6.285" transform="translate(372 95)"/>
                                            <path stroke="#000" stroke-width=".565" d="M0.925 0.09L0.925 6.285" transform="translate(372 95)"/>
                                        </g>
                                        <g>
                                            <path fill="#FFF" d="M1.127 0.09L1.127 6.285" transform="translate(375 95)"/>
                                            <path stroke="#000" stroke-width=".565" d="M1.127 0.09L1.127 6.285" transform="translate(375 95)"/>
                                        </g>
                                        <g>
                                            <path fill="#FFF" d="M1.328 0.09L1.328 6.285" transform="translate(378 95)"/>
                                            <path stroke="#000" stroke-width=".565" d="M1.328 0.09L1.328 6.285" transform="translate(378 95)"/>
                                        </g>
                                        <g>
                                            <path fill="#FFF" d="M0.529 0.09L0.529 6.285" transform="translate(382 95)"/>
                                            <path stroke="#000" stroke-width=".565" d="M0.529 0.09L0.529 6.285" transform="translate(382 95)"/>
                                        </g>
                                        <g>
                                            <path fill="#FFF" d="M0.73 0.09L0.73 6.285" transform="translate(385 95)"/>
                                            <path stroke="#000" stroke-width=".565" d="M0.73 0.09L0.73 6.285" transform="translate(385 95)"/>
                                        </g>
                                        <g>
                                            <path fill="#FFF" d="M1.325 0.09L1.325 6.285" transform="translate(370 95)"/>
                                            <path stroke="#000" stroke-width=".565" d="M1.325 0.09L1.325 6.285" transform="translate(370 95)"/>
                                        </g>
                                        <g>
                                            <path fill="#FFF" d="M0.526 0.09L0.526 6.285" transform="translate(374 95)"/>
                                            <path stroke="#000" stroke-width=".565" d="M0.526 0.09L0.526 6.285" transform="translate(374 95)"/>
                                        </g>
                                        <g>
                                            <path fill="#FFF" d="M0.727 0.09L0.727 6.285" transform="translate(377 95)"/>
                                            <path stroke="#000" stroke-width=".565" d="M0.727 0.09L0.727 6.285" transform="translate(377 95)"/>
                                        </g>
                                        <g>
                                            <path fill="#FFF" d="M0.928 0.09L0.928 6.285" transform="translate(380 95)"/>
                                            <path stroke="#000" stroke-width=".565" d="M0.928 0.09L0.928 6.285" transform="translate(380 95)"/>
                                        </g>
                                        <g>
                                            <path fill="#FFF" d="M1.13 0.09L1.13 6.285" transform="translate(383 95)"/>
                                            <path stroke="#000" stroke-width=".565" d="M1.13 0.09L1.13 6.285" transform="translate(383 95)"/>
                                        </g>
                                        <path fill="#E6E8EB" d="M402.562 95.225s.188-1.193 1.878-2.007c1.689-.813 5.929-1.964 11.108-1.25 5.18.716 6.54 2 6.54 2l.623 1.378-.001 15.146s-.684 1.814-4.158 2.565c-3.473.75-10.388 1-13.705-.532 0 0-2.097-.876-2.285-2.191v-15.11z"/>
                                        <path stroke="#000" stroke-width=".565" d="M422.711 95.09s-.778-3.346-10.378-3.346-9.77 3.416-9.77 3.416v15.212s1.054 3.439 10.067 3.439c9.014 0 10.08-3.44 10.08-3.44l.001-15.281z"/>
                                        <path stroke="#000" stroke-width=".565" d="M402.562 100.54s1.125 3.295 10.205 3.208c9.08-.087 9.944-3.209 9.944-3.209M402.562 105.496s1.125 3.297 10.205 3.21c9.08-.087 9.944-3.21 9.944-3.21M402.562 95.581s1.125 3.296 10.205 3.21c9.08-.087 9.944-3.21 9.944-3.21"/>
                                        <path fill="#FFF" d="M137.394 85.288c0 31.125-25.232 56.357-56.357 56.357S24.68 116.413 24.68 85.288s25.232-56.357 56.357-56.357 56.357 25.232 56.357 56.357"/>
                                        <path stroke="#C5C8CF" stroke-width=".75" d="M137.394 85.288c0 31.125-25.232 56.357-56.357 56.357S24.68 116.413 24.68 85.288s25.232-56.357 56.357-56.357 56.357 25.232 56.357 56.357z"/>
                                        <path fill="#273A5B" d="M95.217 82.234c-1.316 0-2.374.551-3.147 1.64-.248-.48-.61-.868-1.08-1.155-.529-.322-1.149-.485-1.842-.485-.556 0-1.12.156-1.679.464-.465.258-.836.573-1.104.94v-1.104h-1.889v9.471h1.964v-5.249c0-.73.218-1.373.649-1.91.429-.537.943-.798 1.572-.798.695 0 1.193.178 1.48.527.292.358.441.96.441 1.788v5.642h1.965v-5.249c0-.73.218-1.373.649-1.91.429-.537.943-.798 1.571-.798.695 0 1.194.178 1.48.527.293.357.442.96.442 1.788v5.642h1.964v-5.904c0-1.224-.3-2.183-.892-2.852-.596-.674-1.451-1.015-2.544-1.015M106.665 89.559c-.518.553-1.169.81-2.047.81-.88 0-1.53-.257-2.048-.81-.55-.586-.829-1.364-.829-2.314 0-.94.28-1.711.828-2.297.532-.565 1.182-.828 2.05-.828.864 0 1.515.263 2.046.828.55.586.83 1.358.83 2.297 0 .95-.28 1.728-.83 2.314m-2.047-7.324c-1.389 0-2.558.478-3.478 1.423-.905.942-1.363 2.149-1.363 3.587 0 1.437.458 2.644 1.364 3.585.92.945 2.088 1.423 3.477 1.423 1.388 0 2.551-.478 3.457-1.422.918-.93 1.383-2.136 1.383-3.586 0-1.438-.465-2.645-1.382-3.587-.907-.945-2.07-1.423-3.458-1.423M118.242 86.089c.163-.626.456-1.132.852-1.47.443-.378.981-.57 1.6-.57.751 0 1.357.2 1.8.598.396.353.651.862.725 1.442h-4.977zm7.066 1.357c0-1.632-.428-2.964-1.24-3.852-.825-.902-1.948-1.36-3.338-1.36-1.353 0-2.48.483-3.348 1.435-.854.935-1.306 2.196-1.306 3.646 0 1.409.44 2.558 1.344 3.514.894.945 2.045 1.424 3.422 1.424.942 0 1.798-.227 2.544-.673.597-.356 1.166-.9 1.562-1.492l.057-.086-1.406-1.3-.079.119c-.662.997-1.586 1.547-2.602 1.547-.837 0-1.465-.228-1.978-.72-.544-.52-.81-1.108-.856-1.894h7.194l.03-.308zM76.268 86.089c.164-.625.457-1.132.853-1.47.443-.378.98-.57 1.598-.57.752 0 1.36.2 1.801.598.397.353.652.862.725 1.442h-4.977zm2.488-3.854c-1.353 0-2.48.482-3.348 1.434-.854.936-1.306 2.196-1.306 3.646 0 1.409.44 2.558 1.345 3.514.893.945 2.044 1.424 3.422 1.424.941 0 1.797-.227 2.544-.673.596-.356 1.166-.9 1.562-1.492l.057-.086-1.407-1.3-.078.119c-.662.997-1.587 1.547-2.604 1.547-.835 0-1.464-.228-1.976-.72-.537-.513-.81-1.118-.857-1.894h7.194l.031-.308c0-1.633-.429-2.965-1.24-3.852-.826-.902-1.949-1.36-3.339-1.36zM113.391 79.954h-.229l-1.679 1.064-.055.037v1.637h-1.61v1.815h1.61v5.013c.012.855.28 1.534.796 2.016.49.46 1.125.696 1.941.726l.098.002c.412 0 .991-.08 1.295-.184l.081-.027v-1.9l-.17.075c-.118.053-.23.09-.34.114-.19.041-.556.074-.69.068-.298-.015-.524-.106-.73-.297-.21-.193-.318-.582-.318-1.156v-4.45h2.248v-1.815h-2.248v-2.738zM64.901 85.192v-4.94h4.15c1.363 0 2.472 1.107 2.472 2.47 0 1.362-1.109 2.47-2.472 2.47h-4.15zm7.685.194c.595-.767.91-1.689.91-2.665 0-.975-.315-1.897-.91-2.665-.832-1.079-2.09-1.697-3.453-1.697h-6.207V92.02h1.975v-4.937h3.116l3.725 4.886.036.051h2.51L70.38 86.9c.872-.26 1.65-.794 2.206-1.514z"/>
                                        <path fill="#207FF4" d="M43.441 95.294L52.879 89.836 52.879 86.609 43.441 92.091 43.441 92.095 39.541 89.841 39.541 85.342 46.207 81.493 43.437 79.89 36.767 83.74 36.767 91.442z"/>
                                        <path fill="#7DB3F6" d="M55.653 83.744L46.209 78.289 43.437 79.89 50.105 83.748 50.109 83.746 52.879 85.346 52.879 89.835 52.875 89.837 48.98 92.086 42.312 88.216 39.538 89.841 48.978 95.29 55.649 91.438z"/>
                                        <path fill="#C0D8FF" d="M46.209 75.086L39.539 78.937 39.54 78.938 39.539 78.938 39.539 89.84 42.313 91.442 42.313 80.539 42.312 80.538 42.313 80.538 46.209 78.289 50.105 80.539 50.105 88.22 52.879 86.609 52.879 78.938z"/>
                                        <path fill="#207FF4" d="M39.54 85.342L39.54 85.342 46.207 81.493 43.436 79.89 36.766 83.74z"/>
                                        <path fill="#FFF" d="M755.322 85.288c0 31.125-25.232 56.357-56.357 56.357s-56.358-25.232-56.358-56.357 25.233-56.357 56.358-56.357c31.125 0 56.356 25.232 56.356 56.357"/>
                                        <path stroke="#C5C8CF" stroke-width=".75" d="M755.322 85.288c0 31.125-25.232 56.357-56.357 56.357s-56.358-25.232-56.358-56.357 25.233-56.357 56.358-56.357c31.125 0 56.356 25.232 56.356 56.357z"/>
                                        <path fill="#273A5B" d="M713.144 82.234c-1.316 0-2.374.551-3.147 1.64-.248-.48-.61-.868-1.08-1.155-.529-.322-1.149-.485-1.842-.485-.556 0-1.12.156-1.679.464-.465.258-.836.573-1.104.94v-1.104h-1.889v9.471h1.964v-5.249c0-.73.218-1.373.65-1.91.428-.537.942-.798 1.571-.798.695 0 1.193.178 1.48.527.293.358.441.96.441 1.788v5.642h1.965v-5.249c0-.73.218-1.373.65-1.91.428-.537.942-.798 1.57-.798.695 0 1.194.178 1.48.527.293.357.442.96.442 1.788v5.642h1.964v-5.904c0-1.224-.3-2.183-.892-2.852-.595-.674-1.45-1.015-2.544-1.015M724.592 89.559c-.518.553-1.168.81-2.047.81-.88 0-1.53-.257-2.048-.81-.55-.586-.828-1.364-.828-2.314 0-.94.279-1.711.827-2.297.533-.565 1.183-.828 2.05-.828.864 0 1.515.263 2.046.828.55.586.83 1.358.83 2.297 0 .95-.28 1.728-.83 2.314m-2.047-7.324c-1.388 0-2.558.478-3.477 1.423-.905.942-1.363 2.149-1.363 3.587 0 1.437.457 2.644 1.363 3.585.92.945 2.089 1.423 3.477 1.423 1.389 0 2.553-.478 3.458-1.422.917-.93 1.382-2.136 1.382-3.586 0-1.438-.465-2.645-1.38-3.587-.908-.945-2.072-1.423-3.46-1.423M736.17 86.089c.163-.626.456-1.132.852-1.47.443-.378.982-.57 1.599-.57.752 0 1.358.2 1.8.598.397.353.652.862.726 1.442h-4.977zm7.066 1.357c0-1.632-.428-2.964-1.24-3.852-.825-.902-1.948-1.36-3.338-1.36-1.353 0-2.48.483-3.348 1.435-.854.935-1.305 2.196-1.305 3.646 0 1.409.439 2.558 1.343 3.514.894.945 2.045 1.424 3.422 1.424.942 0 1.798-.227 2.544-.673.597-.356 1.166-.9 1.562-1.492l.058-.086-1.407-1.3-.08.119c-.66.997-1.585 1.547-2.601 1.547-.837 0-1.465-.228-1.978-.72-.544-.52-.811-1.108-.856-1.894h7.194l.03-.308zM694.196 86.089c.163-.625.456-1.132.852-1.47h.001c.442-.378.98-.57 1.597-.57.753 0 1.359.2 1.802.598.397.353.651.862.725 1.442h-4.977zm2.488-3.854c-1.353 0-2.48.482-3.349 1.434-.853.936-1.305 2.196-1.305 3.646 0 1.409.44 2.558 1.344 3.514.893.945 2.045 1.424 3.422 1.424.942 0 1.797-.227 2.544-.673.597-.356 1.166-.9 1.562-1.492l.057-.086-1.406-1.3-.079.119c-.662.997-1.586 1.547-2.603 1.547-.836 0-1.464-.228-1.977-.72-.536-.513-.81-1.118-.857-1.894h7.195l.03-.308c0-1.633-.428-2.965-1.239-3.852-.826-.902-1.949-1.36-3.339-1.36zM731.319 79.954h-.23l-1.678 1.064-.055.037v1.637h-1.611v1.815h1.61v5.013c.013.855.28 1.534.797 2.016.49.46 1.125.696 1.94.726l.099.002c.412 0 .99-.08 1.295-.184l.08-.027v-1.9l-.168.075c-.12.053-.231.09-.342.114-.19.041-.555.074-.69.068-.297-.015-.523-.106-.73-.297-.21-.193-.317-.582-.317-1.156v-4.45h2.248v-1.815h-2.248v-2.738zM682.828 85.192v-4.94h4.15c1.363 0 2.472 1.107 2.472 2.47 0 1.362-1.109 2.47-2.472 2.47h-4.15zm7.685.194c.595-.767.91-1.689.91-2.665 0-.975-.315-1.897-.91-2.665-.832-1.079-2.09-1.697-3.453-1.697h-6.207V92.02h1.975v-4.937h3.117l3.724 4.886.036.051h2.51l-3.908-5.12c.872-.26 1.65-.794 2.206-1.514z"/>
                                        <path fill="#207FF4" d="M661.368 95.294L670.806 89.836 670.806 86.609 661.368 92.091 661.368 92.095 657.467 89.841 657.467 85.342 664.134 81.493 661.364 79.89 654.694 83.74 654.693 83.74 654.693 91.442z"/>
                                        <path fill="#7DB3F6" d="M673.58 83.744L664.136 78.289 661.364 79.89 668.032 83.748 668.036 83.746 670.806 85.346 670.806 89.835 670.802 89.837 666.907 92.086 660.239 88.216 657.465 89.841 666.905 95.29 673.576 91.438z"/>
                                        <path fill="#C0D8FF" d="M664.136 75.086L657.466 78.937 657.467 78.938 657.466 78.938 657.466 89.84 660.24 91.442 660.24 80.539 660.24 80.539 660.239 80.538 660.24 80.538 664.136 78.289 668.032 80.539 668.032 88.22 670.806 86.609 670.806 78.938z"/>
                                        <path fill="#207FF4" d="M657.467 85.342L657.467 85.342 664.135 81.493 661.364 79.89 654.694 83.74 654.693 83.74z"/>
                                    </g>
                                </g>
                            </g>
                        </g>
                    </g>
                </g>
            </g>
        </g>
    </g>
</svg>
