<svg xmlns="http://www.w3.org/2000/svg" xmlns:xlink="http://www.w3.org/1999/xlink" width="780" height="210" viewBox="0 0 780 210">
    <defs>
        <path id="54btjuj1la" d="M0 0H780V210H0z"/>
        <path id="qlzp94731c" d="M0.572 0.675L137.359 0.675 137.359 18.675 0.572 18.675z"/>
        <path id="89xy1eroye" d="M0 209L767.359 209 767.359 0.715 0 0.715z"/>
        <path id="822x9rsqwg" d="M0.751 7.26L0.751 20.291 12.037 26.807 23.323 20.291 23.323 7.26 12.037 0.743z"/>
        <path id="lqt80xb8ji" d="M0.971 13.291L12.037 19.611 12.037 6.775 0.971 0.385z"/>
        <path id="q40ajjkpjk" d="M.751 7.26v13.032l11.286 6.515 11.286-6.515V7.26L12.037.743.751 7.26zm.388 12.807V7.484l10.898-6.292 10.898 6.292v12.583l-10.898 6.292-10.898-6.292z"/>
    </defs>
    <g fill="none" fill-rule="evenodd">
        <g>
            <g>
                <g>
                    <g>
                        <g transform="translate(-760 -4555) translate(0 2554) translate(320 636) translate(60 1228) translate(380 137)">
                            <mask id="8ifj9v10hb" fill="#fff">
                                <use xlink:href="#54btjuj1la"/>
                            </mask>
                            <use fill="#F8F9FB" xlink:href="#54btjuj1la"/>
                            <g mask="url(#8ifj9v10hb)">
                                <g>
                                    <text font-family="NotoSansCJKkr-Medium, Noto Sans CJK KR" font-size="12" font-weight="400" transform="translate(3 -4)">
                                        <tspan x="13.21" y="160.961" fill="#000">D</tspan> <tspan x="21.598" y="160.961" fill="#000" letter-spacing="-.204">a</tspan> <tspan x="28.09" y="160.961" fill="#000" letter-spacing="-.288">t</tspan> <tspan x="32.266" y="160.961" fill="#000">a </tspan> <tspan x="41.866" y="160.961" fill="#000" letter-spacing="-.312">c</tspan> <tspan x="47.446" y="160.961" fill="#000">on</tspan> <tspan x="62.302" y="160.961" fill="#000" letter-spacing="-.072">v</tspan> <tspan x="68.698" y="160.961" fill="#000">e</tspan> <tspan x="75.478" y="160.961" fill="#000" letter-spacing="-.072">r</tspan> <tspan x="80.242" y="160.961" fill="#000">sion </tspan> <tspan x="107.002" y="160.961" fill="#000" letter-spacing="-.036">o</tspan> <tspan x="114.298" y="160.961" fill="#000">f </tspan> <tspan x="121.138" y="160.961" fill="#000" letter-spacing="-.228">g</tspan> <tspan x="127.618" y="160.961" fill="#000">as /</tspan>
                                    </text>
                                    <text font-family="NotoSansCJKkr-Medium, Noto Sans CJK KR" font-size="12" font-weight="400" transform="translate(3 -4)">
                                        <tspan x="7.162" y="176.957" fill="#000">engine main</tspan> <tspan x="77.914" y="176.957" fill="#000" letter-spacing="-.204">t</tspan> <tspan x="82.258" y="176.957" fill="#000">enan</tspan> <tspan x="110.914" y="176.957" fill="#000" letter-spacing="-.311">c</tspan> <tspan x="116.495" y="176.957" fill="#000">e li</tspan> <tspan x="132.995" y="176.957" fill="#000" letter-spacing="-.264">s</tspan> <tspan x="138.227" y="176.957" fill="#000">t &amp;</tspan>
                                    </text>
                                    <text font-family="NotoSansCJKkr-Medium, Noto Sans CJK KR" font-size="12" font-weight="400" transform="translate(3 -4)">
                                        <tspan x="20.235" y="192.96" fill="#000">main</tspan> <tspan x="49.371" y="192.96" fill="#000" letter-spacing="-.204">t</tspan> <tspan x="53.715" y="192.96" fill="#000">enan</tspan> <tspan x="82.371" y="192.96" fill="#000" letter-spacing="-.311">c</tspan> <tspan x="87.953" y="192.96" fill="#000">e p</tspan> <tspan x="104.993" y="192.96" fill="#000" letter-spacing="-.132">r</tspan> <tspan x="109.637" y="192.96" fill="#000">o</tspan> <tspan x="117.005" y="192.96" fill="#000" letter-spacing="-.311">c</tspan> <tspan x="122.586" y="192.96" fill="#000">ess</tspan>
                                    </text>
                                    <path stroke="#C5C8CF" stroke-width=".75" d="M222.992 85.669L147.385 85.669" transform="translate(3 -4)"/>
                                    <path fill="#C5C8CF" d="M217.017 85.669L217.017 80.907 221.141 83.288 225.265 85.669 221.141 88.05 217.017 90.431z" transform="translate(3 -4)"/>
                                    <path stroke="#C5C8CF" stroke-width=".75" d="M629.236 85.669L551.776 85.669" transform="translate(3 -4)"/>
                                    <path fill="#C5C8CF" d="M623.26 85.669L623.26 80.907 627.384 83.288 631.508 85.669 627.384 88.05 623.26 90.431z" transform="translate(3 -4)"/>
                                    <g transform="translate(3 -4) translate(630 146.285)">
                                        <mask id="56mbptgkrd" fill="#fff">
                                            <use xlink:href="#qlzp94731c"/>
                                        </mask>
                                        <text fill="#000" font-family="NotoSansCJKkr-Medium, Noto Sans CJK KR" font-size="12" font-weight="400" mask="url(#56mbptgkrd)">
                                            <tspan x=".572" y="14.675">AR manual visuali</tspan> <tspan x="102.008" y="14.675" letter-spacing="-.277">z</tspan> <tspan x="107.335" y="14.675" letter-spacing="-.203">a</tspan> <tspan x="113.828" y="14.675">tion</tspan>
                                        </text>
                                    </g>
                                    <text font-family="NotoSansCJKkr-Medium, Noto Sans CJK KR" font-size="12" font-weight="400" transform="translate(3 -4)">
                                        <tspan x="554.338" y="69.26" fill="#000">AR </tspan> <tspan x="572.362" y="69.26" fill="#000" letter-spacing="-.311">c</tspan> <tspan x="577.943" y="69.26" fill="#000">on</tspan> <tspan x="592.799" y="69.26" fill="#000" letter-spacing="-.204">t</tspan> <tspan x="597.143" y="69.26" fill="#000">ent</tspan>
                                    </text>
                                    <text font-family="NotoSansCJKkr-Medium, Noto Sans CJK KR" font-size="12" font-weight="400" transform="translate(3 -4)">
                                        <tspan x="253.486" y="160.964" fill="#000">P</tspan> <tspan x="261.25" y="160.964" fill="#000" letter-spacing="-.132">r</tspan> <tspan x="265.894" y="160.964" fill="#000">odu</tspan> <tspan x="288.262" y="160.964" fill="#000" letter-spacing="-.312">c</tspan> <tspan x="293.842" y="160.964" fill="#000">e / edit</tspan>
                                    </text>
                                    <text font-family="NotoSansCJKkr-Medium, Noto Sans CJK KR" font-size="12" font-weight="400" transform="translate(3 -4)">
                                        <tspan x="223.918" y="176.96" fill="#000">AR main</tspan> <tspan x="271.078" y="176.96" fill="#000" letter-spacing="-.204">t</tspan> <tspan x="275.422" y="176.96" fill="#000">enan</tspan> <tspan x="304.078" y="176.96" fill="#000" letter-spacing="-.312">c</tspan> <tspan x="309.658" y="176.96" fill="#000">e manual</tspan>
                                    </text>
                                    <g transform="translate(3 -4) translate(0 .285)">
                                        <path fill="#FFF" d="M349.942 85.507c0 31.125-25.233 56.356-56.358 56.356-31.125 0-56.357-25.231-56.357-56.356 0-31.126 25.232-56.357 56.357-56.357s56.358 25.23 56.358 56.357"/>
                                        <path stroke="#C5C8CF" stroke-width=".75" d="M349.942 85.507c0 31.125-25.233 56.356-56.358 56.356-31.125 0-56.357-25.231-56.357-56.356 0-31.126 25.232-56.357 56.357-56.357s56.358 25.23 56.358 56.357z"/>
                                        <path fill="#273A5B" d="M291.845 86.081L287.25 78.736 287.214 78.681 285.305 78.681 285.305 92.321 287.268 92.321 287.268 84.243 287.204 82.316 291.238 88.709 291.273 88.765 292.416 88.765 296.487 82.316 296.422 84.247 296.422 92.321 298.385 92.321 298.385 78.681 296.476 78.681zM306.662 88.27c-.016.662-.29 1.248-.813 1.743-.542.512-1.166.772-1.854.772-.482 0-.908-.142-1.264-.423-.353-.277-.525-.613-.525-1.028 0-.462.213-.84.652-1.157.445-.32 1.01-.483 1.679-.483.9 0 1.616.194 2.125.575m-2.42-5.719c-1.428 0-2.705.624-3.696 1.808l-.071.084 1.374 1.375.084-.106c.414-.516 1.268-1.385 2.332-1.385.726 0 1.259.184 1.728.597.45.398.669.867.669 1.436v.192c-.648-.32-1.457-.481-2.405-.481-1.22 0-2.211.292-2.948.867-.744.582-1.122 1.377-1.122 2.359 0 .93.357 1.716 1.06 2.336.7.617 1.58.928 2.617.928 1.143 0 2.083-.478 2.798-1.42v1.184h1.889V86.49c0-1.215-.385-2.186-1.143-2.888-.746-.688-1.841-1.052-3.166-1.052M318.492 83.158L318.492 82.913 316.113 82.913 312.316 86.763 312.316 78.683 312.076 78.683 310.353 80.173 310.353 92.324 312.316 92.324 312.316 89.316 313.58 88.07 316.398 92.324 318.66 92.324 318.66 92.092 314.953 86.679z"/>
                                        <path fill="#273A5B" d="M320.697 86.403c.163-.625.456-1.13.852-1.468.443-.38.98-.57 1.597-.57.752 0 1.359.2 1.802.596.396.354.65.862.724 1.442h-4.975zm7.063 1.356c0-1.632-.428-2.964-1.24-3.849-.824-.903-1.947-1.36-3.336-1.36-1.353 0-2.48.482-3.347 1.434-.853.936-1.305 2.196-1.305 3.645 0 1.408.44 2.556 1.344 3.512.893.946 2.044 1.424 3.42 1.424.94 0 1.797-.226 2.543-.674.597-.356 1.166-.9 1.56-1.49l.058-.087-1.406-1.298-.078.117c-.662.998-1.586 1.547-2.602 1.547-.836 0-1.463-.229-1.976-.719-.544-.52-.811-1.108-.856-1.894h7.19l.03-.308z"/>
                                        <path fill="#6FB6FB" d="M260.827 86.106L259.409 86.924 259.42 90.518 268.109 85.505 264.988 83.704zM276.807 86.925L275.389 86.107 271.229 83.705 268.109 85.506 276.808 90.529z"/>
                                        <path fill="#BFDCFF" d="M276.808 86.925L276.808 90.529 268.109 95.551 268.109 91.947 269.527 91.129z"/>
                                        <path fill="#007CF7" d="M259.41 86.925L259.41 90.529 268.109 95.551 268.109 91.947 266.691 91.129z"/>
                                        <path fill="#6FB6FB" d="M275.389 79.666L268.108 75.462 260.827 79.666 259.409 80.484 259.42 84.078 268.114 79.062 276.808 84.088 276.807 80.484z"/>
                                        <path fill="#BFDCFF" d="M276.808 80.484L276.808 84.088 268.109 89.11 268.109 85.505 269.527 84.687z"/>
                                        <path fill="#007CF7" d="M259.41 80.484L259.41 84.088 268.109 89.11 268.109 85.505 266.691 84.687z"/>
                                        <path fill="#FFF" d="M755.32 85.507c0 31.125-25.232 56.356-56.357 56.356s-56.357-25.231-56.357-56.356c0-31.126 25.232-56.357 56.357-56.357s56.357 25.23 56.357 56.357"/>
                                        <path stroke="#C5C8CF" stroke-width=".75" d="M755.32 85.507c0 31.125-25.232 56.356-56.357 56.356s-56.357-25.231-56.357-56.356c0-31.126 25.232-56.357 56.357-56.357s56.357 25.23 56.357 56.357z"/>
                                        <mask id="9cehsuqvzf" fill="#fff">
                                            <use xlink:href="#89xy1eroye"/>
                                        </mask>
                                        <path fill="#273A5B" d="M704.704 93.304L706.665 93.304 706.665 83.6 704.704 83.6zM704.616 81.81L706.753 81.81 706.753 79.672 704.616 79.672zM730.147 83.898L728.202 90.562 726.024 83.898 724.072 83.898 721.892 90.562 719.955 83.985 719.929 83.898 717.877 83.898 720.884 93.22 720.911 93.303 722.826 93.303 725.002 86.544 727.195 93.303 729.128 93.303 732.162 83.898zM711.455 85.914c.444-.379.982-.57 1.599-.57.753 0 1.359.201 1.803.597.397.355.652.864.725 1.445h-4.98c.163-.627.457-1.133.853-1.472m1.637-2.386c-1.353 0-2.48.483-3.35 1.436-.855.936-1.307 2.197-1.307 3.647 0 1.41.44 2.56 1.345 3.517.895.945 2.046 1.425 3.424 1.425.942 0 1.799-.227 2.545-.674.597-.357 1.167-.902 1.563-1.492l.058-.087-1.407-1.299-.08.118c-.661.998-1.587 1.548-2.604 1.548-.836 0-1.464-.23-1.978-.72-.537-.514-.812-1.119-.858-1.896h7.219l.005-.115c.005-.099.005-.193.005-.193 0-1.635-.428-2.967-1.24-3.854-.825-.904-1.95-1.36-3.34-1.36M697.041 90.423L692.938 79.674 690.772 79.674 696.03 93.226 696.06 93.303 698.019 93.303 703.393 79.839 703.459 79.674 701.292 79.674z" mask="url(#9cehsuqvzf)"/>
                                        <path fill="#6FB6FB" d="M678.875 79.112L674.466 76.567 672.038 77.968 678.86 84.792z" mask="url(#9cehsuqvzf)"/>
                                        <path fill="#007CF7" d="M678.86 88.431L683.164 83.941 683.164 81.589 678.873 79.112z" mask="url(#9cehsuqvzf)"/>
                                        <path fill="#0065C7" d="M670.048 94.106L674.465 96.657 676.895 95.252 670.069 88.432z" mask="url(#9cehsuqvzf)"/>
                                        <path fill="#BFDCFF" d="M665.767 82.217L665.767 81.589 672.038 77.969 676.286 82.217z" mask="url(#9cehsuqvzf)"/>
                                        <path fill="#DEEDFF" d="M665.767 82.217L665.767 89.093 672.644 82.217z" mask="url(#9cehsuqvzf)"/>
                                        <path fill="#007CF7" d="M670.069 84.792L665.765 89.093 665.765 91.634 669.952 94.051 670.067 94.117z" mask="url(#9cehsuqvzf)"/>
                                        <path fill="#6FB6FB" d="M683.163 91.635L676.895 95.253 672.644 91.008 683.163 91.008z" mask="url(#9cehsuqvzf)"/>
                                        <path fill="#007CF7" d="M674.426 83.876c-1.49 0-2.696 1.207-2.696 2.695 0 1.49 1.207 2.696 2.696 2.696s2.696-1.206 2.696-2.696c0-1.488-1.207-2.695-2.696-2.695" mask="url(#9cehsuqvzf)"/>
                                        <path fill="#FFF" d="M675.786 84.439c-.427 0-.773.347-.773.773 0 .426.346.772.773.772.427 0 .773-.346.773-.772 0-.427-.346-.773-.773-.773" mask="url(#9cehsuqvzf)"/>
                                        <path fill="#BFDCFF" d="M676.285 91.008L678.859 88.432 683.163 83.941 683.163 91.008z" mask="url(#9cehsuqvzf)"/>
                                    </g>
                                    <text font-family="NotoSansCJKkr-Bold, Noto Sans CJK KR" font-size="18" font-weight="bold" transform="translate(3 -4)">
                                        <tspan x="454.071" y="135.372" fill="#092E6E">AR Con</tspan> <tspan x="516.603" y="135.372" fill="#092E6E" letter-spacing="-.344">t</tspan> <tspan x="523.477" y="135.372" fill="#092E6E">ent</tspan>
                                    </text>
                                    <text font-family="NotoSansCJKkr-Bold, Noto Sans CJK KR" font-size="18" font-weight="bold" transform="translate(3 -4)">
                                        <tspan x="414.543" y="156.972" fill="#092E6E">Mana</tspan> <tspan x="462.729" y="156.972" fill="#092E6E" letter-spacing="-.344">g</tspan> <tspan x="472.789" y="156.972" fill="#092E6E">ement Se</tspan> <tspan x="555.932" y="156.972" fill="#092E6E" letter-spacing=".252">r</tspan> <tspan x="564.284" y="156.972" fill="#092E6E" letter-spacing="-.144">v</tspan> <tspan x="574.364" y="156.972" fill="#092E6E">er</tspan>
                                    </text>
                                    <g>
                                        <path fill="#E6E8EB" d="M458.642 46.313L458.642 77.653 496.475 77.653 496.475 46.023z" transform="translate(3 -4) translate(24 29.285)"/>
                                        <path stroke="#000" stroke-width=".565" d="M458.642 46.313L458.642 77.653 496.475 77.653 496.475 46.023z" transform="translate(3 -4) translate(24 29.285)"/>
                                        <path fill="#FFF" d="M457.399 46.262c-1.382 0-2.507-1.125-2.507-2.508V37.6c0-1.383 1.125-2.508 2.507-2.508h40.176c1.383 0 2.508 1.125 2.508 2.508v6.154c0 1.383-1.125 2.508-2.508 2.508h-40.176z" transform="translate(3 -4) translate(24 29.285)"/>
                                        <path fill="#000" d="M497.575 34.81H457.4c-1.534 0-2.789 1.256-2.789 2.789v6.155c0 1.535 1.255 2.79 2.79 2.79h40.175c1.534 0 2.79-1.255 2.79-2.79v-6.155c0-1.533-1.256-2.79-2.79-2.79m0 .565c1.227 0 2.225.998 2.225 2.225v6.155c0 1.228-.998 2.225-2.225 2.225H457.4c-1.227 0-2.225-.997-2.225-2.225v-6.155c0-1.227.998-2.225 2.225-2.225h40.176" transform="translate(3 -4) translate(24 29.285)"/>
                                        <path fill="#FFF" d="M457.399 60.517c-1.382 0-2.507-1.125-2.507-2.508v-6.154c0-1.383 1.125-2.508 2.507-2.508h40.176c1.383 0 2.508 1.125 2.508 2.508v6.154c0 1.383-1.125 2.508-2.508 2.508h-40.176z" transform="translate(3 -4) translate(24 29.285)"/>
                                        <path fill="#000" d="M497.575 49.065H457.4c-1.534 0-2.789 1.256-2.789 2.79v6.154c0 1.535 1.255 2.788 2.79 2.788h40.175c1.534 0 2.79-1.253 2.79-2.788v-6.154c0-1.534-1.256-2.79-2.79-2.79m0 .565c1.227 0 2.225.996 2.225 2.224v6.154c0 1.227-.998 2.225-2.225 2.225H457.4c-1.227 0-2.225-.997-2.225-2.224v-6.154c0-1.228.998-2.225 2.225-2.225h40.176" transform="translate(3 -4) translate(24 29.285)"/>
                                        <path fill="#FFF" d="M457.399 74.691c-1.382 0-2.507-1.125-2.507-2.508V66.03c0-1.382 1.125-2.507 2.507-2.507h40.176c1.383 0 2.508 1.125 2.508 2.507v6.154c0 1.383-1.125 2.508-2.508 2.508h-40.176z" transform="translate(3 -4) translate(24 29.285)"/>
                                        <path fill="#000" d="M497.575 63.24H457.4c-1.534 0-2.789 1.255-2.789 2.79v6.154c0 1.534 1.255 2.79 2.79 2.79h40.175c1.534 0 2.79-1.256 2.79-2.79V66.03c0-1.534-1.256-2.79-2.79-2.79m0 .565c1.227 0 2.225.997 2.225 2.225v6.155c0 1.227-.998 2.225-2.225 2.225H457.4c-1.227 0-2.225-.998-2.225-2.225V66.03c0-1.228.998-2.225 2.225-2.225h40.176" transform="translate(3 -4) translate(24 29.285)"/>
                                        <path fill="#0A51B7" d="M483.092 42.282c-.885 0-1.605-.72-1.605-1.605s.72-1.606 1.605-1.606 1.605.721 1.605 1.606c0 .884-.72 1.605-1.605 1.605" transform="translate(3 -4) translate(24 29.285)"/>
                                        <path fill="#000" d="M483.092 38.79c-1.042 0-1.887.844-1.887 1.887 0 1.042.845 1.887 1.887 1.887s1.887-.845 1.887-1.887c0-1.043-.845-1.888-1.887-1.888m0 .565c.729 0 1.323.593 1.323 1.323S483.82 42 483.092 42c-.73 0-1.323-.593-1.323-1.322 0-.73.594-1.323 1.323-1.323" transform="translate(3 -4) translate(24 29.285)"/>
                                        <path fill="#0A51B7" d="M488.914 42.282c-.885 0-1.605-.72-1.605-1.605s.72-1.606 1.605-1.606 1.605.721 1.605 1.606c0 .884-.72 1.605-1.605 1.605" transform="translate(3 -4) translate(24 29.285)"/>
                                        <path fill="#000" d="M488.914 38.79c-1.043 0-1.888.844-1.888 1.887 0 1.042.845 1.887 1.888 1.887 1.042 0 1.887-.845 1.887-1.887 0-1.043-.845-1.888-1.887-1.888m0 .565c.729 0 1.322.593 1.322 1.323S489.643 42 488.914 42c-.73 0-1.323-.593-1.323-1.322 0-.73.594-1.323 1.323-1.323" transform="translate(3 -4) translate(24 29.285)"/>
                                        <path fill="#0A51B7" d="M494.735 42.282c-.885 0-1.605-.72-1.605-1.605s.72-1.606 1.605-1.606 1.605.721 1.605 1.606c0 .884-.72 1.605-1.605 1.605" transform="translate(3 -4) translate(24 29.285)"/>
                                        <path fill="#000" d="M494.735 38.79c-1.042 0-1.888.844-1.888 1.887 0 1.042.846 1.887 1.888 1.887 1.042 0 1.888-.845 1.888-1.887 0-1.043-.846-1.888-1.888-1.888m0 .565c.729 0 1.323.593 1.323 1.323S495.464 42 494.735 42s-1.323-.593-1.323-1.322c0-.73.594-1.323 1.323-1.323" transform="translate(3 -4) translate(24 29.285)"/>
                                        <path fill="#0A51B7" d="M483.092 56.537c-.885 0-1.605-.72-1.605-1.605s.72-1.606 1.605-1.606 1.605.721 1.605 1.606c0 .884-.72 1.605-1.605 1.605" transform="translate(3 -4) translate(24 29.285)"/>
                                        <path fill="#000" d="M483.092 53.044c-1.042 0-1.887.846-1.887 1.888 0 1.042.845 1.887 1.887 1.887s1.887-.845 1.887-1.887-.845-1.888-1.887-1.888m0 .564c.729 0 1.323.594 1.323 1.324 0 .729-.594 1.323-1.323 1.323-.73 0-1.323-.594-1.323-1.323 0-.73.594-1.324 1.323-1.324" transform="translate(3 -4) translate(24 29.285)"/>
                                        <path fill="#0A51B7" d="M488.914 56.537c-.885 0-1.605-.72-1.605-1.605s.72-1.606 1.605-1.606 1.605.721 1.605 1.606c0 .884-.72 1.605-1.605 1.605" transform="translate(3 -4) translate(24 29.285)"/>
                                        <path fill="#000" d="M488.914 53.044c-1.043 0-1.888.846-1.888 1.888 0 1.042.845 1.887 1.888 1.887 1.042 0 1.887-.845 1.887-1.887s-.845-1.888-1.887-1.888m0 .564c.729 0 1.322.594 1.322 1.324 0 .729-.593 1.323-1.322 1.323-.73 0-1.323-.594-1.323-1.323 0-.73.594-1.324 1.323-1.324" transform="translate(3 -4) translate(24 29.285)"/>
                                        <path fill="#0A51B7" d="M494.735 56.537c-.885 0-1.605-.72-1.605-1.605s.72-1.606 1.605-1.606 1.605.721 1.605 1.606c0 .884-.72 1.605-1.605 1.605" transform="translate(3 -4) translate(24 29.285)"/>
                                        <path fill="#000" d="M494.735 53.044c-1.042 0-1.888.846-1.888 1.888 0 1.042.846 1.887 1.888 1.887 1.042 0 1.888-.845 1.888-1.887s-.846-1.888-1.888-1.888m0 .564c.729 0 1.323.594 1.323 1.324 0 .729-.594 1.323-1.323 1.323s-1.323-.594-1.323-1.323c0-.73.594-1.324 1.323-1.324" transform="translate(3 -4) translate(24 29.285)"/>
                                        <path fill="#0A51B7" d="M483.092 70.712c-.885 0-1.605-.721-1.605-1.605 0-.885.72-1.606 1.605-1.606s1.605.72 1.605 1.606c0 .884-.72 1.605-1.605 1.605" transform="translate(3 -4) translate(24 29.285)"/>
                                        <path fill="#000" d="M483.092 67.22c-1.042 0-1.887.845-1.887 1.887 0 1.043.845 1.887 1.887 1.887s1.887-.844 1.887-1.887c0-1.042-.845-1.887-1.887-1.887m0 .564c.729 0 1.323.593 1.323 1.323 0 .729-.594 1.322-1.323 1.322-.73 0-1.323-.593-1.323-1.322 0-.73.594-1.323 1.323-1.323" transform="translate(3 -4) translate(24 29.285)"/>
                                        <path fill="#0A51B7" d="M488.914 70.712c-.885 0-1.605-.721-1.605-1.605 0-.885.72-1.606 1.605-1.606s1.605.72 1.605 1.606c0 .884-.72 1.605-1.605 1.605" transform="translate(3 -4) translate(24 29.285)"/>
                                        <path fill="#000" d="M488.914 67.22c-1.043 0-1.888.845-1.888 1.887 0 1.043.845 1.887 1.888 1.887 1.042 0 1.887-.844 1.887-1.887 0-1.042-.845-1.887-1.887-1.887m0 .564c.729 0 1.322.593 1.322 1.323 0 .729-.593 1.322-1.322 1.322-.73 0-1.323-.593-1.323-1.322 0-.73.594-1.323 1.323-1.323" transform="translate(3 -4) translate(24 29.285)"/>
                                        <path fill="#0A51B7" d="M494.735 70.712c-.885 0-1.605-.721-1.605-1.605 0-.885.72-1.606 1.605-1.606s1.605.72 1.605 1.606c0 .884-.72 1.605-1.605 1.605" transform="translate(3 -4) translate(24 29.285)"/>
                                        <path fill="#000" d="M494.735 67.22c-1.042 0-1.888.845-1.888 1.887 0 1.043.846 1.887 1.888 1.887 1.042 0 1.888-.844 1.888-1.887 0-1.042-.846-1.887-1.888-1.887m0 .564c.729 0 1.323.593 1.323 1.323 0 .729-.594 1.322-1.323 1.322s-1.323-.593-1.323-1.322c0-.73.594-1.323 1.323-1.323" transform="translate(3 -4) translate(24 29.285)"/>
                                        <g>
                                            <path fill="#FFF" d="M1.445 0.579L1.445 6.774" transform="translate(3 -4) translate(24 29.285) translate(458 37)"/>
                                            <path stroke="#000" stroke-width=".565" d="M1.445 0.579L1.445 6.774" transform="translate(3 -4) translate(24 29.285) translate(458 37)"/>
                                        </g>
                                        <g>
                                            <path fill="#FFF" d="M0.647 0.579L0.647 6.774" transform="translate(3 -4) translate(24 29.285) translate(462 37)"/>
                                            <path stroke="#000" stroke-width=".565" d="M0.647 0.579L0.647 6.774" transform="translate(3 -4) translate(24 29.285) translate(462 37)"/>
                                        </g>
                                        <g>
                                            <path fill="#FFF" d="M0.848 0.579L0.848 6.774" transform="translate(3 -4) translate(24 29.285) translate(465 37)"/>
                                            <path stroke="#000" stroke-width=".565" d="M0.848 0.579L0.848 6.774" transform="translate(3 -4) translate(24 29.285) translate(465 37)"/>
                                        </g>
                                        <g>
                                            <path fill="#FFF" d="M1.049 0.579L1.049 6.774" transform="translate(3 -4) translate(24 29.285) translate(468 37)"/>
                                            <path stroke="#000" stroke-width=".565" d="M1.049 0.579L1.049 6.774" transform="translate(3 -4) translate(24 29.285) translate(468 37)"/>
                                        </g>
                                        <g>
                                            <path fill="#FFF" d="M1.25 0.579L1.25 6.774" transform="translate(3 -4) translate(24 29.285) translate(471 37)"/>
                                            <path stroke="#000" stroke-width=".565" d="M1.25 0.579L1.25 6.774" transform="translate(3 -4) translate(24 29.285) translate(471 37)"/>
                                        </g>
                                        <g>
                                            <path fill="#FFF" d="M1.451 0.579L1.451 6.774" transform="translate(3 -4) translate(24 29.285) translate(474 37)"/>
                                            <path stroke="#000" stroke-width=".565" d="M1.451 0.579L1.451 6.774" transform="translate(3 -4) translate(24 29.285) translate(474 37)"/>
                                        </g>
                                        <g>
                                            <path fill="#FFF" d="M1.046 0.579L1.046 6.774" transform="translate(3 -4) translate(24 29.285) translate(460 37)"/>
                                            <path stroke="#000" stroke-width=".565" d="M1.046 0.579L1.046 6.774" transform="translate(3 -4) translate(24 29.285) translate(460 37)"/>
                                        </g>
                                        <g>
                                            <path fill="#FFF" d="M1.247 0.579L1.247 6.774" transform="translate(3 -4) translate(24 29.285) translate(463 37)"/>
                                            <path stroke="#000" stroke-width=".565" d="M1.247 0.579L1.247 6.774" transform="translate(3 -4) translate(24 29.285) translate(463 37)"/>
                                        </g>
                                        <g>
                                            <path fill="#FFF" d="M1.448 0.579L1.448 6.774" transform="translate(3 -4) translate(24 29.285) translate(466 37)"/>
                                            <path stroke="#000" stroke-width=".565" d="M1.448 0.579L1.448 6.774" transform="translate(3 -4) translate(24 29.285) translate(466 37)"/>
                                        </g>
                                        <g>
                                            <path fill="#FFF" d="M0.649 0.579L0.649 6.774" transform="translate(3 -4) translate(24 29.285) translate(470 37)"/>
                                            <path stroke="#000" stroke-width=".565" d="M0.649 0.579L0.649 6.774" transform="translate(3 -4) translate(24 29.285) translate(470 37)"/>
                                        </g>
                                        <g>
                                            <path fill="#FFF" d="M0.851 0.579L0.851 6.774" transform="translate(3 -4) translate(24 29.285) translate(473 37)"/>
                                            <path stroke="#000" stroke-width=".565" d="M0.851 0.579L0.851 6.774" transform="translate(3 -4) translate(24 29.285) translate(473 37)"/>
                                        </g>
                                        <g>
                                            <path fill="#FFF" d="M1.445 0.834L1.445 7.029" transform="translate(3 -4) translate(24 29.285) translate(458 51)"/>
                                            <path stroke="#000" stroke-width=".565" d="M1.445 0.834L1.445 7.029" transform="translate(3 -4) translate(24 29.285) translate(458 51)"/>
                                        </g>
                                        <g>
                                            <path fill="#FFF" d="M0.647 0.834L0.647 7.029" transform="translate(3 -4) translate(24 29.285) translate(462 51)"/>
                                            <path stroke="#000" stroke-width=".565" d="M0.647 0.834L0.647 7.029" transform="translate(3 -4) translate(24 29.285) translate(462 51)"/>
                                        </g>
                                        <g>
                                            <path fill="#FFF" d="M0.848 0.834L0.848 7.029" transform="translate(3 -4) translate(24 29.285) translate(465 51)"/>
                                            <path stroke="#000" stroke-width=".565" d="M0.848 0.834L0.848 7.029" transform="translate(3 -4) translate(24 29.285) translate(465 51)"/>
                                        </g>
                                        <g>
                                            <path fill="#FFF" d="M1.049 0.834L1.049 7.029" transform="translate(3 -4) translate(24 29.285) translate(468 51)"/>
                                            <path stroke="#000" stroke-width=".565" d="M1.049 0.834L1.049 7.029" transform="translate(3 -4) translate(24 29.285) translate(468 51)"/>
                                        </g>
                                        <g>
                                            <path fill="#FFF" d="M1.25 0.834L1.25 7.029" transform="translate(3 -4) translate(24 29.285) translate(471 51)"/>
                                            <path stroke="#000" stroke-width=".565" d="M1.25 0.834L1.25 7.029" transform="translate(3 -4) translate(24 29.285) translate(471 51)"/>
                                        </g>
                                        <g>
                                            <path fill="#FFF" d="M1.451 0.834L1.451 7.029" transform="translate(3 -4) translate(24 29.285) translate(474 51)"/>
                                            <path stroke="#000" stroke-width=".565" d="M1.451 0.834L1.451 7.029" transform="translate(3 -4) translate(24 29.285) translate(474 51)"/>
                                        </g>
                                        <g>
                                            <path fill="#FFF" d="M1.046 0.834L1.046 7.029" transform="translate(3 -4) translate(24 29.285) translate(460 51)"/>
                                            <path stroke="#000" stroke-width=".565" d="M1.046 0.834L1.046 7.029" transform="translate(3 -4) translate(24 29.285) translate(460 51)"/>
                                        </g>
                                        <g>
                                            <path fill="#FFF" d="M1.247 0.834L1.247 7.029" transform="translate(3 -4) translate(24 29.285) translate(463 51)"/>
                                            <path stroke="#000" stroke-width=".565" d="M1.247 0.834L1.247 7.029" transform="translate(3 -4) translate(24 29.285) translate(463 51)"/>
                                        </g>
                                        <g>
                                            <path fill="#FFF" d="M1.448 0.834L1.448 7.029" transform="translate(3 -4) translate(24 29.285) translate(466 51)"/>
                                            <path stroke="#000" stroke-width=".565" d="M1.448 0.834L1.448 7.029" transform="translate(3 -4) translate(24 29.285) translate(466 51)"/>
                                        </g>
                                        <g>
                                            <path fill="#FFF" d="M0.649 0.834L0.649 7.029" transform="translate(3 -4) translate(24 29.285) translate(470 51)"/>
                                            <path stroke="#000" stroke-width=".565" d="M0.649 0.834L0.649 7.029" transform="translate(3 -4) translate(24 29.285) translate(470 51)"/>
                                        </g>
                                        <g>
                                            <path fill="#FFF" d="M0.851 0.834L0.851 7.029" transform="translate(3 -4) translate(24 29.285) translate(473 51)"/>
                                            <path stroke="#000" stroke-width=".565" d="M0.851 0.834L0.851 7.029" transform="translate(3 -4) translate(24 29.285) translate(473 51)"/>
                                        </g>
                                        <g>
                                            <path fill="#FFF" d="M1.445 0.089L1.445 6.284" transform="translate(3 -4) translate(24 29.285) translate(458 66)"/>
                                            <path stroke="#000" stroke-width=".565" d="M1.445 0.089L1.445 6.284" transform="translate(3 -4) translate(24 29.285) translate(458 66)"/>
                                        </g>
                                        <g>
                                            <path fill="#FFF" d="M0.647 0.089L0.647 6.284" transform="translate(3 -4) translate(24 29.285) translate(462 66)"/>
                                            <path stroke="#000" stroke-width=".565" d="M0.647 0.089L0.647 6.284" transform="translate(3 -4) translate(24 29.285) translate(462 66)"/>
                                        </g>
                                        <g>
                                            <path fill="#FFF" d="M0.848 0.089L0.848 6.284" transform="translate(3 -4) translate(24 29.285) translate(465 66)"/>
                                            <path stroke="#000" stroke-width=".565" d="M0.848 0.089L0.848 6.284" transform="translate(3 -4) translate(24 29.285) translate(465 66)"/>
                                        </g>
                                        <g>
                                            <path fill="#FFF" d="M1.049 0.089L1.049 6.284" transform="translate(3 -4) translate(24 29.285) translate(468 66)"/>
                                            <path stroke="#000" stroke-width=".565" d="M1.049 0.089L1.049 6.284" transform="translate(3 -4) translate(24 29.285) translate(468 66)"/>
                                        </g>
                                        <g>
                                            <path fill="#FFF" d="M1.25 0.089L1.25 6.284" transform="translate(3 -4) translate(24 29.285) translate(471 66)"/>
                                            <path stroke="#000" stroke-width=".565" d="M1.25 0.089L1.25 6.284" transform="translate(3 -4) translate(24 29.285) translate(471 66)"/>
                                        </g>
                                        <g>
                                            <path fill="#FFF" d="M1.451 0.089L1.451 6.284" transform="translate(3 -4) translate(24 29.285) translate(474 66)"/>
                                            <path stroke="#000" stroke-width=".565" d="M1.451 0.089L1.451 6.284" transform="translate(3 -4) translate(24 29.285) translate(474 66)"/>
                                        </g>
                                        <g>
                                            <path fill="#FFF" d="M1.046 0.089L1.046 6.284" transform="translate(3 -4) translate(24 29.285) translate(460 66)"/>
                                            <path stroke="#000" stroke-width=".565" d="M1.046 0.089L1.046 6.284" transform="translate(3 -4) translate(24 29.285) translate(460 66)"/>
                                        </g>
                                        <g>
                                            <path fill="#FFF" d="M1.247 0.089L1.247 6.284" transform="translate(3 -4) translate(24 29.285) translate(463 66)"/>
                                            <path stroke="#000" stroke-width=".565" d="M1.247 0.089L1.247 6.284" transform="translate(3 -4) translate(24 29.285) translate(463 66)"/>
                                        </g>
                                        <g>
                                            <path fill="#FFF" d="M1.448 0.089L1.448 6.284" transform="translate(3 -4) translate(24 29.285) translate(466 66)"/>
                                            <path stroke="#000" stroke-width=".565" d="M1.448 0.089L1.448 6.284" transform="translate(3 -4) translate(24 29.285) translate(466 66)"/>
                                        </g>
                                        <g>
                                            <path fill="#FFF" d="M0.649 0.089L0.649 6.284" transform="translate(3 -4) translate(24 29.285) translate(470 66)"/>
                                            <path stroke="#000" stroke-width=".565" d="M0.649 0.089L0.649 6.284" transform="translate(3 -4) translate(24 29.285) translate(470 66)"/>
                                        </g>
                                        <g>
                                            <path fill="#FFF" d="M0.851 0.089L0.851 6.284" transform="translate(3 -4) translate(24 29.285) translate(473 66)"/>
                                            <path stroke="#000" stroke-width=".565" d="M0.851 0.089L0.851 6.284" transform="translate(3 -4) translate(24 29.285) translate(473 66)"/>
                                        </g>
                                        <path fill="#E6E8EB" d="M492.283 66.224s.188-1.193 1.877-2.007c1.69-.813 5.93-1.964 11.11-1.25 5.18.716 6.54 2 6.54 2l.622 1.378V81.49s-.685 1.814-4.159 2.565c-3.473.75-10.388 1.002-13.705-.531 0 0-2.097-.877-2.285-2.192v-15.11z" transform="translate(3 -4) translate(24 29.285)"/>
                                        <path stroke="#000" stroke-width=".565" d="M512.433 66.089s-.778-3.346-10.378-3.346-9.771 3.416-9.771 3.416V81.37s1.055 3.439 10.068 3.439c9.014 0 10.08-3.44 10.08-3.44V66.09z" transform="translate(3 -4) translate(24 29.285)"/>
                                        <path stroke="#000" stroke-width=".565" d="M492.283 71.538s1.125 3.296 10.205 3.21c9.08-.088 9.944-3.21 9.944-3.21M492.283 76.495s1.125 3.297 10.205 3.21c9.08-.087 9.944-3.21 9.944-3.21M492.283 66.58s1.125 3.296 10.205 3.21c9.08-.087 9.944-3.21 9.944-3.21" transform="translate(3 -4) translate(24 29.285)"/>
                                        <path fill="#FFF" d="M113.394 56.507c0 31.125-25.232 56.356-56.357 56.356S.68 87.632.68 56.507C.68 25.38 25.912.15 57.037.15s56.357 25.23 56.357 56.357" transform="translate(3 -4) translate(24 29.285)"/>
                                        <path stroke="#C5C8CF" stroke-width=".75" d="M113.394 56.507c0 31.125-25.232 56.356-56.357 56.356S.68 87.632.68 56.507C.68 25.38 25.912.15 57.037.15s56.357 25.23 56.357 56.357z" transform="translate(3 -4) translate(24 29.285)"/>
                                        <path stroke="#231916" stroke-linejoin="round" stroke-width=".485" d="M81.841 54.365c-.164 0-.326.005-.485.014" transform="translate(3 -4) translate(24 29.285)"/>
                                        <path stroke="#231916" stroke-dasharray=".98 .98" stroke-linejoin="round" stroke-width=".485" d="M80.383 54.494c-2.18.396-3.866 1.655-4.743 3.188-.999 1.743-3.289 3.316-6.2 3.316-3.426 0-4.807-1.563-6.203-3.316-1.33-1.672-2.776-3.317-6.2-3.317-3.425 0-5.178 1.492-6.202 3.317-.979 1.747-2.776 3.316-6.2 3.316-2.662 0-4.807-1.563-6.202-3.316-1.169-1.47-2.938-2.918-5.228-3.248" transform="translate(3 -4) translate(24 29.285)"/>
                                        <path stroke="#231916" stroke-linejoin="round" stroke-width=".485" d="M32.717 54.383c-.16-.012-.321-.018-.485-.018" transform="translate(3 -4) translate(24 29.285)"/>
                                        <path stroke="#0A51B7" stroke-width=".485" d="M81.841 60.999c-2.803 0-5.137-1.459-6.2-3.317-.999-1.744-3.478-3.317-6.202-3.317-2.78 0-4.806 1.563-6.202 3.317-1.33 1.671-2.776 3.317-6.2 3.317-3.425 0-5.178-1.492-6.202-3.317-.98-1.747-3.269-3.317-6.2-3.317-2.662 0-4.807 1.563-6.202 3.317-1.33 1.671-2.777 3.317-6.2 3.317" transform="translate(3 -4) translate(24 29.285)"/>
                                    </g>
                                    <g transform="translate(3 -4) translate(69 73.285)">
                                        <mask id="gjch1o0ndh" fill="#fff">
                                            <use xlink:href="#822x9rsqwg"/>
                                        </mask>
                                        <path fill="#FFF" d="M-1.672 29.23L25.745 29.23 25.745 -1.679 -1.672 -1.679z" mask="url(#gjch1o0ndh)"/>
                                    </g>
                                    <g transform="translate(3 -4) translate(69 80.285)">
                                        <mask id="o2b0yh90lj" fill="#fff">
                                            <use xlink:href="#lqt80xb8ji"/>
                                        </mask>
                                        <path fill="#0A51B7" d="M-1.452 22.033L14.46 22.033 14.46 -2.036 -1.452 -2.036z" mask="url(#o2b0yh90lj)"/>
                                    </g>
                                    <g transform="translate(3 -4) translate(69 73.285)">
                                        <mask id="h3ekupurgl" fill="#fff">
                                            <use xlink:href="#q40ajjkpjk"/>
                                        </mask>
                                        <path fill="#000" d="M-1.672 29.229L25.745 29.229 25.745 -1.679 -1.672 -1.679z" mask="url(#h3ekupurgl)"/>
                                    </g>
                                    <g>
                                        <path stroke="#000" stroke-width=".388" d="M24.037 35.611L24.037 22.775M12.97 16.387L24.036 22.776M24.037 22.775L35.073 16.404" transform="translate(3 -4) translate(57 64.285)"/>
                                        <path stroke="#000" stroke-width=".779" d="M43.415.152L47.127.152 47.127 3.865M4.66.152L.947.152.947 3.865M4.66 45.211L.947 45.211.947 41.498M43.415 45.211L47.127 45.211 47.127 41.498" transform="translate(3 -4) translate(57 64.285)"/>
                                        <path stroke="#C5C8CF" stroke-width=".75" d="M400.109 15.139L309.502 15.139" transform="translate(3 -4) translate(57 64.285)"/>
                                        <path fill="#C5C8CF" d="M394.134 15.139L394.134 10.376 398.258 12.758 402.382 15.139 398.258 17.52 394.134 19.901z" transform="translate(3 -4) translate(57 64.285)"/>
                                        <path stroke="#C5C8CF" stroke-width=".75" d="M307.651 28.203L398.257 28.203" transform="translate(3 -4) translate(57 64.285)"/>
                                        <path fill="#C5C8CF" d="M313.626 28.203L313.626 32.966 309.502 30.584 305.378 28.203 309.502 25.822 313.626 23.441z" transform="translate(3 -4) translate(57 64.285)"/>
                                    </g>
                                    <text font-family="NotoSansCJKkr-Medium, Noto Sans CJK KR" font-size="12" font-weight="400" transform="translate(3 -4)">
                                        <tspan x="386.53" y="110.581" fill="#000">D</tspan> <tspan x="394.918" y="110.581" fill="#000" letter-spacing="-.204">a</tspan> <tspan x="401.41" y="110.581" fill="#000" letter-spacing="-.288">t</tspan> <tspan x="405.586" y="110.581" fill="#000">a link</tspan>
                                    </text>
                                    <text font-family="NotoSansCJKkr-Medium, Noto Sans CJK KR" font-size="12" font-weight="400" transform="translate(3 -4)">
                                        <tspan x="365.29" y="47.041" fill="#000">AR main</tspan> <tspan x="412.45" y="47.041" fill="#000" letter-spacing="-.204">t</tspan> <tspan x="416.794" y="47.041" fill="#000">enan</tspan> <tspan x="445.45" y="47.041" fill="#000" letter-spacing="-.312">c</tspan> <tspan x="451.03" y="47.041" fill="#000">e</tspan>
                                    </text>
                                    <text font-family="NotoSansCJKkr-Medium, Noto Sans CJK KR" font-size="12" font-weight="400" transform="translate(3 -4)">
                                        <tspan x="389.998" y="63.037" fill="#000">manual</tspan>
                                    </text>
                                </g>
                            </g>
                        </g>
                    </g>
                </g>
            </g>
        </g>
    </g>
</svg>
