<svg xmlns="http://www.w3.org/2000/svg" xmlns:xlink="http://www.w3.org/1999/xlink" width="780" height="210" viewBox="0 0 780 210">
    <defs>
        <path id="prefix__a" d="M0 155L739.844 155 739.844 0.69 0 0.69z"/>
        <path id="prefix__c" d="M0.937 7L0.937 20.033 12.223 26.548 23.509 20.033 23.509 7 12.223 0.484z"/>
        <path id="prefix__e" d="M0.157 13.033L11.223 19.351 11.223 6.516 0.157 0.127z"/>
        <path id="prefix__g" d="M.937 7v13.033l11.286 6.515 11.286-6.515V7L12.223.484.937 7zm.388 12.808V7.225L12.223.933l10.898 6.292v12.583L12.223 26.1 1.325 19.808z"/>
    </defs>
    <g fill="none" fill-rule="evenodd">
        <path fill="#F8F9FB" d="M0 0H780V210H0z"/>
        <g>
            <g transform="translate(22 27) translate(0 .31)">
                <path fill="#000" d="M26.576 136.95c0-.672-.96-1.068-2.555-1.068-1.606 0-2.59.396-2.59 1.067 0 .684.984 1.08 2.59 1.08 1.596 0 2.555-.396 2.555-1.08zm-.348-4.63c.276-1.067.288-1.847.288-2.663h-6.212v-.995h7.435v.911c0 .864 0 1.764-.3 2.88l-1.211-.133zm1.583 4.63c0 1.26-1.487 2.026-3.79 2.026-2.34 0-3.813-.767-3.813-2.027 0-1.247 1.474-2.015 3.813-2.015 2.303 0 3.79.768 3.79 2.015zm1.128-3.85v.995h-9.762v-.996h3.837v-1.99h1.248v1.99h4.677zM37.94 130.87v-2.724h1.235v6.452H37.94v-2.722h-1.919v-1.007h1.92zm.048 6.067c0-.707-.888-1.09-2.41-1.09-1.548 0-2.423.383-2.423 1.09 0 .708.875 1.092 2.422 1.092 1.523 0 2.411-.384 2.411-1.092zm1.235 0c0 1.295-1.39 2.051-3.646 2.051-2.267 0-3.658-.756-3.658-2.05 0-1.284 1.391-2.05 3.658-2.05 2.255 0 3.646.766 3.646 2.05zm-3.19-2.686c-1.199-.42-2.063-1.272-2.519-2.315-.479 1.188-1.39 2.147-2.675 2.603l-.635-.983c1.68-.6 2.651-2.04 2.651-3.527v-.156h-2.29v-.995h5.792v.995h-2.255v.144c0 1.356.923 2.7 2.542 3.262l-.61.972z"/>
                <mask id="prefix__b" fill="#fff">
                    <use xlink:href="#prefix__a"/>
                </mask>
                <path fill="#000" d="M52.292 139h1.247v-10.878h-1.247V139zm-5.829-3.598c1.714-.011 3.214-.095 4.929-.372l.132 1.008c-1.859.324-3.478.384-5.386.384h-.922v-4.294h3.777v-2.015h-3.802v-1.008h5.05v4.019h-3.778v2.278zM64.495 134.455c-1.763-.36-3.286-1.487-3.994-2.975-.707 1.488-2.231 2.615-3.993 2.975l-.53-1.02c2.136-.395 3.875-2.062 3.875-3.778v-.815h1.308v.815c0 1.728 1.739 3.395 3.874 3.778l-.54 1.02zm-8.852 3.13h9.81v-1.02h-9.81v1.02zM75.403 134.862h-7.508v-5.84h7.424v.995h-6.165v1.391h5.925v.972h-5.925v1.487h6.25v.995zm-8.719 2.783h9.823v-1.008h-9.823v1.008zM77.748 139.672c.815-.336 1.295-.936 1.308-1.643-.05.012-.084.012-.133.012-.491 0-.923-.311-.923-.888 0-.54.432-.887.959-.887.672 0 1.067.564 1.067 1.487 0 1.26-.731 2.23-1.966 2.699l-.312-.78zM91.736 130.94h-2.195v-.995h2.195v-1.81h1.235v5.564h-1.235v-2.759zm1.606 6.933v.971h-7.399v-2.806h5.805v-.864H85.92v-.96h7.052v2.735h-5.804v.924h6.175zm-3.597-4.354c-1.175-.395-2.039-1.199-2.494-2.207-.48 1.128-1.38 2.003-2.652 2.447l-.634-.97c1.69-.553 2.637-1.909 2.637-3.396v-.91h1.236v.91c0 1.367.935 2.64 2.554 3.166l-.647.96zM102.704 139h1.247v-10.865h-1.247V139zm-5.864-3.573h2.746v-2.65H96.84v2.65zm0-6.393v2.758h2.746v-2.758h1.235v7.388h-5.205v-7.388h1.224zM106.104 139.672c.815-.336 1.295-.936 1.308-1.643-.049.012-.084.012-.133.012-.49 0-.923-.311-.923-.888 0-.54.432-.887.96-.887.671 0 1.066.564 1.066 1.487 0 1.26-.73 2.23-1.966 2.699l-.312-.78zM.42 149.543c2.11-.336 3.826-1.835 3.826-3.466v-.024H.804v-.995h8.179v.995H5.54v.024c0 1.631 1.728 3.095 3.874 3.43l-.504.983c-1.787-.335-3.31-1.343-4.017-2.721-.696 1.39-2.207 2.421-3.958 2.757l-.516-.983zm9.39 3.095v1.007H0v-1.007h4.282v-2.532h1.247v2.532H9.81zM18.729 150.131h1.235v-5.984h-1.235v5.984zm-4.631 3.718h4.642v-1.127h-4.642v1.127zm4.642-3.214h1.224v4.21h-7.101v-4.21h1.235v1.115h4.642v-1.115zm-.995-1.031c-1.703.275-3.167.323-5.241.323h-.912v-3.142h3.717v-1.128h-3.741v-1.007h4.953v3.071h-3.706v1.199c1.86 0 3.214-.061 4.785-.324l.145 1.008zM29.074 149.699h2.494v-3.538h-2.494v3.538zm-1.235-3.538h-1.596v-.995h8.143v.995h-1.594v3.538h1.571v1.008h-8.084v-1.008h1.56v-3.538zm-2.412 7.484h9.835v-1.019h-9.835v1.019zM46.29 152.685L46.29 153.706 36.479 153.706 36.479 152.685 40.749 152.685 40.749 150.839 37.667 150.839 37.667 147.349 43.903 147.349 43.903 145.898 37.644 145.898 37.644 144.901 45.127 144.901 45.127 148.332 38.879 148.332 38.879 149.843 45.367 149.843 45.367 150.839 41.984 150.839 41.984 152.685zM55.591 154.977h1.175v-10.83h-1.175v10.83zm-2.206-10.627h1.163v10.123h-1.163v-5.53h-1.596v-1.006h1.596v-3.587zm-2.543 2.686c0 1.752.66 3.587 2.111 4.498l-.696.959c-.984-.599-1.631-1.654-2.003-2.866-.384 1.331-1.091 2.471-2.135 3.106l-.755-.935c1.535-.911 2.278-2.855 2.278-4.701v-1.955h1.2v1.894zM67.41 150.455c-1.762-.36-3.285-1.487-3.993-2.975-.707 1.488-2.231 2.615-3.993 2.975l-.53-1.02c2.136-.396 3.875-2.063 3.875-3.778v-.815h1.308v.815c0 1.728 1.739 3.395 3.874 3.778l-.54 1.02zm-8.851 3.13h9.81v-1.02h-9.81v1.02zM81.02 154.964h1.187v-10.83H81.02v10.83zm-2.207-10.59h1.163v10.087h-1.163v-5.254h-2.135V148.2h2.135v-3.826zm-4.27 7.064c1.343-.012 2.267-.072 3.335-.299l.107 1.019c-1.224.239-2.278.3-3.933.3h-.732v-7.04h4.102v1.007h-2.879v5.013zM91.664 155h1.247v-10.866h-1.247V155zm-6.116-6.248c0 1.703.659 2.723 1.594 2.723.948 0 1.608-1.02 1.608-2.723 0-1.68-.66-2.699-1.608-2.699-.935 0-1.594 1.019-1.594 2.699zm4.389 0c0 2.351-1.176 3.825-2.795 3.825-1.607 0-2.782-1.474-2.782-3.825 0-2.327 1.175-3.815 2.782-3.815 1.619 0 2.795 1.488 2.795 3.815zM104.035 144.122v10.866h-1.247v-5.865h-2.075v-1.02h2.075v-3.98h1.247zm-7.28 7.328c1.727-.012 2.963-.072 4.378-.31l.108.994c-1.548.275-2.902.324-4.87.324h-.851v-7.376h5.025v1.02h-3.79v2.026h3.346v.983h-3.345v2.34zM114.921 148.38h2.255v-1.331h-2.255v1.331zm3.742 5.385v1.007h-7.305v-3.394h1.248v2.387h6.057zm-7.508-4.377h2.554v-1.764h-2.554v1.764zm3.766 1.007h-4.99v-5.529h1.224v1.786h2.554v-1.786h1.212v1.187h2.255v-1.895h1.235v8h-1.235v-2.77h-2.255v1.007zM130.446 147.816v1.02h-1.487v3.777h-1.236v-8.48h1.236v3.683h1.487zm-6.692 1.067c.863 0 1.415-.299 1.415-.803 0-.516-.552-.827-1.415-.827-.864 0-1.415.311-1.415.827 0 .504.551.803 1.415.803zm-.564 4.881h6.141v1.008h-7.376v-2.698h1.235v1.69zm3.658-7.735h-6.188v-.912h2.482v-1.019h1.247v1.02h2.459v.911zm.396 4.941c-2.267.432-4.846.48-6.717.492l-.144-.984c.804 0 1.763-.012 2.759-.036v-.743c-1.212-.144-1.967-.732-1.967-1.619 0-1.032 1.02-1.667 2.579-1.667 1.559 0 2.579.635 2.579 1.667 0 .875-.744 1.475-1.944 1.62v.682c.936-.059 1.883-.13 2.759-.263l.096.851z" mask="url(#prefix__b)"/>
                <path fill="#C5C8CF" d="M132.121 57.381L173.949 57.381 173.949 56.631 132.121 56.631z" mask="url(#prefix__b)"/>
                <path fill="#C5C8CF" d="M167.974 57.006L167.974 52.244 172.098 54.625 176.222 57.006 172.098 59.388 167.974 61.769zM311.452 51.131L412.059 51.131 412.059 50.381 311.452 50.381z" mask="url(#prefix__b)"/>
                <path fill="#C5C8CF" d="M406.083 50.756L406.083 45.994 410.207 48.375 414.331 50.756 410.207 53.137 406.083 55.518zM309.6 64.196L410.207 64.196 410.207 63.446 309.6 63.446z" mask="url(#prefix__b)"/>
                <path fill="#C5C8CF" d="M315.576 63.821L315.576 68.583 311.452 66.202 307.328 63.821 311.452 61.439 315.576 59.058zM521.926 57.381L615.385 57.381 615.385 56.631 521.926 56.631z" mask="url(#prefix__b)"/>
                <path fill="#C5C8CF" d="M609.409 57.006L609.409 52.244 613.533 54.625 617.657 57.006 613.533 59.388 609.409 61.769z" mask="url(#prefix__b)"/>
                <path fill="#000" d="M644.207 134.443l-.348-1.187c-.3-.959-.563-1.943-.84-2.939h-.047c-.252 1.008-.528 1.98-.816 2.94l-.36 1.186h2.41zm.336 1.092h-3.07l-.756 2.518h-1.415l2.926-8.827h1.607l2.927 8.827h-1.476l-.743-2.518zM649.32 133.376h1.331c1.283 0 1.98-.527 1.98-1.595 0-1.067-.697-1.439-1.98-1.439h-1.33v3.034zm3.43 4.678l-2.003-3.563h-1.427v3.563h-1.392v-8.827h2.891c1.823 0 3.19.647 3.19 2.554 0 1.367-.73 2.183-1.846 2.531l2.158 3.742h-1.57zM667.184 128.147v10.817h-1.175v-5.589h-1.235v5.085h-1.164v-10.11h1.164v4.019h1.235v-4.222h1.175zm-7.735 7.028h1.871v-4.858h-1.87v4.857zm-1.152.982h4.174v-6.824h-4.174v6.825zM677.65 132.692h-7.46v-4.029h1.246v3.021h6.213v1.008zm1.126 2.398h-2.41v3.9h-1.236v-3.9h-2.518v3.9h-1.235v-3.9h-2.4v-1.006h9.8v1.006zM689.348 137.874v.971h-7.399v-2.842h5.816v-.888h-5.829v-.96h7.053v2.759h-5.818v.96h6.177zm-6.356-5.445c.935 0 1.63-.588 1.63-1.476s-.695-1.475-1.63-1.475c-.959 0-1.643.587-1.643 1.475 0 .888.684 1.476 1.643 1.476zm2.758-.984c-.228 1.175-1.319 1.991-2.758 1.991-1.63 0-2.83-1.032-2.83-2.483s1.2-2.482 2.83-2.482c1.427 0 2.506.792 2.747 1.966h2.002v-2.302h1.248v5.481h-1.248v-2.171h-1.99zM702.082 139.001h1.247v-10.866h-1.247v10.866zm-3.67-8.18c0 1.992 1.103 3.983 2.807 4.75l-.72.984c-1.247-.588-2.196-1.787-2.687-3.251-.492 1.571-1.451 2.854-2.759 3.49l-.731-1.031c1.728-.78 2.855-2.855 2.855-4.942v-1.774h1.235v1.774zM715.449 131.817h-1.535v2.65h-1.236v-6.333h1.236v2.663h1.535v1.02zm-8.659 3.13h7.124v4.042h-1.236v-3.047h-5.888v-.995zm4.138-6.152c0 2.805-1.86 4.76-5.05 5.612l-.504-.972c2.543-.647 4.03-1.99 4.246-3.645h-3.731v-.995h5.039zM726.513 133.688h-1.548v5.288h-1.235v-10.841h1.236v4.532h1.547v1.02zm-6.716.336c.851 0 1.426-.407 1.426-1.067 0-.672-.574-1.08-1.426-1.08-.851 0-1.44.407-1.44 1.08 0 .66.589 1.067 1.44 1.067zm3.202-3.635h-6.44v-.995h2.614v-1.224h1.236v1.225h2.59v.994zm-2.59 5.541c.923-.048 1.846-.108 2.71-.24l.096.912c-2.315.407-4.822.433-6.682.433l-.167-1.02c.828 0 1.798 0 2.807-.036v-1.056c-1.2-.203-1.979-.935-1.979-1.966 0-1.224 1.055-2.028 2.603-2.028 1.534 0 2.59.804 2.59 2.028 0 1.03-.78 1.775-1.978 1.966v1.007zM546.11 12.502c0-.671-.96-1.067-2.555-1.067-1.606 0-2.59.396-2.59 1.067 0 .684.984 1.08 2.59 1.08 1.596 0 2.555-.396 2.555-1.08zm-.348-4.629c.276-1.067.288-1.847.288-2.663h-6.212v-.995h7.435v.911c0 .864 0 1.764-.3 2.879l-1.211-.132zm1.583 4.629c0 1.26-1.487 2.027-3.79 2.027-2.34 0-3.813-.767-3.813-2.027 0-1.247 1.474-2.015 3.813-2.015 2.303 0 3.79.768 3.79 2.015zm1.128-3.85v.996h-9.762v-.996h3.837V6.661h1.248v1.991h4.677zM557.474 6.422V3.699h1.235v6.452h-1.235V7.429h-1.92V6.422h1.92zm.048 6.068c0-.707-.888-1.09-2.411-1.09-1.547 0-2.422.383-2.422 1.09 0 .708.875 1.092 2.422 1.092 1.523 0 2.41-.384 2.41-1.092zm1.235 0c0 1.295-1.391 2.05-3.646 2.05-2.267 0-3.658-.755-3.658-2.05 0-1.283 1.39-2.05 3.658-2.05 2.255 0 3.646.767 3.646 2.05zm-3.19-2.686c-1.2-.42-2.063-1.272-2.52-2.315-.478 1.188-1.39 2.147-2.674 2.603l-.635-.983c1.679-.6 2.65-2.04 2.65-3.527v-.156h-2.29V4.43h5.793v.995h-2.255v.144c0 1.356.923 2.699 2.542 3.262l-.611.972zM571.826 14.553h1.247V3.675h-1.247v10.878zm-5.83-3.598c1.715-.012 3.214-.096 4.93-.372l.132 1.008c-1.86.324-3.479.384-5.386.384h-.923V7.681h3.778V5.666h-3.802V4.658h5.05v4.019h-3.779v2.278zM584.029 10.008c-1.763-.36-3.286-1.487-3.994-2.975-.707 1.488-2.231 2.615-3.993 2.975l-.53-1.02c2.136-.395 3.875-2.062 3.875-3.778v-.815h1.308v.815c0 1.728 1.739 3.395 3.874 3.778l-.54 1.02zm-8.852 3.13h9.81v-1.02h-9.81v1.02zM594.937 10.415h-7.508V4.574h7.424v.996h-6.165v1.391h5.925v.972h-5.925V9.42h6.249v.995zm-8.72 2.783h9.824V12.19h-9.823v1.008zM597.282 15.225c.814-.336 1.294-.936 1.308-1.643-.05.012-.085.012-.134.012-.49 0-.923-.311-.923-.888 0-.54.433-.887.96-.887.671 0 1.066.564 1.066 1.487 0 1.26-.73 2.23-1.966 2.699l-.311-.78zM535.502 22.493h-2.195v-.995h2.195v-1.81h1.235v5.564h-1.235v-2.759zm1.606 6.933v.971h-7.399v-2.806h5.805v-.864h-5.829v-.96h7.052v2.735h-5.804v.924h6.175zm-3.597-4.354c-1.175-.395-2.039-1.199-2.494-2.207-.48 1.128-1.38 2.003-2.652 2.447l-.634-.97c1.69-.553 2.637-1.909 2.637-3.396v-.91h1.236v.91c0 1.367.935 2.64 2.554 3.166l-.647.96zM546.47 30.553h1.247V19.688h-1.247v10.865zm-5.864-3.574h2.746v-2.65h-2.746v2.65zm0-6.392v2.758h2.746v-2.758h1.235v7.388h-5.205v-7.388h1.224zM560.617 28.502c0-.671-.959-1.067-2.555-1.067-1.606 0-2.59.396-2.59 1.067 0 .684.984 1.08 2.59 1.08 1.596 0 2.555-.396 2.555-1.08zm-.348-4.629c.276-1.067.288-1.847.288-2.663h-6.212v-.995h7.435v.911c0 .864 0 1.764-.3 2.879l-1.21-.132zm1.583 4.629c0 1.26-1.487 2.027-3.79 2.027-2.339 0-3.813-.767-3.813-2.027 0-1.247 1.474-2.015 3.813-2.015 2.303 0 3.79.768 3.79 2.015zm1.128-3.85v.996h-9.762v-.996h3.837v-1.991h1.248v1.991h4.677zM571.982 22.422v-2.723h1.235v6.452h-1.235v-2.722h-1.92v-1.007h1.92zm.048 6.068c0-.707-.888-1.09-2.411-1.09-1.547 0-2.422.383-2.422 1.09 0 .708.875 1.092 2.422 1.092 1.523 0 2.41-.384 2.41-1.092zm1.235 0c0 1.295-1.391 2.05-3.646 2.05-2.267 0-3.658-.755-3.658-2.05 0-1.283 1.39-2.05 3.658-2.05 2.255 0 3.646.767 3.646 2.05zm-3.19-2.686c-1.2-.42-2.063-1.272-2.52-2.315-.478 1.188-1.39 2.147-2.674 2.603l-.635-.983c1.679-.6 2.65-2.04 2.65-3.527v-.156h-2.29v-.995h5.793v.995h-2.255v.144c0 1.356.923 2.699 2.542 3.262l-.611.972zM587.893 19.7v10.817h-1.175v-5.589h-1.235v5.085h-1.164v-10.11h1.164v4.018h1.235V19.7h1.175zm-7.735 7.027h1.87V21.87h-1.87v4.857zm-1.152.983h4.174v-6.824h-4.174v6.824zM598.358 24.245h-7.46v-4.03h1.247v3.022h6.213v1.008zm1.127 2.398h-2.41v3.898h-1.236v-3.898h-2.518v3.898h-1.235v-3.898h-2.4v-1.007h9.799v1.007zM610.057 29.426v.972h-7.4v-2.843h5.817v-.888h-5.83v-.96h7.054v2.76h-5.818v.959h6.177zM603.7 23.98c.935 0 1.63-.587 1.63-1.475 0-.888-.695-1.476-1.63-1.476-.96 0-1.643.588-1.643 1.476s.684 1.475 1.643 1.475zm2.758-.984c-.228 1.176-1.32 1.992-2.758 1.992-1.631 0-2.831-1.032-2.831-2.483s1.2-2.482 2.83-2.482c1.428 0 2.507.79 2.748 1.966h2.002v-2.302h1.248v5.48h-1.248v-2.171h-1.991zM555.654 45.366h6.368v.995h-7.603v-3.19h1.235v2.195zm4.929-7.196c.012-.336.012-.672.012-1.008h-6.25v-.995h7.473v.971c0 1.02 0 2.123-.3 3.575l-1.222-.097c.119-.552.179-1.055.227-1.522l-6.284.275-.168-1.02 6.512-.179zm2.399 3.177v.997h-9.763v-.997h3.814v-1.45h1.247v1.45h4.702zM572.234 43.818h1.175v-8.119h-1.175v8.119zm-2.086-4.101h-1.283V38.71h1.283v-2.795h1.151v7.64h-1.151v-3.838zm3.561 5.601v1.007h-7.399v-3.393h1.247v2.386h6.152zm-4.353-3.442c-1.236.228-2.267.264-3.946.264h-.708v-5.566h4.09v.996h-2.902v1.272h2.494v.959h-2.494v1.355c1.367-.011 2.278-.059 3.346-.263l.12.983zM575.754 41.552c2.255-.336 3.742-1.69 3.802-3.226h-3.394v-1.007h3.406v-1.404h1.236v1.404h3.393v1.007h-3.38c.058 1.536 1.545 2.89 3.8 3.226l-.467 1.02c-1.824-.324-3.262-1.224-3.97-2.495-.707 1.27-2.147 2.17-3.958 2.495l-.468-1.02zm-.468 3.658h9.811v-1.02h-9.81v1.02zM338.747 78.382c.084.252.12.516.12.804 0 .287-.036.55-.12.802h2.075v-1.606h-2.075zm3.586 7.004v1.008h-7.292V82.94h1.235v2.446h6.057zm-6.273-4.522c.924 0 1.631-.671 1.631-1.678 0-.984-.707-1.656-1.63-1.656-.948 0-1.656.672-1.656 1.656 0 1.007.708 1.678 1.655 1.678zm2.16.132c-.504.588-1.272.948-2.16.936-1.607 0-2.83-1.152-2.83-2.746 0-1.596 1.223-2.747 2.83-2.747.888 0 1.656.36 2.16.935h2.602v-1.595h1.236v7.963h-1.236v-2.746h-2.602zM352.198 86.597h1.187v-10.83h-1.187v10.83zm-2.183-10.566h1.151v10.038h-1.151v-3.645h-1.775v-1.008h1.775v-1.715h-1.583c-.503 1.822-1.643 3.394-3.67 4.606l-.707-.876c2.23-1.356 3.31-3.119 3.489-5.337h-2.962v-.995h4.186c0 .551-.036 1.09-.12 1.594h1.367v-2.662zM366.587 86.585h1.187v-10.83h-1.187v10.83zm-2.207-10.59h1.163v10.086h-1.163v-5.253h-2.135V79.82h2.135v-3.825zm-4.27 7.064c1.343-.012 2.267-.072 3.335-.3l.107 1.019c-1.223.241-2.278.3-3.934.3h-.731v-7.04h4.102v1.008h-2.879v5.013zM377.231 86.621h1.247V75.755h-1.247v10.866zm-6.116-6.249c0 1.703.659 2.723 1.594 2.723.947 0 1.608-1.02 1.608-2.723 0-1.679-.661-2.698-1.608-2.698-.935 0-1.594 1.019-1.594 2.698zm4.389 0c0 2.352-1.176 3.826-2.795 3.826-1.607 0-2.782-1.474-2.782-3.826 0-2.326 1.175-3.813 2.782-3.813 1.619 0 2.795 1.487 2.795 3.813zM389.602 75.743V86.61h-1.247v-5.865h-2.075v-1.02h2.075v-3.98h1.247zm-7.28 7.328c1.727-.013 2.963-.072 4.378-.312l.108.996c-1.548.275-2.902.323-4.87.323h-.851v-7.376h5.025v1.02h-3.79v2.027h3.346v.983h-3.345v2.34zM341.088 35.523l-.348-1.187c-.299-.96-.563-1.944-.839-2.939h-.048c-.252 1.007-.528 1.98-.816 2.94l-.36 1.186h2.411zm.336 1.091h-3.07l-.756 2.518h-1.415l2.926-8.827h1.607l2.927 8.827h-1.476l-.743-2.518zM346.201 34.456h1.331c1.283 0 1.98-.528 1.98-1.596 0-1.067-.697-1.439-1.98-1.439h-1.33v3.035zm3.43 4.677l-2.003-3.562h-1.427v3.562h-1.392v-8.827h2.891c1.823 0 3.19.647 3.19 2.554 0 1.367-.73 2.183-1.846 2.531l2.158 3.742h-1.57zM357.266 38.894h6.368v.995h-7.603v-3.19h1.235v2.195zm4.929-7.196c.012-.336.012-.672.012-1.008h-6.25v-.995h7.473v.97c0 1.02 0 2.124-.3 3.575l-1.222-.096c.119-.552.179-1.056.227-1.522l-6.284.275-.168-1.02 6.512-.18zm2.399 3.177v.997h-9.763v-.997h3.814v-1.451h1.247v1.45h4.702zM373.847 37.346h1.175v-8.119h-1.175v8.119zm-2.087-4.102h-1.283v-1.007h1.283v-2.795h1.151v7.64h-1.151v-3.838zm3.562 5.601v1.008h-7.4v-3.394h1.247v2.386h6.153zm-4.354-3.442c-1.235.228-2.267.264-3.945.264h-.708v-5.565h4.09v.996h-2.903v1.271h2.494v.959h-2.494v1.356c1.367-.012 2.279-.061 3.346-.264l.12.983zM377.366 35.08c2.256-.337 3.743-1.69 3.803-3.227h-3.394v-1.007h3.406v-1.404h1.236v1.404h3.393v1.007h-3.382c.06 1.536 1.546 2.89 3.801 3.226l-.466 1.02c-1.825-.325-3.262-1.224-3.97-2.495-.707 1.271-2.147 2.17-3.959 2.495l-.468-1.02zm-.467 3.657h9.81v-1.02h-9.81v1.02zM182.577 134.443l-.348-1.187c-.299-.959-.563-1.943-.839-2.939h-.048c-.252 1.008-.528 1.98-.816 2.94l-.36 1.186h2.411zm.336 1.092h-3.07l-.756 2.518h-1.415l2.926-8.827h1.607l2.927 8.827h-1.476l-.743-2.518zM187.69 133.376h1.332c1.283 0 1.98-.527 1.98-1.595 0-1.067-.697-1.439-1.98-1.439h-1.331v3.034zm3.43 4.678l-2.002-3.563h-1.427v3.563h-1.392v-8.827h2.89c1.824 0 3.19.647 3.19 2.554 0 1.367-.73 2.183-1.845 2.531l2.158 3.742h-1.571zM203.72 136.95c0-.672-.959-1.067-2.555-1.067-1.606 0-2.591.395-2.591 1.067 0 .684.985 1.08 2.591 1.08 1.596 0 2.555-.396 2.555-1.08zm-.348-4.63c.276-1.067.288-1.847.288-2.662h-6.212v-.995h7.435v.911c0 .863 0 1.763-.3 2.878l-1.211-.132zm1.583 4.63c0 1.26-1.487 2.026-3.79 2.026-2.339 0-3.813-.767-3.813-2.026 0-1.247 1.474-2.015 3.813-2.015 2.303 0 3.79.768 3.79 2.015zm1.128-3.85v.996h-9.762v-.996h3.837v-1.99h1.248v1.99h4.677zM215.084 130.87v-2.724h1.235v6.453h-1.235v-2.722h-1.919v-1.008h1.92zm.048 6.068c0-.708-.888-1.09-2.41-1.09-1.548 0-2.423.382-2.423 1.09 0 .707.875 1.091 2.422 1.091 1.523 0 2.411-.384 2.411-1.09zm1.235 0c0 1.295-1.39 2.051-3.646 2.051-2.267 0-3.658-.756-3.658-2.05 0-1.284 1.391-2.05 3.658-2.05 2.255 0 3.646.766 3.646 2.05zm-3.19-2.686c-1.199-.42-2.063-1.272-2.519-2.316-.479 1.188-1.39 2.148-2.675 2.603l-.635-.983c1.68-.6 2.65-2.04 2.65-3.526v-.156h-2.29v-.995h5.793v.995h-2.255v.143c0 1.356.923 2.7 2.542 3.263l-.61.972zM230.995 128.147v10.817h-1.175v-5.589h-1.235v5.085h-1.164v-10.11h1.164v4.019h1.235v-4.222h1.175zm-7.735 7.028h1.871v-4.858h-1.87v4.857zm-1.152.982h4.174v-6.824h-4.174v6.825zM241.46 132.692H234v-4.029h1.247v3.021h6.213v1.008zm1.127 2.398h-2.41v3.9h-1.236v-3.9h-2.518v3.9h-1.235v-3.9h-2.4v-1.006h9.8v1.006zM253.16 137.874v.971h-7.4v-2.842h5.816v-.888h-5.829v-.96h7.053v2.759h-5.818v.96h6.177zm-6.357-5.445c.935 0 1.63-.588 1.63-1.476s-.695-1.475-1.63-1.475c-.959 0-1.643.587-1.643 1.475 0 .888.684 1.476 1.643 1.476zm2.758-.984c-.228 1.175-1.319 1.991-2.758 1.991-1.63 0-2.83-1.032-2.83-2.483s1.2-2.482 2.83-2.482c1.427 0 2.506.792 2.746 1.966h2.003v-2.302h1.248v5.481h-1.248v-2.171h-1.99zM265.628 138.965h1.176v-10.83h-1.176v10.83zm-2.182-10.614h1.163v10.098h-1.163v-5.493h-1.595v-1.007h1.595v-3.598zm-2.591 2.77c0 1.848.696 3.718 2.207 4.594l-.72.899c-1.019-.599-1.69-1.667-2.074-2.926-.384 1.367-1.08 2.531-2.123 3.19l-.744-.911c1.535-.96 2.255-2.915 2.255-4.846v-.779h-1.907v-1.02h4.893v1.02h-1.787v.779zM278.6 131.925h-1.535v2.746h-1.236v-6.536h1.236v2.77h1.535v1.02zm-8.66 3.274h7.125v3.778h-1.236v-2.782h-5.888v-.996zm4.402-.96c-1.212-.395-2.075-1.222-2.543-2.254-.48 1.139-1.38 2.027-2.65 2.47l-.648-.97c1.715-.577 2.662-1.956 2.662-3.443v-.192h-2.302v-1.007h5.817v1.007h-2.267v.192c0 1.367.912 2.698 2.567 3.25l-.636.947zM282.516 128.482L283.475 128.482 280.141 140.211 279.181 140.211zM293.216 133.136c-1.799-.287-3.274-1.2-3.982-2.446-.696 1.259-2.195 2.159-3.994 2.446l-.48-.995c2.207-.312 3.814-1.643 3.814-3.07v-.576h1.308v.576c0 1.403 1.631 2.758 3.813 3.07l-.479.995zm.9 2.027h-4.306v3.827h-1.236v-3.827h-4.246v-1.007h9.787v1.007zM303.105 130.87v-2.724h1.235v6.453h-1.235v-2.722h-1.92v-1.008h1.92zm.048 6.068c0-.708-.888-1.09-2.411-1.09-1.547 0-2.422.382-2.422 1.09 0 .707.875 1.091 2.422 1.091 1.523 0 2.41-.384 2.41-1.09zm1.235 0c0 1.295-1.391 2.051-3.646 2.051-2.267 0-3.658-.756-3.658-2.05 0-1.284 1.39-2.05 3.658-2.05 2.255 0 3.646.766 3.646 2.05zm-3.19-2.686c-1.2-.42-2.063-1.272-2.52-2.316-.478 1.188-1.39 2.148-2.674 2.603l-.635-.983c1.679-.6 2.65-2.04 2.65-3.526v-.156h-2.29v-.995h5.793v.995h-2.255v.143c0 1.356.923 2.7 2.542 3.263l-.611.972z" mask="url(#prefix__b)"/>
                <path fill="#FFF" d="M298.09 57.423c0 31.125-25.232 56.357-56.357 56.357s-56.357-25.232-56.357-56.357 25.232-56.357 56.357-56.357 56.357 25.232 56.357 56.357" mask="url(#prefix__b)"/>
                <path fill="#C5C8CF" d="M241.733 1.44c-30.869 0-55.982 25.113-55.982 55.982 0 30.87 25.113 55.983 55.982 55.983 30.87 0 55.982-25.113 55.982-55.983 0-30.869-25.113-55.982-55.982-55.982m0 112.715c-31.282 0-56.732-25.45-56.732-56.733 0-31.282 25.45-56.732 56.732-56.732s56.732 25.45 56.732 56.732c0 31.283-25.45 56.733-56.732 56.733" mask="url(#prefix__b)"/>
                <path fill="#273A5B" d="M239.993 57.997L235.398 50.653 235.363 50.597 233.453 50.597 233.453 64.237 235.416 64.237 235.416 56.159 235.352 54.232 239.386 60.625 239.422 60.681 240.565 60.681 244.635 54.233 244.571 56.163 244.571 64.237 246.533 64.237 246.533 50.597 244.624 50.597zM254.81 60.185c-.015.662-.289 1.248-.813 1.744-.542.512-1.166.773-1.854.773-.482 0-.907-.143-1.264-.423-.353-.279-.525-.615-.525-1.03 0-.46.214-.839.652-1.156.446-.32 1.01-.482 1.68-.482.9 0 1.615.194 2.124.575m-2.42-5.72c-1.427 0-2.705.624-3.696 1.807l-.07.084 1.374 1.376.083-.106c.415-.517 1.268-1.385 2.332-1.385.726 0 1.26.184 1.728.598.451.397.67.866.67 1.434v.194c-.649-.32-1.458-.483-2.406-.483-1.22 0-2.21.293-2.947.867-.745.584-1.123 1.378-1.123 2.36 0 .931.357 1.716 1.061 2.337.7.616 1.58.928 2.616.928 1.143 0 2.083-.478 2.8-1.422v1.187h1.887v-5.837c0-1.214-.385-2.186-1.143-2.886-.746-.688-1.84-1.052-3.166-1.052M266.641 55.075L266.641 54.829 264.262 54.829 260.465 58.679 260.465 50.599 260.225 50.599 258.502 52.089 258.502 64.24 260.465 64.24 260.465 61.232 261.728 59.986 264.546 64.24 266.809 64.24 266.809 64.009 263.102 58.595z" mask="url(#prefix__b)"/>
                <path fill="#273A5B" d="M268.846 58.32c.163-.626.456-1.132.852-1.469.443-.379.98-.57 1.597-.57.752 0 1.358.2 1.8.596.397.354.652.863.726 1.443h-4.975zm7.063 1.355c0-1.632-.43-2.963-1.24-3.849-.824-.902-1.947-1.36-3.336-1.36-1.353 0-2.48.483-3.347 1.434-.854.936-1.305 2.196-1.305 3.645 0 1.408.439 2.557 1.344 3.513.893.945 2.044 1.423 3.42 1.423.94 0 1.796-.226 2.542-.673.598-.357 1.167-.9 1.562-1.492l.057-.086-1.406-1.298-.078.118c-.662.998-1.586 1.546-2.602 1.546-.836 0-1.464-.228-1.976-.719-.544-.52-.811-1.108-.857-1.894h7.19l.032-.308z" mask="url(#prefix__b)"/>
                <path fill="#6FB6FB" d="M208.976 58.023L207.558 58.842 207.568 62.434 216.258 57.422 213.137 55.62zM224.956 58.842L223.538 58.023 219.378 55.621 216.258 57.423 224.956 62.445z" mask="url(#prefix__b)"/>
                <path fill="#BFDCFF" d="M224.957 58.841L224.957 62.445 216.258 67.467 216.258 63.863 217.676 63.045z" mask="url(#prefix__b)"/>
                <path fill="#007CF7" d="M207.559 58.841L207.559 62.445 216.258 67.467 216.258 63.863 214.84 63.045z" mask="url(#prefix__b)"/>
                <path fill="#6FB6FB" d="M223.538 51.582L216.257 47.378 208.976 51.582 207.558 52.4 207.568 55.994 216.262 50.978 224.956 56.004 224.956 52.4z" mask="url(#prefix__b)"/>
                <path fill="#BFDCFF" d="M224.957 52.4L224.957 56.004 216.258 61.026 216.258 57.422 217.676 56.603z" mask="url(#prefix__b)"/>
                <path fill="#007CF7" d="M207.559 52.4L207.559 56.004 216.258 61.026 216.258 57.422 214.84 56.603z" mask="url(#prefix__b)"/>
                <path fill="#FFF" d="M739.47 57.423c0 31.125-25.233 56.357-56.358 56.357-31.125 0-56.357-25.232-56.357-56.357s25.231-56.357 56.357-56.357c31.125 0 56.358 25.232 56.358 56.357" mask="url(#prefix__b)"/>
                <path fill="#C5C8CF" d="M683.112 1.44c-30.869 0-55.982 25.113-55.982 55.982 0 30.87 25.113 55.983 55.982 55.983 30.87 0 55.982-25.113 55.982-55.983 0-30.869-25.113-55.982-55.982-55.982m0 112.715c-31.282 0-56.732-25.45-56.732-56.733C626.38 26.14 651.83.69 683.112.69s56.732 25.45 56.732 56.732c0 31.283-25.45 56.733-56.732 56.733" mask="url(#prefix__b)"/>
                <path fill="#273A5B" d="M688.853 65.22L690.814 65.22 690.814 55.516 688.853 55.516zM688.765 53.726L690.902 53.726 690.902 51.588 688.765 51.588zM714.296 55.815L712.352 62.478 710.173 55.815 708.221 55.815 706.041 62.478 704.105 55.901 704.078 55.815 702.026 55.815 705.033 65.137 705.06 65.22 706.976 65.22 709.151 58.46 711.345 65.22 713.277 65.22 716.311 55.815zM695.603 57.831c.444-.379.982-.57 1.6-.57.753 0 1.36.2 1.802.596.398.355.652.865.726 1.445h-4.98c.163-.626.456-1.133.852-1.47m1.637-2.388c-1.353 0-2.48.483-3.35 1.436-.854.937-1.306 2.198-1.306 3.647 0 1.41.44 2.561 1.344 3.517.895.945 2.047 1.425 3.425 1.425.941 0 1.798-.227 2.544-.674.598-.357 1.167-.9 1.563-1.492l.058-.086-1.407-1.3-.079.118c-.662.998-1.587 1.548-2.605 1.548-.835 0-1.464-.23-1.978-.72-.536-.514-.812-1.119-.858-1.896h7.22l.005-.114c.005-.099.005-.194.005-.194 0-1.635-.429-2.967-1.24-3.854-.826-.903-1.95-1.36-3.34-1.36M681.19 62.339L677.086 51.591 674.92 51.591 680.178 65.143 680.209 65.219 682.168 65.219 687.542 51.756 687.608 51.591 685.441 51.591z" mask="url(#prefix__b)"/>
                <path fill="#6FB6FB" d="M663.023 51.029L658.615 48.483 656.186 49.885 663.008 56.708z" mask="url(#prefix__b)"/>
                <path fill="#007CF7" d="M663.009 60.347L667.313 55.857 667.313 53.505 663.023 51.029z" mask="url(#prefix__b)"/>
                <path fill="#0065C7" d="M654.196 66.023L658.613 68.573 661.045 67.169 654.218 60.348z" mask="url(#prefix__b)"/>
                <path fill="#BFDCFF" d="M649.916 54.133L649.916 53.505 656.187 49.886 660.435 54.133z" mask="url(#prefix__b)"/>
                <path fill="#DEEDFF" d="M649.916 54.133L649.916 61.009 656.793 54.133z" mask="url(#prefix__b)"/>
                <path fill="#007CF7" d="M654.218 56.708L649.914 61.009 649.914 63.55 654.101 65.967 654.215 66.033z" mask="url(#prefix__b)"/>
                <path fill="#6FB6FB" d="M667.312 63.551L661.044 67.169 656.793 62.924 667.312 62.924z" mask="url(#prefix__b)"/>
                <path fill="#007CF7" d="M658.575 55.792c-1.489 0-2.696 1.207-2.696 2.695 0 1.49 1.207 2.697 2.696 2.697 1.488 0 2.695-1.207 2.695-2.697 0-1.488-1.207-2.695-2.695-2.695" mask="url(#prefix__b)"/>
                <path fill="#FFF" d="M659.934 56.355c-.427 0-.772.347-.772.773 0 .426.345.773.772.773.427 0 .773-.347.773-.774 0-.425-.346-.773-.773-.773" mask="url(#prefix__b)"/>
                <path fill="#BFDCFF" d="M660.434 62.924L663.008 60.348 667.312 55.858 667.312 62.924z" mask="url(#prefix__b)"/>
                <path fill="#092E6E" d="M435.112 96.855l-.396-1.459c-.415-1.386-.775-2.916-1.17-4.356h-.073c-.341 1.457-.738 2.97-1.134 4.356l-.396 1.459h3.169zm.576 2.07h-4.321l-.937 3.422h-2.701l4.268-13.325h3.133l4.285 13.325h-2.791l-.936-3.421zM443.643 95.198h1.729c1.709 0 2.646-.72 2.646-2.143 0-1.44-.937-1.926-2.646-1.926h-1.73v4.07zm4.59 7.148l-2.736-5.042h-1.854v5.042h-2.665V89.022h4.645c2.79 0 5.005.973 5.005 4.033 0 2-1.007 3.242-2.538 3.835l3.115 5.456h-2.971zM460.615 101.752h9.418v1.909H458.24v-4.933h2.375v3.024zm6.772-10.713c.017-.396.017-.81.017-1.206h-9.236v-1.891h11.594v1.567c0 1.639 0 3.295-.467 5.455l-2.341-.162c.144-.737.252-1.386.323-2.017l-9.272.415-.27-1.963 9.651-.198zm4.05 4.772v1.872h-14.925v-1.872h5.526v-2.017h2.377v2.017h7.022zM484.918 99.699h2.25V87.311h-2.25v12.388zm-3.26-5.977h-1.62v-1.891h1.62v-4.195h2.215V99.34h-2.215v-5.618zm5.924 7.994v1.89h-11.451v-5.22h2.377v3.33h9.074zm-6.878-4.699c-1.872.342-3.438.378-5.887.378h-1.134v-8.804h6.229v1.872h-3.943v1.602h3.367v1.783h-3.367v1.674c1.747-.017 3.043-.108 4.537-.36l.198 1.855zM490.098 95.99c3.764-.52 5.618-2.538 5.779-4.5h-4.987v-1.892h5.023v-2.034h2.377v2.034h5.024v1.891h-4.987c.162 1.963 2.016 3.98 5.76 4.501l-.863 1.927c-2.935-.432-5.023-1.765-6.122-3.547-1.098 1.782-3.187 3.115-6.121 3.547l-.883-1.927zm-.504 5.996h15.017v-1.927h-15.017v1.927zM446.94 113.953v1.963h-1.98v5.401h-2.376v-12.423h2.376v5.06h1.98zm-10.658 9.363h9.2v1.891h-11.577v-4.987h2.377v3.096zm1.98-7.562c.27-1.548.342-2.755.36-3.745h-6.176v-1.89h8.516v1.025c0 1.153 0 2.791-.377 4.88l-2.323-.27zm3.565 2.63c-3.421.63-7.274.701-10.12.72l-.215-1.89c.918 0 1.944 0 3.025-.02v-3.222h2.322v3.132c1.639-.072 3.295-.198 4.844-.414l.144 1.693zM459.7 125.531h2.377v-16.637H459.7v16.637zm-8.102-5.816c2.521-.018 4.609-.144 6.95-.54l.252 1.927c-2.7.468-5.131.576-8.138.576h-1.495v-6.824h5.384v-2.647h-5.401v-1.891h7.832v6.411h-5.384v2.988zM483.803 108.894v16.637h-2.377v-9.526h-3.186v-1.907h3.186v-5.204h2.377zm-7.688 3.69c0 3.133 1.206 6.176 3.943 7.401l-1.404 1.89c-1.819-.88-3.026-2.501-3.709-4.5-.721 2.124-1.963 3.853-3.818 4.79l-1.476-1.91c2.808-1.296 4.069-4.518 4.069-7.67v-2.394h2.395v2.394zM489.415 119.734h3.259v-3.673h-3.259v3.673zm10.948-10.839v16.636h-2.377v-8.894h-2.971v4.987h-7.958v-11.416h2.358v3.998h3.259v-3.998h2.341v4.52h2.971v-5.833h2.377z" mask="url(#prefix__b)"/>
                <path fill="#E6E8EB" d="M445.512 36.937L445.512 68.276 483.344 68.276 483.344 36.645z" mask="url(#prefix__b)"/>
                <path fill="#000" d="M445.794 67.994h37.268V36.93l-37.268.287v30.777zm37.833.564H445.23V36.656l38.397-.295v32.197z" mask="url(#prefix__b)"/>
                <path fill="#FFF" d="M484.445 37.166h-40.176c-1.534 0-2.79-1.255-2.79-2.789v-6.155c0-1.535 1.256-2.789 2.79-2.789h40.176c1.534 0 2.789 1.254 2.789 2.789v6.155c0 1.534-1.255 2.789-2.79 2.789" mask="url(#prefix__b)"/>
                <path fill="#000" d="M484.445 25.433h-40.176c-1.534 0-2.79 1.255-2.79 2.789v6.155c0 1.535 1.256 2.789 2.79 2.789h40.176c1.534 0 2.789-1.254 2.789-2.79v-6.154c0-1.534-1.255-2.79-2.79-2.79m0 .565c1.228 0 2.226.998 2.226 2.225v6.155c0 1.227-.998 2.225-2.225 2.225h-40.176c-1.227 0-2.225-.998-2.225-2.225v-6.155c0-1.227.998-2.225 2.225-2.225h40.176" mask="url(#prefix__b)"/>
                <path fill="#FFF" d="M484.445 51.42h-40.176c-1.534 0-2.79-1.254-2.79-2.788v-6.155c0-1.535 1.256-2.79 2.79-2.79h40.176c1.534 0 2.789 1.255 2.789 2.79v6.155c0 1.534-1.255 2.789-2.79 2.789" mask="url(#prefix__b)"/>
                <path fill="#000" d="M484.445 39.688h-40.176c-1.534 0-2.79 1.255-2.79 2.788v6.156c0 1.535 1.256 2.788 2.79 2.788h40.176c1.534 0 2.789-1.254 2.789-2.788v-6.155c0-1.534-1.255-2.79-2.79-2.79m0 .565c1.228 0 2.226.997 2.226 2.224v6.156c0 1.227-.998 2.224-2.225 2.224h-40.176c-1.227 0-2.225-.998-2.225-2.224v-6.155c0-1.227.998-2.225 2.225-2.225h40.176" mask="url(#prefix__b)"/>
                <path fill="#FFF" d="M484.445 65.596h-40.176c-1.534 0-2.79-1.255-2.79-2.79v-6.154c0-1.535 1.256-2.79 2.79-2.79h40.176c1.534 0 2.789 1.255 2.789 2.79v6.155c0 1.534-1.255 2.789-2.79 2.789" mask="url(#prefix__b)"/>
                <path fill="#000" d="M484.445 53.862h-40.176c-1.534 0-2.79 1.255-2.79 2.79v6.154c0 1.535 1.256 2.79 2.79 2.79h40.176c1.534 0 2.789-1.255 2.789-2.79v-6.155c0-1.534-1.255-2.789-2.79-2.789m0 .564c1.228 0 2.226.998 2.226 2.225v6.155c0 1.227-.998 2.225-2.225 2.225h-40.176c-1.227 0-2.225-.998-2.225-2.225v-6.155c0-1.227.998-2.225 2.225-2.225h40.176" mask="url(#prefix__b)"/>
                <path fill="#0A51B7" d="M471.848 31.299c0 1.043-.845 1.888-1.887 1.888-1.043 0-1.887-.845-1.887-1.888 0-1.042.844-1.887 1.887-1.887 1.042 0 1.887.845 1.887 1.887" mask="url(#prefix__b)"/>
                <path fill="#000" d="M469.961 29.411c-1.042 0-1.887.846-1.887 1.888 0 1.043.845 1.887 1.887 1.887s1.887-.844 1.887-1.887c0-1.042-.845-1.888-1.887-1.888m0 .565c.73 0 1.323.593 1.323 1.323s-.594 1.323-1.323 1.323-1.323-.594-1.323-1.323c0-.73.594-1.323 1.323-1.323" mask="url(#prefix__b)"/>
                <path fill="#0A51B7" d="M477.67 31.299c0 1.043-.845 1.888-1.888 1.888-1.042 0-1.887-.845-1.887-1.888 0-1.042.845-1.887 1.887-1.887 1.043 0 1.888.845 1.888 1.887" mask="url(#prefix__b)"/>
                <path fill="#000" d="M475.783 29.411c-1.043 0-1.887.846-1.887 1.888 0 1.043.844 1.887 1.887 1.887 1.041 0 1.887-.844 1.887-1.887 0-1.042-.846-1.888-1.887-1.888m0 .565c.728 0 1.322.593 1.322 1.323s-.594 1.323-1.322 1.323c-.73 0-1.324-.594-1.324-1.323 0-.73.594-1.323 1.324-1.323" mask="url(#prefix__b)"/>
                <path fill="#0A51B7" d="M483.491 31.299c0 1.043-.844 1.888-1.887 1.888-1.042 0-1.887-.845-1.887-1.888 0-1.042.845-1.887 1.887-1.887 1.043 0 1.887.845 1.887 1.887" mask="url(#prefix__b)"/>
                <path fill="#000" d="M481.604 29.411c-1.042 0-1.888.846-1.888 1.888 0 1.043.846 1.887 1.888 1.887 1.042 0 1.887-.844 1.887-1.887 0-1.042-.845-1.888-1.887-1.888m0 .565c.73 0 1.323.593 1.323 1.323s-.594 1.323-1.323 1.323-1.323-.594-1.323-1.323c0-.73.594-1.323 1.323-1.323" mask="url(#prefix__b)"/>
                <path fill="#0A51B7" d="M471.848 45.554c0 1.043-.845 1.888-1.887 1.888-1.043 0-1.887-.845-1.887-1.888 0-1.042.844-1.887 1.887-1.887 1.042 0 1.887.845 1.887 1.887" mask="url(#prefix__b)"/>
                <path fill="#000" d="M469.961 43.667c-1.042 0-1.887.845-1.887 1.887 0 1.043.845 1.887 1.887 1.887s1.887-.844 1.887-1.887c0-1.042-.845-1.887-1.887-1.887m0 .564c.73 0 1.323.593 1.323 1.323 0 .729-.594 1.323-1.323 1.323s-1.323-.594-1.323-1.323c0-.73.594-1.323 1.323-1.323" mask="url(#prefix__b)"/>
                <path fill="#0A51B7" d="M477.67 45.554c0 1.043-.845 1.888-1.888 1.888-1.042 0-1.887-.845-1.887-1.888 0-1.042.845-1.887 1.887-1.887 1.043 0 1.888.845 1.888 1.887" mask="url(#prefix__b)"/>
                <path fill="#000" d="M475.783 43.667c-1.043 0-1.887.845-1.887 1.887 0 1.043.844 1.887 1.887 1.887 1.041 0 1.887-.844 1.887-1.887 0-1.042-.846-1.887-1.887-1.887m0 .564c.728 0 1.322.593 1.322 1.323 0 .729-.594 1.323-1.322 1.323-.73 0-1.324-.594-1.324-1.323 0-.73.594-1.323 1.324-1.323" mask="url(#prefix__b)"/>
                <path fill="#0A51B7" d="M483.491 45.554c0 1.043-.844 1.888-1.887 1.888-1.042 0-1.887-.845-1.887-1.888 0-1.042.845-1.887 1.887-1.887 1.043 0 1.887.845 1.887 1.887" mask="url(#prefix__b)"/>
                <path fill="#000" d="M481.604 43.667c-1.042 0-1.888.845-1.888 1.887 0 1.043.846 1.887 1.888 1.887 1.042 0 1.887-.844 1.887-1.887 0-1.042-.845-1.887-1.887-1.887m0 .564c.73 0 1.323.593 1.323 1.323 0 .729-.594 1.323-1.323 1.323s-1.323-.594-1.323-1.323c0-.73.594-1.323 1.323-1.323" mask="url(#prefix__b)"/>
                <path fill="#0A51B7" d="M471.848 59.73c0 1.042-.845 1.887-1.887 1.887-1.043 0-1.887-.845-1.887-1.887 0-1.043.844-1.888 1.887-1.888 1.042 0 1.887.845 1.887 1.888" mask="url(#prefix__b)"/>
                <path fill="#000" d="M469.961 57.842c-1.042 0-1.887.845-1.887 1.888 0 1.042.845 1.886 1.887 1.886s1.887-.844 1.887-1.886c0-1.043-.845-1.888-1.887-1.888m0 .564c.73 0 1.323.593 1.323 1.324 0 .728-.594 1.322-1.323 1.322s-1.323-.594-1.323-1.322c0-.731.594-1.324 1.323-1.324" mask="url(#prefix__b)"/>
                <path fill="#0A51B7" d="M477.67 59.73c0 1.042-.845 1.887-1.888 1.887-1.042 0-1.887-.845-1.887-1.887 0-1.043.845-1.888 1.887-1.888 1.043 0 1.888.845 1.888 1.888" mask="url(#prefix__b)"/>
                <path fill="#000" d="M475.783 57.842c-1.043 0-1.887.845-1.887 1.888 0 1.042.844 1.886 1.887 1.886 1.041 0 1.887-.844 1.887-1.886 0-1.043-.846-1.888-1.887-1.888m0 .564c.728 0 1.322.593 1.322 1.324 0 .728-.594 1.322-1.322 1.322-.73 0-1.324-.594-1.324-1.322 0-.731.594-1.324 1.324-1.324" mask="url(#prefix__b)"/>
                <path fill="#0A51B7" d="M483.491 59.73c0 1.042-.844 1.887-1.887 1.887-1.042 0-1.887-.845-1.887-1.887 0-1.043.845-1.888 1.887-1.888 1.043 0 1.887.845 1.887 1.888" mask="url(#prefix__b)"/>
                <path fill="#000" d="M481.604 57.842c-1.042 0-1.888.845-1.888 1.888 0 1.042.846 1.886 1.888 1.886 1.042 0 1.887-.844 1.887-1.886 0-1.043-.845-1.888-1.887-1.888m0 .564c.73 0 1.323.593 1.323 1.324 0 .728-.594 1.322-1.323 1.322s-1.323-.594-1.323-1.322c0-.731.594-1.324 1.323-1.324" mask="url(#prefix__b)"/>
                <path fill="#FFF" d="M446.315 28.201L446.315 34.397" mask="url(#prefix__b)"/>
                <path fill="#000" d="M446.033 34.397L446.597 34.397 446.597 28.201 446.033 28.201z" mask="url(#prefix__b)"/>
                <path fill="#FFF" d="M449.516 28.201L449.516 34.397" mask="url(#prefix__b)"/>
                <path fill="#000" d="M449.234 34.397L449.798 34.397 449.798 28.201 449.234 28.201z" mask="url(#prefix__b)"/>
                <path fill="#FFF" d="M452.717 28.201L452.717 34.397" mask="url(#prefix__b)"/>
                <path fill="#000" d="M452.435 34.397L452.999 34.397 452.999 28.201 452.435 28.201z" mask="url(#prefix__b)"/>
                <path fill="#FFF" d="M455.918 28.201L455.918 34.397" mask="url(#prefix__b)"/>
                <path fill="#000" d="M455.636 34.397L456.2 34.397 456.2 28.201 455.636 28.201z" mask="url(#prefix__b)"/>
                <path fill="#FFF" d="M459.119 28.201L459.119 34.397" mask="url(#prefix__b)"/>
                <path fill="#000" d="M458.838 34.397L459.402 34.397 459.402 28.201 458.838 28.201z" mask="url(#prefix__b)"/>
                <path fill="#FFF" d="M462.321 28.201L462.321 34.397" mask="url(#prefix__b)"/>
                <path fill="#000" d="M462.039 34.397L462.603 34.397 462.603 28.201 462.039 28.201z" mask="url(#prefix__b)"/>
                <path fill="#FFF" d="M447.915 28.201L447.915 34.397" mask="url(#prefix__b)"/>
                <path fill="#000" d="M447.634 34.397L448.198 34.397 448.198 28.201 447.634 28.201z" mask="url(#prefix__b)"/>
                <path fill="#FFF" d="M451.116 28.201L451.116 34.397" mask="url(#prefix__b)"/>
                <path fill="#000" d="M450.835 34.397L451.399 34.397 451.399 28.201 450.835 28.201z" mask="url(#prefix__b)"/>
                <path fill="#FFF" d="M454.318 28.201L454.318 34.397" mask="url(#prefix__b)"/>
                <path fill="#000" d="M454.036 34.397L454.6 34.397 454.6 28.201 454.036 28.201z" mask="url(#prefix__b)"/>
                <path fill="#FFF" d="M457.519 28.201L457.519 34.397" mask="url(#prefix__b)"/>
                <path fill="#000" d="M457.237 34.397L457.801 34.397 457.801 28.201 457.237 28.201z" mask="url(#prefix__b)"/>
                <path fill="#FFF" d="M460.72 28.201L460.72 34.397" mask="url(#prefix__b)"/>
                <path fill="#000" d="M460.438 34.397L461.002 34.397 461.002 28.201 460.438 28.201z" mask="url(#prefix__b)"/>
                <path fill="#FFF" d="M446.315 42.456L446.315 48.652" mask="url(#prefix__b)"/>
                <path fill="#000" d="M446.033 48.652L446.597 48.652 446.597 42.456 446.033 42.456z" mask="url(#prefix__b)"/>
                <path fill="#FFF" d="M449.516 42.456L449.516 48.652" mask="url(#prefix__b)"/>
                <path fill="#000" d="M449.234 48.652L449.798 48.652 449.798 42.456 449.234 42.456z" mask="url(#prefix__b)"/>
                <path fill="#FFF" d="M452.717 42.456L452.717 48.652" mask="url(#prefix__b)"/>
                <path fill="#000" d="M452.435 48.652L452.999 48.652 452.999 42.456 452.435 42.456z" mask="url(#prefix__b)"/>
                <path fill="#FFF" d="M455.918 42.456L455.918 48.652" mask="url(#prefix__b)"/>
                <path fill="#000" d="M455.636 48.652L456.2 48.652 456.2 42.456 455.636 42.456z" mask="url(#prefix__b)"/>
                <path fill="#FFF" d="M459.119 42.456L459.119 48.652" mask="url(#prefix__b)"/>
                <path fill="#000" d="M458.838 48.652L459.402 48.652 459.402 42.456 458.838 42.456z" mask="url(#prefix__b)"/>
                <path fill="#FFF" d="M462.321 42.456L462.321 48.652" mask="url(#prefix__b)"/>
                <path fill="#000" d="M462.039 48.652L462.603 48.652 462.603 42.456 462.039 42.456z" mask="url(#prefix__b)"/>
                <path fill="#FFF" d="M447.915 42.456L447.915 48.652" mask="url(#prefix__b)"/>
                <path fill="#000" d="M447.634 48.652L448.198 48.652 448.198 42.456 447.634 42.456z" mask="url(#prefix__b)"/>
                <path fill="#FFF" d="M451.116 42.456L451.116 48.652" mask="url(#prefix__b)"/>
                <path fill="#000" d="M450.835 48.652L451.399 48.652 451.399 42.456 450.835 42.456z" mask="url(#prefix__b)"/>
                <path fill="#FFF" d="M454.318 42.456L454.318 48.652" mask="url(#prefix__b)"/>
                <path fill="#000" d="M454.036 48.652L454.6 48.652 454.6 42.456 454.036 42.456z" mask="url(#prefix__b)"/>
                <path fill="#FFF" d="M457.519 42.456L457.519 48.652" mask="url(#prefix__b)"/>
                <path fill="#000" d="M457.237 48.652L457.801 48.652 457.801 42.456 457.237 42.456z" mask="url(#prefix__b)"/>
                <path fill="#FFF" d="M460.72 42.456L460.72 48.652" mask="url(#prefix__b)"/>
                <path fill="#000" d="M460.438 48.652L461.002 48.652 461.002 42.456 460.438 42.456z" mask="url(#prefix__b)"/>
                <path fill="#FFF" d="M446.315 56.711L446.315 62.907" mask="url(#prefix__b)"/>
                <path fill="#000" d="M446.033 62.907L446.597 62.907 446.597 56.711 446.033 56.711z" mask="url(#prefix__b)"/>
                <path fill="#FFF" d="M449.516 56.711L449.516 62.907" mask="url(#prefix__b)"/>
                <path fill="#000" d="M449.234 62.907L449.798 62.907 449.798 56.711 449.234 56.711z" mask="url(#prefix__b)"/>
                <path fill="#FFF" d="M452.717 56.711L452.717 62.907" mask="url(#prefix__b)"/>
                <path fill="#000" d="M452.435 62.907L452.999 62.907 452.999 56.711 452.435 56.711z" mask="url(#prefix__b)"/>
                <path fill="#FFF" d="M455.918 56.711L455.918 62.907" mask="url(#prefix__b)"/>
                <path fill="#000" d="M455.636 62.907L456.2 62.907 456.2 56.711 455.636 56.711z" mask="url(#prefix__b)"/>
                <path fill="#FFF" d="M459.119 56.711L459.119 62.907" mask="url(#prefix__b)"/>
                <path fill="#000" d="M458.838 62.907L459.402 62.907 459.402 56.711 458.838 56.711z" mask="url(#prefix__b)"/>
                <path fill="#FFF" d="M462.321 56.711L462.321 62.907" mask="url(#prefix__b)"/>
                <path fill="#000" d="M462.039 62.907L462.603 62.907 462.603 56.711 462.039 56.711z" mask="url(#prefix__b)"/>
                <path fill="#FFF" d="M447.915 56.711L447.915 62.907" mask="url(#prefix__b)"/>
                <path fill="#000" d="M447.634 62.907L448.198 62.907 448.198 56.711 447.634 56.711z" mask="url(#prefix__b)"/>
                <path fill="#FFF" d="M451.116 56.711L451.116 62.907" mask="url(#prefix__b)"/>
                <path fill="#000" d="M450.835 62.907L451.399 62.907 451.399 56.711 450.835 56.711z" mask="url(#prefix__b)"/>
                <path fill="#FFF" d="M454.318 56.711L454.318 62.907" mask="url(#prefix__b)"/>
                <path fill="#000" d="M454.036 62.907L454.6 62.907 454.6 56.711 454.036 56.711z" mask="url(#prefix__b)"/>
                <path fill="#FFF" d="M457.519 56.711L457.519 62.907" mask="url(#prefix__b)"/>
                <path fill="#000" d="M457.237 62.907L457.801 62.907 457.801 56.711 457.237 56.711z" mask="url(#prefix__b)"/>
                <path fill="#FFF" d="M460.72 56.711L460.72 62.907" mask="url(#prefix__b)"/>
                <path fill="#000" d="M460.438 62.907L461.002 62.907 461.002 56.711 460.438 56.711z" mask="url(#prefix__b)"/>
                <path fill="#E6E8EB" d="M479.153 56.846s.188-1.193 1.877-2.007c1.69-.813 5.93-1.964 11.109-1.25 5.18.716 6.54 2 6.54 2l.623 1.378-.001 15.146s-.684 1.815-4.158 2.566c-3.473.75-10.39 1-13.706-.532 0 0-2.096-.876-2.284-2.191v-15.11z" mask="url(#prefix__b)"/>
                <path fill="#000" d="M479.435 71.941c.143.334 1.614 3.21 9.787 3.21 8.157 0 9.648-2.866 9.796-3.21V56.752c-.105-.295-1.353-3.106-10.094-3.106-9.134 0-9.487 3.121-9.49 3.153v15.141zm9.787 3.773c-9.118 0-10.293-3.49-10.34-3.638l-.011-.083v-15.21c.007-.166.297-3.7 10.053-3.7 9.712 0 10.619 3.42 10.653 3.564l.007.064-.014 15.366c-.046.148-1.232 3.637-10.348 3.637z" mask="url(#prefix__b)"/>
                <path fill="#000" d="M489.008 65.654c-8.858 0-10.074-3.263-10.122-3.403l.534-.182-.267.091.266-.094c.01.03 1.204 3.024 9.59 3.024.115 0 .23 0 .346-.002 8.679-.083 9.667-2.978 9.676-3.007l.543.154c-.038.136-1.027 3.33-10.213 3.417l-.353.002M489.008 70.611c-8.858 0-10.074-3.262-10.122-3.402l.534-.182-.267.091.266-.094c.012.031 1.257 3.101 9.936 3.021 8.679-.082 9.667-2.977 9.676-3.006l.543.154c-.038.136-1.027 3.33-10.213 3.416l-.353.002M489.008 60.696c-8.858 0-10.074-3.263-10.122-3.403l.534-.182-.267.091.266-.094c.01.03 1.204 3.024 9.59 3.024.115 0 .23 0 .346-.002 8.679-.083 9.667-2.978 9.676-3.007l.543.154c-.038.136-1.027 3.33-10.213 3.417l-.353.002" mask="url(#prefix__b)"/>
                <path fill="#FFF" d="M121.58 57.423c0 31.125-25.232 56.357-56.357 56.357S8.866 88.548 8.866 57.423 34.098 1.066 65.223 1.066s56.357 25.232 56.357 56.357" mask="url(#prefix__b)"/>
                <path fill="#C5C8CF" d="M65.223 1.44c-30.869 0-55.982 25.113-55.982 55.982 0 30.87 25.113 55.983 55.982 55.983 30.868 0 55.981-25.113 55.981-55.983 0-30.869-25.113-55.982-55.98-55.982m0 112.715c-31.283 0-56.733-25.45-56.733-56.733C8.491 26.14 33.941.69 65.223.69s56.731 25.45 56.731 56.732c0 31.283-25.449 56.733-56.73 56.733" mask="url(#prefix__b)"/>
                <path fill="#231916" d="M89.555 54.361l-.026-.484c.164-.009.33-.014.5-.014v.484c-.162 0-.319.005-.474.014M65.739 54.361c-.309-.016-.646-.018-.957-.005l-.02-.484c.328-.014.678-.012 1.001.005l-.024.484zm-2.836.27l-.128-.467c.308-.085.641-.153.987-.203l.07.48c-.327.047-.64.11-.929.19zm4.696.055c-.29-.093-.598-.168-.917-.223l.082-.477c.341.06.672.14.984.24l-.149.46zm20.094.015l-.146-.46c.318-.103.647-.184.979-.244l.087.476c-.312.057-.622.134-.92.228zm-44.923.08c-.294-.112-.598-.203-.903-.272l.105-.472c.328.073.655.171.97.291l-.172.453zm18.416.606l-.265-.406c.279-.183.581-.345.897-.482l.193.443c-.291.128-.568.277-.825.445zm24.801.12l-.266-.404c.281-.184.578-.35.884-.494l.206.438c-.286.134-.563.29-.824.46zm-16.722.033c-.254-.188-.522-.354-.797-.494l.22-.432c.298.152.589.333.864.535l-.287.391zm-24.825.134c-.261-.183-.533-.35-.807-.5l.23-.426c.291.157.579.336.855.53l-.278.396zm15.374.986l-.382-.299c.213-.272.444-.525.687-.75l.33.354c-.224.208-.438.442-.635.695zm24.768.097l-.374-.308c.212-.257.45-.503.707-.732l.321.364c-.238.211-.458.438-.654.676zm-13.941.093c-.23-.267-.444-.495-.654-.697l.336-.35c.222.213.445.453.686.731l-.368.316zm-24.766.08c-.22-.235-.45-.459-.687-.667l.321-.363c.247.218.489.452.719.697l-.353.332zm12.874 1.364l-.39-.287c.161-.219.313-.456.451-.704l.031-.053.237.073.184.166-.03.054c-.147.262-.31.516-.483.751zm13.136.07c-.214-.248-.421-.505-.628-.766l.378-.3c.204.254.407.505.616.75l-.366.315zm11.579 0l-.373-.31c.202-.245.379-.498.525-.753l.436.212-.028.047c-.147.261-.34.537-.56.803zm-36.295.044c-.232-.235-.457-.487-.668-.749l.376-.305c.202.25.416.49.637.714l-.345.34zm1.543 1.283c-.272-.18-.543-.383-.806-.6l.31-.374c.249.207.505.4.763.57l-.267.404zm33.238.016l-.268-.405c.267-.175.519-.369.751-.574l.321.363c-.248.22-.52.427-.804.616zm-24.644.01l-.28-.394c.255-.18.497-.384.719-.604l.341.344c-.242.24-.503.46-.78.654zm16.038.028c-.26-.19-.513-.403-.773-.652l.336-.349c.243.233.479.432.722.608l-.285.393zm6.79.84l-.153-.462c.301-.099.597-.218.879-.355l.21.438c-.302.144-.616.271-.936.378zm-29.619.005c-.316-.108-.63-.24-.932-.394l.218-.432c.284.143.577.267.873.37l-.159.456zm4.971.017l-.144-.463c.307-.096.602-.212.876-.345l.211.436c-.295.144-.613.27-.943.372zm19.675.041c-.33-.1-.649-.227-.945-.376l.215-.433c.274.135.567.252.872.346l-.142.463zm-21.655.312l-.031-.485c.328-.02.646-.057.946-.109l.084.476c-.318.056-.654.095-.999.118zm24.647.005l-.031-.485c.317-.02.634-.06.941-.12l.092.477c-.327.062-.664.105-1.002.128zm-1.004.006c-.349-.015-.686-.048-1.001-.098l.075-.479c.297.047.616.078.948.093l-.022.484zm-24.649.003c-.334-.015-.672-.056-1.006-.12l.092-.476c.31.06.626.097.936.112l-.022.484zM40.888 54.365c-.154-.01-.311-.017-.47-.017v-.484c.17 0 .337.006.502.017l-.032.484z" mask="url(#prefix__b)"/>
                <path fill="#0A51B7" d="M90.028 60.981c-2.699 0-5.216-1.35-6.412-3.439-.909-1.587-3.259-3.194-5.99-3.194-2.286 0-4.31 1.085-6.013 3.225-1.482 1.864-2.987 3.408-6.39 3.408-3.016 0-5.114-1.126-6.413-3.44-.89-1.589-3.09-3.193-5.989-3.193-2.998 0-5.054 2.021-6.012 3.224-1.483 1.865-2.987 3.41-6.39 3.41v-.485c3.192 0 4.557-1.399 6.011-3.226 1.012-1.272 3.19-3.407 6.391-3.407 3.308 0 5.521 1.852 6.412 3.44 1.205 2.148 3.165 3.193 5.99 3.193 3.193 0 4.558-1.399 6.011-3.226 1.8-2.26 3.95-3.407 6.392-3.407 2.916 0 5.432 1.73 6.411 3.437 1.111 1.942 3.463 3.196 5.991 3.196v.484z" mask="url(#prefix__b)"/>
            </g>
            <g transform="translate(22 27) translate(53 44.31)">
                <mask id="prefix__d" fill="#fff">
                    <use xlink:href="#prefix__c"/>
                </mask>
                <path fill="#FFF" d="M-1.486 28.971L25.931 28.971 25.931 -1.937 -1.486 -1.937z" mask="url(#prefix__d)"/>
            </g>
            <g transform="translate(22 27) translate(54 51.31)">
                <mask id="prefix__f" fill="#fff">
                    <use xlink:href="#prefix__e"/>
                </mask>
                <path fill="#0A51B7" d="M-2.266 21.774L13.646 21.774 13.646 -2.296 -2.266 -2.296z" mask="url(#prefix__f)"/>
            </g>
            <g transform="translate(22 27) translate(53 44.31)">
                <mask id="prefix__h" fill="#fff">
                    <use xlink:href="#prefix__g"/>
                </mask>
                <path fill="#000" d="M-1.486 28.971L25.931 28.971 25.931 -1.938 -1.486 -1.938z" mask="url(#prefix__h)"/>
            </g>
            <g fill="#000">
                <path d="M24.029 36.352L24.417 36.352 24.417 23.517 24.029 23.517z" transform="translate(22 27) translate(41 34.31)"/>
                <path d="M24.127 23.685L13.061 17.295 13.254 16.959 24.32 23.349z" transform="translate(22 27) translate(41 34.31)"/>
                <path d="M24.319 23.684L24.126 23.348 35.162 16.978 35.355 17.314zM47.704 4.606L46.925 4.606 46.925 1.284 43.601 1.284 43.601.503 47.704.503zM1.523 4.606L.744 4.606.744.503 4.846.503 4.846 1.284 1.523 1.284zM4.846 46.341L.743 46.341.743 42.238 1.523 42.238 1.523 45.562 4.846 45.562zM47.704 46.341L43.601 46.341 43.601 45.562 46.925 45.562 46.925 42.238 47.704 42.238z" transform="translate(22 27) translate(41 34.31)"/>
            </g>
        </g>
    </g>
</svg>
