<svg xmlns="http://www.w3.org/2000/svg" xmlns:xlink="http://www.w3.org/1999/xlink" width="257" height="60" viewBox="0 0 257 60">
    <defs>
        <path id="b3y6wx9aka" d="M0.525 0.625L14.161 0.625 14.161 17 0.525 17z"/>
    </defs>
    <g fill="none" fill-rule="evenodd">
        <g>
            <g>
                <path d="M0 0H257V60H0z" transform="translate(-994 -1582) translate(994 1582)"/>
                <g>
                    <path fill="#273A5B" d="M77.528 33.322L81.433 33.322 81.433 14.001 77.528 14.001zM77.354 10.437L81.608 10.437 81.608 6.181 77.354 6.181zM128.187 14.597L124.315 27.865 119.977 14.597 116.09 14.597 111.751 27.865 107.894 14.769 107.843 14.597 103.757 14.597 109.743 33.159 109.797 33.324 113.611 33.324 117.942 19.864 122.31 33.324 126.159 33.324 132.198 14.597z" transform="translate(-994 -1582) translate(994 1582) translate(114 12)"/>
                    <g>
                        <path fill="#273A5B" d="M90.969 18.611c.885-.755 1.956-1.138 3.185-1.138 1.499 0 2.706.402 3.59 1.19.79.706 1.296 1.721 1.443 2.877H89.27c.325-1.248.909-2.256 1.698-2.929m3.259-4.751c-2.694 0-4.938.96-6.67 2.857-1.701 1.866-2.6 4.376-2.6 7.263 0 2.807.875 5.097 2.677 7.002 1.78 1.882 4.074 2.836 6.817 2.836 1.876 0 3.58-.45 5.067-1.34 1.189-.711 2.324-1.795 3.113-2.972l.114-.172-2.801-2.587-.157.235c-1.32 1.987-3.161 3.082-5.186 3.082-1.664 0-2.916-.456-3.94-1.435-1.068-1.023-1.615-2.226-1.707-3.774h14.372l.012-.227c.01-.198.01-.386.01-.386 0-3.254-.853-5.907-2.47-7.674-1.643-1.798-3.881-2.708-6.651-2.708M62.271 27.586L54.102 6.186 49.789 6.186 60.257 33.169 60.317 33.321 64.218 33.321 74.918 6.514 75.049 6.186 70.735 6.186z" transform="translate(-994 -1582) translate(994 1582) translate(114 12)"/>
                        <path fill="#6FB6FB" d="M26.101 5.068L17.324 0 12.488 2.791 26.072 16.375z" transform="translate(-994 -1582) translate(994 1582) translate(114 12)"/>
                        <path fill="#007CF7" d="M26.071 23.621L34.64 14.68 34.64 9.998 26.097 5.066z" transform="translate(-994 -1582) translate(994 1582) translate(114 12)"/>
                        <g transform="translate(-994 -1582) translate(994 1582) translate(114 12) translate(8 23)">
                            <mask id="f3c46l0qhb" fill="#fff">
                                <use xlink:href="#b3y6wx9aka"/>
                            </mask>
                            <path fill="#0065C7" d="M0.525 11.922L9.32 17 14.161 14.204 0.57 0.625z" mask="url(#f3c46l0qhb)"/>
                        </g>
                        <path fill="#BFDCFF" d="M0.003 11.249L0.003 9.999 12.488 2.791 20.945 11.249z" transform="translate(-994 -1582) translate(994 1582) translate(114 12)"/>
                        <path fill="#DEEDFF" d="M0.003 11.249L0.003 24.939 13.695 11.249z" transform="translate(-994 -1582) translate(994 1582) translate(114 12)"/>
                        <path fill="#007CF7" d="M8.569 16.375L0 24.938 0 29.998 8.334 34.81 8.562 34.943z" transform="translate(-994 -1582) translate(994 1582) translate(114 12)"/>
                        <path fill="#6FB6FB" d="M34.639 30L22.16 37.205 13.695 28.751 34.64 28.751z" transform="translate(-994 -1582) translate(994 1582) translate(114 12)"/>
                        <path fill="#007CF7" d="M17.243 14.552c-2.965 0-5.368 2.402-5.368 5.367s2.403 5.366 5.368 5.366c2.964 0 5.367-2.401 5.367-5.366s-2.403-5.367-5.367-5.367" transform="translate(-994 -1582) translate(994 1582) translate(114 12)"/>
                        <path fill="#FFF" d="M19.95 15.672c-.85 0-1.538.69-1.538 1.54 0 .85.688 1.538 1.539 1.538.85 0 1.539-.688 1.539-1.539 0-.85-.69-1.539-1.54-1.539" transform="translate(-994 -1582) translate(994 1582) translate(114 12)"/>
                        <path fill="#BFDCFF" d="M20.945 28.751L26.07 23.622 34.64 14.681 34.64 28.751z" transform="translate(-994 -1582) translate(994 1582) translate(114 12)"/>
                    </g>
                </g>
            </g>
        </g>
    </g>
</svg>
