<svg xmlns="http://www.w3.org/2000/svg" width="257" height="60" viewBox="0 0 257 60">
    <g fill="none" fill-rule="evenodd">
        <g>
            <g>
                <path d="M0 0H257V60H0z" transform="translate(-340 -1582) translate(340 1582)"/>
                <g>
                    <path fill="#273A5B" d="M115.7 14.15c-2.605 0-4.699 1.09-6.228 3.243-.491-.948-1.209-1.715-2.137-2.283-1.05-.637-2.276-.96-3.648-.96-1.1 0-2.218.308-3.323.918-.922.51-1.656 1.134-2.184 1.861v-2.186h-3.742v18.746h3.89V23.101c0-1.446.431-2.718 1.282-3.781.85-1.062 1.868-1.579 3.112-1.579 1.377 0 2.364.352 2.93 1.043.58.709.873 1.899.873 3.539v11.166h3.89V23.101c0-1.447.431-2.718 1.283-3.781.85-1.062 1.868-1.579 3.112-1.579 1.376 0 2.362.352 2.93 1.043.58.707.875 1.899.875 3.539v11.166h3.886V21.804c0-2.423-.594-4.321-1.766-5.646-1.178-1.333-2.871-2.008-5.034-2.008M138.362 28.648c-1.025 1.093-2.314 1.602-4.053 1.602-1.74 0-3.03-.509-4.052-1.602-1.09-1.16-1.642-2.702-1.642-4.583 0-1.855.553-3.385 1.64-4.545 1.05-1.118 2.34-1.639 4.054-1.639 1.714 0 3.002.521 4.053 1.64 1.089 1.16 1.64 2.69 1.64 4.544 0 1.881-.551 3.423-1.64 4.583m-4.053-14.498c-2.748 0-5.063.947-6.884 2.817-1.791 1.865-2.697 4.253-2.697 7.098 0 2.847.906 5.236 2.699 7.101 1.819 1.868 4.134 2.816 6.882 2.816 2.747 0 5.052-.948 6.844-2.815 1.817-1.84 2.738-4.23 2.738-7.102 0-2.845-.921-5.233-2.735-7.098-1.795-1.87-4.1-2.817-6.847-2.817M161.278 21.78c.323-1.24.903-2.24 1.687-2.909.877-.75 1.943-1.13 3.164-1.13 1.49 0 2.689.398 3.566 1.183.785.701 1.289 1.707 1.435 2.856h-9.852zm13.988 2.686c0-3.232-.848-5.869-2.455-7.625-1.633-1.787-3.856-2.69-6.608-2.69-2.68 0-4.908.953-6.627 2.838-1.691 1.851-2.584 4.347-2.584 7.217 0 2.79.87 5.064 2.659 6.957 1.77 1.87 4.048 2.817 6.773 2.817 1.866 0 3.559-.448 5.037-1.33 1.18-.706 2.307-1.783 3.09-2.954l.115-.17-2.784-2.572-.156.233c-1.31 1.975-3.14 3.063-5.152 3.063-1.655 0-2.9-.453-3.914-1.425-1.076-1.03-1.606-2.194-1.695-3.75h14.24l.06-.609zM78.193 21.78c.323-1.239.903-2.24 1.687-2.909.877-.75 1.942-1.13 3.164-1.13 1.49 0 2.689.398 3.566 1.183.785.701 1.289 1.707 1.435 2.856h-9.852zm4.925-7.63c-2.68 0-4.908.954-6.628 2.84-1.691 1.851-2.584 4.347-2.584 7.216 0 2.79.87 5.064 2.66 6.957 1.769 1.87 4.048 2.817 6.774 2.817 1.864 0 3.558-.448 5.036-1.33 1.18-.706 2.308-1.784 3.09-2.955l.115-.17-2.784-2.57-.156.232c-1.31 1.975-3.14 3.063-5.152 3.063-1.655 0-2.898-.453-3.913-1.425-1.063-1.017-1.605-2.213-1.696-3.75h14.24l.06-.609c0-3.234-.847-5.87-2.453-7.625-1.635-1.787-3.857-2.69-6.61-2.69zM151.675 9.636h-.452l-3.324 2.108-.11.07v3.243H144.6v3.59h3.187v9.926c.026 1.69.557 3.034 1.577 3.99.97.908 2.227 1.377 3.843 1.435.063.003.126.004.193.004.817 0 1.962-.158 2.563-.363l.16-.055v-3.76l-.335.149c-.234.105-.455.179-.675.226-.374.08-1.1.146-1.366.135-.59-.03-1.035-.211-1.444-.588-.416-.383-.629-1.152-.629-2.29v-8.808h4.45v-3.591h-4.45V9.636zM55.692 20.006v-9.783h8.216c2.696 0 4.89 2.194 4.89 4.891s-2.194 4.892-4.89 4.892h-8.216zm15.212.384c1.178-1.52 1.8-3.345 1.8-5.276 0-1.93-.622-3.756-1.8-5.275-1.65-2.136-4.14-3.359-6.834-3.359H51.783v27.04h3.909v-9.773h6.169l7.372 9.673.072.1h4.968l-7.736-10.136c1.726-.515 3.266-1.569 4.367-2.994z" transform="translate(-340 -1582) translate(340 1582) translate(71 12)"/>
                    <path fill="#207FF4" d="M13.212 40L31.894 29.198 31.895 22.81 13.212 33.66 13.212 33.667 5.491 29.208 5.491 20.302 18.687 12.683 13.204 9.509 0.001 17.131 0 17.131 0 17.131 0 32.377 13.212 40z" transform="translate(-340 -1582) translate(340 1582) translate(71 12)"/>
                    <path fill="#7DB3F6" d="M37.386 17.138L18.692 6.339 13.204 9.508 26.404 17.147 26.412 17.142 31.895 20.308 31.895 29.194 31.886 29.199 24.175 33.651 10.979 25.99 5.487 29.206 24.174 39.992 37.377 32.369z" transform="translate(-340 -1582) translate(340 1582) translate(71 12)"/>
                    <path fill="#C0D8FF" d="M18.691 0L5.487 7.623 5.489 7.624 5.487 7.623 5.487 29.205 10.978 32.375 10.978 10.793 10.977 10.792 10.978 10.793 18.691 6.34 26.404 10.793 26.404 25.999 31.895 22.81 31.895 7.623z" transform="translate(-340 -1582) translate(340 1582) translate(71 12)"/>
                    <path fill="#207FF4" d="M5.491 20.301L5.491 20.301 18.687 12.682 13.204 9.508 0.001 17.13 0 17.13 0 17.131z" transform="translate(-340 -1582) translate(340 1582) translate(71 12)"/>
                </g>
            </g>
        </g>
    </g>
</svg>
