<svg xmlns="http://www.w3.org/2000/svg" xmlns:xlink="http://www.w3.org/1999/xlink" width="257" height="60" viewBox="0 0 257 60">
    <defs>
        <path id="pblblstbsa" d="M0.323 0.824L17.643 0.824 17.643 18 0.323 18z"/>
        <path id="qw0741dl3c" d="M0.002 0.824L17.323 0.824 17.323 18 0.002 18z"/>
        <path id="espsyrrc4e" d="M0 0L34.643 0 34.643 17.175 0 17.175z"/>
    </defs>
    <g fill="none" fill-rule="evenodd">
        <g>
            <g>
                <path d="M0 0H257V60H0z" transform="translate(-667 -1582) translate(667 1582)"/>
                <g>
                    <path fill="#273A5B" d="M64.583 21.145L55.433 6.521 55.362 6.409 51.561 6.409 51.561 33.57 55.47 33.57 55.47 17.485 55.342 13.648 63.374 26.376 63.445 26.488 65.721 26.488 73.825 13.649 73.697 17.492 73.697 33.57 77.604 33.57 77.604 6.409 73.804 6.409z" transform="translate(-667 -1582) translate(667 1582) translate(110 12)"/>
                    <g>
                        <path fill="#273A5B" d="M94.085 25.502c-.031 1.317-.575 2.485-1.62 3.472-1.078 1.02-2.32 1.537-3.691 1.537-.96 0-1.806-.284-2.516-.844-.703-.552-1.045-1.22-1.045-2.046 0-.92.425-1.673 1.299-2.304.886-.637 2.01-.96 3.343-.96 1.794 0 3.216.386 4.23 1.145m-4.818-11.387c-2.843 0-5.387 1.243-7.36 3.596l-.14.168 2.735 2.738.167-.21c.825-1.03 2.524-2.757 4.643-2.757 1.446 0 2.507.367 3.44 1.188.898.793 1.334 1.727 1.334 2.858v.384c-1.292-.637-2.901-.959-4.79-.959-2.428 0-4.402.58-5.868 1.726-1.483 1.161-2.235 2.742-2.235 4.698 0 1.854.71 3.42 2.113 4.654 1.392 1.226 3.144 1.847 5.208 1.847 2.275 0 4.147-.95 5.572-2.83v2.36h3.76V21.957c0-2.417-.766-4.352-2.276-5.749-1.484-1.37-3.664-2.093-6.303-2.093M117.641 15.325L117.641 14.836 112.903 14.836 105.344 22.502 105.344 6.415 104.867 6.415 101.435 9.379 101.435 33.574 105.344 33.574 105.344 27.585 107.86 25.104 113.471 33.574 117.976 33.574 117.976 33.113 110.595 22.334z" transform="translate(-667 -1582) translate(667 1582) translate(110 12)"/>
                        <path fill="#273A5B" d="M122.031 21.787c.325-1.245.908-2.252 1.696-2.924.883-.755 1.953-1.138 3.181-1.138 1.497 0 2.704.4 3.587 1.189.788.706 1.295 1.718 1.441 2.873h-9.905zm14.063 2.699c0-3.251-.853-5.902-2.466-7.665-1.643-1.795-3.879-2.705-6.645-2.705-2.693 0-4.936.959-6.665 2.853-1.699 1.863-2.597 4.374-2.597 7.256 0 2.806.875 5.093 2.675 6.996 1.78 1.88 4.07 2.834 6.81 2.834 1.873 0 3.576-.45 5.062-1.341 1.19-.711 2.323-1.793 3.11-2.97l.113-.17-2.799-2.585-.156.235c-1.317 1.984-3.158 3.078-5.18 3.078-1.664 0-2.914-.455-3.935-1.432-1.083-1.036-1.615-2.206-1.705-3.77h14.318l.06-.614z" transform="translate(-667 -1582) translate(667 1582) translate(110 12)"/>
                        <path fill="#6FB6FB" d="M2.823 21.195L0 22.825.02 29.98 17.323 20 11.108 16.412zM34.642 22.825L31.817 21.195 23.535 16.413 17.323 20 34.642 30z" transform="translate(-667 -1582) translate(667 1582) translate(110 12)"/>
                        <g transform="translate(-667 -1582) translate(667 1582) translate(110 12) translate(17 22)">
                            <mask id="sh1hkz74ab" fill="#fff">
                                <use xlink:href="#pblblstbsa"/>
                            </mask>
                            <path fill="#BFDCFF" d="M17.643 0.824L17.643 8 0.323 18 0.323 10.824 3.146 9.194z" mask="url(#sh1hkz74ab)"/>
                        </g>
                        <g transform="translate(-667 -1582) translate(667 1582) translate(110 12) translate(0 22)">
                            <mask id="p44cc22ood" fill="#fff">
                                <use xlink:href="#qw0741dl3c"/>
                            </mask>
                            <path fill="#007CF7" d="M0.002 0.824L0.002 8 17.323 18 17.323 10.824 14.5 9.194z" mask="url(#p44cc22ood)"/>
                        </g>
                        <g transform="translate(-667 -1582) translate(667 1582) translate(110 12)">
                            <mask id="4rozd5mvxf" fill="#fff">
                                <use xlink:href="#espsyrrc4e"/>
                            </mask>
                            <path fill="#6FB6FB" d="M31.818 8.37L17.321 0 2.823 8.37 0 10 0.021 17.155 17.331 7.168 34.643 17.175 34.642 10z" mask="url(#4rozd5mvxf)"/>
                        </g>
                        <path fill="#BFDCFF" d="M34.644 10L34.644 17.176 17.323 27.176 17.323 20 20.145 18.37z" transform="translate(-667 -1582) translate(667 1582) translate(110 12)"/>
                        <path fill="#007CF7" d="M0.002 10L0.002 17.176 17.323 27.176 17.323 20 14.5 18.37z" transform="translate(-667 -1582) translate(667 1582) translate(110 12)"/>
                    </g>
                </g>
            </g>
        </g>
    </g>
</svg>
