<svg xmlns="http://www.w3.org/2000/svg" xmlns:xlink="http://www.w3.org/1999/xlink" width="257" height="60" viewBox="0 0 257 60">
    <defs>
        <path id="srv3v6c99a" d="M0 40L236.658 40 236.658 0 0 0z"/>
    </defs>
    <g fill="none" fill-rule="evenodd">
        <g>
            <g>
                <path d="M0 0H257V60H0z" transform="translate(-1321 -1582) translate(1321 1582)"/>
                <g>
                    <path fill="#6FB6FB" d="M0 30L17.32 40 17.32 31.683 7.203 25.841 7.203 14.158 0 9.999z" transform="translate(-1321 -1582) translate(1321 1582) translate(12 12)"/>
                    <path fill="#BFDCFF" d="M17.32 0L0.001 9.999 7.202 14.159 17.32 8.317z" transform="translate(-1321 -1582) translate(1321 1582) translate(12 12)"/>
                    <path fill="#DEEDFF" d="M17.32 0L17.32 8.317 27.439 14.159 34.642 9.999z" transform="translate(-1321 -1582) translate(1321 1582) translate(12 12)"/>
                    <path fill="#007CF7" d="M27.438 14.158L27.438 25.841 17.32 31.683 17.32 40 34.642 30 34.641 30 34.642 30 34.642 9.999z" transform="translate(-1321 -1582) translate(1321 1582) translate(12 12)"/>
                    <path fill="#DEEDFF" d="M27.438 25.841L27.438 14.158 17.32 20z" transform="translate(-1321 -1582) translate(1321 1582) translate(12 12)"/>
                    <path fill="#007CF7" d="M27.438 14.158L17.32 8.316 17.32 8.317 17.32 8.317 17.32 8.317 7.203 14.158 17.32 19.999 17.32 19.999 17.32 20z" transform="translate(-1321 -1582) translate(1321 1582) translate(12 12)"/>
                    <path fill="#FFF" d="M27.438 25.841L17.32 20 17.32 20 17.32 20 7.203 25.841 17.32 31.683 17.32 31.682 17.32 31.683z" transform="translate(-1321 -1582) translate(1321 1582) translate(12 12)"/>
                    <path fill="#BFDCFF" d="M7.204 14.158L7.204 14.158 7.204 25.841 17.32 20z" transform="translate(-1321 -1582) translate(1321 1582) translate(12 12)"/>
                    <g transform="translate(-1321 -1582) translate(1321 1582) translate(12 12)">
                        <path fill="#273A5B" d="M93.375 28.795c-1.027 1.095-2.318 1.604-4.061 1.604-1.743 0-3.034-.509-4.06-1.604-1.091-1.163-1.645-2.707-1.645-4.592 0-1.86.554-3.392 1.643-4.554 1.054-1.12 2.345-1.643 4.062-1.643 1.718 0 3.009.523 4.06 1.643 1.092 1.162 1.646 2.694 1.646 4.554 0 1.885-.554 3.43-1.645 4.592m-4.061-14.527c-2.753 0-5.073.95-6.896 2.822-1.795 1.87-2.704 4.262-2.704 7.113 0 2.852.909 5.246 2.705 7.114 1.822 1.873 4.142 2.822 6.895 2.822 2.754 0 5.062-.949 6.858-2.82 1.82-1.844 2.744-4.239 2.744-7.116 0-2.85-.923-5.244-2.741-7.113-1.8-1.873-4.107-2.822-6.861-2.822M212.244 28.795c-1.026 1.095-2.317 1.604-4.06 1.604-1.744 0-3.035-.509-4.06-1.604-1.091-1.163-1.645-2.707-1.645-4.592 0-1.86.553-3.392 1.642-4.554 1.054-1.12 2.345-1.643 4.063-1.643 1.718 0 3.008.523 4.06 1.643 1.091 1.162 1.645 2.694 1.645 4.554 0 1.885-.554 3.43-1.645 4.592m-4.06-14.527c-2.754 0-5.072.95-6.897 2.822-1.794 1.87-2.703 4.262-2.703 7.113 0 2.852.909 5.246 2.704 7.114 1.823 1.873 4.142 2.822 6.895 2.822 2.755 0 5.063-.949 6.859-2.82 1.82-1.844 2.744-4.239 2.744-7.116 0-2.85-.923-5.244-2.742-7.113-1.799-1.873-4.107-2.822-6.86-2.822M130.741 15.742L130.741 15.255 126.018 15.255 118.484 22.896 118.484 6.861 118.008 6.861 114.588 9.815 114.588 33.932 118.484 33.932 118.484 27.963 120.992 25.49 126.584 33.932 131.075 33.932 131.075 33.472 123.718 22.728zM154.16 9.584h-.456l-3.33 2.112-.11.072v3.248h-3.195v3.597h3.196v9.945c.024 1.694.556 3.04 1.579 3.998.97.91 2.23 1.38 3.852 1.44l.192.002c.817 0 1.965-.159 2.567-.364l.162-.054v-3.767l-.334.148c-.24.105-.462.18-.68.227-.371.08-1.099.137-1.368.133-.59-.029-1.036-.209-1.446-.587-.417-.384-.63-1.156-.63-2.295v-8.826h4.459v-3.597h-4.458V9.584zM184.911 9.584h-.454l-3.33 2.112-.11.072v3.248h-3.196v3.597h3.196v9.945c.024 1.694.554 3.04 1.578 3.998.971.91 2.232 1.38 3.852 1.44l.194.002c.817 0 1.965-.159 2.566-.364l.162-.054v-3.767l-.334.148c-.24.105-.462.18-.68.227-.371.08-1.099.137-1.367.133-.591-.029-1.036-.209-1.446-.587-.418-.384-.63-1.156-.63-2.295v-8.826h4.457v-3.597h-4.458V9.584zM171.636 29.083c-1.076 1.016-2.314 1.532-3.68 1.532-.956 0-1.8-.283-2.507-.841-.702-.552-1.042-1.22-1.042-2.041 0-.918.423-1.67 1.294-2.295.882-.636 2.003-.96 3.332-.96 1.786 0 3.204.385 4.217 1.143-.03 1.328-.558 2.462-1.614 3.462m-3.19-14.812c-2.832 0-5.368 1.24-7.334 3.586l-.141.167 2.727 2.727.166-.208c.822-1.026 2.516-2.75 4.627-2.75 1.442 0 2.499.368 3.429 1.185.895.792 1.33 1.724 1.33 2.85v.382c-1.288-.635-2.892-.956-4.774-.956-2.421 0-4.39.579-5.848 1.722-1.478 1.156-2.228 2.73-2.228 4.683 0 1.846.708 3.407 2.105 4.637 1.387 1.223 3.134 1.84 5.19 1.84 2.27 0 4.136-.948 5.556-2.82v2.352h3.748V22.087c0-2.41-.764-4.337-2.27-5.73-1.478-1.365-3.651-2.086-6.283-2.086M234.792 16.338c-1.243-1.32-3.033-1.988-5.32-1.988-1.2 0-2.37.308-3.478.92-.924.51-1.658 1.135-2.19 1.863v-2.189h-3.748v18.682h3.897V23.318c0-1.47.443-2.75 1.319-3.804.878-1.054 1.935-1.568 3.234-1.568 2.793 0 4.185 1.384 4.255 4.221v11.46h3.897V21.942c0-2.403-.628-4.289-1.866-5.605"/>
                        <mask id="emf00lblyb" fill="#fff">
                            <use xlink:href="#srv3v6c99a"/>
                        </mask>
                        <path fill="#273A5B" d="M192.03 33.898L195.923 33.898 195.923 14.639 192.03 14.639zM191.855 11.085L196.098 11.085 196.098 6.844 191.855 6.844zM77.015 6.672L71.933 26.679 66.484 6.885 66.425 6.672 62.84 6.672 57.326 26.7 51.953 6.672 47.84 6.672 55.215 33.206 55.275 33.42 59.153 33.42 64.632 13.212 70.111 33.42 73.992 33.42 81.127 6.672zM107.093 15.42c-.795.502-1.404 1.09-1.823 1.748v-2.293h-3.837v18.69h3.984v-10.27c0-1.296.453-2.449 1.346-3.422.9-.98 1.923-1.458 3.128-1.458.87 0 1.503.08 1.885.237l.293.121v-4.23c-.507-.11-1.05-.185-1.66-.185-1.085 0-2.2.357-3.316 1.061M145.961 25.419c-.368-.562-.845-1.032-1.407-1.432-.292-.208-.614-.4-.964-.577-.76-.384-1.58-.662-2.448-.877l-.343-.088-.343-.088-.343-.088-.342-.088-.343-.088-.342-.088-.343-.088-.343-.088c-.223-.051-.433-.106-.628-.164-.196-.06-.378-.121-.546-.186-.168-.066-.323-.136-.463-.21-.256-.134-.486-.288-.675-.483-.084-.088-.154-.18-.21-.275-.057-.095-.1-.194-.128-.296-.046-.164-.053-.346-.028-.516.01-.064.023-.127.042-.19.04-.126.096-.245.171-.357.125-.188.29-.346.473-.484.068-.051.14-.101.217-.15.162-.102.331-.192.506-.27.088-.038.177-.074.267-.106.09-.033.182-.062.275-.088.188-.052.38-.091.574-.116.098-.013.198-.023.3-.03.21-.013.43-.012.641 0 .06.004.12.01.18.016.05.004.1.007.148.013.11.013.216.029.321.048.105.019.21.04.313.067.103.026.204.054.304.086.1.03.2.067.296.105.097.038.193.079.287.123.094.045.187.093.278.143.088.049.173.1.254.153.056.043.121.079.176.123l.074.052c.078.06.152.122.223.186.028.025.054.053.081.08.032.029.061.059.091.089l.053.056c.323.318.613.66.86 1.03l.216-.216.357-.356.356-.357.357-.357.356-.356.356-.357.357-.356.356-.357c-.069-.104-.14-.206-.215-.305-.076-.1-.153-.198-.234-.294-.08-.096-.165-.19-.252-.281-.087-.093-.177-.182-.27-.27-.093-.087-.189-.173-.289-.256-.099-.083-.2-.164-.307-.243-.214-.16-.438-.31-.67-.446-.167-.098-.337-.191-.509-.277-.172-.087-.346-.167-.524-.241-.177-.074-.357-.141-.54-.203-.182-.062-.367-.118-.555-.167-.187-.05-.377-.094-.57-.131-.192-.037-.387-.068-.584-.093-.196-.024-.396-.044-.597-.056-.46-.03-.945-.023-1.4.006-.258.016-.509.04-.756.073-.246.033-.486.074-.72.122-.235.049-.463.106-.686.17-.437.128-.859.289-1.263.486-.198.097-.39.202-.576.316-.186.112-.366.234-.539.362-.177.132-.342.268-.498.41-.155.144-.299.292-.43.446-.135.154-.257.313-.368.478-.334.495-.569 1.045-.7 1.629-.223 1.007-.185 2.12.211 3.075.365.885 1.014 1.596 1.811 2.144.287.198.603.38.946.552.747.369 1.552.64 2.401.855l.387.097.386.096.386.097.386.097.386.096.387.096.385.097.387.097c.206.063.4.129.58.2.331.13.641.28.922.47.127.086.242.176.343.27.102.094.191.193.267.295.15.2.252.422.303.664.037.18.051.383.023.57-.01.065-.025.129-.044.19-.02.065-.044.126-.074.187-.062.127-.143.244-.238.353-.106.12-.227.229-.36.33-.069.053-.145.106-.225.158-.085.054-.172.105-.262.153-.09.047-.184.09-.279.132-.096.04-.195.079-.296.113-.1.034-.205.065-.312.092-.107.027-.216.05-.328.072-.113.02-.227.038-.345.052-.117.013-.237.023-.36.03-.237.013-.488.016-.726-.003-.116-.01-.23-.022-.345-.04-.114-.018-.227-.04-.339-.067-.112-.026-.222-.058-.332-.093-.109-.035-.218-.076-.325-.12-.107-.044-.213-.093-.318-.146-.104-.053-.207-.111-.31-.173-.102-.061-.202-.128-.3-.2-.303-.212-.578-.46-.824-.737-.083-.094-.162-.19-.239-.29-.156-.204-.297-.42-.425-.646-.065-.114-.126-.232-.185-.354-.058-.121-.114-.247-.167-.375l-.014-.035-.014-.034-.013-.034-.015-.035-.014-.034-.013-.034-.014-.035-.015-.034-.444.19-.446.19-.445.19-.445.19-.446.19-.445.19-.445.19-.445.19.013.033.012.033.012.033.013.033.012.033.013.033.013.032.012.033c.077.2.16.395.248.586.09.19.186.378.288.559.102.182.211.358.326.53.115.173.237.34.365.502.128.162.262.32.403.472.14.153.287.3.44.443.154.143.313.28.478.413.332.265.691.513 1.06.726.186.107.375.206.57.299.386.184.788.338 1.201.46.207.062.418.116.633.162.214.047.433.085.654.116.705.1 1.447.115 2.158.066.258-.018.51-.044.758-.08.716-.102 1.413-.282 2.076-.555.213-.088.422-.184.624-.29.202-.105.398-.22.588-.342.19-.123.375-.255.552-.395.181-.142.351-.288.51-.44.158-.15.306-.305.442-.465.136-.16.261-.323.375-.491.225-.332.408-.684.546-1.057.437-1.188.406-2.571-.045-3.742-.117-.3-.265-.583-.44-.853" mask="url(#emf00lblyb)"/>
                    </g>
                </g>
            </g>
        </g>
    </g>
</svg>
