<svg xmlns="http://www.w3.org/2000/svg" xmlns:xlink="http://www.w3.org/1999/xlink" width="252" height="60" viewBox="0 0 252 60">
    <defs>
        <path id="zf7wxbqvua" d="M0.058 0.067L17.491 0.067 17.491 20.307 0.058 20.307z"/>
        <path id="i9o0vui18c" d="M0 42L248.491 42 248.491 0 0 0z"/>
    </defs>
    <g fill="none" fill-rule="evenodd">
        <path d="M0 0H252V60H0z"/>
        <g transform="translate(2 6)">
            <path fill="#6FB6FB" d="M0 31.5L18.186 42 18.186 33.268 7.564 27.134 7.564 14.866 0 10.5z"/>
            <path fill="#BFDCFF" d="M18.186 0L0 10.5 7.563 14.867 18.186 8.734z"/>
            <path fill="#DEEDFF" d="M18.186 0L18.186 8.734 28.81 14.867 36.373 10.5z"/>
            <path fill="#007CF7" d="M28.81 14.866L28.81 27.134 18.187 33.267 18.187 42 36.374 31.5 36.373 31.5 36.374 31.5 36.374 10.5z"/>
            <path fill="#DEEDFF" d="M28.81 27.133L28.81 14.866 18.187 20.999z"/>
            <path fill="#007CF7" d="M28.81 14.866L18.187 8.732 18.187 8.733 18.187 8.734 18.186 8.733 7.563 14.866 18.186 21 18.187 20.999 18.187 21z"/>
            <path fill="#FFF" d="M28.81 27.133L18.187 20.999 18.187 21 18.187 21 18.186 21 7.563 27.133 18.186 33.266 18.187 33.266 18.187 33.267z"/>
            <path fill="#BFDCFF" d="M7.563 14.866L7.563 14.866 7.563 27.133 18.187 21z"/>
            <path fill="#273A5B" d="M98.044 30.235c-1.08 1.149-2.434 1.685-4.264 1.685s-3.186-.536-4.263-1.685c-1.146-1.221-1.727-2.843-1.727-4.821 0-1.953.58-3.562 1.725-4.783 1.107-1.175 2.462-1.724 4.265-1.724 1.804 0 3.159.549 4.264 1.724 1.146 1.22 1.727 2.83 1.727 4.783 0 1.978-.581 3.6-1.727 4.82M93.78 14.983c-2.891 0-5.326.996-7.241 2.963-1.885 1.962-2.84 4.475-2.84 7.469 0 2.994.955 5.507 2.84 7.469 1.915 1.966 4.35 2.963 7.24 2.963 2.892 0 5.316-.997 7.202-2.962 1.912-1.935 2.88-4.45 2.88-7.47 0-2.994-.968-5.507-2.878-7.47-1.888-1.966-4.312-2.962-7.203-2.962M222.857 30.235c-1.079 1.149-2.435 1.685-4.264 1.685-1.83 0-3.186-.536-4.263-1.685-1.146-1.221-1.727-2.843-1.727-4.821 0-1.953.581-3.562 1.725-4.783 1.107-1.175 2.462-1.724 4.265-1.724 1.804 0 3.16.549 4.264 1.724 1.146 1.22 1.727 2.83 1.727 4.783 0 1.978-.58 3.6-1.727 4.82m-4.264-15.252c-2.89 0-5.326.996-7.24 2.963-1.886 1.962-2.84 4.475-2.84 7.469 0 2.994.954 5.507 2.84 7.469 1.914 1.966 4.35 2.963 7.24 2.963 2.891 0 5.315-.997 7.201-2.962 1.912-1.935 2.88-4.45 2.88-7.47 0-2.994-.968-5.507-2.878-7.47-1.888-1.966-4.312-2.962-7.203-2.962M137.278 16.529L137.278 16.017 132.32 16.017 124.407 24.041 124.407 7.204 123.907 7.204 120.317 10.306 120.317 35.629 124.407 35.629 124.407 29.361 127.04 26.764 132.912 35.629 137.629 35.629 137.629 35.146 129.903 23.865zM161.868 10.063h-.478l-3.496 2.218-.115.074v3.412h-3.356v3.777h3.356v10.441c.025 1.78.582 3.193 1.657 4.199 1.02.956 2.343 1.449 4.045 1.51.065.002.132.005.2.005.86 0 2.066-.167 2.697-.383l.17-.058v-3.955l-.351.156c-.25.11-.484.188-.712.238h-.002c-.39.084-1.153.145-1.435.14-.621-.03-1.088-.218-1.52-.616-.437-.404-.66-1.215-.66-2.41v-9.267h4.68v-3.777h-4.68v-5.704zM194.157 10.063h-.478l-3.496 2.218-.115.074v3.412h-3.356v3.777h3.356v10.441c.025 1.78.583 3.193 1.657 4.199 1.02.956 2.343 1.449 4.045 1.51.066.002.133.005.202.005.858 0 2.064-.167 2.696-.383l.17-.058v-3.955l-.351.156c-.251.11-.485.188-.713.238h-.001c-.39.084-1.154.145-1.436.14-.621-.03-1.088-.218-1.518-.616-.44-.404-.662-1.215-.662-2.41v-9.267h4.68v-3.777h-4.68v-5.704zM180.218 30.537c-1.13 1.067-2.43 1.609-3.864 1.609-1.005 0-1.89-.298-2.634-.883-.736-.58-1.094-1.281-1.094-2.143 0-.963.445-1.752 1.36-2.41.925-.668 2.103-1.006 3.499-1.006 1.874 0 3.363.402 4.426 1.198-.03 1.395-.585 2.585-1.694 3.635m-3.35-15.552c-2.972 0-5.635 1.302-7.7 3.765l-.148.176 2.863 2.863.174-.22c.864-1.076 2.641-2.885 4.86-2.885 1.513 0 2.624.385 3.6 1.243.94.832 1.398 1.81 1.398 2.992v.402c-1.354-.667-3.038-1.004-5.014-1.004-2.543 0-4.608.607-6.142 1.808-1.552 1.214-2.339 2.868-2.339 4.917 0 1.938.743 3.578 2.212 4.869 1.456 1.283 3.29 1.933 5.45 1.933 2.382 0 4.342-.996 5.833-2.962v2.47h3.935v-12.16c0-2.531-.802-4.555-2.383-6.016-1.553-1.434-3.835-2.191-6.599-2.191"/>
            <g transform="translate(231 15)">
                <mask id="qsq57hmfob" fill="#fff">
                    <use xlink:href="#zf7wxbqvua"/>
                </mask>
                <path fill="#273A5B" d="M15.531 2.155C14.226.769 12.346.067 9.945.067c-1.259 0-2.488.324-3.652.966-.97.536-1.74 1.193-2.3 1.957V.692H.058v19.615H4.15V9.485c0-1.544.465-2.888 1.385-3.995.922-1.106 2.032-1.646 3.395-1.646 2.934 0 4.395 1.453 4.47 4.432v12.03h4.091V8.042c0-2.524-.66-4.504-1.96-5.886" mask="url(#qsq57hmfob)"/>
            </g>
            <mask id="p9w14dob8d" fill="#fff">
                <use xlink:href="#i9o0vui18c"/>
            </mask>
            <path fill="#273A5B" d="M201.632 35.593L205.72 35.593 205.72 15.372 201.632 15.372zM201.448 11.639L205.904 11.639 205.904 7.186 201.448 7.186zM80.866 7.005L75.53 28.012 69.808 7.229 69.746 7.005 65.982 7.005 60.192 28.034 54.552 7.005 50.232 7.005 57.976 34.866 58.039 35.089 62.111 35.089 67.864 13.872 73.616 35.089 77.691 35.089 85.183 7.005zM112.448 16.19c-.835.528-1.475 1.144-1.915 1.836v-2.407h-4.028v19.624h4.183V24.461c0-1.362.476-2.572 1.414-3.594.944-1.031 2.018-1.531 3.284-1.531.912 0 1.578.084 1.979.249l.308.126v-4.44c-.533-.117-1.103-.195-1.744-.195-1.138 0-2.31.375-3.481 1.114M153.26 26.69c-.387-.59-.887-1.084-1.477-1.503-.307-.219-.645-.421-1.013-.607-.799-.403-1.66-.695-2.572-.921l-.359-.092-.36-.093-.36-.092-.36-.092-.358-.093-.36-.092-.36-.093-.36-.092c-.234-.053-.456-.111-.66-.172-.207-.061-.398-.127-.573-.196-.177-.069-.34-.142-.487-.219-.268-.141-.51-.303-.708-.508-.089-.093-.162-.189-.221-.289-.06-.099-.105-.203-.135-.311-.048-.172-.055-.363-.029-.541.01-.068.024-.134.044-.199.042-.133.103-.258.18-.376.131-.197.304-.363.498-.509.07-.053.145-.105.227-.156.17-.108.347-.202.531-.284.093-.04.185-.078.28-.112.095-.033.191-.064.288-.091.198-.055.4-.096.603-.122.103-.015.209-.025.315-.032.222-.014.453-.012.674 0 .064.004.126.011.188.017.051.005.105.007.156.014.115.013.227.03.338.05.11.02.22.043.327.07.108.027.215.057.32.09.106.034.208.071.31.11.102.04.203.084.302.13.1.047.197.097.292.15.093.051.181.105.268.161.058.045.126.083.184.129.024.019.053.036.078.055.08.062.159.127.232.194.031.027.058.056.087.084l.096.094.055.059c.339.334.643.694.901 1.083l.228-.228.375-.375.375-.374.374-.374.374-.375.374-.374.374-.374.375-.375c-.073-.108-.149-.216-.226-.321-.08-.104-.161-.207-.246-.308-.085-.101-.173-.199-.264-.296-.093-.096-.187-.19-.285-.282-.098-.092-.199-.182-.303-.269-.103-.088-.212-.173-.321-.256-.226-.168-.46-.324-.706-.468-.174-.103-.352-.2-.532-.291-.181-.091-.364-.175-.552-.252-.185-.078-.375-.149-.565-.214-.192-.065-.387-.124-.583-.176-.197-.052-.397-.098-.6-.137-.202-.039-.406-.071-.613-.097-.206-.026-.416-.046-.627-.059-.482-.03-.992-.024-1.47.006-.27.017-.535.043-.792.077-.26.034-.511.077-.757.128-.246.051-.487.111-.72.179-.46.134-.903.303-1.326.51-.21.102-.41.212-.607.331-.194.119-.382.246-.565.381-.185.138-.36.282-.523.432-.162.149-.314.305-.453.466-.14.162-.268.329-.383.502-.352.52-.599 1.098-.737 1.71-.233 1.058-.195 2.228.222 3.229.383.93 1.064 1.677 1.903 2.252.3.207.631.4.993.579.784.388 1.629.673 2.52.898l.406.101.405.102.406.101.406.102.406.101.404.102.405.101.406.101c.218.066.42.137.608.211.35.137.675.295.97.493.132.09.254.185.36.284.107.099.2.202.28.309.157.211.264.443.319.698.038.19.052.402.023.598-.01.068-.025.135-.046.201-.02.067-.046.131-.077.195-.065.133-.15.255-.25.37-.111.127-.238.241-.377.347-.075.056-.154.112-.238.166-.089.057-.18.11-.275.161-.095.049-.191.096-.292.139-.101.043-.204.082-.311.118-.106.036-.215.068-.328.097-.112.028-.227.054-.344.075-.118.022-.24.04-.362.054-.124.015-.25.025-.379.033-.249.013-.512.016-.763-.004-.12-.009-.242-.023-.362-.042-.12-.019-.238-.042-.356-.07-.117-.028-.232-.061-.347-.098-.115-.037-.23-.079-.341-.126-.113-.047-.225-.097-.334-.153-.11-.056-.219-.117-.326-.182-.108-.065-.213-.134-.317-.208-.317-.225-.606-.485-.863-.776-.088-.098-.17-.199-.251-.305-.165-.214-.313-.44-.446-.677-.069-.121-.133-.245-.195-.373-.061-.127-.12-.258-.174-.393l-.016-.036-.014-.036-.014-.036-.016-.037-.014-.036-.016-.036-.013-.036-.016-.036-.466.2-.468.199-.468.2-.468.2-.466.199-.469.2-.466.199-.469.2.013.034.014.035.013.034.013.035.013.034.014.035.012.034.014.034c.08.21.167.416.26.616.095.201.196.396.303.587.108.19.221.376.341.557.123.18.25.356.385.527.133.17.275.335.423.495.147.16.3.316.463.465.16.15.327.294.5.434.35.278.727.538 1.114.762.195.113.394.217.596.314.407.194.83.355 1.262.484.219.064.44.121.666.169.225.049.453.089.686.122.74.105 1.52.12 2.266.07.27-.019.537-.047.797-.084.75-.108 1.484-.297 2.179-.583.225-.093.442-.194.655-.305.212-.111.418-.231.618-.36.2-.128.393-.267.58-.414.19-.149.369-.303.535-.461.167-.159.32-.322.464-.489.143-.168.274-.34.393-.516.237-.349.429-.718.575-1.11.459-1.247.425-2.699-.048-3.929-.124-.314-.279-.612-.464-.895" mask="url(#p9w14dob8d)"/>
        </g>
    </g>
</svg>
