<svg xmlns="http://www.w3.org/2000/svg" xmlns:xlink="http://www.w3.org/1999/xlink" width="252" height="60" viewBox="0 0 252 60">
    <defs>
        <path id="zskg1mvhra" d="M0.841 0.858L20.029 0.858 20.029 21.68 0.841 21.68z"/>
        <path id="l2b58f29vc" d="M0 0.983L19.621 0.983 19.621 12.316 0 12.316z"/>
    </defs>
    <g fill="none" fill-rule="evenodd">
        <path d="M0 0H252V60H0z"/>
        <g>
            <path fill="#273A5B" d="M121.485 14.858c-2.736 0-4.934 1.145-6.54 3.405-.516-.995-1.269-1.801-2.245-2.397-1.1-.67-2.388-1.008-3.829-1.008-1.156 0-2.329.323-3.49.964-.967.536-1.737 1.19-2.294 1.954V15.48H99.16v19.684h4.083V24.256c0-1.518.453-2.854 1.347-3.97.893-1.115 1.961-1.657 3.27-1.657 1.443 0 2.48.369 3.075 1.095.608.743.917 1.993.917 3.715v11.725h4.082V24.256c0-1.52.455-2.854 1.35-3.97.891-1.115 1.96-1.657 3.265-1.657 1.445 0 2.481.369 3.077 1.095.61.742.92 1.993.92 3.715v11.725h4.08v-12.27c0-2.543-.624-4.536-1.854-5.928-1.238-1.4-3.016-2.108-5.287-2.108M145.279 30.08c-1.076 1.148-2.43 1.683-4.255 1.683-1.827 0-3.18-.535-4.255-1.682-1.144-1.218-1.724-2.836-1.724-4.812 0-1.95.58-3.554 1.722-4.772 1.104-1.174 2.457-1.721 4.257-1.721 1.799 0 3.152.547 4.255 1.72 1.144 1.219 1.724 2.824 1.724 4.773 0 1.976-.58 3.594-1.724 4.812m-4.255-15.223c-2.886 0-5.316.994-7.227 2.957-1.881 1.958-2.833 4.467-2.833 7.454 0 2.989.952 5.497 2.834 7.455 1.91 1.962 4.34 2.958 7.226 2.958 2.885 0 5.304-.996 7.186-2.956 1.909-1.932 2.875-4.442 2.875-7.457 0-2.987-.966-5.496-2.872-7.454-1.885-1.963-4.304-2.957-7.19-2.957" transform="translate(30 6)"/>
            <g transform="translate(30 6) translate(164 14)">
                <mask id="mhu0p4iz1b" fill="#fff">
                    <use xlink:href="#zskg1mvhra"/>
                </mask>
                <path fill="#273A5B" d="M5.341 8.87c.34-1.303.948-2.353 1.771-3.055.922-.787 2.041-1.187 3.323-1.187 1.563 0 2.823.418 3.744 1.242.824.736 1.353 1.793 1.506 3H5.341zm14.688 2.82c0-3.394-.89-6.163-2.578-8.008-1.714-1.875-4.05-2.824-6.939-2.824C7.7.858 5.358 1.86 3.553 3.84 1.778 5.782.841 8.403.841 11.417c0 2.928.913 5.317 2.792 7.304 1.857 1.963 4.25 2.96 7.112 2.96 1.958 0 3.737-.472 5.287-1.399 1.241-.74 2.423-1.87 3.247-3.1l.12-.18-2.924-2.7-.164.245c-1.375 2.073-3.296 3.215-5.409 3.215-1.738 0-3.043-.475-4.11-1.496-1.13-1.08-1.685-2.303-1.78-3.938h14.954l.063-.639z" mask="url(#mhu0p4iz1b)"/>
            </g>
            <path fill="#273A5B" d="M82.102 22.87c.34-1.3.948-2.353 1.771-3.055h.001c.921-.787 2.04-1.187 3.321-1.187 1.565 0 2.824.418 3.745 1.242.825.736 1.354 1.793 1.506 3H82.102zm5.172-8.012c-2.813 0-5.155 1.002-6.96 2.981-1.775 1.945-2.713 4.565-2.713 7.578 0 2.928.914 5.317 2.794 7.304 1.856 1.963 4.25 2.96 7.112 2.96 1.956 0 3.735-.472 5.287-1.399 1.241-.74 2.424-1.872 3.246-3.102l.12-.179-2.924-2.699-.163.245c-1.376 2.073-3.297 3.215-5.41 3.215-1.738 0-3.043-.475-4.109-1.496-1.115-1.067-1.685-2.323-1.78-3.938h14.952l.064-.639c0-3.395-.892-6.163-2.577-8.007-1.716-1.875-4.05-2.824-6.939-2.824zM159.26 10.118h-.477l-3.49 2.214-.116.074v3.404h-3.347v3.77h3.347V30c.027 1.777.585 3.188 1.656 4.19 1.018.954 2.338 1.447 4.035 1.509.066.002.133.003.202.003.858 0 2.062-.166 2.691-.381l.17-.057v-3.948l-.353.156c-.246.11-.478.188-.708.237h-.002c-.39.085-1.153.153-1.432.14-.62-.028-1.088-.22-1.517-.615-.437-.403-.66-1.211-.66-2.404v-9.25h4.671v-3.77h-4.67v-5.692zM58.476 21.006V10.735h8.626c2.832 0 5.136 2.304 5.136 5.135 0 2.832-2.304 5.136-5.136 5.136h-8.626zm15.972.403c1.237-1.595 1.891-3.511 1.891-5.54 0-2.026-.654-3.942-1.89-5.537-1.73-2.243-4.347-3.528-7.176-3.528h-12.9v28.393h4.103V24.935h6.477l7.741 10.157.076.105h5.216l-8.123-10.643c1.812-.541 3.43-1.648 4.585-3.145z" transform="translate(30 6)"/>
            <path fill="#207FF4" d="M13.873 42L33.489 30.657 33.49 23.95 13.873 35.343 13.872 35.343 13.872 35.351 5.766 30.667 5.766 21.316 19.621 13.317 13.864 9.984 0.001 17.987 0 17.987 0 17.988 0 33.996 13.872 42 13.872 42z" transform="translate(30 6)"/>
            <path fill="#7DB3F6" d="M39.255 17.995L19.626 6.657 13.864 9.984 27.724 18.004 27.732 17.999 33.489 21.324 33.489 30.654 33.481 30.659 25.384 35.333 11.527 27.29 5.762 30.666 25.382 41.992 39.246 33.988z" transform="translate(30 6)"/>
            <path fill="#C0D8FF" d="M19.625 0L5.761 8.004 5.763 8.005 5.761 8.004 5.761 30.665 11.527 33.995 11.527 11.333 11.527 11.332 11.527 11.333 19.625 6.657 27.724 11.333 27.724 27.298 33.489 23.95 33.489 8.004z" transform="translate(30 6)"/>
            <g transform="translate(30 6) translate(0 9)">
                <mask id="2qjqgxq1pd" fill="#fff">
                    <use xlink:href="#l2b58f29vc"/>
                </mask>
                <path fill="#207FF4" d="M5.766 12.316L5.766 12.316 19.621 4.316 13.864 0.983 0.001 8.987 0 8.986 0 8.987z" mask="url(#2qjqgxq1pd)"/>
            </g>
        </g>
    </g>
</svg>
