<svg xmlns="http://www.w3.org/2000/svg" xmlns:xlink="http://www.w3.org/1999/xlink" width="252" height="60" viewBox="0 0 252 60">
    <defs>
        <path id="0a8jy9dufa" d="M0.189 0.966L18.376 0.966 18.376 19 0.189 19z"/>
        <path id="hsdfeno1ic" d="M0.002 0.966L18.189 0.966 18.189 19 0.002 19z"/>
        <path id="uaxoc2uqee" d="M0 0L36.375 0 36.375 18.034 0 18.034z"/>
    </defs>
    <g fill="none" fill-rule="evenodd">
        <path d="M0 0H252V60H0z"/>
        <g transform="translate(51 6)">
            <path fill="#273A5B" d="M67.812 22.202L58.205 6.847 58.13 6.729 54.139 6.729 54.139 35.248 58.243 35.248 58.243 18.359 58.109 14.33 66.543 27.695 66.617 27.812 69.007 27.812 77.516 14.331 77.382 18.367 77.382 35.248 81.485 35.248 81.485 6.729 77.494 6.729zM98.79 26.777c-.033 1.384-.605 2.609-1.7 3.646-1.134 1.07-2.438 1.614-3.877 1.614-1.008 0-1.897-.299-2.642-.886-.739-.58-1.097-1.283-1.097-2.149 0-.966.445-1.756 1.363-2.419.93-.668 2.111-1.008 3.511-1.008 1.883 0 3.377.406 4.441 1.202m-5.06-11.956c-2.983 0-5.655 1.305-7.726 3.776l-.148.177 2.872 2.874.176-.221c.865-1.08 2.65-2.895 4.874-2.895 1.52 0 2.633.386 3.613 1.248.942.832 1.4 1.813 1.4 3.001v.403c-1.356-.669-3.046-1.007-5.029-1.007-2.55 0-4.623.609-6.16 1.813-1.559 1.219-2.348 2.879-2.348 4.933 0 1.946.746 3.589 2.218 4.886 1.462 1.287 3.301 1.939 5.468 1.939 2.39 0 4.355-.998 5.851-2.971v2.478h3.948v-12.2c0-2.538-.804-4.57-2.39-6.037-1.558-1.437-3.847-2.197-6.619-2.197M123.523 16.091L123.523 15.579 118.548 15.579 110.611 23.628 110.611 6.737 110.109 6.737 106.506 9.848 106.506 35.254 110.611 35.254 110.611 28.965 113.252 26.36 119.144 35.254 123.875 35.254 123.875 34.769 116.124 23.451z"/>
            <path fill="#273A5B" d="M128.133 22.876c.34-1.308.953-2.365 1.78-3.07.928-.793 2.05-1.195 3.34-1.195 1.573 0 2.84.42 3.767 1.248.828.742 1.36 1.804 1.513 3.017h-10.4zM142.9 25.71c0-3.414-.896-6.197-2.591-8.048-1.724-1.885-4.072-2.84-6.977-2.84-2.827 0-5.182 1.006-6.997 2.995-1.785 1.957-2.728 4.593-2.728 7.62 0 2.945.919 5.346 2.809 7.345 1.868 1.975 4.274 2.975 7.15 2.975 1.967 0 3.756-.472 5.316-1.407 1.249-.747 2.439-1.883 3.265-3.119l.119-.179-2.94-2.714-.163.246c-1.384 2.084-3.316 3.233-5.44 3.233-1.746 0-3.06-.478-4.131-1.504-1.137-1.087-1.695-2.316-1.79-3.959h15.034l.064-.644z"/>
            <path fill="#6FB6FB" d="M2.964 22.255L0 23.966.021 31.479 18.189 21 11.663 17.232zM36.373 23.966L33.408 22.255 24.712 17.234 18.189 21 36.374 31.5z"/>
            <g transform="translate(18 23)">
                <mask id="qbfvbjbr6b" fill="#fff">
                    <use xlink:href="#0a8jy9dufa"/>
                </mask>
                <path fill="#BFDCFF" d="M18.376 0.966L18.376 8.501 0.189 19 0.189 11.466 3.153 9.755z" mask="url(#qbfvbjbr6b)"/>
            </g>
            <g transform="translate(0 23)">
                <mask id="re6ojhonpd" fill="#fff">
                    <use xlink:href="#hsdfeno1ic"/>
                </mask>
                <path fill="#007CF7" d="M0.002 0.966L0.002 8.501 18.189 19 18.189 11.466 15.224 9.755z" mask="url(#re6ojhonpd)"/>
            </g>
            <mask id="i8d4xy1u0f" fill="#fff">
                <use xlink:href="#uaxoc2uqee"/>
            </mask>
            <path fill="#6FB6FB" d="M33.409 8.789L18.187 0 2.965 8.789 0 10.5 0.022 18.013 18.198 7.526 36.375 18.034 36.374 10.5z" mask="url(#i8d4xy1u0f)"/>
            <path fill="#BFDCFF" d="M36.376 10.5L36.376 18.035 18.189 28.535 18.189 21 21.153 19.288z"/>
            <path fill="#007CF7" d="M0.002 10.5L0.002 18.035 18.189 28.535 18.189 21 15.224 19.288z"/>
        </g>
    </g>
</svg>
