<svg xmlns="http://www.w3.org/2000/svg" xmlns:xlink="http://www.w3.org/1999/xlink" width="252" height="60" viewBox="0 0 252 60">
    <defs>
        <path id="6as96n2yya" d="M0.112 0L14.406 0 14.406 17.194 0.112 17.194z"/>
        <path id="sosu2ivo6c" d="M0 0.194L8.998 0.194 8.998 19.691 0 19.691z"/>
    </defs>
    <g fill="none" fill-rule="evenodd">
        <path d="M0 0H252V60H0z"/>
        <g>
            <path fill="#273A5B" d="M81.405 34.989L85.505 34.989 85.505 14.702 81.405 14.702zM81.222 10.958L85.689 10.958 85.689 6.49 81.222 6.49zM134.596 15.327L130.531 29.258 125.977 15.327 121.895 15.327 117.339 29.258 113.289 15.508 113.235 15.327 108.945 15.327 115.231 34.816 115.287 34.99 119.291 34.99 123.84 20.857 128.426 34.99 132.467 34.99 138.808 15.327zM95.518 19.541c.929-.792 2.054-1.194 3.344-1.194 1.573 0 2.84.421 3.769 1.25.83.74 1.362 1.806 1.516 3.02H93.735c.34-1.31.954-2.369 1.783-3.076m3.42-4.988c-2.826 0-5.183 1.008-7.002 3-1.786 1.96-2.73 4.595-2.73 7.626 0 2.947.919 5.351 2.81 7.351 1.87 1.977 4.278 2.978 7.159 2.978 1.97 0 3.76-.472 5.32-1.407 1.249-.747 2.44-1.884 3.268-3.12l.12-.18-2.941-2.717-.165.247c-1.385 2.086-3.32 3.236-5.445 3.236-1.747 0-3.061-.48-4.137-1.506-1.121-1.075-1.696-2.339-1.792-3.963h15.09l.013-.239c.01-.208.01-.405.01-.405 0-3.417-.895-6.203-2.592-8.058-1.726-1.888-4.076-2.843-6.985-2.843M65.385 28.965L56.807 6.495 52.279 6.495 63.271 34.827 63.334 34.987 67.429 34.987 78.664 6.84 78.802 6.495 74.272 6.495z" transform="translate(54 6)"/>
            <g transform="translate(54 6) translate(13)">
                <mask id="3qhtc5t52b" fill="#fff">
                    <use xlink:href="#6as96n2yya"/>
                </mask>
                <path fill="#6FB6FB" d="M14.406 5.322L5.19 0 0.112 2.931 14.375 17.194z" mask="url(#3qhtc5t52b)"/>
            </g>
            <path fill="#007CF7" d="M27.375 24.802L36.373 15.414 36.373 10.499 27.402 5.32z" transform="translate(54 6)"/>
            <path fill="#0065C7" d="M8.952 36.668L18.186 42 23.269 39.065 8.998 24.806z" transform="translate(54 6)"/>
            <path fill="#BFDCFF" d="M0.003 11.811L0.003 10.498 13.111 2.93 21.992 11.811z" transform="translate(54 6)"/>
            <path fill="#DEEDFF" d="M0.003 11.811L0.003 26.186 14.38 11.811z" transform="translate(54 6)"/>
            <g transform="translate(54 6) translate(0 17)">
                <mask id="sy0pdcpdsd" fill="#fff">
                    <use xlink:href="#sosu2ivo6c"/>
                </mask>
                <path fill="#007CF7" d="M8.998 0.194L0 9.186 0 14.499 8.751 19.55 8.991 19.691z" mask="url(#sy0pdcpdsd)"/>
            </g>
            <path fill="#6FB6FB" d="M36.371 31.5L23.268 39.065 14.38 30.189 36.372 30.189z" transform="translate(54 6)"/>
            <path fill="#007CF7" d="M18.106 15.279c-3.113 0-5.636 2.523-5.636 5.636s2.523 5.635 5.636 5.635c3.112 0 5.635-2.522 5.635-5.635s-2.523-5.636-5.635-5.636" transform="translate(54 6)"/>
            <path fill="#FFF" d="M20.948 16.456c-.893 0-1.616.724-1.616 1.616 0 .893.723 1.616 1.616 1.616.892 0 1.616-.723 1.616-1.616 0-.892-.724-1.616-1.616-1.616" transform="translate(54 6)"/>
            <path fill="#BFDCFF" d="M21.992 30.189L27.374 24.803 36.372 15.416 36.372 30.189z" transform="translate(54 6)"/>
        </g>
    </g>
</svg>
