<svg width="1259" height="907" viewBox="0 0 1259 907" xmlns="http://www.w3.org/2000/svg">
    <g fill="none" fill-rule="evenodd">
        <path d="M31 0h1197v907H31z"/>
        <path stroke="#C5C8CF" stroke-linecap="square" d="M.5 401.5h368M.5 724.5h368M889.5 401.5h368M889.5 724.5h368M443.5 401.5h368M443.5 724.5h368"/>
        <text font-family="NotoSansCJKkr-Bold, Noto Sans CJK KR" font-size="18" font-weight="bold" letter-spacing="-.225" fill="#0A51B7">
                    <tspan x="597.33" y="200">제품개요</tspan>
                </text>
        <text font-family="NotoSansCJKkr-Bold, Noto Sans CJK KR" font-size="20" font-weight="bold" letter-spacing="-.25" fill="#0A51B7">
                    <tspan x="90.6" y="616">Save Time and Cost</tspan>
                </text>
        <text font-family="NotoSansCJKkr-Bold, Noto Sans CJK KR" font-size="20" font-weight="bold" letter-spacing="-.25" fill="#0A51B7">
                    <tspan x="492.975" y="616">Inform Quicky and ccurately</tspan>
                </text>
        <text font-family="NotoSansCJKkr-Bold, Noto Sans CJK KR" font-size="20" font-weight="bold" letter-spacing="-.25" fill="#0A51B7">
                    <tspan x="966.995" y="616">Reduce Industry Risks</tspan>
                </text>
        <text font-family="NotoSansCJKkr-Bold, Noto Sans CJK KR" font-size="44" font-weight="bold" letter-spacing="-.55" fill="#121212">
                    <tspan x="447" y="265">XR 원격 협업 솔루션</tspan>
                </text>
        <text font-family="NotoSansCJKkr-Medium, Noto Sans CJK KR" font-size="16" font-weight="400" fill="#121212">
                    <tspan x="143.356" y="304">VIRNECT Remote의 실시간 원격협업 서비스를 통해 산업 현장에 필요한 정보와 이슈를 실시간으로 공유하여 언제 어디서든 업무 대응이 가능합니다.</tspan>
                    <tspan x="232.116" y="332">빠르고 간편하게 협업이 가능하며 기존의 익숙한 업무 환경을 그대로 유지하여 업무의 정확성과 효율성을 높일 수 있습니다.</tspan>
                </text>
        <text font-family="NotoSansCJKkr-Medium, Noto Sans CJK KR" font-size="16" font-weight="400" fill="#121212">
                    <tspan x="94.756" y="652">현지공장 출장 비용, 시간을</tspan>
                    <tspan x="87.396" y="680">획기적으로 줄일 수 있습니다.</tspan>
                </text>
        <text font-family="NotoSansCJKkr-Medium, Noto Sans CJK KR" font-size="16" font-weight="400" fill="#121212">
                    <tspan x="543.44" y="652">정보를 신속하고 정확하게</tspan>
                    <tspan x="563.136" y="680">전달할 수 있습니다.</tspan>
                </text>
        <text font-family="NotoSansCJKkr-Medium, Noto Sans CJK KR" font-size="16" font-weight="400" fill="#121212">
                    <tspan x="964.26" y="652">긴급상황 발생 시 외부 전문가들의</tspan>
                    <tspan x="969.236" y="680">신속한 도움을 받을 수 있습니다.</tspan>
                </text>
        <g transform="translate(120 442)">
            <rect fill="#F7F8F9" width="128" height="128" rx="64"/>
            <g fill-rule="nonzero">
                <path d="M94.833 27h-59.2a6.174 6.174 0 0 0-6.166 6.167v46.285A13.633 13.633 0 0 0 27 87.28C27 94.844 33.156 101 40.72 101c7.099 0 12.953-5.417 13.651-12.333h12.096V93.6a4.938 4.938 0 0 0 4.933 4.933 4.938 4.938 0 0 0 4.933-4.933v-4.933h18.5c3.4 0 6.167-2.767 6.167-6.167V33.167c0-3.4-2.766-6.167-6.167-6.167zM51.97 87.42v.003c-.08 6.139-5.09 11.11-11.248 11.11-6.206 0-11.254-5.048-11.254-11.254 0-2.53.85-4.86 2.263-6.741.238-.317.49-.618.756-.904.034-.037.068-.077.103-.114.268-.282.55-.549.843-.799.032-.027.06-.057.091-.084.305-.256.624-.492.951-.713.147-.098.302-.183.454-.276.182-.11.364-.22.552-.32.185-.098.377-.187.568-.274.082-.039.165-.072.249-.108.285-.122.573-.235.864-.334.11-.037.221-.067.332-.1.264-.08.53-.155.798-.216h.003c.19-.043.386-.071.58-.103.176-.03.35-.063.527-.084.027-.004.054-.01.082-.012.408-.045.82-.072 1.238-.072a11.33 11.33 0 0 1 1.89.171c.427.073.85.167 1.261.287.063.018.128.03.191.049.436.134.855.306 1.268.492a11.133 11.133 0 0 1 1.328.713 10.913 10.913 0 0 1 1.825 1.415c.239.228.467.466.685.715.127.144.252.29.371.44a11.206 11.206 0 0 1 .907 1.335c.244.421.471.854.662 1.313a11.21 11.21 0 0 1 .867 4.314l-.007.15zm14.498-1.22H54.4c-.005-.056-.016-.11-.021-.165-.019-.205-.05-.406-.077-.608-.033-.245-.065-.489-.11-.728-.039-.2-.087-.395-.134-.592-.03-.123-.053-.25-.085-.374h12.494V86.2zm0-4.933H53.054a.135.135 0 0 0-.01-.019l-.01-.02c-.058-.117-.122-.227-.18-.341-.042-.078-.082-.157-.125-.233-.087-.157-.174-.311-.266-.463l-.081-.13c-.205-.331-.42-.652-.65-.961l-.004-.006a13.651 13.651 0 0 0-5.656-4.45l-.042-.016c-.053-.023-.106-.044-.16-.066l-.092-.038a13.653 13.653 0 0 0-.9-.32c-.042-.013-.082-.028-.125-.04-.405-.123-.814-.23-1.233-.317-.033-.007-.066-.012-.1-.02-.08-.016-.162-.027-.244-.042-.29-.052-.583-.096-.879-.13-.07-.008-.138-.021-.208-.028-.056-.006-.113-.006-.168-.01a13.841 13.841 0 0 0-1.201-.059c-.448 0-.89.026-1.329.068-.114.011-.227.031-.34.045-.04.004-.078.01-.117.016-.093.012-.185.022-.278.037-.196.03-.39.06-.584.098-.11.021-.217.048-.326.073-.296.065-.59.137-.88.22V61.534h11.1c.488 0 .93-.287 1.128-.732l3.806-8.565 1.294 2.912c-.04.486-.06.972-.06 1.452a17.341 17.341 0 0 0 .129 2.026 17 17 0 0 0 .166 1.092c.029.156.05.316.084.471a16.211 16.211 0 0 0 .567 2.002c.073.21.15.419.23.626.1.258.2.516.312.767.065.148.14.291.21.437.235.488.49.963.767 1.426.065.108.123.22.19.328l.007-.004a17.347 17.347 0 0 0 8.437 6.939v2.39c0 1.089.483 2.06 1.234 2.738v3.429zm22.002-22.2c.116-.808.198-1.627.198-2.467 0-9.521-7.746-17.267-17.267-17.267-7.575 0-14.01 4.91-16.332 11.708l-1.04-2.342a1.235 1.235 0 0 0-2.255 0l-4.608 10.368H36.867V34.4H93.6v24.667h-5.13zm5.131 2.466v19.734H76.333v-3.429a3.679 3.679 0 0 0 1.234-2.738v-2.391a17.335 17.335 0 0 0 7.109-5.084l.006.005c.423-.51.806-1.05 1.169-1.607a17.19 17.19 0 0 0 2.09-4.49H93.6zM73.867 82.5v11.1a2.47 2.47 0 0 1-2.467 2.467 2.47 2.47 0 0 1-2.467-2.467V78.8h4.934v3.7zm.56-6.318c-.056.03-.111.051-.167.071-.126.043-.254.08-.393.08h-4.934c-.139 0-.267-.037-.393-.08a1.223 1.223 0 0 1-.84-1.153v-1.638c.019.004.037.005.055.009.525.113 1.059.198 1.599.262.07.01.138.025.208.033.605.064 1.216.1 1.838.1.622 0 1.233-.036 1.838-.1.07-.008.139-.024.21-.033a17.04 17.04 0 0 0 1.597-.262c.018-.004.037-.005.055-.009V75.1c0 .475-.279.876-.673 1.082zm1.5-5.496c-.204.065-.413.117-.619.174-.217.059-.435.12-.656.169-.21.048-.424.087-.636.126-.237.041-.476.078-.717.11-.197.025-.393.051-.59.068a14.692 14.692 0 0 1-1.566.053 14.655 14.655 0 0 1-1.047-.053c-.197-.017-.394-.044-.59-.069a15.192 15.192 0 0 1-1.353-.235c-.222-.05-.44-.11-.657-.17-.207-.056-.414-.108-.619-.173a14.845 14.845 0 0 1-8.114-6.43 14.839 14.839 0 0 1-.796-1.493c-.025-.053-.052-.104-.076-.157-.105-.234-.197-.473-.29-.711a15.48 15.48 0 0 1-.173-.474 13.687 13.687 0 0 1-.495-1.74c-.03-.14-.05-.281-.075-.422a14.988 14.988 0 0 1-.185-1.34A12.983 12.983 0 0 1 56.6 56.6c0-.503.027-1.015.079-1.523C57.444 47.629 63.753 41.8 71.4 41.8c8.161 0 14.8 6.639 14.8 14.8a15.09 15.09 0 0 1-.877 4.972l-.063.171a15 15 0 0 1-.557 1.304c-.045.092-.088.186-.135.277-.19.376-.403.738-.625 1.095-.073.117-.138.238-.215.353a14.834 14.834 0 0 1-7.8 5.914zM98.534 82.5c0 2.04-1.66 3.7-3.7 3.7h-18.5v-2.467h18.5c.681 0 1.234-.552 1.234-1.233V33.167c0-.681-.553-1.234-1.234-1.234h-59.2c-.68 0-1.233.553-1.233 1.234v41.942l-.134.07-.116.06a13.19 13.19 0 0 0-1.034.63l-.079.05c-.33.224-.65.464-.96.718-.03.024-.062.045-.092.07-.016.014-.034.026-.052.04v-43.58c0-2.04 1.66-3.7 3.7-3.7h59.2c2.04 0 3.7 1.66 3.7 3.7V82.5z" fill="#121212"/>
                <path d="M70.004 53.096a1.492 1.492 0 0 1 2.887.523h2.98c0-1.94-1.25-3.58-2.98-4.196v-1.765H69.91v1.765c-1.73.617-2.98 2.256-2.98 4.196 0 .395.156.775.436 1.054l5.43 5.43a1.492 1.492 0 0 1-2.887-.523h-2.98c0 1.94 1.25 3.58 2.98 4.197v1.765h2.981v-1.765c1.73-.617 2.98-2.256 2.98-4.196 0-.395-.156-.775-.436-1.054l-5.43-5.43z" fill="#0A51B7"/>
                <path d="M40.567 87.433v-7.4H38.1v8.634c0 .68.553 1.233 1.233 1.233h8.634v-2.467h-7.4z" fill="#121212"/>
            </g>
        </g>
        <g transform="translate(564 442)">
            <rect fill="#F7F8F9" width="128" height="128" rx="64"/>
            <g fill-rule="nonzero">
                <path d="M97.686 88.961a4.908 4.908 0 0 0 .847-2.761 4.938 4.938 0 0 0-4.933-4.933 4.938 4.938 0 0 0-4.933 4.933c0 1.022.313 1.973.847 2.761a4.923 4.923 0 0 0-3.02 3.02 4.898 4.898 0 0 0-1.143-.553 4.9 4.9 0 0 0 .849-2.761 4.938 4.938 0 0 0-4.933-4.934 4.938 4.938 0 0 0-4.934 4.934c0 1.022.314 1.973.848 2.761a4.922 4.922 0 0 0-1.144.553 4.923 4.923 0 0 0-3.019-3.02 4.9 4.9 0 0 0 .849-2.761 4.938 4.938 0 0 0-4.934-4.933A4.938 4.938 0 0 0 64 86.2c0 1.022.313 1.973.847 2.761-1.922.675-3.314 2.488-3.314 4.639v3.7c0 .682.552 1.233 1.234 1.233h11.1v1.234c0 .682.551 1.233 1.233 1.233h12.333c.682 0 1.234-.551 1.234-1.233v-1.234h11.1c.682 0 1.233-.551 1.233-1.233v-3.7c0-2.15-1.391-3.964-3.314-4.639zm-28.753-5.228A2.47 2.47 0 0 1 71.4 86.2a2.47 2.47 0 0 1-2.467 2.467 2.47 2.47 0 0 1-2.466-2.467 2.47 2.47 0 0 1 2.466-2.467zm4.934 12.334H64V93.6a2.47 2.47 0 0 1 2.467-2.467H71.4a2.47 2.47 0 0 1 2.467 2.467v2.467zm7.4-9.867a2.47 2.47 0 0 1 2.466 2.467 2.47 2.47 0 0 1-2.466 2.466 2.47 2.47 0 0 1-2.467-2.466 2.47 2.47 0 0 1 2.467-2.467zM86.2 97.3v1.233h-9.867v-2.466A2.47 2.47 0 0 1 78.8 93.6h4.933a2.47 2.47 0 0 1 2.467 2.467V97.3zm7.4-13.567a2.47 2.47 0 0 1 2.467 2.467 2.47 2.47 0 0 1-2.467 2.467 2.47 2.47 0 0 1-2.467-2.467 2.47 2.47 0 0 1 2.467-2.467zm4.933 12.334h-9.866V93.6a2.47 2.47 0 0 1 2.466-2.467h4.934a2.47 2.47 0 0 1 2.466 2.467v2.467zM64.872 66.828l-6.167-6.167a1.228 1.228 0 0 0-.872-.361h-6.166v-6.167c0-.682-.552-1.233-1.234-1.233h-22.2c-.682 0-1.233.551-1.233 1.233V78.8c0 .682.551 1.233 1.233 1.233h3.875c.552 2.123 2.466 3.7 4.759 3.7 2.292 0 4.207-1.577 4.758-3.7h10.217c.551 2.123 2.465 3.7 4.758 3.7s4.207-1.577 4.758-3.7H64c.682 0 1.233-.551 1.233-1.233V67.7c0-.328-.13-.641-.361-.872zM29.467 55.367H49.2v13.566H29.467V55.367zm7.4 25.9A2.47 2.47 0 0 1 34.4 78.8a2.47 2.47 0 0 1 2.467-2.467 2.47 2.47 0 0 1 2.466 2.467 2.47 2.47 0 0 1-2.466 2.467zm19.733 0a2.47 2.47 0 0 1-2.467-2.467 2.47 2.47 0 0 1 2.467-2.467 2.47 2.47 0 0 1 2.467 2.467 2.47 2.47 0 0 1-2.467 2.467zm6.167-3.7h-1.39c-.043-.168-.11-.326-.17-.487-.03-.08-.05-.16-.083-.239a4.937 4.937 0 0 0-.42-.774c-.036-.054-.082-.101-.122-.154a4.852 4.852 0 0 0-.436-.53c-.073-.075-.152-.14-.228-.21a4.265 4.265 0 0 0-.724-.551 5.02 5.02 0 0 0-.495-.27c-.101-.048-.2-.096-.307-.138a4.92 4.92 0 0 0-.583-.18c-.097-.026-.188-.056-.285-.075a4.95 4.95 0 0 0-.924-.092 4.87 4.87 0 0 0-.925.093c-.097.019-.19.051-.285.074-.2.051-.395.108-.583.182-.105.042-.205.09-.307.138a4.904 4.904 0 0 0-1.219.82c-.076.07-.155.136-.228.21-.16.166-.302.344-.437.53-.038.053-.084.1-.12.154a4.89 4.89 0 0 0-.421.775c-.033.076-.053.159-.083.238-.06.16-.127.318-.17.487h-10.18c-.043-.168-.11-.326-.17-.487-.03-.08-.05-.16-.083-.238a4.937 4.937 0 0 0-.42-.775c-.036-.054-.082-.101-.121-.154a4.852 4.852 0 0 0-.437-.53c-.073-.074-.151-.14-.228-.21a4.265 4.265 0 0 0-.724-.551 5.02 5.02 0 0 0-.494-.27c-.102-.047-.201-.095-.308-.137a4.92 4.92 0 0 0-.583-.182c-.096-.024-.187-.055-.285-.074a4.825 4.825 0 0 0-.922-.093 4.87 4.87 0 0 0-.925.093c-.098.019-.19.051-.285.074-.2.051-.395.108-.584.182-.104.042-.204.09-.307.138a4.904 4.904 0 0 0-1.218.82c-.077.07-.156.136-.228.21-.16.166-.303.344-.437.53-.038.053-.084.1-.12.154a4.89 4.89 0 0 0-.421.775c-.034.076-.053.159-.083.238-.06.16-.126.318-.169.486h-2.623V71.4h20.966c.682 0 1.234-.551 1.234-1.233v-7.4h5.656l5.444 5.444v9.356zM99.767 27h-7.4c-.682 0-1.234.551-1.234 1.233V42.35l-7.4 4.625v-3.942a1.234 1.234 0 0 0-1.888-1.046l-7.978 4.988v-3.942a1.234 1.234 0 0 0-1.889-1.046l-9.866 6.167c-.36.226-.579.62-.579 1.046v9.867c0 .682.552 1.233 1.234 1.233h37c.682 0 1.233-.551 1.233-1.233V28.233c0-.682-.551-1.233-1.233-1.233zM71.4 49.2v8.633H64v-7.948l7.4-4.625v3.94zm9.867 0v8.633h-7.4v-7.948l7.4-4.625v3.94zm9.866-2.467v11.1h-7.4v-7.948l7.4-4.625v1.473zm7.4 11.1H93.6v-9.866h4.933v9.866zm0-12.333H93.6V29.467h4.933V45.5z" fill="#121212"/>
                <path fill="#121212" d="M76.333 51.667H78.8v3.7h-2.467zM86.2 51.667h2.467v3.7H86.2zM66.467 51.667h2.467v3.7h-2.467z"/>
                <path d="M93.224 67.485c-.124.78-.281 1.562-.468 2.32l2.397.586c.2-.824.371-1.67.507-2.513l-2.436-.393zM93.6 62.767c0 .794-.03 1.59-.094 2.365l2.46.198c.067-.842.1-1.705.1-2.563H93.6zM90.261 76.437a28.547 28.547 0 0 1-1.177 2.053l2.088 1.313c.455-.724.885-1.472 1.276-2.226l-2.187-1.14zM92.104 72.08c-.248.747-.53 1.492-.835 2.216l2.272.96c.332-.783.636-1.59.904-2.4l-2.341-.775zM42.967 39.795a33.127 33.127 0 0 0-1.865 1.757l1.761 1.727a29.912 29.912 0 0 1 1.724-1.625l-1.62-1.86zM74.22 33.597l-.785 2.338c.742.248 1.485.533 2.21.844l.973-2.267a32.536 32.536 0 0 0-2.397-.915zM47.091 36.748a32.62 32.62 0 0 0-2.124 1.44l1.467 1.985c.635-.47 1.293-.917 1.957-1.33l-1.3-2.095zM36.42 47.634a31.9 31.9 0 0 0-1.223 2.255l2.214 1.09c.352-.717.732-1.418 1.127-2.081l-2.118-1.264zM39.381 43.453a32.191 32.191 0 0 0-1.565 2.031l2.014 1.426c.45-.638.936-1.268 1.445-1.877l-1.894-1.58zM64.14 31.933l-.01 2.467c.793.004 1.588.038 2.365.104l.207-2.457a31.998 31.998 0 0 0-2.563-.114zM69.247 32.361l-.402 2.434c.783.13 1.562.29 2.317.48l.597-2.394c-.82-.205-1.665-.38-2.512-.52zM78.933 35.616 77.781 37.8c.692.364 1.382.764 2.05 1.188l1.32-2.083a32.025 32.025 0 0 0-2.218-1.288zM61.578 32.022c-.855.066-1.712.164-2.546.292l.379 2.439c.772-.121 1.564-.211 2.353-.272l-.186-2.459zM51.642 34.401c-.783.328-1.565.693-2.324 1.084l1.13 2.192a29.86 29.86 0 0 1 2.145-.999l-.951-2.277zM56.516 32.811c-.825.197-1.656.432-2.47.697l.766 2.344c.75-.245 1.515-.462 2.275-.643l-.57-2.398zM52.74 91.714l-.87 2.308c.798.3 1.618.573 2.437.806l.68-2.37a30.507 30.507 0 0 1-2.247-.744zM48.464 89.695l-1.229 2.139c.743.425 1.507.824 2.275 1.186l1.053-2.23a29.483 29.483 0 0 1-2.1-1.095zM57.287 93.018l-.487 2.418c.838.17 1.69.306 2.532.407l.293-2.449a29.451 29.451 0 0 1-2.338-.376zM41.47 84.128l-1.809 1.676c.457.493.932.973 1.419 1.438l1.7-1.787a30.21 30.21 0 0 1-1.31-1.327zM44.56 87.018l-1.551 1.918c.667.54 1.358 1.055 2.054 1.533l1.395-2.033a31.092 31.092 0 0 1-1.898-1.418z" fill="#0A51B7"/>
            </g>
        </g>
        <g transform="translate(1008 442)">
            <rect fill="#F7F8F9" width="128" height="128" rx="64"/>
            <g fill-rule="nonzero">
                <path d="M70.167 27h-37A6.174 6.174 0 0 0 27 33.167v24.666c0 3.4 2.766 6.167 6.167 6.167H45.02l-1.644 4.933h-4.044V71.4h22.2v-2.467H57.49L55.845 64h14.322c3.4 0 6.166-2.766 6.166-6.167V33.167c0-3.4-2.766-6.167-6.166-6.167zm-24.19 41.933L47.621 64h5.623l1.645 4.933h-8.912zm27.89-11.1c0 2.04-1.66 3.7-3.7 3.7h-37c-2.04 0-3.7-1.66-3.7-3.7V56.6h44.4v1.233zm0-3.7h-44.4V33.167c0-2.04 1.66-3.7 3.7-3.7h37c2.04 0 3.7 1.66 3.7 3.7v20.966z" fill="#121212"/>
                <path d="m39.74 43.638 1.654 1.829c4.984-4.51 13.095-4.51 18.078 0l1.656-1.83c-5.897-5.334-15.492-5.334-21.389 0z" fill="#0A51B7"/>
                <path d="m36.054 38.692 1.627 1.855c7.03-6.17 18.474-6.17 25.506 0l1.627-1.855c-7.93-6.956-20.831-6.956-28.76 0zM42.261 48.525l1.546 1.923c3.654-2.938 9.6-2.938 13.254 0l1.546-1.923c-4.507-3.623-11.84-3.623-16.346 0z" fill="#0A51B7"/>
                <path d="M91.354 81.373a9.842 9.842 0 0 0 3.48-7.506c0-5.44-4.427-9.867-9.867-9.867-5.44 0-9.867 4.426-9.867 9.867a9.842 9.842 0 0 0 3.48 7.506c-5.435.716-9.647 5.367-9.647 10.994v7.4c0 .68.553 1.233 1.234 1.233h29.6c.68 0 1.233-.553 1.233-1.233v-7.4c0-5.627-4.212-10.278-9.646-10.994zm-13.787-7.506c0-4.081 3.319-7.4 7.4-7.4 4.08 0 7.4 3.319 7.4 7.4 0 4.08-3.32 7.4-7.4 7.4-4.081 0-7.4-3.32-7.4-7.4zm20.966 24.666H71.4v-6.166c0-4.761 3.873-8.634 8.633-8.634H89.9c4.76 0 8.633 3.873 8.633 8.634v6.166zM78.8 41.8h2.467v2.467H78.8zM83.733 41.8H86.2v2.467h-2.467zM88.667 41.8h2.467v2.467h-2.467zM93.6 41.8h2.467v2.467H93.6zM93.6 46.733h2.467V49.2H93.6zM93.6 51.667h2.467v2.467H93.6zM93.6 56.6h2.467v2.467H93.6zM93.6 61.533h2.467V64H93.6zM49.2 73.867h2.467v2.467H49.2zM49.2 78.8h2.467v2.467H49.2zM49.2 83.733h2.467V86.2H49.2zM49.2 88.667h2.467v2.467H49.2zM49.2 93.6h2.467v2.467H49.2zM54.133 93.6H56.6v2.467h-2.467zM59.067 93.6h2.467v2.467h-2.467zM64 93.6h2.467v2.467H64z" fill="#121212"/>
            </g>
        </g>
    </g>
</svg>
