<svg xmlns="http://www.w3.org/2000/svg" xmlns:xlink="http://www.w3.org/1999/xlink" width="260" height="60" viewBox="0 0 260 60">
    <defs>
        <path id="6jghep9uqa" d="M0.037 0.35L23.923 0.35 23.923 26.271 0.037 26.271z"/>
        <path id="pw0u9f6zbc" d="M0 0L45.036 0 45.036 22.327 0 22.327z"/>
    </defs>
    <g fill="none" fill-rule="evenodd">
        <g>
            <g>
                <g>
                    <path fill="#273A5B" d="M83.958 27.488L72.063 8.476 71.971 8.332 67.03 8.332 67.03 43.64 72.11 43.64 72.11 22.73 71.944 17.742 82.386 34.289 82.479 34.434 85.437 34.434 95.972 17.744 95.806 22.74 95.806 43.64 100.886 43.64 100.886 8.332 95.945 8.332z" transform="translate(-830 -1037) translate(830 1037) translate(42 4)"/>
                    <g>
                        <path fill="#273A5B" d="M122.31 33.153c-.04 1.713-.747 3.23-2.104 4.514-1.404 1.325-3.018 1.998-4.8 1.998-1.248 0-2.348-.37-3.27-1.097-.915-.718-1.359-1.588-1.359-2.661 0-1.196.552-2.174 1.688-2.994 1.151-.828 2.614-1.248 4.346-1.248 2.332 0 4.181.502 5.5 1.488m-6.265-14.803c-3.694 0-7.003 1.615-9.566 4.675l-.184.219 3.556 3.557.218-.271c1.072-1.34 3.281-3.585 6.034-3.585 1.881 0 3.261.478 4.474 1.546 1.167 1.029 1.734 2.244 1.734 3.715v.498c-1.68-.828-3.772-1.247-6.228-1.247-3.156 0-5.723.755-7.628 2.245-1.928 1.51-2.905 3.564-2.905 6.107 0 2.409.924 4.445 2.746 6.05 1.81 1.594 4.088 2.4 6.77 2.4 2.96 0 5.392-1.235 7.245-3.678v3.067h4.888V28.545c0-3.143-.996-5.66-2.96-7.474-1.929-1.78-4.763-2.721-8.194-2.721M152.933 19.922L152.933 19.287 146.774 19.287 136.947 29.253 136.947 8.339 136.326 8.339 131.865 12.193 131.865 43.647 136.947 43.647 136.947 35.861 140.218 32.635 147.512 43.647 153.369 43.647 153.369 43.046 143.773 29.034z" transform="translate(-830 -1037) translate(830 1037) translate(42 4)"/>
                        <g transform="translate(-830 -1037) translate(830 1037) translate(42 4) translate(153 18)">
                            <mask id="xdjg7fo67b" fill="#fff">
                                <use xlink:href="#6jghep9uqa"/>
                            </mask>
                            <path fill="#273A5B" d="M5.64 10.323c.422-1.62 1.18-2.928 2.205-3.802h.001c1.147-.981 2.538-1.478 4.134-1.478 1.947 0 3.515.52 4.663 1.546 1.025.917 1.684 2.232 1.874 3.734H5.64zm18.283 3.51c0-4.228-1.109-7.673-3.207-9.965C18.58 1.534 15.674.35 12.077.35c-3.5 0-6.416 1.247-8.664 3.71C1.205 6.482.037 9.746.037 13.493c0 3.646 1.138 6.62 3.478 9.095 2.312 2.444 5.291 3.683 8.853 3.683 2.435 0 4.65-.585 6.581-1.742 1.546-.925 3.02-2.331 4.042-3.862l.148-.222-3.639-3.36-.203.305c-1.713 2.58-4.106 4.002-6.736 4.002-2.162 0-3.787-.591-5.114-1.861-1.408-1.347-2.099-2.867-2.217-4.901h18.614l.08-.797z" mask="url(#xdjg7fo67b)"/>
                        </g>
                        <path fill="#6FB6FB" d="M3.67 27.553L0.001 29.672 0.027 38.974 22.52 25.999 14.441 21.335z" transform="translate(-830 -1037) translate(830 1037) translate(42 4)"/>
                        <path fill="#6FB6FB" d="M45.034 29.672L41.363 27.553 30.596 21.336 22.519 25.999 45.036 38.999z" transform="translate(-830 -1037) translate(830 1037) translate(42 4)"/>
                        <path fill="#BFDCFF" d="M45.036 29.671L45.036 39 22.519 51.999 22.519 42.671 26.19 40.552z" transform="translate(-830 -1037) translate(830 1037) translate(42 4)"/>
                        <path fill="#007CF7" d="M0.003 29.671L0.003 39 22.52 51.999 22.52 42.671 18.85 40.552z" transform="translate(-830 -1037) translate(830 1037) translate(42 4)"/>
                        <g transform="translate(-830 -1037) translate(830 1037) translate(42 4)">
                            <mask id="bx8tn2ng2d" fill="#fff">
                                <use xlink:href="#pw0u9f6zbc"/>
                            </mask>
                            <path fill="#6FB6FB" d="M41.363 10.881L22.517 -0.001 3.67 10.881 0 13 0.027 22.302 22.53 9.319 45.036 22.327 45.034 13z" mask="url(#bx8tn2ng2d)"/>
                        </g>
                        <path fill="#BFDCFF" d="M45.036 12.999L45.036 22.328 22.519 35.328 22.519 26 26.19 23.881z" transform="translate(-830 -1037) translate(830 1037) translate(42 4)"/>
                        <path fill="#007CF7" d="M0.003 12.999L0.003 22.328 22.52 35.328 22.52 26 18.85 23.881z" transform="translate(-830 -1037) translate(830 1037) translate(42 4)"/>
                    </g>
                </g>
                <path d="M0 0H260V60H0z" transform="translate(-830 -1037) translate(830 1037)"/>
            </g>
        </g>
    </g>
</svg>
