<svg xmlns="http://www.w3.org/2000/svg" xmlns:xlink="http://www.w3.org/1999/xlink" width="500" height="60" viewBox="0 0 500 60">
    <defs>
        <path id="0cd9xlfd8a" d="M0.123 0.442L25.211 0.442 25.211 31.307 0.123 31.307z"/>
        <path id="8e81ijozbc" d="M0.312 0.135L29.484 0.135 29.484 33.435 0.312 33.435z"/>
    </defs>
    <g fill="none" fill-rule="evenodd">
        <g>
            <g>
                <g>
                    <path d="M0 0H197V45H0z" transform="translate(-710 -1037) translate(710 1037) translate(17 7)"/>
                    <g>
                        <path fill="#092E6E" d="M27.45 1.674l-4.957-.005-7.56 20.774L7.35 1.669H0l11.234 30.865h7.355L29.01 3.914c.401-1.087-.402-2.24-1.56-2.24M70.585 17.386c.633-1.42.986-3.005.986-4.678 0-1.672-.353-3.257-.986-4.678C68.914 4.272 64.804 1.67 60.6 1.67h.138-14.222v30.866h7.354V8.03h5.911c2.454.001 4.442 2.096 4.442 4.678 0 2.584-1.99 4.678-4.443 4.678h-5.054c-.243 0-.44.198-.44.441 0 .089.033.167.078.236l-.002.013 7.746 10.85 2.602 3.609H72.676L65.204 22.7c2.212-1.097 4.345-2.982 5.382-5.314M38.496 1.662h-5.614v30.866h7.355V3.403c0-.962-.78-1.74-1.74-1.74" transform="translate(-710 -1037) translate(710 1037) translate(17 7) translate(3 6)"/>
                        <g transform="translate(-710 -1037) translate(710 1037) translate(17 7) translate(3 6) translate(164.917 1.22)">
                            <mask id="ia6j5rmaab" fill="#fff">
                                <use xlink:href="#0cd9xlfd8a"/>
                            </mask>
                            <path fill="#092E6E" d="M25.211 6.891h-8.867v24.416H8.99V6.891H.123v.098V.442h23.348c.96 0 1.74.78 1.74 1.74V6.891z" mask="url(#ia6j5rmaab)"/>
                        </g>
                        <path fill="#092E6E" d="M100.394 1.662h-5.59v17.205L82.344 1.662H76.61v30.866h7.356V16.026l11.737 16.502h6.43V3.403c0-.961-.779-1.74-1.74-1.74M115.252 20.27h13.615v-6.35h-13.615V8.044h15.504V7.63v.413-4.641c0-.961-.779-1.74-1.74-1.74H107.898v30.865h23.644v-6.379h-16.29V20.27z" transform="translate(-710 -1037) translate(710 1037) translate(17 7) translate(3 6)"/>
                        <g transform="translate(-710 -1037) translate(710 1037) translate(17 7) translate(3 6) translate(133.741 .317)">
                            <mask id="9ja1ryg0ud" fill="#fff">
                                <use xlink:href="#8e81ijozbc"/>
                            </mask>
                            <path fill="#092E6E" d="M24.794 22.01c-.209.278-.428.546-.657.805-.955 1.16-1.71 1.636-1.71 1.636-1.66 1.207-3.756 1.834-5.76 1.834-4.976 0-9.024-4.262-9.024-9.5s4.048-9.499 9.025-9.499c2.262 0 4.43.905 6.078 2.484.001.001.796.734 1.663 1.881l3.45-3.626c.602-.633.657-1.627.093-2.294C24.966 2.201 20.656.135 16.13.135 7.408.135.312 7.605.312 16.785c0 9.181 7.096 16.65 15.818 16.65 5.023 0 10.377-2.242 13.354-6.51l-4.69-4.915z" mask="url(#9ja1ryg0ud)"/>
                        </g>
                    </g>
                </g>
                <g stroke="#222">
                    <path d="M1 0L23.753 22.753M23.936 0L1.183 22.753" transform="translate(-710 -1037) translate(710 1037) translate(238 18)"/>
                </g>
                <g>
                    <path d="M0 0H197V45H0z" transform="translate(-710 -1037) translate(710 1037) translate(286 7)"/>
                    <g fill-rule="nonzero">
                        <path fill="#737373" d="M66.515 22.819L65.4 26.038h-.093c-.186-.726-.527-1.83-1.085-3.156L58.239 7.576h-5.858v24.395h3.875V16.917c0-.946 0-2.02-.031-3.345-.031-.662-.093-1.167-.124-1.546h.093c.186.947.402 1.64.557 2.083l7.192 17.799h2.727L73.8 13.95c.155-.41.31-1.23.465-1.925h.093c-.093 1.799-.155 3.408-.186 4.387v15.463h4.122V7.513h-5.641L66.515 22.82zM82.2 14.393h4.03v17.483H82.2V14.393zm2.045-7.385c-.681 0-1.24.253-1.704.694-.465.442-.713 1.01-.713 1.705 0 .662.248 1.23.713 1.672.465.442 1.023.663 1.704.663.682 0 1.271-.253 1.705-.663.465-.442.713-1.01.713-1.672 0-.663-.248-1.231-.713-1.705-.403-.441-.992-.694-1.705-.694m16.274 7.227c-.744-.158-1.52-.252-2.263-.252-1.829 0-3.503.41-4.898 1.23-1.394.82-2.51 1.957-3.223 3.377-.744 1.452-1.116 3.124-1.116 5.05 0 1.672.372 3.155 1.085 4.512.713 1.326 1.705 2.399 3.037 3.124 1.271.726 2.76 1.105 4.433 1.105 1.922 0 3.565-.41 4.866-1.168l.031-.031v-3.787l-.155.126c-.588.442-1.27.82-1.952 1.041-.713.253-1.364.38-1.922.38-1.612 0-2.883-.474-3.782-1.516-.93-1.01-1.395-2.398-1.395-4.134 0-1.799.465-3.219 1.426-4.26.961-1.042 2.232-1.578 3.782-1.578 1.302 0 2.635.442 3.843 1.325l.155.127v-4.008l-.03-.032c-.528-.22-1.116-.473-1.922-.631m13.297-.126c-.992 0-1.922.315-2.728.978-.681.568-1.146 1.389-1.55 2.367h-.03v-3.061h-4.03v17.483h4.03v-8.93c0-1.516.31-2.778.992-3.693.681-.947 1.55-1.42 2.603-1.42.372 0 .744.094 1.21.157.433.127.743.253.96.41l.155.127v-4.103l-.093-.031c-.279-.19-.837-.284-1.519-.284m10.973-.095c-2.82 0-5.083.852-6.664 2.525-1.612 1.672-2.387 3.976-2.387 6.88 0 2.713.806 4.923 2.356 6.532 1.55 1.578 3.657 2.398 6.292 2.398 2.759 0 4.96-.852 6.54-2.556 1.612-1.704 2.387-3.976 2.387-6.785 0-2.777-.744-4.986-2.263-6.595-1.457-1.61-3.595-2.399-6.261-2.399m3.224 13.444c-.744.978-1.922 1.452-3.379 1.452s-2.635-.474-3.472-1.515c-.837-.979-1.24-2.399-1.24-4.197 0-1.862.434-3.283 1.24-4.292.837-1.01 1.984-1.515 3.441-1.515 1.426 0 2.542.473 3.348 1.451.806.979 1.24 2.399 1.24 4.26-.063 1.894-.403 3.378-1.178 4.356m14.289-5.807c-1.27-.536-2.077-.947-2.449-1.294-.31-.315-.465-.757-.465-1.325 0-.474.186-.947.651-1.262.465-.316.992-.474 1.767-.474.682 0 1.395.126 2.077.316.682.19 1.302.473 1.798.852l.155.126v-3.85l-.093-.032c-.465-.189-1.085-.378-1.83-.536-.743-.126-1.425-.19-1.983-.19-1.922 0-3.503.474-4.742 1.515-1.24.979-1.83 2.304-1.83 3.85 0 .82.125 1.547.404 2.146.279.6.682 1.168 1.24 1.641.558.442 1.363.947 2.48 1.42.93.41 1.642.726 2.076.979.434.252.713.536.93.757.155.253.248.568.248.979 0 1.167-.868 1.735-2.635 1.735-.682 0-1.395-.126-2.231-.41-.837-.284-1.612-.694-2.263-1.168l-.155-.126v4.008l.093.032c.589.284 1.302.473 2.17.694.867.158 1.642.284 2.324.284 2.077 0 3.782-.474 4.99-1.515 1.24-1.01 1.892-2.304 1.892-3.976 0-1.168-.31-2.21-.992-2.998-.9-.758-2.015-1.547-3.627-2.178m15.25-7.637c-2.82 0-5.083.852-6.664 2.525-1.58 1.672-2.387 3.976-2.387 6.88 0 2.713.806 4.923 2.356 6.532 1.55 1.578 3.658 2.398 6.292 2.398 2.76 0 4.96-.852 6.54-2.556 1.613-1.704 2.387-3.976 2.387-6.785 0-2.777-.743-4.986-2.262-6.595-1.457-1.61-3.596-2.399-6.262-2.399m3.193 13.444c-.744.978-1.922 1.452-3.379 1.452-1.487 0-2.634-.474-3.471-1.515-.837-.979-1.24-2.399-1.24-4.197 0-1.862.434-3.283 1.24-4.292.837-1.01 1.984-1.515 3.44-1.515 1.395 0 2.542.473 3.348 1.451.806.979 1.24 2.399 1.24 4.26 0 1.894-.403 3.378-1.178 4.356m26.874-9.688v-3.377h-4.06V9.217l-.124.032-3.844 1.167-.093.032v3.945h-6.075v-2.21c0-1.01.248-1.798.682-2.303.433-.505 1.084-.757 1.89-.757.558 0 1.147.126 1.798.41l.155.095V6.06l-.093-.031c-.558-.19-1.302-.316-2.263-.316-1.208 0-2.262.284-3.223.758-.961.536-1.674 1.262-2.201 2.24-.527.947-.806 2.02-.806 3.25v2.43h-2.82v3.346h2.82v14.138h4.06V17.77h6.076v8.994c0 3.692 1.705 5.554 5.114 5.554.558 0 1.147-.095 1.705-.19.59-.126 1.023-.284 1.271-.41l.031-.031V28.31l-.155.126c-.248.158-.465.284-.837.379-.31.095-.589.126-.806.126-.806 0-1.364-.19-1.767-.663-.372-.441-.557-1.167-.557-2.24V17.77h4.122z" transform="translate(-710 -1037) translate(710 1037) translate(286 7) translate(4 3)"/>
                        <path fill="#F25022" d="M0 0L19.048 0 19.048 19.048 0 19.048z" transform="translate(-710 -1037) translate(710 1037) translate(286 7) translate(4 3)"/>
                        <path fill="#7FBA00" d="M20.952 0L40 0 40 19.048 20.952 19.048z" transform="translate(-710 -1037) translate(710 1037) translate(286 7) translate(4 3)"/>
                        <path fill="#00A4EF" d="M0 20.952L19.048 20.952 19.048 40 0 40z" transform="translate(-710 -1037) translate(710 1037) translate(286 7) translate(4 3)"/>
                        <path fill="#FFB900" d="M20.952 20.952L40 20.952 40 40 20.952 40z" transform="translate(-710 -1037) translate(710 1037) translate(286 7) translate(4 3)"/>
                    </g>
                </g>
            </g>
        </g>
    </g>
</svg>
