<svg xmlns="http://www.w3.org/2000/svg" xmlns:xlink="http://www.w3.org/1999/xlink" width="260" height="60" viewBox="0 0 260 60">
    <defs>
        <path id="lyghb432ra" d="M0.089 0.395L23.845 0.395 23.845 26.175 0.089 26.175z"/>
        <path id="6cs7p39csc" d="M0 0.361L41.464 0.361 41.464 40 0 40z"/>
        <path id="cacvjzmuee" d="M0.134 0L34.464 0 34.464 42.089 0.134 42.089z"/>
    </defs>
    <g fill="none" fill-rule="evenodd">
        <g>
            <g>
                <g>
                    <path fill="#273A5B" d="M150.41 18.395c-3.387 0-6.108 1.417-8.098 4.216-.637-1.232-1.569-2.23-2.777-2.967-1.364-.829-2.958-1.249-4.742-1.249-1.43 0-2.883.4-4.32 1.193-1.198.663-2.152 1.475-2.84 2.42v-2.842h-4.863v24.37h5.055V30.032c0-1.88.561-3.533 1.668-4.915 1.105-1.382 2.428-2.053 4.046-2.053 1.79 0 3.072.457 3.81 1.355.752.921 1.135 2.468 1.135 4.601v14.516h5.054V30.032c0-1.88.563-3.533 1.67-4.915 1.104-1.382 2.428-2.053 4.044-2.053 1.79 0 3.072.457 3.81 1.355.754.92 1.136 2.468 1.136 4.601v14.516h5.053v-15.19c0-3.15-.772-5.618-2.295-7.34-1.532-1.733-3.734-2.61-6.546-2.61M179.87 37.243c-1.333 1.42-3.008 2.082-5.27 2.082-2.261 0-3.936-.661-5.267-2.082-1.416-1.508-2.134-3.513-2.134-5.958 0-2.412.718-4.4 2.132-5.908 1.367-1.453 3.042-2.131 5.27-2.131 2.228 0 3.903.678 5.269 2.13 1.416 1.509 2.134 3.497 2.134 5.909 0 2.445-.718 4.45-2.134 5.958m-5.27-18.848c-3.571 0-6.581 1.232-8.946 3.662-2.33 2.424-3.508 5.53-3.508 9.228 0 3.7 1.179 6.806 3.509 9.23 2.364 2.429 5.374 3.662 8.946 3.662 3.573 0 6.568-1.233 8.898-3.66 2.363-2.392 3.559-5.5 3.559-9.232 0-3.698-1.196-6.804-3.556-9.228-2.333-2.43-5.328-3.662-8.901-3.662" transform="translate(-830 -1037) translate(830 1037) translate(16 4)"/>
                    <g transform="translate(-830 -1037) translate(830 1037) translate(16 4) translate(204 18)">
                        <mask id="tsnjmi83wb" fill="#fff">
                            <use xlink:href="#lyghb432ra"/>
                        </mask>
                        <path fill="#273A5B" d="M5.661 10.314c.42-1.611 1.174-2.912 2.192-3.781 1.142-.975 2.527-1.469 4.115-1.469 1.935 0 3.496.517 4.635 1.537 1.02.911 1.675 2.22 1.865 3.713H5.661zm18.185 3.491c0-4.201-1.104-7.629-3.192-9.912C18.531 1.571 15.64.395 12.062.395c-3.48 0-6.38 1.24-8.614 3.69C1.25 6.493.09 9.737.09 13.468c0 3.626 1.131 6.584 3.457 9.044 2.3 2.431 5.262 3.663 8.805 3.663 2.424 0 4.626-.582 6.546-1.73 1.536-.918 3-2.318 4.021-3.84l.147-.223-3.619-3.341-.203.303c-1.702 2.567-4.08 3.981-6.697 3.981-2.152 0-3.769-.589-5.088-1.852-1.4-1.34-2.087-2.852-2.204-4.876h18.513l.08-.792z" mask="url(#tsnjmi83wb)"/>
                    </g>
                    <path fill="#273A5B" d="M101.65 28.314c.42-1.609 1.174-2.912 2.193-3.781h.001c1.14-.975 2.524-1.469 4.112-1.469 1.937 0 3.497.517 4.636 1.537 1.021.911 1.677 2.22 1.865 3.713H101.65zm6.403-9.919c-3.483 0-6.382 1.24-8.617 3.69-2.197 2.409-3.359 5.654-3.359 9.383 0 3.626 1.132 6.584 3.46 9.044 2.297 2.431 5.26 3.663 8.804 3.663 2.423 0 4.625-.582 6.547-1.73 1.535-.918 3.001-2.319 4.02-3.842l.146-.221-3.619-3.341-.202.303c-1.703 2.567-4.082 3.981-6.698 3.981-2.152 0-3.767-.589-5.087-1.852-1.38-1.321-2.087-2.877-2.206-4.876h18.514l.08-.792c0-4.203-1.105-7.631-3.192-9.912-2.124-2.322-5.015-3.498-8.59-3.498zM197.178 12.527h-.589l-4.32 2.74-.144.093v4.214h-4.145v4.669h4.145v12.9c.032 2.199.723 3.946 2.05 5.189 1.26 1.179 2.894 1.79 4.996 1.866.081.003.164.005.25.005 1.062 0 2.552-.206 3.332-.472l.21-.071v-4.888l-.437.193c-.305.136-.592.232-.877.293h-.002c-.485.106-1.428.19-1.774.175-.767-.037-1.346-.273-1.878-.763-.542-.497-.817-1.498-.817-2.976V24.243h5.784v-4.67h-5.784v-7.046zM72.399 26.007V13.29h10.68c3.507 0 6.359 2.853 6.359 6.36 0 3.504-2.852 6.357-6.358 6.357H72.399zm19.775.5c1.532-1.976 2.34-4.349 2.34-6.858 0-2.51-.808-4.883-2.34-6.858-2.142-2.776-5.38-4.367-8.883-4.367H67.317v35.152H72.4V30.871h8.02l9.584 12.575.093.13h6.458L86.497 30.4c2.244-.67 4.247-2.04 5.677-3.894z" transform="translate(-830 -1037) translate(830 1037) translate(16 4)"/>
                    <g transform="translate(-830 -1037) translate(830 1037) translate(16 4) translate(0 12)">
                        <mask id="rljkjbjjsd" fill="#fff">
                            <use xlink:href="#6cs7p39csc"/>
                        </mask>
                        <path fill="#207FF4" d="M17.176 40L41.463 25.957 41.464 17.653 17.176 31.758 17.176 31.768 7.138 25.97 7.138 14.392 24.293 4.488 17.165 0.361 0.001 10.271 0 10.27 0 10.271 0 30.09z" mask="url(#rljkjbjjsd)"/>
                    </g>
                    <path fill="#7DB3F6" d="M48.602 22.28L24.299 8.242 17.165 12.361 34.326 22.292 34.335 22.286 41.463 26.401 41.463 37.953 41.453 37.96 31.429 43.747 14.272 33.788 7.134 37.968 31.426 51.991 48.591 42.081z" transform="translate(-830 -1037) translate(830 1037) translate(16 4)"/>
                    <g transform="translate(-830 -1037) translate(830 1037) translate(16 4) translate(7)">
                        <mask id="wy3v27szif" fill="#fff">
                            <use xlink:href="#cacvjzmuee"/>
                        </mask>
                        <path fill="#C0D8FF" d="M17.299 0L0.134 9.91 0.136 9.911 0.134 9.91 0.134 37.967 7.272 42.089 7.272 14.032 7.271 14.03 7.272 14.031 17.299 8.243 27.325 14.032 27.325 33.799 34.464 29.653 34.464 9.91z" mask="url(#wy3v27szif)"/>
                    </g>
                    <path fill="#207FF4" d="M7.138 26.391L7.138 26.391 24.293 16.488 17.165 12.361 0.001 22.27 0 22.269 0 22.27z" transform="translate(-830 -1037) translate(830 1037) translate(16 4)"/>
                </g>
                <path d="M0 0H260V60H0z" transform="translate(-830 -1037) translate(830 1037)"/>
            </g>
        </g>
    </g>
</svg>
