<svg xmlns="http://www.w3.org/2000/svg" xmlns:xlink="http://www.w3.org/1999/xlink" width="260" height="60" viewBox="0 0 260 60">
    <defs>
        <path id="2kgufgnlua" d="M0.234 0L17.931 0 17.931 21.288 0.234 21.288z"/>
        <path id="a5euwfuvlc" d="M0.083 0.712L17.809 0.712 17.809 22 0.083 22z"/>
    </defs>
    <g fill="none" fill-rule="evenodd">
        <g>
            <g>
                <g>
                    <path fill="#273A5B" d="M100.787 43.319L105.863 43.319 105.863 18.202 100.787 18.202zM100.561 13.567L106.092 13.567 106.092 8.035 100.561 8.035zM166.643 18.976L161.609 36.224 155.971 18.976 150.918 18.976 145.276 36.224 140.262 19.199 140.196 18.976 134.885 18.976 142.666 43.105 142.736 43.321 147.694 43.321 153.325 25.822 159.003 43.321 164.007 43.321 171.858 18.976z" transform="translate(-830 -1037) translate(830 1037) translate(44 4)"/>
                    <g>
                        <path fill="#273A5B" d="M118.26 24.194c1.15-.98 2.543-1.479 4.14-1.479 1.948 0 3.518.522 4.667 1.547 1.027.918 1.686 2.237 1.877 3.74h-12.891c.422-1.622 1.182-2.933 2.207-3.808m4.236-6.177c-3.501 0-6.42 1.25-8.67 3.715-2.212 2.426-3.38 5.69-3.38 9.441 0 3.65 1.137 6.626 3.48 9.103 2.314 2.446 5.296 3.687 8.862 3.687 2.439 0 4.656-.585 6.587-1.743 1.546-.923 3.02-2.333 4.046-3.863l.149-.224-3.642-3.362-.204.305c-1.714 2.584-4.11 4.007-6.742 4.007-2.163 0-3.79-.594-5.121-1.866-1.39-1.33-2.1-2.894-2.22-4.906h18.685l.015-.295c.013-.258.013-.502.013-.502 0-4.23-1.11-7.679-3.21-9.975-2.137-2.338-5.047-3.522-8.648-3.522M80.953 35.862L70.333 8.042 64.726 8.042 78.335 43.119 78.413 43.317 83.485 43.317 97.394 8.468 97.565 8.042 91.956 8.042z" transform="translate(-830 -1037) translate(830 1037) translate(44 4)"/>
                        <g transform="translate(-830 -1037) translate(830 1037) translate(44 4) translate(16)">
                            <mask id="k88g0z5deb" fill="#fff">
                                <use xlink:href="#2kgufgnlua"/>
                            </mask>
                            <path fill="#6FB6FB" d="M17.931 6.589L6.52 0 0.234 3.629 17.893 21.288z" mask="url(#k88g0z5deb)"/>
                        </g>
                        <path fill="#007CF7" d="M33.893 30.707L45.033 19.083 45.033 12.998 33.927 6.586z" transform="translate(-830 -1037) translate(830 1037) translate(44 4)"/>
                        <g transform="translate(-830 -1037) translate(830 1037) translate(44 4) translate(11 30)">
                            <mask id="foefj62fjd" fill="#fff">
                                <use xlink:href="#a5euwfuvlc"/>
                            </mask>
                            <path fill="#0065C7" d="M0.083 15.399L11.516 22 17.809 18.366 0.14 0.712z" mask="url(#foefj62fjd)"/>
                        </g>
                        <path fill="#BFDCFF" d="M0.003 14.623L0.003 12.998 16.233 3.629 27.229 14.623z" transform="translate(-830 -1037) translate(830 1037) translate(44 4)"/>
                        <path fill="#DEEDFF" d="M0.003 14.623L0.003 32.421 17.804 14.623z" transform="translate(-830 -1037) translate(830 1037) translate(44 4)"/>
                        <path fill="#007CF7" d="M11.14 21.288L0 32.421 0 38.998 10.834 45.253 11.131 45.426z" transform="translate(-830 -1037) translate(830 1037) translate(44 4)"/>
                        <path fill="#6FB6FB" d="M45.031 39L28.808 48.366 17.804 37.376 45.032 37.376z" transform="translate(-830 -1037) translate(830 1037) translate(44 4)"/>
                        <path fill="#007CF7" d="M22.416 18.917c-3.854 0-6.978 3.124-6.978 6.978 0 3.853 3.124 6.976 6.978 6.976 3.854 0 6.977-3.123 6.977-6.976 0-3.854-3.123-6.978-6.977-6.978" transform="translate(-830 -1037) translate(830 1037) translate(44 4)"/>
                        <path fill="#FFF" d="M25.936 20.374c-1.106 0-2.001.896-2.001 2.001s.895 2 2.001 2c1.104 0 2-.895 2-2s-.896-2.001-2-2.001" transform="translate(-830 -1037) translate(830 1037) translate(44 4)"/>
                        <path fill="#BFDCFF" d="M27.229 37.376L33.893 30.709 45.033 19.086 45.033 37.376z" transform="translate(-830 -1037) translate(830 1037) translate(44 4)"/>
                    </g>
                </g>
                <path d="M0 0H260V60H0z" transform="translate(-830 -1037) translate(830 1037)"/>
            </g>
        </g>
    </g>
</svg>
