<svg xmlns="http://www.w3.org/2000/svg" xmlns:xlink="http://www.w3.org/1999/xlink" width="260" height="60" viewBox="0 0 260 60">
    <defs>
        <path id="ncx44nbu5a" d="M0.488 0.603L21.923 0.603 21.923 35.796 0.488 35.796z"/>
    </defs>
    <g fill="none" fill-rule="evenodd">
        <g>
            <g>
                <g>
                    <path fill="#B7D4F8" d="M22.522 0L7.509 8.669 15.017 13.001 30.03 4.333z" transform="translate(-830 -1037) translate(830 1037) translate(39 4)"/>
                    <path fill="#6EAEF3" d="M7.509 8.668L7.509 26 15.018 30.333 15.018 13.001z" transform="translate(-830 -1037) translate(830 1037) translate(39 4)"/>
                    <path fill="#1C7CEF" d="M0 13.001L0 30.333 7.509 26 7.509 8.668zM30.03 4.333L30.03 13.001 15.009 21.671 15.018 13.001z" transform="translate(-830 -1037) translate(830 1037) translate(39 4)"/>
                    <path fill="#6EAEF3" d="M30.03 4.333L45.038 13 45.038 21.671 30.03 13.001z" transform="translate(-830 -1037) translate(830 1037) translate(39 4)"/>
                    <path fill="#B7D4F8" d="M22.527 17.335L37.534 26.001 45.038 21.671 30.03 13.001z" transform="translate(-830 -1037) translate(830 1037) translate(39 4)"/>
                    <path fill="#1C7CEF" d="M37.534 26L45.038 21.671 45.038 39 37.534 43.333z" transform="translate(-830 -1037) translate(830 1037) translate(39 4)"/>
                    <path fill="#6EAEF3" d="M37.534 43.333L30.029 39 30.021 21.663 37.534 26z" transform="translate(-830 -1037) translate(830 1037) translate(39 4)"/>
                    <path fill="#B7D4F8" d="M0 30.333L15.017 39 22.522 34.667 7.509 25.999z" transform="translate(-830 -1037) translate(830 1037) translate(39 4)"/>
                    <path fill="#6EAEF3" d="M0 38.999L15.017 47.669 15.017 39.001 0 30.334z" transform="translate(-830 -1037) translate(830 1037) translate(39 4)"/>
                    <path fill="#1C7CEF" d="M15.018 39L15.018 47.667 30.029 39 30.02 30.333z" transform="translate(-830 -1037) translate(830 1037) translate(39 4)"/>
                    <path fill="#B7D4F8" d="M15.017 47.668L22.521 52 37.533 43.333 30.028 39z" transform="translate(-830 -1037) translate(830 1037) translate(39 4)"/>
                    <path fill="#273A5B" d="M94.143 8.261L63.096 8.261 63.096 13.174 76.063 13.174 76.063 43.796 81.174 43.796 81.174 13.174 94.143 13.174z" transform="translate(-830 -1037) translate(830 1037) translate(39 4)"/>
                    <g>
                        <path fill="#273A5B" d="M7.49 12.207c-1.035.653-1.827 1.416-2.37 2.273v-2.982H.13v24.297h5.18V22.446c0-1.687.588-3.184 1.75-4.45 1.168-1.274 2.498-1.894 4.066-1.894 1.13 0 1.953.104 2.45.308l.381.157v-5.5c-.66-.143-1.366-.24-2.159-.24-1.409 0-2.859.464-4.31 1.38M30.25 29.832c-1.398 1.32-3.007 1.992-4.783 1.992-1.243 0-2.34-.37-3.26-1.094-.912-.718-1.354-1.585-1.354-2.653 0-1.192.549-2.17 1.682-2.983 1.147-.827 2.604-1.246 4.33-1.246 2.323 0 4.167.499 5.483 1.483-.038 1.728-.725 3.2-2.097 4.5m-4.147-19.254c-3.682 0-6.98 1.61-9.535 4.66l-.182.219L19.93 19l.217-.271c1.068-1.334 3.27-3.573 6.015-3.573 1.874 0 3.25.476 4.458 1.538 1.164 1.03 1.73 2.24 1.73 3.705v.497c-1.676-.825-3.761-1.243-6.207-1.243-3.147 0-5.706.753-7.603 2.239-1.922 1.503-2.897 3.55-2.897 6.088 0 2.4.92 4.429 2.737 6.028 1.804 1.589 4.074 2.393 6.749 2.393 2.949 0 5.375-1.233 7.22-3.667v3.058h4.873V20.738c0-3.134-.993-5.64-2.95-7.448-1.922-1.776-4.747-2.713-8.168-2.713" transform="translate(-830 -1037) translate(830 1037) translate(39 4) translate(94 8)"/>
                        <g transform="translate(-830 -1037) translate(830 1037) translate(39 4) translate(94 8) translate(66)">
                            <mask id="3z9cmp668b" fill="#fff">
                                <use xlink:href="#ncx44nbu5a"/>
                            </mask>
                            <path fill="#273A5B" d="M21.488 12.149L21.488 11.515 15.349 11.515 5.554 21.449 5.554 0.603 4.935 0.603 0.488 4.444 0.488 35.796 5.554 35.796 5.554 28.036 8.814 24.82 16.084 35.796 21.923 35.796 21.923 35.198 12.358 21.231z" mask="url(#3z9cmp668b)"/>
                        </g>
                        <path fill="#273A5B" d="M59.213 27.525c-1.713 2.579-4.105 4-6.734 4-2.162 0-3.788-.591-5.115-1.861-1.388-1.327-2.096-2.89-2.216-4.9 0 0-.155-2.031.41-4.305.42-1.618 1.178-2.927 2.205-3.802 1.148-.981 2.539-1.48 4.133-1.48 1.945 0 3.514.52 4.662 1.547.58.519 1.028 1.176 1.355 1.91h5.21c-.538-1.833-1.368-3.401-2.492-4.631-2.135-2.334-5.042-3.516-8.637-3.516-3.502 0-6.416 1.247-8.662 3.71-2.21 2.42-3.377 5.682-3.377 9.43 0 3.645 1.137 6.619 3.477 9.093 2.31 2.444 5.289 3.682 8.852 3.682 2.436 0 4.65-.585 6.58-1.74 1.548-.925 3.02-2.331 4.04-3.861l.149-.221-3.637-3.36-.203.305z" transform="translate(-830 -1037) translate(830 1037) translate(39 4) translate(94 8)"/>
                    </g>
                </g>
                <path d="M0 0H260V60H0z" transform="translate(-830 -1037) translate(830 1037)"/>
            </g>
        </g>
    </g>
</svg>
