<svg width="100" height="100" viewBox="0 0 100 100" xmlns="http://www.w3.org/2000/svg">
    <g fill="none" fill-rule="evenodd">
        <path d="M0 0h100v100H0z"/>
        <g transform="translate(11.5 10.5)">
            <rect fill="#E6E8EB" width="51.333" height="36.952" rx="3.2"/>
            <path d="M44.917 0h-38.5C2.879 0 0 2.858 0 6.371v25.484c0 3.513 2.879 6.37 6.417 6.37h12.335l-1.71 5.098h-4.209v2.548H35.933v-2.548h-4.208l-1.71-5.097h14.902c3.538 0 6.416-2.858 6.416-6.371V6.37C51.333 2.858 48.455 0 44.917 0zm-25.17 43.323 1.71-5.097h5.851l1.712 5.097h-9.273zm29.02-11.468c0 2.107-1.728 3.822-3.85 3.822h-38.5c-2.123 0-3.85-1.715-3.85-3.822V30.58h46.2v1.274zm0-3.823h-46.2V6.371c0-2.108 1.727-3.823 3.85-3.823h38.5c2.122 0 3.85 1.715 3.85 3.823v21.661z" fill="#000" fill-rule="nonzero"/>
            <path d="M24.464 10.83c-2.522 0-4.572 2.037-4.572 4.54s2.05 4.54 4.572 4.54c2.52 0 4.571-2.037 4.571-4.54s-2.05-4.54-4.571-4.54zm-.08 6.69a2.24 2.24 0 0 1-2.247-2.23 2.24 2.24 0 0 1 2.246-2.23c1.239 0 2.246 1 2.246 2.23a2.24 2.24 0 0 1-2.246 2.23z" fill="#000" fill-rule="nonzero"/>
            <path d="M33.51 11.892h-.667l-.058-.138.471-.467a1.126 1.126 0 0 0 0-1.602l-3.227-3.204c-.428-.426-1.185-.424-1.613 0l-.471.468-.14-.058v-.662c0-.626-.51-1.132-1.14-1.132h-4.563c-.631 0-1.14.506-1.14 1.132v.662c-.048.02-.094.037-.14.058l-.471-.468a1.142 1.142 0 0 0-1.613 0L15.51 9.685a1.128 1.128 0 0 0 0 1.602l.47.467-.057.138h-.667c-.63 0-1.14.507-1.14 1.133v4.53c0 .627.51 1.133 1.14 1.133h.667c.019.047.037.093.058.138l-.471.468a1.126 1.126 0 0 0 0 1.602l3.227 3.204c.428.425 1.185.425 1.613 0l.47-.468.14.058v.661c0 .627.51 1.133 1.14 1.133h4.564c.63 0 1.14-.506 1.14-1.133v-.661l.14-.058.47.468a1.142 1.142 0 0 0 1.614 0l3.227-3.204a1.128 1.128 0 0 0 0-1.602l-.471-.468c.02-.045.039-.091.058-.138h.666c.631 0 1.141-.506 1.141-1.132v-4.53c0-.627-.51-1.134-1.14-1.134zm-1.106 4.536h-.337c-.506 0-.953.33-1.097.812-.14.463-.32.9-.538 1.296-.242.444-.163.992.197 1.348l.235.233-1.62 1.61-.235-.234a1.157 1.157 0 0 0-1.358-.196c-.4.215-.837.395-1.305.534a1.136 1.136 0 0 0-.817 1.089v.334h-2.291v-.334c0-.503-.333-.947-.819-1.09a6.865 6.865 0 0 1-1.305-.534 1.154 1.154 0 0 0-1.358.196l-.234.233-1.62-1.609.234-.233c.359-.355.44-.904.197-1.348a6.805 6.805 0 0 1-.537-1.296 1.142 1.142 0 0 0-1.097-.811h-.337v-2.275h.337c.507 0 .954-.33 1.098-.813.14-.463.32-.898.537-1.295a1.132 1.132 0 0 0-.197-1.349l-.235-.233 1.62-1.608.236.233c.358.357.913.435 1.357.195.4-.215.838-.394 1.306-.533.484-.142.817-.586.817-1.089v-.334h2.291v.334c0 .503.332.947.818 1.09.467.139.905.317 1.305.534.446.238.998.161 1.358-.196l.235-.233 1.62 1.608-.235.234a1.133 1.133 0 0 0-.197 1.348c.217.397.398.831.538 1.295.143.482.59.812 1.096.812h.337v2.275zM66.963 56.174c2.211-1.87 3.62-4.65 3.62-7.755 0-5.62-4.606-10.193-10.266-10.193-5.661 0-10.267 4.573-10.267 10.193 0 3.104 1.41 5.885 3.62 7.755-5.654.74-10.037 5.545-10.037 11.358v7.645a1.28 1.28 0 0 0 1.284 1.275h30.8A1.28 1.28 0 0 0 77 75.177v-7.645c0-5.813-4.383-10.618-10.037-11.358zM6.417 67.532h2.566v2.549H6.417v-2.549zm10.266 0h2.567v2.549h-2.567v-2.549zm-5.133 0h2.567v2.549H11.55v-2.549zM52.617 48.42c0-4.216 3.453-7.645 7.7-7.645 4.246 0 7.7 3.429 7.7 7.645 0 4.217-3.454 7.646-7.7 7.646-4.247 0-7.7-3.43-7.7-7.646zm21.816 25.484H46.2v-6.37c0-4.92 4.03-8.92 8.983-8.92H65.45c4.954 0 8.983 4 8.983 8.92v6.37z" fill="#000" fill-rule="nonzero"/>
            <path d="m31.602 76.73-5.935-4.713v-7.033c0-3.513-2.879-6.371-6.417-6.371H6.417C2.879 58.613 0 61.47 0 64.983v7.646C0 76.142 2.879 79 6.417 79H30.8c.545 0 1.03-.343 1.21-.852.18-.51.017-1.08-.408-1.417zm-25.185-.278c-2.123 0-3.85-1.715-3.85-3.823v-7.645c0-2.108 1.727-3.823 3.85-3.823H19.25c2.123 0 3.85 1.715 3.85 3.823v7.645c0 .387.177.753.481.995l3.56 2.828H6.417zM53.9 15.29h2.567v2.548H53.9zM59.033 15.29H61.6v2.548h-2.567zM64.167 15.29h2.567v2.548h-2.567zM69.3 15.29h2.567v2.548H69.3zM69.3 20.387h2.567v2.548H69.3zM69.3 25.484h2.567v2.548H69.3zM69.3 30.581h2.567v2.548H69.3zM69.3 35.677h2.567v2.548H69.3zM23.1 48.419h2.567v2.548H23.1zM23.1 53.516h2.567v2.548H23.1z" fill="#000" fill-rule="nonzero"/>
            <path fill="#000" fill-rule="nonzero" d="M23.1 58.613h2.567v2.548H23.1zM23.1 63.71h2.567v2.548H23.1zM23.1 68.806h2.567v2.548H23.1zM28.233 68.806H30.8v2.548h-2.567zM33.367 68.806h2.567v2.548h-2.567zM38.5 68.806h2.567v2.548H38.5z"/>
        </g>
    </g>
</svg>
