<svg width="100" height="100" viewBox="0 0 100 100" xmlns="http://www.w3.org/2000/svg">
    <g fill="none" fill-rule="evenodd">
        <path d="M0 0h100v100H0z"/>
        <g fill="#616161" fill-rule="nonzero">
            <path d="M77.5 19h-55a5.506 5.506 0 0 0-5.5 5.5v41.8c0 3.033 2.467 5.5 5.5 5.5h21.692l-1.65 6.6H34.6a1.1 1.1 0 0 0-1.1 1.1c0 3.033 2.467 5.5 5.5 5.5h22c3.033 0 5.5-2.467 5.5-5.5a1.1 1.1 0 0 0-1.1-1.1h-7.942l-1.65-6.6H77.5c3.033 0 5.5-2.467 5.5-5.5V24.5c0-3.033-2.467-5.5-5.5-5.5zM56.6 80.6h7.512A3.306 3.306 0 0 1 61 82.8H39a3.306 3.306 0 0 1-3.112-2.2H56.6zm-11.79-2.2 1.65-6.6h7.08l1.65 6.6H44.81zM80.8 66.3c0 1.82-1.48 3.3-3.3 3.3h-55c-1.82 0-3.3-1.48-3.3-3.3v-1.1h61.6v1.1zm0-3.3H19.2V24.5c0-1.82 1.48-3.3 3.3-3.3h55c1.82 0 3.3 1.48 3.3 3.3V63z"/>
            <path d="m41.978 51.678-1.556-1.556-4.4 4.4c-.43.43-.43 1.126 0 1.556l4.4 4.4 1.556-1.556-3.623-3.622 3.623-3.622zM45.823 59.04l6.603-8.8 1.76 1.321-6.603 8.8zM63.978 54.522l-4.4-4.4-1.556 1.556 3.623 3.622-3.623 3.622 1.556 1.556 4.4-4.4c.43-.43.43-1.126 0-1.556zM61 32.2h-1.674c-.116-.327-.25-.648-.397-.96l1.183-1.185a1.099 1.099 0 0 0 0-1.555l-3.11-3.112a1.099 1.099 0 0 0-1.556 0l-1.185 1.183c-.313-.147-.633-.28-.961-.397V24.5a1.1 1.1 0 0 0-1.1-1.1h-4.4a1.1 1.1 0 0 0-1.1 1.1v1.674a9.901 9.901 0 0 0-.96.397l-1.185-1.182a1.099 1.099 0 0 0-1.555 0L39.889 28.5a1.099 1.099 0 0 0 0 1.555l1.183 1.185c-.148.312-.281.633-.397.96H39a1.1 1.1 0 0 0-1.1 1.1v4.4A1.1 1.1 0 0 0 39 38.8h1.674c.116.327.25.648.397.96l-1.183 1.185a1.099 1.099 0 0 0 0 1.555l3.11 3.112c.43.43 1.126.43 1.556 0l1.185-1.183c.312.148.632.281.96.397V46.5a1.1 1.1 0 0 0 1.1 1.1h4.4a1.1 1.1 0 0 0 1.1-1.1v-1.674c.328-.116.648-.249.96-.397l1.185 1.183c.43.43 1.125.43 1.555 0L60.11 42.5a1.099 1.099 0 0 0 0-1.555l-1.184-1.185c.149-.312.282-.633.398-.96H61a1.1 1.1 0 0 0 1.1-1.1v-4.4a1.1 1.1 0 0 0-1.1-1.1zm-1.1 4.4h-1.388a1.1 1.1 0 0 0-1.065.825 7.66 7.66 0 0 1-.82 1.98c-.255.432-.185.982.169 1.337l.982.98-1.555 1.557-.983-.981a1.1 1.1 0 0 0-1.337-.17 7.654 7.654 0 0 1-1.98.819 1.1 1.1 0 0 0-.823 1.065V45.4h-2.2v-1.388a1.1 1.1 0 0 0-.825-1.065 7.654 7.654 0 0 1-1.979-.818 1.099 1.099 0 0 0-1.337.169l-.983.981-1.555-1.556.982-.981a1.1 1.1 0 0 0 .17-1.337 7.66 7.66 0 0 1-.821-1.98 1.098 1.098 0 0 0-1.064-.825H40.1v-2.2h1.388a1.1 1.1 0 0 0 1.065-.825 7.66 7.66 0 0 1 .82-1.98 1.101 1.101 0 0 0-.169-1.337l-.982-.98 1.555-1.557.983.981c.354.355.906.426 1.337.17a7.654 7.654 0 0 1 1.98-.819 1.1 1.1 0 0 0 .823-1.065V25.6h2.2v1.388c0 .502.34.94.825 1.065.699.18 1.364.455 1.979.818a1.1 1.1 0 0 0 1.337-.169l.983-.981 1.555 1.556-.982.981a1.1 1.1 0 0 0-.17 1.337 7.66 7.66 0 0 1 .821 1.98 1.1 1.1 0 0 0 1.065.825H59.9v2.2z"/>
            <path d="M50 30a5.506 5.506 0 0 0-5.5 5.5c0 3.033 2.467 5.5 5.5 5.5s5.5-2.467 5.5-5.5S53.033 30 50 30zm0 8.8c-1.82 0-3.3-1.48-3.3-3.3 0-1.82 1.48-3.3 3.3-3.3 1.82 0 3.3 1.48 3.3 3.3 0 1.82-1.48 3.3-3.3 3.3zM34.6 27.8h2.2V30h-2.2zM30.2 27.8h2.2V30h-2.2zM25.8 27.8H28V30h-2.2zM21.4 27.8h2.2V30h-2.2zM21.4 32.2h2.2v2.2h-2.2zM21.4 36.6h2.2v2.2h-2.2zM21.4 41h2.2v2.2h-2.2zM21.4 45.4h2.2v2.2h-2.2zM21.4 49.8h2.2V52h-2.2zM21.4 54.2h2.2v2.2h-2.2zM25.8 54.2H28v2.2h-2.2zM30.2 54.2h2.2v2.2h-2.2zM67.6 54.2h2.2v2.2h-2.2zM72 54.2h2.2v2.2H72zM76.4 54.2h2.2v2.2h-2.2zM76.4 49.8h2.2V52h-2.2zM76.4 45.4h2.2v2.2h-2.2zM76.4 41h2.2v2.2h-2.2zM76.4 36.6h2.2v2.2h-2.2zM76.4 32.2h2.2v2.2h-2.2zM76.4 27.8h2.2V30h-2.2zM72 27.8h2.2V30H72zM67.6 27.8h2.2V30h-2.2zM63.2 27.8h2.2V30h-2.2z"/>
        </g>
    </g>
</svg>
